<?xml version="1.0" encoding="UTF-8" standalone="no"?>
<!DOCTYPE svg PUBLIC "-//W3C//DTD SVG 1.1//EN"
 "http://www.w3.org/Graphics/SVG/1.1/DTD/svg11.dtd">
<!-- Generated by graphviz version 2.42.4 (0)
 -->
<!-- Title: emitter Pages: 1 -->
<svg width="1496pt" height="1710pt"
 viewBox="0.00 0.00 1496.00 1709.50" xmlns="http://www.w3.org/2000/svg" xmlns:xlink="http://www.w3.org/1999/xlink">
<g id="graph0" class="graph" transform="scale(1 1) rotate(0) translate(4 1705.5)">
<title>emitter</title>
<polygon fill="#272623" stroke="transparent" points="-4,4 -4,-1705.5 1492,-1705.5 1492,4 -4,4"/>
<text text-anchor="middle" x="744" y="-1686.3" font-family="Helvetica,sans-Serif" font-size="14.00" fill="#ece1d7">walshadow CH emitter — parallel pipeline: reorder → decode ×M → batcher → inserter ×N → ack watermark</text>
<g id="clust1" class="cluster">
<title>cluster_src</title>
<path fill="#34302c" stroke="#4c4641" d="M241,-1363.5C241,-1363.5 987,-1363.5 987,-1363.5 993,-1363.5 999,-1369.5 999,-1375.5 999,-1375.5 999,-1658.5 999,-1658.5 999,-1664.5 993,-1670.5 987,-1670.5 987,-1670.5 241,-1670.5 241,-1670.5 235,-1670.5 229,-1664.5 229,-1658.5 229,-1658.5 229,-1375.5 229,-1375.5 229,-1369.5 235,-1363.5 241,-1363.5"/>
<text text-anchor="middle" x="614" y="-1655.3" font-family="Helvetica,sans-Serif" font-size="14.00" fill="#ece1d7">reorder coordinator — single&#45;threaded commit order &#160;(pipeline/reorder.rs, inner sink of QueueingRecordSink)</text>
</g>
<g id="clust2" class="cluster">
<title>cluster_decode</title>
<path fill="#34302c" stroke="#4c4641" d="M607,-1200.5C607,-1200.5 859,-1200.5 859,-1200.5 865,-1200.5 871,-1206.5 871,-1212.5 871,-1212.5 871,-1313.5 871,-1313.5 871,-1319.5 865,-1325.5 859,-1325.5 859,-1325.5 607,-1325.5 607,-1325.5 601,-1325.5 595,-1319.5 595,-1313.5 595,-1313.5 595,-1212.5 595,-1212.5 595,-1206.5 601,-1200.5 607,-1200.5"/>
<text text-anchor="middle" x="733" y="-1310.3" font-family="Helvetica,sans-Serif" font-size="14.00" fill="#ece1d7">decode pool ×M &#160;(pipeline/decode.rs)</text>
</g>
<g id="clust3" class="cluster">
<title>cluster_batch</title>
<path fill="#34302c" stroke="#4c4641" d="M719,-750.5C719,-750.5 1219,-750.5 1219,-750.5 1225,-750.5 1231,-756.5 1231,-762.5 1231,-762.5 1231,-1140.5 1231,-1140.5 1231,-1146.5 1225,-1152.5 1219,-1152.5 1219,-1152.5 719,-1152.5 719,-1152.5 713,-1152.5 707,-1146.5 707,-1140.5 707,-1140.5 707,-762.5 707,-762.5 707,-756.5 713,-750.5 719,-750.5"/>
<text text-anchor="middle" x="969" y="-1137.3" font-family="Helvetica,sans-Serif" font-size="14.00" fill="#ece1d7">InsertBatcher — single hub, per&#45;table accumulation &#160;(pipeline/batcher.rs)</text>
</g>
<g id="clust4" class="cluster">
<title>cluster_insert</title>
<path fill="#34302c" stroke="#4c4641" d="M785,-565.5C785,-565.5 1042,-565.5 1042,-565.5 1048,-565.5 1054,-571.5 1054,-577.5 1054,-577.5 1054,-689.5 1054,-689.5 1054,-695.5 1048,-701.5 1042,-701.5 1042,-701.5 785,-701.5 785,-701.5 779,-701.5 773,-695.5 773,-689.5 773,-689.5 773,-577.5 773,-577.5 773,-571.5 779,-565.5 785,-565.5"/>
<text text-anchor="middle" x="913.5" y="-686.3" font-family="Helvetica,sans-Serif" font-size="14.00" fill="#ece1d7">inserter pool ×N &#160;(pipeline/inserter.rs)</text>
</g>
<g id="clust5" class="cluster">
<title>cluster_ddl</title>
<path fill="#34302c" stroke="#4c4641" d="M167,-739.5C167,-739.5 551,-739.5 551,-739.5 557,-739.5 563,-745.5 563,-751.5 563,-751.5 563,-987.5 563,-987.5 563,-993.5 557,-999.5 551,-999.5 551,-999.5 167,-999.5 167,-999.5 161,-999.5 155,-993.5 155,-987.5 155,-987.5 155,-751.5 155,-751.5 155,-745.5 161,-739.5 167,-739.5"/>
<text text-anchor="middle" x="359" y="-984.3" font-family="Helvetica,sans-Serif" font-size="14.00" fill="#ece1d7">ordered control barriers — DDL / config / TOAST lifecycle</text>
</g>
<g id="clust6" class="cluster">
<title>cluster_ch</title>
<path fill="#34302c" stroke="#4c4641" d="M157,-394C157,-394 738,-394 738,-394 744,-394 750,-400 750,-406 750,-406 750,-515.5 750,-515.5 750,-521.5 744,-527.5 738,-527.5 738,-527.5 157,-527.5 157,-527.5 151,-527.5 145,-521.5 145,-515.5 145,-515.5 145,-406 145,-406 145,-400 151,-394 157,-394"/>
<text text-anchor="middle" x="447.5" y="-512.3" font-family="Helvetica,sans-Serif" font-size="14.00" fill="#ece1d7">ClickHouse — main insert pool + DDL + TOAST store connections</text>
</g>
<!-- reorder -->
<g id="node1" class="node">
<title>reorder</title>
<path fill="#4d4128" stroke="#6e6963" d="M618.5,-1434.5C618.5,-1434.5 381.5,-1434.5 381.5,-1434.5 375.5,-1434.5 369.5,-1428.5 369.5,-1422.5 369.5,-1422.5 369.5,-1383.5 369.5,-1383.5 369.5,-1377.5 375.5,-1371.5 381.5,-1371.5 381.5,-1371.5 618.5,-1371.5 618.5,-1371.5 624.5,-1371.5 630.5,-1377.5 630.5,-1383.5 630.5,-1383.5 630.5,-1422.5 630.5,-1422.5 630.5,-1428.5 624.5,-1434.5 618.5,-1434.5"/>
<text text-anchor="middle" x="500" y="-1422.5" font-family="Helvetica,sans-Serif" font-size="10.00" fill="#ece1d7">ReorderSink::on_record (RM_XACT only)</text>
<text text-anchor="middle" x="500" y="-1411.5" font-family="Helvetica,sans-Serif" font-size="10.00" fill="#ece1d7">COMMIT → CommittedDrain / DrainedBatch</text>
<text text-anchor="middle" x="500" y="-1400.5" font-family="Helvetica,sans-Serif" font-size="10.00" fill="#ece1d7">ABORT / empty commit → rows=0 seq</text>
<text text-anchor="middle" x="500" y="-1389.5" font-family="Helvetica,sans-Serif" font-size="10.00" fill="#ece1d7">barrier: Catalog / Config / ToastBarrier / TRUNCATE</text>
<text text-anchor="middle" x="500" y="-1378.5" font-family="Helvetica,sans-Serif" font-size="10.00" fill="#ece1d7">put new_rows through sealed row/event cursors</text>
</g>
<!-- decode -->
<g id="node3" class="node">
<title>decode</title>
<path fill="#4d4128" stroke="#6e6963" d="M820,-1271.5C820,-1271.5 622,-1271.5 622,-1271.5 616,-1271.5 610,-1265.5 610,-1259.5 610,-1259.5 610,-1220.5 610,-1220.5 610,-1214.5 616,-1208.5 622,-1208.5 622,-1208.5 820,-1208.5 820,-1208.5 826,-1208.5 832,-1214.5 832,-1220.5 832,-1220.5 832,-1259.5 832,-1259.5 832,-1265.5 826,-1271.5 820,-1271.5"/>
<text text-anchor="middle" x="721" y="-1259.5" font-family="Helvetica,sans-Serif" font-size="10.00" fill="#ece1d7">decode worker ×M</text>
<text text-anchor="middle" x="721" y="-1248.5" font-family="Helvetica,sans-Serif" font-size="10.00" fill="#ece1d7">detoast: ChunkMap, then store as&#45;of fetch</text>
<text text-anchor="middle" x="721" y="-1237.5" font-family="Helvetica,sans-Serif" font-size="10.00" fill="#ece1d7">resolve_at_pooled; mapping</text>
<text text-anchor="middle" x="721" y="-1226.5" font-family="Helvetica,sans-Serif" font-size="10.00" fill="#ece1d7">oracle PgPending + sampled validate</text>
<text text-anchor="middle" x="721" y="-1215.5" font-family="Helvetica,sans-Serif" font-size="10.00" fill="#ece1d7">chunk 1024 rows / 4 MiB</text>
</g>
<!-- reorder&#45;&gt;decode -->
<g id="edge5" class="edge">
<title>reorder&#45;&gt;decode</title>
<path fill="none" stroke="#bf8c5f" stroke-width="2" d="M542.09,-1371.34C558.48,-1359.4 578.18,-1345.05 598.42,-1330.3"/>
<polygon fill="#bf8c5f" stroke="#bf8c5f" stroke-width="2" points="600.19,-1332.47 605.01,-1325.5 596.9,-1327.95 600.19,-1332.47"/>
<text text-anchor="middle" x="634.5" y="-1346.3" font-family="Helvetica,sans-Serif" font-size="9.00" fill="#ece1d7">DecodeJob</text>
<text text-anchor="middle" x="634.5" y="-1336.3" font-family="Helvetica,sans-Serif" font-size="9.00" fill="#ece1d7">(mpmc, bound 4M)</text>
</g>
<!-- fence -->
<g id="node8" class="node">
<title>fence</title>
<path fill="#5d4628" stroke="#6e6963" d="M349,-945.5C349,-945.5 219,-945.5 219,-945.5 213,-945.5 207,-939.5 207,-933.5 207,-933.5 207,-905.5 207,-905.5 207,-899.5 213,-893.5 219,-893.5 219,-893.5 349,-893.5 349,-893.5 355,-893.5 361,-899.5 361,-905.5 361,-905.5 361,-933.5 361,-933.5 361,-939.5 355,-945.5 349,-945.5"/>
<text text-anchor="middle" x="284" y="-933.5" font-family="Helvetica,sans-Serif" font-size="10.00" fill="#ece1d7">barrier_fence</text>
<text text-anchor="middle" x="284" y="-922.5" font-family="Helvetica,sans-Serif" font-size="10.00" fill="#ece1d7">1. wait all seqs placed</text>
<text text-anchor="middle" x="284" y="-911.5" font-family="Helvetica,sans-Serif" font-size="10.00" fill="#ece1d7">2. batcher FlushAll (+ reply)</text>
<text text-anchor="middle" x="284" y="-900.5" font-family="Helvetica,sans-Serif" font-size="10.00" fill="#ece1d7">3. wait all seqs durable</text>
</g>
<!-- reorder&#45;&gt;fence -->
<g id="edge13" class="edge">
<title>reorder&#45;&gt;fence</title>
<path fill="none" stroke="#bf8c5f" stroke-dasharray="5,2" d="M485.29,-1371.31C465.71,-1330.27 430.15,-1255.19 401,-1190.5 373.47,-1129.4 343.43,-1060.01 320.68,-1006.88"/>
<polygon fill="#bf8c5f" stroke="#bf8c5f" points="323.24,-1005.75 317.52,-999.5 318.09,-1007.95 323.24,-1005.75"/>
<text text-anchor="middle" x="451" y="-1178.3" font-family="Helvetica,sans-Serif" font-size="9.00" fill="#ece1d7">barrier xact:</text>
<text text-anchor="middle" x="451" y="-1168.3" font-family="Helvetica,sans-Serif" font-size="9.00" fill="#ece1d7">per event / TRUNCATE</text>
</g>
<!-- toastput -->
<g id="node14" class="node">
<title>toastput</title>
<path fill="#4d4d28" stroke="#6e6963" d="M628,-1087.5C628,-1087.5 444,-1087.5 444,-1087.5 438,-1087.5 432,-1081.5 432,-1075.5 432,-1075.5 432,-1058.5 432,-1058.5 432,-1052.5 438,-1046.5 444,-1046.5 444,-1046.5 628,-1046.5 628,-1046.5 634,-1046.5 640,-1052.5 640,-1058.5 640,-1058.5 640,-1075.5 640,-1075.5 640,-1081.5 634,-1087.5 628,-1087.5"/>
<text text-anchor="middle" x="536" y="-1075.5" font-family="Helvetica,sans-Serif" font-size="10.00" fill="#ece1d7">ToastResolver</text>
<text text-anchor="middle" x="536" y="-1064.5" font-family="Helvetica,sans-Serif" font-size="10.00" fill="#ece1d7">put births + tombstones before publish</text>
<text text-anchor="middle" x="536" y="-1053.5" font-family="Helvetica,sans-Serif" font-size="10.00" fill="#ece1d7">as&#45;of fetch for pre&#45;window values</text>
</g>
<!-- reorder&#45;&gt;toastput -->
<g id="edge9" class="edge">
<title>reorder&#45;&gt;toastput</title>
<path fill="none" stroke="#bf8c5f" stroke-dasharray="5,2" d="M499.35,-1371.48C498.9,-1331.89 499.42,-1260.76 507,-1200.5 511.63,-1163.66 521.56,-1121.93 528.5,-1095.31"/>
<polygon fill="#bf8c5f" stroke="#bf8c5f" points="531.22,-1096.01 530.55,-1087.56 525.8,-1094.58 531.22,-1096.01"/>
<text text-anchor="middle" x="547.5" y="-1237.8" font-family="Helvetica,sans-Serif" font-size="9.00" fill="#ece1d7">new_rows cursors</text>
</g>
<!-- ack -->
<g id="node16" class="node">
<title>ack</title>
<polygon fill="#4d3a28" stroke="#6e6963" points="1089,-469.25 771,-469.25 771,-406.25 1095,-406.25 1095,-463.25 1089,-469.25"/>
<polyline fill="none" stroke="#6e6963" points="1089,-469.25 1089,-463.25 "/>
<polyline fill="none" stroke="#6e6963" points="1095,-463.25 1089,-463.25 "/>
<text text-anchor="middle" x="933" y="-457.25" font-family="Helvetica,sans-Serif" font-size="10.00" fill="#ece1d7">ack collector &#160;(pipeline/ack.rs)</text>
<text text-anchor="middle" x="933" y="-446.25" font-family="Helvetica,sans-Serif" font-size="10.00" fill="#ece1d7">Register(seq, commit_lsn) · Placed(seq, rows) · Acked(per_seq)</text>
<text text-anchor="middle" x="933" y="-435.25" font-family="Helvetica,sans-Serif" font-size="10.00" fill="#ece1d7">seq done ⇔ placed == acked &#160;(rows=0 done at placement)</text>
<text text-anchor="middle" x="933" y="-424.25" font-family="Helvetica,sans-Serif" font-size="10.00" fill="#ece1d7">watermark = highest contiguous&#45;done commit_lsn</text>
<text text-anchor="middle" x="933" y="-413.25" font-family="Helvetica,sans-Serif" font-size="10.00" fill="#ece1d7">→ emitter_ack atomic → cursor + standby apply_lsn</text>
</g>
<!-- reorder&#45;&gt;ack -->
<g id="edge19" class="edge">
<title>reorder&#45;&gt;ack</title>
<path fill="none" stroke="#b380b0" stroke-dasharray="1,5" d="M630.51,-1383.51C703.57,-1371.15 795.65,-1352.2 875,-1325.5 1043.25,-1268.88 1110.43,-1278.97 1235,-1152.5 1339.1,-1046.81 1343.15,-994.39 1375,-849.5 1416.6,-660.28 1167.42,-530.09 1025.88,-472.39"/>
<polygon fill="#b380b0" stroke="#b380b0" points="1026.85,-469.76 1018.38,-469.36 1024.75,-474.95 1026.85,-469.76"/>
<text text-anchor="middle" x="1429" y="-917.3" font-family="Helvetica,sans-Serif" font-size="9.00" fill="#ece1d7">Register(seq, commit_lsn)</text>
</g>
<!-- cat -->
<g id="node2" class="node">
<title>cat</title>
<path fill="#4d4d28" stroke="#6e6963" d="M683.89,-1616.5C683.89,-1616.5 396.27,-1616.5 396.27,-1616.5 390.27,-1616.5 381.05,-1611.44 377.83,-1606.38 377.83,-1606.38 310.55,-1500.62 310.55,-1500.62 307.33,-1495.56 310.11,-1490.5 316.11,-1490.5 316.11,-1490.5 603.73,-1490.5 603.73,-1490.5 609.73,-1490.5 618.95,-1495.56 622.17,-1500.62 622.17,-1500.62 689.45,-1606.38 689.45,-1606.38 692.67,-1611.44 689.89,-1616.5 683.89,-1616.5"/>
<text text-anchor="middle" x="500" y="-1573" font-family="Helvetica,sans-Serif" font-size="10.00" fill="#ece1d7">ShadowCatalog::subscribe</text>
<text text-anchor="middle" x="500" y="-1562" font-family="Helvetica,sans-Serif" font-size="10.00" fill="#ece1d7">SchemaEvent</text>
<text text-anchor="middle" x="500" y="-1551" font-family="Helvetica,sans-Serif" font-size="10.00" fill="#ece1d7">Added / Changed / Dropped</text>
<text text-anchor="middle" x="500" y="-1540" font-family="Helvetica,sans-Serif" font-size="10.00" fill="#ece1d7">(unbounded mpsc, rides xact buffer</text>
<text text-anchor="middle" x="500" y="-1529" font-family="Helvetica,sans-Serif" font-size="10.00" fill="#ece1d7"> as ordered_events)</text>
</g>
<!-- cat&#45;&gt;reorder -->
<g id="edge12" class="edge">
<title>cat&#45;&gt;reorder</title>
<path fill="none" stroke="#cba85e" stroke-dasharray="5,2" d="M500,-1490.38C500,-1474.3 500,-1457.45 500,-1442.93"/>
<polygon fill="#cba85e" stroke="#cba85e" points="502.8,-1442.68 500,-1434.68 497.2,-1442.68 502.8,-1442.68"/>
<text text-anchor="middle" x="539" y="-1465.3" font-family="Helvetica,sans-Serif" font-size="9.00" fill="#ece1d7">SchemaEvent</text>
<text text-anchor="middle" x="539" y="-1455.3" font-family="Helvetica,sans-Serif" font-size="9.00" fill="#ece1d7">drains at commit</text>
</g>
<!-- enc -->
<g id="node4" class="node">
<title>enc</title>
<polygon fill="#5d4628" stroke="#6e6963" points="966,-1098.5 776,-1098.5 776,-1035.5 972,-1035.5 972,-1092.5 966,-1098.5"/>
<polyline fill="none" stroke="#6e6963" points="966,-1098.5 966,-1092.5 "/>
<polyline fill="none" stroke="#6e6963" points="972,-1092.5 966,-1092.5 "/>
<text text-anchor="middle" x="874" y="-1086.5" font-family="Helvetica,sans-Serif" font-size="10.00" fill="#ece1d7">TableEncoder per dest table</text>
<text text-anchor="middle" x="874" y="-1075.5" font-family="Helvetica,sans-Serif" font-size="10.00" fill="#ece1d7">ColumnBuf slabs: Fixed / String /</text>
<text text-anchor="middle" x="874" y="-1064.5" font-family="Helvetica,sans-Serif" font-size="10.00" fill="#ece1d7">NullableFixed / NullableString</text>
<text text-anchor="middle" x="874" y="-1053.5" font-family="Helvetica,sans-Serif" font-size="10.00" fill="#ece1d7">column&#45;major + synthetic</text>
<text text-anchor="middle" x="874" y="-1042.5" font-family="Helvetica,sans-Serif" font-size="10.00" fill="#ece1d7">_lsn / _xid / _commit_ts / _is_deleted</text>
</g>
<!-- decode&#45;&gt;enc -->
<g id="edge6" class="edge">
<title>decode&#45;&gt;enc</title>
<path fill="none" stroke="#bf8c5f" stroke-width="2" d="M733.59,-1208.21C740.65,-1192.98 750.39,-1174.84 762,-1160.5 762.48,-1159.91 762.96,-1159.32 763.44,-1158.74"/>
<polygon fill="#bf8c5f" stroke="#bf8c5f" stroke-width="2" points="765.71,-1160.4 768.79,-1152.5 761.46,-1156.75 765.71,-1160.4"/>
<text text-anchor="middle" x="809.5" y="-1183.3" font-family="Helvetica,sans-Serif" font-size="9.00" fill="#ece1d7">BatcherMsg::Rows</text>
<text text-anchor="middle" x="809.5" y="-1173.3" font-family="Helvetica,sans-Serif" font-size="9.00" fill="#ece1d7">(FIFO mpsc 256 —</text>
<text text-anchor="middle" x="809.5" y="-1163.3" font-family="Helvetica,sans-Serif" font-size="9.00" fill="#ece1d7">shared with FlushAll)</text>
</g>
<!-- decode&#45;&gt;toastput -->
<g id="edge10" class="edge">
<title>decode&#45;&gt;toastput</title>
<path fill="none" stroke="#cba85e" stroke-dasharray="5,2" d="M687.93,-1208.43C652.31,-1175.51 596.32,-1123.75 563.17,-1093.12"/>
<polygon fill="#cba85e" stroke="#cba85e" points="565.04,-1091.03 557.26,-1087.65 561.24,-1095.14 565.04,-1091.03"/>
<text text-anchor="middle" x="678" y="-1173.3" font-family="Helvetica,sans-Serif" font-size="9.00" fill="#ece1d7">fetch</text>
</g>
<!-- decode&#45;&gt;ack -->
<g id="edge20" class="edge">
<title>decode&#45;&gt;ack</title>
<path fill="none" stroke="#b380b0" stroke-dasharray="1,5" d="M647.52,-1208.34C641.42,-1203.22 636.04,-1197.31 632,-1190.5 625.19,-1179.04 624.27,-1171.37 632,-1160.5 638.27,-1151.68 648.06,-1160.8 655,-1152.5 737.25,-1054.12 606.15,-954.89 700,-867.5 787.82,-785.73 1156.85,-909.89 1238,-821.5 1262.65,-794.65 1263.08,-765.94 1238,-739.5 1223.45,-724.16 1062.55,-744.84 1048,-729.5 1041.88,-723.05 1043.66,-717.26 1048,-709.5 1051.31,-703.58 1057.69,-707.42 1061,-701.5 1090.48,-648.73 1079.17,-623.15 1061,-565.5 1049.11,-527.79 1017.74,-496.41 989.04,-474.31"/>
<polygon fill="#b380b0" stroke="#b380b0" points="990.66,-472.02 982.58,-469.45 987.29,-476.5 990.66,-472.02"/>
<text text-anchor="middle" x="1251" y="-842.3" font-family="Helvetica,sans-Serif" font-size="9.00" fill="#ece1d7">Placed(seq, rows)</text>
</g>
<!-- trip -->
<g id="node5" class="node">
<title>trip</title>
<path fill="#5d4628" stroke="#6e6963" d="M910.36,-968.58C910.36,-968.58 726.64,-922.42 726.64,-922.42 720.82,-920.96 720.82,-918.04 726.64,-916.58 726.64,-916.58 910.36,-870.42 910.36,-870.42 916.18,-868.96 927.82,-868.96 933.64,-870.42 933.64,-870.42 1117.36,-916.58 1117.36,-916.58 1123.18,-918.04 1123.18,-920.96 1117.36,-922.42 1117.36,-922.42 933.64,-968.58 933.64,-968.58 927.82,-970.04 916.18,-970.04 910.36,-968.58"/>
<text text-anchor="middle" x="922" y="-933.5" font-family="Helvetica,sans-Serif" font-size="10.00" fill="#ece1d7">flush trigger</text>
<text text-anchor="middle" x="922" y="-922.5" font-family="Helvetica,sans-Serif" font-size="10.00" fill="#ece1d7">row_budget 65536 · byte_budget 1 MiB</text>
<text text-anchor="middle" x="922" y="-911.5" font-family="Helvetica,sans-Serif" font-size="10.00" fill="#ece1d7">per&#45;table deadline (flush_timeout,</text>
<text text-anchor="middle" x="922" y="-900.5" font-family="Helvetica,sans-Serif" font-size="10.00" fill="#ece1d7"> 0 → 100 ms floor) · FlushAll</text>
</g>
<!-- enc&#45;&gt;trip -->
<g id="edge1" class="edge">
<title>enc&#45;&gt;trip</title>
<path fill="none" stroke="#c1a78e" d="M884.06,-1035.5C889.79,-1018.13 897.14,-995.86 903.84,-975.54"/>
<polygon fill="#c1a78e" stroke="#c1a78e" points="906.53,-976.34 906.38,-967.86 901.21,-974.58 906.53,-976.34"/>
</g>
<!-- seal -->
<g id="node6" class="node">
<title>seal</title>
<path fill="#5d4628" stroke="#6e6963" d="M1005.5,-810.5C1005.5,-810.5 838.5,-810.5 838.5,-810.5 832.5,-810.5 826.5,-804.5 826.5,-798.5 826.5,-798.5 826.5,-770.5 826.5,-770.5 826.5,-764.5 832.5,-758.5 838.5,-758.5 838.5,-758.5 1005.5,-758.5 1005.5,-758.5 1011.5,-758.5 1017.5,-764.5 1017.5,-770.5 1017.5,-770.5 1017.5,-798.5 1017.5,-798.5 1017.5,-804.5 1011.5,-810.5 1005.5,-810.5"/>
<text text-anchor="middle" x="922" y="-798.5" font-family="Helvetica,sans-Serif" font-size="10.00" fill="#ece1d7">seal InsertBatch</text>
<text text-anchor="middle" x="922" y="-787.5" font-family="Helvetica,sans-Serif" font-size="10.00" fill="#ece1d7">owned slabs + per_seq row counts</text>
<text text-anchor="middle" x="922" y="-776.5" font-family="Helvetica,sans-Serif" font-size="10.00" fill="#ece1d7">FlushAll also bumps schema_epoch</text>
<text text-anchor="middle" x="922" y="-765.5" font-family="Helvetica,sans-Serif" font-size="10.00" fill="#ece1d7">(rebuild plans post&#45;DDL)</text>
</g>
<!-- trip&#45;&gt;seal -->
<g id="edge2" class="edge">
<title>trip&#45;&gt;seal</title>
<path fill="none" stroke="#c1a78e" d="M922,-867.46C922,-851.17 922,-833.57 922,-818.87"/>
<polygon fill="#c1a78e" stroke="#c1a78e" points="924.8,-818.58 922,-810.58 919.2,-818.58 924.8,-818.58"/>
</g>
<!-- ins -->
<g id="node7" class="node">
<title>ins</title>
<path fill="#5d4628" stroke="#6e6963" d="M1018,-647.5C1018,-647.5 826,-647.5 826,-647.5 820,-647.5 814,-641.5 814,-635.5 814,-635.5 814,-585.5 814,-585.5 814,-579.5 820,-573.5 826,-573.5 826,-573.5 1018,-573.5 1018,-573.5 1024,-573.5 1030,-579.5 1030,-585.5 1030,-585.5 1030,-635.5 1030,-635.5 1030,-641.5 1024,-647.5 1018,-647.5"/>
<text text-anchor="middle" x="922" y="-635.5" font-family="Helvetica,sans-Serif" font-size="10.00" fill="#ece1d7">inserter ×N — any idle takes any batch</text>
<text text-anchor="middle" x="922" y="-624.5" font-family="Helvetica,sans-Serif" font-size="10.00" fill="#ece1d7">TypeAst cache per (table, epoch)</text>
<text text-anchor="middle" x="922" y="-613.5" font-family="Helvetica,sans-Serif" font-size="10.00" fill="#ece1d7">BlockBuilder over owned slabs</text>
<text text-anchor="middle" x="922" y="-602.5" font-family="Helvetica,sans-Serif" font-size="10.00" fill="#ece1d7">send_query → send_data → EndOfStream</text>
<text text-anchor="middle" x="922" y="-591.5" font-family="Helvetica,sans-Serif" font-size="10.00" fill="#ece1d7">send_with_retry: reconnect + backoff,</text>
<text text-anchor="middle" x="922" y="-580.5" font-family="Helvetica,sans-Serif" font-size="10.00" fill="#ece1d7">insert_timeout 30 s; exhaustion = Fatal</text>
</g>
<!-- seal&#45;&gt;ins -->
<g id="edge7" class="edge">
<title>seal&#45;&gt;ins</title>
<path fill="none" stroke="#bf8c5f" stroke-width="2" d="M922,-758.49C922,-745.19 922,-727.88 922,-709.83"/>
<polygon fill="#bf8c5f" stroke="#bf8c5f" stroke-width="2" points="924.8,-709.5 922,-701.5 919.2,-709.5 924.8,-709.5"/>
<text text-anchor="middle" x="948.5" y="-722.3" font-family="Helvetica,sans-Serif" font-size="9.00" fill="#ece1d7">InsertBatch</text>
<text text-anchor="middle" x="948.5" y="-712.3" font-family="Helvetica,sans-Serif" font-size="9.00" fill="#ece1d7">(mpmc)</text>
</g>
<!-- chrows -->
<g id="node11" class="node">
<title>chrows</title>
<path fill="#4d4128" stroke="#6e6963" d="M742,-466.8C742,-470.36 696.28,-473.25 640,-473.25 583.72,-473.25 538,-470.36 538,-466.8 538,-466.8 538,-408.7 538,-408.7 538,-405.14 583.72,-402.25 640,-402.25 696.28,-402.25 742,-405.14 742,-408.7 742,-408.7 742,-466.8 742,-466.8"/>
<path fill="none" stroke="#6e6963" d="M742,-466.8C742,-463.24 696.28,-460.34 640,-460.34 583.72,-460.34 538,-463.24 538,-466.8"/>
<text text-anchor="middle" x="640" y="-451.75" font-family="Helvetica,sans-Serif" font-size="10.00" fill="#ece1d7">insert connections ×N</text>
<text text-anchor="middle" x="640" y="-440.75" font-family="Helvetica,sans-Serif" font-size="10.00" fill="#ece1d7">clickhouse&#45;c&#45;rs AsyncClient</text>
<text text-anchor="middle" x="640" y="-429.75" font-family="Helvetica,sans-Serif" font-size="10.00" fill="#ece1d7">ReplacingMergeTree(_lsn, _is_deleted)</text>
<text text-anchor="middle" x="640" y="-418.75" font-family="Helvetica,sans-Serif" font-size="10.00" fill="#ece1d7">Native rows</text>
</g>
<!-- ins&#45;&gt;chrows -->
<g id="edge8" class="edge">
<title>ins&#45;&gt;chrows</title>
<path fill="none" stroke="#bf8c5f" stroke-width="2" d="M841.89,-573.43C814.38,-560.07 783.78,-544.11 757,-527.5 733.44,-512.89 708.79,-494.68 688.22,-478.56"/>
<polygon fill="#bf8c5f" stroke="#bf8c5f" stroke-width="2" points="689.71,-476.17 681.69,-473.41 686.24,-480.57 689.71,-476.17"/>
<text text-anchor="middle" x="853.5" y="-548.3" font-family="Helvetica,sans-Serif" font-size="9.00" fill="#ece1d7">one complete INSERT</text>
<text text-anchor="middle" x="853.5" y="-538.3" font-family="Helvetica,sans-Serif" font-size="9.00" fill="#ece1d7">per sealed batch</text>
</g>
<!-- ins&#45;&gt;ack -->
<g id="edge21" class="edge">
<title>ins&#45;&gt;ack</title>
<path fill="none" stroke="#b380b0" stroke-dasharray="1,5" d="M924.33,-573.29C926.14,-545.22 928.64,-506.4 930.49,-477.67"/>
<polygon fill="#b380b0" stroke="#b380b0" points="933.3,-477.64 931.02,-469.48 927.71,-477.28 933.3,-477.64"/>
<text text-anchor="middle" x="979.5" y="-548.3" font-family="Helvetica,sans-Serif" font-size="9.00" fill="#ece1d7">Acked(per_seq)</text>
<text text-anchor="middle" x="979.5" y="-538.3" font-family="Helvetica,sans-Serif" font-size="9.00" fill="#ece1d7">only after EndOfStream</text>
</g>
<!-- fence&#45;&gt;trip -->
<g id="edge18" class="edge">
<title>fence&#45;&gt;trip</title>
<path fill="none" stroke="#b58b86" stroke-dasharray="5,2" d="M305.52,-945.65C322.48,-964.06 347.89,-987.19 376,-997.5 439.84,-1020.92 614.84,-1008.14 682,-997.5 734.36,-989.21 790.84,-971.33 835.85,-954.78"/>
<polygon fill="#b58b86" stroke="#b58b86" points="837.02,-957.33 843.54,-951.92 835.07,-952.08 837.02,-957.33"/>
<text text-anchor="middle" x="628" y="-1010.3" font-family="Helvetica,sans-Serif" font-size="9.00" fill="#ece1d7">FlushAll</text>
</g>
<!-- apply -->
<g id="node10" class="node">
<title>apply</title>
<path fill="#5d4628" stroke="#6e6963" d="M390,-821.5C390,-821.5 178,-821.5 178,-821.5 172,-821.5 166,-815.5 166,-809.5 166,-809.5 166,-759.5 166,-759.5 166,-753.5 172,-747.5 178,-747.5 178,-747.5 390,-747.5 390,-747.5 396,-747.5 402,-753.5 402,-759.5 402,-759.5 402,-809.5 402,-809.5 402,-815.5 396,-821.5 390,-821.5"/>
<text text-anchor="middle" x="284" y="-809.5" font-family="Helvetica,sans-Serif" font-size="10.00" fill="#ece1d7">apply ordered control</text>
<text text-anchor="middle" x="284" y="-798.5" font-family="Helvetica,sans-Serif" font-size="10.00" fill="#ece1d7">Catalog → DdlApplicator</text>
<text text-anchor="middle" x="284" y="-787.5" font-family="Helvetica,sans-Serif" font-size="10.00" fill="#ece1d7">Config → resolver republish</text>
<text text-anchor="middle" x="284" y="-776.5" font-family="Helvetica,sans-Serif" font-size="10.00" fill="#ece1d7">owner TRUNCATE → dest + toast mirror wipe</text>
<text text-anchor="middle" x="284" y="-765.5" font-family="Helvetica,sans-Serif" font-size="10.00" fill="#ece1d7">ToastBarrier → rewrite O−B</text>
<text text-anchor="middle" x="284" y="-754.5" font-family="Helvetica,sans-Serif" font-size="10.00" fill="#ece1d7">toast Dropped → durable retire enqueue</text>
</g>
<!-- fence&#45;&gt;apply -->
<g id="edge3" class="edge">
<title>fence&#45;&gt;apply</title>
<path fill="none" stroke="#c1a78e" d="M284,-893.48C284,-875.61 284,-851.09 284,-829.93"/>
<polygon fill="#c1a78e" stroke="#c1a78e" points="286.8,-829.7 284,-821.7 281.2,-829.7 286.8,-829.7"/>
</g>
<!-- bridge -->
<g id="node9" class="node">
<title>bridge</title>
<path fill="#5d4628" stroke="#6e6963" d="M525.5,-945.5C525.5,-945.5 402.5,-945.5 402.5,-945.5 396.5,-945.5 390.5,-939.5 390.5,-933.5 390.5,-933.5 390.5,-905.5 390.5,-905.5 390.5,-899.5 396.5,-893.5 402.5,-893.5 402.5,-893.5 525.5,-893.5 525.5,-893.5 531.5,-893.5 537.5,-899.5 537.5,-905.5 537.5,-905.5 537.5,-933.5 537.5,-933.5 537.5,-939.5 531.5,-945.5 525.5,-945.5"/>
<text text-anchor="middle" x="464" y="-933.5" font-family="Helvetica,sans-Serif" font-size="10.00" fill="#ece1d7">type_bridge::map</text>
<text text-anchor="middle" x="464" y="-922.5" font-family="Helvetica,sans-Serif" font-size="10.00" fill="#ece1d7">RelAttr → ResolvedColumn</text>
<text text-anchor="middle" x="464" y="-911.5" font-family="Helvetica,sans-Serif" font-size="10.00" fill="#ece1d7">(reject type change,</text>
<text text-anchor="middle" x="464" y="-900.5" font-family="Helvetica,sans-Serif" font-size="10.00" fill="#ece1d7"> pk strips Nullable)</text>
</g>
<!-- bridge&#45;&gt;apply -->
<g id="edge4" class="edge">
<title>bridge&#45;&gt;apply</title>
<path fill="none" stroke="#c1a78e" stroke-dasharray="5,2" d="M430.14,-893.48C404.67,-874.67 369.22,-848.47 339.61,-826.59"/>
<polygon fill="#c1a78e" stroke="#c1a78e" points="341.1,-824.21 333,-821.7 337.77,-828.71 341.1,-824.21"/>
<text text-anchor="middle" x="398" y="-842.3" font-family="Helvetica,sans-Serif" font-size="9.00" fill="#ece1d7">resolve types</text>
</g>
<!-- chddl -->
<g id="node12" class="node">
<title>chddl</title>
<path fill="#4d4128" stroke="#6e6963" d="M304.5,-466.8C304.5,-470.36 270.66,-473.25 229,-473.25 187.34,-473.25 153.5,-470.36 153.5,-466.8 153.5,-466.8 153.5,-408.7 153.5,-408.7 153.5,-405.14 187.34,-402.25 229,-402.25 270.66,-402.25 304.5,-405.14 304.5,-408.7 304.5,-408.7 304.5,-466.8 304.5,-466.8"/>
<path fill="none" stroke="#6e6963" d="M304.5,-466.8C304.5,-463.24 270.66,-460.34 229,-460.34 187.34,-460.34 153.5,-463.24 153.5,-466.8"/>
<text text-anchor="middle" x="229" y="-451.75" font-family="Helvetica,sans-Serif" font-size="10.00" fill="#ece1d7">DDL connection</text>
<text text-anchor="middle" x="229" y="-440.75" font-family="Helvetica,sans-Serif" font-size="10.00" fill="#ece1d7">clickhouse&#45;c&#45;rs AsyncClient</text>
<text text-anchor="middle" x="229" y="-429.75" font-family="Helvetica,sans-Serif" font-size="10.00" fill="#ece1d7">ALTER / CREATE /</text>
<text text-anchor="middle" x="229" y="-418.75" font-family="Helvetica,sans-Serif" font-size="10.00" fill="#ece1d7"> DROP / TRUNCATE</text>
</g>
<!-- apply&#45;&gt;chddl -->
<g id="edge14" class="edge">
<title>apply&#45;&gt;chddl</title>
<path fill="none" stroke="#bf8c5f" stroke-width="2" stroke-dasharray="5,2" d="M183.15,-747.31C163.96,-735.69 146.34,-720.69 135,-701.5 104.24,-649.47 116.04,-622.89 135,-565.5 145.65,-533.26 168.02,-502.53 188.26,-479.41"/>
<polygon fill="#bf8c5f" stroke="#bf8c5f" stroke-width="2" points="190.39,-481.23 193.63,-473.39 186.21,-477.5 190.39,-481.23"/>
<text text-anchor="middle" x="175" y="-613.3" font-family="Helvetica,sans-Serif" font-size="9.00" fill="#ece1d7">DDL SQL</text>
<text text-anchor="middle" x="175" y="-603.3" font-family="Helvetica,sans-Serif" font-size="9.00" fill="#ece1d7">(own connection)</text>
</g>
<!-- chtoast -->
<g id="node13" class="node">
<title>chtoast</title>
<path fill="#4d4128" stroke="#6e6963" d="M508.5,-460.97C508.5,-463.81 469.28,-466.13 421,-466.13 372.72,-466.13 333.5,-463.81 333.5,-460.97 333.5,-460.97 333.5,-414.53 333.5,-414.53 333.5,-411.69 372.72,-409.37 421,-409.37 469.28,-409.37 508.5,-411.69 508.5,-414.53 508.5,-414.53 508.5,-460.97 508.5,-460.97"/>
<path fill="none" stroke="#6e6963" d="M508.5,-460.97C508.5,-458.12 469.28,-455.81 421,-455.81 372.72,-455.81 333.5,-458.12 333.5,-460.97"/>
<text text-anchor="middle" x="421" y="-446.25" font-family="Helvetica,sans-Serif" font-size="10.00" fill="#ece1d7">TOAST store connection</text>
<text text-anchor="middle" x="421" y="-435.25" font-family="Helvetica,sans-Serif" font-size="10.00" fill="#ece1d7">pg_toast_&lt;relid&gt; mirrors</text>
<text text-anchor="middle" x="421" y="-424.25" font-family="Helvetica,sans-Serif" font-size="10.00" fill="#ece1d7">put / as&#45;of fetch / truncate / O−B</text>
</g>
<!-- apply&#45;&gt;chtoast -->
<g id="edge15" class="edge">
<title>apply&#45;&gt;chtoast</title>
<path fill="none" stroke="#bf8c5f" stroke-dasharray="5,2" d="M269.82,-747.26C254.55,-702.04 236.16,-623.61 266,-565.5 279.24,-539.72 296.26,-545.48 319,-527.5 341.43,-509.76 365.61,-488.81 384.79,-471.72"/>
<polygon fill="#bf8c5f" stroke="#bf8c5f" points="386.74,-473.74 390.84,-466.32 383.01,-469.56 386.74,-473.74"/>
<text text-anchor="middle" x="300.5" y="-608.3" font-family="Helvetica,sans-Serif" font-size="9.00" fill="#ece1d7">truncate / O−B</text>
</g>
<!-- ledger -->
<g id="node15" class="node">
<title>ledger</title>
<polygon fill="#4d3850" stroke="#6e6963" points="539,-631 349,-631 349,-590 545,-590 545,-625 539,-631"/>
<polyline fill="none" stroke="#6e6963" points="539,-631 539,-625 "/>
<polyline fill="none" stroke="#6e6963" points="545,-625 539,-625 "/>
<text text-anchor="middle" x="447" y="-619" font-family="Helvetica,sans-Serif" font-size="10.00" fill="#ece1d7">{spill_dir}/toast_retires.bin</text>
<text text-anchor="middle" x="447" y="-608" font-family="Helvetica,sans-Serif" font-size="10.00" fill="#ece1d7">fsynced before dropping commit ack</text>
<text text-anchor="middle" x="447" y="-597" font-family="Helvetica,sans-Serif" font-size="10.00" fill="#ece1d7">standup / commit / idle flush</text>
</g>
<!-- apply&#45;&gt;ledger -->
<g id="edge16" class="edge">
<title>apply&#45;&gt;ledger</title>
<path fill="none" stroke="#6e6963" stroke-dasharray="5,2" d="M318.17,-747.44C349.37,-714.52 394.74,-666.65 422.48,-637.38"/>
<polygon fill="#6e6963" stroke="#6e6963" points="424.65,-639.16 428.12,-631.43 420.58,-635.31 424.65,-639.16"/>
<text text-anchor="middle" x="397" y="-717.3" font-family="Helvetica,sans-Serif" font-size="9.00" fill="#ece1d7">toast DROP enqueue</text>
</g>
<!-- legend -->
<g id="node17" class="node">
<title>legend</title>
<path fill="#6e6963" stroke="transparent" d="M950,-365C950,-365 12,-365 12,-365 6,-365 0,-359 0,-353 0,-353 0,-12 0,-12 0,-6 6,0 12,0 12,0 950,0 950,0 956,0 962,-6 962,-12 962,-12 962,-353 962,-353 962,-359 956,-365 950,-365"/>
<polygon fill="#34302c" stroke="transparent" points="8,-339.5 8,-360.5 954,-360.5 954,-339.5 8,-339.5"/>
<polygon fill="none" stroke="#6e6963" points="8,-339.5 8,-360.5 954,-360.5 954,-339.5 8,-339.5"/>
<text text-anchor="start" x="437.5" y="-348.5" font-family="Helvetica,sans-Serif" font-weight="bold" font-size="10.00" fill="#ece1d7">node fill — role</text>
<polygon fill="#4d4128" stroke="transparent" points="8,-318.5 8,-339.5 329,-339.5 329,-318.5 8,-318.5"/>
<polygon fill="none" stroke="#6e6963" points="8,-318.5 8,-339.5 329,-339.5 329,-318.5 8,-318.5"/>
<polygon fill="none" stroke="#6e6963" points="329,-318.5 329,-339.5 954,-339.5 954,-318.5 329,-318.5"/>
<text text-anchor="start" x="557.5" y="-326.5" font-family="Helvetica,sans-Serif" font-size="10.00" fill="#ece1d7">reorder / decode pool / ClickHouse</text>
<polygon fill="#4d4d28" stroke="transparent" points="8,-297.5 8,-318.5 329,-318.5 329,-297.5 8,-297.5"/>
<polygon fill="none" stroke="#6e6963" points="8,-297.5 8,-318.5 329,-318.5 329,-297.5 8,-297.5"/>
<polygon fill="none" stroke="#6e6963" points="329,-297.5 329,-318.5 954,-318.5 954,-297.5 329,-297.5"/>
<text text-anchor="start" x="560.5" y="-305.5" font-family="Helvetica,sans-Serif" font-size="10.00" fill="#ece1d7">ShadowCatalog schema&#45;event tx</text>
<polygon fill="#5d4628" stroke="transparent" points="8,-276.5 8,-297.5 329,-297.5 329,-276.5 8,-276.5"/>
<polygon fill="none" stroke="#6e6963" points="8,-276.5 8,-297.5 329,-297.5 329,-276.5 8,-276.5"/>
<polygon fill="none" stroke="#6e6963" points="329,-276.5 329,-297.5 954,-297.5 954,-276.5 329,-276.5"/>
<text text-anchor="start" x="559.5" y="-284.5" font-family="Helvetica,sans-Serif" font-size="10.00" fill="#ece1d7">batcher / inserters / DdlApplicator</text>
<polygon fill="#4d3a28" stroke="transparent" points="8,-255.5 8,-276.5 329,-276.5 329,-255.5 8,-255.5"/>
<polygon fill="none" stroke="#6e6963" points="8,-255.5 8,-276.5 329,-276.5 329,-255.5 8,-255.5"/>
<polygon fill="none" stroke="#6e6963" points="329,-255.5 329,-276.5 954,-276.5 954,-255.5 329,-255.5"/>
<text text-anchor="start" x="558" y="-263.5" font-family="Helvetica,sans-Serif" font-size="10.00" fill="#ece1d7">ack collector / cursor side&#45;channel</text>
<polygon fill="#34302c" stroke="transparent" points="8,-234.5 8,-255.5 954,-255.5 954,-234.5 8,-234.5"/>
<polygon fill="none" stroke="#6e6963" points="8,-234.5 8,-255.5 954,-255.5 954,-234.5 8,-234.5"/>
<text text-anchor="start" x="450.5" y="-243.5" font-family="Helvetica,sans-Serif" font-weight="bold" font-size="10.00" fill="#ece1d7">edge style</text>
<polygon fill="none" stroke="#6e6963" points="8,-213.5 8,-234.5 329,-234.5 329,-213.5 8,-213.5"/>
<text text-anchor="start" x="162" y="-222.5" font-family="Helvetica,sans-Serif" font-weight="bold" font-size="10.00" fill="#bf8c5f">━━</text>
<polygon fill="none" stroke="#6e6963" points="329,-213.5 329,-234.5 954,-234.5 954,-213.5 329,-213.5"/>
<text text-anchor="start" x="570.5" y="-221.5" font-family="Helvetica,sans-Serif" font-size="10.00" fill="#ece1d7">row path (Native rows, solid)</text>
<polygon fill="none" stroke="#6e6963" points="8,-192.5 8,-213.5 329,-213.5 329,-192.5 8,-192.5"/>
<text text-anchor="start" x="162" y="-201.5" font-family="Helvetica,sans-Serif" font-weight="bold" font-size="10.00" fill="#bf8c5f">┄┄</text>
<polygon fill="none" stroke="#6e6963" points="329,-192.5 329,-213.5 954,-213.5 954,-192.5 329,-192.5"/>
<text text-anchor="start" x="554.5" y="-200.5" font-family="Helvetica,sans-Serif" font-size="10.00" fill="#ece1d7">DDL path (own connection, dashed)</text>
<polygon fill="none" stroke="#6e6963" points="8,-171.5 8,-192.5 329,-192.5 329,-171.5 8,-171.5"/>
<text text-anchor="start" x="162" y="-180.5" font-family="Helvetica,sans-Serif" font-weight="bold" font-size="10.00" fill="#cba85e">┄┄</text>
<polygon fill="none" stroke="#6e6963" points="329,-171.5 329,-192.5 954,-192.5 954,-171.5 329,-171.5"/>
<text text-anchor="start" x="560.5" y="-179.5" font-family="Helvetica,sans-Serif" font-size="10.00" fill="#ece1d7">SchemaEvent off ShadowCatalog</text>
<polygon fill="none" stroke="#6e6963" points="8,-150.5 8,-171.5 329,-171.5 329,-150.5 8,-150.5"/>
<text text-anchor="start" x="162.5" y="-159.5" font-family="Helvetica,sans-Serif" font-weight="bold" font-size="10.00" fill="#b380b0">···</text>
<polygon fill="none" stroke="#6e6963" points="329,-150.5 329,-171.5 954,-171.5 954,-150.5 329,-150.5"/>
<text text-anchor="start" x="579.5" y="-158.5" font-family="Helvetica,sans-Serif" font-size="10.00" fill="#ece1d7">ack events / barrier waits</text>
<polygon fill="#34302c" stroke="transparent" points="8,-129.5 8,-150.5 954,-150.5 954,-129.5 8,-129.5"/>
<polygon fill="none" stroke="#6e6963" points="8,-129.5 8,-150.5 954,-150.5 954,-129.5 8,-129.5"/>
<text text-anchor="start" x="376.5" y="-138.5" font-family="Helvetica,sans-Serif" font-weight="bold" font-size="10.00" fill="#ece1d7">synthetic columns (every dest table)</text>
<polygon fill="none" stroke="#6e6963" points="8,-108.5 8,-129.5 329,-129.5 329,-108.5 8,-108.5"/>
<text text-anchor="start" x="157.5" y="-116.5" font-family="monospace" font-size="10.00" fill="#ece1d7">_lsn</text>
<polygon fill="none" stroke="#6e6963" points="329,-108.5 329,-129.5 954,-129.5 954,-108.5 329,-108.5"/>
<text text-anchor="start" x="509.5" y="-116.5" font-family="Helvetica,sans-Serif" font-size="10.00" fill="#ece1d7">UInt64 — commit_lsn; ReplacingMergeTree dedup key</text>
<polygon fill="none" stroke="#6e6963" points="8,-87.5 8,-108.5 329,-108.5 329,-87.5 8,-87.5"/>
<text text-anchor="start" x="157.5" y="-95.5" font-family="monospace" font-size="10.00" fill="#ece1d7">_xid</text>
<polygon fill="none" stroke="#6e6963" points="329,-87.5 329,-108.5 954,-108.5 954,-87.5 329,-87.5"/>
<text text-anchor="start" x="531.5" y="-95.5" font-family="Helvetica,sans-Serif" font-size="10.00" fill="#ece1d7">UInt32 — source xid; recovers xact boundary</text>
<polygon fill="none" stroke="#6e6963" points="8,-66.5 8,-87.5 329,-87.5 329,-66.5 8,-66.5"/>
<text text-anchor="start" x="142" y="-74.5" font-family="monospace" font-size="10.00" fill="#ece1d7">_commit_ts</text>
<polygon fill="none" stroke="#6e6963" points="329,-66.5 329,-87.5 954,-87.5 954,-66.5 329,-66.5"/>
<text text-anchor="start" x="531.5" y="-74.5" font-family="Helvetica,sans-Serif" font-size="10.00" fill="#ece1d7">DateTime64(6, &#39;UTC&#39;); shifted from PG epoch</text>
<polygon fill="none" stroke="#6e6963" points="8,-45.5 8,-66.5 329,-66.5 329,-45.5 8,-45.5"/>
<text text-anchor="start" x="139.5" y="-53.5" font-family="monospace" font-size="10.00" fill="#ece1d7">_is_deleted</text>
<polygon fill="none" stroke="#6e6963" points="329,-45.5 329,-66.5 954,-66.5 954,-45.5 329,-45.5"/>
<text text-anchor="start" x="461" y="-53.5" font-family="Helvetica,sans-Serif" font-size="10.00" fill="#ece1d7">Bool — 1 on delete; ReplacingMergeTree is_deleted arg unless soft_delete</text>
<polygon fill="#34302c" stroke="transparent" points="8,-24.5 8,-45.5 954,-45.5 954,-24.5 8,-24.5"/>
<polygon fill="none" stroke="#6e6963" points="8,-24.5 8,-45.5 954,-45.5 954,-24.5 8,-24.5"/>
<text text-anchor="start" x="437" y="-33.5" font-family="Helvetica,sans-Serif" font-weight="bold" font-size="10.00" fill="#ece1d7">watermark rule</text>
<polygon fill="none" stroke="#6e6963" points="8,-3.5 8,-24.5 954,-24.5 954,-3.5 8,-3.5"/>
<text text-anchor="start" x="13" y="-11.5" font-family="Helvetica,sans-Serif" font-size="10.00" fill="#ece1d7">downstream completes out of order; emitter_ack advances only on the contiguous&#45;done prefix, so slot recycling never outruns CH durability. Retry&#45;exhausted batch = Fatal (never a silent gap)</text>
</g>
<!-- chrows&#45;&gt;legend -->
<!-- chddl&#45;&gt;legend -->
<!-- toastput&#45;&gt;chtoast -->
<g id="edge11" class="edge">
<title>toastput&#45;&gt;chtoast</title>
<path fill="none" stroke="#bf8c5f" stroke-width="2" d="M548.29,-1046.12C563.95,-1018.84 589,-967.82 589,-920.5 589,-920.5 589,-920.5 589,-609.5 589,-575.54 594.94,-558.54 570,-535.5 554.76,-521.42 542.76,-536.37 524,-527.5 495.96,-514.24 469.57,-491.21 450.52,-471.93"/>
<polygon fill="#bf8c5f" stroke="#bf8c5f" stroke-width="2" points="452.43,-469.88 444.85,-466.08 448.41,-473.78 452.43,-469.88"/>
</g>
<!-- ledger&#45;&gt;chtoast -->
<g id="edge17" class="edge">
<title>ledger&#45;&gt;chtoast</title>
<path fill="none" stroke="#bf8c5f" stroke-dasharray="5,2" d="M437.01,-589.78C432.45,-579.78 427.52,-567.28 425,-555.5 419.26,-528.65 418.47,-497.55 419.01,-474.2"/>
<polygon fill="#bf8c5f" stroke="#bf8c5f" points="421.81,-474.05 419.25,-465.97 416.21,-473.89 421.81,-474.05"/>
<text text-anchor="middle" x="496" y="-543.3" font-family="Helvetica,sans-Serif" font-size="9.00" fill="#ece1d7">retire once resume floor passes</text>
</g>
<!-- ack&#45;&gt;fence -->
<g id="edge22" class="edge">
<title>ack&#45;&gt;fence</title>
<path fill="none" stroke="#b380b0" stroke-dasharray="1,5" d="M1014,-469.3C1054.04,-489.55 1097.31,-520.75 1114,-565.5 1135.13,-622.13 1153.15,-655.44 1114,-701.5 1100.42,-717.48 1029.68,-692.08 1065,-729.5 1078.22,-743.5 1220.23,-732.08 1238,-739.5 1394.8,-804.97 1362.03,-836.23 1349,-849.5 1330.06,-868.79 402.11,-860.49 376,-867.5 359.02,-872.06 341.81,-880.4 326.93,-889.03"/>
<polygon fill="#b380b0" stroke="#b380b0" points="325.26,-886.77 319.83,-893.28 328.13,-891.58 325.26,-886.77"/>
<text text-anchor="middle" x="1115.5" y="-722.3" font-family="Helvetica,sans-Serif" font-size="9.00" fill="#ece1d7">wait_placed_through /</text>
<text text-anchor="middle" x="1115.5" y="-712.3" font-family="Helvetica,sans-Serif" font-size="9.00" fill="#ece1d7">wait_through</text>
</g>
</g>
</svg>
