<?xml version="1.0" encoding="UTF-8" standalone="no"?>
<!DOCTYPE svg PUBLIC "-//W3C//DTD SVG 1.1//EN"
 "http://www.w3.org/Graphics/SVG/1.1/DTD/svg11.dtd">
<!-- Generated by graphviz version 15.1.0 (20260618.0150)
 -->
<!-- Title: emitter Pages: 1 -->
<svg width="1443pt" height="1712pt"
 viewBox="0.00 0.00 1443.00 1712.00" xmlns="http://www.w3.org/2000/svg" xmlns:xlink="http://www.w3.org/1999/xlink">
<g id="graph0" class="graph" transform="scale(1 1) rotate(0) translate(4 1707.62)">
<title>emitter</title>
<polygon fill="#272623" stroke="none" points="-4,4 -4,-1707.62 1439.38,-1707.62 1439.38,4 -4,4"/>
<text xml:space="preserve" text-anchor="middle" x="717.69" y="-1686.33" font-family="Helvetica,sans-Serif" font-size="14.00" fill="#ece1d7">walshadow emitter — one ordered pipeline, ClickHouse or metrics only</text>
<g id="clust1" class="cluster">
<title>cluster_src</title>
<path fill="#34302c" stroke="#4c4641" d="M560,-1368.12C560,-1368.12 1341,-1368.12 1341,-1368.12 1347,-1368.12 1353,-1374.12 1353,-1380.12 1353,-1380.12 1353,-1658.38 1353,-1658.38 1353,-1664.38 1347,-1670.38 1341,-1670.38 1341,-1670.38 560,-1670.38 560,-1670.38 554,-1670.38 548,-1664.38 548,-1658.38 548,-1658.38 548,-1380.12 548,-1380.12 548,-1374.12 554,-1368.12 560,-1368.12"/>
<text xml:space="preserve" text-anchor="middle" x="950.5" y="-1653.08" font-family="Helvetica,sans-Serif" font-size="14.00" fill="#ece1d7">reorder coordinator — single&#45;threaded commit order &#160;(emit/pipeline/reorder.rs, inner sink of QueueingRecordSink)</text>
</g>
<g id="clust2" class="cluster">
<title>cluster_decode</title>
<path fill="#34302c" stroke="#4c4641" d="M368,-1214.62C368,-1214.62 655,-1214.62 655,-1214.62 661,-1214.62 667,-1220.62 667,-1226.62 667,-1226.62 667,-1315.62 667,-1315.62 667,-1321.62 661,-1327.62 655,-1327.62 655,-1327.62 368,-1327.62 368,-1327.62 362,-1327.62 356,-1321.62 356,-1315.62 356,-1315.62 356,-1226.62 356,-1226.62 356,-1220.62 362,-1214.62 368,-1214.62"/>
<text xml:space="preserve" text-anchor="middle" x="511.5" y="-1310.33" font-family="Helvetica,sans-Serif" font-size="14.00" fill="#ece1d7">decode pool ×M &#160;(emit/pipeline/decode.rs)</text>
</g>
<g id="clust3" class="cluster">
<title>cluster_batch</title>
<path fill="#34302c" stroke="#4c4641" d="M20,-765.62C20,-765.62 554,-765.62 554,-765.62 560,-765.62 566,-771.62 566,-777.62 566,-777.62 566,-1150.88 566,-1150.88 566,-1156.88 560,-1162.88 554,-1162.88 554,-1162.88 20,-1162.88 20,-1162.88 14,-1162.88 8,-1156.88 8,-1150.88 8,-1150.88 8,-777.62 8,-777.62 8,-771.62 14,-765.62 20,-765.62"/>
<text xml:space="preserve" text-anchor="middle" x="287" y="-1145.58" font-family="Helvetica,sans-Serif" font-size="14.00" fill="#ece1d7">InsertBatcher — single hub, per&#45;table accumulation &#160;(emit/pipeline/batcher.rs)</text>
</g>
<g id="clust4" class="cluster">
<title>cluster_insert</title>
<path fill="#34302c" stroke="#4c4641" d="M219,-586.62C219,-586.62 510,-586.62 510,-586.62 516,-586.62 522,-592.62 522,-598.62 522,-598.62 522,-700.38 522,-700.38 522,-706.38 516,-712.38 510,-712.38 510,-712.38 219,-712.38 219,-712.38 213,-712.38 207,-706.38 207,-700.38 207,-700.38 207,-598.62 207,-598.62 207,-592.62 213,-586.62 219,-586.62"/>
<text xml:space="preserve" text-anchor="middle" x="364.5" y="-695.08" font-family="Helvetica,sans-Serif" font-size="14.00" fill="#ece1d7">inserter pool ×N &#160;(emit/pipeline/inserter.rs)</text>
</g>
<g id="clust5" class="cluster">
<title>cluster_ddl</title>
<path fill="#34302c" stroke="#4c4641" d="M869,-752.88C869,-752.88 1253,-752.88 1253,-752.88 1259,-752.88 1265,-758.88 1265,-764.88 1265,-764.88 1265,-1002.38 1265,-1002.38 1265,-1008.38 1259,-1014.38 1253,-1014.38 1253,-1014.38 869,-1014.38 869,-1014.38 863,-1014.38 857,-1008.38 857,-1002.38 857,-1002.38 857,-764.88 857,-764.88 857,-758.88 863,-752.88 869,-752.88"/>
<text xml:space="preserve" text-anchor="middle" x="1061" y="-997.08" font-family="Helvetica,sans-Serif" font-size="14.00" fill="#ece1d7">ordered control barriers — DDL / config / TOAST lifecycle</text>
</g>
<g id="clust6" class="cluster">
<title>cluster_ch</title>
<path fill="#34302c" stroke="#4c4641" d="M492,-423.75C492,-423.75 1070,-423.75 1070,-423.75 1076,-423.75 1082,-429.75 1082,-435.75 1082,-435.75 1082,-534.12 1082,-534.12 1082,-540.12 1076,-546.12 1070,-546.12 1070,-546.12 492,-546.12 492,-546.12 486,-546.12 480,-540.12 480,-534.12 480,-534.12 480,-435.75 480,-435.75 480,-429.75 486,-423.75 492,-423.75"/>
<text xml:space="preserve" text-anchor="middle" x="781" y="-528.83" font-family="Helvetica,sans-Serif" font-size="14.00" fill="#ece1d7">ClickHouse — main insert pool + DDL + TOAST store connections</text>
</g>
<!-- reorder -->
<g id="node1" class="node">
<title>reorder</title>
<path fill="#4d4128" stroke="#6e6963" d="M888.75,-1435.12C888.75,-1435.12 649.25,-1435.12 649.25,-1435.12 643.25,-1435.12 637.25,-1429.12 637.25,-1423.12 637.25,-1423.12 637.25,-1388.12 637.25,-1388.12 637.25,-1382.12 643.25,-1376.12 649.25,-1376.12 649.25,-1376.12 888.75,-1376.12 888.75,-1376.12 894.75,-1376.12 900.75,-1382.12 900.75,-1388.12 900.75,-1388.12 900.75,-1423.12 900.75,-1423.12 900.75,-1429.12 894.75,-1435.12 888.75,-1435.12"/>
<text xml:space="preserve" text-anchor="middle" x="769" y="-1421.62" font-family="Helvetica,sans-Serif" font-size="10.00" fill="#ece1d7">transaction reorder</text>
<text xml:space="preserve" text-anchor="middle" x="769" y="-1408.88" font-family="Helvetica,sans-Serif" font-size="10.00" fill="#ece1d7">walk rows and changes in WAL order</text>
<text xml:space="preserve" text-anchor="middle" x="769" y="-1396.12" font-family="Helvetica,sans-Serif" font-size="10.00" fill="#ece1d7">empty commits and aborts still advance progress</text>
<text xml:space="preserve" text-anchor="middle" x="769" y="-1383.38" font-family="Helvetica,sans-Serif" font-size="10.00" fill="#ece1d7">schema and truncate changes wait for earlier rows</text>
</g>
<!-- decode -->
<g id="node3" class="node">
<title>decode</title>
<path fill="#4d4128" stroke="#6e6963" d="M639.75,-1294.38C639.75,-1294.38 442.25,-1294.38 442.25,-1294.38 436.25,-1294.38 430.25,-1288.38 430.25,-1282.38 430.25,-1282.38 430.25,-1234.62 430.25,-1234.62 430.25,-1228.62 436.25,-1222.62 442.25,-1222.62 442.25,-1222.62 639.75,-1222.62 639.75,-1222.62 645.75,-1222.62 651.75,-1228.62 651.75,-1234.62 651.75,-1234.62 651.75,-1282.38 651.75,-1282.38 651.75,-1288.38 645.75,-1294.38 639.75,-1294.38"/>
<text xml:space="preserve" text-anchor="middle" x="541" y="-1280.88" font-family="Helvetica,sans-Serif" font-size="10.00" fill="#ece1d7">decode worker ×M</text>
<text xml:space="preserve" text-anchor="middle" x="541" y="-1268.12" font-family="Helvetica,sans-Serif" font-size="10.00" fill="#ece1d7">detoast: ChunkMap, then store as&#45;of fetch</text>
<text xml:space="preserve" text-anchor="middle" x="541" y="-1255.38" font-family="Helvetica,sans-Serif" font-size="10.00" fill="#ece1d7">resolve_at_pooled; mapping</text>
<text xml:space="preserve" text-anchor="middle" x="541" y="-1242.62" font-family="Helvetica,sans-Serif" font-size="10.00" fill="#ece1d7">oracle PgPending + sampled validate</text>
<text xml:space="preserve" text-anchor="middle" x="541" y="-1229.88" font-family="Helvetica,sans-Serif" font-size="10.00" fill="#ece1d7">chunk 1024 rows / 4 MiB</text>
</g>
<!-- reorder&#45;&gt;decode -->
<g id="edge5" class="edge">
<title>reorder&#45;&gt;decode</title>
<path fill="none" stroke="#bf8c5f" stroke-width="2" d="M691.73,-1375.63C680.3,-1370.35 668.89,-1364.47 658.5,-1358.12 646.87,-1351.02 635.2,-1342.82 623.97,-1334.24"/>
<polygon fill="#bf8c5f" stroke="#bf8c5f" stroke-width="2" points="625.89,-1332.19 617.86,-1329.48 622.45,-1336.61 625.89,-1332.19"/>
<text xml:space="preserve" text-anchor="middle" x="702.75" y="-1349.58" font-family="Helvetica,sans-Serif" font-size="9.00" fill="#ece1d7">DecodeJob</text>
<text xml:space="preserve" text-anchor="middle" x="702.75" y="-1338.33" font-family="Helvetica,sans-Serif" font-size="9.00" fill="#ece1d7">(mpmc, bound 4M)</text>
</g>
<!-- fence -->
<g id="node8" class="node">
<title>fence</title>
<path fill="#5d4628" stroke="#6e6963" d="M1008.62,-981.12C1008.62,-981.12 879.38,-981.12 879.38,-981.12 873.38,-981.12 867.38,-975.12 867.38,-969.12 867.38,-969.12 867.38,-934.12 867.38,-934.12 867.38,-928.12 873.38,-922.12 879.38,-922.12 879.38,-922.12 1008.62,-922.12 1008.62,-922.12 1014.62,-922.12 1020.62,-928.12 1020.62,-934.12 1020.62,-934.12 1020.62,-969.12 1020.62,-969.12 1020.62,-975.12 1014.62,-981.12 1008.62,-981.12"/>
<text xml:space="preserve" text-anchor="middle" x="944" y="-967.62" font-family="Helvetica,sans-Serif" font-size="10.00" fill="#ece1d7">barrier_fence</text>
<text xml:space="preserve" text-anchor="middle" x="944" y="-954.88" font-family="Helvetica,sans-Serif" font-size="10.00" fill="#ece1d7">1. wait all seqs placed</text>
<text xml:space="preserve" text-anchor="middle" x="944" y="-942.12" font-family="Helvetica,sans-Serif" font-size="10.00" fill="#ece1d7">2. batcher FlushAll (+ reply)</text>
<text xml:space="preserve" text-anchor="middle" x="944" y="-929.38" font-family="Helvetica,sans-Serif" font-size="10.00" fill="#ece1d7">3. wait all seqs durable</text>
</g>
<!-- reorder&#45;&gt;fence -->
<g id="edge14" class="edge">
<title>reorder&#45;&gt;fence</title>
<path fill="none" stroke="#bf8c5f" stroke-dasharray="5,2" d="M791.25,-1375.72C801.72,-1361.57 814.06,-1344.08 824,-1327.62 866.4,-1257.45 881.17,-1240.69 907,-1162.88 921.99,-1117.69 931.26,-1064.92 936.76,-1023.55"/>
<polygon fill="#bf8c5f" stroke="#bf8c5f" points="939.51,-1024.16 937.76,-1015.87 933.95,-1023.45 939.51,-1024.16"/>
<text xml:space="preserve" text-anchor="middle" x="953.94" y="-1190.45" font-family="Helvetica,sans-Serif" font-size="9.00" fill="#ece1d7">barrier xact:</text>
<text xml:space="preserve" text-anchor="middle" x="953.94" y="-1179.2" font-family="Helvetica,sans-Serif" font-size="9.00" fill="#ece1d7">per event / TRUNCATE</text>
</g>
<!-- toastput -->
<g id="node14" class="node">
<title>toastput</title>
<path fill="#4d4d28" stroke="#6e6963" d="M769.62,-1116.88C769.62,-1116.88 586.38,-1116.88 586.38,-1116.88 580.38,-1116.88 574.38,-1110.88 574.38,-1104.88 574.38,-1104.88 574.38,-1082.62 574.38,-1082.62 574.38,-1076.62 580.38,-1070.62 586.38,-1070.62 586.38,-1070.62 769.62,-1070.62 769.62,-1070.62 775.62,-1070.62 781.62,-1076.62 781.62,-1082.62 781.62,-1082.62 781.62,-1104.88 781.62,-1104.88 781.62,-1110.88 775.62,-1116.88 769.62,-1116.88"/>
<text xml:space="preserve" text-anchor="middle" x="678" y="-1103.38" font-family="Helvetica,sans-Serif" font-size="10.00" fill="#ece1d7">ToastResolver</text>
<text xml:space="preserve" text-anchor="middle" x="678" y="-1090.62" font-family="Helvetica,sans-Serif" font-size="10.00" fill="#ece1d7">put births + tombstones before publish</text>
<text xml:space="preserve" text-anchor="middle" x="678" y="-1077.88" font-family="Helvetica,sans-Serif" font-size="10.00" fill="#ece1d7">as&#45;of fetch for pre&#45;window values</text>
</g>
<!-- reorder&#45;&gt;toastput -->
<g id="edge10" class="edge">
<title>reorder&#45;&gt;toastput</title>
<path fill="none" stroke="#bf8c5f" stroke-dasharray="5,2" d="M761.19,-1375.71C757.81,-1363.35 753.77,-1348.76 750,-1335.62 728.37,-1260.27 701.64,-1172.07 687.62,-1126.15"/>
<polygon fill="#bf8c5f" stroke="#bf8c5f" points="690.37,-1125.56 685.36,-1118.73 685.02,-1127.2 690.37,-1125.56"/>
<text xml:space="preserve" text-anchor="middle" x="782.13" y="-1255.58" font-family="Helvetica,sans-Serif" font-size="9.00" fill="#ece1d7">TOAST changes</text>
</g>
<!-- ack -->
<g id="node17" class="node">
<title>ack</title>
<polygon fill="#4d3a28" stroke="#6e6963" points="447.38,-501.81 274.62,-501.81 274.62,-442.81 453.38,-442.81 453.38,-495.81 447.38,-501.81"/>
<polyline fill="none" stroke="#6e6963" points="447.38,-501.81 447.38,-495.81"/>
<polyline fill="none" stroke="#6e6963" points="453.38,-495.81 447.38,-495.81"/>
<text xml:space="preserve" text-anchor="middle" x="364" y="-488.31" font-family="Helvetica,sans-Serif" font-size="10.00" fill="#ece1d7">ack collector</text>
<text xml:space="preserve" text-anchor="middle" x="364" y="-475.56" font-family="Helvetica,sans-Serif" font-size="10.00" fill="#ece1d7">wait for every earlier commit</text>
<text xml:space="preserve" text-anchor="middle" x="364" y="-462.81" font-family="Helvetica,sans-Serif" font-size="10.00" fill="#ece1d7">publish latest durable position</text>
<text xml:space="preserve" text-anchor="middle" x="364" y="-450.06" font-family="Helvetica,sans-Serif" font-size="10.00" fill="#ece1d7">feed manifest + source feedback</text>
</g>
<!-- reorder&#45;&gt;ack -->
<g id="edge20" class="edge">
<title>reorder&#45;&gt;ack</title>
<path fill="none" stroke="#b380b0" stroke-dasharray="1,5" d="M837.91,-1375.67C952.62,-1323.17 1179.01,-1200.2 1269,-1014.38 1351.86,-843.27 1353.74,-757.79 1271,-586.62 1260.88,-565.69 1251.92,-561.89 1230,-554.12 1190.36,-540.08 513.18,-558.54 473,-546.12 447.85,-538.35 423.18,-522.74 403.69,-507.96"/>
<polygon fill="#b380b0" stroke="#b380b0" points="405.44,-505.78 397.41,-503.07 402,-510.2 405.44,-505.78"/>
<text xml:space="preserve" text-anchor="middle" x="1376.5" y="-948.7" font-family="Helvetica,sans-Serif" font-size="9.00" fill="#ece1d7">Register(seq, commit_lsn)</text>
</g>
<!-- cat -->
<g id="node2" class="node">
<title>cat</title>
<path fill="#4d4d28" stroke="#6e6963" d="M952.43,-1637.12C952.43,-1637.12 665.55,-1637.12 665.55,-1637.12 659.55,-1637.12 650.62,-1631.88 647.7,-1626.64 647.7,-1626.64 579.41,-1504.11 579.41,-1504.11 576.49,-1498.87 579.57,-1493.62 585.57,-1493.62 585.57,-1493.62 872.45,-1493.62 872.45,-1493.62 878.45,-1493.62 887.38,-1498.87 890.3,-1504.11 890.3,-1504.11 958.59,-1626.64 958.59,-1626.64 961.51,-1631.88 958.43,-1637.12 952.43,-1637.12"/>
<text xml:space="preserve" text-anchor="middle" x="769" y="-1587.75" font-family="Helvetica,sans-Serif" font-size="10.00" fill="#ece1d7">ShadowCatalog::subscribe</text>
<text xml:space="preserve" text-anchor="middle" x="769" y="-1575" font-family="Helvetica,sans-Serif" font-size="10.00" fill="#ece1d7">SchemaEvent</text>
<text xml:space="preserve" text-anchor="middle" x="769" y="-1562.25" font-family="Helvetica,sans-Serif" font-size="10.00" fill="#ece1d7">Added / Changed / Dropped</text>
<text xml:space="preserve" text-anchor="middle" x="769" y="-1549.5" font-family="Helvetica,sans-Serif" font-size="10.00" fill="#ece1d7">(unbounded mpsc, rides xact buffer</text>
<text xml:space="preserve" text-anchor="middle" x="769" y="-1536.75" font-family="Helvetica,sans-Serif" font-size="10.00" fill="#ece1d7"> as ordered_events)</text>
</g>
<!-- cat&#45;&gt;reorder -->
<g id="edge13" class="edge">
<title>cat&#45;&gt;reorder</title>
<path fill="none" stroke="#cba85e" stroke-dasharray="5,2" d="M769,-1493.35C769,-1476.57 769,-1459.33 769,-1444.67"/>
<polygon fill="#cba85e" stroke="#cba85e" points="771.8,-1444.96 769,-1436.96 766.2,-1444.96 771.8,-1444.96"/>
<text xml:space="preserve" text-anchor="middle" x="807.62" y="-1467.08" font-family="Helvetica,sans-Serif" font-size="9.00" fill="#ece1d7">SchemaEvent</text>
<text xml:space="preserve" text-anchor="middle" x="807.62" y="-1455.83" font-family="Helvetica,sans-Serif" font-size="9.00" fill="#ece1d7">drains at commit</text>
</g>
<!-- enc -->
<g id="node4" class="node">
<title>enc</title>
<polygon fill="#5d4628" stroke="#6e6963" points="480.62,-1129.62 291.38,-1129.62 291.38,-1057.88 486.62,-1057.88 486.62,-1123.62 480.62,-1129.62"/>
<polyline fill="none" stroke="#6e6963" points="480.62,-1129.62 480.62,-1123.62"/>
<polyline fill="none" stroke="#6e6963" points="486.62,-1123.62 480.62,-1123.62"/>
<text xml:space="preserve" text-anchor="middle" x="389" y="-1116.12" font-family="Helvetica,sans-Serif" font-size="10.00" fill="#ece1d7">TableEncoder per dest table</text>
<text xml:space="preserve" text-anchor="middle" x="389" y="-1103.38" font-family="Helvetica,sans-Serif" font-size="10.00" fill="#ece1d7">ColumnBuf slabs: Fixed / String /</text>
<text xml:space="preserve" text-anchor="middle" x="389" y="-1090.62" font-family="Helvetica,sans-Serif" font-size="10.00" fill="#ece1d7">NullableFixed / NullableString</text>
<text xml:space="preserve" text-anchor="middle" x="389" y="-1077.88" font-family="Helvetica,sans-Serif" font-size="10.00" fill="#ece1d7">column&#45;major + synthetic</text>
<text xml:space="preserve" text-anchor="middle" x="389" y="-1065.12" font-family="Helvetica,sans-Serif" font-size="10.00" fill="#ece1d7">_lsn / _xid / _commit_ts / _is_deleted</text>
</g>
<!-- decode&#45;&gt;enc -->
<g id="edge6" class="edge">
<title>decode&#45;&gt;enc</title>
<path fill="none" stroke="#bf8c5f" stroke-width="2" d="M477.18,-1222.14C469.81,-1216.76 462.72,-1210.89 456.5,-1204.62 446.84,-1194.88 437.93,-1183.5 429.97,-1171.83"/>
<polygon fill="#bf8c5f" stroke="#bf8c5f" stroke-width="2" points="432.48,-1170.54 425.74,-1165.4 427.8,-1173.62 432.48,-1170.54"/>
<text xml:space="preserve" text-anchor="middle" x="503.75" y="-1196.08" font-family="Helvetica,sans-Serif" font-size="9.00" fill="#ece1d7">BatcherMsg::Rows</text>
<text xml:space="preserve" text-anchor="middle" x="503.75" y="-1184.83" font-family="Helvetica,sans-Serif" font-size="9.00" fill="#ece1d7">(FIFO mpsc 256 —</text>
<text xml:space="preserve" text-anchor="middle" x="503.75" y="-1173.58" font-family="Helvetica,sans-Serif" font-size="9.00" fill="#ece1d7">shared with FlushAll)</text>
</g>
<!-- decode&#45;&gt;toastput -->
<g id="edge11" class="edge">
<title>decode&#45;&gt;toastput</title>
<path fill="none" stroke="#cba85e" stroke-dasharray="5,2" d="M551.2,-1222.38C557.18,-1205.68 565.91,-1186.09 577.75,-1170.88 592.43,-1152.01 612.86,-1135.37 631.46,-1122.5"/>
<polygon fill="#cba85e" stroke="#cba85e" points="632.97,-1124.85 638.04,-1118.06 629.84,-1120.21 632.97,-1124.85"/>
<text xml:space="preserve" text-anchor="middle" x="589.38" y="-1184.83" font-family="Helvetica,sans-Serif" font-size="9.00" fill="#ece1d7">fetch</text>
</g>
<!-- nulltail -->
<g id="node16" class="node">
<title>nulltail</title>
<polygon fill="#4d3a28" stroke="#6e6963" points="510,-1588.5 344,-1588.5 344,-1542.25 516,-1542.25 516,-1582.5 510,-1588.5"/>
<polyline fill="none" stroke="#6e6963" points="510,-1588.5 510,-1582.5"/>
<polyline fill="none" stroke="#6e6963" points="516,-1582.5 510,-1582.5"/>
<text xml:space="preserve" text-anchor="middle" x="430" y="-1575" font-family="Helvetica,sans-Serif" font-size="10.00" fill="#ece1d7">metrics&#45;only tail</text>
<text xml:space="preserve" text-anchor="middle" x="430" y="-1562.25" font-family="Helvetica,sans-Serif" font-size="10.00" fill="#ece1d7">no ClickHouse connection</text>
<text xml:space="preserve" text-anchor="middle" x="430" y="-1549.5" font-family="Helvetica,sans-Serif" font-size="10.00" fill="#ece1d7">acknowledge rows immediately</text>
</g>
<!-- decode&#45;&gt;nulltail -->
<g id="edge9" class="edge">
<title>decode&#45;&gt;nulltail</title>
<path fill="none" stroke="#bf8c5f" stroke-dasharray="5,2" d="M485.14,-1294.84C461.09,-1313.41 435.54,-1338.49 422.5,-1368.12 398.73,-1422.16 410.54,-1492.86 420.68,-1532.97"/>
<polygon fill="#bf8c5f" stroke="#bf8c5f" points="417.93,-1533.53 422.68,-1540.55 423.34,-1532.1 417.93,-1533.53"/>
<text xml:space="preserve" text-anchor="middle" x="450.25" y="-1402.7" font-family="Helvetica,sans-Serif" font-size="9.00" fill="#ece1d7">metrics only</text>
</g>
<!-- decode&#45;&gt;ack -->
<g id="edge21" class="edge">
<title>decode&#45;&gt;ack</title>
<path fill="none" stroke="#b380b0" stroke-dasharray="1,5" d="M589.8,-1222.3C618.43,-1203.6 656.12,-1182.19 693,-1170.88 703.97,-1167.51 788.2,-1171.3 796,-1162.88 827.69,-1128.62 804.52,-1103.76 796,-1057.88 780.07,-972.08 753.53,-957.26 725.5,-874.62 702.54,-806.94 704.36,-787.57 680,-720.38 652.56,-644.67 673.97,-600.3 608,-554.12 583.38,-536.89 501.49,-555.69 473,-546.12 448.24,-537.81 423.78,-522.32 404.32,-507.75"/>
<polygon fill="#b380b0" stroke="#b380b0" points="406.09,-505.59 398.04,-502.94 402.69,-510.03 406.09,-505.59"/>
<text xml:space="preserve" text-anchor="middle" x="765.25" y="-866.08" font-family="Helvetica,sans-Serif" font-size="9.00" fill="#ece1d7">Placed(seq, rows)</text>
</g>
<!-- trip -->
<g id="node5" class="node">
<title>trip</title>
<path fill="#5d4628" stroke="#6e6963" d="M339.46,-1007.33C339.46,-1007.33 156.04,-954.92 156.04,-954.92 150.27,-953.27 150.27,-949.98 156.04,-948.33 156.04,-948.33 339.46,-895.92 339.46,-895.92 345.23,-894.27 356.77,-894.27 362.54,-895.92 362.54,-895.92 545.96,-948.33 545.96,-948.33 551.73,-949.98 551.73,-953.27 545.96,-954.92 545.96,-954.92 362.54,-1007.33 362.54,-1007.33 356.77,-1008.98 345.23,-1008.98 339.46,-1007.33"/>
<text xml:space="preserve" text-anchor="middle" x="351" y="-967.62" font-family="Helvetica,sans-Serif" font-size="10.00" fill="#ece1d7">flush trigger</text>
<text xml:space="preserve" text-anchor="middle" x="351" y="-954.88" font-family="Helvetica,sans-Serif" font-size="10.00" fill="#ece1d7">row_budget 65536 · byte_budget 1 MiB</text>
<text xml:space="preserve" text-anchor="middle" x="351" y="-942.12" font-family="Helvetica,sans-Serif" font-size="10.00" fill="#ece1d7">per&#45;table deadline (flush_timeout,</text>
<text xml:space="preserve" text-anchor="middle" x="351" y="-929.38" font-family="Helvetica,sans-Serif" font-size="10.00" fill="#ece1d7"> 0 → 100 ms floor) · FlushAll</text>
</g>
<!-- enc&#45;&gt;trip -->
<g id="edge1" class="edge">
<title>enc&#45;&gt;trip</title>
<path fill="none" stroke="#c1a78e" d="M379.41,-1057.39C375.97,-1044.7 371.98,-1029.98 368.09,-1015.65"/>
<polygon fill="#c1a78e" stroke="#c1a78e" points="370.89,-1015.26 366.09,-1008.27 365.48,-1016.72 370.89,-1015.26"/>
</g>
<!-- seal -->
<g id="node6" class="node">
<title>seal</title>
<path fill="#5d4628" stroke="#6e6963" d="M439,-832.62C439,-832.62 273,-832.62 273,-832.62 267,-832.62 261,-826.62 261,-820.62 261,-820.62 261,-785.62 261,-785.62 261,-779.62 267,-773.62 273,-773.62 273,-773.62 439,-773.62 439,-773.62 445,-773.62 451,-779.62 451,-785.62 451,-785.62 451,-820.62 451,-820.62 451,-826.62 445,-832.62 439,-832.62"/>
<text xml:space="preserve" text-anchor="middle" x="356" y="-819.12" font-family="Helvetica,sans-Serif" font-size="10.00" fill="#ece1d7">seal InsertBatch</text>
<text xml:space="preserve" text-anchor="middle" x="356" y="-806.38" font-family="Helvetica,sans-Serif" font-size="10.00" fill="#ece1d7">owned slabs + per_seq row counts</text>
<text xml:space="preserve" text-anchor="middle" x="356" y="-793.62" font-family="Helvetica,sans-Serif" font-size="10.00" fill="#ece1d7">FlushAll also bumps schema_epoch</text>
<text xml:space="preserve" text-anchor="middle" x="356" y="-780.88" font-family="Helvetica,sans-Serif" font-size="10.00" fill="#ece1d7">(rebuild plans post&#45;DDL)</text>
</g>
<!-- trip&#45;&gt;seal -->
<g id="edge2" class="edge">
<title>trip&#45;&gt;seal</title>
<path fill="none" stroke="#c1a78e" d="M352.98,-892.72C353.55,-875.77 354.17,-857.66 354.7,-842.27"/>
<polygon fill="#c1a78e" stroke="#c1a78e" points="357.49,-842.67 354.96,-834.58 351.89,-842.48 357.49,-842.67"/>
</g>
<!-- ins -->
<g id="node7" class="node">
<title>ins</title>
<path fill="#5d4628" stroke="#6e6963" d="M459.75,-679.12C459.75,-679.12 268.25,-679.12 268.25,-679.12 262.25,-679.12 256.25,-673.12 256.25,-667.12 256.25,-667.12 256.25,-606.62 256.25,-606.62 256.25,-600.62 262.25,-594.62 268.25,-594.62 268.25,-594.62 459.75,-594.62 459.75,-594.62 465.75,-594.62 471.75,-600.62 471.75,-606.62 471.75,-606.62 471.75,-667.12 471.75,-667.12 471.75,-673.12 465.75,-679.12 459.75,-679.12"/>
<text xml:space="preserve" text-anchor="middle" x="364" y="-665.62" font-family="Helvetica,sans-Serif" font-size="10.00" fill="#ece1d7">inserter ×N — any idle takes any batch</text>
<text xml:space="preserve" text-anchor="middle" x="364" y="-652.88" font-family="Helvetica,sans-Serif" font-size="10.00" fill="#ece1d7">TypeAst cache per (table, epoch)</text>
<text xml:space="preserve" text-anchor="middle" x="364" y="-640.12" font-family="Helvetica,sans-Serif" font-size="10.00" fill="#ece1d7">BlockBuilder over owned slabs</text>
<text xml:space="preserve" text-anchor="middle" x="364" y="-627.38" font-family="Helvetica,sans-Serif" font-size="10.00" fill="#ece1d7">send_query → send_data → EndOfStream</text>
<text xml:space="preserve" text-anchor="middle" x="364" y="-614.62" font-family="Helvetica,sans-Serif" font-size="10.00" fill="#ece1d7">send_with_retry: reconnect + backoff,</text>
<text xml:space="preserve" text-anchor="middle" x="364" y="-601.88" font-family="Helvetica,sans-Serif" font-size="10.00" fill="#ece1d7">insert_timeout 30 s; exhaustion = Fatal</text>
</g>
<!-- seal&#45;&gt;ins -->
<g id="edge7" class="edge">
<title>seal&#45;&gt;ins</title>
<path fill="none" stroke="#bf8c5f" stroke-width="2" d="M357.41,-773.14C358.1,-759.03 358.97,-741.25 359.84,-723.26"/>
<polygon fill="#bf8c5f" stroke="#bf8c5f" stroke-width="2" points="362.63,-723.52 360.22,-715.39 357.04,-723.25 362.63,-723.52"/>
<text xml:space="preserve" text-anchor="middle" x="386.01" y="-734.33" font-family="Helvetica,sans-Serif" font-size="9.00" fill="#ece1d7">InsertBatch</text>
<text xml:space="preserve" text-anchor="middle" x="386.01" y="-723.08" font-family="Helvetica,sans-Serif" font-size="9.00" fill="#ece1d7">(mpmc)</text>
</g>
<!-- chrows -->
<g id="node11" class="node">
<title>chrows</title>
<path fill="#4d4128" stroke="#6e6963" d="M691.75,-505.5C691.75,-509.57 646.14,-512.88 590,-512.88 533.86,-512.88 488.25,-509.57 488.25,-505.5 488.25,-505.5 488.25,-439.12 488.25,-439.12 488.25,-435.06 533.86,-431.75 590,-431.75 646.14,-431.75 691.75,-435.06 691.75,-439.12 691.75,-439.12 691.75,-505.5 691.75,-505.5"/>
<path fill="none" stroke="#6e6963" d="M691.75,-505.5C691.75,-501.43 646.14,-498.12 590,-498.12 533.86,-498.12 488.25,-501.43 488.25,-505.5"/>
<text xml:space="preserve" text-anchor="middle" x="590" y="-488.31" font-family="Helvetica,sans-Serif" font-size="10.00" fill="#ece1d7">insert connections ×N</text>
<text xml:space="preserve" text-anchor="middle" x="590" y="-475.56" font-family="Helvetica,sans-Serif" font-size="10.00" fill="#ece1d7">clickhouse&#45;c&#45;rs AsyncClient</text>
<text xml:space="preserve" text-anchor="middle" x="590" y="-462.81" font-family="Helvetica,sans-Serif" font-size="10.00" fill="#ece1d7">ReplacingMergeTree(_lsn, _is_deleted)</text>
<text xml:space="preserve" text-anchor="middle" x="590" y="-450.06" font-family="Helvetica,sans-Serif" font-size="10.00" fill="#ece1d7">Native rows</text>
</g>
<!-- ins&#45;&gt;chrows -->
<g id="edge8" class="edge">
<title>ins&#45;&gt;chrows</title>
<path fill="none" stroke="#bf8c5f" stroke-width="2" d="M450.13,-594.28C459.75,-588.71 469.24,-582.78 478,-576.62 501.21,-560.32 524.63,-539.55 544.01,-520.92"/>
<polygon fill="#bf8c5f" stroke="#bf8c5f" stroke-width="2" points="545.83,-523.05 549.61,-515.47 541.92,-519.04 545.83,-523.05"/>
<text xml:space="preserve" text-anchor="middle" x="552.83" y="-568.08" font-family="Helvetica,sans-Serif" font-size="9.00" fill="#ece1d7">one complete INSERT</text>
<text xml:space="preserve" text-anchor="middle" x="552.83" y="-556.83" font-family="Helvetica,sans-Serif" font-size="9.00" fill="#ece1d7">per sealed batch</text>
</g>
<!-- ins&#45;&gt;ack -->
<g id="edge22" class="edge">
<title>ins&#45;&gt;ack</title>
<path fill="none" stroke="#b380b0" stroke-dasharray="1,5" d="M364,-594.43C364,-568.94 364,-536.5 364,-511.61"/>
<polygon fill="#b380b0" stroke="#b380b0" points="366.8,-511.64 364,-503.64 361.2,-511.64 366.8,-511.64"/>
<text xml:space="preserve" text-anchor="middle" x="417.25" y="-568.08" font-family="Helvetica,sans-Serif" font-size="9.00" fill="#ece1d7">Acked(per_seq)</text>
<text xml:space="preserve" text-anchor="middle" x="417.25" y="-556.83" font-family="Helvetica,sans-Serif" font-size="9.00" fill="#ece1d7">only after EndOfStream</text>
</g>
<!-- fence&#45;&gt;trip -->
<g id="edge19" class="edge">
<title>fence&#45;&gt;trip</title>
<path fill="none" stroke="#b58b86" stroke-dasharray="5,2" d="M866.95,-951.62C791.52,-951.62 673.05,-951.62 568.65,-951.62"/>
<polygon fill="#b58b86" stroke="#b58b86" points="568.75,-948.83 560.75,-951.63 568.75,-954.43 568.75,-948.83"/>
<text xml:space="preserve" text-anchor="middle" x="712.44" y="-957.33" font-family="Helvetica,sans-Serif" font-size="9.00" fill="#ece1d7">FlushAll</text>
</g>
<!-- apply -->
<g id="node10" class="node">
<title>apply</title>
<path fill="#5d4628" stroke="#6e6963" d="M1092.5,-845.38C1092.5,-845.38 881.5,-845.38 881.5,-845.38 875.5,-845.38 869.5,-839.38 869.5,-833.38 869.5,-833.38 869.5,-772.88 869.5,-772.88 869.5,-766.88 875.5,-760.88 881.5,-760.88 881.5,-760.88 1092.5,-760.88 1092.5,-760.88 1098.5,-760.88 1104.5,-766.88 1104.5,-772.88 1104.5,-772.88 1104.5,-833.38 1104.5,-833.38 1104.5,-839.38 1098.5,-845.38 1092.5,-845.38"/>
<text xml:space="preserve" text-anchor="middle" x="987" y="-831.88" font-family="Helvetica,sans-Serif" font-size="10.00" fill="#ece1d7">apply ordered control</text>
<text xml:space="preserve" text-anchor="middle" x="987" y="-819.12" font-family="Helvetica,sans-Serif" font-size="10.00" fill="#ece1d7">Catalog → DdlApplicator</text>
<text xml:space="preserve" text-anchor="middle" x="987" y="-806.38" font-family="Helvetica,sans-Serif" font-size="10.00" fill="#ece1d7">Config → resolver republish</text>
<text xml:space="preserve" text-anchor="middle" x="987" y="-793.62" font-family="Helvetica,sans-Serif" font-size="10.00" fill="#ece1d7">owner TRUNCATE → dest + toast mirror wipe</text>
<text xml:space="preserve" text-anchor="middle" x="987" y="-780.88" font-family="Helvetica,sans-Serif" font-size="10.00" fill="#ece1d7">ToastBarrier → rewrite O−B</text>
<text xml:space="preserve" text-anchor="middle" x="987" y="-768.12" font-family="Helvetica,sans-Serif" font-size="10.00" fill="#ece1d7">toast Dropped → durable retire enqueue</text>
</g>
<!-- fence&#45;&gt;apply -->
<g id="edge3" class="edge">
<title>fence&#45;&gt;apply</title>
<path fill="none" stroke="#c1a78e" d="M952.5,-921.68C958.09,-902.63 965.56,-877.16 972.12,-854.81"/>
<polygon fill="#c1a78e" stroke="#c1a78e" points="974.78,-855.69 974.35,-847.22 969.41,-854.11 974.78,-855.69"/>
</g>
<!-- bridge -->
<g id="node9" class="node">
<title>bridge</title>
<path fill="#5d4628" stroke="#6e6963" d="M1184.25,-981.12C1184.25,-981.12 1061.75,-981.12 1061.75,-981.12 1055.75,-981.12 1049.75,-975.12 1049.75,-969.12 1049.75,-969.12 1049.75,-934.12 1049.75,-934.12 1049.75,-928.12 1055.75,-922.12 1061.75,-922.12 1061.75,-922.12 1184.25,-922.12 1184.25,-922.12 1190.25,-922.12 1196.25,-928.12 1196.25,-934.12 1196.25,-934.12 1196.25,-969.12 1196.25,-969.12 1196.25,-975.12 1190.25,-981.12 1184.25,-981.12"/>
<text xml:space="preserve" text-anchor="middle" x="1123" y="-967.62" font-family="Helvetica,sans-Serif" font-size="10.00" fill="#ece1d7">type_bridge::map</text>
<text xml:space="preserve" text-anchor="middle" x="1123" y="-954.88" font-family="Helvetica,sans-Serif" font-size="10.00" fill="#ece1d7">RelAttr → ResolvedColumn</text>
<text xml:space="preserve" text-anchor="middle" x="1123" y="-942.12" font-family="Helvetica,sans-Serif" font-size="10.00" fill="#ece1d7">(reject type change,</text>
<text xml:space="preserve" text-anchor="middle" x="1123" y="-929.38" font-family="Helvetica,sans-Serif" font-size="10.00" fill="#ece1d7"> pk strips Nullable)</text>
</g>
<!-- bridge&#45;&gt;apply -->
<g id="edge4" class="edge">
<title>bridge&#45;&gt;apply</title>
<path fill="none" stroke="#c1a78e" stroke-dasharray="5,2" d="M1096.13,-921.68C1077.89,-902.03 1053.33,-875.57 1032.12,-852.73"/>
<polygon fill="#c1a78e" stroke="#c1a78e" points="1034.18,-850.84 1026.69,-846.88 1030.08,-854.65 1034.18,-850.84"/>
<text xml:space="preserve" text-anchor="middle" x="1080.55" y="-866.08" font-family="Helvetica,sans-Serif" font-size="9.00" fill="#ece1d7">resolve types</text>
</g>
<!-- chddl -->
<g id="node12" class="node">
<title>chddl</title>
<path fill="#4d4128" stroke="#6e6963" d="M871.12,-505.5C871.12,-509.57 837.45,-512.88 796,-512.88 754.55,-512.88 720.88,-509.57 720.88,-505.5 720.88,-505.5 720.88,-439.12 720.88,-439.12 720.88,-435.06 754.55,-431.75 796,-431.75 837.45,-431.75 871.12,-435.06 871.12,-439.12 871.12,-439.12 871.12,-505.5 871.12,-505.5"/>
<path fill="none" stroke="#6e6963" d="M871.12,-505.5C871.12,-501.43 837.45,-498.12 796,-498.12 754.55,-498.12 720.88,-501.43 720.88,-505.5"/>
<text xml:space="preserve" text-anchor="middle" x="796" y="-488.31" font-family="Helvetica,sans-Serif" font-size="10.00" fill="#ece1d7">DDL connection</text>
<text xml:space="preserve" text-anchor="middle" x="796" y="-475.56" font-family="Helvetica,sans-Serif" font-size="10.00" fill="#ece1d7">clickhouse&#45;c&#45;rs AsyncClient</text>
<text xml:space="preserve" text-anchor="middle" x="796" y="-462.81" font-family="Helvetica,sans-Serif" font-size="10.00" fill="#ece1d7">ALTER / CREATE /</text>
<text xml:space="preserve" text-anchor="middle" x="796" y="-450.06" font-family="Helvetica,sans-Serif" font-size="10.00" fill="#ece1d7"> DROP / TRUNCATE</text>
</g>
<!-- apply&#45;&gt;chddl -->
<g id="edge15" class="edge">
<title>apply&#45;&gt;chddl</title>
<path fill="none" stroke="#bf8c5f" stroke-width="2" stroke-dasharray="5,2" d="M940.96,-760.56C926.79,-746.23 911.93,-729.46 900.5,-712.38 860.18,-652.09 829.42,-573.7 812.03,-523.43"/>
<polygon fill="#bf8c5f" stroke="#bf8c5f" stroke-width="2" points="814.73,-522.69 809.5,-516.02 809.43,-524.49 814.73,-522.69"/>
<text xml:space="preserve" text-anchor="middle" x="940.25" y="-639.58" font-family="Helvetica,sans-Serif" font-size="9.00" fill="#ece1d7">DDL SQL</text>
<text xml:space="preserve" text-anchor="middle" x="940.25" y="-628.33" font-family="Helvetica,sans-Serif" font-size="9.00" fill="#ece1d7">(own connection)</text>
</g>
<!-- chtoast -->
<g id="node13" class="node">
<title>chtoast</title>
<path fill="#4d4128" stroke="#6e6963" d="M1074.12,-498.33C1074.12,-501.52 1035.07,-504.11 987,-504.11 938.93,-504.11 899.88,-501.52 899.88,-498.33 899.88,-498.33 899.88,-446.3 899.88,-446.3 899.88,-443.11 938.93,-440.52 987,-440.52 1035.07,-440.52 1074.12,-443.11 1074.12,-446.3 1074.12,-446.3 1074.12,-498.33 1074.12,-498.33"/>
<path fill="none" stroke="#6e6963" d="M1074.12,-498.33C1074.12,-495.14 1035.07,-492.55 987,-492.55 938.93,-492.55 899.88,-495.14 899.88,-498.33"/>
<text xml:space="preserve" text-anchor="middle" x="987" y="-481.94" font-family="Helvetica,sans-Serif" font-size="10.00" fill="#ece1d7">TOAST store connection</text>
<text xml:space="preserve" text-anchor="middle" x="987" y="-469.19" font-family="Helvetica,sans-Serif" font-size="10.00" fill="#ece1d7">pg_toast_&lt;relid&gt; mirrors</text>
<text xml:space="preserve" text-anchor="middle" x="987" y="-456.44" font-family="Helvetica,sans-Serif" font-size="10.00" fill="#ece1d7">put / as&#45;of fetch / truncate / O−B</text>
</g>
<!-- apply&#45;&gt;chtoast -->
<g id="edge16" class="edge">
<title>apply&#45;&gt;chtoast</title>
<path fill="none" stroke="#bf8c5f" stroke-dasharray="5,2" d="M987,-760.48C987,-696.87 987,-576.29 987,-513.54"/>
<polygon fill="#bf8c5f" stroke="#bf8c5f" points="989.8,-513.86 987,-505.86 984.2,-513.86 989.8,-513.86"/>
<text xml:space="preserve" text-anchor="middle" x="1021.12" y="-633.95" font-family="Helvetica,sans-Serif" font-size="9.00" fill="#ece1d7">truncate / O−B</text>
</g>
<!-- ledger -->
<g id="node15" class="node">
<title>ledger</title>
<polygon fill="#4d3850" stroke="#6e6963" points="1216.12,-654.88 1083.88,-654.88 1083.88,-618.88 1222.12,-618.88 1222.12,-648.88 1216.12,-654.88"/>
<polyline fill="none" stroke="#6e6963" points="1216.12,-654.88 1216.12,-648.88"/>
<polyline fill="none" stroke="#6e6963" points="1222.12,-648.88 1216.12,-648.88"/>
<text xml:space="preserve" text-anchor="middle" x="1153" y="-640.12" font-family="Helvetica,sans-Serif" font-size="10.00" fill="#ece1d7">toast_retires.toml</text>
<text xml:space="preserve" text-anchor="middle" x="1153" y="-627.38" font-family="Helvetica,sans-Serif" font-size="10.00" fill="#ece1d7">saved mirror retirements</text>
</g>
<!-- apply&#45;&gt;ledger -->
<g id="edge17" class="edge">
<title>apply&#45;&gt;ledger</title>
<path fill="none" stroke="#6e6963" stroke-dasharray="5,2" d="M1004.79,-760.77C1012.8,-746.26 1023.52,-730.96 1037,-720.38 1046.17,-713.17 1051.75,-717.95 1062,-712.38 1087.18,-698.69 1112.11,-677.61 1129.49,-661.37"/>
<polygon fill="#6e6963" stroke="#6e6963" points="1131.03,-663.76 1134.89,-656.22 1127.17,-659.71 1131.03,-663.76"/>
<text xml:space="preserve" text-anchor="middle" x="1083.5" y="-728.7" font-family="Helvetica,sans-Serif" font-size="9.00" fill="#ece1d7">toast DROP enqueue</text>
</g>
<!-- legend -->
<g id="node18" class="node">
<title>legend</title>
<path fill="#6e6963" stroke="none" d="M1048.5,-394.75C1048.5,-394.75 335.5,-394.75 335.5,-394.75 329.5,-394.75 323.5,-388.75 323.5,-382.75 323.5,-382.75 323.5,-12 323.5,-12 323.5,-6 329.5,0 335.5,0 335.5,0 1048.5,0 1048.5,0 1054.5,0 1060.5,-6 1060.5,-12 1060.5,-12 1060.5,-382.75 1060.5,-382.75 1060.5,-388.75 1054.5,-394.75 1048.5,-394.75"/>
<polygon fill="#34302c" stroke="none" points="331.5,-368 331.5,-390.75 1052.5,-390.75 1052.5,-368 331.5,-368"/>
<polygon fill="none" stroke="#6e6963" points="331.5,-368 331.5,-390.75 1052.5,-390.75 1052.5,-368 331.5,-368"/>
<text xml:space="preserve" text-anchor="start" x="648.88" y="-377.25" font-family="Helvetica,sans-Serif" font-weight="bold" font-size="10.00" fill="#ece1d7">node fill — role</text>
<polygon fill="#4d4128" stroke="none" points="331.5,-345.25 331.5,-368 540.5,-368 540.5,-345.25 331.5,-345.25"/>
<polygon fill="none" stroke="#6e6963" points="331.5,-345.25 331.5,-368 540.5,-368 540.5,-345.25 331.5,-345.25"/>
<polygon fill="none" stroke="#6e6963" points="540.5,-345.25 540.5,-368 1052.5,-368 1052.5,-345.25 540.5,-345.25"/>
<text xml:space="preserve" text-anchor="start" x="712.88" y="-353.25" font-family="Helvetica,sans-Serif" font-size="10.00" fill="#ece1d7">reorder / decode pool / ClickHouse</text>
<polygon fill="#4d4d28" stroke="none" points="331.5,-322.5 331.5,-345.25 540.5,-345.25 540.5,-322.5 331.5,-322.5"/>
<polygon fill="none" stroke="#6e6963" points="331.5,-322.5 331.5,-345.25 540.5,-345.25 540.5,-322.5 331.5,-322.5"/>
<polygon fill="none" stroke="#6e6963" points="540.5,-322.5 540.5,-345.25 1052.5,-345.25 1052.5,-322.5 540.5,-322.5"/>
<text xml:space="preserve" text-anchor="start" x="715.88" y="-330.5" font-family="Helvetica,sans-Serif" font-size="10.00" fill="#ece1d7">ShadowCatalog schema&#45;event tx</text>
<polygon fill="#5d4628" stroke="none" points="331.5,-299.75 331.5,-322.5 540.5,-322.5 540.5,-299.75 331.5,-299.75"/>
<polygon fill="none" stroke="#6e6963" points="331.5,-299.75 331.5,-322.5 540.5,-322.5 540.5,-299.75 331.5,-299.75"/>
<polygon fill="none" stroke="#6e6963" points="540.5,-299.75 540.5,-322.5 1052.5,-322.5 1052.5,-299.75 540.5,-299.75"/>
<text xml:space="preserve" text-anchor="start" x="714.75" y="-307.75" font-family="Helvetica,sans-Serif" font-size="10.00" fill="#ece1d7">batcher / inserters / DdlApplicator</text>
<polygon fill="#4d3a28" stroke="none" points="331.5,-277 331.5,-299.75 540.5,-299.75 540.5,-277 331.5,-277"/>
<polygon fill="none" stroke="#6e6963" points="331.5,-277 331.5,-299.75 540.5,-299.75 540.5,-277 331.5,-277"/>
<polygon fill="none" stroke="#6e6963" points="540.5,-277 540.5,-299.75 1052.5,-299.75 1052.5,-277 540.5,-277"/>
<text xml:space="preserve" text-anchor="start" x="683.62" y="-285" font-family="Helvetica,sans-Serif" font-size="10.00" fill="#ece1d7">ack collector / null tail / manifest side&#45;channel</text>
<polygon fill="#34302c" stroke="none" points="331.5,-254.25 331.5,-277 1052.5,-277 1052.5,-254.25 331.5,-254.25"/>
<polygon fill="none" stroke="#6e6963" points="331.5,-254.25 331.5,-277 1052.5,-277 1052.5,-254.25 331.5,-254.25"/>
<text xml:space="preserve" text-anchor="start" x="662" y="-263.5" font-family="Helvetica,sans-Serif" font-weight="bold" font-size="10.00" fill="#ece1d7">edge style</text>
<polygon fill="none" stroke="#6e6963" points="331.5,-231.5 331.5,-254.25 540.5,-254.25 540.5,-231.5 331.5,-231.5"/>
<text xml:space="preserve" text-anchor="start" x="430" y="-240.75" font-family="Helvetica,sans-Serif" font-weight="bold" font-size="10.00" fill="#bf8c5f">━━</text>
<polygon fill="none" stroke="#6e6963" points="540.5,-231.5 540.5,-254.25 1052.5,-254.25 1052.5,-231.5 540.5,-231.5"/>
<text xml:space="preserve" text-anchor="start" x="726" y="-239.5" font-family="Helvetica,sans-Serif" font-size="10.00" fill="#ece1d7">row path (Native rows, solid)</text>
<polygon fill="none" stroke="#6e6963" points="331.5,-208.75 331.5,-231.5 540.5,-231.5 540.5,-208.75 331.5,-208.75"/>
<text xml:space="preserve" text-anchor="start" x="430" y="-218" font-family="Helvetica,sans-Serif" font-weight="bold" font-size="10.00" fill="#bf8c5f">┄┄</text>
<polygon fill="none" stroke="#6e6963" points="540.5,-208.75 540.5,-231.5 1052.5,-231.5 1052.5,-208.75 540.5,-208.75"/>
<text xml:space="preserve" text-anchor="start" x="709.88" y="-216.75" font-family="Helvetica,sans-Serif" font-size="10.00" fill="#ece1d7">DDL path (own connection, dashed)</text>
<polygon fill="none" stroke="#6e6963" points="331.5,-186 331.5,-208.75 540.5,-208.75 540.5,-186 331.5,-186"/>
<text xml:space="preserve" text-anchor="start" x="430" y="-195.25" font-family="Helvetica,sans-Serif" font-weight="bold" font-size="10.00" fill="#cba85e">┄┄</text>
<polygon fill="none" stroke="#6e6963" points="540.5,-186 540.5,-208.75 1052.5,-208.75 1052.5,-186 540.5,-186"/>
<text xml:space="preserve" text-anchor="start" x="715.88" y="-194" font-family="Helvetica,sans-Serif" font-size="10.00" fill="#ece1d7">SchemaEvent off ShadowCatalog</text>
<polygon fill="none" stroke="#6e6963" points="331.5,-163.25 331.5,-186 540.5,-186 540.5,-163.25 331.5,-163.25"/>
<text xml:space="preserve" text-anchor="start" x="430.38" y="-172.5" font-family="Helvetica,sans-Serif" font-weight="bold" font-size="10.00" fill="#b380b0">···</text>
<polygon fill="none" stroke="#6e6963" points="540.5,-163.25 540.5,-186 1052.5,-186 1052.5,-163.25 540.5,-163.25"/>
<text xml:space="preserve" text-anchor="start" x="734.62" y="-171.25" font-family="Helvetica,sans-Serif" font-size="10.00" fill="#ece1d7">ack events / barrier waits</text>
<polygon fill="#34302c" stroke="none" points="331.5,-140.5 331.5,-163.25 1052.5,-163.25 1052.5,-140.5 331.5,-140.5"/>
<polygon fill="none" stroke="#6e6963" points="331.5,-140.5 331.5,-163.25 1052.5,-163.25 1052.5,-140.5 331.5,-140.5"/>
<text xml:space="preserve" text-anchor="start" x="587.75" y="-149.75" font-family="Helvetica,sans-Serif" font-weight="bold" font-size="10.00" fill="#ece1d7">synthetic columns (every dest table)</text>
<polygon fill="none" stroke="#6e6963" points="331.5,-117.75 331.5,-140.5 540.5,-140.5 540.5,-117.75 331.5,-117.75"/>
<text xml:space="preserve" text-anchor="start" x="425.5" y="-125.75" font-family="monospace" font-size="10.00" fill="#ece1d7">_lsn</text>
<polygon fill="none" stroke="#6e6963" points="540.5,-117.75 540.5,-140.5 1052.5,-140.5 1052.5,-117.75 540.5,-117.75"/>
<text xml:space="preserve" text-anchor="start" x="664.88" y="-125.75" font-family="Helvetica,sans-Serif" font-size="10.00" fill="#ece1d7">UInt64 — commit_lsn; ReplacingMergeTree dedup key</text>
<polygon fill="none" stroke="#6e6963" points="331.5,-95 331.5,-117.75 540.5,-117.75 540.5,-95 331.5,-95"/>
<text xml:space="preserve" text-anchor="start" x="425.5" y="-103" font-family="monospace" font-size="10.00" fill="#ece1d7">_xid</text>
<polygon fill="none" stroke="#6e6963" points="540.5,-95 540.5,-117.75 1052.5,-117.75 1052.5,-95 540.5,-95"/>
<text xml:space="preserve" text-anchor="start" x="687" y="-103" font-family="Helvetica,sans-Serif" font-size="10.00" fill="#ece1d7">UInt32 — source xid; recovers xact boundary</text>
<polygon fill="none" stroke="#6e6963" points="331.5,-72.25 331.5,-95 540.5,-95 540.5,-72.25 331.5,-72.25"/>
<text xml:space="preserve" text-anchor="start" x="409.75" y="-80.25" font-family="monospace" font-size="10.00" fill="#ece1d7">_commit_ts</text>
<polygon fill="none" stroke="#6e6963" points="540.5,-72.25 540.5,-95 1052.5,-95 1052.5,-72.25 540.5,-72.25"/>
<text xml:space="preserve" text-anchor="start" x="687" y="-80.25" font-family="Helvetica,sans-Serif" font-size="10.00" fill="#ece1d7">DateTime64(6, &#39;UTC&#39;); shifted from PG epoch</text>
<polygon fill="none" stroke="#6e6963" points="331.5,-49.5 331.5,-72.25 540.5,-72.25 540.5,-49.5 331.5,-49.5"/>
<text xml:space="preserve" text-anchor="start" x="407.12" y="-57.5" font-family="monospace" font-size="10.00" fill="#ece1d7">_is_deleted</text>
<polygon fill="none" stroke="#6e6963" points="540.5,-49.5 540.5,-72.25 1052.5,-72.25 1052.5,-49.5 540.5,-49.5"/>
<text xml:space="preserve" text-anchor="start" x="616.12" y="-57.5" font-family="Helvetica,sans-Serif" font-size="10.00" fill="#ece1d7">Bool — 1 on delete; ReplacingMergeTree is_deleted arg unless soft_delete</text>
<polygon fill="#34302c" stroke="none" points="331.5,-26.75 331.5,-49.5 1052.5,-49.5 1052.5,-26.75 331.5,-26.75"/>
<polygon fill="none" stroke="#6e6963" points="331.5,-26.75 331.5,-49.5 1052.5,-49.5 1052.5,-26.75 331.5,-26.75"/>
<text xml:space="preserve" text-anchor="start" x="648.12" y="-36" font-family="Helvetica,sans-Serif" font-weight="bold" font-size="10.00" fill="#ece1d7">watermark rule</text>
<polygon fill="none" stroke="#6e6963" points="331.5,-4 331.5,-26.75 1052.5,-26.75 1052.5,-4 331.5,-4"/>
<text xml:space="preserve" text-anchor="start" x="336.5" y="-12" font-family="Helvetica,sans-Serif" font-size="10.00" fill="#ece1d7">commits may finish out of order; progress advances only after every earlier commit is durable. Failed batch stops process so restart can replay it.</text>
</g>
<!-- chrows&#45;&gt;legend -->
<!-- chddl&#45;&gt;legend -->
<!-- toastput&#45;&gt;chtoast -->
<g id="edge12" class="edge">
<title>toastput&#45;&gt;chtoast</title>
<path fill="none" stroke="#bf8c5f" stroke-width="2" d="M672.85,-1070.56C666.92,-1043.05 658,-994.65 658,-952.62 658,-952.62 658,-952.62 658,-635.88 658,-526.97 790.42,-598.32 886,-546.12 904.58,-535.98 923.72,-522.94 940.28,-510.71"/>
<polygon fill="#bf8c5f" stroke="#bf8c5f" stroke-width="2" points="941.55,-513.26 946.27,-506.22 938.19,-508.78 941.55,-513.26"/>
</g>
<!-- ledger&#45;&gt;chtoast -->
<g id="edge18" class="edge">
<title>ledger&#45;&gt;chtoast</title>
<path fill="none" stroke="#bf8c5f" stroke-dasharray="5,2" d="M1135.24,-618.48C1109.2,-592.98 1060.04,-544.84 1025.49,-511.01"/>
<polygon fill="#bf8c5f" stroke="#bf8c5f" points="1027.54,-509.1 1019.87,-505.5 1023.62,-513.1 1027.54,-509.1"/>
<text xml:space="preserve" text-anchor="middle" x="1134.38" y="-568.08" font-family="Helvetica,sans-Serif" font-size="9.00" fill="#ece1d7">retire after saved</text>
<text xml:space="preserve" text-anchor="middle" x="1134.38" y="-556.83" font-family="Helvetica,sans-Serif" font-size="9.00" fill="#ece1d7">restart point passes</text>
</g>
<!-- nulltail&#45;&gt;ack -->
<g id="edge23" class="edge">
<title>nulltail&#45;&gt;ack</title>
<path fill="none" stroke="#b380b0" stroke-dasharray="1,5" d="M437.21,-1541.78C451.11,-1501.61 485.24,-1417.34 541,-1368.12 569.46,-1343 583.4,-1345.7 620,-1335.62 643.39,-1329.18 655.21,-1342.97 674,-1327.62 715.38,-1293.83 678.92,-1254.03 715,-1214.62 751.75,-1174.48 796.75,-1208.78 826,-1162.88 851.08,-1123.52 828.15,-1104.49 826,-1057.88 815.9,-839.1 814.83,-760.75 682,-586.62 668.32,-568.69 664.03,-562.3 643,-554.12 607.75,-540.42 508.92,-557.95 473,-546.12 448.19,-537.96 423.72,-522.48 404.27,-507.89"/>
<polygon fill="#b380b0" stroke="#b380b0" points="406.05,-505.72 398,-503.07 402.63,-510.16 406.05,-505.72"/>
<text xml:space="preserve" text-anchor="middle" x="836.33" y="-1031.33" font-family="Helvetica,sans-Serif" font-size="9.00" fill="#ece1d7">done</text>
</g>
<!-- ack&#45;&gt;fence -->
<g id="edge24" class="edge">
<title>ack&#45;&gt;fence</title>
<path fill="none" stroke="#b380b0" stroke-dasharray="1,5" d="M396.21,-502.14C416.65,-518.45 444.52,-537.31 473,-546.12 548.69,-569.54 1110.06,-531.52 1186,-554.12 1211.76,-561.79 1224.07,-563.06 1237,-586.62 1263.88,-635.63 1274.29,-670.74 1237,-712.38 1226.19,-724.45 1176.99,-710.05 1164.5,-720.38 1109.22,-766.09 1169.77,-826.04 1117,-874.62 1089.55,-899.9 1069.49,-878.38 1035,-892.62 1019.8,-898.9 1004.33,-907.7 990.55,-916.54"/>
<polygon fill="#b380b0" stroke="#b380b0" points="989.07,-914.17 983.92,-920.9 992.14,-918.84 989.07,-914.17"/>
<text xml:space="preserve" text-anchor="middle" x="1214.75" y="-734.33" font-family="Helvetica,sans-Serif" font-size="9.00" fill="#ece1d7">wait_placed_through /</text>
<text xml:space="preserve" text-anchor="middle" x="1214.75" y="-723.08" font-family="Helvetica,sans-Serif" font-size="9.00" fill="#ece1d7">wait_through</text>
</g>
</g>
</svg>
