<?xml version="1.0" encoding="UTF-8" standalone="no"?>
<!DOCTYPE svg PUBLIC "-//W3C//DTD SVG 1.1//EN"
 "http://www.w3.org/Graphics/SVG/1.1/DTD/svg11.dtd">
<!-- Generated by graphviz version 14.1.5 (0)
 -->
<!-- Title: emitter Pages: 1 -->
<svg width="906pt" height="1714pt"
 viewBox="0.00 0.00 906.00 1714.00" xmlns="http://www.w3.org/2000/svg" xmlns:xlink="http://www.w3.org/1999/xlink">
<g id="graph0" class="graph" transform="scale(1 1) rotate(0) translate(4 1709.88)">
<title>emitter</title>
<polygon fill="#272623" stroke="none" points="-4,4 -4,-1709.88 902,-1709.88 902,4 -4,4"/>
<text xml:space="preserve" text-anchor="middle" x="449" y="-1688.58" font-family="Helvetica,sans-Serif" font-size="14.00" fill="#ece1d7">walshadow CH emitter — held&#45;open INSERT pump + DdlApplicator (dual CH TCP)</text>
<g id="clust1" class="cluster">
<title>cluster_src</title>
<path fill="#34302c" stroke="#4c4641" d="M103,-1513.38C103,-1513.38 614,-1513.38 614,-1513.38 620,-1513.38 626,-1519.38 626,-1525.38 626,-1525.38 626,-1660.62 626,-1660.62 626,-1666.62 620,-1672.62 614,-1672.62 614,-1672.62 103,-1672.62 103,-1672.62 97,-1672.62 91,-1666.62 91,-1660.62 91,-1660.62 91,-1525.38 91,-1525.38 91,-1519.38 97,-1513.38 103,-1513.38"/>
<text xml:space="preserve" text-anchor="middle" x="358.5" y="-1655.33" font-family="Helvetica,sans-Serif" font-size="14.00" fill="#ece1d7">upstream &#160;(xact buffer drain)</text>
</g>
<g id="clust2" class="cluster">
<title>cluster_rows</title>
<path fill="#34302c" stroke="#4c4641" d="M20,-666.38C20,-666.38 432,-666.38 432,-666.38 438,-666.38 444,-672.38 444,-678.38 444,-678.38 444,-1448.12 444,-1448.12 444,-1454.12 438,-1460.12 432,-1460.12 432,-1460.12 20,-1460.12 20,-1460.12 14,-1460.12 8,-1454.12 8,-1448.12 8,-1448.12 8,-678.38 8,-678.38 8,-672.38 14,-666.38 20,-666.38"/>
<text xml:space="preserve" text-anchor="middle" x="226" y="-1442.83" font-family="Helvetica,sans-Serif" font-size="14.00" fill="#ece1d7">row path — Emitter::route → held&#45;open INSERT &#160;(CH TCP #1)</text>
</g>
<g id="clust3" class="cluster">
<title>cluster_ddl</title>
<path fill="#34302c" stroke="#4c4641" d="M464,-1144.88C464,-1144.88 878,-1144.88 878,-1144.88 884,-1144.88 890,-1150.88 890,-1156.88 890,-1156.88 890,-1460.88 890,-1460.88 890,-1466.88 884,-1472.88 878,-1472.88 878,-1472.88 464,-1472.88 464,-1472.88 458,-1472.88 452,-1466.88 452,-1460.88 452,-1460.88 452,-1156.88 452,-1156.88 452,-1150.88 458,-1144.88 464,-1144.88"/>
<text xml:space="preserve" text-anchor="middle" x="671" y="-1455.58" font-family="Helvetica,sans-Serif" font-size="14.00" fill="#ece1d7">DDL path — DdlApplicator (CH TCP #2, separate connection)</text>
</g>
<g id="clust4" class="cluster">
<title>cluster_ch</title>
<path fill="#34302c" stroke="#4c4641" d="M247,-514.75C247,-514.75 532,-514.75 532,-514.75 538,-514.75 544,-520.75 544,-526.75 544,-526.75 544,-625.12 544,-625.12 544,-631.12 538,-637.12 532,-637.12 532,-637.12 247,-637.12 247,-637.12 241,-637.12 235,-631.12 235,-625.12 235,-625.12 235,-526.75 235,-526.75 235,-520.75 241,-514.75 247,-514.75"/>
<text xml:space="preserve" text-anchor="middle" x="389.5" y="-619.83" font-family="Helvetica,sans-Serif" font-size="14.00" fill="#ece1d7">ClickHouse</text>
</g>
<!-- drain -->
<g id="node1" class="node">
<title>drain</title>
<path fill="#4d4128" stroke="#6e6963" d="M268.88,-1616.25C268.88,-1616.25 111.12,-1616.25 111.12,-1616.25 105.12,-1616.25 99.12,-1610.25 99.12,-1604.25 99.12,-1604.25 99.12,-1556.5 99.12,-1556.5 99.12,-1550.5 105.12,-1544.5 111.12,-1544.5 111.12,-1544.5 268.88,-1544.5 268.88,-1544.5 274.88,-1544.5 280.88,-1550.5 280.88,-1556.5 280.88,-1556.5 280.88,-1604.25 280.88,-1604.25 280.88,-1610.25 274.88,-1616.25 268.88,-1616.25"/>
<text xml:space="preserve" text-anchor="middle" x="190" y="-1602.75" font-family="Helvetica,sans-Serif" font-size="10.00" fill="#ece1d7">XactRecordSink</text>
<text xml:space="preserve" text-anchor="middle" x="190" y="-1590" font-family="Helvetica,sans-Serif" font-size="10.00" fill="#ece1d7">commit drain</text>
<text xml:space="preserve" text-anchor="middle" x="190" y="-1577.25" font-family="Helvetica,sans-Serif" font-size="10.00" fill="#ece1d7">(k&#45;way merge:</text>
<text xml:space="preserve" text-anchor="middle" x="190" y="-1564.5" font-family="Helvetica,sans-Serif" font-size="10.00" fill="#ece1d7"> CommittedTuple ⨝ SchemaEvent</text>
<text xml:space="preserve" text-anchor="middle" x="190" y="-1551.75" font-family="Helvetica,sans-Serif" font-size="10.00" fill="#ece1d7"> in source&#45;LSN order)</text>
</g>
<!-- route -->
<g id="node3" class="node">
<title>route</title>
<path fill="#5d4628" stroke="#6e6963" d="M145.38,-1426.88C145.38,-1426.88 44.62,-1426.88 44.62,-1426.88 38.62,-1426.88 32.63,-1420.88 32.63,-1414.88 32.63,-1414.88 32.63,-1392.62 32.63,-1392.62 32.63,-1386.62 38.63,-1380.62 44.63,-1380.62 44.63,-1380.62 145.38,-1380.62 145.38,-1380.62 151.38,-1380.62 157.38,-1386.62 157.38,-1392.62 157.38,-1392.62 157.38,-1414.88 157.38,-1414.88 157.38,-1420.88 151.38,-1426.88 145.38,-1426.88"/>
<text xml:space="preserve" text-anchor="middle" x="95" y="-1413.38" font-family="Helvetica,sans-Serif" font-size="10.00" fill="#ece1d7">Emitter::route</text>
<text xml:space="preserve" text-anchor="middle" x="95" y="-1400.62" font-family="Helvetica,sans-Serif" font-size="10.00" fill="#ece1d7">resolve rel + mapping</text>
<text xml:space="preserve" text-anchor="middle" x="95" y="-1387.88" font-family="Helvetica,sans-Serif" font-size="10.00" fill="#ece1d7">HeapOp dispatch</text>
</g>
<!-- drain&#45;&gt;route -->
<g id="edge12" class="edge">
<title>drain&#45;&gt;route</title>
<path fill="none" stroke="#bf8c5f" stroke-width="2" d="M170.78,-1544.04C159.16,-1522.69 144,-1494.82 130.3,-1469.63"/>
<polygon fill="#bf8c5f" stroke="#bf8c5f" stroke-width="2" points="132.85,-1468.47 126.57,-1462.78 127.93,-1471.15 132.85,-1468.47"/>
<text xml:space="preserve" text-anchor="middle" x="185.31" y="-1489.2" font-family="Helvetica,sans-Serif" font-size="9.00" fill="#ece1d7">CommittedTuple</text>
</g>
<!-- cat -->
<g id="node2" class="node">
<title>cat</title>
<path fill="#4d4d28" stroke="#6e6963" d="M606.22,-1639.38C606.22,-1639.38 384.89,-1639.38 384.89,-1639.38 378.89,-1639.38 370.06,-1634.08 367.23,-1628.79 367.23,-1628.79 315.44,-1531.96 315.44,-1531.96 312.61,-1526.67 315.78,-1521.38 321.78,-1521.38 321.78,-1521.38 543.11,-1521.38 543.11,-1521.38 549.11,-1521.38 557.94,-1526.67 560.77,-1531.96 560.77,-1531.96 612.56,-1628.79 612.56,-1628.79 615.39,-1634.08 612.22,-1639.38 606.22,-1639.38"/>
<text xml:space="preserve" text-anchor="middle" x="464" y="-1596.38" font-family="Helvetica,sans-Serif" font-size="10.00" fill="#ece1d7">ShadowCatalog::subscribe</text>
<text xml:space="preserve" text-anchor="middle" x="464" y="-1583.62" font-family="Helvetica,sans-Serif" font-size="10.00" fill="#ece1d7">SchemaEvent</text>
<text xml:space="preserve" text-anchor="middle" x="464" y="-1570.88" font-family="Helvetica,sans-Serif" font-size="10.00" fill="#ece1d7">Added / Changed / Dropped</text>
<text xml:space="preserve" text-anchor="middle" x="464" y="-1558.12" font-family="Helvetica,sans-Serif" font-size="10.00" fill="#ece1d7">(unbounded mpsc)</text>
</g>
<!-- dispatch -->
<g id="node12" class="node">
<title>dispatch</title>
<path fill="#5d4628" stroke="#6e6963" d="M629.25,-1439.62C629.25,-1439.62 476.75,-1439.62 476.75,-1439.62 470.75,-1439.62 464.75,-1433.62 464.75,-1427.62 464.75,-1427.62 464.75,-1379.88 464.75,-1379.88 464.75,-1373.88 470.75,-1367.88 476.75,-1367.88 476.75,-1367.88 629.25,-1367.88 629.25,-1367.88 635.25,-1367.88 641.25,-1373.88 641.25,-1379.88 641.25,-1379.88 641.25,-1427.62 641.25,-1427.62 641.25,-1433.62 635.25,-1439.62 629.25,-1439.62"/>
<text xml:space="preserve" text-anchor="middle" x="553" y="-1426.12" font-family="Helvetica,sans-Serif" font-size="10.00" fill="#ece1d7">Emitter::dispatch_schema_event</text>
<text xml:space="preserve" text-anchor="middle" x="553" y="-1413.38" font-family="Helvetica,sans-Serif" font-size="10.00" fill="#ece1d7">1. flush_table(key)</text>
<text xml:space="preserve" text-anchor="middle" x="553" y="-1400.62" font-family="Helvetica,sans-Serif" font-size="10.00" fill="#ece1d7">2. close_current_wire if key open</text>
<text xml:space="preserve" text-anchor="middle" x="553" y="-1387.88" font-family="Helvetica,sans-Serif" font-size="10.00" fill="#ece1d7">3. drop tables[key]</text>
<text xml:space="preserve" text-anchor="middle" x="553" y="-1375.12" font-family="Helvetica,sans-Serif" font-size="10.00" fill="#ece1d7">4. applicator.apply(event)</text>
</g>
<!-- cat&#45;&gt;dispatch -->
<g id="edge13" class="edge">
<title>cat&#45;&gt;dispatch</title>
<path fill="none" stroke="#cba85e" stroke-dasharray="5,2" d="M493.64,-1521.23C500.18,-1508.39 507.2,-1494.61 514.05,-1481.18"/>
<polygon fill="#cba85e" stroke="#cba85e" points="516.46,-1482.62 517.59,-1474.22 511.47,-1480.08 516.46,-1482.62"/>
<text xml:space="preserve" text-anchor="middle" x="550.2" y="-1494.83" font-family="Helvetica,sans-Serif" font-size="9.00" fill="#ece1d7">SchemaEvent</text>
<text xml:space="preserve" text-anchor="middle" x="550.2" y="-1483.58" font-family="Helvetica,sans-Serif" font-size="9.00" fill="#ece1d7">drain at commit</text>
</g>
<!-- enc -->
<g id="node4" class="node">
<title>enc</title>
<path fill="#5d4628" stroke="#6e6963" d="M171.88,-1320.62C171.88,-1320.62 50.12,-1320.62 50.12,-1320.62 44.12,-1320.62 38.12,-1314.62 38.12,-1308.62 38.12,-1308.62 38.12,-1273.62 38.12,-1273.62 38.12,-1267.62 44.12,-1261.62 50.12,-1261.62 50.12,-1261.62 171.88,-1261.62 171.88,-1261.62 177.88,-1261.62 183.88,-1267.62 183.88,-1273.62 183.88,-1273.62 183.88,-1308.62 183.88,-1308.62 183.88,-1314.62 177.88,-1320.62 171.88,-1320.62"/>
<text xml:space="preserve" text-anchor="middle" x="111" y="-1307.12" font-family="Helvetica,sans-Serif" font-size="10.00" fill="#ece1d7">TableEncoder::append_row</text>
<text xml:space="preserve" text-anchor="middle" x="111" y="-1294.38" font-family="Helvetica,sans-Serif" font-size="10.00" fill="#ece1d7">per (src qualified_name)</text>
<text xml:space="preserve" text-anchor="middle" x="111" y="-1281.62" font-family="Helvetica,sans-Serif" font-size="10.00" fill="#ece1d7">row_budget 65536</text>
<text xml:space="preserve" text-anchor="middle" x="111" y="-1268.88" font-family="Helvetica,sans-Serif" font-size="10.00" fill="#ece1d7">byte_budget 1 MiB</text>
</g>
<!-- route&#45;&gt;enc -->
<g id="edge1" class="edge">
<title>route&#45;&gt;enc</title>
<path fill="none" stroke="#c1a78e" d="M98.24,-1380.36C100.33,-1365.87 103.11,-1346.65 105.55,-1329.84"/>
<polygon fill="#c1a78e" stroke="#c1a78e" points="108.26,-1330.61 106.64,-1322.29 102.72,-1329.81 108.26,-1330.61"/>
</g>
<!-- trunc -->
<g id="node11" class="node">
<title>trunc</title>
<path fill="#5d4628" stroke="#6e6963" d="M424.12,-1426.88C424.12,-1426.88 279.88,-1426.88 279.88,-1426.88 273.88,-1426.88 267.88,-1420.88 267.88,-1414.88 267.88,-1414.88 267.88,-1392.62 267.88,-1392.62 267.88,-1386.62 273.88,-1380.62 279.88,-1380.62 279.88,-1380.62 424.12,-1380.62 424.12,-1380.62 430.12,-1380.62 436.12,-1386.62 436.12,-1392.62 436.12,-1392.62 436.12,-1414.88 436.12,-1414.88 436.12,-1420.88 430.12,-1426.88 424.12,-1426.88"/>
<text xml:space="preserve" text-anchor="middle" x="352" y="-1413.38" font-family="Helvetica,sans-Serif" font-size="10.00" fill="#ece1d7">HeapOp::Truncate</text>
<text xml:space="preserve" text-anchor="middle" x="352" y="-1400.62" font-family="Helvetica,sans-Serif" font-size="10.00" fill="#ece1d7">flush + close +</text>
<text xml:space="preserve" text-anchor="middle" x="352" y="-1387.88" font-family="Helvetica,sans-Serif" font-size="10.00" fill="#ece1d7"> send_query(TRUNCATE TABLE)</text>
</g>
<!-- route&#45;&gt;trunc -->
<g id="edge8" class="edge">
<title>route&#45;&gt;trunc</title>
<path fill="none" stroke="#c1a78e" stroke-dasharray="5,2" d="M157.87,-1403.75C188.02,-1403.75 224.77,-1403.75 258.15,-1403.75"/>
<polygon fill="#c1a78e" stroke="#c1a78e" points="257.95,-1406.55 265.95,-1403.75 257.95,-1400.95 257.95,-1406.55"/>
<text xml:space="preserve" text-anchor="middle" x="212.62" y="-1409.45" font-family="Helvetica,sans-Serif" font-size="9.00" fill="#ece1d7">HeapOp::Truncate</text>
</g>
<!-- cols -->
<g id="node5" class="node">
<title>cols</title>
<path fill="#5d4628" stroke="#6e6963" d="M192.5,-1224.62C192.5,-1224.62 29.5,-1224.62 29.5,-1224.62 23.5,-1224.62 17.5,-1218.62 17.5,-1212.62 17.5,-1212.62 17.5,-1152.12 17.5,-1152.12 17.5,-1146.12 23.5,-1140.12 29.5,-1140.12 29.5,-1140.12 192.5,-1140.12 192.5,-1140.12 198.5,-1140.12 204.5,-1146.12 204.5,-1152.12 204.5,-1152.12 204.5,-1212.62 204.5,-1212.62 204.5,-1218.62 198.5,-1224.62 192.5,-1224.62"/>
<text xml:space="preserve" text-anchor="middle" x="111" y="-1211.12" font-family="Helvetica,sans-Serif" font-size="10.00" fill="#ece1d7">ColumnBuf slabs</text>
<text xml:space="preserve" text-anchor="middle" x="111" y="-1198.38" font-family="Helvetica,sans-Serif" font-size="10.00" fill="#ece1d7">Fixed / String /</text>
<text xml:space="preserve" text-anchor="middle" x="111" y="-1185.62" font-family="Helvetica,sans-Serif" font-size="10.00" fill="#ece1d7">NullableFixed /</text>
<text xml:space="preserve" text-anchor="middle" x="111" y="-1172.88" font-family="Helvetica,sans-Serif" font-size="10.00" fill="#ece1d7">NullableString</text>
<text xml:space="preserve" text-anchor="middle" x="111" y="-1160.12" font-family="Helvetica,sans-Serif" font-size="10.00" fill="#ece1d7">column&#45;major +</text>
<text xml:space="preserve" text-anchor="middle" x="111" y="-1147.38" font-family="Helvetica,sans-Serif" font-size="10.00" fill="#ece1d7">synthetic _lsn/_xid/_op/_commit_ts</text>
</g>
<!-- enc&#45;&gt;cols -->
<g id="edge2" class="edge">
<title>enc&#45;&gt;cols</title>
<path fill="none" stroke="#c1a78e" d="M111,-1261.24C111,-1252.99 111,-1243.74 111,-1234.58"/>
<polygon fill="#c1a78e" stroke="#c1a78e" points="113.8,-1234.63 111,-1226.63 108.2,-1234.63 113.8,-1234.63"/>
</g>
<!-- block -->
<g id="node6" class="node">
<title>block</title>
<path fill="#5d4628" stroke="#6e6963" d="M158,-1103.12C158,-1103.12 82,-1103.12 82,-1103.12 76,-1103.12 70,-1097.12 70,-1091.12 70,-1091.12 70,-1068.88 70,-1068.88 70,-1062.88 76,-1056.88 82,-1056.88 82,-1056.88 158,-1056.88 158,-1056.88 164,-1056.88 170,-1062.88 170,-1068.88 170,-1068.88 170,-1091.12 170,-1091.12 170,-1097.12 164,-1103.12 158,-1103.12"/>
<text xml:space="preserve" text-anchor="middle" x="120" y="-1089.62" font-family="Helvetica,sans-Serif" font-size="10.00" fill="#ece1d7">BlockBuilder</text>
<text xml:space="preserve" text-anchor="middle" x="120" y="-1076.88" font-family="Helvetica,sans-Serif" font-size="10.00" fill="#ece1d7">borrow into slabs</text>
<text xml:space="preserve" text-anchor="middle" x="120" y="-1064.12" font-family="Helvetica,sans-Serif" font-size="10.00" fill="#ece1d7">at flush</text>
</g>
<!-- cols&#45;&gt;block -->
<g id="edge3" class="edge">
<title>cols&#45;&gt;block</title>
<path fill="none" stroke="#c1a78e" d="M114.74,-1139.68C115.55,-1130.68 116.39,-1121.3 117.15,-1112.75"/>
<polygon fill="#c1a78e" stroke="#c1a78e" points="119.92,-1113.24 117.85,-1105.03 114.34,-1112.74 119.92,-1113.24"/>
</g>
<!-- openw -->
<g id="node7" class="node">
<title>openw</title>
<path fill="#5d4628" stroke="#6e6963" d="M185.62,-1019.88C185.62,-1019.88 62.38,-1019.88 62.38,-1019.88 56.38,-1019.88 50.38,-1013.88 50.38,-1007.88 50.38,-1007.88 50.38,-960.12 50.38,-960.12 50.38,-954.12 56.38,-948.12 62.38,-948.12 62.38,-948.12 185.62,-948.12 185.62,-948.12 191.62,-948.12 197.62,-954.12 197.62,-960.12 197.62,-960.12 197.62,-1007.88 197.62,-1007.88 197.62,-1013.88 191.62,-1019.88 185.62,-1019.88"/>
<text xml:space="preserve" text-anchor="middle" x="124" y="-1006.38" font-family="Helvetica,sans-Serif" font-size="10.00" fill="#ece1d7">open_wire(key)</text>
<text xml:space="preserve" text-anchor="middle" x="124" y="-993.62" font-family="Helvetica,sans-Serif" font-size="10.00" fill="#ece1d7">key matches → no&#45;op</text>
<text xml:space="preserve" text-anchor="middle" x="124" y="-980.88" font-family="Helvetica,sans-Serif" font-size="10.00" fill="#ece1d7">else close prior +</text>
<text xml:space="preserve" text-anchor="middle" x="124" y="-968.12" font-family="Helvetica,sans-Serif" font-size="10.00" fill="#ece1d7"> send_query(INSERT…)</text>
<text xml:space="preserve" text-anchor="middle" x="124" y="-955.38" font-family="Helvetica,sans-Serif" font-size="10.00" fill="#ece1d7"> flush_deadline := now + T</text>
</g>
<!-- block&#45;&gt;openw -->
<g id="edge4" class="edge">
<title>block&#45;&gt;openw</title>
<path fill="none" stroke="#c1a78e" d="M120.95,-1056.72C121.29,-1048.58 121.7,-1039.05 122.1,-1029.65"/>
<polygon fill="#c1a78e" stroke="#c1a78e" points="124.89,-1029.97 122.43,-1021.86 119.29,-1029.73 124.89,-1029.97"/>
</g>
<!-- sendd -->
<g id="node8" class="node">
<title>sendd</title>
<path fill="#5d4628" stroke="#6e6963" d="M180.62,-911.12C180.62,-911.12 69.38,-911.12 69.38,-911.12 63.38,-911.12 57.38,-905.12 57.38,-899.12 57.38,-899.12 57.38,-887.12 57.38,-887.12 57.38,-881.12 63.38,-875.12 69.38,-875.12 69.38,-875.12 180.62,-875.12 180.62,-875.12 186.62,-875.12 192.62,-881.12 192.62,-887.12 192.62,-887.12 192.62,-899.12 192.62,-899.12 192.62,-905.12 186.62,-911.12 180.62,-911.12"/>
<text xml:space="preserve" text-anchor="middle" x="125" y="-896.38" font-family="Helvetica,sans-Serif" font-size="10.00" fill="#ece1d7">send_data(Some(block))</text>
<text xml:space="preserve" text-anchor="middle" x="125" y="-883.62" font-family="Helvetica,sans-Serif" font-size="10.00" fill="#ece1d7">per budget trip</text>
</g>
<!-- openw&#45;&gt;sendd -->
<g id="edge5" class="edge">
<title>openw&#45;&gt;sendd</title>
<path fill="none" stroke="#c1a78e" d="M124.4,-947.87C124.5,-938.81 124.61,-929.2 124.7,-920.65"/>
<polygon fill="#c1a78e" stroke="#c1a78e" points="127.5,-920.75 124.79,-912.72 121.9,-920.68 127.5,-920.75"/>
</g>
<!-- hold -->
<g id="node9" class="node">
<title>hold</title>
<polygon fill="#5d4628" stroke="#6e6963" points="196.75,-838.12 47.25,-838.12 47.25,-791.88 202.75,-791.88 202.75,-832.12 196.75,-838.12"/>
<polyline fill="none" stroke="#6e6963" points="196.75,-838.12 196.75,-832.12"/>
<polyline fill="none" stroke="#6e6963" points="202.75,-832.12 196.75,-832.12"/>
<text xml:space="preserve" text-anchor="middle" x="125" y="-824.62" font-family="Helvetica,sans-Serif" font-size="10.00" fill="#ece1d7">hold across xacts</text>
<text xml:space="preserve" text-anchor="middle" x="125" y="-811.88" font-family="Helvetica,sans-Serif" font-size="10.00" fill="#ece1d7">wire_open_key = Some(key)</text>
<text xml:space="preserve" text-anchor="middle" x="125" y="-799.12" font-family="Helvetica,sans-Serif" font-size="10.00" fill="#ece1d7">flush_timeout cap</text>
</g>
<!-- sendd&#45;&gt;hold -->
<g id="edge6" class="edge">
<title>sendd&#45;&gt;hold</title>
<path fill="none" stroke="#c1a78e" stroke-dasharray="5,2" d="M125,-874.85C125,-866.84 125,-857.06 125,-847.79"/>
<polygon fill="#c1a78e" stroke="#c1a78e" points="127.8,-847.92 125,-839.92 122.2,-847.92 127.8,-847.92"/>
</g>
<!-- chrows -->
<g id="node16" class="node">
<title>chrows</title>
<path fill="#4d4128" stroke="#6e6963" d="M385,-596.5C385,-600.57 353.18,-603.88 314,-603.88 274.82,-603.88 243,-600.57 243,-596.5 243,-596.5 243,-530.12 243,-530.12 243,-526.06 274.82,-522.75 314,-522.75 353.18,-522.75 385,-526.06 385,-530.12 385,-530.12 385,-596.5 385,-596.5"/>
<path fill="none" stroke="#6e6963" d="M385,-596.5C385,-592.43 353.18,-589.12 314,-589.12 274.82,-589.12 243,-592.43 243,-596.5"/>
<text xml:space="preserve" text-anchor="middle" x="314" y="-579.31" font-family="Helvetica,sans-Serif" font-size="10.00" fill="#ece1d7">CH TCP #1</text>
<text xml:space="preserve" text-anchor="middle" x="314" y="-566.56" font-family="Helvetica,sans-Serif" font-size="10.00" fill="#ece1d7">clickhouse&#45;c&#45;rs Client</text>
<text xml:space="preserve" text-anchor="middle" x="314" y="-553.81" font-family="Helvetica,sans-Serif" font-size="10.00" fill="#ece1d7">ReplacingMergeTree(_lsn)</text>
<text xml:space="preserve" text-anchor="middle" x="314" y="-541.06" font-family="Helvetica,sans-Serif" font-size="10.00" fill="#ece1d7">Native rows</text>
</g>
<!-- sendd&#45;&gt;chrows -->
<g id="edge14" class="edge">
<title>sendd&#45;&gt;chrows</title>
<path fill="none" stroke="#bf8c5f" stroke-width="2" d="M167.18,-874.75C184.48,-865.9 203.56,-853.68 217,-838.12 272.85,-773.44 297.26,-674.42 307.39,-614.86"/>
<polygon fill="#bf8c5f" stroke="#bf8c5f" stroke-width="2" points="310.11,-615.55 308.63,-607.2 304.58,-614.65 310.11,-615.55"/>
<text xml:space="preserve" text-anchor="middle" x="296.1" y="-759.7" font-family="Helvetica,sans-Serif" font-size="9.00" fill="#ece1d7">Native block</text>
</g>
<!-- closew -->
<g id="node10" class="node">
<title>closew</title>
<path fill="#5d4628" stroke="#6e6963" d="M191.12,-733.38C191.12,-733.38 58.88,-733.38 58.88,-733.38 52.88,-733.38 46.88,-727.38 46.88,-721.38 46.88,-721.38 46.88,-686.38 46.88,-686.38 46.88,-680.38 52.88,-674.38 58.88,-674.38 58.88,-674.38 191.12,-674.38 191.12,-674.38 197.12,-674.38 203.12,-680.38 203.12,-686.38 203.12,-686.38 203.12,-721.38 203.12,-721.38 203.12,-727.38 197.12,-733.38 191.12,-733.38"/>
<text xml:space="preserve" text-anchor="middle" x="125" y="-719.88" font-family="Helvetica,sans-Serif" font-size="10.00" fill="#ece1d7">close_current_wire</text>
<text xml:space="preserve" text-anchor="middle" x="125" y="-707.12" font-family="Helvetica,sans-Serif" font-size="10.00" fill="#ece1d7">send_data(None) + drain</text>
<text xml:space="preserve" text-anchor="middle" x="125" y="-694.38" font-family="Helvetica,sans-Serif" font-size="10.00" fill="#ece1d7">to EndOfStream</text>
<text xml:space="preserve" text-anchor="middle" x="125" y="-681.62" font-family="Helvetica,sans-Serif" font-size="10.00" fill="#ece1d7">last_durable ← pending_max</text>
</g>
<!-- hold&#45;&gt;closew -->
<g id="edge7" class="edge">
<title>hold&#45;&gt;closew</title>
<path fill="none" stroke="#c1a78e" stroke-dasharray="5,2" d="M123.68,-791.51C123.4,-785.76 123.14,-779.59 123,-773.88 122.75,-763.89 122.88,-753.09 123.16,-743.07"/>
<polygon fill="#c1a78e" stroke="#c1a78e" points="125.95,-743.35 123.42,-735.26 120.35,-743.16 125.95,-743.35"/>
<text xml:space="preserve" text-anchor="middle" x="181.5" y="-765.33" font-family="Helvetica,sans-Serif" font-size="9.00" fill="#ece1d7">deadline / table switch</text>
<text xml:space="preserve" text-anchor="middle" x="181.5" y="-754.08" font-family="Helvetica,sans-Serif" font-size="9.00" fill="#ece1d7">/ schema event / on_close</text>
</g>
<!-- closew&#45;&gt;chrows -->
<g id="edge15" class="edge">
<title>closew&#45;&gt;chrows</title>
<path fill="none" stroke="#bf8c5f" stroke-dasharray="5,2" d="M157.21,-674C168.35,-664.45 181.1,-654.01 193.25,-645.12 198.65,-641.18 200.39,-640.77 206,-637.12 220.53,-627.67 236.04,-617.36 250.64,-607.54"/>
<polygon fill="#bf8c5f" stroke="#bf8c5f" points="251.85,-610.09 256.92,-603.3 248.72,-605.45 251.85,-610.09"/>
<text xml:space="preserve" text-anchor="middle" x="223.62" y="-647.83" font-family="Helvetica,sans-Serif" font-size="9.00" fill="#ece1d7">EndOfStream</text>
</g>
<!-- ack -->
<g id="node18" class="node">
<title>ack</title>
<polygon fill="#4d3a28" stroke="#6e6963" points="185.88,-586.44 16.12,-586.44 16.12,-540.19 191.88,-540.19 191.88,-580.44 185.88,-586.44"/>
<polyline fill="none" stroke="#6e6963" points="185.88,-586.44 185.88,-580.44"/>
<polyline fill="none" stroke="#6e6963" points="191.88,-580.44 185.88,-580.44"/>
<text xml:space="preserve" text-anchor="middle" x="104" y="-572.94" font-family="Helvetica,sans-Serif" font-size="10.00" fill="#ece1d7">EmitterObserver::on_xact_end</text>
<text xml:space="preserve" text-anchor="middle" x="104" y="-560.19" font-family="Helvetica,sans-Serif" font-size="10.00" fill="#ece1d7">returns last_durable_commit_lsn</text>
<text xml:space="preserve" text-anchor="middle" x="104" y="-547.44" font-family="Helvetica,sans-Serif" font-size="10.00" fill="#ece1d7">→ cursor::emitter_ack_lsn</text>
</g>
<!-- closew&#45;&gt;ack -->
<g id="edge19" class="edge">
<title>closew&#45;&gt;ack</title>
<path fill="none" stroke="#b380b0" stroke-dasharray="1,5" d="M108.26,-674.12C105.67,-668.41 103.39,-662.34 102,-656.38 97.39,-636.67 97.83,-613.95 99.45,-596.01"/>
<polygon fill="#b380b0" stroke="#b380b0" points="102.23,-596.34 100.29,-588.09 96.66,-595.75 102.23,-596.34"/>
<text xml:space="preserve" text-anchor="middle" x="130.5" y="-647.83" font-family="Helvetica,sans-Serif" font-size="9.00" fill="#ece1d7">advance ack</text>
</g>
<!-- trunc&#45;&gt;chrows -->
<g id="edge16" class="edge">
<title>trunc&#45;&gt;chrows</title>
<path fill="none" stroke="#bf8c5f" stroke-dasharray="5,2" d="M352,-1380.29C352,-1357.94 352,-1322.66 352,-1292.12 352,-1292.12 352,-1292.12 352,-702.88 352,-672.31 343.29,-639.25 334.21,-613.09"/>
<polygon fill="#bf8c5f" stroke="#bf8c5f" points="336.85,-612.15 331.51,-605.57 331.58,-614.05 336.85,-612.15"/>
<text xml:space="preserve" text-anchor="middle" x="375.62" y="-981.08" font-family="Helvetica,sans-Serif" font-size="9.00" fill="#ece1d7">TRUNCATE</text>
</g>
<!-- apply -->
<g id="node14" class="node">
<title>apply</title>
<path fill="#5d4628" stroke="#6e6963" d="M677.5,-1320.62C677.5,-1320.62 472.5,-1320.62 472.5,-1320.62 466.5,-1320.62 460.5,-1314.62 460.5,-1308.62 460.5,-1308.62 460.5,-1273.62 460.5,-1273.62 460.5,-1267.62 466.5,-1261.62 472.5,-1261.62 472.5,-1261.62 677.5,-1261.62 677.5,-1261.62 683.5,-1261.62 689.5,-1267.62 689.5,-1273.62 689.5,-1273.62 689.5,-1308.62 689.5,-1308.62 689.5,-1314.62 683.5,-1320.62 677.5,-1320.62"/>
<text xml:space="preserve" text-anchor="middle" x="575" y="-1307.12" font-family="Helvetica,sans-Serif" font-size="10.00" fill="#ece1d7">DdlApplicator::apply</text>
<text xml:space="preserve" text-anchor="middle" x="575" y="-1294.38" font-family="Helvetica,sans-Serif" font-size="10.00" fill="#ece1d7">Added &#160;→ CREATE TABLE IF NOT EXISTS</text>
<text xml:space="preserve" text-anchor="middle" x="575" y="-1281.62" font-family="Helvetica,sans-Serif" font-size="10.00" fill="#ece1d7">Changed → RENAME / ADD / DROP COLUMN</text>
<text xml:space="preserve" text-anchor="middle" x="575" y="-1268.88" font-family="Helvetica,sans-Serif" font-size="10.00" fill="#ece1d7">Dropped → DropTableStrategy</text>
</g>
<!-- dispatch&#45;&gt;apply -->
<g id="edge9" class="edge">
<title>dispatch&#45;&gt;apply</title>
<path fill="none" stroke="#c1a78e" d="M560.02,-1367.44C562.41,-1355.45 565.08,-1342.01 567.5,-1329.84"/>
<polygon fill="#c1a78e" stroke="#c1a78e" points="570.18,-1330.7 569,-1322.3 564.69,-1329.6 570.18,-1330.7"/>
</g>
<!-- bridge -->
<g id="node13" class="node">
<title>bridge</title>
<path fill="#5d4628" stroke="#6e6963" d="M805.25,-1433.25C805.25,-1433.25 682.75,-1433.25 682.75,-1433.25 676.75,-1433.25 670.75,-1427.25 670.75,-1421.25 670.75,-1421.25 670.75,-1386.25 670.75,-1386.25 670.75,-1380.25 676.75,-1374.25 682.75,-1374.25 682.75,-1374.25 805.25,-1374.25 805.25,-1374.25 811.25,-1374.25 817.25,-1380.25 817.25,-1386.25 817.25,-1386.25 817.25,-1421.25 817.25,-1421.25 817.25,-1427.25 811.25,-1433.25 805.25,-1433.25"/>
<text xml:space="preserve" text-anchor="middle" x="744" y="-1419.75" font-family="Helvetica,sans-Serif" font-size="10.00" fill="#ece1d7">type_bridge::map</text>
<text xml:space="preserve" text-anchor="middle" x="744" y="-1407" font-family="Helvetica,sans-Serif" font-size="10.00" fill="#ece1d7">RelAttr → ResolvedColumn</text>
<text xml:space="preserve" text-anchor="middle" x="744" y="-1394.25" font-family="Helvetica,sans-Serif" font-size="10.00" fill="#ece1d7">(reject widen,</text>
<text xml:space="preserve" text-anchor="middle" x="744" y="-1381.5" font-family="Helvetica,sans-Serif" font-size="10.00" fill="#ece1d7"> pk strips Nullable)</text>
</g>
<!-- bridge&#45;&gt;apply -->
<g id="edge11" class="edge">
<title>bridge&#45;&gt;apply</title>
<path fill="none" stroke="#c1a78e" stroke-dasharray="5,2" d="M700.04,-1373.97C677.63,-1359.31 650.24,-1341.38 626.81,-1326.04"/>
<polygon fill="#c1a78e" stroke="#c1a78e" points="628.53,-1323.82 620.3,-1321.78 625.46,-1328.5 628.53,-1323.82"/>
<text xml:space="preserve" text-anchor="middle" x="689.12" y="-1341.33" font-family="Helvetica,sans-Serif" font-size="9.00" fill="#ece1d7">resolve types</text>
</g>
<!-- ddlsql -->
<g id="node15" class="node">
<title>ddlsql</title>
<path fill="#5d4628" stroke="#6e6963" d="M604.12,-1211.88C604.12,-1211.88 495.88,-1211.88 495.88,-1211.88 489.88,-1211.88 483.88,-1205.88 483.88,-1199.88 483.88,-1199.88 483.88,-1164.88 483.88,-1164.88 483.88,-1158.88 489.88,-1152.88 495.88,-1152.88 495.88,-1152.88 604.12,-1152.88 604.12,-1152.88 610.12,-1152.88 616.12,-1158.88 616.12,-1164.88 616.12,-1164.88 616.12,-1199.88 616.12,-1199.88 616.12,-1205.88 610.12,-1211.88 604.12,-1211.88"/>
<text xml:space="preserve" text-anchor="middle" x="550" y="-1198.38" font-family="Helvetica,sans-Serif" font-size="10.00" fill="#ece1d7">send_query(DDL SQL)</text>
<text xml:space="preserve" text-anchor="middle" x="550" y="-1185.62" font-family="Helvetica,sans-Serif" font-size="10.00" fill="#ece1d7">+ drain to EndOfStream</text>
<text xml:space="preserve" text-anchor="middle" x="550" y="-1172.88" font-family="Helvetica,sans-Serif" font-size="10.00" fill="#ece1d7">(per&#45;statement,</text>
<text xml:space="preserve" text-anchor="middle" x="550" y="-1160.12" font-family="Helvetica,sans-Serif" font-size="10.00" fill="#ece1d7"> no held&#45;open)</text>
</g>
<!-- apply&#45;&gt;ddlsql -->
<g id="edge10" class="edge">
<title>apply&#45;&gt;ddlsql</title>
<path fill="none" stroke="#c1a78e" d="M568.23,-1261.24C565.37,-1249.01 562,-1234.6 558.93,-1221.52"/>
<polygon fill="#c1a78e" stroke="#c1a78e" points="561.67,-1220.91 557.12,-1213.76 556.21,-1222.19 561.67,-1220.91"/>
</g>
<!-- ddlsql&#45;&gt;route -->
<g id="edge18" class="edge">
<title>ddlsql&#45;&gt;route</title>
<path fill="none" stroke="#b380b0" stroke-dasharray="1,5" d="M616.4,-1201.88C647.61,-1213.93 682.59,-1232.89 704,-1261.62 795.7,-1384.72 733.99,-1333.25 718,-1349.88 700.08,-1368.51 278.64,-1364.58 253,-1367.88 224.46,-1371.55 193.47,-1377.86 166.55,-1384.12"/>
<polygon fill="#b380b0" stroke="#b380b0" points="166.21,-1381.32 159.07,-1385.89 167.49,-1386.77 166.21,-1381.32"/>
<text xml:space="preserve" text-anchor="middle" x="806.47" y="-1299.45" font-family="Helvetica,sans-Serif" font-size="9.00" fill="#ece1d7">await_ready</text>
<text xml:space="preserve" text-anchor="middle" x="806.47" y="-1288.2" font-family="Helvetica,sans-Serif" font-size="9.00" fill="#ece1d7">next route rebuilds</text>
<text xml:space="preserve" text-anchor="middle" x="806.47" y="-1276.95" font-family="Helvetica,sans-Serif" font-size="9.00" fill="#ece1d7">TablePlan off post&#45;DDL desc</text>
</g>
<!-- chddl -->
<g id="node17" class="node">
<title>chddl</title>
<path fill="#4d4128" stroke="#6e6963" d="M535.5,-596.5C535.5,-600.57 508.38,-603.88 475,-603.88 441.62,-603.88 414.5,-600.57 414.5,-596.5 414.5,-596.5 414.5,-530.12 414.5,-530.12 414.5,-526.06 441.62,-522.75 475,-522.75 508.38,-522.75 535.5,-526.06 535.5,-530.12 535.5,-530.12 535.5,-596.5 535.5,-596.5"/>
<path fill="none" stroke="#6e6963" d="M535.5,-596.5C535.5,-592.43 508.38,-589.12 475,-589.12 441.62,-589.12 414.5,-592.43 414.5,-596.5"/>
<text xml:space="preserve" text-anchor="middle" x="475" y="-579.31" font-family="Helvetica,sans-Serif" font-size="10.00" fill="#ece1d7">CH TCP #2</text>
<text xml:space="preserve" text-anchor="middle" x="475" y="-566.56" font-family="Helvetica,sans-Serif" font-size="10.00" fill="#ece1d7">clickhouse&#45;c&#45;rs Client</text>
<text xml:space="preserve" text-anchor="middle" x="475" y="-553.81" font-family="Helvetica,sans-Serif" font-size="10.00" fill="#ece1d7">ALTER / CREATE /</text>
<text xml:space="preserve" text-anchor="middle" x="475" y="-541.06" font-family="Helvetica,sans-Serif" font-size="10.00" fill="#ece1d7"> DROP / TRUNCATE</text>
</g>
<!-- ddlsql&#45;&gt;chddl -->
<g id="edge17" class="edge">
<title>ddlsql&#45;&gt;chddl</title>
<path fill="none" stroke="#bf8c5f" stroke-width="2" stroke-dasharray="5,2" d="M525.36,-1152.71C511.52,-1133.67 497,-1107.41 497,-1081 497,-1081 497,-1081 497,-702.88 497,-673.57 492.14,-641.21 486.99,-615.13"/>
<polygon fill="#bf8c5f" stroke="#bf8c5f" stroke-width="2" points="489.74,-614.6 485.39,-607.33 484.26,-615.73 489.74,-614.6"/>
<text xml:space="preserve" text-anchor="middle" x="526.62" y="-895.83" font-family="Helvetica,sans-Serif" font-size="9.00" fill="#ece1d7">DDL SQL</text>
<text xml:space="preserve" text-anchor="middle" x="526.62" y="-884.58" font-family="Helvetica,sans-Serif" font-size="9.00" fill="#ece1d7">(second TCP)</text>
</g>
<!-- legend -->
<g id="node19" class="node">
<title>legend</title>
<path fill="#6e6963" stroke="none" d="M602.12,-485.75C602.12,-485.75 185.88,-485.75 185.88,-485.75 179.88,-485.75 173.88,-479.75 173.88,-473.75 173.88,-473.75 173.88,-12 173.88,-12 173.88,-6 179.88,0 185.88,0 185.88,0 602.12,0 602.12,0 608.12,0 614.12,-6 614.12,-12 614.12,-12 614.12,-473.75 614.12,-473.75 614.12,-479.75 608.12,-485.75 602.12,-485.75"/>
<polygon fill="#34302c" stroke="none" points="181.88,-459 181.88,-481.75 606.12,-481.75 606.12,-459 181.88,-459"/>
<polygon fill="none" stroke="#6e6963" points="181.88,-459 181.88,-481.75 606.12,-481.75 606.12,-459 181.88,-459"/>
<text xml:space="preserve" text-anchor="start" x="350.88" y="-468.25" font-family="Helvetica,sans-Serif" font-weight="bold" font-size="10.00" fill="#ece1d7">node fill — role</text>
<polygon fill="#4d4128" stroke="none" points="181.88,-436.25 181.88,-459 296.12,-459 296.12,-436.25 181.88,-436.25"/>
<polygon fill="none" stroke="#6e6963" points="181.88,-436.25 181.88,-459 296.12,-459 296.12,-436.25 181.88,-436.25"/>
<polygon fill="none" stroke="#6e6963" points="296.12,-436.25 296.12,-459 606.12,-459 606.12,-436.25 296.12,-436.25"/>
<text xml:space="preserve" text-anchor="start" x="378.75" y="-444.25" font-family="Helvetica,sans-Serif" font-size="10.00" fill="#ece1d7">xact&#45;buffer drain / ClickHouse</text>
<polygon fill="#4d4d28" stroke="none" points="181.88,-413.5 181.88,-436.25 296.12,-436.25 296.12,-413.5 181.88,-413.5"/>
<polygon fill="none" stroke="#6e6963" points="181.88,-413.5 181.88,-436.25 296.12,-436.25 296.12,-413.5 181.88,-413.5"/>
<polygon fill="none" stroke="#6e6963" points="296.12,-413.5 296.12,-436.25 606.12,-436.25 606.12,-413.5 296.12,-413.5"/>
<text xml:space="preserve" text-anchor="start" x="370.5" y="-421.5" font-family="Helvetica,sans-Serif" font-size="10.00" fill="#ece1d7">ShadowCatalog schema&#45;event tx</text>
<polygon fill="#5d4628" stroke="none" points="181.88,-390.75 181.88,-413.5 296.12,-413.5 296.12,-390.75 181.88,-390.75"/>
<polygon fill="none" stroke="#6e6963" points="181.88,-390.75 181.88,-413.5 296.12,-413.5 296.12,-390.75 181.88,-390.75"/>
<polygon fill="none" stroke="#6e6963" points="296.12,-390.75 296.12,-413.5 606.12,-413.5 606.12,-390.75 296.12,-390.75"/>
<text xml:space="preserve" text-anchor="start" x="355.5" y="-398.75" font-family="Helvetica,sans-Serif" font-size="10.00" fill="#ece1d7">walshadow CH emitter + DdlApplicator</text>
<polygon fill="#4d3a28" stroke="none" points="181.88,-368 181.88,-390.75 296.12,-390.75 296.12,-368 181.88,-368"/>
<polygon fill="none" stroke="#6e6963" points="181.88,-368 181.88,-390.75 296.12,-390.75 296.12,-368 181.88,-368"/>
<polygon fill="none" stroke="#6e6963" points="296.12,-368 296.12,-390.75 606.12,-390.75 606.12,-368 296.12,-368"/>
<text xml:space="preserve" text-anchor="start" x="390.38" y="-376" font-family="Helvetica,sans-Serif" font-size="10.00" fill="#ece1d7">cursor / ack side&#45;channel</text>
<polygon fill="#34302c" stroke="none" points="181.88,-345.25 181.88,-368 606.12,-368 606.12,-345.25 181.88,-345.25"/>
<polygon fill="none" stroke="#6e6963" points="181.88,-345.25 181.88,-368 606.12,-368 606.12,-345.25 181.88,-345.25"/>
<text xml:space="preserve" text-anchor="start" x="364" y="-354.5" font-family="Helvetica,sans-Serif" font-weight="bold" font-size="10.00" fill="#ece1d7">edge style</text>
<polygon fill="none" stroke="#6e6963" points="181.88,-322.5 181.88,-345.25 296.12,-345.25 296.12,-322.5 181.88,-322.5"/>
<text xml:space="preserve" text-anchor="start" x="233" y="-331.75" font-family="Helvetica,sans-Serif" font-weight="bold" font-size="10.00" fill="#bf8c5f">━━</text>
<polygon fill="none" stroke="#6e6963" points="296.12,-322.5 296.12,-345.25 606.12,-345.25 606.12,-322.5 296.12,-322.5"/>
<text xml:space="preserve" text-anchor="start" x="375.75" y="-330.5" font-family="Helvetica,sans-Serif" font-size="10.00" fill="#ece1d7">CH Native rows (TCP #1, solid)</text>
<polygon fill="none" stroke="#6e6963" points="181.88,-299.75 181.88,-322.5 296.12,-322.5 296.12,-299.75 181.88,-299.75"/>
<text xml:space="preserve" text-anchor="start" x="233" y="-309" font-family="Helvetica,sans-Serif" font-weight="bold" font-size="10.00" fill="#bf8c5f">┄┄</text>
<polygon fill="none" stroke="#6e6963" points="296.12,-299.75 296.12,-322.5 606.12,-322.5 606.12,-299.75 296.12,-299.75"/>
<text xml:space="preserve" text-anchor="start" x="378" y="-307.75" font-family="Helvetica,sans-Serif" font-size="10.00" fill="#ece1d7">CH DDL SQL (TCP #2, dashed)</text>
<polygon fill="none" stroke="#6e6963" points="181.88,-277 181.88,-299.75 296.12,-299.75 296.12,-277 181.88,-277"/>
<text xml:space="preserve" text-anchor="start" x="233" y="-286.25" font-family="Helvetica,sans-Serif" font-weight="bold" font-size="10.00" fill="#cba85e">┄┄</text>
<polygon fill="none" stroke="#6e6963" points="296.12,-277 296.12,-299.75 606.12,-299.75 606.12,-277 296.12,-277"/>
<text xml:space="preserve" text-anchor="start" x="370.5" y="-285" font-family="Helvetica,sans-Serif" font-size="10.00" fill="#ece1d7">SchemaEvent off ShadowCatalog</text>
<polygon fill="none" stroke="#6e6963" points="181.88,-254.25 181.88,-277 296.12,-277 296.12,-254.25 181.88,-254.25"/>
<text xml:space="preserve" text-anchor="start" x="233.38" y="-263.5" font-family="Helvetica,sans-Serif" font-weight="bold" font-size="10.00" fill="#b380b0">···</text>
<polygon fill="none" stroke="#6e6963" points="296.12,-254.25 296.12,-277 606.12,-277 606.12,-254.25 296.12,-254.25"/>
<text xml:space="preserve" text-anchor="start" x="384.38" y="-262.25" font-family="Helvetica,sans-Serif" font-size="10.00" fill="#ece1d7">await_ready gate / ack&#45;LSN</text>
<polygon fill="#34302c" stroke="none" points="181.88,-231.5 181.88,-254.25 606.12,-254.25 606.12,-231.5 181.88,-231.5"/>
<polygon fill="none" stroke="#6e6963" points="181.88,-231.5 181.88,-254.25 606.12,-254.25 606.12,-231.5 181.88,-231.5"/>
<text xml:space="preserve" text-anchor="start" x="289.75" y="-240.75" font-family="Helvetica,sans-Serif" font-weight="bold" font-size="10.00" fill="#ece1d7">synthetic columns (every dest table)</text>
<polygon fill="none" stroke="#6e6963" points="181.88,-208.75 181.88,-231.5 296.12,-231.5 296.12,-208.75 181.88,-208.75"/>
<text xml:space="preserve" text-anchor="start" x="228.5" y="-216.75" font-family="monospace" font-size="10.00" fill="#ece1d7">_lsn</text>
<polygon fill="none" stroke="#6e6963" points="296.12,-208.75 296.12,-231.5 606.12,-231.5 606.12,-208.75 296.12,-208.75"/>
<text xml:space="preserve" text-anchor="start" x="319.5" y="-216.75" font-family="Helvetica,sans-Serif" font-size="10.00" fill="#ece1d7">UInt64 — commit_lsn; ReplacingMergeTree dedup key</text>
<polygon fill="none" stroke="#6e6963" points="181.88,-186 181.88,-208.75 296.12,-208.75 296.12,-186 181.88,-186"/>
<text xml:space="preserve" text-anchor="start" x="228.5" y="-194" font-family="monospace" font-size="10.00" fill="#ece1d7">_xid</text>
<polygon fill="none" stroke="#6e6963" points="296.12,-186 296.12,-208.75 606.12,-208.75 606.12,-186 296.12,-186"/>
<text xml:space="preserve" text-anchor="start" x="341.62" y="-194" font-family="Helvetica,sans-Serif" font-size="10.00" fill="#ece1d7">UInt32 — source xid; recovers xact boundary</text>
<polygon fill="none" stroke="#6e6963" points="181.88,-163.25 181.88,-186 296.12,-186 296.12,-163.25 181.88,-163.25"/>
<text xml:space="preserve" text-anchor="start" x="231.12" y="-171.25" font-family="monospace" font-size="10.00" fill="#ece1d7">_op</text>
<polygon fill="none" stroke="#6e6963" points="296.12,-163.25 296.12,-186 606.12,-186 606.12,-163.25 296.12,-163.25"/>
<text xml:space="preserve" text-anchor="start" x="311.25" y="-171.25" font-family="Helvetica,sans-Serif" font-size="10.00" fill="#ece1d7">Enum8(insert=1, update=2, delete=3); HOT_UPDATE → 2</text>
<polygon fill="none" stroke="#6e6963" points="181.88,-140.5 181.88,-163.25 296.12,-163.25 296.12,-140.5 181.88,-140.5"/>
<text xml:space="preserve" text-anchor="start" x="212.75" y="-148.5" font-family="monospace" font-size="10.00" fill="#ece1d7">_commit_ts</text>
<polygon fill="none" stroke="#6e6963" points="296.12,-140.5 296.12,-163.25 606.12,-163.25 606.12,-140.5 296.12,-140.5"/>
<text xml:space="preserve" text-anchor="start" x="301.12" y="-148.5" font-family="Helvetica,sans-Serif" font-size="10.00" fill="#ece1d7">DateTime64(6, &#39;UTC&#39;); xl_xact_commit shifted from PG epoch</text>
<polygon fill="#34302c" stroke="none" points="181.88,-117.75 181.88,-140.5 606.12,-140.5 606.12,-117.75 181.88,-117.75"/>
<polygon fill="none" stroke="#6e6963" points="181.88,-117.75 181.88,-140.5 606.12,-140.5 606.12,-117.75 181.88,-117.75"/>
<text xml:space="preserve" text-anchor="start" x="355.38" y="-127" font-family="Helvetica,sans-Serif" font-weight="bold" font-size="10.00" fill="#ece1d7">flush triggers</text>
<polygon fill="none" stroke="#6e6963" points="181.88,-95 181.88,-117.75 296.12,-117.75 296.12,-95 181.88,-95"/>
<text xml:space="preserve" text-anchor="start" x="210.5" y="-103" font-family="Helvetica,sans-Serif" font-size="10.00" fill="#ece1d7">row_budget</text>
<polygon fill="none" stroke="#6e6963" points="296.12,-95 296.12,-117.75 606.12,-117.75 606.12,-95 296.12,-95"/>
<text xml:space="preserve" text-anchor="start" x="407.25" y="-103" font-family="Helvetica,sans-Serif" font-size="10.00" fill="#ece1d7">enc.rows ≥ 65536</text>
<polygon fill="none" stroke="#6e6963" points="181.88,-72.25 181.88,-95 296.12,-95 296.12,-72.25 181.88,-72.25"/>
<text xml:space="preserve" text-anchor="start" x="208.62" y="-80.25" font-family="Helvetica,sans-Serif" font-size="10.00" fill="#ece1d7">byte_budget</text>
<polygon fill="none" stroke="#6e6963" points="296.12,-72.25 296.12,-95 606.12,-95 606.12,-72.25 296.12,-72.25"/>
<text xml:space="preserve" text-anchor="start" x="387" y="-80.25" font-family="Helvetica,sans-Serif" font-size="10.00" fill="#ece1d7">enc.approx_bytes ≥ 1 MiB</text>
<polygon fill="none" stroke="#6e6963" points="181.88,-49.5 181.88,-72.25 296.12,-72.25 296.12,-49.5 181.88,-49.5"/>
<text xml:space="preserve" text-anchor="start" x="218" y="-57.5" font-family="Helvetica,sans-Serif" font-size="10.00" fill="#ece1d7">deadline</text>
<polygon fill="none" stroke="#6e6963" points="296.12,-49.5 296.12,-72.25 606.12,-72.25 606.12,-49.5 296.12,-49.5"/>
<text xml:space="preserve" text-anchor="start" x="361.5" y="-57.5" font-family="Helvetica,sans-Serif" font-size="10.00" fill="#ece1d7">flush_timeout elapsed since first row</text>
<polygon fill="none" stroke="#6e6963" points="181.88,-26.75 181.88,-49.5 296.12,-49.5 296.12,-26.75 181.88,-26.75"/>
<text xml:space="preserve" text-anchor="start" x="204.5" y="-34.75" font-family="Helvetica,sans-Serif" font-size="10.00" fill="#ece1d7">schema event</text>
<polygon fill="none" stroke="#6e6963" points="296.12,-26.75 296.12,-49.5 606.12,-49.5 606.12,-26.75 296.12,-26.75"/>
<text xml:space="preserve" text-anchor="start" x="366.75" y="-34.75" font-family="Helvetica,sans-Serif" font-size="10.00" fill="#ece1d7">surgical close on affected key only</text>
<polygon fill="none" stroke="#6e6963" points="181.88,-4 181.88,-26.75 296.12,-26.75 296.12,-4 181.88,-4"/>
<text xml:space="preserve" text-anchor="start" x="186.88" y="-12" font-family="Helvetica,sans-Serif" font-size="10.00" fill="#ece1d7">TRUNCATE / on_close</text>
<polygon fill="none" stroke="#6e6963" points="296.12,-4 296.12,-26.75 606.12,-26.75 606.12,-4 296.12,-4"/>
<text xml:space="preserve" text-anchor="start" x="409.5" y="-12" font-family="Helvetica,sans-Serif" font-size="10.00" fill="#ece1d7">full close + drain</text>
</g>
<!-- chrows&#45;&gt;legend -->
<!-- chddl&#45;&gt;legend -->
</g>
</svg>
