<?xml version="1.0" encoding="UTF-8" standalone="no"?>
<!DOCTYPE svg PUBLIC "-//W3C//DTD SVG 1.1//EN"
 "http://www.w3.org/Graphics/SVG/1.1/DTD/svg11.dtd">
<!-- Generated by graphviz version 15.1.0 (20260618.0150)
 -->
<!-- Title: emitter Pages: 1 -->
<svg width="1525pt" height="1714pt"
 viewBox="0.00 0.00 1525.00 1714.00" xmlns="http://www.w3.org/2000/svg" xmlns:xlink="http://www.w3.org/1999/xlink">
<g id="graph0" class="graph" transform="scale(1 1) rotate(0) translate(4 1710.12)">
<title>emitter</title>
<polygon fill="#272623" stroke="none" points="-4,4 -4,-1710.12 1520.91,-1710.12 1520.91,4 -4,4"/>
<text xml:space="preserve" text-anchor="middle" x="758.46" y="-1688.83" font-family="Helvetica,sans-Serif" font-size="14.00" fill="#ece1d7">walshadow CH emitter — parallel pipeline: reorder → decode ×M → batcher → inserter ×N → ack watermark</text>
<g id="clust1" class="cluster">
<title>cluster_src</title>
<path fill="#34302c" stroke="#4c4641" d="M249.62,-1357.88C249.62,-1357.88 995.62,-1357.88 995.62,-1357.88 1001.62,-1357.88 1007.62,-1363.88 1007.62,-1369.88 1007.62,-1369.88 1007.62,-1660.88 1007.62,-1660.88 1007.62,-1666.88 1001.62,-1672.88 995.62,-1672.88 995.62,-1672.88 249.62,-1672.88 249.62,-1672.88 243.62,-1672.88 237.62,-1666.88 237.62,-1660.88 237.62,-1660.88 237.62,-1369.88 237.62,-1369.88 237.62,-1363.88 243.62,-1357.88 249.62,-1357.88"/>
<text xml:space="preserve" text-anchor="middle" x="622.62" y="-1655.58" font-family="Helvetica,sans-Serif" font-size="14.00" fill="#ece1d7">reorder coordinator — single&#45;threaded commit order &#160;(pipeline/reorder.rs, inner sink of QueueingRecordSink)</text>
</g>
<g id="clust2" class="cluster">
<title>cluster_decode</title>
<path fill="#34302c" stroke="#4c4641" d="M657.62,-1204.38C657.62,-1204.38 909.62,-1204.38 909.62,-1204.38 915.62,-1204.38 921.62,-1210.38 921.62,-1216.38 921.62,-1216.38 921.62,-1305.38 921.62,-1305.38 921.62,-1311.38 915.62,-1317.38 909.62,-1317.38 909.62,-1317.38 657.62,-1317.38 657.62,-1317.38 651.62,-1317.38 645.62,-1311.38 645.62,-1305.38 645.62,-1305.38 645.62,-1216.38 645.62,-1216.38 645.62,-1210.38 651.62,-1204.38 657.62,-1204.38"/>
<text xml:space="preserve" text-anchor="middle" x="783.62" y="-1300.08" font-family="Helvetica,sans-Serif" font-size="14.00" fill="#ece1d7">decode pool ×M &#160;(pipeline/decode.rs)</text>
</g>
<g id="clust3" class="cluster">
<title>cluster_batch</title>
<path fill="#34302c" stroke="#4c4641" d="M748.62,-765.62C748.62,-765.62 1247.62,-765.62 1247.62,-765.62 1253.62,-765.62 1259.62,-771.62 1259.62,-777.62 1259.62,-777.62 1259.62,-1140.62 1259.62,-1140.62 1259.62,-1146.62 1253.62,-1152.62 1247.62,-1152.62 1247.62,-1152.62 748.62,-1152.62 748.62,-1152.62 742.62,-1152.62 736.62,-1146.62 736.62,-1140.62 736.62,-1140.62 736.62,-777.62 736.62,-777.62 736.62,-771.62 742.62,-765.62 748.62,-765.62"/>
<text xml:space="preserve" text-anchor="middle" x="998.12" y="-1135.33" font-family="Helvetica,sans-Serif" font-size="14.00" fill="#ece1d7">InsertBatcher — single hub, per&#45;table accumulation &#160;(pipeline/batcher.rs)</text>
</g>
<g id="clust4" class="cluster">
<title>cluster_insert</title>
<path fill="#34302c" stroke="#4c4641" d="M807.62,-586.62C807.62,-586.62 1063.62,-586.62 1063.62,-586.62 1069.62,-586.62 1075.62,-592.62 1075.62,-598.62 1075.62,-598.62 1075.62,-700.38 1075.62,-700.38 1075.62,-706.38 1069.62,-712.38 1063.62,-712.38 1063.62,-712.38 807.62,-712.38 807.62,-712.38 801.62,-712.38 795.62,-706.38 795.62,-700.38 795.62,-700.38 795.62,-598.62 795.62,-598.62 795.62,-592.62 801.62,-586.62 807.62,-586.62"/>
<text xml:space="preserve" text-anchor="middle" x="935.62" y="-695.08" font-family="Helvetica,sans-Serif" font-size="14.00" fill="#ece1d7">inserter pool ×N &#160;(pipeline/inserter.rs)</text>
</g>
<g id="clust5" class="cluster">
<title>cluster_ddl</title>
<path fill="#34302c" stroke="#4c4641" d="M122.62,-752.88C122.62,-752.88 506.62,-752.88 506.62,-752.88 512.62,-752.88 518.62,-758.88 518.62,-764.88 518.62,-764.88 518.62,-1002.38 518.62,-1002.38 518.62,-1008.38 512.62,-1014.38 506.62,-1014.38 506.62,-1014.38 122.62,-1014.38 122.62,-1014.38 116.62,-1014.38 110.62,-1008.38 110.62,-1002.38 110.62,-1002.38 110.62,-764.88 110.62,-764.88 110.62,-758.88 116.62,-752.88 122.62,-752.88"/>
<text xml:space="preserve" text-anchor="middle" x="314.62" y="-997.08" font-family="Helvetica,sans-Serif" font-size="14.00" fill="#ece1d7">ordered control barriers — DDL / config / TOAST lifecycle</text>
</g>
<g id="clust6" class="cluster">
<title>cluster_ch</title>
<path fill="#34302c" stroke="#4c4641" d="M158.62,-423.75C158.62,-423.75 736.62,-423.75 736.62,-423.75 742.62,-423.75 748.62,-429.75 748.62,-435.75 748.62,-435.75 748.62,-534.12 748.62,-534.12 748.62,-540.12 742.62,-546.12 736.62,-546.12 736.62,-546.12 158.62,-546.12 158.62,-546.12 152.62,-546.12 146.62,-540.12 146.62,-534.12 146.62,-534.12 146.62,-435.75 146.62,-435.75 146.62,-429.75 152.62,-423.75 158.62,-423.75"/>
<text xml:space="preserve" text-anchor="middle" x="447.62" y="-528.83" font-family="Helvetica,sans-Serif" font-size="14.00" fill="#ece1d7">ClickHouse — main insert pool + DDL + TOAST store connections</text>
</g>
<!-- reorder -->
<g id="node1" class="node">
<title>reorder</title>
<path fill="#4d4128" stroke="#6e6963" d="M669.88,-1437.62C669.88,-1437.62 433.38,-1437.62 433.38,-1437.62 427.38,-1437.62 421.38,-1431.62 421.38,-1425.62 421.38,-1425.62 421.38,-1377.88 421.38,-1377.88 421.38,-1371.88 427.38,-1365.88 433.38,-1365.88 433.38,-1365.88 669.88,-1365.88 669.88,-1365.88 675.88,-1365.88 681.88,-1371.88 681.88,-1377.88 681.88,-1377.88 681.88,-1425.62 681.88,-1425.62 681.88,-1431.62 675.88,-1437.62 669.88,-1437.62"/>
<text xml:space="preserve" text-anchor="middle" x="551.62" y="-1424.12" font-family="Helvetica,sans-Serif" font-size="10.00" fill="#ece1d7">ReorderSink::on_record (RM_XACT only)</text>
<text xml:space="preserve" text-anchor="middle" x="551.62" y="-1411.38" font-family="Helvetica,sans-Serif" font-size="10.00" fill="#ece1d7">COMMIT → CommittedDrain / DrainedBatch</text>
<text xml:space="preserve" text-anchor="middle" x="551.62" y="-1398.62" font-family="Helvetica,sans-Serif" font-size="10.00" fill="#ece1d7">ABORT / empty commit → rows=0 seq</text>
<text xml:space="preserve" text-anchor="middle" x="551.62" y="-1385.88" font-family="Helvetica,sans-Serif" font-size="10.00" fill="#ece1d7">barrier: Catalog / Config / ToastBarrier / TRUNCATE</text>
<text xml:space="preserve" text-anchor="middle" x="551.62" y="-1373.12" font-family="Helvetica,sans-Serif" font-size="10.00" fill="#ece1d7">put new_rows through sealed row/event cursors</text>
</g>
<!-- decode -->
<g id="node3" class="node">
<title>decode</title>
<path fill="#4d4128" stroke="#6e6963" d="M870.38,-1284.12C870.38,-1284.12 672.88,-1284.12 672.88,-1284.12 666.88,-1284.12 660.88,-1278.12 660.88,-1272.12 660.88,-1272.12 660.88,-1224.38 660.88,-1224.38 660.88,-1218.38 666.88,-1212.38 672.88,-1212.38 672.88,-1212.38 870.38,-1212.38 870.38,-1212.38 876.38,-1212.38 882.38,-1218.38 882.38,-1224.38 882.38,-1224.38 882.38,-1272.12 882.38,-1272.12 882.38,-1278.12 876.38,-1284.12 870.38,-1284.12"/>
<text xml:space="preserve" text-anchor="middle" x="771.62" y="-1270.62" font-family="Helvetica,sans-Serif" font-size="10.00" fill="#ece1d7">decode worker ×M</text>
<text xml:space="preserve" text-anchor="middle" x="771.62" y="-1257.88" font-family="Helvetica,sans-Serif" font-size="10.00" fill="#ece1d7">detoast: ChunkMap, then store as&#45;of fetch</text>
<text xml:space="preserve" text-anchor="middle" x="771.62" y="-1245.12" font-family="Helvetica,sans-Serif" font-size="10.00" fill="#ece1d7">resolve_at_pooled; mapping</text>
<text xml:space="preserve" text-anchor="middle" x="771.62" y="-1232.38" font-family="Helvetica,sans-Serif" font-size="10.00" fill="#ece1d7">oracle PgPending + sampled validate</text>
<text xml:space="preserve" text-anchor="middle" x="771.62" y="-1219.62" font-family="Helvetica,sans-Serif" font-size="10.00" fill="#ece1d7">chunk 1024 rows / 4 MiB</text>
</g>
<!-- reorder&#45;&gt;decode -->
<g id="edge5" class="edge">
<title>reorder&#45;&gt;decode</title>
<path fill="none" stroke="#bf8c5f" stroke-width="2" d="M602.93,-1365.42C621.17,-1352.86 642.45,-1338.2 663.64,-1323.61"/>
<polygon fill="#bf8c5f" stroke="#bf8c5f" stroke-width="2" points="665.21,-1325.93 670.21,-1319.09 662.03,-1321.32 665.21,-1325.93"/>
<text xml:space="preserve" text-anchor="middle" x="699.28" y="-1339.33" font-family="Helvetica,sans-Serif" font-size="9.00" fill="#ece1d7">DecodeJob</text>
<text xml:space="preserve" text-anchor="middle" x="699.28" y="-1328.08" font-family="Helvetica,sans-Serif" font-size="9.00" fill="#ece1d7">(mpmc, bound 4M)</text>
</g>
<!-- fence -->
<g id="node8" class="node">
<title>fence</title>
<path fill="#5d4628" stroke="#6e6963" d="M482.25,-981.12C482.25,-981.12 353,-981.12 353,-981.12 347,-981.12 341,-975.12 341,-969.12 341,-969.12 341,-934.12 341,-934.12 341,-928.12 347,-922.12 353,-922.12 353,-922.12 482.25,-922.12 482.25,-922.12 488.25,-922.12 494.25,-928.12 494.25,-934.12 494.25,-934.12 494.25,-969.12 494.25,-969.12 494.25,-975.12 488.25,-981.12 482.25,-981.12"/>
<text xml:space="preserve" text-anchor="middle" x="417.62" y="-967.62" font-family="Helvetica,sans-Serif" font-size="10.00" fill="#ece1d7">barrier_fence</text>
<text xml:space="preserve" text-anchor="middle" x="417.62" y="-954.88" font-family="Helvetica,sans-Serif" font-size="10.00" fill="#ece1d7">1. wait all seqs placed</text>
<text xml:space="preserve" text-anchor="middle" x="417.62" y="-942.12" font-family="Helvetica,sans-Serif" font-size="10.00" fill="#ece1d7">2. batcher FlushAll (+ reply)</text>
<text xml:space="preserve" text-anchor="middle" x="417.62" y="-929.38" font-family="Helvetica,sans-Serif" font-size="10.00" fill="#ece1d7">3. wait all seqs durable</text>
</g>
<!-- reorder&#45;&gt;fence -->
<g id="edge13" class="edge">
<title>reorder&#45;&gt;fence</title>
<path fill="none" stroke="#bf8c5f" stroke-dasharray="5,2" d="M530.44,-1365.6C507.34,-1325.58 471.11,-1257.57 451.88,-1194.38 434.83,-1138.38 426.21,-1072.45 421.88,-1023.6"/>
<polygon fill="#bf8c5f" stroke="#bf8c5f" points="424.69,-1023.61 421.23,-1015.88 419.11,-1024.09 424.69,-1023.61"/>
<text xml:space="preserve" text-anchor="middle" x="501.75" y="-1180.2" font-family="Helvetica,sans-Serif" font-size="9.00" fill="#ece1d7">barrier xact:</text>
<text xml:space="preserve" text-anchor="middle" x="501.75" y="-1168.95" font-family="Helvetica,sans-Serif" font-size="9.00" fill="#ece1d7">per event / TRUNCATE</text>
</g>
<!-- toastput -->
<g id="node14" class="node">
<title>toastput</title>
<path fill="#4d4d28" stroke="#6e6963" d="M657.25,-1106.62C657.25,-1106.62 474,-1106.62 474,-1106.62 468,-1106.62 462,-1100.62 462,-1094.62 462,-1094.62 462,-1072.38 462,-1072.38 462,-1066.38 468,-1060.38 474,-1060.38 474,-1060.38 657.25,-1060.38 657.25,-1060.38 663.25,-1060.38 669.25,-1066.38 669.25,-1072.38 669.25,-1072.38 669.25,-1094.62 669.25,-1094.62 669.25,-1100.62 663.25,-1106.62 657.25,-1106.62"/>
<text xml:space="preserve" text-anchor="middle" x="565.62" y="-1093.12" font-family="Helvetica,sans-Serif" font-size="10.00" fill="#ece1d7">ToastResolver</text>
<text xml:space="preserve" text-anchor="middle" x="565.62" y="-1080.38" font-family="Helvetica,sans-Serif" font-size="10.00" fill="#ece1d7">put births + tombstones before publish</text>
<text xml:space="preserve" text-anchor="middle" x="565.62" y="-1067.62" font-family="Helvetica,sans-Serif" font-size="10.00" fill="#ece1d7">as&#45;of fetch for pre&#45;window values</text>
</g>
<!-- reorder&#45;&gt;toastput -->
<g id="edge9" class="edge">
<title>reorder&#45;&gt;toastput</title>
<path fill="none" stroke="#bf8c5f" stroke-dasharray="5,2" d="M552.56,-1365.62C553.66,-1326.32 555.7,-1260.77 558.38,-1204.38 559.79,-1174.54 561.89,-1140.56 563.47,-1116.41"/>
<polygon fill="#bf8c5f" stroke="#bf8c5f" points="566.25,-1116.7 563.99,-1108.54 560.67,-1116.33 566.25,-1116.7"/>
<text xml:space="preserve" text-anchor="middle" x="598.5" y="-1245.33" font-family="Helvetica,sans-Serif" font-size="9.00" fill="#ece1d7">new_rows cursors</text>
</g>
<!-- ack -->
<g id="node16" class="node">
<title>ack</title>
<polygon fill="#4d3a28" stroke="#6e6963" points="1100.38,-508.19 782.88,-508.19 782.88,-436.44 1106.38,-436.44 1106.38,-502.19 1100.38,-508.19"/>
<polyline fill="none" stroke="#6e6963" points="1100.38,-508.19 1100.38,-502.19"/>
<polyline fill="none" stroke="#6e6963" points="1106.38,-502.19 1100.38,-502.19"/>
<text xml:space="preserve" text-anchor="middle" x="944.62" y="-494.69" font-family="Helvetica,sans-Serif" font-size="10.00" fill="#ece1d7">ack collector &#160;(pipeline/ack.rs)</text>
<text xml:space="preserve" text-anchor="middle" x="944.62" y="-481.94" font-family="Helvetica,sans-Serif" font-size="10.00" fill="#ece1d7">Register(seq, commit_lsn) · Placed(seq, rows) · Acked(per_seq)</text>
<text xml:space="preserve" text-anchor="middle" x="944.62" y="-469.19" font-family="Helvetica,sans-Serif" font-size="10.00" fill="#ece1d7">seq done ⇔ placed == acked &#160;(rows=0 done at placement)</text>
<text xml:space="preserve" text-anchor="middle" x="944.62" y="-456.44" font-family="Helvetica,sans-Serif" font-size="10.00" fill="#ece1d7">watermark = highest contiguous&#45;done commit_lsn</text>
<text xml:space="preserve" text-anchor="middle" x="944.62" y="-443.69" font-family="Helvetica,sans-Serif" font-size="10.00" fill="#ece1d7">→ emitter_ack atomic → cursor + standby apply_lsn</text>
</g>
<!-- reorder&#45;&gt;ack -->
<g id="edge19" class="edge">
<title>reorder&#45;&gt;ack</title>
<path fill="none" stroke="#b380b0" stroke-dasharray="1,5" d="M682.23,-1379.41C755.03,-1365.59 846.66,-1344.99 925.62,-1317.38 1083.37,-1262.2 1144.69,-1270.03 1263.62,-1152.62 1362.08,-1055.44 1371.65,-1009.22 1403.62,-874.62 1447.02,-691.99 1210.02,-569.81 1060.28,-511.96"/>
<polygon fill="#b380b0" stroke="#b380b0" points="1061.33,-509.37 1052.86,-509.13 1059.33,-514.6 1061.33,-509.37"/>
<text xml:space="preserve" text-anchor="middle" x="1458.04" y="-948.7" font-family="Helvetica,sans-Serif" font-size="9.00" fill="#ece1d7">Register(seq, commit_lsn)</text>
</g>
<!-- cat -->
<g id="node2" class="node">
<title>cat</title>
<path fill="#4d4d28" stroke="#6e6963" d="M735.05,-1639.62C735.05,-1639.62 448.17,-1639.62 448.17,-1639.62 442.17,-1639.62 433.25,-1634.38 430.33,-1629.14 430.33,-1629.14 362.04,-1506.61 362.04,-1506.61 359.12,-1501.37 362.2,-1496.12 368.2,-1496.12 368.2,-1496.12 655.08,-1496.12 655.08,-1496.12 661.08,-1496.12 670,-1501.37 672.92,-1506.61 672.92,-1506.61 741.21,-1629.14 741.21,-1629.14 744.13,-1634.38 741.05,-1639.62 735.05,-1639.62"/>
<text xml:space="preserve" text-anchor="middle" x="551.62" y="-1590.25" font-family="Helvetica,sans-Serif" font-size="10.00" fill="#ece1d7">ShadowCatalog::subscribe</text>
<text xml:space="preserve" text-anchor="middle" x="551.62" y="-1577.5" font-family="Helvetica,sans-Serif" font-size="10.00" fill="#ece1d7">SchemaEvent</text>
<text xml:space="preserve" text-anchor="middle" x="551.62" y="-1564.75" font-family="Helvetica,sans-Serif" font-size="10.00" fill="#ece1d7">Added / Changed / Dropped</text>
<text xml:space="preserve" text-anchor="middle" x="551.62" y="-1552" font-family="Helvetica,sans-Serif" font-size="10.00" fill="#ece1d7">(unbounded mpsc, rides xact buffer</text>
<text xml:space="preserve" text-anchor="middle" x="551.62" y="-1539.25" font-family="Helvetica,sans-Serif" font-size="10.00" fill="#ece1d7"> as ordered_events)</text>
</g>
<!-- cat&#45;&gt;reorder -->
<g id="edge12" class="edge">
<title>cat&#45;&gt;reorder</title>
<path fill="none" stroke="#cba85e" stroke-dasharray="5,2" d="M551.62,-1495.84C551.62,-1479.35 551.62,-1462.26 551.62,-1447.29"/>
<polygon fill="#cba85e" stroke="#cba85e" points="554.43,-1447.3 551.63,-1439.3 548.83,-1447.3 554.43,-1447.3"/>
<text xml:space="preserve" text-anchor="middle" x="590.25" y="-1469.58" font-family="Helvetica,sans-Serif" font-size="9.00" fill="#ece1d7">SchemaEvent</text>
<text xml:space="preserve" text-anchor="middle" x="590.25" y="-1458.33" font-family="Helvetica,sans-Serif" font-size="9.00" fill="#ece1d7">drains at commit</text>
</g>
<!-- enc -->
<g id="node4" class="node">
<title>enc</title>
<polygon fill="#5d4628" stroke="#6e6963" points="995.25,-1119.38 806,-1119.38 806,-1047.62 1001.25,-1047.62 1001.25,-1113.38 995.25,-1119.38"/>
<polyline fill="none" stroke="#6e6963" points="995.25,-1119.38 995.25,-1113.38"/>
<polyline fill="none" stroke="#6e6963" points="1001.25,-1113.38 995.25,-1113.38"/>
<text xml:space="preserve" text-anchor="middle" x="903.62" y="-1105.88" font-family="Helvetica,sans-Serif" font-size="10.00" fill="#ece1d7">TableEncoder per dest table</text>
<text xml:space="preserve" text-anchor="middle" x="903.62" y="-1093.12" font-family="Helvetica,sans-Serif" font-size="10.00" fill="#ece1d7">ColumnBuf slabs: Fixed / String /</text>
<text xml:space="preserve" text-anchor="middle" x="903.62" y="-1080.38" font-family="Helvetica,sans-Serif" font-size="10.00" fill="#ece1d7">NullableFixed / NullableString</text>
<text xml:space="preserve" text-anchor="middle" x="903.62" y="-1067.62" font-family="Helvetica,sans-Serif" font-size="10.00" fill="#ece1d7">column&#45;major + synthetic</text>
<text xml:space="preserve" text-anchor="middle" x="903.62" y="-1054.88" font-family="Helvetica,sans-Serif" font-size="10.00" fill="#ece1d7">_lsn / _xid / _commit_ts / _is_deleted</text>
</g>
<!-- decode&#45;&gt;enc -->
<g id="edge6" class="edge">
<title>decode&#45;&gt;enc</title>
<path fill="none" stroke="#bf8c5f" stroke-width="2" d="M784.48,-1212.01C790.61,-1197.54 798.79,-1180.86 813.16,-1161.22"/>
<polygon fill="#bf8c5f" stroke="#bf8c5f" stroke-width="2" points="815.26,-1163.09 817.87,-1155.03 810.8,-1159.7 815.26,-1163.09"/>
<text xml:space="preserve" text-anchor="middle" x="860.38" y="-1185.83" font-family="Helvetica,sans-Serif" font-size="9.00" fill="#ece1d7">BatcherMsg::Rows</text>
<text xml:space="preserve" text-anchor="middle" x="860.38" y="-1174.58" font-family="Helvetica,sans-Serif" font-size="9.00" fill="#ece1d7">(FIFO mpsc 256 —</text>
<text xml:space="preserve" text-anchor="middle" x="860.38" y="-1163.33" font-family="Helvetica,sans-Serif" font-size="9.00" fill="#ece1d7">shared with FlushAll)</text>
</g>
<!-- decode&#45;&gt;toastput -->
<g id="edge10" class="edge">
<title>decode&#45;&gt;toastput</title>
<path fill="none" stroke="#cba85e" stroke-dasharray="5,2" d="M726.93,-1211.94C689.25,-1182.17 636.07,-1140.15 601.23,-1112.63"/>
<polygon fill="#cba85e" stroke="#cba85e" points="603.28,-1110.68 595.27,-1107.92 599.81,-1115.08 603.28,-1110.68"/>
<text xml:space="preserve" text-anchor="middle" x="710.74" y="-1174.58" font-family="Helvetica,sans-Serif" font-size="9.00" fill="#ece1d7">fetch</text>
</g>
<!-- decode&#45;&gt;ack -->
<g id="edge20" class="edge">
<title>decode&#45;&gt;ack</title>
<path fill="none" stroke="#b380b0" stroke-dasharray="1,5" d="M671.41,-1212.06C665.33,-1206.94 659.94,-1201.08 655.62,-1194.38 647.51,-1181.76 646.59,-1172.6 655.62,-1160.62 663.42,-1150.29 674.96,-1162.24 683.62,-1152.62 762.21,-1065.48 643.1,-971.9 729.62,-892.62 817.95,-811.7 1185.72,-933.72 1266.62,-845.38 1294.39,-815.06 1294.93,-782.69 1266.62,-752.88 1251.84,-737.3 1088.41,-758.45 1073.62,-742.88 1066.74,-735.62 1069.53,-729.5 1073.62,-720.38 1075.82,-715.49 1080.43,-717.26 1082.62,-712.38 1105.52,-661.39 1100.1,-639.71 1082.62,-586.62 1072.61,-556.21 1048.21,-531.89 1022.66,-513.7"/>
<polygon fill="#b380b0" stroke="#b380b0" points="1024.5,-511.56 1016.32,-509.35 1021.33,-516.18 1024.5,-511.56"/>
<text xml:space="preserve" text-anchor="middle" x="1279.6" y="-866.08" font-family="Helvetica,sans-Serif" font-size="9.00" fill="#ece1d7">Placed(seq, rows)</text>
</g>
<!-- trip -->
<g id="node5" class="node">
<title>trip</title>
<path fill="#5d4628" stroke="#6e6963" d="M940.09,-1007.33C940.09,-1007.33 756.66,-954.92 756.66,-954.92 750.89,-953.27 750.89,-949.98 756.66,-948.33 756.66,-948.33 940.09,-895.92 940.09,-895.92 945.86,-894.27 957.39,-894.27 963.16,-895.92 963.16,-895.92 1146.59,-948.33 1146.59,-948.33 1152.36,-949.98 1152.36,-953.27 1146.59,-954.92 1146.59,-954.92 963.16,-1007.33 963.16,-1007.33 957.39,-1008.98 945.86,-1008.98 940.09,-1007.33"/>
<text xml:space="preserve" text-anchor="middle" x="951.62" y="-967.62" font-family="Helvetica,sans-Serif" font-size="10.00" fill="#ece1d7">flush trigger</text>
<text xml:space="preserve" text-anchor="middle" x="951.62" y="-954.88" font-family="Helvetica,sans-Serif" font-size="10.00" fill="#ece1d7">row_budget 65536 · byte_budget 1 MiB</text>
<text xml:space="preserve" text-anchor="middle" x="951.62" y="-942.12" font-family="Helvetica,sans-Serif" font-size="10.00" fill="#ece1d7">per&#45;table deadline (flush_timeout,</text>
<text xml:space="preserve" text-anchor="middle" x="951.62" y="-929.38" font-family="Helvetica,sans-Serif" font-size="10.00" fill="#ece1d7"> 0 → 100 ms floor) · FlushAll</text>
</g>
<!-- enc&#45;&gt;trip -->
<g id="edge1" class="edge">
<title>enc&#45;&gt;trip</title>
<path fill="none" stroke="#c1a78e" d="M916.61,-1047.35C920.42,-1037.06 924.7,-1025.49 928.92,-1014.06"/>
<polygon fill="#c1a78e" stroke="#c1a78e" points="931.46,-1015.27 931.61,-1006.79 926.21,-1013.32 931.46,-1015.27"/>
</g>
<!-- seal -->
<g id="node6" class="node">
<title>seal</title>
<path fill="#5d4628" stroke="#6e6963" d="M1031.62,-832.62C1031.62,-832.62 865.62,-832.62 865.62,-832.62 859.62,-832.62 853.62,-826.62 853.62,-820.62 853.62,-820.62 853.62,-785.62 853.62,-785.62 853.62,-779.62 859.62,-773.62 865.62,-773.62 865.62,-773.62 1031.62,-773.62 1031.62,-773.62 1037.62,-773.62 1043.62,-779.62 1043.62,-785.62 1043.62,-785.62 1043.62,-820.62 1043.62,-820.62 1043.62,-826.62 1037.62,-832.62 1031.62,-832.62"/>
<text xml:space="preserve" text-anchor="middle" x="948.62" y="-819.12" font-family="Helvetica,sans-Serif" font-size="10.00" fill="#ece1d7">seal InsertBatch</text>
<text xml:space="preserve" text-anchor="middle" x="948.62" y="-806.38" font-family="Helvetica,sans-Serif" font-size="10.00" fill="#ece1d7">owned slabs + per_seq row counts</text>
<text xml:space="preserve" text-anchor="middle" x="948.62" y="-793.62" font-family="Helvetica,sans-Serif" font-size="10.00" fill="#ece1d7">FlushAll also bumps schema_epoch</text>
<text xml:space="preserve" text-anchor="middle" x="948.62" y="-780.88" font-family="Helvetica,sans-Serif" font-size="10.00" fill="#ece1d7">(rebuild plans post&#45;DDL)</text>
</g>
<!-- trip&#45;&gt;seal -->
<g id="edge2" class="edge">
<title>trip&#45;&gt;seal</title>
<path fill="none" stroke="#c1a78e" d="M950.44,-892.72C950.09,-875.77 949.72,-857.66 949.41,-842.27"/>
<polygon fill="#c1a78e" stroke="#c1a78e" points="952.21,-842.52 949.25,-834.58 946.61,-842.64 952.21,-842.52"/>
</g>
<!-- ins -->
<g id="node7" class="node">
<title>ins</title>
<path fill="#5d4628" stroke="#6e6963" d="M1040.38,-679.12C1040.38,-679.12 848.88,-679.12 848.88,-679.12 842.88,-679.12 836.88,-673.12 836.88,-667.12 836.88,-667.12 836.88,-606.62 836.88,-606.62 836.88,-600.62 842.88,-594.62 848.88,-594.62 848.88,-594.62 1040.38,-594.62 1040.38,-594.62 1046.38,-594.62 1052.38,-600.62 1052.38,-606.62 1052.38,-606.62 1052.38,-667.12 1052.38,-667.12 1052.38,-673.12 1046.38,-679.12 1040.38,-679.12"/>
<text xml:space="preserve" text-anchor="middle" x="944.62" y="-665.62" font-family="Helvetica,sans-Serif" font-size="10.00" fill="#ece1d7">inserter ×N — any idle takes any batch</text>
<text xml:space="preserve" text-anchor="middle" x="944.62" y="-652.88" font-family="Helvetica,sans-Serif" font-size="10.00" fill="#ece1d7">TypeAst cache per (table, epoch)</text>
<text xml:space="preserve" text-anchor="middle" x="944.62" y="-640.12" font-family="Helvetica,sans-Serif" font-size="10.00" fill="#ece1d7">BlockBuilder over owned slabs</text>
<text xml:space="preserve" text-anchor="middle" x="944.62" y="-627.38" font-family="Helvetica,sans-Serif" font-size="10.00" fill="#ece1d7">send_query → send_data → EndOfStream</text>
<text xml:space="preserve" text-anchor="middle" x="944.62" y="-614.62" font-family="Helvetica,sans-Serif" font-size="10.00" fill="#ece1d7">send_with_retry: reconnect + backoff,</text>
<text xml:space="preserve" text-anchor="middle" x="944.62" y="-601.88" font-family="Helvetica,sans-Serif" font-size="10.00" fill="#ece1d7">insert_timeout 30 s; exhaustion = Fatal</text>
</g>
<!-- seal&#45;&gt;ins -->
<g id="edge7" class="edge">
<title>seal&#45;&gt;ins</title>
<path fill="none" stroke="#bf8c5f" stroke-width="2" d="M947.92,-773.14C947.58,-759.03 947.14,-741.25 946.7,-723.26"/>
<polygon fill="#bf8c5f" stroke="#bf8c5f" stroke-width="2" points="949.51,-723.33 946.51,-715.4 943.91,-723.46 949.51,-723.33"/>
<text xml:space="preserve" text-anchor="middle" x="973.35" y="-734.33" font-family="Helvetica,sans-Serif" font-size="9.00" fill="#ece1d7">InsertBatch</text>
<text xml:space="preserve" text-anchor="middle" x="973.35" y="-723.08" font-family="Helvetica,sans-Serif" font-size="9.00" fill="#ece1d7">(mpmc)</text>
</g>
<!-- chrows -->
<g id="node11" class="node">
<title>chrows</title>
<path fill="#4d4128" stroke="#6e6963" d="M740.38,-505.5C740.38,-509.57 694.77,-512.88 638.62,-512.88 582.48,-512.88 536.88,-509.57 536.88,-505.5 536.88,-505.5 536.88,-439.12 536.88,-439.12 536.88,-435.06 582.48,-431.75 638.62,-431.75 694.77,-431.75 740.38,-435.06 740.38,-439.12 740.38,-439.12 740.38,-505.5 740.38,-505.5"/>
<path fill="none" stroke="#6e6963" d="M740.38,-505.5C740.38,-501.43 694.77,-498.12 638.62,-498.12 582.48,-498.12 536.88,-501.43 536.88,-505.5"/>
<text xml:space="preserve" text-anchor="middle" x="638.62" y="-488.31" font-family="Helvetica,sans-Serif" font-size="10.00" fill="#ece1d7">insert connections ×N</text>
<text xml:space="preserve" text-anchor="middle" x="638.62" y="-475.56" font-family="Helvetica,sans-Serif" font-size="10.00" fill="#ece1d7">clickhouse&#45;c&#45;rs AsyncClient</text>
<text xml:space="preserve" text-anchor="middle" x="638.62" y="-462.81" font-family="Helvetica,sans-Serif" font-size="10.00" fill="#ece1d7">ReplacingMergeTree(_lsn, _is_deleted)</text>
<text xml:space="preserve" text-anchor="middle" x="638.62" y="-450.06" font-family="Helvetica,sans-Serif" font-size="10.00" fill="#ece1d7">Native rows</text>
</g>
<!-- ins&#45;&gt;chrows -->
<g id="edge8" class="edge">
<title>ins&#45;&gt;chrows</title>
<path fill="none" stroke="#bf8c5f" stroke-width="2" d="M861.46,-594.3C832.01,-579.36 798.72,-562.22 768.62,-546.12 751.69,-537.07 733.64,-527.14 716.55,-517.61"/>
<polygon fill="#bf8c5f" stroke="#bf8c5f" stroke-width="2" points="718.16,-515.3 709.81,-513.84 715.42,-520.19 718.16,-515.3"/>
<text xml:space="preserve" text-anchor="middle" x="874.75" y="-568.08" font-family="Helvetica,sans-Serif" font-size="9.00" fill="#ece1d7">one complete INSERT</text>
<text xml:space="preserve" text-anchor="middle" x="874.75" y="-556.83" font-family="Helvetica,sans-Serif" font-size="9.00" fill="#ece1d7">per sealed batch</text>
</g>
<!-- ins&#45;&gt;ack -->
<g id="edge21" class="edge">
<title>ins&#45;&gt;ack</title>
<path fill="none" stroke="#b380b0" stroke-dasharray="1,5" d="M944.62,-594.43C944.62,-571.01 944.62,-541.73 944.62,-517.83"/>
<polygon fill="#b380b0" stroke="#b380b0" points="947.43,-518.13 944.63,-510.13 941.83,-518.13 947.43,-518.13"/>
<text xml:space="preserve" text-anchor="middle" x="997.88" y="-568.08" font-family="Helvetica,sans-Serif" font-size="9.00" fill="#ece1d7">Acked(per_seq)</text>
<text xml:space="preserve" text-anchor="middle" x="997.88" y="-556.83" font-family="Helvetica,sans-Serif" font-size="9.00" fill="#ece1d7">only after EndOfStream</text>
</g>
<!-- fence&#45;&gt;trip -->
<g id="edge18" class="edge">
<title>fence&#45;&gt;trip</title>
<path fill="none" stroke="#b58b86" stroke-dasharray="5,2" d="M494.7,-951.62C557.41,-951.62 649.1,-951.62 733.91,-951.62"/>
<polygon fill="#b58b86" stroke="#b58b86" points="733.91,-954.43 741.91,-951.63 733.91,-948.83 733.91,-954.43"/>
<text xml:space="preserve" text-anchor="middle" x="619.69" y="-957.33" font-family="Helvetica,sans-Serif" font-size="9.00" fill="#ece1d7">FlushAll</text>
</g>
<!-- apply -->
<g id="node10" class="node">
<title>apply</title>
<path fill="#5d4628" stroke="#6e6963" d="M351.12,-845.38C351.12,-845.38 140.12,-845.38 140.12,-845.38 134.12,-845.38 128.12,-839.38 128.12,-833.38 128.12,-833.38 128.12,-772.88 128.12,-772.88 128.12,-766.88 134.12,-760.88 140.12,-760.88 140.12,-760.88 351.12,-760.88 351.12,-760.88 357.12,-760.88 363.12,-766.88 363.12,-772.88 363.12,-772.88 363.12,-833.38 363.12,-833.38 363.12,-839.38 357.12,-845.38 351.12,-845.38"/>
<text xml:space="preserve" text-anchor="middle" x="245.62" y="-831.88" font-family="Helvetica,sans-Serif" font-size="10.00" fill="#ece1d7">apply ordered control</text>
<text xml:space="preserve" text-anchor="middle" x="245.62" y="-819.12" font-family="Helvetica,sans-Serif" font-size="10.00" fill="#ece1d7">Catalog → DdlApplicator</text>
<text xml:space="preserve" text-anchor="middle" x="245.62" y="-806.38" font-family="Helvetica,sans-Serif" font-size="10.00" fill="#ece1d7">Config → resolver republish</text>
<text xml:space="preserve" text-anchor="middle" x="245.62" y="-793.62" font-family="Helvetica,sans-Serif" font-size="10.00" fill="#ece1d7">owner TRUNCATE → dest + toast mirror wipe</text>
<text xml:space="preserve" text-anchor="middle" x="245.62" y="-780.88" font-family="Helvetica,sans-Serif" font-size="10.00" fill="#ece1d7">ToastBarrier → rewrite O−B</text>
<text xml:space="preserve" text-anchor="middle" x="245.62" y="-768.12" font-family="Helvetica,sans-Serif" font-size="10.00" fill="#ece1d7">toast Dropped → durable retire enqueue</text>
</g>
<!-- fence&#45;&gt;apply -->
<g id="edge3" class="edge">
<title>fence&#45;&gt;apply</title>
<path fill="none" stroke="#c1a78e" d="M383.64,-921.68C360.28,-901.78 328.7,-874.89 301.65,-851.85"/>
<polygon fill="#c1a78e" stroke="#c1a78e" points="303.58,-849.81 295.67,-846.75 299.94,-854.07 303.58,-849.81"/>
</g>
<!-- bridge -->
<g id="node9" class="node">
<title>bridge</title>
<path fill="#5d4628" stroke="#6e6963" d="M299.88,-981.12C299.88,-981.12 177.38,-981.12 177.38,-981.12 171.38,-981.12 165.38,-975.12 165.38,-969.12 165.38,-969.12 165.38,-934.12 165.38,-934.12 165.38,-928.12 171.38,-922.12 177.38,-922.12 177.38,-922.12 299.88,-922.12 299.88,-922.12 305.88,-922.12 311.88,-928.12 311.88,-934.12 311.88,-934.12 311.88,-969.12 311.88,-969.12 311.88,-975.12 305.88,-981.12 299.88,-981.12"/>
<text xml:space="preserve" text-anchor="middle" x="238.62" y="-967.62" font-family="Helvetica,sans-Serif" font-size="10.00" fill="#ece1d7">type_bridge::map</text>
<text xml:space="preserve" text-anchor="middle" x="238.62" y="-954.88" font-family="Helvetica,sans-Serif" font-size="10.00" fill="#ece1d7">RelAttr → ResolvedColumn</text>
<text xml:space="preserve" text-anchor="middle" x="238.62" y="-942.12" font-family="Helvetica,sans-Serif" font-size="10.00" fill="#ece1d7">(reject type change,</text>
<text xml:space="preserve" text-anchor="middle" x="238.62" y="-929.38" font-family="Helvetica,sans-Serif" font-size="10.00" fill="#ece1d7"> pk strips Nullable)</text>
</g>
<!-- bridge&#45;&gt;apply -->
<g id="edge4" class="edge">
<title>bridge&#45;&gt;apply</title>
<path fill="none" stroke="#c1a78e" stroke-dasharray="5,2" d="M240.01,-921.68C240.91,-902.71 242.12,-877.39 243.19,-855.11"/>
<polygon fill="#c1a78e" stroke="#c1a78e" points="245.98,-855.41 243.56,-847.28 240.38,-855.14 245.98,-855.41"/>
<text xml:space="preserve" text-anchor="middle" x="272.38" y="-866.08" font-family="Helvetica,sans-Serif" font-size="9.00" fill="#ece1d7">resolve types</text>
</g>
<!-- chddl -->
<g id="node12" class="node">
<title>chddl</title>
<path fill="#4d4128" stroke="#6e6963" d="M304.75,-505.5C304.75,-509.57 271.08,-512.88 229.62,-512.88 188.17,-512.88 154.5,-509.57 154.5,-505.5 154.5,-505.5 154.5,-439.12 154.5,-439.12 154.5,-435.06 188.17,-431.75 229.62,-431.75 271.08,-431.75 304.75,-435.06 304.75,-439.12 304.75,-439.12 304.75,-505.5 304.75,-505.5"/>
<path fill="none" stroke="#6e6963" d="M304.75,-505.5C304.75,-501.43 271.08,-498.12 229.62,-498.12 188.17,-498.12 154.5,-501.43 154.5,-505.5"/>
<text xml:space="preserve" text-anchor="middle" x="229.62" y="-488.31" font-family="Helvetica,sans-Serif" font-size="10.00" fill="#ece1d7">DDL connection</text>
<text xml:space="preserve" text-anchor="middle" x="229.62" y="-475.56" font-family="Helvetica,sans-Serif" font-size="10.00" fill="#ece1d7">clickhouse&#45;c&#45;rs AsyncClient</text>
<text xml:space="preserve" text-anchor="middle" x="229.62" y="-462.81" font-family="Helvetica,sans-Serif" font-size="10.00" fill="#ece1d7">ALTER / CREATE /</text>
<text xml:space="preserve" text-anchor="middle" x="229.62" y="-450.06" font-family="Helvetica,sans-Serif" font-size="10.00" fill="#ece1d7"> DROP / TRUNCATE</text>
</g>
<!-- apply&#45;&gt;chddl -->
<g id="edge14" class="edge">
<title>apply&#45;&gt;chddl</title>
<path fill="none" stroke="#bf8c5f" stroke-width="2" stroke-dasharray="5,2" d="M171.37,-760.5C154.79,-747.4 139.39,-731.31 130.12,-712.38 105.56,-662.17 110.42,-638.93 130.12,-586.62 139.45,-561.87 156.92,-539 174.65,-520.38"/>
<polygon fill="#bf8c5f" stroke="#bf8c5f" stroke-width="2" points="176.5,-522.49 180.12,-514.83 172.51,-518.56 176.5,-522.49"/>
<text xml:space="preserve" text-anchor="middle" x="169.88" y="-639.58" font-family="Helvetica,sans-Serif" font-size="9.00" fill="#ece1d7">DDL SQL</text>
<text xml:space="preserve" text-anchor="middle" x="169.88" y="-628.33" font-family="Helvetica,sans-Serif" font-size="9.00" fill="#ece1d7">(own connection)</text>
</g>
<!-- chtoast -->
<g id="node13" class="node">
<title>chtoast</title>
<path fill="#4d4128" stroke="#6e6963" d="M507.75,-498.33C507.75,-501.52 468.7,-504.11 420.62,-504.11 372.55,-504.11 333.5,-501.52 333.5,-498.33 333.5,-498.33 333.5,-446.3 333.5,-446.3 333.5,-443.11 372.55,-440.52 420.62,-440.52 468.7,-440.52 507.75,-443.11 507.75,-446.3 507.75,-446.3 507.75,-498.33 507.75,-498.33"/>
<path fill="none" stroke="#6e6963" d="M507.75,-498.33C507.75,-495.14 468.7,-492.55 420.62,-492.55 372.55,-492.55 333.5,-495.14 333.5,-498.33"/>
<text xml:space="preserve" text-anchor="middle" x="420.62" y="-481.94" font-family="Helvetica,sans-Serif" font-size="10.00" fill="#ece1d7">TOAST store connection</text>
<text xml:space="preserve" text-anchor="middle" x="420.62" y="-469.19" font-family="Helvetica,sans-Serif" font-size="10.00" fill="#ece1d7">pg_toast_&lt;relid&gt; mirrors</text>
<text xml:space="preserve" text-anchor="middle" x="420.62" y="-456.44" font-family="Helvetica,sans-Serif" font-size="10.00" fill="#ece1d7">put / as&#45;of fetch / truncate / O−B</text>
</g>
<!-- apply&#45;&gt;chtoast -->
<g id="edge15" class="edge">
<title>apply&#45;&gt;chtoast</title>
<path fill="none" stroke="#bf8c5f" stroke-dasharray="5,2" d="M238.29,-760.57C232.42,-714.78 229.55,-640.49 260.38,-586.62 276.22,-558.94 293.52,-564.45 319.62,-546.12 336.35,-534.38 354.49,-521.39 370.73,-509.66"/>
<polygon fill="#bf8c5f" stroke="#bf8c5f" points="371.97,-512.22 376.81,-505.26 368.69,-507.68 371.97,-512.22"/>
<text xml:space="preserve" text-anchor="middle" x="294.5" y="-633.95" font-family="Helvetica,sans-Serif" font-size="9.00" fill="#ece1d7">truncate / O−B</text>
</g>
<!-- ledger -->
<g id="node15" class="node">
<title>ledger</title>
<polygon fill="#4d3850" stroke="#6e6963" points="532.25,-660 343,-660 343,-613.75 538.25,-613.75 538.25,-654 532.25,-660"/>
<polyline fill="none" stroke="#6e6963" points="532.25,-660 532.25,-654"/>
<polyline fill="none" stroke="#6e6963" points="538.25,-654 532.25,-654"/>
<text xml:space="preserve" text-anchor="middle" x="440.62" y="-646.5" font-family="Helvetica,sans-Serif" font-size="10.00" fill="#ece1d7">{spill_dir}/toast_retires.bin</text>
<text xml:space="preserve" text-anchor="middle" x="440.62" y="-633.75" font-family="Helvetica,sans-Serif" font-size="10.00" fill="#ece1d7">fsynced before dropping commit ack</text>
<text xml:space="preserve" text-anchor="middle" x="440.62" y="-621" font-family="Helvetica,sans-Serif" font-size="10.00" fill="#ece1d7">standup / commit / idle flush</text>
</g>
<!-- apply&#45;&gt;ledger -->
<g id="edge16" class="edge">
<title>apply&#45;&gt;ledger</title>
<path fill="none" stroke="#6e6963" stroke-dasharray="5,2" d="M295.08,-760.47C330.08,-730.99 376.08,-692.24 406.91,-666.27"/>
<polygon fill="#6e6963" stroke="#6e6963" points="408.55,-668.55 412.86,-661.26 404.94,-664.27 408.55,-668.55"/>
<text xml:space="preserve" text-anchor="middle" x="383.78" y="-728.7" font-family="Helvetica,sans-Serif" font-size="9.00" fill="#ece1d7">toast DROP enqueue</text>
</g>
<!-- legend -->
<g id="node17" class="node">
<title>legend</title>
<path fill="#6e6963" stroke="none" d="M949.25,-394.75C949.25,-394.75 12,-394.75 12,-394.75 6,-394.75 0,-388.75 0,-382.75 0,-382.75 0,-12 0,-12 0,-6 6,0 12,0 12,0 949.25,0 949.25,0 955.25,0 961.25,-6 961.25,-12 961.25,-12 961.25,-382.75 961.25,-382.75 961.25,-388.75 955.25,-394.75 949.25,-394.75"/>
<polygon fill="#34302c" stroke="none" points="8,-368 8,-390.75 953.25,-390.75 953.25,-368 8,-368"/>
<polygon fill="none" stroke="#6e6963" points="8,-368 8,-390.75 953.25,-390.75 953.25,-368 8,-368"/>
<text xml:space="preserve" text-anchor="start" x="437.5" y="-377.25" font-family="Helvetica,sans-Serif" font-weight="bold" font-size="10.00" fill="#ece1d7">node fill — role</text>
<polygon fill="#4d4128" stroke="none" points="8,-345.25 8,-368 329.12,-368 329.12,-345.25 8,-345.25"/>
<polygon fill="none" stroke="#6e6963" points="8,-345.25 8,-368 329.12,-368 329.12,-345.25 8,-345.25"/>
<polygon fill="none" stroke="#6e6963" points="329.12,-345.25 329.12,-368 953.25,-368 953.25,-345.25 329.12,-345.25"/>
<text xml:space="preserve" text-anchor="start" x="557.56" y="-353.25" font-family="Helvetica,sans-Serif" font-size="10.00" fill="#ece1d7">reorder / decode pool / ClickHouse</text>
<polygon fill="#4d4d28" stroke="none" points="8,-322.5 8,-345.25 329.12,-345.25 329.12,-322.5 8,-322.5"/>
<polygon fill="none" stroke="#6e6963" points="8,-322.5 8,-345.25 329.12,-345.25 329.12,-322.5 8,-322.5"/>
<polygon fill="none" stroke="#6e6963" points="329.12,-322.5 329.12,-345.25 953.25,-345.25 953.25,-322.5 329.12,-322.5"/>
<text xml:space="preserve" text-anchor="start" x="560.56" y="-330.5" font-family="Helvetica,sans-Serif" font-size="10.00" fill="#ece1d7">ShadowCatalog schema&#45;event tx</text>
<polygon fill="#5d4628" stroke="none" points="8,-299.75 8,-322.5 329.12,-322.5 329.12,-299.75 8,-299.75"/>
<polygon fill="none" stroke="#6e6963" points="8,-299.75 8,-322.5 329.12,-322.5 329.12,-299.75 8,-299.75"/>
<polygon fill="none" stroke="#6e6963" points="329.12,-299.75 329.12,-322.5 953.25,-322.5 953.25,-299.75 329.12,-299.75"/>
<text xml:space="preserve" text-anchor="start" x="559.44" y="-307.75" font-family="Helvetica,sans-Serif" font-size="10.00" fill="#ece1d7">batcher / inserters / DdlApplicator</text>
<polygon fill="#4d3a28" stroke="none" points="8,-277 8,-299.75 329.12,-299.75 329.12,-277 8,-277"/>
<polygon fill="none" stroke="#6e6963" points="8,-277 8,-299.75 329.12,-299.75 329.12,-277 8,-277"/>
<polygon fill="none" stroke="#6e6963" points="329.12,-277 329.12,-299.75 953.25,-299.75 953.25,-277 329.12,-277"/>
<text xml:space="preserve" text-anchor="start" x="557.94" y="-285" font-family="Helvetica,sans-Serif" font-size="10.00" fill="#ece1d7">ack collector / cursor side&#45;channel</text>
<polygon fill="#34302c" stroke="none" points="8,-254.25 8,-277 953.25,-277 953.25,-254.25 8,-254.25"/>
<polygon fill="none" stroke="#6e6963" points="8,-254.25 8,-277 953.25,-277 953.25,-254.25 8,-254.25"/>
<text xml:space="preserve" text-anchor="start" x="450.62" y="-263.5" font-family="Helvetica,sans-Serif" font-weight="bold" font-size="10.00" fill="#ece1d7">edge style</text>
<polygon fill="none" stroke="#6e6963" points="8,-231.5 8,-254.25 329.12,-254.25 329.12,-231.5 8,-231.5"/>
<text xml:space="preserve" text-anchor="start" x="162.56" y="-240.75" font-family="Helvetica,sans-Serif" font-weight="bold" font-size="10.00" fill="#bf8c5f">━━</text>
<polygon fill="none" stroke="#6e6963" points="329.12,-231.5 329.12,-254.25 953.25,-254.25 953.25,-231.5 329.12,-231.5"/>
<text xml:space="preserve" text-anchor="start" x="570.69" y="-239.5" font-family="Helvetica,sans-Serif" font-size="10.00" fill="#ece1d7">row path (Native rows, solid)</text>
<polygon fill="none" stroke="#6e6963" points="8,-208.75 8,-231.5 329.12,-231.5 329.12,-208.75 8,-208.75"/>
<text xml:space="preserve" text-anchor="start" x="162.56" y="-218" font-family="Helvetica,sans-Serif" font-weight="bold" font-size="10.00" fill="#bf8c5f">┄┄</text>
<polygon fill="none" stroke="#6e6963" points="329.12,-208.75 329.12,-231.5 953.25,-231.5 953.25,-208.75 329.12,-208.75"/>
<text xml:space="preserve" text-anchor="start" x="554.56" y="-216.75" font-family="Helvetica,sans-Serif" font-size="10.00" fill="#ece1d7">DDL path (own connection, dashed)</text>
<polygon fill="none" stroke="#6e6963" points="8,-186 8,-208.75 329.12,-208.75 329.12,-186 8,-186"/>
<text xml:space="preserve" text-anchor="start" x="162.56" y="-195.25" font-family="Helvetica,sans-Serif" font-weight="bold" font-size="10.00" fill="#cba85e">┄┄</text>
<polygon fill="none" stroke="#6e6963" points="329.12,-186 329.12,-208.75 953.25,-208.75 953.25,-186 329.12,-186"/>
<text xml:space="preserve" text-anchor="start" x="560.56" y="-194" font-family="Helvetica,sans-Serif" font-size="10.00" fill="#ece1d7">SchemaEvent off ShadowCatalog</text>
<polygon fill="none" stroke="#6e6963" points="8,-163.25 8,-186 329.12,-186 329.12,-163.25 8,-163.25"/>
<text xml:space="preserve" text-anchor="start" x="162.94" y="-172.5" font-family="Helvetica,sans-Serif" font-weight="bold" font-size="10.00" fill="#b380b0">···</text>
<polygon fill="none" stroke="#6e6963" points="329.12,-163.25 329.12,-186 953.25,-186 953.25,-163.25 329.12,-163.25"/>
<text xml:space="preserve" text-anchor="start" x="579.31" y="-171.25" font-family="Helvetica,sans-Serif" font-size="10.00" fill="#ece1d7">ack events / barrier waits</text>
<polygon fill="#34302c" stroke="none" points="8,-140.5 8,-163.25 953.25,-163.25 953.25,-140.5 8,-140.5"/>
<polygon fill="none" stroke="#6e6963" points="8,-140.5 8,-163.25 953.25,-163.25 953.25,-140.5 8,-140.5"/>
<text xml:space="preserve" text-anchor="start" x="376.38" y="-149.75" font-family="Helvetica,sans-Serif" font-weight="bold" font-size="10.00" fill="#ece1d7">synthetic columns (every dest table)</text>
<polygon fill="none" stroke="#6e6963" points="8,-117.75 8,-140.5 329.12,-140.5 329.12,-117.75 8,-117.75"/>
<text xml:space="preserve" text-anchor="start" x="158.06" y="-125.75" font-family="monospace" font-size="10.00" fill="#ece1d7">_lsn</text>
<polygon fill="none" stroke="#6e6963" points="329.12,-117.75 329.12,-140.5 953.25,-140.5 953.25,-117.75 329.12,-117.75"/>
<text xml:space="preserve" text-anchor="start" x="509.56" y="-125.75" font-family="Helvetica,sans-Serif" font-size="10.00" fill="#ece1d7">UInt64 — commit_lsn; ReplacingMergeTree dedup key</text>
<polygon fill="none" stroke="#6e6963" points="8,-95 8,-117.75 329.12,-117.75 329.12,-95 8,-95"/>
<text xml:space="preserve" text-anchor="start" x="158.06" y="-103" font-family="monospace" font-size="10.00" fill="#ece1d7">_xid</text>
<polygon fill="none" stroke="#6e6963" points="329.12,-95 329.12,-117.75 953.25,-117.75 953.25,-95 329.12,-95"/>
<text xml:space="preserve" text-anchor="start" x="531.69" y="-103" font-family="Helvetica,sans-Serif" font-size="10.00" fill="#ece1d7">UInt32 — source xid; recovers xact boundary</text>
<polygon fill="none" stroke="#6e6963" points="8,-72.25 8,-95 329.12,-95 329.12,-72.25 8,-72.25"/>
<text xml:space="preserve" text-anchor="start" x="142.31" y="-80.25" font-family="monospace" font-size="10.00" fill="#ece1d7">_commit_ts</text>
<polygon fill="none" stroke="#6e6963" points="329.12,-72.25 329.12,-95 953.25,-95 953.25,-72.25 329.12,-72.25"/>
<text xml:space="preserve" text-anchor="start" x="531.69" y="-80.25" font-family="Helvetica,sans-Serif" font-size="10.00" fill="#ece1d7">DateTime64(6, &#39;UTC&#39;); shifted from PG epoch</text>
<polygon fill="none" stroke="#6e6963" points="8,-49.5 8,-72.25 329.12,-72.25 329.12,-49.5 8,-49.5"/>
<text xml:space="preserve" text-anchor="start" x="139.69" y="-57.5" font-family="monospace" font-size="10.00" fill="#ece1d7">_is_deleted</text>
<polygon fill="none" stroke="#6e6963" points="329.12,-49.5 329.12,-72.25 953.25,-72.25 953.25,-49.5 329.12,-49.5"/>
<text xml:space="preserve" text-anchor="start" x="460.81" y="-57.5" font-family="Helvetica,sans-Serif" font-size="10.00" fill="#ece1d7">Bool — 1 on delete; ReplacingMergeTree is_deleted arg unless soft_delete</text>
<polygon fill="#34302c" stroke="none" points="8,-26.75 8,-49.5 953.25,-49.5 953.25,-26.75 8,-26.75"/>
<polygon fill="none" stroke="#6e6963" points="8,-26.75 8,-49.5 953.25,-49.5 953.25,-26.75 8,-26.75"/>
<text xml:space="preserve" text-anchor="start" x="436.75" y="-36" font-family="Helvetica,sans-Serif" font-weight="bold" font-size="10.00" fill="#ece1d7">watermark rule</text>
<polygon fill="none" stroke="#6e6963" points="8,-4 8,-26.75 953.25,-26.75 953.25,-4 8,-4"/>
<text xml:space="preserve" text-anchor="start" x="13" y="-12" font-family="Helvetica,sans-Serif" font-size="10.00" fill="#ece1d7">downstream completes out of order; emitter_ack advances only on the contiguous&#45;done prefix, so slot recycling never outruns CH durability. Retry&#45;exhausted batch = Fatal (never a silent gap)</text>
</g>
<!-- chrows&#45;&gt;legend -->
<!-- chddl&#45;&gt;legend -->
<!-- toastput&#45;&gt;chtoast -->
<g id="edge11" class="edge">
<title>toastput&#45;&gt;chtoast</title>
<path fill="none" stroke="#bf8c5f" stroke-width="2" d="M570.36,-1060.09C575.39,-1034.3 582.62,-990.6 582.62,-952.62 582.62,-952.62 582.62,-952.62 582.62,-635.88 582.62,-598.57 590.47,-580.03 563.62,-554.12 550.26,-541.23 539.68,-553.46 522.62,-546.12 502.2,-537.34 481.83,-523.96 464.72,-511.07"/>
<polygon fill="#bf8c5f" stroke="#bf8c5f" stroke-width="2" points="466.53,-508.92 458.49,-506.24 463.1,-513.35 466.53,-508.92"/>
</g>
<!-- ledger&#45;&gt;chtoast -->
<g id="edge17" class="edge">
<title>ledger&#45;&gt;chtoast</title>
<path fill="none" stroke="#bf8c5f" stroke-dasharray="5,2" d="M430.22,-613.32C425.77,-602.48 421.1,-589.14 418.88,-576.62 415.22,-556.08 415.25,-532.87 416.37,-513.66"/>
<polygon fill="#bf8c5f" stroke="#bf8c5f" points="419.15,-513.98 416.91,-505.81 413.57,-513.6 419.15,-513.98"/>
<text xml:space="preserve" text-anchor="middle" x="489.75" y="-562.45" font-family="Helvetica,sans-Serif" font-size="9.00" fill="#ece1d7">retire once resume floor passes</text>
</g>
<!-- ack&#45;&gt;fence -->
<g id="edge22" class="edge">
<title>ack&#45;&gt;fence</title>
<path fill="none" stroke="#b380b0" stroke-dasharray="1,5" d="M1056.09,-508.65C1089.85,-525.95 1121.69,-550.99 1135.62,-586.62 1155.98,-638.68 1171.48,-669.5 1135.62,-712.38 1128.97,-720.33 1053.39,-702.93 1091.12,-742.88 1104.54,-757.07 1248.79,-744.91 1266.62,-752.88 1414.33,-818.84 1390.96,-860.92 1377.62,-874.62 1352.52,-900.44 765.44,-888.82 729.62,-892.62 652.6,-900.8 566.08,-917.49 503.73,-930.88"/>
<polygon fill="#b380b0" stroke="#b380b0" points="503.41,-928.08 496.18,-932.5 504.59,-933.55 503.41,-928.08"/>
<text xml:space="preserve" text-anchor="middle" x="1141.38" y="-734.33" font-family="Helvetica,sans-Serif" font-size="9.00" fill="#ece1d7">wait_placed_through /</text>
<text xml:space="preserve" text-anchor="middle" x="1141.38" y="-723.08" font-family="Helvetica,sans-Serif" font-size="9.00" fill="#ece1d7">wait_through</text>
</g>
</g>
</svg>
