<?xml version="1.0" encoding="UTF-8" standalone="no"?>
<!DOCTYPE svg PUBLIC "-//W3C//DTD SVG 1.1//EN"
 "http://www.w3.org/Graphics/SVG/1.1/DTD/svg11.dtd">
<!-- Generated by graphviz version 14.1.5 (0)
 -->
<!-- Title: emitter Pages: 1 -->
<svg width="981pt" height="1746pt"
 viewBox="0.00 0.00 981.00 1746.00" xmlns="http://www.w3.org/2000/svg" xmlns:xlink="http://www.w3.org/1999/xlink">
<g id="graph0" class="graph" transform="scale(1 1) rotate(0) translate(4 1741.62)">
<title>emitter</title>
<polygon fill="#272623" stroke="none" points="-4,4 -4,-1741.62 977,-1741.62 977,4 -4,4"/>
<text xml:space="preserve" text-anchor="middle" x="486.5" y="-1720.33" font-family="Helvetica,sans-Serif" font-size="14.00" fill="#ece1d7">walshadow CH emitter — hold&#45;open buffer, atomic&#45;seal INSERT + DdlApplicator (dual CH TCP)</text>
<g id="clust1" class="cluster">
<title>cluster_src</title>
<path fill="#34302c" stroke="#4c4641" d="M219,-1545.12C219,-1545.12 730,-1545.12 730,-1545.12 736,-1545.12 742,-1551.12 742,-1557.12 742,-1557.12 742,-1692.38 742,-1692.38 742,-1698.38 736,-1704.38 730,-1704.38 730,-1704.38 219,-1704.38 219,-1704.38 213,-1704.38 207,-1698.38 207,-1692.38 207,-1692.38 207,-1557.12 207,-1557.12 207,-1551.12 213,-1545.12 219,-1545.12"/>
<text xml:space="preserve" text-anchor="middle" x="474.5" y="-1687.08" font-family="Helvetica,sans-Serif" font-size="14.00" fill="#ece1d7">upstream &#160;(xact buffer drain)</text>
</g>
<g id="clust2" class="cluster">
<title>cluster_rows</title>
<path fill="#34302c" stroke="#4c4641" d="M20,-689.12C20,-689.12 505,-689.12 505,-689.12 511,-689.12 517,-695.12 517,-701.12 517,-701.12 517,-1486.25 517,-1486.25 517,-1492.25 511,-1498.25 505,-1498.25 505,-1498.25 20,-1498.25 20,-1498.25 14,-1498.25 8,-1492.25 8,-1486.25 8,-1486.25 8,-701.12 8,-701.12 8,-695.12 14,-689.12 20,-689.12"/>
<text xml:space="preserve" text-anchor="middle" x="262.5" y="-1480.95" font-family="Helvetica,sans-Serif" font-size="14.00" fill="#ece1d7">row path — Emitter::route → buffer → atomic&#45;seal INSERT &#160;(CH TCP #1)</text>
</g>
<g id="clust3" class="cluster">
<title>cluster_ddl</title>
<path fill="#34302c" stroke="#4c4641" d="M539,-1157.5C539,-1157.5 953,-1157.5 953,-1157.5 959,-1157.5 965,-1163.5 965,-1169.5 965,-1169.5 965,-1492.62 965,-1492.62 965,-1498.62 959,-1504.62 953,-1504.62 953,-1504.62 539,-1504.62 539,-1504.62 533,-1504.62 527,-1498.62 527,-1492.62 527,-1492.62 527,-1169.5 527,-1169.5 527,-1163.5 533,-1157.5 539,-1157.5"/>
<text xml:space="preserve" text-anchor="middle" x="746" y="-1487.33" font-family="Helvetica,sans-Serif" font-size="14.00" fill="#ece1d7">DDL path — DdlApplicator (CH TCP #2, separate connection)</text>
</g>
<g id="clust4" class="cluster">
<title>cluster_ch</title>
<path fill="#34302c" stroke="#4c4641" d="M377,-537.5C377,-537.5 662,-537.5 662,-537.5 668,-537.5 674,-543.5 674,-549.5 674,-549.5 674,-647.88 674,-647.88 674,-653.88 668,-659.88 662,-659.88 662,-659.88 377,-659.88 377,-659.88 371,-659.88 365,-653.88 365,-647.88 365,-647.88 365,-549.5 365,-549.5 365,-543.5 371,-537.5 377,-537.5"/>
<text xml:space="preserve" text-anchor="middle" x="519.5" y="-642.58" font-family="Helvetica,sans-Serif" font-size="14.00" fill="#ece1d7">ClickHouse</text>
</g>
<!-- drain -->
<g id="node1" class="node">
<title>drain</title>
<path fill="#4d4128" stroke="#6e6963" d="M384.88,-1648C384.88,-1648 227.12,-1648 227.12,-1648 221.12,-1648 215.12,-1642 215.12,-1636 215.12,-1636 215.12,-1588.25 215.12,-1588.25 215.12,-1582.25 221.12,-1576.25 227.12,-1576.25 227.12,-1576.25 384.88,-1576.25 384.88,-1576.25 390.88,-1576.25 396.88,-1582.25 396.88,-1588.25 396.88,-1588.25 396.88,-1636 396.88,-1636 396.88,-1642 390.88,-1648 384.88,-1648"/>
<text xml:space="preserve" text-anchor="middle" x="306" y="-1634.5" font-family="Helvetica,sans-Serif" font-size="10.00" fill="#ece1d7">XactRecordSink</text>
<text xml:space="preserve" text-anchor="middle" x="306" y="-1621.75" font-family="Helvetica,sans-Serif" font-size="10.00" fill="#ece1d7">commit drain</text>
<text xml:space="preserve" text-anchor="middle" x="306" y="-1609" font-family="Helvetica,sans-Serif" font-size="10.00" fill="#ece1d7">(k&#45;way merge:</text>
<text xml:space="preserve" text-anchor="middle" x="306" y="-1596.25" font-family="Helvetica,sans-Serif" font-size="10.00" fill="#ece1d7"> CommittedTuple ⨝ SchemaEvent</text>
<text xml:space="preserve" text-anchor="middle" x="306" y="-1583.5" font-family="Helvetica,sans-Serif" font-size="10.00" fill="#ece1d7"> in source&#45;LSN order)</text>
</g>
<!-- route -->
<g id="node3" class="node">
<title>route</title>
<path fill="#5d4628" stroke="#6e6963" d="M218.38,-1465C218.38,-1465 117.62,-1465 117.62,-1465 111.62,-1465 105.62,-1459 105.62,-1453 105.62,-1453 105.62,-1418 105.62,-1418 105.62,-1412 111.62,-1406 117.62,-1406 117.62,-1406 218.38,-1406 218.38,-1406 224.38,-1406 230.38,-1412 230.38,-1418 230.38,-1418 230.38,-1453 230.38,-1453 230.38,-1459 224.38,-1465 218.38,-1465"/>
<text xml:space="preserve" text-anchor="middle" x="168" y="-1451.5" font-family="Helvetica,sans-Serif" font-size="10.00" fill="#ece1d7">Emitter::route</text>
<text xml:space="preserve" text-anchor="middle" x="168" y="-1438.75" font-family="Helvetica,sans-Serif" font-size="10.00" fill="#ece1d7">resolve rel + mapping</text>
<text xml:space="preserve" text-anchor="middle" x="168" y="-1426" font-family="Helvetica,sans-Serif" font-size="10.00" fill="#ece1d7">HeapOp dispatch</text>
<text xml:space="preserve" text-anchor="middle" x="168" y="-1413.25" font-family="Helvetica,sans-Serif" font-size="10.00" fill="#ece1d7">skip foreign&#45;DB rows</text>
</g>
<!-- drain&#45;&gt;route -->
<g id="edge11" class="edge">
<title>drain&#45;&gt;route</title>
<path fill="none" stroke="#bf8c5f" stroke-width="2" d="M278.07,-1575.79C262.42,-1555.98 242.34,-1530.57 223.62,-1506.88"/>
<polygon fill="#bf8c5f" stroke="#bf8c5f" stroke-width="2" points="225.83,-1505.16 218.67,-1500.62 221.44,-1508.63 225.83,-1505.16"/>
<text xml:space="preserve" text-anchor="middle" x="282.39" y="-1520.95" font-family="Helvetica,sans-Serif" font-size="9.00" fill="#ece1d7">CommittedTuple</text>
</g>
<!-- cat -->
<g id="node2" class="node">
<title>cat</title>
<path fill="#4d4d28" stroke="#6e6963" d="M722.22,-1671.12C722.22,-1671.12 500.89,-1671.12 500.89,-1671.12 494.89,-1671.12 486.06,-1665.83 483.23,-1660.54 483.23,-1660.54 431.44,-1563.71 431.44,-1563.71 428.61,-1558.42 431.78,-1553.12 437.78,-1553.12 437.78,-1553.12 659.11,-1553.12 659.11,-1553.12 665.11,-1553.12 673.94,-1558.42 676.77,-1563.71 676.77,-1563.71 728.56,-1660.54 728.56,-1660.54 731.39,-1665.83 728.22,-1671.12 722.22,-1671.12"/>
<text xml:space="preserve" text-anchor="middle" x="580" y="-1628.12" font-family="Helvetica,sans-Serif" font-size="10.00" fill="#ece1d7">ShadowCatalog::subscribe</text>
<text xml:space="preserve" text-anchor="middle" x="580" y="-1615.38" font-family="Helvetica,sans-Serif" font-size="10.00" fill="#ece1d7">SchemaEvent</text>
<text xml:space="preserve" text-anchor="middle" x="580" y="-1602.62" font-family="Helvetica,sans-Serif" font-size="10.00" fill="#ece1d7">Added / Changed / Dropped</text>
<text xml:space="preserve" text-anchor="middle" x="580" y="-1589.88" font-family="Helvetica,sans-Serif" font-size="10.00" fill="#ece1d7">(unbounded mpsc)</text>
</g>
<!-- dispatch -->
<g id="node11" class="node">
<title>dispatch</title>
<path fill="#5d4628" stroke="#6e6963" d="M702.25,-1471.38C702.25,-1471.38 549.75,-1471.38 549.75,-1471.38 543.75,-1471.38 537.75,-1465.38 537.75,-1459.38 537.75,-1459.38 537.75,-1411.62 537.75,-1411.62 537.75,-1405.62 543.75,-1399.62 549.75,-1399.62 549.75,-1399.62 702.25,-1399.62 702.25,-1399.62 708.25,-1399.62 714.25,-1405.62 714.25,-1411.62 714.25,-1411.62 714.25,-1459.38 714.25,-1459.38 714.25,-1465.38 708.25,-1471.38 702.25,-1471.38"/>
<text xml:space="preserve" text-anchor="middle" x="626" y="-1457.88" font-family="Helvetica,sans-Serif" font-size="10.00" fill="#ece1d7">Emitter::dispatch_schema_event</text>
<text xml:space="preserve" text-anchor="middle" x="626" y="-1445.12" font-family="Helvetica,sans-Serif" font-size="10.00" fill="#ece1d7">1. flush_table(key)</text>
<text xml:space="preserve" text-anchor="middle" x="626" y="-1432.38" font-family="Helvetica,sans-Serif" font-size="10.00" fill="#ece1d7">2. close_current_wire if key open</text>
<text xml:space="preserve" text-anchor="middle" x="626" y="-1419.62" font-family="Helvetica,sans-Serif" font-size="10.00" fill="#ece1d7">3. drop tables[key]</text>
<text xml:space="preserve" text-anchor="middle" x="626" y="-1406.88" font-family="Helvetica,sans-Serif" font-size="10.00" fill="#ece1d7">4. applicator.apply(event)</text>
</g>
<!-- cat&#45;&gt;dispatch -->
<g id="edge12" class="edge">
<title>cat&#45;&gt;dispatch</title>
<path fill="none" stroke="#cba85e" stroke-dasharray="5,2" d="M595.32,-1552.98C598.63,-1540.39 602.19,-1526.88 605.67,-1513.69"/>
<polygon fill="#cba85e" stroke="#cba85e" points="608.34,-1514.54 607.67,-1506.09 602.92,-1513.11 608.34,-1514.54"/>
<text xml:space="preserve" text-anchor="middle" x="642.13" y="-1526.58" font-family="Helvetica,sans-Serif" font-size="9.00" fill="#ece1d7">SchemaEvent</text>
<text xml:space="preserve" text-anchor="middle" x="642.13" y="-1515.33" font-family="Helvetica,sans-Serif" font-size="9.00" fill="#ece1d7">drain at commit</text>
</g>
<!-- enc -->
<g id="node4" class="node">
<title>enc</title>
<path fill="#5d4628" stroke="#6e6963" d="M232.88,-1346C232.88,-1346 111.12,-1346 111.12,-1346 105.12,-1346 99.12,-1340 99.12,-1334 99.12,-1334 99.12,-1299 99.12,-1299 99.12,-1293 105.12,-1287 111.12,-1287 111.12,-1287 232.88,-1287 232.88,-1287 238.88,-1287 244.88,-1293 244.88,-1299 244.88,-1299 244.88,-1334 244.88,-1334 244.88,-1340 238.88,-1346 232.88,-1346"/>
<text xml:space="preserve" text-anchor="middle" x="172" y="-1332.5" font-family="Helvetica,sans-Serif" font-size="10.00" fill="#ece1d7">TableEncoder::append_row</text>
<text xml:space="preserve" text-anchor="middle" x="172" y="-1319.75" font-family="Helvetica,sans-Serif" font-size="10.00" fill="#ece1d7">per (src qualified_name)</text>
<text xml:space="preserve" text-anchor="middle" x="172" y="-1307" font-family="Helvetica,sans-Serif" font-size="10.00" fill="#ece1d7">row_budget 65536</text>
<text xml:space="preserve" text-anchor="middle" x="172" y="-1294.25" font-family="Helvetica,sans-Serif" font-size="10.00" fill="#ece1d7">byte_budget 1 MiB</text>
</g>
<!-- route&#45;&gt;enc -->
<g id="edge1" class="edge">
<title>route&#45;&gt;enc</title>
<path fill="none" stroke="#c1a78e" d="M168.99,-1405.58C169.5,-1390.53 170.14,-1371.94 170.69,-1355.72"/>
<polygon fill="#c1a78e" stroke="#c1a78e" points="173.48,-1356.1 170.96,-1348.01 167.89,-1355.91 173.48,-1356.1"/>
</g>
<!-- trunc -->
<g id="node10" class="node">
<title>trunc</title>
<path fill="#5d4628" stroke="#6e6963" d="M497.12,-1458.62C497.12,-1458.62 352.88,-1458.62 352.88,-1458.62 346.88,-1458.62 340.88,-1452.62 340.88,-1446.62 340.88,-1446.62 340.88,-1424.38 340.88,-1424.38 340.88,-1418.38 346.88,-1412.38 352.88,-1412.38 352.88,-1412.38 497.12,-1412.38 497.12,-1412.38 503.12,-1412.38 509.12,-1418.38 509.12,-1424.38 509.12,-1424.38 509.12,-1446.62 509.12,-1446.62 509.12,-1452.62 503.12,-1458.62 497.12,-1458.62"/>
<text xml:space="preserve" text-anchor="middle" x="425" y="-1445.12" font-family="Helvetica,sans-Serif" font-size="10.00" fill="#ece1d7">HeapOp::Truncate</text>
<text xml:space="preserve" text-anchor="middle" x="425" y="-1432.38" font-family="Helvetica,sans-Serif" font-size="10.00" fill="#ece1d7">flush + close +</text>
<text xml:space="preserve" text-anchor="middle" x="425" y="-1419.62" font-family="Helvetica,sans-Serif" font-size="10.00" fill="#ece1d7"> send_query(TRUNCATE TABLE)</text>
</g>
<!-- route&#45;&gt;trunc -->
<g id="edge7" class="edge">
<title>route&#45;&gt;trunc</title>
<path fill="none" stroke="#c1a78e" stroke-dasharray="5,2" d="M230.87,-1435.5C261.02,-1435.5 297.77,-1435.5 331.15,-1435.5"/>
<polygon fill="#c1a78e" stroke="#c1a78e" points="330.95,-1438.3 338.95,-1435.5 330.95,-1432.7 330.95,-1438.3"/>
<text xml:space="preserve" text-anchor="middle" x="285.62" y="-1441.2" font-family="Helvetica,sans-Serif" font-size="9.00" fill="#ece1d7">HeapOp::Truncate</text>
</g>
<!-- cols -->
<g id="node5" class="node">
<title>cols</title>
<polygon fill="#5d4628" stroke="#6e6963" points="293.25,-1243.62 116.75,-1243.62 116.75,-1146.38 299.25,-1146.38 299.25,-1237.62 293.25,-1243.62"/>
<polyline fill="none" stroke="#6e6963" points="293.25,-1243.62 293.25,-1237.62"/>
<polyline fill="none" stroke="#6e6963" points="299.25,-1237.62 293.25,-1237.62"/>
<text xml:space="preserve" text-anchor="middle" x="208" y="-1230.12" font-family="Helvetica,sans-Serif" font-size="10.00" fill="#ece1d7">ColumnBuf slabs</text>
<text xml:space="preserve" text-anchor="middle" x="208" y="-1217.38" font-family="Helvetica,sans-Serif" font-size="10.00" fill="#ece1d7">Fixed / String /</text>
<text xml:space="preserve" text-anchor="middle" x="208" y="-1204.62" font-family="Helvetica,sans-Serif" font-size="10.00" fill="#ece1d7">NullableFixed /</text>
<text xml:space="preserve" text-anchor="middle" x="208" y="-1191.88" font-family="Helvetica,sans-Serif" font-size="10.00" fill="#ece1d7">NullableString</text>
<text xml:space="preserve" text-anchor="middle" x="208" y="-1179.12" font-family="Helvetica,sans-Serif" font-size="10.00" fill="#ece1d7">column&#45;major + synthetic</text>
<text xml:space="preserve" text-anchor="middle" x="208" y="-1166.38" font-family="Helvetica,sans-Serif" font-size="10.00" fill="#ece1d7">_lsn/_xid/_op/_commit_ts</text>
<text xml:space="preserve" text-anchor="middle" x="208" y="-1153.62" font-family="Helvetica,sans-Serif" font-size="10.00" fill="#ece1d7">held across xacts — NO open wire</text>
</g>
<!-- enc&#45;&gt;cols -->
<g id="edge2" class="edge">
<title>enc&#45;&gt;cols</title>
<path fill="none" stroke="#c1a78e" d="M180.71,-1286.57C183.8,-1276.33 187.38,-1264.43 190.92,-1252.69"/>
<polygon fill="#c1a78e" stroke="#c1a78e" points="193.55,-1253.69 193.17,-1245.22 188.18,-1252.07 193.55,-1253.69"/>
</g>
<!-- trip -->
<g id="node6" class="node">
<title>trip</title>
<path fill="#5d4628" stroke="#6e6963" d="M220.42,-1106.22C220.42,-1106.22 27.33,-1053.53 27.33,-1053.53 21.54,-1051.95 21.54,-1048.8 27.33,-1047.22 27.33,-1047.22 220.42,-994.53 220.42,-994.53 226.21,-992.95 237.79,-992.95 243.58,-994.53 243.58,-994.53 436.67,-1047.22 436.67,-1047.22 442.46,-1048.8 442.46,-1051.95 436.67,-1053.53 436.67,-1053.53 243.58,-1106.22 243.58,-1106.22 237.79,-1107.8 226.21,-1107.8 220.42,-1106.22"/>
<text xml:space="preserve" text-anchor="middle" x="232" y="-1066.38" font-family="Helvetica,sans-Serif" font-size="10.00" fill="#ece1d7">seal trigger</text>
<text xml:space="preserve" text-anchor="middle" x="232" y="-1053.62" font-family="Helvetica,sans-Serif" font-size="10.00" fill="#ece1d7">row/byte budget · flush_timeout deadline</text>
<text xml:space="preserve" text-anchor="middle" x="232" y="-1040.88" font-family="Helvetica,sans-Serif" font-size="10.00" fill="#ece1d7">legacy xact&#45;end · schema event</text>
<text xml:space="preserve" text-anchor="middle" x="232" y="-1028.12" font-family="Helvetica,sans-Serif" font-size="10.00" fill="#ece1d7">TRUNCATE · shutdown</text>
</g>
<!-- cols&#45;&gt;trip -->
<g id="edge3" class="edge">
<title>cols&#45;&gt;trip</title>
<path fill="none" stroke="#c1a78e" d="M216.06,-1146.11C217.66,-1136.57 219.38,-1126.4 221.06,-1116.39"/>
<polygon fill="#c1a78e" stroke="#c1a78e" points="223.78,-1117.12 222.34,-1108.77 218.25,-1116.19 223.78,-1117.12"/>
</g>
<!-- openw -->
<g id="node7" class="node">
<title>openw</title>
<path fill="#5d4628" stroke="#6e6963" d="M312.12,-944.12C312.12,-944.12 155.88,-944.12 155.88,-944.12 149.88,-944.12 143.88,-938.12 143.88,-932.12 143.88,-932.12 143.88,-909.88 143.88,-909.88 143.88,-903.88 149.88,-897.88 155.88,-897.88 155.88,-897.88 312.12,-897.88 312.12,-897.88 318.12,-897.88 324.12,-903.88 324.12,-909.88 324.12,-909.88 324.12,-932.12 324.12,-932.12 324.12,-938.12 318.12,-944.12 312.12,-944.12"/>
<text xml:space="preserve" text-anchor="middle" x="234" y="-930.62" font-family="Helvetica,sans-Serif" font-size="10.00" fill="#ece1d7">flush_table(key)</text>
<text xml:space="preserve" text-anchor="middle" x="234" y="-917.88" font-family="Helvetica,sans-Serif" font-size="10.00" fill="#ece1d7">open_wire: send_query(INSERT…)</text>
<text xml:space="preserve" text-anchor="middle" x="234" y="-905.12" font-family="Helvetica,sans-Serif" font-size="10.00" fill="#ece1d7">flush_deadline := now + T</text>
</g>
<!-- trip&#45;&gt;openw -->
<g id="edge4" class="edge">
<title>trip&#45;&gt;openw</title>
<path fill="none" stroke="#c1a78e" d="M232.91,-991.28C233.11,-978.39 233.32,-965.19 233.5,-953.82"/>
<polygon fill="#c1a78e" stroke="#c1a78e" points="236.3,-953.91 233.63,-945.86 230.7,-953.82 236.3,-953.91"/>
</g>
<!-- block -->
<g id="node8" class="node">
<title>block</title>
<path fill="#5d4628" stroke="#6e6963" d="M297.62,-839.38C297.62,-839.38 186.38,-839.38 186.38,-839.38 180.38,-839.38 174.38,-833.38 174.38,-827.38 174.38,-827.38 174.38,-805.12 174.38,-805.12 174.38,-799.12 180.38,-793.12 186.38,-793.12 186.38,-793.12 297.62,-793.12 297.62,-793.12 303.62,-793.12 309.62,-799.12 309.62,-805.12 309.62,-805.12 309.62,-827.38 309.62,-827.38 309.62,-833.38 303.62,-839.38 297.62,-839.38"/>
<text xml:space="preserve" text-anchor="middle" x="242" y="-825.88" font-family="Helvetica,sans-Serif" font-size="10.00" fill="#ece1d7">BlockBuilder</text>
<text xml:space="preserve" text-anchor="middle" x="242" y="-813.12" font-family="Helvetica,sans-Serif" font-size="10.00" fill="#ece1d7">borrow into slabs →</text>
<text xml:space="preserve" text-anchor="middle" x="242" y="-800.38" font-family="Helvetica,sans-Serif" font-size="10.00" fill="#ece1d7">send_data(Some(block))</text>
</g>
<!-- openw&#45;&gt;block -->
<g id="edge5" class="edge">
<title>openw&#45;&gt;block</title>
<path fill="none" stroke="#c1a78e" d="M235.76,-897.45C236.86,-883.26 238.3,-864.74 239.52,-849.07"/>
<polygon fill="#c1a78e" stroke="#c1a78e" points="242.3,-849.45 240.13,-841.26 236.72,-849.01 242.3,-849.45"/>
</g>
<!-- closew -->
<g id="node9" class="node">
<title>closew</title>
<path fill="#5d4628" stroke="#6e6963" d="M319,-756.12C319,-756.12 165,-756.12 165,-756.12 159,-756.12 153,-750.12 153,-744.12 153,-744.12 153,-709.12 153,-709.12 153,-703.12 159,-697.12 165,-697.12 165,-697.12 319,-697.12 319,-697.12 325,-697.12 331,-703.12 331,-709.12 331,-709.12 331,-744.12 331,-744.12 331,-750.12 325,-756.12 319,-756.12"/>
<text xml:space="preserve" text-anchor="middle" x="242" y="-742.62" font-family="Helvetica,sans-Serif" font-size="10.00" fill="#ece1d7">close_current_wire</text>
<text xml:space="preserve" text-anchor="middle" x="242" y="-729.88" font-family="Helvetica,sans-Serif" font-size="10.00" fill="#ece1d7">send_data(None) → EndOfStream</text>
<text xml:space="preserve" text-anchor="middle" x="242" y="-717.12" font-family="Helvetica,sans-Serif" font-size="10.00" fill="#ece1d7">clear buffer (post&#45;ack)</text>
<text xml:space="preserve" text-anchor="middle" x="242" y="-704.38" font-family="Helvetica,sans-Serif" font-size="10.00" fill="#ece1d7">last_durable ← pending_max</text>
</g>
<!-- block&#45;&gt;closew -->
<g id="edge6" class="edge">
<title>block&#45;&gt;closew</title>
<path fill="none" stroke="#c1a78e" d="M242,-792.68C242,-784.48 242,-774.96 242,-765.78"/>
<polygon fill="#c1a78e" stroke="#c1a78e" points="244.8,-765.92 242,-757.92 239.2,-765.92 244.8,-765.92"/>
</g>
<!-- chrows -->
<g id="node15" class="node">
<title>chrows</title>
<path fill="#4d4128" stroke="#6e6963" d="M515,-619.25C515,-623.32 483.18,-626.62 444,-626.62 404.82,-626.62 373,-623.32 373,-619.25 373,-619.25 373,-552.88 373,-552.88 373,-548.81 404.82,-545.5 444,-545.5 483.18,-545.5 515,-548.81 515,-552.88 515,-552.88 515,-619.25 515,-619.25"/>
<path fill="none" stroke="#6e6963" d="M515,-619.25C515,-615.18 483.18,-611.88 444,-611.88 404.82,-611.88 373,-615.18 373,-619.25"/>
<text xml:space="preserve" text-anchor="middle" x="444" y="-602.06" font-family="Helvetica,sans-Serif" font-size="10.00" fill="#ece1d7">CH TCP #1</text>
<text xml:space="preserve" text-anchor="middle" x="444" y="-589.31" font-family="Helvetica,sans-Serif" font-size="10.00" fill="#ece1d7">clickhouse&#45;c&#45;rs Client</text>
<text xml:space="preserve" text-anchor="middle" x="444" y="-576.56" font-family="Helvetica,sans-Serif" font-size="10.00" fill="#ece1d7">ReplacingMergeTree(_lsn)</text>
<text xml:space="preserve" text-anchor="middle" x="444" y="-563.81" font-family="Helvetica,sans-Serif" font-size="10.00" fill="#ece1d7">Native rows</text>
</g>
<!-- block&#45;&gt;chrows -->
<g id="edge13" class="edge">
<title>block&#45;&gt;chrows</title>
<path fill="none" stroke="#bf8c5f" stroke-width="2" d="M293.83,-792.72C311.77,-783.21 331.1,-770.9 346,-756.12 380.46,-721.95 407.01,-673.18 423.73,-636.8"/>
<polygon fill="#bf8c5f" stroke="#bf8c5f" stroke-width="2" points="426.22,-638.09 426.94,-629.65 421.11,-635.8 426.22,-638.09"/>
<text xml:space="preserve" text-anchor="middle" x="423.62" y="-723.7" font-family="Helvetica,sans-Serif" font-size="9.00" fill="#ece1d7">Native block</text>
</g>
<!-- closew&#45;&gt;chrows -->
<g id="edge14" class="edge">
<title>closew&#45;&gt;chrows</title>
<path fill="none" stroke="#bf8c5f" stroke-dasharray="5,2" d="M270,-696.63C281.35,-686.29 295.1,-675.35 309.25,-667.88 321.36,-661.48 326.58,-665.64 339,-659.88 355.62,-652.16 372.45,-641.84 387.62,-631.41"/>
<polygon fill="#bf8c5f" stroke="#bf8c5f" points="389.21,-633.71 394.15,-626.82 385.99,-629.13 389.21,-633.71"/>
<text xml:space="preserve" text-anchor="middle" x="339.62" y="-670.58" font-family="Helvetica,sans-Serif" font-size="9.00" fill="#ece1d7">EndOfStream</text>
</g>
<!-- ack -->
<g id="node17" class="node">
<title>ack</title>
<polygon fill="#4d3a28" stroke="#6e6963" points="318,-615.56 116,-615.56 116,-556.56 324,-556.56 324,-609.56 318,-615.56"/>
<polyline fill="none" stroke="#6e6963" points="318,-615.56 318,-609.56"/>
<polyline fill="none" stroke="#6e6963" points="324,-609.56 318,-609.56"/>
<text xml:space="preserve" text-anchor="middle" x="220" y="-602.06" font-family="Helvetica,sans-Serif" font-size="10.00" fill="#ece1d7">EmitterObserver::on_xact_end / on_idle</text>
<text xml:space="preserve" text-anchor="middle" x="220" y="-589.31" font-family="Helvetica,sans-Serif" font-size="10.00" fill="#ece1d7">returns last_durable_commit_lsn</text>
<text xml:space="preserve" text-anchor="middle" x="220" y="-576.56" font-family="Helvetica,sans-Serif" font-size="10.00" fill="#ece1d7">idle_ack_ceiling caps idle advance</text>
<text xml:space="preserve" text-anchor="middle" x="220" y="-563.81" font-family="Helvetica,sans-Serif" font-size="10.00" fill="#ece1d7">→ cursor::emitter_ack_lsn</text>
</g>
<!-- closew&#45;&gt;ack -->
<g id="edge18" class="edge">
<title>closew&#45;&gt;ack</title>
<path fill="none" stroke="#b380b0" stroke-dasharray="1,5" d="M224.42,-696.68C221.76,-691.04 219.44,-685.04 218,-679.12 213.73,-661.56 213.63,-641.55 214.84,-624.69"/>
<polygon fill="#b380b0" stroke="#b380b0" points="217.58,-625.4 215.49,-617.18 212.01,-624.91 217.58,-625.4"/>
<text xml:space="preserve" text-anchor="middle" x="246.5" y="-670.58" font-family="Helvetica,sans-Serif" font-size="9.00" fill="#ece1d7">advance ack</text>
</g>
<!-- trunc&#45;&gt;chrows -->
<g id="edge15" class="edge">
<title>trunc&#45;&gt;chrows</title>
<path fill="none" stroke="#bf8c5f" stroke-dasharray="5,2" d="M447.31,-1412.03C466.8,-1389.93 492,-1354.25 492,-1317.5 492,-1317.5 492,-1317.5 492,-725.62 492,-694.52 481.07,-661.54 469.63,-635.56"/>
<polygon fill="#bf8c5f" stroke="#bf8c5f" points="472.24,-634.53 466.38,-628.41 467.14,-636.85 472.24,-634.53"/>
<text xml:space="preserve" text-anchor="middle" x="515.62" y="-964.83" font-family="Helvetica,sans-Serif" font-size="9.00" fill="#ece1d7">TRUNCATE</text>
</g>
<!-- apply -->
<g id="node13" class="node">
<title>apply</title>
<path fill="#5d4628" stroke="#6e6963" d="M753.5,-1352.38C753.5,-1352.38 548.5,-1352.38 548.5,-1352.38 542.5,-1352.38 536.5,-1346.38 536.5,-1340.38 536.5,-1340.38 536.5,-1292.62 536.5,-1292.62 536.5,-1286.62 542.5,-1280.62 548.5,-1280.62 548.5,-1280.62 753.5,-1280.62 753.5,-1280.62 759.5,-1280.62 765.5,-1286.62 765.5,-1292.62 765.5,-1292.62 765.5,-1340.38 765.5,-1340.38 765.5,-1346.38 759.5,-1352.38 753.5,-1352.38"/>
<text xml:space="preserve" text-anchor="middle" x="651" y="-1338.88" font-family="Helvetica,sans-Serif" font-size="10.00" fill="#ece1d7">DdlApplicator::apply</text>
<text xml:space="preserve" text-anchor="middle" x="651" y="-1326.12" font-family="Helvetica,sans-Serif" font-size="10.00" fill="#ece1d7">Added &#160;→ CREATE TABLE IF NOT EXISTS</text>
<text xml:space="preserve" text-anchor="middle" x="651" y="-1313.38" font-family="Helvetica,sans-Serif" font-size="10.00" fill="#ece1d7">Changed → RENAME / ADD / DROP COLUMN</text>
<text xml:space="preserve" text-anchor="middle" x="651" y="-1300.62" font-family="Helvetica,sans-Serif" font-size="10.00" fill="#ece1d7">Dropped → DropTableStrategy</text>
<text xml:space="preserve" text-anchor="middle" x="651" y="-1287.88" font-family="Helvetica,sans-Serif" font-size="10.00" fill="#ece1d7">(target_database + drop per&#45;namespace)</text>
</g>
<!-- dispatch&#45;&gt;apply -->
<g id="edge8" class="edge">
<title>dispatch&#45;&gt;apply</title>
<path fill="none" stroke="#c1a78e" d="M633.5,-1399.4C636.02,-1387.6 638.87,-1374.27 641.52,-1361.86"/>
<polygon fill="#c1a78e" stroke="#c1a78e" points="644.25,-1362.47 643.19,-1354.06 638.78,-1361.3 644.25,-1362.47"/>
</g>
<!-- bridge -->
<g id="node12" class="node">
<title>bridge</title>
<path fill="#5d4628" stroke="#6e6963" d="M878.25,-1465C878.25,-1465 755.75,-1465 755.75,-1465 749.75,-1465 743.75,-1459 743.75,-1453 743.75,-1453 743.75,-1418 743.75,-1418 743.75,-1412 749.75,-1406 755.75,-1406 755.75,-1406 878.25,-1406 878.25,-1406 884.25,-1406 890.25,-1412 890.25,-1418 890.25,-1418 890.25,-1453 890.25,-1453 890.25,-1459 884.25,-1465 878.25,-1465"/>
<text xml:space="preserve" text-anchor="middle" x="817" y="-1451.5" font-family="Helvetica,sans-Serif" font-size="10.00" fill="#ece1d7">type_bridge::map</text>
<text xml:space="preserve" text-anchor="middle" x="817" y="-1438.75" font-family="Helvetica,sans-Serif" font-size="10.00" fill="#ece1d7">RelAttr → ResolvedColumn</text>
<text xml:space="preserve" text-anchor="middle" x="817" y="-1426" font-family="Helvetica,sans-Serif" font-size="10.00" fill="#ece1d7">(reject widen,</text>
<text xml:space="preserve" text-anchor="middle" x="817" y="-1413.25" font-family="Helvetica,sans-Serif" font-size="10.00" fill="#ece1d7"> pk strips Nullable)</text>
</g>
<!-- bridge&#45;&gt;apply -->
<g id="edge10" class="edge">
<title>bridge&#45;&gt;apply</title>
<path fill="none" stroke="#c1a78e" stroke-dasharray="5,2" d="M775.97,-1405.58C755.7,-1391.29 730.9,-1373.81 708.75,-1358.2"/>
<polygon fill="#c1a78e" stroke="#c1a78e" points="710.43,-1355.96 702.27,-1353.64 707.2,-1360.54 710.43,-1355.96"/>
<text xml:space="preserve" text-anchor="middle" x="768.6" y="-1373.08" font-family="Helvetica,sans-Serif" font-size="9.00" fill="#ece1d7">resolve types</text>
</g>
<!-- ddlsql -->
<g id="node14" class="node">
<title>ddlsql</title>
<path fill="#5d4628" stroke="#6e6963" d="M680.12,-1224.5C680.12,-1224.5 571.88,-1224.5 571.88,-1224.5 565.88,-1224.5 559.88,-1218.5 559.88,-1212.5 559.88,-1212.5 559.88,-1177.5 559.88,-1177.5 559.88,-1171.5 565.88,-1165.5 571.88,-1165.5 571.88,-1165.5 680.12,-1165.5 680.12,-1165.5 686.12,-1165.5 692.12,-1171.5 692.12,-1177.5 692.12,-1177.5 692.12,-1212.5 692.12,-1212.5 692.12,-1218.5 686.12,-1224.5 680.12,-1224.5"/>
<text xml:space="preserve" text-anchor="middle" x="626" y="-1211" font-family="Helvetica,sans-Serif" font-size="10.00" fill="#ece1d7">send_query(DDL SQL)</text>
<text xml:space="preserve" text-anchor="middle" x="626" y="-1198.25" font-family="Helvetica,sans-Serif" font-size="10.00" fill="#ece1d7">+ drain to EndOfStream</text>
<text xml:space="preserve" text-anchor="middle" x="626" y="-1185.5" font-family="Helvetica,sans-Serif" font-size="10.00" fill="#ece1d7">(per&#45;statement,</text>
<text xml:space="preserve" text-anchor="middle" x="626" y="-1172.75" font-family="Helvetica,sans-Serif" font-size="10.00" fill="#ece1d7"> no held&#45;open)</text>
</g>
<!-- apply&#45;&gt;ddlsql -->
<g id="edge9" class="edge">
<title>apply&#45;&gt;ddlsql</title>
<path fill="none" stroke="#c1a78e" d="M643.63,-1280.29C640.58,-1265.7 637.03,-1248.74 633.92,-1233.87"/>
<polygon fill="#c1a78e" stroke="#c1a78e" points="636.74,-1233.67 632.36,-1226.41 631.26,-1234.81 636.74,-1233.67"/>
</g>
<!-- ddlsql&#45;&gt;route -->
<g id="edge17" class="edge">
<title>ddlsql&#45;&gt;route</title>
<path fill="none" stroke="#b380b0" stroke-dasharray="1,5" d="M692.41,-1216.9C723.83,-1230.18 758.98,-1250.65 780,-1280.62 902.61,-1455.48 811.59,-1363.34 794,-1381.62 775.96,-1400.37 351.81,-1396.31 326,-1399.62 297.46,-1403.29 266.47,-1409.61 239.55,-1415.87"/>
<polygon fill="#b380b0" stroke="#b380b0" points="239.21,-1413.07 232.06,-1417.63 240.49,-1418.52 239.21,-1413.07"/>
<text xml:space="preserve" text-anchor="middle" x="889.54" y="-1324.83" font-family="Helvetica,sans-Serif" font-size="9.00" fill="#ece1d7">await_ready</text>
<text xml:space="preserve" text-anchor="middle" x="889.54" y="-1313.58" font-family="Helvetica,sans-Serif" font-size="9.00" fill="#ece1d7">next route rebuilds</text>
<text xml:space="preserve" text-anchor="middle" x="889.54" y="-1302.33" font-family="Helvetica,sans-Serif" font-size="9.00" fill="#ece1d7">TablePlan off post&#45;DDL desc</text>
</g>
<!-- chddl -->
<g id="node16" class="node">
<title>chddl</title>
<path fill="#4d4128" stroke="#6e6963" d="M665.5,-619.25C665.5,-623.32 638.38,-626.62 605,-626.62 571.62,-626.62 544.5,-623.32 544.5,-619.25 544.5,-619.25 544.5,-552.88 544.5,-552.88 544.5,-548.81 571.62,-545.5 605,-545.5 638.38,-545.5 665.5,-548.81 665.5,-552.88 665.5,-552.88 665.5,-619.25 665.5,-619.25"/>
<path fill="none" stroke="#6e6963" d="M665.5,-619.25C665.5,-615.18 638.38,-611.88 605,-611.88 571.62,-611.88 544.5,-615.18 544.5,-619.25"/>
<text xml:space="preserve" text-anchor="middle" x="605" y="-602.06" font-family="Helvetica,sans-Serif" font-size="10.00" fill="#ece1d7">CH TCP #2</text>
<text xml:space="preserve" text-anchor="middle" x="605" y="-589.31" font-family="Helvetica,sans-Serif" font-size="10.00" fill="#ece1d7">clickhouse&#45;c&#45;rs Client</text>
<text xml:space="preserve" text-anchor="middle" x="605" y="-576.56" font-family="Helvetica,sans-Serif" font-size="10.00" fill="#ece1d7">ALTER / CREATE /</text>
<text xml:space="preserve" text-anchor="middle" x="605" y="-563.81" font-family="Helvetica,sans-Serif" font-size="10.00" fill="#ece1d7"> DROP / TRUNCATE</text>
</g>
<!-- ddlsql&#45;&gt;chddl -->
<g id="edge16" class="edge">
<title>ddlsql&#45;&gt;chddl</title>
<path fill="none" stroke="#bf8c5f" stroke-width="2" stroke-dasharray="5,2" d="M622.46,-1165.1C619.24,-1136.32 615,-1090.86 615,-1051.38 615,-1051.38 615,-1051.38 615,-725.62 615,-696.5 612.78,-664.02 610.42,-637.84"/>
<polygon fill="#bf8c5f" stroke="#bf8c5f" stroke-width="2" points="613.23,-637.75 609.7,-630.04 607.65,-638.27 613.23,-637.75"/>
<text xml:space="preserve" text-anchor="middle" x="644.62" y="-871.33" font-family="Helvetica,sans-Serif" font-size="9.00" fill="#ece1d7">DDL SQL</text>
<text xml:space="preserve" text-anchor="middle" x="644.62" y="-860.08" font-family="Helvetica,sans-Serif" font-size="9.00" fill="#ece1d7">(second TCP)</text>
</g>
<!-- legend -->
<g id="node18" class="node">
<title>legend</title>
<path fill="#6e6963" stroke="none" d="M821.25,-508.5C821.25,-508.5 226.75,-508.5 226.75,-508.5 220.75,-508.5 214.75,-502.5 214.75,-496.5 214.75,-496.5 214.75,-12 214.75,-12 214.75,-6 220.75,0 226.75,0 226.75,0 821.25,0 821.25,0 827.25,0 833.25,-6 833.25,-12 833.25,-12 833.25,-496.5 833.25,-496.5 833.25,-502.5 827.25,-508.5 821.25,-508.5"/>
<polygon fill="#34302c" stroke="none" points="222.75,-481.75 222.75,-504.5 825.25,-504.5 825.25,-481.75 222.75,-481.75"/>
<polygon fill="none" stroke="#6e6963" points="222.75,-481.75 222.75,-504.5 825.25,-504.5 825.25,-481.75 222.75,-481.75"/>
<text xml:space="preserve" text-anchor="start" x="480.88" y="-491" font-family="Helvetica,sans-Serif" font-weight="bold" font-size="10.00" fill="#ece1d7">node fill — role</text>
<polygon fill="#4d4128" stroke="none" points="222.75,-459 222.75,-481.75 426.12,-481.75 426.12,-459 222.75,-459"/>
<polygon fill="none" stroke="#6e6963" points="222.75,-459 222.75,-481.75 426.12,-481.75 426.12,-459 222.75,-459"/>
<polygon fill="none" stroke="#6e6963" points="426.12,-459 426.12,-481.75 825.25,-481.75 825.25,-459 426.12,-459"/>
<text xml:space="preserve" text-anchor="start" x="553.31" y="-467" font-family="Helvetica,sans-Serif" font-size="10.00" fill="#ece1d7">xact&#45;buffer drain / ClickHouse</text>
<polygon fill="#4d4d28" stroke="none" points="222.75,-436.25 222.75,-459 426.12,-459 426.12,-436.25 222.75,-436.25"/>
<polygon fill="none" stroke="#6e6963" points="222.75,-436.25 222.75,-459 426.12,-459 426.12,-436.25 222.75,-436.25"/>
<polygon fill="none" stroke="#6e6963" points="426.12,-436.25 426.12,-459 825.25,-459 825.25,-436.25 426.12,-436.25"/>
<text xml:space="preserve" text-anchor="start" x="545.06" y="-444.25" font-family="Helvetica,sans-Serif" font-size="10.00" fill="#ece1d7">ShadowCatalog schema&#45;event tx</text>
<polygon fill="#5d4628" stroke="none" points="222.75,-413.5 222.75,-436.25 426.12,-436.25 426.12,-413.5 222.75,-413.5"/>
<polygon fill="none" stroke="#6e6963" points="222.75,-413.5 222.75,-436.25 426.12,-436.25 426.12,-413.5 222.75,-413.5"/>
<polygon fill="none" stroke="#6e6963" points="426.12,-413.5 426.12,-436.25 825.25,-436.25 825.25,-413.5 426.12,-413.5"/>
<text xml:space="preserve" text-anchor="start" x="530.06" y="-421.5" font-family="Helvetica,sans-Serif" font-size="10.00" fill="#ece1d7">walshadow CH emitter + DdlApplicator</text>
<polygon fill="#4d3a28" stroke="none" points="222.75,-390.75 222.75,-413.5 426.12,-413.5 426.12,-390.75 222.75,-390.75"/>
<polygon fill="none" stroke="#6e6963" points="222.75,-390.75 222.75,-413.5 426.12,-413.5 426.12,-390.75 222.75,-390.75"/>
<polygon fill="none" stroke="#6e6963" points="426.12,-390.75 426.12,-413.5 825.25,-413.5 825.25,-390.75 426.12,-390.75"/>
<text xml:space="preserve" text-anchor="start" x="564.94" y="-398.75" font-family="Helvetica,sans-Serif" font-size="10.00" fill="#ece1d7">cursor / ack side&#45;channel</text>
<polygon fill="#34302c" stroke="none" points="222.75,-368 222.75,-390.75 825.25,-390.75 825.25,-368 222.75,-368"/>
<polygon fill="none" stroke="#6e6963" points="222.75,-368 222.75,-390.75 825.25,-390.75 825.25,-368 222.75,-368"/>
<text xml:space="preserve" text-anchor="start" x="494" y="-377.25" font-family="Helvetica,sans-Serif" font-weight="bold" font-size="10.00" fill="#ece1d7">edge style</text>
<polygon fill="none" stroke="#6e6963" points="222.75,-345.25 222.75,-368 426.12,-368 426.12,-345.25 222.75,-345.25"/>
<text xml:space="preserve" text-anchor="start" x="318.44" y="-354.5" font-family="Helvetica,sans-Serif" font-weight="bold" font-size="10.00" fill="#bf8c5f">━━</text>
<polygon fill="none" stroke="#6e6963" points="426.12,-345.25 426.12,-368 825.25,-368 825.25,-345.25 426.12,-345.25"/>
<text xml:space="preserve" text-anchor="start" x="550.31" y="-353.25" font-family="Helvetica,sans-Serif" font-size="10.00" fill="#ece1d7">CH Native rows (TCP #1, solid)</text>
<polygon fill="none" stroke="#6e6963" points="222.75,-322.5 222.75,-345.25 426.12,-345.25 426.12,-322.5 222.75,-322.5"/>
<text xml:space="preserve" text-anchor="start" x="318.44" y="-331.75" font-family="Helvetica,sans-Serif" font-weight="bold" font-size="10.00" fill="#bf8c5f">┄┄</text>
<polygon fill="none" stroke="#6e6963" points="426.12,-322.5 426.12,-345.25 825.25,-345.25 825.25,-322.5 426.12,-322.5"/>
<text xml:space="preserve" text-anchor="start" x="552.56" y="-330.5" font-family="Helvetica,sans-Serif" font-size="10.00" fill="#ece1d7">CH DDL SQL (TCP #2, dashed)</text>
<polygon fill="none" stroke="#6e6963" points="222.75,-299.75 222.75,-322.5 426.12,-322.5 426.12,-299.75 222.75,-299.75"/>
<text xml:space="preserve" text-anchor="start" x="318.44" y="-309" font-family="Helvetica,sans-Serif" font-weight="bold" font-size="10.00" fill="#cba85e">┄┄</text>
<polygon fill="none" stroke="#6e6963" points="426.12,-299.75 426.12,-322.5 825.25,-322.5 825.25,-299.75 426.12,-299.75"/>
<text xml:space="preserve" text-anchor="start" x="545.06" y="-307.75" font-family="Helvetica,sans-Serif" font-size="10.00" fill="#ece1d7">SchemaEvent off ShadowCatalog</text>
<polygon fill="none" stroke="#6e6963" points="222.75,-277 222.75,-299.75 426.12,-299.75 426.12,-277 222.75,-277"/>
<text xml:space="preserve" text-anchor="start" x="318.81" y="-286.25" font-family="Helvetica,sans-Serif" font-weight="bold" font-size="10.00" fill="#b380b0">···</text>
<polygon fill="none" stroke="#6e6963" points="426.12,-277 426.12,-299.75 825.25,-299.75 825.25,-277 426.12,-277"/>
<text xml:space="preserve" text-anchor="start" x="558.94" y="-285" font-family="Helvetica,sans-Serif" font-size="10.00" fill="#ece1d7">await_ready gate / ack&#45;LSN</text>
<polygon fill="#34302c" stroke="none" points="222.75,-254.25 222.75,-277 825.25,-277 825.25,-254.25 222.75,-254.25"/>
<polygon fill="none" stroke="#6e6963" points="222.75,-254.25 222.75,-277 825.25,-277 825.25,-254.25 222.75,-254.25"/>
<text xml:space="preserve" text-anchor="start" x="419.75" y="-263.5" font-family="Helvetica,sans-Serif" font-weight="bold" font-size="10.00" fill="#ece1d7">synthetic columns (every dest table)</text>
<polygon fill="none" stroke="#6e6963" points="222.75,-231.5 222.75,-254.25 426.12,-254.25 426.12,-231.5 222.75,-231.5"/>
<text xml:space="preserve" text-anchor="start" x="313.94" y="-239.5" font-family="monospace" font-size="10.00" fill="#ece1d7">_lsn</text>
<polygon fill="none" stroke="#6e6963" points="426.12,-231.5 426.12,-254.25 825.25,-254.25 825.25,-231.5 426.12,-231.5"/>
<text xml:space="preserve" text-anchor="start" x="494.06" y="-239.5" font-family="Helvetica,sans-Serif" font-size="10.00" fill="#ece1d7">UInt64 — commit_lsn; ReplacingMergeTree dedup key</text>
<polygon fill="none" stroke="#6e6963" points="222.75,-208.75 222.75,-231.5 426.12,-231.5 426.12,-208.75 222.75,-208.75"/>
<text xml:space="preserve" text-anchor="start" x="313.94" y="-216.75" font-family="monospace" font-size="10.00" fill="#ece1d7">_xid</text>
<polygon fill="none" stroke="#6e6963" points="426.12,-208.75 426.12,-231.5 825.25,-231.5 825.25,-208.75 426.12,-208.75"/>
<text xml:space="preserve" text-anchor="start" x="516.19" y="-216.75" font-family="Helvetica,sans-Serif" font-size="10.00" fill="#ece1d7">UInt32 — source xid; recovers xact boundary</text>
<polygon fill="none" stroke="#6e6963" points="222.75,-186 222.75,-208.75 426.12,-208.75 426.12,-186 222.75,-186"/>
<text xml:space="preserve" text-anchor="start" x="316.56" y="-194" font-family="monospace" font-size="10.00" fill="#ece1d7">_op</text>
<polygon fill="none" stroke="#6e6963" points="426.12,-186 426.12,-208.75 825.25,-208.75 825.25,-186 426.12,-186"/>
<text xml:space="preserve" text-anchor="start" x="485.81" y="-194" font-family="Helvetica,sans-Serif" font-size="10.00" fill="#ece1d7">Enum8(insert=1, update=2, delete=3); HOT_UPDATE → 2</text>
<polygon fill="none" stroke="#6e6963" points="222.75,-163.25 222.75,-186 426.12,-186 426.12,-163.25 222.75,-163.25"/>
<text xml:space="preserve" text-anchor="start" x="298.19" y="-171.25" font-family="monospace" font-size="10.00" fill="#ece1d7">_commit_ts</text>
<polygon fill="none" stroke="#6e6963" points="426.12,-163.25 426.12,-186 825.25,-186 825.25,-163.25 426.12,-163.25"/>
<text xml:space="preserve" text-anchor="start" x="475.69" y="-171.25" font-family="Helvetica,sans-Serif" font-size="10.00" fill="#ece1d7">DateTime64(6, &#39;UTC&#39;); xl_xact_commit shifted from PG epoch</text>
<polygon fill="#34302c" stroke="none" points="222.75,-140.5 222.75,-163.25 825.25,-163.25 825.25,-140.5 222.75,-140.5"/>
<polygon fill="none" stroke="#6e6963" points="222.75,-140.5 222.75,-163.25 825.25,-163.25 825.25,-140.5 222.75,-140.5"/>
<text xml:space="preserve" text-anchor="start" x="381.5" y="-149.75" font-family="Helvetica,sans-Serif" font-weight="bold" font-size="10.00" fill="#ece1d7">seal triggers — each flushes one complete INSERT</text>
<polygon fill="none" stroke="#6e6963" points="222.75,-117.75 222.75,-140.5 426.12,-140.5 426.12,-117.75 222.75,-117.75"/>
<text xml:space="preserve" text-anchor="start" x="295.94" y="-125.75" font-family="Helvetica,sans-Serif" font-size="10.00" fill="#ece1d7">row_budget</text>
<polygon fill="none" stroke="#6e6963" points="426.12,-117.75 426.12,-140.5 825.25,-140.5 825.25,-117.75 426.12,-117.75"/>
<text xml:space="preserve" text-anchor="start" x="581.81" y="-125.75" font-family="Helvetica,sans-Serif" font-size="10.00" fill="#ece1d7">enc.rows ≥ 65536</text>
<polygon fill="none" stroke="#6e6963" points="222.75,-95 222.75,-117.75 426.12,-117.75 426.12,-95 222.75,-95"/>
<text xml:space="preserve" text-anchor="start" x="294.06" y="-103" font-family="Helvetica,sans-Serif" font-size="10.00" fill="#ece1d7">byte_budget</text>
<polygon fill="none" stroke="#6e6963" points="426.12,-95 426.12,-117.75 825.25,-117.75 825.25,-95 426.12,-95"/>
<text xml:space="preserve" text-anchor="start" x="561.56" y="-103" font-family="Helvetica,sans-Serif" font-size="10.00" fill="#ece1d7">enc.approx_bytes ≥ 1 MiB</text>
<polygon fill="none" stroke="#6e6963" points="222.75,-72.25 222.75,-95 426.12,-95 426.12,-72.25 222.75,-72.25"/>
<text xml:space="preserve" text-anchor="start" x="303.44" y="-80.25" font-family="Helvetica,sans-Serif" font-size="10.00" fill="#ece1d7">deadline</text>
<polygon fill="none" stroke="#6e6963" points="426.12,-72.25 426.12,-95 825.25,-95 825.25,-72.25 426.12,-72.25"/>
<text xml:space="preserve" text-anchor="start" x="514.31" y="-80.25" font-family="Helvetica,sans-Serif" font-size="10.00" fill="#ece1d7">flush_timeout elapsed since first buffered row</text>
<polygon fill="none" stroke="#6e6963" points="222.75,-49.5 222.75,-72.25 426.12,-72.25 426.12,-49.5 222.75,-49.5"/>
<text xml:space="preserve" text-anchor="start" x="289.94" y="-57.5" font-family="Helvetica,sans-Serif" font-size="10.00" fill="#ece1d7">schema event</text>
<polygon fill="none" stroke="#6e6963" points="426.12,-49.5 426.12,-72.25 825.25,-72.25 825.25,-49.5 426.12,-49.5"/>
<text xml:space="preserve" text-anchor="start" x="543.94" y="-57.5" font-family="Helvetica,sans-Serif" font-size="10.00" fill="#ece1d7">surgical seal on affected key only</text>
<polygon fill="none" stroke="#6e6963" points="222.75,-26.75 222.75,-49.5 426.12,-49.5 426.12,-26.75 222.75,-26.75"/>
<text xml:space="preserve" text-anchor="start" x="272.31" y="-34.75" font-family="Helvetica,sans-Serif" font-size="10.00" fill="#ece1d7">TRUNCATE / on_close</text>
<polygon fill="none" stroke="#6e6963" points="426.12,-26.75 426.12,-49.5 825.25,-49.5 825.25,-26.75 426.12,-26.75"/>
<text xml:space="preserve" text-anchor="start" x="586.69" y="-34.75" font-family="Helvetica,sans-Serif" font-size="10.00" fill="#ece1d7">full seal + drain</text>
<polygon fill="none" stroke="#6e6963" points="222.75,-4 222.75,-26.75 825.25,-26.75 825.25,-4 222.75,-4"/>
<text xml:space="preserve" text-anchor="start" x="227.75" y="-12" font-family="Helvetica,sans-Serif" font-size="10.00" fill="#ece1d7">seal = open_wire → send_data(Some) → send_data(None) → EndOfStream → clear buffer (replay&#45;safe; CH dedups by _lsn)</text>
</g>
<!-- chrows&#45;&gt;legend -->
<!-- chddl&#45;&gt;legend -->
</g>
</svg>
