<?xml version="1.0" encoding="UTF-8" standalone="no"?>
<!DOCTYPE svg PUBLIC "-//W3C//DTD SVG 1.1//EN"
 "http://www.w3.org/Graphics/SVG/1.1/DTD/svg11.dtd">
<!-- Generated by graphviz version 14.1.5 (0)
 -->
<!-- Title: emitter Pages: 1 -->
<svg width="1278pt" height="1712pt"
 viewBox="0.00 0.00 1278.00 1712.00" xmlns="http://www.w3.org/2000/svg" xmlns:xlink="http://www.w3.org/1999/xlink">
<g id="graph0" class="graph" transform="scale(1 1) rotate(0) translate(4 1707.88)">
<title>emitter</title>
<polygon fill="#272623" stroke="none" points="-4,4 -4,-1707.88 1273.51,-1707.88 1273.51,4 -4,4"/>
<text xml:space="preserve" text-anchor="middle" x="634.75" y="-1686.58" font-family="Helvetica,sans-Serif" font-size="14.00" fill="#ece1d7">walshadow CH emitter — parallel pipeline: reorder → decode ×M → batcher → inserter ×N → ack watermark</text>
<g id="clust1" class="cluster">
<title>cluster_src</title>
<path fill="#34302c" stroke="#4c4641" d="M97,-1355.62C97,-1355.62 843,-1355.62 843,-1355.62 849,-1355.62 855,-1361.62 855,-1367.62 855,-1367.62 855,-1658.62 855,-1658.62 855,-1664.62 849,-1670.62 843,-1670.62 843,-1670.62 97,-1670.62 97,-1670.62 91,-1670.62 85,-1664.62 85,-1658.62 85,-1658.62 85,-1367.62 85,-1367.62 85,-1361.62 91,-1355.62 97,-1355.62"/>
<text xml:space="preserve" text-anchor="middle" x="470" y="-1653.33" font-family="Helvetica,sans-Serif" font-size="14.00" fill="#ece1d7">reorder coordinator — single&#45;threaded commit order &#160;(pipeline/reorder.rs, inner sink of QueueingRecordSink)</text>
</g>
<g id="clust2" class="cluster">
<title>cluster_decode</title>
<path fill="#34302c" stroke="#4c4641" d="M328,-1202.12C328,-1202.12 580,-1202.12 580,-1202.12 586,-1202.12 592,-1208.12 592,-1214.12 592,-1214.12 592,-1303.12 592,-1303.12 592,-1309.12 586,-1315.12 580,-1315.12 580,-1315.12 328,-1315.12 328,-1315.12 322,-1315.12 316,-1309.12 316,-1303.12 316,-1303.12 316,-1214.12 316,-1214.12 316,-1208.12 322,-1202.12 328,-1202.12"/>
<text xml:space="preserve" text-anchor="middle" x="454" y="-1297.83" font-family="Helvetica,sans-Serif" font-size="14.00" fill="#ece1d7">decode pool ×M &#160;(pipeline/decode.rs)</text>
</g>
<g id="clust3" class="cluster">
<title>cluster_batch</title>
<path fill="#34302c" stroke="#4c4641" d="M536,-752.88C536,-752.88 1035,-752.88 1035,-752.88 1041,-752.88 1047,-758.88 1047,-764.88 1047,-764.88 1047,-1138.38 1047,-1138.38 1047,-1144.38 1041,-1150.38 1035,-1150.38 1035,-1150.38 536,-1150.38 536,-1150.38 530,-1150.38 524,-1144.38 524,-1138.38 524,-1138.38 524,-764.88 524,-764.88 524,-758.88 530,-752.88 536,-752.88"/>
<text xml:space="preserve" text-anchor="middle" x="785.5" y="-1133.08" font-family="Helvetica,sans-Serif" font-size="14.00" fill="#ece1d7">InsertBatcher — single hub, per&#45;table accumulation &#160;(pipeline/batcher.rs)</text>
</g>
<g id="clust4" class="cluster">
<title>cluster_insert</title>
<path fill="#34302c" stroke="#4c4641" d="M618,-586.62C618,-586.62 874,-586.62 874,-586.62 880,-586.62 886,-592.62 886,-598.62 886,-598.62 886,-700.38 886,-700.38 886,-706.38 880,-712.38 874,-712.38 874,-712.38 618,-712.38 618,-712.38 612,-712.38 606,-706.38 606,-700.38 606,-700.38 606,-598.62 606,-598.62 606,-592.62 612,-586.62 618,-586.62"/>
<text xml:space="preserve" text-anchor="middle" x="746" y="-695.08" font-family="Helvetica,sans-Serif" font-size="14.00" fill="#ece1d7">inserter pool ×N &#160;(pipeline/inserter.rs)</text>
</g>
<g id="clust5" class="cluster">
<title>cluster_ddl</title>
<path fill="#34302c" stroke="#4c4641" d="M20,-593C20,-593 504,-593 504,-593 510,-593 516,-599 516,-605 516,-605 516,-841.12 516,-841.12 516,-847.12 510,-853.12 504,-853.12 504,-853.12 20,-853.12 20,-853.12 14,-853.12 8,-847.12 8,-841.12 8,-841.12 8,-605 8,-605 8,-599 14,-593 20,-593"/>
<text xml:space="preserve" text-anchor="middle" x="262" y="-835.83" font-family="Helvetica,sans-Serif" font-size="14.00" fill="#ece1d7">DDL / TRUNCATE — barrier fence + DdlApplicator (own CH connection)</text>
</g>
<g id="clust6" class="cluster">
<title>cluster_ch</title>
<path fill="#34302c" stroke="#4c4641" d="M309,-423.75C309,-423.75 684,-423.75 684,-423.75 690,-423.75 696,-429.75 696,-435.75 696,-435.75 696,-534.12 696,-534.12 696,-540.12 690,-546.12 684,-546.12 684,-546.12 309,-546.12 309,-546.12 303,-546.12 297,-540.12 297,-534.12 297,-534.12 297,-435.75 297,-435.75 297,-429.75 303,-423.75 309,-423.75"/>
<text xml:space="preserve" text-anchor="middle" x="496.5" y="-528.83" font-family="Helvetica,sans-Serif" font-size="14.00" fill="#ece1d7">ClickHouse — one endpoint, N+1 connections</text>
</g>
<!-- reorder -->
<g id="node1" class="node">
<title>reorder</title>
<path fill="#4d4128" stroke="#6e6963" d="M432.25,-1435.38C432.25,-1435.38 237.75,-1435.38 237.75,-1435.38 231.75,-1435.38 225.75,-1429.38 225.75,-1423.38 225.75,-1423.38 225.75,-1375.62 225.75,-1375.62 225.75,-1369.62 231.75,-1363.62 237.75,-1363.62 237.75,-1363.62 432.25,-1363.62 432.25,-1363.62 438.25,-1363.62 444.25,-1369.62 444.25,-1375.62 444.25,-1375.62 444.25,-1423.38 444.25,-1423.38 444.25,-1429.38 438.25,-1435.38 432.25,-1435.38"/>
<text xml:space="preserve" text-anchor="middle" x="335" y="-1421.88" font-family="Helvetica,sans-Serif" font-size="10.00" fill="#ece1d7">ReorderSink::on_record (RM_XACT only)</text>
<text xml:space="preserve" text-anchor="middle" x="335" y="-1409.12" font-family="Helvetica,sans-Serif" font-size="10.00" fill="#ece1d7">COMMIT → drain_committed → dense seq</text>
<text xml:space="preserve" text-anchor="middle" x="335" y="-1396.38" font-family="Helvetica,sans-Serif" font-size="10.00" fill="#ece1d7">ABORT / empty commit → rows=0 seq</text>
<text xml:space="preserve" text-anchor="middle" x="335" y="-1383.62" font-family="Helvetica,sans-Serif" font-size="10.00" fill="#ece1d7">barrier xact (SchemaEvent / TRUNCATE):</text>
<text xml:space="preserve" text-anchor="middle" x="335" y="-1370.88" font-family="Helvetica,sans-Serif" font-size="10.00" fill="#ece1d7"> segment → fence → apply, per event</text>
</g>
<!-- decode -->
<g id="node3" class="node">
<title>decode</title>
<path fill="#4d4128" stroke="#6e6963" d="M535.5,-1281.88C535.5,-1281.88 360.5,-1281.88 360.5,-1281.88 354.5,-1281.88 348.5,-1275.88 348.5,-1269.88 348.5,-1269.88 348.5,-1222.12 348.5,-1222.12 348.5,-1216.12 354.5,-1210.12 360.5,-1210.12 360.5,-1210.12 535.5,-1210.12 535.5,-1210.12 541.5,-1210.12 547.5,-1216.12 547.5,-1222.12 547.5,-1222.12 547.5,-1269.88 547.5,-1269.88 547.5,-1275.88 541.5,-1281.88 535.5,-1281.88"/>
<text xml:space="preserve" text-anchor="middle" x="448" y="-1268.38" font-family="Helvetica,sans-Serif" font-size="10.00" fill="#ece1d7">decode worker ×M</text>
<text xml:space="preserve" text-anchor="middle" x="448" y="-1255.62" font-family="Helvetica,sans-Serif" font-size="10.00" fill="#ece1d7">detoast → resolve_at_pooled</text>
<text xml:space="preserve" text-anchor="middle" x="448" y="-1242.88" font-family="Helvetica,sans-Serif" font-size="10.00" fill="#ece1d7">(skip foreign&#45;DB / unmapped)</text>
<text xml:space="preserve" text-anchor="middle" x="448" y="-1230.12" font-family="Helvetica,sans-Serif" font-size="10.00" fill="#ece1d7">oracle PgPending + sampled validate</text>
<text xml:space="preserve" text-anchor="middle" x="448" y="-1217.38" font-family="Helvetica,sans-Serif" font-size="10.00" fill="#ece1d7">chunk 1024 rows / 4 MiB</text>
</g>
<!-- reorder&#45;&gt;decode -->
<g id="edge5" class="edge">
<title>reorder&#45;&gt;decode</title>
<path fill="none" stroke="#bf8c5f" stroke-width="2" d="M361.21,-1363.36C370.1,-1351.44 380.41,-1337.62 390.76,-1323.75"/>
<polygon fill="#bf8c5f" stroke="#bf8c5f" stroke-width="2" points="392.84,-1325.63 395.38,-1317.55 388.35,-1322.29 392.84,-1325.63"/>
<text xml:space="preserve" text-anchor="middle" x="432.36" y="-1337.08" font-family="Helvetica,sans-Serif" font-size="9.00" fill="#ece1d7">DecodeJob</text>
<text xml:space="preserve" text-anchor="middle" x="432.36" y="-1325.83" font-family="Helvetica,sans-Serif" font-size="9.00" fill="#ece1d7">(mpmc, bound 4M)</text>
</g>
<!-- fence -->
<g id="node8" class="node">
<title>fence</title>
<path fill="#5d4628" stroke="#6e6963" d="M320.62,-819.88C320.62,-819.88 191.38,-819.88 191.38,-819.88 185.38,-819.88 179.38,-813.88 179.38,-807.88 179.38,-807.88 179.38,-772.88 179.38,-772.88 179.38,-766.88 185.38,-760.88 191.38,-760.88 191.38,-760.88 320.62,-760.88 320.62,-760.88 326.62,-760.88 332.62,-766.88 332.62,-772.88 332.62,-772.88 332.62,-807.88 332.62,-807.88 332.62,-813.88 326.62,-819.88 320.62,-819.88"/>
<text xml:space="preserve" text-anchor="middle" x="256" y="-806.38" font-family="Helvetica,sans-Serif" font-size="10.00" fill="#ece1d7">barrier_fence</text>
<text xml:space="preserve" text-anchor="middle" x="256" y="-793.62" font-family="Helvetica,sans-Serif" font-size="10.00" fill="#ece1d7">1. wait all seqs placed</text>
<text xml:space="preserve" text-anchor="middle" x="256" y="-780.88" font-family="Helvetica,sans-Serif" font-size="10.00" fill="#ece1d7">2. batcher FlushAll (+ reply)</text>
<text xml:space="preserve" text-anchor="middle" x="256" y="-768.12" font-family="Helvetica,sans-Serif" font-size="10.00" fill="#ece1d7">3. wait all seqs durable</text>
</g>
<!-- reorder&#45;&gt;fence -->
<g id="edge10" class="edge">
<title>reorder&#45;&gt;fence</title>
<path fill="none" stroke="#bf8c5f" stroke-dasharray="5,2" d="M317.13,-1363.37C303.48,-1333.29 287,-1288.39 287,-1247 287,-1247 287,-1247 287,-948.38 287,-919.8 282,-888.85 276.01,-862.04"/>
<polygon fill="#bf8c5f" stroke="#bf8c5f" points="278.82,-861.76 274.29,-854.6 273.36,-863.02 278.82,-861.76"/>
<text xml:space="preserve" text-anchor="middle" x="336.88" y="-1083.95" font-family="Helvetica,sans-Serif" font-size="9.00" fill="#ece1d7">barrier xact:</text>
<text xml:space="preserve" text-anchor="middle" x="336.88" y="-1072.7" font-family="Helvetica,sans-Serif" font-size="9.00" fill="#ece1d7">per event / TRUNCATE</text>
</g>
<!-- ack -->
<g id="node13" class="node">
<title>ack</title>
<polygon fill="#4d3a28" stroke="#6e6963" points="1034.75,-508.19 717.25,-508.19 717.25,-436.44 1040.75,-436.44 1040.75,-502.19 1034.75,-508.19"/>
<polyline fill="none" stroke="#6e6963" points="1034.75,-508.19 1034.75,-502.19"/>
<polyline fill="none" stroke="#6e6963" points="1040.75,-502.19 1034.75,-502.19"/>
<text xml:space="preserve" text-anchor="middle" x="879" y="-494.69" font-family="Helvetica,sans-Serif" font-size="10.00" fill="#ece1d7">ack collector &#160;(pipeline/ack.rs)</text>
<text xml:space="preserve" text-anchor="middle" x="879" y="-481.94" font-family="Helvetica,sans-Serif" font-size="10.00" fill="#ece1d7">Register(seq, commit_lsn) · Placed(seq, rows) · Acked(per_seq)</text>
<text xml:space="preserve" text-anchor="middle" x="879" y="-469.19" font-family="Helvetica,sans-Serif" font-size="10.00" fill="#ece1d7">seq done ⇔ placed == acked &#160;(rows=0 done at placement)</text>
<text xml:space="preserve" text-anchor="middle" x="879" y="-456.44" font-family="Helvetica,sans-Serif" font-size="10.00" fill="#ece1d7">watermark = highest contiguous&#45;done commit_lsn</text>
<text xml:space="preserve" text-anchor="middle" x="879" y="-443.69" font-family="Helvetica,sans-Serif" font-size="10.00" fill="#ece1d7">→ emitter_ack atomic → cursor + standby apply_lsn</text>
</g>
<!-- reorder&#45;&gt;ack -->
<g id="edge13" class="edge">
<title>reorder&#45;&gt;ack</title>
<path fill="none" stroke="#b380b0" stroke-dasharray="1,5" d="M444.74,-1395.58C606.26,-1384.8 904.64,-1338.83 1051,-1150.38 1204.7,-952.47 1162.47,-814.38 1058,-586.62 1043.22,-554.4 1014.19,-530.38 983.75,-512.95"/>
<polygon fill="#b380b0" stroke="#b380b0" points="985.24,-510.58 976.88,-509.17 982.54,-515.48 985.24,-510.58"/>
<text xml:space="preserve" text-anchor="middle" x="1210.63" y="-946.45" font-family="Helvetica,sans-Serif" font-size="9.00" fill="#ece1d7">Register(seq, commit_lsn)</text>
</g>
<!-- cat -->
<g id="node2" class="node">
<title>cat</title>
<path fill="#4d4d28" stroke="#6e6963" d="M518.43,-1637.38C518.43,-1637.38 231.55,-1637.38 231.55,-1637.38 225.55,-1637.38 216.62,-1632.13 213.7,-1626.89 213.7,-1626.89 145.41,-1504.36 145.41,-1504.36 142.49,-1499.12 145.57,-1493.88 151.57,-1493.88 151.57,-1493.88 438.45,-1493.88 438.45,-1493.88 444.45,-1493.88 453.38,-1499.12 456.3,-1504.36 456.3,-1504.36 524.59,-1626.89 524.59,-1626.89 527.51,-1632.13 524.43,-1637.38 518.43,-1637.38"/>
<text xml:space="preserve" text-anchor="middle" x="335" y="-1588" font-family="Helvetica,sans-Serif" font-size="10.00" fill="#ece1d7">ShadowCatalog::subscribe</text>
<text xml:space="preserve" text-anchor="middle" x="335" y="-1575.25" font-family="Helvetica,sans-Serif" font-size="10.00" fill="#ece1d7">SchemaEvent</text>
<text xml:space="preserve" text-anchor="middle" x="335" y="-1562.5" font-family="Helvetica,sans-Serif" font-size="10.00" fill="#ece1d7">Added / Changed / Dropped</text>
<text xml:space="preserve" text-anchor="middle" x="335" y="-1549.75" font-family="Helvetica,sans-Serif" font-size="10.00" fill="#ece1d7">(unbounded mpsc, rides xact buffer</text>
<text xml:space="preserve" text-anchor="middle" x="335" y="-1537" font-family="Helvetica,sans-Serif" font-size="10.00" fill="#ece1d7"> as ordered_events)</text>
</g>
<!-- cat&#45;&gt;reorder -->
<g id="edge9" class="edge">
<title>cat&#45;&gt;reorder</title>
<path fill="none" stroke="#cba85e" stroke-dasharray="5,2" d="M335,-1493.59C335,-1477.1 335,-1460.01 335,-1445.04"/>
<polygon fill="#cba85e" stroke="#cba85e" points="337.8,-1445.05 335,-1437.05 332.2,-1445.05 337.8,-1445.05"/>
<text xml:space="preserve" text-anchor="middle" x="373.62" y="-1467.33" font-family="Helvetica,sans-Serif" font-size="9.00" fill="#ece1d7">SchemaEvent</text>
<text xml:space="preserve" text-anchor="middle" x="373.62" y="-1456.08" font-family="Helvetica,sans-Serif" font-size="9.00" fill="#ece1d7">drains at commit</text>
</g>
<!-- enc -->
<g id="node4" class="node">
<title>enc</title>
<polygon fill="#5d4628" stroke="#6e6963" points="775.62,-1117.12 586.38,-1117.12 586.38,-1045.38 781.62,-1045.38 781.62,-1111.12 775.62,-1117.12"/>
<polyline fill="none" stroke="#6e6963" points="775.62,-1117.12 775.62,-1111.12"/>
<polyline fill="none" stroke="#6e6963" points="781.62,-1111.12 775.62,-1111.12"/>
<text xml:space="preserve" text-anchor="middle" x="684" y="-1103.62" font-family="Helvetica,sans-Serif" font-size="10.00" fill="#ece1d7">TableEncoder per dest table</text>
<text xml:space="preserve" text-anchor="middle" x="684" y="-1090.88" font-family="Helvetica,sans-Serif" font-size="10.00" fill="#ece1d7">ColumnBuf slabs: Fixed / String /</text>
<text xml:space="preserve" text-anchor="middle" x="684" y="-1078.12" font-family="Helvetica,sans-Serif" font-size="10.00" fill="#ece1d7">NullableFixed / NullableString</text>
<text xml:space="preserve" text-anchor="middle" x="684" y="-1065.38" font-family="Helvetica,sans-Serif" font-size="10.00" fill="#ece1d7">column&#45;major + synthetic</text>
<text xml:space="preserve" text-anchor="middle" x="684" y="-1052.62" font-family="Helvetica,sans-Serif" font-size="10.00" fill="#ece1d7">_lsn / _xid / _commit_ts / _is_deleted</text>
</g>
<!-- decode&#45;&gt;enc -->
<g id="edge6" class="edge">
<title>decode&#45;&gt;enc</title>
<path fill="none" stroke="#bf8c5f" stroke-width="2" d="M457.96,-1210.03C464.47,-1192.54 474.59,-1172.22 489.5,-1158.38 497.27,-1151.16 505.81,-1144.59 514.83,-1138.63"/>
<polygon fill="#bf8c5f" stroke="#bf8c5f" stroke-width="2" points="516.16,-1141.1 521.44,-1134.48 513.18,-1136.36 516.16,-1141.1"/>
<text xml:space="preserve" text-anchor="middle" x="536.75" y="-1183.58" font-family="Helvetica,sans-Serif" font-size="9.00" fill="#ece1d7">BatcherMsg::Rows</text>
<text xml:space="preserve" text-anchor="middle" x="536.75" y="-1172.33" font-family="Helvetica,sans-Serif" font-size="9.00" fill="#ece1d7">(FIFO mpsc 256 —</text>
<text xml:space="preserve" text-anchor="middle" x="536.75" y="-1161.08" font-family="Helvetica,sans-Serif" font-size="9.00" fill="#ece1d7">shared with FlushAll)</text>
</g>
<!-- decode&#45;&gt;ack -->
<g id="edge14" class="edge">
<title>decode&#45;&gt;ack</title>
<path fill="none" stroke="#b380b0" stroke-dasharray="1,5" d="M442.41,-1209.81C433.13,-1137.31 423.85,-971.32 517,-890.38 522.61,-885.5 1045.93,-858.56 1051,-853.12 1081.39,-820.54 1054.71,-797.28 1051,-752.88 1044.76,-678.21 1061.23,-651.07 1023,-586.62 1005.49,-557.12 977.18,-532.36 950.27,-513.59"/>
<polygon fill="#b380b0" stroke="#b380b0" points="952.16,-511.49 943.97,-509.3 949.01,-516.12 952.16,-511.49"/>
<text xml:space="preserve" text-anchor="middle" x="995.78" y="-863.83" font-family="Helvetica,sans-Serif" font-size="9.00" fill="#ece1d7">Placed(seq, rows)</text>
</g>
<!-- trip -->
<g id="node5" class="node">
<title>trip</title>
<path fill="#5d4628" stroke="#6e6963" d="M727.46,-1005.08C727.46,-1005.08 544.04,-952.67 544.04,-952.67 538.27,-951.02 538.27,-947.73 544.04,-946.08 544.04,-946.08 727.46,-893.67 727.46,-893.67 733.23,-892.02 744.77,-892.02 750.54,-893.67 750.54,-893.67 933.96,-946.08 933.96,-946.08 939.73,-947.73 939.73,-951.02 933.96,-952.67 933.96,-952.67 750.54,-1005.08 750.54,-1005.08 744.77,-1006.73 733.23,-1006.73 727.46,-1005.08"/>
<text xml:space="preserve" text-anchor="middle" x="739" y="-965.38" font-family="Helvetica,sans-Serif" font-size="10.00" fill="#ece1d7">flush trigger</text>
<text xml:space="preserve" text-anchor="middle" x="739" y="-952.62" font-family="Helvetica,sans-Serif" font-size="10.00" fill="#ece1d7">row_budget 65536 · byte_budget 1 MiB</text>
<text xml:space="preserve" text-anchor="middle" x="739" y="-939.88" font-family="Helvetica,sans-Serif" font-size="10.00" fill="#ece1d7">per&#45;table deadline (flush_timeout,</text>
<text xml:space="preserve" text-anchor="middle" x="739" y="-927.12" font-family="Helvetica,sans-Serif" font-size="10.00" fill="#ece1d7"> 0 → 100 ms floor) · FlushAll</text>
</g>
<!-- enc&#45;&gt;trip -->
<g id="edge1" class="edge">
<title>enc&#45;&gt;trip</title>
<path fill="none" stroke="#c1a78e" d="M698.88,-1045.1C703.39,-1034.46 708.47,-1022.46 713.47,-1010.67"/>
<polygon fill="#c1a78e" stroke="#c1a78e" points="715.95,-1011.99 716.49,-1003.53 710.79,-1009.81 715.95,-1011.99"/>
</g>
<!-- seal -->
<g id="node6" class="node">
<title>seal</title>
<path fill="#5d4628" stroke="#6e6963" d="M822,-819.88C822,-819.88 656,-819.88 656,-819.88 650,-819.88 644,-813.88 644,-807.88 644,-807.88 644,-772.88 644,-772.88 644,-766.88 650,-760.88 656,-760.88 656,-760.88 822,-760.88 822,-760.88 828,-760.88 834,-766.88 834,-772.88 834,-772.88 834,-807.88 834,-807.88 834,-813.88 828,-819.88 822,-819.88"/>
<text xml:space="preserve" text-anchor="middle" x="739" y="-806.38" font-family="Helvetica,sans-Serif" font-size="10.00" fill="#ece1d7">seal InsertBatch</text>
<text xml:space="preserve" text-anchor="middle" x="739" y="-793.62" font-family="Helvetica,sans-Serif" font-size="10.00" fill="#ece1d7">owned slabs + per_seq row counts</text>
<text xml:space="preserve" text-anchor="middle" x="739" y="-780.88" font-family="Helvetica,sans-Serif" font-size="10.00" fill="#ece1d7">FlushAll also bumps schema_epoch</text>
<text xml:space="preserve" text-anchor="middle" x="739" y="-768.12" font-family="Helvetica,sans-Serif" font-size="10.00" fill="#ece1d7">(rebuild plans post&#45;DDL)</text>
</g>
<!-- trip&#45;&gt;seal -->
<g id="edge2" class="edge">
<title>trip&#45;&gt;seal</title>
<path fill="none" stroke="#c1a78e" d="M739,-889.91C739,-869.67 739,-847.51 739,-829.34"/>
<polygon fill="#c1a78e" stroke="#c1a78e" points="741.8,-829.49 739,-821.49 736.2,-829.49 741.8,-829.49"/>
</g>
<!-- ins -->
<g id="node7" class="node">
<title>ins</title>
<path fill="#5d4628" stroke="#6e6963" d="M834.75,-679.12C834.75,-679.12 643.25,-679.12 643.25,-679.12 637.25,-679.12 631.25,-673.12 631.25,-667.12 631.25,-667.12 631.25,-606.62 631.25,-606.62 631.25,-600.62 637.25,-594.62 643.25,-594.62 643.25,-594.62 834.75,-594.62 834.75,-594.62 840.75,-594.62 846.75,-600.62 846.75,-606.62 846.75,-606.62 846.75,-667.12 846.75,-667.12 846.75,-673.12 840.75,-679.12 834.75,-679.12"/>
<text xml:space="preserve" text-anchor="middle" x="739" y="-665.62" font-family="Helvetica,sans-Serif" font-size="10.00" fill="#ece1d7">inserter ×N — any idle takes any batch</text>
<text xml:space="preserve" text-anchor="middle" x="739" y="-652.88" font-family="Helvetica,sans-Serif" font-size="10.00" fill="#ece1d7">TypeAst cache per (table, epoch)</text>
<text xml:space="preserve" text-anchor="middle" x="739" y="-640.12" font-family="Helvetica,sans-Serif" font-size="10.00" fill="#ece1d7">BlockBuilder over owned slabs</text>
<text xml:space="preserve" text-anchor="middle" x="739" y="-627.38" font-family="Helvetica,sans-Serif" font-size="10.00" fill="#ece1d7">send_query → send_data → EndOfStream</text>
<text xml:space="preserve" text-anchor="middle" x="739" y="-614.62" font-family="Helvetica,sans-Serif" font-size="10.00" fill="#ece1d7">send_with_retry: reconnect + backoff,</text>
<text xml:space="preserve" text-anchor="middle" x="739" y="-601.88" font-family="Helvetica,sans-Serif" font-size="10.00" fill="#ece1d7">insert_timeout 30 s; exhaustion = Fatal</text>
</g>
<!-- seal&#45;&gt;ins -->
<g id="edge7" class="edge">
<title>seal&#45;&gt;ins</title>
<path fill="none" stroke="#bf8c5f" stroke-width="2" d="M739,-760.52C739,-749.64 739,-736.62 739,-723.19"/>
<polygon fill="#bf8c5f" stroke="#bf8c5f" stroke-width="2" points="741.8,-723.4 739,-715.4 736.2,-723.4 741.8,-723.4"/>
<text xml:space="preserve" text-anchor="middle" x="765.25" y="-734.33" font-family="Helvetica,sans-Serif" font-size="9.00" fill="#ece1d7">InsertBatch</text>
<text xml:space="preserve" text-anchor="middle" x="765.25" y="-723.08" font-family="Helvetica,sans-Serif" font-size="9.00" fill="#ece1d7">(mpmc)</text>
</g>
<!-- chrows -->
<g id="node11" class="node">
<title>chrows</title>
<path fill="#4d4128" stroke="#6e6963" d="M687.75,-505.5C687.75,-509.57 642.14,-512.88 586,-512.88 529.86,-512.88 484.25,-509.57 484.25,-505.5 484.25,-505.5 484.25,-439.12 484.25,-439.12 484.25,-435.06 529.86,-431.75 586,-431.75 642.14,-431.75 687.75,-435.06 687.75,-439.12 687.75,-439.12 687.75,-505.5 687.75,-505.5"/>
<path fill="none" stroke="#6e6963" d="M687.75,-505.5C687.75,-501.43 642.14,-498.12 586,-498.12 529.86,-498.12 484.25,-501.43 484.25,-505.5"/>
<text xml:space="preserve" text-anchor="middle" x="586" y="-488.31" font-family="Helvetica,sans-Serif" font-size="10.00" fill="#ece1d7">insert connections ×N</text>
<text xml:space="preserve" text-anchor="middle" x="586" y="-475.56" font-family="Helvetica,sans-Serif" font-size="10.00" fill="#ece1d7">clickhouse&#45;c&#45;rs AsyncClient</text>
<text xml:space="preserve" text-anchor="middle" x="586" y="-462.81" font-family="Helvetica,sans-Serif" font-size="10.00" fill="#ece1d7">ReplacingMergeTree(_lsn, _is_deleted)</text>
<text xml:space="preserve" text-anchor="middle" x="586" y="-450.06" font-family="Helvetica,sans-Serif" font-size="10.00" fill="#ece1d7">Native rows</text>
</g>
<!-- ins&#45;&gt;chrows -->
<g id="edge8" class="edge">
<title>ins&#45;&gt;chrows</title>
<path fill="none" stroke="#bf8c5f" stroke-width="2" d="M654.02,-594.2C646.87,-588.85 640.14,-582.99 634.25,-576.62 620.31,-561.55 609.74,-541.73 602.11,-523.49"/>
<polygon fill="#bf8c5f" stroke="#bf8c5f" stroke-width="2" points="604.72,-522.49 599.17,-516.08 599.52,-524.55 604.72,-522.49"/>
<text xml:space="preserve" text-anchor="middle" x="682.62" y="-568.08" font-family="Helvetica,sans-Serif" font-size="9.00" fill="#ece1d7">one complete INSERT</text>
<text xml:space="preserve" text-anchor="middle" x="682.62" y="-556.83" font-family="Helvetica,sans-Serif" font-size="9.00" fill="#ece1d7">per sealed batch</text>
</g>
<!-- ins&#45;&gt;ack -->
<g id="edge15" class="edge">
<title>ins&#45;&gt;ack</title>
<path fill="none" stroke="#b380b0" stroke-dasharray="1,5" d="M735.6,-594.44C736.28,-580.74 739.11,-565.98 746.5,-554.12 756.54,-538.01 771.1,-524.64 786.92,-513.73"/>
<polygon fill="#b380b0" stroke="#b380b0" points="788.36,-516.14 793.51,-509.41 785.28,-511.46 788.36,-516.14"/>
<text xml:space="preserve" text-anchor="middle" x="799.75" y="-568.08" font-family="Helvetica,sans-Serif" font-size="9.00" fill="#ece1d7">Acked(per_seq)</text>
<text xml:space="preserve" text-anchor="middle" x="799.75" y="-556.83" font-family="Helvetica,sans-Serif" font-size="9.00" fill="#ece1d7">only after EndOfStream</text>
</g>
<!-- fence&#45;&gt;trip -->
<g id="edge12" class="edge">
<title>fence&#45;&gt;trip</title>
<path fill="none" stroke="#b58b86" stroke-dasharray="5,2" d="M284.52,-820.35C303.58,-838.05 330.1,-859.64 357.5,-872.38 424.9,-903.7 504.86,-922.14 574.12,-932.98"/>
<polygon fill="#b58b86" stroke="#b58b86" points="573.56,-935.73 581.89,-934.17 574.4,-930.19 573.56,-935.73"/>
<text xml:space="preserve" text-anchor="middle" x="374.75" y="-863.83" font-family="Helvetica,sans-Serif" font-size="9.00" fill="#ece1d7">FlushAll</text>
</g>
<!-- apply -->
<g id="node10" class="node">
<title>apply</title>
<path fill="#5d4628" stroke="#6e6963" d="M482.5,-672.75C482.5,-672.75 277.5,-672.75 277.5,-672.75 271.5,-672.75 265.5,-666.75 265.5,-660.75 265.5,-660.75 265.5,-613 265.5,-613 265.5,-607 271.5,-601 277.5,-601 277.5,-601 482.5,-601 482.5,-601 488.5,-601 494.5,-607 494.5,-613 494.5,-613 494.5,-660.75 494.5,-660.75 494.5,-666.75 488.5,-672.75 482.5,-672.75"/>
<text xml:space="preserve" text-anchor="middle" x="380" y="-659.25" font-family="Helvetica,sans-Serif" font-size="10.00" fill="#ece1d7">DdlApplicator::apply / truncate</text>
<text xml:space="preserve" text-anchor="middle" x="380" y="-646.5" font-family="Helvetica,sans-Serif" font-size="10.00" fill="#ece1d7">Added &#160;→ CREATE TABLE IF NOT EXISTS</text>
<text xml:space="preserve" text-anchor="middle" x="380" y="-633.75" font-family="Helvetica,sans-Serif" font-size="10.00" fill="#ece1d7">Changed → RENAME / ADD / DROP COLUMN</text>
<text xml:space="preserve" text-anchor="middle" x="380" y="-621" font-family="Helvetica,sans-Serif" font-size="10.00" fill="#ece1d7">Dropped → DropTableStrategy</text>
<text xml:space="preserve" text-anchor="middle" x="380" y="-608.25" font-family="Helvetica,sans-Serif" font-size="10.00" fill="#ece1d7">TRUNCATE TABLE (no retry: error = Fatal)</text>
</g>
<!-- fence&#45;&gt;apply -->
<g id="edge3" class="edge">
<title>fence&#45;&gt;apply</title>
<path fill="none" stroke="#c1a78e" d="M279.62,-760.52C298.24,-737.76 324.49,-705.7 345.47,-680.06"/>
<polygon fill="#c1a78e" stroke="#c1a78e" points="347.38,-682.15 350.28,-674.18 343.05,-678.6 347.38,-682.15"/>
</g>
<!-- bridge -->
<g id="node9" class="node">
<title>bridge</title>
<path fill="#5d4628" stroke="#6e6963" d="M496.25,-819.88C496.25,-819.88 373.75,-819.88 373.75,-819.88 367.75,-819.88 361.75,-813.88 361.75,-807.88 361.75,-807.88 361.75,-772.88 361.75,-772.88 361.75,-766.88 367.75,-760.88 373.75,-760.88 373.75,-760.88 496.25,-760.88 496.25,-760.88 502.25,-760.88 508.25,-766.88 508.25,-772.88 508.25,-772.88 508.25,-807.88 508.25,-807.88 508.25,-813.88 502.25,-819.88 496.25,-819.88"/>
<text xml:space="preserve" text-anchor="middle" x="435" y="-806.38" font-family="Helvetica,sans-Serif" font-size="10.00" fill="#ece1d7">type_bridge::map</text>
<text xml:space="preserve" text-anchor="middle" x="435" y="-793.62" font-family="Helvetica,sans-Serif" font-size="10.00" fill="#ece1d7">RelAttr → ResolvedColumn</text>
<text xml:space="preserve" text-anchor="middle" x="435" y="-780.88" font-family="Helvetica,sans-Serif" font-size="10.00" fill="#ece1d7">(reject type change,</text>
<text xml:space="preserve" text-anchor="middle" x="435" y="-768.12" font-family="Helvetica,sans-Serif" font-size="10.00" fill="#ece1d7"> pk strips Nullable)</text>
</g>
<!-- bridge&#45;&gt;apply -->
<g id="edge4" class="edge">
<title>bridge&#45;&gt;apply</title>
<path fill="none" stroke="#c1a78e" stroke-dasharray="5,2" d="M424.53,-760.52C416.44,-738.25 405.12,-707.06 395.91,-681.71"/>
<polygon fill="#c1a78e" stroke="#c1a78e" points="398.63,-681 393.27,-674.43 393.37,-682.91 398.63,-681"/>
<text xml:space="preserve" text-anchor="middle" x="446.83" y="-728.7" font-family="Helvetica,sans-Serif" font-size="9.00" fill="#ece1d7">resolve types</text>
</g>
<!-- chddl -->
<g id="node12" class="node">
<title>chddl</title>
<path fill="#4d4128" stroke="#6e6963" d="M455.12,-505.5C455.12,-509.57 421.45,-512.88 380,-512.88 338.55,-512.88 304.88,-509.57 304.88,-505.5 304.88,-505.5 304.88,-439.12 304.88,-439.12 304.88,-435.06 338.55,-431.75 380,-431.75 421.45,-431.75 455.12,-435.06 455.12,-439.12 455.12,-439.12 455.12,-505.5 455.12,-505.5"/>
<path fill="none" stroke="#6e6963" d="M455.12,-505.5C455.12,-501.43 421.45,-498.12 380,-498.12 338.55,-498.12 304.88,-501.43 304.88,-505.5"/>
<text xml:space="preserve" text-anchor="middle" x="380" y="-488.31" font-family="Helvetica,sans-Serif" font-size="10.00" fill="#ece1d7">DDL connection</text>
<text xml:space="preserve" text-anchor="middle" x="380" y="-475.56" font-family="Helvetica,sans-Serif" font-size="10.00" fill="#ece1d7">clickhouse&#45;c&#45;rs AsyncClient</text>
<text xml:space="preserve" text-anchor="middle" x="380" y="-462.81" font-family="Helvetica,sans-Serif" font-size="10.00" fill="#ece1d7">ALTER / CREATE /</text>
<text xml:space="preserve" text-anchor="middle" x="380" y="-450.06" font-family="Helvetica,sans-Serif" font-size="10.00" fill="#ece1d7"> DROP / TRUNCATE</text>
</g>
<!-- apply&#45;&gt;chddl -->
<g id="edge11" class="edge">
<title>apply&#45;&gt;chddl</title>
<path fill="none" stroke="#bf8c5f" stroke-width="2" stroke-dasharray="5,2" d="M380,-600.6C380,-578.15 380,-548.72 380,-523.81"/>
<polygon fill="#bf8c5f" stroke="#bf8c5f" stroke-width="2" points="382.8,-524.11 380,-516.11 377.2,-524.11 382.8,-524.11"/>
<text xml:space="preserve" text-anchor="middle" x="419.75" y="-568.08" font-family="Helvetica,sans-Serif" font-size="9.00" fill="#ece1d7">DDL SQL</text>
<text xml:space="preserve" text-anchor="middle" x="419.75" y="-556.83" font-family="Helvetica,sans-Serif" font-size="9.00" fill="#ece1d7">(own connection)</text>
</g>
<!-- legend -->
<g id="node14" class="node">
<title>legend</title>
<path fill="#6e6963" stroke="none" d="M972.62,-394.75C972.62,-394.75 35.38,-394.75 35.38,-394.75 29.38,-394.75 23.38,-388.75 23.38,-382.75 23.38,-382.75 23.38,-12 23.38,-12 23.38,-6 29.38,0 35.38,0 35.38,0 972.62,0 972.62,0 978.62,0 984.62,-6 984.62,-12 984.62,-12 984.62,-382.75 984.62,-382.75 984.62,-388.75 978.62,-394.75 972.62,-394.75"/>
<polygon fill="#34302c" stroke="none" points="31.38,-368 31.38,-390.75 976.62,-390.75 976.62,-368 31.38,-368"/>
<polygon fill="none" stroke="#6e6963" points="31.38,-368 31.38,-390.75 976.62,-390.75 976.62,-368 31.38,-368"/>
<text xml:space="preserve" text-anchor="start" x="460.88" y="-377.25" font-family="Helvetica,sans-Serif" font-weight="bold" font-size="10.00" fill="#ece1d7">node fill — role</text>
<polygon fill="#4d4128" stroke="none" points="31.38,-345.25 31.38,-368 356.62,-368 356.62,-345.25 31.38,-345.25"/>
<polygon fill="none" stroke="#6e6963" points="31.38,-345.25 31.38,-368 356.62,-368 356.62,-345.25 31.38,-345.25"/>
<polygon fill="none" stroke="#6e6963" points="356.62,-345.25 356.62,-368 976.62,-368 976.62,-345.25 356.62,-345.25"/>
<text xml:space="preserve" text-anchor="start" x="583" y="-353.25" font-family="Helvetica,sans-Serif" font-size="10.00" fill="#ece1d7">reorder / decode pool / ClickHouse</text>
<polygon fill="#4d4d28" stroke="none" points="31.38,-322.5 31.38,-345.25 356.62,-345.25 356.62,-322.5 31.38,-322.5"/>
<polygon fill="none" stroke="#6e6963" points="31.38,-322.5 31.38,-345.25 356.62,-345.25 356.62,-322.5 31.38,-322.5"/>
<polygon fill="none" stroke="#6e6963" points="356.62,-322.5 356.62,-345.25 976.62,-345.25 976.62,-322.5 356.62,-322.5"/>
<text xml:space="preserve" text-anchor="start" x="586" y="-330.5" font-family="Helvetica,sans-Serif" font-size="10.00" fill="#ece1d7">ShadowCatalog schema&#45;event tx</text>
<polygon fill="#5d4628" stroke="none" points="31.38,-299.75 31.38,-322.5 356.62,-322.5 356.62,-299.75 31.38,-299.75"/>
<polygon fill="none" stroke="#6e6963" points="31.38,-299.75 31.38,-322.5 356.62,-322.5 356.62,-299.75 31.38,-299.75"/>
<polygon fill="none" stroke="#6e6963" points="356.62,-299.75 356.62,-322.5 976.62,-322.5 976.62,-299.75 356.62,-299.75"/>
<text xml:space="preserve" text-anchor="start" x="584.88" y="-307.75" font-family="Helvetica,sans-Serif" font-size="10.00" fill="#ece1d7">batcher / inserters / DdlApplicator</text>
<polygon fill="#4d3a28" stroke="none" points="31.38,-277 31.38,-299.75 356.62,-299.75 356.62,-277 31.38,-277"/>
<polygon fill="none" stroke="#6e6963" points="31.38,-277 31.38,-299.75 356.62,-299.75 356.62,-277 31.38,-277"/>
<polygon fill="none" stroke="#6e6963" points="356.62,-277 356.62,-299.75 976.62,-299.75 976.62,-277 356.62,-277"/>
<text xml:space="preserve" text-anchor="start" x="583.38" y="-285" font-family="Helvetica,sans-Serif" font-size="10.00" fill="#ece1d7">ack collector / cursor side&#45;channel</text>
<polygon fill="#34302c" stroke="none" points="31.38,-254.25 31.38,-277 976.62,-277 976.62,-254.25 31.38,-254.25"/>
<polygon fill="none" stroke="#6e6963" points="31.38,-254.25 31.38,-277 976.62,-277 976.62,-254.25 31.38,-254.25"/>
<text xml:space="preserve" text-anchor="start" x="474" y="-263.5" font-family="Helvetica,sans-Serif" font-weight="bold" font-size="10.00" fill="#ece1d7">edge style</text>
<polygon fill="none" stroke="#6e6963" points="31.38,-231.5 31.38,-254.25 356.62,-254.25 356.62,-231.5 31.38,-231.5"/>
<text xml:space="preserve" text-anchor="start" x="188" y="-240.75" font-family="Helvetica,sans-Serif" font-weight="bold" font-size="10.00" fill="#bf8c5f">━━</text>
<polygon fill="none" stroke="#6e6963" points="356.62,-231.5 356.62,-254.25 976.62,-254.25 976.62,-231.5 356.62,-231.5"/>
<text xml:space="preserve" text-anchor="start" x="596.12" y="-239.5" font-family="Helvetica,sans-Serif" font-size="10.00" fill="#ece1d7">row path (Native rows, solid)</text>
<polygon fill="none" stroke="#6e6963" points="31.38,-208.75 31.38,-231.5 356.62,-231.5 356.62,-208.75 31.38,-208.75"/>
<text xml:space="preserve" text-anchor="start" x="188" y="-218" font-family="Helvetica,sans-Serif" font-weight="bold" font-size="10.00" fill="#bf8c5f">┄┄</text>
<polygon fill="none" stroke="#6e6963" points="356.62,-208.75 356.62,-231.5 976.62,-231.5 976.62,-208.75 356.62,-208.75"/>
<text xml:space="preserve" text-anchor="start" x="580" y="-216.75" font-family="Helvetica,sans-Serif" font-size="10.00" fill="#ece1d7">DDL path (own connection, dashed)</text>
<polygon fill="none" stroke="#6e6963" points="31.38,-186 31.38,-208.75 356.62,-208.75 356.62,-186 31.38,-186"/>
<text xml:space="preserve" text-anchor="start" x="188" y="-195.25" font-family="Helvetica,sans-Serif" font-weight="bold" font-size="10.00" fill="#cba85e">┄┄</text>
<polygon fill="none" stroke="#6e6963" points="356.62,-186 356.62,-208.75 976.62,-208.75 976.62,-186 356.62,-186"/>
<text xml:space="preserve" text-anchor="start" x="586" y="-194" font-family="Helvetica,sans-Serif" font-size="10.00" fill="#ece1d7">SchemaEvent off ShadowCatalog</text>
<polygon fill="none" stroke="#6e6963" points="31.38,-163.25 31.38,-186 356.62,-186 356.62,-163.25 31.38,-163.25"/>
<text xml:space="preserve" text-anchor="start" x="188.38" y="-172.5" font-family="Helvetica,sans-Serif" font-weight="bold" font-size="10.00" fill="#b380b0">···</text>
<polygon fill="none" stroke="#6e6963" points="356.62,-163.25 356.62,-186 976.62,-186 976.62,-163.25 356.62,-163.25"/>
<text xml:space="preserve" text-anchor="start" x="604.75" y="-171.25" font-family="Helvetica,sans-Serif" font-size="10.00" fill="#ece1d7">ack events / barrier waits</text>
<polygon fill="#34302c" stroke="none" points="31.38,-140.5 31.38,-163.25 976.62,-163.25 976.62,-140.5 31.38,-140.5"/>
<polygon fill="none" stroke="#6e6963" points="31.38,-140.5 31.38,-163.25 976.62,-163.25 976.62,-140.5 31.38,-140.5"/>
<text xml:space="preserve" text-anchor="start" x="399.75" y="-149.75" font-family="Helvetica,sans-Serif" font-weight="bold" font-size="10.00" fill="#ece1d7">synthetic columns (every dest table)</text>
<polygon fill="none" stroke="#6e6963" points="31.38,-117.75 31.38,-140.5 356.62,-140.5 356.62,-117.75 31.38,-117.75"/>
<text xml:space="preserve" text-anchor="start" x="182" y="-125.75" font-family="monospace" font-size="10.00" fill="#ece1d7">_lsn</text>
<polygon fill="none" stroke="#6e6963" points="356.62,-117.75 356.62,-140.5 976.62,-140.5 976.62,-117.75 356.62,-117.75"/>
<text xml:space="preserve" text-anchor="start" x="535" y="-125.75" font-family="Helvetica,sans-Serif" font-size="10.00" fill="#ece1d7">UInt64 — commit_lsn; ReplacingMergeTree dedup key</text>
<polygon fill="none" stroke="#6e6963" points="31.38,-95 31.38,-117.75 356.62,-117.75 356.62,-95 31.38,-95"/>
<text xml:space="preserve" text-anchor="start" x="182" y="-103" font-family="monospace" font-size="10.00" fill="#ece1d7">_xid</text>
<polygon fill="none" stroke="#6e6963" points="356.62,-95 356.62,-117.75 976.62,-117.75 976.62,-95 356.62,-95"/>
<text xml:space="preserve" text-anchor="start" x="557.12" y="-103" font-family="Helvetica,sans-Serif" font-size="10.00" fill="#ece1d7">UInt32 — source xid; recovers xact boundary</text>
<polygon fill="none" stroke="#6e6963" points="31.38,-72.25 31.38,-95 356.62,-95 356.62,-72.25 31.38,-72.25"/>
<text xml:space="preserve" text-anchor="start" x="164" y="-80.25" font-family="monospace" font-size="10.00" fill="#ece1d7">_commit_ts</text>
<polygon fill="none" stroke="#6e6963" points="356.62,-72.25 356.62,-95 976.62,-95 976.62,-72.25 356.62,-72.25"/>
<text xml:space="preserve" text-anchor="start" x="557.12" y="-80.25" font-family="Helvetica,sans-Serif" font-size="10.00" fill="#ece1d7">DateTime64(6, &#39;UTC&#39;); shifted from PG epoch</text>
<polygon fill="none" stroke="#6e6963" points="31.38,-49.5 31.38,-72.25 356.62,-72.25 356.62,-49.5 31.38,-49.5"/>
<text xml:space="preserve" text-anchor="start" x="161" y="-57.5" font-family="monospace" font-size="10.00" fill="#ece1d7">_is_deleted</text>
<polygon fill="none" stroke="#6e6963" points="356.62,-49.5 356.62,-72.25 976.62,-72.25 976.62,-49.5 356.62,-49.5"/>
<text xml:space="preserve" text-anchor="start" x="486.25" y="-57.5" font-family="Helvetica,sans-Serif" font-size="10.00" fill="#ece1d7">Bool — 1 on delete; ReplacingMergeTree is_deleted arg unless soft_delete</text>
<polygon fill="#34302c" stroke="none" points="31.38,-26.75 31.38,-49.5 976.62,-49.5 976.62,-26.75 31.38,-26.75"/>
<polygon fill="none" stroke="#6e6963" points="31.38,-26.75 31.38,-49.5 976.62,-49.5 976.62,-26.75 31.38,-26.75"/>
<text xml:space="preserve" text-anchor="start" x="460.12" y="-36" font-family="Helvetica,sans-Serif" font-weight="bold" font-size="10.00" fill="#ece1d7">watermark rule</text>
<polygon fill="none" stroke="#6e6963" points="31.38,-4 31.38,-26.75 976.62,-26.75 976.62,-4 31.38,-4"/>
<text xml:space="preserve" text-anchor="start" x="36.38" y="-12" font-family="Helvetica,sans-Serif" font-size="10.00" fill="#ece1d7">downstream completes out of order; emitter_ack advances only on the contiguous&#45;done prefix, so slot recycling never outruns CH durability. Retry&#45;exhausted batch = Fatal (never a silent gap)</text>
</g>
<!-- chrows&#45;&gt;legend -->
<!-- chddl&#45;&gt;legend -->
<!-- ack&#45;&gt;fence -->
<g id="edge16" class="edge">
<title>ack&#45;&gt;fence</title>
<path fill="none" stroke="#b380b0" stroke-dasharray="1,5" d="M893.03,-508.38C910.62,-558.66 933.56,-651.84 890,-712.38 865.09,-747 841.02,-735.54 799,-742.88 700.03,-760.15 445.43,-732.74 347,-752.88 341.01,-754.1 334.9,-755.7 328.83,-757.55"/>
<polygon fill="#b380b0" stroke="#b380b0" points="328.18,-754.82 321.43,-759.95 329.9,-760.15 328.18,-754.82"/>
<text xml:space="preserve" text-anchor="middle" x="965.27" y="-639.58" font-family="Helvetica,sans-Serif" font-size="9.00" fill="#ece1d7">wait_placed_through /</text>
<text xml:space="preserve" text-anchor="middle" x="965.27" y="-628.33" font-family="Helvetica,sans-Serif" font-size="9.00" fill="#ece1d7">wait_through</text>
</g>
</g>
</svg>
