<?xml version="1.0" encoding="UTF-8" standalone="no"?>
<!DOCTYPE svg PUBLIC "-//W3C//DTD SVG 1.1//EN"
 "http://www.w3.org/Graphics/SVG/1.1/DTD/svg11.dtd">
<!-- Generated by graphviz version 15.1.0 (20260618.0150)
 -->
<!-- Title: filter Pages: 1 -->
<svg width="1221pt" height="2104pt"
 viewBox="0.00 0.00 1221.00 2104.00" xmlns="http://www.w3.org/2000/svg" xmlns:xlink="http://www.w3.org/1999/xlink">
<g id="graph0" class="graph" transform="scale(1 1) rotate(0) translate(4 2100)">
<title>filter</title>
<polygon fill="#272623" stroke="none" points="-4,4 -4,-2100 1217.25,-2100 1217.25,4 -4,4"/>
<text xml:space="preserve" text-anchor="middle" x="606.62" y="-2078.7" font-family="Helvetica,sans-Serif" font-size="14.00" fill="#ece1d7">walshadow filter — per&#45;record keep/drop + byte&#45;preserving NOOP rewrite</text>
<g id="clust1" class="cluster">
<title>cluster_in</title>
<path fill="#34302c" stroke="#4c4641" d="M187,-1669.5C187,-1669.5 415,-1669.5 415,-1669.5 421,-1669.5 427,-1675.5 427,-1681.5 427,-1681.5 427,-2043.25 427,-2043.25 427,-2049.25 421,-2055.25 415,-2055.25 415,-2055.25 187,-2055.25 187,-2055.25 181,-2055.25 175,-2049.25 175,-2043.25 175,-2043.25 175,-1681.5 175,-1681.5 175,-1675.5 181,-1669.5 187,-1669.5"/>
<text xml:space="preserve" text-anchor="middle" x="301" y="-2037.95" font-family="Helvetica,sans-Serif" font-size="14.00" fill="#ece1d7">① ingress</text>
</g>
<g id="clust2" class="cluster">
<title>cluster_decide</title>
<path fill="#34302c" stroke="#4c4641" d="M20,-912C20,-912 354,-912 354,-912 360,-912 366,-918 366,-924 366,-924 366,-1632.5 366,-1632.5 366,-1638.5 360,-1644.5 354,-1644.5 354,-1644.5 20,-1644.5 20,-1644.5 14,-1644.5 8,-1638.5 8,-1632.5 8,-1632.5 8,-924 8,-924 8,-918 14,-912 20,-912"/>
<text xml:space="preserve" text-anchor="middle" x="187" y="-1627.2" font-family="Helvetica,sans-Serif" font-size="14.00" fill="#ece1d7">② Filter::decide &#160;(per record, post&#45;update tracker)</text>
</g>
<g id="clust4" class="cluster">
<title>cluster_track</title>
<path fill="#34302c" stroke="#4c4641" d="M386,-1335.5C386,-1335.5 682,-1335.5 682,-1335.5 688,-1335.5 694,-1341.5 694,-1347.5 694,-1347.5 694,-1498.5 694,-1498.5 694,-1504.5 688,-1510.5 682,-1510.5 682,-1510.5 386,-1510.5 386,-1510.5 380,-1510.5 374,-1504.5 374,-1498.5 374,-1498.5 374,-1347.5 374,-1347.5 374,-1341.5 380,-1335.5 386,-1335.5"/>
<text xml:space="preserve" text-anchor="middle" x="534" y="-1493.2" font-family="Helvetica,sans-Serif" font-size="14.00" fill="#ece1d7">③ CatalogTracker &#160;(live catalog filenode set)</text>
</g>
<g id="clust5" class="cluster">
<title>cluster_rw</title>
<path fill="#34302c" stroke="#4c4641" d="M23,-570.75C23,-570.75 351,-570.75 351,-570.75 357,-570.75 363,-576.75 363,-582.75 363,-582.75 363,-875 363,-875 363,-881 357,-887 351,-887 351,-887 23,-887 23,-887 17,-887 11,-881 11,-875 11,-875 11,-582.75 11,-582.75 11,-576.75 17,-570.75 23,-570.75"/>
<text xml:space="preserve" text-anchor="middle" x="187" y="-869.7" font-family="Helvetica,sans-Serif" font-size="14.00" fill="#ece1d7">④ rewrite + emit</text>
</g>
<!-- chunk -->
<g id="node1" class="node">
<title>chunk</title>
<path fill="#3d3d54" stroke="#6e6963" d="M407.45,-2022C407.45,-2022 243.02,-2022 243.02,-2022 237.02,-2022 228.24,-2016.69 225.45,-2011.37 225.45,-2011.37 188.12,-1940.13 188.12,-1940.13 185.34,-1934.81 188.55,-1929.5 194.55,-1929.5 194.55,-1929.5 358.98,-1929.5 358.98,-1929.5 364.98,-1929.5 373.76,-1934.81 376.55,-1940.13 376.55,-1940.13 413.88,-2011.37 413.88,-2011.37 416.66,-2016.69 413.45,-2022 407.45,-2022"/>
<text xml:space="preserve" text-anchor="middle" x="301" y="-1985.38" font-family="Helvetica,sans-Serif" font-size="10.00" fill="#ece1d7">WalChunk</text>
<text xml:space="preserve" text-anchor="middle" x="301" y="-1972.62" font-family="Helvetica,sans-Serif" font-size="10.00" fill="#ece1d7">(source&#45;order bytes,</text>
<text xml:space="preserve" text-anchor="middle" x="301" y="-1959.88" font-family="Helvetica,sans-Serif" font-size="10.00" fill="#ece1d7">page&#45;framed)</text>
</g>
<!-- walker -->
<g id="node2" class="node">
<title>walker</title>
<path fill="#3d3d54" stroke="#6e6963" d="M364.88,-1831.75C364.88,-1831.75 237.12,-1831.75 237.12,-1831.75 231.12,-1831.75 225.12,-1825.75 225.12,-1819.75 225.12,-1819.75 225.12,-1784.75 225.12,-1784.75 225.12,-1778.75 231.12,-1772.75 237.12,-1772.75 237.12,-1772.75 364.88,-1772.75 364.88,-1772.75 370.88,-1772.75 376.88,-1778.75 376.88,-1784.75 376.88,-1784.75 376.88,-1819.75 376.88,-1819.75 376.88,-1825.75 370.88,-1831.75 364.88,-1831.75"/>
<text xml:space="preserve" text-anchor="middle" x="301" y="-1818.25" font-family="Helvetica,sans-Serif" font-size="10.00" fill="#ece1d7">StreamingWalker</text>
<text xml:space="preserve" text-anchor="middle" x="301" y="-1805.5" font-family="Helvetica,sans-Serif" font-size="10.00" fill="#ece1d7">stitch records across pages,</text>
<text xml:space="preserve" text-anchor="middle" x="301" y="-1792.75" font-family="Helvetica,sans-Serif" font-size="10.00" fill="#ece1d7">yield (logical_bytes,</text>
<text xml:space="preserve" text-anchor="middle" x="301" y="-1780" font-family="Helvetica,sans-Serif" font-size="10.00" fill="#ece1d7"> byte_ranges, page_magic)</text>
</g>
<!-- chunk&#45;&gt;walker -->
<g id="edge1" class="edge">
<title>chunk&#45;&gt;walker</title>
<path fill="none" stroke="#c1a78e" d="M301,-1929.24C301,-1902.56 301,-1869.17 301,-1843.46"/>
<polygon fill="#c1a78e" stroke="#c1a78e" points="304.5,-1843.76 301,-1833.76 297.5,-1843.76 304.5,-1843.76"/>
</g>
<!-- parse -->
<g id="node3" class="node">
<title>parse</title>
<path fill="#3d3d54" stroke="#6e6963" d="M358.88,-1723.75C358.88,-1723.75 243.12,-1723.75 243.12,-1723.75 237.12,-1723.75 231.12,-1717.75 231.12,-1711.75 231.12,-1711.75 231.12,-1689.5 231.12,-1689.5 231.12,-1683.5 237.12,-1677.5 243.12,-1677.5 243.12,-1677.5 358.88,-1677.5 358.88,-1677.5 364.88,-1677.5 370.88,-1683.5 370.88,-1689.5 370.88,-1689.5 370.88,-1711.75 370.88,-1711.75 370.88,-1717.75 364.88,-1723.75 358.88,-1723.75"/>
<text xml:space="preserve" text-anchor="middle" x="301" y="-1710.25" font-family="Helvetica,sans-Serif" font-size="10.00" fill="#ece1d7">parse_record_from_bytes</text>
<text xml:space="preserve" text-anchor="middle" x="301" y="-1697.5" font-family="Helvetica,sans-Serif" font-size="10.00" fill="#ece1d7">wal&#45;rus XLogRecord</text>
<text xml:space="preserve" text-anchor="middle" x="301" y="-1684.75" font-family="Helvetica,sans-Serif" font-size="10.00" fill="#ece1d7">blocks + main_data</text>
</g>
<!-- walker&#45;&gt;parse -->
<g id="edge2" class="edge">
<title>walker&#45;&gt;parse</title>
<path fill="none" stroke="#c1a78e" d="M301,-1772.43C301,-1760.88 301,-1747.49 301,-1735.48"/>
<polygon fill="#c1a78e" stroke="#c1a78e" points="304.5,-1735.56 301,-1725.56 297.5,-1735.56 304.5,-1735.56"/>
</g>
<!-- observe -->
<g id="node4" class="node">
<title>observe</title>
<path fill="#4d3a28" stroke="#6e6963" d="M345.75,-1611.25C345.75,-1611.25 256.25,-1611.25 256.25,-1611.25 250.25,-1611.25 244.25,-1605.25 244.25,-1599.25 244.25,-1599.25 244.25,-1577 244.25,-1577 244.25,-1571 250.25,-1565 256.25,-1565 256.25,-1565 345.75,-1565 345.75,-1565 351.75,-1565 357.75,-1571 357.75,-1577 357.75,-1577 357.75,-1599.25 357.75,-1599.25 357.75,-1605.25 351.75,-1611.25 345.75,-1611.25"/>
<text xml:space="preserve" text-anchor="middle" x="301" y="-1597.75" font-family="Helvetica,sans-Serif" font-size="10.00" fill="#ece1d7">tracker.observe(rec)</text>
<text xml:space="preserve" text-anchor="middle" x="301" y="-1585" font-family="Helvetica,sans-Serif" font-size="10.00" fill="#ece1d7">update catalog set</text>
<text xml:space="preserve" text-anchor="middle" x="301" y="-1572.25" font-family="Helvetica,sans-Serif" font-size="10.00" fill="#ece1d7">before classify</text>
</g>
<!-- parse&#45;&gt;observe -->
<g id="edge9" class="edge">
<title>parse&#45;&gt;observe</title>
<path fill="none" stroke="#a1a9cc" stroke-width="2" d="M301,-1677.26C301,-1671.3 301,-1664.53 301,-1657.45"/>
<polygon fill="#a1a9cc" stroke="#a1a9cc" stroke-width="2" points="304.5,-1657.53 301,-1647.53 297.5,-1657.53 304.5,-1657.53"/>
</g>
<!-- classify -->
<g id="node5" class="node">
<title>classify</title>
<path fill="#4d3a28" stroke="#6e6963" d="M337.88,-1433.5C337.88,-1433.5 258.12,-1433.5 258.12,-1433.5 252.12,-1433.5 246.12,-1427.5 246.12,-1421.5 246.12,-1421.5 246.12,-1399.25 246.12,-1399.25 246.12,-1393.25 252.12,-1387.25 258.12,-1387.25 258.12,-1387.25 337.88,-1387.25 337.88,-1387.25 343.88,-1387.25 349.88,-1393.25 349.88,-1399.25 349.88,-1399.25 349.88,-1421.5 349.88,-1421.5 349.88,-1427.5 343.88,-1433.5 337.88,-1433.5"/>
<text xml:space="preserve" text-anchor="middle" x="298" y="-1420" font-family="Helvetica,sans-Serif" font-size="10.00" fill="#ece1d7">classify::classify</text>
<text xml:space="preserve" text-anchor="middle" x="298" y="-1407.25" font-family="Helvetica,sans-Serif" font-size="10.00" fill="#ece1d7">Special / Catalog /</text>
<text xml:space="preserve" text-anchor="middle" x="298" y="-1394.5" font-family="Helvetica,sans-Serif" font-size="10.00" fill="#ece1d7">User / Empty</text>
</g>
<!-- observe&#45;&gt;classify -->
<g id="edge3" class="edge">
<title>observe&#45;&gt;classify</title>
<path fill="none" stroke="#c1a78e" d="M300.61,-1564.51C300.1,-1534.19 299.17,-1480.13 298.57,-1445.02"/>
<polygon fill="#c1a78e" stroke="#c1a78e" points="302.08,-1445.36 298.41,-1435.42 295.08,-1445.48 302.08,-1445.36"/>
</g>
<!-- nodes -->
<g id="node11" class="node">
<title>nodes</title>
<path fill="#4d4d28" stroke="#6e6963" d="M654.12,-1477.25C654.12,-1477.25 393.88,-1477.25 393.88,-1477.25 387.88,-1477.25 381.88,-1471.25 381.88,-1465.25 381.88,-1465.25 381.88,-1355.5 381.88,-1355.5 381.88,-1349.5 387.88,-1343.5 393.88,-1343.5 393.88,-1343.5 654.12,-1343.5 654.12,-1343.5 660.12,-1343.5 666.12,-1349.5 666.12,-1355.5 666.12,-1355.5 666.12,-1465.25 666.12,-1465.25 666.12,-1471.25 660.12,-1477.25 654.12,-1477.25"/>
<text xml:space="preserve" text-anchor="start" x="393.88" y="-1460.75" font-family="Helvetica,sans-Serif" font-weight="bold" font-size="10.00" fill="#ece1d7">nodes</text>
<text xml:space="preserve" text-anchor="start" x="427.62" y="-1460.75" font-family="Helvetica,sans-Serif" font-size="10.00" fill="#ece1d7">: HashSet&lt;(db, rel)&gt;</text>
<text xml:space="preserve" text-anchor="start" x="393.88" y="-1440.75" font-family="Helvetica,sans-Serif" font-size="10.00" fill="#ece1d7">bootstrap: rel &lt; 16384 ∨ shared (db=0)</text>
<text xml:space="preserve" text-anchor="start" x="393.88" y="-1424.2" font-family="Helvetica,sans-Serif" font-style="italic" font-size="9.00" fill="#ece1d7">tracker.observe(rec) dispatches:</text>
<text xml:space="preserve" text-anchor="start" x="393.88" y="-1405.5" font-family="Helvetica,sans-Serif" font-size="9.00" fill="#ece1d7">• RM_RELMAP_ID → mapoid → filenum (magic 0x592717)</text>
<text xml:space="preserve" text-anchor="start" x="393.88" y="-1388.25" font-family="Helvetica,sans-Serif" font-size="9.00" fill="#ece1d7">• pg_class HEAP insert/update → (oid, relfilenode)</text>
<text xml:space="preserve" text-anchor="start" x="393.88" y="-1371" font-family="Helvetica,sans-Serif" font-size="9.00" fill="#ece1d7">• pg_class heap_delete → coarse epoch++ (DROP signal)</text>
<text xml:space="preserve" text-anchor="start" x="393.88" y="-1353.75" font-family="Helvetica,sans-Serif" font-size="9.00" fill="#ece1d7">• seed_from_source → libpq SELECT pg_class at attach</text>
</g>
<!-- observe&#45;&gt;nodes -->
<g id="edge11" class="edge">
<title>observe&#45;&gt;nodes</title>
<path fill="none" stroke="#cba85e" stroke-dasharray="5,2" d="M329.7,-1564.51C355.51,-1544.17 394.88,-1513.14 431.45,-1484.32"/>
<polygon fill="#cba85e" stroke="#cba85e" points="433.3,-1487.31 438.99,-1478.37 428.97,-1481.81 433.3,-1487.31"/>
<text xml:space="preserve" text-anchor="middle" x="431.72" y="-1526.83" font-family="Helvetica,sans-Serif" font-size="9.00" fill="#ece1d7">tracker.observe(rec)</text>
</g>
<!-- dirty -->
<g id="node12" class="node">
<title>dirty</title>
<path fill="#4d4d28" stroke="#6e6963" d="M866.25,-1452.62C866.25,-1452.62 713.75,-1452.62 713.75,-1452.62 707.75,-1452.62 701.75,-1446.62 701.75,-1440.62 701.75,-1440.62 701.75,-1380.12 701.75,-1380.12 701.75,-1374.12 707.75,-1368.12 713.75,-1368.12 713.75,-1368.12 866.25,-1368.12 866.25,-1368.12 872.25,-1368.12 878.25,-1374.12 878.25,-1380.12 878.25,-1380.12 878.25,-1440.62 878.25,-1440.62 878.25,-1446.62 872.25,-1452.62 866.25,-1452.62"/>
<text xml:space="preserve" text-anchor="middle" x="790" y="-1439.12" font-family="Helvetica,sans-Serif" font-size="10.00" fill="#ece1d7">dirty tree (dirty_tree.rs)</text>
<text xml:space="preserve" text-anchor="middle" x="790" y="-1426.38" font-family="Helvetica,sans-Serif" font-size="10.00" fill="#ece1d7">catalog touch marks writing xid;</text>
<text xml:space="preserve" text-anchor="middle" x="790" y="-1413.62" font-family="Helvetica,sans-Serif" font-size="10.00" fill="#ece1d7">links: inline toplevel xid +</text>
<text xml:space="preserve" text-anchor="middle" x="790" y="-1400.88" font-family="Helvetica,sans-Serif" font-size="10.00" fill="#ece1d7">XLOG_XACT_ASSIGNMENT</text>
<text xml:space="preserve" text-anchor="middle" x="790" y="-1388.12" font-family="Helvetica,sans-Serif" font-size="10.00" fill="#ece1d7">subxact abort drops subtree only</text>
<text xml:space="preserve" text-anchor="middle" x="790" y="-1375.38" font-family="Helvetica,sans-Serif" font-size="10.00" fill="#ece1d7">commit/abort clears family</text>
</g>
<!-- observe&#45;&gt;dirty -->
<g id="edge13" class="edge">
<title>observe&#45;&gt;dirty</title>
<path fill="none" stroke="#cba85e" stroke-dasharray="5,2" d="M357.91,-1578.15C460.5,-1561.69 668.58,-1526.83 698,-1510.5 719.52,-1498.55 738.85,-1479.77 754.17,-1461.75"/>
<polygon fill="#cba85e" stroke="#cba85e" points="756.75,-1464.11 760.39,-1454.16 751.34,-1459.67 756.75,-1464.11"/>
<text xml:space="preserve" text-anchor="middle" x="708.4" y="-1532.45" font-family="Helvetica,sans-Serif" font-size="9.00" fill="#ece1d7">catalog write</text>
<text xml:space="preserve" text-anchor="middle" x="708.4" y="-1521.2" font-family="Helvetica,sans-Serif" font-size="9.00" fill="#ece1d7">→ mark xid dirty</text>
</g>
<!-- empty -->
<g id="node6" class="node">
<title>empty</title>
<path fill="#4d3a28" stroke="#6e6963" d="M235,-1273C235,-1273 75,-1273 75,-1273 69,-1273 63,-1267 63,-1261 63,-1261 63,-1226 63,-1226 63,-1220 69,-1214 75,-1214 75,-1214 235,-1214 235,-1214 241,-1214 247,-1220 247,-1226 247,-1226 247,-1261 247,-1261 247,-1267 241,-1273 235,-1273"/>
<text xml:space="preserve" text-anchor="middle" x="155" y="-1259.5" font-family="Helvetica,sans-Serif" font-size="10.00" fill="#ece1d7">main_data::relation_for_empty</text>
<text xml:space="preserve" text-anchor="middle" x="155" y="-1246.75" font-family="Helvetica,sans-Serif" font-size="10.00" fill="#ece1d7">XLOG_HEAP2_NEW_CID (0x70)</text>
<text xml:space="preserve" text-anchor="middle" x="155" y="-1234" font-family="Helvetica,sans-Serif" font-size="10.00" fill="#ece1d7">XLOG_BTREE_REUSE_PAGE (0xD0)</text>
<text xml:space="preserve" text-anchor="middle" x="155" y="-1221.25" font-family="Helvetica,sans-Serif" font-size="10.00" fill="#ece1d7">extract RelFileLocator</text>
</g>
<!-- classify&#45;&gt;empty -->
<g id="edge5" class="edge">
<title>classify&#45;&gt;empty</title>
<path fill="none" stroke="#c1a78e" d="M278.42,-1386.8C254.96,-1359.76 215.34,-1314.07 187.33,-1281.77"/>
<polygon fill="#c1a78e" stroke="#c1a78e" points="190.3,-1279.86 181.11,-1274.6 185.01,-1284.45 190.3,-1279.86"/>
<text xml:space="preserve" text-anchor="middle" x="243.06" y="-1310.95" font-family="Helvetica,sans-Serif" font-size="9.00" fill="#ece1d7">Empty</text>
<text xml:space="preserve" text-anchor="middle" x="243.06" y="-1299.7" font-family="Helvetica,sans-Serif" font-size="9.00" fill="#ece1d7">(no blocks)</text>
</g>
<!-- iscat -->
<g id="node7" class="node">
<title>iscat</title>
<path fill="#4d3a28" stroke="#6e6963" d="M221.75,-1139.33C221.75,-1139.33 119.5,-1101.42 119.5,-1101.42 113.88,-1099.34 113.88,-1095.16 119.5,-1093.08 119.5,-1093.08 221.75,-1055.17 221.75,-1055.17 227.37,-1053.09 238.63,-1053.09 244.25,-1055.17 244.25,-1055.17 346.5,-1093.08 346.5,-1093.08 352.12,-1095.16 352.12,-1099.34 346.5,-1101.42 346.5,-1101.42 244.25,-1139.33 244.25,-1139.33 238.63,-1141.41 227.37,-1141.41 221.75,-1139.33"/>
<text xml:space="preserve" text-anchor="middle" x="233" y="-1106.88" font-family="Helvetica,sans-Serif" font-size="10.00" fill="#ece1d7">tracker.is_catalog</text>
<text xml:space="preserve" text-anchor="middle" x="233" y="-1094.12" font-family="Helvetica,sans-Serif" font-size="10.00" fill="#ece1d7">(db_node, rel_node)</text>
<text xml:space="preserve" text-anchor="middle" x="233" y="-1081.38" font-family="Helvetica,sans-Serif" font-size="10.00" fill="#ece1d7">+ shared (0, rel_node)</text>
</g>
<!-- classify&#45;&gt;iscat -->
<g id="edge4" class="edge">
<title>classify&#45;&gt;iscat</title>
<path fill="none" stroke="#c1a78e" d="M294.56,-1387C288.84,-1350.57 276.63,-1276.28 263,-1214 258.43,-1193.14 252.69,-1170.35 247.46,-1150.55"/>
<polygon fill="#c1a78e" stroke="#c1a78e" points="250.88,-1149.81 244.92,-1141.05 244.12,-1151.61 250.88,-1149.81"/>
<text xml:space="preserve" text-anchor="middle" x="291.33" y="-1246.2" font-family="Helvetica,sans-Serif" font-size="9.00" fill="#ece1d7">User /</text>
<text xml:space="preserve" text-anchor="middle" x="291.33" y="-1234.95" font-family="Helvetica,sans-Serif" font-size="9.00" fill="#ece1d7">Catalog</text>
</g>
<!-- policy -->
<g id="node10" class="node">
<title>policy</title>
<path fill="#6e6963" stroke="none" d="M992.38,-2070.75C992.38,-2070.75 463.62,-2070.75 463.62,-2070.75 457.62,-2070.75 451.62,-2064.75 451.62,-2058.75 451.62,-2058.75 451.62,-1892.75 451.62,-1892.75 451.62,-1886.75 457.62,-1880.75 463.62,-1880.75 463.62,-1880.75 992.38,-1880.75 992.38,-1880.75 998.38,-1880.75 1004.38,-1886.75 1004.38,-1892.75 1004.38,-1892.75 1004.38,-2058.75 1004.38,-2058.75 1004.38,-2064.75 998.38,-2070.75 992.38,-2070.75"/>
<polygon fill="#3a3530" stroke="none" points="459.62,-1884.75 459.62,-2066.75 996.38,-2066.75 996.38,-1884.75 459.62,-1884.75"/>
<polygon fill="#4c4641" stroke="none" points="459.62,-2044 459.62,-2066.75 996.38,-2066.75 996.38,-2044 459.62,-2044"/>
<polygon fill="none" stroke="#6e6963" points="459.62,-2044 459.62,-2066.75 996.38,-2066.75 996.38,-2044 459.62,-2044"/>
<text xml:space="preserve" text-anchor="start" x="678.88" y="-2053.25" font-family="Helvetica,sans-Serif" font-weight="bold" font-size="10.00" fill="#ece1d7">rmgr keep policy</text>
<polygon fill="none" stroke="#6e6963" points="459.62,-2021.25 459.62,-2044 727.62,-2044 727.62,-2021.25 459.62,-2021.25"/>
<text xml:space="preserve" text-anchor="start" x="559.88" y="-2029.25" font-family="Helvetica,sans-Serif" font-size="10.00" fill="#ece1d7">HEAP / HEAP2</text>
<polygon fill="none" stroke="#6e6963" points="727.62,-2021.25 727.62,-2044 996.38,-2044 996.38,-2021.25 727.62,-2021.25"/>
<text xml:space="preserve" text-anchor="start" x="786.62" y="-2029.25" font-family="Helvetica,sans-Serif" font-size="10.00" fill="#ece1d7">keep iff block ref ∈ catalog set</text>
<polygon fill="none" stroke="#6e6963" points="459.62,-1998.5 459.62,-2021.25 727.62,-2021.25 727.62,-1998.5 459.62,-1998.5"/>
<text xml:space="preserve" text-anchor="start" x="577.88" y="-2006.5" font-family="Helvetica,sans-Serif" font-size="10.00" fill="#ece1d7">BTREE</text>
<polygon fill="none" stroke="#6e6963" points="727.62,-1998.5 727.62,-2021.25 996.38,-2021.25 996.38,-1998.5 727.62,-1998.5"/>
<text xml:space="preserve" text-anchor="start" x="786.62" y="-2006.5" font-family="Helvetica,sans-Serif" font-size="10.00" fill="#ece1d7">keep iff block ref ∈ catalog set</text>
<polygon fill="none" stroke="#6e6963" points="459.62,-1975.75 459.62,-1998.5 727.62,-1998.5 727.62,-1975.75 459.62,-1975.75"/>
<text xml:space="preserve" text-anchor="start" x="512.25" y="-1983.75" font-family="Helvetica,sans-Serif" font-size="10.00" fill="#ece1d7">HASH / GIN / GIST / SPGIST / BRIN</text>
<polygon fill="none" stroke="#6e6963" points="727.62,-1975.75 727.62,-1998.5 996.38,-1998.5 996.38,-1975.75 727.62,-1975.75"/>
<text xml:space="preserve" text-anchor="start" x="816.62" y="-1983.75" font-family="Helvetica,sans-Serif" font-size="10.00" fill="#ece1d7">drop on user index</text>
<polygon fill="none" stroke="#6e6963" points="459.62,-1953 459.62,-1975.75 727.62,-1975.75 727.62,-1953 459.62,-1953"/>
<text xml:space="preserve" text-anchor="start" x="520.88" y="-1961" font-family="Helvetica,sans-Serif" font-size="10.00" fill="#ece1d7">SEQ / GENERIC / LOGICALMSG</text>
<polygon fill="none" stroke="#6e6963" points="727.62,-1953 727.62,-1975.75 996.38,-1975.75 996.38,-1953 727.62,-1953"/>
<text xml:space="preserve" text-anchor="start" x="801.25" y="-1961" font-family="Helvetica,sans-Serif" font-size="10.00" fill="#ece1d7">drop when no catalog ref</text>
<polygon fill="none" stroke="#6e6963" points="459.62,-1930.25 459.62,-1953 727.62,-1953 727.62,-1930.25 459.62,-1930.25"/>
<text xml:space="preserve" text-anchor="start" x="478.5" y="-1938.25" font-family="Helvetica,sans-Serif" font-size="10.00" fill="#ece1d7">RELMAP / XACT / CLOG / MULTIXACT / STANDBY</text>
<polygon fill="none" stroke="#6e6963" points="727.62,-1930.25 727.62,-1953 996.38,-1953 996.38,-1930.25 727.62,-1930.25"/>
<text xml:space="preserve" text-anchor="start" x="831.62" y="-1938.25" font-family="Helvetica,sans-Serif" font-size="10.00" fill="#ece1d7">always keep</text>
<polygon fill="none" stroke="#6e6963" points="459.62,-1907.5 459.62,-1930.25 727.62,-1930.25 727.62,-1907.5 459.62,-1907.5"/>
<text xml:space="preserve" text-anchor="start" x="464.62" y="-1915.5" font-family="Helvetica,sans-Serif" font-size="10.00" fill="#ece1d7">COMMIT_TS / REPL_ORIGIN / DBASE / TBLSPC / SMGR</text>
<polygon fill="none" stroke="#6e6963" points="727.62,-1907.5 727.62,-1930.25 996.38,-1930.25 996.38,-1907.5 727.62,-1907.5"/>
<text xml:space="preserve" text-anchor="start" x="831.62" y="-1915.5" font-family="Helvetica,sans-Serif" font-size="10.00" fill="#ece1d7">always keep</text>
<polygon fill="none" stroke="#6e6963" points="459.62,-1884.75 459.62,-1907.5 727.62,-1907.5 727.62,-1884.75 459.62,-1884.75"/>
<text xml:space="preserve" text-anchor="start" x="580.12" y="-1892.75" font-family="Helvetica,sans-Serif" font-size="10.00" fill="#ece1d7">XLOG</text>
<polygon fill="none" stroke="#6e6963" points="727.62,-1884.75 727.62,-1907.5 996.38,-1907.5 996.38,-1884.75 727.62,-1884.75"/>
<text xml:space="preserve" text-anchor="start" x="732.62" y="-1892.75" font-family="Helvetica,sans-Serif" font-size="10.00" fill="#ece1d7">CHECKPOINT / NEXTOID / PARAMETER_CHANGE keep</text>
</g>
<!-- classify&#45;&gt;policy -->
<g id="edge10" class="edge">
<title>classify&#45;&gt;policy</title>
<path fill="none" stroke="#6e6963" stroke-dasharray="5,2" d="M306.21,-1433.79C316.27,-1457.58 335.79,-1493.98 366,-1510.5 391.17,-1524.26 601.86,-1500.27 624,-1518.5 729.37,-1605.26 741.23,-1774.64 736.93,-1880.83"/>
<text xml:space="preserve" text-anchor="middle" x="744.44" y="-1703.33" font-family="Helvetica,sans-Serif" font-size="9.00" fill="#ece1d7">rmgr →</text>
<text xml:space="preserve" text-anchor="middle" x="744.44" y="-1692.08" font-family="Helvetica,sans-Serif" font-size="9.00" fill="#ece1d7">class</text>
</g>
<!-- empty&#45;&gt;iscat -->
<g id="edge6" class="edge">
<title>empty&#45;&gt;iscat</title>
<path fill="none" stroke="#c1a78e" d="M170.6,-1213.66C181.01,-1194.4 194.95,-1168.63 207.01,-1146.32"/>
<polygon fill="#c1a78e" stroke="#c1a78e" points="210,-1148.14 211.68,-1137.68 203.85,-1144.81 210,-1148.14"/>
<text xml:space="preserve" text-anchor="middle" x="217.62" y="-1181.45" font-family="Helvetica,sans-Serif" font-size="9.00" fill="#ece1d7">rel from</text>
<text xml:space="preserve" text-anchor="middle" x="217.62" y="-1170.2" font-family="Helvetica,sans-Serif" font-size="9.00" fill="#ece1d7">main_data</text>
</g>
<!-- keep -->
<g id="node8" class="node">
<title>keep</title>
<path fill="#4d3a28" stroke="#6e6963" d="M328.25,-991.75C328.25,-991.75 235.75,-991.75 235.75,-991.75 229.75,-991.75 223.75,-985.75 223.75,-979.75 223.75,-979.75 223.75,-932 223.75,-932 223.75,-926 229.75,-920 235.75,-920 235.75,-920 328.25,-920 328.25,-920 334.25,-920 340.25,-926 340.25,-932 340.25,-932 340.25,-979.75 340.25,-979.75 340.25,-985.75 334.25,-991.75 328.25,-991.75"/>
<text xml:space="preserve" text-anchor="middle" x="282" y="-978.25" font-family="Helvetica,sans-Serif" font-size="10.00" fill="#ece1d7">Decision::Keep</text>
<text xml:space="preserve" text-anchor="middle" x="282" y="-965.5" font-family="Helvetica,sans-Serif" font-size="10.00" fill="#ece1d7">(Special, Catalog,</text>
<text xml:space="preserve" text-anchor="middle" x="282" y="-952.75" font-family="Helvetica,sans-Serif" font-size="10.00" fill="#ece1d7"> promoted User,</text>
<text xml:space="preserve" text-anchor="middle" x="282" y="-940" font-family="Helvetica,sans-Serif" font-size="10.00" fill="#ece1d7"> Empty rel ∈ cat,</text>
<text xml:space="preserve" text-anchor="middle" x="282" y="-927.25" font-family="Helvetica,sans-Serif" font-size="10.00" fill="#ece1d7"> safe&#45;default Empty)</text>
</g>
<!-- iscat&#45;&gt;keep -->
<g id="edge7" class="edge">
<title>iscat&#45;&gt;keep</title>
<path fill="none" stroke="#c1a78e" d="M247.17,-1055.94C253.07,-1039.16 259.95,-1019.6 266.02,-1002.32"/>
<polygon fill="#c1a78e" stroke="#c1a78e" points="269.17,-1003.92 269.19,-993.32 262.57,-1001.59 269.17,-1003.92"/>
<text xml:space="preserve" text-anchor="middle" x="267.93" y="-1018.45" font-family="Helvetica,sans-Serif" font-size="9.00" fill="#ece1d7">yes</text>
</g>
<!-- drop -->
<g id="node9" class="node">
<title>drop</title>
<path fill="#4d3a28" stroke="#6e6963" d="M170.5,-979C170.5,-979 73.5,-979 73.5,-979 67.5,-979 61.5,-973 61.5,-967 61.5,-967 61.5,-944.75 61.5,-944.75 61.5,-938.75 67.5,-932.75 73.5,-932.75 73.5,-932.75 170.5,-932.75 170.5,-932.75 176.5,-932.75 182.5,-938.75 182.5,-944.75 182.5,-944.75 182.5,-967 182.5,-967 182.5,-973 176.5,-979 170.5,-979"/>
<text xml:space="preserve" text-anchor="middle" x="122" y="-965.5" font-family="Helvetica,sans-Serif" font-size="10.00" fill="#ece1d7">Decision::Drop</text>
<text xml:space="preserve" text-anchor="middle" x="122" y="-952.75" font-family="Helvetica,sans-Serif" font-size="10.00" fill="#ece1d7">(User no&#45;cat&#45;ref,</text>
<text xml:space="preserve" text-anchor="middle" x="122" y="-940" font-family="Helvetica,sans-Serif" font-size="10.00" fill="#ece1d7"> Empty rel ∉ catalog)</text>
</g>
<!-- iscat&#45;&gt;drop -->
<g id="edge8" class="edge">
<title>iscat&#45;&gt;drop</title>
<path fill="none" stroke="#c1a78e" d="M204.99,-1061.08C187.12,-1038.64 164.16,-1009.81 146.92,-988.17"/>
<polygon fill="#c1a78e" stroke="#c1a78e" points="149.83,-986.2 140.86,-980.56 144.35,-990.56 149.83,-986.2"/>
<text xml:space="preserve" text-anchor="middle" x="183.12" y="-1018.45" font-family="Helvetica,sans-Serif" font-size="9.00" fill="#ece1d7">no</text>
</g>
<!-- verbatim -->
<g id="node14" class="node">
<title>verbatim</title>
<path fill="#4d3a28" stroke="#6e6963" d="M343,-841C343,-841 255,-841 255,-841 249,-841 243,-835 243,-829 243,-829 243,-806.75 243,-806.75 243,-800.75 249,-794.75 255,-794.75 255,-794.75 343,-794.75 343,-794.75 349,-794.75 355,-800.75 355,-806.75 355,-806.75 355,-829 355,-829 355,-835 349,-841 343,-841"/>
<text xml:space="preserve" text-anchor="middle" x="299" y="-827.5" font-family="Helvetica,sans-Serif" font-size="10.00" fill="#ece1d7">copy logical_bytes</text>
<text xml:space="preserve" text-anchor="middle" x="299" y="-814.75" font-family="Helvetica,sans-Serif" font-size="10.00" fill="#ece1d7">into segment buffer</text>
<text xml:space="preserve" text-anchor="middle" x="299" y="-802" font-family="Helvetica,sans-Serif" font-size="10.00" fill="#ece1d7">at byte_ranges</text>
</g>
<!-- keep&#45;&gt;verbatim -->
<g id="edge17" class="edge">
<title>keep&#45;&gt;verbatim</title>
<path fill="none" stroke="#bd8183" d="M286.38,-919.85C288.96,-899.19 292.21,-873.18 294.77,-852.73"/>
<polygon fill="#bd8183" stroke="#bd8183" points="298.23,-853.27 296,-842.91 291.28,-852.4 298.23,-853.27"/>
</g>
<!-- noop -->
<g id="node15" class="node">
<title>noop</title>
<path fill="#4d3a28" stroke="#6e6963" d="M198.75,-853.75C198.75,-853.75 31.25,-853.75 31.25,-853.75 25.25,-853.75 19.25,-847.75 19.25,-841.75 19.25,-841.75 19.25,-794 19.25,-794 19.25,-788 25.25,-782 31.25,-782 31.25,-782 198.75,-782 198.75,-782 204.75,-782 210.75,-788 210.75,-794 210.75,-794 210.75,-841.75 210.75,-841.75 210.75,-847.75 204.75,-853.75 198.75,-853.75"/>
<text xml:space="preserve" text-anchor="middle" x="115" y="-840.25" font-family="Helvetica,sans-Serif" font-size="10.00" fill="#ece1d7">rewrite::noop_replace</text>
<text xml:space="preserve" text-anchor="middle" x="115" y="-827.5" font-family="Helvetica,sans-Serif" font-size="10.00" fill="#ece1d7">header: keep xl_tot_len, xl_prev;</text>
<text xml:space="preserve" text-anchor="middle" x="115" y="-814.75" font-family="Helvetica,sans-Serif" font-size="10.00" fill="#ece1d7"> info=XLOG_NOOP, rmid=RM_XLOG</text>
<text xml:space="preserve" text-anchor="middle" x="115" y="-802" font-family="Helvetica,sans-Serif" font-size="10.00" fill="#ece1d7">body: zero&#45;fill + main_data marker</text>
<text xml:space="preserve" text-anchor="middle" x="115" y="-789.25" font-family="Helvetica,sans-Serif" font-size="10.00" fill="#ece1d7"> SHORT (≤257) | LONG</text>
</g>
<!-- drop&#45;&gt;noop -->
<g id="edge18" class="edge">
<title>drop&#45;&gt;noop</title>
<path fill="none" stroke="#bd8183" d="M120.84,-932.42C119.91,-914.3 118.57,-888.2 117.4,-865.59"/>
<polygon fill="#bd8183" stroke="#bd8183" points="120.9,-865.47 116.89,-855.66 113.91,-865.83 120.9,-865.47"/>
</g>
<!-- nodes&#45;&gt;iscat -->
<g id="edge12" class="edge">
<title>nodes&#45;&gt;iscat</title>
<path fill="none" stroke="#cba85e" stroke-dasharray="5,2" d="M461.93,-1343.01C404.53,-1281.65 320.97,-1192.31 272.28,-1140.25"/>
<polygon fill="#cba85e" stroke="#cba85e" points="274.91,-1137.93 265.52,-1133.02 269.79,-1142.71 274.91,-1137.93"/>
<text xml:space="preserve" text-anchor="middle" x="433.53" y="-1240.58" font-family="Helvetica,sans-Serif" font-size="9.00" fill="#ece1d7">is_catalog(db, rel)</text>
</g>
<!-- stamp -->
<g id="node13" class="node">
<title>stamp</title>
<polygon fill="#4d3850" stroke="#6e6963" points="1207.25,-2005.25 1036.75,-2005.25 1036.75,-1946.25 1213.25,-1946.25 1213.25,-1999.25 1207.25,-2005.25"/>
<polyline fill="none" stroke="#6e6963" points="1207.25,-2005.25 1207.25,-1999.25"/>
<polyline fill="none" stroke="#6e6963" points="1213.25,-1999.25 1207.25,-1999.25"/>
<text xml:space="preserve" text-anchor="middle" x="1125" y="-1991.75" font-family="Helvetica,sans-Serif" font-size="10.00" fill="#ece1d7">Record.defer_catalog_decode</text>
<text xml:space="preserve" text-anchor="middle" x="1125" y="-1979" font-family="Helvetica,sans-Serif" font-size="10.00" fill="#ece1d7">every decoder&#45;routed record of a</text>
<text xml:space="preserve" text-anchor="middle" x="1125" y="-1966.25" font-family="Helvetica,sans-Serif" font-size="10.00" fill="#ece1d7">dirty family → raw stash at the</text>
<text xml:space="preserve" text-anchor="middle" x="1125" y="-1953.5" font-family="Helvetica,sans-Serif" font-size="10.00" fill="#ece1d7">decoder sink (see xact diagram)</text>
</g>
<!-- dirty&#45;&gt;stamp -->
<g id="edge14" class="edge">
<title>dirty&#45;&gt;stamp</title>
<path fill="none" stroke="#cba85e" stroke-dasharray="5,2" d="M814.65,-1452.83C877.2,-1558.02 1041.4,-1834.15 1102.05,-1936.16"/>
<polygon fill="#cba85e" stroke="#cba85e" points="1099.03,-1937.93 1107.15,-1944.74 1105.05,-1934.35 1099.03,-1937.93"/>
<text xml:space="preserve" text-anchor="middle" x="1001.83" y="-1697.7" font-family="Helvetica,sans-Serif" font-size="9.00" fill="#ece1d7">is_dirty(xid)</text>
</g>
<!-- segbuf -->
<g id="node18" class="node">
<title>segbuf</title>
<polygon fill="#4d3850" stroke="#6e6963" points="293.12,-529.75 154.88,-529.75 154.88,-483.5 299.12,-483.5 299.12,-523.75 293.12,-529.75"/>
<polyline fill="none" stroke="#6e6963" points="293.12,-529.75 293.12,-523.75"/>
<polyline fill="none" stroke="#6e6963" points="299.12,-523.75 293.12,-523.75"/>
<text xml:space="preserve" text-anchor="middle" x="227" y="-516.25" font-family="Helvetica,sans-Serif" font-size="10.00" fill="#ece1d7">16 MiB segment buffer</text>
<text xml:space="preserve" text-anchor="middle" x="227" y="-503.5" font-family="Helvetica,sans-Serif" font-size="10.00" fill="#ece1d7">filtered image</text>
<text xml:space="preserve" text-anchor="middle" x="227" y="-490.75" font-family="Helvetica,sans-Serif" font-size="10.00" fill="#ece1d7">filtered_lsn == source_lsn</text>
</g>
<!-- verbatim&#45;&gt;segbuf -->
<g id="edge19" class="edge">
<title>verbatim&#45;&gt;segbuf</title>
<path fill="none" stroke="#c1a78e" d="M295,-794.3C287.12,-750.76 268.47,-652.26 247,-570.75 244.41,-560.92 241.23,-550.35 238.16,-540.73"/>
<polygon fill="#c1a78e" stroke="#c1a78e" points="241.55,-539.83 235.14,-531.4 234.9,-542 241.55,-539.83"/>
</g>
<!-- crc -->
<g id="node16" class="node">
<title>crc</title>
<path fill="#4d3a28" stroke="#6e6963" d="M215.62,-733C215.62,-733 86.38,-733 86.38,-733 80.38,-733 74.38,-727 74.38,-721 74.38,-721 74.38,-698.75 74.38,-698.75 74.38,-692.75 80.38,-686.75 86.38,-686.75 86.38,-686.75 215.62,-686.75 215.62,-686.75 221.62,-686.75 227.62,-692.75 227.62,-698.75 227.62,-698.75 227.62,-721 227.62,-721 227.62,-727 221.62,-733 215.62,-733"/>
<text xml:space="preserve" text-anchor="middle" x="151" y="-719.5" font-family="Helvetica,sans-Serif" font-size="10.00" fill="#ece1d7">CRC32C recompute</text>
<text xml:space="preserve" text-anchor="middle" x="151" y="-706.75" font-family="Helvetica,sans-Serif" font-size="10.00" fill="#ece1d7">INIT → body → header[0..20]</text>
<text xml:space="preserve" text-anchor="middle" x="151" y="-694" font-family="Helvetica,sans-Serif" font-size="10.00" fill="#ece1d7">matches xlog.c:5169</text>
</g>
<!-- noop&#45;&gt;crc -->
<g id="edge15" class="edge">
<title>noop&#45;&gt;crc</title>
<path fill="none" stroke="#c1a78e" d="M126.99,-781.58C131.08,-769.53 135.64,-756.1 139.68,-744.21"/>
<polygon fill="#c1a78e" stroke="#c1a78e" points="142.97,-745.41 142.87,-734.81 136.34,-743.16 142.97,-745.41"/>
</g>
<!-- scatter -->
<g id="node17" class="node">
<title>scatter</title>
<path fill="#4d3a28" stroke="#6e6963" d="M218.62,-637.75C218.62,-637.75 107.38,-637.75 107.38,-637.75 101.38,-637.75 95.38,-631.75 95.38,-625.75 95.38,-625.75 95.38,-590.75 95.38,-590.75 95.38,-584.75 101.38,-578.75 107.38,-578.75 107.38,-578.75 218.62,-578.75 218.62,-578.75 224.62,-578.75 230.62,-584.75 230.62,-590.75 230.62,-590.75 230.62,-625.75 230.62,-625.75 230.62,-631.75 224.62,-637.75 218.62,-637.75"/>
<text xml:space="preserve" text-anchor="middle" x="163" y="-624.25" font-family="Helvetica,sans-Serif" font-size="10.00" fill="#ece1d7">scatter rewritten bytes</text>
<text xml:space="preserve" text-anchor="middle" x="163" y="-611.5" font-family="Helvetica,sans-Serif" font-size="10.00" fill="#ece1d7">into segment buffer</text>
<text xml:space="preserve" text-anchor="middle" x="163" y="-598.75" font-family="Helvetica,sans-Serif" font-size="10.00" fill="#ece1d7">at each byte_range</text>
<text xml:space="preserve" text-anchor="middle" x="163" y="-586" font-family="Helvetica,sans-Serif" font-size="10.00" fill="#ece1d7">(cross&#45;seg: rewrite both)</text>
</g>
<!-- crc&#45;&gt;scatter -->
<g id="edge16" class="edge">
<title>crc&#45;&gt;scatter</title>
<path fill="none" stroke="#c1a78e" d="M153.72,-686.27C155.04,-675.37 156.65,-661.96 158.16,-649.4"/>
<polygon fill="#c1a78e" stroke="#c1a78e" points="161.61,-650.06 159.33,-639.71 154.66,-649.22 161.61,-650.06"/>
</g>
<!-- scatter&#45;&gt;segbuf -->
<g id="edge20" class="edge">
<title>scatter&#45;&gt;segbuf</title>
<path fill="none" stroke="#c1a78e" d="M181.51,-578.43C189.32,-566.28 198.44,-552.09 206.45,-539.61"/>
<polygon fill="#c1a78e" stroke="#c1a78e" points="209.32,-541.63 211.78,-531.32 203.43,-537.84 209.32,-541.63"/>
</g>
<!-- manifest -->
<g id="node19" class="node">
<title>manifest</title>
<polygon fill="#4d3850" stroke="#6e6963" points="280.75,-434.5 167.25,-434.5 167.25,-375.5 286.75,-375.5 286.75,-428.5 280.75,-434.5"/>
<polyline fill="none" stroke="#6e6963" points="280.75,-434.5 280.75,-428.5"/>
<polyline fill="none" stroke="#6e6963" points="286.75,-428.5 280.75,-428.5"/>
<text xml:space="preserve" text-anchor="middle" x="227" y="-421" font-family="Helvetica,sans-Serif" font-size="10.00" fill="#ece1d7">Manifest</text>
<text xml:space="preserve" text-anchor="middle" x="227" y="-408.25" font-family="Helvetica,sans-Serif" font-size="10.00" fill="#ece1d7">records: [{offset, len,</text>
<text xml:space="preserve" text-anchor="middle" x="227" y="-395.5" font-family="Helvetica,sans-Serif" font-size="10.00" fill="#ece1d7"> rmid, info, kind}]</text>
<text xml:space="preserve" text-anchor="middle" x="227" y="-382.75" font-family="Helvetica,sans-Serif" font-size="10.00" fill="#ece1d7">+ FilterStats delta</text>
</g>
<!-- segbuf&#45;&gt;manifest -->
<g id="edge21" class="edge">
<title>segbuf&#45;&gt;manifest</title>
<path fill="none" stroke="#c1a78e" stroke-dasharray="5,2" d="M227,-483.02C227,-472.12 227,-458.71 227,-446.15"/>
<polygon fill="#c1a78e" stroke="#c1a78e" points="230.5,-446.47 227,-436.47 223.5,-446.47 230.5,-446.47"/>
</g>
<!-- legend -->
<g id="node20" class="node">
<title>legend</title>
<path fill="#6e6963" stroke="none" d="M331.88,-326.5C331.88,-326.5 122.12,-326.5 122.12,-326.5 116.12,-326.5 110.12,-320.5 110.12,-314.5 110.12,-314.5 110.12,-12 110.12,-12 110.12,-6 116.12,0 122.12,0 122.12,0 331.88,0 331.88,0 337.88,0 343.88,-6 343.88,-12 343.88,-12 343.88,-314.5 343.88,-314.5 343.88,-320.5 337.88,-326.5 331.88,-326.5"/>
<polygon fill="#34302c" stroke="none" points="118.12,-299.75 118.12,-322.5 335.88,-322.5 335.88,-299.75 118.12,-299.75"/>
<polygon fill="none" stroke="#6e6963" points="118.12,-299.75 118.12,-322.5 335.88,-322.5 335.88,-299.75 118.12,-299.75"/>
<text xml:space="preserve" text-anchor="start" x="183.88" y="-309" font-family="Helvetica,sans-Serif" font-weight="bold" font-size="10.00" fill="#ece1d7">node fill — role</text>
<polygon fill="#3d3d54" stroke="none" points="118.12,-277 118.12,-299.75 157.62,-299.75 157.62,-277 118.12,-277"/>
<polygon fill="none" stroke="#6e6963" points="118.12,-277 118.12,-299.75 157.62,-299.75 157.62,-277 118.12,-277"/>
<polygon fill="none" stroke="#6e6963" points="157.62,-277 157.62,-299.75 335.88,-299.75 335.88,-277 157.62,-277"/>
<text xml:space="preserve" text-anchor="start" x="189.38" y="-285" font-family="Helvetica,sans-Serif" font-size="10.00" fill="#ece1d7">ingress (walker, parser)</text>
<polygon fill="#4d3a28" stroke="none" points="118.12,-254.25 118.12,-277 157.62,-277 157.62,-254.25 118.12,-254.25"/>
<polygon fill="none" stroke="#6e6963" points="118.12,-254.25 118.12,-277 157.62,-277 157.62,-254.25 118.12,-254.25"/>
<polygon fill="none" stroke="#6e6963" points="157.62,-254.25 157.62,-277 335.88,-277 335.88,-254.25 157.62,-254.25"/>
<text xml:space="preserve" text-anchor="start" x="168.38" y="-262.25" font-family="Helvetica,sans-Serif" font-size="10.00" fill="#ece1d7">walshadow filter / rewrite (sync)</text>
<polygon fill="#4d4d28" stroke="none" points="118.12,-231.5 118.12,-254.25 157.62,-254.25 157.62,-231.5 118.12,-231.5"/>
<polygon fill="none" stroke="#6e6963" points="118.12,-231.5 118.12,-254.25 157.62,-254.25 157.62,-231.5 118.12,-231.5"/>
<polygon fill="none" stroke="#6e6963" points="157.62,-231.5 157.62,-254.25 335.88,-254.25 335.88,-231.5 157.62,-231.5"/>
<text xml:space="preserve" text-anchor="start" x="174.75" y="-239.5" font-family="Helvetica,sans-Serif" font-size="10.00" fill="#ece1d7">CatalogTracker state + inputs</text>
<polygon fill="#4d3850" stroke="none" points="118.12,-208.75 118.12,-231.5 157.62,-231.5 157.62,-208.75 118.12,-208.75"/>
<polygon fill="none" stroke="#6e6963" points="118.12,-208.75 118.12,-231.5 157.62,-231.5 157.62,-208.75 118.12,-208.75"/>
<polygon fill="none" stroke="#6e6963" points="157.62,-208.75 157.62,-231.5 335.88,-231.5 335.88,-208.75 157.62,-208.75"/>
<text xml:space="preserve" text-anchor="start" x="189.38" y="-216.75" font-family="Helvetica,sans-Serif" font-size="10.00" fill="#ece1d7">on&#45;disk / output artifact</text>
<polygon fill="#34302c" stroke="none" points="118.12,-186 118.12,-208.75 335.88,-208.75 335.88,-186 118.12,-186"/>
<polygon fill="none" stroke="#6e6963" points="118.12,-186 118.12,-208.75 335.88,-208.75 335.88,-186 118.12,-186"/>
<text xml:space="preserve" text-anchor="start" x="193.25" y="-195.25" font-family="Helvetica,sans-Serif" font-weight="bold" font-size="10.00" fill="#ece1d7">edge colour</text>
<polygon fill="none" stroke="#6e6963" points="118.12,-163.25 118.12,-186 157.62,-186 157.62,-163.25 118.12,-163.25"/>
<text xml:space="preserve" text-anchor="start" x="131.88" y="-172.5" font-family="Helvetica,sans-Serif" font-weight="bold" font-size="10.00" fill="#a1a9cc">━━</text>
<polygon fill="none" stroke="#6e6963" points="157.62,-163.25 157.62,-186 335.88,-186 335.88,-163.25 157.62,-163.25"/>
<text xml:space="preserve" text-anchor="start" x="187.12" y="-171.25" font-family="Helvetica,sans-Serif" font-size="10.00" fill="#ece1d7">source replication frame</text>
<polygon fill="none" stroke="#6e6963" points="118.12,-140.5 118.12,-163.25 157.62,-163.25 157.62,-140.5 118.12,-140.5"/>
<text xml:space="preserve" text-anchor="start" x="131.88" y="-149.75" font-family="Helvetica,sans-Serif" font-weight="bold" font-size="10.00" fill="#bd8183">━━</text>
<polygon fill="none" stroke="#6e6963" points="157.62,-140.5 157.62,-163.25 335.88,-163.25 335.88,-140.5 157.62,-140.5"/>
<text xml:space="preserve" text-anchor="start" x="176.62" y="-148.5" font-family="Helvetica,sans-Serif" font-size="10.00" fill="#ece1d7">decision → rewrite (hot path)</text>
<polygon fill="none" stroke="#6e6963" points="118.12,-117.75 118.12,-140.5 157.62,-140.5 157.62,-117.75 118.12,-117.75"/>
<text xml:space="preserve" text-anchor="start" x="131.88" y="-127" font-family="Helvetica,sans-Serif" font-weight="bold" font-size="10.00" fill="#cba85e">┄┄</text>
<polygon fill="none" stroke="#6e6963" points="157.62,-117.75 157.62,-140.5 335.88,-140.5 335.88,-117.75 157.62,-117.75"/>
<text xml:space="preserve" text-anchor="start" x="168.75" y="-125.75" font-family="Helvetica,sans-Serif" font-size="10.00" fill="#ece1d7">tracker update + catalog lookup</text>
<polygon fill="#34302c" stroke="none" points="118.12,-95 118.12,-117.75 335.88,-117.75 335.88,-95 118.12,-95"/>
<polygon fill="none" stroke="#6e6963" points="118.12,-95 118.12,-117.75 335.88,-117.75 335.88,-95 118.12,-95"/>
<text xml:space="preserve" text-anchor="start" x="208.25" y="-104.25" font-family="Helvetica,sans-Serif" font-weight="bold" font-size="10.00" fill="#ece1d7">source</text>
<polygon fill="none" stroke="#6e6963" points="118.12,-72.25 118.12,-95 335.88,-95 335.88,-72.25 118.12,-72.25"/>
<text xml:space="preserve" text-anchor="start" x="153.5" y="-81.5" font-family="monospace" font-size="10.00" fill="#ece1d7">src/filter.rs</text>
<text xml:space="preserve" text-anchor="start" x="221.75" y="-81.5" font-family="Helvetica,sans-Serif" font-size="10.00" fill="#ece1d7"> — Filter::decide</text>
<polygon fill="none" stroke="#6e6963" points="118.12,-49.5 118.12,-72.25 335.88,-72.25 335.88,-49.5 118.12,-49.5"/>
<text xml:space="preserve" text-anchor="start" x="125.38" y="-58.75" font-family="monospace" font-size="10.00" fill="#ece1d7">src/catalog_tracker.rs</text>
<text xml:space="preserve" text-anchor="start" x="240.88" y="-58.75" font-family="Helvetica,sans-Serif" font-size="10.00" fill="#ece1d7"> — CatalogTracker</text>
<polygon fill="none" stroke="#6e6963" points="118.12,-26.75 118.12,-49.5 335.88,-49.5 335.88,-26.75 118.12,-26.75"/>
<text xml:space="preserve" text-anchor="start" x="123.12" y="-36" font-family="monospace" font-size="10.00" fill="#ece1d7">src/rewrite.rs</text>
<text xml:space="preserve" text-anchor="start" x="196.62" y="-36" font-family="Helvetica,sans-Serif" font-size="10.00" fill="#ece1d7"> — noop_replace + CRC32C</text>
<polygon fill="none" stroke="#6e6963" points="118.12,-4 118.12,-26.75 335.88,-26.75 335.88,-4 118.12,-4"/>
<text xml:space="preserve" text-anchor="start" x="133.25" y="-13.25" font-family="monospace" font-size="10.00" fill="#ece1d7">src/main_data.rs</text>
<text xml:space="preserve" text-anchor="start" x="217.25" y="-13.25" font-family="Helvetica,sans-Serif" font-size="10.00" fill="#ece1d7"> — empty reclassifier</text>
</g>
<!-- manifest&#45;&gt;legend -->
</g>
</svg>
