<?xml version="1.0" encoding="UTF-8" standalone="no"?>
<!DOCTYPE svg PUBLIC "-//W3C//DTD SVG 1.1//EN"
 "http://www.w3.org/Graphics/SVG/1.1/DTD/svg11.dtd">
<!-- Generated by graphviz version 14.1.5 (0)
 -->
<!-- Title: filter Pages: 1 -->
<svg width="1011pt" height="2093pt"
 viewBox="0.00 0.00 1011.00 2093.00" xmlns="http://www.w3.org/2000/svg" xmlns:xlink="http://www.w3.org/1999/xlink">
<g id="graph0" class="graph" transform="scale(1 1) rotate(0) translate(4 2088.75)">
<title>filter</title>
<polygon fill="#272623" stroke="none" points="-4,4 -4,-2088.75 1007.38,-2088.75 1007.38,4 -4,4"/>
<text xml:space="preserve" text-anchor="middle" x="501.69" y="-2067.45" font-family="Helvetica,sans-Serif" font-size="14.00" fill="#ece1d7">walshadow filter — per&#45;record keep/drop + byte&#45;preserving NOOP rewrite</text>
<g id="clust1" class="cluster">
<title>cluster_in</title>
<path fill="#34302c" stroke="#4c4641" d="M186,-1658.25C186,-1658.25 414,-1658.25 414,-1658.25 420,-1658.25 426,-1664.25 426,-1670.25 426,-1670.25 426,-2032 426,-2032 426,-2038 420,-2044 414,-2044 414,-2044 186,-2044 186,-2044 180,-2044 174,-2038 174,-2032 174,-2032 174,-1670.25 174,-1670.25 174,-1664.25 180,-1658.25 186,-1658.25"/>
<text xml:space="preserve" text-anchor="middle" x="300" y="-2026.7" font-family="Helvetica,sans-Serif" font-size="14.00" fill="#ece1d7">① ingress</text>
</g>
<g id="clust2" class="cluster">
<title>cluster_decide</title>
<path fill="#34302c" stroke="#4c4641" d="M20,-912C20,-912 354,-912 354,-912 360,-912 366,-918 366,-924 366,-924 366,-1621.25 366,-1621.25 366,-1627.25 360,-1633.25 354,-1633.25 354,-1633.25 20,-1633.25 20,-1633.25 14,-1633.25 8,-1627.25 8,-1621.25 8,-1621.25 8,-924 8,-924 8,-918 14,-912 20,-912"/>
<text xml:space="preserve" text-anchor="middle" x="187" y="-1615.95" font-family="Helvetica,sans-Serif" font-size="14.00" fill="#ece1d7">② Filter::decide &#160;(per record, post&#45;update tracker)</text>
</g>
<g id="clust4" class="cluster">
<title>cluster_track</title>
<path fill="#34302c" stroke="#4c4641" d="M386,-1335.5C386,-1335.5 682,-1335.5 682,-1335.5 688,-1335.5 694,-1341.5 694,-1347.5 694,-1347.5 694,-1498.5 694,-1498.5 694,-1504.5 688,-1510.5 682,-1510.5 682,-1510.5 386,-1510.5 386,-1510.5 380,-1510.5 374,-1504.5 374,-1498.5 374,-1498.5 374,-1347.5 374,-1347.5 374,-1341.5 380,-1335.5 386,-1335.5"/>
<text xml:space="preserve" text-anchor="middle" x="534" y="-1493.2" font-family="Helvetica,sans-Serif" font-size="14.00" fill="#ece1d7">③ CatalogTracker &#160;(live catalog filenode set)</text>
</g>
<g id="clust5" class="cluster">
<title>cluster_rw</title>
<path fill="#34302c" stroke="#4c4641" d="M23,-570.75C23,-570.75 351,-570.75 351,-570.75 357,-570.75 363,-576.75 363,-582.75 363,-582.75 363,-875 363,-875 363,-881 357,-887 351,-887 351,-887 23,-887 23,-887 17,-887 11,-881 11,-875 11,-875 11,-582.75 11,-582.75 11,-576.75 17,-570.75 23,-570.75"/>
<text xml:space="preserve" text-anchor="middle" x="187" y="-869.7" font-family="Helvetica,sans-Serif" font-size="14.00" fill="#ece1d7">④ rewrite + emit</text>
</g>
<!-- chunk -->
<g id="node1" class="node">
<title>chunk</title>
<path fill="#3d3d54" stroke="#6e6963" d="M406.45,-2010.75C406.45,-2010.75 242.02,-2010.75 242.02,-2010.75 236.02,-2010.75 227.24,-2005.44 224.45,-2000.12 224.45,-2000.12 187.12,-1928.88 187.12,-1928.88 184.34,-1923.56 187.55,-1918.25 193.55,-1918.25 193.55,-1918.25 357.98,-1918.25 357.98,-1918.25 363.98,-1918.25 372.76,-1923.56 375.55,-1928.88 375.55,-1928.88 412.88,-2000.12 412.88,-2000.12 415.66,-2005.44 412.45,-2010.75 406.45,-2010.75"/>
<text xml:space="preserve" text-anchor="middle" x="300" y="-1974.12" font-family="Helvetica,sans-Serif" font-size="10.00" fill="#ece1d7">WalChunk</text>
<text xml:space="preserve" text-anchor="middle" x="300" y="-1961.38" font-family="Helvetica,sans-Serif" font-size="10.00" fill="#ece1d7">(source&#45;order bytes,</text>
<text xml:space="preserve" text-anchor="middle" x="300" y="-1948.62" font-family="Helvetica,sans-Serif" font-size="10.00" fill="#ece1d7">page&#45;framed)</text>
</g>
<!-- walker -->
<g id="node2" class="node">
<title>walker</title>
<path fill="#3d3d54" stroke="#6e6963" d="M363.88,-1820.5C363.88,-1820.5 236.12,-1820.5 236.12,-1820.5 230.12,-1820.5 224.12,-1814.5 224.12,-1808.5 224.12,-1808.5 224.12,-1773.5 224.12,-1773.5 224.12,-1767.5 230.12,-1761.5 236.12,-1761.5 236.12,-1761.5 363.88,-1761.5 363.88,-1761.5 369.88,-1761.5 375.88,-1767.5 375.88,-1773.5 375.88,-1773.5 375.88,-1808.5 375.88,-1808.5 375.88,-1814.5 369.88,-1820.5 363.88,-1820.5"/>
<text xml:space="preserve" text-anchor="middle" x="300" y="-1807" font-family="Helvetica,sans-Serif" font-size="10.00" fill="#ece1d7">StreamingWalker</text>
<text xml:space="preserve" text-anchor="middle" x="300" y="-1794.25" font-family="Helvetica,sans-Serif" font-size="10.00" fill="#ece1d7">stitch records across pages,</text>
<text xml:space="preserve" text-anchor="middle" x="300" y="-1781.5" font-family="Helvetica,sans-Serif" font-size="10.00" fill="#ece1d7">yield (logical_bytes,</text>
<text xml:space="preserve" text-anchor="middle" x="300" y="-1768.75" font-family="Helvetica,sans-Serif" font-size="10.00" fill="#ece1d7"> byte_ranges, page_magic)</text>
</g>
<!-- chunk&#45;&gt;walker -->
<g id="edge1" class="edge">
<title>chunk&#45;&gt;walker</title>
<path fill="none" stroke="#c1a78e" d="M300,-1917.99C300,-1891.31 300,-1857.92 300,-1832.21"/>
<polygon fill="#c1a78e" stroke="#c1a78e" points="303.5,-1832.51 300,-1822.51 296.5,-1832.51 303.5,-1832.51"/>
</g>
<!-- parse -->
<g id="node3" class="node">
<title>parse</title>
<path fill="#3d3d54" stroke="#6e6963" d="M357.88,-1712.5C357.88,-1712.5 242.12,-1712.5 242.12,-1712.5 236.12,-1712.5 230.12,-1706.5 230.12,-1700.5 230.12,-1700.5 230.12,-1678.25 230.12,-1678.25 230.12,-1672.25 236.12,-1666.25 242.12,-1666.25 242.12,-1666.25 357.88,-1666.25 357.88,-1666.25 363.88,-1666.25 369.88,-1672.25 369.88,-1678.25 369.88,-1678.25 369.88,-1700.5 369.88,-1700.5 369.88,-1706.5 363.88,-1712.5 357.88,-1712.5"/>
<text xml:space="preserve" text-anchor="middle" x="300" y="-1699" font-family="Helvetica,sans-Serif" font-size="10.00" fill="#ece1d7">parse_record_from_bytes</text>
<text xml:space="preserve" text-anchor="middle" x="300" y="-1686.25" font-family="Helvetica,sans-Serif" font-size="10.00" fill="#ece1d7">wal&#45;rs XLogRecord</text>
<text xml:space="preserve" text-anchor="middle" x="300" y="-1673.5" font-family="Helvetica,sans-Serif" font-size="10.00" fill="#ece1d7">blocks + main_data</text>
</g>
<!-- walker&#45;&gt;parse -->
<g id="edge2" class="edge">
<title>walker&#45;&gt;parse</title>
<path fill="none" stroke="#c1a78e" d="M300,-1761.18C300,-1749.63 300,-1736.24 300,-1724.23"/>
<polygon fill="#c1a78e" stroke="#c1a78e" points="303.5,-1724.31 300,-1714.31 296.5,-1724.31 303.5,-1724.31"/>
</g>
<!-- observe -->
<g id="node4" class="node">
<title>observe</title>
<path fill="#4d3a28" stroke="#6e6963" d="M344.75,-1600C344.75,-1600 255.25,-1600 255.25,-1600 249.25,-1600 243.25,-1594 243.25,-1588 243.25,-1588 243.25,-1565.75 243.25,-1565.75 243.25,-1559.75 249.25,-1553.75 255.25,-1553.75 255.25,-1553.75 344.75,-1553.75 344.75,-1553.75 350.75,-1553.75 356.75,-1559.75 356.75,-1565.75 356.75,-1565.75 356.75,-1588 356.75,-1588 356.75,-1594 350.75,-1600 344.75,-1600"/>
<text xml:space="preserve" text-anchor="middle" x="300" y="-1586.5" font-family="Helvetica,sans-Serif" font-size="10.00" fill="#ece1d7">tracker.observe(rec)</text>
<text xml:space="preserve" text-anchor="middle" x="300" y="-1573.75" font-family="Helvetica,sans-Serif" font-size="10.00" fill="#ece1d7">update catalog set</text>
<text xml:space="preserve" text-anchor="middle" x="300" y="-1561" font-family="Helvetica,sans-Serif" font-size="10.00" fill="#ece1d7">before classify</text>
</g>
<!-- parse&#45;&gt;observe -->
<g id="edge9" class="edge">
<title>parse&#45;&gt;observe</title>
<path fill="none" stroke="#a1a9cc" stroke-width="2" d="M300,-1666.01C300,-1660.05 300,-1653.28 300,-1646.2"/>
<polygon fill="#a1a9cc" stroke="#a1a9cc" stroke-width="2" points="303.5,-1646.28 300,-1636.28 296.5,-1646.28 303.5,-1646.28"/>
</g>
<!-- classify -->
<g id="node5" class="node">
<title>classify</title>
<path fill="#4d3a28" stroke="#6e6963" d="M337.88,-1433.5C337.88,-1433.5 258.12,-1433.5 258.12,-1433.5 252.12,-1433.5 246.12,-1427.5 246.12,-1421.5 246.12,-1421.5 246.12,-1399.25 246.12,-1399.25 246.12,-1393.25 252.12,-1387.25 258.12,-1387.25 258.12,-1387.25 337.88,-1387.25 337.88,-1387.25 343.88,-1387.25 349.88,-1393.25 349.88,-1399.25 349.88,-1399.25 349.88,-1421.5 349.88,-1421.5 349.88,-1427.5 343.88,-1433.5 337.88,-1433.5"/>
<text xml:space="preserve" text-anchor="middle" x="298" y="-1420" font-family="Helvetica,sans-Serif" font-size="10.00" fill="#ece1d7">classify::classify</text>
<text xml:space="preserve" text-anchor="middle" x="298" y="-1407.25" font-family="Helvetica,sans-Serif" font-size="10.00" fill="#ece1d7">Special / Catalog /</text>
<text xml:space="preserve" text-anchor="middle" x="298" y="-1394.5" font-family="Helvetica,sans-Serif" font-size="10.00" fill="#ece1d7">User / Empty</text>
</g>
<!-- observe&#45;&gt;classify -->
<g id="edge3" class="edge">
<title>observe&#45;&gt;classify</title>
<path fill="none" stroke="#c1a78e" d="M299.73,-1553.35C299.39,-1525.37 298.8,-1477.39 298.41,-1445.04"/>
<polygon fill="#c1a78e" stroke="#c1a78e" points="301.91,-1445.36 298.29,-1435.41 294.91,-1445.45 301.91,-1445.36"/>
</g>
<!-- nodes -->
<g id="node11" class="node">
<title>nodes</title>
<path fill="#4d4d28" stroke="#6e6963" d="M654.12,-1477.25C654.12,-1477.25 393.88,-1477.25 393.88,-1477.25 387.88,-1477.25 381.88,-1471.25 381.88,-1465.25 381.88,-1465.25 381.88,-1355.5 381.88,-1355.5 381.88,-1349.5 387.88,-1343.5 393.88,-1343.5 393.88,-1343.5 654.12,-1343.5 654.12,-1343.5 660.12,-1343.5 666.12,-1349.5 666.12,-1355.5 666.12,-1355.5 666.12,-1465.25 666.12,-1465.25 666.12,-1471.25 660.12,-1477.25 654.12,-1477.25"/>
<text xml:space="preserve" text-anchor="start" x="393.88" y="-1460.75" font-family="Helvetica,sans-Serif" font-weight="bold" font-size="10.00" fill="#ece1d7">nodes</text>
<text xml:space="preserve" text-anchor="start" x="427.62" y="-1460.75" font-family="Helvetica,sans-Serif" font-size="10.00" fill="#ece1d7">: HashSet&lt;(db, rel)&gt;</text>
<text xml:space="preserve" text-anchor="start" x="393.88" y="-1440.75" font-family="Helvetica,sans-Serif" font-size="10.00" fill="#ece1d7">bootstrap: rel &lt; 16384 ∨ shared (db=0)</text>
<text xml:space="preserve" text-anchor="start" x="393.88" y="-1424.2" font-family="Helvetica,sans-Serif" font-style="italic" font-size="9.00" fill="#ece1d7">tracker.observe(rec) dispatches:</text>
<text xml:space="preserve" text-anchor="start" x="393.88" y="-1405.5" font-family="Helvetica,sans-Serif" font-size="9.00" fill="#ece1d7">• RM_RELMAP_ID → mapoid → filenum (magic 0x592717)</text>
<text xml:space="preserve" text-anchor="start" x="393.88" y="-1388.25" font-family="Helvetica,sans-Serif" font-size="9.00" fill="#ece1d7">• pg_class HEAP insert/update → (oid, relfilenode)</text>
<text xml:space="preserve" text-anchor="start" x="393.88" y="-1371" font-family="Helvetica,sans-Serif" font-size="9.00" fill="#ece1d7">• pg_class heap_delete → coarse epoch++ (DROP signal)</text>
<text xml:space="preserve" text-anchor="start" x="393.88" y="-1353.75" font-family="Helvetica,sans-Serif" font-size="9.00" fill="#ece1d7">• seed_from_source → libpq SELECT pg_class at attach</text>
</g>
<!-- observe&#45;&gt;nodes -->
<g id="edge11" class="edge">
<title>observe&#45;&gt;nodes</title>
<path fill="none" stroke="#cba85e" stroke-dasharray="5,2" d="M330.68,-1553.35C355.09,-1535.41 390.7,-1509.27 424.72,-1484.28"/>
<polygon fill="#cba85e" stroke="#cba85e" points="426.59,-1487.25 432.58,-1478.51 422.44,-1481.61 426.59,-1487.25"/>
<text xml:space="preserve" text-anchor="middle" x="418.2" y="-1521.2" font-family="Helvetica,sans-Serif" font-size="9.00" fill="#ece1d7">tracker.observe(rec)</text>
</g>
<!-- empty -->
<g id="node6" class="node">
<title>empty</title>
<path fill="#4d3a28" stroke="#6e6963" d="M235,-1273C235,-1273 75,-1273 75,-1273 69,-1273 63,-1267 63,-1261 63,-1261 63,-1226 63,-1226 63,-1220 69,-1214 75,-1214 75,-1214 235,-1214 235,-1214 241,-1214 247,-1220 247,-1226 247,-1226 247,-1261 247,-1261 247,-1267 241,-1273 235,-1273"/>
<text xml:space="preserve" text-anchor="middle" x="155" y="-1259.5" font-family="Helvetica,sans-Serif" font-size="10.00" fill="#ece1d7">main_data::relation_for_empty</text>
<text xml:space="preserve" text-anchor="middle" x="155" y="-1246.75" font-family="Helvetica,sans-Serif" font-size="10.00" fill="#ece1d7">XLOG_HEAP2_NEW_CID (0x70)</text>
<text xml:space="preserve" text-anchor="middle" x="155" y="-1234" font-family="Helvetica,sans-Serif" font-size="10.00" fill="#ece1d7">XLOG_BTREE_REUSE_PAGE (0xD0)</text>
<text xml:space="preserve" text-anchor="middle" x="155" y="-1221.25" font-family="Helvetica,sans-Serif" font-size="10.00" fill="#ece1d7">extract RelFileLocator</text>
</g>
<!-- classify&#45;&gt;empty -->
<g id="edge5" class="edge">
<title>classify&#45;&gt;empty</title>
<path fill="none" stroke="#c1a78e" d="M278.42,-1386.8C254.96,-1359.76 215.34,-1314.07 187.33,-1281.77"/>
<polygon fill="#c1a78e" stroke="#c1a78e" points="190.3,-1279.86 181.11,-1274.6 185.01,-1284.45 190.3,-1279.86"/>
<text xml:space="preserve" text-anchor="middle" x="243.06" y="-1310.95" font-family="Helvetica,sans-Serif" font-size="9.00" fill="#ece1d7">Empty</text>
<text xml:space="preserve" text-anchor="middle" x="243.06" y="-1299.7" font-family="Helvetica,sans-Serif" font-size="9.00" fill="#ece1d7">(no blocks)</text>
</g>
<!-- iscat -->
<g id="node7" class="node">
<title>iscat</title>
<path fill="#4d3a28" stroke="#6e6963" d="M221.75,-1139.33C221.75,-1139.33 119.5,-1101.42 119.5,-1101.42 113.88,-1099.34 113.88,-1095.16 119.5,-1093.08 119.5,-1093.08 221.75,-1055.17 221.75,-1055.17 227.37,-1053.09 238.63,-1053.09 244.25,-1055.17 244.25,-1055.17 346.5,-1093.08 346.5,-1093.08 352.12,-1095.16 352.12,-1099.34 346.5,-1101.42 346.5,-1101.42 244.25,-1139.33 244.25,-1139.33 238.63,-1141.41 227.37,-1141.41 221.75,-1139.33"/>
<text xml:space="preserve" text-anchor="middle" x="233" y="-1106.88" font-family="Helvetica,sans-Serif" font-size="10.00" fill="#ece1d7">tracker.is_catalog</text>
<text xml:space="preserve" text-anchor="middle" x="233" y="-1094.12" font-family="Helvetica,sans-Serif" font-size="10.00" fill="#ece1d7">(db_node, rel_node)</text>
<text xml:space="preserve" text-anchor="middle" x="233" y="-1081.38" font-family="Helvetica,sans-Serif" font-size="10.00" fill="#ece1d7">+ shared (0, rel_node)</text>
</g>
<!-- classify&#45;&gt;iscat -->
<g id="edge4" class="edge">
<title>classify&#45;&gt;iscat</title>
<path fill="none" stroke="#c1a78e" d="M294.56,-1387C288.84,-1350.57 276.63,-1276.28 263,-1214 258.43,-1193.14 252.69,-1170.35 247.46,-1150.55"/>
<polygon fill="#c1a78e" stroke="#c1a78e" points="250.88,-1149.81 244.92,-1141.05 244.12,-1151.61 250.88,-1149.81"/>
<text xml:space="preserve" text-anchor="middle" x="291.33" y="-1246.2" font-family="Helvetica,sans-Serif" font-size="9.00" fill="#ece1d7">User /</text>
<text xml:space="preserve" text-anchor="middle" x="291.33" y="-1234.95" font-family="Helvetica,sans-Serif" font-size="9.00" fill="#ece1d7">Catalog</text>
</g>
<!-- policy -->
<g id="node10" class="node">
<title>policy</title>
<path fill="#6e6963" stroke="none" d="M991.38,-2059.5C991.38,-2059.5 462.62,-2059.5 462.62,-2059.5 456.62,-2059.5 450.62,-2053.5 450.62,-2047.5 450.62,-2047.5 450.62,-1881.5 450.62,-1881.5 450.62,-1875.5 456.62,-1869.5 462.62,-1869.5 462.62,-1869.5 991.38,-1869.5 991.38,-1869.5 997.38,-1869.5 1003.38,-1875.5 1003.38,-1881.5 1003.38,-1881.5 1003.38,-2047.5 1003.38,-2047.5 1003.38,-2053.5 997.38,-2059.5 991.38,-2059.5"/>
<polygon fill="#3a3530" stroke="none" points="458.62,-1873.5 458.62,-2055.5 995.38,-2055.5 995.38,-1873.5 458.62,-1873.5"/>
<polygon fill="#4c4641" stroke="none" points="458.62,-2032.75 458.62,-2055.5 995.38,-2055.5 995.38,-2032.75 458.62,-2032.75"/>
<polygon fill="none" stroke="#6e6963" points="458.62,-2032.75 458.62,-2055.5 995.38,-2055.5 995.38,-2032.75 458.62,-2032.75"/>
<text xml:space="preserve" text-anchor="start" x="677.88" y="-2042" font-family="Helvetica,sans-Serif" font-weight="bold" font-size="10.00" fill="#ece1d7">rmgr keep policy</text>
<polygon fill="none" stroke="#6e6963" points="458.62,-2010 458.62,-2032.75 726.62,-2032.75 726.62,-2010 458.62,-2010"/>
<text xml:space="preserve" text-anchor="start" x="558.88" y="-2018" font-family="Helvetica,sans-Serif" font-size="10.00" fill="#ece1d7">HEAP / HEAP2</text>
<polygon fill="none" stroke="#6e6963" points="726.62,-2010 726.62,-2032.75 995.38,-2032.75 995.38,-2010 726.62,-2010"/>
<text xml:space="preserve" text-anchor="start" x="785.62" y="-2018" font-family="Helvetica,sans-Serif" font-size="10.00" fill="#ece1d7">keep iff block ref ∈ catalog set</text>
<polygon fill="none" stroke="#6e6963" points="458.62,-1987.25 458.62,-2010 726.62,-2010 726.62,-1987.25 458.62,-1987.25"/>
<text xml:space="preserve" text-anchor="start" x="576.88" y="-1995.25" font-family="Helvetica,sans-Serif" font-size="10.00" fill="#ece1d7">BTREE</text>
<polygon fill="none" stroke="#6e6963" points="726.62,-1987.25 726.62,-2010 995.38,-2010 995.38,-1987.25 726.62,-1987.25"/>
<text xml:space="preserve" text-anchor="start" x="785.62" y="-1995.25" font-family="Helvetica,sans-Serif" font-size="10.00" fill="#ece1d7">keep iff block ref ∈ catalog set</text>
<polygon fill="none" stroke="#6e6963" points="458.62,-1964.5 458.62,-1987.25 726.62,-1987.25 726.62,-1964.5 458.62,-1964.5"/>
<text xml:space="preserve" text-anchor="start" x="511.25" y="-1972.5" font-family="Helvetica,sans-Serif" font-size="10.00" fill="#ece1d7">HASH / GIN / GIST / SPGIST / BRIN</text>
<polygon fill="none" stroke="#6e6963" points="726.62,-1964.5 726.62,-1987.25 995.38,-1987.25 995.38,-1964.5 726.62,-1964.5"/>
<text xml:space="preserve" text-anchor="start" x="815.62" y="-1972.5" font-family="Helvetica,sans-Serif" font-size="10.00" fill="#ece1d7">drop on user index</text>
<polygon fill="none" stroke="#6e6963" points="458.62,-1941.75 458.62,-1964.5 726.62,-1964.5 726.62,-1941.75 458.62,-1941.75"/>
<text xml:space="preserve" text-anchor="start" x="519.88" y="-1949.75" font-family="Helvetica,sans-Serif" font-size="10.00" fill="#ece1d7">SEQ / GENERIC / LOGICALMSG</text>
<polygon fill="none" stroke="#6e6963" points="726.62,-1941.75 726.62,-1964.5 995.38,-1964.5 995.38,-1941.75 726.62,-1941.75"/>
<text xml:space="preserve" text-anchor="start" x="800.25" y="-1949.75" font-family="Helvetica,sans-Serif" font-size="10.00" fill="#ece1d7">drop when no catalog ref</text>
<polygon fill="none" stroke="#6e6963" points="458.62,-1919 458.62,-1941.75 726.62,-1941.75 726.62,-1919 458.62,-1919"/>
<text xml:space="preserve" text-anchor="start" x="477.5" y="-1927" font-family="Helvetica,sans-Serif" font-size="10.00" fill="#ece1d7">RELMAP / XACT / CLOG / MULTIXACT / STANDBY</text>
<polygon fill="none" stroke="#6e6963" points="726.62,-1919 726.62,-1941.75 995.38,-1941.75 995.38,-1919 726.62,-1919"/>
<text xml:space="preserve" text-anchor="start" x="830.62" y="-1927" font-family="Helvetica,sans-Serif" font-size="10.00" fill="#ece1d7">always keep</text>
<polygon fill="none" stroke="#6e6963" points="458.62,-1896.25 458.62,-1919 726.62,-1919 726.62,-1896.25 458.62,-1896.25"/>
<text xml:space="preserve" text-anchor="start" x="463.62" y="-1904.25" font-family="Helvetica,sans-Serif" font-size="10.00" fill="#ece1d7">COMMIT_TS / REPL_ORIGIN / DBASE / TBLSPC / SMGR</text>
<polygon fill="none" stroke="#6e6963" points="726.62,-1896.25 726.62,-1919 995.38,-1919 995.38,-1896.25 726.62,-1896.25"/>
<text xml:space="preserve" text-anchor="start" x="830.62" y="-1904.25" font-family="Helvetica,sans-Serif" font-size="10.00" fill="#ece1d7">always keep</text>
<polygon fill="none" stroke="#6e6963" points="458.62,-1873.5 458.62,-1896.25 726.62,-1896.25 726.62,-1873.5 458.62,-1873.5"/>
<text xml:space="preserve" text-anchor="start" x="579.12" y="-1881.5" font-family="Helvetica,sans-Serif" font-size="10.00" fill="#ece1d7">XLOG</text>
<polygon fill="none" stroke="#6e6963" points="726.62,-1873.5 726.62,-1896.25 995.38,-1896.25 995.38,-1873.5 726.62,-1873.5"/>
<text xml:space="preserve" text-anchor="start" x="731.62" y="-1881.5" font-family="Helvetica,sans-Serif" font-size="10.00" fill="#ece1d7">CHECKPOINT / NEXTOID / PARAMETER_CHANGE keep</text>
</g>
<!-- classify&#45;&gt;policy -->
<g id="edge10" class="edge">
<title>classify&#45;&gt;policy</title>
<path fill="none" stroke="#6e6963" stroke-dasharray="5,2" d="M306.54,-1433.96C316.77,-1457.54 336.34,-1493.42 366,-1510.5 386.47,-1522.29 452.02,-1505.89 472,-1518.5 598.32,-1598.21 668.59,-1764.53 702.02,-1869.73"/>
<text xml:space="preserve" text-anchor="middle" x="653.44" y="-1692.08" font-family="Helvetica,sans-Serif" font-size="9.00" fill="#ece1d7">rmgr →</text>
<text xml:space="preserve" text-anchor="middle" x="653.44" y="-1680.83" font-family="Helvetica,sans-Serif" font-size="9.00" fill="#ece1d7">class</text>
</g>
<!-- empty&#45;&gt;iscat -->
<g id="edge6" class="edge">
<title>empty&#45;&gt;iscat</title>
<path fill="none" stroke="#c1a78e" d="M170.6,-1213.66C181.01,-1194.4 194.95,-1168.63 207.01,-1146.32"/>
<polygon fill="#c1a78e" stroke="#c1a78e" points="210,-1148.14 211.68,-1137.68 203.85,-1144.81 210,-1148.14"/>
<text xml:space="preserve" text-anchor="middle" x="217.62" y="-1181.45" font-family="Helvetica,sans-Serif" font-size="9.00" fill="#ece1d7">rel from</text>
<text xml:space="preserve" text-anchor="middle" x="217.62" y="-1170.2" font-family="Helvetica,sans-Serif" font-size="9.00" fill="#ece1d7">main_data</text>
</g>
<!-- keep -->
<g id="node8" class="node">
<title>keep</title>
<path fill="#4d3a28" stroke="#6e6963" d="M328.25,-991.75C328.25,-991.75 235.75,-991.75 235.75,-991.75 229.75,-991.75 223.75,-985.75 223.75,-979.75 223.75,-979.75 223.75,-932 223.75,-932 223.75,-926 229.75,-920 235.75,-920 235.75,-920 328.25,-920 328.25,-920 334.25,-920 340.25,-926 340.25,-932 340.25,-932 340.25,-979.75 340.25,-979.75 340.25,-985.75 334.25,-991.75 328.25,-991.75"/>
<text xml:space="preserve" text-anchor="middle" x="282" y="-978.25" font-family="Helvetica,sans-Serif" font-size="10.00" fill="#ece1d7">Decision::Keep</text>
<text xml:space="preserve" text-anchor="middle" x="282" y="-965.5" font-family="Helvetica,sans-Serif" font-size="10.00" fill="#ece1d7">(Special, Catalog,</text>
<text xml:space="preserve" text-anchor="middle" x="282" y="-952.75" font-family="Helvetica,sans-Serif" font-size="10.00" fill="#ece1d7"> promoted User,</text>
<text xml:space="preserve" text-anchor="middle" x="282" y="-940" font-family="Helvetica,sans-Serif" font-size="10.00" fill="#ece1d7"> Empty rel ∈ cat,</text>
<text xml:space="preserve" text-anchor="middle" x="282" y="-927.25" font-family="Helvetica,sans-Serif" font-size="10.00" fill="#ece1d7"> safe&#45;default Empty)</text>
</g>
<!-- iscat&#45;&gt;keep -->
<g id="edge7" class="edge">
<title>iscat&#45;&gt;keep</title>
<path fill="none" stroke="#c1a78e" d="M247.17,-1055.94C253.07,-1039.16 259.95,-1019.6 266.02,-1002.32"/>
<polygon fill="#c1a78e" stroke="#c1a78e" points="269.17,-1003.92 269.19,-993.32 262.57,-1001.59 269.17,-1003.92"/>
<text xml:space="preserve" text-anchor="middle" x="267.93" y="-1018.45" font-family="Helvetica,sans-Serif" font-size="9.00" fill="#ece1d7">yes</text>
</g>
<!-- drop -->
<g id="node9" class="node">
<title>drop</title>
<path fill="#4d3a28" stroke="#6e6963" d="M170.5,-979C170.5,-979 73.5,-979 73.5,-979 67.5,-979 61.5,-973 61.5,-967 61.5,-967 61.5,-944.75 61.5,-944.75 61.5,-938.75 67.5,-932.75 73.5,-932.75 73.5,-932.75 170.5,-932.75 170.5,-932.75 176.5,-932.75 182.5,-938.75 182.5,-944.75 182.5,-944.75 182.5,-967 182.5,-967 182.5,-973 176.5,-979 170.5,-979"/>
<text xml:space="preserve" text-anchor="middle" x="122" y="-965.5" font-family="Helvetica,sans-Serif" font-size="10.00" fill="#ece1d7">Decision::Drop</text>
<text xml:space="preserve" text-anchor="middle" x="122" y="-952.75" font-family="Helvetica,sans-Serif" font-size="10.00" fill="#ece1d7">(User no&#45;cat&#45;ref,</text>
<text xml:space="preserve" text-anchor="middle" x="122" y="-940" font-family="Helvetica,sans-Serif" font-size="10.00" fill="#ece1d7"> Empty rel ∉ catalog)</text>
</g>
<!-- iscat&#45;&gt;drop -->
<g id="edge8" class="edge">
<title>iscat&#45;&gt;drop</title>
<path fill="none" stroke="#c1a78e" d="M204.99,-1061.08C187.12,-1038.64 164.16,-1009.81 146.92,-988.17"/>
<polygon fill="#c1a78e" stroke="#c1a78e" points="149.83,-986.2 140.86,-980.56 144.35,-990.56 149.83,-986.2"/>
<text xml:space="preserve" text-anchor="middle" x="183.12" y="-1018.45" font-family="Helvetica,sans-Serif" font-size="9.00" fill="#ece1d7">no</text>
</g>
<!-- verbatim -->
<g id="node12" class="node">
<title>verbatim</title>
<path fill="#4d3a28" stroke="#6e6963" d="M343,-841C343,-841 255,-841 255,-841 249,-841 243,-835 243,-829 243,-829 243,-806.75 243,-806.75 243,-800.75 249,-794.75 255,-794.75 255,-794.75 343,-794.75 343,-794.75 349,-794.75 355,-800.75 355,-806.75 355,-806.75 355,-829 355,-829 355,-835 349,-841 343,-841"/>
<text xml:space="preserve" text-anchor="middle" x="299" y="-827.5" font-family="Helvetica,sans-Serif" font-size="10.00" fill="#ece1d7">copy logical_bytes</text>
<text xml:space="preserve" text-anchor="middle" x="299" y="-814.75" font-family="Helvetica,sans-Serif" font-size="10.00" fill="#ece1d7">into segment buffer</text>
<text xml:space="preserve" text-anchor="middle" x="299" y="-802" font-family="Helvetica,sans-Serif" font-size="10.00" fill="#ece1d7">at byte_ranges</text>
</g>
<!-- keep&#45;&gt;verbatim -->
<g id="edge15" class="edge">
<title>keep&#45;&gt;verbatim</title>
<path fill="none" stroke="#bd8183" d="M286.38,-919.85C288.96,-899.19 292.21,-873.18 294.77,-852.73"/>
<polygon fill="#bd8183" stroke="#bd8183" points="298.23,-853.27 296,-842.91 291.28,-852.4 298.23,-853.27"/>
</g>
<!-- noop -->
<g id="node13" class="node">
<title>noop</title>
<path fill="#4d3a28" stroke="#6e6963" d="M198.75,-853.75C198.75,-853.75 31.25,-853.75 31.25,-853.75 25.25,-853.75 19.25,-847.75 19.25,-841.75 19.25,-841.75 19.25,-794 19.25,-794 19.25,-788 25.25,-782 31.25,-782 31.25,-782 198.75,-782 198.75,-782 204.75,-782 210.75,-788 210.75,-794 210.75,-794 210.75,-841.75 210.75,-841.75 210.75,-847.75 204.75,-853.75 198.75,-853.75"/>
<text xml:space="preserve" text-anchor="middle" x="115" y="-840.25" font-family="Helvetica,sans-Serif" font-size="10.00" fill="#ece1d7">rewrite::noop_replace</text>
<text xml:space="preserve" text-anchor="middle" x="115" y="-827.5" font-family="Helvetica,sans-Serif" font-size="10.00" fill="#ece1d7">header: keep xl_tot_len, xl_prev;</text>
<text xml:space="preserve" text-anchor="middle" x="115" y="-814.75" font-family="Helvetica,sans-Serif" font-size="10.00" fill="#ece1d7"> info=XLOG_NOOP, rmid=RM_XLOG</text>
<text xml:space="preserve" text-anchor="middle" x="115" y="-802" font-family="Helvetica,sans-Serif" font-size="10.00" fill="#ece1d7">body: zero&#45;fill + main_data marker</text>
<text xml:space="preserve" text-anchor="middle" x="115" y="-789.25" font-family="Helvetica,sans-Serif" font-size="10.00" fill="#ece1d7"> SHORT (≤257) | LONG</text>
</g>
<!-- drop&#45;&gt;noop -->
<g id="edge16" class="edge">
<title>drop&#45;&gt;noop</title>
<path fill="none" stroke="#bd8183" d="M120.84,-932.42C119.91,-914.3 118.57,-888.2 117.4,-865.59"/>
<polygon fill="#bd8183" stroke="#bd8183" points="120.9,-865.47 116.89,-855.66 113.91,-865.83 120.9,-865.47"/>
</g>
<!-- nodes&#45;&gt;iscat -->
<g id="edge12" class="edge">
<title>nodes&#45;&gt;iscat</title>
<path fill="none" stroke="#cba85e" stroke-dasharray="5,2" d="M461.93,-1343.01C404.53,-1281.65 320.97,-1192.31 272.28,-1140.25"/>
<polygon fill="#cba85e" stroke="#cba85e" points="274.91,-1137.93 265.52,-1133.02 269.79,-1142.71 274.91,-1137.93"/>
<text xml:space="preserve" text-anchor="middle" x="433.53" y="-1240.58" font-family="Helvetica,sans-Serif" font-size="9.00" fill="#ece1d7">is_catalog(db, rel)</text>
</g>
<!-- segbuf -->
<g id="node16" class="node">
<title>segbuf</title>
<polygon fill="#4d3850" stroke="#6e6963" points="293.12,-529.75 154.88,-529.75 154.88,-483.5 299.12,-483.5 299.12,-523.75 293.12,-529.75"/>
<polyline fill="none" stroke="#6e6963" points="293.12,-529.75 293.12,-523.75"/>
<polyline fill="none" stroke="#6e6963" points="299.12,-523.75 293.12,-523.75"/>
<text xml:space="preserve" text-anchor="middle" x="227" y="-516.25" font-family="Helvetica,sans-Serif" font-size="10.00" fill="#ece1d7">16 MiB segment buffer</text>
<text xml:space="preserve" text-anchor="middle" x="227" y="-503.5" font-family="Helvetica,sans-Serif" font-size="10.00" fill="#ece1d7">filtered image</text>
<text xml:space="preserve" text-anchor="middle" x="227" y="-490.75" font-family="Helvetica,sans-Serif" font-size="10.00" fill="#ece1d7">filtered_lsn == source_lsn</text>
</g>
<!-- verbatim&#45;&gt;segbuf -->
<g id="edge17" class="edge">
<title>verbatim&#45;&gt;segbuf</title>
<path fill="none" stroke="#c1a78e" d="M295,-794.3C287.12,-750.76 268.47,-652.26 247,-570.75 244.41,-560.92 241.23,-550.35 238.16,-540.73"/>
<polygon fill="#c1a78e" stroke="#c1a78e" points="241.55,-539.83 235.14,-531.4 234.9,-542 241.55,-539.83"/>
</g>
<!-- crc -->
<g id="node14" class="node">
<title>crc</title>
<path fill="#4d3a28" stroke="#6e6963" d="M215.62,-733C215.62,-733 86.38,-733 86.38,-733 80.38,-733 74.38,-727 74.38,-721 74.38,-721 74.38,-698.75 74.38,-698.75 74.38,-692.75 80.38,-686.75 86.38,-686.75 86.38,-686.75 215.62,-686.75 215.62,-686.75 221.62,-686.75 227.62,-692.75 227.62,-698.75 227.62,-698.75 227.62,-721 227.62,-721 227.62,-727 221.62,-733 215.62,-733"/>
<text xml:space="preserve" text-anchor="middle" x="151" y="-719.5" font-family="Helvetica,sans-Serif" font-size="10.00" fill="#ece1d7">CRC32C recompute</text>
<text xml:space="preserve" text-anchor="middle" x="151" y="-706.75" font-family="Helvetica,sans-Serif" font-size="10.00" fill="#ece1d7">INIT → body → header[0..20]</text>
<text xml:space="preserve" text-anchor="middle" x="151" y="-694" font-family="Helvetica,sans-Serif" font-size="10.00" fill="#ece1d7">matches xlog.c:5169</text>
</g>
<!-- noop&#45;&gt;crc -->
<g id="edge13" class="edge">
<title>noop&#45;&gt;crc</title>
<path fill="none" stroke="#c1a78e" d="M126.99,-781.58C131.08,-769.53 135.64,-756.1 139.68,-744.21"/>
<polygon fill="#c1a78e" stroke="#c1a78e" points="142.97,-745.41 142.87,-734.81 136.34,-743.16 142.97,-745.41"/>
</g>
<!-- scatter -->
<g id="node15" class="node">
<title>scatter</title>
<path fill="#4d3a28" stroke="#6e6963" d="M218.62,-637.75C218.62,-637.75 107.38,-637.75 107.38,-637.75 101.38,-637.75 95.38,-631.75 95.38,-625.75 95.38,-625.75 95.38,-590.75 95.38,-590.75 95.38,-584.75 101.38,-578.75 107.38,-578.75 107.38,-578.75 218.62,-578.75 218.62,-578.75 224.62,-578.75 230.62,-584.75 230.62,-590.75 230.62,-590.75 230.62,-625.75 230.62,-625.75 230.62,-631.75 224.62,-637.75 218.62,-637.75"/>
<text xml:space="preserve" text-anchor="middle" x="163" y="-624.25" font-family="Helvetica,sans-Serif" font-size="10.00" fill="#ece1d7">scatter rewritten bytes</text>
<text xml:space="preserve" text-anchor="middle" x="163" y="-611.5" font-family="Helvetica,sans-Serif" font-size="10.00" fill="#ece1d7">into segment buffer</text>
<text xml:space="preserve" text-anchor="middle" x="163" y="-598.75" font-family="Helvetica,sans-Serif" font-size="10.00" fill="#ece1d7">at each byte_range</text>
<text xml:space="preserve" text-anchor="middle" x="163" y="-586" font-family="Helvetica,sans-Serif" font-size="10.00" fill="#ece1d7">(cross&#45;seg: rewrite both)</text>
</g>
<!-- crc&#45;&gt;scatter -->
<g id="edge14" class="edge">
<title>crc&#45;&gt;scatter</title>
<path fill="none" stroke="#c1a78e" d="M153.72,-686.27C155.04,-675.37 156.65,-661.96 158.16,-649.4"/>
<polygon fill="#c1a78e" stroke="#c1a78e" points="161.61,-650.06 159.33,-639.71 154.66,-649.22 161.61,-650.06"/>
</g>
<!-- scatter&#45;&gt;segbuf -->
<g id="edge18" class="edge">
<title>scatter&#45;&gt;segbuf</title>
<path fill="none" stroke="#c1a78e" d="M181.51,-578.43C189.32,-566.28 198.44,-552.09 206.45,-539.61"/>
<polygon fill="#c1a78e" stroke="#c1a78e" points="209.32,-541.63 211.78,-531.32 203.43,-537.84 209.32,-541.63"/>
</g>
<!-- manifest -->
<g id="node17" class="node">
<title>manifest</title>
<polygon fill="#4d3850" stroke="#6e6963" points="280.75,-434.5 167.25,-434.5 167.25,-375.5 286.75,-375.5 286.75,-428.5 280.75,-434.5"/>
<polyline fill="none" stroke="#6e6963" points="280.75,-434.5 280.75,-428.5"/>
<polyline fill="none" stroke="#6e6963" points="286.75,-428.5 280.75,-428.5"/>
<text xml:space="preserve" text-anchor="middle" x="227" y="-421" font-family="Helvetica,sans-Serif" font-size="10.00" fill="#ece1d7">Manifest</text>
<text xml:space="preserve" text-anchor="middle" x="227" y="-408.25" font-family="Helvetica,sans-Serif" font-size="10.00" fill="#ece1d7">records: [{offset, len,</text>
<text xml:space="preserve" text-anchor="middle" x="227" y="-395.5" font-family="Helvetica,sans-Serif" font-size="10.00" fill="#ece1d7"> rmid, info, kind}]</text>
<text xml:space="preserve" text-anchor="middle" x="227" y="-382.75" font-family="Helvetica,sans-Serif" font-size="10.00" fill="#ece1d7">+ FilterStats delta</text>
</g>
<!-- segbuf&#45;&gt;manifest -->
<g id="edge19" class="edge">
<title>segbuf&#45;&gt;manifest</title>
<path fill="none" stroke="#c1a78e" stroke-dasharray="5,2" d="M227,-483.02C227,-472.12 227,-458.71 227,-446.15"/>
<polygon fill="#c1a78e" stroke="#c1a78e" points="230.5,-446.47 227,-436.47 223.5,-446.47 230.5,-446.47"/>
</g>
<!-- legend -->
<g id="node18" class="node">
<title>legend</title>
<path fill="#6e6963" stroke="none" d="M337.88,-326.5C337.88,-326.5 116.12,-326.5 116.12,-326.5 110.12,-326.5 104.12,-320.5 104.12,-314.5 104.12,-314.5 104.12,-12 104.12,-12 104.12,-6 110.12,0 116.12,0 116.12,0 337.88,0 337.88,0 343.88,0 349.88,-6 349.88,-12 349.88,-12 349.88,-314.5 349.88,-314.5 349.88,-320.5 343.88,-326.5 337.88,-326.5"/>
<polygon fill="#34302c" stroke="none" points="112.12,-299.75 112.12,-322.5 341.88,-322.5 341.88,-299.75 112.12,-299.75"/>
<polygon fill="none" stroke="#6e6963" points="112.12,-299.75 112.12,-322.5 341.88,-322.5 341.88,-299.75 112.12,-299.75"/>
<text xml:space="preserve" text-anchor="start" x="183.88" y="-309" font-family="Helvetica,sans-Serif" font-weight="bold" font-size="10.00" fill="#ece1d7">node fill — role</text>
<polygon fill="#3d3d54" stroke="none" points="112.12,-277 112.12,-299.75 157.62,-299.75 157.62,-277 112.12,-277"/>
<polygon fill="none" stroke="#6e6963" points="112.12,-277 112.12,-299.75 157.62,-299.75 157.62,-277 112.12,-277"/>
<polygon fill="none" stroke="#6e6963" points="157.62,-277 157.62,-299.75 341.88,-299.75 341.88,-277 157.62,-277"/>
<text xml:space="preserve" text-anchor="start" x="192.38" y="-285" font-family="Helvetica,sans-Serif" font-size="10.00" fill="#ece1d7">ingress (walker, parser)</text>
<polygon fill="#4d3a28" stroke="none" points="112.12,-254.25 112.12,-277 157.62,-277 157.62,-254.25 112.12,-254.25"/>
<polygon fill="none" stroke="#6e6963" points="112.12,-254.25 112.12,-277 157.62,-277 157.62,-254.25 112.12,-254.25"/>
<polygon fill="none" stroke="#6e6963" points="157.62,-254.25 157.62,-277 341.88,-277 341.88,-254.25 157.62,-254.25"/>
<text xml:space="preserve" text-anchor="start" x="171.38" y="-262.25" font-family="Helvetica,sans-Serif" font-size="10.00" fill="#ece1d7">walshadow filter / rewrite (sync)</text>
<polygon fill="#4d4d28" stroke="none" points="112.12,-231.5 112.12,-254.25 157.62,-254.25 157.62,-231.5 112.12,-231.5"/>
<polygon fill="none" stroke="#6e6963" points="112.12,-231.5 112.12,-254.25 157.62,-254.25 157.62,-231.5 112.12,-231.5"/>
<polygon fill="none" stroke="#6e6963" points="157.62,-231.5 157.62,-254.25 341.88,-254.25 341.88,-231.5 157.62,-231.5"/>
<text xml:space="preserve" text-anchor="start" x="177.75" y="-239.5" font-family="Helvetica,sans-Serif" font-size="10.00" fill="#ece1d7">CatalogTracker state + inputs</text>
<polygon fill="#4d3850" stroke="none" points="112.12,-208.75 112.12,-231.5 157.62,-231.5 157.62,-208.75 112.12,-208.75"/>
<polygon fill="none" stroke="#6e6963" points="112.12,-208.75 112.12,-231.5 157.62,-231.5 157.62,-208.75 112.12,-208.75"/>
<polygon fill="none" stroke="#6e6963" points="157.62,-208.75 157.62,-231.5 341.88,-231.5 341.88,-208.75 157.62,-208.75"/>
<text xml:space="preserve" text-anchor="start" x="192.38" y="-216.75" font-family="Helvetica,sans-Serif" font-size="10.00" fill="#ece1d7">on&#45;disk / output artifact</text>
<polygon fill="#34302c" stroke="none" points="112.12,-186 112.12,-208.75 341.88,-208.75 341.88,-186 112.12,-186"/>
<polygon fill="none" stroke="#6e6963" points="112.12,-186 112.12,-208.75 341.88,-208.75 341.88,-186 112.12,-186"/>
<text xml:space="preserve" text-anchor="start" x="193.25" y="-195.25" font-family="Helvetica,sans-Serif" font-weight="bold" font-size="10.00" fill="#ece1d7">edge colour</text>
<polygon fill="none" stroke="#6e6963" points="112.12,-163.25 112.12,-186 157.62,-186 157.62,-163.25 112.12,-163.25"/>
<text xml:space="preserve" text-anchor="start" x="128.88" y="-172.5" font-family="Helvetica,sans-Serif" font-weight="bold" font-size="10.00" fill="#a1a9cc">━━</text>
<polygon fill="none" stroke="#6e6963" points="157.62,-163.25 157.62,-186 341.88,-186 341.88,-163.25 157.62,-163.25"/>
<text xml:space="preserve" text-anchor="start" x="190.12" y="-171.25" font-family="Helvetica,sans-Serif" font-size="10.00" fill="#ece1d7">source replication frame</text>
<polygon fill="none" stroke="#6e6963" points="112.12,-140.5 112.12,-163.25 157.62,-163.25 157.62,-140.5 112.12,-140.5"/>
<text xml:space="preserve" text-anchor="start" x="128.88" y="-149.75" font-family="Helvetica,sans-Serif" font-weight="bold" font-size="10.00" fill="#bd8183">━━</text>
<polygon fill="none" stroke="#6e6963" points="157.62,-140.5 157.62,-163.25 341.88,-163.25 341.88,-140.5 157.62,-140.5"/>
<text xml:space="preserve" text-anchor="start" x="179.62" y="-148.5" font-family="Helvetica,sans-Serif" font-size="10.00" fill="#ece1d7">decision → rewrite (hot path)</text>
<polygon fill="none" stroke="#6e6963" points="112.12,-117.75 112.12,-140.5 157.62,-140.5 157.62,-117.75 112.12,-117.75"/>
<text xml:space="preserve" text-anchor="start" x="128.88" y="-127" font-family="Helvetica,sans-Serif" font-weight="bold" font-size="10.00" fill="#cba85e">┄┄</text>
<polygon fill="none" stroke="#6e6963" points="157.62,-117.75 157.62,-140.5 341.88,-140.5 341.88,-117.75 157.62,-117.75"/>
<text xml:space="preserve" text-anchor="start" x="171.75" y="-125.75" font-family="Helvetica,sans-Serif" font-size="10.00" fill="#ece1d7">tracker update + catalog lookup</text>
<polygon fill="#34302c" stroke="none" points="112.12,-95 112.12,-117.75 341.88,-117.75 341.88,-95 112.12,-95"/>
<polygon fill="none" stroke="#6e6963" points="112.12,-95 112.12,-117.75 341.88,-117.75 341.88,-95 112.12,-95"/>
<text xml:space="preserve" text-anchor="start" x="208.25" y="-104.25" font-family="Helvetica,sans-Serif" font-weight="bold" font-size="10.00" fill="#ece1d7">source</text>
<polygon fill="none" stroke="#6e6963" points="112.12,-72.25 112.12,-95 341.88,-95 341.88,-72.25 112.12,-72.25"/>
<text xml:space="preserve" text-anchor="start" x="148.62" y="-81.5" font-family="monospace" font-size="10.00" fill="#ece1d7">src/filter.rs</text>
<text xml:space="preserve" text-anchor="start" x="226.62" y="-81.5" font-family="Helvetica,sans-Serif" font-size="10.00" fill="#ece1d7"> — Filter::decide</text>
<polygon fill="none" stroke="#6e6963" points="112.12,-49.5 112.12,-72.25 341.88,-72.25 341.88,-49.5 112.12,-49.5"/>
<text xml:space="preserve" text-anchor="start" x="117.12" y="-58.75" font-family="monospace" font-size="10.00" fill="#ece1d7">src/catalog_tracker.rs</text>
<text xml:space="preserve" text-anchor="start" x="249.12" y="-58.75" font-family="Helvetica,sans-Serif" font-size="10.00" fill="#ece1d7"> — CatalogTracker</text>
<polygon fill="none" stroke="#6e6963" points="112.12,-26.75 112.12,-49.5 341.88,-49.5 341.88,-26.75 112.12,-26.75"/>
<text xml:space="preserve" text-anchor="start" x="117.88" y="-36" font-family="monospace" font-size="10.00" fill="#ece1d7">src/rewrite.rs</text>
<text xml:space="preserve" text-anchor="start" x="201.88" y="-36" font-family="Helvetica,sans-Serif" font-size="10.00" fill="#ece1d7"> — noop_replace + CRC32C</text>
<polygon fill="none" stroke="#6e6963" points="112.12,-4 112.12,-26.75 341.88,-26.75 341.88,-4 112.12,-4"/>
<text xml:space="preserve" text-anchor="start" x="127.25" y="-13.25" font-family="monospace" font-size="10.00" fill="#ece1d7">src/main_data.rs</text>
<text xml:space="preserve" text-anchor="start" x="223.25" y="-13.25" font-family="Helvetica,sans-Serif" font-size="10.00" fill="#ece1d7"> — empty reclassifier</text>
</g>
<!-- manifest&#45;&gt;legend -->
</g>
</svg>
