<?xml version="1.0" encoding="UTF-8" standalone="no"?>
<!DOCTYPE svg PUBLIC "-//W3C//DTD SVG 1.1//EN"
 "http://www.w3.org/Graphics/SVG/1.1/DTD/svg11.dtd">
<!-- Generated by graphviz version 15.1.0 (20260618.0150)
 -->
<!-- Title: internals Pages: 1 -->
<svg width="2459pt" height="2993pt"
 viewBox="0.00 0.00 2459.00 2993.00" xmlns="http://www.w3.org/2000/svg" xmlns:xlink="http://www.w3.org/1999/xlink">
<g id="graph0" class="graph" transform="scale(1 1) rotate(0) translate(4 2988.73)">
<title>internals</title>
<polygon fill="#272623" stroke="none" points="-4,4 -4,-2988.73 2455.35,-2988.73 2455.35,4 -4,4"/>
<text xml:space="preserve" text-anchor="middle" x="1225.68" y="-2967.43" font-family="Helvetica,sans-Serif" font-size="14.00" fill="#ece1d7">walshadow internals — pipeline stages, taps &amp; caches</text>
<g id="clust1" class="cluster">
<title>cluster_ingress</title>
<path fill="#34302c" stroke="#4c4641" d="M1406.35,-2635.48C1406.35,-2635.48 1704.35,-2635.48 1704.35,-2635.48 1710.35,-2635.48 1716.35,-2641.48 1716.35,-2647.48 1716.35,-2647.48 1716.35,-2882.48 1716.35,-2882.48 1716.35,-2888.48 1710.35,-2894.48 1704.35,-2894.48 1704.35,-2894.48 1406.35,-2894.48 1406.35,-2894.48 1400.35,-2894.48 1394.35,-2888.48 1394.35,-2882.48 1394.35,-2882.48 1394.35,-2647.48 1394.35,-2647.48 1394.35,-2641.48 1400.35,-2635.48 1406.35,-2635.48"/>
<text xml:space="preserve" text-anchor="middle" x="1555.35" y="-2877.18" font-family="Helvetica,sans-Serif" font-size="14.00" fill="#ece1d7">① ingress (main loop, tokio)</text>
</g>
<g id="clust2" class="cluster">
<title>cluster_filter</title>
<path fill="#34302c" stroke="#4c4641" d="M1409.35,-2227.42C1409.35,-2227.42 1711.35,-2227.42 1711.35,-2227.42 1717.35,-2227.42 1723.35,-2233.42 1723.35,-2239.42 1723.35,-2239.42 1723.35,-2602.48 1723.35,-2602.48 1723.35,-2608.48 1717.35,-2614.48 1711.35,-2614.48 1711.35,-2614.48 1409.35,-2614.48 1409.35,-2614.48 1403.35,-2614.48 1397.35,-2608.48 1397.35,-2602.48 1397.35,-2602.48 1397.35,-2239.42 1397.35,-2239.42 1397.35,-2233.42 1403.35,-2227.42 1409.35,-2227.42"/>
<text xml:space="preserve" text-anchor="middle" x="1560.35" y="-2597.18" font-family="Helvetica,sans-Serif" font-size="14.00" fill="#ece1d7">② filter pipeline (sync, record cadence)</text>
</g>
<g id="clust3" class="cluster">
<title>cluster_fanout</title>
<path fill="#34302c" stroke="#4c4641" d="M1113.35,-2080.92C1113.35,-2080.92 1599.35,-2080.92 1599.35,-2080.92 1605.35,-2080.92 1611.35,-2086.92 1611.35,-2092.92 1611.35,-2092.92 1611.35,-2194.42 1611.35,-2194.42 1611.35,-2200.42 1605.35,-2206.42 1599.35,-2206.42 1599.35,-2206.42 1113.35,-2206.42 1113.35,-2206.42 1107.35,-2206.42 1101.35,-2200.42 1101.35,-2194.42 1101.35,-2194.42 1101.35,-2092.92 1101.35,-2092.92 1101.35,-2086.92 1107.35,-2080.92 1113.35,-2080.92"/>
<text xml:space="preserve" text-anchor="middle" x="1356.35" y="-2189.12" font-family="Helvetica,sans-Serif" font-size="14.00" fill="#ece1d7">③ CompositeRecordSink fan&#45;out (pump task, sync — ordering matters)</text>
</g>
<g id="clust4" class="cluster">
<title>cluster_queue</title>
<path fill="#34302c" stroke="#4c4641" d="M869.35,-1551.55C869.35,-1551.55 1245.35,-1551.55 1245.35,-1551.55 1251.35,-1551.55 1257.35,-1557.55 1257.35,-1563.55 1257.35,-1563.55 1257.35,-2047.92 1257.35,-2047.92 1257.35,-2053.92 1251.35,-2059.92 1245.35,-2059.92 1245.35,-2059.92 869.35,-2059.92 869.35,-2059.92 863.35,-2059.92 857.35,-2053.92 857.35,-2047.92 857.35,-2047.92 857.35,-1563.55 857.35,-1563.55 857.35,-1557.55 863.35,-1551.55 869.35,-1551.55"/>
<text xml:space="preserve" text-anchor="middle" x="1057.35" y="-2042.62" font-family="Helvetica,sans-Serif" font-size="14.00" fill="#ece1d7">④ QueueingRecordSink — pump ↔ decoder decoupling</text>
</g>
<g id="clust5" class="cluster">
<title>cluster_decode</title>
<path fill="#34302c" stroke="#4c4641" d="M382.35,-1220.92C382.35,-1220.92 820.35,-1220.92 820.35,-1220.92 826.35,-1220.92 832.35,-1226.92 832.35,-1232.92 832.35,-1232.92 832.35,-1647.17 832.35,-1647.17 832.35,-1653.17 826.35,-1659.17 820.35,-1659.17 820.35,-1659.17 382.35,-1659.17 382.35,-1659.17 376.35,-1659.17 370.35,-1653.17 370.35,-1647.17 370.35,-1647.17 370.35,-1232.92 370.35,-1232.92 370.35,-1226.92 376.35,-1220.92 382.35,-1220.92"/>
<text xml:space="preserve" text-anchor="middle" x="601.35" y="-1641.87" font-family="Helvetica,sans-Serif" font-size="14.00" fill="#ece1d7">⑤ decode + xact buffer (worker task — gated on shadow apply)</text>
</g>
<g id="clust6" class="cluster">
<title>cluster_ch</title>
<path fill="#34302c" stroke="#4c4641" d="M330.35,-14.38C330.35,-14.38 818.35,-14.38 818.35,-14.38 824.35,-14.38 830.35,-20.38 830.35,-26.38 830.35,-26.38 830.35,-1033.67 830.35,-1033.67 830.35,-1039.67 824.35,-1045.67 818.35,-1045.67 818.35,-1045.67 330.35,-1045.67 330.35,-1045.67 324.35,-1045.67 318.35,-1039.67 318.35,-1033.67 318.35,-1033.67 318.35,-26.38 318.35,-26.38 318.35,-20.38 324.35,-14.38 330.35,-14.38"/>
<text xml:space="preserve" text-anchor="middle" x="574.35" y="-1028.37" font-family="Helvetica,sans-Serif" font-size="14.00" fill="#ece1d7">⑥ emitter pipeline — shared path for ClickHouse and metrics&#45;only runs</text>
</g>
<g id="clust7" class="cluster">
<title>cluster_catalog</title>
<path fill="#34302c" stroke="#4c4641" d="M1348.35,-294.17C1348.35,-294.17 1804.35,-294.17 1804.35,-294.17 1810.35,-294.17 1816.35,-300.17 1816.35,-306.17 1816.35,-306.17 1816.35,-876.92 1816.35,-876.92 1816.35,-882.92 1810.35,-888.92 1804.35,-888.92 1804.35,-888.92 1348.35,-888.92 1348.35,-888.92 1342.35,-888.92 1336.35,-882.92 1336.35,-876.92 1336.35,-876.92 1336.35,-306.17 1336.35,-306.17 1336.35,-300.17 1342.35,-294.17 1348.35,-294.17"/>
<text xml:space="preserve" text-anchor="middle" x="1576.35" y="-871.62" font-family="Helvetica,sans-Serif" font-size="14.00" fill="#ece1d7">⑦ ShadowCatalog cache + SchemaEvent channel</text>
</g>
<g id="clust8" class="cluster">
<title>cluster_ddl</title>
<path fill="#34302c" stroke="#4c4641" d="M2180.35,-8C2180.35,-8 2431.35,-8 2431.35,-8 2437.35,-8 2443.35,-14 2443.35,-20 2443.35,-20 2443.35,-418.05 2443.35,-418.05 2443.35,-424.05 2437.35,-430.05 2431.35,-430.05 2431.35,-430.05 2180.35,-430.05 2180.35,-430.05 2174.35,-430.05 2168.35,-424.05 2168.35,-418.05 2168.35,-418.05 2168.35,-20 2168.35,-20 2168.35,-14 2174.35,-8 2180.35,-8"/>
<text xml:space="preserve" text-anchor="middle" x="2305.85" y="-412.75" font-family="Helvetica,sans-Serif" font-size="14.00" fill="#ece1d7">⑦b DDL applicator (separate CH TCP)</text>
</g>
<g id="clust9" class="cluster">
<title>cluster_walsender</title>
<path fill="#34302c" stroke="#4c4641" d="M1894.35,-317.3C1894.35,-317.3 2148.35,-317.3 2148.35,-317.3 2154.35,-317.3 2160.35,-323.3 2160.35,-329.3 2160.35,-329.3 2160.35,-708.92 2160.35,-708.92 2160.35,-714.92 2154.35,-720.92 2148.35,-720.92 2148.35,-720.92 1894.35,-720.92 1894.35,-720.92 1888.35,-720.92 1882.35,-714.92 1882.35,-708.92 1882.35,-708.92 1882.35,-329.3 1882.35,-329.3 1882.35,-323.3 1888.35,-317.3 1894.35,-317.3"/>
<text xml:space="preserve" text-anchor="middle" x="2021.35" y="-703.62" font-family="Helvetica,sans-Serif" font-size="14.00" fill="#ece1d7">⑧ walsender server &#160;(tokio task)</text>
</g>
<g id="clust10" class="cluster">
<title>cluster_disk</title>
<path fill="#34302c" stroke="#4c4641" d="M627.35,-1076.92C627.35,-1076.92 1289.35,-1076.92 1289.35,-1076.92 1295.35,-1076.92 1301.35,-1082.92 1301.35,-1088.92 1301.35,-1088.92 1301.35,-1177.67 1301.35,-1177.67 1301.35,-1183.67 1295.35,-1189.67 1289.35,-1189.67 1289.35,-1189.67 627.35,-1189.67 627.35,-1189.67 621.35,-1189.67 615.35,-1183.67 615.35,-1177.67 615.35,-1177.67 615.35,-1088.92 615.35,-1088.92 615.35,-1082.92 621.35,-1076.92 627.35,-1076.92"/>
<text xml:space="preserve" text-anchor="middle" x="958.35" y="-1172.37" font-family="Helvetica,sans-Serif" font-size="14.00" fill="#ece1d7">⑨ on&#45;disk caches</text>
</g>
<!-- src -->
<g id="node1" class="node">
<title>src</title>
<path fill="#3d3d54" stroke="#6e6963" d="M1587.73,-2956.21C1587.73,-2958.02 1573.21,-2959.48 1555.35,-2959.48 1537.49,-2959.48 1522.98,-2958.02 1522.98,-2956.21 1522.98,-2956.21 1522.98,-2926.76 1522.98,-2926.76 1522.98,-2924.95 1537.49,-2923.48 1555.35,-2923.48 1573.21,-2923.48 1587.73,-2924.95 1587.73,-2926.76 1587.73,-2926.76 1587.73,-2956.21 1587.73,-2956.21"/>
<path fill="none" stroke="#6e6963" d="M1587.73,-2956.21C1587.73,-2954.41 1573.21,-2952.94 1555.35,-2952.94 1537.49,-2952.94 1522.98,-2954.41 1522.98,-2956.21"/>
<text xml:space="preserve" text-anchor="middle" x="1555.35" y="-2938.36" font-family="Helvetica,sans-Serif" font-size="10.00" fill="#ece1d7">source PG</text>
</g>
<!-- feed -->
<g id="node4" class="node">
<title>feed</title>
<path fill="#3d3d54" stroke="#6e6963" d="M1625.98,-2835.98C1625.98,-2835.98 1484.73,-2835.98 1484.73,-2835.98 1478.73,-2835.98 1472.73,-2829.98 1472.73,-2823.98 1472.73,-2823.98 1472.73,-2788.98 1472.73,-2788.98 1472.73,-2782.98 1478.73,-2776.98 1484.73,-2776.98 1484.73,-2776.98 1625.98,-2776.98 1625.98,-2776.98 1631.98,-2776.98 1637.98,-2782.98 1637.98,-2788.98 1637.98,-2788.98 1637.98,-2823.98 1637.98,-2823.98 1637.98,-2829.98 1631.98,-2835.98 1625.98,-2835.98"/>
<text xml:space="preserve" text-anchor="middle" x="1555.35" y="-2822.48" font-family="Helvetica,sans-Serif" font-size="10.00" fill="#ece1d7">SourceFeed::pump</text>
<text xml:space="preserve" text-anchor="middle" x="1555.35" y="-2809.73" font-family="Helvetica,sans-Serif" font-size="10.00" fill="#ece1d7">wal&#45;rus ReplicationConn</text>
<text xml:space="preserve" text-anchor="middle" x="1555.35" y="-2796.98" font-family="Helvetica,sans-Serif" font-size="10.00" fill="#ece1d7">IDENTIFY_SYSTEM +</text>
<text xml:space="preserve" text-anchor="middle" x="1555.35" y="-2784.23" font-family="Helvetica,sans-Serif" font-size="10.00" fill="#ece1d7">START_REPLICATION PHYSICAL</text>
</g>
<!-- src&#45;&gt;feed -->
<g id="edge38" class="edge">
<title>src&#45;&gt;feed</title>
<path fill="none" stroke="#a1a9cc" stroke-width="2" d="M1555.35,-2923.1C1555.35,-2904.42 1555.35,-2874.05 1555.35,-2849.13"/>
<polygon fill="#a1a9cc" stroke="#a1a9cc" stroke-width="2" points="1558.85,-2849.34 1555.35,-2839.34 1551.85,-2849.34 1558.85,-2849.34"/>
</g>
<!-- shd -->
<g id="node2" class="node">
<title>shd</title>
<path fill="#3d4128" stroke="#6e6963" d="M1475.73,-71.52C1475.73,-74.71 1445.08,-77.3 1407.35,-77.3 1369.62,-77.3 1338.98,-74.71 1338.98,-71.52 1338.98,-71.52 1338.98,-19.48 1338.98,-19.48 1338.98,-16.29 1369.62,-13.7 1407.35,-13.7 1445.08,-13.7 1475.73,-16.29 1475.73,-19.48 1475.73,-19.48 1475.73,-71.52 1475.73,-71.52"/>
<path fill="none" stroke="#6e6963" d="M1475.73,-71.52C1475.73,-68.33 1445.08,-65.73 1407.35,-65.73 1369.62,-65.73 1338.98,-68.33 1338.98,-71.52"/>
<text xml:space="preserve" text-anchor="middle" x="1407.35" y="-55.12" font-family="Helvetica,sans-Serif" font-size="10.00" fill="#ece1d7">shadow PG</text>
<text xml:space="preserve" text-anchor="middle" x="1407.35" y="-42.38" font-family="Helvetica,sans-Serif" font-size="10.00" fill="#ece1d7">walreceiver + catalog</text>
<text xml:space="preserve" text-anchor="middle" x="1407.35" y="-29.62" font-family="Helvetica,sans-Serif" font-size="10.00" fill="#ece1d7">(pg_last_wal_replay_lsn)</text>
</g>
<!-- stat -->
<g id="node36" class="node">
<title>stat</title>
<path fill="#5d3f40" stroke="#6e6963" d="M2140.48,-662.42C2140.48,-662.42 2050.23,-662.42 2050.23,-662.42 2044.23,-662.42 2038.23,-656.42 2038.23,-650.42 2038.23,-650.42 2038.23,-615.42 2038.23,-615.42 2038.23,-609.42 2044.23,-603.42 2050.23,-603.42 2050.23,-603.42 2140.48,-603.42 2140.48,-603.42 2146.48,-603.42 2152.48,-609.42 2152.48,-615.42 2152.48,-615.42 2152.48,-650.42 2152.48,-650.42 2152.48,-656.42 2146.48,-662.42 2140.48,-662.42"/>
<text xml:space="preserve" text-anchor="middle" x="2095.35" y="-648.92" font-family="Helvetica,sans-Serif" font-size="10.00" fill="#ece1d7">rx &#39;r&#39; standby status</text>
<text xml:space="preserve" text-anchor="middle" x="2095.35" y="-636.17" font-family="Helvetica,sans-Serif" font-size="10.00" fill="#ece1d7">flush_lsn / apply_lsn</text>
<text xml:space="preserve" text-anchor="middle" x="2095.35" y="-623.42" font-family="Helvetica,sans-Serif" font-size="10.00" fill="#ece1d7">(min across conns,</text>
<text xml:space="preserve" text-anchor="middle" x="2095.35" y="-610.67" font-family="Helvetica,sans-Serif" font-size="10.00" fill="#ece1d7"> apply&#45;lag metric)</text>
</g>
<!-- shd&#45;&gt;stat -->
<g id="edge40" class="edge">
<title>shd&#45;&gt;stat</title>
<path fill="none" stroke="#bd8183" stroke-dasharray="5,2" d="M1338.52,-53.34C1263.92,-60.48 1141.31,-71.45 1035.35,-77.3 1015.35,-78.4 328.32,-82.93 314.35,-97.3 175.37,-240.19 175.59,-402.69 314.35,-545.8 392.82,-626.72 1215.68,-573.69 1328.35,-577.05 1405.46,-579.35 1947.37,-578.92 2022.35,-597.05 2024.94,-597.67 2027.55,-598.4 2030.16,-599.21"/>
<polygon fill="#bd8183" stroke="#bd8183" points="2028.82,-602.44 2039.42,-602.43 2031.12,-595.83 2028.82,-602.44"/>
</g>
<!-- ch -->
<g id="node3" class="node">
<title>ch</title>
<path fill="#4d4128" stroke="#6e6963" d="M1019.73,-60.23C1019.73,-62.03 1003.87,-63.5 984.35,-63.5 964.83,-63.5 948.98,-62.03 948.98,-60.23 948.98,-60.23 948.98,-30.77 948.98,-30.77 948.98,-28.97 964.83,-27.5 984.35,-27.5 1003.87,-27.5 1019.73,-28.97 1019.73,-30.77 1019.73,-30.77 1019.73,-60.23 1019.73,-60.23"/>
<path fill="none" stroke="#6e6963" d="M1019.73,-60.23C1019.73,-58.42 1003.87,-56.95 984.35,-56.95 964.83,-56.95 948.98,-58.42 948.98,-60.23"/>
<text xml:space="preserve" text-anchor="middle" x="984.35" y="-42.38" font-family="Helvetica,sans-Serif" font-size="10.00" fill="#ece1d7">ClickHouse</text>
</g>
<!-- legend -->
<g id="node41" class="node">
<title>legend</title>
<path fill="#6e6963" stroke="none" d="M1114.48,-545.8C1114.48,-545.8 854.23,-545.8 854.23,-545.8 848.23,-545.8 842.23,-539.8 842.23,-533.8 842.23,-533.8 842.23,-163.05 842.23,-163.05 842.23,-157.05 848.23,-151.05 854.23,-151.05 854.23,-151.05 1114.48,-151.05 1114.48,-151.05 1120.48,-151.05 1126.48,-157.05 1126.48,-163.05 1126.48,-163.05 1126.48,-533.8 1126.48,-533.8 1126.48,-539.8 1120.48,-545.8 1114.48,-545.8"/>
<polygon fill="#34302c" stroke="none" points="850.23,-519.05 850.23,-541.8 1118.48,-541.8 1118.48,-519.05 850.23,-519.05"/>
<polygon fill="none" stroke="#6e6963" points="850.23,-519.05 850.23,-541.8 1118.48,-541.8 1118.48,-519.05 850.23,-519.05"/>
<text xml:space="preserve" text-anchor="start" x="941.23" y="-528.3" font-family="Helvetica,sans-Serif" font-weight="bold" font-size="10.00" fill="#ece1d7">node fill — role</text>
<polygon fill="#3d3d54" stroke="none" points="850.23,-496.3 850.23,-519.05 878.23,-519.05 878.23,-496.3 850.23,-496.3"/>
<polygon fill="none" stroke="#6e6963" points="850.23,-496.3 850.23,-519.05 878.23,-519.05 878.23,-496.3 850.23,-496.3"/>
<polygon fill="none" stroke="#6e6963" points="878.23,-496.3 878.23,-519.05 1118.48,-519.05 1118.48,-496.3 878.23,-496.3"/>
<text xml:space="preserve" text-anchor="start" x="951.85" y="-504.3" font-family="Helvetica,sans-Serif" font-size="10.00" fill="#ece1d7">source PG / ingress</text>
<polygon fill="#4d3a28" stroke="none" points="850.23,-473.55 850.23,-496.3 878.23,-496.3 878.23,-473.55 850.23,-473.55"/>
<polygon fill="none" stroke="#6e6963" points="850.23,-473.55 850.23,-496.3 878.23,-496.3 878.23,-473.55 850.23,-473.55"/>
<polygon fill="none" stroke="#6e6963" points="878.23,-473.55 878.23,-496.3 1118.48,-496.3 1118.48,-473.55 878.23,-473.55"/>
<text xml:space="preserve" text-anchor="start" x="922.23" y="-481.55" font-family="Helvetica,sans-Serif" font-size="10.00" fill="#ece1d7">walshadow filter / queue (sync)</text>
<polygon fill="#4d3340" stroke="none" points="850.23,-450.8 850.23,-473.55 878.23,-473.55 878.23,-450.8 850.23,-450.8"/>
<polygon fill="none" stroke="#6e6963" points="850.23,-450.8 850.23,-473.55 878.23,-473.55 878.23,-450.8 850.23,-450.8"/>
<polygon fill="none" stroke="#6e6963" points="878.23,-450.8 878.23,-473.55 1118.48,-473.55 1118.48,-450.8 878.23,-450.8"/>
<text xml:space="preserve" text-anchor="start" x="884.73" y="-458.8" font-family="Helvetica,sans-Serif" font-size="10.00" fill="#ece1d7">walshadow output sinks (walsender, segment)</text>
<polygon fill="#4d4128" stroke="none" points="850.23,-428.05 850.23,-450.8 878.23,-450.8 878.23,-428.05 850.23,-428.05"/>
<polygon fill="none" stroke="#6e6963" points="850.23,-428.05 850.23,-450.8 878.23,-450.8 878.23,-428.05 850.23,-428.05"/>
<polygon fill="none" stroke="#6e6963" points="878.23,-428.05 878.23,-450.8 1118.48,-450.8 1118.48,-428.05 878.23,-428.05"/>
<text xml:space="preserve" text-anchor="start" x="916.6" y="-436.05" font-family="Helvetica,sans-Serif" font-size="10.00" fill="#ece1d7">walshadow decoder + xact buffer</text>
<polygon fill="#4d4d28" stroke="none" points="850.23,-405.3 850.23,-428.05 878.23,-428.05 878.23,-405.3 850.23,-405.3"/>
<polygon fill="none" stroke="#6e6963" points="850.23,-405.3 850.23,-428.05 878.23,-428.05 878.23,-405.3 850.23,-405.3"/>
<polygon fill="none" stroke="#6e6963" points="878.23,-405.3 878.23,-428.05 1118.48,-428.05 1118.48,-405.3 878.23,-405.3"/>
<text xml:space="preserve" text-anchor="start" x="883.23" y="-413.3" font-family="Helvetica,sans-Serif" font-size="10.00" fill="#ece1d7">walshadow ShadowCatalog + schema&#45;event tx</text>
<polygon fill="#5d3f40" stroke="none" points="850.23,-382.55 850.23,-405.3 878.23,-405.3 878.23,-382.55 850.23,-382.55"/>
<polygon fill="none" stroke="#6e6963" points="850.23,-382.55 850.23,-405.3 878.23,-405.3 878.23,-382.55 850.23,-382.55"/>
<polygon fill="none" stroke="#6e6963" points="878.23,-382.55 878.23,-405.3 1118.48,-405.3 1118.48,-382.55 878.23,-382.55"/>
<text xml:space="preserve" text-anchor="start" x="927.48" y="-390.55" font-family="Helvetica,sans-Serif" font-size="10.00" fill="#ece1d7">walshadow walsender server</text>
<polygon fill="#5d4628" stroke="none" points="850.23,-359.8 850.23,-382.55 878.23,-382.55 878.23,-359.8 850.23,-359.8"/>
<polygon fill="none" stroke="#6e6963" points="850.23,-359.8 850.23,-382.55 878.23,-382.55 878.23,-359.8 850.23,-359.8"/>
<polygon fill="none" stroke="#6e6963" points="878.23,-359.8 878.23,-382.55 1118.48,-382.55 1118.48,-359.8 878.23,-359.8"/>
<text xml:space="preserve" text-anchor="start" x="891.85" y="-367.8" font-family="Helvetica,sans-Serif" font-size="10.00" fill="#ece1d7">walshadow CH pipeline tail + DdlApplicator</text>
<polygon fill="#4d3850" stroke="none" points="850.23,-337.05 850.23,-359.8 878.23,-359.8 878.23,-337.05 850.23,-337.05"/>
<polygon fill="none" stroke="#6e6963" points="850.23,-337.05 850.23,-359.8 878.23,-359.8 878.23,-337.05 850.23,-337.05"/>
<polygon fill="none" stroke="#6e6963" points="878.23,-337.05 878.23,-359.8 1118.48,-359.8 1118.48,-337.05 878.23,-337.05"/>
<text xml:space="preserve" text-anchor="start" x="961.23" y="-345.05" font-family="Helvetica,sans-Serif" font-size="10.00" fill="#ece1d7">on&#45;disk artifact</text>
<polygon fill="#3d4128" stroke="none" points="850.23,-314.3 850.23,-337.05 878.23,-337.05 878.23,-314.3 850.23,-314.3"/>
<polygon fill="none" stroke="#6e6963" points="850.23,-314.3 850.23,-337.05 878.23,-337.05 878.23,-314.3 850.23,-314.3"/>
<polygon fill="none" stroke="#6e6963" points="878.23,-314.3 878.23,-337.05 1118.48,-337.05 1118.48,-314.3 878.23,-314.3"/>
<text xml:space="preserve" text-anchor="start" x="957.1" y="-322.3" font-family="Helvetica,sans-Serif" font-size="10.00" fill="#ece1d7">shadow Postgres</text>
<polygon fill="#34302c" stroke="none" points="850.23,-291.55 850.23,-314.3 1118.48,-314.3 1118.48,-291.55 850.23,-291.55"/>
<polygon fill="none" stroke="#6e6963" points="850.23,-291.55 850.23,-314.3 1118.48,-314.3 1118.48,-291.55 850.23,-291.55"/>
<text xml:space="preserve" text-anchor="start" x="950.6" y="-300.8" font-family="Helvetica,sans-Serif" font-weight="bold" font-size="10.00" fill="#ece1d7">edge colour</text>
<polygon fill="none" stroke="#6e6963" points="850.23,-268.8 850.23,-291.55 878.23,-291.55 878.23,-268.8 850.23,-268.8"/>
<text xml:space="preserve" text-anchor="start" x="858.23" y="-278.05" font-family="Helvetica,sans-Serif" font-weight="bold" font-size="10.00" fill="#a1a9cc">━━</text>
<polygon fill="none" stroke="#6e6963" points="878.23,-268.8 878.23,-291.55 1118.48,-291.55 1118.48,-268.8 878.23,-268.8"/>
<text xml:space="preserve" text-anchor="start" x="938.73" y="-276.8" font-family="Helvetica,sans-Serif" font-size="10.00" fill="#ece1d7">source replication frame</text>
<polygon fill="none" stroke="#6e6963" points="850.23,-246.05 850.23,-268.8 878.23,-268.8 878.23,-246.05 850.23,-246.05"/>
<text xml:space="preserve" text-anchor="start" x="858.23" y="-255.3" font-family="Helvetica,sans-Serif" font-weight="bold" font-size="10.00" fill="#bd8183">━━</text>
<polygon fill="none" stroke="#6e6963" points="878.23,-246.05 878.23,-268.8 1118.48,-268.8 1118.48,-246.05 878.23,-246.05"/>
<text xml:space="preserve" text-anchor="start" x="935.73" y="-254.05" font-family="Helvetica,sans-Serif" font-size="10.00" fill="#ece1d7">walsender wire (hot path)</text>
<polygon fill="none" stroke="#6e6963" points="850.23,-223.3 850.23,-246.05 878.23,-246.05 878.23,-223.3 850.23,-223.3"/>
<text xml:space="preserve" text-anchor="start" x="858.23" y="-232.55" font-family="Helvetica,sans-Serif" font-weight="bold" font-size="10.00" fill="#cba85e">━━</text>
<polygon fill="none" stroke="#6e6963" points="878.23,-223.3 878.23,-246.05 1118.48,-246.05 1118.48,-223.3 878.23,-223.3"/>
<text xml:space="preserve" text-anchor="start" x="912.48" y="-231.3" font-family="Helvetica,sans-Serif" font-size="10.00" fill="#ece1d7">libpq catalog query / schema event</text>
<polygon fill="none" stroke="#6e6963" points="850.23,-200.55 850.23,-223.3 878.23,-223.3 878.23,-200.55 850.23,-200.55"/>
<text xml:space="preserve" text-anchor="start" x="858.23" y="-209.8" font-family="Helvetica,sans-Serif" font-weight="bold" font-size="10.00" fill="#bf8c5f">━━</text>
<polygon fill="none" stroke="#6e6963" points="878.23,-200.55 878.23,-223.3 1118.48,-223.3 1118.48,-200.55 878.23,-200.55"/>
<text xml:space="preserve" text-anchor="start" x="928.6" y="-208.55" font-family="Helvetica,sans-Serif" font-size="10.00" fill="#ece1d7">CH Native (rows + DDL SQL)</text>
<polygon fill="none" stroke="#6e6963" points="850.23,-177.8 850.23,-200.55 878.23,-200.55 878.23,-177.8 850.23,-177.8"/>
<text xml:space="preserve" text-anchor="start" x="858.6" y="-187.05" font-family="Helvetica,sans-Serif" font-weight="bold" font-size="10.00" fill="#b380b0">···</text>
<polygon fill="none" stroke="#6e6963" points="878.23,-177.8 878.23,-200.55 1118.48,-200.55 1118.48,-177.8 878.23,-177.8"/>
<text xml:space="preserve" text-anchor="start" x="936.1" y="-185.8" font-family="Helvetica,sans-Serif" font-size="10.00" fill="#ece1d7">ack + manifest durability</text>
<polygon fill="none" stroke="#6e6963" points="850.23,-155.05 850.23,-177.8 878.23,-177.8 878.23,-155.05 850.23,-155.05"/>
<text xml:space="preserve" text-anchor="start" x="858.23" y="-164.3" font-family="Helvetica,sans-Serif" font-weight="bold" font-size="10.00" fill="#6e6963">┄┄</text>
<polygon fill="none" stroke="#6e6963" points="878.23,-155.05 878.23,-177.8 1118.48,-177.8 1118.48,-155.05 878.23,-155.05"/>
<text xml:space="preserve" text-anchor="start" x="923.35" y="-163.05" font-family="Helvetica,sans-Serif" font-size="10.00" fill="#ece1d7">filesystem (restore_command)</text>
</g>
<!-- ch&#45;&gt;legend -->
<!-- chunks -->
<g id="node5" class="node">
<title>chunks</title>
<path fill="#3d3d54" stroke="#6e6963" d="M1696.01,-2735.98C1696.01,-2735.98 1477.16,-2735.98 1477.16,-2735.98 1471.16,-2735.98 1461.8,-2731.01 1458.44,-2726.04 1458.44,-2726.04 1409.4,-2653.43 1409.4,-2653.43 1406.05,-2648.46 1408.69,-2643.48 1414.69,-2643.48 1414.69,-2643.48 1633.54,-2643.48 1633.54,-2643.48 1639.54,-2643.48 1648.9,-2648.46 1652.26,-2653.43 1652.26,-2653.43 1701.3,-2726.04 1701.3,-2726.04 1704.65,-2731.01 1702.01,-2735.98 1696.01,-2735.98"/>
<text xml:space="preserve" text-anchor="middle" x="1555.35" y="-2699.36" font-family="Helvetica,sans-Serif" font-size="10.00" fill="#ece1d7">WalChunk stream</text>
<text xml:space="preserve" text-anchor="middle" x="1555.35" y="-2686.61" font-family="Helvetica,sans-Serif" font-size="10.00" fill="#ece1d7">(start_lsn, server_wal_end,</text>
<text xml:space="preserve" text-anchor="middle" x="1555.35" y="-2673.86" font-family="Helvetica,sans-Serif" font-size="10.00" fill="#ece1d7"> bytes)</text>
</g>
<!-- feed&#45;&gt;chunks -->
<g id="edge1" class="edge">
<title>feed&#45;&gt;chunks</title>
<path fill="none" stroke="#c1a78e" d="M1555.35,-2776.53C1555.35,-2767.65 1555.35,-2757.56 1555.35,-2747.5"/>
<polygon fill="#c1a78e" stroke="#c1a78e" points="1558.85,-2747.72 1555.35,-2737.72 1551.85,-2747.72 1558.85,-2747.72"/>
</g>
<!-- walker -->
<g id="node6" class="node">
<title>walker</title>
<path fill="#4d3a28" stroke="#6e6963" d="M1615.1,-2555.98C1615.1,-2555.98 1495.6,-2555.98 1495.6,-2555.98 1489.6,-2555.98 1483.6,-2549.98 1483.6,-2543.98 1483.6,-2543.98 1483.6,-2521.73 1483.6,-2521.73 1483.6,-2515.73 1489.6,-2509.73 1495.6,-2509.73 1495.6,-2509.73 1615.1,-2509.73 1615.1,-2509.73 1621.1,-2509.73 1627.1,-2515.73 1627.1,-2521.73 1627.1,-2521.73 1627.1,-2543.98 1627.1,-2543.98 1627.1,-2549.98 1621.1,-2555.98 1615.1,-2555.98"/>
<text xml:space="preserve" text-anchor="middle" x="1555.35" y="-2542.48" font-family="Helvetica,sans-Serif" font-size="10.00" fill="#ece1d7">StreamingWalker</text>
<text xml:space="preserve" text-anchor="middle" x="1555.35" y="-2529.73" font-family="Helvetica,sans-Serif" font-size="10.00" fill="#ece1d7">page&#45;state machine</text>
<text xml:space="preserve" text-anchor="middle" x="1555.35" y="-2516.98" font-family="Helvetica,sans-Serif" font-size="10.00" fill="#ece1d7">record stitch across pages</text>
</g>
<!-- chunks&#45;&gt;walker -->
<g id="edge6" class="edge">
<title>chunks&#45;&gt;walker</title>
<path fill="none" stroke="#a1a9cc" stroke-width="2" d="M1555.35,-2643.1C1555.35,-2619.57 1555.35,-2591.29 1555.35,-2569.4"/>
<polygon fill="#a1a9cc" stroke="#a1a9cc" stroke-width="2" points="1558.85,-2569.41 1555.35,-2559.41 1551.85,-2569.41 1558.85,-2569.41"/>
</g>
<!-- decide -->
<g id="node8" class="node">
<title>decide</title>
<path fill="#4d3a28" stroke="#6e6963" d="M1591.48,-2468.73C1591.48,-2468.73 1519.23,-2468.73 1519.23,-2468.73 1513.23,-2468.73 1507.23,-2462.73 1507.23,-2456.73 1507.23,-2456.73 1507.23,-2421.73 1507.23,-2421.73 1507.23,-2415.73 1513.23,-2409.73 1519.23,-2409.73 1519.23,-2409.73 1591.48,-2409.73 1591.48,-2409.73 1597.48,-2409.73 1603.48,-2415.73 1603.48,-2421.73 1603.48,-2421.73 1603.48,-2456.73 1603.48,-2456.73 1603.48,-2462.73 1597.48,-2468.73 1591.48,-2468.73"/>
<text xml:space="preserve" text-anchor="middle" x="1555.35" y="-2455.23" font-family="Helvetica,sans-Serif" font-size="10.00" fill="#ece1d7">Filter::decide</text>
<text xml:space="preserve" text-anchor="middle" x="1555.35" y="-2442.48" font-family="Helvetica,sans-Serif" font-size="10.00" fill="#ece1d7">Keep catalog</text>
<text xml:space="preserve" text-anchor="middle" x="1555.35" y="-2429.73" font-family="Helvetica,sans-Serif" font-size="10.00" fill="#ece1d7">Drop user&#45;heap</text>
<text xml:space="preserve" text-anchor="middle" x="1555.35" y="-2416.98" font-family="Helvetica,sans-Serif" font-size="10.00" fill="#ece1d7">Empty → reclass</text>
</g>
<!-- walker&#45;&gt;decide -->
<g id="edge2" class="edge">
<title>walker&#45;&gt;decide</title>
<path fill="none" stroke="#c1a78e" d="M1555.35,-2509.68C1555.35,-2500.92 1555.35,-2490.58 1555.35,-2480.59"/>
<polygon fill="#c1a78e" stroke="#c1a78e" points="1558.85,-2480.66 1555.35,-2470.66 1551.85,-2480.66 1558.85,-2480.66"/>
</g>
<!-- track -->
<g id="node7" class="node">
<title>track</title>
<path fill="#4d3a28" stroke="#6e6963" d="M1702.98,-2368.73C1702.98,-2368.73 1579.73,-2368.73 1579.73,-2368.73 1573.73,-2368.73 1567.73,-2362.73 1567.73,-2356.73 1567.73,-2356.73 1567.73,-2334.48 1567.73,-2334.48 1567.73,-2328.48 1573.73,-2322.48 1579.73,-2322.48 1579.73,-2322.48 1702.98,-2322.48 1702.98,-2322.48 1708.98,-2322.48 1714.98,-2328.48 1714.98,-2334.48 1714.98,-2334.48 1714.98,-2356.73 1714.98,-2356.73 1714.98,-2362.73 1708.98,-2368.73 1702.98,-2368.73"/>
<text xml:space="preserve" text-anchor="middle" x="1641.35" y="-2355.23" font-family="Helvetica,sans-Serif" font-size="10.00" fill="#ece1d7">CatalogTracker</text>
<text xml:space="preserve" text-anchor="middle" x="1641.35" y="-2342.48" font-family="Helvetica,sans-Serif" font-size="10.00" fill="#ece1d7">relfilenode set</text>
<text xml:space="preserve" text-anchor="middle" x="1641.35" y="-2329.73" font-family="Helvetica,sans-Serif" font-size="10.00" fill="#ece1d7">(relmap + pg_class writes)</text>
</g>
<!-- inval -->
<g id="node30" class="node">
<title>inval</title>
<path fill="#4d4d28" stroke="#6e6963" d="M1758.23,-830.42C1758.23,-830.42 1678.48,-830.42 1678.48,-830.42 1672.48,-830.42 1666.48,-824.42 1666.48,-818.42 1666.48,-818.42 1666.48,-783.42 1666.48,-783.42 1666.48,-777.42 1672.48,-771.42 1678.48,-771.42 1678.48,-771.42 1758.23,-771.42 1758.23,-771.42 1764.23,-771.42 1770.23,-777.42 1770.23,-783.42 1770.23,-783.42 1770.23,-818.42 1770.23,-818.42 1770.23,-824.42 1764.23,-830.42 1758.23,-830.42"/>
<text xml:space="preserve" text-anchor="middle" x="1718.35" y="-816.92" font-family="Helvetica,sans-Serif" font-size="10.00" fill="#ece1d7">invalidation_drain</text>
<text xml:space="preserve" text-anchor="middle" x="1718.35" y="-804.17" font-family="Helvetica,sans-Serif" font-size="10.00" fill="#ece1d7">(tokio task)</text>
<text xml:space="preserve" text-anchor="middle" x="1718.35" y="-791.42" font-family="Helvetica,sans-Serif" font-size="10.00" fill="#ece1d7">bump generation</text>
<text xml:space="preserve" text-anchor="middle" x="1718.35" y="-778.67" font-family="Helvetica,sans-Serif" font-size="10.00" fill="#ece1d7">on catalog write</text>
</g>
<!-- track&#45;&gt;inval -->
<g id="edge33" class="edge">
<title>track&#45;&gt;inval</title>
<path fill="none" stroke="#cba85e" stroke-dasharray="5,2" d="M1715.4,-2325.73C1746.4,-2312.96 1775.35,-2292.25 1775.35,-2259.45 1775.35,-2259.45 1775.35,-2259.45 1775.35,-956.67 1775.35,-915.13 1757.04,-870.97 1741.17,-840.5"/>
<polygon fill="#cba85e" stroke="#cba85e" points="1744.45,-839.2 1736.63,-832.05 1738.28,-842.51 1744.45,-839.2"/>
</g>
<!-- decide&#45;&gt;track -->
<g id="edge5" class="edge">
<title>decide&#45;&gt;track</title>
<path fill="none" stroke="#c1a78e" stroke-dasharray="5,2" d="M1590.2,-2401.1C1597.7,-2393.12 1605.53,-2384.77 1612.76,-2377.07"/>
<polygon fill="#c1a78e" stroke="#c1a78e" points="1583.39,-2408.36 1586.96,-2397.98 1585.98,-2405.6 1590.24,-2401.06 1590.24,-2401.06 1590.24,-2401.06 1585.98,-2405.6 1593.52,-2404.14 1583.39,-2408.36"/>
<polygon fill="#c1a78e" stroke="#c1a78e" points="1614.98,-2379.81 1619.28,-2370.13 1609.88,-2375.02 1614.98,-2379.81"/>
</g>
<!-- rewrite -->
<g id="node9" class="node">
<title>rewrite</title>
<path fill="#4d3a28" stroke="#6e6963" d="M1523.73,-2368.73C1523.73,-2368.73 1416.98,-2368.73 1416.98,-2368.73 1410.98,-2368.73 1404.98,-2362.73 1404.98,-2356.73 1404.98,-2356.73 1404.98,-2334.48 1404.98,-2334.48 1404.98,-2328.48 1410.98,-2322.48 1416.98,-2322.48 1416.98,-2322.48 1523.73,-2322.48 1523.73,-2322.48 1529.73,-2322.48 1535.73,-2328.48 1535.73,-2334.48 1535.73,-2334.48 1535.73,-2356.73 1535.73,-2356.73 1535.73,-2362.73 1529.73,-2368.73 1523.73,-2368.73"/>
<text xml:space="preserve" text-anchor="middle" x="1470.35" y="-2355.23" font-family="Helvetica,sans-Serif" font-size="10.00" fill="#ece1d7">rewrite::noop_replace</text>
<text xml:space="preserve" text-anchor="middle" x="1470.35" y="-2342.48" font-family="Helvetica,sans-Serif" font-size="10.00" fill="#ece1d7">in&#45;place at byte_ranges</text>
<text xml:space="preserve" text-anchor="middle" x="1470.35" y="-2329.73" font-family="Helvetica,sans-Serif" font-size="10.00" fill="#ece1d7">+ CRC32C recompute</text>
</g>
<!-- decide&#45;&gt;rewrite -->
<g id="edge3" class="edge">
<title>decide&#45;&gt;rewrite</title>
<path fill="none" stroke="#c1a78e" d="M1528.46,-2409.24C1519.03,-2399.09 1508.42,-2387.65 1498.87,-2377.35"/>
<polygon fill="#c1a78e" stroke="#c1a78e" points="1501.54,-2375.08 1492.17,-2370.13 1496.41,-2379.84 1501.54,-2375.08"/>
</g>
<!-- segbuf -->
<g id="node10" class="node">
<title>segbuf</title>
<path fill="#4d3a28" stroke="#6e6963" d="M1532.85,-2277.3C1532.85,-2279.61 1504.39,-2281.48 1469.35,-2281.48 1434.31,-2281.48 1405.85,-2279.61 1405.85,-2277.3 1405.85,-2277.3 1405.85,-2239.61 1405.85,-2239.61 1405.85,-2237.3 1434.31,-2235.42 1469.35,-2235.42 1504.39,-2235.42 1532.85,-2237.3 1532.85,-2239.61 1532.85,-2239.61 1532.85,-2277.3 1532.85,-2277.3"/>
<path fill="none" stroke="#6e6963" d="M1532.85,-2277.3C1532.85,-2274.99 1504.39,-2273.11 1469.35,-2273.11 1434.31,-2273.11 1405.85,-2274.99 1405.85,-2277.3"/>
<text xml:space="preserve" text-anchor="middle" x="1469.35" y="-2261.7" font-family="Helvetica,sans-Serif" font-size="10.00" fill="#ece1d7">16 MiB segment buffer</text>
<text xml:space="preserve" text-anchor="middle" x="1469.35" y="-2248.95" font-family="Helvetica,sans-Serif" font-size="10.00" fill="#ece1d7">(rewritten image)</text>
</g>
<!-- rewrite&#45;&gt;segbuf -->
<g id="edge4" class="edge">
<title>rewrite&#45;&gt;segbuf</title>
<path fill="none" stroke="#c1a78e" d="M1470.09,-2322.24C1469.98,-2313.41 1469.86,-2303.07 1469.75,-2293.36"/>
<polygon fill="#c1a78e" stroke="#c1a78e" points="1473.25,-2293.44 1469.63,-2283.49 1466.25,-2293.53 1473.25,-2293.44"/>
</g>
<!-- bytesink -->
<g id="node11" class="node">
<title>bytesink</title>
<path fill="#4d3340" stroke="#6e6963" d="M1582.6,-2141.55C1582.6,-2141.55 1484.1,-2141.55 1484.1,-2141.55 1478.1,-2141.55 1472.1,-2135.55 1472.1,-2129.55 1472.1,-2129.55 1472.1,-2107.3 1472.1,-2107.3 1472.1,-2101.3 1478.1,-2095.3 1484.1,-2095.3 1484.1,-2095.3 1582.6,-2095.3 1582.6,-2095.3 1588.6,-2095.3 1594.6,-2101.3 1594.6,-2107.3 1594.6,-2107.3 1594.6,-2129.55 1594.6,-2129.55 1594.6,-2135.55 1588.6,-2141.55 1582.6,-2141.55"/>
<text xml:space="preserve" text-anchor="middle" x="1533.35" y="-2128.05" font-family="Helvetica,sans-Serif" font-size="10.00" fill="#ece1d7">❶ ShadowStreamSink</text>
<text xml:space="preserve" text-anchor="middle" x="1533.35" y="-2115.3" font-family="Helvetica,sans-Serif" font-size="10.00" fill="#ece1d7">on_record_bytes</text>
<text xml:space="preserve" text-anchor="middle" x="1533.35" y="-2102.55" font-family="Helvetica,sans-Serif" font-size="10.00" fill="#ece1d7">(stays on pump)</text>
</g>
<!-- segbuf&#45;&gt;bytesink -->
<g id="edge7" class="edge">
<title>segbuf&#45;&gt;bytesink</title>
<path fill="none" stroke="#bd8183" stroke-width="2" d="M1479.78,-2234.97C1490,-2212.91 1505.73,-2178.98 1517.51,-2153.59"/>
<polygon fill="#bd8183" stroke="#bd8183" stroke-width="2" points="1520.62,-2155.19 1521.66,-2144.64 1514.27,-2152.24 1520.62,-2155.19"/>
</g>
<!-- recsink -->
<g id="node12" class="node">
<title>recsink</title>
<path fill="#4d3340" stroke="#6e6963" d="M1227.6,-2147.92C1227.6,-2147.92 1129.1,-2147.92 1129.1,-2147.92 1123.1,-2147.92 1117.1,-2141.92 1117.1,-2135.92 1117.1,-2135.92 1117.1,-2100.92 1117.1,-2100.92 1117.1,-2094.92 1123.1,-2088.92 1129.1,-2088.92 1129.1,-2088.92 1227.6,-2088.92 1227.6,-2088.92 1233.6,-2088.92 1239.6,-2094.92 1239.6,-2100.92 1239.6,-2100.92 1239.6,-2135.92 1239.6,-2135.92 1239.6,-2141.92 1233.6,-2147.92 1227.6,-2147.92"/>
<text xml:space="preserve" text-anchor="middle" x="1178.35" y="-2134.42" font-family="Helvetica,sans-Serif" font-size="10.00" fill="#ece1d7">❷ on_record →</text>
<text xml:space="preserve" text-anchor="middle" x="1178.35" y="-2121.67" font-family="Helvetica,sans-Serif" font-size="10.00" fill="#ece1d7">QueueingRecordSink</text>
<text xml:space="preserve" text-anchor="middle" x="1178.35" y="-2108.92" font-family="Helvetica,sans-Serif" font-size="10.00" fill="#ece1d7">(clones + enqueues,</text>
<text xml:space="preserve" text-anchor="middle" x="1178.35" y="-2096.17" font-family="Helvetica,sans-Serif" font-size="10.00" fill="#ece1d7"> returns immediately)</text>
</g>
<!-- segbuf&#45;&gt;recsink -->
<g id="edge8" class="edge">
<title>segbuf&#45;&gt;recsink</title>
<path fill="none" stroke="#c1a78e" d="M1405.46,-2245.69C1370,-2237.63 1325.83,-2224.98 1289.35,-2206.42 1263.12,-2193.08 1237.04,-2173.08 1216.77,-2155.62"/>
<polygon fill="#c1a78e" stroke="#c1a78e" points="1219.12,-2153.04 1209.3,-2149.07 1214.51,-2158.3 1219.12,-2153.04"/>
</g>
<!-- segsink -->
<g id="node13" class="node">
<title>segsink</title>
<path fill="#4d3340" stroke="#6e6963" d="M1411.73,-2141.55C1411.73,-2141.55 1316.98,-2141.55 1316.98,-2141.55 1310.98,-2141.55 1304.98,-2135.55 1304.98,-2129.55 1304.98,-2129.55 1304.98,-2107.3 1304.98,-2107.3 1304.98,-2101.3 1310.98,-2095.3 1316.98,-2095.3 1316.98,-2095.3 1411.73,-2095.3 1411.73,-2095.3 1417.73,-2095.3 1423.73,-2101.3 1423.73,-2107.3 1423.73,-2107.3 1423.73,-2129.55 1423.73,-2129.55 1423.73,-2135.55 1417.73,-2141.55 1411.73,-2141.55"/>
<text xml:space="preserve" text-anchor="middle" x="1364.35" y="-2128.05" font-family="Helvetica,sans-Serif" font-size="10.00" fill="#ece1d7">❸ DirSegmentSink</text>
<text xml:space="preserve" text-anchor="middle" x="1364.35" y="-2115.3" font-family="Helvetica,sans-Serif" font-size="10.00" fill="#ece1d7">on_segment</text>
<text xml:space="preserve" text-anchor="middle" x="1364.35" y="-2102.55" font-family="Helvetica,sans-Serif" font-size="10.00" fill="#ece1d7">(at 16 MiB boundary)</text>
</g>
<!-- segbuf&#45;&gt;segsink -->
<g id="edge9" class="edge">
<title>segbuf&#45;&gt;segsink</title>
<path fill="none" stroke="#c1a78e" stroke-dasharray="5,2" d="M1452.25,-2234.97C1434.86,-2212.11 1407.77,-2176.5 1388.26,-2150.85"/>
<polygon fill="#c1a78e" stroke="#c1a78e" points="1391.2,-2148.94 1382.36,-2143.1 1385.63,-2153.18 1391.2,-2148.94"/>
</g>
<!-- sendq -->
<g id="node35" class="node">
<title>sendq</title>
<path fill="#5d3f40" stroke="#6e6963" d="M2005.85,-371.55C2005.85,-371.55 1902.85,-371.55 1902.85,-371.55 1896.85,-371.55 1890.85,-365.55 1890.85,-359.55 1890.85,-359.55 1890.85,-337.3 1890.85,-337.3 1890.85,-331.3 1896.85,-325.3 1902.85,-325.3 1902.85,-325.3 2005.85,-325.3 2005.85,-325.3 2011.85,-325.3 2017.85,-331.3 2017.85,-337.3 2017.85,-337.3 2017.85,-359.55 2017.85,-359.55 2017.85,-365.55 2011.85,-371.55 2005.85,-371.55"/>
<text xml:space="preserve" text-anchor="middle" x="1954.35" y="-358.05" font-family="Helvetica,sans-Serif" font-size="10.00" fill="#ece1d7">per&#45;conn send queue</text>
<text xml:space="preserve" text-anchor="middle" x="1954.35" y="-345.3" font-family="Helvetica,sans-Serif" font-size="10.00" fill="#ece1d7">&#39;w&#39; XLogData @ record</text>
<text xml:space="preserve" text-anchor="middle" x="1954.35" y="-332.55" font-family="Helvetica,sans-Serif" font-size="10.00" fill="#ece1d7">&#39;k&#39; keepalive on idle</text>
</g>
<!-- bytesink&#45;&gt;sendq -->
<g id="edge36" class="edge">
<title>bytesink&#45;&gt;sendq</title>
<path fill="none" stroke="#bd8183" stroke-width="2" d="M1588.07,-2094.85C1639.74,-2069.47 1709.35,-2022.89 1709.35,-1956.17 1709.35,-1956.17 1709.35,-1956.17 1709.35,-1407.92 1709.35,-1300.07 1841.35,-1312.15 1841.35,-1204.3 1841.35,-1204.3 1841.35,-1204.3 1841.35,-631.92 1841.35,-535.91 1898.31,-433.83 1931.35,-382.7"/>
<polygon fill="#bd8183" stroke="#bd8183" stroke-width="2" points="1934.16,-384.8 1936.73,-374.52 1928.31,-380.95 1934.16,-384.8"/>
</g>
<!-- qbuf -->
<g id="node14" class="node">
<title>qbuf</title>
<path fill="#4d3a28" stroke="#6e6963" d="M1175.13,-2001.42C1175.13,-2001.42 984.73,-2001.42 984.73,-2001.42 978.73,-2001.42 969.65,-1996.27 966.58,-1991.12 966.58,-1991.12 923.72,-1919.23 923.72,-1919.23 920.65,-1914.08 923.57,-1908.92 929.57,-1908.92 929.57,-1908.92 1119.97,-1908.92 1119.97,-1908.92 1125.97,-1908.92 1135.05,-1914.08 1138.12,-1919.23 1138.12,-1919.23 1180.98,-1991.12 1180.98,-1991.12 1184.06,-1996.27 1181.13,-2001.42 1175.13,-2001.42"/>
<text xml:space="preserve" text-anchor="middle" x="1052.35" y="-1964.8" font-family="Helvetica,sans-Serif" font-size="10.00" fill="#ece1d7">pump&#45;side batch</text>
<text xml:space="preserve" text-anchor="middle" x="1052.35" y="-1952.05" font-family="Helvetica,sans-Serif" font-size="10.00" fill="#ece1d7">Vec&lt;Record&lt;&#39;static&gt;&gt;</text>
<text xml:space="preserve" text-anchor="middle" x="1052.35" y="-1939.3" font-family="Helvetica,sans-Serif" font-size="10.00" fill="#ece1d7">batch_size = 64</text>
</g>
<!-- recsink&#45;&gt;qbuf -->
<g id="edge13" class="edge">
<title>recsink&#45;&gt;qbuf</title>
<path fill="none" stroke="#c1a78e" d="M1155.82,-2088.59C1151.16,-2082.63 1145.98,-2076 1140.51,-2068.99"/>
<polygon fill="#c1a78e" stroke="#c1a78e" points="1143.26,-2066.84 1134.35,-2061.11 1137.75,-2071.15 1143.26,-2066.84"/>
</g>
<!-- outdir -->
<g id="node37" class="node">
<title>outdir</title>
<polygon fill="#4d3850" stroke="#6e6963" points="1287.35,-1131.17 1199.35,-1131.17 1199.35,-1084.92 1293.35,-1084.92 1293.35,-1125.17 1287.35,-1131.17"/>
<polyline fill="none" stroke="#6e6963" points="1287.35,-1131.17 1287.35,-1125.17"/>
<polyline fill="none" stroke="#6e6963" points="1293.35,-1125.17 1287.35,-1125.17"/>
<text xml:space="preserve" text-anchor="middle" x="1246.35" y="-1117.67" font-family="Helvetica,sans-Serif" font-size="10.00" fill="#ece1d7">out/&lt;seg&gt;</text>
<text xml:space="preserve" text-anchor="middle" x="1246.35" y="-1104.92" font-family="Helvetica,sans-Serif" font-size="10.00" fill="#ece1d7">16 MiB filtered</text>
<text xml:space="preserve" text-anchor="middle" x="1246.35" y="-1092.17" font-family="Helvetica,sans-Serif" font-size="10.00" fill="#ece1d7">+ manifest.json</text>
</g>
<!-- segsink&#45;&gt;outdir -->
<g id="edge42" class="edge">
<title>segsink&#45;&gt;outdir</title>
<path fill="none" stroke="#c1a78e" d="M1346.68,-2094.85C1325.07,-2064.92 1291.35,-2009.64 1291.35,-1956.17 1291.35,-1956.17 1291.35,-1956.17 1291.35,-1251.05 1291.35,-1212.06 1275.75,-1169.75 1262.92,-1141.55"/>
<polygon fill="#c1a78e" stroke="#c1a78e" points="1266.24,-1140.4 1258.82,-1132.84 1259.91,-1143.38 1266.24,-1140.4"/>
</g>
<!-- qchan -->
<g id="node15" class="node">
<title>qchan</title>
<path fill="#4d3a28" stroke="#6e6963" d="M1140.69,-1867.92C1140.69,-1867.92 958.94,-1867.92 958.94,-1867.92 952.94,-1867.92 943.96,-1862.71 940.98,-1857.51 940.98,-1857.51 899.97,-1785.84 899.97,-1785.84 896.99,-1780.63 900.02,-1775.42 906.02,-1775.42 906.02,-1775.42 1087.76,-1775.42 1087.76,-1775.42 1093.76,-1775.42 1102.74,-1780.63 1105.72,-1785.84 1105.72,-1785.84 1146.73,-1857.51 1146.73,-1857.51 1149.71,-1862.71 1146.69,-1867.92 1140.69,-1867.92"/>
<text xml:space="preserve" text-anchor="middle" x="1023.35" y="-1831.3" font-family="Helvetica,sans-Serif" font-size="10.00" fill="#ece1d7">unbounded mpsc</text>
<text xml:space="preserve" text-anchor="middle" x="1023.35" y="-1818.55" font-family="Helvetica,sans-Serif" font-size="10.00" fill="#ece1d7">Vec&lt;Record&gt; batches</text>
<text xml:space="preserve" text-anchor="middle" x="1023.35" y="-1805.8" font-family="Helvetica,sans-Serif" font-size="10.00" fill="#ece1d7">soft cap → yield_now</text>
</g>
<!-- qbuf&#45;&gt;qchan -->
<g id="edge10" class="edge">
<title>qbuf&#45;&gt;qchan</title>
<path fill="none" stroke="#c1a78e" d="M1042.29,-1908.55C1040.22,-1899.16 1038.02,-1889.18 1035.87,-1879.45"/>
<polygon fill="#c1a78e" stroke="#c1a78e" points="1039.29,-1878.7 1033.72,-1869.69 1032.46,-1880.21 1039.29,-1878.7"/>
</g>
<!-- qwrk -->
<g id="node16" class="node">
<title>qwrk</title>
<path fill="#4d3a28" stroke="#6e6963" d="M1015.1,-1734.42C1015.1,-1734.42 937.6,-1734.42 937.6,-1734.42 931.6,-1734.42 925.6,-1728.42 925.6,-1722.42 925.6,-1722.42 925.6,-1700.17 925.6,-1700.17 925.6,-1694.17 931.6,-1688.17 937.6,-1688.17 937.6,-1688.17 1015.1,-1688.17 1015.1,-1688.17 1021.1,-1688.17 1027.1,-1694.17 1027.1,-1700.17 1027.1,-1700.17 1027.1,-1722.42 1027.1,-1722.42 1027.1,-1728.42 1021.1,-1734.42 1015.1,-1734.42"/>
<text xml:space="preserve" text-anchor="middle" x="976.35" y="-1720.92" font-family="Helvetica,sans-Serif" font-size="10.00" fill="#ece1d7">worker task</text>
<text xml:space="preserve" text-anchor="middle" x="976.35" y="-1708.17" font-family="Helvetica,sans-Serif" font-size="10.00" fill="#ece1d7">drains batches,</text>
<text xml:space="preserve" text-anchor="middle" x="976.35" y="-1695.42" font-family="Helvetica,sans-Serif" font-size="10.00" fill="#ece1d7">fires on_idle ticks</text>
</g>
<!-- qchan&#45;&gt;qwrk -->
<g id="edge11" class="edge">
<title>qchan&#45;&gt;qwrk</title>
<path fill="none" stroke="#c1a78e" d="M1003.55,-1775.03C999.23,-1765.05 994.73,-1754.67 990.66,-1745.3"/>
<polygon fill="#c1a78e" stroke="#c1a78e" points="993.92,-1744.01 986.73,-1736.23 987.5,-1746.8 993.92,-1744.01"/>
</g>
<!-- qerr -->
<g id="node17" class="node">
<title>qerr</title>
<polygon fill="#4d3a28" stroke="#6e6963" points="1033.85,-1595.55 912.85,-1595.55 912.85,-1559.55 1039.85,-1559.55 1039.85,-1589.55 1033.85,-1595.55"/>
<polyline fill="none" stroke="#6e6963" points="1033.85,-1595.55 1033.85,-1589.55"/>
<polyline fill="none" stroke="#6e6963" points="1039.85,-1589.55 1033.85,-1589.55"/>
<text xml:space="preserve" text-anchor="middle" x="976.35" y="-1580.8" font-family="Helvetica,sans-Serif" font-size="10.00" fill="#ece1d7">shared err slot</text>
<text xml:space="preserve" text-anchor="middle" x="976.35" y="-1568.05" font-family="Helvetica,sans-Serif" font-size="10.00" fill="#ece1d7">surfaces back to pump</text>
</g>
<!-- qwrk&#45;&gt;qerr -->
<g id="edge12" class="edge">
<title>qwrk&#45;&gt;qerr</title>
<path fill="none" stroke="#b58b86" stroke-dasharray="5,2" d="M976.35,-1687.95C976.35,-1665.71 976.35,-1631.51 976.35,-1607.27"/>
<polygon fill="#b58b86" stroke="#b58b86" points="979.85,-1607.46 976.35,-1597.46 972.85,-1607.46 979.85,-1607.46"/>
</g>
<!-- catgate -->
<g id="node18" class="node">
<title>catgate</title>
<path fill="#4d4128" stroke="#6e6963" d="M810.6,-1600.67C810.6,-1600.67 706.1,-1600.67 706.1,-1600.67 700.1,-1600.67 694.1,-1594.67 694.1,-1588.67 694.1,-1588.67 694.1,-1566.42 694.1,-1566.42 694.1,-1560.42 700.1,-1554.42 706.1,-1554.42 706.1,-1554.42 810.6,-1554.42 810.6,-1554.42 816.6,-1554.42 822.6,-1560.42 822.6,-1566.42 822.6,-1566.42 822.6,-1588.67 822.6,-1588.67 822.6,-1594.67 816.6,-1600.67 810.6,-1600.67"/>
<text xml:space="preserve" text-anchor="middle" x="758.35" y="-1587.17" font-family="Helvetica,sans-Serif" font-size="10.00" fill="#ece1d7">BufferingDecoderSink</text>
<text xml:space="preserve" text-anchor="middle" x="758.35" y="-1574.42" font-family="Helvetica,sans-Serif" font-size="10.00" fill="#ece1d7">relation_at(rfn, lsn)</text>
<text xml:space="preserve" text-anchor="middle" x="758.35" y="-1561.67" font-family="Helvetica,sans-Serif" font-size="10.00" fill="#ece1d7">wait_for_replay(at_lsn)</text>
</g>
<!-- qwrk&#45;&gt;catgate -->
<g id="edge17" class="edge">
<title>qwrk&#45;&gt;catgate</title>
<path fill="none" stroke="#c1a78e" d="M925.29,-1694.27C901.32,-1685.63 872.9,-1673.74 849.35,-1659.17 846.76,-1657.57 844.18,-1655.9 841.61,-1654.16"/>
<polygon fill="#c1a78e" stroke="#c1a78e" points="843.77,-1651.4 833.58,-1648.5 839.73,-1657.12 843.77,-1651.4"/>
</g>
<!-- decoder -->
<g id="node19" class="node">
<title>decoder</title>
<path fill="#4d4128" stroke="#6e6963" d="M805.6,-1513.42C805.6,-1513.42 683.1,-1513.42 683.1,-1513.42 677.1,-1513.42 671.1,-1507.42 671.1,-1501.42 671.1,-1501.42 671.1,-1440.92 671.1,-1440.92 671.1,-1434.92 677.1,-1428.92 683.1,-1428.92 683.1,-1428.92 805.6,-1428.92 805.6,-1428.92 811.6,-1428.92 817.6,-1434.92 817.6,-1440.92 817.6,-1440.92 817.6,-1501.42 817.6,-1501.42 817.6,-1507.42 811.6,-1513.42 805.6,-1513.42"/>
<text xml:space="preserve" text-anchor="middle" x="744.35" y="-1499.92" font-family="Helvetica,sans-Serif" font-size="10.00" fill="#ece1d7">heap_decoder</text>
<text xml:space="preserve" text-anchor="middle" x="744.35" y="-1487.17" font-family="Helvetica,sans-Serif" font-size="10.00" fill="#ece1d7">INSERT / DELETE /</text>
<text xml:space="preserve" text-anchor="middle" x="744.35" y="-1474.42" font-family="Helvetica,sans-Serif" font-size="10.00" fill="#ece1d7">UPDATE / HOT / TRUNCATE</text>
<text xml:space="preserve" text-anchor="middle" x="744.35" y="-1461.67" font-family="Helvetica,sans-Serif" font-size="10.00" fill="#ece1d7">Tier&#45;1 fixed&#45;width</text>
<text xml:space="preserve" text-anchor="middle" x="744.35" y="-1448.92" font-family="Helvetica,sans-Serif" font-size="10.00" fill="#ece1d7">Tier&#45;2 length&#45;prefixed</text>
<text xml:space="preserve" text-anchor="middle" x="744.35" y="-1436.17" font-family="Helvetica,sans-Serif" font-size="10.00" fill="#ece1d7">Replica&#45;identity matrix</text>
</g>
<!-- catgate&#45;&gt;decoder -->
<g id="edge14" class="edge">
<title>catgate&#45;&gt;decoder</title>
<path fill="none" stroke="#c1a78e" d="M755.35,-1554.16C754.19,-1545.53 752.81,-1535.28 751.44,-1524.99"/>
<polygon fill="#c1a78e" stroke="#c1a78e" points="754.95,-1524.84 750.15,-1515.39 748.01,-1525.77 754.95,-1524.84"/>
</g>
<!-- lru -->
<g id="node28" class="node">
<title>lru</title>
<path fill="#4d4d28" stroke="#6e6963" d="M1702.1,-656.05C1702.1,-656.05 1606.6,-656.05 1606.6,-656.05 1600.6,-656.05 1594.6,-650.05 1594.6,-644.05 1594.6,-644.05 1594.6,-621.8 1594.6,-621.8 1594.6,-615.8 1600.6,-609.8 1606.6,-609.8 1606.6,-609.8 1702.1,-609.8 1702.1,-609.8 1708.1,-609.8 1714.1,-615.8 1714.1,-621.8 1714.1,-621.8 1714.1,-644.05 1714.1,-644.05 1714.1,-650.05 1708.1,-656.05 1702.1,-656.05"/>
<text xml:space="preserve" text-anchor="middle" x="1654.35" y="-642.55" font-family="Helvetica,sans-Serif" font-size="10.00" fill="#ece1d7">LRU 4096</text>
<text xml:space="preserve" text-anchor="middle" x="1654.35" y="-629.8" font-family="Helvetica,sans-Serif" font-size="10.00" fill="#ece1d7">by_filenode / by_oid</text>
<text xml:space="preserve" text-anchor="middle" x="1654.35" y="-617.05" font-family="Helvetica,sans-Serif" font-size="10.00" fill="#ece1d7">+ generation counter</text>
</g>
<!-- catgate&#45;&gt;lru -->
<g id="edge32" class="edge">
<title>catgate&#45;&gt;lru</title>
<path fill="none" stroke="#cba85e" stroke-dasharray="5,2" d="M796.33,-1554.13C810.5,-1543.67 825.13,-1529.86 833.35,-1513.42 872.56,-1434.95 893.91,-1385.65 840.35,-1316.17 819.03,-1288.51 797.57,-1306.96 764.35,-1296.17 739.86,-1288.22 732.93,-1287.56 710.35,-1275.17 674.6,-1255.56 674.93,-1234.13 636.35,-1220.92 613,-1212.93 211.86,-1224.03 192.35,-1208.92 80.12,-1122.05 24.56,-997.84 124.35,-896.92 138.22,-882.9 818.11,-900.12 834.35,-888.92 897.28,-845.55 834.71,-772.7 897.35,-728.92 912.34,-718.45 1208.18,-722.97 1226.35,-720.92 1353.44,-706.57 1498.87,-673.36 1583.29,-652.38"/>
<polygon fill="#cba85e" stroke="#cba85e" points="1583.96,-655.81 1592.82,-649.99 1582.27,-649.02 1583.96,-655.81"/>
<text xml:space="preserve" text-anchor="middle" x="207.35" y="-1200.37" font-family="Helvetica,sans-Serif" font-size="9.00" fill="#ece1d7">lookup</text>
</g>
<!-- xactbuf -->
<g id="node20" class="node">
<title>xactbuf</title>
<path fill="#4d4128" stroke="#6e6963" d="M812.35,-1387.92C812.35,-1387.92 658.35,-1387.92 658.35,-1387.92 652.35,-1387.92 646.35,-1381.92 646.35,-1375.92 646.35,-1375.92 646.35,-1328.17 646.35,-1328.17 646.35,-1322.17 652.35,-1316.17 658.35,-1316.17 658.35,-1316.17 812.35,-1316.17 812.35,-1316.17 818.35,-1316.17 824.35,-1322.17 824.35,-1328.17 824.35,-1328.17 824.35,-1375.92 824.35,-1375.92 824.35,-1381.92 818.35,-1387.92 812.35,-1387.92"/>
<text xml:space="preserve" text-anchor="middle" x="735.35" y="-1374.42" font-family="Helvetica,sans-Serif" font-size="10.00" fill="#ece1d7">XactBuffer + spill v4</text>
<text xml:space="preserve" text-anchor="middle" x="735.35" y="-1361.67" font-family="Helvetica,sans-Serif" font-size="10.00" fill="#ece1d7">Heap / Chunk / ToastDelete / Raw</text>
<text xml:space="preserve" text-anchor="middle" x="735.35" y="-1348.92" font-family="Helvetica,sans-Serif" font-size="10.00" fill="#ece1d7">SMGR markers + commit stash</text>
<text xml:space="preserve" text-anchor="middle" x="735.35" y="-1336.17" font-family="Helvetica,sans-Serif" font-size="10.00" fill="#ece1d7">SubxactTracker</text>
<text xml:space="preserve" text-anchor="middle" x="735.35" y="-1323.42" font-family="Helvetica,sans-Serif" font-size="10.00" fill="#ece1d7">budget = work_mem</text>
</g>
<!-- decoder&#45;&gt;xactbuf -->
<g id="edge15" class="edge">
<title>decoder&#45;&gt;xactbuf</title>
<path fill="none" stroke="#c1a78e" d="M741.15,-1428.55C740.43,-1419.2 739.67,-1409.22 738.93,-1399.68"/>
<polygon fill="#c1a78e" stroke="#c1a78e" points="742.43,-1399.55 738.18,-1389.85 735.45,-1400.09 742.43,-1399.55"/>
</g>
<!-- drain -->
<g id="node21" class="node">
<title>drain</title>
<path fill="#4d4128" stroke="#6e6963" d="M607.85,-1275.17C607.85,-1275.17 390.85,-1275.17 390.85,-1275.17 384.85,-1275.17 378.85,-1269.17 378.85,-1263.17 378.85,-1263.17 378.85,-1240.92 378.85,-1240.92 378.85,-1234.92 384.85,-1228.92 390.85,-1228.92 390.85,-1228.92 607.85,-1228.92 607.85,-1228.92 613.85,-1228.92 619.85,-1234.92 619.85,-1240.92 619.85,-1240.92 619.85,-1263.17 619.85,-1263.17 619.85,-1269.17 613.85,-1275.17 607.85,-1275.17"/>
<text xml:space="preserve" text-anchor="middle" x="499.35" y="-1261.67" font-family="Helvetica,sans-Serif" font-size="10.00" fill="#ece1d7">transaction reorder</text>
<text xml:space="preserve" text-anchor="middle" x="499.35" y="-1248.92" font-family="Helvetica,sans-Serif" font-size="10.00" fill="#ece1d7">walk committed rows + changes in WAL order</text>
<text xml:space="preserve" text-anchor="middle" x="499.35" y="-1236.17" font-family="Helvetica,sans-Serif" font-size="10.00" fill="#ece1d7">wait for earlier data before table changes</text>
</g>
<!-- xactbuf&#45;&gt;drain -->
<g id="edge16" class="edge">
<title>xactbuf&#45;&gt;drain</title>
<path fill="none" stroke="#c1a78e" d="M650.48,-1315.81C622.02,-1303.98 590.75,-1291 564.08,-1279.93"/>
<polygon fill="#c1a78e" stroke="#c1a78e" points="565.7,-1276.81 555.12,-1276.21 563.01,-1283.27 565.7,-1276.81"/>
</g>
<!-- spill -->
<g id="node38" class="node">
<title>spill</title>
<polygon fill="#4d3850" stroke="#6e6963" points="941.35,-1131.17 793.35,-1131.17 793.35,-1084.92 947.35,-1084.92 947.35,-1125.17 941.35,-1131.17"/>
<polyline fill="none" stroke="#6e6963" points="941.35,-1131.17 941.35,-1125.17"/>
<polyline fill="none" stroke="#6e6963" points="947.35,-1125.17 941.35,-1125.17"/>
<text xml:space="preserve" text-anchor="middle" x="870.35" y="-1117.67" font-family="Helvetica,sans-Serif" font-size="10.00" fill="#ece1d7">{spill}/xid&#45;&lt;xid&gt;&#45;&lt;lsn&gt;.bin</text>
<text xml:space="preserve" text-anchor="middle" x="870.35" y="-1104.92" font-family="Helvetica,sans-Serif" font-size="10.00" fill="#ece1d7">append&#45;only</text>
<text xml:space="preserve" text-anchor="middle" x="870.35" y="-1092.17" font-family="Helvetica,sans-Serif" font-size="10.00" fill="#ece1d7">[tag u8 | len u32 | body]</text>
</g>
<!-- xactbuf&#45;&gt;spill -->
<g id="edge44" class="edge">
<title>xactbuf&#45;&gt;spill</title>
<path fill="none" stroke="#c1a78e" stroke-dasharray="5,2" d="M754.98,-1315.86C781.1,-1269.04 826.92,-1186.89 852.25,-1141.5"/>
<polygon fill="#c1a78e" stroke="#c1a78e" points="855.22,-1143.35 857.04,-1132.91 849.11,-1139.94 855.22,-1143.35"/>
<text xml:space="preserve" text-anchor="middle" x="846.35" y="-1249.12" font-family="Helvetica,sans-Serif" font-size="9.00" fill="#ece1d7">evict largest xact</text>
</g>
<!-- cdecode -->
<g id="node22" class="node">
<title>cdecode</title>
<path fill="#5d4628" stroke="#6e6963" d="M721.73,-830.42C721.73,-830.42 530.98,-830.42 530.98,-830.42 524.98,-830.42 518.98,-824.42 518.98,-818.42 518.98,-818.42 518.98,-783.42 518.98,-783.42 518.98,-777.42 524.98,-771.42 530.98,-771.42 530.98,-771.42 721.73,-771.42 721.73,-771.42 727.73,-771.42 733.73,-777.42 733.73,-783.42 733.73,-783.42 733.73,-818.42 733.73,-818.42 733.73,-824.42 727.73,-830.42 721.73,-830.42"/>
<text xml:space="preserve" text-anchor="middle" x="626.35" y="-816.92" font-family="Helvetica,sans-Serif" font-size="10.00" fill="#ece1d7">decode pool ×M</text>
<text xml:space="preserve" text-anchor="middle" x="626.35" y="-804.17" font-family="Helvetica,sans-Serif" font-size="10.00" fill="#ece1d7">detoast via ChunkMap / store as&#45;of fetch</text>
<text xml:space="preserve" text-anchor="middle" x="626.35" y="-791.42" font-family="Helvetica,sans-Serif" font-size="10.00" fill="#ece1d7">resolve_at_pooled + mapping + oracle</text>
<text xml:space="preserve" text-anchor="middle" x="626.35" y="-778.67" font-family="Helvetica,sans-Serif" font-size="10.00" fill="#ece1d7">chunk 1024 rows / 4 MiB</text>
</g>
<!-- drain&#45;&gt;cdecode -->
<g id="edge23" class="edge">
<title>drain&#45;&gt;cdecode</title>
<path fill="none" stroke="#bf8c5f" stroke-width="2" d="M378.61,-1247.14C260.02,-1242.04 93.92,-1231.03 73.35,-1208.92 -21.14,-1107.37 -24.17,-1002.88 65.35,-896.92 120.6,-831.53 358.19,-811.14 505.89,-804.79"/>
<polygon fill="#bf8c5f" stroke="#bf8c5f" stroke-width="2" points="505.7,-808.3 515.55,-804.39 505.41,-801.3 505.7,-808.3"/>
<text xml:space="preserve" text-anchor="middle" x="24.86" y="-1056.37" font-family="Helvetica,sans-Serif" font-size="9.00" fill="#ece1d7">DecodeJob</text>
</g>
<!-- toastio -->
<g id="node27" class="node">
<title>toastio</title>
<path fill="#5d4628" stroke="#6e6963" d="M780.98,-987.17C780.98,-987.17 603.73,-987.17 603.73,-987.17 597.73,-987.17 591.73,-981.17 591.73,-975.17 591.73,-975.17 591.73,-940.17 591.73,-940.17 591.73,-934.17 597.73,-928.17 603.73,-928.17 603.73,-928.17 780.98,-928.17 780.98,-928.17 786.98,-928.17 792.98,-934.17 792.98,-940.17 792.98,-940.17 792.98,-975.17 792.98,-975.17 792.98,-981.17 786.98,-987.17 780.98,-987.17"/>
<text xml:space="preserve" text-anchor="middle" x="692.35" y="-973.67" font-family="Helvetica,sans-Serif" font-size="10.00" fill="#ece1d7">ToastResolver / CH mirrors</text>
<text xml:space="preserve" text-anchor="middle" x="692.35" y="-960.92" font-family="Helvetica,sans-Serif" font-size="10.00" fill="#ece1d7">put births+tombstones before publish</text>
<text xml:space="preserve" text-anchor="middle" x="692.35" y="-948.17" font-family="Helvetica,sans-Serif" font-size="10.00" fill="#ece1d7">fetch pre&#45;window values</text>
<text xml:space="preserve" text-anchor="middle" x="692.35" y="-935.42" font-family="Helvetica,sans-Serif" font-size="10.00" fill="#ece1d7">truncate / retire / rewrite O−B</text>
</g>
<!-- drain&#45;&gt;toastio -->
<g id="edge24" class="edge">
<title>drain&#45;&gt;toastio</title>
<path fill="none" stroke="#bf8c5f" stroke-dasharray="5,2" d="M495.58,-1228.58C490.89,-1193.51 486.64,-1124.8 515.1,-1076.92 528.79,-1053.89 583.75,-1019.06 628.89,-993.15"/>
<polygon fill="#bf8c5f" stroke="#bf8c5f" points="630.36,-996.34 637.33,-988.35 626.9,-990.26 630.36,-996.34"/>
<text xml:space="preserve" text-anchor="middle" x="561.23" y="-1105.12" font-family="Helvetica,sans-Serif" font-size="9.00" fill="#ece1d7">new_rows + barriers</text>
</g>
<!-- retires -->
<g id="node40" class="node">
<title>retires</title>
<polygon fill="#4d3850" stroke="#6e6963" points="755.48,-1126.05 623.23,-1126.05 623.23,-1090.05 761.48,-1090.05 761.48,-1120.05 755.48,-1126.05"/>
<polyline fill="none" stroke="#6e6963" points="755.48,-1126.05 755.48,-1120.05"/>
<polyline fill="none" stroke="#6e6963" points="761.48,-1120.05 755.48,-1120.05"/>
<text xml:space="preserve" text-anchor="middle" x="692.35" y="-1111.3" font-family="Helvetica,sans-Serif" font-size="10.00" fill="#ece1d7">{spill}/toast_retires.toml</text>
<text xml:space="preserve" text-anchor="middle" x="692.35" y="-1098.55" font-family="Helvetica,sans-Serif" font-size="10.00" fill="#ece1d7">saved mirror retirements</text>
</g>
<!-- drain&#45;&gt;retires -->
<g id="edge48" class="edge">
<title>drain&#45;&gt;retires</title>
<path fill="none" stroke="#6e6963" stroke-dasharray="5,2" d="M539.26,-1228.59C557.97,-1217.55 580.29,-1203.64 599.35,-1189.67 622.9,-1172.41 647.81,-1150.61 665.91,-1134.03"/>
<polygon fill="#6e6963" stroke="#6e6963" points="668.14,-1136.74 673.11,-1127.38 663.39,-1131.6 668.14,-1136.74"/>
<text xml:space="preserve" text-anchor="middle" x="611.45" y="-1200.37" font-family="Helvetica,sans-Serif" font-size="9.00" fill="#ece1d7">toast DROP</text>
</g>
<!-- tableenc -->
<g id="node23" class="node">
<title>tableenc</title>
<path fill="#5d4628" stroke="#6e6963" d="M711.98,-668.8C711.98,-668.8 540.73,-668.8 540.73,-668.8 534.73,-668.8 528.73,-662.8 528.73,-656.8 528.73,-656.8 528.73,-609.05 528.73,-609.05 528.73,-603.05 534.73,-597.05 540.73,-597.05 540.73,-597.05 711.98,-597.05 711.98,-597.05 717.98,-597.05 723.98,-603.05 723.98,-609.05 723.98,-609.05 723.98,-656.8 723.98,-656.8 723.98,-662.8 717.98,-668.8 711.98,-668.8"/>
<text xml:space="preserve" text-anchor="middle" x="626.35" y="-655.3" font-family="Helvetica,sans-Serif" font-size="10.00" fill="#ece1d7">InsertBatcher</text>
<text xml:space="preserve" text-anchor="middle" x="626.35" y="-642.55" font-family="Helvetica,sans-Serif" font-size="10.00" fill="#ece1d7">TableEncoder per table</text>
<text xml:space="preserve" text-anchor="middle" x="626.35" y="-629.8" font-family="Helvetica,sans-Serif" font-size="10.00" fill="#ece1d7">Native columns +</text>
<text xml:space="preserve" text-anchor="middle" x="626.35" y="-617.05" font-family="Helvetica,sans-Serif" font-size="10.00" fill="#ece1d7">_lsn / _xid / _commit_ts / _is_deleted</text>
<text xml:space="preserve" text-anchor="middle" x="626.35" y="-604.3" font-family="Helvetica,sans-Serif" font-size="10.00" fill="#ece1d7">row/byte budget + deadline seal</text>
</g>
<!-- cdecode&#45;&gt;tableenc -->
<g id="edge18" class="edge">
<title>cdecode&#45;&gt;tableenc</title>
<path fill="none" stroke="#c1a78e" d="M626.35,-771.01C626.35,-746 626.35,-709.38 626.35,-680.28"/>
<polygon fill="#c1a78e" stroke="#c1a78e" points="629.85,-680.65 626.35,-670.65 622.85,-680.65 629.85,-680.65"/>
</g>
<!-- nulltail -->
<g id="node25" class="node">
<title>nulltail</title>
<polygon fill="#4d3a28" stroke="#6e6963" points="518.23,-980.8 378.48,-980.8 378.48,-934.55 524.23,-934.55 524.23,-974.8 518.23,-980.8"/>
<polyline fill="none" stroke="#6e6963" points="518.23,-980.8 518.23,-974.8"/>
<polyline fill="none" stroke="#6e6963" points="524.23,-974.8 518.23,-974.8"/>
<text xml:space="preserve" text-anchor="middle" x="451.35" y="-967.3" font-family="Helvetica,sans-Serif" font-size="10.00" fill="#ece1d7">metrics&#45;only tail</text>
<text xml:space="preserve" text-anchor="middle" x="451.35" y="-954.55" font-family="Helvetica,sans-Serif" font-size="10.00" fill="#ece1d7">no ClickHouse connection</text>
<text xml:space="preserve" text-anchor="middle" x="451.35" y="-941.8" font-family="Helvetica,sans-Serif" font-size="10.00" fill="#ece1d7">acknowledge immediately</text>
</g>
<!-- cdecode&#45;&gt;nulltail -->
<g id="edge21" class="edge">
<title>cdecode&#45;&gt;nulltail</title>
<path fill="none" stroke="#bf8c5f" stroke-dasharray="5,2" d="M583.88,-830.81C558.92,-848.63 527.36,-872.65 501.85,-896.92 492.75,-905.58 483.64,-915.77 475.71,-925.27"/>
<polygon fill="#bf8c5f" stroke="#bf8c5f" points="473.08,-922.95 469.46,-932.91 478.5,-927.38 473.08,-922.95"/>
<text xml:space="preserve" text-anchor="middle" x="529.6" y="-899.62" font-family="Helvetica,sans-Serif" font-size="9.00" fill="#ece1d7">metrics only</text>
</g>
<!-- chwire -->
<g id="node24" class="node">
<title>chwire</title>
<path fill="#5d4628" stroke="#6e6963" d="M698.1,-377.92C698.1,-377.92 554.6,-377.92 554.6,-377.92 548.6,-377.92 542.6,-371.92 542.6,-365.92 542.6,-365.92 542.6,-330.92 542.6,-330.92 542.6,-324.92 548.6,-318.92 554.6,-318.92 554.6,-318.92 698.1,-318.92 698.1,-318.92 704.1,-318.92 710.1,-324.92 710.1,-330.92 710.1,-330.92 710.1,-365.92 710.1,-365.92 710.1,-371.92 704.1,-377.92 698.1,-377.92"/>
<text xml:space="preserve" text-anchor="middle" x="626.35" y="-364.42" font-family="Helvetica,sans-Serif" font-size="10.00" fill="#ece1d7">inserter pool ×N</text>
<text xml:space="preserve" text-anchor="middle" x="626.35" y="-351.67" font-family="Helvetica,sans-Serif" font-size="10.00" fill="#ece1d7">BlockBuilder over sealed batch</text>
<text xml:space="preserve" text-anchor="middle" x="626.35" y="-338.92" font-family="Helvetica,sans-Serif" font-size="10.00" fill="#ece1d7">one complete INSERT each</text>
<text xml:space="preserve" text-anchor="middle" x="626.35" y="-326.17" font-family="Helvetica,sans-Serif" font-size="10.00" fill="#ece1d7">send_with_retry + reconnect</text>
</g>
<!-- tableenc&#45;&gt;chwire -->
<g id="edge19" class="edge">
<title>tableenc&#45;&gt;chwire</title>
<path fill="none" stroke="#c1a78e" d="M626.35,-596.71C626.35,-544.08 626.35,-445.13 626.35,-389.69"/>
<polygon fill="#c1a78e" stroke="#c1a78e" points="629.85,-389.74 626.35,-379.74 622.85,-389.74 629.85,-389.74"/>
</g>
<!-- chwire&#45;&gt;ch -->
<g id="edge46" class="edge">
<title>chwire&#45;&gt;ch</title>
<path fill="none" stroke="#bf8c5f" stroke-width="2" d="M652.29,-318.68C689.02,-278.78 759.21,-205.39 826.35,-151.05 864.54,-120.14 911.97,-89.7 944.84,-69.71"/>
<polygon fill="#bf8c5f" stroke="#bf8c5f" stroke-width="2" points="946.47,-72.81 953.23,-64.65 942.86,-66.82 946.47,-72.81"/>
</g>
<!-- ackcol -->
<g id="node26" class="node">
<title>ackcol</title>
<polygon fill="#4d3a28" stroke="#6e6963" points="763.73,-68.62 596.98,-68.62 596.98,-22.38 769.73,-22.38 769.73,-62.62 763.73,-68.62"/>
<polyline fill="none" stroke="#6e6963" points="763.73,-68.62 763.73,-62.62"/>
<polyline fill="none" stroke="#6e6963" points="769.73,-62.62 763.73,-62.62"/>
<text xml:space="preserve" text-anchor="middle" x="683.35" y="-55.12" font-family="Helvetica,sans-Serif" font-size="10.00" fill="#ece1d7">ack collector</text>
<text xml:space="preserve" text-anchor="middle" x="683.35" y="-42.38" font-family="Helvetica,sans-Serif" font-size="10.00" fill="#ece1d7">publish latest position after</text>
<text xml:space="preserve" text-anchor="middle" x="683.35" y="-29.62" font-family="Helvetica,sans-Serif" font-size="10.00" fill="#ece1d7">every earlier commit completes</text>
</g>
<!-- chwire&#45;&gt;ackcol -->
<g id="edge20" class="edge">
<title>chwire&#45;&gt;ackcol</title>
<path fill="none" stroke="#b380b0" stroke-dasharray="1,5" d="M620.65,-318.61C612.54,-270.53 601.9,-171.86 633.6,-97.3 636.65,-90.12 641.22,-83.4 646.38,-77.33"/>
<polygon fill="#b380b0" stroke="#b380b0" points="648.92,-79.74 653.22,-70.06 643.82,-74.95 648.92,-79.74"/>
<text xml:space="preserve" text-anchor="middle" x="663.98" y="-116.87" font-family="Helvetica,sans-Serif" font-size="9.00" fill="#ece1d7">Acked after</text>
<text xml:space="preserve" text-anchor="middle" x="663.98" y="-105.62" font-family="Helvetica,sans-Serif" font-size="9.00" fill="#ece1d7">EndOfStream</text>
</g>
<!-- nulltail&#45;&gt;ackcol -->
<g id="edge22" class="edge">
<title>nulltail&#45;&gt;ackcol</title>
<path fill="none" stroke="#b380b0" stroke-dasharray="1,5" d="M517.55,-934.15C558.04,-921.25 611.15,-905.9 659.35,-896.92 669.22,-895.08 742.57,-896.33 749.35,-888.92 762.27,-874.81 786.44,-428.01 726.35,-151.05 720.92,-126.01 709.85,-99.32 700.3,-79.18"/>
<polygon fill="#b380b0" stroke="#b380b0" points="703.53,-77.82 696,-70.36 697.23,-80.88 703.53,-77.82"/>
<text xml:space="preserve" text-anchor="middle" x="776.48" y="-630" font-family="Helvetica,sans-Serif" font-size="9.00" fill="#ece1d7">done</text>
</g>
<!-- manifest -->
<g id="node39" class="node">
<title>manifest</title>
<polygon fill="#4d3850" stroke="#6e6963" points="1160.85,-1131.17 979.85,-1131.17 979.85,-1084.92 1166.85,-1084.92 1166.85,-1125.17 1160.85,-1131.17"/>
<polyline fill="none" stroke="#6e6963" points="1160.85,-1131.17 1160.85,-1125.17"/>
<polyline fill="none" stroke="#6e6963" points="1166.85,-1125.17 1160.85,-1125.17"/>
<text xml:space="preserve" text-anchor="middle" x="1073.35" y="-1117.67" font-family="Helvetica,sans-Serif" font-size="10.00" fill="#ece1d7">{spill}/manifest.toml</text>
<text xml:space="preserve" text-anchor="middle" x="1073.35" y="-1104.92" font-family="Helvetica,sans-Serif" font-size="10.00" fill="#ece1d7">source identity + safe restart state</text>
<text xml:space="preserve" text-anchor="middle" x="1073.35" y="-1092.17" font-family="Helvetica,sans-Serif" font-size="10.00" fill="#ece1d7">held behind open work</text>
</g>
<!-- ackcol&#45;&gt;manifest -->
<g id="edge45" class="edge">
<title>ackcol&#45;&gt;manifest</title>
<path fill="none" stroke="#b380b0" stroke-dasharray="1,5" d="M703.29,-68.74C719.98,-88.75 742.86,-119.74 754.35,-151.05 815.8,-318.46 774.07,-375.29 826.35,-545.8 890.47,-754.92 1010.77,-989.89 1055.77,-1074.51"/>
<polygon fill="#b380b0" stroke="#b380b0" points="1052.61,-1076.03 1060.41,-1083.2 1058.78,-1072.73 1052.61,-1076.03"/>
<text xml:space="preserve" text-anchor="middle" x="939.58" y="-742.87" font-family="Helvetica,sans-Serif" font-size="9.00" fill="#ece1d7">status loop saves</text>
<text xml:space="preserve" text-anchor="middle" x="939.58" y="-731.62" font-family="Helvetica,sans-Serif" font-size="9.00" fill="#ece1d7">durable progress</text>
</g>
<!-- toastio&#45;&gt;ch -->
<g id="edge47" class="edge">
<title>toastio&#45;&gt;ch</title>
<path fill="none" stroke="#bf8c5f" stroke-dasharray="5,2" d="M793.15,-944.06C873.24,-932.46 977.39,-913.37 1012.35,-888.92 1071.42,-847.61 1071.29,-818.23 1098.35,-751.42 1148.57,-627.43 1205.68,-268.88 1142.35,-151.05 1118.8,-107.22 1067.91,-78.68 1030.21,-62.67"/>
<polygon fill="#bf8c5f" stroke="#bf8c5f" points="1031.95,-59.6 1021.37,-59.05 1029.3,-66.08 1031.95,-59.6"/>
<text xml:space="preserve" text-anchor="middle" x="1179.44" y="-630" font-family="Helvetica,sans-Serif" font-size="9.00" fill="#ece1d7">pg_toast_&lt;relid&gt;</text>
</g>
<!-- toastio&#45;&gt;cdecode -->
<g id="edge25" class="edge">
<title>toastio&#45;&gt;cdecode</title>
<path fill="none" stroke="#cba85e" stroke-dasharray="5,2" d="M680.09,-927.93C669.66,-903.47 654.57,-868.1 643.04,-841.06"/>
<polygon fill="#cba85e" stroke="#cba85e" points="646.39,-839.99 639.25,-832.17 639.95,-842.74 646.39,-839.99"/>
<text xml:space="preserve" text-anchor="middle" x="695" y="-899.62" font-family="Helvetica,sans-Serif" font-size="9.00" fill="#ece1d7">as&#45;of fetch</text>
</g>
<!-- libpq -->
<g id="node29" class="node">
<title>libpq</title>
<path fill="#4d4d28" stroke="#6e6963" d="M1455.98,-371.55C1455.98,-371.55 1356.73,-371.55 1356.73,-371.55 1350.73,-371.55 1344.73,-365.55 1344.73,-359.55 1344.73,-359.55 1344.73,-337.3 1344.73,-337.3 1344.73,-331.3 1350.73,-325.3 1356.73,-325.3 1356.73,-325.3 1455.98,-325.3 1455.98,-325.3 1461.98,-325.3 1467.98,-331.3 1467.98,-337.3 1467.98,-337.3 1467.98,-359.55 1467.98,-359.55 1467.98,-365.55 1461.98,-371.55 1455.98,-371.55"/>
<text xml:space="preserve" text-anchor="middle" x="1406.35" y="-358.05" font-family="Helvetica,sans-Serif" font-size="10.00" fill="#ece1d7">tokio_postgres::Client</text>
<text xml:space="preserve" text-anchor="middle" x="1406.35" y="-345.3" font-family="Helvetica,sans-Serif" font-size="10.00" fill="#ece1d7">SELECT pg_class /</text>
<text xml:space="preserve" text-anchor="middle" x="1406.35" y="-332.55" font-family="Helvetica,sans-Serif" font-size="10.00" fill="#ece1d7">pg_attribute / pg_type</text>
</g>
<!-- lru&#45;&gt;libpq -->
<g id="edge26" class="edge">
<title>lru&#45;&gt;libpq</title>
<path fill="none" stroke="#c1a78e" stroke-dasharray="5,2" d="M1594.47,-613.73C1558.41,-600.1 1513.91,-578.17 1484.35,-545.8 1441.51,-498.87 1420.93,-425.54 1412.1,-383.03"/>
<polygon fill="#c1a78e" stroke="#c1a78e" points="1415.57,-382.52 1410.21,-373.38 1408.7,-383.87 1415.57,-382.52"/>
<text xml:space="preserve" text-anchor="middle" x="1529.75" y="-568.5" font-family="Helvetica,sans-Serif" font-size="9.00" fill="#ece1d7">miss</text>
</g>
<!-- evtx -->
<g id="node31" class="node">
<title>evtx</title>
<path fill="#4d4d28" stroke="#6e6963" d="M1796.57,-394.67C1796.57,-394.67 1575.24,-394.67 1575.24,-394.67 1569.24,-394.67 1559.86,-389.72 1556.48,-384.76 1556.48,-384.76 1506.9,-312.08 1506.9,-312.08 1503.51,-307.13 1506.13,-302.17 1512.13,-302.17 1512.13,-302.17 1733.46,-302.17 1733.46,-302.17 1739.46,-302.17 1748.84,-307.13 1752.22,-312.08 1752.22,-312.08 1801.8,-384.76 1801.8,-384.76 1805.19,-389.72 1802.57,-394.67 1796.57,-394.67"/>
<text xml:space="preserve" text-anchor="middle" x="1654.35" y="-358.05" font-family="Helvetica,sans-Serif" font-size="10.00" fill="#ece1d7">schema_event_tx</text>
<text xml:space="preserve" text-anchor="middle" x="1654.35" y="-345.3" font-family="Helvetica,sans-Serif" font-size="10.00" fill="#ece1d7">Added / Changed / Dropped</text>
<text xml:space="preserve" text-anchor="middle" x="1654.35" y="-332.55" font-family="Helvetica,sans-Serif" font-size="10.00" fill="#ece1d7">(unbounded mpsc)</text>
</g>
<!-- lru&#45;&gt;evtx -->
<g id="edge28" class="edge">
<title>lru&#45;&gt;evtx</title>
<path fill="none" stroke="#cba85e" stroke-dasharray="5,2" d="M1654.35,-609.75C1654.35,-566.35 1654.35,-468.92 1654.35,-406.34"/>
<polygon fill="#cba85e" stroke="#cba85e" points="1657.85,-406.59 1654.35,-396.59 1650.85,-406.59 1657.85,-406.59"/>
<text xml:space="preserve" text-anchor="middle" x="1679.85" y="-568.5" font-family="Helvetica,sans-Serif" font-size="9.00" fill="#ece1d7">diff vs prior</text>
</g>
<!-- libpq&#45;&gt;shd -->
<g id="edge41" class="edge">
<title>libpq&#45;&gt;shd</title>
<path fill="none" stroke="#cba85e" d="M1406.46,-313.94C1406.64,-258.95 1407.01,-149.62 1407.21,-89.17"/>
<polygon fill="#cba85e" stroke="#cba85e" points="1406.43,-323.59 1401.96,-313.57 1406.44,-319.8 1406.46,-313.59 1406.46,-313.59 1406.46,-313.59 1406.44,-319.8 1410.96,-313.6 1406.43,-323.59"/>
<polygon fill="#cba85e" stroke="#cba85e" points="1410.71,-89.29 1407.24,-79.28 1403.71,-89.26 1410.71,-89.29"/>
<text xml:space="preserve" text-anchor="middle" x="1437.16" y="-111.25" font-family="Helvetica,sans-Serif" font-size="9.00" fill="#ece1d7">libpq SELECT</text>
</g>
<!-- inval&#45;&gt;lru -->
<g id="edge27" class="edge">
<title>inval&#45;&gt;lru</title>
<path fill="none" stroke="#cba85e" stroke-dasharray="5,2" d="M1707.2,-771.01C1696.01,-741.97 1678.78,-697.29 1667.06,-666.89"/>
<polygon fill="#cba85e" stroke="#cba85e" points="1670.42,-665.87 1663.56,-657.8 1663.89,-668.39 1670.42,-665.87"/>
</g>
<!-- evtx&#45;&gt;xactbuf -->
<g id="edge34" class="edge">
<title>evtx&#45;&gt;xactbuf</title>
<path fill="none" stroke="#cba85e" stroke-dasharray="5,2" d="M1628.68,-394.94C1599.94,-441.23 1548.82,-510.97 1484.35,-545.8 1333.64,-627.22 1253.94,-517.27 1102.35,-597.05 947.56,-678.51 997.68,-816.75 838.35,-888.92 811.63,-901.03 338.77,-889.66 310.35,-896.92 281.51,-904.29 266.48,-902.68 251.1,-928.17 224.13,-972.89 217.14,-1006 251.1,-1045.67 266.09,-1063.19 281.1,-1044.73 302.35,-1053.67 395.42,-1092.84 392.94,-1146.76 484.35,-1189.67 517.45,-1205.21 528.51,-1201.63 564.35,-1208.92 596.14,-1215.39 608.57,-1204.17 636.35,-1220.92 669.62,-1240.99 695.61,-1276.79 712.6,-1305.77"/>
<polygon fill="#cba85e" stroke="#cba85e" points="709.5,-1307.41 717.48,-1314.38 715.59,-1303.96 709.5,-1307.41"/>
<text xml:space="preserve" text-anchor="middle" x="280.73" y="-954.75" font-family="Helvetica,sans-Serif" font-size="9.00" fill="#ece1d7">stamp on xid</text>
</g>
<!-- ddlapp -->
<g id="node33" class="node">
<title>ddlapp</title>
<path fill="#5d4628" stroke="#6e6963" d="M2292.23,-75C2292.23,-75 2188.48,-75 2188.48,-75 2182.48,-75 2176.48,-69 2176.48,-63 2176.48,-63 2176.48,-28 2176.48,-28 2176.48,-22 2182.48,-16 2188.48,-16 2188.48,-16 2292.23,-16 2292.23,-16 2298.23,-16 2304.23,-22 2304.23,-28 2304.23,-28 2304.23,-63 2304.23,-63 2304.23,-69 2298.23,-75 2292.23,-75"/>
<text xml:space="preserve" text-anchor="middle" x="2240.35" y="-61.5" font-family="Helvetica,sans-Serif" font-size="10.00" fill="#ece1d7">DdlApplicator</text>
<text xml:space="preserve" text-anchor="middle" x="2240.35" y="-48.75" font-family="Helvetica,sans-Serif" font-size="10.00" fill="#ece1d7">(ch_ddl.rs)</text>
<text xml:space="preserve" text-anchor="middle" x="2240.35" y="-36" font-family="Helvetica,sans-Serif" font-size="10.00" fill="#ece1d7">CREATE / ADD COL /</text>
<text xml:space="preserve" text-anchor="middle" x="2240.35" y="-23.25" font-family="Helvetica,sans-Serif" font-size="10.00" fill="#ece1d7">RENAME / DROP TABLE</text>
</g>
<!-- evtx&#45;&gt;ddlapp -->
<g id="edge30" class="edge">
<title>evtx&#45;&gt;ddlapp</title>
<path fill="none" stroke="#cba85e" stroke-dasharray="5,2" d="M1648.21,-301.83C1643.38,-244.92 1645.09,-148.79 1701.6,-97.3 1735.1,-66.77 2024.15,-53.4 2164.51,-48.67"/>
<polygon fill="#cba85e" stroke="#cba85e" points="2164.59,-52.17 2174.47,-48.34 2164.36,-45.17 2164.59,-52.17"/>
<text xml:space="preserve" text-anchor="middle" x="1737.98" y="-111.25" font-family="Helvetica,sans-Serif" font-size="9.00" fill="#ece1d7">drain at commit</text>
</g>
<!-- bridge -->
<g id="node32" class="node">
<title>bridge</title>
<path fill="#5d4628" stroke="#6e6963" d="M2289.98,-371.55C2289.98,-371.55 2190.73,-371.55 2190.73,-371.55 2184.73,-371.55 2178.73,-365.55 2178.73,-359.55 2178.73,-359.55 2178.73,-337.3 2178.73,-337.3 2178.73,-331.3 2184.73,-325.3 2190.73,-325.3 2190.73,-325.3 2289.98,-325.3 2289.98,-325.3 2295.98,-325.3 2301.98,-331.3 2301.98,-337.3 2301.98,-337.3 2301.98,-359.55 2301.98,-359.55 2301.98,-365.55 2295.98,-371.55 2289.98,-371.55"/>
<text xml:space="preserve" text-anchor="middle" x="2240.35" y="-358.05" font-family="Helvetica,sans-Serif" font-size="10.00" fill="#ece1d7">type_bridge</text>
<text xml:space="preserve" text-anchor="middle" x="2240.35" y="-345.3" font-family="Helvetica,sans-Serif" font-size="10.00" fill="#ece1d7">RelAttr → CH type</text>
<text xml:space="preserve" text-anchor="middle" x="2240.35" y="-332.55" font-family="Helvetica,sans-Serif" font-size="10.00" fill="#ece1d7">(reject widen for now)</text>
</g>
<!-- bridge&#45;&gt;ddlapp -->
<g id="edge29" class="edge">
<title>bridge&#45;&gt;ddlapp</title>
<path fill="none" stroke="#c1a78e" stroke-dasharray="5,2" d="M2240.35,-324.8C2240.35,-274.11 2240.35,-150.8 2240.35,-86.7"/>
<polygon fill="#c1a78e" stroke="#c1a78e" points="2243.85,-86.97 2240.35,-76.97 2236.85,-86.97 2243.85,-86.97"/>
</g>
<!-- ddlapp&#45;&gt;ch -->
<g id="edge31" class="edge">
<title>ddlapp&#45;&gt;ch</title>
<path fill="none" stroke="#bf8c5f" stroke-dasharray="5,2" d="M2176.22,-53.9C1988.98,-77.89 1445.11,-143.51 1268.35,-120.55 1182.95,-109.46 1086.64,-80.34 1030.98,-61.81"/>
<polygon fill="#bf8c5f" stroke="#bf8c5f" points="1032.09,-58.49 1021.5,-58.62 1029.86,-65.13 1032.09,-58.49"/>
<text xml:space="preserve" text-anchor="middle" x="1319.35" y="-122.5" font-family="Helvetica,sans-Serif" font-size="9.00" fill="#ece1d7">DDL SQL</text>
<text xml:space="preserve" text-anchor="middle" x="1319.35" y="-111.25" font-family="Helvetica,sans-Serif" font-size="9.00" fill="#ece1d7">(inside reorder barrier,</text>
<text xml:space="preserve" text-anchor="middle" x="1319.35" y="-100" font-family="Helvetica,sans-Serif" font-size="9.00" fill="#ece1d7"> own CH connection)</text>
</g>
<!-- listener -->
<g id="node34" class="node">
<title>listener</title>
<path fill="#5d3f40" stroke="#6e6963" d="M1994.6,-656.05C1994.6,-656.05 1902.1,-656.05 1902.1,-656.05 1896.1,-656.05 1890.1,-650.05 1890.1,-644.05 1890.1,-644.05 1890.1,-621.8 1890.1,-621.8 1890.1,-615.8 1896.1,-609.8 1902.1,-609.8 1902.1,-609.8 1994.6,-609.8 1994.6,-609.8 2000.6,-609.8 2006.6,-615.8 2006.6,-621.8 2006.6,-621.8 2006.6,-644.05 2006.6,-644.05 2006.6,-650.05 2000.6,-656.05 1994.6,-656.05"/>
<text xml:space="preserve" text-anchor="middle" x="1948.35" y="-642.55" font-family="Helvetica,sans-Serif" font-size="10.00" fill="#ece1d7">accept(unix / TCP)</text>
<text xml:space="preserve" text-anchor="middle" x="1948.35" y="-629.8" font-family="Helvetica,sans-Serif" font-size="10.00" fill="#ece1d7">IDENTIFY_SYSTEM +</text>
<text xml:space="preserve" text-anchor="middle" x="1948.35" y="-617.05" font-family="Helvetica,sans-Serif" font-size="10.00" fill="#ece1d7">START_REPLICATION</text>
</g>
<!-- listener&#45;&gt;sendq -->
<g id="edge35" class="edge">
<title>listener&#45;&gt;sendq</title>
<path fill="none" stroke="#c1a78e" stroke-dasharray="5,2" d="M1948.82,-609.75C1949.87,-560.47 1952.39,-441.56 1953.64,-383.06"/>
<polygon fill="#c1a78e" stroke="#c1a78e" points="1957.13,-383.46 1953.84,-373.39 1950.13,-383.31 1957.13,-383.46"/>
</g>
<!-- sendq&#45;&gt;shd -->
<g id="edge39" class="edge">
<title>sendq&#45;&gt;shd</title>
<path fill="none" stroke="#bd8183" stroke-width="2" d="M1946.67,-325.05C1927.86,-274.15 1874.22,-150.03 1782.35,-97.3 1733.8,-69.43 1583.71,-56.15 1488.78,-50.39"/>
<polygon fill="#bd8183" stroke="#bd8183" stroke-width="2" points="1489.27,-46.91 1479.08,-49.82 1488.86,-53.9 1489.27,-46.91"/>
<text xml:space="preserve" text-anchor="middle" x="1852.18" y="-111.25" font-family="Helvetica,sans-Serif" font-size="9.00" fill="#ece1d7">hot wire (ms)</text>
</g>
<!-- stat&#45;&gt;catgate -->
<g id="edge37" class="edge">
<title>stat&#45;&gt;catgate</title>
<path fill="none" stroke="#bd8183" stroke-dasharray="5,2" d="M2080.15,-662.79C2067.65,-683.17 2047.86,-708.91 2022.35,-720.92 1995.23,-733.69 968.24,-712.23 943.35,-728.92 879.32,-771.87 940.25,-845.8 876.35,-888.92 862.21,-898.46 278.51,-891.45 262.35,-896.92 240.31,-904.38 230.8,-907.38 220.35,-928.17 163.11,-1042.11 236.96,-1112.35 338.35,-1189.67 355.08,-1202.43 361.11,-1204.16 381.6,-1208.92 450.21,-1224.86 631.99,-1197.31 698.35,-1220.92 736.1,-1234.35 735.18,-1255.97 770.35,-1275.17 816.51,-1300.37 847.68,-1275.77 881.35,-1316.17 937.5,-1383.55 924.25,-1440.61 875.35,-1513.42 864.86,-1529.04 849.19,-1541.11 832.7,-1550.31"/>
<polygon fill="#bd8183" stroke="#bd8183" points="831.53,-1546.98 824.28,-1554.7 834.76,-1553.18 831.53,-1546.98"/>
<text xml:space="preserve" text-anchor="middle" x="438.98" y="-1200.37" font-family="Helvetica,sans-Serif" font-size="9.00" fill="#ece1d7">apply_lsn → unblock gate</text>
</g>
<!-- outdir&#45;&gt;shd -->
<g id="edge43" class="edge">
<title>outdir&#45;&gt;shd</title>
<path fill="none" stroke="#6e6963" stroke-dasharray="5,2" d="M1246.35,-1084.42C1246.35,-1055.33 1246.35,-1003.24 1246.35,-958.67 1246.35,-958.67 1246.35,-958.67 1246.35,-347.42 1246.35,-235.86 1199.55,-185.89 1267.35,-97.3 1282.14,-77.98 1304.97,-66 1327.93,-58.57"/>
<polygon fill="#6e6963" stroke="#6e6963" points="1328.76,-61.97 1337.37,-55.8 1326.79,-55.26 1328.76,-61.97"/>
<text xml:space="preserve" text-anchor="middle" x="1287.23" y="-737.25" font-family="Helvetica,sans-Serif" font-size="9.00" fill="#ece1d7">restore_command</text>
</g>
<!-- manifest&#45;&gt;toastio -->
<g id="edge49" class="edge">
<title>manifest&#45;&gt;toastio</title>
<path fill="none" stroke="#6e6963" stroke-dasharray="5,2" d="M1002.44,-1084.46C984.23,-1078.38 964.73,-1071.62 946.85,-1064.92 886.26,-1042.22 818.72,-1013.88 768.45,-992.18"/>
<polygon fill="#6e6963" stroke="#6e6963" points="769.95,-989.01 759.38,-988.25 767.17,-995.44 769.95,-989.01"/>
<text xml:space="preserve" text-anchor="middle" x="992.6" y="-1056.37" font-family="Helvetica,sans-Serif" font-size="9.00" fill="#ece1d7">saved cleanup point</text>
</g>
<!-- retires&#45;&gt;toastio -->
<g id="edge50" class="edge">
<title>retires&#45;&gt;toastio</title>
<path fill="none" stroke="#6e6963" stroke-dasharray="5,2" d="M692.35,-1089.74C692.35,-1067.6 692.35,-1028.58 692.35,-998.86"/>
<polygon fill="#6e6963" stroke="#6e6963" points="695.85,-999.09 692.35,-989.09 688.85,-999.09 695.85,-999.09"/>
<text xml:space="preserve" text-anchor="middle" x="738.85" y="-1056.37" font-family="Helvetica,sans-Serif" font-size="9.00" fill="#ece1d7">pending retirements</text>
</g>
</g>
</svg>
