<?xml version="1.0" encoding="UTF-8" standalone="no"?>
<!DOCTYPE svg PUBLIC "-//W3C//DTD SVG 1.1//EN"
 "http://www.w3.org/Graphics/SVG/1.1/DTD/svg11.dtd">
<!-- Generated by graphviz version 14.1.5 (0)
 -->
<!-- Title: internals Pages: 1 -->
<svg width="2578pt" height="2983pt"
 viewBox="0.00 0.00 2578.00 2983.00" xmlns="http://www.w3.org/2000/svg" xmlns:xlink="http://www.w3.org/1999/xlink">
<g id="graph0" class="graph" transform="scale(1 1) rotate(0) translate(4 2979.11)">
<title>internals</title>
<polygon fill="#272623" stroke="none" points="-4,4 -4,-2979.11 2574.04,-2979.11 2574.04,4 -4,4"/>
<text xml:space="preserve" text-anchor="middle" x="1285.02" y="-2957.81" font-family="Helvetica,sans-Serif" font-size="14.00" fill="#ece1d7">walshadow internals — pipeline stages, taps &amp; caches</text>
<g id="clust1" class="cluster">
<title>cluster_ingress</title>
<path fill="#34302c" stroke="#4c4641" d="M1456.04,-2625.86C1456.04,-2625.86 1754.04,-2625.86 1754.04,-2625.86 1760.04,-2625.86 1766.04,-2631.86 1766.04,-2637.86 1766.04,-2637.86 1766.04,-2872.86 1766.04,-2872.86 1766.04,-2878.86 1760.04,-2884.86 1754.04,-2884.86 1754.04,-2884.86 1456.04,-2884.86 1456.04,-2884.86 1450.04,-2884.86 1444.04,-2878.86 1444.04,-2872.86 1444.04,-2872.86 1444.04,-2637.86 1444.04,-2637.86 1444.04,-2631.86 1450.04,-2625.86 1456.04,-2625.86"/>
<text xml:space="preserve" text-anchor="middle" x="1605.04" y="-2867.56" font-family="Helvetica,sans-Serif" font-size="14.00" fill="#ece1d7">① ingress (main loop, tokio)</text>
</g>
<g id="clust2" class="cluster">
<title>cluster_filter</title>
<path fill="#34302c" stroke="#4c4641" d="M1459.04,-2217.8C1459.04,-2217.8 1761.04,-2217.8 1761.04,-2217.8 1767.04,-2217.8 1773.04,-2223.8 1773.04,-2229.8 1773.04,-2229.8 1773.04,-2592.86 1773.04,-2592.86 1773.04,-2598.86 1767.04,-2604.86 1761.04,-2604.86 1761.04,-2604.86 1459.04,-2604.86 1459.04,-2604.86 1453.04,-2604.86 1447.04,-2598.86 1447.04,-2592.86 1447.04,-2592.86 1447.04,-2229.8 1447.04,-2229.8 1447.04,-2223.8 1453.04,-2217.8 1459.04,-2217.8"/>
<text xml:space="preserve" text-anchor="middle" x="1610.04" y="-2587.56" font-family="Helvetica,sans-Serif" font-size="14.00" fill="#ece1d7">② filter pipeline (sync, record cadence)</text>
</g>
<g id="clust3" class="cluster">
<title>cluster_fanout</title>
<path fill="#34302c" stroke="#4c4641" d="M1178.04,-2071.3C1178.04,-2071.3 1664.04,-2071.3 1664.04,-2071.3 1670.04,-2071.3 1676.04,-2077.3 1676.04,-2083.3 1676.04,-2083.3 1676.04,-2184.8 1676.04,-2184.8 1676.04,-2190.8 1670.04,-2196.8 1664.04,-2196.8 1664.04,-2196.8 1178.04,-2196.8 1178.04,-2196.8 1172.04,-2196.8 1166.04,-2190.8 1166.04,-2184.8 1166.04,-2184.8 1166.04,-2083.3 1166.04,-2083.3 1166.04,-2077.3 1172.04,-2071.3 1178.04,-2071.3"/>
<text xml:space="preserve" text-anchor="middle" x="1421.04" y="-2179.5" font-family="Helvetica,sans-Serif" font-size="14.00" fill="#ece1d7">③ CompositeRecordSink fan&#45;out (pump task, sync — ordering matters)</text>
</g>
<g id="clust4" class="cluster">
<title>cluster_queue</title>
<path fill="#34302c" stroke="#4c4641" d="M795.04,-1541.92C795.04,-1541.92 1171.04,-1541.92 1171.04,-1541.92 1177.04,-1541.92 1183.04,-1547.92 1183.04,-1553.92 1183.04,-1553.92 1183.04,-2038.3 1183.04,-2038.3 1183.04,-2044.3 1177.04,-2050.3 1171.04,-2050.3 1171.04,-2050.3 795.04,-2050.3 795.04,-2050.3 789.04,-2050.3 783.04,-2044.3 783.04,-2038.3 783.04,-2038.3 783.04,-1553.92 783.04,-1553.92 783.04,-1547.92 789.04,-1541.92 795.04,-1541.92"/>
<text xml:space="preserve" text-anchor="middle" x="983.04" y="-2033" font-family="Helvetica,sans-Serif" font-size="14.00" fill="#ece1d7">④ QueueingRecordSink — pump ↔ decoder decoupling</text>
</g>
<g id="clust5" class="cluster">
<title>cluster_decode</title>
<path fill="#34302c" stroke="#4c4641" d="M1203.04,-1173.05C1203.04,-1173.05 1641.04,-1173.05 1641.04,-1173.05 1647.04,-1173.05 1653.04,-1179.05 1653.04,-1185.05 1653.04,-1185.05 1653.04,-1637.55 1653.04,-1637.55 1653.04,-1643.55 1647.04,-1649.55 1641.04,-1649.55 1641.04,-1649.55 1203.04,-1649.55 1203.04,-1649.55 1197.04,-1649.55 1191.04,-1643.55 1191.04,-1637.55 1191.04,-1637.55 1191.04,-1185.05 1191.04,-1185.05 1191.04,-1179.05 1197.04,-1173.05 1203.04,-1173.05"/>
<text xml:space="preserve" text-anchor="middle" x="1422.04" y="-1632.25" font-family="Helvetica,sans-Serif" font-size="14.00" fill="#ece1d7">⑤ decode + xact buffer (worker task — gated on shadow apply)</text>
</g>
<g id="clust6" class="cluster">
<title>cluster_ch</title>
<path fill="#34302c" stroke="#4c4641" d="M866.04,-595.42C866.04,-595.42 1333.04,-595.42 1333.04,-595.42 1339.04,-595.42 1345.04,-601.42 1345.04,-607.42 1345.04,-607.42 1345.04,-1129.8 1345.04,-1129.8 1345.04,-1135.8 1339.04,-1141.8 1333.04,-1141.8 1333.04,-1141.8 866.04,-1141.8 866.04,-1141.8 860.04,-1141.8 854.04,-1135.8 854.04,-1129.8 854.04,-1129.8 854.04,-607.42 854.04,-607.42 854.04,-601.42 860.04,-595.42 866.04,-595.42"/>
<text xml:space="preserve" text-anchor="middle" x="1099.54" y="-1124.5" font-family="Helvetica,sans-Serif" font-size="14.00" fill="#ece1d7">⑥ CH pipeline tail — decode ×M → batcher → inserter ×N (pipeline/)</text>
</g>
<g id="clust7" class="cluster">
<title>cluster_catalog</title>
<path fill="#34302c" stroke="#4c4641" d="M1808.04,-294.17C1808.04,-294.17 2264.04,-294.17 2264.04,-294.17 2270.04,-294.17 2276.04,-300.17 2276.04,-306.17 2276.04,-306.17 2276.04,-870.55 2276.04,-870.55 2276.04,-876.55 2270.04,-882.55 2264.04,-882.55 2264.04,-882.55 1808.04,-882.55 1808.04,-882.55 1802.04,-882.55 1796.04,-876.55 1796.04,-870.55 1796.04,-870.55 1796.04,-306.17 1796.04,-306.17 1796.04,-300.17 1802.04,-294.17 1808.04,-294.17"/>
<text xml:space="preserve" text-anchor="middle" x="2036.04" y="-865.25" font-family="Helvetica,sans-Serif" font-size="14.00" fill="#ece1d7">⑦ ShadowCatalog cache + SchemaEvent channel</text>
</g>
<g id="clust8" class="cluster">
<title>cluster_ddl</title>
<path fill="#34302c" stroke="#4c4641" d="M2299.04,-8C2299.04,-8 2550.04,-8 2550.04,-8 2556.04,-8 2562.04,-14 2562.04,-20 2562.04,-20 2562.04,-418.05 2562.04,-418.05 2562.04,-424.05 2556.04,-430.05 2550.04,-430.05 2550.04,-430.05 2299.04,-430.05 2299.04,-430.05 2293.04,-430.05 2287.04,-424.05 2287.04,-418.05 2287.04,-418.05 2287.04,-20 2287.04,-20 2287.04,-14 2293.04,-8 2299.04,-8"/>
<text xml:space="preserve" text-anchor="middle" x="2424.54" y="-412.75" font-family="Helvetica,sans-Serif" font-size="14.00" fill="#ece1d7">⑦b DDL applicator (separate CH TCP)</text>
</g>
<g id="clust9" class="cluster">
<title>cluster_walsender</title>
<path fill="#34302c" stroke="#4c4641" d="M417.04,-317.3C417.04,-317.3 671.04,-317.3 671.04,-317.3 677.04,-317.3 683.04,-323.3 683.04,-329.3 683.04,-329.3 683.04,-702.55 683.04,-702.55 683.04,-708.55 677.04,-714.55 671.04,-714.55 671.04,-714.55 417.04,-714.55 417.04,-714.55 411.04,-714.55 405.04,-708.55 405.04,-702.55 405.04,-702.55 405.04,-329.3 405.04,-329.3 405.04,-323.3 411.04,-317.3 417.04,-317.3"/>
<text xml:space="preserve" text-anchor="middle" x="544.04" y="-697.25" font-family="Helvetica,sans-Serif" font-size="14.00" fill="#ece1d7">⑧ walsender server &#160;(tokio task)</text>
</g>
<g id="clust10" class="cluster">
<title>cluster_disk</title>
<path fill="#34302c" stroke="#4c4641" d="M1338.04,-317.3C1338.04,-317.3 1768.04,-317.3 1768.04,-317.3 1774.04,-317.3 1780.04,-323.3 1780.04,-329.3 1780.04,-329.3 1780.04,-418.05 1780.04,-418.05 1780.04,-424.05 1774.04,-430.05 1768.04,-430.05 1768.04,-430.05 1338.04,-430.05 1338.04,-430.05 1332.04,-430.05 1326.04,-424.05 1326.04,-418.05 1326.04,-418.05 1326.04,-329.3 1326.04,-329.3 1326.04,-323.3 1332.04,-317.3 1338.04,-317.3"/>
<text xml:space="preserve" text-anchor="middle" x="1553.04" y="-412.75" font-family="Helvetica,sans-Serif" font-size="14.00" fill="#ece1d7">⑨ on&#45;disk caches</text>
</g>
<!-- src -->
<g id="node1" class="node">
<title>src</title>
<path fill="#3d3d54" stroke="#6e6963" d="M1637.41,-2946.59C1637.41,-2948.39 1622.9,-2949.86 1605.04,-2949.86 1587.17,-2949.86 1572.66,-2948.39 1572.66,-2946.59 1572.66,-2946.59 1572.66,-2917.13 1572.66,-2917.13 1572.66,-2915.33 1587.17,-2913.86 1605.04,-2913.86 1622.9,-2913.86 1637.41,-2915.33 1637.41,-2917.13 1637.41,-2917.13 1637.41,-2946.59 1637.41,-2946.59"/>
<path fill="none" stroke="#6e6963" d="M1637.41,-2946.59C1637.41,-2944.78 1622.9,-2943.31 1605.04,-2943.31 1587.17,-2943.31 1572.66,-2944.78 1572.66,-2946.59"/>
<text xml:space="preserve" text-anchor="middle" x="1605.04" y="-2928.73" font-family="Helvetica,sans-Serif" font-size="10.00" fill="#ece1d7">source PG</text>
</g>
<!-- feed -->
<g id="node4" class="node">
<title>feed</title>
<path fill="#3d3d54" stroke="#6e6963" d="M1675.66,-2826.36C1675.66,-2826.36 1534.41,-2826.36 1534.41,-2826.36 1528.41,-2826.36 1522.41,-2820.36 1522.41,-2814.36 1522.41,-2814.36 1522.41,-2779.36 1522.41,-2779.36 1522.41,-2773.36 1528.41,-2767.36 1534.41,-2767.36 1534.41,-2767.36 1675.66,-2767.36 1675.66,-2767.36 1681.66,-2767.36 1687.66,-2773.36 1687.66,-2779.36 1687.66,-2779.36 1687.66,-2814.36 1687.66,-2814.36 1687.66,-2820.36 1681.66,-2826.36 1675.66,-2826.36"/>
<text xml:space="preserve" text-anchor="middle" x="1605.04" y="-2812.86" font-family="Helvetica,sans-Serif" font-size="10.00" fill="#ece1d7">SourceFeed::pump</text>
<text xml:space="preserve" text-anchor="middle" x="1605.04" y="-2800.11" font-family="Helvetica,sans-Serif" font-size="10.00" fill="#ece1d7">wal&#45;rs ReplicationConn</text>
<text xml:space="preserve" text-anchor="middle" x="1605.04" y="-2787.36" font-family="Helvetica,sans-Serif" font-size="10.00" fill="#ece1d7">IDENTIFY_SYSTEM +</text>
<text xml:space="preserve" text-anchor="middle" x="1605.04" y="-2774.61" font-family="Helvetica,sans-Serif" font-size="10.00" fill="#ece1d7">START_REPLICATION PHYSICAL</text>
</g>
<!-- src&#45;&gt;feed -->
<g id="edge34" class="edge">
<title>src&#45;&gt;feed</title>
<path fill="none" stroke="#a1a9cc" stroke-width="2" d="M1605.04,-2913.47C1605.04,-2894.79 1605.04,-2864.43 1605.04,-2839.5"/>
<polygon fill="#a1a9cc" stroke="#a1a9cc" stroke-width="2" points="1608.54,-2839.72 1605.04,-2829.72 1601.54,-2839.72 1608.54,-2839.72"/>
</g>
<!-- shd -->
<g id="node2" class="node">
<title>shd</title>
<path fill="#3d4128" stroke="#6e6963" d="M1793.41,-71.52C1793.41,-74.71 1762.77,-77.3 1725.04,-77.3 1687.31,-77.3 1656.66,-74.71 1656.66,-71.52 1656.66,-71.52 1656.66,-19.48 1656.66,-19.48 1656.66,-16.29 1687.31,-13.7 1725.04,-13.7 1762.77,-13.7 1793.41,-16.29 1793.41,-19.48 1793.41,-19.48 1793.41,-71.52 1793.41,-71.52"/>
<path fill="none" stroke="#6e6963" d="M1793.41,-71.52C1793.41,-68.33 1762.77,-65.73 1725.04,-65.73 1687.31,-65.73 1656.66,-68.33 1656.66,-71.52"/>
<text xml:space="preserve" text-anchor="middle" x="1725.04" y="-55.12" font-family="Helvetica,sans-Serif" font-size="10.00" fill="#ece1d7">shadow PG</text>
<text xml:space="preserve" text-anchor="middle" x="1725.04" y="-42.38" font-family="Helvetica,sans-Serif" font-size="10.00" fill="#ece1d7">walreceiver + catalog</text>
<text xml:space="preserve" text-anchor="middle" x="1725.04" y="-29.62" font-family="Helvetica,sans-Serif" font-size="10.00" fill="#ece1d7">(pg_last_wal_replay_lsn)</text>
</g>
<!-- stat -->
<g id="node34" class="node">
<title>stat</title>
<path fill="#5d3f40" stroke="#6e6963" d="M663.16,-656.05C663.16,-656.05 572.91,-656.05 572.91,-656.05 566.91,-656.05 560.91,-650.05 560.91,-644.05 560.91,-644.05 560.91,-609.05 560.91,-609.05 560.91,-603.05 566.91,-597.05 572.91,-597.05 572.91,-597.05 663.16,-597.05 663.16,-597.05 669.16,-597.05 675.16,-603.05 675.16,-609.05 675.16,-609.05 675.16,-644.05 675.16,-644.05 675.16,-650.05 669.16,-656.05 663.16,-656.05"/>
<text xml:space="preserve" text-anchor="middle" x="618.04" y="-642.55" font-family="Helvetica,sans-Serif" font-size="10.00" fill="#ece1d7">rx &#39;r&#39; standby status</text>
<text xml:space="preserve" text-anchor="middle" x="618.04" y="-629.8" font-family="Helvetica,sans-Serif" font-size="10.00" fill="#ece1d7">flush_lsn / apply_lsn</text>
<text xml:space="preserve" text-anchor="middle" x="618.04" y="-617.05" font-family="Helvetica,sans-Serif" font-size="10.00" fill="#ece1d7">(min across conns,</text>
<text xml:space="preserve" text-anchor="middle" x="618.04" y="-604.3" font-family="Helvetica,sans-Serif" font-size="10.00" fill="#ece1d7"> apply&#45;lag metric)</text>
</g>
<!-- shd&#45;&gt;stat -->
<g id="edge36" class="edge">
<title>shd&#45;&gt;stat</title>
<path fill="none" stroke="#bd8183" stroke-dasharray="5,2" d="M1656.28,-48.3C1352.53,-56.55 143.5,-92.99 89.04,-151.05 -31,-279 -28.12,-415.2 89.04,-545.8 157.1,-621.67 446.27,-570.21 545.04,-595.42 546.66,-595.84 548.29,-596.28 549.92,-596.74"/>
<polygon fill="#bd8183" stroke="#bd8183" points="548.74,-600.04 559.33,-599.7 550.84,-593.36 548.74,-600.04"/>
</g>
<!-- ch -->
<g id="node3" class="node">
<title>ch</title>
<path fill="#4d4128" stroke="#6e6963" d="M553.41,-60.23C553.41,-62.03 537.56,-63.5 518.04,-63.5 498.52,-63.5 482.66,-62.03 482.66,-60.23 482.66,-60.23 482.66,-30.77 482.66,-30.77 482.66,-28.97 498.52,-27.5 518.04,-27.5 537.56,-27.5 553.41,-28.97 553.41,-30.77 553.41,-30.77 553.41,-60.23 553.41,-60.23"/>
<path fill="none" stroke="#6e6963" d="M553.41,-60.23C553.41,-58.42 537.56,-56.95 518.04,-56.95 498.52,-56.95 482.66,-58.42 482.66,-60.23"/>
<text xml:space="preserve" text-anchor="middle" x="518.04" y="-42.38" font-family="Helvetica,sans-Serif" font-size="10.00" fill="#ece1d7">ClickHouse</text>
</g>
<!-- legend -->
<g id="node38" class="node">
<title>legend</title>
<path fill="#6e6963" stroke="none" d="M377.16,-545.8C377.16,-545.8 116.91,-545.8 116.91,-545.8 110.91,-545.8 104.91,-539.8 104.91,-533.8 104.91,-533.8 104.91,-163.05 104.91,-163.05 104.91,-157.05 110.91,-151.05 116.91,-151.05 116.91,-151.05 377.16,-151.05 377.16,-151.05 383.16,-151.05 389.16,-157.05 389.16,-163.05 389.16,-163.05 389.16,-533.8 389.16,-533.8 389.16,-539.8 383.16,-545.8 377.16,-545.8"/>
<polygon fill="#34302c" stroke="none" points="112.91,-519.05 112.91,-541.8 381.16,-541.8 381.16,-519.05 112.91,-519.05"/>
<polygon fill="none" stroke="#6e6963" points="112.91,-519.05 112.91,-541.8 381.16,-541.8 381.16,-519.05 112.91,-519.05"/>
<text xml:space="preserve" text-anchor="start" x="203.91" y="-528.3" font-family="Helvetica,sans-Serif" font-weight="bold" font-size="10.00" fill="#ece1d7">node fill — role</text>
<polygon fill="#3d3d54" stroke="none" points="112.91,-496.3 112.91,-519.05 140.91,-519.05 140.91,-496.3 112.91,-496.3"/>
<polygon fill="none" stroke="#6e6963" points="112.91,-496.3 112.91,-519.05 140.91,-519.05 140.91,-496.3 112.91,-496.3"/>
<polygon fill="none" stroke="#6e6963" points="140.91,-496.3 140.91,-519.05 381.16,-519.05 381.16,-496.3 140.91,-496.3"/>
<text xml:space="preserve" text-anchor="start" x="214.54" y="-504.3" font-family="Helvetica,sans-Serif" font-size="10.00" fill="#ece1d7">source PG / ingress</text>
<polygon fill="#4d3a28" stroke="none" points="112.91,-473.55 112.91,-496.3 140.91,-496.3 140.91,-473.55 112.91,-473.55"/>
<polygon fill="none" stroke="#6e6963" points="112.91,-473.55 112.91,-496.3 140.91,-496.3 140.91,-473.55 112.91,-473.55"/>
<polygon fill="none" stroke="#6e6963" points="140.91,-473.55 140.91,-496.3 381.16,-496.3 381.16,-473.55 140.91,-473.55"/>
<text xml:space="preserve" text-anchor="start" x="184.91" y="-481.55" font-family="Helvetica,sans-Serif" font-size="10.00" fill="#ece1d7">walshadow filter / queue (sync)</text>
<polygon fill="#4d3340" stroke="none" points="112.91,-450.8 112.91,-473.55 140.91,-473.55 140.91,-450.8 112.91,-450.8"/>
<polygon fill="none" stroke="#6e6963" points="112.91,-450.8 112.91,-473.55 140.91,-473.55 140.91,-450.8 112.91,-450.8"/>
<polygon fill="none" stroke="#6e6963" points="140.91,-450.8 140.91,-473.55 381.16,-473.55 381.16,-450.8 140.91,-450.8"/>
<text xml:space="preserve" text-anchor="start" x="147.41" y="-458.8" font-family="Helvetica,sans-Serif" font-size="10.00" fill="#ece1d7">walshadow output sinks (walsender, segment)</text>
<polygon fill="#4d4128" stroke="none" points="112.91,-428.05 112.91,-450.8 140.91,-450.8 140.91,-428.05 112.91,-428.05"/>
<polygon fill="none" stroke="#6e6963" points="112.91,-428.05 112.91,-450.8 140.91,-450.8 140.91,-428.05 112.91,-428.05"/>
<polygon fill="none" stroke="#6e6963" points="140.91,-428.05 140.91,-450.8 381.16,-450.8 381.16,-428.05 140.91,-428.05"/>
<text xml:space="preserve" text-anchor="start" x="179.29" y="-436.05" font-family="Helvetica,sans-Serif" font-size="10.00" fill="#ece1d7">walshadow decoder + xact buffer</text>
<polygon fill="#4d4d28" stroke="none" points="112.91,-405.3 112.91,-428.05 140.91,-428.05 140.91,-405.3 112.91,-405.3"/>
<polygon fill="none" stroke="#6e6963" points="112.91,-405.3 112.91,-428.05 140.91,-428.05 140.91,-405.3 112.91,-405.3"/>
<polygon fill="none" stroke="#6e6963" points="140.91,-405.3 140.91,-428.05 381.16,-428.05 381.16,-405.3 140.91,-405.3"/>
<text xml:space="preserve" text-anchor="start" x="145.91" y="-413.3" font-family="Helvetica,sans-Serif" font-size="10.00" fill="#ece1d7">walshadow ShadowCatalog + schema&#45;event tx</text>
<polygon fill="#5d3f40" stroke="none" points="112.91,-382.55 112.91,-405.3 140.91,-405.3 140.91,-382.55 112.91,-382.55"/>
<polygon fill="none" stroke="#6e6963" points="112.91,-382.55 112.91,-405.3 140.91,-405.3 140.91,-382.55 112.91,-382.55"/>
<polygon fill="none" stroke="#6e6963" points="140.91,-382.55 140.91,-405.3 381.16,-405.3 381.16,-382.55 140.91,-382.55"/>
<text xml:space="preserve" text-anchor="start" x="190.16" y="-390.55" font-family="Helvetica,sans-Serif" font-size="10.00" fill="#ece1d7">walshadow walsender server</text>
<polygon fill="#5d4628" stroke="none" points="112.91,-359.8 112.91,-382.55 140.91,-382.55 140.91,-359.8 112.91,-359.8"/>
<polygon fill="none" stroke="#6e6963" points="112.91,-359.8 112.91,-382.55 140.91,-382.55 140.91,-359.8 112.91,-359.8"/>
<polygon fill="none" stroke="#6e6963" points="140.91,-359.8 140.91,-382.55 381.16,-382.55 381.16,-359.8 140.91,-359.8"/>
<text xml:space="preserve" text-anchor="start" x="154.54" y="-367.8" font-family="Helvetica,sans-Serif" font-size="10.00" fill="#ece1d7">walshadow CH pipeline tail + DdlApplicator</text>
<polygon fill="#4d3850" stroke="none" points="112.91,-337.05 112.91,-359.8 140.91,-359.8 140.91,-337.05 112.91,-337.05"/>
<polygon fill="none" stroke="#6e6963" points="112.91,-337.05 112.91,-359.8 140.91,-359.8 140.91,-337.05 112.91,-337.05"/>
<polygon fill="none" stroke="#6e6963" points="140.91,-337.05 140.91,-359.8 381.16,-359.8 381.16,-337.05 140.91,-337.05"/>
<text xml:space="preserve" text-anchor="start" x="223.91" y="-345.05" font-family="Helvetica,sans-Serif" font-size="10.00" fill="#ece1d7">on&#45;disk artifact</text>
<polygon fill="#3d4128" stroke="none" points="112.91,-314.3 112.91,-337.05 140.91,-337.05 140.91,-314.3 112.91,-314.3"/>
<polygon fill="none" stroke="#6e6963" points="112.91,-314.3 112.91,-337.05 140.91,-337.05 140.91,-314.3 112.91,-314.3"/>
<polygon fill="none" stroke="#6e6963" points="140.91,-314.3 140.91,-337.05 381.16,-337.05 381.16,-314.3 140.91,-314.3"/>
<text xml:space="preserve" text-anchor="start" x="219.79" y="-322.3" font-family="Helvetica,sans-Serif" font-size="10.00" fill="#ece1d7">shadow Postgres</text>
<polygon fill="#34302c" stroke="none" points="112.91,-291.55 112.91,-314.3 381.16,-314.3 381.16,-291.55 112.91,-291.55"/>
<polygon fill="none" stroke="#6e6963" points="112.91,-291.55 112.91,-314.3 381.16,-314.3 381.16,-291.55 112.91,-291.55"/>
<text xml:space="preserve" text-anchor="start" x="213.29" y="-300.8" font-family="Helvetica,sans-Serif" font-weight="bold" font-size="10.00" fill="#ece1d7">edge colour</text>
<polygon fill="none" stroke="#6e6963" points="112.91,-268.8 112.91,-291.55 140.91,-291.55 140.91,-268.8 112.91,-268.8"/>
<text xml:space="preserve" text-anchor="start" x="120.91" y="-278.05" font-family="Helvetica,sans-Serif" font-weight="bold" font-size="10.00" fill="#a1a9cc">━━</text>
<polygon fill="none" stroke="#6e6963" points="140.91,-268.8 140.91,-291.55 381.16,-291.55 381.16,-268.8 140.91,-268.8"/>
<text xml:space="preserve" text-anchor="start" x="201.41" y="-276.8" font-family="Helvetica,sans-Serif" font-size="10.00" fill="#ece1d7">source replication frame</text>
<polygon fill="none" stroke="#6e6963" points="112.91,-246.05 112.91,-268.8 140.91,-268.8 140.91,-246.05 112.91,-246.05"/>
<text xml:space="preserve" text-anchor="start" x="120.91" y="-255.3" font-family="Helvetica,sans-Serif" font-weight="bold" font-size="10.00" fill="#bd8183">━━</text>
<polygon fill="none" stroke="#6e6963" points="140.91,-246.05 140.91,-268.8 381.16,-268.8 381.16,-246.05 140.91,-246.05"/>
<text xml:space="preserve" text-anchor="start" x="198.41" y="-254.05" font-family="Helvetica,sans-Serif" font-size="10.00" fill="#ece1d7">walsender wire (hot path)</text>
<polygon fill="none" stroke="#6e6963" points="112.91,-223.3 112.91,-246.05 140.91,-246.05 140.91,-223.3 112.91,-223.3"/>
<text xml:space="preserve" text-anchor="start" x="120.91" y="-232.55" font-family="Helvetica,sans-Serif" font-weight="bold" font-size="10.00" fill="#cba85e">━━</text>
<polygon fill="none" stroke="#6e6963" points="140.91,-223.3 140.91,-246.05 381.16,-246.05 381.16,-223.3 140.91,-223.3"/>
<text xml:space="preserve" text-anchor="start" x="175.16" y="-231.3" font-family="Helvetica,sans-Serif" font-size="10.00" fill="#ece1d7">libpq catalog query / schema event</text>
<polygon fill="none" stroke="#6e6963" points="112.91,-200.55 112.91,-223.3 140.91,-223.3 140.91,-200.55 112.91,-200.55"/>
<text xml:space="preserve" text-anchor="start" x="120.91" y="-209.8" font-family="Helvetica,sans-Serif" font-weight="bold" font-size="10.00" fill="#bf8c5f">━━</text>
<polygon fill="none" stroke="#6e6963" points="140.91,-200.55 140.91,-223.3 381.16,-223.3 381.16,-200.55 140.91,-200.55"/>
<text xml:space="preserve" text-anchor="start" x="191.29" y="-208.55" font-family="Helvetica,sans-Serif" font-size="10.00" fill="#ece1d7">CH Native (rows + DDL SQL)</text>
<polygon fill="none" stroke="#6e6963" points="112.91,-177.8 112.91,-200.55 140.91,-200.55 140.91,-177.8 112.91,-177.8"/>
<text xml:space="preserve" text-anchor="start" x="121.29" y="-187.05" font-family="Helvetica,sans-Serif" font-weight="bold" font-size="10.00" fill="#b380b0">···</text>
<polygon fill="none" stroke="#6e6963" points="140.91,-177.8 140.91,-200.55 381.16,-200.55 381.16,-177.8 140.91,-177.8"/>
<text xml:space="preserve" text-anchor="start" x="221.29" y="-185.8" font-family="Helvetica,sans-Serif" font-size="10.00" fill="#ece1d7">cursor durability</text>
<polygon fill="none" stroke="#6e6963" points="112.91,-155.05 112.91,-177.8 140.91,-177.8 140.91,-155.05 112.91,-155.05"/>
<text xml:space="preserve" text-anchor="start" x="120.91" y="-164.3" font-family="Helvetica,sans-Serif" font-weight="bold" font-size="10.00" fill="#6e6963">┄┄</text>
<polygon fill="none" stroke="#6e6963" points="140.91,-155.05 140.91,-177.8 381.16,-177.8 381.16,-155.05 140.91,-155.05"/>
<text xml:space="preserve" text-anchor="start" x="186.04" y="-163.05" font-family="Helvetica,sans-Serif" font-size="10.00" fill="#ece1d7">filesystem (restore_command)</text>
</g>
<!-- ch&#45;&gt;legend -->
<!-- chunks -->
<g id="node5" class="node">
<title>chunks</title>
<path fill="#3d3d54" stroke="#6e6963" d="M1745.7,-2726.36C1745.7,-2726.36 1526.85,-2726.36 1526.85,-2726.36 1520.85,-2726.36 1511.49,-2721.39 1508.13,-2716.41 1508.13,-2716.41 1459.09,-2643.8 1459.09,-2643.8 1455.73,-2638.83 1458.38,-2633.86 1464.38,-2633.86 1464.38,-2633.86 1683.23,-2633.86 1683.23,-2633.86 1689.23,-2633.86 1698.58,-2638.83 1701.94,-2643.8 1701.94,-2643.8 1750.98,-2716.41 1750.98,-2716.41 1754.34,-2721.39 1751.7,-2726.36 1745.7,-2726.36"/>
<text xml:space="preserve" text-anchor="middle" x="1605.04" y="-2689.73" font-family="Helvetica,sans-Serif" font-size="10.00" fill="#ece1d7">WalChunk stream</text>
<text xml:space="preserve" text-anchor="middle" x="1605.04" y="-2676.98" font-family="Helvetica,sans-Serif" font-size="10.00" fill="#ece1d7">(start_lsn, server_wal_end,</text>
<text xml:space="preserve" text-anchor="middle" x="1605.04" y="-2664.23" font-family="Helvetica,sans-Serif" font-size="10.00" fill="#ece1d7"> bytes)</text>
</g>
<!-- feed&#45;&gt;chunks -->
<g id="edge1" class="edge">
<title>feed&#45;&gt;chunks</title>
<path fill="none" stroke="#c1a78e" d="M1605.04,-2766.9C1605.04,-2758.03 1605.04,-2747.94 1605.04,-2737.87"/>
<polygon fill="#c1a78e" stroke="#c1a78e" points="1608.54,-2738.1 1605.04,-2728.1 1601.54,-2738.1 1608.54,-2738.1"/>
</g>
<!-- walker -->
<g id="node6" class="node">
<title>walker</title>
<path fill="#4d3a28" stroke="#6e6963" d="M1664.79,-2546.36C1664.79,-2546.36 1545.29,-2546.36 1545.29,-2546.36 1539.29,-2546.36 1533.29,-2540.36 1533.29,-2534.36 1533.29,-2534.36 1533.29,-2512.11 1533.29,-2512.11 1533.29,-2506.11 1539.29,-2500.11 1545.29,-2500.11 1545.29,-2500.11 1664.79,-2500.11 1664.79,-2500.11 1670.79,-2500.11 1676.79,-2506.11 1676.79,-2512.11 1676.79,-2512.11 1676.79,-2534.36 1676.79,-2534.36 1676.79,-2540.36 1670.79,-2546.36 1664.79,-2546.36"/>
<text xml:space="preserve" text-anchor="middle" x="1605.04" y="-2532.86" font-family="Helvetica,sans-Serif" font-size="10.00" fill="#ece1d7">StreamingWalker</text>
<text xml:space="preserve" text-anchor="middle" x="1605.04" y="-2520.11" font-family="Helvetica,sans-Serif" font-size="10.00" fill="#ece1d7">page&#45;state machine</text>
<text xml:space="preserve" text-anchor="middle" x="1605.04" y="-2507.36" font-family="Helvetica,sans-Serif" font-size="10.00" fill="#ece1d7">record stitch across pages</text>
</g>
<!-- chunks&#45;&gt;walker -->
<g id="edge6" class="edge">
<title>chunks&#45;&gt;walker</title>
<path fill="none" stroke="#a1a9cc" stroke-width="2" d="M1605.04,-2633.48C1605.04,-2609.95 1605.04,-2581.67 1605.04,-2559.78"/>
<polygon fill="#a1a9cc" stroke="#a1a9cc" stroke-width="2" points="1608.54,-2559.78 1605.04,-2549.78 1601.54,-2559.78 1608.54,-2559.78"/>
</g>
<!-- decide -->
<g id="node8" class="node">
<title>decide</title>
<path fill="#4d3a28" stroke="#6e6963" d="M1641.16,-2459.11C1641.16,-2459.11 1568.91,-2459.11 1568.91,-2459.11 1562.91,-2459.11 1556.91,-2453.11 1556.91,-2447.11 1556.91,-2447.11 1556.91,-2412.11 1556.91,-2412.11 1556.91,-2406.11 1562.91,-2400.11 1568.91,-2400.11 1568.91,-2400.11 1641.16,-2400.11 1641.16,-2400.11 1647.16,-2400.11 1653.16,-2406.11 1653.16,-2412.11 1653.16,-2412.11 1653.16,-2447.11 1653.16,-2447.11 1653.16,-2453.11 1647.16,-2459.11 1641.16,-2459.11"/>
<text xml:space="preserve" text-anchor="middle" x="1605.04" y="-2445.61" font-family="Helvetica,sans-Serif" font-size="10.00" fill="#ece1d7">Filter::decide</text>
<text xml:space="preserve" text-anchor="middle" x="1605.04" y="-2432.86" font-family="Helvetica,sans-Serif" font-size="10.00" fill="#ece1d7">Keep catalog</text>
<text xml:space="preserve" text-anchor="middle" x="1605.04" y="-2420.11" font-family="Helvetica,sans-Serif" font-size="10.00" fill="#ece1d7">Drop user&#45;heap</text>
<text xml:space="preserve" text-anchor="middle" x="1605.04" y="-2407.36" font-family="Helvetica,sans-Serif" font-size="10.00" fill="#ece1d7">Empty → reclass</text>
</g>
<!-- walker&#45;&gt;decide -->
<g id="edge2" class="edge">
<title>walker&#45;&gt;decide</title>
<path fill="none" stroke="#c1a78e" d="M1605.04,-2500.05C1605.04,-2491.3 1605.04,-2480.96 1605.04,-2470.97"/>
<polygon fill="#c1a78e" stroke="#c1a78e" points="1608.54,-2471.03 1605.04,-2461.03 1601.54,-2471.03 1608.54,-2471.03"/>
</g>
<!-- track -->
<g id="node7" class="node">
<title>track</title>
<path fill="#4d3a28" stroke="#6e6963" d="M1752.66,-2359.11C1752.66,-2359.11 1629.41,-2359.11 1629.41,-2359.11 1623.41,-2359.11 1617.41,-2353.11 1617.41,-2347.11 1617.41,-2347.11 1617.41,-2324.86 1617.41,-2324.86 1617.41,-2318.86 1623.41,-2312.86 1629.41,-2312.86 1629.41,-2312.86 1752.66,-2312.86 1752.66,-2312.86 1758.66,-2312.86 1764.66,-2318.86 1764.66,-2324.86 1764.66,-2324.86 1764.66,-2347.11 1764.66,-2347.11 1764.66,-2353.11 1758.66,-2359.11 1752.66,-2359.11"/>
<text xml:space="preserve" text-anchor="middle" x="1691.04" y="-2345.61" font-family="Helvetica,sans-Serif" font-size="10.00" fill="#ece1d7">CatalogTracker</text>
<text xml:space="preserve" text-anchor="middle" x="1691.04" y="-2332.86" font-family="Helvetica,sans-Serif" font-size="10.00" fill="#ece1d7">relfilenode set</text>
<text xml:space="preserve" text-anchor="middle" x="1691.04" y="-2320.11" font-family="Helvetica,sans-Serif" font-size="10.00" fill="#ece1d7">(relmap + pg_class writes)</text>
</g>
<!-- inval -->
<g id="node28" class="node">
<title>inval</title>
<path fill="#4d4d28" stroke="#6e6963" d="M1911.91,-824.05C1911.91,-824.05 1832.16,-824.05 1832.16,-824.05 1826.16,-824.05 1820.16,-818.05 1820.16,-812.05 1820.16,-812.05 1820.16,-777.05 1820.16,-777.05 1820.16,-771.05 1826.16,-765.05 1832.16,-765.05 1832.16,-765.05 1911.91,-765.05 1911.91,-765.05 1917.91,-765.05 1923.91,-771.05 1923.91,-777.05 1923.91,-777.05 1923.91,-812.05 1923.91,-812.05 1923.91,-818.05 1917.91,-824.05 1911.91,-824.05"/>
<text xml:space="preserve" text-anchor="middle" x="1872.04" y="-810.55" font-family="Helvetica,sans-Serif" font-size="10.00" fill="#ece1d7">invalidation_drain</text>
<text xml:space="preserve" text-anchor="middle" x="1872.04" y="-797.8" font-family="Helvetica,sans-Serif" font-size="10.00" fill="#ece1d7">(tokio task)</text>
<text xml:space="preserve" text-anchor="middle" x="1872.04" y="-785.05" font-family="Helvetica,sans-Serif" font-size="10.00" fill="#ece1d7">bump generation</text>
<text xml:space="preserve" text-anchor="middle" x="1872.04" y="-772.3" font-family="Helvetica,sans-Serif" font-size="10.00" fill="#ece1d7">on catalog write</text>
</g>
<!-- track&#45;&gt;inval -->
<g id="edge29" class="edge">
<title>track&#45;&gt;inval</title>
<path fill="none" stroke="#cba85e" stroke-dasharray="5,2" d="M1764.88,-2325.27C1808.41,-2314.92 1855.04,-2293.62 1855.04,-2249.83 1855.04,-2249.83 1855.04,-2249.83 1855.04,-946.42 1855.04,-908.56 1860.39,-865.68 1865.09,-835.34"/>
<polygon fill="#cba85e" stroke="#cba85e" points="1868.48,-836.28 1866.61,-825.86 1861.57,-835.18 1868.48,-836.28"/>
</g>
<!-- decide&#45;&gt;track -->
<g id="edge5" class="edge">
<title>decide&#45;&gt;track</title>
<path fill="none" stroke="#c1a78e" stroke-dasharray="5,2" d="M1639.89,-2391.48C1647.38,-2383.49 1655.22,-2375.14 1662.45,-2367.45"/>
<polygon fill="#c1a78e" stroke="#c1a78e" points="1633.08,-2398.73 1636.64,-2388.36 1635.67,-2395.97 1639.93,-2391.44 1639.93,-2391.44 1639.93,-2391.44 1635.67,-2395.97 1643.21,-2394.52 1633.08,-2398.73"/>
<polygon fill="#c1a78e" stroke="#c1a78e" points="1664.67,-2370.19 1668.96,-2360.5 1659.57,-2365.4 1664.67,-2370.19"/>
</g>
<!-- rewrite -->
<g id="node9" class="node">
<title>rewrite</title>
<path fill="#4d3a28" stroke="#6e6963" d="M1573.41,-2359.11C1573.41,-2359.11 1466.66,-2359.11 1466.66,-2359.11 1460.66,-2359.11 1454.66,-2353.11 1454.66,-2347.11 1454.66,-2347.11 1454.66,-2324.86 1454.66,-2324.86 1454.66,-2318.86 1460.66,-2312.86 1466.66,-2312.86 1466.66,-2312.86 1573.41,-2312.86 1573.41,-2312.86 1579.41,-2312.86 1585.41,-2318.86 1585.41,-2324.86 1585.41,-2324.86 1585.41,-2347.11 1585.41,-2347.11 1585.41,-2353.11 1579.41,-2359.11 1573.41,-2359.11"/>
<text xml:space="preserve" text-anchor="middle" x="1520.04" y="-2345.61" font-family="Helvetica,sans-Serif" font-size="10.00" fill="#ece1d7">rewrite::noop_replace</text>
<text xml:space="preserve" text-anchor="middle" x="1520.04" y="-2332.86" font-family="Helvetica,sans-Serif" font-size="10.00" fill="#ece1d7">in&#45;place at byte_ranges</text>
<text xml:space="preserve" text-anchor="middle" x="1520.04" y="-2320.11" font-family="Helvetica,sans-Serif" font-size="10.00" fill="#ece1d7">+ CRC32C recompute</text>
</g>
<!-- decide&#45;&gt;rewrite -->
<g id="edge3" class="edge">
<title>decide&#45;&gt;rewrite</title>
<path fill="none" stroke="#c1a78e" d="M1578.14,-2399.62C1568.72,-2389.46 1558.11,-2378.02 1548.56,-2367.73"/>
<polygon fill="#c1a78e" stroke="#c1a78e" points="1551.23,-2365.46 1541.86,-2360.51 1546.09,-2370.22 1551.23,-2365.46"/>
</g>
<!-- segbuf -->
<g id="node10" class="node">
<title>segbuf</title>
<path fill="#4d3a28" stroke="#6e6963" d="M1582.54,-2267.67C1582.54,-2269.98 1554.08,-2271.86 1519.04,-2271.86 1484,-2271.86 1455.54,-2269.98 1455.54,-2267.67 1455.54,-2267.67 1455.54,-2229.98 1455.54,-2229.98 1455.54,-2227.67 1484,-2225.8 1519.04,-2225.8 1554.08,-2225.8 1582.54,-2227.67 1582.54,-2229.98 1582.54,-2229.98 1582.54,-2267.67 1582.54,-2267.67"/>
<path fill="none" stroke="#6e6963" d="M1582.54,-2267.67C1582.54,-2265.36 1554.08,-2263.48 1519.04,-2263.48 1484,-2263.48 1455.54,-2265.36 1455.54,-2267.67"/>
<text xml:space="preserve" text-anchor="middle" x="1519.04" y="-2252.08" font-family="Helvetica,sans-Serif" font-size="10.00" fill="#ece1d7">16 MiB segment buffer</text>
<text xml:space="preserve" text-anchor="middle" x="1519.04" y="-2239.33" font-family="Helvetica,sans-Serif" font-size="10.00" fill="#ece1d7">(rewritten image)</text>
</g>
<!-- rewrite&#45;&gt;segbuf -->
<g id="edge4" class="edge">
<title>rewrite&#45;&gt;segbuf</title>
<path fill="none" stroke="#c1a78e" d="M1519.77,-2312.61C1519.67,-2303.78 1519.55,-2293.44 1519.44,-2283.74"/>
<polygon fill="#c1a78e" stroke="#c1a78e" points="1522.94,-2283.82 1519.32,-2273.86 1515.94,-2283.9 1522.94,-2283.82"/>
</g>
<!-- bytesink -->
<g id="node11" class="node">
<title>bytesink</title>
<path fill="#4d3340" stroke="#6e6963" d="M1317.29,-2131.92C1317.29,-2131.92 1218.79,-2131.92 1218.79,-2131.92 1212.79,-2131.92 1206.79,-2125.92 1206.79,-2119.92 1206.79,-2119.92 1206.79,-2097.67 1206.79,-2097.67 1206.79,-2091.67 1212.79,-2085.67 1218.79,-2085.67 1218.79,-2085.67 1317.29,-2085.67 1317.29,-2085.67 1323.29,-2085.67 1329.29,-2091.67 1329.29,-2097.67 1329.29,-2097.67 1329.29,-2119.92 1329.29,-2119.92 1329.29,-2125.92 1323.29,-2131.92 1317.29,-2131.92"/>
<text xml:space="preserve" text-anchor="middle" x="1268.04" y="-2118.42" font-family="Helvetica,sans-Serif" font-size="10.00" fill="#ece1d7">❶ ShadowStreamSink</text>
<text xml:space="preserve" text-anchor="middle" x="1268.04" y="-2105.67" font-family="Helvetica,sans-Serif" font-size="10.00" fill="#ece1d7">on_record_bytes</text>
<text xml:space="preserve" text-anchor="middle" x="1268.04" y="-2092.92" font-family="Helvetica,sans-Serif" font-size="10.00" fill="#ece1d7">(stays on pump)</text>
</g>
<!-- segbuf&#45;&gt;bytesink -->
<g id="edge7" class="edge">
<title>segbuf&#45;&gt;bytesink</title>
<path fill="none" stroke="#bd8183" stroke-width="2" d="M1455.26,-2233.83C1425.64,-2225.67 1390.71,-2213.62 1362.04,-2196.8 1337.16,-2182.21 1313.37,-2160.07 1295.94,-2141.78"/>
<polygon fill="#bd8183" stroke="#bd8183" stroke-width="2" points="1298.62,-2139.52 1289.25,-2134.57 1293.49,-2144.28 1298.62,-2139.52"/>
</g>
<!-- recsink -->
<g id="node12" class="node">
<title>recsink</title>
<path fill="#4d3340" stroke="#6e6963" d="M1488.29,-2138.3C1488.29,-2138.3 1389.79,-2138.3 1389.79,-2138.3 1383.79,-2138.3 1377.79,-2132.3 1377.79,-2126.3 1377.79,-2126.3 1377.79,-2091.3 1377.79,-2091.3 1377.79,-2085.3 1383.79,-2079.3 1389.79,-2079.3 1389.79,-2079.3 1488.29,-2079.3 1488.29,-2079.3 1494.29,-2079.3 1500.29,-2085.3 1500.29,-2091.3 1500.29,-2091.3 1500.29,-2126.3 1500.29,-2126.3 1500.29,-2132.3 1494.29,-2138.3 1488.29,-2138.3"/>
<text xml:space="preserve" text-anchor="middle" x="1439.04" y="-2124.8" font-family="Helvetica,sans-Serif" font-size="10.00" fill="#ece1d7">❷ on_record →</text>
<text xml:space="preserve" text-anchor="middle" x="1439.04" y="-2112.05" font-family="Helvetica,sans-Serif" font-size="10.00" fill="#ece1d7">QueueingRecordSink</text>
<text xml:space="preserve" text-anchor="middle" x="1439.04" y="-2099.3" font-family="Helvetica,sans-Serif" font-size="10.00" fill="#ece1d7">(clones + enqueues,</text>
<text xml:space="preserve" text-anchor="middle" x="1439.04" y="-2086.55" font-family="Helvetica,sans-Serif" font-size="10.00" fill="#ece1d7"> returns immediately)</text>
</g>
<!-- segbuf&#45;&gt;recsink -->
<g id="edge8" class="edge">
<title>segbuf&#45;&gt;recsink</title>
<path fill="none" stroke="#c1a78e" d="M1506.01,-2225.34C1493.98,-2204.6 1475.87,-2173.35 1461.51,-2148.58"/>
<polygon fill="#c1a78e" stroke="#c1a78e" points="1464.62,-2146.96 1456.58,-2140.06 1458.56,-2150.47 1464.62,-2146.96"/>
</g>
<!-- segsink -->
<g id="node13" class="node">
<title>segsink</title>
<path fill="#4d3340" stroke="#6e6963" d="M1647.41,-2131.92C1647.41,-2131.92 1552.66,-2131.92 1552.66,-2131.92 1546.66,-2131.92 1540.66,-2125.92 1540.66,-2119.92 1540.66,-2119.92 1540.66,-2097.67 1540.66,-2097.67 1540.66,-2091.67 1546.66,-2085.67 1552.66,-2085.67 1552.66,-2085.67 1647.41,-2085.67 1647.41,-2085.67 1653.41,-2085.67 1659.41,-2091.67 1659.41,-2097.67 1659.41,-2097.67 1659.41,-2119.92 1659.41,-2119.92 1659.41,-2125.92 1653.41,-2131.92 1647.41,-2131.92"/>
<text xml:space="preserve" text-anchor="middle" x="1600.04" y="-2118.42" font-family="Helvetica,sans-Serif" font-size="10.00" fill="#ece1d7">❸ DirSegmentSink</text>
<text xml:space="preserve" text-anchor="middle" x="1600.04" y="-2105.67" font-family="Helvetica,sans-Serif" font-size="10.00" fill="#ece1d7">on_segment</text>
<text xml:space="preserve" text-anchor="middle" x="1600.04" y="-2092.92" font-family="Helvetica,sans-Serif" font-size="10.00" fill="#ece1d7">(at 16 MiB boundary)</text>
</g>
<!-- segbuf&#45;&gt;segsink -->
<g id="edge9" class="edge">
<title>segbuf&#45;&gt;segsink</title>
<path fill="none" stroke="#c1a78e" stroke-dasharray="5,2" d="M1532.23,-2225.34C1545.53,-2202.68 1566.18,-2167.5 1581.2,-2141.9"/>
<polygon fill="#c1a78e" stroke="#c1a78e" points="1584.04,-2143.97 1586.08,-2133.58 1578,-2140.43 1584.04,-2143.97"/>
</g>
<!-- sendq -->
<g id="node33" class="node">
<title>sendq</title>
<path fill="#5d3f40" stroke="#6e6963" d="M536.54,-371.55C536.54,-371.55 433.54,-371.55 433.54,-371.55 427.54,-371.55 421.54,-365.55 421.54,-359.55 421.54,-359.55 421.54,-337.3 421.54,-337.3 421.54,-331.3 427.54,-325.3 433.54,-325.3 433.54,-325.3 536.54,-325.3 536.54,-325.3 542.54,-325.3 548.54,-331.3 548.54,-337.3 548.54,-337.3 548.54,-359.55 548.54,-359.55 548.54,-365.55 542.54,-371.55 536.54,-371.55"/>
<text xml:space="preserve" text-anchor="middle" x="485.04" y="-358.05" font-family="Helvetica,sans-Serif" font-size="10.00" fill="#ece1d7">per&#45;conn send queue</text>
<text xml:space="preserve" text-anchor="middle" x="485.04" y="-345.3" font-family="Helvetica,sans-Serif" font-size="10.00" fill="#ece1d7">&#39;w&#39; XLogData @ record</text>
<text xml:space="preserve" text-anchor="middle" x="485.04" y="-332.55" font-family="Helvetica,sans-Serif" font-size="10.00" fill="#ece1d7">&#39;k&#39; keepalive on idle</text>
</g>
<!-- bytesink&#45;&gt;sendq -->
<g id="edge32" class="edge">
<title>bytesink&#45;&gt;sendq</title>
<path fill="none" stroke="#bd8183" stroke-width="2" d="M1206.61,-2103.36C1003.15,-2087.86 364.04,-2032.34 364.04,-1946.55 364.04,-1946.55 364.04,-1946.55 364.04,-625.55 364.04,-585.69 388.39,-582.01 405.04,-545.8 430.72,-489.93 456.94,-423.37 472.07,-383.85"/>
<polygon fill="#bd8183" stroke="#bd8183" stroke-width="2" points="475.3,-385.2 475.59,-374.61 468.76,-382.71 475.3,-385.2"/>
</g>
<!-- qbuf -->
<g id="node14" class="node">
<title>qbuf</title>
<path fill="#4d3a28" stroke="#6e6963" d="M1162.82,-1991.8C1162.82,-1991.8 972.41,-1991.8 972.41,-1991.8 966.41,-1991.8 957.34,-1986.64 954.27,-1981.49 954.27,-1981.49 911.4,-1909.6 911.4,-1909.6 908.33,-1904.45 911.26,-1899.3 917.26,-1899.3 917.26,-1899.3 1107.66,-1899.3 1107.66,-1899.3 1113.66,-1899.3 1122.73,-1904.45 1125.81,-1909.6 1125.81,-1909.6 1168.67,-1981.49 1168.67,-1981.49 1171.74,-1986.64 1168.82,-1991.8 1162.82,-1991.8"/>
<text xml:space="preserve" text-anchor="middle" x="1040.04" y="-1955.17" font-family="Helvetica,sans-Serif" font-size="10.00" fill="#ece1d7">pump&#45;side batch</text>
<text xml:space="preserve" text-anchor="middle" x="1040.04" y="-1942.42" font-family="Helvetica,sans-Serif" font-size="10.00" fill="#ece1d7">Vec&lt;Record&lt;&#39;static&gt;&gt;</text>
<text xml:space="preserve" text-anchor="middle" x="1040.04" y="-1929.67" font-family="Helvetica,sans-Serif" font-size="10.00" fill="#ece1d7">batch_size = 64</text>
</g>
<!-- recsink&#45;&gt;qbuf -->
<g id="edge13" class="edge">
<title>recsink&#45;&gt;qbuf</title>
<path fill="none" stroke="#c1a78e" d="M1377.57,-2082.95C1328.57,-2063.15 1257.78,-2034.55 1193.67,-2008.64"/>
<polygon fill="#c1a78e" stroke="#c1a78e" points="1195.02,-2005.41 1184.44,-2004.9 1192.4,-2011.9 1195.02,-2005.41"/>
</g>
<!-- outdir -->
<g id="node35" class="node">
<title>outdir</title>
<polygon fill="#4d3850" stroke="#6e6963" points="1766.04,-371.55 1678.04,-371.55 1678.04,-325.3 1772.04,-325.3 1772.04,-365.55 1766.04,-371.55"/>
<polyline fill="none" stroke="#6e6963" points="1766.04,-371.55 1766.04,-365.55"/>
<polyline fill="none" stroke="#6e6963" points="1772.04,-365.55 1766.04,-365.55"/>
<text xml:space="preserve" text-anchor="middle" x="1725.04" y="-358.05" font-family="Helvetica,sans-Serif" font-size="10.00" fill="#ece1d7">out/&lt;seg&gt;</text>
<text xml:space="preserve" text-anchor="middle" x="1725.04" y="-345.3" font-family="Helvetica,sans-Serif" font-size="10.00" fill="#ece1d7">16 MiB filtered</text>
<text xml:space="preserve" text-anchor="middle" x="1725.04" y="-332.55" font-family="Helvetica,sans-Serif" font-size="10.00" fill="#ece1d7">+ manifest.json</text>
</g>
<!-- segsink&#45;&gt;outdir -->
<g id="edge38" class="edge">
<title>segsink&#45;&gt;outdir</title>
<path fill="none" stroke="#c1a78e" d="M1650.6,-2085.19C1699.75,-2059.36 1767.04,-2012.04 1767.04,-1946.55 1767.04,-1946.55 1767.04,-1946.55 1767.04,-625.55 1767.04,-537.15 1745.74,-434.63 1733.48,-382.92"/>
<polygon fill="#c1a78e" stroke="#c1a78e" points="1736.89,-382.17 1731.14,-373.27 1730.09,-383.81 1736.89,-382.17"/>
</g>
<!-- qchan -->
<g id="node15" class="node">
<title>qchan</title>
<path fill="#4d3a28" stroke="#6e6963" d="M1161.37,-1858.3C1161.37,-1858.3 979.63,-1858.3 979.63,-1858.3 973.63,-1858.3 964.65,-1853.09 961.67,-1847.88 961.67,-1847.88 920.66,-1776.21 920.66,-1776.21 917.68,-1771 920.7,-1765.8 926.7,-1765.8 926.7,-1765.8 1108.45,-1765.8 1108.45,-1765.8 1114.45,-1765.8 1123.42,-1771 1126.4,-1776.21 1126.4,-1776.21 1167.41,-1847.88 1167.41,-1847.88 1170.39,-1853.09 1167.37,-1858.3 1161.37,-1858.3"/>
<text xml:space="preserve" text-anchor="middle" x="1044.04" y="-1821.67" font-family="Helvetica,sans-Serif" font-size="10.00" fill="#ece1d7">unbounded mpsc</text>
<text xml:space="preserve" text-anchor="middle" x="1044.04" y="-1808.92" font-family="Helvetica,sans-Serif" font-size="10.00" fill="#ece1d7">Vec&lt;Record&gt; batches</text>
<text xml:space="preserve" text-anchor="middle" x="1044.04" y="-1796.17" font-family="Helvetica,sans-Serif" font-size="10.00" fill="#ece1d7">soft cap → yield_now</text>
</g>
<!-- qbuf&#45;&gt;qchan -->
<g id="edge10" class="edge">
<title>qbuf&#45;&gt;qchan</title>
<path fill="none" stroke="#c1a78e" d="M1041.42,-1898.92C1041.71,-1889.54 1042.01,-1879.55 1042.31,-1869.83"/>
<polygon fill="#c1a78e" stroke="#c1a78e" points="1045.8,-1870.2 1042.61,-1860.1 1038.8,-1869.99 1045.8,-1870.2"/>
</g>
<!-- qwrk -->
<g id="node16" class="node">
<title>qwrk</title>
<path fill="#4d3a28" stroke="#6e6963" d="M1129.79,-1724.8C1129.79,-1724.8 1052.29,-1724.8 1052.29,-1724.8 1046.29,-1724.8 1040.29,-1718.8 1040.29,-1712.8 1040.29,-1712.8 1040.29,-1690.55 1040.29,-1690.55 1040.29,-1684.55 1046.29,-1678.55 1052.29,-1678.55 1052.29,-1678.55 1129.79,-1678.55 1129.79,-1678.55 1135.79,-1678.55 1141.79,-1684.55 1141.79,-1690.55 1141.79,-1690.55 1141.79,-1712.8 1141.79,-1712.8 1141.79,-1718.8 1135.79,-1724.8 1129.79,-1724.8"/>
<text xml:space="preserve" text-anchor="middle" x="1091.04" y="-1711.3" font-family="Helvetica,sans-Serif" font-size="10.00" fill="#ece1d7">worker task</text>
<text xml:space="preserve" text-anchor="middle" x="1091.04" y="-1698.55" font-family="Helvetica,sans-Serif" font-size="10.00" fill="#ece1d7">drains batches,</text>
<text xml:space="preserve" text-anchor="middle" x="1091.04" y="-1685.8" font-family="Helvetica,sans-Serif" font-size="10.00" fill="#ece1d7">fires on_idle ticks</text>
</g>
<!-- qchan&#45;&gt;qwrk -->
<g id="edge11" class="edge">
<title>qchan&#45;&gt;qwrk</title>
<path fill="none" stroke="#c1a78e" d="M1063.83,-1765.4C1068.16,-1755.42 1072.66,-1745.05 1076.72,-1735.67"/>
<polygon fill="#c1a78e" stroke="#c1a78e" points="1079.89,-1737.17 1080.66,-1726.61 1073.47,-1734.39 1079.89,-1737.17"/>
</g>
<!-- qerr -->
<g id="node17" class="node">
<title>qerr</title>
<polygon fill="#4d3a28" stroke="#6e6963" points="1148.54,-1585.92 1027.54,-1585.92 1027.54,-1549.92 1154.54,-1549.92 1154.54,-1579.92 1148.54,-1585.92"/>
<polyline fill="none" stroke="#6e6963" points="1148.54,-1585.92 1148.54,-1579.92"/>
<polyline fill="none" stroke="#6e6963" points="1154.54,-1579.92 1148.54,-1579.92"/>
<text xml:space="preserve" text-anchor="middle" x="1091.04" y="-1571.17" font-family="Helvetica,sans-Serif" font-size="10.00" fill="#ece1d7">shared err slot</text>
<text xml:space="preserve" text-anchor="middle" x="1091.04" y="-1558.42" font-family="Helvetica,sans-Serif" font-size="10.00" fill="#ece1d7">surfaces back to pump</text>
</g>
<!-- qwrk&#45;&gt;qerr -->
<g id="edge12" class="edge">
<title>qwrk&#45;&gt;qerr</title>
<path fill="none" stroke="#b58b86" stroke-dasharray="5,2" d="M1091.04,-1678.32C1091.04,-1656.09 1091.04,-1621.88 1091.04,-1597.65"/>
<polygon fill="#b58b86" stroke="#b58b86" points="1094.54,-1597.84 1091.04,-1587.84 1087.54,-1597.84 1094.54,-1597.84"/>
</g>
<!-- catgate -->
<g id="node18" class="node">
<title>catgate</title>
<path fill="#4d4128" stroke="#6e6963" d="M1319.29,-1591.05C1319.29,-1591.05 1214.79,-1591.05 1214.79,-1591.05 1208.79,-1591.05 1202.79,-1585.05 1202.79,-1579.05 1202.79,-1579.05 1202.79,-1556.8 1202.79,-1556.8 1202.79,-1550.8 1208.79,-1544.8 1214.79,-1544.8 1214.79,-1544.8 1319.29,-1544.8 1319.29,-1544.8 1325.29,-1544.8 1331.29,-1550.8 1331.29,-1556.8 1331.29,-1556.8 1331.29,-1579.05 1331.29,-1579.05 1331.29,-1585.05 1325.29,-1591.05 1319.29,-1591.05"/>
<text xml:space="preserve" text-anchor="middle" x="1267.04" y="-1577.55" font-family="Helvetica,sans-Serif" font-size="10.00" fill="#ece1d7">BufferingDecoderSink</text>
<text xml:space="preserve" text-anchor="middle" x="1267.04" y="-1564.8" font-family="Helvetica,sans-Serif" font-size="10.00" fill="#ece1d7">relation_at(rfn, lsn)</text>
<text xml:space="preserve" text-anchor="middle" x="1267.04" y="-1552.05" font-family="Helvetica,sans-Serif" font-size="10.00" fill="#ece1d7">wait_for_replay(at_lsn)</text>
</g>
<!-- qwrk&#45;&gt;catgate -->
<g id="edge17" class="edge">
<title>qwrk&#45;&gt;catgate</title>
<path fill="none" stroke="#c1a78e" d="M1142.11,-1678.76C1155.13,-1672.32 1169.01,-1664.69 1181.65,-1656.2"/>
<polygon fill="#c1a78e" stroke="#c1a78e" points="1183.67,-1659.06 1189.8,-1650.42 1179.62,-1653.35 1183.67,-1659.06"/>
</g>
<!-- decoder -->
<g id="node19" class="node">
<title>decoder</title>
<path fill="#4d4128" stroke="#6e6963" d="M1345.29,-1503.8C1345.29,-1503.8 1222.79,-1503.8 1222.79,-1503.8 1216.79,-1503.8 1210.79,-1497.8 1210.79,-1491.8 1210.79,-1491.8 1210.79,-1431.3 1210.79,-1431.3 1210.79,-1425.3 1216.79,-1419.3 1222.79,-1419.3 1222.79,-1419.3 1345.29,-1419.3 1345.29,-1419.3 1351.29,-1419.3 1357.29,-1425.3 1357.29,-1431.3 1357.29,-1431.3 1357.29,-1491.8 1357.29,-1491.8 1357.29,-1497.8 1351.29,-1503.8 1345.29,-1503.8"/>
<text xml:space="preserve" text-anchor="middle" x="1284.04" y="-1490.3" font-family="Helvetica,sans-Serif" font-size="10.00" fill="#ece1d7">heap_decoder</text>
<text xml:space="preserve" text-anchor="middle" x="1284.04" y="-1477.55" font-family="Helvetica,sans-Serif" font-size="10.00" fill="#ece1d7">INSERT / DELETE /</text>
<text xml:space="preserve" text-anchor="middle" x="1284.04" y="-1464.8" font-family="Helvetica,sans-Serif" font-size="10.00" fill="#ece1d7">UPDATE / HOT / TRUNCATE</text>
<text xml:space="preserve" text-anchor="middle" x="1284.04" y="-1452.05" font-family="Helvetica,sans-Serif" font-size="10.00" fill="#ece1d7">Tier&#45;1 fixed&#45;width</text>
<text xml:space="preserve" text-anchor="middle" x="1284.04" y="-1439.3" font-family="Helvetica,sans-Serif" font-size="10.00" fill="#ece1d7">Tier&#45;2 length&#45;prefixed</text>
<text xml:space="preserve" text-anchor="middle" x="1284.04" y="-1426.55" font-family="Helvetica,sans-Serif" font-size="10.00" fill="#ece1d7">Replica&#45;identity matrix</text>
</g>
<!-- catgate&#45;&gt;decoder -->
<g id="edge14" class="edge">
<title>catgate&#45;&gt;decoder</title>
<path fill="none" stroke="#c1a78e" d="M1270.68,-1544.53C1272.09,-1535.91 1273.76,-1525.66 1275.43,-1515.37"/>
<polygon fill="#c1a78e" stroke="#c1a78e" points="1278.85,-1516.2 1277,-1505.76 1271.94,-1515.07 1278.85,-1516.2"/>
</g>
<!-- lru -->
<g id="node26" class="node">
<title>lru</title>
<path fill="#4d4d28" stroke="#6e6963" d="M1923.79,-649.67C1923.79,-649.67 1828.29,-649.67 1828.29,-649.67 1822.29,-649.67 1816.29,-643.67 1816.29,-637.67 1816.29,-637.67 1816.29,-615.42 1816.29,-615.42 1816.29,-609.42 1822.29,-603.42 1828.29,-603.42 1828.29,-603.42 1923.79,-603.42 1923.79,-603.42 1929.79,-603.42 1935.79,-609.42 1935.79,-615.42 1935.79,-615.42 1935.79,-637.67 1935.79,-637.67 1935.79,-643.67 1929.79,-649.67 1923.79,-649.67"/>
<text xml:space="preserve" text-anchor="middle" x="1876.04" y="-636.17" font-family="Helvetica,sans-Serif" font-size="10.00" fill="#ece1d7">LRU 4096</text>
<text xml:space="preserve" text-anchor="middle" x="1876.04" y="-623.42" font-family="Helvetica,sans-Serif" font-size="10.00" fill="#ece1d7">by_filenode / by_oid</text>
<text xml:space="preserve" text-anchor="middle" x="1876.04" y="-610.67" font-family="Helvetica,sans-Serif" font-size="10.00" fill="#ece1d7">+ generation counter</text>
</g>
<!-- catgate&#45;&gt;lru -->
<g id="edge28" class="edge">
<title>catgate&#45;&gt;lru</title>
<path fill="none" stroke="#cba85e" stroke-dasharray="5,2" d="M1324.95,-1544.37C1343.05,-1534.55 1361.33,-1521.22 1373.04,-1503.8 1414.28,-1442.44 1454.54,-1231.32 1409.04,-1173.05 1395.5,-1155.71 1374.98,-1178.05 1361.04,-1161.05 1343.44,-1139.59 1368.57,-931.27 1349.04,-911.55 1270.25,-832 922.89,-963.96 846.04,-882.55 797.22,-830.84 796.15,-773.23 846.04,-722.55 855.92,-712.51 1339.01,-715.82 1353.04,-714.55 1515.89,-699.8 1704.58,-663.62 1804.83,-642.86"/>
<polygon fill="#cba85e" stroke="#cba85e" points="1805.46,-646.3 1814.53,-640.84 1804.03,-639.45 1805.46,-646.3"/>
<text xml:space="preserve" text-anchor="middle" x="1376.04" y="-1152.5" font-family="Helvetica,sans-Serif" font-size="9.00" fill="#ece1d7">lookup</text>
</g>
<!-- xactbuf -->
<g id="node20" class="node">
<title>xactbuf</title>
<path fill="#4d4128" stroke="#6e6963" d="M1343.79,-1378.3C1343.79,-1378.3 1248.29,-1378.3 1248.29,-1378.3 1242.29,-1378.3 1236.29,-1372.3 1236.29,-1366.3 1236.29,-1366.3 1236.29,-1318.55 1236.29,-1318.55 1236.29,-1312.55 1242.29,-1306.55 1248.29,-1306.55 1248.29,-1306.55 1343.79,-1306.55 1343.79,-1306.55 1349.79,-1306.55 1355.79,-1312.55 1355.79,-1318.55 1355.79,-1318.55 1355.79,-1366.3 1355.79,-1366.3 1355.79,-1372.3 1349.79,-1378.3 1343.79,-1378.3"/>
<text xml:space="preserve" text-anchor="middle" x="1296.04" y="-1364.8" font-family="Helvetica,sans-Serif" font-size="10.00" fill="#ece1d7">XactBuffer</text>
<text xml:space="preserve" text-anchor="middle" x="1296.04" y="-1352.05" font-family="Helvetica,sans-Serif" font-size="10.00" fill="#ece1d7">per&#45;xid hashmap +</text>
<text xml:space="preserve" text-anchor="middle" x="1296.04" y="-1339.3" font-family="Helvetica,sans-Serif" font-size="10.00" fill="#ece1d7">TOAST reassembly +</text>
<text xml:space="preserve" text-anchor="middle" x="1296.04" y="-1326.55" font-family="Helvetica,sans-Serif" font-size="10.00" fill="#ece1d7">SubxactTracker</text>
<text xml:space="preserve" text-anchor="middle" x="1296.04" y="-1313.8" font-family="Helvetica,sans-Serif" font-size="10.00" fill="#ece1d7">budget = work_mem</text>
</g>
<!-- decoder&#45;&gt;xactbuf -->
<g id="edge15" class="edge">
<title>decoder&#45;&gt;xactbuf</title>
<path fill="none" stroke="#c1a78e" d="M1288.3,-1418.92C1289.26,-1409.57 1290.28,-1399.59 1291.26,-1390.06"/>
<polygon fill="#c1a78e" stroke="#c1a78e" points="1294.73,-1390.52 1292.27,-1380.22 1287.77,-1389.81 1294.73,-1390.52"/>
</g>
<!-- drain -->
<g id="node21" class="node">
<title>drain</title>
<path fill="#4d4128" stroke="#6e6963" d="M1380.91,-1265.55C1380.91,-1265.55 1211.16,-1265.55 1211.16,-1265.55 1205.16,-1265.55 1199.16,-1259.55 1199.16,-1253.55 1199.16,-1253.55 1199.16,-1193.05 1199.16,-1193.05 1199.16,-1187.05 1205.16,-1181.05 1211.16,-1181.05 1211.16,-1181.05 1380.91,-1181.05 1380.91,-1181.05 1386.91,-1181.05 1392.91,-1187.05 1392.91,-1193.05 1392.91,-1193.05 1392.91,-1253.55 1392.91,-1253.55 1392.91,-1259.55 1386.91,-1265.55 1380.91,-1265.55"/>
<text xml:space="preserve" text-anchor="middle" x="1296.04" y="-1252.05" font-family="Helvetica,sans-Serif" font-size="10.00" fill="#ece1d7">ReorderSink (pipeline/reorder.rs)</text>
<text xml:space="preserve" text-anchor="middle" x="1296.04" y="-1239.3" font-family="Helvetica,sans-Serif" font-size="10.00" fill="#ece1d7">commit drain, dense seq per xact</text>
<text xml:space="preserve" text-anchor="middle" x="1296.04" y="-1226.55" font-family="Helvetica,sans-Serif" font-size="10.00" fill="#ece1d7">(spilled first, mem second,</text>
<text xml:space="preserve" text-anchor="middle" x="1296.04" y="-1213.8" font-family="Helvetica,sans-Serif" font-size="10.00" fill="#ece1d7"> WAL&#45;order replay)</text>
<text xml:space="preserve" text-anchor="middle" x="1296.04" y="-1201.05" font-family="Helvetica,sans-Serif" font-size="10.00" fill="#ece1d7">DDL/TRUNCATE = barrier:</text>
<text xml:space="preserve" text-anchor="middle" x="1296.04" y="-1188.3" font-family="Helvetica,sans-Serif" font-size="10.00" fill="#ece1d7">placed → FlushAll → durable → apply</text>
</g>
<!-- xactbuf&#45;&gt;drain -->
<g id="edge16" class="edge">
<title>xactbuf&#45;&gt;drain</title>
<path fill="none" stroke="#c1a78e" d="M1296.04,-1306.28C1296.04,-1297.18 1296.04,-1287.17 1296.04,-1277.36"/>
<polygon fill="#c1a78e" stroke="#c1a78e" points="1299.54,-1277.53 1296.04,-1267.53 1292.54,-1277.53 1299.54,-1277.53"/>
</g>
<!-- spill -->
<g id="node36" class="node">
<title>spill</title>
<polygon fill="#4d3850" stroke="#6e6963" points="1640.04,-371.55 1492.04,-371.55 1492.04,-325.3 1646.04,-325.3 1646.04,-365.55 1640.04,-371.55"/>
<polyline fill="none" stroke="#6e6963" points="1640.04,-371.55 1640.04,-365.55"/>
<polyline fill="none" stroke="#6e6963" points="1646.04,-365.55 1640.04,-365.55"/>
<text xml:space="preserve" text-anchor="middle" x="1569.04" y="-358.05" font-family="Helvetica,sans-Serif" font-size="10.00" fill="#ece1d7">{spill}/xid&#45;&lt;xid&gt;&#45;&lt;lsn&gt;.bin</text>
<text xml:space="preserve" text-anchor="middle" x="1569.04" y="-345.3" font-family="Helvetica,sans-Serif" font-size="10.00" fill="#ece1d7">append&#45;only</text>
<text xml:space="preserve" text-anchor="middle" x="1569.04" y="-332.55" font-family="Helvetica,sans-Serif" font-size="10.00" fill="#ece1d7">[tag u8 | len u32 | body]</text>
</g>
<!-- xactbuf&#45;&gt;spill -->
<g id="edge40" class="edge">
<title>xactbuf&#45;&gt;spill</title>
<path fill="none" stroke="#c1a78e" stroke-dasharray="5,2" d="M1356.23,-1335.6C1431.5,-1327.43 1555.22,-1310.79 1594.04,-1286.55 1623.22,-1268.32 1640.04,-1258.7 1640.04,-1224.3 1640.04,-1224.3 1640.04,-1224.3 1640.04,-625.55 1640.04,-535.16 1603.91,-433.23 1583.2,-382.21"/>
<polygon fill="#c1a78e" stroke="#c1a78e" points="1586.54,-381.13 1579.49,-373.23 1580.07,-383.81 1586.54,-381.13"/>
<text xml:space="preserve" text-anchor="middle" x="1679.04" y="-944.5" font-family="Helvetica,sans-Serif" font-size="9.00" fill="#ece1d7">evict largest xact</text>
</g>
<!-- cdecode -->
<g id="node22" class="node">
<title>cdecode</title>
<path fill="#5d4628" stroke="#6e6963" d="M1310.16,-1083.3C1310.16,-1083.3 1177.91,-1083.3 1177.91,-1083.3 1171.91,-1083.3 1165.91,-1077.3 1165.91,-1071.3 1165.91,-1071.3 1165.91,-1036.3 1165.91,-1036.3 1165.91,-1030.3 1171.91,-1024.3 1177.91,-1024.3 1177.91,-1024.3 1310.16,-1024.3 1310.16,-1024.3 1316.16,-1024.3 1322.16,-1030.3 1322.16,-1036.3 1322.16,-1036.3 1322.16,-1071.3 1322.16,-1071.3 1322.16,-1077.3 1316.16,-1083.3 1310.16,-1083.3"/>
<text xml:space="preserve" text-anchor="middle" x="1244.04" y="-1069.8" font-family="Helvetica,sans-Serif" font-size="10.00" fill="#ece1d7">decode pool ×M</text>
<text xml:space="preserve" text-anchor="middle" x="1244.04" y="-1057.05" font-family="Helvetica,sans-Serif" font-size="10.00" fill="#ece1d7">detoast + resolve_at_pooled</text>
<text xml:space="preserve" text-anchor="middle" x="1244.04" y="-1044.3" font-family="Helvetica,sans-Serif" font-size="10.00" fill="#ece1d7">+ mapping + oracle</text>
<text xml:space="preserve" text-anchor="middle" x="1244.04" y="-1031.55" font-family="Helvetica,sans-Serif" font-size="10.00" fill="#ece1d7">chunk 1024 rows / 4 MiB</text>
</g>
<!-- drain&#45;&gt;cdecode -->
<g id="edge21" class="edge">
<title>drain&#45;&gt;cdecode</title>
<path fill="none" stroke="#bf8c5f" stroke-width="2" d="M1273.13,-1180.78C1270.11,-1174.3 1267.29,-1167.58 1265.04,-1161.05 1257.89,-1140.29 1252.89,-1116.37 1249.57,-1096.49"/>
<polygon fill="#bf8c5f" stroke="#bf8c5f" stroke-width="2" points="1253.05,-1096.1 1248.05,-1086.76 1246.14,-1097.18 1253.05,-1096.1"/>
<text xml:space="preserve" text-anchor="middle" x="1289.04" y="-1152.5" font-family="Helvetica,sans-Serif" font-size="9.00" fill="#ece1d7">DecodeJob</text>
</g>
<!-- tableenc -->
<g id="node23" class="node">
<title>tableenc</title>
<path fill="#5d4628" stroke="#6e6963" d="M1308.66,-983.3C1308.66,-983.3 1137.41,-983.3 1137.41,-983.3 1131.41,-983.3 1125.41,-977.3 1125.41,-971.3 1125.41,-971.3 1125.41,-923.55 1125.41,-923.55 1125.41,-917.55 1131.41,-911.55 1137.41,-911.55 1137.41,-911.55 1308.66,-911.55 1308.66,-911.55 1314.66,-911.55 1320.66,-917.55 1320.66,-923.55 1320.66,-923.55 1320.66,-971.3 1320.66,-971.3 1320.66,-977.3 1314.66,-983.3 1308.66,-983.3"/>
<text xml:space="preserve" text-anchor="middle" x="1223.04" y="-969.8" font-family="Helvetica,sans-Serif" font-size="10.00" fill="#ece1d7">InsertBatcher</text>
<text xml:space="preserve" text-anchor="middle" x="1223.04" y="-957.05" font-family="Helvetica,sans-Serif" font-size="10.00" fill="#ece1d7">TableEncoder per table</text>
<text xml:space="preserve" text-anchor="middle" x="1223.04" y="-944.3" font-family="Helvetica,sans-Serif" font-size="10.00" fill="#ece1d7">Native columns +</text>
<text xml:space="preserve" text-anchor="middle" x="1223.04" y="-931.55" font-family="Helvetica,sans-Serif" font-size="10.00" fill="#ece1d7">_lsn / _xid / _commit_ts / _is_deleted</text>
<text xml:space="preserve" text-anchor="middle" x="1223.04" y="-918.8" font-family="Helvetica,sans-Serif" font-size="10.00" fill="#ece1d7">row/byte budget + deadline seal</text>
</g>
<!-- cdecode&#45;&gt;tableenc -->
<g id="edge18" class="edge">
<title>cdecode&#45;&gt;tableenc</title>
<path fill="none" stroke="#c1a78e" d="M1238.24,-1024C1236.41,-1014.88 1234.33,-1004.56 1232.32,-994.54"/>
<polygon fill="#c1a78e" stroke="#c1a78e" points="1235.79,-994.04 1230.38,-984.92 1228.92,-995.42 1235.79,-994.04"/>
</g>
<!-- chwire -->
<g id="node24" class="node">
<title>chwire</title>
<path fill="#5d4628" stroke="#6e6963" d="M1294.79,-824.05C1294.79,-824.05 1151.29,-824.05 1151.29,-824.05 1145.29,-824.05 1139.29,-818.05 1139.29,-812.05 1139.29,-812.05 1139.29,-777.05 1139.29,-777.05 1139.29,-771.05 1145.29,-765.05 1151.29,-765.05 1151.29,-765.05 1294.79,-765.05 1294.79,-765.05 1300.79,-765.05 1306.79,-771.05 1306.79,-777.05 1306.79,-777.05 1306.79,-812.05 1306.79,-812.05 1306.79,-818.05 1300.79,-824.05 1294.79,-824.05"/>
<text xml:space="preserve" text-anchor="middle" x="1223.04" y="-810.55" font-family="Helvetica,sans-Serif" font-size="10.00" fill="#ece1d7">inserter pool ×N</text>
<text xml:space="preserve" text-anchor="middle" x="1223.04" y="-797.8" font-family="Helvetica,sans-Serif" font-size="10.00" fill="#ece1d7">BlockBuilder over sealed batch</text>
<text xml:space="preserve" text-anchor="middle" x="1223.04" y="-785.05" font-family="Helvetica,sans-Serif" font-size="10.00" fill="#ece1d7">one complete INSERT each</text>
<text xml:space="preserve" text-anchor="middle" x="1223.04" y="-772.3" font-family="Helvetica,sans-Serif" font-size="10.00" fill="#ece1d7">send_with_retry + reconnect</text>
</g>
<!-- tableenc&#45;&gt;chwire -->
<g id="edge19" class="edge">
<title>tableenc&#45;&gt;chwire</title>
<path fill="none" stroke="#c1a78e" d="M1223.04,-911.05C1223.04,-888.4 1223.04,-858.96 1223.04,-835.47"/>
<polygon fill="#c1a78e" stroke="#c1a78e" points="1226.54,-835.65 1223.04,-825.65 1219.54,-835.65 1226.54,-835.65"/>
</g>
<!-- chwire&#45;&gt;ch -->
<g id="edge42" class="edge">
<title>chwire&#45;&gt;ch</title>
<path fill="none" stroke="#bf8c5f" stroke-width="2" d="M1195.13,-764.73C1181.05,-749.96 1163.87,-731.54 1149.04,-714.55 936.81,-471.4 934.53,-362.87 691.04,-151.05 651.74,-116.86 599.85,-87.17 563.18,-68.25"/>
<polygon fill="#bf8c5f" stroke="#bf8c5f" stroke-width="2" points="565.05,-65.28 554.55,-63.87 561.88,-71.52 565.05,-65.28"/>
</g>
<!-- ackcol -->
<g id="node25" class="node">
<title>ackcol</title>
<polygon fill="#4d3a28" stroke="#6e6963" points="1312.66,-649.67 1165.41,-649.67 1165.41,-603.42 1318.66,-603.42 1318.66,-643.67 1312.66,-649.67"/>
<polyline fill="none" stroke="#6e6963" points="1312.66,-649.67 1312.66,-643.67"/>
<polyline fill="none" stroke="#6e6963" points="1318.66,-643.67 1312.66,-643.67"/>
<text xml:space="preserve" text-anchor="middle" x="1242.04" y="-636.17" font-family="Helvetica,sans-Serif" font-size="10.00" fill="#ece1d7">ack collector</text>
<text xml:space="preserve" text-anchor="middle" x="1242.04" y="-623.42" font-family="Helvetica,sans-Serif" font-size="10.00" fill="#ece1d7">contiguous&#45;done watermark</text>
<text xml:space="preserve" text-anchor="middle" x="1242.04" y="-610.67" font-family="Helvetica,sans-Serif" font-size="10.00" fill="#ece1d7">→ emitter_ack_lsn</text>
</g>
<!-- chwire&#45;&gt;ackcol -->
<g id="edge20" class="edge">
<title>chwire&#45;&gt;ackcol</title>
<path fill="none" stroke="#b380b0" stroke-dasharray="1,5" d="M1226.35,-764.63C1229.64,-735.85 1234.7,-691.69 1238.17,-661.32"/>
<polygon fill="#b380b0" stroke="#b380b0" points="1241.63,-661.85 1239.29,-651.52 1234.68,-661.06 1241.63,-661.85"/>
<text xml:space="preserve" text-anchor="middle" x="1261.21" y="-736.5" font-family="Helvetica,sans-Serif" font-size="9.00" fill="#ece1d7">Acked after</text>
<text xml:space="preserve" text-anchor="middle" x="1261.21" y="-725.25" font-family="Helvetica,sans-Serif" font-size="9.00" fill="#ece1d7">EndOfStream</text>
</g>
<!-- cursor -->
<g id="node37" class="node">
<title>cursor</title>
<polygon fill="#4d3850" stroke="#6e6963" points="1454.16,-371.55 1333.91,-371.55 1333.91,-325.3 1460.16,-325.3 1460.16,-365.55 1454.16,-371.55"/>
<polyline fill="none" stroke="#6e6963" points="1454.16,-371.55 1454.16,-365.55"/>
<polyline fill="none" stroke="#6e6963" points="1460.16,-365.55 1454.16,-365.55"/>
<text xml:space="preserve" text-anchor="middle" x="1397.04" y="-358.05" font-family="Helvetica,sans-Serif" font-size="10.00" fill="#ece1d7">{spill}/cursor.bin</text>
<text xml:space="preserve" text-anchor="middle" x="1397.04" y="-345.3" font-family="Helvetica,sans-Serif" font-size="10.00" fill="#ece1d7">64 B atomic rename</text>
<text xml:space="preserve" text-anchor="middle" x="1397.04" y="-332.55" font-family="Helvetica,sans-Serif" font-size="10.00" fill="#ece1d7">6 LSN fields + CRC32C</text>
</g>
<!-- ackcol&#45;&gt;cursor -->
<g id="edge41" class="edge">
<title>ackcol&#45;&gt;cursor</title>
<path fill="none" stroke="#b380b0" stroke-dasharray="1,5" d="M1254.72,-602.95C1282.15,-554.08 1347.07,-438.43 1378.86,-381.8"/>
<polygon fill="#b380b0" stroke="#b380b0" points="1381.81,-383.7 1383.65,-373.26 1375.71,-380.27 1381.81,-383.7"/>
<text xml:space="preserve" text-anchor="middle" x="1310.77" y="-568.5" font-family="Helvetica,sans-Serif" font-size="9.00" fill="#ece1d7">emitter_ack_lsn</text>
</g>
<!-- libpq -->
<g id="node27" class="node">
<title>libpq</title>
<path fill="#4d4d28" stroke="#6e6963" d="M1915.66,-371.55C1915.66,-371.55 1816.41,-371.55 1816.41,-371.55 1810.41,-371.55 1804.41,-365.55 1804.41,-359.55 1804.41,-359.55 1804.41,-337.3 1804.41,-337.3 1804.41,-331.3 1810.41,-325.3 1816.41,-325.3 1816.41,-325.3 1915.66,-325.3 1915.66,-325.3 1921.66,-325.3 1927.66,-331.3 1927.66,-337.3 1927.66,-337.3 1927.66,-359.55 1927.66,-359.55 1927.66,-365.55 1921.66,-371.55 1915.66,-371.55"/>
<text xml:space="preserve" text-anchor="middle" x="1866.04" y="-358.05" font-family="Helvetica,sans-Serif" font-size="10.00" fill="#ece1d7">tokio_postgres::Client</text>
<text xml:space="preserve" text-anchor="middle" x="1866.04" y="-345.3" font-family="Helvetica,sans-Serif" font-size="10.00" fill="#ece1d7">SELECT pg_class /</text>
<text xml:space="preserve" text-anchor="middle" x="1866.04" y="-332.55" font-family="Helvetica,sans-Serif" font-size="10.00" fill="#ece1d7">pg_attribute / pg_type</text>
</g>
<!-- lru&#45;&gt;libpq -->
<g id="edge22" class="edge">
<title>lru&#45;&gt;libpq</title>
<path fill="none" stroke="#c1a78e" stroke-dasharray="5,2" d="M1875.22,-602.95C1873.46,-554.49 1869.33,-440.35 1867.26,-383.22"/>
<polygon fill="#c1a78e" stroke="#c1a78e" points="1870.77,-383.32 1866.91,-373.46 1863.77,-383.58 1870.77,-383.32"/>
<text xml:space="preserve" text-anchor="middle" x="1884.25" y="-568.5" font-family="Helvetica,sans-Serif" font-size="9.00" fill="#ece1d7">miss</text>
</g>
<!-- evtx -->
<g id="node29" class="node">
<title>evtx</title>
<path fill="#4d4d28" stroke="#6e6963" d="M2256.25,-394.67C2256.25,-394.67 2034.93,-394.67 2034.93,-394.67 2028.93,-394.67 2019.55,-389.72 2016.17,-384.76 2016.17,-384.76 1966.58,-312.08 1966.58,-312.08 1963.2,-307.13 1965.82,-302.17 1971.82,-302.17 1971.82,-302.17 2193.14,-302.17 2193.14,-302.17 2199.14,-302.17 2208.53,-307.13 2211.91,-312.08 2211.91,-312.08 2261.49,-384.76 2261.49,-384.76 2264.87,-389.72 2262.25,-394.67 2256.25,-394.67"/>
<text xml:space="preserve" text-anchor="middle" x="2114.04" y="-358.05" font-family="Helvetica,sans-Serif" font-size="10.00" fill="#ece1d7">schema_event_tx</text>
<text xml:space="preserve" text-anchor="middle" x="2114.04" y="-345.3" font-family="Helvetica,sans-Serif" font-size="10.00" fill="#ece1d7">Added / Changed / Dropped</text>
<text xml:space="preserve" text-anchor="middle" x="2114.04" y="-332.55" font-family="Helvetica,sans-Serif" font-size="10.00" fill="#ece1d7">(unbounded mpsc)</text>
</g>
<!-- lru&#45;&gt;evtx -->
<g id="edge24" class="edge">
<title>lru&#45;&gt;evtx</title>
<path fill="none" stroke="#cba85e" stroke-dasharray="5,2" d="M1895.51,-602.95C1932.76,-559.74 2015.02,-464.3 2067.31,-403.63"/>
<polygon fill="#cba85e" stroke="#cba85e" points="2069.94,-405.95 2073.81,-396.09 2064.63,-401.38 2069.94,-405.95"/>
<text xml:space="preserve" text-anchor="middle" x="1952.95" y="-568.5" font-family="Helvetica,sans-Serif" font-size="9.00" fill="#ece1d7">diff vs prior</text>
</g>
<!-- libpq&#45;&gt;shd -->
<g id="edge37" class="edge">
<title>libpq&#45;&gt;shd</title>
<path fill="none" stroke="#cba85e" d="M1867.6,-313.8C1868.3,-262.25 1862.69,-162.79 1815.04,-97.3 1810.95,-91.68 1806.04,-86.6 1800.65,-82.02"/>
<polygon fill="#cba85e" stroke="#cba85e" points="1867.37,-323.72 1863.11,-313.62 1867.46,-319.94 1867.61,-313.72 1867.61,-313.72 1867.61,-313.72 1867.46,-319.94 1872.11,-313.83 1867.37,-323.72"/>
<polygon fill="#cba85e" stroke="#cba85e" points="1803.09,-79.49 1793.03,-76.16 1798.83,-85.03 1803.09,-79.49"/>
<text xml:space="preserve" text-anchor="middle" x="1862.69" y="-111.25" font-family="Helvetica,sans-Serif" font-size="9.00" fill="#ece1d7">libpq SELECT</text>
</g>
<!-- inval&#45;&gt;lru -->
<g id="edge23" class="edge">
<title>inval&#45;&gt;lru</title>
<path fill="none" stroke="#cba85e" stroke-dasharray="5,2" d="M1872.73,-764.63C1873.43,-735.85 1874.49,-691.69 1875.22,-661.32"/>
<polygon fill="#cba85e" stroke="#cba85e" points="1878.72,-661.61 1875.46,-651.53 1871.72,-661.44 1878.72,-661.61"/>
</g>
<!-- evtx&#45;&gt;xactbuf -->
<g id="edge30" class="edge">
<title>evtx&#45;&gt;xactbuf</title>
<path fill="none" stroke="#cba85e" stroke-dasharray="5,2" d="M2089.83,-394.99C2061.82,-442.4 2010.84,-514.07 1944.04,-545.8 1833.72,-598.18 929.28,-506.07 846.04,-595.42 773.02,-673.8 818.96,-716.67 850.04,-745.05 891.34,-782.76 1301.09,-744.3 1353.04,-765.05 1431.56,-796.41 1451.61,-818.6 1496.04,-890.55 1528.29,-942.78 1579.83,-1106.31 1552.04,-1161.05 1513.93,-1236.09 1428.31,-1286.33 1366.57,-1314.32"/>
<polygon fill="#cba85e" stroke="#cba85e" points="1365.21,-1311.09 1357.49,-1318.35 1368.05,-1317.49 1365.21,-1311.09"/>
<text xml:space="preserve" text-anchor="middle" x="1564.19" y="-944.5" font-family="Helvetica,sans-Serif" font-size="9.00" fill="#ece1d7">stamp on xid</text>
</g>
<!-- ddlapp -->
<g id="node31" class="node">
<title>ddlapp</title>
<path fill="#5d4628" stroke="#6e6963" d="M2411.91,-75C2411.91,-75 2308.16,-75 2308.16,-75 2302.16,-75 2296.16,-69 2296.16,-63 2296.16,-63 2296.16,-28 2296.16,-28 2296.16,-22 2302.16,-16 2308.16,-16 2308.16,-16 2411.91,-16 2411.91,-16 2417.91,-16 2423.91,-22 2423.91,-28 2423.91,-28 2423.91,-63 2423.91,-63 2423.91,-69 2417.91,-75 2411.91,-75"/>
<text xml:space="preserve" text-anchor="middle" x="2360.04" y="-61.5" font-family="Helvetica,sans-Serif" font-size="10.00" fill="#ece1d7">DdlApplicator</text>
<text xml:space="preserve" text-anchor="middle" x="2360.04" y="-48.75" font-family="Helvetica,sans-Serif" font-size="10.00" fill="#ece1d7">(ch_ddl.rs)</text>
<text xml:space="preserve" text-anchor="middle" x="2360.04" y="-36" font-family="Helvetica,sans-Serif" font-size="10.00" fill="#ece1d7">CREATE / ADD COL /</text>
<text xml:space="preserve" text-anchor="middle" x="2360.04" y="-23.25" font-family="Helvetica,sans-Serif" font-size="10.00" fill="#ece1d7">RENAME / DROP TABLE</text>
</g>
<!-- evtx&#45;&gt;ddlapp -->
<g id="edge26" class="edge">
<title>evtx&#45;&gt;ddlapp</title>
<path fill="none" stroke="#cba85e" stroke-dasharray="5,2" d="M2136.53,-301.7C2164.53,-248.1 2216.4,-158.79 2279.29,-97.3 2284.9,-91.8 2291.21,-86.6 2297.76,-81.77"/>
<polygon fill="#cba85e" stroke="#cba85e" points="2299.39,-84.91 2305.56,-76.3 2295.37,-79.18 2299.39,-84.91"/>
<text xml:space="preserve" text-anchor="middle" x="2315.66" y="-111.25" font-family="Helvetica,sans-Serif" font-size="9.00" fill="#ece1d7">drain at commit</text>
</g>
<!-- bridge -->
<g id="node30" class="node">
<title>bridge</title>
<path fill="#5d4628" stroke="#6e6963" d="M2411.66,-371.55C2411.66,-371.55 2312.41,-371.55 2312.41,-371.55 2306.41,-371.55 2300.41,-365.55 2300.41,-359.55 2300.41,-359.55 2300.41,-337.3 2300.41,-337.3 2300.41,-331.3 2306.41,-325.3 2312.41,-325.3 2312.41,-325.3 2411.66,-325.3 2411.66,-325.3 2417.66,-325.3 2423.66,-331.3 2423.66,-337.3 2423.66,-337.3 2423.66,-359.55 2423.66,-359.55 2423.66,-365.55 2417.66,-371.55 2411.66,-371.55"/>
<text xml:space="preserve" text-anchor="middle" x="2362.04" y="-358.05" font-family="Helvetica,sans-Serif" font-size="10.00" fill="#ece1d7">type_bridge</text>
<text xml:space="preserve" text-anchor="middle" x="2362.04" y="-345.3" font-family="Helvetica,sans-Serif" font-size="10.00" fill="#ece1d7">RelAttr → CH type</text>
<text xml:space="preserve" text-anchor="middle" x="2362.04" y="-332.55" font-family="Helvetica,sans-Serif" font-size="10.00" fill="#ece1d7">(reject widen for now)</text>
</g>
<!-- bridge&#45;&gt;ddlapp -->
<g id="edge25" class="edge">
<title>bridge&#45;&gt;ddlapp</title>
<path fill="none" stroke="#c1a78e" stroke-dasharray="5,2" d="M2361.89,-324.8C2361.55,-274.11 2360.73,-150.8 2360.3,-86.7"/>
<polygon fill="#c1a78e" stroke="#c1a78e" points="2363.81,-86.94 2360.24,-76.97 2356.81,-86.99 2363.81,-86.94"/>
</g>
<!-- ddlapp&#45;&gt;ch -->
<g id="edge27" class="edge">
<title>ddlapp&#45;&gt;ch</title>
<path fill="none" stroke="#bf8c5f" stroke-dasharray="5,2" d="M2295.92,-53.17C2155.2,-69.57 1808.6,-107.6 1517.04,-120.55 1149.88,-136.86 708.2,-75.11 565.17,-53.05"/>
<polygon fill="#bf8c5f" stroke="#bf8c5f" points="565.74,-49.6 555.32,-51.52 564.67,-56.52 565.74,-49.6"/>
<text xml:space="preserve" text-anchor="middle" x="1466.04" y="-122.5" font-family="Helvetica,sans-Serif" font-size="9.00" fill="#ece1d7">DDL SQL</text>
<text xml:space="preserve" text-anchor="middle" x="1466.04" y="-111.25" font-family="Helvetica,sans-Serif" font-size="9.00" fill="#ece1d7">(inside reorder barrier,</text>
<text xml:space="preserve" text-anchor="middle" x="1466.04" y="-100" font-family="Helvetica,sans-Serif" font-size="9.00" fill="#ece1d7"> own CH connection)</text>
</g>
<!-- listener -->
<g id="node32" class="node">
<title>listener</title>
<path fill="#5d3f40" stroke="#6e6963" d="M517.29,-649.67C517.29,-649.67 424.79,-649.67 424.79,-649.67 418.79,-649.67 412.79,-643.67 412.79,-637.67 412.79,-637.67 412.79,-615.42 412.79,-615.42 412.79,-609.42 418.79,-603.42 424.79,-603.42 424.79,-603.42 517.29,-603.42 517.29,-603.42 523.29,-603.42 529.29,-609.42 529.29,-615.42 529.29,-615.42 529.29,-637.67 529.29,-637.67 529.29,-643.67 523.29,-649.67 517.29,-649.67"/>
<text xml:space="preserve" text-anchor="middle" x="471.04" y="-636.17" font-family="Helvetica,sans-Serif" font-size="10.00" fill="#ece1d7">accept(unix / TCP)</text>
<text xml:space="preserve" text-anchor="middle" x="471.04" y="-623.42" font-family="Helvetica,sans-Serif" font-size="10.00" fill="#ece1d7">IDENTIFY_SYSTEM +</text>
<text xml:space="preserve" text-anchor="middle" x="471.04" y="-610.67" font-family="Helvetica,sans-Serif" font-size="10.00" fill="#ece1d7">START_REPLICATION</text>
</g>
<!-- listener&#45;&gt;sendq -->
<g id="edge31" class="edge">
<title>listener&#45;&gt;sendq</title>
<path fill="none" stroke="#c1a78e" stroke-dasharray="5,2" d="M472.18,-602.95C474.64,-554.49 480.43,-440.35 483.32,-383.22"/>
<polygon fill="#c1a78e" stroke="#c1a78e" points="486.81,-383.62 483.82,-373.45 479.82,-383.26 486.81,-383.62"/>
</g>
<!-- sendq&#45;&gt;shd -->
<g id="edge35" class="edge">
<title>sendq&#45;&gt;shd</title>
<path fill="none" stroke="#bd8183" stroke-width="2" d="M549.03,-325.26C690.86,-276.93 1043.12,-161.28 1346.29,-97.3 1447.69,-75.9 1566.37,-61.7 1643.48,-53.88"/>
<polygon fill="#bd8183" stroke="#bd8183" stroke-width="2" points="1643.82,-57.37 1653.42,-52.89 1643.13,-50.4 1643.82,-57.37"/>
<text xml:space="preserve" text-anchor="middle" x="1376.66" y="-111.25" font-family="Helvetica,sans-Serif" font-size="9.00" fill="#ece1d7">hot wire (ms)</text>
</g>
<!-- stat&#45;&gt;catgate -->
<g id="edge33" class="edge">
<title>stat&#45;&gt;catgate</title>
<path fill="none" stroke="#bd8183" stroke-dasharray="5,2" d="M633.06,-656.18C664.12,-711.92 741.33,-833.78 846.04,-882.55 859.24,-888.7 1093.5,-889.76 1108.04,-890.55 1168.13,-893.8 1332.91,-871.73 1378.04,-911.55 1462.93,-986.44 1370.58,-1064.26 1429.29,-1161.05 1433.67,-1168.27 1440.32,-1165.46 1444.04,-1173.05 1470.13,-1226.35 1446.37,-1247.2 1447.04,-1306.55 1447.4,-1338.43 1451.01,-1346.66 1447.04,-1378.3 1439.87,-1435.41 1449.7,-1457.84 1415.04,-1503.8 1397.37,-1527.23 1369.28,-1542.06 1342.29,-1551.4"/>
<polygon fill="#bd8183" stroke="#bd8183" points="1341.51,-1547.97 1333.07,-1554.37 1343.66,-1554.64 1341.51,-1547.97"/>
<text xml:space="preserve" text-anchor="middle" x="1486.66" y="-1152.5" font-family="Helvetica,sans-Serif" font-size="9.00" fill="#ece1d7">apply_lsn → unblock gate</text>
</g>
<!-- outdir&#45;&gt;shd -->
<g id="edge39" class="edge">
<title>outdir&#45;&gt;shd</title>
<path fill="none" stroke="#6e6963" stroke-dasharray="5,2" d="M1725.04,-324.8C1725.04,-274.75 1725.04,-153.92 1725.04,-89.17"/>
<polygon fill="#6e6963" stroke="#6e6963" points="1728.54,-89.28 1725.04,-79.28 1721.54,-89.28 1728.54,-89.28"/>
<text xml:space="preserve" text-anchor="middle" x="1765.91" y="-111.25" font-family="Helvetica,sans-Serif" font-size="9.00" fill="#ece1d7">restore_command</text>
</g>
</g>
</svg>
