<?xml version="1.0" encoding="UTF-8" standalone="no"?>
<!DOCTYPE svg PUBLIC "-//W3C//DTD SVG 1.1//EN"
 "http://www.w3.org/Graphics/SVG/1.1/DTD/svg11.dtd">
<!-- Generated by graphviz version 15.1.0 (20260618.0150)
 -->
<!-- Title: internals Pages: 1 -->
<svg width="3017pt" height="2853pt"
 viewBox="0.00 0.00 3017.00 2853.00" xmlns="http://www.w3.org/2000/svg" xmlns:xlink="http://www.w3.org/1999/xlink">
<g id="graph0" class="graph" transform="scale(1 1) rotate(0) translate(4 2848.73)">
<title>internals</title>
<polygon fill="#272623" stroke="none" points="-4,4 -4,-2848.73 3013.25,-2848.73 3013.25,4 -4,4"/>
<text xml:space="preserve" text-anchor="middle" x="1504.62" y="-2827.43" font-family="Helvetica,sans-Serif" font-size="14.00" fill="#ece1d7">walshadow internals — pipeline stages, taps &amp; caches</text>
<g id="clust1" class="cluster">
<title>cluster_ingress</title>
<path fill="#34302c" stroke="#4c4641" d="M1952.25,-2495.48C1952.25,-2495.48 2250.25,-2495.48 2250.25,-2495.48 2256.25,-2495.48 2262.25,-2501.48 2262.25,-2507.48 2262.25,-2507.48 2262.25,-2742.48 2262.25,-2742.48 2262.25,-2748.48 2256.25,-2754.48 2250.25,-2754.48 2250.25,-2754.48 1952.25,-2754.48 1952.25,-2754.48 1946.25,-2754.48 1940.25,-2748.48 1940.25,-2742.48 1940.25,-2742.48 1940.25,-2507.48 1940.25,-2507.48 1940.25,-2501.48 1946.25,-2495.48 1952.25,-2495.48"/>
<text xml:space="preserve" text-anchor="middle" x="2101.25" y="-2737.18" font-family="Helvetica,sans-Serif" font-size="14.00" fill="#ece1d7">① ingress (main loop, tokio)</text>
</g>
<g id="clust2" class="cluster">
<title>cluster_filter</title>
<path fill="#34302c" stroke="#4c4641" d="M2033.25,-2087.42C2033.25,-2087.42 2335.25,-2087.42 2335.25,-2087.42 2341.25,-2087.42 2347.25,-2093.42 2347.25,-2099.42 2347.25,-2099.42 2347.25,-2462.48 2347.25,-2462.48 2347.25,-2468.48 2341.25,-2474.48 2335.25,-2474.48 2335.25,-2474.48 2033.25,-2474.48 2033.25,-2474.48 2027.25,-2474.48 2021.25,-2468.48 2021.25,-2462.48 2021.25,-2462.48 2021.25,-2099.42 2021.25,-2099.42 2021.25,-2093.42 2027.25,-2087.42 2033.25,-2087.42"/>
<text xml:space="preserve" text-anchor="middle" x="2184.25" y="-2457.18" font-family="Helvetica,sans-Serif" font-size="14.00" fill="#ece1d7">② filter pipeline (sync, record cadence)</text>
</g>
<g id="clust3" class="cluster">
<title>cluster_fanout</title>
<path fill="#34302c" stroke="#4c4641" d="M1759.25,-1940.92C1759.25,-1940.92 2245.25,-1940.92 2245.25,-1940.92 2251.25,-1940.92 2257.25,-1946.92 2257.25,-1952.92 2257.25,-1952.92 2257.25,-2054.42 2257.25,-2054.42 2257.25,-2060.42 2251.25,-2066.42 2245.25,-2066.42 2245.25,-2066.42 1759.25,-2066.42 1759.25,-2066.42 1753.25,-2066.42 1747.25,-2060.42 1747.25,-2054.42 1747.25,-2054.42 1747.25,-1952.92 1747.25,-1952.92 1747.25,-1946.92 1753.25,-1940.92 1759.25,-1940.92"/>
<text xml:space="preserve" text-anchor="middle" x="2002.25" y="-2049.12" font-family="Helvetica,sans-Serif" font-size="14.00" fill="#ece1d7">③ CompositeRecordSink fan&#45;out (pump task, sync — ordering matters)</text>
</g>
<g id="clust4" class="cluster">
<title>cluster_queue</title>
<path fill="#34302c" stroke="#4c4641" d="M852.25,-1411.55C852.25,-1411.55 1228.25,-1411.55 1228.25,-1411.55 1234.25,-1411.55 1240.25,-1417.55 1240.25,-1423.55 1240.25,-1423.55 1240.25,-1907.92 1240.25,-1907.92 1240.25,-1913.92 1234.25,-1919.92 1228.25,-1919.92 1228.25,-1919.92 852.25,-1919.92 852.25,-1919.92 846.25,-1919.92 840.25,-1913.92 840.25,-1907.92 840.25,-1907.92 840.25,-1423.55 840.25,-1423.55 840.25,-1417.55 846.25,-1411.55 852.25,-1411.55"/>
<text xml:space="preserve" text-anchor="middle" x="1040.25" y="-1902.62" font-family="Helvetica,sans-Serif" font-size="14.00" fill="#ece1d7">④ QueueingRecordSink — pump ↔ decoder decoupling</text>
</g>
<g id="clust5" class="cluster">
<title>cluster_decode</title>
<path fill="#34302c" stroke="#4c4641" d="M1260.25,-1055.42C1260.25,-1055.42 1698.25,-1055.42 1698.25,-1055.42 1704.25,-1055.42 1710.25,-1061.42 1710.25,-1067.42 1710.25,-1067.42 1710.25,-1507.17 1710.25,-1507.17 1710.25,-1513.17 1704.25,-1519.17 1698.25,-1519.17 1698.25,-1519.17 1260.25,-1519.17 1260.25,-1519.17 1254.25,-1519.17 1248.25,-1513.17 1248.25,-1507.17 1248.25,-1507.17 1248.25,-1067.42 1248.25,-1067.42 1248.25,-1061.42 1254.25,-1055.42 1260.25,-1055.42"/>
<text xml:space="preserve" text-anchor="middle" x="1479.25" y="-1501.87" font-family="Helvetica,sans-Serif" font-size="14.00" fill="#ece1d7">⑤ decode + xact buffer (worker task — gated on shadow apply)</text>
</g>
<g id="clust6" class="cluster">
<title>cluster_ch</title>
<path fill="#34302c" stroke="#4c4641" d="M674.25,-14.38C674.25,-14.38 1141.25,-14.38 1141.25,-14.38 1147.25,-14.38 1153.25,-20.38 1153.25,-26.38 1153.25,-26.38 1153.25,-1012.17 1153.25,-1012.17 1153.25,-1018.17 1147.25,-1024.17 1141.25,-1024.17 1141.25,-1024.17 674.25,-1024.17 674.25,-1024.17 668.25,-1024.17 662.25,-1018.17 662.25,-1012.17 662.25,-1012.17 662.25,-26.38 662.25,-26.38 662.25,-20.38 668.25,-14.38 674.25,-14.38"/>
<text xml:space="preserve" text-anchor="middle" x="907.75" y="-1006.87" font-family="Helvetica,sans-Serif" font-size="14.00" fill="#ece1d7">⑥ CH pipeline tail — decode ×M → batcher → inserter ×N (pipeline/)</text>
</g>
<g id="clust7" class="cluster">
<title>cluster_catalog</title>
<path fill="#34302c" stroke="#4c4641" d="M2247.25,-294.17C2247.25,-294.17 2703.25,-294.17 2703.25,-294.17 2709.25,-294.17 2715.25,-300.17 2715.25,-306.17 2715.25,-306.17 2715.25,-855.42 2715.25,-855.42 2715.25,-861.42 2709.25,-867.42 2703.25,-867.42 2703.25,-867.42 2247.25,-867.42 2247.25,-867.42 2241.25,-867.42 2235.25,-861.42 2235.25,-855.42 2235.25,-855.42 2235.25,-306.17 2235.25,-306.17 2235.25,-300.17 2241.25,-294.17 2247.25,-294.17"/>
<text xml:space="preserve" text-anchor="middle" x="2475.25" y="-850.12" font-family="Helvetica,sans-Serif" font-size="14.00" fill="#ece1d7">⑦ ShadowCatalog cache + SchemaEvent channel</text>
</g>
<g id="clust8" class="cluster">
<title>cluster_ddl</title>
<path fill="#34302c" stroke="#4c4641" d="M2738.25,-8C2738.25,-8 2989.25,-8 2989.25,-8 2995.25,-8 3001.25,-14 3001.25,-20 3001.25,-20 3001.25,-418.05 3001.25,-418.05 3001.25,-424.05 2995.25,-430.05 2989.25,-430.05 2989.25,-430.05 2738.25,-430.05 2738.25,-430.05 2732.25,-430.05 2726.25,-424.05 2726.25,-418.05 2726.25,-418.05 2726.25,-20 2726.25,-20 2726.25,-14 2732.25,-8 2738.25,-8"/>
<text xml:space="preserve" text-anchor="middle" x="2863.75" y="-412.75" font-family="Helvetica,sans-Serif" font-size="14.00" fill="#ece1d7">⑦b DDL applicator (separate CH TCP)</text>
</g>
<g id="clust9" class="cluster">
<title>cluster_walsender</title>
<path fill="#34302c" stroke="#4c4641" d="M1757.25,-317.3C1757.25,-317.3 2011.25,-317.3 2011.25,-317.3 2017.25,-317.3 2023.25,-323.3 2023.25,-329.3 2023.25,-329.3 2023.25,-708.92 2023.25,-708.92 2023.25,-714.92 2017.25,-720.92 2011.25,-720.92 2011.25,-720.92 1757.25,-720.92 1757.25,-720.92 1751.25,-720.92 1745.25,-714.92 1745.25,-708.92 1745.25,-708.92 1745.25,-329.3 1745.25,-329.3 1745.25,-323.3 1751.25,-317.3 1757.25,-317.3"/>
<text xml:space="preserve" text-anchor="middle" x="1884.25" y="-703.62" font-family="Helvetica,sans-Serif" font-size="14.00" fill="#ece1d7">⑧ walsender server &#160;(tokio task)</text>
</g>
<g id="clust10" class="cluster">
<title>cluster_disk</title>
<path fill="#34302c" stroke="#4c4641" d="M1475.25,-905.05C1475.25,-905.05 2101.25,-905.05 2101.25,-905.05 2107.25,-905.05 2113.25,-911.05 2113.25,-917.05 2113.25,-917.05 2113.25,-1005.8 2113.25,-1005.8 2113.25,-1011.8 2107.25,-1017.8 2101.25,-1017.8 2101.25,-1017.8 1475.25,-1017.8 1475.25,-1017.8 1469.25,-1017.8 1463.25,-1011.8 1463.25,-1005.8 1463.25,-1005.8 1463.25,-917.05 1463.25,-917.05 1463.25,-911.05 1469.25,-905.05 1475.25,-905.05"/>
<text xml:space="preserve" text-anchor="middle" x="1788.25" y="-1000.5" font-family="Helvetica,sans-Serif" font-size="14.00" fill="#ece1d7">⑨ on&#45;disk caches</text>
</g>
<!-- src -->
<g id="node1" class="node">
<title>src</title>
<path fill="#3d3d54" stroke="#6e6963" d="M2133.62,-2816.21C2133.62,-2818.02 2119.11,-2819.48 2101.25,-2819.48 2083.38,-2819.48 2068.87,-2818.02 2068.87,-2816.21 2068.87,-2816.21 2068.87,-2786.76 2068.87,-2786.76 2068.87,-2784.95 2083.38,-2783.48 2101.25,-2783.48 2119.11,-2783.48 2133.62,-2784.95 2133.62,-2786.76 2133.62,-2786.76 2133.62,-2816.21 2133.62,-2816.21"/>
<path fill="none" stroke="#6e6963" d="M2133.62,-2816.21C2133.62,-2814.41 2119.11,-2812.94 2101.25,-2812.94 2083.38,-2812.94 2068.87,-2814.41 2068.87,-2816.21"/>
<text xml:space="preserve" text-anchor="middle" x="2101.25" y="-2798.36" font-family="Helvetica,sans-Serif" font-size="10.00" fill="#ece1d7">source PG</text>
</g>
<!-- feed -->
<g id="node4" class="node">
<title>feed</title>
<path fill="#3d3d54" stroke="#6e6963" d="M2171.87,-2695.98C2171.87,-2695.98 2030.62,-2695.98 2030.62,-2695.98 2024.62,-2695.98 2018.62,-2689.98 2018.62,-2683.98 2018.62,-2683.98 2018.62,-2648.98 2018.62,-2648.98 2018.62,-2642.98 2024.62,-2636.98 2030.62,-2636.98 2030.62,-2636.98 2171.87,-2636.98 2171.87,-2636.98 2177.87,-2636.98 2183.87,-2642.98 2183.87,-2648.98 2183.87,-2648.98 2183.87,-2683.98 2183.87,-2683.98 2183.87,-2689.98 2177.87,-2695.98 2171.87,-2695.98"/>
<text xml:space="preserve" text-anchor="middle" x="2101.25" y="-2682.48" font-family="Helvetica,sans-Serif" font-size="10.00" fill="#ece1d7">SourceFeed::pump</text>
<text xml:space="preserve" text-anchor="middle" x="2101.25" y="-2669.73" font-family="Helvetica,sans-Serif" font-size="10.00" fill="#ece1d7">wal&#45;rus ReplicationConn</text>
<text xml:space="preserve" text-anchor="middle" x="2101.25" y="-2656.98" font-family="Helvetica,sans-Serif" font-size="10.00" fill="#ece1d7">IDENTIFY_SYSTEM +</text>
<text xml:space="preserve" text-anchor="middle" x="2101.25" y="-2644.23" font-family="Helvetica,sans-Serif" font-size="10.00" fill="#ece1d7">START_REPLICATION PHYSICAL</text>
</g>
<!-- src&#45;&gt;feed -->
<g id="edge36" class="edge">
<title>src&#45;&gt;feed</title>
<path fill="none" stroke="#a1a9cc" stroke-width="2" d="M2101.25,-2783.1C2101.25,-2764.42 2101.25,-2734.05 2101.25,-2709.13"/>
<polygon fill="#a1a9cc" stroke="#a1a9cc" stroke-width="2" points="2104.75,-2709.34 2101.25,-2699.34 2097.75,-2709.34 2104.75,-2709.34"/>
</g>
<!-- shd -->
<g id="node2" class="node">
<title>shd</title>
<path fill="#3d4128" stroke="#6e6963" d="M2147.62,-71.52C2147.62,-74.71 2116.97,-77.3 2079.25,-77.3 2041.52,-77.3 2010.87,-74.71 2010.87,-71.52 2010.87,-71.52 2010.87,-19.48 2010.87,-19.48 2010.87,-16.29 2041.52,-13.7 2079.25,-13.7 2116.97,-13.7 2147.62,-16.29 2147.62,-19.48 2147.62,-19.48 2147.62,-71.52 2147.62,-71.52"/>
<path fill="none" stroke="#6e6963" d="M2147.62,-71.52C2147.62,-68.33 2116.97,-65.73 2079.25,-65.73 2041.52,-65.73 2010.87,-68.33 2010.87,-71.52"/>
<text xml:space="preserve" text-anchor="middle" x="2079.25" y="-55.12" font-family="Helvetica,sans-Serif" font-size="10.00" fill="#ece1d7">shadow PG</text>
<text xml:space="preserve" text-anchor="middle" x="2079.25" y="-42.38" font-family="Helvetica,sans-Serif" font-size="10.00" fill="#ece1d7">walreceiver + catalog</text>
<text xml:space="preserve" text-anchor="middle" x="2079.25" y="-29.62" font-family="Helvetica,sans-Serif" font-size="10.00" fill="#ece1d7">(pg_last_wal_replay_lsn)</text>
</g>
<!-- stat -->
<g id="node35" class="node">
<title>stat</title>
<path fill="#5d3f40" stroke="#6e6963" d="M2003.37,-662.42C2003.37,-662.42 1913.12,-662.42 1913.12,-662.42 1907.12,-662.42 1901.12,-656.42 1901.12,-650.42 1901.12,-650.42 1901.12,-615.42 1901.12,-615.42 1901.12,-609.42 1907.12,-603.42 1913.12,-603.42 1913.12,-603.42 2003.37,-603.42 2003.37,-603.42 2009.37,-603.42 2015.37,-609.42 2015.37,-615.42 2015.37,-615.42 2015.37,-650.42 2015.37,-650.42 2015.37,-656.42 2009.37,-662.42 2003.37,-662.42"/>
<text xml:space="preserve" text-anchor="middle" x="1958.25" y="-648.92" font-family="Helvetica,sans-Serif" font-size="10.00" fill="#ece1d7">rx &#39;r&#39; standby status</text>
<text xml:space="preserve" text-anchor="middle" x="1958.25" y="-636.17" font-family="Helvetica,sans-Serif" font-size="10.00" fill="#ece1d7">flush_lsn / apply_lsn</text>
<text xml:space="preserve" text-anchor="middle" x="1958.25" y="-623.42" font-family="Helvetica,sans-Serif" font-size="10.00" fill="#ece1d7">(min across conns,</text>
<text xml:space="preserve" text-anchor="middle" x="1958.25" y="-610.67" font-family="Helvetica,sans-Serif" font-size="10.00" fill="#ece1d7"> apply&#45;lag metric)</text>
</g>
<!-- shd&#45;&gt;stat -->
<g id="edge38" class="edge">
<title>shd&#45;&gt;stat</title>
<path fill="none" stroke="#bd8183" stroke-dasharray="5,2" d="M2010.45,-48.84C1734.89,-58.22 722.49,-92.83 654.25,-97.3 528.61,-105.52 174.94,-57.89 90.25,-151.05 -27.78,-280.86 -32.03,-419.98 90.25,-545.8 159.77,-617.34 1788.27,-573.61 1885.25,-597.05 1887.84,-597.67 1890.45,-598.4 1893.06,-599.2"/>
<polygon fill="#bd8183" stroke="#bd8183" points="1891.72,-602.44 1902.31,-602.43 1894.02,-595.83 1891.72,-602.44"/>
</g>
<!-- ch -->
<g id="node3" class="node">
<title>ch</title>
<path fill="#4d4128" stroke="#6e6963" d="M474.62,-60.23C474.62,-62.03 458.77,-63.5 439.25,-63.5 419.73,-63.5 403.87,-62.03 403.87,-60.23 403.87,-60.23 403.87,-30.77 403.87,-30.77 403.87,-28.97 419.73,-27.5 439.25,-27.5 458.77,-27.5 474.62,-28.97 474.62,-30.77 474.62,-30.77 474.62,-60.23 474.62,-60.23"/>
<path fill="none" stroke="#6e6963" d="M474.62,-60.23C474.62,-58.42 458.77,-56.95 439.25,-56.95 419.73,-56.95 403.87,-58.42 403.87,-60.23"/>
<text xml:space="preserve" text-anchor="middle" x="439.25" y="-42.38" font-family="Helvetica,sans-Serif" font-size="10.00" fill="#ece1d7">ClickHouse</text>
</g>
<!-- legend -->
<g id="node40" class="node">
<title>legend</title>
<path fill="#6e6963" stroke="none" d="M378.37,-545.8C378.37,-545.8 118.12,-545.8 118.12,-545.8 112.12,-545.8 106.12,-539.8 106.12,-533.8 106.12,-533.8 106.12,-163.05 106.12,-163.05 106.12,-157.05 112.12,-151.05 118.12,-151.05 118.12,-151.05 378.37,-151.05 378.37,-151.05 384.37,-151.05 390.37,-157.05 390.37,-163.05 390.37,-163.05 390.37,-533.8 390.37,-533.8 390.37,-539.8 384.37,-545.8 378.37,-545.8"/>
<polygon fill="#34302c" stroke="none" points="114.12,-519.05 114.12,-541.8 382.37,-541.8 382.37,-519.05 114.12,-519.05"/>
<polygon fill="none" stroke="#6e6963" points="114.12,-519.05 114.12,-541.8 382.37,-541.8 382.37,-519.05 114.12,-519.05"/>
<text xml:space="preserve" text-anchor="start" x="205.12" y="-528.3" font-family="Helvetica,sans-Serif" font-weight="bold" font-size="10.00" fill="#ece1d7">node fill — role</text>
<polygon fill="#3d3d54" stroke="none" points="114.12,-496.3 114.12,-519.05 142.12,-519.05 142.12,-496.3 114.12,-496.3"/>
<polygon fill="none" stroke="#6e6963" points="114.12,-496.3 114.12,-519.05 142.12,-519.05 142.12,-496.3 114.12,-496.3"/>
<polygon fill="none" stroke="#6e6963" points="142.12,-496.3 142.12,-519.05 382.37,-519.05 382.37,-496.3 142.12,-496.3"/>
<text xml:space="preserve" text-anchor="start" x="215.75" y="-504.3" font-family="Helvetica,sans-Serif" font-size="10.00" fill="#ece1d7">source PG / ingress</text>
<polygon fill="#4d3a28" stroke="none" points="114.12,-473.55 114.12,-496.3 142.12,-496.3 142.12,-473.55 114.12,-473.55"/>
<polygon fill="none" stroke="#6e6963" points="114.12,-473.55 114.12,-496.3 142.12,-496.3 142.12,-473.55 114.12,-473.55"/>
<polygon fill="none" stroke="#6e6963" points="142.12,-473.55 142.12,-496.3 382.37,-496.3 382.37,-473.55 142.12,-473.55"/>
<text xml:space="preserve" text-anchor="start" x="186.12" y="-481.55" font-family="Helvetica,sans-Serif" font-size="10.00" fill="#ece1d7">walshadow filter / queue (sync)</text>
<polygon fill="#4d3340" stroke="none" points="114.12,-450.8 114.12,-473.55 142.12,-473.55 142.12,-450.8 114.12,-450.8"/>
<polygon fill="none" stroke="#6e6963" points="114.12,-450.8 114.12,-473.55 142.12,-473.55 142.12,-450.8 114.12,-450.8"/>
<polygon fill="none" stroke="#6e6963" points="142.12,-450.8 142.12,-473.55 382.37,-473.55 382.37,-450.8 142.12,-450.8"/>
<text xml:space="preserve" text-anchor="start" x="148.62" y="-458.8" font-family="Helvetica,sans-Serif" font-size="10.00" fill="#ece1d7">walshadow output sinks (walsender, segment)</text>
<polygon fill="#4d4128" stroke="none" points="114.12,-428.05 114.12,-450.8 142.12,-450.8 142.12,-428.05 114.12,-428.05"/>
<polygon fill="none" stroke="#6e6963" points="114.12,-428.05 114.12,-450.8 142.12,-450.8 142.12,-428.05 114.12,-428.05"/>
<polygon fill="none" stroke="#6e6963" points="142.12,-428.05 142.12,-450.8 382.37,-450.8 382.37,-428.05 142.12,-428.05"/>
<text xml:space="preserve" text-anchor="start" x="180.5" y="-436.05" font-family="Helvetica,sans-Serif" font-size="10.00" fill="#ece1d7">walshadow decoder + xact buffer</text>
<polygon fill="#4d4d28" stroke="none" points="114.12,-405.3 114.12,-428.05 142.12,-428.05 142.12,-405.3 114.12,-405.3"/>
<polygon fill="none" stroke="#6e6963" points="114.12,-405.3 114.12,-428.05 142.12,-428.05 142.12,-405.3 114.12,-405.3"/>
<polygon fill="none" stroke="#6e6963" points="142.12,-405.3 142.12,-428.05 382.37,-428.05 382.37,-405.3 142.12,-405.3"/>
<text xml:space="preserve" text-anchor="start" x="147.12" y="-413.3" font-family="Helvetica,sans-Serif" font-size="10.00" fill="#ece1d7">walshadow ShadowCatalog + schema&#45;event tx</text>
<polygon fill="#5d3f40" stroke="none" points="114.12,-382.55 114.12,-405.3 142.12,-405.3 142.12,-382.55 114.12,-382.55"/>
<polygon fill="none" stroke="#6e6963" points="114.12,-382.55 114.12,-405.3 142.12,-405.3 142.12,-382.55 114.12,-382.55"/>
<polygon fill="none" stroke="#6e6963" points="142.12,-382.55 142.12,-405.3 382.37,-405.3 382.37,-382.55 142.12,-382.55"/>
<text xml:space="preserve" text-anchor="start" x="191.37" y="-390.55" font-family="Helvetica,sans-Serif" font-size="10.00" fill="#ece1d7">walshadow walsender server</text>
<polygon fill="#5d4628" stroke="none" points="114.12,-359.8 114.12,-382.55 142.12,-382.55 142.12,-359.8 114.12,-359.8"/>
<polygon fill="none" stroke="#6e6963" points="114.12,-359.8 114.12,-382.55 142.12,-382.55 142.12,-359.8 114.12,-359.8"/>
<polygon fill="none" stroke="#6e6963" points="142.12,-359.8 142.12,-382.55 382.37,-382.55 382.37,-359.8 142.12,-359.8"/>
<text xml:space="preserve" text-anchor="start" x="155.75" y="-367.8" font-family="Helvetica,sans-Serif" font-size="10.00" fill="#ece1d7">walshadow CH pipeline tail + DdlApplicator</text>
<polygon fill="#4d3850" stroke="none" points="114.12,-337.05 114.12,-359.8 142.12,-359.8 142.12,-337.05 114.12,-337.05"/>
<polygon fill="none" stroke="#6e6963" points="114.12,-337.05 114.12,-359.8 142.12,-359.8 142.12,-337.05 114.12,-337.05"/>
<polygon fill="none" stroke="#6e6963" points="142.12,-337.05 142.12,-359.8 382.37,-359.8 382.37,-337.05 142.12,-337.05"/>
<text xml:space="preserve" text-anchor="start" x="225.12" y="-345.05" font-family="Helvetica,sans-Serif" font-size="10.00" fill="#ece1d7">on&#45;disk artifact</text>
<polygon fill="#3d4128" stroke="none" points="114.12,-314.3 114.12,-337.05 142.12,-337.05 142.12,-314.3 114.12,-314.3"/>
<polygon fill="none" stroke="#6e6963" points="114.12,-314.3 114.12,-337.05 142.12,-337.05 142.12,-314.3 114.12,-314.3"/>
<polygon fill="none" stroke="#6e6963" points="142.12,-314.3 142.12,-337.05 382.37,-337.05 382.37,-314.3 142.12,-314.3"/>
<text xml:space="preserve" text-anchor="start" x="221" y="-322.3" font-family="Helvetica,sans-Serif" font-size="10.00" fill="#ece1d7">shadow Postgres</text>
<polygon fill="#34302c" stroke="none" points="114.12,-291.55 114.12,-314.3 382.37,-314.3 382.37,-291.55 114.12,-291.55"/>
<polygon fill="none" stroke="#6e6963" points="114.12,-291.55 114.12,-314.3 382.37,-314.3 382.37,-291.55 114.12,-291.55"/>
<text xml:space="preserve" text-anchor="start" x="214.5" y="-300.8" font-family="Helvetica,sans-Serif" font-weight="bold" font-size="10.00" fill="#ece1d7">edge colour</text>
<polygon fill="none" stroke="#6e6963" points="114.12,-268.8 114.12,-291.55 142.12,-291.55 142.12,-268.8 114.12,-268.8"/>
<text xml:space="preserve" text-anchor="start" x="122.12" y="-278.05" font-family="Helvetica,sans-Serif" font-weight="bold" font-size="10.00" fill="#a1a9cc">━━</text>
<polygon fill="none" stroke="#6e6963" points="142.12,-268.8 142.12,-291.55 382.37,-291.55 382.37,-268.8 142.12,-268.8"/>
<text xml:space="preserve" text-anchor="start" x="202.62" y="-276.8" font-family="Helvetica,sans-Serif" font-size="10.00" fill="#ece1d7">source replication frame</text>
<polygon fill="none" stroke="#6e6963" points="114.12,-246.05 114.12,-268.8 142.12,-268.8 142.12,-246.05 114.12,-246.05"/>
<text xml:space="preserve" text-anchor="start" x="122.12" y="-255.3" font-family="Helvetica,sans-Serif" font-weight="bold" font-size="10.00" fill="#bd8183">━━</text>
<polygon fill="none" stroke="#6e6963" points="142.12,-246.05 142.12,-268.8 382.37,-268.8 382.37,-246.05 142.12,-246.05"/>
<text xml:space="preserve" text-anchor="start" x="199.62" y="-254.05" font-family="Helvetica,sans-Serif" font-size="10.00" fill="#ece1d7">walsender wire (hot path)</text>
<polygon fill="none" stroke="#6e6963" points="114.12,-223.3 114.12,-246.05 142.12,-246.05 142.12,-223.3 114.12,-223.3"/>
<text xml:space="preserve" text-anchor="start" x="122.12" y="-232.55" font-family="Helvetica,sans-Serif" font-weight="bold" font-size="10.00" fill="#cba85e">━━</text>
<polygon fill="none" stroke="#6e6963" points="142.12,-223.3 142.12,-246.05 382.37,-246.05 382.37,-223.3 142.12,-223.3"/>
<text xml:space="preserve" text-anchor="start" x="176.37" y="-231.3" font-family="Helvetica,sans-Serif" font-size="10.00" fill="#ece1d7">libpq catalog query / schema event</text>
<polygon fill="none" stroke="#6e6963" points="114.12,-200.55 114.12,-223.3 142.12,-223.3 142.12,-200.55 114.12,-200.55"/>
<text xml:space="preserve" text-anchor="start" x="122.12" y="-209.8" font-family="Helvetica,sans-Serif" font-weight="bold" font-size="10.00" fill="#bf8c5f">━━</text>
<polygon fill="none" stroke="#6e6963" points="142.12,-200.55 142.12,-223.3 382.37,-223.3 382.37,-200.55 142.12,-200.55"/>
<text xml:space="preserve" text-anchor="start" x="192.5" y="-208.55" font-family="Helvetica,sans-Serif" font-size="10.00" fill="#ece1d7">CH Native (rows + DDL SQL)</text>
<polygon fill="none" stroke="#6e6963" points="114.12,-177.8 114.12,-200.55 142.12,-200.55 142.12,-177.8 114.12,-177.8"/>
<text xml:space="preserve" text-anchor="start" x="122.5" y="-187.05" font-family="Helvetica,sans-Serif" font-weight="bold" font-size="10.00" fill="#b380b0">···</text>
<polygon fill="none" stroke="#6e6963" points="142.12,-177.8 142.12,-200.55 382.37,-200.55 382.37,-177.8 142.12,-177.8"/>
<text xml:space="preserve" text-anchor="start" x="222.5" y="-185.8" font-family="Helvetica,sans-Serif" font-size="10.00" fill="#ece1d7">cursor durability</text>
<polygon fill="none" stroke="#6e6963" points="114.12,-155.05 114.12,-177.8 142.12,-177.8 142.12,-155.05 114.12,-155.05"/>
<text xml:space="preserve" text-anchor="start" x="122.12" y="-164.3" font-family="Helvetica,sans-Serif" font-weight="bold" font-size="10.00" fill="#6e6963">┄┄</text>
<polygon fill="none" stroke="#6e6963" points="142.12,-155.05 142.12,-177.8 382.37,-177.8 382.37,-155.05 142.12,-155.05"/>
<text xml:space="preserve" text-anchor="start" x="187.25" y="-163.05" font-family="Helvetica,sans-Serif" font-size="10.00" fill="#ece1d7">filesystem (restore_command)</text>
</g>
<!-- ch&#45;&gt;legend -->
<!-- chunks -->
<g id="node5" class="node">
<title>chunks</title>
<path fill="#3d3d54" stroke="#6e6963" d="M2241.91,-2595.98C2241.91,-2595.98 2023.06,-2595.98 2023.06,-2595.98 2017.06,-2595.98 2007.7,-2591.01 2004.34,-2586.04 2004.34,-2586.04 1955.3,-2513.43 1955.3,-2513.43 1951.94,-2508.46 1954.58,-2503.48 1960.58,-2503.48 1960.58,-2503.48 2179.43,-2503.48 2179.43,-2503.48 2185.43,-2503.48 2194.79,-2508.46 2198.15,-2513.43 2198.15,-2513.43 2247.19,-2586.04 2247.19,-2586.04 2250.55,-2591.01 2247.91,-2595.98 2241.91,-2595.98"/>
<text xml:space="preserve" text-anchor="middle" x="2101.25" y="-2559.36" font-family="Helvetica,sans-Serif" font-size="10.00" fill="#ece1d7">WalChunk stream</text>
<text xml:space="preserve" text-anchor="middle" x="2101.25" y="-2546.61" font-family="Helvetica,sans-Serif" font-size="10.00" fill="#ece1d7">(start_lsn, server_wal_end,</text>
<text xml:space="preserve" text-anchor="middle" x="2101.25" y="-2533.86" font-family="Helvetica,sans-Serif" font-size="10.00" fill="#ece1d7"> bytes)</text>
</g>
<!-- feed&#45;&gt;chunks -->
<g id="edge1" class="edge">
<title>feed&#45;&gt;chunks</title>
<path fill="none" stroke="#c1a78e" d="M2101.25,-2636.53C2101.25,-2627.65 2101.25,-2617.56 2101.25,-2607.5"/>
<polygon fill="#c1a78e" stroke="#c1a78e" points="2104.75,-2607.72 2101.25,-2597.72 2097.75,-2607.72 2104.75,-2607.72"/>
</g>
<!-- walker -->
<g id="node6" class="node">
<title>walker</title>
<path fill="#4d3a28" stroke="#6e6963" d="M2161,-2415.98C2161,-2415.98 2041.5,-2415.98 2041.5,-2415.98 2035.5,-2415.98 2029.5,-2409.98 2029.5,-2403.98 2029.5,-2403.98 2029.5,-2381.73 2029.5,-2381.73 2029.5,-2375.73 2035.5,-2369.73 2041.5,-2369.73 2041.5,-2369.73 2161,-2369.73 2161,-2369.73 2167,-2369.73 2173,-2375.73 2173,-2381.73 2173,-2381.73 2173,-2403.98 2173,-2403.98 2173,-2409.98 2167,-2415.98 2161,-2415.98"/>
<text xml:space="preserve" text-anchor="middle" x="2101.25" y="-2402.48" font-family="Helvetica,sans-Serif" font-size="10.00" fill="#ece1d7">StreamingWalker</text>
<text xml:space="preserve" text-anchor="middle" x="2101.25" y="-2389.73" font-family="Helvetica,sans-Serif" font-size="10.00" fill="#ece1d7">page&#45;state machine</text>
<text xml:space="preserve" text-anchor="middle" x="2101.25" y="-2376.98" font-family="Helvetica,sans-Serif" font-size="10.00" fill="#ece1d7">record stitch across pages</text>
</g>
<!-- chunks&#45;&gt;walker -->
<g id="edge6" class="edge">
<title>chunks&#45;&gt;walker</title>
<path fill="none" stroke="#a1a9cc" stroke-width="2" d="M2101.25,-2503.1C2101.25,-2479.57 2101.25,-2451.29 2101.25,-2429.4"/>
<polygon fill="#a1a9cc" stroke="#a1a9cc" stroke-width="2" points="2104.75,-2429.41 2101.25,-2419.41 2097.75,-2429.41 2104.75,-2429.41"/>
</g>
<!-- decide -->
<g id="node8" class="node">
<title>decide</title>
<path fill="#4d3a28" stroke="#6e6963" d="M2137.37,-2328.73C2137.37,-2328.73 2065.12,-2328.73 2065.12,-2328.73 2059.12,-2328.73 2053.12,-2322.73 2053.12,-2316.73 2053.12,-2316.73 2053.12,-2281.73 2053.12,-2281.73 2053.12,-2275.73 2059.12,-2269.73 2065.12,-2269.73 2065.12,-2269.73 2137.37,-2269.73 2137.37,-2269.73 2143.37,-2269.73 2149.37,-2275.73 2149.37,-2281.73 2149.37,-2281.73 2149.37,-2316.73 2149.37,-2316.73 2149.37,-2322.73 2143.37,-2328.73 2137.37,-2328.73"/>
<text xml:space="preserve" text-anchor="middle" x="2101.25" y="-2315.23" font-family="Helvetica,sans-Serif" font-size="10.00" fill="#ece1d7">Filter::decide</text>
<text xml:space="preserve" text-anchor="middle" x="2101.25" y="-2302.48" font-family="Helvetica,sans-Serif" font-size="10.00" fill="#ece1d7">Keep catalog</text>
<text xml:space="preserve" text-anchor="middle" x="2101.25" y="-2289.73" font-family="Helvetica,sans-Serif" font-size="10.00" fill="#ece1d7">Drop user&#45;heap</text>
<text xml:space="preserve" text-anchor="middle" x="2101.25" y="-2276.98" font-family="Helvetica,sans-Serif" font-size="10.00" fill="#ece1d7">Empty → reclass</text>
</g>
<!-- walker&#45;&gt;decide -->
<g id="edge2" class="edge">
<title>walker&#45;&gt;decide</title>
<path fill="none" stroke="#c1a78e" d="M2101.25,-2369.68C2101.25,-2360.92 2101.25,-2350.58 2101.25,-2340.59"/>
<polygon fill="#c1a78e" stroke="#c1a78e" points="2104.75,-2340.66 2101.25,-2330.66 2097.75,-2340.66 2104.75,-2340.66"/>
</g>
<!-- track -->
<g id="node7" class="node">
<title>track</title>
<path fill="#4d3a28" stroke="#6e6963" d="M2326.87,-2228.73C2326.87,-2228.73 2203.62,-2228.73 2203.62,-2228.73 2197.62,-2228.73 2191.62,-2222.73 2191.62,-2216.73 2191.62,-2216.73 2191.62,-2194.48 2191.62,-2194.48 2191.62,-2188.48 2197.62,-2182.48 2203.62,-2182.48 2203.62,-2182.48 2326.87,-2182.48 2326.87,-2182.48 2332.87,-2182.48 2338.87,-2188.48 2338.87,-2194.48 2338.87,-2194.48 2338.87,-2216.73 2338.87,-2216.73 2338.87,-2222.73 2332.87,-2228.73 2326.87,-2228.73"/>
<text xml:space="preserve" text-anchor="middle" x="2265.25" y="-2215.23" font-family="Helvetica,sans-Serif" font-size="10.00" fill="#ece1d7">CatalogTracker</text>
<text xml:space="preserve" text-anchor="middle" x="2265.25" y="-2202.48" font-family="Helvetica,sans-Serif" font-size="10.00" fill="#ece1d7">relfilenode set</text>
<text xml:space="preserve" text-anchor="middle" x="2265.25" y="-2189.73" font-family="Helvetica,sans-Serif" font-size="10.00" fill="#ece1d7">(relmap + pg_class writes)</text>
</g>
<!-- inval -->
<g id="node29" class="node">
<title>inval</title>
<path fill="#4d4d28" stroke="#6e6963" d="M2355.12,-808.92C2355.12,-808.92 2275.37,-808.92 2275.37,-808.92 2269.37,-808.92 2263.37,-802.92 2263.37,-796.92 2263.37,-796.92 2263.37,-761.92 2263.37,-761.92 2263.37,-755.92 2269.37,-749.92 2275.37,-749.92 2275.37,-749.92 2355.12,-749.92 2355.12,-749.92 2361.12,-749.92 2367.12,-755.92 2367.12,-761.92 2367.12,-761.92 2367.12,-796.92 2367.12,-796.92 2367.12,-802.92 2361.12,-808.92 2355.12,-808.92"/>
<text xml:space="preserve" text-anchor="middle" x="2315.25" y="-795.42" font-family="Helvetica,sans-Serif" font-size="10.00" fill="#ece1d7">invalidation_drain</text>
<text xml:space="preserve" text-anchor="middle" x="2315.25" y="-782.67" font-family="Helvetica,sans-Serif" font-size="10.00" fill="#ece1d7">(tokio task)</text>
<text xml:space="preserve" text-anchor="middle" x="2315.25" y="-769.92" font-family="Helvetica,sans-Serif" font-size="10.00" fill="#ece1d7">bump generation</text>
<text xml:space="preserve" text-anchor="middle" x="2315.25" y="-757.17" font-family="Helvetica,sans-Serif" font-size="10.00" fill="#ece1d7">on catalog write</text>
</g>
<!-- track&#45;&gt;inval -->
<g id="edge31" class="edge">
<title>track&#45;&gt;inval</title>
<path fill="none" stroke="#cba85e" stroke-dasharray="5,2" d="M2275.7,-2182.01C2282.55,-2165.14 2290.25,-2141.33 2290.25,-2119.45 2290.25,-2119.45 2290.25,-2119.45 2290.25,-935.17 2290.25,-895.66 2298.29,-851.2 2305.25,-820.11"/>
<polygon fill="#cba85e" stroke="#cba85e" points="2308.56,-821.29 2307.4,-810.76 2301.74,-819.72 2308.56,-821.29"/>
</g>
<!-- decide&#45;&gt;track -->
<g id="edge5" class="edge">
<title>decide&#45;&gt;track</title>
<path fill="none" stroke="#c1a78e" stroke-dasharray="5,2" d="M2159.35,-2265.77C2177.68,-2255.53 2197.75,-2244.32 2215.45,-2234.43"/>
<polygon fill="#c1a78e" stroke="#c1a78e" points="2150.63,-2270.65 2157.16,-2261.84 2153.93,-2268.8 2159.36,-2265.77 2159.36,-2265.77 2159.36,-2265.77 2153.93,-2268.8 2161.55,-2269.7 2150.63,-2270.65"/>
<polygon fill="#c1a78e" stroke="#c1a78e" points="2216.66,-2237.76 2223.69,-2229.83 2213.25,-2231.65 2216.66,-2237.76"/>
</g>
<!-- rewrite -->
<g id="node9" class="node">
<title>rewrite</title>
<path fill="#4d3a28" stroke="#6e6963" d="M2147.62,-2228.73C2147.62,-2228.73 2040.87,-2228.73 2040.87,-2228.73 2034.87,-2228.73 2028.87,-2222.73 2028.87,-2216.73 2028.87,-2216.73 2028.87,-2194.48 2028.87,-2194.48 2028.87,-2188.48 2034.87,-2182.48 2040.87,-2182.48 2040.87,-2182.48 2147.62,-2182.48 2147.62,-2182.48 2153.62,-2182.48 2159.62,-2188.48 2159.62,-2194.48 2159.62,-2194.48 2159.62,-2216.73 2159.62,-2216.73 2159.62,-2222.73 2153.62,-2228.73 2147.62,-2228.73"/>
<text xml:space="preserve" text-anchor="middle" x="2094.25" y="-2215.23" font-family="Helvetica,sans-Serif" font-size="10.00" fill="#ece1d7">rewrite::noop_replace</text>
<text xml:space="preserve" text-anchor="middle" x="2094.25" y="-2202.48" font-family="Helvetica,sans-Serif" font-size="10.00" fill="#ece1d7">in&#45;place at byte_ranges</text>
<text xml:space="preserve" text-anchor="middle" x="2094.25" y="-2189.73" font-family="Helvetica,sans-Serif" font-size="10.00" fill="#ece1d7">+ CRC32C recompute</text>
</g>
<!-- decide&#45;&gt;rewrite -->
<g id="edge3" class="edge">
<title>decide&#45;&gt;rewrite</title>
<path fill="none" stroke="#c1a78e" d="M2099.03,-2269.24C2098.33,-2260.1 2097.55,-2249.92 2096.83,-2240.47"/>
<polygon fill="#c1a78e" stroke="#c1a78e" points="2100.33,-2240.24 2096.07,-2230.53 2093.35,-2240.77 2100.33,-2240.24"/>
</g>
<!-- segbuf -->
<g id="node10" class="node">
<title>segbuf</title>
<path fill="#4d3a28" stroke="#6e6963" d="M2157.75,-2137.3C2157.75,-2139.61 2129.28,-2141.48 2094.25,-2141.48 2059.21,-2141.48 2030.75,-2139.61 2030.75,-2137.3 2030.75,-2137.3 2030.75,-2099.61 2030.75,-2099.61 2030.75,-2097.3 2059.21,-2095.42 2094.25,-2095.42 2129.28,-2095.42 2157.75,-2097.3 2157.75,-2099.61 2157.75,-2099.61 2157.75,-2137.3 2157.75,-2137.3"/>
<path fill="none" stroke="#6e6963" d="M2157.75,-2137.3C2157.75,-2134.99 2129.28,-2133.11 2094.25,-2133.11 2059.21,-2133.11 2030.75,-2134.99 2030.75,-2137.3"/>
<text xml:space="preserve" text-anchor="middle" x="2094.25" y="-2121.7" font-family="Helvetica,sans-Serif" font-size="10.00" fill="#ece1d7">16 MiB segment buffer</text>
<text xml:space="preserve" text-anchor="middle" x="2094.25" y="-2108.95" font-family="Helvetica,sans-Serif" font-size="10.00" fill="#ece1d7">(rewritten image)</text>
</g>
<!-- rewrite&#45;&gt;segbuf -->
<g id="edge4" class="edge">
<title>rewrite&#45;&gt;segbuf</title>
<path fill="none" stroke="#c1a78e" d="M2094.25,-2182.24C2094.25,-2173.41 2094.25,-2163.07 2094.25,-2153.36"/>
<polygon fill="#c1a78e" stroke="#c1a78e" points="2097.75,-2153.49 2094.25,-2143.49 2090.75,-2153.49 2097.75,-2153.49"/>
</g>
<!-- bytesink -->
<g id="node11" class="node">
<title>bytesink</title>
<path fill="#4d3340" stroke="#6e6963" d="M2229.5,-2001.55C2229.5,-2001.55 2131,-2001.55 2131,-2001.55 2125,-2001.55 2119,-1995.55 2119,-1989.55 2119,-1989.55 2119,-1967.3 2119,-1967.3 2119,-1961.3 2125,-1955.3 2131,-1955.3 2131,-1955.3 2229.5,-1955.3 2229.5,-1955.3 2235.5,-1955.3 2241.5,-1961.3 2241.5,-1967.3 2241.5,-1967.3 2241.5,-1989.55 2241.5,-1989.55 2241.5,-1995.55 2235.5,-2001.55 2229.5,-2001.55"/>
<text xml:space="preserve" text-anchor="middle" x="2180.25" y="-1988.05" font-family="Helvetica,sans-Serif" font-size="10.00" fill="#ece1d7">❶ ShadowStreamSink</text>
<text xml:space="preserve" text-anchor="middle" x="2180.25" y="-1975.3" font-family="Helvetica,sans-Serif" font-size="10.00" fill="#ece1d7">on_record_bytes</text>
<text xml:space="preserve" text-anchor="middle" x="2180.25" y="-1962.55" font-family="Helvetica,sans-Serif" font-size="10.00" fill="#ece1d7">(stays on pump)</text>
</g>
<!-- segbuf&#45;&gt;bytesink -->
<g id="edge7" class="edge">
<title>segbuf&#45;&gt;bytesink</title>
<path fill="none" stroke="#bd8183" stroke-width="2" d="M2108.25,-2094.97C2122.12,-2072.71 2143.52,-2038.36 2159.39,-2012.9"/>
<polygon fill="#bd8183" stroke="#bd8183" stroke-width="2" points="2162.32,-2014.8 2164.64,-2004.47 2156.38,-2011.1 2162.32,-2014.8"/>
</g>
<!-- recsink -->
<g id="node12" class="node">
<title>recsink</title>
<path fill="#4d3340" stroke="#6e6963" d="M1887.5,-2007.92C1887.5,-2007.92 1789,-2007.92 1789,-2007.92 1783,-2007.92 1777,-2001.92 1777,-1995.92 1777,-1995.92 1777,-1960.92 1777,-1960.92 1777,-1954.92 1783,-1948.92 1789,-1948.92 1789,-1948.92 1887.5,-1948.92 1887.5,-1948.92 1893.5,-1948.92 1899.5,-1954.92 1899.5,-1960.92 1899.5,-1960.92 1899.5,-1995.92 1899.5,-1995.92 1899.5,-2001.92 1893.5,-2007.92 1887.5,-2007.92"/>
<text xml:space="preserve" text-anchor="middle" x="1838.25" y="-1994.42" font-family="Helvetica,sans-Serif" font-size="10.00" fill="#ece1d7">❷ on_record →</text>
<text xml:space="preserve" text-anchor="middle" x="1838.25" y="-1981.67" font-family="Helvetica,sans-Serif" font-size="10.00" fill="#ece1d7">QueueingRecordSink</text>
<text xml:space="preserve" text-anchor="middle" x="1838.25" y="-1968.92" font-family="Helvetica,sans-Serif" font-size="10.00" fill="#ece1d7">(clones + enqueues,</text>
<text xml:space="preserve" text-anchor="middle" x="1838.25" y="-1956.17" font-family="Helvetica,sans-Serif" font-size="10.00" fill="#ece1d7"> returns immediately)</text>
</g>
<!-- segbuf&#45;&gt;recsink -->
<g id="edge8" class="edge">
<title>segbuf&#45;&gt;recsink</title>
<path fill="none" stroke="#c1a78e" d="M2030.44,-2101.28C2002.96,-2092.93 1971.05,-2081.33 1944.25,-2066.42 1919.53,-2052.67 1894.92,-2032.95 1875.65,-2015.76"/>
<polygon fill="#c1a78e" stroke="#c1a78e" points="1878.06,-2013.22 1868.31,-2009.08 1873.35,-2018.4 1878.06,-2013.22"/>
</g>
<!-- segsink -->
<g id="node13" class="node">
<title>segsink</title>
<path fill="#4d3340" stroke="#6e6963" d="M2066.62,-2001.55C2066.62,-2001.55 1971.87,-2001.55 1971.87,-2001.55 1965.87,-2001.55 1959.87,-1995.55 1959.87,-1989.55 1959.87,-1989.55 1959.87,-1967.3 1959.87,-1967.3 1959.87,-1961.3 1965.87,-1955.3 1971.87,-1955.3 1971.87,-1955.3 2066.62,-1955.3 2066.62,-1955.3 2072.62,-1955.3 2078.62,-1961.3 2078.62,-1967.3 2078.62,-1967.3 2078.62,-1989.55 2078.62,-1989.55 2078.62,-1995.55 2072.62,-2001.55 2066.62,-2001.55"/>
<text xml:space="preserve" text-anchor="middle" x="2019.25" y="-1988.05" font-family="Helvetica,sans-Serif" font-size="10.00" fill="#ece1d7">❸ DirSegmentSink</text>
<text xml:space="preserve" text-anchor="middle" x="2019.25" y="-1975.3" font-family="Helvetica,sans-Serif" font-size="10.00" fill="#ece1d7">on_segment</text>
<text xml:space="preserve" text-anchor="middle" x="2019.25" y="-1962.55" font-family="Helvetica,sans-Serif" font-size="10.00" fill="#ece1d7">(at 16 MiB boundary)</text>
</g>
<!-- segbuf&#45;&gt;segsink -->
<g id="edge9" class="edge">
<title>segbuf&#45;&gt;segsink</title>
<path fill="none" stroke="#c1a78e" stroke-dasharray="5,2" d="M2082.03,-2094.97C2069.77,-2072.41 2050.77,-2037.43 2036.88,-2011.87"/>
<polygon fill="#c1a78e" stroke="#c1a78e" points="2040.03,-2010.34 2032.18,-2003.23 2033.88,-2013.68 2040.03,-2010.34"/>
</g>
<!-- sendq -->
<g id="node34" class="node">
<title>sendq</title>
<path fill="#5d3f40" stroke="#6e6963" d="M2002.75,-371.55C2002.75,-371.55 1899.75,-371.55 1899.75,-371.55 1893.75,-371.55 1887.75,-365.55 1887.75,-359.55 1887.75,-359.55 1887.75,-337.3 1887.75,-337.3 1887.75,-331.3 1893.75,-325.3 1899.75,-325.3 1899.75,-325.3 2002.75,-325.3 2002.75,-325.3 2008.75,-325.3 2014.75,-331.3 2014.75,-337.3 2014.75,-337.3 2014.75,-359.55 2014.75,-359.55 2014.75,-365.55 2008.75,-371.55 2002.75,-371.55"/>
<text xml:space="preserve" text-anchor="middle" x="1951.25" y="-358.05" font-family="Helvetica,sans-Serif" font-size="10.00" fill="#ece1d7">per&#45;conn send queue</text>
<text xml:space="preserve" text-anchor="middle" x="1951.25" y="-345.3" font-family="Helvetica,sans-Serif" font-size="10.00" fill="#ece1d7">&#39;w&#39; XLogData @ record</text>
<text xml:space="preserve" text-anchor="middle" x="1951.25" y="-332.55" font-family="Helvetica,sans-Serif" font-size="10.00" fill="#ece1d7">&#39;k&#39; keepalive on idle</text>
</g>
<!-- bytesink&#45;&gt;sendq -->
<g id="edge34" class="edge">
<title>bytesink&#45;&gt;sendq</title>
<path fill="none" stroke="#bd8183" stroke-width="2" d="M2187.13,-1954.97C2195.99,-1924.04 2210.25,-1866.43 2210.25,-1816.17 2210.25,-1816.17 2210.25,-1816.17 2210.25,-728.92 2210.25,-575.6 2064.24,-438.58 1991.48,-379.81"/>
<polygon fill="#bd8183" stroke="#bd8183" stroke-width="2" points="1994.09,-377.42 1984.09,-373.93 1989.73,-382.89 1994.09,-377.42"/>
</g>
<!-- qbuf -->
<g id="node14" class="node">
<title>qbuf</title>
<path fill="#4d3a28" stroke="#6e6963" d="M1220.02,-1861.42C1220.02,-1861.42 1029.62,-1861.42 1029.62,-1861.42 1023.62,-1861.42 1014.55,-1856.27 1011.48,-1851.12 1011.48,-1851.12 968.61,-1779.23 968.61,-1779.23 965.54,-1774.08 968.47,-1768.92 974.47,-1768.92 974.47,-1768.92 1164.87,-1768.92 1164.87,-1768.92 1170.87,-1768.92 1179.94,-1774.08 1183.01,-1779.23 1183.01,-1779.23 1225.88,-1851.12 1225.88,-1851.12 1228.95,-1856.27 1226.02,-1861.42 1220.02,-1861.42"/>
<text xml:space="preserve" text-anchor="middle" x="1097.25" y="-1824.8" font-family="Helvetica,sans-Serif" font-size="10.00" fill="#ece1d7">pump&#45;side batch</text>
<text xml:space="preserve" text-anchor="middle" x="1097.25" y="-1812.05" font-family="Helvetica,sans-Serif" font-size="10.00" fill="#ece1d7">Vec&lt;Record&lt;&#39;static&gt;&gt;</text>
<text xml:space="preserve" text-anchor="middle" x="1097.25" y="-1799.3" font-family="Helvetica,sans-Serif" font-size="10.00" fill="#ece1d7">batch_size = 64</text>
</g>
<!-- recsink&#45;&gt;qbuf -->
<g id="edge13" class="edge">
<title>recsink&#45;&gt;qbuf</title>
<path fill="none" stroke="#c1a78e" d="M1776.66,-1964.02C1662.29,-1939.13 1413.96,-1885.09 1251.32,-1849.7"/>
<polygon fill="#c1a78e" stroke="#c1a78e" points="1252.24,-1846.32 1241.72,-1847.61 1250.75,-1853.16 1252.24,-1846.32"/>
</g>
<!-- outdir -->
<g id="node36" class="node">
<title>outdir</title>
<polygon fill="#4d3850" stroke="#6e6963" points="2099.25,-959.3 2011.25,-959.3 2011.25,-913.05 2105.25,-913.05 2105.25,-953.3 2099.25,-959.3"/>
<polyline fill="none" stroke="#6e6963" points="2099.25,-959.3 2099.25,-953.3"/>
<polyline fill="none" stroke="#6e6963" points="2105.25,-953.3 2099.25,-953.3"/>
<text xml:space="preserve" text-anchor="middle" x="2058.25" y="-945.8" font-family="Helvetica,sans-Serif" font-size="10.00" fill="#ece1d7">out/&lt;seg&gt;</text>
<text xml:space="preserve" text-anchor="middle" x="2058.25" y="-933.05" font-family="Helvetica,sans-Serif" font-size="10.00" fill="#ece1d7">16 MiB filtered</text>
<text xml:space="preserve" text-anchor="middle" x="2058.25" y="-920.3" font-family="Helvetica,sans-Serif" font-size="10.00" fill="#ece1d7">+ manifest.json</text>
</g>
<!-- segsink&#45;&gt;outdir -->
<g id="edge40" class="edge">
<title>segsink&#45;&gt;outdir</title>
<path fill="none" stroke="#c1a78e" d="M2017.66,-1955C2015.59,-1923.87 2012.25,-1865.77 2012.25,-1816.17 2012.25,-1816.17 2012.25,-1816.17 2012.25,-1098.3 2012.25,-1052.5 2029.64,-1002.09 2043.04,-970.07"/>
<polygon fill="#c1a78e" stroke="#c1a78e" points="2046.23,-971.5 2046.98,-960.93 2039.8,-968.73 2046.23,-971.5"/>
</g>
<!-- qchan -->
<g id="node15" class="node">
<title>qchan</title>
<path fill="#4d3a28" stroke="#6e6963" d="M1218.58,-1727.92C1218.58,-1727.92 1036.84,-1727.92 1036.84,-1727.92 1030.84,-1727.92 1021.86,-1722.71 1018.88,-1717.51 1018.88,-1717.51 977.87,-1645.84 977.87,-1645.84 974.89,-1640.63 977.91,-1635.42 983.91,-1635.42 983.91,-1635.42 1165.65,-1635.42 1165.65,-1635.42 1171.65,-1635.42 1180.63,-1640.63 1183.61,-1645.84 1183.61,-1645.84 1224.62,-1717.51 1224.62,-1717.51 1227.6,-1722.71 1224.58,-1727.92 1218.58,-1727.92"/>
<text xml:space="preserve" text-anchor="middle" x="1101.25" y="-1691.3" font-family="Helvetica,sans-Serif" font-size="10.00" fill="#ece1d7">unbounded mpsc</text>
<text xml:space="preserve" text-anchor="middle" x="1101.25" y="-1678.55" font-family="Helvetica,sans-Serif" font-size="10.00" fill="#ece1d7">Vec&lt;Record&gt; batches</text>
<text xml:space="preserve" text-anchor="middle" x="1101.25" y="-1665.8" font-family="Helvetica,sans-Serif" font-size="10.00" fill="#ece1d7">soft cap → yield_now</text>
</g>
<!-- qbuf&#45;&gt;qchan -->
<g id="edge10" class="edge">
<title>qbuf&#45;&gt;qchan</title>
<path fill="none" stroke="#c1a78e" d="M1098.63,-1768.55C1098.92,-1759.16 1099.22,-1749.18 1099.52,-1739.45"/>
<polygon fill="#c1a78e" stroke="#c1a78e" points="1103.01,-1739.83 1099.81,-1729.73 1096.01,-1739.62 1103.01,-1739.83"/>
</g>
<!-- qwrk -->
<g id="node16" class="node">
<title>qwrk</title>
<path fill="#4d3a28" stroke="#6e6963" d="M1188,-1594.42C1188,-1594.42 1110.5,-1594.42 1110.5,-1594.42 1104.5,-1594.42 1098.5,-1588.42 1098.5,-1582.42 1098.5,-1582.42 1098.5,-1560.17 1098.5,-1560.17 1098.5,-1554.17 1104.5,-1548.17 1110.5,-1548.17 1110.5,-1548.17 1188,-1548.17 1188,-1548.17 1194,-1548.17 1200,-1554.17 1200,-1560.17 1200,-1560.17 1200,-1582.42 1200,-1582.42 1200,-1588.42 1194,-1594.42 1188,-1594.42"/>
<text xml:space="preserve" text-anchor="middle" x="1149.25" y="-1580.92" font-family="Helvetica,sans-Serif" font-size="10.00" fill="#ece1d7">worker task</text>
<text xml:space="preserve" text-anchor="middle" x="1149.25" y="-1568.17" font-family="Helvetica,sans-Serif" font-size="10.00" fill="#ece1d7">drains batches,</text>
<text xml:space="preserve" text-anchor="middle" x="1149.25" y="-1555.42" font-family="Helvetica,sans-Serif" font-size="10.00" fill="#ece1d7">fires on_idle ticks</text>
</g>
<!-- qchan&#45;&gt;qwrk -->
<g id="edge11" class="edge">
<title>qchan&#45;&gt;qwrk</title>
<path fill="none" stroke="#c1a78e" d="M1121.46,-1635.03C1125.88,-1625.05 1130.48,-1614.67 1134.63,-1605.3"/>
<polygon fill="#c1a78e" stroke="#c1a78e" points="1137.8,-1606.79 1138.65,-1596.23 1131.4,-1603.95 1137.8,-1606.79"/>
</g>
<!-- qerr -->
<g id="node17" class="node">
<title>qerr</title>
<polygon fill="#4d3a28" stroke="#6e6963" points="1206.75,-1455.55 1085.75,-1455.55 1085.75,-1419.55 1212.75,-1419.55 1212.75,-1449.55 1206.75,-1455.55"/>
<polyline fill="none" stroke="#6e6963" points="1206.75,-1455.55 1206.75,-1449.55"/>
<polyline fill="none" stroke="#6e6963" points="1212.75,-1449.55 1206.75,-1449.55"/>
<text xml:space="preserve" text-anchor="middle" x="1149.25" y="-1440.8" font-family="Helvetica,sans-Serif" font-size="10.00" fill="#ece1d7">shared err slot</text>
<text xml:space="preserve" text-anchor="middle" x="1149.25" y="-1428.05" font-family="Helvetica,sans-Serif" font-size="10.00" fill="#ece1d7">surfaces back to pump</text>
</g>
<!-- qwrk&#45;&gt;qerr -->
<g id="edge12" class="edge">
<title>qwrk&#45;&gt;qerr</title>
<path fill="none" stroke="#b58b86" stroke-dasharray="5,2" d="M1149.25,-1547.95C1149.25,-1525.71 1149.25,-1491.51 1149.25,-1467.27"/>
<polygon fill="#b58b86" stroke="#b58b86" points="1152.75,-1467.46 1149.25,-1457.46 1145.75,-1467.46 1152.75,-1467.46"/>
</g>
<!-- catgate -->
<g id="node18" class="node">
<title>catgate</title>
<path fill="#4d4128" stroke="#6e6963" d="M1376.5,-1460.67C1376.5,-1460.67 1272,-1460.67 1272,-1460.67 1266,-1460.67 1260,-1454.67 1260,-1448.67 1260,-1448.67 1260,-1426.42 1260,-1426.42 1260,-1420.42 1266,-1414.42 1272,-1414.42 1272,-1414.42 1376.5,-1414.42 1376.5,-1414.42 1382.5,-1414.42 1388.5,-1420.42 1388.5,-1426.42 1388.5,-1426.42 1388.5,-1448.67 1388.5,-1448.67 1388.5,-1454.67 1382.5,-1460.67 1376.5,-1460.67"/>
<text xml:space="preserve" text-anchor="middle" x="1324.25" y="-1447.17" font-family="Helvetica,sans-Serif" font-size="10.00" fill="#ece1d7">BufferingDecoderSink</text>
<text xml:space="preserve" text-anchor="middle" x="1324.25" y="-1434.42" font-family="Helvetica,sans-Serif" font-size="10.00" fill="#ece1d7">relation_at(rfn, lsn)</text>
<text xml:space="preserve" text-anchor="middle" x="1324.25" y="-1421.67" font-family="Helvetica,sans-Serif" font-size="10.00" fill="#ece1d7">wait_for_replay(at_lsn)</text>
</g>
<!-- qwrk&#45;&gt;catgate -->
<g id="edge17" class="edge">
<title>qwrk&#45;&gt;catgate</title>
<path fill="none" stroke="#c1a78e" d="M1200.3,-1548.06C1213.08,-1541.65 1226.67,-1534.1 1239.05,-1525.73"/>
<polygon fill="#c1a78e" stroke="#c1a78e" points="1240.9,-1528.7 1247.01,-1520.05 1236.84,-1523 1240.9,-1528.7"/>
</g>
<!-- decoder -->
<g id="node19" class="node">
<title>decoder</title>
<path fill="#4d4128" stroke="#6e6963" d="M1410.5,-1373.42C1410.5,-1373.42 1288,-1373.42 1288,-1373.42 1282,-1373.42 1276,-1367.42 1276,-1361.42 1276,-1361.42 1276,-1300.92 1276,-1300.92 1276,-1294.92 1282,-1288.92 1288,-1288.92 1288,-1288.92 1410.5,-1288.92 1410.5,-1288.92 1416.5,-1288.92 1422.5,-1294.92 1422.5,-1300.92 1422.5,-1300.92 1422.5,-1361.42 1422.5,-1361.42 1422.5,-1367.42 1416.5,-1373.42 1410.5,-1373.42"/>
<text xml:space="preserve" text-anchor="middle" x="1349.25" y="-1359.92" font-family="Helvetica,sans-Serif" font-size="10.00" fill="#ece1d7">heap_decoder</text>
<text xml:space="preserve" text-anchor="middle" x="1349.25" y="-1347.17" font-family="Helvetica,sans-Serif" font-size="10.00" fill="#ece1d7">INSERT / DELETE /</text>
<text xml:space="preserve" text-anchor="middle" x="1349.25" y="-1334.42" font-family="Helvetica,sans-Serif" font-size="10.00" fill="#ece1d7">UPDATE / HOT / TRUNCATE</text>
<text xml:space="preserve" text-anchor="middle" x="1349.25" y="-1321.67" font-family="Helvetica,sans-Serif" font-size="10.00" fill="#ece1d7">Tier&#45;1 fixed&#45;width</text>
<text xml:space="preserve" text-anchor="middle" x="1349.25" y="-1308.92" font-family="Helvetica,sans-Serif" font-size="10.00" fill="#ece1d7">Tier&#45;2 length&#45;prefixed</text>
<text xml:space="preserve" text-anchor="middle" x="1349.25" y="-1296.17" font-family="Helvetica,sans-Serif" font-size="10.00" fill="#ece1d7">Replica&#45;identity matrix</text>
</g>
<!-- catgate&#45;&gt;decoder -->
<g id="edge14" class="edge">
<title>catgate&#45;&gt;decoder</title>
<path fill="none" stroke="#c1a78e" d="M1329.61,-1414.16C1331.67,-1405.53 1334.13,-1395.28 1336.59,-1384.99"/>
<polygon fill="#c1a78e" stroke="#c1a78e" points="1339.97,-1385.91 1338.9,-1375.37 1333.17,-1384.28 1339.97,-1385.91"/>
</g>
<!-- lru -->
<g id="node27" class="node">
<title>lru</title>
<path fill="#4d4d28" stroke="#6e6963" d="M2367,-656.05C2367,-656.05 2271.5,-656.05 2271.5,-656.05 2265.5,-656.05 2259.5,-650.05 2259.5,-644.05 2259.5,-644.05 2259.5,-621.8 2259.5,-621.8 2259.5,-615.8 2265.5,-609.8 2271.5,-609.8 2271.5,-609.8 2367,-609.8 2367,-609.8 2373,-609.8 2379,-615.8 2379,-621.8 2379,-621.8 2379,-644.05 2379,-644.05 2379,-650.05 2373,-656.05 2367,-656.05"/>
<text xml:space="preserve" text-anchor="middle" x="2319.25" y="-642.55" font-family="Helvetica,sans-Serif" font-size="10.00" fill="#ece1d7">LRU 4096</text>
<text xml:space="preserve" text-anchor="middle" x="2319.25" y="-629.8" font-family="Helvetica,sans-Serif" font-size="10.00" fill="#ece1d7">by_filenode / by_oid</text>
<text xml:space="preserve" text-anchor="middle" x="2319.25" y="-617.05" font-family="Helvetica,sans-Serif" font-size="10.00" fill="#ece1d7">+ generation counter</text>
</g>
<!-- catgate&#45;&gt;lru -->
<g id="edge30" class="edge">
<title>catgate&#45;&gt;lru</title>
<path fill="none" stroke="#cba85e" stroke-dasharray="5,2" d="M1384.84,-1414.07C1404.29,-1404.22 1424.37,-1390.86 1438.25,-1373.42 1527.81,-1260.89 1597.71,-1159.31 1498.25,-1055.42 1477.02,-1033.25 1250.86,-1054.53 1222.25,-1043.42 1158.9,-1018.84 1212.11,-945.13 1157.25,-905.05 1102.49,-865.04 594.47,-935.34 547.25,-886.67 543.76,-883.08 545.52,-880.11 547.25,-875.42 572.59,-806.64 587.99,-781.27 654.25,-749.92 730.34,-713.92 2088.17,-743.57 2169.25,-720.92 2210.67,-709.35 2252.57,-683.61 2281.51,-663.11"/>
<polygon fill="#cba85e" stroke="#cba85e" points="2283.54,-665.96 2289.59,-657.27 2279.43,-660.29 2283.54,-665.96"/>
<text xml:space="preserve" text-anchor="middle" x="1558.85" y="-1096.37" font-family="Helvetica,sans-Serif" font-size="9.00" fill="#ece1d7">lookup</text>
</g>
<!-- xactbuf -->
<g id="node20" class="node">
<title>xactbuf</title>
<path fill="#4d4128" stroke="#6e6963" d="M1446.25,-1247.92C1446.25,-1247.92 1292.25,-1247.92 1292.25,-1247.92 1286.25,-1247.92 1280.25,-1241.92 1280.25,-1235.92 1280.25,-1235.92 1280.25,-1188.17 1280.25,-1188.17 1280.25,-1182.17 1286.25,-1176.17 1292.25,-1176.17 1292.25,-1176.17 1446.25,-1176.17 1446.25,-1176.17 1452.25,-1176.17 1458.25,-1182.17 1458.25,-1188.17 1458.25,-1188.17 1458.25,-1235.92 1458.25,-1235.92 1458.25,-1241.92 1452.25,-1247.92 1446.25,-1247.92"/>
<text xml:space="preserve" text-anchor="middle" x="1369.25" y="-1234.42" font-family="Helvetica,sans-Serif" font-size="10.00" fill="#ece1d7">XactBuffer + spill v4</text>
<text xml:space="preserve" text-anchor="middle" x="1369.25" y="-1221.67" font-family="Helvetica,sans-Serif" font-size="10.00" fill="#ece1d7">Heap / Chunk / ToastDelete / Raw</text>
<text xml:space="preserve" text-anchor="middle" x="1369.25" y="-1208.92" font-family="Helvetica,sans-Serif" font-size="10.00" fill="#ece1d7">SMGR markers + commit stash</text>
<text xml:space="preserve" text-anchor="middle" x="1369.25" y="-1196.17" font-family="Helvetica,sans-Serif" font-size="10.00" fill="#ece1d7">SubxactTracker</text>
<text xml:space="preserve" text-anchor="middle" x="1369.25" y="-1183.42" font-family="Helvetica,sans-Serif" font-size="10.00" fill="#ece1d7">budget = work_mem</text>
</g>
<!-- decoder&#45;&gt;xactbuf -->
<g id="edge15" class="edge">
<title>decoder&#45;&gt;xactbuf</title>
<path fill="none" stroke="#c1a78e" d="M1356.35,-1288.55C1357.95,-1279.2 1359.65,-1269.22 1361.28,-1259.68"/>
<polygon fill="#c1a78e" stroke="#c1a78e" points="1364.73,-1260.28 1362.96,-1249.83 1357.83,-1259.1 1364.73,-1260.28"/>
</g>
<!-- drain -->
<g id="node21" class="node">
<title>drain</title>
<path fill="#4d4128" stroke="#6e6963" d="M1469.87,-1135.17C1469.87,-1135.17 1268.62,-1135.17 1268.62,-1135.17 1262.62,-1135.17 1256.62,-1129.17 1256.62,-1123.17 1256.62,-1123.17 1256.62,-1075.42 1256.62,-1075.42 1256.62,-1069.42 1262.62,-1063.42 1268.62,-1063.42 1268.62,-1063.42 1469.87,-1063.42 1469.87,-1063.42 1475.87,-1063.42 1481.87,-1069.42 1481.87,-1075.42 1481.87,-1075.42 1481.87,-1123.17 1481.87,-1123.17 1481.87,-1129.17 1475.87,-1135.17 1469.87,-1135.17"/>
<text xml:space="preserve" text-anchor="middle" x="1369.25" y="-1121.67" font-family="Helvetica,sans-Serif" font-size="10.00" fill="#ece1d7">ReorderSink (pipeline/reorder.rs)</text>
<text xml:space="preserve" text-anchor="middle" x="1369.25" y="-1108.92" font-family="Helvetica,sans-Serif" font-size="10.00" fill="#ece1d7">CommittedDrain → DrainedBatch slices</text>
<text xml:space="preserve" text-anchor="middle" x="1369.25" y="-1096.17" font-family="Helvetica,sans-Serif" font-size="10.00" fill="#ece1d7">new_rows + row/event cursors</text>
<text xml:space="preserve" text-anchor="middle" x="1369.25" y="-1083.42" font-family="Helvetica,sans-Serif" font-size="10.00" fill="#ece1d7">Catalog / Config / ToastBarrier / TRUNCATE:</text>
<text xml:space="preserve" text-anchor="middle" x="1369.25" y="-1070.67" font-family="Helvetica,sans-Serif" font-size="10.00" fill="#ece1d7">placed → FlushAll → durable → apply</text>
</g>
<!-- xactbuf&#45;&gt;drain -->
<g id="edge16" class="edge">
<title>xactbuf&#45;&gt;drain</title>
<path fill="none" stroke="#c1a78e" d="M1369.25,-1175.7C1369.25,-1166.42 1369.25,-1156.27 1369.25,-1146.51"/>
<polygon fill="#c1a78e" stroke="#c1a78e" points="1372.75,-1146.82 1369.25,-1136.82 1365.75,-1146.82 1372.75,-1146.82"/>
</g>
<!-- spill -->
<g id="node37" class="node">
<title>spill</title>
<polygon fill="#4d3850" stroke="#6e6963" points="1815.25,-959.3 1667.25,-959.3 1667.25,-913.05 1821.25,-913.05 1821.25,-953.3 1815.25,-959.3"/>
<polyline fill="none" stroke="#6e6963" points="1815.25,-959.3 1815.25,-953.3"/>
<polyline fill="none" stroke="#6e6963" points="1821.25,-953.3 1815.25,-953.3"/>
<text xml:space="preserve" text-anchor="middle" x="1744.25" y="-945.8" font-family="Helvetica,sans-Serif" font-size="10.00" fill="#ece1d7">{spill}/xid&#45;&lt;xid&gt;&#45;&lt;lsn&gt;.bin</text>
<text xml:space="preserve" text-anchor="middle" x="1744.25" y="-933.05" font-family="Helvetica,sans-Serif" font-size="10.00" fill="#ece1d7">append&#45;only</text>
<text xml:space="preserve" text-anchor="middle" x="1744.25" y="-920.3" font-family="Helvetica,sans-Serif" font-size="10.00" fill="#ece1d7">[tag u8 | len u32 | body]</text>
</g>
<!-- xactbuf&#45;&gt;spill -->
<g id="edge42" class="edge">
<title>xactbuf&#45;&gt;spill</title>
<path fill="none" stroke="#c1a78e" stroke-dasharray="5,2" d="M1458.62,-1206.66C1562.74,-1199.47 1725.38,-1181.03 1763.25,-1135.17 1801.68,-1088.63 1778.77,-1013.34 1760.37,-970.26"/>
<polygon fill="#c1a78e" stroke="#c1a78e" points="1763.59,-968.88 1756.33,-961.16 1757.19,-971.72 1763.59,-968.88"/>
<text xml:space="preserve" text-anchor="middle" x="1823.13" y="-1096.37" font-family="Helvetica,sans-Serif" font-size="9.00" fill="#ece1d7">evict largest xact</text>
</g>
<!-- cdecode -->
<g id="node22" class="node">
<title>cdecode</title>
<path fill="#5d4628" stroke="#6e6963" d="M1130.62,-808.92C1130.62,-808.92 939.87,-808.92 939.87,-808.92 933.87,-808.92 927.87,-802.92 927.87,-796.92 927.87,-796.92 927.87,-761.92 927.87,-761.92 927.87,-755.92 933.87,-749.92 939.87,-749.92 939.87,-749.92 1130.62,-749.92 1130.62,-749.92 1136.62,-749.92 1142.62,-755.92 1142.62,-761.92 1142.62,-761.92 1142.62,-796.92 1142.62,-796.92 1142.62,-802.92 1136.62,-808.92 1130.62,-808.92"/>
<text xml:space="preserve" text-anchor="middle" x="1035.25" y="-795.42" font-family="Helvetica,sans-Serif" font-size="10.00" fill="#ece1d7">decode pool ×M</text>
<text xml:space="preserve" text-anchor="middle" x="1035.25" y="-782.67" font-family="Helvetica,sans-Serif" font-size="10.00" fill="#ece1d7">detoast via ChunkMap / store as&#45;of fetch</text>
<text xml:space="preserve" text-anchor="middle" x="1035.25" y="-769.92" font-family="Helvetica,sans-Serif" font-size="10.00" fill="#ece1d7">resolve_at_pooled + mapping + oracle</text>
<text xml:space="preserve" text-anchor="middle" x="1035.25" y="-757.17" font-family="Helvetica,sans-Serif" font-size="10.00" fill="#ece1d7">chunk 1024 rows / 4 MiB</text>
</g>
<!-- drain&#45;&gt;cdecode -->
<g id="edge21" class="edge">
<title>drain&#45;&gt;cdecode</title>
<path fill="none" stroke="#bf8c5f" stroke-width="2" d="M1353.21,-1063.13C1347.63,-1052.65 1340.84,-1041.49 1333.25,-1032.17 1260.73,-943.22 1153.66,-861.73 1089.54,-816.79"/>
<polygon fill="#bf8c5f" stroke="#bf8c5f" stroke-width="2" points="1091.55,-813.93 1081.34,-811.09 1087.55,-819.68 1091.55,-813.93"/>
<text xml:space="preserve" text-anchor="middle" x="1349.83" y="-933.25" font-family="Helvetica,sans-Serif" font-size="9.00" fill="#ece1d7">DecodeJob</text>
</g>
<!-- toastio -->
<g id="node26" class="node">
<title>toastio</title>
<path fill="#5d4628" stroke="#6e6963" d="M1116.87,-965.67C1116.87,-965.67 939.62,-965.67 939.62,-965.67 933.62,-965.67 927.62,-959.67 927.62,-953.67 927.62,-953.67 927.62,-918.67 927.62,-918.67 927.62,-912.67 933.62,-906.67 939.62,-906.67 939.62,-906.67 1116.87,-906.67 1116.87,-906.67 1122.87,-906.67 1128.87,-912.67 1128.87,-918.67 1128.87,-918.67 1128.87,-953.67 1128.87,-953.67 1128.87,-959.67 1122.87,-965.67 1116.87,-965.67"/>
<text xml:space="preserve" text-anchor="middle" x="1028.25" y="-952.17" font-family="Helvetica,sans-Serif" font-size="10.00" fill="#ece1d7">ToastResolver / CH mirrors</text>
<text xml:space="preserve" text-anchor="middle" x="1028.25" y="-939.42" font-family="Helvetica,sans-Serif" font-size="10.00" fill="#ece1d7">put births+tombstones before publish</text>
<text xml:space="preserve" text-anchor="middle" x="1028.25" y="-926.67" font-family="Helvetica,sans-Serif" font-size="10.00" fill="#ece1d7">fetch pre&#45;window values</text>
<text xml:space="preserve" text-anchor="middle" x="1028.25" y="-913.92" font-family="Helvetica,sans-Serif" font-size="10.00" fill="#ece1d7">truncate / retire / rewrite O−B</text>
</g>
<!-- drain&#45;&gt;toastio -->
<g id="edge22" class="edge">
<title>drain&#45;&gt;toastio</title>
<path fill="none" stroke="#bf8c5f" stroke-dasharray="5,2" d="M1256.33,-1090.27C1181.01,-1082.7 1090.72,-1068.61 1062,-1043.42 1043.16,-1026.9 1034.74,-999.93 1031.03,-977.29"/>
<polygon fill="#bf8c5f" stroke="#bf8c5f" points="1034.5,-976.86 1029.68,-967.43 1027.56,-977.81 1034.5,-976.86"/>
<text xml:space="preserve" text-anchor="middle" x="1108.12" y="-1034.87" font-family="Helvetica,sans-Serif" font-size="9.00" fill="#ece1d7">new_rows + barriers</text>
</g>
<!-- retires -->
<g id="node39" class="node">
<title>retires</title>
<polygon fill="#4d3850" stroke="#6e6963" points="1628.75,-954.17 1471.75,-954.17 1471.75,-918.17 1634.75,-918.17 1634.75,-948.17 1628.75,-954.17"/>
<polyline fill="none" stroke="#6e6963" points="1628.75,-954.17 1628.75,-948.17"/>
<polyline fill="none" stroke="#6e6963" points="1634.75,-948.17 1628.75,-948.17"/>
<text xml:space="preserve" text-anchor="middle" x="1553.25" y="-939.42" font-family="Helvetica,sans-Serif" font-size="10.00" fill="#ece1d7">{spill}/toast_retires.bin</text>
<text xml:space="preserve" text-anchor="middle" x="1553.25" y="-926.67" font-family="Helvetica,sans-Serif" font-size="10.00" fill="#ece1d7">fsynced deferred mirror wipes</text>
</g>
<!-- drain&#45;&gt;retires -->
<g id="edge46" class="edge">
<title>drain&#45;&gt;retires</title>
<path fill="none" stroke="#6e6963" stroke-dasharray="5,2" d="M1409.63,-1062.94C1444.48,-1032.42 1493.95,-989.1 1524.79,-962.09"/>
<polygon fill="#6e6963" stroke="#6e6963" points="1526.99,-964.81 1532.21,-955.59 1522.38,-959.55 1526.99,-964.81"/>
<text xml:space="preserve" text-anchor="middle" x="1464.48" y="-1034.87" font-family="Helvetica,sans-Serif" font-size="9.00" fill="#ece1d7">toast DROP</text>
</g>
<!-- tableenc -->
<g id="node23" class="node">
<title>tableenc</title>
<path fill="#5d4628" stroke="#6e6963" d="M1120.87,-668.8C1120.87,-668.8 949.62,-668.8 949.62,-668.8 943.62,-668.8 937.62,-662.8 937.62,-656.8 937.62,-656.8 937.62,-609.05 937.62,-609.05 937.62,-603.05 943.62,-597.05 949.62,-597.05 949.62,-597.05 1120.87,-597.05 1120.87,-597.05 1126.87,-597.05 1132.87,-603.05 1132.87,-609.05 1132.87,-609.05 1132.87,-656.8 1132.87,-656.8 1132.87,-662.8 1126.87,-668.8 1120.87,-668.8"/>
<text xml:space="preserve" text-anchor="middle" x="1035.25" y="-655.3" font-family="Helvetica,sans-Serif" font-size="10.00" fill="#ece1d7">InsertBatcher</text>
<text xml:space="preserve" text-anchor="middle" x="1035.25" y="-642.55" font-family="Helvetica,sans-Serif" font-size="10.00" fill="#ece1d7">TableEncoder per table</text>
<text xml:space="preserve" text-anchor="middle" x="1035.25" y="-629.8" font-family="Helvetica,sans-Serif" font-size="10.00" fill="#ece1d7">Native columns +</text>
<text xml:space="preserve" text-anchor="middle" x="1035.25" y="-617.05" font-family="Helvetica,sans-Serif" font-size="10.00" fill="#ece1d7">_lsn / _xid / _commit_ts / _is_deleted</text>
<text xml:space="preserve" text-anchor="middle" x="1035.25" y="-604.3" font-family="Helvetica,sans-Serif" font-size="10.00" fill="#ece1d7">row/byte budget + deadline seal</text>
</g>
<!-- cdecode&#45;&gt;tableenc -->
<g id="edge18" class="edge">
<title>cdecode&#45;&gt;tableenc</title>
<path fill="none" stroke="#c1a78e" d="M1035.25,-749.53C1035.25,-729.82 1035.25,-703.28 1035.25,-680.6"/>
<polygon fill="#c1a78e" stroke="#c1a78e" points="1038.75,-680.66 1035.25,-670.66 1031.75,-680.66 1038.75,-680.66"/>
</g>
<!-- chwire -->
<g id="node24" class="node">
<title>chwire</title>
<path fill="#5d4628" stroke="#6e6963" d="M1107,-377.92C1107,-377.92 963.5,-377.92 963.5,-377.92 957.5,-377.92 951.5,-371.92 951.5,-365.92 951.5,-365.92 951.5,-330.92 951.5,-330.92 951.5,-324.92 957.5,-318.92 963.5,-318.92 963.5,-318.92 1107,-318.92 1107,-318.92 1113,-318.92 1119,-324.92 1119,-330.92 1119,-330.92 1119,-365.92 1119,-365.92 1119,-371.92 1113,-377.92 1107,-377.92"/>
<text xml:space="preserve" text-anchor="middle" x="1035.25" y="-364.42" font-family="Helvetica,sans-Serif" font-size="10.00" fill="#ece1d7">inserter pool ×N</text>
<text xml:space="preserve" text-anchor="middle" x="1035.25" y="-351.67" font-family="Helvetica,sans-Serif" font-size="10.00" fill="#ece1d7">BlockBuilder over sealed batch</text>
<text xml:space="preserve" text-anchor="middle" x="1035.25" y="-338.92" font-family="Helvetica,sans-Serif" font-size="10.00" fill="#ece1d7">one complete INSERT each</text>
<text xml:space="preserve" text-anchor="middle" x="1035.25" y="-326.17" font-family="Helvetica,sans-Serif" font-size="10.00" fill="#ece1d7">send_with_retry + reconnect</text>
</g>
<!-- tableenc&#45;&gt;chwire -->
<g id="edge19" class="edge">
<title>tableenc&#45;&gt;chwire</title>
<path fill="none" stroke="#c1a78e" d="M1035.25,-596.71C1035.25,-544.08 1035.25,-445.13 1035.25,-389.69"/>
<polygon fill="#c1a78e" stroke="#c1a78e" points="1038.75,-389.74 1035.25,-379.74 1031.75,-389.74 1038.75,-389.74"/>
</g>
<!-- chwire&#45;&gt;ch -->
<g id="edge44" class="edge">
<title>chwire&#45;&gt;ch</title>
<path fill="none" stroke="#bf8c5f" stroke-width="2" d="M977.83,-318.43C859.14,-258.51 589.03,-122.13 483.07,-68.63"/>
<polygon fill="#bf8c5f" stroke="#bf8c5f" stroke-width="2" points="484.77,-65.56 474.27,-64.18 481.62,-71.81 484.77,-65.56"/>
</g>
<!-- ackcol -->
<g id="node25" class="node">
<title>ackcol</title>
<polygon fill="#4d3a28" stroke="#6e6963" points="1118.87,-68.62 971.62,-68.62 971.62,-22.38 1124.87,-22.38 1124.87,-62.62 1118.87,-68.62"/>
<polyline fill="none" stroke="#6e6963" points="1118.87,-68.62 1118.87,-62.62"/>
<polyline fill="none" stroke="#6e6963" points="1124.87,-62.62 1118.87,-62.62"/>
<text xml:space="preserve" text-anchor="middle" x="1048.25" y="-55.12" font-family="Helvetica,sans-Serif" font-size="10.00" fill="#ece1d7">ack collector</text>
<text xml:space="preserve" text-anchor="middle" x="1048.25" y="-42.38" font-family="Helvetica,sans-Serif" font-size="10.00" fill="#ece1d7">contiguous&#45;done watermark</text>
<text xml:space="preserve" text-anchor="middle" x="1048.25" y="-29.62" font-family="Helvetica,sans-Serif" font-size="10.00" fill="#ece1d7">→ emitter_ack_lsn</text>
</g>
<!-- chwire&#45;&gt;ackcol -->
<g id="edge20" class="edge">
<title>chwire&#45;&gt;ackcol</title>
<path fill="none" stroke="#b380b0" stroke-dasharray="1,5" d="M1036.49,-318.57C1038.91,-262.69 1044.21,-139.99 1046.78,-80.36"/>
<polygon fill="#b380b0" stroke="#b380b0" points="1050.27,-80.63 1047.21,-70.49 1043.28,-80.33 1050.27,-80.63"/>
<text xml:space="preserve" text-anchor="middle" x="1076.13" y="-116.87" font-family="Helvetica,sans-Serif" font-size="9.00" fill="#ece1d7">Acked after</text>
<text xml:space="preserve" text-anchor="middle" x="1076.13" y="-105.62" font-family="Helvetica,sans-Serif" font-size="9.00" fill="#ece1d7">EndOfStream</text>
</g>
<!-- cursor -->
<g id="node38" class="node">
<title>cursor</title>
<polygon fill="#4d3850" stroke="#6e6963" points="1973.37,-959.3 1853.12,-959.3 1853.12,-913.05 1979.37,-913.05 1979.37,-953.3 1973.37,-959.3"/>
<polyline fill="none" stroke="#6e6963" points="1973.37,-959.3 1973.37,-953.3"/>
<polyline fill="none" stroke="#6e6963" points="1979.37,-953.3 1973.37,-953.3"/>
<text xml:space="preserve" text-anchor="middle" x="1916.25" y="-945.8" font-family="Helvetica,sans-Serif" font-size="10.00" fill="#ece1d7">{spill}/cursor.bin</text>
<text xml:space="preserve" text-anchor="middle" x="1916.25" y="-933.05" font-family="Helvetica,sans-Serif" font-size="10.00" fill="#ece1d7">64 B atomic rename</text>
<text xml:space="preserve" text-anchor="middle" x="1916.25" y="-920.3" font-family="Helvetica,sans-Serif" font-size="10.00" fill="#ece1d7">6 LSN fields + CRC32C</text>
</g>
<!-- ackcol&#45;&gt;cursor -->
<g id="edge43" class="edge">
<title>ackcol&#45;&gt;cursor</title>
<path fill="none" stroke="#b380b0" stroke-dasharray="1,5" d="M1125.26,-58.41C1261.14,-84.27 1529.25,-159.16 1529.25,-347.42 1529.25,-780.42 1529.25,-780.42 1529.25,-780.42 1529.25,-784.66 1736.21,-865.46 1847.43,-908.57"/>
<polygon fill="#b380b0" stroke="#b380b0" points="1845.89,-911.73 1856.48,-912.08 1848.42,-905.2 1845.89,-911.73"/>
<text xml:space="preserve" text-anchor="middle" x="1564.5" y="-630" font-family="Helvetica,sans-Serif" font-size="9.00" fill="#ece1d7">emitter_ack_lsn</text>
</g>
<!-- toastio&#45;&gt;ch -->
<g id="edge45" class="edge">
<title>toastio&#45;&gt;ch</title>
<path fill="none" stroke="#bf8c5f" stroke-dasharray="5,2" d="M927.2,-932.77C774.62,-928.21 499.47,-915.99 465.25,-886.67 428.33,-855.04 439.25,-829.04 439.25,-780.42 439.25,-780.42 439.25,-780.42 439.25,-347.42 439.25,-247.34 439.25,-128.52 439.25,-75.06"/>
<polygon fill="#bf8c5f" stroke="#bf8c5f" points="442.75,-75.31 439.25,-65.31 435.75,-75.31 442.75,-75.31"/>
<text xml:space="preserve" text-anchor="middle" x="478.25" y="-630" font-family="Helvetica,sans-Serif" font-size="9.00" fill="#ece1d7">pg_toast_&lt;relid&gt;</text>
</g>
<!-- toastio&#45;&gt;cdecode -->
<g id="edge23" class="edge">
<title>toastio&#45;&gt;cdecode</title>
<path fill="none" stroke="#cba85e" stroke-dasharray="5,2" d="M1029.55,-906.43C1030.64,-882.29 1032.21,-847.54 1033.43,-820.64"/>
<polygon fill="#cba85e" stroke="#cba85e" points="1036.92,-820.93 1033.87,-810.79 1029.92,-820.62 1036.92,-820.93"/>
<text xml:space="preserve" text-anchor="middle" x="1054.91" y="-878.12" font-family="Helvetica,sans-Serif" font-size="9.00" fill="#ece1d7">as&#45;of fetch</text>
</g>
<!-- libpq -->
<g id="node28" class="node">
<title>libpq</title>
<path fill="#4d4d28" stroke="#6e6963" d="M2354.87,-371.55C2354.87,-371.55 2255.62,-371.55 2255.62,-371.55 2249.62,-371.55 2243.62,-365.55 2243.62,-359.55 2243.62,-359.55 2243.62,-337.3 2243.62,-337.3 2243.62,-331.3 2249.62,-325.3 2255.62,-325.3 2255.62,-325.3 2354.87,-325.3 2354.87,-325.3 2360.87,-325.3 2366.87,-331.3 2366.87,-337.3 2366.87,-337.3 2366.87,-359.55 2366.87,-359.55 2366.87,-365.55 2360.87,-371.55 2354.87,-371.55"/>
<text xml:space="preserve" text-anchor="middle" x="2305.25" y="-358.05" font-family="Helvetica,sans-Serif" font-size="10.00" fill="#ece1d7">tokio_postgres::Client</text>
<text xml:space="preserve" text-anchor="middle" x="2305.25" y="-345.3" font-family="Helvetica,sans-Serif" font-size="10.00" fill="#ece1d7">SELECT pg_class /</text>
<text xml:space="preserve" text-anchor="middle" x="2305.25" y="-332.55" font-family="Helvetica,sans-Serif" font-size="10.00" fill="#ece1d7">pg_attribute / pg_type</text>
</g>
<!-- lru&#45;&gt;libpq -->
<g id="edge24" class="edge">
<title>lru&#45;&gt;libpq</title>
<path fill="none" stroke="#c1a78e" stroke-dasharray="5,2" d="M2318.15,-609.75C2315.7,-560.47 2309.81,-441.56 2306.91,-383.06"/>
<polygon fill="#c1a78e" stroke="#c1a78e" points="2310.42,-383.2 2306.43,-373.39 2303.43,-383.55 2310.42,-383.2"/>
<text xml:space="preserve" text-anchor="middle" x="2326.35" y="-568.5" font-family="Helvetica,sans-Serif" font-size="9.00" fill="#ece1d7">miss</text>
</g>
<!-- evtx -->
<g id="node30" class="node">
<title>evtx</title>
<path fill="#4d4d28" stroke="#6e6963" d="M2695.46,-394.67C2695.46,-394.67 2474.14,-394.67 2474.14,-394.67 2468.14,-394.67 2458.76,-389.72 2455.37,-384.76 2455.37,-384.76 2405.79,-312.08 2405.79,-312.08 2402.41,-307.13 2405.03,-302.17 2411.03,-302.17 2411.03,-302.17 2632.35,-302.17 2632.35,-302.17 2638.35,-302.17 2647.74,-307.13 2651.12,-312.08 2651.12,-312.08 2700.7,-384.76 2700.7,-384.76 2704.08,-389.72 2701.46,-394.67 2695.46,-394.67"/>
<text xml:space="preserve" text-anchor="middle" x="2553.25" y="-358.05" font-family="Helvetica,sans-Serif" font-size="10.00" fill="#ece1d7">schema_event_tx</text>
<text xml:space="preserve" text-anchor="middle" x="2553.25" y="-345.3" font-family="Helvetica,sans-Serif" font-size="10.00" fill="#ece1d7">Added / Changed / Dropped</text>
<text xml:space="preserve" text-anchor="middle" x="2553.25" y="-332.55" font-family="Helvetica,sans-Serif" font-size="10.00" fill="#ece1d7">(unbounded mpsc)</text>
</g>
<!-- lru&#45;&gt;evtx -->
<g id="edge26" class="edge">
<title>lru&#45;&gt;evtx</title>
<path fill="none" stroke="#cba85e" stroke-dasharray="5,2" d="M2337.61,-609.75C2374.09,-565.72 2456.62,-466.08 2508.34,-403.63"/>
<polygon fill="#cba85e" stroke="#cba85e" points="2510.78,-406.18 2514.46,-396.25 2505.39,-401.71 2510.78,-406.18"/>
<text xml:space="preserve" text-anchor="middle" x="2395.29" y="-568.5" font-family="Helvetica,sans-Serif" font-size="9.00" fill="#ece1d7">diff vs prior</text>
</g>
<!-- libpq&#45;&gt;shd -->
<g id="edge39" class="edge">
<title>libpq&#45;&gt;shd</title>
<path fill="none" stroke="#cba85e" d="M2281.73,-316.11C2240.44,-261.13 2154.99,-147.35 2109.42,-86.67"/>
<polygon fill="#cba85e" stroke="#cba85e" points="2287.53,-323.83 2277.92,-318.54 2285.26,-320.81 2281.52,-315.83 2281.52,-315.83 2281.52,-315.83 2285.26,-320.81 2285.12,-313.13 2287.53,-323.83"/>
<polygon fill="#cba85e" stroke="#cba85e" points="2112.44,-84.87 2103.63,-78.97 2106.84,-89.07 2112.44,-84.87"/>
<text xml:space="preserve" text-anchor="middle" x="2169.86" y="-111.25" font-family="Helvetica,sans-Serif" font-size="9.00" fill="#ece1d7">libpq SELECT</text>
</g>
<!-- inval&#45;&gt;lru -->
<g id="edge25" class="edge">
<title>inval&#45;&gt;lru</title>
<path fill="none" stroke="#cba85e" stroke-dasharray="5,2" d="M2316.05,-749.53C2316.7,-725.89 2317.63,-692.42 2318.31,-667.57"/>
<polygon fill="#cba85e" stroke="#cba85e" points="2321.81,-667.76 2318.59,-657.66 2314.81,-667.56 2321.81,-667.76"/>
</g>
<!-- evtx&#45;&gt;xactbuf -->
<g id="edge32" class="edge">
<title>evtx&#45;&gt;xactbuf</title>
<path fill="none" stroke="#cba85e" stroke-dasharray="5,2" d="M2528.61,-395.06C2500.39,-442.17 2449.4,-513.25 2383.25,-545.8 2293.97,-589.72 1586.57,-576.39 1489.25,-597.05 1336.82,-629.41 1313.67,-688.54 1161.25,-720.92 1106.49,-732.56 705.05,-719.21 658.25,-749.92 448.35,-887.67 574.73,-865.84 595,-886.67 621.13,-913.53 1237.48,-885.17 1269.25,-905.05 1319.84,-936.7 1283.57,-988.27 1331.25,-1024.17 1365.66,-1050.09 1383.46,-1038.36 1426.25,-1043.42 1444.85,-1045.62 1750.24,-1041.94 1763.25,-1055.42 1787.86,-1080.93 1785.81,-1107.84 1763.25,-1135.17 1726.71,-1179.42 1574.02,-1198.14 1469.81,-1205.86"/>
<polygon fill="#cba85e" stroke="#cba85e" points="1469.86,-1202.35 1460.13,-1206.56 1470.36,-1209.33 1469.86,-1202.35"/>
<text xml:space="preserve" text-anchor="middle" x="624.62" y="-878.12" font-family="Helvetica,sans-Serif" font-size="9.00" fill="#ece1d7">stamp on xid</text>
</g>
<!-- ddlapp -->
<g id="node32" class="node">
<title>ddlapp</title>
<path fill="#5d4628" stroke="#6e6963" d="M2851.12,-75C2851.12,-75 2747.37,-75 2747.37,-75 2741.37,-75 2735.37,-69 2735.37,-63 2735.37,-63 2735.37,-28 2735.37,-28 2735.37,-22 2741.37,-16 2747.37,-16 2747.37,-16 2851.12,-16 2851.12,-16 2857.12,-16 2863.12,-22 2863.12,-28 2863.12,-28 2863.12,-63 2863.12,-63 2863.12,-69 2857.12,-75 2851.12,-75"/>
<text xml:space="preserve" text-anchor="middle" x="2799.25" y="-61.5" font-family="Helvetica,sans-Serif" font-size="10.00" fill="#ece1d7">DdlApplicator</text>
<text xml:space="preserve" text-anchor="middle" x="2799.25" y="-48.75" font-family="Helvetica,sans-Serif" font-size="10.00" fill="#ece1d7">(ch_ddl.rs)</text>
<text xml:space="preserve" text-anchor="middle" x="2799.25" y="-36" font-family="Helvetica,sans-Serif" font-size="10.00" fill="#ece1d7">CREATE / ADD COL /</text>
<text xml:space="preserve" text-anchor="middle" x="2799.25" y="-23.25" font-family="Helvetica,sans-Serif" font-size="10.00" fill="#ece1d7">RENAME / DROP TABLE</text>
</g>
<!-- evtx&#45;&gt;ddlapp -->
<g id="edge28" class="edge">
<title>evtx&#45;&gt;ddlapp</title>
<path fill="none" stroke="#cba85e" stroke-dasharray="5,2" d="M2575.74,-301.7C2603.74,-248.1 2655.61,-158.79 2718.5,-97.3 2724.11,-91.8 2730.42,-86.6 2736.97,-81.77"/>
<polygon fill="#cba85e" stroke="#cba85e" points="2738.6,-84.91 2744.77,-76.3 2734.58,-79.18 2738.6,-84.91"/>
<text xml:space="preserve" text-anchor="middle" x="2754.87" y="-111.25" font-family="Helvetica,sans-Serif" font-size="9.00" fill="#ece1d7">drain at commit</text>
</g>
<!-- bridge -->
<g id="node31" class="node">
<title>bridge</title>
<path fill="#5d4628" stroke="#6e6963" d="M2850.87,-371.55C2850.87,-371.55 2751.62,-371.55 2751.62,-371.55 2745.62,-371.55 2739.62,-365.55 2739.62,-359.55 2739.62,-359.55 2739.62,-337.3 2739.62,-337.3 2739.62,-331.3 2745.62,-325.3 2751.62,-325.3 2751.62,-325.3 2850.87,-325.3 2850.87,-325.3 2856.87,-325.3 2862.87,-331.3 2862.87,-337.3 2862.87,-337.3 2862.87,-359.55 2862.87,-359.55 2862.87,-365.55 2856.87,-371.55 2850.87,-371.55"/>
<text xml:space="preserve" text-anchor="middle" x="2801.25" y="-358.05" font-family="Helvetica,sans-Serif" font-size="10.00" fill="#ece1d7">type_bridge</text>
<text xml:space="preserve" text-anchor="middle" x="2801.25" y="-345.3" font-family="Helvetica,sans-Serif" font-size="10.00" fill="#ece1d7">RelAttr → CH type</text>
<text xml:space="preserve" text-anchor="middle" x="2801.25" y="-332.55" font-family="Helvetica,sans-Serif" font-size="10.00" fill="#ece1d7">(reject widen for now)</text>
</g>
<!-- bridge&#45;&gt;ddlapp -->
<g id="edge27" class="edge">
<title>bridge&#45;&gt;ddlapp</title>
<path fill="none" stroke="#c1a78e" stroke-dasharray="5,2" d="M2801.1,-324.8C2800.76,-274.11 2799.94,-150.8 2799.51,-86.7"/>
<polygon fill="#c1a78e" stroke="#c1a78e" points="2803.01,-86.94 2799.45,-76.97 2796.01,-86.99 2803.01,-86.94"/>
</g>
<!-- ddlapp&#45;&gt;ch -->
<g id="edge29" class="edge">
<title>ddlapp&#45;&gt;ch</title>
<path fill="none" stroke="#bf8c5f" stroke-dasharray="5,2" d="M2735.03,-51.97C2575.99,-67.64 2150.92,-107.28 1795.25,-120.55 1288.12,-139.48 1159.47,-125.04 654.25,-77.3 596.09,-71.8 529.65,-61.32 486.21,-53.9"/>
<polygon fill="#bf8c5f" stroke="#bf8c5f" points="486.81,-50.45 476.36,-52.2 485.62,-57.35 486.81,-50.45"/>
<text xml:space="preserve" text-anchor="middle" x="1744.25" y="-122.5" font-family="Helvetica,sans-Serif" font-size="9.00" fill="#ece1d7">DDL SQL</text>
<text xml:space="preserve" text-anchor="middle" x="1744.25" y="-111.25" font-family="Helvetica,sans-Serif" font-size="9.00" fill="#ece1d7">(inside reorder barrier,</text>
<text xml:space="preserve" text-anchor="middle" x="1744.25" y="-100" font-family="Helvetica,sans-Serif" font-size="9.00" fill="#ece1d7"> own CH connection)</text>
</g>
<!-- listener -->
<g id="node33" class="node">
<title>listener</title>
<path fill="#5d3f40" stroke="#6e6963" d="M1857.5,-656.05C1857.5,-656.05 1765,-656.05 1765,-656.05 1759,-656.05 1753,-650.05 1753,-644.05 1753,-644.05 1753,-621.8 1753,-621.8 1753,-615.8 1759,-609.8 1765,-609.8 1765,-609.8 1857.5,-609.8 1857.5,-609.8 1863.5,-609.8 1869.5,-615.8 1869.5,-621.8 1869.5,-621.8 1869.5,-644.05 1869.5,-644.05 1869.5,-650.05 1863.5,-656.05 1857.5,-656.05"/>
<text xml:space="preserve" text-anchor="middle" x="1811.25" y="-642.55" font-family="Helvetica,sans-Serif" font-size="10.00" fill="#ece1d7">accept(unix / TCP)</text>
<text xml:space="preserve" text-anchor="middle" x="1811.25" y="-629.8" font-family="Helvetica,sans-Serif" font-size="10.00" fill="#ece1d7">IDENTIFY_SYSTEM +</text>
<text xml:space="preserve" text-anchor="middle" x="1811.25" y="-617.05" font-family="Helvetica,sans-Serif" font-size="10.00" fill="#ece1d7">START_REPLICATION</text>
</g>
<!-- listener&#45;&gt;sendq -->
<g id="edge33" class="edge">
<title>listener&#45;&gt;sendq</title>
<path fill="none" stroke="#c1a78e" stroke-dasharray="5,2" d="M1822.23,-609.75C1846.81,-560.16 1906.32,-440.07 1935.11,-381.97"/>
<polygon fill="#c1a78e" stroke="#c1a78e" points="1938.14,-383.75 1939.45,-373.23 1931.87,-380.64 1938.14,-383.75"/>
</g>
<!-- sendq&#45;&gt;shd -->
<g id="edge37" class="edge">
<title>sendq&#45;&gt;shd</title>
<path fill="none" stroke="#bd8183" stroke-width="2" d="M1949.12,-325.09C1945.84,-278.38 1944.39,-168.82 1993.5,-97.3 1996.93,-92.3 2001.02,-87.72 2005.54,-83.53"/>
<polygon fill="#bd8183" stroke="#bd8183" stroke-width="2" points="2007.48,-86.47 2012.99,-77.42 2003.04,-81.06 2007.48,-86.47"/>
<text xml:space="preserve" text-anchor="middle" x="2023.87" y="-111.25" font-family="Helvetica,sans-Serif" font-size="9.00" fill="#ece1d7">hot wire (ms)</text>
</g>
<!-- stat&#45;&gt;catgate -->
<g id="edge35" class="edge">
<title>stat&#45;&gt;catgate</title>
<path fill="none" stroke="#bd8183" stroke-dasharray="5,2" d="M1942.99,-662.67C1930.46,-682.99 1910.66,-708.71 1885.25,-720.92 1761.94,-780.2 776.34,-688.18 654.25,-749.92 591.34,-781.73 580.02,-808.71 557.25,-875.42 555.63,-880.15 553.76,-883.09 557.25,-886.67 582.27,-912.42 1175.01,-882.88 1203.25,-905.05 1253.41,-944.43 1191.21,-1003.87 1241.25,-1043.42 1271.16,-1067.07 1550.7,-1037.28 1584.25,-1055.42 1622.4,-1076.05 1605.25,-1109.9 1640.5,-1135.17 1816.62,-1261.46 2040.44,-1081.5 2103.25,-1288.92 2116.95,-1334.19 2130.32,-1370.96 2089.25,-1394.42 2030.48,-1427.98 1581.69,-1434.81 1400.13,-1436.19"/>
<polygon fill="#bd8183" stroke="#bd8183" points="1400.31,-1432.69 1390.34,-1436.26 1400.36,-1439.69 1400.31,-1432.69"/>
<text xml:space="preserve" text-anchor="middle" x="1697.87" y="-1096.37" font-family="Helvetica,sans-Serif" font-size="9.00" fill="#ece1d7">apply_lsn → unblock gate</text>
</g>
<!-- outdir&#45;&gt;shd -->
<g id="edge41" class="edge">
<title>outdir&#45;&gt;shd</title>
<path fill="none" stroke="#6e6963" stroke-dasharray="5,2" d="M2063.22,-912.75C2069.43,-882.76 2079.25,-827.87 2079.25,-780.42 2079.25,-780.42 2079.25,-780.42 2079.25,-347.42 2079.25,-255.29 2079.25,-147.29 2079.25,-89.01"/>
<polygon fill="#6e6963" stroke="#6e6963" points="2082.75,-89.2 2079.25,-79.2 2075.75,-89.2 2082.75,-89.2"/>
<text xml:space="preserve" text-anchor="middle" x="2120.12" y="-630" font-family="Helvetica,sans-Serif" font-size="9.00" fill="#ece1d7">restore_command</text>
</g>
<!-- retires&#45;&gt;toastio -->
<g id="edge47" class="edge">
<title>retires&#45;&gt;toastio</title>
<path fill="none" stroke="#6e6963" stroke-dasharray="5,2" d="M1536.65,-954.56C1517.41,-974.37 1483.64,-1004.71 1447.25,-1017.01 1327.6,-1057.42 1181.52,-1008.17 1097.25,-970.75"/>
<polygon fill="#6e6963" stroke="#6e6963" points="1098.72,-967.57 1088.17,-966.65 1095.84,-973.95 1098.72,-967.57"/>
<text xml:space="preserve" text-anchor="middle" x="1284.25" y="-1034.87" font-family="Helvetica,sans-Serif" font-size="9.00" fill="#ece1d7">resume&#45;floor flush</text>
</g>
</g>
</svg>
