<?xml version="1.0" encoding="UTF-8" standalone="no"?>
<!DOCTYPE svg PUBLIC "-//W3C//DTD SVG 1.1//EN"
 "http://www.w3.org/Graphics/SVG/1.1/DTD/svg11.dtd">
<!-- Generated by graphviz version 14.1.5 (0)
 -->
<!-- Title: internals Pages: 1 -->
<svg width="2037pt" height="2510pt"
 viewBox="0.00 0.00 2037.00 2510.00" xmlns="http://www.w3.org/2000/svg" xmlns:xlink="http://www.w3.org/1999/xlink">
<g id="graph0" class="graph" transform="scale(1 1) rotate(0) translate(4 2506.36)">
<title>internals</title>
<polygon fill="#272623" stroke="none" points="-4,4 -4,-2506.36 2033,-2506.36 2033,4 -4,4"/>
<text xml:space="preserve" text-anchor="middle" x="1014.5" y="-2485.06" font-family="Helvetica,sans-Serif" font-size="14.00" fill="#ece1d7">walshadow internals — pipeline stages, taps &amp; caches</text>
<g id="clust1" class="cluster">
<title>cluster_ingress</title>
<path fill="#34302c" stroke="#4c4641" d="M658,-2178.36C658,-2178.36 956,-2178.36 956,-2178.36 962,-2178.36 968,-2184.36 968,-2190.36 968,-2190.36 968,-2400.11 968,-2400.11 968,-2406.11 962,-2412.11 956,-2412.11 956,-2412.11 658,-2412.11 658,-2412.11 652,-2412.11 646,-2406.11 646,-2400.11 646,-2400.11 646,-2190.36 646,-2190.36 646,-2184.36 652,-2178.36 658,-2178.36"/>
<text xml:space="preserve" text-anchor="middle" x="807" y="-2394.81" font-family="Helvetica,sans-Serif" font-size="14.00" fill="#ece1d7">① ingress (main loop, tokio)</text>
</g>
<g id="clust2" class="cluster">
<title>cluster_filter</title>
<path fill="#34302c" stroke="#4c4641" d="M652,-1795.55C652,-1795.55 954,-1795.55 954,-1795.55 960,-1795.55 966,-1801.55 966,-1807.55 966,-1807.55 966,-2145.36 966,-2145.36 966,-2151.36 960,-2157.36 954,-2157.36 954,-2157.36 652,-2157.36 652,-2157.36 646,-2157.36 640,-2151.36 640,-2145.36 640,-2145.36 640,-1807.55 640,-1807.55 640,-1801.55 646,-1795.55 652,-1795.55"/>
<text xml:space="preserve" text-anchor="middle" x="803" y="-2140.06" font-family="Helvetica,sans-Serif" font-size="14.00" fill="#ece1d7">② filter pipeline (sync, record cadence)</text>
</g>
<g id="clust3" class="cluster">
<title>cluster_fanout</title>
<path fill="#34302c" stroke="#4c4641" d="M729,-1674.3C729,-1674.3 1215,-1674.3 1215,-1674.3 1221,-1674.3 1227,-1680.3 1227,-1686.3 1227,-1686.3 1227,-1762.55 1227,-1762.55 1227,-1768.55 1221,-1774.55 1215,-1774.55 1215,-1774.55 729,-1774.55 729,-1774.55 723,-1774.55 717,-1768.55 717,-1762.55 717,-1762.55 717,-1686.3 717,-1686.3 717,-1680.3 723,-1674.3 729,-1674.3"/>
<text xml:space="preserve" text-anchor="middle" x="972" y="-1757.25" font-family="Helvetica,sans-Serif" font-size="14.00" fill="#ece1d7">③ CompositeRecordSink fan&#45;out (pump task, sync — ordering matters)</text>
</g>
<g id="clust4" class="cluster">
<title>cluster_queue</title>
<path fill="#34302c" stroke="#4c4641" d="M1133,-1195.42C1133,-1195.42 1509,-1195.42 1509,-1195.42 1515,-1195.42 1521,-1201.42 1521,-1207.42 1521,-1207.42 1521,-1641.3 1521,-1641.3 1521,-1647.3 1515,-1653.3 1509,-1653.3 1509,-1653.3 1133,-1653.3 1133,-1653.3 1127,-1653.3 1121,-1647.3 1121,-1641.3 1121,-1641.3 1121,-1207.42 1121,-1207.42 1121,-1201.42 1127,-1195.42 1133,-1195.42"/>
<text xml:space="preserve" text-anchor="middle" x="1321" y="-1636" font-family="Helvetica,sans-Serif" font-size="14.00" fill="#ece1d7">④ QueueingRecordSink — pump ↔ decoder decoupling</text>
</g>
<g id="clust5" class="cluster">
<title>cluster_decode</title>
<path fill="#34302c" stroke="#4c4641" d="M1541,-841.8C1541,-841.8 1979,-841.8 1979,-841.8 1985,-841.8 1991,-847.8 1991,-853.8 1991,-853.8 1991,-1265.8 1991,-1265.8 1991,-1271.8 1985,-1277.8 1979,-1277.8 1979,-1277.8 1541,-1277.8 1541,-1277.8 1535,-1277.8 1529,-1271.8 1529,-1265.8 1529,-1265.8 1529,-853.8 1529,-853.8 1529,-847.8 1535,-841.8 1541,-841.8"/>
<text xml:space="preserve" text-anchor="middle" x="1760" y="-1260.5" font-family="Helvetica,sans-Serif" font-size="14.00" fill="#ece1d7">⑤ decode + xact buffer (worker task — gated on shadow apply)</text>
</g>
<g id="clust6" class="cluster">
<title>cluster_ch</title>
<path fill="#34302c" stroke="#4c4641" d="M1652,-304.55C1652,-304.55 2009,-304.55 2009,-304.55 2015,-304.55 2021,-310.55 2021,-316.55 2021,-316.55 2021,-792.17 2021,-792.17 2021,-798.17 2015,-804.17 2009,-804.17 2009,-804.17 1652,-804.17 1652,-804.17 1646,-804.17 1640,-798.17 1640,-792.17 1640,-792.17 1640,-316.55 1640,-316.55 1640,-310.55 1646,-304.55 1652,-304.55"/>
<text xml:space="preserve" text-anchor="middle" x="1830.5" y="-786.87" font-family="Helvetica,sans-Serif" font-size="14.00" fill="#ece1d7">⑥ CH emitter — held&#45;open INSERT, deadline&#45;flushed</text>
</g>
<g id="clust7" class="cluster">
<title>cluster_catalog</title>
<path fill="#34302c" stroke="#4c4641" d="M306,-294.17C306,-294.17 762,-294.17 762,-294.17 768,-294.17 774,-300.17 774,-306.17 774,-306.17 774,-798.55 774,-798.55 774,-804.55 768,-810.55 762,-810.55 762,-810.55 306,-810.55 306,-810.55 300,-810.55 294,-804.55 294,-798.55 294,-798.55 294,-306.17 294,-306.17 294,-300.17 300,-294.17 306,-294.17"/>
<text xml:space="preserve" text-anchor="middle" x="534" y="-793.25" font-family="Helvetica,sans-Serif" font-size="14.00" fill="#ece1d7">⑦ ShadowCatalog cache + SchemaEvent channel</text>
</g>
<g id="clust8" class="cluster">
<title>cluster_ddl</title>
<path fill="#34302c" stroke="#4c4641" d="M20,-8C20,-8 271,-8 271,-8 277,-8 283,-14 283,-20 283,-20 283,-392.8 283,-392.8 283,-398.8 277,-404.8 271,-404.8 271,-404.8 20,-404.8 20,-404.8 14,-404.8 8,-398.8 8,-392.8 8,-392.8 8,-20 8,-20 8,-14 14,-8 20,-8"/>
<text xml:space="preserve" text-anchor="middle" x="145.5" y="-387.5" font-family="Helvetica,sans-Serif" font-size="14.00" fill="#ece1d7">⑦b DDL applicator (separate CH TCP)</text>
</g>
<g id="clust9" class="cluster">
<title>cluster_walsender</title>
<path fill="#34302c" stroke="#4c4641" d="M918,-317.3C918,-317.3 1172,-317.3 1172,-317.3 1178,-317.3 1184,-323.3 1184,-329.3 1184,-329.3 1184,-677.3 1184,-677.3 1184,-683.3 1178,-689.3 1172,-689.3 1172,-689.3 918,-689.3 918,-689.3 912,-689.3 906,-683.3 906,-677.3 906,-677.3 906,-329.3 906,-329.3 906,-323.3 912,-317.3 918,-317.3"/>
<text xml:space="preserve" text-anchor="middle" x="1045" y="-672" font-family="Helvetica,sans-Serif" font-size="14.00" fill="#ece1d7">⑧ walsender server &#160;(tokio task)</text>
</g>
<g id="clust10" class="cluster">
<title>cluster_disk</title>
<path fill="#34302c" stroke="#4c4641" d="M1186,-716.67C1186,-716.67 1616,-716.67 1616,-716.67 1622,-716.67 1628,-722.67 1628,-728.67 1628,-728.67 1628,-792.17 1628,-792.17 1628,-798.17 1622,-804.17 1616,-804.17 1616,-804.17 1186,-804.17 1186,-804.17 1180,-804.17 1174,-798.17 1174,-792.17 1174,-792.17 1174,-728.67 1174,-728.67 1174,-722.67 1180,-716.67 1186,-716.67"/>
<text xml:space="preserve" text-anchor="middle" x="1401" y="-786.87" font-family="Helvetica,sans-Serif" font-size="14.00" fill="#ece1d7">⑨ on&#45;disk caches</text>
</g>
<!-- src -->
<g id="node1" class="node">
<title>src</title>
<path fill="#3d3d54" stroke="#6e6963" d="M839.38,-2473.84C839.38,-2475.64 824.86,-2477.11 807,-2477.11 789.14,-2477.11 774.62,-2475.64 774.62,-2473.84 774.62,-2473.84 774.62,-2444.38 774.62,-2444.38 774.62,-2442.58 789.14,-2441.11 807,-2441.11 824.86,-2441.11 839.38,-2442.58 839.38,-2444.38 839.38,-2444.38 839.38,-2473.84 839.38,-2473.84"/>
<path fill="none" stroke="#6e6963" d="M839.38,-2473.84C839.38,-2472.03 824.86,-2470.56 807,-2470.56 789.14,-2470.56 774.62,-2472.03 774.62,-2473.84"/>
<text xml:space="preserve" text-anchor="middle" x="807" y="-2455.98" font-family="Helvetica,sans-Serif" font-size="10.00" fill="#ece1d7">source PG</text>
</g>
<!-- feed -->
<g id="node4" class="node">
<title>feed</title>
<path fill="#3d3d54" stroke="#6e6963" d="M877.62,-2378.86C877.62,-2378.86 736.38,-2378.86 736.38,-2378.86 730.38,-2378.86 724.38,-2372.86 724.38,-2366.86 724.38,-2366.86 724.38,-2331.86 724.38,-2331.86 724.38,-2325.86 730.38,-2319.86 736.38,-2319.86 736.38,-2319.86 877.62,-2319.86 877.62,-2319.86 883.62,-2319.86 889.62,-2325.86 889.62,-2331.86 889.62,-2331.86 889.62,-2366.86 889.62,-2366.86 889.62,-2372.86 883.62,-2378.86 877.62,-2378.86"/>
<text xml:space="preserve" text-anchor="middle" x="807" y="-2365.36" font-family="Helvetica,sans-Serif" font-size="10.00" fill="#ece1d7">SourceFeed::pump</text>
<text xml:space="preserve" text-anchor="middle" x="807" y="-2352.61" font-family="Helvetica,sans-Serif" font-size="10.00" fill="#ece1d7">wal&#45;rs ReplicationConn</text>
<text xml:space="preserve" text-anchor="middle" x="807" y="-2339.86" font-family="Helvetica,sans-Serif" font-size="10.00" fill="#ece1d7">IDENTIFY_SYSTEM +</text>
<text xml:space="preserve" text-anchor="middle" x="807" y="-2327.11" font-family="Helvetica,sans-Serif" font-size="10.00" fill="#ece1d7">START_REPLICATION PHYSICAL</text>
</g>
<!-- src&#45;&gt;feed -->
<g id="edge33" class="edge">
<title>src&#45;&gt;feed</title>
<path fill="none" stroke="#a1a9cc" stroke-width="2" d="M807,-2440.8C807,-2427.59 807,-2408.83 807,-2391.82"/>
<polygon fill="#a1a9cc" stroke="#a1a9cc" stroke-width="2" points="810.5,-2392.01 807,-2382.01 803.5,-2392.01 810.5,-2392.01"/>
</g>
<!-- shd -->
<g id="node2" class="node">
<title>shd</title>
<path fill="#3d4128" stroke="#6e6963" d="M1046.38,-71.52C1046.38,-74.71 1015.73,-77.3 978,-77.3 940.27,-77.3 909.62,-74.71 909.62,-71.52 909.62,-71.52 909.62,-19.48 909.62,-19.48 909.62,-16.29 940.27,-13.7 978,-13.7 1015.73,-13.7 1046.38,-16.29 1046.38,-19.48 1046.38,-19.48 1046.38,-71.52 1046.38,-71.52"/>
<path fill="none" stroke="#6e6963" d="M1046.38,-71.52C1046.38,-68.33 1015.73,-65.73 978,-65.73 940.27,-65.73 909.62,-68.33 909.62,-71.52"/>
<text xml:space="preserve" text-anchor="middle" x="978" y="-55.12" font-family="Helvetica,sans-Serif" font-size="10.00" fill="#ece1d7">shadow PG</text>
<text xml:space="preserve" text-anchor="middle" x="978" y="-42.38" font-family="Helvetica,sans-Serif" font-size="10.00" fill="#ece1d7">walreceiver + catalog</text>
<text xml:space="preserve" text-anchor="middle" x="978" y="-29.62" font-family="Helvetica,sans-Serif" font-size="10.00" fill="#ece1d7">(pg_last_wal_replay_lsn)</text>
</g>
<!-- stat -->
<g id="node33" class="node">
<title>stat</title>
<path fill="#5d3f40" stroke="#6e6963" d="M1164.12,-656.05C1164.12,-656.05 1073.88,-656.05 1073.88,-656.05 1067.88,-656.05 1061.88,-650.05 1061.88,-644.05 1061.88,-644.05 1061.88,-609.05 1061.88,-609.05 1061.88,-603.05 1067.88,-597.05 1073.88,-597.05 1073.88,-597.05 1164.12,-597.05 1164.12,-597.05 1170.12,-597.05 1176.12,-603.05 1176.12,-609.05 1176.12,-609.05 1176.12,-644.05 1176.12,-644.05 1176.12,-650.05 1170.12,-656.05 1164.12,-656.05"/>
<text xml:space="preserve" text-anchor="middle" x="1119" y="-642.55" font-family="Helvetica,sans-Serif" font-size="10.00" fill="#ece1d7">rx &#39;r&#39; standby status</text>
<text xml:space="preserve" text-anchor="middle" x="1119" y="-629.8" font-family="Helvetica,sans-Serif" font-size="10.00" fill="#ece1d7">flush_lsn / apply_lsn</text>
<text xml:space="preserve" text-anchor="middle" x="1119" y="-617.05" font-family="Helvetica,sans-Serif" font-size="10.00" fill="#ece1d7">(min across conns,</text>
<text xml:space="preserve" text-anchor="middle" x="1119" y="-604.3" font-family="Helvetica,sans-Serif" font-size="10.00" fill="#ece1d7"> apply&#45;lag metric)</text>
</g>
<!-- shd&#45;&gt;stat -->
<g id="edge35" class="edge">
<title>shd&#45;&gt;stat</title>
<path fill="none" stroke="#bd8183" stroke-dasharray="5,2" d="M1046.69,-47.94C1188.78,-52.52 1507.28,-71.61 1574,-151.05 1630.42,-218.22 1630.42,-478.63 1574,-545.8 1525.5,-603.53 1302.76,-619.48 1187.91,-623.88"/>
<polygon fill="#bd8183" stroke="#bd8183" points="1187.86,-620.38 1177.99,-624.24 1188.11,-627.37 1187.86,-620.38"/>
</g>
<!-- ch -->
<g id="node3" class="node">
<title>ch</title>
<path fill="#4d4128" stroke="#6e6963" d="M1569.38,-60.23C1569.38,-62.03 1553.52,-63.5 1534,-63.5 1514.48,-63.5 1498.62,-62.03 1498.62,-60.23 1498.62,-60.23 1498.62,-30.77 1498.62,-30.77 1498.62,-28.97 1514.48,-27.5 1534,-27.5 1553.52,-27.5 1569.38,-28.97 1569.38,-30.77 1569.38,-30.77 1569.38,-60.23 1569.38,-60.23"/>
<path fill="none" stroke="#6e6963" d="M1569.38,-60.23C1569.38,-58.42 1553.52,-56.95 1534,-56.95 1514.48,-56.95 1498.62,-58.42 1498.62,-60.23"/>
<text xml:space="preserve" text-anchor="middle" x="1534" y="-42.38" font-family="Helvetica,sans-Serif" font-size="10.00" fill="#ece1d7">ClickHouse</text>
</g>
<!-- legend -->
<g id="node37" class="node">
<title>legend</title>
<path fill="#6e6963" stroke="none" d="M1546.12,-545.8C1546.12,-545.8 1285.88,-545.8 1285.88,-545.8 1279.88,-545.8 1273.88,-539.8 1273.88,-533.8 1273.88,-533.8 1273.88,-163.05 1273.88,-163.05 1273.88,-157.05 1279.88,-151.05 1285.88,-151.05 1285.88,-151.05 1546.12,-151.05 1546.12,-151.05 1552.12,-151.05 1558.12,-157.05 1558.12,-163.05 1558.12,-163.05 1558.12,-533.8 1558.12,-533.8 1558.12,-539.8 1552.12,-545.8 1546.12,-545.8"/>
<polygon fill="#34302c" stroke="none" points="1281.88,-519.05 1281.88,-541.8 1550.12,-541.8 1550.12,-519.05 1281.88,-519.05"/>
<polygon fill="none" stroke="#6e6963" points="1281.88,-519.05 1281.88,-541.8 1550.12,-541.8 1550.12,-519.05 1281.88,-519.05"/>
<text xml:space="preserve" text-anchor="start" x="1372.88" y="-528.3" font-family="Helvetica,sans-Serif" font-weight="bold" font-size="10.00" fill="#ece1d7">node fill — role</text>
<polygon fill="#3d3d54" stroke="none" points="1281.88,-496.3 1281.88,-519.05 1309.88,-519.05 1309.88,-496.3 1281.88,-496.3"/>
<polygon fill="none" stroke="#6e6963" points="1281.88,-496.3 1281.88,-519.05 1309.88,-519.05 1309.88,-496.3 1281.88,-496.3"/>
<polygon fill="none" stroke="#6e6963" points="1309.88,-496.3 1309.88,-519.05 1550.12,-519.05 1550.12,-496.3 1309.88,-496.3"/>
<text xml:space="preserve" text-anchor="start" x="1383.5" y="-504.3" font-family="Helvetica,sans-Serif" font-size="10.00" fill="#ece1d7">source PG / ingress</text>
<polygon fill="#4d3a28" stroke="none" points="1281.88,-473.55 1281.88,-496.3 1309.88,-496.3 1309.88,-473.55 1281.88,-473.55"/>
<polygon fill="none" stroke="#6e6963" points="1281.88,-473.55 1281.88,-496.3 1309.88,-496.3 1309.88,-473.55 1281.88,-473.55"/>
<polygon fill="none" stroke="#6e6963" points="1309.88,-473.55 1309.88,-496.3 1550.12,-496.3 1550.12,-473.55 1309.88,-473.55"/>
<text xml:space="preserve" text-anchor="start" x="1353.88" y="-481.55" font-family="Helvetica,sans-Serif" font-size="10.00" fill="#ece1d7">walshadow filter / queue (sync)</text>
<polygon fill="#4d3340" stroke="none" points="1281.88,-450.8 1281.88,-473.55 1309.88,-473.55 1309.88,-450.8 1281.88,-450.8"/>
<polygon fill="none" stroke="#6e6963" points="1281.88,-450.8 1281.88,-473.55 1309.88,-473.55 1309.88,-450.8 1281.88,-450.8"/>
<polygon fill="none" stroke="#6e6963" points="1309.88,-450.8 1309.88,-473.55 1550.12,-473.55 1550.12,-450.8 1309.88,-450.8"/>
<text xml:space="preserve" text-anchor="start" x="1316.38" y="-458.8" font-family="Helvetica,sans-Serif" font-size="10.00" fill="#ece1d7">walshadow output sinks (walsender, segment)</text>
<polygon fill="#4d4128" stroke="none" points="1281.88,-428.05 1281.88,-450.8 1309.88,-450.8 1309.88,-428.05 1281.88,-428.05"/>
<polygon fill="none" stroke="#6e6963" points="1281.88,-428.05 1281.88,-450.8 1309.88,-450.8 1309.88,-428.05 1281.88,-428.05"/>
<polygon fill="none" stroke="#6e6963" points="1309.88,-428.05 1309.88,-450.8 1550.12,-450.8 1550.12,-428.05 1309.88,-428.05"/>
<text xml:space="preserve" text-anchor="start" x="1348.25" y="-436.05" font-family="Helvetica,sans-Serif" font-size="10.00" fill="#ece1d7">walshadow decoder + xact buffer</text>
<polygon fill="#4d4d28" stroke="none" points="1281.88,-405.3 1281.88,-428.05 1309.88,-428.05 1309.88,-405.3 1281.88,-405.3"/>
<polygon fill="none" stroke="#6e6963" points="1281.88,-405.3 1281.88,-428.05 1309.88,-428.05 1309.88,-405.3 1281.88,-405.3"/>
<polygon fill="none" stroke="#6e6963" points="1309.88,-405.3 1309.88,-428.05 1550.12,-428.05 1550.12,-405.3 1309.88,-405.3"/>
<text xml:space="preserve" text-anchor="start" x="1314.88" y="-413.3" font-family="Helvetica,sans-Serif" font-size="10.00" fill="#ece1d7">walshadow ShadowCatalog + schema&#45;event tx</text>
<polygon fill="#5d3f40" stroke="none" points="1281.88,-382.55 1281.88,-405.3 1309.88,-405.3 1309.88,-382.55 1281.88,-382.55"/>
<polygon fill="none" stroke="#6e6963" points="1281.88,-382.55 1281.88,-405.3 1309.88,-405.3 1309.88,-382.55 1281.88,-382.55"/>
<polygon fill="none" stroke="#6e6963" points="1309.88,-382.55 1309.88,-405.3 1550.12,-405.3 1550.12,-382.55 1309.88,-382.55"/>
<text xml:space="preserve" text-anchor="start" x="1359.12" y="-390.55" font-family="Helvetica,sans-Serif" font-size="10.00" fill="#ece1d7">walshadow walsender server</text>
<polygon fill="#5d4628" stroke="none" points="1281.88,-359.8 1281.88,-382.55 1309.88,-382.55 1309.88,-359.8 1281.88,-359.8"/>
<polygon fill="none" stroke="#6e6963" points="1281.88,-359.8 1281.88,-382.55 1309.88,-382.55 1309.88,-359.8 1281.88,-359.8"/>
<polygon fill="none" stroke="#6e6963" points="1309.88,-359.8 1309.88,-382.55 1550.12,-382.55 1550.12,-359.8 1309.88,-359.8"/>
<text xml:space="preserve" text-anchor="start" x="1334.38" y="-367.8" font-family="Helvetica,sans-Serif" font-size="10.00" fill="#ece1d7">walshadow CH emitter + DdlApplicator</text>
<polygon fill="#4d3850" stroke="none" points="1281.88,-337.05 1281.88,-359.8 1309.88,-359.8 1309.88,-337.05 1281.88,-337.05"/>
<polygon fill="none" stroke="#6e6963" points="1281.88,-337.05 1281.88,-359.8 1309.88,-359.8 1309.88,-337.05 1281.88,-337.05"/>
<polygon fill="none" stroke="#6e6963" points="1309.88,-337.05 1309.88,-359.8 1550.12,-359.8 1550.12,-337.05 1309.88,-337.05"/>
<text xml:space="preserve" text-anchor="start" x="1392.88" y="-345.05" font-family="Helvetica,sans-Serif" font-size="10.00" fill="#ece1d7">on&#45;disk artifact</text>
<polygon fill="#3d4128" stroke="none" points="1281.88,-314.3 1281.88,-337.05 1309.88,-337.05 1309.88,-314.3 1281.88,-314.3"/>
<polygon fill="none" stroke="#6e6963" points="1281.88,-314.3 1281.88,-337.05 1309.88,-337.05 1309.88,-314.3 1281.88,-314.3"/>
<polygon fill="none" stroke="#6e6963" points="1309.88,-314.3 1309.88,-337.05 1550.12,-337.05 1550.12,-314.3 1309.88,-314.3"/>
<text xml:space="preserve" text-anchor="start" x="1388.75" y="-322.3" font-family="Helvetica,sans-Serif" font-size="10.00" fill="#ece1d7">shadow Postgres</text>
<polygon fill="#34302c" stroke="none" points="1281.88,-291.55 1281.88,-314.3 1550.12,-314.3 1550.12,-291.55 1281.88,-291.55"/>
<polygon fill="none" stroke="#6e6963" points="1281.88,-291.55 1281.88,-314.3 1550.12,-314.3 1550.12,-291.55 1281.88,-291.55"/>
<text xml:space="preserve" text-anchor="start" x="1382.25" y="-300.8" font-family="Helvetica,sans-Serif" font-weight="bold" font-size="10.00" fill="#ece1d7">edge colour</text>
<polygon fill="none" stroke="#6e6963" points="1281.88,-268.8 1281.88,-291.55 1309.88,-291.55 1309.88,-268.8 1281.88,-268.8"/>
<text xml:space="preserve" text-anchor="start" x="1289.88" y="-278.05" font-family="Helvetica,sans-Serif" font-weight="bold" font-size="10.00" fill="#a1a9cc">━━</text>
<polygon fill="none" stroke="#6e6963" points="1309.88,-268.8 1309.88,-291.55 1550.12,-291.55 1550.12,-268.8 1309.88,-268.8"/>
<text xml:space="preserve" text-anchor="start" x="1370.38" y="-276.8" font-family="Helvetica,sans-Serif" font-size="10.00" fill="#ece1d7">source replication frame</text>
<polygon fill="none" stroke="#6e6963" points="1281.88,-246.05 1281.88,-268.8 1309.88,-268.8 1309.88,-246.05 1281.88,-246.05"/>
<text xml:space="preserve" text-anchor="start" x="1289.88" y="-255.3" font-family="Helvetica,sans-Serif" font-weight="bold" font-size="10.00" fill="#bd8183">━━</text>
<polygon fill="none" stroke="#6e6963" points="1309.88,-246.05 1309.88,-268.8 1550.12,-268.8 1550.12,-246.05 1309.88,-246.05"/>
<text xml:space="preserve" text-anchor="start" x="1367.38" y="-254.05" font-family="Helvetica,sans-Serif" font-size="10.00" fill="#ece1d7">walsender wire (hot path)</text>
<polygon fill="none" stroke="#6e6963" points="1281.88,-223.3 1281.88,-246.05 1309.88,-246.05 1309.88,-223.3 1281.88,-223.3"/>
<text xml:space="preserve" text-anchor="start" x="1289.88" y="-232.55" font-family="Helvetica,sans-Serif" font-weight="bold" font-size="10.00" fill="#cba85e">━━</text>
<polygon fill="none" stroke="#6e6963" points="1309.88,-223.3 1309.88,-246.05 1550.12,-246.05 1550.12,-223.3 1309.88,-223.3"/>
<text xml:space="preserve" text-anchor="start" x="1344.12" y="-231.3" font-family="Helvetica,sans-Serif" font-size="10.00" fill="#ece1d7">libpq catalog query / schema event</text>
<polygon fill="none" stroke="#6e6963" points="1281.88,-200.55 1281.88,-223.3 1309.88,-223.3 1309.88,-200.55 1281.88,-200.55"/>
<text xml:space="preserve" text-anchor="start" x="1289.88" y="-209.8" font-family="Helvetica,sans-Serif" font-weight="bold" font-size="10.00" fill="#bf8c5f">━━</text>
<polygon fill="none" stroke="#6e6963" points="1309.88,-200.55 1309.88,-223.3 1550.12,-223.3 1550.12,-200.55 1309.88,-200.55"/>
<text xml:space="preserve" text-anchor="start" x="1360.25" y="-208.55" font-family="Helvetica,sans-Serif" font-size="10.00" fill="#ece1d7">CH Native (rows + DDL SQL)</text>
<polygon fill="none" stroke="#6e6963" points="1281.88,-177.8 1281.88,-200.55 1309.88,-200.55 1309.88,-177.8 1281.88,-177.8"/>
<text xml:space="preserve" text-anchor="start" x="1290.25" y="-187.05" font-family="Helvetica,sans-Serif" font-weight="bold" font-size="10.00" fill="#b380b0">···</text>
<polygon fill="none" stroke="#6e6963" points="1309.88,-177.8 1309.88,-200.55 1550.12,-200.55 1550.12,-177.8 1309.88,-177.8"/>
<text xml:space="preserve" text-anchor="start" x="1390.25" y="-185.8" font-family="Helvetica,sans-Serif" font-size="10.00" fill="#ece1d7">cursor durability</text>
<polygon fill="none" stroke="#6e6963" points="1281.88,-155.05 1281.88,-177.8 1309.88,-177.8 1309.88,-155.05 1281.88,-155.05"/>
<text xml:space="preserve" text-anchor="start" x="1289.88" y="-164.3" font-family="Helvetica,sans-Serif" font-weight="bold" font-size="10.00" fill="#6e6963">┄┄</text>
<polygon fill="none" stroke="#6e6963" points="1309.88,-155.05 1309.88,-177.8 1550.12,-177.8 1550.12,-155.05 1309.88,-155.05"/>
<text xml:space="preserve" text-anchor="start" x="1355" y="-163.05" font-family="Helvetica,sans-Serif" font-size="10.00" fill="#ece1d7">filesystem (restore_command)</text>
</g>
<!-- ch&#45;&gt;legend -->
<!-- chunks -->
<g id="node5" class="node">
<title>chunks</title>
<path fill="#3d3d54" stroke="#6e6963" d="M947.66,-2278.86C947.66,-2278.86 728.81,-2278.86 728.81,-2278.86 722.81,-2278.86 713.45,-2273.89 710.09,-2268.91 710.09,-2268.91 661.05,-2196.3 661.05,-2196.3 657.7,-2191.33 660.34,-2186.36 666.34,-2186.36 666.34,-2186.36 885.19,-2186.36 885.19,-2186.36 891.19,-2186.36 900.55,-2191.33 903.91,-2196.3 903.91,-2196.3 952.95,-2268.91 952.95,-2268.91 956.3,-2273.89 953.66,-2278.86 947.66,-2278.86"/>
<text xml:space="preserve" text-anchor="middle" x="807" y="-2242.23" font-family="Helvetica,sans-Serif" font-size="10.00" fill="#ece1d7">WalChunk stream</text>
<text xml:space="preserve" text-anchor="middle" x="807" y="-2229.48" font-family="Helvetica,sans-Serif" font-size="10.00" fill="#ece1d7">(start_lsn, server_wal_end,</text>
<text xml:space="preserve" text-anchor="middle" x="807" y="-2216.73" font-family="Helvetica,sans-Serif" font-size="10.00" fill="#ece1d7"> bytes)</text>
</g>
<!-- feed&#45;&gt;chunks -->
<g id="edge1" class="edge">
<title>feed&#45;&gt;chunks</title>
<path fill="none" stroke="#c1a78e" d="M807,-2319.4C807,-2310.53 807,-2300.44 807,-2290.37"/>
<polygon fill="#c1a78e" stroke="#c1a78e" points="810.5,-2290.6 807,-2280.6 803.5,-2290.6 810.5,-2290.6"/>
</g>
<!-- walker -->
<g id="node6" class="node">
<title>walker</title>
<path fill="#4d3a28" stroke="#6e6963" d="M866.75,-2124.11C866.75,-2124.11 747.25,-2124.11 747.25,-2124.11 741.25,-2124.11 735.25,-2118.11 735.25,-2112.11 735.25,-2112.11 735.25,-2089.86 735.25,-2089.86 735.25,-2083.86 741.25,-2077.86 747.25,-2077.86 747.25,-2077.86 866.75,-2077.86 866.75,-2077.86 872.75,-2077.86 878.75,-2083.86 878.75,-2089.86 878.75,-2089.86 878.75,-2112.11 878.75,-2112.11 878.75,-2118.11 872.75,-2124.11 866.75,-2124.11"/>
<text xml:space="preserve" text-anchor="middle" x="807" y="-2110.61" font-family="Helvetica,sans-Serif" font-size="10.00" fill="#ece1d7">StreamingWalker</text>
<text xml:space="preserve" text-anchor="middle" x="807" y="-2097.86" font-family="Helvetica,sans-Serif" font-size="10.00" fill="#ece1d7">page&#45;state machine</text>
<text xml:space="preserve" text-anchor="middle" x="807" y="-2085.11" font-family="Helvetica,sans-Serif" font-size="10.00" fill="#ece1d7">record stitch across pages</text>
</g>
<!-- chunks&#45;&gt;walker -->
<g id="edge6" class="edge">
<title>chunks&#45;&gt;walker</title>
<path fill="none" stroke="#a1a9cc" stroke-width="2" d="M807,-2185.91C807,-2169.95 807,-2152.29 807,-2137.3"/>
<polygon fill="#a1a9cc" stroke="#a1a9cc" stroke-width="2" points="810.5,-2137.45 807,-2127.45 803.5,-2137.45 810.5,-2137.45"/>
</g>
<!-- decide -->
<g id="node8" class="node">
<title>decide</title>
<path fill="#4d3a28" stroke="#6e6963" d="M843.12,-2036.86C843.12,-2036.86 770.88,-2036.86 770.88,-2036.86 764.88,-2036.86 758.88,-2030.86 758.88,-2024.86 758.88,-2024.86 758.88,-1989.86 758.88,-1989.86 758.88,-1983.86 764.88,-1977.86 770.88,-1977.86 770.88,-1977.86 843.12,-1977.86 843.12,-1977.86 849.12,-1977.86 855.12,-1983.86 855.12,-1989.86 855.12,-1989.86 855.12,-2024.86 855.12,-2024.86 855.12,-2030.86 849.12,-2036.86 843.12,-2036.86"/>
<text xml:space="preserve" text-anchor="middle" x="807" y="-2023.36" font-family="Helvetica,sans-Serif" font-size="10.00" fill="#ece1d7">Filter::decide</text>
<text xml:space="preserve" text-anchor="middle" x="807" y="-2010.61" font-family="Helvetica,sans-Serif" font-size="10.00" fill="#ece1d7">Keep catalog</text>
<text xml:space="preserve" text-anchor="middle" x="807" y="-1997.86" font-family="Helvetica,sans-Serif" font-size="10.00" fill="#ece1d7">Drop user&#45;heap</text>
<text xml:space="preserve" text-anchor="middle" x="807" y="-1985.11" font-family="Helvetica,sans-Serif" font-size="10.00" fill="#ece1d7">Empty → reclass</text>
</g>
<!-- walker&#45;&gt;decide -->
<g id="edge2" class="edge">
<title>walker&#45;&gt;decide</title>
<path fill="none" stroke="#c1a78e" d="M807,-2077.8C807,-2069.05 807,-2058.71 807,-2048.72"/>
<polygon fill="#c1a78e" stroke="#c1a78e" points="810.5,-2048.78 807,-2038.78 803.5,-2048.78 810.5,-2048.78"/>
</g>
<!-- track -->
<g id="node7" class="node">
<title>track</title>
<path fill="#4d3a28" stroke="#6e6963" d="M783.62,-1936.86C783.62,-1936.86 660.38,-1936.86 660.38,-1936.86 654.38,-1936.86 648.38,-1930.86 648.38,-1924.86 648.38,-1924.86 648.38,-1902.61 648.38,-1902.61 648.38,-1896.61 654.38,-1890.61 660.38,-1890.61 660.38,-1890.61 783.62,-1890.61 783.62,-1890.61 789.62,-1890.61 795.62,-1896.61 795.62,-1902.61 795.62,-1902.61 795.62,-1924.86 795.62,-1924.86 795.62,-1930.86 789.62,-1936.86 783.62,-1936.86"/>
<text xml:space="preserve" text-anchor="middle" x="722" y="-1923.36" font-family="Helvetica,sans-Serif" font-size="10.00" fill="#ece1d7">CatalogTracker</text>
<text xml:space="preserve" text-anchor="middle" x="722" y="-1910.61" font-family="Helvetica,sans-Serif" font-size="10.00" fill="#ece1d7">relfilenode set</text>
<text xml:space="preserve" text-anchor="middle" x="722" y="-1897.86" font-family="Helvetica,sans-Serif" font-size="10.00" fill="#ece1d7">(relmap + pg_class writes)</text>
</g>
<!-- inval -->
<g id="node27" class="node">
<title>inval</title>
<path fill="#4d4d28" stroke="#6e6963" d="M640.88,-777.3C640.88,-777.3 561.12,-777.3 561.12,-777.3 555.12,-777.3 549.12,-771.3 549.12,-765.3 549.12,-765.3 549.12,-730.3 549.12,-730.3 549.12,-724.3 555.12,-718.3 561.12,-718.3 561.12,-718.3 640.88,-718.3 640.88,-718.3 646.88,-718.3 652.88,-724.3 652.88,-730.3 652.88,-730.3 652.88,-765.3 652.88,-765.3 652.88,-771.3 646.88,-777.3 640.88,-777.3"/>
<text xml:space="preserve" text-anchor="middle" x="601" y="-763.8" font-family="Helvetica,sans-Serif" font-size="10.00" fill="#ece1d7">invalidation_drain</text>
<text xml:space="preserve" text-anchor="middle" x="601" y="-751.05" font-family="Helvetica,sans-Serif" font-size="10.00" fill="#ece1d7">(tokio task)</text>
<text xml:space="preserve" text-anchor="middle" x="601" y="-738.3" font-family="Helvetica,sans-Serif" font-size="10.00" fill="#ece1d7">bump generation</text>
<text xml:space="preserve" text-anchor="middle" x="601" y="-725.55" font-family="Helvetica,sans-Serif" font-size="10.00" fill="#ece1d7">on catalog write</text>
</g>
<!-- track&#45;&gt;inval -->
<g id="edge28" class="edge">
<title>track&#45;&gt;inval</title>
<path fill="none" stroke="#cba85e" stroke-dasharray="5,2" d="M651.61,-1890.23C624.99,-1876.95 601,-1856.86 601,-1827.58 601,-1827.58 601,-1827.58 601,-878.3 601,-848.41 601,-814.64 601,-789.08"/>
<polygon fill="#cba85e" stroke="#cba85e" points="604.5,-789.11 601,-779.11 597.5,-789.11 604.5,-789.11"/>
</g>
<!-- decide&#45;&gt;track -->
<g id="edge5" class="edge">
<title>decide&#45;&gt;track</title>
<path fill="none" stroke="#c1a78e" stroke-dasharray="5,2" d="M772.55,-1969.23C765.15,-1961.24 757.4,-1952.89 750.26,-1945.2"/>
<polygon fill="#c1a78e" stroke="#c1a78e" points="779.28,-1976.48 769.18,-1972.2 776.7,-1973.7 772.48,-1969.14 772.48,-1969.14 772.48,-1969.14 776.7,-1973.7 775.77,-1966.08 779.28,-1976.48"/>
<polygon fill="#c1a78e" stroke="#c1a78e" points="753.19,-1943.21 743.82,-1938.26 748.06,-1947.97 753.19,-1943.21"/>
</g>
<!-- rewrite -->
<g id="node9" class="node">
<title>rewrite</title>
<path fill="#4d3a28" stroke="#6e6963" d="M946.38,-1936.86C946.38,-1936.86 839.62,-1936.86 839.62,-1936.86 833.62,-1936.86 827.62,-1930.86 827.62,-1924.86 827.62,-1924.86 827.62,-1902.61 827.62,-1902.61 827.62,-1896.61 833.62,-1890.61 839.62,-1890.61 839.62,-1890.61 946.38,-1890.61 946.38,-1890.61 952.38,-1890.61 958.38,-1896.61 958.38,-1902.61 958.38,-1902.61 958.38,-1924.86 958.38,-1924.86 958.38,-1930.86 952.38,-1936.86 946.38,-1936.86"/>
<text xml:space="preserve" text-anchor="middle" x="893" y="-1923.36" font-family="Helvetica,sans-Serif" font-size="10.00" fill="#ece1d7">rewrite::noop_replace</text>
<text xml:space="preserve" text-anchor="middle" x="893" y="-1910.61" font-family="Helvetica,sans-Serif" font-size="10.00" fill="#ece1d7">in&#45;place at byte_ranges</text>
<text xml:space="preserve" text-anchor="middle" x="893" y="-1897.86" font-family="Helvetica,sans-Serif" font-size="10.00" fill="#ece1d7">+ CRC32C recompute</text>
</g>
<!-- decide&#45;&gt;rewrite -->
<g id="edge3" class="edge">
<title>decide&#45;&gt;rewrite</title>
<path fill="none" stroke="#c1a78e" d="M834.21,-1977.37C843.75,-1967.21 854.48,-1955.77 864.15,-1945.48"/>
<polygon fill="#c1a78e" stroke="#c1a78e" points="866.63,-1947.94 870.93,-1938.25 861.53,-1943.15 866.63,-1947.94"/>
</g>
<!-- segbuf -->
<g id="node10" class="node">
<title>segbuf</title>
<path fill="#4d3a28" stroke="#6e6963" d="M957.5,-1845.42C957.5,-1847.73 929.04,-1849.61 894,-1849.61 858.96,-1849.61 830.5,-1847.73 830.5,-1845.42 830.5,-1845.42 830.5,-1807.73 830.5,-1807.73 830.5,-1805.42 858.96,-1803.55 894,-1803.55 929.04,-1803.55 957.5,-1805.42 957.5,-1807.73 957.5,-1807.73 957.5,-1845.42 957.5,-1845.42"/>
<path fill="none" stroke="#6e6963" d="M957.5,-1845.42C957.5,-1843.11 929.04,-1841.23 894,-1841.23 858.96,-1841.23 830.5,-1843.11 830.5,-1845.42"/>
<text xml:space="preserve" text-anchor="middle" x="894" y="-1829.83" font-family="Helvetica,sans-Serif" font-size="10.00" fill="#ece1d7">16 MiB segment buffer</text>
<text xml:space="preserve" text-anchor="middle" x="894" y="-1817.08" font-family="Helvetica,sans-Serif" font-size="10.00" fill="#ece1d7">(rewritten image)</text>
</g>
<!-- rewrite&#45;&gt;segbuf -->
<g id="edge4" class="edge">
<title>rewrite&#45;&gt;segbuf</title>
<path fill="none" stroke="#c1a78e" d="M893.26,-1890.36C893.37,-1881.53 893.49,-1871.19 893.6,-1861.49"/>
<polygon fill="#c1a78e" stroke="#c1a78e" points="897.1,-1861.65 893.72,-1851.61 890.1,-1861.57 897.1,-1861.65"/>
</g>
<!-- bytesink -->
<g id="node11" class="node">
<title>bytesink</title>
<path fill="#4d3340" stroke="#6e6963" d="M863.25,-1734.92C863.25,-1734.92 764.75,-1734.92 764.75,-1734.92 758.75,-1734.92 752.75,-1728.92 752.75,-1722.92 752.75,-1722.92 752.75,-1700.67 752.75,-1700.67 752.75,-1694.67 758.75,-1688.67 764.75,-1688.67 764.75,-1688.67 863.25,-1688.67 863.25,-1688.67 869.25,-1688.67 875.25,-1694.67 875.25,-1700.67 875.25,-1700.67 875.25,-1722.92 875.25,-1722.92 875.25,-1728.92 869.25,-1734.92 863.25,-1734.92"/>
<text xml:space="preserve" text-anchor="middle" x="814" y="-1721.42" font-family="Helvetica,sans-Serif" font-size="10.00" fill="#ece1d7">❶ ShadowStreamSink</text>
<text xml:space="preserve" text-anchor="middle" x="814" y="-1708.67" font-family="Helvetica,sans-Serif" font-size="10.00" fill="#ece1d7">on_record_bytes</text>
<text xml:space="preserve" text-anchor="middle" x="814" y="-1695.92" font-family="Helvetica,sans-Serif" font-size="10.00" fill="#ece1d7">(stays on pump)</text>
</g>
<!-- segbuf&#45;&gt;bytesink -->
<g id="edge7" class="edge">
<title>segbuf&#45;&gt;bytesink</title>
<path fill="none" stroke="#bd8183" stroke-width="2" d="M878.19,-1803.3C866.6,-1786.95 850.66,-1764.48 837.57,-1746.02"/>
<polygon fill="#bd8183" stroke="#bd8183" stroke-width="2" points="840.44,-1744.02 831.8,-1737.89 834.73,-1748.07 840.44,-1744.02"/>
</g>
<!-- recsink -->
<g id="node12" class="node">
<title>recsink</title>
<path fill="#4d3340" stroke="#6e6963" d="M1180.25,-1741.3C1180.25,-1741.3 1081.75,-1741.3 1081.75,-1741.3 1075.75,-1741.3 1069.75,-1735.3 1069.75,-1729.3 1069.75,-1729.3 1069.75,-1694.3 1069.75,-1694.3 1069.75,-1688.3 1075.75,-1682.3 1081.75,-1682.3 1081.75,-1682.3 1180.25,-1682.3 1180.25,-1682.3 1186.25,-1682.3 1192.25,-1688.3 1192.25,-1694.3 1192.25,-1694.3 1192.25,-1729.3 1192.25,-1729.3 1192.25,-1735.3 1186.25,-1741.3 1180.25,-1741.3"/>
<text xml:space="preserve" text-anchor="middle" x="1131" y="-1727.8" font-family="Helvetica,sans-Serif" font-size="10.00" fill="#ece1d7">❷ on_record →</text>
<text xml:space="preserve" text-anchor="middle" x="1131" y="-1715.05" font-family="Helvetica,sans-Serif" font-size="10.00" fill="#ece1d7">QueueingRecordSink</text>
<text xml:space="preserve" text-anchor="middle" x="1131" y="-1702.3" font-family="Helvetica,sans-Serif" font-size="10.00" fill="#ece1d7">(clones + enqueues,</text>
<text xml:space="preserve" text-anchor="middle" x="1131" y="-1689.55" font-family="Helvetica,sans-Serif" font-size="10.00" fill="#ece1d7"> returns immediately)</text>
</g>
<!-- segbuf&#45;&gt;recsink -->
<g id="edge8" class="edge">
<title>segbuf&#45;&gt;recsink</title>
<path fill="none" stroke="#c1a78e" d="M957.75,-1809.71C986.51,-1801.27 1020.38,-1789.51 1049,-1774.55 1062.72,-1767.37 1076.57,-1757.96 1088.88,-1748.65"/>
<polygon fill="#c1a78e" stroke="#c1a78e" points="1091.02,-1751.42 1096.77,-1742.52 1086.73,-1745.89 1091.02,-1751.42"/>
</g>
<!-- segsink -->
<g id="node13" class="node">
<title>segsink</title>
<path fill="#4d3340" stroke="#6e6963" d="M1021.38,-1734.92C1021.38,-1734.92 926.62,-1734.92 926.62,-1734.92 920.62,-1734.92 914.62,-1728.92 914.62,-1722.92 914.62,-1722.92 914.62,-1700.67 914.62,-1700.67 914.62,-1694.67 920.62,-1688.67 926.62,-1688.67 926.62,-1688.67 1021.38,-1688.67 1021.38,-1688.67 1027.38,-1688.67 1033.38,-1694.67 1033.38,-1700.67 1033.38,-1700.67 1033.38,-1722.92 1033.38,-1722.92 1033.38,-1728.92 1027.38,-1734.92 1021.38,-1734.92"/>
<text xml:space="preserve" text-anchor="middle" x="974" y="-1721.42" font-family="Helvetica,sans-Serif" font-size="10.00" fill="#ece1d7">❸ DirSegmentSink</text>
<text xml:space="preserve" text-anchor="middle" x="974" y="-1708.67" font-family="Helvetica,sans-Serif" font-size="10.00" fill="#ece1d7">on_segment</text>
<text xml:space="preserve" text-anchor="middle" x="974" y="-1695.92" font-family="Helvetica,sans-Serif" font-size="10.00" fill="#ece1d7">(at 16 MiB boundary)</text>
</g>
<!-- segbuf&#45;&gt;segsink -->
<g id="edge9" class="edge">
<title>segbuf&#45;&gt;segsink</title>
<path fill="none" stroke="#c1a78e" stroke-dasharray="5,2" d="M909.81,-1803.3C921.67,-1786.57 938.09,-1763.43 951.35,-1744.73"/>
<polygon fill="#c1a78e" stroke="#c1a78e" points="954.15,-1746.83 957.08,-1736.65 948.44,-1742.78 954.15,-1746.83"/>
</g>
<!-- sendq -->
<g id="node32" class="node">
<title>sendq</title>
<path fill="#5d3f40" stroke="#6e6963" d="M1029.5,-371.55C1029.5,-371.55 926.5,-371.55 926.5,-371.55 920.5,-371.55 914.5,-365.55 914.5,-359.55 914.5,-359.55 914.5,-337.3 914.5,-337.3 914.5,-331.3 920.5,-325.3 926.5,-325.3 926.5,-325.3 1029.5,-325.3 1029.5,-325.3 1035.5,-325.3 1041.5,-331.3 1041.5,-337.3 1041.5,-337.3 1041.5,-359.55 1041.5,-359.55 1041.5,-365.55 1035.5,-371.55 1029.5,-371.55"/>
<text xml:space="preserve" text-anchor="middle" x="978" y="-358.05" font-family="Helvetica,sans-Serif" font-size="10.00" fill="#ece1d7">per&#45;conn send queue</text>
<text xml:space="preserve" text-anchor="middle" x="978" y="-345.3" font-family="Helvetica,sans-Serif" font-size="10.00" fill="#ece1d7">&#39;w&#39; XLogData @ record</text>
<text xml:space="preserve" text-anchor="middle" x="978" y="-332.55" font-family="Helvetica,sans-Serif" font-size="10.00" fill="#ece1d7">&#39;k&#39; keepalive on idle</text>
</g>
<!-- bytesink&#45;&gt;sendq -->
<g id="edge31" class="edge">
<title>bytesink&#45;&gt;sendq</title>
<path fill="none" stroke="#bd8183" stroke-width="2" d="M809.98,-1688.26C805.54,-1661.35 799,-1614.94 799,-1574.8 799,-1574.8 799,-1574.8 799,-625.55 799,-522.5 887.86,-427.58 940.37,-380.5"/>
<polygon fill="#bd8183" stroke="#bd8183" stroke-width="2" points="942.56,-383.23 947.76,-374 937.94,-377.97 942.56,-383.23"/>
</g>
<!-- qbuf -->
<g id="node14" class="node">
<title>qbuf</title>
<path fill="#4d3a28" stroke="#6e6963" d="M1451.78,-1620.05C1451.78,-1620.05 1261.38,-1620.05 1261.38,-1620.05 1255.38,-1620.05 1246.3,-1614.89 1243.23,-1609.74 1243.23,-1609.74 1200.37,-1537.85 1200.37,-1537.85 1197.29,-1532.7 1200.22,-1527.55 1206.22,-1527.55 1206.22,-1527.55 1396.62,-1527.55 1396.62,-1527.55 1402.62,-1527.55 1411.7,-1532.7 1414.77,-1537.85 1414.77,-1537.85 1457.63,-1609.74 1457.63,-1609.74 1460.71,-1614.89 1457.78,-1620.05 1451.78,-1620.05"/>
<text xml:space="preserve" text-anchor="middle" x="1329" y="-1583.42" font-family="Helvetica,sans-Serif" font-size="10.00" fill="#ece1d7">pump&#45;side batch</text>
<text xml:space="preserve" text-anchor="middle" x="1329" y="-1570.67" font-family="Helvetica,sans-Serif" font-size="10.00" fill="#ece1d7">Vec&lt;Record&lt;&#39;static&gt;&gt;</text>
<text xml:space="preserve" text-anchor="middle" x="1329" y="-1557.92" font-family="Helvetica,sans-Serif" font-size="10.00" fill="#ece1d7">batch_size = 64</text>
</g>
<!-- recsink&#45;&gt;qbuf -->
<g id="edge13" class="edge">
<title>recsink&#45;&gt;qbuf</title>
<path fill="none" stroke="#c1a78e" d="M1172.99,-1681.95C1182.87,-1675.17 1193.9,-1667.59 1205.4,-1659.69"/>
<polygon fill="#c1a78e" stroke="#c1a78e" points="1207.21,-1662.7 1213.47,-1654.15 1203.24,-1656.93 1207.21,-1662.7"/>
</g>
<!-- outdir -->
<g id="node34" class="node">
<title>outdir</title>
<polygon fill="#4d3850" stroke="#6e6963" points="1270,-770.92 1182,-770.92 1182,-724.67 1276,-724.67 1276,-764.92 1270,-770.92"/>
<polyline fill="none" stroke="#6e6963" points="1270,-770.92 1270,-764.92"/>
<polyline fill="none" stroke="#6e6963" points="1276,-764.92 1270,-764.92"/>
<text xml:space="preserve" text-anchor="middle" x="1229" y="-757.42" font-family="Helvetica,sans-Serif" font-size="10.00" fill="#ece1d7">out/&lt;seg&gt;</text>
<text xml:space="preserve" text-anchor="middle" x="1229" y="-744.67" font-family="Helvetica,sans-Serif" font-size="10.00" fill="#ece1d7">16 MiB filtered</text>
<text xml:space="preserve" text-anchor="middle" x="1229" y="-731.92" font-family="Helvetica,sans-Serif" font-size="10.00" fill="#ece1d7">+ manifest.json</text>
</g>
<!-- segsink&#45;&gt;outdir -->
<g id="edge37" class="edge">
<title>segsink&#45;&gt;outdir</title>
<path fill="none" stroke="#c1a78e" d="M1013.95,-1688.3C1049.53,-1664.97 1096,-1624.91 1096,-1574.8 1096,-1574.8 1096,-1574.8 1096,-878.3 1096,-833.03 1136.03,-798.46 1172.17,-776.46"/>
<polygon fill="#c1a78e" stroke="#c1a78e" points="1173.56,-779.71 1180.43,-771.64 1170.03,-773.66 1173.56,-779.71"/>
</g>
<!-- qchan -->
<g id="node15" class="node">
<title>qchan</title>
<path fill="#4d3a28" stroke="#6e6963" d="M1485.33,-1486.55C1485.33,-1486.55 1303.59,-1486.55 1303.59,-1486.55 1297.59,-1486.55 1288.61,-1481.34 1285.63,-1476.13 1285.63,-1476.13 1244.62,-1404.46 1244.62,-1404.46 1241.64,-1399.25 1244.67,-1394.05 1250.67,-1394.05 1250.67,-1394.05 1432.41,-1394.05 1432.41,-1394.05 1438.41,-1394.05 1447.39,-1399.25 1450.37,-1404.46 1450.37,-1404.46 1491.38,-1476.13 1491.38,-1476.13 1494.36,-1481.34 1491.33,-1486.55 1485.33,-1486.55"/>
<text xml:space="preserve" text-anchor="middle" x="1368" y="-1449.92" font-family="Helvetica,sans-Serif" font-size="10.00" fill="#ece1d7">unbounded mpsc</text>
<text xml:space="preserve" text-anchor="middle" x="1368" y="-1437.17" font-family="Helvetica,sans-Serif" font-size="10.00" fill="#ece1d7">Vec&lt;Record&gt; batches</text>
<text xml:space="preserve" text-anchor="middle" x="1368" y="-1424.42" font-family="Helvetica,sans-Serif" font-size="10.00" fill="#ece1d7">soft cap → yield_now</text>
</g>
<!-- qbuf&#45;&gt;qchan -->
<g id="edge10" class="edge">
<title>qbuf&#45;&gt;qchan</title>
<path fill="none" stroke="#c1a78e" d="M1342.53,-1527.17C1345.34,-1517.69 1348.34,-1507.58 1351.25,-1497.76"/>
<polygon fill="#c1a78e" stroke="#c1a78e" points="1354.57,-1498.87 1354.06,-1488.29 1347.86,-1496.88 1354.57,-1498.87"/>
</g>
<!-- qwrk -->
<g id="node16" class="node">
<title>qwrk</title>
<path fill="#4d3a28" stroke="#6e6963" d="M1471.75,-1353.05C1471.75,-1353.05 1394.25,-1353.05 1394.25,-1353.05 1388.25,-1353.05 1382.25,-1347.05 1382.25,-1341.05 1382.25,-1341.05 1382.25,-1318.8 1382.25,-1318.8 1382.25,-1312.8 1388.25,-1306.8 1394.25,-1306.8 1394.25,-1306.8 1471.75,-1306.8 1471.75,-1306.8 1477.75,-1306.8 1483.75,-1312.8 1483.75,-1318.8 1483.75,-1318.8 1483.75,-1341.05 1483.75,-1341.05 1483.75,-1347.05 1477.75,-1353.05 1471.75,-1353.05"/>
<text xml:space="preserve" text-anchor="middle" x="1433" y="-1339.55" font-family="Helvetica,sans-Serif" font-size="10.00" fill="#ece1d7">worker task</text>
<text xml:space="preserve" text-anchor="middle" x="1433" y="-1326.8" font-family="Helvetica,sans-Serif" font-size="10.00" fill="#ece1d7">drains batches,</text>
<text xml:space="preserve" text-anchor="middle" x="1433" y="-1314.05" font-family="Helvetica,sans-Serif" font-size="10.00" fill="#ece1d7">fires on_idle ticks</text>
</g>
<!-- qchan&#45;&gt;qwrk -->
<g id="edge11" class="edge">
<title>qchan&#45;&gt;qwrk</title>
<path fill="none" stroke="#c1a78e" d="M1395.38,-1393.65C1401.49,-1383.45 1407.86,-1372.85 1413.57,-1363.31"/>
<polygon fill="#c1a78e" stroke="#c1a78e" points="1416.56,-1365.14 1418.7,-1354.77 1410.55,-1361.54 1416.56,-1365.14"/>
</g>
<!-- qerr -->
<g id="node17" class="node">
<title>qerr</title>
<polygon fill="#4d3a28" stroke="#6e6963" points="1490.5,-1239.42 1369.5,-1239.42 1369.5,-1203.42 1496.5,-1203.42 1496.5,-1233.42 1490.5,-1239.42"/>
<polyline fill="none" stroke="#6e6963" points="1490.5,-1239.42 1490.5,-1233.42"/>
<polyline fill="none" stroke="#6e6963" points="1496.5,-1233.42 1490.5,-1233.42"/>
<text xml:space="preserve" text-anchor="middle" x="1433" y="-1224.67" font-family="Helvetica,sans-Serif" font-size="10.00" fill="#ece1d7">shared err slot</text>
<text xml:space="preserve" text-anchor="middle" x="1433" y="-1211.92" font-family="Helvetica,sans-Serif" font-size="10.00" fill="#ece1d7">surfaces back to pump</text>
</g>
<!-- qwrk&#45;&gt;qerr -->
<g id="edge12" class="edge">
<title>qwrk&#45;&gt;qerr</title>
<path fill="none" stroke="#b58b86" stroke-dasharray="5,2" d="M1433,-1306.34C1433,-1290.24 1433,-1268.48 1433,-1251.15"/>
<polygon fill="#b58b86" stroke="#b58b86" points="1436.5,-1251.23 1433,-1241.23 1429.5,-1251.23 1436.5,-1251.23"/>
</g>
<!-- catgate -->
<g id="node18" class="node">
<title>catgate</title>
<path fill="#4d4128" stroke="#6e6963" d="M1657.25,-1244.55C1657.25,-1244.55 1552.75,-1244.55 1552.75,-1244.55 1546.75,-1244.55 1540.75,-1238.55 1540.75,-1232.55 1540.75,-1232.55 1540.75,-1210.3 1540.75,-1210.3 1540.75,-1204.3 1546.75,-1198.3 1552.75,-1198.3 1552.75,-1198.3 1657.25,-1198.3 1657.25,-1198.3 1663.25,-1198.3 1669.25,-1204.3 1669.25,-1210.3 1669.25,-1210.3 1669.25,-1232.55 1669.25,-1232.55 1669.25,-1238.55 1663.25,-1244.55 1657.25,-1244.55"/>
<text xml:space="preserve" text-anchor="middle" x="1605" y="-1231.05" font-family="Helvetica,sans-Serif" font-size="10.00" fill="#ece1d7">BufferingDecoderSink</text>
<text xml:space="preserve" text-anchor="middle" x="1605" y="-1218.3" font-family="Helvetica,sans-Serif" font-size="10.00" fill="#ece1d7">relation_at(rfn, lsn)</text>
<text xml:space="preserve" text-anchor="middle" x="1605" y="-1205.55" font-family="Helvetica,sans-Serif" font-size="10.00" fill="#ece1d7">wait_for_replay(at_lsn)</text>
</g>
<!-- qwrk&#45;&gt;catgate -->
<g id="edge17" class="edge">
<title>qwrk&#45;&gt;catgate</title>
<path fill="none" stroke="#c1a78e" d="M1478.19,-1306.52C1491.3,-1299.68 1505.75,-1291.8 1519.31,-1283.71"/>
<polygon fill="#c1a78e" stroke="#c1a78e" points="1521,-1286.78 1527.71,-1278.59 1517.35,-1280.81 1521,-1286.78"/>
</g>
<!-- decoder -->
<g id="node19" class="node">
<title>decoder</title>
<path fill="#4d4128" stroke="#6e6963" d="M1671.25,-1157.3C1671.25,-1157.3 1548.75,-1157.3 1548.75,-1157.3 1542.75,-1157.3 1536.75,-1151.3 1536.75,-1145.3 1536.75,-1145.3 1536.75,-1084.8 1536.75,-1084.8 1536.75,-1078.8 1542.75,-1072.8 1548.75,-1072.8 1548.75,-1072.8 1671.25,-1072.8 1671.25,-1072.8 1677.25,-1072.8 1683.25,-1078.8 1683.25,-1084.8 1683.25,-1084.8 1683.25,-1145.3 1683.25,-1145.3 1683.25,-1151.3 1677.25,-1157.3 1671.25,-1157.3"/>
<text xml:space="preserve" text-anchor="middle" x="1610" y="-1143.8" font-family="Helvetica,sans-Serif" font-size="10.00" fill="#ece1d7">heap_decoder</text>
<text xml:space="preserve" text-anchor="middle" x="1610" y="-1131.05" font-family="Helvetica,sans-Serif" font-size="10.00" fill="#ece1d7">INSERT / DELETE /</text>
<text xml:space="preserve" text-anchor="middle" x="1610" y="-1118.3" font-family="Helvetica,sans-Serif" font-size="10.00" fill="#ece1d7">UPDATE / HOT / TRUNCATE</text>
<text xml:space="preserve" text-anchor="middle" x="1610" y="-1105.55" font-family="Helvetica,sans-Serif" font-size="10.00" fill="#ece1d7">Tier&#45;1 fixed&#45;width</text>
<text xml:space="preserve" text-anchor="middle" x="1610" y="-1092.8" font-family="Helvetica,sans-Serif" font-size="10.00" fill="#ece1d7">Tier&#45;2 length&#45;prefixed</text>
<text xml:space="preserve" text-anchor="middle" x="1610" y="-1080.05" font-family="Helvetica,sans-Serif" font-size="10.00" fill="#ece1d7">Replica&#45;identity matrix</text>
</g>
<!-- catgate&#45;&gt;decoder -->
<g id="edge14" class="edge">
<title>catgate&#45;&gt;decoder</title>
<path fill="none" stroke="#c1a78e" d="M1606.07,-1198.03C1606.48,-1189.5 1606.97,-1179.37 1607.45,-1169.2"/>
<polygon fill="#c1a78e" stroke="#c1a78e" points="1610.95,-1169.44 1607.93,-1159.28 1603.95,-1169.1 1610.95,-1169.44"/>
</g>
<!-- lru -->
<g id="node25" class="node">
<title>lru</title>
<path fill="#4d4d28" stroke="#6e6963" d="M648.75,-649.67C648.75,-649.67 553.25,-649.67 553.25,-649.67 547.25,-649.67 541.25,-643.67 541.25,-637.67 541.25,-637.67 541.25,-615.42 541.25,-615.42 541.25,-609.42 547.25,-603.42 553.25,-603.42 553.25,-603.42 648.75,-603.42 648.75,-603.42 654.75,-603.42 660.75,-609.42 660.75,-615.42 660.75,-615.42 660.75,-637.67 660.75,-637.67 660.75,-643.67 654.75,-649.67 648.75,-649.67"/>
<text xml:space="preserve" text-anchor="middle" x="601" y="-636.17" font-family="Helvetica,sans-Serif" font-size="10.00" fill="#ece1d7">LRU 4096</text>
<text xml:space="preserve" text-anchor="middle" x="601" y="-623.42" font-family="Helvetica,sans-Serif" font-size="10.00" fill="#ece1d7">by_filenode / by_oid</text>
<text xml:space="preserve" text-anchor="middle" x="601" y="-610.67" font-family="Helvetica,sans-Serif" font-size="10.00" fill="#ece1d7">+ generation counter</text>
</g>
<!-- catgate&#45;&gt;lru -->
<g id="edge27" class="edge">
<title>catgate&#45;&gt;lru</title>
<path fill="none" stroke="#cba85e" stroke-dasharray="5,2" d="M1540.6,-1198.1C1536.7,-1197.11 1532.81,-1196.2 1529,-1195.42 1430.67,-1175.37 1159.28,-1217.52 1079,-1157.3 911.08,-1031.35 1063.71,-858.54 909,-716.67 843.81,-656.89 740.88,-636.98 672.18,-630.48"/>
<polygon fill="#cba85e" stroke="#cba85e" points="672.81,-627.03 662.54,-629.65 672.2,-634 672.81,-627.03"/>
<text xml:space="preserve" text-anchor="middle" x="1003.92" y="-931.5" font-family="Helvetica,sans-Serif" font-size="9.00" fill="#ece1d7">lookup</text>
</g>
<!-- xactbuf -->
<g id="node20" class="node">
<title>xactbuf</title>
<path fill="#4d4128" stroke="#6e6963" d="M1657.75,-1031.8C1657.75,-1031.8 1562.25,-1031.8 1562.25,-1031.8 1556.25,-1031.8 1550.25,-1025.8 1550.25,-1019.8 1550.25,-1019.8 1550.25,-972.05 1550.25,-972.05 1550.25,-966.05 1556.25,-960.05 1562.25,-960.05 1562.25,-960.05 1657.75,-960.05 1657.75,-960.05 1663.75,-960.05 1669.75,-966.05 1669.75,-972.05 1669.75,-972.05 1669.75,-1019.8 1669.75,-1019.8 1669.75,-1025.8 1663.75,-1031.8 1657.75,-1031.8"/>
<text xml:space="preserve" text-anchor="middle" x="1610" y="-1018.3" font-family="Helvetica,sans-Serif" font-size="10.00" fill="#ece1d7">XactBuffer</text>
<text xml:space="preserve" text-anchor="middle" x="1610" y="-1005.55" font-family="Helvetica,sans-Serif" font-size="10.00" fill="#ece1d7">per&#45;xid hashmap +</text>
<text xml:space="preserve" text-anchor="middle" x="1610" y="-992.8" font-family="Helvetica,sans-Serif" font-size="10.00" fill="#ece1d7">TOAST reassembly +</text>
<text xml:space="preserve" text-anchor="middle" x="1610" y="-980.05" font-family="Helvetica,sans-Serif" font-size="10.00" fill="#ece1d7">SubxactTracker</text>
<text xml:space="preserve" text-anchor="middle" x="1610" y="-967.3" font-family="Helvetica,sans-Serif" font-size="10.00" fill="#ece1d7">budget = work_mem</text>
</g>
<!-- decoder&#45;&gt;xactbuf -->
<g id="edge15" class="edge">
<title>decoder&#45;&gt;xactbuf</title>
<path fill="none" stroke="#c1a78e" d="M1610,-1072.42C1610,-1063.07 1610,-1053.09 1610,-1043.56"/>
<polygon fill="#c1a78e" stroke="#c1a78e" points="1613.5,-1043.73 1610,-1033.73 1606.5,-1043.73 1613.5,-1043.73"/>
</g>
<!-- drain -->
<g id="node21" class="node">
<title>drain</title>
<path fill="#4d4128" stroke="#6e6963" d="M1670.88,-908.8C1670.88,-908.8 1549.12,-908.8 1549.12,-908.8 1543.12,-908.8 1537.12,-902.8 1537.12,-896.8 1537.12,-896.8 1537.12,-861.8 1537.12,-861.8 1537.12,-855.8 1543.12,-849.8 1549.12,-849.8 1549.12,-849.8 1670.88,-849.8 1670.88,-849.8 1676.88,-849.8 1682.88,-855.8 1682.88,-861.8 1682.88,-861.8 1682.88,-896.8 1682.88,-896.8 1682.88,-902.8 1676.88,-908.8 1670.88,-908.8"/>
<text xml:space="preserve" text-anchor="middle" x="1610" y="-895.3" font-family="Helvetica,sans-Serif" font-size="10.00" fill="#ece1d7">XactRecordSink</text>
<text xml:space="preserve" text-anchor="middle" x="1610" y="-882.55" font-family="Helvetica,sans-Serif" font-size="10.00" fill="#ece1d7">commit drain</text>
<text xml:space="preserve" text-anchor="middle" x="1610" y="-869.8" font-family="Helvetica,sans-Serif" font-size="10.00" fill="#ece1d7">(spilled first, mem second,</text>
<text xml:space="preserve" text-anchor="middle" x="1610" y="-857.05" font-family="Helvetica,sans-Serif" font-size="10.00" fill="#ece1d7"> WAL&#45;order replay)</text>
</g>
<!-- xactbuf&#45;&gt;drain -->
<g id="edge16" class="edge">
<title>xactbuf&#45;&gt;drain</title>
<path fill="none" stroke="#c1a78e" d="M1610,-959.6C1610,-947.21 1610,-933.2 1610,-920.45"/>
<polygon fill="#c1a78e" stroke="#c1a78e" points="1613.5,-920.68 1610,-910.68 1606.5,-920.68 1613.5,-920.68"/>
</g>
<!-- spill -->
<g id="node35" class="node">
<title>spill</title>
<polygon fill="#4d3850" stroke="#6e6963" points="1456,-770.92 1308,-770.92 1308,-724.67 1462,-724.67 1462,-764.92 1456,-770.92"/>
<polyline fill="none" stroke="#6e6963" points="1456,-770.92 1456,-764.92"/>
<polyline fill="none" stroke="#6e6963" points="1462,-764.92 1456,-764.92"/>
<text xml:space="preserve" text-anchor="middle" x="1385" y="-757.42" font-family="Helvetica,sans-Serif" font-size="10.00" fill="#ece1d7">{spill}/xid&#45;&lt;xid&gt;&#45;&lt;lsn&gt;.bin</text>
<text xml:space="preserve" text-anchor="middle" x="1385" y="-744.67" font-family="Helvetica,sans-Serif" font-size="10.00" fill="#ece1d7">append&#45;only</text>
<text xml:space="preserve" text-anchor="middle" x="1385" y="-731.92" font-family="Helvetica,sans-Serif" font-size="10.00" fill="#ece1d7">[tag u8 | len u32 | body]</text>
</g>
<!-- xactbuf&#45;&gt;spill -->
<g id="edge39" class="edge">
<title>xactbuf&#45;&gt;spill</title>
<path fill="none" stroke="#c1a78e" stroke-dasharray="5,2" d="M1550.02,-976.48C1514.61,-962.86 1471.32,-941.01 1443,-908.8 1411.19,-872.61 1396.37,-817.61 1389.8,-782.44"/>
<polygon fill="#c1a78e" stroke="#c1a78e" points="1393.29,-782.08 1388.14,-772.82 1386.4,-783.27 1393.29,-782.08"/>
<text xml:space="preserve" text-anchor="middle" x="1482" y="-876.37" font-family="Helvetica,sans-Serif" font-size="9.00" fill="#ece1d7">evict largest xact</text>
</g>
<!-- tableenc -->
<g id="node22" class="node">
<title>tableenc</title>
<path fill="#5d4628" stroke="#6e6963" d="M1759.75,-770.92C1759.75,-770.92 1676.25,-770.92 1676.25,-770.92 1670.25,-770.92 1664.25,-764.92 1664.25,-758.92 1664.25,-758.92 1664.25,-736.67 1664.25,-736.67 1664.25,-730.67 1670.25,-724.67 1676.25,-724.67 1676.25,-724.67 1759.75,-724.67 1759.75,-724.67 1765.75,-724.67 1771.75,-730.67 1771.75,-736.67 1771.75,-736.67 1771.75,-758.92 1771.75,-758.92 1771.75,-764.92 1765.75,-770.92 1759.75,-770.92"/>
<text xml:space="preserve" text-anchor="middle" x="1718" y="-757.42" font-family="Helvetica,sans-Serif" font-size="10.00" fill="#ece1d7">TableEncoder</text>
<text xml:space="preserve" text-anchor="middle" x="1718" y="-744.67" font-family="Helvetica,sans-Serif" font-size="10.00" fill="#ece1d7">per (table, INSERT)</text>
<text xml:space="preserve" text-anchor="middle" x="1718" y="-731.92" font-family="Helvetica,sans-Serif" font-size="10.00" fill="#ece1d7">row/byte budget</text>
</g>
<!-- drain&#45;&gt;tableenc -->
<g id="edge20" class="edge">
<title>drain&#45;&gt;tableenc</title>
<path fill="none" stroke="#bf8c5f" stroke-width="2" d="M1633.97,-849.56C1650.95,-829.19 1673.74,-801.86 1691.31,-780.8"/>
<polygon fill="#bf8c5f" stroke="#bf8c5f" stroke-width="2" points="1693.81,-783.27 1697.52,-773.35 1688.43,-778.79 1693.81,-783.27"/>
</g>
<!-- cursor -->
<g id="node36" class="node">
<title>cursor</title>
<polygon fill="#4d3850" stroke="#6e6963" points="1614.12,-770.92 1493.88,-770.92 1493.88,-724.67 1620.12,-724.67 1620.12,-764.92 1614.12,-770.92"/>
<polyline fill="none" stroke="#6e6963" points="1614.12,-770.92 1614.12,-764.92"/>
<polyline fill="none" stroke="#6e6963" points="1620.12,-764.92 1614.12,-764.92"/>
<text xml:space="preserve" text-anchor="middle" x="1557" y="-757.42" font-family="Helvetica,sans-Serif" font-size="10.00" fill="#ece1d7">{spill}/cursor.bin</text>
<text xml:space="preserve" text-anchor="middle" x="1557" y="-744.67" font-family="Helvetica,sans-Serif" font-size="10.00" fill="#ece1d7">56B atomic rename</text>
<text xml:space="preserve" text-anchor="middle" x="1557" y="-731.92" font-family="Helvetica,sans-Serif" font-size="10.00" fill="#ece1d7">5 LSN fields + CRC32C</text>
</g>
<!-- drain&#45;&gt;cursor -->
<g id="edge40" class="edge">
<title>drain&#45;&gt;cursor</title>
<path fill="none" stroke="#b380b0" stroke-dasharray="1,5" d="M1598.24,-849.56C1590.02,-829.47 1579.02,-802.61 1570.45,-781.67"/>
<polygon fill="#b380b0" stroke="#b380b0" points="1573.7,-780.36 1566.67,-772.43 1567.22,-783.01 1573.7,-780.36"/>
<text xml:space="preserve" text-anchor="middle" x="1616.06" y="-821.25" font-family="Helvetica,sans-Serif" font-size="9.00" fill="#ece1d7">LSN bundle</text>
</g>
<!-- block -->
<g id="node23" class="node">
<title>block</title>
<path fill="#5d4628" stroke="#6e6963" d="M1797.5,-649.67C1797.5,-649.67 1664.5,-649.67 1664.5,-649.67 1658.5,-649.67 1652.5,-643.67 1652.5,-637.67 1652.5,-637.67 1652.5,-615.42 1652.5,-615.42 1652.5,-609.42 1658.5,-603.42 1664.5,-603.42 1664.5,-603.42 1797.5,-603.42 1797.5,-603.42 1803.5,-603.42 1809.5,-609.42 1809.5,-615.42 1809.5,-615.42 1809.5,-637.67 1809.5,-637.67 1809.5,-643.67 1803.5,-649.67 1797.5,-649.67"/>
<text xml:space="preserve" text-anchor="middle" x="1731" y="-636.17" font-family="Helvetica,sans-Serif" font-size="10.00" fill="#ece1d7">BlockBuilder</text>
<text xml:space="preserve" text-anchor="middle" x="1731" y="-623.42" font-family="Helvetica,sans-Serif" font-size="10.00" fill="#ece1d7">Native columns +</text>
<text xml:space="preserve" text-anchor="middle" x="1731" y="-610.67" font-family="Helvetica,sans-Serif" font-size="10.00" fill="#ece1d7">_lsn / _xid / _op / _commit_ts</text>
</g>
<!-- tableenc&#45;&gt;block -->
<g id="edge18" class="edge">
<title>tableenc&#45;&gt;block</title>
<path fill="none" stroke="#c1a78e" d="M1720.45,-724.37C1722.39,-706.54 1725.14,-681.34 1727.34,-661.12"/>
<polygon fill="#c1a78e" stroke="#c1a78e" points="1730.8,-661.7 1728.4,-651.38 1723.84,-660.94 1730.8,-661.7"/>
</g>
<!-- chwire -->
<g id="node24" class="node">
<title>chwire</title>
<path fill="#5d4628" stroke="#6e6963" d="M1803.62,-384.3C1803.62,-384.3 1668.38,-384.3 1668.38,-384.3 1662.38,-384.3 1656.38,-378.3 1656.38,-372.3 1656.38,-372.3 1656.38,-324.55 1656.38,-324.55 1656.38,-318.55 1662.38,-312.55 1668.38,-312.55 1668.38,-312.55 1803.62,-312.55 1803.62,-312.55 1809.62,-312.55 1815.62,-318.55 1815.62,-324.55 1815.62,-324.55 1815.62,-372.3 1815.62,-372.3 1815.62,-378.3 1809.62,-384.3 1803.62,-384.3"/>
<text xml:space="preserve" text-anchor="middle" x="1736" y="-370.8" font-family="Helvetica,sans-Serif" font-size="10.00" fill="#ece1d7">clickhouse&#45;c&#45;rs</text>
<text xml:space="preserve" text-anchor="middle" x="1736" y="-358.05" font-family="Helvetica,sans-Serif" font-size="10.00" fill="#ece1d7">send_query (once per table)</text>
<text xml:space="preserve" text-anchor="middle" x="1736" y="-345.3" font-family="Helvetica,sans-Serif" font-size="10.00" fill="#ece1d7">send_data(Some) per block</text>
<text xml:space="preserve" text-anchor="middle" x="1736" y="-332.55" font-family="Helvetica,sans-Serif" font-size="10.00" fill="#ece1d7">send_data(None) on deadline</text>
<text xml:space="preserve" text-anchor="middle" x="1736" y="-319.8" font-family="Helvetica,sans-Serif" font-size="10.00" fill="#ece1d7">flush_timeout cap</text>
</g>
<!-- block&#45;&gt;chwire -->
<g id="edge19" class="edge">
<title>block&#45;&gt;chwire</title>
<path fill="none" stroke="#c1a78e" d="M1731.41,-602.95C1732.22,-557.91 1734.07,-456.13 1735.15,-396.13"/>
<polygon fill="#c1a78e" stroke="#c1a78e" points="1738.65,-396.29 1735.33,-386.22 1731.65,-396.16 1738.65,-396.29"/>
</g>
<!-- chwire&#45;&gt;ch -->
<g id="edge41" class="edge">
<title>chwire&#45;&gt;ch</title>
<path fill="none" stroke="#bf8c5f" stroke-width="2" d="M1720.77,-312.1C1702.48,-271.48 1669.55,-203.64 1632,-151.05 1611.28,-122.03 1583.05,-92.74 1562.21,-72.57"/>
<polygon fill="#bf8c5f" stroke="#bf8c5f" stroke-width="2" points="1564.77,-70.18 1555.11,-65.81 1559.93,-75.24 1564.77,-70.18"/>
</g>
<!-- libpq -->
<g id="node26" class="node">
<title>libpq</title>
<path fill="#4d4d28" stroke="#6e6963" d="M753.62,-371.55C753.62,-371.55 654.38,-371.55 654.38,-371.55 648.38,-371.55 642.38,-365.55 642.38,-359.55 642.38,-359.55 642.38,-337.3 642.38,-337.3 642.38,-331.3 648.38,-325.3 654.38,-325.3 654.38,-325.3 753.62,-325.3 753.62,-325.3 759.62,-325.3 765.62,-331.3 765.62,-337.3 765.62,-337.3 765.62,-359.55 765.62,-359.55 765.62,-365.55 759.62,-371.55 753.62,-371.55"/>
<text xml:space="preserve" text-anchor="middle" x="704" y="-358.05" font-family="Helvetica,sans-Serif" font-size="10.00" fill="#ece1d7">tokio_postgres::Client</text>
<text xml:space="preserve" text-anchor="middle" x="704" y="-345.3" font-family="Helvetica,sans-Serif" font-size="10.00" fill="#ece1d7">SELECT pg_class /</text>
<text xml:space="preserve" text-anchor="middle" x="704" y="-332.55" font-family="Helvetica,sans-Serif" font-size="10.00" fill="#ece1d7">pg_attribute / pg_type</text>
</g>
<!-- lru&#45;&gt;libpq -->
<g id="edge21" class="edge">
<title>lru&#45;&gt;libpq</title>
<path fill="none" stroke="#c1a78e" stroke-dasharray="5,2" d="M609.43,-602.95C627.58,-554.29 670.44,-439.39 691.66,-382.51"/>
<polygon fill="#c1a78e" stroke="#c1a78e" points="694.85,-383.95 695.07,-373.36 688.3,-381.51 694.85,-383.95"/>
<text xml:space="preserve" text-anchor="middle" x="633.37" y="-568.5" font-family="Helvetica,sans-Serif" font-size="9.00" fill="#ece1d7">miss</text>
</g>
<!-- evtx -->
<g id="node28" class="node">
<title>evtx</title>
<path fill="#4d4d28" stroke="#6e6963" d="M598.22,-394.67C598.22,-394.67 376.89,-394.67 376.89,-394.67 370.89,-394.67 361.51,-389.72 358.13,-384.76 358.13,-384.76 308.55,-312.08 308.55,-312.08 305.16,-307.13 307.78,-302.17 313.78,-302.17 313.78,-302.17 535.11,-302.17 535.11,-302.17 541.11,-302.17 550.49,-307.13 553.87,-312.08 553.87,-312.08 603.45,-384.76 603.45,-384.76 606.84,-389.72 604.22,-394.67 598.22,-394.67"/>
<text xml:space="preserve" text-anchor="middle" x="456" y="-358.05" font-family="Helvetica,sans-Serif" font-size="10.00" fill="#ece1d7">schema_event_tx</text>
<text xml:space="preserve" text-anchor="middle" x="456" y="-345.3" font-family="Helvetica,sans-Serif" font-size="10.00" fill="#ece1d7">Added / Changed / Dropped</text>
<text xml:space="preserve" text-anchor="middle" x="456" y="-332.55" font-family="Helvetica,sans-Serif" font-size="10.00" fill="#ece1d7">(unbounded mpsc)</text>
</g>
<!-- lru&#45;&gt;evtx -->
<g id="edge23" class="edge">
<title>lru&#45;&gt;evtx</title>
<path fill="none" stroke="#cba85e" stroke-dasharray="5,2" d="M581.16,-603.2C574.62,-595.25 567.59,-586.04 562,-577.05 527.5,-521.59 497.07,-453.08 477.77,-405.79"/>
<polygon fill="#cba85e" stroke="#cba85e" points="481.03,-404.5 474.03,-396.54 474.54,-407.12 481.03,-404.5"/>
<text xml:space="preserve" text-anchor="middle" x="587.5" y="-568.5" font-family="Helvetica,sans-Serif" font-size="9.00" fill="#ece1d7">diff vs prior</text>
</g>
<!-- libpq&#45;&gt;shd -->
<g id="edge36" class="edge">
<title>libpq&#45;&gt;shd</title>
<path fill="none" stroke="#cba85e" d="M726.14,-315.88C761.71,-266.34 835.23,-168.61 910,-97.3 914.71,-92.8 919.83,-88.34 925.06,-84.05"/>
<polygon fill="#cba85e" stroke="#cba85e" points="720.45,-323.84 722.6,-313.09 722.65,-320.76 726.26,-315.7 726.26,-315.7 726.26,-315.7 722.65,-320.76 729.92,-318.32 720.45,-323.84"/>
<polygon fill="#cba85e" stroke="#cba85e" points="927.11,-86.89 932.75,-77.92 922.75,-81.41 927.11,-86.89"/>
<text xml:space="preserve" text-anchor="middle" x="940" y="-111.25" font-family="Helvetica,sans-Serif" font-size="9.00" fill="#ece1d7">libpq SELECT</text>
</g>
<!-- inval&#45;&gt;lru -->
<g id="edge22" class="edge">
<title>inval&#45;&gt;lru</title>
<path fill="none" stroke="#cba85e" stroke-dasharray="5,2" d="M601,-717.93C601,-700.82 601,-679.06 601,-661.18"/>
<polygon fill="#cba85e" stroke="#cba85e" points="604.5,-661.32 601,-651.32 597.5,-661.32 604.5,-661.32"/>
</g>
<!-- evtx&#45;&gt;xactbuf -->
<g id="edge29" class="edge">
<title>evtx&#45;&gt;xactbuf</title>
<path fill="none" stroke="#cba85e" stroke-dasharray="5,2" d="M491.06,-395.03C523.85,-436.4 575.27,-498.04 626,-545.8 666.34,-583.77 795.97,-649.51 824,-697.3 879.15,-791.32 779.26,-865.72 859,-940.05 908.04,-985.76 1360.64,-993.45 1538.61,-994.7"/>
<polygon fill="#cba85e" stroke="#cba85e" points="1538.39,-998.2 1548.41,-994.76 1538.44,-991.2 1538.39,-998.2"/>
<text xml:space="preserve" text-anchor="middle" x="871.17" y="-744.87" font-family="Helvetica,sans-Serif" font-size="9.00" fill="#ece1d7">stamp on xid</text>
</g>
<!-- ddlapp -->
<g id="node30" class="node">
<title>ddlapp</title>
<path fill="#5d4628" stroke="#6e6963" d="M261.88,-75C261.88,-75 158.12,-75 158.12,-75 152.12,-75 146.12,-69 146.12,-63 146.12,-63 146.12,-28 146.12,-28 146.12,-22 152.12,-16 158.12,-16 158.12,-16 261.88,-16 261.88,-16 267.88,-16 273.88,-22 273.88,-28 273.88,-28 273.88,-63 273.88,-63 273.88,-69 267.88,-75 261.88,-75"/>
<text xml:space="preserve" text-anchor="middle" x="210" y="-61.5" font-family="Helvetica,sans-Serif" font-size="10.00" fill="#ece1d7">DdlApplicator</text>
<text xml:space="preserve" text-anchor="middle" x="210" y="-48.75" font-family="Helvetica,sans-Serif" font-size="10.00" fill="#ece1d7">(ch_ddl.rs)</text>
<text xml:space="preserve" text-anchor="middle" x="210" y="-36" font-family="Helvetica,sans-Serif" font-size="10.00" fill="#ece1d7">CREATE / ADD COL /</text>
<text xml:space="preserve" text-anchor="middle" x="210" y="-23.25" font-family="Helvetica,sans-Serif" font-size="10.00" fill="#ece1d7">RENAME / DROP TABLE</text>
</g>
<!-- evtx&#45;&gt;ddlapp -->
<g id="edge25" class="edge">
<title>evtx&#45;&gt;ddlapp</title>
<path fill="none" stroke="#cba85e" stroke-dasharray="5,2" d="M452.98,-302.12C446.85,-246.4 428.27,-152.45 372,-97.3 348.75,-74.51 315.41,-61.93 285.02,-54.99"/>
<polygon fill="#cba85e" stroke="#cba85e" points="285.96,-51.62 275.46,-52.99 284.53,-58.47 285.96,-51.62"/>
<text xml:space="preserve" text-anchor="middle" x="435.06" y="-111.25" font-family="Helvetica,sans-Serif" font-size="9.00" fill="#ece1d7">drain at commit</text>
</g>
<!-- bridge -->
<g id="node29" class="node">
<title>bridge</title>
<path fill="#5d4628" stroke="#6e6963" d="M257.62,-371.55C257.62,-371.55 158.38,-371.55 158.38,-371.55 152.38,-371.55 146.38,-365.55 146.38,-359.55 146.38,-359.55 146.38,-337.3 146.38,-337.3 146.38,-331.3 152.38,-325.3 158.38,-325.3 158.38,-325.3 257.62,-325.3 257.62,-325.3 263.62,-325.3 269.62,-331.3 269.62,-337.3 269.62,-337.3 269.62,-359.55 269.62,-359.55 269.62,-365.55 263.62,-371.55 257.62,-371.55"/>
<text xml:space="preserve" text-anchor="middle" x="208" y="-358.05" font-family="Helvetica,sans-Serif" font-size="10.00" fill="#ece1d7">type_bridge</text>
<text xml:space="preserve" text-anchor="middle" x="208" y="-345.3" font-family="Helvetica,sans-Serif" font-size="10.00" fill="#ece1d7">RelAttr → CH type</text>
<text xml:space="preserve" text-anchor="middle" x="208" y="-332.55" font-family="Helvetica,sans-Serif" font-size="10.00" fill="#ece1d7">(reject widen for now)</text>
</g>
<!-- bridge&#45;&gt;ddlapp -->
<g id="edge24" class="edge">
<title>bridge&#45;&gt;ddlapp</title>
<path fill="none" stroke="#c1a78e" stroke-dasharray="5,2" d="M208.15,-324.8C208.49,-274.11 209.31,-150.8 209.73,-86.7"/>
<polygon fill="#c1a78e" stroke="#c1a78e" points="213.23,-86.99 209.8,-76.97 206.23,-86.94 213.23,-86.99"/>
</g>
<!-- ddlapp&#45;&gt;chwire -->
<g id="edge26" class="edge">
<title>ddlapp&#45;&gt;chwire</title>
<path fill="none" stroke="#bf8c5f" stroke-dasharray="5,2" d="M231.84,-75.08C248.85,-94.88 274.39,-119.65 303.25,-131.05 368.92,-156.98 1510.37,-120.44 1574,-151.05 1639.49,-182.55 1687.69,-254.6 1713.79,-302.12"/>
<polygon fill="#bf8c5f" stroke="#bf8c5f" points="1710.64,-303.66 1718.46,-310.82 1716.81,-300.35 1710.64,-303.66"/>
<text xml:space="preserve" text-anchor="middle" x="333.62" y="-122.5" font-family="Helvetica,sans-Serif" font-size="9.00" fill="#ece1d7">DDL SQL</text>
<text xml:space="preserve" text-anchor="middle" x="333.62" y="-111.25" font-family="Helvetica,sans-Serif" font-size="9.00" fill="#ece1d7">(off hot path,</text>
<text xml:space="preserve" text-anchor="middle" x="333.62" y="-100" font-family="Helvetica,sans-Serif" font-size="9.00" fill="#ece1d7"> own CH TCP)</text>
</g>
<!-- listener -->
<g id="node31" class="node">
<title>listener</title>
<path fill="#5d3f40" stroke="#6e6963" d="M1018.25,-649.67C1018.25,-649.67 925.75,-649.67 925.75,-649.67 919.75,-649.67 913.75,-643.67 913.75,-637.67 913.75,-637.67 913.75,-615.42 913.75,-615.42 913.75,-609.42 919.75,-603.42 925.75,-603.42 925.75,-603.42 1018.25,-603.42 1018.25,-603.42 1024.25,-603.42 1030.25,-609.42 1030.25,-615.42 1030.25,-615.42 1030.25,-637.67 1030.25,-637.67 1030.25,-643.67 1024.25,-649.67 1018.25,-649.67"/>
<text xml:space="preserve" text-anchor="middle" x="972" y="-636.17" font-family="Helvetica,sans-Serif" font-size="10.00" fill="#ece1d7">accept(unix / TCP)</text>
<text xml:space="preserve" text-anchor="middle" x="972" y="-623.42" font-family="Helvetica,sans-Serif" font-size="10.00" fill="#ece1d7">IDENTIFY_SYSTEM +</text>
<text xml:space="preserve" text-anchor="middle" x="972" y="-610.67" font-family="Helvetica,sans-Serif" font-size="10.00" fill="#ece1d7">START_REPLICATION</text>
</g>
<!-- listener&#45;&gt;sendq -->
<g id="edge30" class="edge">
<title>listener&#45;&gt;sendq</title>
<path fill="none" stroke="#c1a78e" stroke-dasharray="5,2" d="M972.49,-602.95C973.54,-554.49 976.02,-440.35 977.27,-383.22"/>
<polygon fill="#c1a78e" stroke="#c1a78e" points="980.76,-383.53 977.48,-373.46 973.76,-383.38 980.76,-383.53"/>
</g>
<!-- sendq&#45;&gt;shd -->
<g id="edge34" class="edge">
<title>sendq&#45;&gt;shd</title>
<path fill="none" stroke="#bd8183" stroke-width="2" d="M978,-324.8C978,-275.06 978,-155.42 978,-90.39"/>
<polygon fill="#bd8183" stroke="#bd8183" stroke-width="2" points="981.5,-90.79 978,-80.79 974.5,-90.79 981.5,-90.79"/>
<text xml:space="preserve" text-anchor="middle" x="1008.38" y="-111.25" font-family="Helvetica,sans-Serif" font-size="9.00" fill="#ece1d7">hot wire (ms)</text>
</g>
<!-- stat&#45;&gt;catgate -->
<g id="edge32" class="edge">
<title>stat&#45;&gt;catgate</title>
<path fill="none" stroke="#bd8183" stroke-dasharray="5,2" d="M1176.35,-631.08C1278.64,-638.44 1478.54,-658.17 1441,-698.3 1399.16,-743.03 1207.84,-671.94 1166,-716.67 1137.5,-747.14 1137.43,-780.14 1166,-810.55 1185.51,-831.32 1274.49,-797.78 1294,-818.55 1297.42,-822.19 1296.49,-825.46 1294,-829.8 1288.49,-839.4 949.45,-887.64 1071,-1052.8 1197.37,-1224.5 1325.96,-1130.42 1529,-1195.42 1529.23,-1195.5 1529.46,-1195.57 1529.7,-1195.64"/>
<polygon fill="#bd8183" stroke="#bd8183" points="1528.31,-1198.88 1538.9,-1198.61 1530.46,-1192.21 1528.31,-1198.88"/>
<text xml:space="preserve" text-anchor="middle" x="1125.6" y="-931.5" font-family="Helvetica,sans-Serif" font-size="9.00" fill="#ece1d7">apply_lsn → unblock gate</text>
</g>
<!-- outdir&#45;&gt;shd -->
<g id="edge38" class="edge">
<title>outdir&#45;&gt;shd</title>
<path fill="none" stroke="#6e6963" stroke-dasharray="5,2" d="M1230.51,-724.44C1236.63,-627.87 1256.21,-247.11 1192,-151.05 1161.46,-105.36 1104.96,-78.93 1057.68,-64.08"/>
<polygon fill="#6e6963" stroke="#6e6963" points="1058.85,-60.78 1048.26,-61.25 1056.83,-67.48 1058.85,-60.78"/>
<text xml:space="preserve" text-anchor="middle" x="1278.15" y="-568.5" font-family="Helvetica,sans-Serif" font-size="9.00" fill="#ece1d7">restore_command</text>
</g>
</g>
</svg>
