<?xml version="1.0" encoding="UTF-8" standalone="no"?>
<!DOCTYPE svg PUBLIC "-//W3C//DTD SVG 1.1//EN"
 "http://www.w3.org/Graphics/SVG/1.1/DTD/svg11.dtd">
<!-- Generated by graphviz version 15.1.0 (20260618.0150)
 -->
<!-- Title: internals Pages: 1 -->
<svg width="2462pt" height="3005pt"
 viewBox="0.00 0.00 2462.00 3005.00" xmlns="http://www.w3.org/2000/svg" xmlns:xlink="http://www.w3.org/1999/xlink">
<g id="graph0" class="graph" transform="scale(1 1) rotate(0) translate(4 3001.48)">
<title>internals</title>
<polygon fill="#272623" stroke="none" points="-4,4 -4,-3001.48 2458.37,-3001.48 2458.37,4 -4,4"/>
<text xml:space="preserve" text-anchor="middle" x="1227.18" y="-2980.18" font-family="Helvetica,sans-Serif" font-size="14.00" fill="#ece1d7">walshadow internals — pipeline stages, taps &amp; caches</text>
<g id="clust1" class="cluster">
<title>cluster_ingress</title>
<path fill="#34302c" stroke="#4c4641" d="M1434.37,-2648.23C1434.37,-2648.23 1732.37,-2648.23 1732.37,-2648.23 1738.37,-2648.23 1744.37,-2654.23 1744.37,-2660.23 1744.37,-2660.23 1744.37,-2895.23 1744.37,-2895.23 1744.37,-2901.23 1738.37,-2907.23 1732.37,-2907.23 1732.37,-2907.23 1434.37,-2907.23 1434.37,-2907.23 1428.37,-2907.23 1422.37,-2901.23 1422.37,-2895.23 1422.37,-2895.23 1422.37,-2660.23 1422.37,-2660.23 1422.37,-2654.23 1428.37,-2648.23 1434.37,-2648.23"/>
<text xml:space="preserve" text-anchor="middle" x="1583.37" y="-2889.93" font-family="Helvetica,sans-Serif" font-size="14.00" fill="#ece1d7">① ingress (main loop, tokio)</text>
</g>
<g id="clust2" class="cluster">
<title>cluster_filter</title>
<path fill="#34302c" stroke="#4c4641" d="M1437.37,-2240.17C1437.37,-2240.17 1739.37,-2240.17 1739.37,-2240.17 1745.37,-2240.17 1751.37,-2246.17 1751.37,-2252.17 1751.37,-2252.17 1751.37,-2615.23 1751.37,-2615.23 1751.37,-2621.23 1745.37,-2627.23 1739.37,-2627.23 1739.37,-2627.23 1437.37,-2627.23 1437.37,-2627.23 1431.37,-2627.23 1425.37,-2621.23 1425.37,-2615.23 1425.37,-2615.23 1425.37,-2252.17 1425.37,-2252.17 1425.37,-2246.17 1431.37,-2240.17 1437.37,-2240.17"/>
<text xml:space="preserve" text-anchor="middle" x="1588.37" y="-2609.93" font-family="Helvetica,sans-Serif" font-size="14.00" fill="#ece1d7">② filter pipeline (sync, record cadence)</text>
</g>
<g id="clust3" class="cluster">
<title>cluster_fanout</title>
<path fill="#34302c" stroke="#4c4641" d="M1162.37,-2093.67C1162.37,-2093.67 1648.37,-2093.67 1648.37,-2093.67 1654.37,-2093.67 1660.37,-2099.67 1660.37,-2105.67 1660.37,-2105.67 1660.37,-2207.17 1660.37,-2207.17 1660.37,-2213.17 1654.37,-2219.17 1648.37,-2219.17 1648.37,-2219.17 1162.37,-2219.17 1162.37,-2219.17 1156.37,-2219.17 1150.37,-2213.17 1150.37,-2207.17 1150.37,-2207.17 1150.37,-2105.67 1150.37,-2105.67 1150.37,-2099.67 1156.37,-2093.67 1162.37,-2093.67"/>
<text xml:space="preserve" text-anchor="middle" x="1405.37" y="-2201.87" font-family="Helvetica,sans-Serif" font-size="14.00" fill="#ece1d7">③ CompositeRecordSink fan&#45;out (pump task, sync — ordering matters)</text>
</g>
<g id="clust4" class="cluster">
<title>cluster_queue</title>
<path fill="#34302c" stroke="#4c4641" d="M883.37,-1564.3C883.37,-1564.3 1259.37,-1564.3 1259.37,-1564.3 1265.37,-1564.3 1271.37,-1570.3 1271.37,-1576.3 1271.37,-1576.3 1271.37,-2060.67 1271.37,-2060.67 1271.37,-2066.67 1265.37,-2072.67 1259.37,-2072.67 1259.37,-2072.67 883.37,-2072.67 883.37,-2072.67 877.37,-2072.67 871.37,-2066.67 871.37,-2060.67 871.37,-2060.67 871.37,-1576.3 871.37,-1576.3 871.37,-1570.3 877.37,-1564.3 883.37,-1564.3"/>
<text xml:space="preserve" text-anchor="middle" x="1071.37" y="-2055.37" font-family="Helvetica,sans-Serif" font-size="14.00" fill="#ece1d7">④ QueueingRecordSink — pump ↔ decoder decoupling</text>
</g>
<g id="clust5" class="cluster">
<title>cluster_decode</title>
<path fill="#34302c" stroke="#4c4641" d="M397.37,-1220.92C397.37,-1220.92 835.37,-1220.92 835.37,-1220.92 841.37,-1220.92 847.37,-1226.92 847.37,-1232.92 847.37,-1232.92 847.37,-1659.92 847.37,-1659.92 847.37,-1665.92 841.37,-1671.92 835.37,-1671.92 835.37,-1671.92 397.37,-1671.92 397.37,-1671.92 391.37,-1671.92 385.37,-1665.92 385.37,-1659.92 385.37,-1659.92 385.37,-1232.92 385.37,-1232.92 385.37,-1226.92 391.37,-1220.92 397.37,-1220.92"/>
<text xml:space="preserve" text-anchor="middle" x="616.37" y="-1654.62" font-family="Helvetica,sans-Serif" font-size="14.00" fill="#ece1d7">⑤ decode + xact buffer (worker task — gated on shadow apply)</text>
</g>
<g id="clust6" class="cluster">
<title>cluster_ch</title>
<path fill="#34302c" stroke="#4c4641" d="M333.37,-14.38C333.37,-14.38 821.37,-14.38 821.37,-14.38 827.37,-14.38 833.37,-20.38 833.37,-26.38 833.37,-26.38 833.37,-1033.67 833.37,-1033.67 833.37,-1039.67 827.37,-1045.67 821.37,-1045.67 821.37,-1045.67 333.37,-1045.67 333.37,-1045.67 327.37,-1045.67 321.37,-1039.67 321.37,-1033.67 321.37,-1033.67 321.37,-26.38 321.37,-26.38 321.37,-20.38 327.37,-14.38 333.37,-14.38"/>
<text xml:space="preserve" text-anchor="middle" x="577.37" y="-1028.37" font-family="Helvetica,sans-Serif" font-size="14.00" fill="#ece1d7">⑥ emitter pipeline — shared path for ClickHouse and metrics&#45;only runs</text>
</g>
<g id="clust7" class="cluster">
<title>cluster_catalog</title>
<path fill="#34302c" stroke="#4c4641" d="M1351.37,-294.17C1351.37,-294.17 1807.37,-294.17 1807.37,-294.17 1813.37,-294.17 1819.37,-300.17 1819.37,-306.17 1819.37,-306.17 1819.37,-876.92 1819.37,-876.92 1819.37,-882.92 1813.37,-888.92 1807.37,-888.92 1807.37,-888.92 1351.37,-888.92 1351.37,-888.92 1345.37,-888.92 1339.37,-882.92 1339.37,-876.92 1339.37,-876.92 1339.37,-306.17 1339.37,-306.17 1339.37,-300.17 1345.37,-294.17 1351.37,-294.17"/>
<text xml:space="preserve" text-anchor="middle" x="1579.37" y="-871.62" font-family="Helvetica,sans-Serif" font-size="14.00" fill="#ece1d7">⑦ ShadowCatalog cache + SchemaEvent channel</text>
</g>
<g id="clust8" class="cluster">
<title>cluster_ddl</title>
<path fill="#34302c" stroke="#4c4641" d="M2183.37,-8C2183.37,-8 2434.37,-8 2434.37,-8 2440.37,-8 2446.37,-14 2446.37,-20 2446.37,-20 2446.37,-418.05 2446.37,-418.05 2446.37,-424.05 2440.37,-430.05 2434.37,-430.05 2434.37,-430.05 2183.37,-430.05 2183.37,-430.05 2177.37,-430.05 2171.37,-424.05 2171.37,-418.05 2171.37,-418.05 2171.37,-20 2171.37,-20 2171.37,-14 2177.37,-8 2183.37,-8"/>
<text xml:space="preserve" text-anchor="middle" x="2308.87" y="-412.75" font-family="Helvetica,sans-Serif" font-size="14.00" fill="#ece1d7">⑦b DDL applicator (separate CH TCP)</text>
</g>
<g id="clust9" class="cluster">
<title>cluster_walsender</title>
<path fill="#34302c" stroke="#4c4641" d="M1897.37,-317.3C1897.37,-317.3 2151.37,-317.3 2151.37,-317.3 2157.37,-317.3 2163.37,-323.3 2163.37,-329.3 2163.37,-329.3 2163.37,-708.92 2163.37,-708.92 2163.37,-714.92 2157.37,-720.92 2151.37,-720.92 2151.37,-720.92 1897.37,-720.92 1897.37,-720.92 1891.37,-720.92 1885.37,-714.92 1885.37,-708.92 1885.37,-708.92 1885.37,-329.3 1885.37,-329.3 1885.37,-323.3 1891.37,-317.3 1897.37,-317.3"/>
<text xml:space="preserve" text-anchor="middle" x="2024.37" y="-703.62" font-family="Helvetica,sans-Serif" font-size="14.00" fill="#ece1d7">⑧ walsender server &#160;(tokio task)</text>
</g>
<g id="clust10" class="cluster">
<title>cluster_disk</title>
<path fill="#34302c" stroke="#4c4641" d="M630.37,-1076.92C630.37,-1076.92 1292.37,-1076.92 1292.37,-1076.92 1298.37,-1076.92 1304.37,-1082.92 1304.37,-1088.92 1304.37,-1088.92 1304.37,-1177.67 1304.37,-1177.67 1304.37,-1183.67 1298.37,-1189.67 1292.37,-1189.67 1292.37,-1189.67 630.37,-1189.67 630.37,-1189.67 624.37,-1189.67 618.37,-1183.67 618.37,-1177.67 618.37,-1177.67 618.37,-1088.92 618.37,-1088.92 618.37,-1082.92 624.37,-1076.92 630.37,-1076.92"/>
<text xml:space="preserve" text-anchor="middle" x="961.37" y="-1172.37" font-family="Helvetica,sans-Serif" font-size="14.00" fill="#ece1d7">⑨ on&#45;disk caches</text>
</g>
<!-- src -->
<g id="node1" class="node">
<title>src</title>
<path fill="#3d3d54" stroke="#6e6963" d="M1615.74,-2968.96C1615.74,-2970.77 1601.23,-2972.23 1583.37,-2972.23 1565.51,-2972.23 1550.99,-2970.77 1550.99,-2968.96 1550.99,-2968.96 1550.99,-2939.51 1550.99,-2939.51 1550.99,-2937.7 1565.51,-2936.23 1583.37,-2936.23 1601.23,-2936.23 1615.74,-2937.7 1615.74,-2939.51 1615.74,-2939.51 1615.74,-2968.96 1615.74,-2968.96"/>
<path fill="none" stroke="#6e6963" d="M1615.74,-2968.96C1615.74,-2967.16 1601.23,-2965.69 1583.37,-2965.69 1565.51,-2965.69 1550.99,-2967.16 1550.99,-2968.96"/>
<text xml:space="preserve" text-anchor="middle" x="1583.37" y="-2951.11" font-family="Helvetica,sans-Serif" font-size="10.00" fill="#ece1d7">source PG</text>
</g>
<!-- feed -->
<g id="node4" class="node">
<title>feed</title>
<path fill="#3d3d54" stroke="#6e6963" d="M1653.99,-2848.73C1653.99,-2848.73 1512.74,-2848.73 1512.74,-2848.73 1506.74,-2848.73 1500.74,-2842.73 1500.74,-2836.73 1500.74,-2836.73 1500.74,-2801.73 1500.74,-2801.73 1500.74,-2795.73 1506.74,-2789.73 1512.74,-2789.73 1512.74,-2789.73 1653.99,-2789.73 1653.99,-2789.73 1659.99,-2789.73 1665.99,-2795.73 1665.99,-2801.73 1665.99,-2801.73 1665.99,-2836.73 1665.99,-2836.73 1665.99,-2842.73 1659.99,-2848.73 1653.99,-2848.73"/>
<text xml:space="preserve" text-anchor="middle" x="1583.37" y="-2835.23" font-family="Helvetica,sans-Serif" font-size="10.00" fill="#ece1d7">SourceFeed::pump</text>
<text xml:space="preserve" text-anchor="middle" x="1583.37" y="-2822.48" font-family="Helvetica,sans-Serif" font-size="10.00" fill="#ece1d7">wal&#45;rus ReplicationConn</text>
<text xml:space="preserve" text-anchor="middle" x="1583.37" y="-2809.73" font-family="Helvetica,sans-Serif" font-size="10.00" fill="#ece1d7">IDENTIFY_SYSTEM +</text>
<text xml:space="preserve" text-anchor="middle" x="1583.37" y="-2796.98" font-family="Helvetica,sans-Serif" font-size="10.00" fill="#ece1d7">START_REPLICATION PHYSICAL</text>
</g>
<!-- src&#45;&gt;feed -->
<g id="edge38" class="edge">
<title>src&#45;&gt;feed</title>
<path fill="none" stroke="#a1a9cc" stroke-width="2" d="M1583.37,-2935.85C1583.37,-2917.17 1583.37,-2886.8 1583.37,-2861.88"/>
<polygon fill="#a1a9cc" stroke="#a1a9cc" stroke-width="2" points="1586.87,-2862.09 1583.37,-2852.09 1579.87,-2862.09 1586.87,-2862.09"/>
</g>
<!-- shd -->
<g id="node2" class="node">
<title>shd</title>
<path fill="#3d4128" stroke="#6e6963" d="M1478.74,-71.52C1478.74,-74.71 1448.1,-77.3 1410.37,-77.3 1372.64,-77.3 1341.99,-74.71 1341.99,-71.52 1341.99,-71.52 1341.99,-19.48 1341.99,-19.48 1341.99,-16.29 1372.64,-13.7 1410.37,-13.7 1448.1,-13.7 1478.74,-16.29 1478.74,-19.48 1478.74,-19.48 1478.74,-71.52 1478.74,-71.52"/>
<path fill="none" stroke="#6e6963" d="M1478.74,-71.52C1478.74,-68.33 1448.1,-65.73 1410.37,-65.73 1372.64,-65.73 1341.99,-68.33 1341.99,-71.52"/>
<text xml:space="preserve" text-anchor="middle" x="1410.37" y="-55.12" font-family="Helvetica,sans-Serif" font-size="10.00" fill="#ece1d7">shadow PG</text>
<text xml:space="preserve" text-anchor="middle" x="1410.37" y="-42.38" font-family="Helvetica,sans-Serif" font-size="10.00" fill="#ece1d7">walreceiver + catalog</text>
<text xml:space="preserve" text-anchor="middle" x="1410.37" y="-29.62" font-family="Helvetica,sans-Serif" font-size="10.00" fill="#ece1d7">(pg_last_wal_replay_lsn)</text>
</g>
<!-- stat -->
<g id="node36" class="node">
<title>stat</title>
<path fill="#5d3f40" stroke="#6e6963" d="M2143.49,-662.42C2143.49,-662.42 2053.24,-662.42 2053.24,-662.42 2047.24,-662.42 2041.24,-656.42 2041.24,-650.42 2041.24,-650.42 2041.24,-615.42 2041.24,-615.42 2041.24,-609.42 2047.24,-603.42 2053.24,-603.42 2053.24,-603.42 2143.49,-603.42 2143.49,-603.42 2149.49,-603.42 2155.49,-609.42 2155.49,-615.42 2155.49,-615.42 2155.49,-650.42 2155.49,-650.42 2155.49,-656.42 2149.49,-662.42 2143.49,-662.42"/>
<text xml:space="preserve" text-anchor="middle" x="2098.37" y="-648.92" font-family="Helvetica,sans-Serif" font-size="10.00" fill="#ece1d7">rx &#39;r&#39; standby status</text>
<text xml:space="preserve" text-anchor="middle" x="2098.37" y="-636.17" font-family="Helvetica,sans-Serif" font-size="10.00" fill="#ece1d7">flush_lsn / apply_lsn</text>
<text xml:space="preserve" text-anchor="middle" x="2098.37" y="-623.42" font-family="Helvetica,sans-Serif" font-size="10.00" fill="#ece1d7">(min across conns,</text>
<text xml:space="preserve" text-anchor="middle" x="2098.37" y="-610.67" font-family="Helvetica,sans-Serif" font-size="10.00" fill="#ece1d7"> apply&#45;lag metric)</text>
</g>
<!-- shd&#45;&gt;stat -->
<g id="edge40" class="edge">
<title>shd&#45;&gt;stat</title>
<path fill="none" stroke="#bd8183" stroke-dasharray="5,2" d="M1341.54,-53.34C1266.94,-60.48 1144.32,-71.45 1038.37,-77.3 1018.36,-78.4 331.34,-82.93 317.37,-97.3 178.39,-240.19 178.61,-402.69 317.37,-545.8 395.84,-626.72 1218.7,-573.69 1331.37,-577.05 1408.48,-579.35 1950.39,-578.92 2025.37,-597.05 2027.96,-597.67 2030.57,-598.4 2033.18,-599.21"/>
<polygon fill="#bd8183" stroke="#bd8183" points="2031.84,-602.44 2042.43,-602.43 2034.14,-595.83 2031.84,-602.44"/>
</g>
<!-- ch -->
<g id="node3" class="node">
<title>ch</title>
<path fill="#4d4128" stroke="#6e6963" d="M1022.74,-60.23C1022.74,-62.03 1006.89,-63.5 987.37,-63.5 967.85,-63.5 951.99,-62.03 951.99,-60.23 951.99,-60.23 951.99,-30.77 951.99,-30.77 951.99,-28.97 967.85,-27.5 987.37,-27.5 1006.89,-27.5 1022.74,-28.97 1022.74,-30.77 1022.74,-30.77 1022.74,-60.23 1022.74,-60.23"/>
<path fill="none" stroke="#6e6963" d="M1022.74,-60.23C1022.74,-58.42 1006.89,-56.95 987.37,-56.95 967.85,-56.95 951.99,-58.42 951.99,-60.23"/>
<text xml:space="preserve" text-anchor="middle" x="987.37" y="-42.38" font-family="Helvetica,sans-Serif" font-size="10.00" fill="#ece1d7">ClickHouse</text>
</g>
<!-- legend -->
<g id="node41" class="node">
<title>legend</title>
<path fill="#6e6963" stroke="none" d="M1117.49,-545.8C1117.49,-545.8 857.24,-545.8 857.24,-545.8 851.24,-545.8 845.24,-539.8 845.24,-533.8 845.24,-533.8 845.24,-163.05 845.24,-163.05 845.24,-157.05 851.24,-151.05 857.24,-151.05 857.24,-151.05 1117.49,-151.05 1117.49,-151.05 1123.49,-151.05 1129.49,-157.05 1129.49,-163.05 1129.49,-163.05 1129.49,-533.8 1129.49,-533.8 1129.49,-539.8 1123.49,-545.8 1117.49,-545.8"/>
<polygon fill="#34302c" stroke="none" points="853.24,-519.05 853.24,-541.8 1121.49,-541.8 1121.49,-519.05 853.24,-519.05"/>
<polygon fill="none" stroke="#6e6963" points="853.24,-519.05 853.24,-541.8 1121.49,-541.8 1121.49,-519.05 853.24,-519.05"/>
<text xml:space="preserve" text-anchor="start" x="944.24" y="-528.3" font-family="Helvetica,sans-Serif" font-weight="bold" font-size="10.00" fill="#ece1d7">node fill — role</text>
<polygon fill="#3d3d54" stroke="none" points="853.24,-496.3 853.24,-519.05 881.24,-519.05 881.24,-496.3 853.24,-496.3"/>
<polygon fill="none" stroke="#6e6963" points="853.24,-496.3 853.24,-519.05 881.24,-519.05 881.24,-496.3 853.24,-496.3"/>
<polygon fill="none" stroke="#6e6963" points="881.24,-496.3 881.24,-519.05 1121.49,-519.05 1121.49,-496.3 881.24,-496.3"/>
<text xml:space="preserve" text-anchor="start" x="954.87" y="-504.3" font-family="Helvetica,sans-Serif" font-size="10.00" fill="#ece1d7">source PG / ingress</text>
<polygon fill="#4d3a28" stroke="none" points="853.24,-473.55 853.24,-496.3 881.24,-496.3 881.24,-473.55 853.24,-473.55"/>
<polygon fill="none" stroke="#6e6963" points="853.24,-473.55 853.24,-496.3 881.24,-496.3 881.24,-473.55 853.24,-473.55"/>
<polygon fill="none" stroke="#6e6963" points="881.24,-473.55 881.24,-496.3 1121.49,-496.3 1121.49,-473.55 881.24,-473.55"/>
<text xml:space="preserve" text-anchor="start" x="925.24" y="-481.55" font-family="Helvetica,sans-Serif" font-size="10.00" fill="#ece1d7">walshadow filter / queue (sync)</text>
<polygon fill="#4d3340" stroke="none" points="853.24,-450.8 853.24,-473.55 881.24,-473.55 881.24,-450.8 853.24,-450.8"/>
<polygon fill="none" stroke="#6e6963" points="853.24,-450.8 853.24,-473.55 881.24,-473.55 881.24,-450.8 853.24,-450.8"/>
<polygon fill="none" stroke="#6e6963" points="881.24,-450.8 881.24,-473.55 1121.49,-473.55 1121.49,-450.8 881.24,-450.8"/>
<text xml:space="preserve" text-anchor="start" x="887.74" y="-458.8" font-family="Helvetica,sans-Serif" font-size="10.00" fill="#ece1d7">walshadow output sinks (walsender, segment)</text>
<polygon fill="#4d4128" stroke="none" points="853.24,-428.05 853.24,-450.8 881.24,-450.8 881.24,-428.05 853.24,-428.05"/>
<polygon fill="none" stroke="#6e6963" points="853.24,-428.05 853.24,-450.8 881.24,-450.8 881.24,-428.05 853.24,-428.05"/>
<polygon fill="none" stroke="#6e6963" points="881.24,-428.05 881.24,-450.8 1121.49,-450.8 1121.49,-428.05 881.24,-428.05"/>
<text xml:space="preserve" text-anchor="start" x="919.62" y="-436.05" font-family="Helvetica,sans-Serif" font-size="10.00" fill="#ece1d7">walshadow decoder + xact buffer</text>
<polygon fill="#4d4d28" stroke="none" points="853.24,-405.3 853.24,-428.05 881.24,-428.05 881.24,-405.3 853.24,-405.3"/>
<polygon fill="none" stroke="#6e6963" points="853.24,-405.3 853.24,-428.05 881.24,-428.05 881.24,-405.3 853.24,-405.3"/>
<polygon fill="none" stroke="#6e6963" points="881.24,-405.3 881.24,-428.05 1121.49,-428.05 1121.49,-405.3 881.24,-405.3"/>
<text xml:space="preserve" text-anchor="start" x="886.24" y="-413.3" font-family="Helvetica,sans-Serif" font-size="10.00" fill="#ece1d7">walshadow ShadowCatalog + schema&#45;event tx</text>
<polygon fill="#5d3f40" stroke="none" points="853.24,-382.55 853.24,-405.3 881.24,-405.3 881.24,-382.55 853.24,-382.55"/>
<polygon fill="none" stroke="#6e6963" points="853.24,-382.55 853.24,-405.3 881.24,-405.3 881.24,-382.55 853.24,-382.55"/>
<polygon fill="none" stroke="#6e6963" points="881.24,-382.55 881.24,-405.3 1121.49,-405.3 1121.49,-382.55 881.24,-382.55"/>
<text xml:space="preserve" text-anchor="start" x="930.49" y="-390.55" font-family="Helvetica,sans-Serif" font-size="10.00" fill="#ece1d7">walshadow walsender server</text>
<polygon fill="#5d4628" stroke="none" points="853.24,-359.8 853.24,-382.55 881.24,-382.55 881.24,-359.8 853.24,-359.8"/>
<polygon fill="none" stroke="#6e6963" points="853.24,-359.8 853.24,-382.55 881.24,-382.55 881.24,-359.8 853.24,-359.8"/>
<polygon fill="none" stroke="#6e6963" points="881.24,-359.8 881.24,-382.55 1121.49,-382.55 1121.49,-359.8 881.24,-359.8"/>
<text xml:space="preserve" text-anchor="start" x="894.87" y="-367.8" font-family="Helvetica,sans-Serif" font-size="10.00" fill="#ece1d7">walshadow CH pipeline tail + DdlApplicator</text>
<polygon fill="#4d3850" stroke="none" points="853.24,-337.05 853.24,-359.8 881.24,-359.8 881.24,-337.05 853.24,-337.05"/>
<polygon fill="none" stroke="#6e6963" points="853.24,-337.05 853.24,-359.8 881.24,-359.8 881.24,-337.05 853.24,-337.05"/>
<polygon fill="none" stroke="#6e6963" points="881.24,-337.05 881.24,-359.8 1121.49,-359.8 1121.49,-337.05 881.24,-337.05"/>
<text xml:space="preserve" text-anchor="start" x="964.24" y="-345.05" font-family="Helvetica,sans-Serif" font-size="10.00" fill="#ece1d7">on&#45;disk artifact</text>
<polygon fill="#3d4128" stroke="none" points="853.24,-314.3 853.24,-337.05 881.24,-337.05 881.24,-314.3 853.24,-314.3"/>
<polygon fill="none" stroke="#6e6963" points="853.24,-314.3 853.24,-337.05 881.24,-337.05 881.24,-314.3 853.24,-314.3"/>
<polygon fill="none" stroke="#6e6963" points="881.24,-314.3 881.24,-337.05 1121.49,-337.05 1121.49,-314.3 881.24,-314.3"/>
<text xml:space="preserve" text-anchor="start" x="960.12" y="-322.3" font-family="Helvetica,sans-Serif" font-size="10.00" fill="#ece1d7">shadow Postgres</text>
<polygon fill="#34302c" stroke="none" points="853.24,-291.55 853.24,-314.3 1121.49,-314.3 1121.49,-291.55 853.24,-291.55"/>
<polygon fill="none" stroke="#6e6963" points="853.24,-291.55 853.24,-314.3 1121.49,-314.3 1121.49,-291.55 853.24,-291.55"/>
<text xml:space="preserve" text-anchor="start" x="953.62" y="-300.8" font-family="Helvetica,sans-Serif" font-weight="bold" font-size="10.00" fill="#ece1d7">edge colour</text>
<polygon fill="none" stroke="#6e6963" points="853.24,-268.8 853.24,-291.55 881.24,-291.55 881.24,-268.8 853.24,-268.8"/>
<text xml:space="preserve" text-anchor="start" x="861.24" y="-278.05" font-family="Helvetica,sans-Serif" font-weight="bold" font-size="10.00" fill="#a1a9cc">━━</text>
<polygon fill="none" stroke="#6e6963" points="881.24,-268.8 881.24,-291.55 1121.49,-291.55 1121.49,-268.8 881.24,-268.8"/>
<text xml:space="preserve" text-anchor="start" x="941.74" y="-276.8" font-family="Helvetica,sans-Serif" font-size="10.00" fill="#ece1d7">source replication frame</text>
<polygon fill="none" stroke="#6e6963" points="853.24,-246.05 853.24,-268.8 881.24,-268.8 881.24,-246.05 853.24,-246.05"/>
<text xml:space="preserve" text-anchor="start" x="861.24" y="-255.3" font-family="Helvetica,sans-Serif" font-weight="bold" font-size="10.00" fill="#bd8183">━━</text>
<polygon fill="none" stroke="#6e6963" points="881.24,-246.05 881.24,-268.8 1121.49,-268.8 1121.49,-246.05 881.24,-246.05"/>
<text xml:space="preserve" text-anchor="start" x="938.74" y="-254.05" font-family="Helvetica,sans-Serif" font-size="10.00" fill="#ece1d7">walsender wire (hot path)</text>
<polygon fill="none" stroke="#6e6963" points="853.24,-223.3 853.24,-246.05 881.24,-246.05 881.24,-223.3 853.24,-223.3"/>
<text xml:space="preserve" text-anchor="start" x="861.24" y="-232.55" font-family="Helvetica,sans-Serif" font-weight="bold" font-size="10.00" fill="#cba85e">━━</text>
<polygon fill="none" stroke="#6e6963" points="881.24,-223.3 881.24,-246.05 1121.49,-246.05 1121.49,-223.3 881.24,-223.3"/>
<text xml:space="preserve" text-anchor="start" x="915.49" y="-231.3" font-family="Helvetica,sans-Serif" font-size="10.00" fill="#ece1d7">libpq catalog query / schema event</text>
<polygon fill="none" stroke="#6e6963" points="853.24,-200.55 853.24,-223.3 881.24,-223.3 881.24,-200.55 853.24,-200.55"/>
<text xml:space="preserve" text-anchor="start" x="861.24" y="-209.8" font-family="Helvetica,sans-Serif" font-weight="bold" font-size="10.00" fill="#bf8c5f">━━</text>
<polygon fill="none" stroke="#6e6963" points="881.24,-200.55 881.24,-223.3 1121.49,-223.3 1121.49,-200.55 881.24,-200.55"/>
<text xml:space="preserve" text-anchor="start" x="931.62" y="-208.55" font-family="Helvetica,sans-Serif" font-size="10.00" fill="#ece1d7">CH Native (rows + DDL SQL)</text>
<polygon fill="none" stroke="#6e6963" points="853.24,-177.8 853.24,-200.55 881.24,-200.55 881.24,-177.8 853.24,-177.8"/>
<text xml:space="preserve" text-anchor="start" x="861.62" y="-187.05" font-family="Helvetica,sans-Serif" font-weight="bold" font-size="10.00" fill="#b380b0">···</text>
<polygon fill="none" stroke="#6e6963" points="881.24,-177.8 881.24,-200.55 1121.49,-200.55 1121.49,-177.8 881.24,-177.8"/>
<text xml:space="preserve" text-anchor="start" x="939.12" y="-185.8" font-family="Helvetica,sans-Serif" font-size="10.00" fill="#ece1d7">ack + manifest durability</text>
<polygon fill="none" stroke="#6e6963" points="853.24,-155.05 853.24,-177.8 881.24,-177.8 881.24,-155.05 853.24,-155.05"/>
<text xml:space="preserve" text-anchor="start" x="861.24" y="-164.3" font-family="Helvetica,sans-Serif" font-weight="bold" font-size="10.00" fill="#6e6963">┄┄</text>
<polygon fill="none" stroke="#6e6963" points="881.24,-155.05 881.24,-177.8 1121.49,-177.8 1121.49,-155.05 881.24,-155.05"/>
<text xml:space="preserve" text-anchor="start" x="926.37" y="-163.05" font-family="Helvetica,sans-Serif" font-size="10.00" fill="#ece1d7">filesystem (restore_command)</text>
</g>
<!-- ch&#45;&gt;legend -->
<!-- chunks -->
<g id="node5" class="node">
<title>chunks</title>
<path fill="#3d3d54" stroke="#6e6963" d="M1724.03,-2748.73C1724.03,-2748.73 1505.18,-2748.73 1505.18,-2748.73 1499.18,-2748.73 1489.82,-2743.76 1486.46,-2738.79 1486.46,-2738.79 1437.42,-2666.18 1437.42,-2666.18 1434.07,-2661.21 1436.71,-2656.23 1442.71,-2656.23 1442.71,-2656.23 1661.56,-2656.23 1661.56,-2656.23 1667.56,-2656.23 1676.92,-2661.21 1680.27,-2666.18 1680.27,-2666.18 1729.32,-2738.79 1729.32,-2738.79 1732.67,-2743.76 1730.03,-2748.73 1724.03,-2748.73"/>
<text xml:space="preserve" text-anchor="middle" x="1583.37" y="-2712.11" font-family="Helvetica,sans-Serif" font-size="10.00" fill="#ece1d7">WalChunk stream</text>
<text xml:space="preserve" text-anchor="middle" x="1583.37" y="-2699.36" font-family="Helvetica,sans-Serif" font-size="10.00" fill="#ece1d7">(start_lsn, server_wal_end,</text>
<text xml:space="preserve" text-anchor="middle" x="1583.37" y="-2686.61" font-family="Helvetica,sans-Serif" font-size="10.00" fill="#ece1d7"> bytes)</text>
</g>
<!-- feed&#45;&gt;chunks -->
<g id="edge1" class="edge">
<title>feed&#45;&gt;chunks</title>
<path fill="none" stroke="#c1a78e" d="M1583.37,-2789.28C1583.37,-2780.4 1583.37,-2770.31 1583.37,-2760.25"/>
<polygon fill="#c1a78e" stroke="#c1a78e" points="1586.87,-2760.47 1583.37,-2750.47 1579.87,-2760.47 1586.87,-2760.47"/>
</g>
<!-- walker -->
<g id="node6" class="node">
<title>walker</title>
<path fill="#4d3a28" stroke="#6e6963" d="M1643.12,-2568.73C1643.12,-2568.73 1523.62,-2568.73 1523.62,-2568.73 1517.62,-2568.73 1511.62,-2562.73 1511.62,-2556.73 1511.62,-2556.73 1511.62,-2534.48 1511.62,-2534.48 1511.62,-2528.48 1517.62,-2522.48 1523.62,-2522.48 1523.62,-2522.48 1643.12,-2522.48 1643.12,-2522.48 1649.12,-2522.48 1655.12,-2528.48 1655.12,-2534.48 1655.12,-2534.48 1655.12,-2556.73 1655.12,-2556.73 1655.12,-2562.73 1649.12,-2568.73 1643.12,-2568.73"/>
<text xml:space="preserve" text-anchor="middle" x="1583.37" y="-2555.23" font-family="Helvetica,sans-Serif" font-size="10.00" fill="#ece1d7">StreamingWalker</text>
<text xml:space="preserve" text-anchor="middle" x="1583.37" y="-2542.48" font-family="Helvetica,sans-Serif" font-size="10.00" fill="#ece1d7">page&#45;state machine</text>
<text xml:space="preserve" text-anchor="middle" x="1583.37" y="-2529.73" font-family="Helvetica,sans-Serif" font-size="10.00" fill="#ece1d7">record stitch across pages</text>
</g>
<!-- chunks&#45;&gt;walker -->
<g id="edge6" class="edge">
<title>chunks&#45;&gt;walker</title>
<path fill="none" stroke="#a1a9cc" stroke-width="2" d="M1583.37,-2655.85C1583.37,-2632.32 1583.37,-2604.04 1583.37,-2582.15"/>
<polygon fill="#a1a9cc" stroke="#a1a9cc" stroke-width="2" points="1586.87,-2582.16 1583.37,-2572.16 1579.87,-2582.16 1586.87,-2582.16"/>
</g>
<!-- decide -->
<g id="node8" class="node">
<title>decide</title>
<path fill="#4d3a28" stroke="#6e6963" d="M1619.49,-2481.48C1619.49,-2481.48 1547.24,-2481.48 1547.24,-2481.48 1541.24,-2481.48 1535.24,-2475.48 1535.24,-2469.48 1535.24,-2469.48 1535.24,-2434.48 1535.24,-2434.48 1535.24,-2428.48 1541.24,-2422.48 1547.24,-2422.48 1547.24,-2422.48 1619.49,-2422.48 1619.49,-2422.48 1625.49,-2422.48 1631.49,-2428.48 1631.49,-2434.48 1631.49,-2434.48 1631.49,-2469.48 1631.49,-2469.48 1631.49,-2475.48 1625.49,-2481.48 1619.49,-2481.48"/>
<text xml:space="preserve" text-anchor="middle" x="1583.37" y="-2467.98" font-family="Helvetica,sans-Serif" font-size="10.00" fill="#ece1d7">Filter::decide</text>
<text xml:space="preserve" text-anchor="middle" x="1583.37" y="-2455.23" font-family="Helvetica,sans-Serif" font-size="10.00" fill="#ece1d7">Keep catalog</text>
<text xml:space="preserve" text-anchor="middle" x="1583.37" y="-2442.48" font-family="Helvetica,sans-Serif" font-size="10.00" fill="#ece1d7">Drop user&#45;heap</text>
<text xml:space="preserve" text-anchor="middle" x="1583.37" y="-2429.73" font-family="Helvetica,sans-Serif" font-size="10.00" fill="#ece1d7">Empty → reclass</text>
</g>
<!-- walker&#45;&gt;decide -->
<g id="edge2" class="edge">
<title>walker&#45;&gt;decide</title>
<path fill="none" stroke="#c1a78e" d="M1583.37,-2522.43C1583.37,-2513.67 1583.37,-2503.33 1583.37,-2493.34"/>
<polygon fill="#c1a78e" stroke="#c1a78e" points="1586.87,-2493.41 1583.37,-2483.41 1579.87,-2493.41 1586.87,-2493.41"/>
</g>
<!-- track -->
<g id="node7" class="node">
<title>track</title>
<path fill="#4d3a28" stroke="#6e6963" d="M1730.99,-2381.48C1730.99,-2381.48 1607.74,-2381.48 1607.74,-2381.48 1601.74,-2381.48 1595.74,-2375.48 1595.74,-2369.48 1595.74,-2369.48 1595.74,-2347.23 1595.74,-2347.23 1595.74,-2341.23 1601.74,-2335.23 1607.74,-2335.23 1607.74,-2335.23 1730.99,-2335.23 1730.99,-2335.23 1736.99,-2335.23 1742.99,-2341.23 1742.99,-2347.23 1742.99,-2347.23 1742.99,-2369.48 1742.99,-2369.48 1742.99,-2375.48 1736.99,-2381.48 1730.99,-2381.48"/>
<text xml:space="preserve" text-anchor="middle" x="1669.37" y="-2367.98" font-family="Helvetica,sans-Serif" font-size="10.00" fill="#ece1d7">CatalogTracker</text>
<text xml:space="preserve" text-anchor="middle" x="1669.37" y="-2355.23" font-family="Helvetica,sans-Serif" font-size="10.00" fill="#ece1d7">relfilenode set</text>
<text xml:space="preserve" text-anchor="middle" x="1669.37" y="-2342.48" font-family="Helvetica,sans-Serif" font-size="10.00" fill="#ece1d7">(relmap + pg_class writes)</text>
</g>
<!-- inval -->
<g id="node30" class="node">
<title>inval</title>
<path fill="#4d4d28" stroke="#6e6963" d="M1740.24,-830.42C1740.24,-830.42 1660.49,-830.42 1660.49,-830.42 1654.49,-830.42 1648.49,-824.42 1648.49,-818.42 1648.49,-818.42 1648.49,-783.42 1648.49,-783.42 1648.49,-777.42 1654.49,-771.42 1660.49,-771.42 1660.49,-771.42 1740.24,-771.42 1740.24,-771.42 1746.24,-771.42 1752.24,-777.42 1752.24,-783.42 1752.24,-783.42 1752.24,-818.42 1752.24,-818.42 1752.24,-824.42 1746.24,-830.42 1740.24,-830.42"/>
<text xml:space="preserve" text-anchor="middle" x="1700.37" y="-816.92" font-family="Helvetica,sans-Serif" font-size="10.00" fill="#ece1d7">invalidation_drain</text>
<text xml:space="preserve" text-anchor="middle" x="1700.37" y="-804.17" font-family="Helvetica,sans-Serif" font-size="10.00" fill="#ece1d7">(tokio task)</text>
<text xml:space="preserve" text-anchor="middle" x="1700.37" y="-791.42" font-family="Helvetica,sans-Serif" font-size="10.00" fill="#ece1d7">bump generation</text>
<text xml:space="preserve" text-anchor="middle" x="1700.37" y="-778.67" font-family="Helvetica,sans-Serif" font-size="10.00" fill="#ece1d7">on catalog write</text>
</g>
<!-- track&#45;&gt;inval -->
<g id="edge33" class="edge">
<title>track&#45;&gt;inval</title>
<path fill="none" stroke="#cba85e" stroke-dasharray="5,2" d="M1729.61,-2334.85C1754.82,-2321.19 1778.37,-2300.78 1778.37,-2272.2 1778.37,-2272.2 1778.37,-2272.2 1778.37,-956.67 1778.37,-913.37 1753.72,-869.85 1732.13,-840.03"/>
<polygon fill="#cba85e" stroke="#cba85e" points="1734.96,-837.98 1726.17,-832.07 1729.36,-842.17 1734.96,-837.98"/>
</g>
<!-- decide&#45;&gt;track -->
<g id="edge5" class="edge">
<title>decide&#45;&gt;track</title>
<path fill="none" stroke="#c1a78e" stroke-dasharray="5,2" d="M1618.22,-2413.85C1625.72,-2405.87 1633.55,-2397.52 1640.78,-2389.82"/>
<polygon fill="#c1a78e" stroke="#c1a78e" points="1611.41,-2421.11 1614.98,-2410.73 1614,-2418.35 1618.26,-2413.81 1618.26,-2413.81 1618.26,-2413.81 1614,-2418.35 1621.54,-2416.89 1611.41,-2421.11"/>
<polygon fill="#c1a78e" stroke="#c1a78e" points="1643,-2392.56 1647.3,-2382.88 1637.9,-2387.77 1643,-2392.56"/>
</g>
<!-- rewrite -->
<g id="node9" class="node">
<title>rewrite</title>
<path fill="#4d3a28" stroke="#6e6963" d="M1551.74,-2381.48C1551.74,-2381.48 1444.99,-2381.48 1444.99,-2381.48 1438.99,-2381.48 1432.99,-2375.48 1432.99,-2369.48 1432.99,-2369.48 1432.99,-2347.23 1432.99,-2347.23 1432.99,-2341.23 1438.99,-2335.23 1444.99,-2335.23 1444.99,-2335.23 1551.74,-2335.23 1551.74,-2335.23 1557.74,-2335.23 1563.74,-2341.23 1563.74,-2347.23 1563.74,-2347.23 1563.74,-2369.48 1563.74,-2369.48 1563.74,-2375.48 1557.74,-2381.48 1551.74,-2381.48"/>
<text xml:space="preserve" text-anchor="middle" x="1498.37" y="-2367.98" font-family="Helvetica,sans-Serif" font-size="10.00" fill="#ece1d7">rewrite::noop_replace</text>
<text xml:space="preserve" text-anchor="middle" x="1498.37" y="-2355.23" font-family="Helvetica,sans-Serif" font-size="10.00" fill="#ece1d7">in&#45;place at byte_ranges</text>
<text xml:space="preserve" text-anchor="middle" x="1498.37" y="-2342.48" font-family="Helvetica,sans-Serif" font-size="10.00" fill="#ece1d7">+ CRC32C recompute</text>
</g>
<!-- decide&#45;&gt;rewrite -->
<g id="edge3" class="edge">
<title>decide&#45;&gt;rewrite</title>
<path fill="none" stroke="#c1a78e" d="M1556.47,-2421.99C1547.05,-2411.84 1536.44,-2400.4 1526.89,-2390.1"/>
<polygon fill="#c1a78e" stroke="#c1a78e" points="1529.56,-2387.83 1520.19,-2382.88 1524.43,-2392.59 1529.56,-2387.83"/>
</g>
<!-- segbuf -->
<g id="node10" class="node">
<title>segbuf</title>
<path fill="#4d3a28" stroke="#6e6963" d="M1560.87,-2290.05C1560.87,-2292.36 1532.41,-2294.23 1497.37,-2294.23 1462.33,-2294.23 1433.87,-2292.36 1433.87,-2290.05 1433.87,-2290.05 1433.87,-2252.36 1433.87,-2252.36 1433.87,-2250.05 1462.33,-2248.17 1497.37,-2248.17 1532.41,-2248.17 1560.87,-2250.05 1560.87,-2252.36 1560.87,-2252.36 1560.87,-2290.05 1560.87,-2290.05"/>
<path fill="none" stroke="#6e6963" d="M1560.87,-2290.05C1560.87,-2287.74 1532.41,-2285.86 1497.37,-2285.86 1462.33,-2285.86 1433.87,-2287.74 1433.87,-2290.05"/>
<text xml:space="preserve" text-anchor="middle" x="1497.37" y="-2274.45" font-family="Helvetica,sans-Serif" font-size="10.00" fill="#ece1d7">16 MiB segment buffer</text>
<text xml:space="preserve" text-anchor="middle" x="1497.37" y="-2261.7" font-family="Helvetica,sans-Serif" font-size="10.00" fill="#ece1d7">(rewritten image)</text>
</g>
<!-- rewrite&#45;&gt;segbuf -->
<g id="edge4" class="edge">
<title>rewrite&#45;&gt;segbuf</title>
<path fill="none" stroke="#c1a78e" d="M1498.11,-2334.99C1498,-2326.16 1497.88,-2315.82 1497.77,-2306.11"/>
<polygon fill="#c1a78e" stroke="#c1a78e" points="1501.27,-2306.19 1497.65,-2296.24 1494.27,-2306.28 1501.27,-2306.19"/>
</g>
<!-- bytesink -->
<g id="node11" class="node">
<title>bytesink</title>
<path fill="#4d3340" stroke="#6e6963" d="M1607.62,-2154.3C1607.62,-2154.3 1509.12,-2154.3 1509.12,-2154.3 1503.12,-2154.3 1497.12,-2148.3 1497.12,-2142.3 1497.12,-2142.3 1497.12,-2120.05 1497.12,-2120.05 1497.12,-2114.05 1503.12,-2108.05 1509.12,-2108.05 1509.12,-2108.05 1607.62,-2108.05 1607.62,-2108.05 1613.62,-2108.05 1619.62,-2114.05 1619.62,-2120.05 1619.62,-2120.05 1619.62,-2142.3 1619.62,-2142.3 1619.62,-2148.3 1613.62,-2154.3 1607.62,-2154.3"/>
<text xml:space="preserve" text-anchor="middle" x="1558.37" y="-2140.8" font-family="Helvetica,sans-Serif" font-size="10.00" fill="#ece1d7">❶ ShadowStreamSink</text>
<text xml:space="preserve" text-anchor="middle" x="1558.37" y="-2128.05" font-family="Helvetica,sans-Serif" font-size="10.00" fill="#ece1d7">on_record_bytes</text>
<text xml:space="preserve" text-anchor="middle" x="1558.37" y="-2115.3" font-family="Helvetica,sans-Serif" font-size="10.00" fill="#ece1d7">(stays on pump)</text>
</g>
<!-- segbuf&#45;&gt;bytesink -->
<g id="edge7" class="edge">
<title>segbuf&#45;&gt;bytesink</title>
<path fill="none" stroke="#bd8183" stroke-width="2" d="M1507.31,-2247.72C1517.05,-2225.66 1532.05,-2191.73 1543.27,-2166.34"/>
<polygon fill="#bd8183" stroke="#bd8183" stroke-width="2" points="1546.37,-2167.98 1547.21,-2157.42 1539.97,-2165.15 1546.37,-2167.98"/>
</g>
<!-- recsink -->
<g id="node12" class="node">
<title>recsink</title>
<path fill="#4d3340" stroke="#6e6963" d="M1277.62,-2160.67C1277.62,-2160.67 1179.12,-2160.67 1179.12,-2160.67 1173.12,-2160.67 1167.12,-2154.67 1167.12,-2148.67 1167.12,-2148.67 1167.12,-2113.67 1167.12,-2113.67 1167.12,-2107.67 1173.12,-2101.67 1179.12,-2101.67 1179.12,-2101.67 1277.62,-2101.67 1277.62,-2101.67 1283.62,-2101.67 1289.62,-2107.67 1289.62,-2113.67 1289.62,-2113.67 1289.62,-2148.67 1289.62,-2148.67 1289.62,-2154.67 1283.62,-2160.67 1277.62,-2160.67"/>
<text xml:space="preserve" text-anchor="middle" x="1228.37" y="-2147.17" font-family="Helvetica,sans-Serif" font-size="10.00" fill="#ece1d7">❷ on_record →</text>
<text xml:space="preserve" text-anchor="middle" x="1228.37" y="-2134.42" font-family="Helvetica,sans-Serif" font-size="10.00" fill="#ece1d7">QueueingRecordSink</text>
<text xml:space="preserve" text-anchor="middle" x="1228.37" y="-2121.67" font-family="Helvetica,sans-Serif" font-size="10.00" fill="#ece1d7">(clones + enqueues,</text>
<text xml:space="preserve" text-anchor="middle" x="1228.37" y="-2108.92" font-family="Helvetica,sans-Serif" font-size="10.00" fill="#ece1d7"> returns immediately)</text>
</g>
<!-- segbuf&#45;&gt;recsink -->
<g id="edge8" class="edge">
<title>segbuf&#45;&gt;recsink</title>
<path fill="none" stroke="#c1a78e" d="M1433.43,-2259.24C1398.71,-2251.46 1355.94,-2238.83 1321.37,-2219.17 1298.58,-2206.21 1276.94,-2186.59 1260.29,-2169.25"/>
<polygon fill="#c1a78e" stroke="#c1a78e" points="1262.95,-2166.98 1253.56,-2162.07 1257.84,-2171.77 1262.95,-2166.98"/>
</g>
<!-- segsink -->
<g id="node13" class="node">
<title>segsink</title>
<path fill="#4d3340" stroke="#6e6963" d="M1443.74,-2154.3C1443.74,-2154.3 1348.99,-2154.3 1348.99,-2154.3 1342.99,-2154.3 1336.99,-2148.3 1336.99,-2142.3 1336.99,-2142.3 1336.99,-2120.05 1336.99,-2120.05 1336.99,-2114.05 1342.99,-2108.05 1348.99,-2108.05 1348.99,-2108.05 1443.74,-2108.05 1443.74,-2108.05 1449.74,-2108.05 1455.74,-2114.05 1455.74,-2120.05 1455.74,-2120.05 1455.74,-2142.3 1455.74,-2142.3 1455.74,-2148.3 1449.74,-2154.3 1443.74,-2154.3"/>
<text xml:space="preserve" text-anchor="middle" x="1396.37" y="-2140.8" font-family="Helvetica,sans-Serif" font-size="10.00" fill="#ece1d7">❸ DirSegmentSink</text>
<text xml:space="preserve" text-anchor="middle" x="1396.37" y="-2128.05" font-family="Helvetica,sans-Serif" font-size="10.00" fill="#ece1d7">on_segment</text>
<text xml:space="preserve" text-anchor="middle" x="1396.37" y="-2115.3" font-family="Helvetica,sans-Serif" font-size="10.00" fill="#ece1d7">(at 16 MiB boundary)</text>
</g>
<!-- segbuf&#45;&gt;segsink -->
<g id="edge9" class="edge">
<title>segbuf&#45;&gt;segsink</title>
<path fill="none" stroke="#c1a78e" stroke-dasharray="5,2" d="M1480.92,-2247.72C1464.19,-2224.86 1438.13,-2189.25 1419.37,-2163.6"/>
<polygon fill="#c1a78e" stroke="#c1a78e" points="1422.44,-2161.87 1413.71,-2155.87 1416.79,-2166.01 1422.44,-2161.87"/>
</g>
<!-- sendq -->
<g id="node35" class="node">
<title>sendq</title>
<path fill="#5d3f40" stroke="#6e6963" d="M2008.87,-371.55C2008.87,-371.55 1905.87,-371.55 1905.87,-371.55 1899.87,-371.55 1893.87,-365.55 1893.87,-359.55 1893.87,-359.55 1893.87,-337.3 1893.87,-337.3 1893.87,-331.3 1899.87,-325.3 1905.87,-325.3 1905.87,-325.3 2008.87,-325.3 2008.87,-325.3 2014.87,-325.3 2020.87,-331.3 2020.87,-337.3 2020.87,-337.3 2020.87,-359.55 2020.87,-359.55 2020.87,-365.55 2014.87,-371.55 2008.87,-371.55"/>
<text xml:space="preserve" text-anchor="middle" x="1957.37" y="-358.05" font-family="Helvetica,sans-Serif" font-size="10.00" fill="#ece1d7">per&#45;conn send queue</text>
<text xml:space="preserve" text-anchor="middle" x="1957.37" y="-345.3" font-family="Helvetica,sans-Serif" font-size="10.00" fill="#ece1d7">&#39;w&#39; XLogData @ record</text>
<text xml:space="preserve" text-anchor="middle" x="1957.37" y="-332.55" font-family="Helvetica,sans-Serif" font-size="10.00" fill="#ece1d7">&#39;k&#39; keepalive on idle</text>
</g>
<!-- bytesink&#45;&gt;sendq -->
<g id="edge36" class="edge">
<title>bytesink&#45;&gt;sendq</title>
<path fill="none" stroke="#bd8183" stroke-width="2" d="M1602.91,-2107.74C1648.39,-2081.32 1712.37,-2032.79 1712.37,-1968.92 1712.37,-1968.92 1712.37,-1968.92 1712.37,-1420.67 1712.37,-1308.02 1844.37,-1316.95 1844.37,-1204.3 1844.37,-1204.3 1844.37,-1204.3 1844.37,-631.92 1844.37,-535.91 1901.33,-433.83 1934.37,-382.7"/>
<polygon fill="#bd8183" stroke="#bd8183" stroke-width="2" points="1937.18,-384.8 1939.75,-374.52 1931.33,-380.95 1937.18,-384.8"/>
</g>
<!-- qbuf -->
<g id="node14" class="node">
<title>qbuf</title>
<path fill="#4d3a28" stroke="#6e6963" d="M1190.15,-2014.17C1190.15,-2014.17 999.75,-2014.17 999.75,-2014.17 993.75,-2014.17 984.67,-2009.02 981.6,-2003.87 981.6,-2003.87 938.74,-1931.98 938.74,-1931.98 935.66,-1926.83 938.59,-1921.67 944.59,-1921.67 944.59,-1921.67 1134.99,-1921.67 1134.99,-1921.67 1140.99,-1921.67 1150.07,-1926.83 1153.14,-1931.98 1153.14,-1931.98 1196,-2003.87 1196,-2003.87 1199.07,-2009.02 1196.15,-2014.17 1190.15,-2014.17"/>
<text xml:space="preserve" text-anchor="middle" x="1067.37" y="-1977.55" font-family="Helvetica,sans-Serif" font-size="10.00" fill="#ece1d7">pump&#45;side batch</text>
<text xml:space="preserve" text-anchor="middle" x="1067.37" y="-1964.8" font-family="Helvetica,sans-Serif" font-size="10.00" fill="#ece1d7">Vec&lt;Record&lt;&#39;static&gt;&gt;</text>
<text xml:space="preserve" text-anchor="middle" x="1067.37" y="-1952.05" font-family="Helvetica,sans-Serif" font-size="10.00" fill="#ece1d7">batch_size = 64</text>
</g>
<!-- recsink&#45;&gt;qbuf -->
<g id="edge13" class="edge">
<title>recsink&#45;&gt;qbuf</title>
<path fill="none" stroke="#c1a78e" d="M1199.59,-2101.34C1193.36,-2095.11 1186.43,-2088.16 1179.08,-2080.8"/>
<polygon fill="#c1a78e" stroke="#c1a78e" points="1181.57,-2078.35 1172.03,-2073.74 1176.62,-2083.29 1181.57,-2078.35"/>
</g>
<!-- outdir -->
<g id="node37" class="node">
<title>outdir</title>
<polygon fill="#4d3850" stroke="#6e6963" points="1290.37,-1131.17 1202.37,-1131.17 1202.37,-1084.92 1296.37,-1084.92 1296.37,-1125.17 1290.37,-1131.17"/>
<polyline fill="none" stroke="#6e6963" points="1290.37,-1131.17 1290.37,-1125.17"/>
<polyline fill="none" stroke="#6e6963" points="1296.37,-1125.17 1290.37,-1125.17"/>
<text xml:space="preserve" text-anchor="middle" x="1249.37" y="-1117.67" font-family="Helvetica,sans-Serif" font-size="10.00" fill="#ece1d7">out/&lt;seg&gt;</text>
<text xml:space="preserve" text-anchor="middle" x="1249.37" y="-1104.92" font-family="Helvetica,sans-Serif" font-size="10.00" fill="#ece1d7">16 MiB filtered</text>
<text xml:space="preserve" text-anchor="middle" x="1249.37" y="-1092.17" font-family="Helvetica,sans-Serif" font-size="10.00" fill="#ece1d7">+ manifest.json</text>
</g>
<!-- segsink&#45;&gt;outdir -->
<g id="edge42" class="edge">
<title>segsink&#45;&gt;outdir</title>
<path fill="none" stroke="#c1a78e" d="M1373.39,-2107.64C1346.14,-2078.41 1304.37,-2024.52 1304.37,-1968.92 1304.37,-1968.92 1304.37,-1968.92 1304.37,-1257.42 1304.37,-1215.34 1284.68,-1170.49 1268.86,-1141.26"/>
<polygon fill="#c1a78e" stroke="#c1a78e" points="1271.92,-1139.57 1263.99,-1132.55 1265.81,-1142.98 1271.92,-1139.57"/>
</g>
<!-- qchan -->
<g id="node15" class="node">
<title>qchan</title>
<path fill="#4d3a28" stroke="#6e6963" d="M1154.7,-1880.67C1154.7,-1880.67 972.96,-1880.67 972.96,-1880.67 966.96,-1880.67 957.98,-1875.46 955,-1870.26 955,-1870.26 913.99,-1798.59 913.99,-1798.59 911.01,-1793.38 914.03,-1788.17 920.03,-1788.17 920.03,-1788.17 1101.78,-1788.17 1101.78,-1788.17 1107.78,-1788.17 1116.76,-1793.38 1119.74,-1798.59 1119.74,-1798.59 1160.74,-1870.26 1160.74,-1870.26 1163.72,-1875.46 1160.7,-1880.67 1154.7,-1880.67"/>
<text xml:space="preserve" text-anchor="middle" x="1037.37" y="-1844.05" font-family="Helvetica,sans-Serif" font-size="10.00" fill="#ece1d7">unbounded mpsc</text>
<text xml:space="preserve" text-anchor="middle" x="1037.37" y="-1831.3" font-family="Helvetica,sans-Serif" font-size="10.00" fill="#ece1d7">Vec&lt;Record&gt; batches</text>
<text xml:space="preserve" text-anchor="middle" x="1037.37" y="-1818.55" font-family="Helvetica,sans-Serif" font-size="10.00" fill="#ece1d7">soft cap → yield_now</text>
</g>
<!-- qbuf&#45;&gt;qchan -->
<g id="edge10" class="edge">
<title>qbuf&#45;&gt;qchan</title>
<path fill="none" stroke="#c1a78e" d="M1056.96,-1921.3C1054.8,-1911.81 1052.49,-1901.71 1050.25,-1891.89"/>
<polygon fill="#c1a78e" stroke="#c1a78e" points="1053.73,-1891.41 1048.1,-1882.44 1046.91,-1892.97 1053.73,-1891.41"/>
</g>
<!-- qwrk -->
<g id="node16" class="node">
<title>qwrk</title>
<path fill="#4d3a28" stroke="#6e6963" d="M1029.12,-1747.17C1029.12,-1747.17 951.62,-1747.17 951.62,-1747.17 945.62,-1747.17 939.62,-1741.17 939.62,-1735.17 939.62,-1735.17 939.62,-1712.92 939.62,-1712.92 939.62,-1706.92 945.62,-1700.92 951.62,-1700.92 951.62,-1700.92 1029.12,-1700.92 1029.12,-1700.92 1035.12,-1700.92 1041.12,-1706.92 1041.12,-1712.92 1041.12,-1712.92 1041.12,-1735.17 1041.12,-1735.17 1041.12,-1741.17 1035.12,-1747.17 1029.12,-1747.17"/>
<text xml:space="preserve" text-anchor="middle" x="990.37" y="-1733.67" font-family="Helvetica,sans-Serif" font-size="10.00" fill="#ece1d7">worker task</text>
<text xml:space="preserve" text-anchor="middle" x="990.37" y="-1720.92" font-family="Helvetica,sans-Serif" font-size="10.00" fill="#ece1d7">drains batches,</text>
<text xml:space="preserve" text-anchor="middle" x="990.37" y="-1708.17" font-family="Helvetica,sans-Serif" font-size="10.00" fill="#ece1d7">fires on_idle ticks</text>
</g>
<!-- qchan&#45;&gt;qwrk -->
<g id="edge11" class="edge">
<title>qchan&#45;&gt;qwrk</title>
<path fill="none" stroke="#c1a78e" d="M1017.57,-1787.78C1013.25,-1777.8 1008.75,-1767.42 1004.68,-1758.05"/>
<polygon fill="#c1a78e" stroke="#c1a78e" points="1007.94,-1756.76 1000.75,-1748.98 1001.52,-1759.55 1007.94,-1756.76"/>
</g>
<!-- qerr -->
<g id="node17" class="node">
<title>qerr</title>
<polygon fill="#4d3a28" stroke="#6e6963" points="1047.87,-1608.3 926.87,-1608.3 926.87,-1572.3 1053.87,-1572.3 1053.87,-1602.3 1047.87,-1608.3"/>
<polyline fill="none" stroke="#6e6963" points="1047.87,-1608.3 1047.87,-1602.3"/>
<polyline fill="none" stroke="#6e6963" points="1053.87,-1602.3 1047.87,-1602.3"/>
<text xml:space="preserve" text-anchor="middle" x="990.37" y="-1593.55" font-family="Helvetica,sans-Serif" font-size="10.00" fill="#ece1d7">shared err slot</text>
<text xml:space="preserve" text-anchor="middle" x="990.37" y="-1580.8" font-family="Helvetica,sans-Serif" font-size="10.00" fill="#ece1d7">surfaces back to pump</text>
</g>
<!-- qwrk&#45;&gt;qerr -->
<g id="edge12" class="edge">
<title>qwrk&#45;&gt;qerr</title>
<path fill="none" stroke="#b58b86" stroke-dasharray="5,2" d="M990.37,-1700.7C990.37,-1678.46 990.37,-1644.26 990.37,-1620.02"/>
<polygon fill="#b58b86" stroke="#b58b86" points="993.87,-1620.21 990.37,-1610.21 986.87,-1620.21 993.87,-1620.21"/>
</g>
<!-- catgate -->
<g id="node18" class="node">
<title>catgate</title>
<path fill="#4d4128" stroke="#6e6963" d="M823.62,-1613.42C823.62,-1613.42 719.12,-1613.42 719.12,-1613.42 713.12,-1613.42 707.12,-1607.42 707.12,-1601.42 707.12,-1601.42 707.12,-1579.17 707.12,-1579.17 707.12,-1573.17 713.12,-1567.17 719.12,-1567.17 719.12,-1567.17 823.62,-1567.17 823.62,-1567.17 829.62,-1567.17 835.62,-1573.17 835.62,-1579.17 835.62,-1579.17 835.62,-1601.42 835.62,-1601.42 835.62,-1607.42 829.62,-1613.42 823.62,-1613.42"/>
<text xml:space="preserve" text-anchor="middle" x="771.37" y="-1599.92" font-family="Helvetica,sans-Serif" font-size="10.00" fill="#ece1d7">BufferingDecoderSink</text>
<text xml:space="preserve" text-anchor="middle" x="771.37" y="-1587.17" font-family="Helvetica,sans-Serif" font-size="10.00" fill="#ece1d7">relation_at(rfn, lsn)</text>
<text xml:space="preserve" text-anchor="middle" x="771.37" y="-1574.42" font-family="Helvetica,sans-Serif" font-size="10.00" fill="#ece1d7">wait_for_replay(at_lsn)</text>
</g>
<!-- qwrk&#45;&gt;catgate -->
<g id="edge17" class="edge">
<title>qwrk&#45;&gt;catgate</title>
<path fill="none" stroke="#c1a78e" d="M939.35,-1706.97C915.38,-1698.31 886.96,-1686.42 863.37,-1671.92 861.11,-1670.53 858.84,-1669.08 856.59,-1667.59"/>
<polygon fill="#c1a78e" stroke="#c1a78e" points="858.82,-1664.88 848.61,-1662.05 854.83,-1670.63 858.82,-1664.88"/>
</g>
<!-- decoder -->
<g id="node19" class="node">
<title>decoder</title>
<path fill="#4d4128" stroke="#6e6963" d="M804.62,-1526.17C804.62,-1526.17 682.12,-1526.17 682.12,-1526.17 676.12,-1526.17 670.12,-1520.17 670.12,-1514.17 670.12,-1514.17 670.12,-1453.67 670.12,-1453.67 670.12,-1447.67 676.12,-1441.67 682.12,-1441.67 682.12,-1441.67 804.62,-1441.67 804.62,-1441.67 810.62,-1441.67 816.62,-1447.67 816.62,-1453.67 816.62,-1453.67 816.62,-1514.17 816.62,-1514.17 816.62,-1520.17 810.62,-1526.17 804.62,-1526.17"/>
<text xml:space="preserve" text-anchor="middle" x="743.37" y="-1512.67" font-family="Helvetica,sans-Serif" font-size="10.00" fill="#ece1d7">heap_decoder</text>
<text xml:space="preserve" text-anchor="middle" x="743.37" y="-1499.92" font-family="Helvetica,sans-Serif" font-size="10.00" fill="#ece1d7">INSERT / DELETE /</text>
<text xml:space="preserve" text-anchor="middle" x="743.37" y="-1487.17" font-family="Helvetica,sans-Serif" font-size="10.00" fill="#ece1d7">UPDATE / HOT / TRUNCATE</text>
<text xml:space="preserve" text-anchor="middle" x="743.37" y="-1474.42" font-family="Helvetica,sans-Serif" font-size="10.00" fill="#ece1d7">Tier&#45;1 fixed&#45;width</text>
<text xml:space="preserve" text-anchor="middle" x="743.37" y="-1461.67" font-family="Helvetica,sans-Serif" font-size="10.00" fill="#ece1d7">Tier&#45;2 length&#45;prefixed</text>
<text xml:space="preserve" text-anchor="middle" x="743.37" y="-1448.92" font-family="Helvetica,sans-Serif" font-size="10.00" fill="#ece1d7">Replica&#45;identity matrix</text>
</g>
<!-- catgate&#45;&gt;decoder -->
<g id="edge14" class="edge">
<title>catgate&#45;&gt;decoder</title>
<path fill="none" stroke="#c1a78e" d="M765.36,-1566.91C763.05,-1558.28 760.3,-1548.03 757.54,-1537.74"/>
<polygon fill="#c1a78e" stroke="#c1a78e" points="760.93,-1536.86 754.95,-1528.11 754.16,-1538.67 760.93,-1536.86"/>
</g>
<!-- lru -->
<g id="node28" class="node">
<title>lru</title>
<path fill="#4d4d28" stroke="#6e6963" d="M1705.12,-656.05C1705.12,-656.05 1609.62,-656.05 1609.62,-656.05 1603.62,-656.05 1597.62,-650.05 1597.62,-644.05 1597.62,-644.05 1597.62,-621.8 1597.62,-621.8 1597.62,-615.8 1603.62,-609.8 1609.62,-609.8 1609.62,-609.8 1705.12,-609.8 1705.12,-609.8 1711.12,-609.8 1717.12,-615.8 1717.12,-621.8 1717.12,-621.8 1717.12,-644.05 1717.12,-644.05 1717.12,-650.05 1711.12,-656.05 1705.12,-656.05"/>
<text xml:space="preserve" text-anchor="middle" x="1657.37" y="-642.55" font-family="Helvetica,sans-Serif" font-size="10.00" fill="#ece1d7">LRU 4096</text>
<text xml:space="preserve" text-anchor="middle" x="1657.37" y="-629.8" font-family="Helvetica,sans-Serif" font-size="10.00" fill="#ece1d7">by_filenode / by_oid</text>
<text xml:space="preserve" text-anchor="middle" x="1657.37" y="-617.05" font-family="Helvetica,sans-Serif" font-size="10.00" fill="#ece1d7">+ generation counter</text>
</g>
<!-- catgate&#45;&gt;lru -->
<g id="edge32" class="edge">
<title>catgate&#45;&gt;lru</title>
<path fill="none" stroke="#cba85e" stroke-dasharray="5,2" d="M799.52,-1566.84C811.46,-1555.83 824.43,-1541.62 832.37,-1526.17 872.72,-1447.67 909.16,-1398.9 855.37,-1328.92 844.58,-1314.88 716.93,-1296.38 701.37,-1287.92 662.39,-1266.73 668.54,-1237.45 627.37,-1220.92 605.09,-1211.98 214.47,-1223.47 195.37,-1208.92 82.47,-1122.92 27.58,-997.84 127.37,-896.92 141.24,-882.9 821.13,-900.12 837.37,-888.92 900.3,-845.55 837.73,-772.7 900.37,-728.92 915.36,-718.45 1211.2,-722.97 1229.37,-720.92 1356.46,-706.57 1501.89,-673.36 1586.31,-652.38"/>
<polygon fill="#cba85e" stroke="#cba85e" points="1586.98,-655.81 1595.83,-649.99 1585.28,-649.02 1586.98,-655.81"/>
<text xml:space="preserve" text-anchor="middle" x="210.37" y="-1200.37" font-family="Helvetica,sans-Serif" font-size="9.00" fill="#ece1d7">lookup</text>
</g>
<!-- xactbuf -->
<g id="node20" class="node">
<title>xactbuf</title>
<path fill="#4d4128" stroke="#6e6963" d="M827.49,-1400.67C827.49,-1400.67 623.24,-1400.67 623.24,-1400.67 617.24,-1400.67 611.24,-1394.67 611.24,-1388.67 611.24,-1388.67 611.24,-1340.92 611.24,-1340.92 611.24,-1334.92 617.24,-1328.92 623.24,-1328.92 623.24,-1328.92 827.49,-1328.92 827.49,-1328.92 833.49,-1328.92 839.49,-1334.92 839.49,-1340.92 839.49,-1340.92 839.49,-1388.67 839.49,-1388.67 839.49,-1394.67 833.49,-1400.67 827.49,-1400.67"/>
<text xml:space="preserve" text-anchor="middle" x="725.37" y="-1387.17" font-family="Helvetica,sans-Serif" font-size="10.00" fill="#ece1d7">XactBuffer + spill v6</text>
<text xml:space="preserve" text-anchor="middle" x="725.37" y="-1374.42" font-family="Helvetica,sans-Serif" font-size="10.00" fill="#ece1d7">Heap / Chunk / ToastDelete / Raw / dict</text>
<text xml:space="preserve" text-anchor="middle" x="725.37" y="-1361.67" font-family="Helvetica,sans-Serif" font-size="10.00" fill="#ece1d7">dirty tree + SMGR markers + commit stash</text>
<text xml:space="preserve" text-anchor="middle" x="725.37" y="-1348.92" font-family="Helvetica,sans-Serif" font-size="10.00" fill="#ece1d7">SubxactTracker</text>
<text xml:space="preserve" text-anchor="middle" x="725.37" y="-1336.17" font-family="Helvetica,sans-Serif" font-size="10.00" fill="#ece1d7">budget = work_mem</text>
</g>
<!-- decoder&#45;&gt;xactbuf -->
<g id="edge15" class="edge">
<title>decoder&#45;&gt;xactbuf</title>
<path fill="none" stroke="#c1a78e" d="M736.97,-1441.3C735.54,-1431.95 734,-1421.97 732.54,-1412.43"/>
<polygon fill="#c1a78e" stroke="#c1a78e" points="736,-1411.94 731.02,-1402.58 729.08,-1413 736,-1411.94"/>
</g>
<!-- drain -->
<g id="node21" class="node">
<title>drain</title>
<path fill="#4d4128" stroke="#6e6963" d="M599.62,-1287.92C599.62,-1287.92 405.12,-1287.92 405.12,-1287.92 399.12,-1287.92 393.12,-1281.92 393.12,-1275.92 393.12,-1275.92 393.12,-1240.92 393.12,-1240.92 393.12,-1234.92 399.12,-1228.92 405.12,-1228.92 405.12,-1228.92 599.62,-1228.92 599.62,-1228.92 605.62,-1228.92 611.62,-1234.92 611.62,-1240.92 611.62,-1240.92 611.62,-1275.92 611.62,-1275.92 611.62,-1281.92 605.62,-1287.92 599.62,-1287.92"/>
<text xml:space="preserve" text-anchor="middle" x="502.37" y="-1274.42" font-family="Helvetica,sans-Serif" font-size="10.00" fill="#ece1d7">transaction reorder</text>
<text xml:space="preserve" text-anchor="middle" x="502.37" y="-1261.67" font-family="Helvetica,sans-Serif" font-size="10.00" fill="#ece1d7">plan (side&#45;effect&#45;free: detoast + route +</text>
<text xml:space="preserve" text-anchor="middle" x="502.37" y="-1248.92" font-family="Helvetica,sans-Serif" font-size="10.00" fill="#ece1d7">raw decode) then execute sealed plan</text>
<text xml:space="preserve" text-anchor="middle" x="502.37" y="-1236.17" font-family="Helvetica,sans-Serif" font-size="10.00" fill="#ece1d7">wait for earlier data before table changes</text>
</g>
<!-- xactbuf&#45;&gt;drain -->
<g id="edge16" class="edge">
<title>xactbuf&#45;&gt;drain</title>
<path fill="none" stroke="#c1a78e" d="M649.87,-1328.46C625.44,-1317.02 598.42,-1304.38 574.26,-1293.07"/>
<polygon fill="#c1a78e" stroke="#c1a78e" points="576,-1290.02 565.46,-1288.95 573.03,-1296.36 576,-1290.02"/>
</g>
<!-- spill -->
<g id="node38" class="node">
<title>spill</title>
<polygon fill="#4d3850" stroke="#6e6963" points="944.37,-1131.17 796.37,-1131.17 796.37,-1084.92 950.37,-1084.92 950.37,-1125.17 944.37,-1131.17"/>
<polyline fill="none" stroke="#6e6963" points="944.37,-1131.17 944.37,-1125.17"/>
<polyline fill="none" stroke="#6e6963" points="950.37,-1125.17 944.37,-1125.17"/>
<text xml:space="preserve" text-anchor="middle" x="873.37" y="-1117.67" font-family="Helvetica,sans-Serif" font-size="10.00" fill="#ece1d7">{spill}/xid&#45;&lt;xid&gt;&#45;&lt;lsn&gt;.bin</text>
<text xml:space="preserve" text-anchor="middle" x="873.37" y="-1104.92" font-family="Helvetica,sans-Serif" font-size="10.00" fill="#ece1d7">append&#45;only</text>
<text xml:space="preserve" text-anchor="middle" x="873.37" y="-1092.17" font-family="Helvetica,sans-Serif" font-size="10.00" fill="#ece1d7">[tag u8 | len u32 | body]</text>
</g>
<!-- xactbuf&#45;&gt;spill -->
<g id="edge44" class="edge">
<title>xactbuf&#45;&gt;spill</title>
<path fill="none" stroke="#c1a78e" stroke-dasharray="5,2" d="M745.79,-1328.64C774.6,-1279.05 826.77,-1189.25 854.64,-1141.29"/>
<polygon fill="#c1a78e" stroke="#c1a78e" points="857.6,-1143.16 859.6,-1132.75 851.55,-1139.64 857.6,-1143.16"/>
<text xml:space="preserve" text-anchor="middle" x="845.76" y="-1255.5" font-family="Helvetica,sans-Serif" font-size="9.00" fill="#ece1d7">evict largest xact</text>
</g>
<!-- cdecode -->
<g id="node22" class="node">
<title>cdecode</title>
<path fill="#5d4628" stroke="#6e6963" d="M731.87,-830.42C731.87,-830.42 526.87,-830.42 526.87,-830.42 520.87,-830.42 514.87,-824.42 514.87,-818.42 514.87,-818.42 514.87,-783.42 514.87,-783.42 514.87,-777.42 520.87,-771.42 526.87,-771.42 526.87,-771.42 731.87,-771.42 731.87,-771.42 737.87,-771.42 743.87,-777.42 743.87,-783.42 743.87,-783.42 743.87,-818.42 743.87,-818.42 743.87,-824.42 737.87,-830.42 731.87,-830.42"/>
<text xml:space="preserve" text-anchor="middle" x="629.37" y="-816.92" font-family="Helvetica,sans-Serif" font-size="10.00" fill="#ece1d7">decode pool ×M</text>
<text xml:space="preserve" text-anchor="middle" x="629.37" y="-804.17" font-family="Helvetica,sans-Serif" font-size="10.00" fill="#ece1d7">planned envelopes (descriptor + route ride)</text>
<text xml:space="preserve" text-anchor="middle" x="629.37" y="-791.42" font-family="Helvetica,sans-Serif" font-size="10.00" fill="#ece1d7">oracle PgPending resolve</text>
<text xml:space="preserve" text-anchor="middle" x="629.37" y="-778.67" font-family="Helvetica,sans-Serif" font-size="10.00" fill="#ece1d7">chunk 1024 rows / 4 MiB</text>
</g>
<!-- drain&#45;&gt;cdecode -->
<g id="edge23" class="edge">
<title>drain&#45;&gt;cdecode</title>
<path fill="none" stroke="#bf8c5f" stroke-width="2" d="M392.81,-1251.87C274.12,-1244.79 98.61,-1230.77 76.37,-1208.92 -22.59,-1111.72 -24.81,-999.68 68.37,-896.92 124.87,-834.62 354.43,-813.17 501.81,-805.79"/>
<polygon fill="#bf8c5f" stroke="#bf8c5f" stroke-width="2" points="501.64,-809.3 511.46,-805.32 501.31,-802.31 501.64,-809.3"/>
<text xml:space="preserve" text-anchor="middle" x="24.83" y="-1056.37" font-family="Helvetica,sans-Serif" font-size="9.00" fill="#ece1d7">DecodeJob</text>
</g>
<!-- toastio -->
<g id="node27" class="node">
<title>toastio</title>
<path fill="#5d4628" stroke="#6e6963" d="M783.99,-987.17C783.99,-987.17 606.74,-987.17 606.74,-987.17 600.74,-987.17 594.74,-981.17 594.74,-975.17 594.74,-975.17 594.74,-940.17 594.74,-940.17 594.74,-934.17 600.74,-928.17 606.74,-928.17 606.74,-928.17 783.99,-928.17 783.99,-928.17 789.99,-928.17 795.99,-934.17 795.99,-940.17 795.99,-940.17 795.99,-975.17 795.99,-975.17 795.99,-981.17 789.99,-987.17 783.99,-987.17"/>
<text xml:space="preserve" text-anchor="middle" x="695.37" y="-973.67" font-family="Helvetica,sans-Serif" font-size="10.00" fill="#ece1d7">ToastResolver / CH mirrors</text>
<text xml:space="preserve" text-anchor="middle" x="695.37" y="-960.92" font-family="Helvetica,sans-Serif" font-size="10.00" fill="#ece1d7">put births+tombstones before publish</text>
<text xml:space="preserve" text-anchor="middle" x="695.37" y="-948.17" font-family="Helvetica,sans-Serif" font-size="10.00" fill="#ece1d7">fetch pre&#45;window values</text>
<text xml:space="preserve" text-anchor="middle" x="695.37" y="-935.42" font-family="Helvetica,sans-Serif" font-size="10.00" fill="#ece1d7">truncate / retire / rewrite O−B</text>
</g>
<!-- drain&#45;&gt;toastio -->
<g id="edge24" class="edge">
<title>drain&#45;&gt;toastio</title>
<path fill="none" stroke="#bf8c5f" stroke-dasharray="5,2" d="M497.64,-1228.55C492.99,-1190.86 490.15,-1124.15 518.12,-1076.92 531.77,-1053.87 586.74,-1019.04 631.88,-993.14"/>
<polygon fill="#bf8c5f" stroke="#bf8c5f" points="633.36,-996.33 640.33,-988.34 629.9,-990.24 633.36,-996.33"/>
<text xml:space="preserve" text-anchor="middle" x="564.24" y="-1105.12" font-family="Helvetica,sans-Serif" font-size="9.00" fill="#ece1d7">new_rows + barriers</text>
</g>
<!-- retires -->
<g id="node40" class="node">
<title>retires</title>
<polygon fill="#4d3850" stroke="#6e6963" points="758.49,-1126.05 626.24,-1126.05 626.24,-1090.05 764.49,-1090.05 764.49,-1120.05 758.49,-1126.05"/>
<polyline fill="none" stroke="#6e6963" points="758.49,-1126.05 758.49,-1120.05"/>
<polyline fill="none" stroke="#6e6963" points="764.49,-1120.05 758.49,-1120.05"/>
<text xml:space="preserve" text-anchor="middle" x="695.37" y="-1111.3" font-family="Helvetica,sans-Serif" font-size="10.00" fill="#ece1d7">{spill}/toast_retires.toml</text>
<text xml:space="preserve" text-anchor="middle" x="695.37" y="-1098.55" font-family="Helvetica,sans-Serif" font-size="10.00" fill="#ece1d7">saved mirror retirements</text>
</g>
<!-- drain&#45;&gt;retires -->
<g id="edge48" class="edge">
<title>drain&#45;&gt;retires</title>
<path fill="none" stroke="#6e6963" stroke-dasharray="5,2" d="M547.47,-1228.51C564.94,-1216.89 584.91,-1203.08 602.37,-1189.67 625.38,-1172 650.15,-1150.39 668.33,-1134"/>
<polygon fill="#6e6963" stroke="#6e6963" points="670.52,-1136.74 675.57,-1127.42 665.81,-1131.55 670.52,-1136.74"/>
<text xml:space="preserve" text-anchor="middle" x="614.35" y="-1200.37" font-family="Helvetica,sans-Serif" font-size="9.00" fill="#ece1d7">toast DROP</text>
</g>
<!-- tableenc -->
<g id="node23" class="node">
<title>tableenc</title>
<path fill="#5d4628" stroke="#6e6963" d="M714.99,-668.8C714.99,-668.8 543.74,-668.8 543.74,-668.8 537.74,-668.8 531.74,-662.8 531.74,-656.8 531.74,-656.8 531.74,-609.05 531.74,-609.05 531.74,-603.05 537.74,-597.05 543.74,-597.05 543.74,-597.05 714.99,-597.05 714.99,-597.05 720.99,-597.05 726.99,-603.05 726.99,-609.05 726.99,-609.05 726.99,-656.8 726.99,-656.8 726.99,-662.8 720.99,-668.8 714.99,-668.8"/>
<text xml:space="preserve" text-anchor="middle" x="629.37" y="-655.3" font-family="Helvetica,sans-Serif" font-size="10.00" fill="#ece1d7">InsertBatcher</text>
<text xml:space="preserve" text-anchor="middle" x="629.37" y="-642.55" font-family="Helvetica,sans-Serif" font-size="10.00" fill="#ece1d7">TableEncoder per table</text>
<text xml:space="preserve" text-anchor="middle" x="629.37" y="-629.8" font-family="Helvetica,sans-Serif" font-size="10.00" fill="#ece1d7">Native columns +</text>
<text xml:space="preserve" text-anchor="middle" x="629.37" y="-617.05" font-family="Helvetica,sans-Serif" font-size="10.00" fill="#ece1d7">_lsn / _xid / _commit_ts / _is_deleted</text>
<text xml:space="preserve" text-anchor="middle" x="629.37" y="-604.3" font-family="Helvetica,sans-Serif" font-size="10.00" fill="#ece1d7">row/byte budget + deadline seal</text>
</g>
<!-- cdecode&#45;&gt;tableenc -->
<g id="edge18" class="edge">
<title>cdecode&#45;&gt;tableenc</title>
<path fill="none" stroke="#c1a78e" d="M629.37,-771.01C629.37,-746 629.37,-709.38 629.37,-680.28"/>
<polygon fill="#c1a78e" stroke="#c1a78e" points="632.87,-680.65 629.37,-670.65 625.87,-680.65 632.87,-680.65"/>
</g>
<!-- nulltail -->
<g id="node25" class="node">
<title>nulltail</title>
<polygon fill="#4d3a28" stroke="#6e6963" points="521.24,-980.8 381.49,-980.8 381.49,-934.55 527.24,-934.55 527.24,-974.8 521.24,-980.8"/>
<polyline fill="none" stroke="#6e6963" points="521.24,-980.8 521.24,-974.8"/>
<polyline fill="none" stroke="#6e6963" points="527.24,-974.8 521.24,-974.8"/>
<text xml:space="preserve" text-anchor="middle" x="454.37" y="-967.3" font-family="Helvetica,sans-Serif" font-size="10.00" fill="#ece1d7">metrics&#45;only tail</text>
<text xml:space="preserve" text-anchor="middle" x="454.37" y="-954.55" font-family="Helvetica,sans-Serif" font-size="10.00" fill="#ece1d7">no ClickHouse connection</text>
<text xml:space="preserve" text-anchor="middle" x="454.37" y="-941.8" font-family="Helvetica,sans-Serif" font-size="10.00" fill="#ece1d7">acknowledge immediately</text>
</g>
<!-- cdecode&#45;&gt;nulltail -->
<g id="edge21" class="edge">
<title>cdecode&#45;&gt;nulltail</title>
<path fill="none" stroke="#bf8c5f" stroke-dasharray="5,2" d="M551.59,-830.91C520.83,-846.11 487.87,-867.75 466.87,-896.92 461.43,-904.48 458.25,-913.89 456.42,-922.99"/>
<polygon fill="#bf8c5f" stroke="#bf8c5f" points="452.99,-922.29 454.98,-932.7 459.91,-923.32 452.99,-922.29"/>
<text xml:space="preserve" text-anchor="middle" x="494.62" y="-899.62" font-family="Helvetica,sans-Serif" font-size="9.00" fill="#ece1d7">metrics only</text>
</g>
<!-- chwire -->
<g id="node24" class="node">
<title>chwire</title>
<path fill="#5d4628" stroke="#6e6963" d="M701.12,-377.92C701.12,-377.92 557.62,-377.92 557.62,-377.92 551.62,-377.92 545.62,-371.92 545.62,-365.92 545.62,-365.92 545.62,-330.92 545.62,-330.92 545.62,-324.92 551.62,-318.92 557.62,-318.92 557.62,-318.92 701.12,-318.92 701.12,-318.92 707.12,-318.92 713.12,-324.92 713.12,-330.92 713.12,-330.92 713.12,-365.92 713.12,-365.92 713.12,-371.92 707.12,-377.92 701.12,-377.92"/>
<text xml:space="preserve" text-anchor="middle" x="629.37" y="-364.42" font-family="Helvetica,sans-Serif" font-size="10.00" fill="#ece1d7">inserter pool ×N</text>
<text xml:space="preserve" text-anchor="middle" x="629.37" y="-351.67" font-family="Helvetica,sans-Serif" font-size="10.00" fill="#ece1d7">BlockBuilder over sealed batch</text>
<text xml:space="preserve" text-anchor="middle" x="629.37" y="-338.92" font-family="Helvetica,sans-Serif" font-size="10.00" fill="#ece1d7">one complete INSERT each</text>
<text xml:space="preserve" text-anchor="middle" x="629.37" y="-326.17" font-family="Helvetica,sans-Serif" font-size="10.00" fill="#ece1d7">send_with_retry + reconnect</text>
</g>
<!-- tableenc&#45;&gt;chwire -->
<g id="edge19" class="edge">
<title>tableenc&#45;&gt;chwire</title>
<path fill="none" stroke="#c1a78e" d="M629.37,-596.71C629.37,-544.08 629.37,-445.13 629.37,-389.69"/>
<polygon fill="#c1a78e" stroke="#c1a78e" points="632.87,-389.74 629.37,-379.74 625.87,-389.74 632.87,-389.74"/>
</g>
<!-- chwire&#45;&gt;ch -->
<g id="edge46" class="edge">
<title>chwire&#45;&gt;ch</title>
<path fill="none" stroke="#bf8c5f" stroke-width="2" d="M655.31,-318.68C692.04,-278.78 762.23,-205.39 829.37,-151.05 867.56,-120.14 914.98,-89.7 947.86,-69.71"/>
<polygon fill="#bf8c5f" stroke="#bf8c5f" stroke-width="2" points="949.49,-72.81 956.25,-64.65 945.88,-66.82 949.49,-72.81"/>
</g>
<!-- ackcol -->
<g id="node26" class="node">
<title>ackcol</title>
<polygon fill="#4d3a28" stroke="#6e6963" points="766.74,-68.62 599.99,-68.62 599.99,-22.38 772.74,-22.38 772.74,-62.62 766.74,-68.62"/>
<polyline fill="none" stroke="#6e6963" points="766.74,-68.62 766.74,-62.62"/>
<polyline fill="none" stroke="#6e6963" points="772.74,-62.62 766.74,-62.62"/>
<text xml:space="preserve" text-anchor="middle" x="686.37" y="-55.12" font-family="Helvetica,sans-Serif" font-size="10.00" fill="#ece1d7">ack collector</text>
<text xml:space="preserve" text-anchor="middle" x="686.37" y="-42.38" font-family="Helvetica,sans-Serif" font-size="10.00" fill="#ece1d7">publish latest position after</text>
<text xml:space="preserve" text-anchor="middle" x="686.37" y="-29.62" font-family="Helvetica,sans-Serif" font-size="10.00" fill="#ece1d7">every earlier commit completes</text>
</g>
<!-- chwire&#45;&gt;ackcol -->
<g id="edge20" class="edge">
<title>chwire&#45;&gt;ackcol</title>
<path fill="none" stroke="#b380b0" stroke-dasharray="1,5" d="M623.67,-318.61C615.56,-270.53 604.92,-171.86 636.62,-97.3 639.67,-90.12 644.24,-83.4 649.4,-77.33"/>
<polygon fill="#b380b0" stroke="#b380b0" points="651.94,-79.74 656.23,-70.06 646.84,-74.95 651.94,-79.74"/>
<text xml:space="preserve" text-anchor="middle" x="666.99" y="-116.87" font-family="Helvetica,sans-Serif" font-size="9.00" fill="#ece1d7">Acked after</text>
<text xml:space="preserve" text-anchor="middle" x="666.99" y="-105.62" font-family="Helvetica,sans-Serif" font-size="9.00" fill="#ece1d7">EndOfStream</text>
</g>
<!-- nulltail&#45;&gt;ackcol -->
<g id="edge22" class="edge">
<title>nulltail&#45;&gt;ackcol</title>
<path fill="none" stroke="#b380b0" stroke-dasharray="1,5" d="M520.08,-934.17C560.62,-921.2 613.95,-905.76 662.37,-896.92 673.12,-894.96 752.97,-896.96 760.37,-888.92 767.2,-881.51 759.98,-287.91 729.37,-151.05 723.78,-126.05 712.71,-99.36 703.2,-79.2"/>
<polygon fill="#b380b0" stroke="#b380b0" points="706.44,-77.85 698.93,-70.38 700.14,-80.91 706.44,-77.85"/>
<text xml:space="preserve" text-anchor="middle" x="773.33" y="-630" font-family="Helvetica,sans-Serif" font-size="9.00" fill="#ece1d7">done</text>
</g>
<!-- manifest -->
<g id="node39" class="node">
<title>manifest</title>
<polygon fill="#4d3850" stroke="#6e6963" points="1163.87,-1131.17 982.87,-1131.17 982.87,-1084.92 1169.87,-1084.92 1169.87,-1125.17 1163.87,-1131.17"/>
<polyline fill="none" stroke="#6e6963" points="1163.87,-1131.17 1163.87,-1125.17"/>
<polyline fill="none" stroke="#6e6963" points="1169.87,-1125.17 1163.87,-1125.17"/>
<text xml:space="preserve" text-anchor="middle" x="1076.37" y="-1117.67" font-family="Helvetica,sans-Serif" font-size="10.00" fill="#ece1d7">{spill}/manifest.toml</text>
<text xml:space="preserve" text-anchor="middle" x="1076.37" y="-1104.92" font-family="Helvetica,sans-Serif" font-size="10.00" fill="#ece1d7">source identity + safe restart state</text>
<text xml:space="preserve" text-anchor="middle" x="1076.37" y="-1092.17" font-family="Helvetica,sans-Serif" font-size="10.00" fill="#ece1d7">held behind open work</text>
</g>
<!-- ackcol&#45;&gt;manifest -->
<g id="edge45" class="edge">
<title>ackcol&#45;&gt;manifest</title>
<path fill="none" stroke="#b380b0" stroke-dasharray="1,5" d="M705.79,-68.99C712.72,-77.55 720.3,-87.59 726.37,-97.3 740.44,-119.8 743.98,-125.87 752.37,-151.05 808.87,-320.63 775.93,-375.22 829.37,-545.8 894.76,-754.52 1014.29,-989.73 1058.94,-1074.47"/>
<polygon fill="#b380b0" stroke="#b380b0" points="1055.77,-1075.96 1063.54,-1083.16 1061.95,-1072.69 1055.77,-1075.96"/>
<text xml:space="preserve" text-anchor="middle" x="943.28" y="-742.87" font-family="Helvetica,sans-Serif" font-size="9.00" fill="#ece1d7">status loop saves</text>
<text xml:space="preserve" text-anchor="middle" x="943.28" y="-731.62" font-family="Helvetica,sans-Serif" font-size="9.00" fill="#ece1d7">durable progress</text>
</g>
<!-- toastio&#45;&gt;ch -->
<g id="edge47" class="edge">
<title>toastio&#45;&gt;ch</title>
<path fill="none" stroke="#bf8c5f" stroke-dasharray="5,2" d="M796.17,-944.06C876.26,-932.46 980.41,-913.37 1015.37,-888.92 1074.44,-847.61 1074.31,-818.23 1101.37,-751.42 1151.59,-627.43 1208.7,-268.88 1145.37,-151.05 1121.81,-107.22 1070.93,-78.68 1033.23,-62.67"/>
<polygon fill="#bf8c5f" stroke="#bf8c5f" points="1034.97,-59.6 1024.39,-59.05 1032.32,-66.08 1034.97,-59.6"/>
<text xml:space="preserve" text-anchor="middle" x="1182.46" y="-630" font-family="Helvetica,sans-Serif" font-size="9.00" fill="#ece1d7">pg_toast_&lt;relid&gt;</text>
</g>
<!-- toastio&#45;&gt;cdecode -->
<g id="edge25" class="edge">
<title>toastio&#45;&gt;cdecode</title>
<path fill="none" stroke="#cba85e" stroke-dasharray="5,2" d="M683.11,-927.93C672.68,-903.47 657.59,-868.1 646.06,-841.06"/>
<polygon fill="#cba85e" stroke="#cba85e" points="649.41,-839.99 642.27,-832.17 642.97,-842.74 649.41,-839.99"/>
<text xml:space="preserve" text-anchor="middle" x="698.02" y="-899.62" font-family="Helvetica,sans-Serif" font-size="9.00" fill="#ece1d7">as&#45;of fetch</text>
</g>
<!-- libpq -->
<g id="node29" class="node">
<title>libpq</title>
<path fill="#4d4d28" stroke="#6e6963" d="M1458.99,-371.55C1458.99,-371.55 1359.74,-371.55 1359.74,-371.55 1353.74,-371.55 1347.74,-365.55 1347.74,-359.55 1347.74,-359.55 1347.74,-337.3 1347.74,-337.3 1347.74,-331.3 1353.74,-325.3 1359.74,-325.3 1359.74,-325.3 1458.99,-325.3 1458.99,-325.3 1464.99,-325.3 1470.99,-331.3 1470.99,-337.3 1470.99,-337.3 1470.99,-359.55 1470.99,-359.55 1470.99,-365.55 1464.99,-371.55 1458.99,-371.55"/>
<text xml:space="preserve" text-anchor="middle" x="1409.37" y="-358.05" font-family="Helvetica,sans-Serif" font-size="10.00" fill="#ece1d7">tokio_postgres::Client</text>
<text xml:space="preserve" text-anchor="middle" x="1409.37" y="-345.3" font-family="Helvetica,sans-Serif" font-size="10.00" fill="#ece1d7">SELECT pg_class /</text>
<text xml:space="preserve" text-anchor="middle" x="1409.37" y="-332.55" font-family="Helvetica,sans-Serif" font-size="10.00" fill="#ece1d7">pg_attribute / pg_type</text>
</g>
<!-- lru&#45;&gt;libpq -->
<g id="edge26" class="edge">
<title>lru&#45;&gt;libpq</title>
<path fill="none" stroke="#c1a78e" stroke-dasharray="5,2" d="M1597.49,-613.73C1561.43,-600.1 1516.93,-578.17 1487.37,-545.8 1444.52,-498.87 1423.95,-425.54 1415.12,-383.03"/>
<polygon fill="#c1a78e" stroke="#c1a78e" points="1418.59,-382.52 1413.23,-373.38 1411.72,-383.87 1418.59,-382.52"/>
<text xml:space="preserve" text-anchor="middle" x="1532.77" y="-568.5" font-family="Helvetica,sans-Serif" font-size="9.00" fill="#ece1d7">miss</text>
</g>
<!-- evtx -->
<g id="node31" class="node">
<title>evtx</title>
<path fill="#4d4d28" stroke="#6e6963" d="M1799.59,-394.67C1799.59,-394.67 1578.26,-394.67 1578.26,-394.67 1572.26,-394.67 1562.88,-389.72 1559.5,-384.76 1559.5,-384.76 1509.92,-312.08 1509.92,-312.08 1506.53,-307.13 1509.15,-302.17 1515.15,-302.17 1515.15,-302.17 1736.48,-302.17 1736.48,-302.17 1742.48,-302.17 1751.86,-307.13 1755.24,-312.08 1755.24,-312.08 1804.82,-384.76 1804.82,-384.76 1808.2,-389.72 1805.59,-394.67 1799.59,-394.67"/>
<text xml:space="preserve" text-anchor="middle" x="1657.37" y="-358.05" font-family="Helvetica,sans-Serif" font-size="10.00" fill="#ece1d7">schema_event_tx</text>
<text xml:space="preserve" text-anchor="middle" x="1657.37" y="-345.3" font-family="Helvetica,sans-Serif" font-size="10.00" fill="#ece1d7">Added / Changed / Dropped</text>
<text xml:space="preserve" text-anchor="middle" x="1657.37" y="-332.55" font-family="Helvetica,sans-Serif" font-size="10.00" fill="#ece1d7">(unbounded mpsc)</text>
</g>
<!-- lru&#45;&gt;evtx -->
<g id="edge28" class="edge">
<title>lru&#45;&gt;evtx</title>
<path fill="none" stroke="#cba85e" stroke-dasharray="5,2" d="M1657.37,-609.75C1657.37,-566.35 1657.37,-468.92 1657.37,-406.34"/>
<polygon fill="#cba85e" stroke="#cba85e" points="1660.87,-406.59 1657.37,-396.59 1653.87,-406.59 1660.87,-406.59"/>
<text xml:space="preserve" text-anchor="middle" x="1682.87" y="-568.5" font-family="Helvetica,sans-Serif" font-size="9.00" fill="#ece1d7">diff vs prior</text>
</g>
<!-- libpq&#45;&gt;shd -->
<g id="edge41" class="edge">
<title>libpq&#45;&gt;shd</title>
<path fill="none" stroke="#cba85e" d="M1409.48,-313.94C1409.66,-258.95 1410.03,-149.62 1410.23,-89.17"/>
<polygon fill="#cba85e" stroke="#cba85e" points="1409.45,-323.59 1404.98,-313.57 1409.46,-319.8 1409.48,-313.59 1409.48,-313.59 1409.48,-313.59 1409.46,-319.8 1413.98,-313.6 1409.45,-323.59"/>
<polygon fill="#cba85e" stroke="#cba85e" points="1413.73,-89.29 1410.26,-79.28 1406.73,-89.26 1413.73,-89.29"/>
<text xml:space="preserve" text-anchor="middle" x="1440.18" y="-111.25" font-family="Helvetica,sans-Serif" font-size="9.00" fill="#ece1d7">libpq SELECT</text>
</g>
<!-- inval&#45;&gt;lru -->
<g id="edge27" class="edge">
<title>inval&#45;&gt;lru</title>
<path fill="none" stroke="#cba85e" stroke-dasharray="5,2" d="M1692.88,-771.01C1685.39,-742.1 1673.88,-697.68 1666.01,-667.29"/>
<polygon fill="#cba85e" stroke="#cba85e" points="1669.46,-666.66 1663.57,-657.86 1662.69,-668.41 1669.46,-666.66"/>
</g>
<!-- evtx&#45;&gt;xactbuf -->
<g id="edge34" class="edge">
<title>evtx&#45;&gt;xactbuf</title>
<path fill="none" stroke="#cba85e" stroke-dasharray="5,2" d="M1631.7,-394.94C1602.96,-441.23 1551.84,-510.97 1487.37,-545.8 1336.66,-627.22 1256.96,-517.27 1105.37,-597.05 950.58,-678.51 1000.7,-816.75 841.37,-888.92 814.65,-901.03 341.79,-889.66 313.37,-896.92 284.53,-904.29 269.5,-902.68 254.12,-928.17 227.15,-972.89 228.72,-1000.04 254.12,-1045.67 268.89,-1072.2 458.29,-1178.12 486.37,-1189.67 521.79,-1204.24 532.96,-1200.7 570.37,-1208.92 595.65,-1214.48 605.84,-1206.55 627.37,-1220.92 663.04,-1244.73 689.37,-1286.33 705.71,-1318.53"/>
<polygon fill="#cba85e" stroke="#cba85e" points="702.44,-1319.82 709.99,-1327.25 708.73,-1316.74 702.44,-1319.82"/>
<text xml:space="preserve" text-anchor="middle" x="283.74" y="-954.75" font-family="Helvetica,sans-Serif" font-size="9.00" fill="#ece1d7">stamp on xid</text>
</g>
<!-- ddlapp -->
<g id="node33" class="node">
<title>ddlapp</title>
<path fill="#5d4628" stroke="#6e6963" d="M2295.24,-75C2295.24,-75 2191.49,-75 2191.49,-75 2185.49,-75 2179.49,-69 2179.49,-63 2179.49,-63 2179.49,-28 2179.49,-28 2179.49,-22 2185.49,-16 2191.49,-16 2191.49,-16 2295.24,-16 2295.24,-16 2301.24,-16 2307.24,-22 2307.24,-28 2307.24,-28 2307.24,-63 2307.24,-63 2307.24,-69 2301.24,-75 2295.24,-75"/>
<text xml:space="preserve" text-anchor="middle" x="2243.37" y="-61.5" font-family="Helvetica,sans-Serif" font-size="10.00" fill="#ece1d7">DdlApplicator</text>
<text xml:space="preserve" text-anchor="middle" x="2243.37" y="-48.75" font-family="Helvetica,sans-Serif" font-size="10.00" fill="#ece1d7">(ch_ddl.rs)</text>
<text xml:space="preserve" text-anchor="middle" x="2243.37" y="-36" font-family="Helvetica,sans-Serif" font-size="10.00" fill="#ece1d7">CREATE / ADD COL /</text>
<text xml:space="preserve" text-anchor="middle" x="2243.37" y="-23.25" font-family="Helvetica,sans-Serif" font-size="10.00" fill="#ece1d7">RENAME / DROP TABLE</text>
</g>
<!-- evtx&#45;&gt;ddlapp -->
<g id="edge30" class="edge">
<title>evtx&#45;&gt;ddlapp</title>
<path fill="none" stroke="#cba85e" stroke-dasharray="5,2" d="M1651.23,-301.83C1646.4,-244.92 1648.11,-148.79 1704.62,-97.3 1738.11,-66.77 2027.17,-53.4 2167.52,-48.67"/>
<polygon fill="#cba85e" stroke="#cba85e" points="2167.61,-52.17 2177.49,-48.34 2167.38,-45.17 2167.61,-52.17"/>
<text xml:space="preserve" text-anchor="middle" x="1740.99" y="-111.25" font-family="Helvetica,sans-Serif" font-size="9.00" fill="#ece1d7">drain at commit</text>
</g>
<!-- bridge -->
<g id="node32" class="node">
<title>bridge</title>
<path fill="#5d4628" stroke="#6e6963" d="M2292.99,-371.55C2292.99,-371.55 2193.74,-371.55 2193.74,-371.55 2187.74,-371.55 2181.74,-365.55 2181.74,-359.55 2181.74,-359.55 2181.74,-337.3 2181.74,-337.3 2181.74,-331.3 2187.74,-325.3 2193.74,-325.3 2193.74,-325.3 2292.99,-325.3 2292.99,-325.3 2298.99,-325.3 2304.99,-331.3 2304.99,-337.3 2304.99,-337.3 2304.99,-359.55 2304.99,-359.55 2304.99,-365.55 2298.99,-371.55 2292.99,-371.55"/>
<text xml:space="preserve" text-anchor="middle" x="2243.37" y="-358.05" font-family="Helvetica,sans-Serif" font-size="10.00" fill="#ece1d7">type_bridge</text>
<text xml:space="preserve" text-anchor="middle" x="2243.37" y="-345.3" font-family="Helvetica,sans-Serif" font-size="10.00" fill="#ece1d7">RelAttr → CH type</text>
<text xml:space="preserve" text-anchor="middle" x="2243.37" y="-332.55" font-family="Helvetica,sans-Serif" font-size="10.00" fill="#ece1d7">(reject widen for now)</text>
</g>
<!-- bridge&#45;&gt;ddlapp -->
<g id="edge29" class="edge">
<title>bridge&#45;&gt;ddlapp</title>
<path fill="none" stroke="#c1a78e" stroke-dasharray="5,2" d="M2243.37,-324.8C2243.37,-274.11 2243.37,-150.8 2243.37,-86.7"/>
<polygon fill="#c1a78e" stroke="#c1a78e" points="2246.87,-86.97 2243.37,-76.97 2239.87,-86.97 2246.87,-86.97"/>
</g>
<!-- ddlapp&#45;&gt;ch -->
<g id="edge31" class="edge">
<title>ddlapp&#45;&gt;ch</title>
<path fill="none" stroke="#bf8c5f" stroke-dasharray="5,2" d="M2179.24,-53.9C1992,-77.89 1448.13,-143.51 1271.37,-120.55 1185.97,-109.46 1089.66,-80.34 1034,-61.81"/>
<polygon fill="#bf8c5f" stroke="#bf8c5f" points="1035.11,-58.49 1024.52,-58.62 1032.88,-65.13 1035.11,-58.49"/>
<text xml:space="preserve" text-anchor="middle" x="1322.37" y="-122.5" font-family="Helvetica,sans-Serif" font-size="9.00" fill="#ece1d7">DDL SQL</text>
<text xml:space="preserve" text-anchor="middle" x="1322.37" y="-111.25" font-family="Helvetica,sans-Serif" font-size="9.00" fill="#ece1d7">(inside reorder barrier,</text>
<text xml:space="preserve" text-anchor="middle" x="1322.37" y="-100" font-family="Helvetica,sans-Serif" font-size="9.00" fill="#ece1d7"> own CH connection)</text>
</g>
<!-- listener -->
<g id="node34" class="node">
<title>listener</title>
<path fill="#5d3f40" stroke="#6e6963" d="M1997.62,-656.05C1997.62,-656.05 1905.12,-656.05 1905.12,-656.05 1899.12,-656.05 1893.12,-650.05 1893.12,-644.05 1893.12,-644.05 1893.12,-621.8 1893.12,-621.8 1893.12,-615.8 1899.12,-609.8 1905.12,-609.8 1905.12,-609.8 1997.62,-609.8 1997.62,-609.8 2003.62,-609.8 2009.62,-615.8 2009.62,-621.8 2009.62,-621.8 2009.62,-644.05 2009.62,-644.05 2009.62,-650.05 2003.62,-656.05 1997.62,-656.05"/>
<text xml:space="preserve" text-anchor="middle" x="1951.37" y="-642.55" font-family="Helvetica,sans-Serif" font-size="10.00" fill="#ece1d7">accept(unix / TCP)</text>
<text xml:space="preserve" text-anchor="middle" x="1951.37" y="-629.8" font-family="Helvetica,sans-Serif" font-size="10.00" fill="#ece1d7">IDENTIFY_SYSTEM +</text>
<text xml:space="preserve" text-anchor="middle" x="1951.37" y="-617.05" font-family="Helvetica,sans-Serif" font-size="10.00" fill="#ece1d7">START_REPLICATION</text>
</g>
<!-- listener&#45;&gt;sendq -->
<g id="edge35" class="edge">
<title>listener&#45;&gt;sendq</title>
<path fill="none" stroke="#c1a78e" stroke-dasharray="5,2" d="M1951.84,-609.75C1952.89,-560.47 1955.41,-441.56 1956.65,-383.06"/>
<polygon fill="#c1a78e" stroke="#c1a78e" points="1960.15,-383.46 1956.86,-373.39 1953.15,-383.31 1960.15,-383.46"/>
</g>
<!-- sendq&#45;&gt;shd -->
<g id="edge39" class="edge">
<title>sendq&#45;&gt;shd</title>
<path fill="none" stroke="#bd8183" stroke-width="2" d="M1949.68,-325.05C1930.88,-274.15 1877.24,-150.03 1785.37,-97.3 1736.82,-69.43 1586.73,-56.15 1491.8,-50.39"/>
<polygon fill="#bd8183" stroke="#bd8183" stroke-width="2" points="1492.29,-46.91 1482.1,-49.82 1491.88,-53.9 1492.29,-46.91"/>
<text xml:space="preserve" text-anchor="middle" x="1855.2" y="-111.25" font-family="Helvetica,sans-Serif" font-size="9.00" fill="#ece1d7">hot wire (ms)</text>
</g>
<!-- stat&#45;&gt;catgate -->
<g id="edge37" class="edge">
<title>stat&#45;&gt;catgate</title>
<path fill="none" stroke="#bd8183" stroke-dasharray="5,2" d="M2083.17,-662.79C2070.67,-683.17 2050.88,-708.91 2025.37,-720.92 1998.25,-733.69 971.26,-712.23 946.37,-728.92 882.34,-771.87 943.27,-845.8 879.37,-888.92 865.23,-898.46 281.43,-891.16 265.37,-896.92 244.46,-904.42 235.98,-908.15 226.37,-928.17 174.84,-1035.49 192.33,-1114.17 284.37,-1189.67 354.16,-1246.92 605.92,-1186.51 689.37,-1220.92 730.08,-1237.71 724.19,-1265.97 762.37,-1287.92 815.62,-1318.55 855.05,-1281.72 894.37,-1328.92 950.66,-1396.51 931.01,-1455.71 878.37,-1526.17 867.68,-1540.48 852.71,-1552.14 837.35,-1561.36"/>
<polygon fill="#bd8183" stroke="#bd8183" points="836.06,-1558.07 829.08,-1566.05 839.51,-1564.16 836.06,-1558.07"/>
<text xml:space="preserve" text-anchor="middle" x="387.29" y="-1200.37" font-family="Helvetica,sans-Serif" font-size="9.00" fill="#ece1d7">apply_lsn → unblock gate</text>
</g>
<!-- outdir&#45;&gt;shd -->
<g id="edge43" class="edge">
<title>outdir&#45;&gt;shd</title>
<path fill="none" stroke="#6e6963" stroke-dasharray="5,2" d="M1249.37,-1084.42C1249.37,-1055.33 1249.37,-1003.24 1249.37,-958.67 1249.37,-958.67 1249.37,-958.67 1249.37,-347.42 1249.37,-235.86 1202.57,-185.89 1270.37,-97.3 1285.16,-77.98 1307.99,-66 1330.95,-58.57"/>
<polygon fill="#6e6963" stroke="#6e6963" points="1331.78,-61.97 1340.39,-55.8 1329.81,-55.26 1331.78,-61.97"/>
<text xml:space="preserve" text-anchor="middle" x="1290.24" y="-737.25" font-family="Helvetica,sans-Serif" font-size="9.00" fill="#ece1d7">restore_command</text>
</g>
<!-- manifest&#45;&gt;toastio -->
<g id="edge49" class="edge">
<title>manifest&#45;&gt;toastio</title>
<path fill="none" stroke="#6e6963" stroke-dasharray="5,2" d="M1005.46,-1084.46C987.25,-1078.38 967.75,-1071.62 949.87,-1064.92 889.28,-1042.22 821.74,-1013.88 771.47,-992.18"/>
<polygon fill="#6e6963" stroke="#6e6963" points="772.97,-989.01 762.4,-988.25 770.19,-995.44 772.97,-989.01"/>
<text xml:space="preserve" text-anchor="middle" x="995.62" y="-1056.37" font-family="Helvetica,sans-Serif" font-size="9.00" fill="#ece1d7">saved cleanup point</text>
</g>
<!-- retires&#45;&gt;toastio -->
<g id="edge50" class="edge">
<title>retires&#45;&gt;toastio</title>
<path fill="none" stroke="#6e6963" stroke-dasharray="5,2" d="M695.37,-1089.74C695.37,-1067.6 695.37,-1028.58 695.37,-998.86"/>
<polygon fill="#6e6963" stroke="#6e6963" points="698.87,-999.09 695.37,-989.09 691.87,-999.09 698.87,-999.09"/>
<text xml:space="preserve" text-anchor="middle" x="741.87" y="-1056.37" font-family="Helvetica,sans-Serif" font-size="9.00" fill="#ece1d7">pending retirements</text>
</g>
</g>
</svg>
