<?xml version="1.0" encoding="UTF-8" standalone="no"?>
<!DOCTYPE svg PUBLIC "-//W3C//DTD SVG 1.1//EN"
 "http://www.w3.org/Graphics/SVG/1.1/DTD/svg11.dtd">
<!-- Generated by graphviz version 14.1.5 (0)
 -->
<!-- Title: internals Pages: 1 -->
<svg width="1822pt" height="2604pt"
 viewBox="0.00 0.00 1822.00 2604.00" xmlns="http://www.w3.org/2000/svg" xmlns:xlink="http://www.w3.org/1999/xlink">
<g id="graph0" class="graph" transform="scale(1 1) rotate(0) translate(4 2599.69)">
<title>internals</title>
<polygon fill="#272623" stroke="none" points="-4,4 -4,-2599.69 1818.48,-2599.69 1818.48,4 -4,4"/>
<text xml:space="preserve" text-anchor="middle" x="907.24" y="-2578.39" font-family="Helvetica,sans-Serif" font-size="14.00" fill="#ece1d7">walshadow internals — pipeline stages, taps &amp; caches (post&#45;PHASE15)</text>
<g id="clust1" class="cluster">
<title>cluster_ingress</title>
<path fill="#34302c" stroke="#4c4641" d="M384,-2197.19C384,-2197.19 682,-2197.19 682,-2197.19 688,-2197.19 694,-2203.19 694,-2209.19 694,-2209.19 694,-2429.19 694,-2429.19 694,-2435.19 688,-2441.19 682,-2441.19 682,-2441.19 384,-2441.19 384,-2441.19 378,-2441.19 372,-2435.19 372,-2429.19 372,-2429.19 372,-2209.19 372,-2209.19 372,-2203.19 378,-2197.19 384,-2197.19"/>
<text xml:space="preserve" text-anchor="middle" x="533" y="-2423.89" font-family="Helvetica,sans-Serif" font-size="14.00" fill="#ece1d7">① ingress (main loop, tokio)</text>
</g>
<g id="clust2" class="cluster">
<title>cluster_filter</title>
<path fill="#34302c" stroke="#4c4641" d="M463,-1787.5C463,-1787.5 765,-1787.5 765,-1787.5 771,-1787.5 777,-1793.5 777,-1799.5 777,-1799.5 777,-2153.94 777,-2153.94 777,-2159.94 771,-2165.94 765,-2165.94 765,-2165.94 463,-2165.94 463,-2165.94 457,-2165.94 451,-2159.94 451,-2153.94 451,-2153.94 451,-1799.5 451,-1799.5 451,-1793.5 457,-1787.5 463,-1787.5"/>
<text xml:space="preserve" text-anchor="middle" x="614" y="-2148.64" font-family="Helvetica,sans-Serif" font-size="14.00" fill="#ece1d7">② filter pipeline (sync, record cadence)</text>
</g>
<g id="clust3" class="cluster">
<title>cluster_fanout</title>
<path fill="#34302c" stroke="#4c4641" d="M310,-1666.25C310,-1666.25 796,-1666.25 796,-1666.25 802,-1666.25 808,-1672.25 808,-1678.25 808,-1678.25 808,-1754.5 808,-1754.5 808,-1760.5 802,-1766.5 796,-1766.5 796,-1766.5 310,-1766.5 310,-1766.5 304,-1766.5 298,-1760.5 298,-1754.5 298,-1754.5 298,-1678.25 298,-1678.25 298,-1672.25 304,-1666.25 310,-1666.25"/>
<text xml:space="preserve" text-anchor="middle" x="553" y="-1749.2" font-family="Helvetica,sans-Serif" font-size="14.00" fill="#ece1d7">③ CompositeRecordSink fan&#45;out (pump task, sync — ordering matters)</text>
</g>
<g id="clust4" class="cluster">
<title>cluster_queue</title>
<path fill="#34302c" stroke="#4c4641" d="M615,-1166.88C615,-1166.88 991,-1166.88 991,-1166.88 997,-1166.88 1003,-1172.88 1003,-1178.88 1003,-1178.88 1003,-1623 1003,-1623 1003,-1629 997,-1635 991,-1635 991,-1635 615,-1635 615,-1635 609,-1635 603,-1629 603,-1623 603,-1623 603,-1178.88 603,-1178.88 603,-1172.88 609,-1166.88 615,-1166.88"/>
<text xml:space="preserve" text-anchor="middle" x="803" y="-1617.7" font-family="Helvetica,sans-Serif" font-size="14.00" fill="#ece1d7">④ QueueingRecordSink — pump ↔ decoder decoupling</text>
</g>
<g id="clust5" class="cluster">
<title>cluster_decode</title>
<path fill="#34302c" stroke="#4c4641" d="M1068,-823.5C1068,-823.5 1506,-823.5 1506,-823.5 1512,-823.5 1518,-829.5 1518,-835.5 1518,-835.5 1518,-1237.25 1518,-1237.25 1518,-1243.25 1512,-1249.25 1506,-1249.25 1506,-1249.25 1068,-1249.25 1068,-1249.25 1062,-1249.25 1056,-1243.25 1056,-1237.25 1056,-1237.25 1056,-835.5 1056,-835.5 1056,-829.5 1062,-823.5 1068,-823.5"/>
<text xml:space="preserve" text-anchor="middle" x="1287" y="-1231.95" font-family="Helvetica,sans-Serif" font-size="14.00" fill="#ece1d7">⑤ decode + xact buffer (worker task — gated on shadow apply)</text>
</g>
<g id="clust6" class="cluster">
<title>cluster_ch</title>
<path fill="#34302c" stroke="#4c4641" d="M1102,-504.75C1102,-504.75 1568,-504.75 1568,-504.75 1574,-504.75 1580,-510.75 1580,-516.75 1580,-516.75 1580,-780.25 1580,-780.25 1580,-786.25 1574,-792.25 1568,-792.25 1568,-792.25 1102,-792.25 1102,-792.25 1096,-792.25 1090,-786.25 1090,-780.25 1090,-780.25 1090,-516.75 1090,-516.75 1090,-510.75 1096,-504.75 1102,-504.75"/>
<text xml:space="preserve" text-anchor="middle" x="1335" y="-774.95" font-family="Helvetica,sans-Serif" font-size="14.00" fill="#ece1d7">⑥ CH emitter — held&#45;open INSERT, deadline&#45;flushed (PHASE14 §02)</text>
</g>
<g id="clust7" class="cluster">
<title>cluster_catalog</title>
<path fill="#34302c" stroke="#4c4641" d="M728,-2197.19C728,-2197.19 1184,-2197.19 1184,-2197.19 1190,-2197.19 1196,-2203.19 1196,-2209.19 1196,-2209.19 1196,-2550.44 1196,-2550.44 1196,-2556.44 1190,-2562.44 1184,-2562.44 1184,-2562.44 728,-2562.44 728,-2562.44 722,-2562.44 716,-2556.44 716,-2550.44 716,-2550.44 716,-2209.19 716,-2209.19 716,-2203.19 722,-2197.19 728,-2197.19"/>
<text xml:space="preserve" text-anchor="middle" x="956" y="-2545.14" font-family="Helvetica,sans-Serif" font-size="14.00" fill="#ece1d7">⑦ ShadowCatalog cache + SchemaEvent channel (PHASE15 §1)</text>
</g>
<g id="clust8" class="cluster">
<title>cluster_ddl</title>
<path fill="#34302c" stroke="#4c4641" d="M1218,-2072.06C1218,-2072.06 1577,-2072.06 1577,-2072.06 1583,-2072.06 1589,-2078.06 1589,-2084.06 1589,-2084.06 1589,-2295.81 1589,-2295.81 1589,-2301.81 1583,-2307.81 1577,-2307.81 1577,-2307.81 1218,-2307.81 1218,-2307.81 1212,-2307.81 1206,-2301.81 1206,-2295.81 1206,-2295.81 1206,-2084.06 1206,-2084.06 1206,-2078.06 1212,-2072.06 1218,-2072.06"/>
<text xml:space="preserve" text-anchor="middle" x="1397.5" y="-2290.51" font-family="Helvetica,sans-Serif" font-size="14.00" fill="#ece1d7">⑦b DDL applicator (PHASE15 §2 — separate CH TCP)</text>
</g>
<g id="clust9" class="cluster">
<title>cluster_walsender</title>
<path fill="#34302c" stroke="#4c4641" d="M20,-1524.38C20,-1524.38 274,-1524.38 274,-1524.38 280,-1524.38 286,-1530.38 286,-1536.38 286,-1536.38 286,-1754.5 286,-1754.5 286,-1760.5 280,-1766.5 274,-1766.5 274,-1766.5 20,-1766.5 20,-1766.5 14,-1766.5 8,-1760.5 8,-1754.5 8,-1754.5 8,-1536.38 8,-1536.38 8,-1530.38 14,-1524.38 20,-1524.38"/>
<text xml:space="preserve" text-anchor="middle" x="147" y="-1749.2" font-family="Helvetica,sans-Serif" font-size="14.00" fill="#ece1d7">⑧ walsender server &#160;(tokio task)</text>
</g>
<g id="clust10" class="cluster">
<title>cluster_disk</title>
<path fill="#34302c" stroke="#4c4641" d="M640,-704.75C640,-704.75 1070,-704.75 1070,-704.75 1076,-704.75 1082,-710.75 1082,-716.75 1082,-716.75 1082,-780.25 1082,-780.25 1082,-786.25 1076,-792.25 1070,-792.25 1070,-792.25 640,-792.25 640,-792.25 634,-792.25 628,-786.25 628,-780.25 628,-780.25 628,-716.75 628,-716.75 628,-710.75 634,-704.75 640,-704.75"/>
<text xml:space="preserve" text-anchor="middle" x="855" y="-774.95" font-family="Helvetica,sans-Serif" font-size="14.00" fill="#ece1d7">⑨ on&#45;disk caches</text>
</g>
<!-- src -->
<g id="node1" class="node">
<title>src</title>
<path fill="#3d3d54" stroke="#6e6963" d="M565.38,-2514.41C565.38,-2516.22 550.86,-2517.69 533,-2517.69 515.14,-2517.69 500.62,-2516.22 500.62,-2514.41 500.62,-2514.41 500.62,-2484.96 500.62,-2484.96 500.62,-2483.15 515.14,-2481.69 533,-2481.69 550.86,-2481.69 565.38,-2483.15 565.38,-2484.96 565.38,-2484.96 565.38,-2514.41 565.38,-2514.41"/>
<path fill="none" stroke="#6e6963" d="M565.38,-2514.41C565.38,-2512.61 550.86,-2511.14 533,-2511.14 515.14,-2511.14 500.62,-2512.61 500.62,-2514.41"/>
<text xml:space="preserve" text-anchor="middle" x="533" y="-2496.56" font-family="Helvetica,sans-Serif" font-size="10.00" fill="#ece1d7">source PG</text>
</g>
<!-- feed -->
<g id="node4" class="node">
<title>feed</title>
<path fill="#3d3d54" stroke="#6e6963" d="M603.62,-2407.94C603.62,-2407.94 462.38,-2407.94 462.38,-2407.94 456.38,-2407.94 450.38,-2401.94 450.38,-2395.94 450.38,-2395.94 450.38,-2360.94 450.38,-2360.94 450.38,-2354.94 456.38,-2348.94 462.38,-2348.94 462.38,-2348.94 603.62,-2348.94 603.62,-2348.94 609.62,-2348.94 615.62,-2354.94 615.62,-2360.94 615.62,-2360.94 615.62,-2395.94 615.62,-2395.94 615.62,-2401.94 609.62,-2407.94 603.62,-2407.94"/>
<text xml:space="preserve" text-anchor="middle" x="533" y="-2394.44" font-family="Helvetica,sans-Serif" font-size="10.00" fill="#ece1d7">SourceFeed::pump</text>
<text xml:space="preserve" text-anchor="middle" x="533" y="-2381.69" font-family="Helvetica,sans-Serif" font-size="10.00" fill="#ece1d7">wal&#45;rs ReplicationConn</text>
<text xml:space="preserve" text-anchor="middle" x="533" y="-2368.94" font-family="Helvetica,sans-Serif" font-size="10.00" fill="#ece1d7">IDENTIFY_SYSTEM +</text>
<text xml:space="preserve" text-anchor="middle" x="533" y="-2356.19" font-family="Helvetica,sans-Serif" font-size="10.00" fill="#ece1d7">START_REPLICATION PHYSICAL</text>
</g>
<!-- src&#45;&gt;feed -->
<g id="edge33" class="edge">
<title>src&#45;&gt;feed</title>
<path fill="none" stroke="#a1a9cc" stroke-width="2" d="M533,-2481.35C533,-2465.66 533,-2441.93 533,-2421.32"/>
<polygon fill="#a1a9cc" stroke="#a1a9cc" stroke-width="2" points="536.5,-2421.36 533,-2411.36 529.5,-2421.36 536.5,-2421.36"/>
</g>
<!-- shd -->
<g id="node2" class="node">
<title>shd</title>
<path fill="#3d4128" stroke="#6e6963" d="M215.38,-1437.77C215.38,-1440.96 184.73,-1443.55 147,-1443.55 109.27,-1443.55 78.62,-1440.96 78.62,-1437.77 78.62,-1437.77 78.62,-1385.73 78.62,-1385.73 78.62,-1382.54 109.27,-1379.95 147,-1379.95 184.73,-1379.95 215.38,-1382.54 215.38,-1385.73 215.38,-1385.73 215.38,-1437.77 215.38,-1437.77"/>
<path fill="none" stroke="#6e6963" d="M215.38,-1437.77C215.38,-1434.58 184.73,-1431.98 147,-1431.98 109.27,-1431.98 78.62,-1434.58 78.62,-1437.77"/>
<text xml:space="preserve" text-anchor="middle" x="147" y="-1421.38" font-family="Helvetica,sans-Serif" font-size="10.00" fill="#ece1d7">shadow PG</text>
<text xml:space="preserve" text-anchor="middle" x="147" y="-1408.62" font-family="Helvetica,sans-Serif" font-size="10.00" fill="#ece1d7">walreceiver + catalog</text>
<text xml:space="preserve" text-anchor="middle" x="147" y="-1395.88" font-family="Helvetica,sans-Serif" font-size="10.00" fill="#ece1d7">(pg_last_wal_replay_lsn)</text>
</g>
<!-- stat -->
<g id="node33" class="node">
<title>stat</title>
<path fill="#5d3f40" stroke="#6e6963" d="M266.12,-1733.25C266.12,-1733.25 175.88,-1733.25 175.88,-1733.25 169.88,-1733.25 163.88,-1727.25 163.88,-1721.25 163.88,-1721.25 163.88,-1686.25 163.88,-1686.25 163.88,-1680.25 169.88,-1674.25 175.88,-1674.25 175.88,-1674.25 266.12,-1674.25 266.12,-1674.25 272.12,-1674.25 278.12,-1680.25 278.12,-1686.25 278.12,-1686.25 278.12,-1721.25 278.12,-1721.25 278.12,-1727.25 272.12,-1733.25 266.12,-1733.25"/>
<text xml:space="preserve" text-anchor="middle" x="221" y="-1719.75" font-family="Helvetica,sans-Serif" font-size="10.00" fill="#ece1d7">rx &#39;r&#39; standby status</text>
<text xml:space="preserve" text-anchor="middle" x="221" y="-1707" font-family="Helvetica,sans-Serif" font-size="10.00" fill="#ece1d7">flush_lsn / apply_lsn</text>
<text xml:space="preserve" text-anchor="middle" x="221" y="-1694.25" font-family="Helvetica,sans-Serif" font-size="10.00" fill="#ece1d7">(min across conns,</text>
<text xml:space="preserve" text-anchor="middle" x="221" y="-1681.5" font-family="Helvetica,sans-Serif" font-size="10.00" fill="#ece1d7"> apply&#45;lag metric)</text>
</g>
<!-- shd&#45;&gt;stat -->
<g id="edge35" class="edge">
<title>shd&#45;&gt;stat</title>
<path fill="none" stroke="#bd8183" stroke-dasharray="5,2" d="M215.68,-1419.85C418.39,-1440.88 1000.39,-1501.85 1007,-1509.25 1044.25,-1550.91 1045.86,-1594.83 1007,-1635 997.69,-1644.63 779.39,-1642.45 766,-1643 554.37,-1651.68 494.26,-1610.23 290,-1666.25 286.64,-1667.17 283.27,-1668.27 279.91,-1669.51"/>
<polygon fill="#bd8183" stroke="#bd8183" points="278.6,-1666.26 270.69,-1673.3 281.27,-1672.74 278.6,-1666.26"/>
</g>
<!-- ch -->
<g id="node3" class="node">
<title>ch</title>
<path fill="#4d4128" stroke="#6e6963" d="M1213.38,-468.48C1213.38,-470.28 1197.52,-471.75 1178,-471.75 1158.48,-471.75 1142.62,-470.28 1142.62,-468.48 1142.62,-468.48 1142.62,-439.02 1142.62,-439.02 1142.62,-437.22 1158.48,-435.75 1178,-435.75 1197.52,-435.75 1213.38,-437.22 1213.38,-439.02 1213.38,-439.02 1213.38,-468.48 1213.38,-468.48"/>
<path fill="none" stroke="#6e6963" d="M1213.38,-468.48C1213.38,-466.67 1197.52,-465.2 1178,-465.2 1158.48,-465.2 1142.62,-466.67 1142.62,-468.48"/>
<text xml:space="preserve" text-anchor="middle" x="1178" y="-450.62" font-family="Helvetica,sans-Serif" font-size="10.00" fill="#ece1d7">ClickHouse</text>
</g>
<!-- legend -->
<g id="node37" class="node">
<title>legend</title>
<path fill="#6e6963" stroke="none" d="M1308.12,-394.75C1308.12,-394.75 1047.88,-394.75 1047.88,-394.75 1041.88,-394.75 1035.88,-388.75 1035.88,-382.75 1035.88,-382.75 1035.88,-12 1035.88,-12 1035.88,-6 1041.88,0 1047.88,0 1047.88,0 1308.12,0 1308.12,0 1314.12,0 1320.12,-6 1320.12,-12 1320.12,-12 1320.12,-382.75 1320.12,-382.75 1320.12,-388.75 1314.12,-394.75 1308.12,-394.75"/>
<polygon fill="#34302c" stroke="none" points="1043.88,-368 1043.88,-390.75 1312.12,-390.75 1312.12,-368 1043.88,-368"/>
<polygon fill="none" stroke="#6e6963" points="1043.88,-368 1043.88,-390.75 1312.12,-390.75 1312.12,-368 1043.88,-368"/>
<text xml:space="preserve" text-anchor="start" x="1134.88" y="-377.25" font-family="Helvetica,sans-Serif" font-weight="bold" font-size="10.00" fill="#ece1d7">node fill — role</text>
<polygon fill="#3d3d54" stroke="none" points="1043.88,-345.25 1043.88,-368 1071.88,-368 1071.88,-345.25 1043.88,-345.25"/>
<polygon fill="none" stroke="#6e6963" points="1043.88,-345.25 1043.88,-368 1071.88,-368 1071.88,-345.25 1043.88,-345.25"/>
<polygon fill="none" stroke="#6e6963" points="1071.88,-345.25 1071.88,-368 1312.12,-368 1312.12,-345.25 1071.88,-345.25"/>
<text xml:space="preserve" text-anchor="start" x="1145.5" y="-353.25" font-family="Helvetica,sans-Serif" font-size="10.00" fill="#ece1d7">source PG / ingress</text>
<polygon fill="#4d3a28" stroke="none" points="1043.88,-322.5 1043.88,-345.25 1071.88,-345.25 1071.88,-322.5 1043.88,-322.5"/>
<polygon fill="none" stroke="#6e6963" points="1043.88,-322.5 1043.88,-345.25 1071.88,-345.25 1071.88,-322.5 1043.88,-322.5"/>
<polygon fill="none" stroke="#6e6963" points="1071.88,-322.5 1071.88,-345.25 1312.12,-345.25 1312.12,-322.5 1071.88,-322.5"/>
<text xml:space="preserve" text-anchor="start" x="1115.88" y="-330.5" font-family="Helvetica,sans-Serif" font-size="10.00" fill="#ece1d7">walshadow filter / queue (sync)</text>
<polygon fill="#4d3340" stroke="none" points="1043.88,-299.75 1043.88,-322.5 1071.88,-322.5 1071.88,-299.75 1043.88,-299.75"/>
<polygon fill="none" stroke="#6e6963" points="1043.88,-299.75 1043.88,-322.5 1071.88,-322.5 1071.88,-299.75 1043.88,-299.75"/>
<polygon fill="none" stroke="#6e6963" points="1071.88,-299.75 1071.88,-322.5 1312.12,-322.5 1312.12,-299.75 1071.88,-299.75"/>
<text xml:space="preserve" text-anchor="start" x="1078.38" y="-307.75" font-family="Helvetica,sans-Serif" font-size="10.00" fill="#ece1d7">walshadow output sinks (walsender, segment)</text>
<polygon fill="#4d4128" stroke="none" points="1043.88,-277 1043.88,-299.75 1071.88,-299.75 1071.88,-277 1043.88,-277"/>
<polygon fill="none" stroke="#6e6963" points="1043.88,-277 1043.88,-299.75 1071.88,-299.75 1071.88,-277 1043.88,-277"/>
<polygon fill="none" stroke="#6e6963" points="1071.88,-277 1071.88,-299.75 1312.12,-299.75 1312.12,-277 1071.88,-277"/>
<text xml:space="preserve" text-anchor="start" x="1110.25" y="-285" font-family="Helvetica,sans-Serif" font-size="10.00" fill="#ece1d7">walshadow decoder + xact buffer</text>
<polygon fill="#4d4d28" stroke="none" points="1043.88,-254.25 1043.88,-277 1071.88,-277 1071.88,-254.25 1043.88,-254.25"/>
<polygon fill="none" stroke="#6e6963" points="1043.88,-254.25 1043.88,-277 1071.88,-277 1071.88,-254.25 1043.88,-254.25"/>
<polygon fill="none" stroke="#6e6963" points="1071.88,-254.25 1071.88,-277 1312.12,-277 1312.12,-254.25 1071.88,-254.25"/>
<text xml:space="preserve" text-anchor="start" x="1076.88" y="-262.25" font-family="Helvetica,sans-Serif" font-size="10.00" fill="#ece1d7">walshadow ShadowCatalog + schema&#45;event tx</text>
<polygon fill="#5d3f40" stroke="none" points="1043.88,-231.5 1043.88,-254.25 1071.88,-254.25 1071.88,-231.5 1043.88,-231.5"/>
<polygon fill="none" stroke="#6e6963" points="1043.88,-231.5 1043.88,-254.25 1071.88,-254.25 1071.88,-231.5 1043.88,-231.5"/>
<polygon fill="none" stroke="#6e6963" points="1071.88,-231.5 1071.88,-254.25 1312.12,-254.25 1312.12,-231.5 1071.88,-231.5"/>
<text xml:space="preserve" text-anchor="start" x="1121.12" y="-239.5" font-family="Helvetica,sans-Serif" font-size="10.00" fill="#ece1d7">walshadow walsender server</text>
<polygon fill="#5d4628" stroke="none" points="1043.88,-208.75 1043.88,-231.5 1071.88,-231.5 1071.88,-208.75 1043.88,-208.75"/>
<polygon fill="none" stroke="#6e6963" points="1043.88,-208.75 1043.88,-231.5 1071.88,-231.5 1071.88,-208.75 1043.88,-208.75"/>
<polygon fill="none" stroke="#6e6963" points="1071.88,-208.75 1071.88,-231.5 1312.12,-231.5 1312.12,-208.75 1071.88,-208.75"/>
<text xml:space="preserve" text-anchor="start" x="1096.38" y="-216.75" font-family="Helvetica,sans-Serif" font-size="10.00" fill="#ece1d7">walshadow CH emitter + DdlApplicator</text>
<polygon fill="#4d3850" stroke="none" points="1043.88,-186 1043.88,-208.75 1071.88,-208.75 1071.88,-186 1043.88,-186"/>
<polygon fill="none" stroke="#6e6963" points="1043.88,-186 1043.88,-208.75 1071.88,-208.75 1071.88,-186 1043.88,-186"/>
<polygon fill="none" stroke="#6e6963" points="1071.88,-186 1071.88,-208.75 1312.12,-208.75 1312.12,-186 1071.88,-186"/>
<text xml:space="preserve" text-anchor="start" x="1154.88" y="-194" font-family="Helvetica,sans-Serif" font-size="10.00" fill="#ece1d7">on&#45;disk artifact</text>
<polygon fill="#3d4128" stroke="none" points="1043.88,-163.25 1043.88,-186 1071.88,-186 1071.88,-163.25 1043.88,-163.25"/>
<polygon fill="none" stroke="#6e6963" points="1043.88,-163.25 1043.88,-186 1071.88,-186 1071.88,-163.25 1043.88,-163.25"/>
<polygon fill="none" stroke="#6e6963" points="1071.88,-163.25 1071.88,-186 1312.12,-186 1312.12,-163.25 1071.88,-163.25"/>
<text xml:space="preserve" text-anchor="start" x="1150.75" y="-171.25" font-family="Helvetica,sans-Serif" font-size="10.00" fill="#ece1d7">shadow Postgres</text>
<polygon fill="#34302c" stroke="none" points="1043.88,-140.5 1043.88,-163.25 1312.12,-163.25 1312.12,-140.5 1043.88,-140.5"/>
<polygon fill="none" stroke="#6e6963" points="1043.88,-140.5 1043.88,-163.25 1312.12,-163.25 1312.12,-140.5 1043.88,-140.5"/>
<text xml:space="preserve" text-anchor="start" x="1144.25" y="-149.75" font-family="Helvetica,sans-Serif" font-weight="bold" font-size="10.00" fill="#ece1d7">edge colour</text>
<polygon fill="none" stroke="#6e6963" points="1043.88,-117.75 1043.88,-140.5 1071.88,-140.5 1071.88,-117.75 1043.88,-117.75"/>
<text xml:space="preserve" text-anchor="start" x="1051.88" y="-127" font-family="Helvetica,sans-Serif" font-weight="bold" font-size="10.00" fill="#a1a9cc">━━</text>
<polygon fill="none" stroke="#6e6963" points="1071.88,-117.75 1071.88,-140.5 1312.12,-140.5 1312.12,-117.75 1071.88,-117.75"/>
<text xml:space="preserve" text-anchor="start" x="1132.38" y="-125.75" font-family="Helvetica,sans-Serif" font-size="10.00" fill="#ece1d7">source replication frame</text>
<polygon fill="none" stroke="#6e6963" points="1043.88,-95 1043.88,-117.75 1071.88,-117.75 1071.88,-95 1043.88,-95"/>
<text xml:space="preserve" text-anchor="start" x="1051.88" y="-104.25" font-family="Helvetica,sans-Serif" font-weight="bold" font-size="10.00" fill="#bd8183">━━</text>
<polygon fill="none" stroke="#6e6963" points="1071.88,-95 1071.88,-117.75 1312.12,-117.75 1312.12,-95 1071.88,-95"/>
<text xml:space="preserve" text-anchor="start" x="1129.38" y="-103" font-family="Helvetica,sans-Serif" font-size="10.00" fill="#ece1d7">walsender wire (hot path)</text>
<polygon fill="none" stroke="#6e6963" points="1043.88,-72.25 1043.88,-95 1071.88,-95 1071.88,-72.25 1043.88,-72.25"/>
<text xml:space="preserve" text-anchor="start" x="1051.88" y="-81.5" font-family="Helvetica,sans-Serif" font-weight="bold" font-size="10.00" fill="#cba85e">━━</text>
<polygon fill="none" stroke="#6e6963" points="1071.88,-72.25 1071.88,-95 1312.12,-95 1312.12,-72.25 1071.88,-72.25"/>
<text xml:space="preserve" text-anchor="start" x="1106.12" y="-80.25" font-family="Helvetica,sans-Serif" font-size="10.00" fill="#ece1d7">libpq catalog query / schema event</text>
<polygon fill="none" stroke="#6e6963" points="1043.88,-49.5 1043.88,-72.25 1071.88,-72.25 1071.88,-49.5 1043.88,-49.5"/>
<text xml:space="preserve" text-anchor="start" x="1051.88" y="-58.75" font-family="Helvetica,sans-Serif" font-weight="bold" font-size="10.00" fill="#bf8c5f">━━</text>
<polygon fill="none" stroke="#6e6963" points="1071.88,-49.5 1071.88,-72.25 1312.12,-72.25 1312.12,-49.5 1071.88,-49.5"/>
<text xml:space="preserve" text-anchor="start" x="1122.25" y="-57.5" font-family="Helvetica,sans-Serif" font-size="10.00" fill="#ece1d7">CH Native (rows + DDL SQL)</text>
<polygon fill="none" stroke="#6e6963" points="1043.88,-26.75 1043.88,-49.5 1071.88,-49.5 1071.88,-26.75 1043.88,-26.75"/>
<text xml:space="preserve" text-anchor="start" x="1052.25" y="-36" font-family="Helvetica,sans-Serif" font-weight="bold" font-size="10.00" fill="#b380b0">···</text>
<polygon fill="none" stroke="#6e6963" points="1071.88,-26.75 1071.88,-49.5 1312.12,-49.5 1312.12,-26.75 1071.88,-26.75"/>
<text xml:space="preserve" text-anchor="start" x="1152.25" y="-34.75" font-family="Helvetica,sans-Serif" font-size="10.00" fill="#ece1d7">cursor durability</text>
<polygon fill="none" stroke="#6e6963" points="1043.88,-4 1043.88,-26.75 1071.88,-26.75 1071.88,-4 1043.88,-4"/>
<text xml:space="preserve" text-anchor="start" x="1051.88" y="-13.25" font-family="Helvetica,sans-Serif" font-weight="bold" font-size="10.00" fill="#6e6963">┄┄</text>
<polygon fill="none" stroke="#6e6963" points="1071.88,-4 1071.88,-26.75 1312.12,-26.75 1312.12,-4 1071.88,-4"/>
<text xml:space="preserve" text-anchor="start" x="1117" y="-12" font-family="Helvetica,sans-Serif" font-size="10.00" fill="#ece1d7">filesystem (restore_command)</text>
</g>
<!-- ch&#45;&gt;legend -->
<!-- chunks -->
<g id="node5" class="node">
<title>chunks</title>
<path fill="#3d3d54" stroke="#6e6963" d="M673.66,-2297.69C673.66,-2297.69 454.81,-2297.69 454.81,-2297.69 448.81,-2297.69 439.45,-2292.72 436.09,-2287.74 436.09,-2287.74 387.05,-2215.13 387.05,-2215.13 383.7,-2210.16 386.34,-2205.19 392.34,-2205.19 392.34,-2205.19 611.19,-2205.19 611.19,-2205.19 617.19,-2205.19 626.55,-2210.16 629.91,-2215.13 629.91,-2215.13 678.95,-2287.74 678.95,-2287.74 682.3,-2292.72 679.66,-2297.69 673.66,-2297.69"/>
<text xml:space="preserve" text-anchor="middle" x="533" y="-2261.06" font-family="Helvetica,sans-Serif" font-size="10.00" fill="#ece1d7">WalChunk stream</text>
<text xml:space="preserve" text-anchor="middle" x="533" y="-2248.31" font-family="Helvetica,sans-Serif" font-size="10.00" fill="#ece1d7">(start_lsn, server_wal_end,</text>
<text xml:space="preserve" text-anchor="middle" x="533" y="-2235.56" font-family="Helvetica,sans-Serif" font-size="10.00" fill="#ece1d7"> bytes)</text>
</g>
<!-- feed&#45;&gt;chunks -->
<g id="edge1" class="edge">
<title>feed&#45;&gt;chunks</title>
<path fill="none" stroke="#c1a78e" d="M533,-2348.45C533,-2336.73 533,-2322.77 533,-2309.19"/>
<polygon fill="#c1a78e" stroke="#c1a78e" points="536.5,-2309.43 533,-2299.43 529.5,-2309.43 536.5,-2309.43"/>
</g>
<!-- walker -->
<g id="node6" class="node">
<title>walker</title>
<path fill="#4d3a28" stroke="#6e6963" d="M592.75,-2132.69C592.75,-2132.69 473.25,-2132.69 473.25,-2132.69 467.25,-2132.69 461.25,-2126.69 461.25,-2120.69 461.25,-2120.69 461.25,-2098.44 461.25,-2098.44 461.25,-2092.44 467.25,-2086.44 473.25,-2086.44 473.25,-2086.44 592.75,-2086.44 592.75,-2086.44 598.75,-2086.44 604.75,-2092.44 604.75,-2098.44 604.75,-2098.44 604.75,-2120.69 604.75,-2120.69 604.75,-2126.69 598.75,-2132.69 592.75,-2132.69"/>
<text xml:space="preserve" text-anchor="middle" x="533" y="-2119.19" font-family="Helvetica,sans-Serif" font-size="10.00" fill="#ece1d7">StreamingWalker</text>
<text xml:space="preserve" text-anchor="middle" x="533" y="-2106.44" font-family="Helvetica,sans-Serif" font-size="10.00" fill="#ece1d7">page&#45;state machine</text>
<text xml:space="preserve" text-anchor="middle" x="533" y="-2093.69" font-family="Helvetica,sans-Serif" font-size="10.00" fill="#ece1d7">record stitch across pages</text>
</g>
<!-- chunks&#45;&gt;walker -->
<g id="edge6" class="edge">
<title>chunks&#45;&gt;walker</title>
<path fill="none" stroke="#a1a9cc" stroke-width="2" d="M533,-2205.02C533,-2185.83 533,-2163.81 533,-2145.86"/>
<polygon fill="#a1a9cc" stroke="#a1a9cc" stroke-width="2" points="536.5,-2146.07 533,-2136.07 529.5,-2146.07 536.5,-2146.07"/>
</g>
<!-- decide -->
<g id="node8" class="node">
<title>decide</title>
<path fill="#4d3a28" stroke="#6e6963" d="M569.12,-2039.06C569.12,-2039.06 496.88,-2039.06 496.88,-2039.06 490.88,-2039.06 484.88,-2033.06 484.88,-2027.06 484.88,-2027.06 484.88,-1992.06 484.88,-1992.06 484.88,-1986.06 490.88,-1980.06 496.88,-1980.06 496.88,-1980.06 569.12,-1980.06 569.12,-1980.06 575.12,-1980.06 581.12,-1986.06 581.12,-1992.06 581.12,-1992.06 581.12,-2027.06 581.12,-2027.06 581.12,-2033.06 575.12,-2039.06 569.12,-2039.06"/>
<text xml:space="preserve" text-anchor="middle" x="533" y="-2025.56" font-family="Helvetica,sans-Serif" font-size="10.00" fill="#ece1d7">Filter::decide</text>
<text xml:space="preserve" text-anchor="middle" x="533" y="-2012.81" font-family="Helvetica,sans-Serif" font-size="10.00" fill="#ece1d7">Keep catalog</text>
<text xml:space="preserve" text-anchor="middle" x="533" y="-2000.06" font-family="Helvetica,sans-Serif" font-size="10.00" fill="#ece1d7">Drop user&#45;heap</text>
<text xml:space="preserve" text-anchor="middle" x="533" y="-1987.31" font-family="Helvetica,sans-Serif" font-size="10.00" fill="#ece1d7">Empty → reclass</text>
</g>
<!-- walker&#45;&gt;decide -->
<g id="edge2" class="edge">
<title>walker&#45;&gt;decide</title>
<path fill="none" stroke="#c1a78e" d="M533,-2086.32C533,-2075.8 533,-2062.89 533,-2050.74"/>
<polygon fill="#c1a78e" stroke="#c1a78e" points="536.5,-2050.93 533,-2040.93 529.5,-2050.93 536.5,-2050.93"/>
</g>
<!-- track -->
<g id="node7" class="node">
<title>track</title>
<path fill="#4d3a28" stroke="#6e6963" d="M756.62,-1939.06C756.62,-1939.06 633.38,-1939.06 633.38,-1939.06 627.38,-1939.06 621.38,-1933.06 621.38,-1927.06 621.38,-1927.06 621.38,-1904.81 621.38,-1904.81 621.38,-1898.81 627.38,-1892.81 633.38,-1892.81 633.38,-1892.81 756.62,-1892.81 756.62,-1892.81 762.62,-1892.81 768.62,-1898.81 768.62,-1904.81 768.62,-1904.81 768.62,-1927.06 768.62,-1927.06 768.62,-1933.06 762.62,-1939.06 756.62,-1939.06"/>
<text xml:space="preserve" text-anchor="middle" x="695" y="-1925.56" font-family="Helvetica,sans-Serif" font-size="10.00" fill="#ece1d7">CatalogTracker</text>
<text xml:space="preserve" text-anchor="middle" x="695" y="-1912.81" font-family="Helvetica,sans-Serif" font-size="10.00" fill="#ece1d7">relfilenode set</text>
<text xml:space="preserve" text-anchor="middle" x="695" y="-1900.06" font-family="Helvetica,sans-Serif" font-size="10.00" fill="#ece1d7">(relmap + pg_class writes)</text>
</g>
<!-- inval -->
<g id="node27" class="node">
<title>inval</title>
<path fill="#4d4d28" stroke="#6e6963" d="M972.88,-2529.19C972.88,-2529.19 893.12,-2529.19 893.12,-2529.19 887.12,-2529.19 881.12,-2523.19 881.12,-2517.19 881.12,-2517.19 881.12,-2482.19 881.12,-2482.19 881.12,-2476.19 887.12,-2470.19 893.12,-2470.19 893.12,-2470.19 972.88,-2470.19 972.88,-2470.19 978.88,-2470.19 984.88,-2476.19 984.88,-2482.19 984.88,-2482.19 984.88,-2517.19 984.88,-2517.19 984.88,-2523.19 978.88,-2529.19 972.88,-2529.19"/>
<text xml:space="preserve" text-anchor="middle" x="933" y="-2515.69" font-family="Helvetica,sans-Serif" font-size="10.00" fill="#ece1d7">invalidation_drain</text>
<text xml:space="preserve" text-anchor="middle" x="933" y="-2502.94" font-family="Helvetica,sans-Serif" font-size="10.00" fill="#ece1d7">(tokio task)</text>
<text xml:space="preserve" text-anchor="middle" x="933" y="-2490.19" font-family="Helvetica,sans-Serif" font-size="10.00" fill="#ece1d7">bump generation</text>
<text xml:space="preserve" text-anchor="middle" x="933" y="-2477.44" font-family="Helvetica,sans-Serif" font-size="10.00" fill="#ece1d7">on catalog write</text>
</g>
<!-- track&#45;&gt;inval -->
<g id="edge28" class="edge">
<title>track&#45;&gt;inval</title>
<path fill="none" stroke="#cba85e" stroke-dasharray="5,2" d="M769.08,-1922.08C1001.54,-1938.95 1705.08,-1995.96 1771,-2072.06 2004.61,-2341.77 1228.52,-2461.91 996.52,-2491.29"/>
<polygon fill="#cba85e" stroke="#cba85e" points="996.23,-2487.8 986.74,-2492.51 997.1,-2494.74 996.23,-2487.8"/>
</g>
<!-- decide&#45;&gt;track -->
<g id="edge5" class="edge">
<title>decide&#45;&gt;track</title>
<path fill="none" stroke="#c1a78e" stroke-dasharray="5,2" d="M591.17,-1975.66C608.91,-1965.63 628.23,-1954.7 645.35,-1945.02"/>
<polygon fill="#c1a78e" stroke="#c1a78e" points="582.67,-1980.47 589.15,-1971.63 585.96,-1978.61 591.37,-1975.55 591.37,-1975.55 591.37,-1975.55 585.96,-1978.61 593.59,-1979.47 582.67,-1980.47"/>
<polygon fill="#c1a78e" stroke="#c1a78e" points="646.84,-1948.19 653.83,-1940.22 643.4,-1942.1 646.84,-1948.19"/>
</g>
<!-- rewrite -->
<g id="node9" class="node">
<title>rewrite</title>
<path fill="#4d3a28" stroke="#6e6963" d="M577.38,-1939.06C577.38,-1939.06 470.62,-1939.06 470.62,-1939.06 464.62,-1939.06 458.62,-1933.06 458.62,-1927.06 458.62,-1927.06 458.62,-1904.81 458.62,-1904.81 458.62,-1898.81 464.62,-1892.81 470.62,-1892.81 470.62,-1892.81 577.38,-1892.81 577.38,-1892.81 583.38,-1892.81 589.38,-1898.81 589.38,-1904.81 589.38,-1904.81 589.38,-1927.06 589.38,-1927.06 589.38,-1933.06 583.38,-1939.06 577.38,-1939.06"/>
<text xml:space="preserve" text-anchor="middle" x="524" y="-1925.56" font-family="Helvetica,sans-Serif" font-size="10.00" fill="#ece1d7">rewrite::noop_replace</text>
<text xml:space="preserve" text-anchor="middle" x="524" y="-1912.81" font-family="Helvetica,sans-Serif" font-size="10.00" fill="#ece1d7">in&#45;place at byte_ranges</text>
<text xml:space="preserve" text-anchor="middle" x="524" y="-1900.06" font-family="Helvetica,sans-Serif" font-size="10.00" fill="#ece1d7">+ CRC32C recompute</text>
</g>
<!-- decide&#45;&gt;rewrite -->
<g id="edge3" class="edge">
<title>decide&#45;&gt;rewrite</title>
<path fill="none" stroke="#c1a78e" d="M530.15,-1979.57C529.25,-1970.43 528.25,-1960.25 527.33,-1950.8"/>
<polygon fill="#c1a78e" stroke="#c1a78e" points="530.81,-1950.47 526.35,-1940.86 523.84,-1951.15 530.81,-1950.47"/>
</g>
<!-- segbuf -->
<g id="node10" class="node">
<title>segbuf</title>
<path fill="#4d3a28" stroke="#6e6963" d="M587.5,-1837.38C587.5,-1839.69 559.04,-1841.56 524,-1841.56 488.96,-1841.56 460.5,-1839.69 460.5,-1837.38 460.5,-1837.38 460.5,-1799.69 460.5,-1799.69 460.5,-1797.38 488.96,-1795.5 524,-1795.5 559.04,-1795.5 587.5,-1797.38 587.5,-1799.69 587.5,-1799.69 587.5,-1837.38 587.5,-1837.38"/>
<path fill="none" stroke="#6e6963" d="M587.5,-1837.38C587.5,-1835.06 559.04,-1833.19 524,-1833.19 488.96,-1833.19 460.5,-1835.06 460.5,-1837.38"/>
<text xml:space="preserve" text-anchor="middle" x="524" y="-1821.78" font-family="Helvetica,sans-Serif" font-size="10.00" fill="#ece1d7">16 MiB segment buffer</text>
<text xml:space="preserve" text-anchor="middle" x="524" y="-1809.03" font-family="Helvetica,sans-Serif" font-size="10.00" fill="#ece1d7">(rewritten image)</text>
</g>
<!-- rewrite&#45;&gt;segbuf -->
<g id="edge4" class="edge">
<title>rewrite&#45;&gt;segbuf</title>
<path fill="none" stroke="#c1a78e" d="M524,-1892.33C524,-1880.68 524,-1866.25 524,-1853.32"/>
<polygon fill="#c1a78e" stroke="#c1a78e" points="527.5,-1853.49 524,-1843.49 520.5,-1853.49 527.5,-1853.49"/>
</g>
<!-- bytesink -->
<g id="node11" class="node">
<title>bytesink</title>
<path fill="#4d3340" stroke="#6e6963" d="M420.25,-1726.88C420.25,-1726.88 321.75,-1726.88 321.75,-1726.88 315.75,-1726.88 309.75,-1720.88 309.75,-1714.88 309.75,-1714.88 309.75,-1692.62 309.75,-1692.62 309.75,-1686.62 315.75,-1680.62 321.75,-1680.62 321.75,-1680.62 420.25,-1680.62 420.25,-1680.62 426.25,-1680.62 432.25,-1686.62 432.25,-1692.62 432.25,-1692.62 432.25,-1714.88 432.25,-1714.88 432.25,-1720.88 426.25,-1726.88 420.25,-1726.88"/>
<text xml:space="preserve" text-anchor="middle" x="371" y="-1713.38" font-family="Helvetica,sans-Serif" font-size="10.00" fill="#ece1d7">❶ ShadowStreamSink</text>
<text xml:space="preserve" text-anchor="middle" x="371" y="-1700.62" font-family="Helvetica,sans-Serif" font-size="10.00" fill="#ece1d7">on_record_bytes</text>
<text xml:space="preserve" text-anchor="middle" x="371" y="-1687.88" font-family="Helvetica,sans-Serif" font-size="10.00" fill="#ece1d7">(stays on pump)</text>
</g>
<!-- segbuf&#45;&gt;bytesink -->
<g id="edge7" class="edge">
<title>segbuf&#45;&gt;bytesink</title>
<path fill="none" stroke="#bd8183" stroke-width="2" d="M490.04,-1795.18C477.05,-1786.44 462.2,-1776.2 449,-1766.5 435.49,-1756.58 421.01,-1745.3 408.24,-1735.13"/>
<polygon fill="#bd8183" stroke="#bd8183" stroke-width="2" points="410.77,-1732.67 400.78,-1729.14 406.39,-1738.13 410.77,-1732.67"/>
</g>
<!-- recsink -->
<g id="node12" class="node">
<title>recsink</title>
<path fill="#4d3340" stroke="#6e6963" d="M743.25,-1733.25C743.25,-1733.25 644.75,-1733.25 644.75,-1733.25 638.75,-1733.25 632.75,-1727.25 632.75,-1721.25 632.75,-1721.25 632.75,-1686.25 632.75,-1686.25 632.75,-1680.25 638.75,-1674.25 644.75,-1674.25 644.75,-1674.25 743.25,-1674.25 743.25,-1674.25 749.25,-1674.25 755.25,-1680.25 755.25,-1686.25 755.25,-1686.25 755.25,-1721.25 755.25,-1721.25 755.25,-1727.25 749.25,-1733.25 743.25,-1733.25"/>
<text xml:space="preserve" text-anchor="middle" x="694" y="-1719.75" font-family="Helvetica,sans-Serif" font-size="10.00" fill="#ece1d7">❷ on_record →</text>
<text xml:space="preserve" text-anchor="middle" x="694" y="-1707" font-family="Helvetica,sans-Serif" font-size="10.00" fill="#ece1d7">QueueingRecordSink</text>
<text xml:space="preserve" text-anchor="middle" x="694" y="-1694.25" font-family="Helvetica,sans-Serif" font-size="10.00" fill="#ece1d7">(clones + enqueues,</text>
<text xml:space="preserve" text-anchor="middle" x="694" y="-1681.5" font-family="Helvetica,sans-Serif" font-size="10.00" fill="#ece1d7"> returns immediately)</text>
</g>
<!-- segbuf&#45;&gt;recsink -->
<g id="edge8" class="edge">
<title>segbuf&#45;&gt;recsink</title>
<path fill="none" stroke="#c1a78e" d="M557.59,-1795.25C581.39,-1779.46 613.81,-1757.95 641.07,-1739.86"/>
<polygon fill="#c1a78e" stroke="#c1a78e" points="642.82,-1742.91 649.22,-1734.46 638.95,-1737.07 642.82,-1742.91"/>
</g>
<!-- segsink -->
<g id="node13" class="node">
<title>segsink</title>
<path fill="#4d3340" stroke="#6e6963" d="M571.38,-1726.88C571.38,-1726.88 476.62,-1726.88 476.62,-1726.88 470.62,-1726.88 464.62,-1720.88 464.62,-1714.88 464.62,-1714.88 464.62,-1692.62 464.62,-1692.62 464.62,-1686.62 470.62,-1680.62 476.62,-1680.62 476.62,-1680.62 571.38,-1680.62 571.38,-1680.62 577.38,-1680.62 583.38,-1686.62 583.38,-1692.62 583.38,-1692.62 583.38,-1714.88 583.38,-1714.88 583.38,-1720.88 577.38,-1726.88 571.38,-1726.88"/>
<text xml:space="preserve" text-anchor="middle" x="524" y="-1713.38" font-family="Helvetica,sans-Serif" font-size="10.00" fill="#ece1d7">❸ DirSegmentSink</text>
<text xml:space="preserve" text-anchor="middle" x="524" y="-1700.62" font-family="Helvetica,sans-Serif" font-size="10.00" fill="#ece1d7">on_segment</text>
<text xml:space="preserve" text-anchor="middle" x="524" y="-1687.88" font-family="Helvetica,sans-Serif" font-size="10.00" fill="#ece1d7">(at 16 MiB boundary)</text>
</g>
<!-- segbuf&#45;&gt;segsink -->
<g id="edge9" class="edge">
<title>segbuf&#45;&gt;segsink</title>
<path fill="none" stroke="#c1a78e" stroke-dasharray="5,2" d="M524,-1795.25C524,-1779.14 524,-1757.07 524,-1738.76"/>
<polygon fill="#c1a78e" stroke="#c1a78e" points="527.5,-1738.89 524,-1728.89 520.5,-1738.89 527.5,-1738.89"/>
</g>
<!-- sendq -->
<g id="node32" class="node">
<title>sendq</title>
<path fill="#5d3f40" stroke="#6e6963" d="M198.5,-1578.62C198.5,-1578.62 95.5,-1578.62 95.5,-1578.62 89.5,-1578.62 83.5,-1572.62 83.5,-1566.62 83.5,-1566.62 83.5,-1544.38 83.5,-1544.38 83.5,-1538.38 89.5,-1532.38 95.5,-1532.38 95.5,-1532.38 198.5,-1532.38 198.5,-1532.38 204.5,-1532.38 210.5,-1538.38 210.5,-1544.38 210.5,-1544.38 210.5,-1566.62 210.5,-1566.62 210.5,-1572.62 204.5,-1578.62 198.5,-1578.62"/>
<text xml:space="preserve" text-anchor="middle" x="147" y="-1565.12" font-family="Helvetica,sans-Serif" font-size="10.00" fill="#ece1d7">per&#45;conn send queue</text>
<text xml:space="preserve" text-anchor="middle" x="147" y="-1552.38" font-family="Helvetica,sans-Serif" font-size="10.00" fill="#ece1d7">&#39;w&#39; XLogData @ record</text>
<text xml:space="preserve" text-anchor="middle" x="147" y="-1539.62" font-family="Helvetica,sans-Serif" font-size="10.00" fill="#ece1d7">&#39;k&#39; keepalive on idle</text>
</g>
<!-- bytesink&#45;&gt;sendq -->
<g id="edge31" class="edge">
<title>bytesink&#45;&gt;sendq</title>
<path fill="none" stroke="#bd8183" stroke-width="2" d="M336.49,-1680.22C297.77,-1654.94 234.81,-1613.83 192.19,-1586"/>
<polygon fill="#bd8183" stroke="#bd8183" stroke-width="2" points="194.37,-1583.25 184.08,-1580.71 190.54,-1589.11 194.37,-1583.25"/>
</g>
<!-- qbuf -->
<g id="node14" class="node">
<title>qbuf</title>
<path fill="#4d3a28" stroke="#6e6963" d="M917.78,-1601.75C917.78,-1601.75 727.38,-1601.75 727.38,-1601.75 721.38,-1601.75 712.3,-1596.6 709.23,-1591.44 709.23,-1591.44 666.37,-1519.56 666.37,-1519.56 663.29,-1514.4 666.22,-1509.25 672.22,-1509.25 672.22,-1509.25 862.62,-1509.25 862.62,-1509.25 868.62,-1509.25 877.7,-1514.4 880.77,-1519.56 880.77,-1519.56 923.63,-1591.44 923.63,-1591.44 926.71,-1596.6 923.78,-1601.75 917.78,-1601.75"/>
<text xml:space="preserve" text-anchor="middle" x="795" y="-1565.12" font-family="Helvetica,sans-Serif" font-size="10.00" fill="#ece1d7">pump&#45;side batch</text>
<text xml:space="preserve" text-anchor="middle" x="795" y="-1552.38" font-family="Helvetica,sans-Serif" font-size="10.00" fill="#ece1d7">Vec&lt;Record&lt;&#39;static&gt;&gt;</text>
<text xml:space="preserve" text-anchor="middle" x="795" y="-1539.62" font-family="Helvetica,sans-Serif" font-size="10.00" fill="#ece1d7">batch_size = 64</text>
</g>
<!-- recsink&#45;&gt;qbuf -->
<g id="edge13" class="edge">
<title>recsink&#45;&gt;qbuf</title>
<path fill="none" stroke="#c1a78e" d="M713.95,-1673.86C720.02,-1665.08 727.02,-1654.94 734.32,-1644.37"/>
<polygon fill="#c1a78e" stroke="#c1a78e" points="737.13,-1646.46 739.93,-1636.24 731.37,-1642.48 737.13,-1646.46"/>
</g>
<!-- outdir -->
<g id="node34" class="node">
<title>outdir</title>
<polygon fill="#4d3850" stroke="#6e6963" points="724,-759 636,-759 636,-712.75 730,-712.75 730,-753 724,-759"/>
<polyline fill="none" stroke="#6e6963" points="724,-759 724,-753"/>
<polyline fill="none" stroke="#6e6963" points="730,-753 724,-753"/>
<text xml:space="preserve" text-anchor="middle" x="683" y="-745.5" font-family="Helvetica,sans-Serif" font-size="10.00" fill="#ece1d7">out/&lt;seg&gt;</text>
<text xml:space="preserve" text-anchor="middle" x="683" y="-732.75" font-family="Helvetica,sans-Serif" font-size="10.00" fill="#ece1d7">16 MiB filtered</text>
<text xml:space="preserve" text-anchor="middle" x="683" y="-720" font-family="Helvetica,sans-Serif" font-size="10.00" fill="#ece1d7">+ manifest.json</text>
</g>
<!-- segsink&#45;&gt;outdir -->
<g id="edge37" class="edge">
<title>segsink&#45;&gt;outdir</title>
<path fill="none" stroke="#c1a78e" d="M521.03,-1680.5C517.48,-1651.87 512,-1600.57 512,-1556.5 512,-1556.5 512,-1556.5 512,-860 512,-802.91 575.54,-769.67 625.15,-752.42"/>
<polygon fill="#c1a78e" stroke="#c1a78e" points="626,-755.83 634.38,-749.35 623.79,-749.18 626,-755.83"/>
</g>
<!-- qchan -->
<g id="node15" class="node">
<title>qchan</title>
<path fill="#4d3a28" stroke="#6e6963" d="M951.33,-1458C951.33,-1458 769.59,-1458 769.59,-1458 763.59,-1458 754.61,-1452.79 751.63,-1447.58 751.63,-1447.58 710.62,-1375.92 710.62,-1375.92 707.64,-1370.71 710.67,-1365.5 716.67,-1365.5 716.67,-1365.5 898.41,-1365.5 898.41,-1365.5 904.41,-1365.5 913.39,-1370.71 916.37,-1375.92 916.37,-1375.92 957.38,-1447.58 957.38,-1447.58 960.36,-1452.79 957.33,-1458 951.33,-1458"/>
<text xml:space="preserve" text-anchor="middle" x="834" y="-1421.38" font-family="Helvetica,sans-Serif" font-size="10.00" fill="#ece1d7">unbounded mpsc</text>
<text xml:space="preserve" text-anchor="middle" x="834" y="-1408.62" font-family="Helvetica,sans-Serif" font-size="10.00" fill="#ece1d7">Vec&lt;Record&gt; batches</text>
<text xml:space="preserve" text-anchor="middle" x="834" y="-1395.88" font-family="Helvetica,sans-Serif" font-size="10.00" fill="#ece1d7">soft cap → yield_now</text>
</g>
<!-- qbuf&#45;&gt;qchan -->
<g id="edge10" class="edge">
<title>qbuf&#45;&gt;qchan</title>
<path fill="none" stroke="#c1a78e" d="M807.55,-1508.87C811.03,-1496.22 814.85,-1482.34 818.48,-1469.16"/>
<polygon fill="#c1a78e" stroke="#c1a78e" points="821.79,-1470.32 821.07,-1459.75 815.04,-1468.47 821.79,-1470.32"/>
</g>
<!-- qwrk -->
<g id="node16" class="node">
<title>qwrk</title>
<path fill="#4d3a28" stroke="#6e6963" d="M941.75,-1324.5C941.75,-1324.5 864.25,-1324.5 864.25,-1324.5 858.25,-1324.5 852.25,-1318.5 852.25,-1312.5 852.25,-1312.5 852.25,-1290.25 852.25,-1290.25 852.25,-1284.25 858.25,-1278.25 864.25,-1278.25 864.25,-1278.25 941.75,-1278.25 941.75,-1278.25 947.75,-1278.25 953.75,-1284.25 953.75,-1290.25 953.75,-1290.25 953.75,-1312.5 953.75,-1312.5 953.75,-1318.5 947.75,-1324.5 941.75,-1324.5"/>
<text xml:space="preserve" text-anchor="middle" x="903" y="-1311" font-family="Helvetica,sans-Serif" font-size="10.00" fill="#ece1d7">worker task</text>
<text xml:space="preserve" text-anchor="middle" x="903" y="-1298.25" font-family="Helvetica,sans-Serif" font-size="10.00" fill="#ece1d7">drains batches,</text>
<text xml:space="preserve" text-anchor="middle" x="903" y="-1285.5" font-family="Helvetica,sans-Serif" font-size="10.00" fill="#ece1d7">fires on_idle ticks</text>
</g>
<!-- qchan&#45;&gt;qwrk -->
<g id="edge11" class="edge">
<title>qchan&#45;&gt;qwrk</title>
<path fill="none" stroke="#c1a78e" d="M863.06,-1365.1C869.62,-1354.8 876.45,-1344.07 882.57,-1334.46"/>
<polygon fill="#c1a78e" stroke="#c1a78e" points="885.41,-1336.51 887.83,-1326.2 879.51,-1332.75 885.41,-1336.51"/>
</g>
<!-- qerr -->
<g id="node17" class="node">
<title>qerr</title>
<polygon fill="#4d3a28" stroke="#6e6963" points="960.5,-1210.88 839.5,-1210.88 839.5,-1174.88 966.5,-1174.88 966.5,-1204.88 960.5,-1210.88"/>
<polyline fill="none" stroke="#6e6963" points="960.5,-1210.88 960.5,-1204.88"/>
<polyline fill="none" stroke="#6e6963" points="966.5,-1204.88 960.5,-1204.88"/>
<text xml:space="preserve" text-anchor="middle" x="903" y="-1196.12" font-family="Helvetica,sans-Serif" font-size="10.00" fill="#ece1d7">shared err slot</text>
<text xml:space="preserve" text-anchor="middle" x="903" y="-1183.38" font-family="Helvetica,sans-Serif" font-size="10.00" fill="#ece1d7">surfaces back to pump</text>
</g>
<!-- qwrk&#45;&gt;qerr -->
<g id="edge12" class="edge">
<title>qwrk&#45;&gt;qerr</title>
<path fill="none" stroke="#b58b86" stroke-dasharray="5,2" d="M903,-1277.79C903,-1261.69 903,-1239.93 903,-1222.6"/>
<polygon fill="#b58b86" stroke="#b58b86" points="906.5,-1222.68 903,-1212.68 899.5,-1222.68 906.5,-1222.68"/>
</g>
<!-- catgate -->
<g id="node18" class="node">
<title>catgate</title>
<path fill="#4d4128" stroke="#6e6963" d="M1193.25,-1216C1193.25,-1216 1088.75,-1216 1088.75,-1216 1082.75,-1216 1076.75,-1210 1076.75,-1204 1076.75,-1204 1076.75,-1181.75 1076.75,-1181.75 1076.75,-1175.75 1082.75,-1169.75 1088.75,-1169.75 1088.75,-1169.75 1193.25,-1169.75 1193.25,-1169.75 1199.25,-1169.75 1205.25,-1175.75 1205.25,-1181.75 1205.25,-1181.75 1205.25,-1204 1205.25,-1204 1205.25,-1210 1199.25,-1216 1193.25,-1216"/>
<text xml:space="preserve" text-anchor="middle" x="1141" y="-1202.5" font-family="Helvetica,sans-Serif" font-size="10.00" fill="#ece1d7">BufferingDecoderSink</text>
<text xml:space="preserve" text-anchor="middle" x="1141" y="-1189.75" font-family="Helvetica,sans-Serif" font-size="10.00" fill="#ece1d7">relation_at(rfn, lsn)</text>
<text xml:space="preserve" text-anchor="middle" x="1141" y="-1177" font-family="Helvetica,sans-Serif" font-size="10.00" fill="#ece1d7">wait_for_replay(at_lsn)</text>
</g>
<!-- qwrk&#45;&gt;catgate -->
<g id="edge17" class="edge">
<title>qwrk&#45;&gt;catgate</title>
<path fill="none" stroke="#c1a78e" d="M953.95,-1290.83C983.78,-1284.09 1021.62,-1273.51 1053,-1258.25 1055.25,-1257.16 1057.5,-1256.01 1059.74,-1254.8"/>
<polygon fill="#c1a78e" stroke="#c1a78e" points="1061.26,-1257.97 1068.23,-1249.99 1057.8,-1251.88 1061.26,-1257.97"/>
</g>
<!-- decoder -->
<g id="node19" class="node">
<title>decoder</title>
<path fill="#4d4128" stroke="#6e6963" d="M1200.25,-1128.75C1200.25,-1128.75 1077.75,-1128.75 1077.75,-1128.75 1071.75,-1128.75 1065.75,-1122.75 1065.75,-1116.75 1065.75,-1116.75 1065.75,-1056.25 1065.75,-1056.25 1065.75,-1050.25 1071.75,-1044.25 1077.75,-1044.25 1077.75,-1044.25 1200.25,-1044.25 1200.25,-1044.25 1206.25,-1044.25 1212.25,-1050.25 1212.25,-1056.25 1212.25,-1056.25 1212.25,-1116.75 1212.25,-1116.75 1212.25,-1122.75 1206.25,-1128.75 1200.25,-1128.75"/>
<text xml:space="preserve" text-anchor="middle" x="1139" y="-1115.25" font-family="Helvetica,sans-Serif" font-size="10.00" fill="#ece1d7">heap_decoder</text>
<text xml:space="preserve" text-anchor="middle" x="1139" y="-1102.5" font-family="Helvetica,sans-Serif" font-size="10.00" fill="#ece1d7">INSERT / DELETE /</text>
<text xml:space="preserve" text-anchor="middle" x="1139" y="-1089.75" font-family="Helvetica,sans-Serif" font-size="10.00" fill="#ece1d7">UPDATE / HOT / TRUNCATE</text>
<text xml:space="preserve" text-anchor="middle" x="1139" y="-1077" font-family="Helvetica,sans-Serif" font-size="10.00" fill="#ece1d7">Tier&#45;1 fixed&#45;width</text>
<text xml:space="preserve" text-anchor="middle" x="1139" y="-1064.25" font-family="Helvetica,sans-Serif" font-size="10.00" fill="#ece1d7">Tier&#45;2 length&#45;prefixed</text>
<text xml:space="preserve" text-anchor="middle" x="1139" y="-1051.5" font-family="Helvetica,sans-Serif" font-size="10.00" fill="#ece1d7">Replica&#45;identity matrix</text>
</g>
<!-- catgate&#45;&gt;decoder -->
<g id="edge14" class="edge">
<title>catgate&#45;&gt;decoder</title>
<path fill="none" stroke="#c1a78e" d="M1140.57,-1169.48C1140.41,-1160.95 1140.21,-1150.83 1140.02,-1140.65"/>
<polygon fill="#c1a78e" stroke="#c1a78e" points="1143.52,-1140.67 1139.83,-1130.74 1136.52,-1140.8 1143.52,-1140.67"/>
</g>
<!-- lru -->
<g id="node25" class="node">
<title>lru</title>
<path fill="#4d4d28" stroke="#6e6963" d="M980.75,-2401.56C980.75,-2401.56 885.25,-2401.56 885.25,-2401.56 879.25,-2401.56 873.25,-2395.56 873.25,-2389.56 873.25,-2389.56 873.25,-2367.31 873.25,-2367.31 873.25,-2361.31 879.25,-2355.31 885.25,-2355.31 885.25,-2355.31 980.75,-2355.31 980.75,-2355.31 986.75,-2355.31 992.75,-2361.31 992.75,-2367.31 992.75,-2367.31 992.75,-2389.56 992.75,-2389.56 992.75,-2395.56 986.75,-2401.56 980.75,-2401.56"/>
<text xml:space="preserve" text-anchor="middle" x="933" y="-2388.06" font-family="Helvetica,sans-Serif" font-size="10.00" fill="#ece1d7">LRU 4096</text>
<text xml:space="preserve" text-anchor="middle" x="933" y="-2375.31" font-family="Helvetica,sans-Serif" font-size="10.00" fill="#ece1d7">by_filenode / by_oid</text>
<text xml:space="preserve" text-anchor="middle" x="933" y="-2362.56" font-family="Helvetica,sans-Serif" font-size="10.00" fill="#ece1d7">+ generation counter</text>
</g>
<!-- catgate&#45;&gt;lru -->
<g id="edge27" class="edge">
<title>catgate&#45;&gt;lru</title>
<path fill="none" stroke="#cba85e" stroke-dasharray="5,2" d="M1171.95,-1216.29C1309.02,-1318.48 1848.33,-1753.06 1705,-2165.94 1678.65,-2241.83 1663.35,-2269.03 1593,-2307.81 1567.46,-2321.89 1169.47,-2357.25 1004.15,-2371.43"/>
<polygon fill="#cba85e" stroke="#cba85e" points="1004.3,-2367.9 994.64,-2372.24 1004.9,-2374.87 1004.3,-2367.9"/>
<text xml:space="preserve" text-anchor="middle" x="1710.7" y="-1815.61" font-family="Helvetica,sans-Serif" font-size="9.00" fill="#ece1d7">lookup</text>
</g>
<!-- xactbuf -->
<g id="node20" class="node">
<title>xactbuf</title>
<path fill="#4d4128" stroke="#6e6963" d="M1185.75,-1003.25C1185.75,-1003.25 1090.25,-1003.25 1090.25,-1003.25 1084.25,-1003.25 1078.25,-997.25 1078.25,-991.25 1078.25,-991.25 1078.25,-943.5 1078.25,-943.5 1078.25,-937.5 1084.25,-931.5 1090.25,-931.5 1090.25,-931.5 1185.75,-931.5 1185.75,-931.5 1191.75,-931.5 1197.75,-937.5 1197.75,-943.5 1197.75,-943.5 1197.75,-991.25 1197.75,-991.25 1197.75,-997.25 1191.75,-1003.25 1185.75,-1003.25"/>
<text xml:space="preserve" text-anchor="middle" x="1138" y="-989.75" font-family="Helvetica,sans-Serif" font-size="10.00" fill="#ece1d7">XactBuffer</text>
<text xml:space="preserve" text-anchor="middle" x="1138" y="-977" font-family="Helvetica,sans-Serif" font-size="10.00" fill="#ece1d7">per&#45;xid hashmap +</text>
<text xml:space="preserve" text-anchor="middle" x="1138" y="-964.25" font-family="Helvetica,sans-Serif" font-size="10.00" fill="#ece1d7">TOAST reassembly +</text>
<text xml:space="preserve" text-anchor="middle" x="1138" y="-951.5" font-family="Helvetica,sans-Serif" font-size="10.00" fill="#ece1d7">SubxactTracker</text>
<text xml:space="preserve" text-anchor="middle" x="1138" y="-938.75" font-family="Helvetica,sans-Serif" font-size="10.00" fill="#ece1d7">budget = work_mem</text>
</g>
<!-- decoder&#45;&gt;xactbuf -->
<g id="edge15" class="edge">
<title>decoder&#45;&gt;xactbuf</title>
<path fill="none" stroke="#c1a78e" d="M1138.64,-1043.88C1138.56,-1034.53 1138.48,-1024.55 1138.4,-1015.01"/>
<polygon fill="#c1a78e" stroke="#c1a78e" points="1141.9,-1015.15 1138.31,-1005.18 1134.9,-1015.21 1141.9,-1015.15"/>
</g>
<!-- drain -->
<g id="node21" class="node">
<title>drain</title>
<path fill="#4d4128" stroke="#6e6963" d="M1198.88,-890.5C1198.88,-890.5 1077.12,-890.5 1077.12,-890.5 1071.12,-890.5 1065.12,-884.5 1065.12,-878.5 1065.12,-878.5 1065.12,-843.5 1065.12,-843.5 1065.12,-837.5 1071.12,-831.5 1077.12,-831.5 1077.12,-831.5 1198.88,-831.5 1198.88,-831.5 1204.88,-831.5 1210.88,-837.5 1210.88,-843.5 1210.88,-843.5 1210.88,-878.5 1210.88,-878.5 1210.88,-884.5 1204.88,-890.5 1198.88,-890.5"/>
<text xml:space="preserve" text-anchor="middle" x="1138" y="-877" font-family="Helvetica,sans-Serif" font-size="10.00" fill="#ece1d7">XactRecordSink</text>
<text xml:space="preserve" text-anchor="middle" x="1138" y="-864.25" font-family="Helvetica,sans-Serif" font-size="10.00" fill="#ece1d7">commit drain</text>
<text xml:space="preserve" text-anchor="middle" x="1138" y="-851.5" font-family="Helvetica,sans-Serif" font-size="10.00" fill="#ece1d7">(spilled first, mem second,</text>
<text xml:space="preserve" text-anchor="middle" x="1138" y="-838.75" font-family="Helvetica,sans-Serif" font-size="10.00" fill="#ece1d7"> WAL&#45;order replay)</text>
</g>
<!-- xactbuf&#45;&gt;drain -->
<g id="edge16" class="edge">
<title>xactbuf&#45;&gt;drain</title>
<path fill="none" stroke="#c1a78e" d="M1138,-931.04C1138,-921.7 1138,-911.56 1138,-902"/>
<polygon fill="#c1a78e" stroke="#c1a78e" points="1141.5,-902.23 1138,-892.23 1134.5,-902.23 1141.5,-902.23"/>
</g>
<!-- spill -->
<g id="node35" class="node">
<title>spill</title>
<polygon fill="#4d3850" stroke="#6e6963" points="910,-759 762,-759 762,-712.75 916,-712.75 916,-753 910,-759"/>
<polyline fill="none" stroke="#6e6963" points="910,-759 910,-753"/>
<polyline fill="none" stroke="#6e6963" points="916,-753 910,-753"/>
<text xml:space="preserve" text-anchor="middle" x="839" y="-745.5" font-family="Helvetica,sans-Serif" font-size="10.00" fill="#ece1d7">{spill}/xid&#45;&lt;xid&gt;&#45;&lt;lsn&gt;.bin</text>
<text xml:space="preserve" text-anchor="middle" x="839" y="-732.75" font-family="Helvetica,sans-Serif" font-size="10.00" fill="#ece1d7">append&#45;only</text>
<text xml:space="preserve" text-anchor="middle" x="839" y="-720" font-family="Helvetica,sans-Serif" font-size="10.00" fill="#ece1d7">[tag u8 | len u32 | body]</text>
</g>
<!-- xactbuf&#45;&gt;spill -->
<g id="edge39" class="edge">
<title>xactbuf&#45;&gt;spill</title>
<path fill="none" stroke="#c1a78e" stroke-dasharray="5,2" d="M1077.77,-946.33C1044.38,-933.49 1003.22,-914.68 971,-890.5 924.92,-855.93 883.76,-802.69 860.09,-768.83"/>
<polygon fill="#c1a78e" stroke="#c1a78e" points="863.02,-766.91 854.47,-760.66 857.25,-770.88 863.02,-766.91"/>
<text xml:space="preserve" text-anchor="middle" x="1010" y="-858.08" font-family="Helvetica,sans-Serif" font-size="9.00" fill="#ece1d7">evict largest xact</text>
</g>
<!-- tableenc -->
<g id="node22" class="node">
<title>tableenc</title>
<path fill="#5d4628" stroke="#6e6963" d="M1209.75,-759C1209.75,-759 1126.25,-759 1126.25,-759 1120.25,-759 1114.25,-753 1114.25,-747 1114.25,-747 1114.25,-724.75 1114.25,-724.75 1114.25,-718.75 1120.25,-712.75 1126.25,-712.75 1126.25,-712.75 1209.75,-712.75 1209.75,-712.75 1215.75,-712.75 1221.75,-718.75 1221.75,-724.75 1221.75,-724.75 1221.75,-747 1221.75,-747 1221.75,-753 1215.75,-759 1209.75,-759"/>
<text xml:space="preserve" text-anchor="middle" x="1168" y="-745.5" font-family="Helvetica,sans-Serif" font-size="10.00" fill="#ece1d7">TableEncoder</text>
<text xml:space="preserve" text-anchor="middle" x="1168" y="-732.75" font-family="Helvetica,sans-Serif" font-size="10.00" fill="#ece1d7">per (table, INSERT)</text>
<text xml:space="preserve" text-anchor="middle" x="1168" y="-720" font-family="Helvetica,sans-Serif" font-size="10.00" fill="#ece1d7">row/byte budget</text>
</g>
<!-- drain&#45;&gt;tableenc -->
<g id="edge20" class="edge">
<title>drain&#45;&gt;tableenc</title>
<path fill="none" stroke="#bf8c5f" stroke-width="2" d="M1145.03,-831.13C1149.35,-813.43 1154.9,-790.65 1159.46,-771.92"/>
<polygon fill="#bf8c5f" stroke="#bf8c5f" stroke-width="2" points="1162.82,-772.9 1161.79,-762.36 1156.02,-771.24 1162.82,-772.9"/>
</g>
<!-- cursor -->
<g id="node36" class="node">
<title>cursor</title>
<polygon fill="#4d3850" stroke="#6e6963" points="1068.12,-759 947.88,-759 947.88,-712.75 1074.12,-712.75 1074.12,-753 1068.12,-759"/>
<polyline fill="none" stroke="#6e6963" points="1068.12,-759 1068.12,-753"/>
<polyline fill="none" stroke="#6e6963" points="1074.12,-753 1068.12,-753"/>
<text xml:space="preserve" text-anchor="middle" x="1011" y="-745.5" font-family="Helvetica,sans-Serif" font-size="10.00" fill="#ece1d7">{spill}/cursor.bin</text>
<text xml:space="preserve" text-anchor="middle" x="1011" y="-732.75" font-family="Helvetica,sans-Serif" font-size="10.00" fill="#ece1d7">56B atomic rename</text>
<text xml:space="preserve" text-anchor="middle" x="1011" y="-720" font-family="Helvetica,sans-Serif" font-size="10.00" fill="#ece1d7">5 LSN fields + CRC32C</text>
</g>
<!-- drain&#45;&gt;cursor -->
<g id="edge40" class="edge">
<title>drain&#45;&gt;cursor</title>
<path fill="none" stroke="#b380b0" stroke-dasharray="1,5" d="M1108.22,-831.13C1088.47,-811.98 1062.57,-786.87 1042.47,-767.39"/>
<polygon fill="#b380b0" stroke="#b380b0" points="1044.95,-764.92 1035.34,-760.47 1040.08,-769.94 1044.95,-764.92"/>
<text xml:space="preserve" text-anchor="middle" x="1112.13" y="-802.95" font-family="Helvetica,sans-Serif" font-size="9.00" fill="#ece1d7">LSN bundle</text>
</g>
<!-- block -->
<g id="node23" class="node">
<title>block</title>
<path fill="#5d4628" stroke="#6e6963" d="M1243.5,-671.75C1243.5,-671.75 1110.5,-671.75 1110.5,-671.75 1104.5,-671.75 1098.5,-665.75 1098.5,-659.75 1098.5,-659.75 1098.5,-637.5 1098.5,-637.5 1098.5,-631.5 1104.5,-625.5 1110.5,-625.5 1110.5,-625.5 1243.5,-625.5 1243.5,-625.5 1249.5,-625.5 1255.5,-631.5 1255.5,-637.5 1255.5,-637.5 1255.5,-659.75 1255.5,-659.75 1255.5,-665.75 1249.5,-671.75 1243.5,-671.75"/>
<text xml:space="preserve" text-anchor="middle" x="1177" y="-658.25" font-family="Helvetica,sans-Serif" font-size="10.00" fill="#ece1d7">BlockBuilder</text>
<text xml:space="preserve" text-anchor="middle" x="1177" y="-645.5" font-family="Helvetica,sans-Serif" font-size="10.00" fill="#ece1d7">Native columns +</text>
<text xml:space="preserve" text-anchor="middle" x="1177" y="-632.75" font-family="Helvetica,sans-Serif" font-size="10.00" fill="#ece1d7">_lsn / _xid / _op / _commit_ts</text>
</g>
<!-- tableenc&#45;&gt;block -->
<g id="edge18" class="edge">
<title>tableenc&#45;&gt;block</title>
<path fill="none" stroke="#c1a78e" d="M1170.36,-712.48C1171.3,-703.64 1172.39,-693.29 1173.42,-683.57"/>
<polygon fill="#c1a78e" stroke="#c1a78e" points="1176.89,-683.99 1174.46,-673.68 1169.93,-683.25 1176.89,-683.99"/>
</g>
<!-- chwire -->
<g id="node24" class="node">
<title>chwire</title>
<path fill="#5d4628" stroke="#6e6963" d="M1245.62,-584.5C1245.62,-584.5 1110.38,-584.5 1110.38,-584.5 1104.38,-584.5 1098.38,-578.5 1098.38,-572.5 1098.38,-572.5 1098.38,-524.75 1098.38,-524.75 1098.38,-518.75 1104.38,-512.75 1110.38,-512.75 1110.38,-512.75 1245.62,-512.75 1245.62,-512.75 1251.62,-512.75 1257.62,-518.75 1257.62,-524.75 1257.62,-524.75 1257.62,-572.5 1257.62,-572.5 1257.62,-578.5 1251.62,-584.5 1245.62,-584.5"/>
<text xml:space="preserve" text-anchor="middle" x="1178" y="-571" font-family="Helvetica,sans-Serif" font-size="10.00" fill="#ece1d7">clickhouse&#45;c&#45;rs</text>
<text xml:space="preserve" text-anchor="middle" x="1178" y="-558.25" font-family="Helvetica,sans-Serif" font-size="10.00" fill="#ece1d7">send_query (once per table)</text>
<text xml:space="preserve" text-anchor="middle" x="1178" y="-545.5" font-family="Helvetica,sans-Serif" font-size="10.00" fill="#ece1d7">send_data(Some) per block</text>
<text xml:space="preserve" text-anchor="middle" x="1178" y="-532.75" font-family="Helvetica,sans-Serif" font-size="10.00" fill="#ece1d7">send_data(None) on deadline</text>
<text xml:space="preserve" text-anchor="middle" x="1178" y="-520" font-family="Helvetica,sans-Serif" font-size="10.00" fill="#ece1d7">flush_timeout cap</text>
</g>
<!-- block&#45;&gt;chwire -->
<g id="edge19" class="edge">
<title>block&#45;&gt;chwire</title>
<path fill="none" stroke="#c1a78e" d="M1177.23,-625.39C1177.32,-616.69 1177.42,-606.37 1177.52,-596.19"/>
<polygon fill="#c1a78e" stroke="#c1a78e" points="1181.02,-596.39 1177.63,-586.36 1174.02,-596.32 1181.02,-596.39"/>
</g>
<!-- chwire&#45;&gt;ch -->
<g id="edge41" class="edge">
<title>chwire&#45;&gt;ch</title>
<path fill="none" stroke="#bf8c5f" stroke-width="2" d="M1178,-512.51C1178,-503.48 1178,-493.84 1178,-485.07"/>
<polygon fill="#bf8c5f" stroke="#bf8c5f" stroke-width="2" points="1181.5,-485.25 1178,-475.25 1174.5,-485.25 1181.5,-485.25"/>
</g>
<!-- libpq -->
<g id="node26" class="node">
<title>libpq</title>
<path fill="#4d4d28" stroke="#6e6963" d="M1175.62,-2274.56C1175.62,-2274.56 1076.38,-2274.56 1076.38,-2274.56 1070.38,-2274.56 1064.38,-2268.56 1064.38,-2262.56 1064.38,-2262.56 1064.38,-2240.31 1064.38,-2240.31 1064.38,-2234.31 1070.38,-2228.31 1076.38,-2228.31 1076.38,-2228.31 1175.62,-2228.31 1175.62,-2228.31 1181.62,-2228.31 1187.62,-2234.31 1187.62,-2240.31 1187.62,-2240.31 1187.62,-2262.56 1187.62,-2262.56 1187.62,-2268.56 1181.62,-2274.56 1175.62,-2274.56"/>
<text xml:space="preserve" text-anchor="middle" x="1126" y="-2261.06" font-family="Helvetica,sans-Serif" font-size="10.00" fill="#ece1d7">tokio_postgres::Client</text>
<text xml:space="preserve" text-anchor="middle" x="1126" y="-2248.31" font-family="Helvetica,sans-Serif" font-size="10.00" fill="#ece1d7">SELECT pg_class /</text>
<text xml:space="preserve" text-anchor="middle" x="1126" y="-2235.56" font-family="Helvetica,sans-Serif" font-size="10.00" fill="#ece1d7">pg_attribute / pg_type</text>
</g>
<!-- lru&#45;&gt;libpq -->
<g id="edge21" class="edge">
<title>lru&#45;&gt;libpq</title>
<path fill="none" stroke="#c1a78e" stroke-dasharray="5,2" d="M971.77,-2354.92C994.28,-2341.61 1023.03,-2324.21 1048,-2307.81 1060.49,-2299.61 1073.83,-2290.34 1085.89,-2281.76"/>
<polygon fill="#c1a78e" stroke="#c1a78e" points="1087.92,-2284.61 1094.01,-2275.94 1083.84,-2278.92 1087.92,-2284.61"/>
<text xml:space="preserve" text-anchor="middle" x="1042.77" y="-2320.39" font-family="Helvetica,sans-Serif" font-size="9.00" fill="#ece1d7">miss</text>
</g>
<!-- evtx -->
<g id="node28" class="node">
<title>evtx</title>
<path fill="#4d4d28" stroke="#6e6963" d="M1020.22,-2297.69C1020.22,-2297.69 798.89,-2297.69 798.89,-2297.69 792.89,-2297.69 783.51,-2292.73 780.13,-2287.77 780.13,-2287.77 730.55,-2215.1 730.55,-2215.1 727.16,-2210.14 729.78,-2205.19 735.78,-2205.19 735.78,-2205.19 957.11,-2205.19 957.11,-2205.19 963.11,-2205.19 972.49,-2210.14 975.87,-2215.1 975.87,-2215.1 1025.45,-2287.77 1025.45,-2287.77 1028.84,-2292.73 1026.22,-2297.69 1020.22,-2297.69"/>
<text xml:space="preserve" text-anchor="middle" x="878" y="-2261.06" font-family="Helvetica,sans-Serif" font-size="10.00" fill="#ece1d7">schema_event_tx</text>
<text xml:space="preserve" text-anchor="middle" x="878" y="-2248.31" font-family="Helvetica,sans-Serif" font-size="10.00" fill="#ece1d7">Added / Changed / Dropped</text>
<text xml:space="preserve" text-anchor="middle" x="878" y="-2235.56" font-family="Helvetica,sans-Serif" font-size="10.00" fill="#ece1d7">(unbounded mpsc)</text>
</g>
<!-- lru&#45;&gt;evtx -->
<g id="edge23" class="edge">
<title>lru&#45;&gt;evtx</title>
<path fill="none" stroke="#cba85e" stroke-dasharray="5,2" d="M923.17,-2355.09C917.41,-2342.01 909.86,-2324.85 902.59,-2308.32"/>
<polygon fill="#cba85e" stroke="#cba85e" points="905.95,-2307.28 898.72,-2299.53 899.55,-2310.1 905.95,-2307.28"/>
<text xml:space="preserve" text-anchor="middle" x="935.93" y="-2320.39" font-family="Helvetica,sans-Serif" font-size="9.00" fill="#ece1d7">diff vs prior</text>
</g>
<!-- libpq&#45;&gt;shd -->
<g id="edge36" class="edge">
<title>libpq&#45;&gt;shd</title>
<path fill="none" stroke="#cba85e" d="M1157.83,-2220.95C1169.6,-2211.73 1183.61,-2202.57 1198,-2197.19 1280.47,-2166.34 1533.24,-2230.61 1593,-2165.94 1621.31,-2135.29 1622.25,-2101.81 1593,-2072.06 1565.54,-2044.13 917.32,-2086.04 888,-2060.06 825.11,-2004.35 867.79,-1956.63 862,-1872.81 858.43,-1821.1 863.12,-1677.28 902,-1643 914.02,-1632.4 1034.99,-1646.64 1046,-1635 1084.41,-1594.4 1082.51,-1551.57 1046,-1509.25 984.07,-1437.47 929.17,-1488.89 835,-1478 728.67,-1465.71 701.58,-1467.82 595,-1458 466.17,-1446.13 316.68,-1430.69 227.08,-1421.27"/>
<polygon fill="#cba85e" stroke="#cba85e" points="1150.23,-2227.18 1155.11,-2217.36 1153.15,-2224.78 1157.96,-2220.84 1157.96,-2220.84 1157.96,-2220.84 1153.15,-2224.78 1160.81,-2224.32 1150.23,-2227.18"/>
<polygon fill="#cba85e" stroke="#cba85e" points="227.47,-1417.79 217.16,-1420.22 226.74,-1424.75 227.47,-1417.79"/>
<text xml:space="preserve" text-anchor="middle" x="892" y="-1864.26" font-family="Helvetica,sans-Serif" font-size="9.00" fill="#ece1d7">libpq SELECT</text>
</g>
<!-- inval&#45;&gt;lru -->
<g id="edge22" class="edge">
<title>inval&#45;&gt;lru</title>
<path fill="none" stroke="#cba85e" stroke-dasharray="5,2" d="M933,-2469.82C933,-2452.71 933,-2430.95 933,-2413.07"/>
<polygon fill="#cba85e" stroke="#cba85e" points="936.5,-2413.21 933,-2403.21 929.5,-2413.21 936.5,-2413.21"/>
</g>
<!-- evtx&#45;&gt;xactbuf -->
<g id="edge29" class="edge">
<title>evtx&#45;&gt;xactbuf</title>
<path fill="none" stroke="#cba85e" stroke-dasharray="5,2" d="M976.3,-2215.14C999.54,-2208.06 1024.42,-2201.48 1048,-2197.19 1108.11,-2186.24 1555.04,-2210.35 1597,-2165.94 1625.65,-2135.61 1605.16,-2112.98 1597,-2072.06 1529.43,-1733.14 1353.32,-1689.48 1320,-1345.5 1308.6,-1227.82 1501.04,-1346.69 1568,-1249.25 1593.3,-1212.44 1592.73,-1185.94 1568,-1148.75 1487.72,-1028.02 1309.31,-987.93 1209.36,-974.74"/>
<polygon fill="#cba85e" stroke="#cba85e" points="1210.03,-971.3 1199.67,-973.52 1209.15,-978.24 1210.03,-971.3"/>
<text xml:space="preserve" text-anchor="middle" x="1443.14" y="-1645.7" font-family="Helvetica,sans-Serif" font-size="9.00" fill="#ece1d7">stamp on xid</text>
</g>
<!-- ddlapp -->
<g id="node30" class="node">
<title>ddlapp</title>
<path fill="#5d4628" stroke="#6e6963" d="M1330.88,-2139.06C1330.88,-2139.06 1227.12,-2139.06 1227.12,-2139.06 1221.12,-2139.06 1215.12,-2133.06 1215.12,-2127.06 1215.12,-2127.06 1215.12,-2092.06 1215.12,-2092.06 1215.12,-2086.06 1221.12,-2080.06 1227.12,-2080.06 1227.12,-2080.06 1330.88,-2080.06 1330.88,-2080.06 1336.88,-2080.06 1342.88,-2086.06 1342.88,-2092.06 1342.88,-2092.06 1342.88,-2127.06 1342.88,-2127.06 1342.88,-2133.06 1336.88,-2139.06 1330.88,-2139.06"/>
<text xml:space="preserve" text-anchor="middle" x="1279" y="-2125.56" font-family="Helvetica,sans-Serif" font-size="10.00" fill="#ece1d7">DdlApplicator</text>
<text xml:space="preserve" text-anchor="middle" x="1279" y="-2112.81" font-family="Helvetica,sans-Serif" font-size="10.00" fill="#ece1d7">(ch_ddl.rs)</text>
<text xml:space="preserve" text-anchor="middle" x="1279" y="-2100.06" font-family="Helvetica,sans-Serif" font-size="10.00" fill="#ece1d7">CREATE / ADD COL /</text>
<text xml:space="preserve" text-anchor="middle" x="1279" y="-2087.31" font-family="Helvetica,sans-Serif" font-size="10.00" fill="#ece1d7">RENAME / DROP TABLE</text>
</g>
<!-- evtx&#45;&gt;ddlapp -->
<g id="edge25" class="edge">
<title>evtx&#45;&gt;ddlapp</title>
<path fill="none" stroke="#cba85e" stroke-dasharray="5,2" d="M926.47,-2204.74C940.93,-2193.18 957.44,-2181.82 974.25,-2173.94 1047.76,-2139.48 1139.94,-2123.64 1203.57,-2116.43"/>
<polygon fill="#cba85e" stroke="#cba85e" points="1203.64,-2119.95 1213.2,-2115.39 1202.88,-2112.99 1203.64,-2119.95"/>
<text xml:space="preserve" text-anchor="middle" x="1010.62" y="-2176.64" font-family="Helvetica,sans-Serif" font-size="9.00" fill="#ece1d7">drain at commit</text>
</g>
<!-- bridge -->
<g id="node29" class="node">
<title>bridge</title>
<path fill="#5d4628" stroke="#6e6963" d="M1330.62,-2274.56C1330.62,-2274.56 1231.38,-2274.56 1231.38,-2274.56 1225.38,-2274.56 1219.38,-2268.56 1219.38,-2262.56 1219.38,-2262.56 1219.38,-2240.31 1219.38,-2240.31 1219.38,-2234.31 1225.38,-2228.31 1231.38,-2228.31 1231.38,-2228.31 1330.62,-2228.31 1330.62,-2228.31 1336.62,-2228.31 1342.62,-2234.31 1342.62,-2240.31 1342.62,-2240.31 1342.62,-2262.56 1342.62,-2262.56 1342.62,-2268.56 1336.62,-2274.56 1330.62,-2274.56"/>
<text xml:space="preserve" text-anchor="middle" x="1281" y="-2261.06" font-family="Helvetica,sans-Serif" font-size="10.00" fill="#ece1d7">type_bridge</text>
<text xml:space="preserve" text-anchor="middle" x="1281" y="-2248.31" font-family="Helvetica,sans-Serif" font-size="10.00" fill="#ece1d7">RelAttr → CH type</text>
<text xml:space="preserve" text-anchor="middle" x="1281" y="-2235.56" font-family="Helvetica,sans-Serif" font-size="10.00" fill="#ece1d7">(reject widen for now)</text>
</g>
<!-- bridge&#45;&gt;ddlapp -->
<g id="edge24" class="edge">
<title>bridge&#45;&gt;ddlapp</title>
<path fill="none" stroke="#c1a78e" stroke-dasharray="5,2" d="M1280.68,-2227.96C1280.38,-2207.23 1279.94,-2175.96 1279.58,-2150.9"/>
<polygon fill="#c1a78e" stroke="#c1a78e" points="1283.08,-2151 1279.44,-2141.05 1276.08,-2151.1 1283.08,-2151"/>
</g>
<!-- ddlapp&#45;&gt;chwire -->
<g id="edge26" class="edge">
<title>ddlapp&#45;&gt;chwire</title>
<path fill="none" stroke="#bf8c5f" stroke-dasharray="5,2" d="M1214.74,-2109.17C1134.09,-2108.06 992.55,-2099.84 879,-2060.06 862.24,-2054.19 853.65,-2054.57 845,-2039.06 826.53,-2005.94 767.17,-1848.46 857,-1666.25 864.15,-1651.74 869.9,-1648.79 885,-1643 906.29,-1634.84 1070.59,-1646.95 1090,-1635 1166.56,-1587.84 1151.17,-1540.03 1188,-1458 1222.69,-1380.74 1184.85,-1330.81 1251.25,-1278.25 1346.14,-1203.14 1432.2,-1330.38 1522,-1249.25 1555.54,-1218.95 1543,-1194.95 1543,-1149.75 1543,-1149.75 1543,-1149.75 1543,-910.5 1543,-756.19 1376,-645.52 1267.92,-590.06"/>
<polygon fill="#bf8c5f" stroke="#bf8c5f" points="1269.5,-586.94 1259,-585.55 1266.34,-593.18 1269.5,-586.94"/>
<text xml:space="preserve" text-anchor="middle" x="1281.62" y="-1309.7" font-family="Helvetica,sans-Serif" font-size="9.00" fill="#ece1d7">DDL SQL</text>
<text xml:space="preserve" text-anchor="middle" x="1281.62" y="-1298.45" font-family="Helvetica,sans-Serif" font-size="9.00" fill="#ece1d7">(off hot path,</text>
<text xml:space="preserve" text-anchor="middle" x="1281.62" y="-1287.2" font-family="Helvetica,sans-Serif" font-size="9.00" fill="#ece1d7"> own CH TCP)</text>
</g>
<!-- listener -->
<g id="node31" class="node">
<title>listener</title>
<path fill="#5d3f40" stroke="#6e6963" d="M120.25,-1726.88C120.25,-1726.88 27.75,-1726.88 27.75,-1726.88 21.75,-1726.88 15.75,-1720.88 15.75,-1714.88 15.75,-1714.88 15.75,-1692.62 15.75,-1692.62 15.75,-1686.62 21.75,-1680.62 27.75,-1680.62 27.75,-1680.62 120.25,-1680.62 120.25,-1680.62 126.25,-1680.62 132.25,-1686.62 132.25,-1692.62 132.25,-1692.62 132.25,-1714.88 132.25,-1714.88 132.25,-1720.88 126.25,-1726.88 120.25,-1726.88"/>
<text xml:space="preserve" text-anchor="middle" x="74" y="-1713.38" font-family="Helvetica,sans-Serif" font-size="10.00" fill="#ece1d7">accept(unix / TCP)</text>
<text xml:space="preserve" text-anchor="middle" x="74" y="-1700.62" font-family="Helvetica,sans-Serif" font-size="10.00" fill="#ece1d7">IDENTIFY_SYSTEM +</text>
<text xml:space="preserve" text-anchor="middle" x="74" y="-1687.88" font-family="Helvetica,sans-Serif" font-size="10.00" fill="#ece1d7">START_REPLICATION</text>
</g>
<!-- listener&#45;&gt;sendq -->
<g id="edge30" class="edge">
<title>listener&#45;&gt;sendq</title>
<path fill="none" stroke="#c1a78e" stroke-dasharray="5,2" d="M85.25,-1680.22C97.45,-1655.78 117.03,-1616.55 130.87,-1588.82"/>
<polygon fill="#c1a78e" stroke="#c1a78e" points="133.85,-1590.68 135.18,-1580.17 127.59,-1587.56 133.85,-1590.68"/>
</g>
<!-- sendq&#45;&gt;shd -->
<g id="edge34" class="edge">
<title>sendq&#45;&gt;shd</title>
<path fill="none" stroke="#bd8183" stroke-width="2" d="M147,-1532.04C147,-1511.86 147,-1481.64 147,-1456.67"/>
<polygon fill="#bd8183" stroke="#bd8183" stroke-width="2" points="150.5,-1456.83 147,-1446.83 143.5,-1456.83 150.5,-1456.83"/>
<text xml:space="preserve" text-anchor="middle" x="177.38" y="-1480.7" font-family="Helvetica,sans-Serif" font-size="9.00" fill="#ece1d7">hot wire (ms)</text>
</g>
<!-- stat&#45;&gt;catgate -->
<g id="edge32" class="edge">
<title>stat&#45;&gt;catgate</title>
<path fill="none" stroke="#bd8183" stroke-dasharray="5,2" d="M269.27,-1673.83C276.05,-1670.79 283.07,-1668.12 290,-1666.25 352.05,-1649.48 514.79,-1657.15 579,-1654.25 681.24,-1649.63 706.74,-1647.23 809,-1643 822.16,-1642.46 1036.57,-1644.2 1046,-1635 1138.57,-1544.69 1029.71,-1469.48 1063,-1344.5 1074.68,-1300.65 1100.55,-1255.02 1119.31,-1225.64"/>
<polygon fill="#bd8183" stroke="#bd8183" points="1122.02,-1227.88 1124.54,-1217.59 1116.15,-1224.07 1122.02,-1227.88"/>
<text xml:space="preserve" text-anchor="middle" x="1122.3" y="-1408.83" font-family="Helvetica,sans-Serif" font-size="9.00" fill="#ece1d7">apply_lsn → unblock gate</text>
</g>
<!-- outdir&#45;&gt;shd -->
<g id="edge38" class="edge">
<title>outdir&#45;&gt;shd</title>
<path fill="none" stroke="#6e6963" stroke-dasharray="5,2" d="M701.48,-759.47C712.89,-771.62 728.64,-785.46 746,-792.25 763.13,-798.95 1064.15,-787.09 1077,-800.25 1080.49,-803.83 1079.78,-807.34 1077,-811.5 1069.25,-823.1 1057.68,-813.45 1048,-823.5 975.43,-898.86 984.71,-941.27 966.25,-1044.25 959.62,-1081.22 951.3,-1094.3 966.25,-1128.75 976.12,-1151.5 997.13,-1144.12 1007,-1166.88 1021.57,-1200.46 1031.95,-1222.46 1007,-1249.25 976.02,-1282.51 643.73,-1270.2 599,-1278.25 465.73,-1302.23 315.75,-1350.63 226.44,-1381.82"/>
<polygon fill="#6e6963" stroke="#6e6963" points="225.29,-1378.51 217.01,-1385.13 227.61,-1385.12 225.29,-1378.51"/>
<text xml:space="preserve" text-anchor="middle" x="1007.12" y="-1083.58" font-family="Helvetica,sans-Serif" font-size="9.00" fill="#ece1d7">restore_command</text>
</g>
</g>
</svg>
