<?xml version="1.0" encoding="UTF-8" standalone="no"?>
<!DOCTYPE svg PUBLIC "-//W3C//DTD SVG 1.1//EN"
 "http://www.w3.org/Graphics/SVG/1.1/DTD/svg11.dtd">
<!-- Generated by graphviz version 2.42.4 (0)
 -->
<!-- Title: internals Pages: 1 -->
<svg width="3181pt" height="2642pt"
 viewBox="0.00 0.00 3180.51 2641.94" xmlns="http://www.w3.org/2000/svg" xmlns:xlink="http://www.w3.org/1999/xlink">
<g id="graph0" class="graph" transform="scale(1 1) rotate(0) translate(4 2637.94)">
<title>internals</title>
<polygon fill="#272623" stroke="transparent" points="-4,4 -4,-2637.94 3176.51,-2637.94 3176.51,4 -4,4"/>
<text text-anchor="middle" x="1586.25" y="-2618.74" font-family="Helvetica,sans-Serif" font-size="14.00" fill="#ece1d7">walshadow internals — pipeline stages, taps &amp; caches</text>
<g id="clust1" class="cluster">
<title>cluster_ingress</title>
<path fill="#34302c" stroke="#4c4641" d="M2091.51,-2308.94C2091.51,-2308.94 2389.51,-2308.94 2389.51,-2308.94 2395.51,-2308.94 2401.51,-2314.94 2401.51,-2320.94 2401.51,-2320.94 2401.51,-2533.94 2401.51,-2533.94 2401.51,-2539.94 2395.51,-2545.94 2389.51,-2545.94 2389.51,-2545.94 2091.51,-2545.94 2091.51,-2545.94 2085.51,-2545.94 2079.51,-2539.94 2079.51,-2533.94 2079.51,-2533.94 2079.51,-2320.94 2079.51,-2320.94 2079.51,-2314.94 2085.51,-2308.94 2091.51,-2308.94"/>
<text text-anchor="middle" x="2240.51" y="-2530.74" font-family="Helvetica,sans-Serif" font-size="14.00" fill="#ece1d7">① ingress (main loop, tokio)</text>
</g>
<g id="clust2" class="cluster">
<title>cluster_filter</title>
<path fill="#34302c" stroke="#4c4641" d="M2093.51,-1927.69C2093.51,-1927.69 2397.51,-1927.69 2397.51,-1927.69 2403.51,-1927.69 2409.51,-1933.69 2409.51,-1939.69 2409.51,-1939.69 2409.51,-2275.94 2409.51,-2275.94 2409.51,-2281.94 2403.51,-2287.94 2397.51,-2287.94 2397.51,-2287.94 2093.51,-2287.94 2093.51,-2287.94 2087.51,-2287.94 2081.51,-2281.94 2081.51,-2275.94 2081.51,-2275.94 2081.51,-1939.69 2081.51,-1939.69 2081.51,-1933.69 2087.51,-1927.69 2093.51,-1927.69"/>
<text text-anchor="middle" x="2245.51" y="-2272.74" font-family="Helvetica,sans-Serif" font-size="14.00" fill="#ece1d7">② filter pipeline (sync, record cadence)</text>
</g>
<g id="clust3" class="cluster">
<title>cluster_fanout</title>
<path fill="#34302c" stroke="#4c4641" d="M1799.51,-1792.69C1799.51,-1792.69 2285.51,-1792.69 2285.51,-1792.69 2291.51,-1792.69 2297.51,-1798.69 2297.51,-1804.69 2297.51,-1804.69 2297.51,-1894.69 2297.51,-1894.69 2297.51,-1900.69 2291.51,-1906.69 2285.51,-1906.69 2285.51,-1906.69 1799.51,-1906.69 1799.51,-1906.69 1793.51,-1906.69 1787.51,-1900.69 1787.51,-1894.69 1787.51,-1894.69 1787.51,-1804.69 1787.51,-1804.69 1787.51,-1798.69 1793.51,-1792.69 1799.51,-1792.69"/>
<text text-anchor="middle" x="2042.51" y="-1891.49" font-family="Helvetica,sans-Serif" font-size="14.00" fill="#ece1d7">③ CompositeRecordSink fan&#45;out (pump task, sync — ordering matters)</text>
</g>
<g id="clust4" class="cluster">
<title>cluster_queue</title>
<path fill="#34302c" stroke="#4c4641" d="M866.51,-1301.19C866.51,-1301.19 1243.51,-1301.19 1243.51,-1301.19 1249.51,-1301.19 1255.51,-1307.19 1255.51,-1313.19 1255.51,-1313.19 1255.51,-1759.69 1255.51,-1759.69 1255.51,-1765.69 1249.51,-1771.69 1243.51,-1771.69 1243.51,-1771.69 866.51,-1771.69 866.51,-1771.69 860.51,-1771.69 854.51,-1765.69 854.51,-1759.69 854.51,-1759.69 854.51,-1313.19 854.51,-1313.19 854.51,-1307.19 860.51,-1301.19 866.51,-1301.19"/>
<text text-anchor="middle" x="1055.01" y="-1756.49" font-family="Helvetica,sans-Serif" font-size="14.00" fill="#ece1d7">④ QueueingRecordSink — pump ↔ decoder decoupling</text>
</g>
<g id="clust5" class="cluster">
<title>cluster_decode</title>
<path fill="#34302c" stroke="#4c4641" d="M1275.51,-975.69C1275.51,-975.69 1713.51,-975.69 1713.51,-975.69 1719.51,-975.69 1725.51,-981.69 1725.51,-987.69 1725.51,-987.69 1725.51,-1389.69 1725.51,-1389.69 1725.51,-1395.69 1719.51,-1401.69 1713.51,-1401.69 1713.51,-1401.69 1275.51,-1401.69 1275.51,-1401.69 1269.51,-1401.69 1263.51,-1395.69 1263.51,-1389.69 1263.51,-1389.69 1263.51,-987.69 1263.51,-987.69 1263.51,-981.69 1269.51,-975.69 1275.51,-975.69"/>
<text text-anchor="middle" x="1494.51" y="-1386.49" font-family="Helvetica,sans-Serif" font-size="14.00" fill="#ece1d7">⑤ decode + xact buffer (worker task — gated on shadow apply)</text>
</g>
<g id="clust6" class="cluster">
<title>cluster_ch</title>
<path fill="#34302c" stroke="#4c4641" d="M669.51,-13.5C669.51,-13.5 1136.51,-13.5 1136.51,-13.5 1142.51,-13.5 1148.51,-19.5 1148.51,-25.5 1148.51,-25.5 1148.51,-933.69 1148.51,-933.69 1148.51,-939.69 1142.51,-945.69 1136.51,-945.69 1136.51,-945.69 669.51,-945.69 669.51,-945.69 663.51,-945.69 657.51,-939.69 657.51,-933.69 657.51,-933.69 657.51,-25.5 657.51,-25.5 657.51,-19.5 663.51,-13.5 669.51,-13.5"/>
<text text-anchor="middle" x="903.01" y="-930.49" font-family="Helvetica,sans-Serif" font-size="14.00" fill="#ece1d7">⑥ CH pipeline tail — decode ×M → batcher → inserter ×N (pipeline/)</text>
</g>
<g id="clust7" class="cluster">
<title>cluster_catalog</title>
<path fill="#34302c" stroke="#4c4641" d="M2410.51,-273.69C2410.51,-273.69 2866.51,-273.69 2866.51,-273.69 2872.51,-273.69 2878.51,-279.69 2878.51,-285.69 2878.51,-285.69 2878.51,-789.69 2878.51,-789.69 2878.51,-795.69 2872.51,-801.69 2866.51,-801.69 2866.51,-801.69 2410.51,-801.69 2410.51,-801.69 2404.51,-801.69 2398.51,-795.69 2398.51,-789.69 2398.51,-789.69 2398.51,-285.69 2398.51,-285.69 2398.51,-279.69 2404.51,-273.69 2410.51,-273.69"/>
<text text-anchor="middle" x="2638.51" y="-786.49" font-family="Helvetica,sans-Serif" font-size="14.00" fill="#ece1d7">⑦ ShadowCatalog cache + SchemaEvent channel</text>
</g>
<g id="clust8" class="cluster">
<title>cluster_ddl</title>
<path fill="#34302c" stroke="#4c4641" d="M2901.51,-8C2901.51,-8 3152.51,-8 3152.51,-8 3158.51,-8 3164.51,-14 3164.51,-20 3164.51,-20 3164.51,-385.19 3164.51,-385.19 3164.51,-391.19 3158.51,-397.19 3152.51,-397.19 3152.51,-397.19 2901.51,-397.19 2901.51,-397.19 2895.51,-397.19 2889.51,-391.19 2889.51,-385.19 2889.51,-385.19 2889.51,-20 2889.51,-20 2889.51,-14 2895.51,-8 2901.51,-8"/>
<text text-anchor="middle" x="3027.01" y="-381.99" font-family="Helvetica,sans-Serif" font-size="14.00" fill="#ece1d7">⑦b DDL applicator (separate CH TCP)</text>
</g>
<g id="clust9" class="cluster">
<title>cluster_walsender</title>
<path fill="#34302c" stroke="#4c4641" d="M1917.51,-294.19C1917.51,-294.19 2174.51,-294.19 2174.51,-294.19 2180.51,-294.19 2186.51,-300.19 2186.51,-306.19 2186.51,-306.19 2186.51,-654.69 2186.51,-654.69 2186.51,-660.69 2180.51,-666.69 2174.51,-666.69 2174.51,-666.69 1917.51,-666.69 1917.51,-666.69 1911.51,-666.69 1905.51,-660.69 1905.51,-654.69 1905.51,-654.69 1905.51,-306.19 1905.51,-306.19 1905.51,-300.19 1911.51,-294.19 1917.51,-294.19"/>
<text text-anchor="middle" x="2046.01" y="-651.49" font-family="Helvetica,sans-Serif" font-size="14.00" fill="#ece1d7">⑧ walsender server &#160;(tokio task)</text>
</g>
<g id="clust10" class="cluster">
<title>cluster_disk</title>
<path fill="#34302c" stroke="#4c4641" d="M1471.51,-837.19C1471.51,-837.19 2101.51,-837.19 2101.51,-837.19 2107.51,-837.19 2113.51,-843.19 2113.51,-849.19 2113.51,-849.19 2113.51,-928.19 2113.51,-928.19 2113.51,-934.19 2107.51,-940.19 2101.51,-940.19 2101.51,-940.19 1471.51,-940.19 1471.51,-940.19 1465.51,-940.19 1459.51,-934.19 1459.51,-928.19 1459.51,-928.19 1459.51,-849.19 1459.51,-849.19 1459.51,-843.19 1465.51,-837.19 1471.51,-837.19"/>
<text text-anchor="middle" x="1786.51" y="-924.99" font-family="Helvetica,sans-Serif" font-size="14.00" fill="#ece1d7">⑨ on&#45;disk caches</text>
</g>
<!-- src -->
<g id="node1" class="node">
<title>src</title>
<path fill="#3d3d54" stroke="#6e6963" d="M2273.01,-2607.66C2273.01,-2609.47 2258.44,-2610.94 2240.51,-2610.94 2222.58,-2610.94 2208.01,-2609.47 2208.01,-2607.66 2208.01,-2607.66 2208.01,-2578.21 2208.01,-2578.21 2208.01,-2576.4 2222.58,-2574.94 2240.51,-2574.94 2258.44,-2574.94 2273.01,-2576.4 2273.01,-2578.21 2273.01,-2578.21 2273.01,-2607.66 2273.01,-2607.66"/>
<path fill="none" stroke="#6e6963" d="M2273.01,-2607.66C2273.01,-2605.86 2258.44,-2604.39 2240.51,-2604.39 2222.58,-2604.39 2208.01,-2605.86 2208.01,-2607.66"/>
<text text-anchor="middle" x="2240.51" y="-2590.44" font-family="Helvetica,sans-Serif" font-size="10.00" fill="#ece1d7">source PG</text>
</g>
<!-- feed -->
<g id="node4" class="node">
<title>feed</title>
<path fill="#3d3d54" stroke="#6e6963" d="M2311.51,-2491.94C2311.51,-2491.94 2169.51,-2491.94 2169.51,-2491.94 2163.51,-2491.94 2157.51,-2485.94 2157.51,-2479.94 2157.51,-2479.94 2157.51,-2451.94 2157.51,-2451.94 2157.51,-2445.94 2163.51,-2439.94 2169.51,-2439.94 2169.51,-2439.94 2311.51,-2439.94 2311.51,-2439.94 2317.51,-2439.94 2323.51,-2445.94 2323.51,-2451.94 2323.51,-2451.94 2323.51,-2479.94 2323.51,-2479.94 2323.51,-2485.94 2317.51,-2491.94 2311.51,-2491.94"/>
<text text-anchor="middle" x="2240.51" y="-2479.94" font-family="Helvetica,sans-Serif" font-size="10.00" fill="#ece1d7">SourceFeed::pump</text>
<text text-anchor="middle" x="2240.51" y="-2468.94" font-family="Helvetica,sans-Serif" font-size="10.00" fill="#ece1d7">wal&#45;rus ReplicationConn</text>
<text text-anchor="middle" x="2240.51" y="-2457.94" font-family="Helvetica,sans-Serif" font-size="10.00" fill="#ece1d7">IDENTIFY_SYSTEM +</text>
<text text-anchor="middle" x="2240.51" y="-2446.94" font-family="Helvetica,sans-Serif" font-size="10.00" fill="#ece1d7">START_REPLICATION PHYSICAL</text>
</g>
<!-- src&#45;&gt;feed -->
<g id="edge36" class="edge">
<title>src&#45;&gt;feed</title>
<path fill="none" stroke="#a1a9cc" stroke-width="2" d="M2240.51,-2574.82C2240.51,-2556.18 2240.51,-2525.86 2240.51,-2502.1"/>
<polygon fill="#a1a9cc" stroke="#a1a9cc" stroke-width="2" points="2244.01,-2502.05 2240.51,-2492.05 2237.01,-2502.05 2244.01,-2502.05"/>
</g>
<!-- shd -->
<g id="node2" class="node">
<title>shd</title>
<path fill="#3d4128" stroke="#6e6963" d="M2377.01,-65.22C2377.01,-68.06 2346.31,-70.38 2308.51,-70.38 2270.71,-70.38 2240.01,-68.06 2240.01,-65.22 2240.01,-65.22 2240.01,-18.78 2240.01,-18.78 2240.01,-15.94 2270.71,-13.62 2308.51,-13.62 2346.31,-13.62 2377.01,-15.94 2377.01,-18.78 2377.01,-18.78 2377.01,-65.22 2377.01,-65.22"/>
<path fill="none" stroke="#6e6963" d="M2377.01,-65.22C2377.01,-62.37 2346.31,-60.06 2308.51,-60.06 2270.71,-60.06 2240.01,-62.37 2240.01,-65.22"/>
<text text-anchor="middle" x="2308.51" y="-50.5" font-family="Helvetica,sans-Serif" font-size="10.00" fill="#ece1d7">shadow PG</text>
<text text-anchor="middle" x="2308.51" y="-39.5" font-family="Helvetica,sans-Serif" font-size="10.00" fill="#ece1d7">walreceiver + catalog</text>
<text text-anchor="middle" x="2308.51" y="-28.5" font-family="Helvetica,sans-Serif" font-size="10.00" fill="#ece1d7">(pg_last_wal_replay_lsn)</text>
</g>
<!-- stat -->
<g id="node35" class="node">
<title>stat</title>
<path fill="#5d3f40" stroke="#6e6963" d="M2017.01,-612.69C2017.01,-612.69 1926.01,-612.69 1926.01,-612.69 1920.01,-612.69 1914.01,-606.69 1914.01,-600.69 1914.01,-600.69 1914.01,-572.69 1914.01,-572.69 1914.01,-566.69 1920.01,-560.69 1926.01,-560.69 1926.01,-560.69 2017.01,-560.69 2017.01,-560.69 2023.01,-560.69 2029.01,-566.69 2029.01,-572.69 2029.01,-572.69 2029.01,-600.69 2029.01,-600.69 2029.01,-606.69 2023.01,-612.69 2017.01,-612.69"/>
<text text-anchor="middle" x="1971.51" y="-600.69" font-family="Helvetica,sans-Serif" font-size="10.00" fill="#ece1d7">rx &#39;r&#39; standby status</text>
<text text-anchor="middle" x="1971.51" y="-589.69" font-family="Helvetica,sans-Serif" font-size="10.00" fill="#ece1d7">flush_lsn / apply_lsn</text>
<text text-anchor="middle" x="1971.51" y="-578.69" font-family="Helvetica,sans-Serif" font-size="10.00" fill="#ece1d7">(min across conns,</text>
<text text-anchor="middle" x="1971.51" y="-567.69" font-family="Helvetica,sans-Serif" font-size="10.00" fill="#ece1d7"> apply&#45;lag metric)</text>
</g>
<!-- shd&#45;&gt;stat -->
<g id="edge38" class="edge">
<title>shd&#45;&gt;stat</title>
<path fill="none" stroke="#bd8183" stroke-dasharray="5,2" d="M2239.95,-44.4C1968.25,-50.05 966.64,-71.69 649.51,-90.19 523.46,-97.54 168.78,-47.06 83.51,-140.19 -26.04,-259.84 -29.36,-388.67 83.51,-505.19 144.3,-567.95 1568.31,-549.6 1655.51,-555.19 1741.4,-560.69 1840.07,-570.83 1903.98,-577.9"/>
<polygon fill="#bd8183" stroke="#bd8183" points="1903.61,-581.38 1913.94,-579.01 1904.39,-574.42 1903.61,-581.38"/>
</g>
<!-- ch -->
<g id="node3" class="node">
<title>ch</title>
<path fill="#4d4128" stroke="#6e6963" d="M470.01,-56.73C470.01,-58.53 454.1,-60 434.51,-60 414.92,-60 399.01,-58.53 399.01,-56.73 399.01,-56.73 399.01,-27.27 399.01,-27.27 399.01,-25.47 414.92,-24 434.51,-24 454.1,-24 470.01,-25.47 470.01,-27.27 470.01,-27.27 470.01,-56.73 470.01,-56.73"/>
<path fill="none" stroke="#6e6963" d="M470.01,-56.73C470.01,-54.92 454.1,-53.45 434.51,-53.45 414.92,-53.45 399.01,-54.92 399.01,-56.73"/>
<text text-anchor="middle" x="434.51" y="-39.5" font-family="Helvetica,sans-Serif" font-size="10.00" fill="#ece1d7">ClickHouse</text>
</g>
<!-- legend -->
<g id="node40" class="node">
<title>legend</title>
<path fill="#6e6963" stroke="transparent" d="M373.01,-505.19C373.01,-505.19 112.01,-505.19 112.01,-505.19 106.01,-505.19 100.01,-499.19 100.01,-493.19 100.01,-493.19 100.01,-152.19 100.01,-152.19 100.01,-146.19 106.01,-140.19 112.01,-140.19 112.01,-140.19 373.01,-140.19 373.01,-140.19 379.01,-140.19 385.01,-146.19 385.01,-152.19 385.01,-152.19 385.01,-493.19 385.01,-493.19 385.01,-499.19 379.01,-505.19 373.01,-505.19"/>
<polygon fill="#34302c" stroke="transparent" points="108.51,-479.69 108.51,-500.69 377.51,-500.69 377.51,-479.69 108.51,-479.69"/>
<polygon fill="none" stroke="#6e6963" points="108.51,-479.69 108.51,-500.69 377.51,-500.69 377.51,-479.69 108.51,-479.69"/>
<text text-anchor="start" x="199.51" y="-488.69" font-family="Helvetica,sans-Serif" font-weight="bold" font-size="10.00" fill="#ece1d7">node fill — role</text>
<polygon fill="#3d3d54" stroke="transparent" points="108.51,-458.69 108.51,-479.69 136.51,-479.69 136.51,-458.69 108.51,-458.69"/>
<polygon fill="none" stroke="#6e6963" points="108.51,-458.69 108.51,-479.69 136.51,-479.69 136.51,-458.69 108.51,-458.69"/>
<polygon fill="none" stroke="#6e6963" points="136.51,-458.69 136.51,-479.69 377.51,-479.69 377.51,-458.69 136.51,-458.69"/>
<text text-anchor="start" x="210.01" y="-466.69" font-family="Helvetica,sans-Serif" font-size="10.00" fill="#ece1d7">source PG / ingress</text>
<polygon fill="#4d3a28" stroke="transparent" points="108.51,-437.69 108.51,-458.69 136.51,-458.69 136.51,-437.69 108.51,-437.69"/>
<polygon fill="none" stroke="#6e6963" points="108.51,-437.69 108.51,-458.69 136.51,-458.69 136.51,-437.69 108.51,-437.69"/>
<polygon fill="none" stroke="#6e6963" points="136.51,-437.69 136.51,-458.69 377.51,-458.69 377.51,-437.69 136.51,-437.69"/>
<text text-anchor="start" x="180.51" y="-445.69" font-family="Helvetica,sans-Serif" font-size="10.00" fill="#ece1d7">walshadow filter / queue (sync)</text>
<polygon fill="#4d3340" stroke="transparent" points="108.51,-416.69 108.51,-437.69 136.51,-437.69 136.51,-416.69 108.51,-416.69"/>
<polygon fill="none" stroke="#6e6963" points="108.51,-416.69 108.51,-437.69 136.51,-437.69 136.51,-416.69 108.51,-416.69"/>
<polygon fill="none" stroke="#6e6963" points="136.51,-416.69 136.51,-437.69 377.51,-437.69 377.51,-416.69 136.51,-416.69"/>
<text text-anchor="start" x="143.01" y="-424.69" font-family="Helvetica,sans-Serif" font-size="10.00" fill="#ece1d7">walshadow output sinks (walsender, segment)</text>
<polygon fill="#4d4128" stroke="transparent" points="108.51,-395.69 108.51,-416.69 136.51,-416.69 136.51,-395.69 108.51,-395.69"/>
<polygon fill="none" stroke="#6e6963" points="108.51,-395.69 108.51,-416.69 136.51,-416.69 136.51,-395.69 108.51,-395.69"/>
<polygon fill="none" stroke="#6e6963" points="136.51,-395.69 136.51,-416.69 377.51,-416.69 377.51,-395.69 136.51,-395.69"/>
<text text-anchor="start" x="175.01" y="-403.69" font-family="Helvetica,sans-Serif" font-size="10.00" fill="#ece1d7">walshadow decoder + xact buffer</text>
<polygon fill="#4d4d28" stroke="transparent" points="108.51,-374.69 108.51,-395.69 136.51,-395.69 136.51,-374.69 108.51,-374.69"/>
<polygon fill="none" stroke="#6e6963" points="108.51,-374.69 108.51,-395.69 136.51,-395.69 136.51,-374.69 108.51,-374.69"/>
<polygon fill="none" stroke="#6e6963" points="136.51,-374.69 136.51,-395.69 377.51,-395.69 377.51,-374.69 136.51,-374.69"/>
<text text-anchor="start" x="141.51" y="-382.69" font-family="Helvetica,sans-Serif" font-size="10.00" fill="#ece1d7">walshadow ShadowCatalog + schema&#45;event tx</text>
<polygon fill="#5d3f40" stroke="transparent" points="108.51,-353.69 108.51,-374.69 136.51,-374.69 136.51,-353.69 108.51,-353.69"/>
<polygon fill="none" stroke="#6e6963" points="108.51,-353.69 108.51,-374.69 136.51,-374.69 136.51,-353.69 108.51,-353.69"/>
<polygon fill="none" stroke="#6e6963" points="136.51,-353.69 136.51,-374.69 377.51,-374.69 377.51,-353.69 136.51,-353.69"/>
<text text-anchor="start" x="186.01" y="-361.69" font-family="Helvetica,sans-Serif" font-size="10.00" fill="#ece1d7">walshadow walsender server</text>
<polygon fill="#5d4628" stroke="transparent" points="108.51,-332.69 108.51,-353.69 136.51,-353.69 136.51,-332.69 108.51,-332.69"/>
<polygon fill="none" stroke="#6e6963" points="108.51,-332.69 108.51,-353.69 136.51,-353.69 136.51,-332.69 108.51,-332.69"/>
<polygon fill="none" stroke="#6e6963" points="136.51,-332.69 136.51,-353.69 377.51,-353.69 377.51,-332.69 136.51,-332.69"/>
<text text-anchor="start" x="150.01" y="-340.69" font-family="Helvetica,sans-Serif" font-size="10.00" fill="#ece1d7">walshadow CH pipeline tail + DdlApplicator</text>
<polygon fill="#4d3850" stroke="transparent" points="108.51,-311.69 108.51,-332.69 136.51,-332.69 136.51,-311.69 108.51,-311.69"/>
<polygon fill="none" stroke="#6e6963" points="108.51,-311.69 108.51,-332.69 136.51,-332.69 136.51,-311.69 108.51,-311.69"/>
<polygon fill="none" stroke="#6e6963" points="136.51,-311.69 136.51,-332.69 377.51,-332.69 377.51,-311.69 136.51,-311.69"/>
<text text-anchor="start" x="219.51" y="-319.69" font-family="Helvetica,sans-Serif" font-size="10.00" fill="#ece1d7">on&#45;disk artifact</text>
<polygon fill="#3d4128" stroke="transparent" points="108.51,-290.69 108.51,-311.69 136.51,-311.69 136.51,-290.69 108.51,-290.69"/>
<polygon fill="none" stroke="#6e6963" points="108.51,-290.69 108.51,-311.69 136.51,-311.69 136.51,-290.69 108.51,-290.69"/>
<polygon fill="none" stroke="#6e6963" points="136.51,-290.69 136.51,-311.69 377.51,-311.69 377.51,-290.69 136.51,-290.69"/>
<text text-anchor="start" x="215.51" y="-298.69" font-family="Helvetica,sans-Serif" font-size="10.00" fill="#ece1d7">shadow Postgres</text>
<polygon fill="#34302c" stroke="transparent" points="108.51,-269.69 108.51,-290.69 377.51,-290.69 377.51,-269.69 108.51,-269.69"/>
<polygon fill="none" stroke="#6e6963" points="108.51,-269.69 108.51,-290.69 377.51,-290.69 377.51,-269.69 108.51,-269.69"/>
<text text-anchor="start" x="209.01" y="-278.69" font-family="Helvetica,sans-Serif" font-weight="bold" font-size="10.00" fill="#ece1d7">edge colour</text>
<polygon fill="none" stroke="#6e6963" points="108.51,-248.69 108.51,-269.69 136.51,-269.69 136.51,-248.69 108.51,-248.69"/>
<text text-anchor="start" x="116.01" y="-257.69" font-family="Helvetica,sans-Serif" font-weight="bold" font-size="10.00" fill="#a1a9cc">━━</text>
<polygon fill="none" stroke="#6e6963" points="136.51,-248.69 136.51,-269.69 377.51,-269.69 377.51,-248.69 136.51,-248.69"/>
<text text-anchor="start" x="197.01" y="-256.69" font-family="Helvetica,sans-Serif" font-size="10.00" fill="#ece1d7">source replication frame</text>
<polygon fill="none" stroke="#6e6963" points="108.51,-227.69 108.51,-248.69 136.51,-248.69 136.51,-227.69 108.51,-227.69"/>
<text text-anchor="start" x="116.01" y="-236.69" font-family="Helvetica,sans-Serif" font-weight="bold" font-size="10.00" fill="#bd8183">━━</text>
<polygon fill="none" stroke="#6e6963" points="136.51,-227.69 136.51,-248.69 377.51,-248.69 377.51,-227.69 136.51,-227.69"/>
<text text-anchor="start" x="194.01" y="-235.69" font-family="Helvetica,sans-Serif" font-size="10.00" fill="#ece1d7">walsender wire (hot path)</text>
<polygon fill="none" stroke="#6e6963" points="108.51,-206.69 108.51,-227.69 136.51,-227.69 136.51,-206.69 108.51,-206.69"/>
<text text-anchor="start" x="116.01" y="-215.69" font-family="Helvetica,sans-Serif" font-weight="bold" font-size="10.00" fill="#cba85e">━━</text>
<polygon fill="none" stroke="#6e6963" points="136.51,-206.69 136.51,-227.69 377.51,-227.69 377.51,-206.69 136.51,-206.69"/>
<text text-anchor="start" x="171.01" y="-214.69" font-family="Helvetica,sans-Serif" font-size="10.00" fill="#ece1d7">libpq catalog query / schema event</text>
<polygon fill="none" stroke="#6e6963" points="108.51,-185.69 108.51,-206.69 136.51,-206.69 136.51,-185.69 108.51,-185.69"/>
<text text-anchor="start" x="116.01" y="-194.69" font-family="Helvetica,sans-Serif" font-weight="bold" font-size="10.00" fill="#bf8c5f">━━</text>
<polygon fill="none" stroke="#6e6963" points="136.51,-185.69 136.51,-206.69 377.51,-206.69 377.51,-185.69 136.51,-185.69"/>
<text text-anchor="start" x="187.01" y="-193.69" font-family="Helvetica,sans-Serif" font-size="10.00" fill="#ece1d7">CH Native (rows + DDL SQL)</text>
<polygon fill="none" stroke="#6e6963" points="108.51,-164.69 108.51,-185.69 136.51,-185.69 136.51,-164.69 108.51,-164.69"/>
<text text-anchor="start" x="116.51" y="-173.69" font-family="Helvetica,sans-Serif" font-weight="bold" font-size="10.00" fill="#b380b0">···</text>
<polygon fill="none" stroke="#6e6963" points="136.51,-164.69 136.51,-185.69 377.51,-185.69 377.51,-164.69 136.51,-164.69"/>
<text text-anchor="start" x="217.01" y="-172.69" font-family="Helvetica,sans-Serif" font-size="10.00" fill="#ece1d7">cursor durability</text>
<polygon fill="none" stroke="#6e6963" points="108.51,-143.69 108.51,-164.69 136.51,-164.69 136.51,-143.69 108.51,-143.69"/>
<text text-anchor="start" x="116.01" y="-152.69" font-family="Helvetica,sans-Serif" font-weight="bold" font-size="10.00" fill="#6e6963">┄┄</text>
<polygon fill="none" stroke="#6e6963" points="136.51,-143.69 136.51,-164.69 377.51,-164.69 377.51,-143.69 136.51,-143.69"/>
<text text-anchor="start" x="181.51" y="-151.69" font-family="Helvetica,sans-Serif" font-size="10.00" fill="#ece1d7">filesystem (restore_command)</text>
</g>
<!-- ch&#45;&gt;legend -->
<!-- chunks -->
<g id="node5" class="node">
<title>chunks</title>
<path fill="#3d3d54" stroke="#6e6963" d="M2381.89,-2398.94C2381.89,-2398.94 2161.9,-2398.94 2161.9,-2398.94 2155.9,-2398.94 2146.25,-2394.17 2142.6,-2389.41 2142.6,-2389.41 2094.42,-2326.47 2094.42,-2326.47 2090.78,-2321.7 2093.13,-2316.94 2099.13,-2316.94 2099.13,-2316.94 2319.12,-2316.94 2319.12,-2316.94 2325.12,-2316.94 2334.77,-2321.7 2338.42,-2326.47 2338.42,-2326.47 2386.59,-2389.41 2386.59,-2389.41 2390.24,-2394.17 2387.89,-2398.94 2381.89,-2398.94"/>
<text text-anchor="middle" x="2240.51" y="-2366.44" font-family="Helvetica,sans-Serif" font-size="10.00" fill="#ece1d7">WalChunk stream</text>
<text text-anchor="middle" x="2240.51" y="-2355.44" font-family="Helvetica,sans-Serif" font-size="10.00" fill="#ece1d7">(start_lsn, server_wal_end,</text>
<text text-anchor="middle" x="2240.51" y="-2344.44" font-family="Helvetica,sans-Serif" font-size="10.00" fill="#ece1d7"> bytes)</text>
</g>
<!-- feed&#45;&gt;chunks -->
<g id="edge1" class="edge">
<title>feed&#45;&gt;chunks</title>
<path fill="none" stroke="#c1a78e" d="M2240.51,-2439.82C2240.51,-2430.63 2240.51,-2419.88 2240.51,-2409.28"/>
<polygon fill="#c1a78e" stroke="#c1a78e" points="2244.01,-2409.21 2240.51,-2399.21 2237.01,-2409.21 2244.01,-2409.21"/>
</g>
<!-- walker -->
<g id="node6" class="node">
<title>walker</title>
<path fill="#4d3a28" stroke="#6e6963" d="M2300.51,-2233.94C2300.51,-2233.94 2180.51,-2233.94 2180.51,-2233.94 2174.51,-2233.94 2168.51,-2227.94 2168.51,-2221.94 2168.51,-2221.94 2168.51,-2204.94 2168.51,-2204.94 2168.51,-2198.94 2174.51,-2192.94 2180.51,-2192.94 2180.51,-2192.94 2300.51,-2192.94 2300.51,-2192.94 2306.51,-2192.94 2312.51,-2198.94 2312.51,-2204.94 2312.51,-2204.94 2312.51,-2221.94 2312.51,-2221.94 2312.51,-2227.94 2306.51,-2233.94 2300.51,-2233.94"/>
<text text-anchor="middle" x="2240.51" y="-2221.94" font-family="Helvetica,sans-Serif" font-size="10.00" fill="#ece1d7">StreamingWalker</text>
<text text-anchor="middle" x="2240.51" y="-2210.94" font-family="Helvetica,sans-Serif" font-size="10.00" fill="#ece1d7">page&#45;state machine</text>
<text text-anchor="middle" x="2240.51" y="-2199.94" font-family="Helvetica,sans-Serif" font-size="10.00" fill="#ece1d7">record stitch across pages</text>
</g>
<!-- chunks&#45;&gt;walker -->
<g id="edge6" class="edge">
<title>chunks&#45;&gt;walker</title>
<path fill="none" stroke="#a1a9cc" stroke-width="2" d="M2240.51,-2316.86C2240.51,-2293.87 2240.51,-2265.48 2240.51,-2244.43"/>
<polygon fill="#a1a9cc" stroke="#a1a9cc" stroke-width="2" points="2244.01,-2244.15 2240.51,-2234.15 2237.01,-2244.15 2244.01,-2244.15"/>
</g>
<!-- decide -->
<g id="node8" class="node">
<title>decide</title>
<path fill="#4d3a28" stroke="#6e6963" d="M2277.01,-2151.94C2277.01,-2151.94 2204.01,-2151.94 2204.01,-2151.94 2198.01,-2151.94 2192.01,-2145.94 2192.01,-2139.94 2192.01,-2139.94 2192.01,-2111.94 2192.01,-2111.94 2192.01,-2105.94 2198.01,-2099.94 2204.01,-2099.94 2204.01,-2099.94 2277.01,-2099.94 2277.01,-2099.94 2283.01,-2099.94 2289.01,-2105.94 2289.01,-2111.94 2289.01,-2111.94 2289.01,-2139.94 2289.01,-2139.94 2289.01,-2145.94 2283.01,-2151.94 2277.01,-2151.94"/>
<text text-anchor="middle" x="2240.51" y="-2139.94" font-family="Helvetica,sans-Serif" font-size="10.00" fill="#ece1d7">Filter::decide</text>
<text text-anchor="middle" x="2240.51" y="-2128.94" font-family="Helvetica,sans-Serif" font-size="10.00" fill="#ece1d7">Keep catalog</text>
<text text-anchor="middle" x="2240.51" y="-2117.94" font-family="Helvetica,sans-Serif" font-size="10.00" fill="#ece1d7">Drop user&#45;heap</text>
<text text-anchor="middle" x="2240.51" y="-2106.94" font-family="Helvetica,sans-Serif" font-size="10.00" fill="#ece1d7">Empty → reclass</text>
</g>
<!-- walker&#45;&gt;decide -->
<g id="edge2" class="edge">
<title>walker&#45;&gt;decide</title>
<path fill="none" stroke="#c1a78e" d="M2240.51,-2192.61C2240.51,-2183.58 2240.51,-2172.62 2240.51,-2162.25"/>
<polygon fill="#c1a78e" stroke="#c1a78e" points="2244.01,-2162.19 2240.51,-2152.19 2237.01,-2162.19 2244.01,-2162.19"/>
</g>
<!-- track -->
<g id="node7" class="node">
<title>track</title>
<path fill="#4d3a28" stroke="#6e6963" d="M2389.51,-2058.94C2389.51,-2058.94 2265.51,-2058.94 2265.51,-2058.94 2259.51,-2058.94 2253.51,-2052.94 2253.51,-2046.94 2253.51,-2046.94 2253.51,-2029.94 2253.51,-2029.94 2253.51,-2023.94 2259.51,-2017.94 2265.51,-2017.94 2265.51,-2017.94 2389.51,-2017.94 2389.51,-2017.94 2395.51,-2017.94 2401.51,-2023.94 2401.51,-2029.94 2401.51,-2029.94 2401.51,-2046.94 2401.51,-2046.94 2401.51,-2052.94 2395.51,-2058.94 2389.51,-2058.94"/>
<text text-anchor="middle" x="2327.51" y="-2046.94" font-family="Helvetica,sans-Serif" font-size="10.00" fill="#ece1d7">CatalogTracker</text>
<text text-anchor="middle" x="2327.51" y="-2035.94" font-family="Helvetica,sans-Serif" font-size="10.00" fill="#ece1d7">relfilenode set</text>
<text text-anchor="middle" x="2327.51" y="-2024.94" font-family="Helvetica,sans-Serif" font-size="10.00" fill="#ece1d7">(relmap + pg_class writes)</text>
</g>
<!-- inval -->
<g id="node29" class="node">
<title>inval</title>
<path fill="#4d4d28" stroke="#6e6963" d="M2510.51,-747.69C2510.51,-747.69 2430.51,-747.69 2430.51,-747.69 2424.51,-747.69 2418.51,-741.69 2418.51,-735.69 2418.51,-735.69 2418.51,-707.69 2418.51,-707.69 2418.51,-701.69 2424.51,-695.69 2430.51,-695.69 2430.51,-695.69 2510.51,-695.69 2510.51,-695.69 2516.51,-695.69 2522.51,-701.69 2522.51,-707.69 2522.51,-707.69 2522.51,-735.69 2522.51,-735.69 2522.51,-741.69 2516.51,-747.69 2510.51,-747.69"/>
<text text-anchor="middle" x="2470.51" y="-735.69" font-family="Helvetica,sans-Serif" font-size="10.00" fill="#ece1d7">invalidation_drain</text>
<text text-anchor="middle" x="2470.51" y="-724.69" font-family="Helvetica,sans-Serif" font-size="10.00" fill="#ece1d7">(tokio task)</text>
<text text-anchor="middle" x="2470.51" y="-713.69" font-family="Helvetica,sans-Serif" font-size="10.00" fill="#ece1d7">bump generation</text>
<text text-anchor="middle" x="2470.51" y="-702.69" font-family="Helvetica,sans-Serif" font-size="10.00" fill="#ece1d7">on catalog write</text>
</g>
<!-- track&#45;&gt;inval -->
<g id="edge31" class="edge">
<title>track&#45;&gt;inval</title>
<path fill="none" stroke="#cba85e" stroke-dasharray="5,2" d="M2361.94,-2017.9C2381.65,-2003.91 2402.51,-1983.04 2402.51,-1957.31 2402.51,-1957.31 2402.51,-1957.31 2402.51,-864.69 2402.51,-824.61 2424.82,-783.86 2443.88,-756.35"/>
<polygon fill="#cba85e" stroke="#cba85e" points="2446.95,-758.07 2449.92,-747.9 2441.26,-754 2446.95,-758.07"/>
</g>
<!-- decide&#45;&gt;track -->
<g id="edge5" class="edge">
<title>decide&#45;&gt;track</title>
<path fill="none" stroke="#c1a78e" stroke-dasharray="5,2" d="M2273.5,-2092.52C2282.37,-2083.8 2291.87,-2074.46 2300.39,-2066.09"/>
<polygon fill="#c1a78e" stroke="#c1a78e" points="2266.14,-2099.75 2270.12,-2089.53 2269.71,-2096.24 2273.27,-2092.74 2273.27,-2092.74 2273.27,-2092.74 2269.71,-2096.24 2276.43,-2095.95 2266.14,-2099.75 2266.14,-2099.75"/>
<polygon fill="#c1a78e" stroke="#c1a78e" points="2302.9,-2068.53 2307.58,-2059.03 2297.99,-2063.54 2302.9,-2068.53"/>
</g>
<!-- rewrite -->
<g id="node9" class="node">
<title>rewrite</title>
<path fill="#4d3a28" stroke="#6e6963" d="M2209.01,-2058.94C2209.01,-2058.94 2102.01,-2058.94 2102.01,-2058.94 2096.01,-2058.94 2090.01,-2052.94 2090.01,-2046.94 2090.01,-2046.94 2090.01,-2029.94 2090.01,-2029.94 2090.01,-2023.94 2096.01,-2017.94 2102.01,-2017.94 2102.01,-2017.94 2209.01,-2017.94 2209.01,-2017.94 2215.01,-2017.94 2221.01,-2023.94 2221.01,-2029.94 2221.01,-2029.94 2221.01,-2046.94 2221.01,-2046.94 2221.01,-2052.94 2215.01,-2058.94 2209.01,-2058.94"/>
<text text-anchor="middle" x="2155.51" y="-2046.94" font-family="Helvetica,sans-Serif" font-size="10.00" fill="#ece1d7">rewrite::noop_replace</text>
<text text-anchor="middle" x="2155.51" y="-2035.94" font-family="Helvetica,sans-Serif" font-size="10.00" fill="#ece1d7">in&#45;place at byte_ranges</text>
<text text-anchor="middle" x="2155.51" y="-2024.94" font-family="Helvetica,sans-Serif" font-size="10.00" fill="#ece1d7">+ CRC32C recompute</text>
</g>
<!-- decide&#45;&gt;rewrite -->
<g id="edge3" class="edge">
<title>decide&#45;&gt;rewrite</title>
<path fill="none" stroke="#c1a78e" d="M2215.47,-2099.75C2204.96,-2089.18 2192.74,-2076.88 2182.07,-2066.16"/>
<polygon fill="#c1a78e" stroke="#c1a78e" points="2184.52,-2063.65 2174.98,-2059.03 2179.55,-2068.59 2184.52,-2063.65"/>
</g>
<!-- segbuf -->
<g id="node10" class="node">
<title>segbuf</title>
<path fill="#4d3a28" stroke="#6e6963" d="M2218.51,-1973.29C2218.51,-1975.37 2189.82,-1977.06 2154.51,-1977.06 2119.2,-1977.06 2090.51,-1975.37 2090.51,-1973.29 2090.51,-1973.29 2090.51,-1939.33 2090.51,-1939.33 2090.51,-1937.25 2119.2,-1935.56 2154.51,-1935.56 2189.82,-1935.56 2218.51,-1937.25 2218.51,-1939.33 2218.51,-1939.33 2218.51,-1973.29 2218.51,-1973.29"/>
<path fill="none" stroke="#6e6963" d="M2218.51,-1973.29C2218.51,-1971.21 2189.82,-1969.52 2154.51,-1969.52 2119.2,-1969.52 2090.51,-1971.21 2090.51,-1973.29"/>
<text text-anchor="middle" x="2154.51" y="-1959.31" font-family="Helvetica,sans-Serif" font-size="10.00" fill="#ece1d7">16 MiB segment buffer</text>
<text text-anchor="middle" x="2154.51" y="-1948.31" font-family="Helvetica,sans-Serif" font-size="10.00" fill="#ece1d7">(rewritten image)</text>
</g>
<!-- rewrite&#45;&gt;segbuf -->
<g id="edge4" class="edge">
<title>rewrite&#45;&gt;segbuf</title>
<path fill="none" stroke="#c1a78e" d="M2155.26,-2017.63C2155.15,-2008.48 2155.01,-1997.42 2154.88,-1987.28"/>
<polygon fill="#c1a78e" stroke="#c1a78e" points="2158.38,-1987.12 2154.76,-1977.17 2151.38,-1987.21 2158.38,-1987.12"/>
</g>
<!-- bytesink -->
<g id="node11" class="node">
<title>bytesink</title>
<path fill="#4d3340" stroke="#6e6963" d="M2255.01,-1847.19C2255.01,-1847.19 2156.01,-1847.19 2156.01,-1847.19 2150.01,-1847.19 2144.01,-1841.19 2144.01,-1835.19 2144.01,-1835.19 2144.01,-1818.19 2144.01,-1818.19 2144.01,-1812.19 2150.01,-1806.19 2156.01,-1806.19 2156.01,-1806.19 2255.01,-1806.19 2255.01,-1806.19 2261.01,-1806.19 2267.01,-1812.19 2267.01,-1818.19 2267.01,-1818.19 2267.01,-1835.19 2267.01,-1835.19 2267.01,-1841.19 2261.01,-1847.19 2255.01,-1847.19"/>
<text text-anchor="middle" x="2205.51" y="-1835.19" font-family="Helvetica,sans-Serif" font-size="10.00" fill="#ece1d7">❶ ShadowStreamSink</text>
<text text-anchor="middle" x="2205.51" y="-1824.19" font-family="Helvetica,sans-Serif" font-size="10.00" fill="#ece1d7">on_record_bytes</text>
<text text-anchor="middle" x="2205.51" y="-1813.19" font-family="Helvetica,sans-Serif" font-size="10.00" fill="#ece1d7">(stays on pump)</text>
</g>
<!-- segbuf&#45;&gt;bytesink -->
<g id="edge7" class="edge">
<title>segbuf&#45;&gt;bytesink</title>
<path fill="none" stroke="#bd8183" stroke-width="2" d="M2162.37,-1935.65C2170.77,-1914.63 2184.17,-1881.08 2193.81,-1856.96"/>
<polygon fill="#bd8183" stroke="#bd8183" stroke-width="2" points="2197.1,-1858.17 2197.56,-1847.58 2190.6,-1855.57 2197.1,-1858.17"/>
</g>
<!-- recsink -->
<g id="node12" class="node">
<title>recsink</title>
<path fill="#4d3340" stroke="#6e6963" d="M1927.01,-1852.69C1927.01,-1852.69 1828.01,-1852.69 1828.01,-1852.69 1822.01,-1852.69 1816.01,-1846.69 1816.01,-1840.69 1816.01,-1840.69 1816.01,-1812.69 1816.01,-1812.69 1816.01,-1806.69 1822.01,-1800.69 1828.01,-1800.69 1828.01,-1800.69 1927.01,-1800.69 1927.01,-1800.69 1933.01,-1800.69 1939.01,-1806.69 1939.01,-1812.69 1939.01,-1812.69 1939.01,-1840.69 1939.01,-1840.69 1939.01,-1846.69 1933.01,-1852.69 1927.01,-1852.69"/>
<text text-anchor="middle" x="1877.51" y="-1840.69" font-family="Helvetica,sans-Serif" font-size="10.00" fill="#ece1d7">❷ on_record →</text>
<text text-anchor="middle" x="1877.51" y="-1829.69" font-family="Helvetica,sans-Serif" font-size="10.00" fill="#ece1d7">QueueingRecordSink</text>
<text text-anchor="middle" x="1877.51" y="-1818.69" font-family="Helvetica,sans-Serif" font-size="10.00" fill="#ece1d7">(clones + enqueues,</text>
<text text-anchor="middle" x="1877.51" y="-1807.69" font-family="Helvetica,sans-Serif" font-size="10.00" fill="#ece1d7"> returns immediately)</text>
</g>
<!-- segbuf&#45;&gt;recsink -->
<g id="edge8" class="edge">
<title>segbuf&#45;&gt;recsink</title>
<path fill="none" stroke="#c1a78e" d="M2090.44,-1946.68C2052.47,-1939.7 2004.34,-1927.48 1965.51,-1906.69 1943.38,-1894.84 1922.31,-1876.28 1906.34,-1860.13"/>
<polygon fill="#c1a78e" stroke="#c1a78e" points="1908.84,-1857.68 1899.38,-1852.92 1903.81,-1862.54 1908.84,-1857.68"/>
</g>
<!-- segsink -->
<g id="node13" class="node">
<title>segsink</title>
<path fill="#4d3340" stroke="#6e6963" d="M2088.01,-1847.19C2088.01,-1847.19 1993.01,-1847.19 1993.01,-1847.19 1987.01,-1847.19 1981.01,-1841.19 1981.01,-1835.19 1981.01,-1835.19 1981.01,-1818.19 1981.01,-1818.19 1981.01,-1812.19 1987.01,-1806.19 1993.01,-1806.19 1993.01,-1806.19 2088.01,-1806.19 2088.01,-1806.19 2094.01,-1806.19 2100.01,-1812.19 2100.01,-1818.19 2100.01,-1818.19 2100.01,-1835.19 2100.01,-1835.19 2100.01,-1841.19 2094.01,-1847.19 2088.01,-1847.19"/>
<text text-anchor="middle" x="2040.51" y="-1835.19" font-family="Helvetica,sans-Serif" font-size="10.00" fill="#ece1d7">❸ DirSegmentSink</text>
<text text-anchor="middle" x="2040.51" y="-1824.19" font-family="Helvetica,sans-Serif" font-size="10.00" fill="#ece1d7">on_segment</text>
<text text-anchor="middle" x="2040.51" y="-1813.19" font-family="Helvetica,sans-Serif" font-size="10.00" fill="#ece1d7">(at 16 MiB boundary)</text>
</g>
<!-- segbuf&#45;&gt;segsink -->
<g id="edge9" class="edge">
<title>segbuf&#45;&gt;segsink</title>
<path fill="none" stroke="#c1a78e" stroke-dasharray="5,2" d="M2136.95,-1935.65C2117.67,-1914.07 2086.6,-1879.28 2064.95,-1855.05"/>
<polygon fill="#c1a78e" stroke="#c1a78e" points="2067.55,-1852.71 2058.28,-1847.58 2062.33,-1857.37 2067.55,-1852.71"/>
</g>
<!-- sendq -->
<g id="node34" class="node">
<title>sendq</title>
<path fill="#5d3f40" stroke="#6e6963" d="M2166.51,-343.19C2166.51,-343.19 2062.51,-343.19 2062.51,-343.19 2056.51,-343.19 2050.51,-337.19 2050.51,-331.19 2050.51,-331.19 2050.51,-314.19 2050.51,-314.19 2050.51,-308.19 2056.51,-302.19 2062.51,-302.19 2062.51,-302.19 2166.51,-302.19 2166.51,-302.19 2172.51,-302.19 2178.51,-308.19 2178.51,-314.19 2178.51,-314.19 2178.51,-331.19 2178.51,-331.19 2178.51,-337.19 2172.51,-343.19 2166.51,-343.19"/>
<text text-anchor="middle" x="2114.51" y="-331.19" font-family="Helvetica,sans-Serif" font-size="10.00" fill="#ece1d7">per&#45;conn send queue</text>
<text text-anchor="middle" x="2114.51" y="-320.19" font-family="Helvetica,sans-Serif" font-size="10.00" fill="#ece1d7">&#39;w&#39; XLogData @ record</text>
<text text-anchor="middle" x="2114.51" y="-309.19" font-family="Helvetica,sans-Serif" font-size="10.00" fill="#ece1d7">&#39;k&#39; keepalive on idle</text>
</g>
<!-- bytesink&#45;&gt;sendq -->
<g id="edge34" class="edge">
<title>bytesink&#45;&gt;sendq</title>
<path fill="none" stroke="#bd8183" stroke-width="2" d="M2210.39,-1805.72C2216.87,-1777.42 2227.51,-1723.93 2227.51,-1677.69 2227.51,-1677.69 2227.51,-1677.69 2227.51,-585.69 2227.51,-494.01 2168.45,-397.95 2135.73,-351.77"/>
<polygon fill="#bd8183" stroke="#bd8183" stroke-width="2" points="2138.44,-349.54 2129.75,-343.47 2132.76,-353.63 2138.44,-349.54"/>
</g>
<!-- qbuf -->
<g id="node14" class="node">
<title>qbuf</title>
<path fill="#4d3a28" stroke="#6e6963" d="M1235.14,-1717.69C1235.14,-1717.69 1043.38,-1717.69 1043.38,-1717.69 1037.38,-1717.69 1028.02,-1712.72 1024.66,-1707.75 1024.66,-1707.75 982.61,-1645.63 982.61,-1645.63 979.24,-1640.66 981.88,-1635.69 987.88,-1635.69 987.88,-1635.69 1179.64,-1635.69 1179.64,-1635.69 1185.64,-1635.69 1195,-1640.66 1198.36,-1645.63 1198.36,-1645.63 1240.41,-1707.75 1240.41,-1707.75 1243.78,-1712.72 1241.14,-1717.69 1235.14,-1717.69"/>
<text text-anchor="middle" x="1111.51" y="-1685.19" font-family="Helvetica,sans-Serif" font-size="10.00" fill="#ece1d7">pump&#45;side batch</text>
<text text-anchor="middle" x="1111.51" y="-1674.19" font-family="Helvetica,sans-Serif" font-size="10.00" fill="#ece1d7">Vec&lt;Record&lt;&#39;static&gt;&gt;</text>
<text text-anchor="middle" x="1111.51" y="-1663.19" font-family="Helvetica,sans-Serif" font-size="10.00" fill="#ece1d7">batch_size = 64</text>
</g>
<!-- recsink&#45;&gt;qbuf -->
<g id="edge13" class="edge">
<title>recsink&#45;&gt;qbuf</title>
<path fill="none" stroke="#c1a78e" d="M1815.8,-1813.76C1697.23,-1790.86 1434.4,-1740.07 1265.49,-1707.44"/>
<polygon fill="#c1a78e" stroke="#c1a78e" points="1265.99,-1703.97 1255.51,-1705.51 1264.66,-1710.84 1265.99,-1703.97"/>
</g>
<!-- outdir -->
<g id="node36" class="node">
<title>outdir</title>
<polygon fill="#4d3850" stroke="#6e6963" points="2099.01,-886.19 2010.01,-886.19 2010.01,-845.19 2105.01,-845.19 2105.01,-880.19 2099.01,-886.19"/>
<polyline fill="none" stroke="#6e6963" points="2099.01,-886.19 2099.01,-880.19 "/>
<polyline fill="none" stroke="#6e6963" points="2105.01,-880.19 2099.01,-880.19 "/>
<text text-anchor="middle" x="2057.51" y="-874.19" font-family="Helvetica,sans-Serif" font-size="10.00" fill="#ece1d7">out/&lt;seg&gt;</text>
<text text-anchor="middle" x="2057.51" y="-863.19" font-family="Helvetica,sans-Serif" font-size="10.00" fill="#ece1d7">16 MiB filtered</text>
<text text-anchor="middle" x="2057.51" y="-852.19" font-family="Helvetica,sans-Serif" font-size="10.00" fill="#ece1d7">+ manifest.json</text>
</g>
<!-- segsink&#45;&gt;outdir -->
<g id="edge40" class="edge">
<title>segsink&#45;&gt;outdir</title>
<path fill="none" stroke="#c1a78e" d="M2038.12,-1806.09C2034.89,-1777.79 2029.51,-1723.81 2029.51,-1677.69 2029.51,-1677.69 2029.51,-1677.69 2029.51,-1014.19 2029.51,-972.69 2040.34,-925.75 2048.53,-896.19"/>
<polygon fill="#c1a78e" stroke="#c1a78e" points="2051.92,-897.08 2051.3,-886.5 2045.19,-895.16 2051.92,-897.08"/>
</g>
<!-- qchan -->
<g id="node15" class="node">
<title>qchan</title>
<path fill="#4d3a28" stroke="#6e6963" d="M1233.2,-1594.69C1233.2,-1594.69 1050.89,-1594.69 1050.89,-1594.69 1044.89,-1594.69 1035.63,-1589.65 1032.37,-1584.61 1032.37,-1584.61 992.34,-1522.76 992.34,-1522.76 989.08,-1517.72 991.82,-1512.69 997.82,-1512.69 997.82,-1512.69 1180.13,-1512.69 1180.13,-1512.69 1186.13,-1512.69 1195.39,-1517.72 1198.65,-1522.76 1198.65,-1522.76 1238.68,-1584.61 1238.68,-1584.61 1241.94,-1589.65 1239.2,-1594.69 1233.2,-1594.69"/>
<text text-anchor="middle" x="1115.51" y="-1562.19" font-family="Helvetica,sans-Serif" font-size="10.00" fill="#ece1d7">unbounded mpsc</text>
<text text-anchor="middle" x="1115.51" y="-1551.19" font-family="Helvetica,sans-Serif" font-size="10.00" fill="#ece1d7">Vec&lt;Record&gt; batches</text>
<text text-anchor="middle" x="1115.51" y="-1540.19" font-family="Helvetica,sans-Serif" font-size="10.00" fill="#ece1d7">soft cap → yield_now</text>
</g>
<!-- qbuf&#45;&gt;qchan -->
<g id="edge10" class="edge">
<title>qbuf&#45;&gt;qchan</title>
<path fill="none" stroke="#c1a78e" d="M1112.84,-1635.4C1113.17,-1625.6 1113.52,-1615 1113.85,-1604.81"/>
<polygon fill="#c1a78e" stroke="#c1a78e" points="1117.35,-1604.91 1114.18,-1594.8 1110.36,-1604.68 1117.35,-1604.91"/>
</g>
<!-- qwrk -->
<g id="node16" class="node">
<title>qwrk</title>
<path fill="#4d3a28" stroke="#6e6963" d="M1202.51,-1471.69C1202.51,-1471.69 1124.51,-1471.69 1124.51,-1471.69 1118.51,-1471.69 1112.51,-1465.69 1112.51,-1459.69 1112.51,-1459.69 1112.51,-1442.69 1112.51,-1442.69 1112.51,-1436.69 1118.51,-1430.69 1124.51,-1430.69 1124.51,-1430.69 1202.51,-1430.69 1202.51,-1430.69 1208.51,-1430.69 1214.51,-1436.69 1214.51,-1442.69 1214.51,-1442.69 1214.51,-1459.69 1214.51,-1459.69 1214.51,-1465.69 1208.51,-1471.69 1202.51,-1471.69"/>
<text text-anchor="middle" x="1163.51" y="-1459.69" font-family="Helvetica,sans-Serif" font-size="10.00" fill="#ece1d7">worker task</text>
<text text-anchor="middle" x="1163.51" y="-1448.69" font-family="Helvetica,sans-Serif" font-size="10.00" fill="#ece1d7">drains batches,</text>
<text text-anchor="middle" x="1163.51" y="-1437.69" font-family="Helvetica,sans-Serif" font-size="10.00" fill="#ece1d7">fires on_idle ticks</text>
</g>
<!-- qchan&#45;&gt;qwrk -->
<g id="edge11" class="edge">
<title>qchan&#45;&gt;qwrk</title>
<path fill="none" stroke="#c1a78e" d="M1134.62,-1512.68C1139.64,-1502.17 1144.96,-1491.03 1149.64,-1481.22"/>
<polygon fill="#c1a78e" stroke="#c1a78e" points="1152.93,-1482.46 1154.08,-1471.92 1146.62,-1479.44 1152.93,-1482.46"/>
</g>
<!-- qerr -->
<g id="node17" class="node">
<title>qerr</title>
<polygon fill="#4d3a28" stroke="#6e6963" points="1221.51,-1345.19 1099.51,-1345.19 1099.51,-1309.19 1227.51,-1309.19 1227.51,-1339.19 1221.51,-1345.19"/>
<polyline fill="none" stroke="#6e6963" points="1221.51,-1345.19 1221.51,-1339.19 "/>
<polyline fill="none" stroke="#6e6963" points="1227.51,-1339.19 1221.51,-1339.19 "/>
<text text-anchor="middle" x="1163.51" y="-1330.19" font-family="Helvetica,sans-Serif" font-size="10.00" fill="#ece1d7">shared err slot</text>
<text text-anchor="middle" x="1163.51" y="-1319.19" font-family="Helvetica,sans-Serif" font-size="10.00" fill="#ece1d7">surfaces back to pump</text>
</g>
<!-- qwrk&#45;&gt;qerr -->
<g id="edge12" class="edge">
<title>qwrk&#45;&gt;qerr</title>
<path fill="none" stroke="#b58b86" stroke-dasharray="5,2" d="M1163.51,-1430.59C1163.51,-1410.23 1163.51,-1378.24 1163.51,-1355.44"/>
<polygon fill="#b58b86" stroke="#b58b86" points="1167.01,-1355.37 1163.51,-1345.37 1160.01,-1355.37 1167.01,-1355.37"/>
</g>
<!-- catgate -->
<g id="node18" class="node">
<title>catgate</title>
<path fill="#4d4128" stroke="#6e6963" d="M1393.01,-1347.69C1393.01,-1347.69 1288.01,-1347.69 1288.01,-1347.69 1282.01,-1347.69 1276.01,-1341.69 1276.01,-1335.69 1276.01,-1335.69 1276.01,-1318.69 1276.01,-1318.69 1276.01,-1312.69 1282.01,-1306.69 1288.01,-1306.69 1288.01,-1306.69 1393.01,-1306.69 1393.01,-1306.69 1399.01,-1306.69 1405.01,-1312.69 1405.01,-1318.69 1405.01,-1318.69 1405.01,-1335.69 1405.01,-1335.69 1405.01,-1341.69 1399.01,-1347.69 1393.01,-1347.69"/>
<text text-anchor="middle" x="1340.51" y="-1335.69" font-family="Helvetica,sans-Serif" font-size="10.00" fill="#ece1d7">BufferingDecoderSink</text>
<text text-anchor="middle" x="1340.51" y="-1324.69" font-family="Helvetica,sans-Serif" font-size="10.00" fill="#ece1d7">relation_at(rfn, lsn)</text>
<text text-anchor="middle" x="1340.51" y="-1313.69" font-family="Helvetica,sans-Serif" font-size="10.00" fill="#ece1d7">wait_for_replay(at_lsn)</text>
</g>
<!-- qwrk&#45;&gt;catgate -->
<g id="edge17" class="edge">
<title>qwrk&#45;&gt;catgate</title>
<path fill="none" stroke="#c1a78e" d="M1211.49,-1430.6C1225.63,-1424.05 1241.05,-1416.14 1255.02,-1407.31"/>
<polygon fill="#c1a78e" stroke="#c1a78e" points="1257.1,-1410.13 1263.51,-1401.69 1253.24,-1404.29 1257.1,-1410.13"/>
</g>
<!-- decoder -->
<g id="node19" class="node">
<title>decoder</title>
<path fill="#4d4128" stroke="#6e6963" d="M1426.01,-1265.69C1426.01,-1265.69 1303.01,-1265.69 1303.01,-1265.69 1297.01,-1265.69 1291.01,-1259.69 1291.01,-1253.69 1291.01,-1253.69 1291.01,-1203.69 1291.01,-1203.69 1291.01,-1197.69 1297.01,-1191.69 1303.01,-1191.69 1303.01,-1191.69 1426.01,-1191.69 1426.01,-1191.69 1432.01,-1191.69 1438.01,-1197.69 1438.01,-1203.69 1438.01,-1203.69 1438.01,-1253.69 1438.01,-1253.69 1438.01,-1259.69 1432.01,-1265.69 1426.01,-1265.69"/>
<text text-anchor="middle" x="1364.51" y="-1253.69" font-family="Helvetica,sans-Serif" font-size="10.00" fill="#ece1d7">heap_decoder</text>
<text text-anchor="middle" x="1364.51" y="-1242.69" font-family="Helvetica,sans-Serif" font-size="10.00" fill="#ece1d7">INSERT / DELETE /</text>
<text text-anchor="middle" x="1364.51" y="-1231.69" font-family="Helvetica,sans-Serif" font-size="10.00" fill="#ece1d7">UPDATE / HOT / TRUNCATE</text>
<text text-anchor="middle" x="1364.51" y="-1220.69" font-family="Helvetica,sans-Serif" font-size="10.00" fill="#ece1d7">Tier&#45;1 fixed&#45;width</text>
<text text-anchor="middle" x="1364.51" y="-1209.69" font-family="Helvetica,sans-Serif" font-size="10.00" fill="#ece1d7">Tier&#45;2 length&#45;prefixed</text>
<text text-anchor="middle" x="1364.51" y="-1198.69" font-family="Helvetica,sans-Serif" font-size="10.00" fill="#ece1d7">Replica&#45;identity matrix</text>
</g>
<!-- catgate&#45;&gt;decoder -->
<g id="edge14" class="edge">
<title>catgate&#45;&gt;decoder</title>
<path fill="none" stroke="#c1a78e" d="M1345.37,-1306.66C1347.59,-1297.72 1350.33,-1286.71 1353.03,-1275.85"/>
<polygon fill="#c1a78e" stroke="#c1a78e" points="1356.47,-1276.52 1355.49,-1265.97 1349.68,-1274.83 1356.47,-1276.52"/>
</g>
<!-- lru -->
<g id="node27" class="node">
<title>lru</title>
<path fill="#4d4d28" stroke="#6e6963" d="M2530.51,-607.19C2530.51,-607.19 2434.51,-607.19 2434.51,-607.19 2428.51,-607.19 2422.51,-601.19 2422.51,-595.19 2422.51,-595.19 2422.51,-578.19 2422.51,-578.19 2422.51,-572.19 2428.51,-566.19 2434.51,-566.19 2434.51,-566.19 2530.51,-566.19 2530.51,-566.19 2536.51,-566.19 2542.51,-572.19 2542.51,-578.19 2542.51,-578.19 2542.51,-595.19 2542.51,-595.19 2542.51,-601.19 2536.51,-607.19 2530.51,-607.19"/>
<text text-anchor="middle" x="2482.51" y="-595.19" font-family="Helvetica,sans-Serif" font-size="10.00" fill="#ece1d7">LRU 4096</text>
<text text-anchor="middle" x="2482.51" y="-584.19" font-family="Helvetica,sans-Serif" font-size="10.00" fill="#ece1d7">by_filenode / by_oid</text>
<text text-anchor="middle" x="2482.51" y="-573.19" font-family="Helvetica,sans-Serif" font-size="10.00" fill="#ece1d7">+ generation counter</text>
</g>
<!-- catgate&#45;&gt;lru -->
<g id="edge30" class="edge">
<title>catgate&#45;&gt;lru</title>
<path fill="none" stroke="#cba85e" stroke-dasharray="5,2" d="M1397.31,-1306.62C1417.81,-1297.09 1439.55,-1283.7 1454.51,-1265.69 1538.55,-1164.51 1604.72,-1070.45 1513.51,-975.69 1489.3,-950.53 1227.79,-984.16 1199.51,-963.69 1150.93,-928.52 1201.26,-872.13 1152.51,-837.19 1125,-817.47 567.1,-843.96 543.51,-819.69 540.41,-816.5 541.88,-813.82 543.51,-809.69 568.82,-745.3 586.31,-723.85 649.51,-695.69 827.04,-616.58 2218.43,-739.8 2398.51,-666.69 2424.41,-656.17 2447.04,-633.63 2462.27,-615.31"/>
<polygon fill="#cba85e" stroke="#cba85e" points="2465.21,-617.23 2468.73,-607.24 2459.75,-612.86 2465.21,-617.23"/>
<text text-anchor="middle" x="1569.01" y="-1012.99" font-family="Helvetica,sans-Serif" font-size="9.00" fill="#ece1d7">lookup</text>
</g>
<!-- xactbuf -->
<g id="node20" class="node">
<title>xactbuf</title>
<path fill="#4d4128" stroke="#6e6963" d="M1462.01,-1150.69C1462.01,-1150.69 1307.01,-1150.69 1307.01,-1150.69 1301.01,-1150.69 1295.01,-1144.69 1295.01,-1138.69 1295.01,-1138.69 1295.01,-1099.69 1295.01,-1099.69 1295.01,-1093.69 1301.01,-1087.69 1307.01,-1087.69 1307.01,-1087.69 1462.01,-1087.69 1462.01,-1087.69 1468.01,-1087.69 1474.01,-1093.69 1474.01,-1099.69 1474.01,-1099.69 1474.01,-1138.69 1474.01,-1138.69 1474.01,-1144.69 1468.01,-1150.69 1462.01,-1150.69"/>
<text text-anchor="middle" x="1384.51" y="-1138.69" font-family="Helvetica,sans-Serif" font-size="10.00" fill="#ece1d7">XactBuffer + spill v4</text>
<text text-anchor="middle" x="1384.51" y="-1127.69" font-family="Helvetica,sans-Serif" font-size="10.00" fill="#ece1d7">Heap / Chunk / ToastDelete / Raw</text>
<text text-anchor="middle" x="1384.51" y="-1116.69" font-family="Helvetica,sans-Serif" font-size="10.00" fill="#ece1d7">SMGR markers + commit stash</text>
<text text-anchor="middle" x="1384.51" y="-1105.69" font-family="Helvetica,sans-Serif" font-size="10.00" fill="#ece1d7">SubxactTracker</text>
<text text-anchor="middle" x="1384.51" y="-1094.69" font-family="Helvetica,sans-Serif" font-size="10.00" fill="#ece1d7">budget = work_mem</text>
</g>
<!-- decoder&#45;&gt;xactbuf -->
<g id="edge15" class="edge">
<title>decoder&#45;&gt;xactbuf</title>
<path fill="none" stroke="#c1a78e" d="M1371.23,-1191.59C1373.06,-1181.71 1375.07,-1170.93 1376.95,-1160.82"/>
<polygon fill="#c1a78e" stroke="#c1a78e" points="1380.39,-1161.45 1378.78,-1150.98 1373.51,-1160.17 1380.39,-1161.45"/>
</g>
<!-- drain -->
<g id="node21" class="node">
<title>drain</title>
<path fill="#4d4128" stroke="#6e6963" d="M1485.51,-1046.69C1485.51,-1046.69 1283.51,-1046.69 1283.51,-1046.69 1277.51,-1046.69 1271.51,-1040.69 1271.51,-1034.69 1271.51,-1034.69 1271.51,-995.69 1271.51,-995.69 1271.51,-989.69 1277.51,-983.69 1283.51,-983.69 1283.51,-983.69 1485.51,-983.69 1485.51,-983.69 1491.51,-983.69 1497.51,-989.69 1497.51,-995.69 1497.51,-995.69 1497.51,-1034.69 1497.51,-1034.69 1497.51,-1040.69 1491.51,-1046.69 1485.51,-1046.69"/>
<text text-anchor="middle" x="1384.51" y="-1034.69" font-family="Helvetica,sans-Serif" font-size="10.00" fill="#ece1d7">ReorderSink (pipeline/reorder.rs)</text>
<text text-anchor="middle" x="1384.51" y="-1023.69" font-family="Helvetica,sans-Serif" font-size="10.00" fill="#ece1d7">CommittedDrain → DrainedBatch slices</text>
<text text-anchor="middle" x="1384.51" y="-1012.69" font-family="Helvetica,sans-Serif" font-size="10.00" fill="#ece1d7">new_rows + row/event cursors</text>
<text text-anchor="middle" x="1384.51" y="-1001.69" font-family="Helvetica,sans-Serif" font-size="10.00" fill="#ece1d7">Catalog / Config / ToastBarrier / TRUNCATE:</text>
<text text-anchor="middle" x="1384.51" y="-990.69" font-family="Helvetica,sans-Serif" font-size="10.00" fill="#ece1d7">placed → FlushAll → durable → apply</text>
</g>
<!-- xactbuf&#45;&gt;drain -->
<g id="edge16" class="edge">
<title>xactbuf&#45;&gt;drain</title>
<path fill="none" stroke="#c1a78e" d="M1384.51,-1087.58C1384.51,-1077.9 1384.51,-1067.05 1384.51,-1056.78"/>
<polygon fill="#c1a78e" stroke="#c1a78e" points="1388.01,-1056.77 1384.51,-1046.77 1381.01,-1056.77 1388.01,-1056.77"/>
</g>
<!-- spill -->
<g id="node37" class="node">
<title>spill</title>
<polygon fill="#4d3850" stroke="#6e6963" points="1972.01,-886.19 1823.01,-886.19 1823.01,-845.19 1978.01,-845.19 1978.01,-880.19 1972.01,-886.19"/>
<polyline fill="none" stroke="#6e6963" points="1972.01,-886.19 1972.01,-880.19 "/>
<polyline fill="none" stroke="#6e6963" points="1978.01,-880.19 1972.01,-880.19 "/>
<text text-anchor="middle" x="1900.51" y="-874.19" font-family="Helvetica,sans-Serif" font-size="10.00" fill="#ece1d7">{spill}/xid&#45;&lt;xid&gt;&#45;&lt;lsn&gt;.bin</text>
<text text-anchor="middle" x="1900.51" y="-863.19" font-family="Helvetica,sans-Serif" font-size="10.00" fill="#ece1d7">append&#45;only</text>
<text text-anchor="middle" x="1900.51" y="-852.19" font-family="Helvetica,sans-Serif" font-size="10.00" fill="#ece1d7">[tag u8 | len u32 | body]</text>
</g>
<!-- xactbuf&#45;&gt;spill -->
<g id="edge42" class="edge">
<title>xactbuf&#45;&gt;spill</title>
<path fill="none" stroke="#c1a78e" stroke-dasharray="5,2" d="M1474.18,-1110.1C1574.79,-1099.63 1730.37,-1078.82 1779.51,-1046.69 1836,-1009.76 1872.7,-936.31 1889.63,-895.58"/>
<polygon fill="#c1a78e" stroke="#c1a78e" points="1892.91,-896.8 1893.41,-886.21 1886.42,-894.17 1892.91,-896.8"/>
<text text-anchor="middle" x="1886.01" y="-1012.99" font-family="Helvetica,sans-Serif" font-size="9.00" fill="#ece1d7">evict largest xact</text>
</g>
<!-- cdecode -->
<g id="node22" class="node">
<title>cdecode</title>
<path fill="#5d4628" stroke="#6e6963" d="M1125.01,-747.69C1125.01,-747.69 934.01,-747.69 934.01,-747.69 928.01,-747.69 922.01,-741.69 922.01,-735.69 922.01,-735.69 922.01,-707.69 922.01,-707.69 922.01,-701.69 928.01,-695.69 934.01,-695.69 934.01,-695.69 1125.01,-695.69 1125.01,-695.69 1131.01,-695.69 1137.01,-701.69 1137.01,-707.69 1137.01,-707.69 1137.01,-735.69 1137.01,-735.69 1137.01,-741.69 1131.01,-747.69 1125.01,-747.69"/>
<text text-anchor="middle" x="1029.51" y="-735.69" font-family="Helvetica,sans-Serif" font-size="10.00" fill="#ece1d7">decode pool ×M</text>
<text text-anchor="middle" x="1029.51" y="-724.69" font-family="Helvetica,sans-Serif" font-size="10.00" fill="#ece1d7">detoast via ChunkMap / store as&#45;of fetch</text>
<text text-anchor="middle" x="1029.51" y="-713.69" font-family="Helvetica,sans-Serif" font-size="10.00" fill="#ece1d7">resolve_at_pooled + mapping + oracle</text>
<text text-anchor="middle" x="1029.51" y="-702.69" font-family="Helvetica,sans-Serif" font-size="10.00" fill="#ece1d7">chunk 1024 rows / 4 MiB</text>
</g>
<!-- drain&#45;&gt;cdecode -->
<g id="edge21" class="edge">
<title>drain&#45;&gt;cdecode</title>
<path fill="none" stroke="#bf8c5f" stroke-width="2" d="M1347.19,-983.54C1279.45,-927.92 1136.92,-810.88 1068.19,-754.45"/>
<polygon fill="#bf8c5f" stroke="#bf8c5f" stroke-width="2" points="1070.13,-751.52 1060.19,-747.88 1065.69,-756.93 1070.13,-751.52"/>
<text text-anchor="middle" x="1322.01" y="-863.49" font-family="Helvetica,sans-Serif" font-size="9.00" fill="#ece1d7">DecodeJob</text>
</g>
<!-- toastio -->
<g id="node26" class="node">
<title>toastio</title>
<path fill="#5d4628" stroke="#6e6963" d="M1112.51,-891.69C1112.51,-891.69 934.51,-891.69 934.51,-891.69 928.51,-891.69 922.51,-885.69 922.51,-879.69 922.51,-879.69 922.51,-851.69 922.51,-851.69 922.51,-845.69 928.51,-839.69 934.51,-839.69 934.51,-839.69 1112.51,-839.69 1112.51,-839.69 1118.51,-839.69 1124.51,-845.69 1124.51,-851.69 1124.51,-851.69 1124.51,-879.69 1124.51,-879.69 1124.51,-885.69 1118.51,-891.69 1112.51,-891.69"/>
<text text-anchor="middle" x="1023.51" y="-879.69" font-family="Helvetica,sans-Serif" font-size="10.00" fill="#ece1d7">ToastResolver / CH mirrors</text>
<text text-anchor="middle" x="1023.51" y="-868.69" font-family="Helvetica,sans-Serif" font-size="10.00" fill="#ece1d7">put births+tombstones before publish</text>
<text text-anchor="middle" x="1023.51" y="-857.69" font-family="Helvetica,sans-Serif" font-size="10.00" fill="#ece1d7">fetch pre&#45;window values</text>
<text text-anchor="middle" x="1023.51" y="-846.69" font-family="Helvetica,sans-Serif" font-size="10.00" fill="#ece1d7">truncate / retire / rewrite O−B</text>
</g>
<!-- drain&#45;&gt;toastio -->
<g id="edge22" class="edge">
<title>drain&#45;&gt;toastio</title>
<path fill="none" stroke="#bf8c5f" stroke-dasharray="5,2" d="M1271.08,-1012.25C1181.94,-1008.19 1067.64,-996.49 1035.51,-963.69 1019.87,-947.72 1017.15,-922.5 1018.19,-901.77"/>
<polygon fill="#bf8c5f" stroke="#bf8c5f" points="1021.69,-901.97 1019,-891.72 1014.71,-901.41 1021.69,-901.97"/>
<text text-anchor="middle" x="1082.01" y="-956.49" font-family="Helvetica,sans-Serif" font-size="9.00" fill="#ece1d7">new_rows + barriers</text>
</g>
<!-- retires -->
<g id="node39" class="node">
<title>retires</title>
<polygon fill="#4d3850" stroke="#6e6963" points="1625.51,-883.69 1467.51,-883.69 1467.51,-847.69 1631.51,-847.69 1631.51,-877.69 1625.51,-883.69"/>
<polyline fill="none" stroke="#6e6963" points="1625.51,-883.69 1625.51,-877.69 "/>
<polyline fill="none" stroke="#6e6963" points="1631.51,-877.69 1625.51,-877.69 "/>
<text text-anchor="middle" x="1549.51" y="-868.69" font-family="Helvetica,sans-Serif" font-size="10.00" fill="#ece1d7">{spill}/toast_retires.bin</text>
<text text-anchor="middle" x="1549.51" y="-857.69" font-family="Helvetica,sans-Serif" font-size="10.00" fill="#ece1d7">fsynced deferred mirror wipes</text>
</g>
<!-- drain&#45;&gt;retires -->
<g id="edge46" class="edge">
<title>drain&#45;&gt;retires</title>
<path fill="none" stroke="#6e6963" stroke-dasharray="5,2" d="M1418.7,-983.63C1449.59,-956.01 1494.43,-915.93 1522.77,-890.59"/>
<polygon fill="#6e6963" stroke="#6e6963" points="1525.17,-893.14 1530.3,-883.86 1520.51,-887.92 1525.17,-893.14"/>
<text text-anchor="middle" x="1472.01" y="-956.49" font-family="Helvetica,sans-Serif" font-size="9.00" fill="#ece1d7">toast DROP</text>
</g>
<!-- tableenc -->
<g id="node23" class="node">
<title>tableenc</title>
<path fill="#5d4628" stroke="#6e6963" d="M1115.51,-618.19C1115.51,-618.19 943.51,-618.19 943.51,-618.19 937.51,-618.19 931.51,-612.19 931.51,-606.19 931.51,-606.19 931.51,-567.19 931.51,-567.19 931.51,-561.19 937.51,-555.19 943.51,-555.19 943.51,-555.19 1115.51,-555.19 1115.51,-555.19 1121.51,-555.19 1127.51,-561.19 1127.51,-567.19 1127.51,-567.19 1127.51,-606.19 1127.51,-606.19 1127.51,-612.19 1121.51,-618.19 1115.51,-618.19"/>
<text text-anchor="middle" x="1029.51" y="-606.19" font-family="Helvetica,sans-Serif" font-size="10.00" fill="#ece1d7">InsertBatcher</text>
<text text-anchor="middle" x="1029.51" y="-595.19" font-family="Helvetica,sans-Serif" font-size="10.00" fill="#ece1d7">TableEncoder per table</text>
<text text-anchor="middle" x="1029.51" y="-584.19" font-family="Helvetica,sans-Serif" font-size="10.00" fill="#ece1d7">Native columns +</text>
<text text-anchor="middle" x="1029.51" y="-573.19" font-family="Helvetica,sans-Serif" font-size="10.00" fill="#ece1d7">_lsn / _xid / _commit_ts / _is_deleted</text>
<text text-anchor="middle" x="1029.51" y="-562.19" font-family="Helvetica,sans-Serif" font-size="10.00" fill="#ece1d7">row/byte budget + deadline seal</text>
</g>
<!-- cdecode&#45;&gt;tableenc -->
<g id="edge18" class="edge">
<title>cdecode&#45;&gt;tableenc</title>
<path fill="none" stroke="#c1a78e" d="M1029.51,-695.67C1029.51,-676.7 1029.51,-650.24 1029.51,-628.25"/>
<polygon fill="#c1a78e" stroke="#c1a78e" points="1033.01,-628.2 1029.51,-618.2 1026.01,-628.2 1033.01,-628.2"/>
</g>
<!-- chwire -->
<g id="node24" class="node">
<title>chwire</title>
<path fill="#5d4628" stroke="#6e6963" d="M1101.51,-348.69C1101.51,-348.69 957.51,-348.69 957.51,-348.69 951.51,-348.69 945.51,-342.69 945.51,-336.69 945.51,-336.69 945.51,-308.69 945.51,-308.69 945.51,-302.69 951.51,-296.69 957.51,-296.69 957.51,-296.69 1101.51,-296.69 1101.51,-296.69 1107.51,-296.69 1113.51,-302.69 1113.51,-308.69 1113.51,-308.69 1113.51,-336.69 1113.51,-336.69 1113.51,-342.69 1107.51,-348.69 1101.51,-348.69"/>
<text text-anchor="middle" x="1029.51" y="-336.69" font-family="Helvetica,sans-Serif" font-size="10.00" fill="#ece1d7">inserter pool ×N</text>
<text text-anchor="middle" x="1029.51" y="-325.69" font-family="Helvetica,sans-Serif" font-size="10.00" fill="#ece1d7">BlockBuilder over sealed batch</text>
<text text-anchor="middle" x="1029.51" y="-314.69" font-family="Helvetica,sans-Serif" font-size="10.00" fill="#ece1d7">one complete INSERT each</text>
<text text-anchor="middle" x="1029.51" y="-303.69" font-family="Helvetica,sans-Serif" font-size="10.00" fill="#ece1d7">send_with_retry + reconnect</text>
</g>
<!-- tableenc&#45;&gt;chwire -->
<g id="edge19" class="edge">
<title>tableenc&#45;&gt;chwire</title>
<path fill="none" stroke="#c1a78e" d="M1029.51,-555.12C1029.51,-506.25 1029.51,-410.77 1029.51,-359.03"/>
<polygon fill="#c1a78e" stroke="#c1a78e" points="1033.01,-358.99 1029.51,-348.99 1026.01,-358.99 1033.01,-358.99"/>
</g>
<!-- chwire&#45;&gt;ch -->
<g id="edge44" class="edge">
<title>chwire&#45;&gt;ch</title>
<path fill="none" stroke="#bf8c5f" stroke-width="2" d="M975.92,-296.59C859.18,-241.91 583.88,-112.96 477.5,-63.14"/>
<polygon fill="#bf8c5f" stroke="#bf8c5f" stroke-width="2" points="478.88,-59.92 468.34,-58.85 475.91,-66.26 478.88,-59.92"/>
</g>
<!-- ackcol -->
<g id="node25" class="node">
<title>ackcol</title>
<polygon fill="#4d3a28" stroke="#6e6963" points="1114.51,-62.5 966.51,-62.5 966.51,-21.5 1120.51,-21.5 1120.51,-56.5 1114.51,-62.5"/>
<polyline fill="none" stroke="#6e6963" points="1114.51,-62.5 1114.51,-56.5 "/>
<polyline fill="none" stroke="#6e6963" points="1120.51,-56.5 1114.51,-56.5 "/>
<text text-anchor="middle" x="1043.51" y="-50.5" font-family="Helvetica,sans-Serif" font-size="10.00" fill="#ece1d7">ack collector</text>
<text text-anchor="middle" x="1043.51" y="-39.5" font-family="Helvetica,sans-Serif" font-size="10.00" fill="#ece1d7">contiguous&#45;done watermark</text>
<text text-anchor="middle" x="1043.51" y="-28.5" font-family="Helvetica,sans-Serif" font-size="10.00" fill="#ece1d7">→ emitter_ack_lsn</text>
</g>
<!-- chwire&#45;&gt;ackcol -->
<g id="edge20" class="edge">
<title>chwire&#45;&gt;ackcol</title>
<path fill="none" stroke="#b380b0" stroke-dasharray="1,5" d="M1030.78,-296.46C1033.36,-244.96 1039.24,-127.94 1042.01,-72.8"/>
<polygon fill="#b380b0" stroke="#b380b0" points="1045.52,-72.79 1042.52,-62.63 1038.53,-72.44 1045.52,-72.79"/>
<text text-anchor="middle" x="1071.01" y="-107.99" font-family="Helvetica,sans-Serif" font-size="9.00" fill="#ece1d7">Acked after</text>
<text text-anchor="middle" x="1071.01" y="-97.99" font-family="Helvetica,sans-Serif" font-size="9.00" fill="#ece1d7">EndOfStream</text>
</g>
<!-- cursor -->
<g id="node38" class="node">
<title>cursor</title>
<polygon fill="#4d3850" stroke="#6e6963" points="1785.01,-886.19 1664.01,-886.19 1664.01,-845.19 1791.01,-845.19 1791.01,-880.19 1785.01,-886.19"/>
<polyline fill="none" stroke="#6e6963" points="1785.01,-886.19 1785.01,-880.19 "/>
<polyline fill="none" stroke="#6e6963" points="1791.01,-880.19 1785.01,-880.19 "/>
<text text-anchor="middle" x="1727.51" y="-874.19" font-family="Helvetica,sans-Serif" font-size="10.00" fill="#ece1d7">{spill}/cursor.bin</text>
<text text-anchor="middle" x="1727.51" y="-863.19" font-family="Helvetica,sans-Serif" font-size="10.00" fill="#ece1d7">64 B atomic rename</text>
<text text-anchor="middle" x="1727.51" y="-852.19" font-family="Helvetica,sans-Serif" font-size="10.00" fill="#ece1d7">6 LSN fields + CRC32C</text>
</g>
<!-- ackcol&#45;&gt;cursor -->
<g id="edge43" class="edge">
<title>ackcol&#45;&gt;cursor</title>
<path fill="none" stroke="#b380b0" stroke-dasharray="1,5" d="M1120.73,-48.33C1268.44,-63.16 1576.51,-118.46 1576.51,-321.69 1576.51,-722.69 1576.51,-722.69 1576.51,-722.69 1576.51,-777.28 1629.54,-817.04 1672.75,-840.37"/>
<polygon fill="#b380b0" stroke="#b380b0" points="1671.31,-843.57 1681.8,-845.1 1674.55,-837.37 1671.31,-843.57"/>
<text text-anchor="middle" x="1612.01" y="-584.49" font-family="Helvetica,sans-Serif" font-size="9.00" fill="#ece1d7">emitter_ack_lsn</text>
</g>
<!-- toastio&#45;&gt;ch -->
<g id="edge45" class="edge">
<title>toastio&#45;&gt;ch</title>
<path fill="none" stroke="#bf8c5f" stroke-dasharray="5,2" d="M922.35,-862.9C769.58,-859.26 494.05,-848.73 459.51,-819.69 425.43,-791.04 434.51,-767.21 434.51,-722.69 434.51,-722.69 434.51,-722.69 434.51,-321.69 434.51,-229.7 434.51,-120.64 434.51,-70.59"/>
<polygon fill="#bf8c5f" stroke="#bf8c5f" points="438.01,-70.28 434.51,-60.28 431.01,-70.28 438.01,-70.28"/>
<text text-anchor="middle" x="474.01" y="-584.49" font-family="Helvetica,sans-Serif" font-size="9.00" fill="#ece1d7">pg_toast_&lt;relid&gt;</text>
</g>
<!-- toastio&#45;&gt;cdecode -->
<g id="edge23" class="edge">
<title>toastio&#45;&gt;cdecode</title>
<path fill="none" stroke="#cba85e" stroke-dasharray="5,2" d="M1024.57,-839.63C1025.52,-817.06 1026.93,-783.63 1028.01,-758.28"/>
<polygon fill="#cba85e" stroke="#cba85e" points="1031.52,-758.11 1028.44,-747.97 1024.52,-757.82 1031.52,-758.11"/>
<text text-anchor="middle" x="1050.01" y="-812.49" font-family="Helvetica,sans-Serif" font-size="9.00" fill="#ece1d7">as&#45;of fetch</text>
</g>
<!-- libpq -->
<g id="node28" class="node">
<title>libpq</title>
<path fill="#4d4d28" stroke="#6e6963" d="M2518.51,-343.19C2518.51,-343.19 2418.51,-343.19 2418.51,-343.19 2412.51,-343.19 2406.51,-337.19 2406.51,-331.19 2406.51,-331.19 2406.51,-314.19 2406.51,-314.19 2406.51,-308.19 2412.51,-302.19 2418.51,-302.19 2418.51,-302.19 2518.51,-302.19 2518.51,-302.19 2524.51,-302.19 2530.51,-308.19 2530.51,-314.19 2530.51,-314.19 2530.51,-331.19 2530.51,-331.19 2530.51,-337.19 2524.51,-343.19 2518.51,-343.19"/>
<text text-anchor="middle" x="2468.51" y="-331.19" font-family="Helvetica,sans-Serif" font-size="10.00" fill="#ece1d7">tokio_postgres::Client</text>
<text text-anchor="middle" x="2468.51" y="-320.19" font-family="Helvetica,sans-Serif" font-size="10.00" fill="#ece1d7">SELECT pg_class /</text>
<text text-anchor="middle" x="2468.51" y="-309.19" font-family="Helvetica,sans-Serif" font-size="10.00" fill="#ece1d7">pg_attribute / pg_type</text>
</g>
<!-- lru&#45;&gt;libpq -->
<g id="edge24" class="edge">
<title>lru&#45;&gt;libpq</title>
<path fill="none" stroke="#c1a78e" stroke-dasharray="5,2" d="M2481.46,-565.99C2479.02,-520.46 2473,-407.65 2470.11,-353.55"/>
<polygon fill="#c1a78e" stroke="#c1a78e" points="2473.58,-353.05 2469.56,-343.25 2466.59,-353.42 2473.58,-353.05"/>
<text text-anchor="middle" x="2489.01" y="-527.99" font-family="Helvetica,sans-Serif" font-size="9.00" fill="#ece1d7">miss</text>
</g>
<!-- evtx -->
<g id="node30" class="node">
<title>evtx</title>
<path fill="#4d4d28" stroke="#6e6963" d="M2858.96,-363.69C2858.96,-363.69 2637.26,-363.69 2637.26,-363.69 2631.26,-363.69 2621.6,-358.94 2617.94,-354.18 2617.94,-354.18 2569.38,-291.19 2569.38,-291.19 2565.72,-286.44 2568.06,-281.69 2574.06,-281.69 2574.06,-281.69 2795.76,-281.69 2795.76,-281.69 2801.76,-281.69 2811.42,-286.44 2815.08,-291.19 2815.08,-291.19 2863.64,-354.18 2863.64,-354.18 2867.3,-358.94 2864.96,-363.69 2858.96,-363.69"/>
<text text-anchor="middle" x="2716.51" y="-331.19" font-family="Helvetica,sans-Serif" font-size="10.00" fill="#ece1d7">schema_event_tx</text>
<text text-anchor="middle" x="2716.51" y="-320.19" font-family="Helvetica,sans-Serif" font-size="10.00" fill="#ece1d7">Added / Changed / Dropped</text>
<text text-anchor="middle" x="2716.51" y="-309.19" font-family="Helvetica,sans-Serif" font-size="10.00" fill="#ece1d7">(unbounded mpsc)</text>
</g>
<!-- lru&#45;&gt;evtx -->
<g id="edge26" class="edge">
<title>lru&#45;&gt;evtx</title>
<path fill="none" stroke="#cba85e" stroke-dasharray="5,2" d="M2500.1,-565.99C2536.72,-524.99 2622.05,-429.45 2673.95,-371.34"/>
<polygon fill="#cba85e" stroke="#cba85e" points="2676.68,-373.54 2680.73,-363.75 2671.46,-368.87 2676.68,-373.54"/>
<text text-anchor="middle" x="2558.51" y="-527.99" font-family="Helvetica,sans-Serif" font-size="9.00" fill="#ece1d7">diff vs prior</text>
</g>
<!-- libpq&#45;&gt;shd -->
<g id="edge39" class="edge">
<title>libpq&#45;&gt;shd</title>
<path fill="none" stroke="#cba85e" d="M2452.09,-293.09C2422.83,-242.12 2361.7,-135.65 2329.46,-79.49"/>
<polygon fill="#cba85e" stroke="#cba85e" points="2457.26,-302.09 2448.38,-295.66 2454.77,-297.75 2452.28,-293.42 2452.28,-293.42 2452.28,-293.42 2454.77,-297.75 2456.18,-291.18 2457.26,-302.09 2457.26,-302.09"/>
<polygon fill="#cba85e" stroke="#cba85e" points="2332.36,-77.52 2324.35,-70.59 2326.29,-81.01 2332.36,-77.52"/>
<text text-anchor="middle" x="2381.01" y="-102.99" font-family="Helvetica,sans-Serif" font-size="9.00" fill="#ece1d7">libpq SELECT</text>
</g>
<!-- inval&#45;&gt;lru -->
<g id="edge25" class="edge">
<title>inval&#45;&gt;lru</title>
<path fill="none" stroke="#cba85e" stroke-dasharray="5,2" d="M2472.77,-695.67C2474.77,-673.48 2477.7,-641.04 2479.82,-617.51"/>
<polygon fill="#cba85e" stroke="#cba85e" points="2483.32,-617.67 2480.73,-607.4 2476.35,-617.04 2483.32,-617.67"/>
</g>
<!-- evtx&#45;&gt;xactbuf -->
<g id="edge32" class="edge">
<title>evtx&#45;&gt;xactbuf</title>
<path fill="none" stroke="#cba85e" stroke-dasharray="5,2" d="M2692.36,-364.04C2663.71,-407.69 2611.54,-475.06 2546.51,-505.19 2444.56,-552.41 1647.3,-536.46 1536.51,-555.19 1362.96,-584.52 1329.94,-636.65 1156.51,-666.69 1101.35,-676.24 700.99,-666.03 653.51,-695.69 445.07,-825.91 570.22,-799.89 589.51,-819.69 615.69,-846.55 1232.31,-817.94 1264.51,-837.19 1312.18,-865.68 1280.94,-913.94 1326.51,-945.69 1366.44,-973.5 1386.09,-958.83 1434.51,-963.69 1453.59,-965.6 1766.19,-961.89 1779.51,-975.69 1872.37,-1071.83 1629.6,-1103.35 1484.33,-1113.5"/>
<polygon fill="#cba85e" stroke="#cba85e" points="1483.78,-1110.03 1474.04,-1114.2 1484.25,-1117.01 1483.78,-1110.03"/>
<text text-anchor="middle" x="619.51" y="-812.49" font-family="Helvetica,sans-Serif" font-size="9.00" fill="#ece1d7">stamp on xid</text>
</g>
<!-- ddlapp -->
<g id="node32" class="node">
<title>ddlapp</title>
<path fill="#5d4628" stroke="#6e6963" d="M3014.51,-68C3014.51,-68 2910.51,-68 2910.51,-68 2904.51,-68 2898.51,-62 2898.51,-56 2898.51,-56 2898.51,-28 2898.51,-28 2898.51,-22 2904.51,-16 2910.51,-16 2910.51,-16 3014.51,-16 3014.51,-16 3020.51,-16 3026.51,-22 3026.51,-28 3026.51,-28 3026.51,-56 3026.51,-56 3026.51,-62 3020.51,-68 3014.51,-68"/>
<text text-anchor="middle" x="2962.51" y="-56" font-family="Helvetica,sans-Serif" font-size="10.00" fill="#ece1d7">DdlApplicator</text>
<text text-anchor="middle" x="2962.51" y="-45" font-family="Helvetica,sans-Serif" font-size="10.00" fill="#ece1d7">(ch_ddl.rs)</text>
<text text-anchor="middle" x="2962.51" y="-34" font-family="Helvetica,sans-Serif" font-size="10.00" fill="#ece1d7">CREATE / ADD COL /</text>
<text text-anchor="middle" x="2962.51" y="-23" font-family="Helvetica,sans-Serif" font-size="10.00" fill="#ece1d7">RENAME / DROP TABLE</text>
</g>
<!-- evtx&#45;&gt;ddlapp -->
<g id="edge28" class="edge">
<title>evtx&#45;&gt;ddlapp</title>
<path fill="none" stroke="#cba85e" stroke-dasharray="5,2" d="M2738.13,-281.32C2766.18,-231.74 2818.98,-147.23 2881.51,-90.19 2887.99,-84.27 2895.33,-78.76 2902.89,-73.74"/>
<polygon fill="#cba85e" stroke="#cba85e" points="2905.25,-76.39 2911.82,-68.07 2901.5,-70.48 2905.25,-76.39"/>
<text text-anchor="middle" x="2918.01" y="-102.99" font-family="Helvetica,sans-Serif" font-size="9.00" fill="#ece1d7">drain at commit</text>
</g>
<!-- bridge -->
<g id="node31" class="node">
<title>bridge</title>
<path fill="#5d4628" stroke="#6e6963" d="M3014.51,-343.19C3014.51,-343.19 2914.51,-343.19 2914.51,-343.19 2908.51,-343.19 2902.51,-337.19 2902.51,-331.19 2902.51,-331.19 2902.51,-314.19 2902.51,-314.19 2902.51,-308.19 2908.51,-302.19 2914.51,-302.19 2914.51,-302.19 3014.51,-302.19 3014.51,-302.19 3020.51,-302.19 3026.51,-308.19 3026.51,-314.19 3026.51,-314.19 3026.51,-331.19 3026.51,-331.19 3026.51,-337.19 3020.51,-343.19 3014.51,-343.19"/>
<text text-anchor="middle" x="2964.51" y="-331.19" font-family="Helvetica,sans-Serif" font-size="10.00" fill="#ece1d7">type_bridge</text>
<text text-anchor="middle" x="2964.51" y="-320.19" font-family="Helvetica,sans-Serif" font-size="10.00" fill="#ece1d7">RelAttr → CH type</text>
<text text-anchor="middle" x="2964.51" y="-309.19" font-family="Helvetica,sans-Serif" font-size="10.00" fill="#ece1d7">(reject widen for now)</text>
</g>
<!-- bridge&#45;&gt;ddlapp -->
<g id="edge27" class="edge">
<title>bridge&#45;&gt;ddlapp</title>
<path fill="none" stroke="#c1a78e" stroke-dasharray="5,2" d="M2964.37,-302.09C2964.03,-255.46 2963.19,-137.36 2962.76,-78.08"/>
<polygon fill="#c1a78e" stroke="#c1a78e" points="2966.26,-78.04 2962.69,-68.07 2959.26,-78.09 2966.26,-78.04"/>
</g>
<!-- ddlapp&#45;&gt;ch -->
<g id="edge29" class="edge">
<title>ddlapp&#45;&gt;ch</title>
<path fill="none" stroke="#bf8c5f" stroke-dasharray="5,2" d="M2898.27,-47.6C2731.96,-61.78 2273.65,-98.85 1891.01,-111.19 1339.22,-128.98 1199.68,-116.06 649.51,-70.19 590.81,-65.29 523.56,-55.85 480.13,-49.25"/>
<polygon fill="#bf8c5f" stroke="#bf8c5f" points="480.57,-45.78 470.16,-47.72 479.51,-52.7 480.57,-45.78"/>
<text text-anchor="middle" x="1839.51" y="-112.99" font-family="Helvetica,sans-Serif" font-size="9.00" fill="#ece1d7">DDL SQL</text>
<text text-anchor="middle" x="1839.51" y="-102.99" font-family="Helvetica,sans-Serif" font-size="9.00" fill="#ece1d7">(inside reorder barrier,</text>
<text text-anchor="middle" x="1839.51" y="-92.99" font-family="Helvetica,sans-Serif" font-size="9.00" fill="#ece1d7"> own CH connection)</text>
</g>
<!-- listener -->
<g id="node33" class="node">
<title>listener</title>
<path fill="#5d3f40" stroke="#6e6963" d="M2166.01,-607.19C2166.01,-607.19 2073.01,-607.19 2073.01,-607.19 2067.01,-607.19 2061.01,-601.19 2061.01,-595.19 2061.01,-595.19 2061.01,-578.19 2061.01,-578.19 2061.01,-572.19 2067.01,-566.19 2073.01,-566.19 2073.01,-566.19 2166.01,-566.19 2166.01,-566.19 2172.01,-566.19 2178.01,-572.19 2178.01,-578.19 2178.01,-578.19 2178.01,-595.19 2178.01,-595.19 2178.01,-601.19 2172.01,-607.19 2166.01,-607.19"/>
<text text-anchor="middle" x="2119.51" y="-595.19" font-family="Helvetica,sans-Serif" font-size="10.00" fill="#ece1d7">accept(unix / TCP)</text>
<text text-anchor="middle" x="2119.51" y="-584.19" font-family="Helvetica,sans-Serif" font-size="10.00" fill="#ece1d7">IDENTIFY_SYSTEM +</text>
<text text-anchor="middle" x="2119.51" y="-573.19" font-family="Helvetica,sans-Serif" font-size="10.00" fill="#ece1d7">START_REPLICATION</text>
</g>
<!-- listener&#45;&gt;sendq -->
<g id="edge33" class="edge">
<title>listener&#45;&gt;sendq</title>
<path fill="none" stroke="#c1a78e" stroke-dasharray="5,2" d="M2119.13,-565.99C2118.26,-520.46 2116.11,-407.65 2115.08,-353.55"/>
<polygon fill="#c1a78e" stroke="#c1a78e" points="2118.57,-353.18 2114.88,-343.25 2111.57,-353.32 2118.57,-353.18"/>
</g>
<!-- sendq&#45;&gt;shd -->
<g id="edge37" class="edge">
<title>sendq&#45;&gt;shd</title>
<path fill="none" stroke="#bd8183" stroke-width="2" d="M2119.21,-301.95C2130.38,-258.76 2162.18,-154.6 2222.51,-90.19 2227.91,-84.42 2234.18,-79.19 2240.83,-74.5"/>
<polygon fill="#bd8183" stroke="#bd8183" stroke-width="2" points="2242.99,-77.27 2249.41,-68.84 2239.13,-71.42 2242.99,-77.27"/>
<text text-anchor="middle" x="2253.01" y="-102.99" font-family="Helvetica,sans-Serif" font-size="9.00" fill="#ece1d7">hot wire (ms)</text>
</g>
<!-- stat&#45;&gt;catgate -->
<g id="edge35" class="edge">
<title>stat&#45;&gt;catgate</title>
<path fill="none" stroke="#bd8183" stroke-dasharray="5,2" d="M1914.01,-606.06C1851.23,-625.17 1747.38,-654.03 1655.51,-666.69 1544.73,-681.95 750.33,-647.32 649.51,-695.69 589.53,-724.46 575.48,-747.25 552.51,-809.69 550.98,-813.86 549.41,-816.5 552.51,-819.69 577.55,-845.42 1171.72,-813.29 1198.51,-837.19 1240.89,-874.98 1174.21,-925.8 1216.51,-963.69 1248.31,-992.17 1562.4,-956.47 1600.51,-975.69 1636.39,-993.78 1623.02,-1024.46 1656.51,-1046.69 1836.53,-1166.16 2042.8,-990.09 2120.51,-1191.69 2135.86,-1231.51 2163.93,-1255.77 2134.51,-1286.69 2109.95,-1312.5 1608.12,-1322.38 1415.18,-1325.23"/>
<polygon fill="#bd8183" stroke="#bd8183" points="1415.07,-1321.73 1405.13,-1325.37 1415.18,-1328.73 1415.07,-1321.73"/>
<text text-anchor="middle" x="1714.01" y="-1012.99" font-family="Helvetica,sans-Serif" font-size="9.00" fill="#ece1d7">apply_lsn → unblock gate</text>
</g>
<!-- outdir&#45;&gt;shd -->
<g id="edge41" class="edge">
<title>outdir&#45;&gt;shd</title>
<path fill="none" stroke="#6e6963" stroke-dasharray="5,2" d="M2105.02,-859.31C2177.78,-848.13 2308.51,-815.19 2308.51,-722.69 2308.51,-722.69 2308.51,-722.69 2308.51,-321.69 2308.51,-235.28 2308.51,-133.8 2308.51,-80.33"/>
<polygon fill="#6e6963" stroke="#6e6963" points="2312.01,-80.29 2308.51,-70.29 2305.01,-80.29 2312.01,-80.29"/>
<text text-anchor="middle" x="2349.51" y="-584.49" font-family="Helvetica,sans-Serif" font-size="9.00" fill="#ece1d7">restore_command</text>
</g>
<!-- retires&#45;&gt;toastio -->
<g id="edge47" class="edge">
<title>retires&#45;&gt;toastio</title>
<path fill="none" stroke="#6e6963" stroke-dasharray="5,2" d="M1531.16,-883.88C1511.43,-902.04 1478.19,-928.78 1443.51,-939.69 1320.93,-978.24 1171.51,-930.51 1087.99,-895.76"/>
<polygon fill="#6e6963" stroke="#6e6963" points="1089.2,-892.48 1078.63,-891.81 1086.48,-898.92 1089.2,-892.48"/>
<text text-anchor="middle" x="1260.51" y="-956.49" font-family="Helvetica,sans-Serif" font-size="9.00" fill="#ece1d7">resume&#45;floor flush</text>
</g>
</g>
</svg>
