<?xml version="1.0" encoding="UTF-8" standalone="no"?>
<!DOCTYPE svg PUBLIC "-//W3C//DTD SVG 1.1//EN"
 "http://www.w3.org/Graphics/SVG/1.1/DTD/svg11.dtd">
<!-- Generated by graphviz version 14.1.5 (0)
 -->
<!-- Title: internals Pages: 1 -->
<svg width="983pt" height="2163pt"
 viewBox="0.00 0.00 983.00 2163.00" xmlns="http://www.w3.org/2000/svg" xmlns:xlink="http://www.w3.org/1999/xlink">
<g id="graph0" class="graph" transform="scale(1 1) rotate(0) translate(4 2159.19)">
<title>internals</title>
<polygon fill="#272623" stroke="none" points="-4,4 -4,-2159.19 978.68,-2159.19 978.68,4 -4,4"/>
<text xml:space="preserve" text-anchor="middle" x="487.34" y="-2137.89" font-family="Helvetica,sans-Serif" font-size="14.00" fill="#ece1d7">walshadow internals — pipeline stages, taps &amp; caches</text>
<g id="clust1" class="cluster">
<title>cluster_ingress</title>
<path fill="#34302c" stroke="#4c4641" d="M185,-1756.69C185,-1756.69 483,-1756.69 483,-1756.69 489,-1756.69 495,-1762.69 495,-1768.69 495,-1768.69 495,-1988.69 495,-1988.69 495,-1994.69 489,-2000.69 483,-2000.69 483,-2000.69 185,-2000.69 185,-2000.69 179,-2000.69 173,-1994.69 173,-1988.69 173,-1988.69 173,-1768.69 173,-1768.69 173,-1762.69 179,-1756.69 185,-1756.69"/>
<text xml:space="preserve" text-anchor="middle" x="334" y="-1983.39" font-family="Helvetica,sans-Serif" font-size="14.00" fill="#ece1d7">① ingress (main loop, tokio)</text>
</g>
<g id="clust2" class="cluster">
<title>cluster_filter</title>
<path fill="#34302c" stroke="#4c4641" d="M224,-1353.38C224,-1353.38 526,-1353.38 526,-1353.38 532,-1353.38 538,-1359.38 538,-1365.38 538,-1365.38 538,-1723.69 538,-1723.69 538,-1729.69 532,-1735.69 526,-1735.69 526,-1735.69 224,-1735.69 224,-1735.69 218,-1735.69 212,-1729.69 212,-1723.69 212,-1723.69 212,-1365.38 212,-1365.38 212,-1359.38 218,-1353.38 224,-1353.38"/>
<text xml:space="preserve" text-anchor="middle" x="375" y="-1718.39" font-family="Helvetica,sans-Serif" font-size="14.00" fill="#ece1d7">② filter pipeline (sync, record cadence)</text>
</g>
<g id="clust3" class="cluster">
<title>cluster_fanout</title>
<path fill="#34302c" stroke="#4c4641" d="M20,-1244.88C20,-1244.88 496,-1244.88 496,-1244.88 502,-1244.88 508,-1250.88 508,-1256.88 508,-1256.88 508,-1320.38 508,-1320.38 508,-1326.38 502,-1332.38 496,-1332.38 496,-1332.38 20,-1332.38 20,-1332.38 14,-1332.38 8,-1326.38 8,-1320.38 8,-1320.38 8,-1256.88 8,-1256.88 8,-1250.88 14,-1244.88 20,-1244.88"/>
<text xml:space="preserve" text-anchor="middle" x="258" y="-1315.08" font-family="Helvetica,sans-Serif" font-size="14.00" fill="#ece1d7">③ CompositeRecordSink fan&#45;out (record cadence — ordering matters)</text>
</g>
<g id="clust4" class="cluster">
<title>cluster_decode</title>
<path fill="#34302c" stroke="#4c4641" d="M173,-810.75C173,-810.75 506,-810.75 506,-810.75 512,-810.75 518,-816.75 518,-822.75 518,-822.75 518,-1201.62 518,-1201.62 518,-1207.62 512,-1213.62 506,-1213.62 506,-1213.62 173,-1213.62 173,-1213.62 167,-1213.62 161,-1207.62 161,-1201.62 161,-1201.62 161,-822.75 161,-822.75 161,-816.75 167,-810.75 173,-810.75"/>
<text xml:space="preserve" text-anchor="middle" x="339.5" y="-1196.33" font-family="Helvetica,sans-Serif" font-size="14.00" fill="#ece1d7">④ decode + xact buffer (gated on shadow apply)</text>
</g>
<g id="clust5" class="cluster">
<title>cluster_ch</title>
<path fill="#34302c" stroke="#4c4641" d="M498,-504.75C498,-504.75 762,-504.75 762,-504.75 768,-504.75 774,-510.75 774,-516.75 774,-516.75 774,-767.5 774,-767.5 774,-773.5 768,-779.5 762,-779.5 762,-779.5 498,-779.5 498,-779.5 492,-779.5 486,-773.5 486,-767.5 486,-767.5 486,-516.75 486,-516.75 486,-510.75 492,-504.75 498,-504.75"/>
<text xml:space="preserve" text-anchor="middle" x="630" y="-762.2" font-family="Helvetica,sans-Serif" font-size="14.00" fill="#ece1d7">⑤ CH emitter (single query per replica)</text>
</g>
<g id="clust6" class="cluster">
<title>cluster_catalog</title>
<path fill="#34302c" stroke="#4c4641" d="M604,-1779.81C604,-1779.81 898,-1779.81 898,-1779.81 904,-1779.81 910,-1785.81 910,-1791.81 910,-1791.81 910,-2109.94 910,-2109.94 910,-2115.94 904,-2121.94 898,-2121.94 898,-2121.94 604,-2121.94 604,-2121.94 598,-2121.94 592,-2115.94 592,-2109.94 592,-2109.94 592,-1791.81 592,-1791.81 592,-1785.81 598,-1779.81 604,-1779.81"/>
<text xml:space="preserve" text-anchor="middle" x="751" y="-2104.64" font-family="Helvetica,sans-Serif" font-size="14.00" fill="#ece1d7">⑥ ShadowCatalog cache &#160;(Arc&lt;Mutex&lt;&gt;&gt;)</text>
</g>
<g id="clust7" class="cluster">
<title>cluster_walsender</title>
<path fill="#34302c" stroke="#4c4641" d="M593,-1131.25C593,-1131.25 847,-1131.25 847,-1131.25 853,-1131.25 859,-1137.25 859,-1143.25 859,-1143.25 859,-1320.38 859,-1320.38 859,-1326.38 853,-1332.38 847,-1332.38 847,-1332.38 593,-1332.38 593,-1332.38 587,-1332.38 581,-1326.38 581,-1320.38 581,-1320.38 581,-1143.25 581,-1143.25 581,-1137.25 587,-1131.25 593,-1131.25"/>
<text xml:space="preserve" text-anchor="middle" x="720" y="-1315.08" font-family="Helvetica,sans-Serif" font-size="14.00" fill="#ece1d7">⑦ walsender server &#160;(tokio task)</text>
</g>
<g id="clust8" class="cluster">
<title>cluster_disk</title>
<path fill="#34302c" stroke="#4c4641" d="M36,-692C36,-692 466,-692 466,-692 472,-692 478,-698 478,-704 478,-704 478,-767.5 478,-767.5 478,-773.5 472,-779.5 466,-779.5 466,-779.5 36,-779.5 36,-779.5 30,-779.5 24,-773.5 24,-767.5 24,-767.5 24,-704 24,-704 24,-698 30,-692 36,-692"/>
<text xml:space="preserve" text-anchor="middle" x="251" y="-762.2" font-family="Helvetica,sans-Serif" font-size="14.00" fill="#ece1d7">⑧ on&#45;disk caches</text>
</g>
<!-- src -->
<g id="node1" class="node">
<title>src</title>
<path fill="#3d3d54" stroke="#6e6963" d="M366.38,-2073.91C366.38,-2075.72 351.86,-2077.19 334,-2077.19 316.14,-2077.19 301.62,-2075.72 301.62,-2073.91 301.62,-2073.91 301.62,-2044.46 301.62,-2044.46 301.62,-2042.65 316.14,-2041.19 334,-2041.19 351.86,-2041.19 366.38,-2042.65 366.38,-2044.46 366.38,-2044.46 366.38,-2073.91 366.38,-2073.91"/>
<path fill="none" stroke="#6e6963" d="M366.38,-2073.91C366.38,-2072.11 351.86,-2070.64 334,-2070.64 316.14,-2070.64 301.62,-2072.11 301.62,-2073.91"/>
<text xml:space="preserve" text-anchor="middle" x="334" y="-2056.06" font-family="Helvetica,sans-Serif" font-size="10.00" fill="#ece1d7">source PG</text>
</g>
<!-- feed -->
<g id="node4" class="node">
<title>feed</title>
<path fill="#3d3d54" stroke="#6e6963" d="M404.62,-1967.44C404.62,-1967.44 263.38,-1967.44 263.38,-1967.44 257.38,-1967.44 251.38,-1961.44 251.38,-1955.44 251.38,-1955.44 251.38,-1920.44 251.38,-1920.44 251.38,-1914.44 257.38,-1908.44 263.38,-1908.44 263.38,-1908.44 404.62,-1908.44 404.62,-1908.44 410.62,-1908.44 416.62,-1914.44 416.62,-1920.44 416.62,-1920.44 416.62,-1955.44 416.62,-1955.44 416.62,-1961.44 410.62,-1967.44 404.62,-1967.44"/>
<text xml:space="preserve" text-anchor="middle" x="334" y="-1953.94" font-family="Helvetica,sans-Serif" font-size="10.00" fill="#ece1d7">SourceFeed::pump</text>
<text xml:space="preserve" text-anchor="middle" x="334" y="-1941.19" font-family="Helvetica,sans-Serif" font-size="10.00" fill="#ece1d7">wal&#45;rs ReplicationConn</text>
<text xml:space="preserve" text-anchor="middle" x="334" y="-1928.44" font-family="Helvetica,sans-Serif" font-size="10.00" fill="#ece1d7">IDENTIFY_SYSTEM +</text>
<text xml:space="preserve" text-anchor="middle" x="334" y="-1915.69" font-family="Helvetica,sans-Serif" font-size="10.00" fill="#ece1d7">START_REPLICATION PHYSICAL</text>
</g>
<!-- src&#45;&gt;feed -->
<g id="edge24" class="edge">
<title>src&#45;&gt;feed</title>
<path fill="none" stroke="#a1a9cc" stroke-width="2" d="M334,-2040.85C334,-2025.16 334,-2001.43 334,-1980.82"/>
<polygon fill="#a1a9cc" stroke="#a1a9cc" stroke-width="2" points="337.5,-1980.86 334,-1970.86 330.5,-1980.86 337.5,-1980.86"/>
</g>
<!-- shd -->
<g id="node2" class="node">
<title>shd</title>
<path fill="#3d4128" stroke="#6e6963" d="M721.38,-1078.14C721.38,-1081.33 690.73,-1083.92 653,-1083.92 615.27,-1083.92 584.62,-1081.33 584.62,-1078.14 584.62,-1078.14 584.62,-1026.11 584.62,-1026.11 584.62,-1022.92 615.27,-1020.33 653,-1020.33 690.73,-1020.33 721.38,-1022.92 721.38,-1026.11 721.38,-1026.11 721.38,-1078.14 721.38,-1078.14"/>
<path fill="none" stroke="#6e6963" d="M721.38,-1078.14C721.38,-1074.95 690.73,-1072.36 653,-1072.36 615.27,-1072.36 584.62,-1074.95 584.62,-1078.14"/>
<text xml:space="preserve" text-anchor="middle" x="653" y="-1061.75" font-family="Helvetica,sans-Serif" font-size="10.00" fill="#ece1d7">shadow PG</text>
<text xml:space="preserve" text-anchor="middle" x="653" y="-1049" font-family="Helvetica,sans-Serif" font-size="10.00" fill="#ece1d7">walreceiver + catalog</text>
<text xml:space="preserve" text-anchor="middle" x="653" y="-1036.25" font-family="Helvetica,sans-Serif" font-size="10.00" fill="#ece1d7">(pg_last_wal_replay_lsn)</text>
</g>
<!-- stat -->
<g id="node26" class="node">
<title>stat</title>
<path fill="#5d3f40" stroke="#6e6963" d="M839.12,-1299.12C839.12,-1299.12 748.88,-1299.12 748.88,-1299.12 742.88,-1299.12 736.88,-1293.12 736.88,-1287.12 736.88,-1287.12 736.88,-1264.88 736.88,-1264.88 736.88,-1258.88 742.88,-1252.88 748.88,-1252.88 748.88,-1252.88 839.12,-1252.88 839.12,-1252.88 845.12,-1252.88 851.12,-1258.88 851.12,-1264.88 851.12,-1264.88 851.12,-1287.12 851.12,-1287.12 851.12,-1293.12 845.12,-1299.12 839.12,-1299.12"/>
<text xml:space="preserve" text-anchor="middle" x="794" y="-1285.62" font-family="Helvetica,sans-Serif" font-size="10.00" fill="#ece1d7">rx &#39;r&#39; standby status</text>
<text xml:space="preserve" text-anchor="middle" x="794" y="-1272.88" font-family="Helvetica,sans-Serif" font-size="10.00" fill="#ece1d7">flush_lsn / apply_lsn</text>
<text xml:space="preserve" text-anchor="middle" x="794" y="-1260.12" font-family="Helvetica,sans-Serif" font-size="10.00" fill="#ece1d7">(min across conns)</text>
</g>
<!-- shd&#45;&gt;stat -->
<g id="edge26" class="edge">
<title>shd&#45;&gt;stat</title>
<path fill="none" stroke="#bd8183" stroke-dasharray="5,2" d="M587.68,-1081.93C571.42,-1092.92 561.72,-1106 574,-1119.25 598.09,-1145.23 704.21,-1110.59 733,-1131.25 768.66,-1156.84 783.62,-1207.56 789.79,-1241.39"/>
<polygon fill="#bd8183" stroke="#bd8183" points="786.31,-1241.79 791.38,-1251.09 793.22,-1240.65 786.31,-1241.79"/>
</g>
<!-- ch -->
<g id="node3" class="node">
<title>ch</title>
<path fill="#4d4128" stroke="#6e6963" d="M608.38,-468.48C608.38,-470.28 592.52,-471.75 573,-471.75 553.48,-471.75 537.62,-470.28 537.62,-468.48 537.62,-468.48 537.62,-439.02 537.62,-439.02 537.62,-437.22 553.48,-435.75 573,-435.75 592.52,-435.75 608.38,-437.22 608.38,-439.02 608.38,-439.02 608.38,-468.48 608.38,-468.48"/>
<path fill="none" stroke="#6e6963" d="M608.38,-468.48C608.38,-466.67 592.52,-465.2 573,-465.2 553.48,-465.2 537.62,-466.67 537.62,-468.48"/>
<text xml:space="preserve" text-anchor="middle" x="573" y="-450.62" font-family="Helvetica,sans-Serif" font-size="10.00" fill="#ece1d7">ClickHouse</text>
</g>
<!-- legend -->
<g id="node30" class="node">
<title>legend</title>
<path fill="#6e6963" stroke="none" d="M701.62,-394.75C701.62,-394.75 444.38,-394.75 444.38,-394.75 438.38,-394.75 432.38,-388.75 432.38,-382.75 432.38,-382.75 432.38,-12 432.38,-12 432.38,-6 438.38,0 444.38,0 444.38,0 701.62,0 701.62,0 707.62,0 713.62,-6 713.62,-12 713.62,-12 713.62,-382.75 713.62,-382.75 713.62,-388.75 707.62,-394.75 701.62,-394.75"/>
<polygon fill="#34302c" stroke="none" points="440.38,-368 440.38,-390.75 705.62,-390.75 705.62,-368 440.38,-368"/>
<polygon fill="none" stroke="#6e6963" points="440.38,-368 440.38,-390.75 705.62,-390.75 705.62,-368 440.38,-368"/>
<text xml:space="preserve" text-anchor="start" x="529.88" y="-377.25" font-family="Helvetica,sans-Serif" font-weight="bold" font-size="10.00" fill="#ece1d7">node fill — role</text>
<polygon fill="#3d3d54" stroke="none" points="440.38,-345.25 440.38,-368 468.38,-368 468.38,-345.25 440.38,-345.25"/>
<polygon fill="none" stroke="#6e6963" points="440.38,-345.25 440.38,-368 468.38,-368 468.38,-345.25 440.38,-345.25"/>
<polygon fill="none" stroke="#6e6963" points="468.38,-345.25 468.38,-368 705.62,-368 705.62,-345.25 468.38,-345.25"/>
<text xml:space="preserve" text-anchor="start" x="540.5" y="-353.25" font-family="Helvetica,sans-Serif" font-size="10.00" fill="#ece1d7">source PG / ingress</text>
<polygon fill="#4d3a28" stroke="none" points="440.38,-322.5 440.38,-345.25 468.38,-345.25 468.38,-322.5 440.38,-322.5"/>
<polygon fill="none" stroke="#6e6963" points="440.38,-322.5 440.38,-345.25 468.38,-345.25 468.38,-322.5 440.38,-322.5"/>
<polygon fill="none" stroke="#6e6963" points="468.38,-322.5 468.38,-345.25 705.62,-345.25 705.62,-322.5 468.38,-322.5"/>
<text xml:space="preserve" text-anchor="start" x="525.88" y="-330.5" font-family="Helvetica,sans-Serif" font-size="10.00" fill="#ece1d7">walshadow filter pipeline</text>
<polygon fill="#4d3340" stroke="none" points="440.38,-299.75 440.38,-322.5 468.38,-322.5 468.38,-299.75 440.38,-299.75"/>
<polygon fill="none" stroke="#6e6963" points="440.38,-299.75 440.38,-322.5 468.38,-322.5 468.38,-299.75 440.38,-299.75"/>
<polygon fill="none" stroke="#6e6963" points="468.38,-299.75 468.38,-322.5 705.62,-322.5 705.62,-299.75 468.38,-299.75"/>
<text xml:space="preserve" text-anchor="start" x="473.38" y="-307.75" font-family="Helvetica,sans-Serif" font-size="10.00" fill="#ece1d7">walshadow output sinks (walsender, segment)</text>
<polygon fill="#4d4128" stroke="none" points="440.38,-277 440.38,-299.75 468.38,-299.75 468.38,-277 440.38,-277"/>
<polygon fill="none" stroke="#6e6963" points="440.38,-277 440.38,-299.75 468.38,-299.75 468.38,-277 440.38,-277"/>
<polygon fill="none" stroke="#6e6963" points="468.38,-277 468.38,-299.75 705.62,-299.75 705.62,-277 468.38,-277"/>
<text xml:space="preserve" text-anchor="start" x="505.25" y="-285" font-family="Helvetica,sans-Serif" font-size="10.00" fill="#ece1d7">walshadow decoder + xact buffer</text>
<polygon fill="#4d4d28" stroke="none" points="440.38,-254.25 440.38,-277 468.38,-277 468.38,-254.25 440.38,-254.25"/>
<polygon fill="none" stroke="#6e6963" points="440.38,-254.25 440.38,-277 468.38,-277 468.38,-254.25 440.38,-254.25"/>
<polygon fill="none" stroke="#6e6963" points="468.38,-254.25 468.38,-277 705.62,-277 705.62,-254.25 468.38,-254.25"/>
<text xml:space="preserve" text-anchor="start" x="504.5" y="-262.25" font-family="Helvetica,sans-Serif" font-size="10.00" fill="#ece1d7">walshadow ShadowCatalog cache</text>
<polygon fill="#5d3f40" stroke="none" points="440.38,-231.5 440.38,-254.25 468.38,-254.25 468.38,-231.5 440.38,-231.5"/>
<polygon fill="none" stroke="#6e6963" points="440.38,-231.5 440.38,-254.25 468.38,-254.25 468.38,-231.5 440.38,-231.5"/>
<polygon fill="none" stroke="#6e6963" points="468.38,-231.5 468.38,-254.25 705.62,-254.25 705.62,-231.5 468.38,-231.5"/>
<text xml:space="preserve" text-anchor="start" x="516.12" y="-239.5" font-family="Helvetica,sans-Serif" font-size="10.00" fill="#ece1d7">walshadow walsender server</text>
<polygon fill="#5d4628" stroke="none" points="440.38,-208.75 440.38,-231.5 468.38,-231.5 468.38,-208.75 440.38,-208.75"/>
<polygon fill="none" stroke="#6e6963" points="440.38,-208.75 440.38,-231.5 468.38,-231.5 468.38,-208.75 440.38,-208.75"/>
<polygon fill="none" stroke="#6e6963" points="468.38,-208.75 468.38,-231.5 705.62,-231.5 705.62,-208.75 468.38,-208.75"/>
<text xml:space="preserve" text-anchor="start" x="531.5" y="-216.75" font-family="Helvetica,sans-Serif" font-size="10.00" fill="#ece1d7">walshadow CH emitter</text>
<polygon fill="#4d3850" stroke="none" points="440.38,-186 440.38,-208.75 468.38,-208.75 468.38,-186 440.38,-186"/>
<polygon fill="none" stroke="#6e6963" points="440.38,-186 440.38,-208.75 468.38,-208.75 468.38,-186 440.38,-186"/>
<polygon fill="none" stroke="#6e6963" points="468.38,-186 468.38,-208.75 705.62,-208.75 705.62,-186 468.38,-186"/>
<text xml:space="preserve" text-anchor="start" x="549.88" y="-194" font-family="Helvetica,sans-Serif" font-size="10.00" fill="#ece1d7">on&#45;disk artifact</text>
<polygon fill="#3d4128" stroke="none" points="440.38,-163.25 440.38,-186 468.38,-186 468.38,-163.25 440.38,-163.25"/>
<polygon fill="none" stroke="#6e6963" points="440.38,-163.25 440.38,-186 468.38,-186 468.38,-163.25 440.38,-163.25"/>
<polygon fill="none" stroke="#6e6963" points="468.38,-163.25 468.38,-186 705.62,-186 705.62,-163.25 468.38,-163.25"/>
<text xml:space="preserve" text-anchor="start" x="545.75" y="-171.25" font-family="Helvetica,sans-Serif" font-size="10.00" fill="#ece1d7">shadow Postgres</text>
<polygon fill="#34302c" stroke="none" points="440.38,-140.5 440.38,-163.25 705.62,-163.25 705.62,-140.5 440.38,-140.5"/>
<polygon fill="none" stroke="#6e6963" points="440.38,-140.5 440.38,-163.25 705.62,-163.25 705.62,-140.5 440.38,-140.5"/>
<text xml:space="preserve" text-anchor="start" x="539.25" y="-149.75" font-family="Helvetica,sans-Serif" font-weight="bold" font-size="10.00" fill="#ece1d7">edge colour</text>
<polygon fill="none" stroke="#6e6963" points="440.38,-117.75 440.38,-140.5 468.38,-140.5 468.38,-117.75 440.38,-117.75"/>
<text xml:space="preserve" text-anchor="start" x="448.38" y="-127" font-family="Helvetica,sans-Serif" font-weight="bold" font-size="10.00" fill="#a1a9cc">━━</text>
<polygon fill="none" stroke="#6e6963" points="468.38,-117.75 468.38,-140.5 705.62,-140.5 705.62,-117.75 468.38,-117.75"/>
<text xml:space="preserve" text-anchor="start" x="527.38" y="-125.75" font-family="Helvetica,sans-Serif" font-size="10.00" fill="#ece1d7">source replication frame</text>
<polygon fill="none" stroke="#6e6963" points="440.38,-95 440.38,-117.75 468.38,-117.75 468.38,-95 440.38,-95"/>
<text xml:space="preserve" text-anchor="start" x="448.38" y="-104.25" font-family="Helvetica,sans-Serif" font-weight="bold" font-size="10.00" fill="#bd8183">━━</text>
<polygon fill="none" stroke="#6e6963" points="468.38,-95 468.38,-117.75 705.62,-117.75 705.62,-95 468.38,-95"/>
<text xml:space="preserve" text-anchor="start" x="524.38" y="-103" font-family="Helvetica,sans-Serif" font-size="10.00" fill="#ece1d7">walsender wire (hot path)</text>
<polygon fill="none" stroke="#6e6963" points="440.38,-72.25 440.38,-95 468.38,-95 468.38,-72.25 440.38,-72.25"/>
<text xml:space="preserve" text-anchor="start" x="448.38" y="-81.5" font-family="Helvetica,sans-Serif" font-weight="bold" font-size="10.00" fill="#cba85e">━━</text>
<polygon fill="none" stroke="#6e6963" points="468.38,-72.25 468.38,-95 705.62,-95 705.62,-72.25 468.38,-72.25"/>
<text xml:space="preserve" text-anchor="start" x="540.12" y="-80.25" font-family="Helvetica,sans-Serif" font-size="10.00" fill="#ece1d7">libpq catalog query</text>
<polygon fill="none" stroke="#6e6963" points="440.38,-49.5 440.38,-72.25 468.38,-72.25 468.38,-49.5 440.38,-49.5"/>
<text xml:space="preserve" text-anchor="start" x="448.38" y="-58.75" font-family="Helvetica,sans-Serif" font-weight="bold" font-size="10.00" fill="#bf8c5f">━━</text>
<polygon fill="none" stroke="#6e6963" points="468.38,-49.5 468.38,-72.25 705.62,-72.25 705.62,-49.5 468.38,-49.5"/>
<text xml:space="preserve" text-anchor="start" x="562.25" y="-57.5" font-family="Helvetica,sans-Serif" font-size="10.00" fill="#ece1d7">CH Native</text>
<polygon fill="none" stroke="#6e6963" points="440.38,-26.75 440.38,-49.5 468.38,-49.5 468.38,-26.75 440.38,-26.75"/>
<text xml:space="preserve" text-anchor="start" x="448.75" y="-36" font-family="Helvetica,sans-Serif" font-weight="bold" font-size="10.00" fill="#b380b0">···</text>
<polygon fill="none" stroke="#6e6963" points="468.38,-26.75 468.38,-49.5 705.62,-49.5 705.62,-26.75 468.38,-26.75"/>
<text xml:space="preserve" text-anchor="start" x="547.25" y="-34.75" font-family="Helvetica,sans-Serif" font-size="10.00" fill="#ece1d7">cursor durability</text>
<polygon fill="none" stroke="#6e6963" points="440.38,-4 440.38,-26.75 468.38,-26.75 468.38,-4 440.38,-4"/>
<text xml:space="preserve" text-anchor="start" x="448.38" y="-13.25" font-family="Helvetica,sans-Serif" font-weight="bold" font-size="10.00" fill="#6e6963">┄┄</text>
<polygon fill="none" stroke="#6e6963" points="468.38,-4 468.38,-26.75 705.62,-26.75 705.62,-4 468.38,-4"/>
<text xml:space="preserve" text-anchor="start" x="512" y="-12" font-family="Helvetica,sans-Serif" font-size="10.00" fill="#ece1d7">filesystem (restore_command)</text>
</g>
<!-- ch&#45;&gt;legend -->
<!-- chunks -->
<g id="node5" class="node">
<title>chunks</title>
<path fill="#3d3d54" stroke="#6e6963" d="M474.66,-1857.19C474.66,-1857.19 255.81,-1857.19 255.81,-1857.19 249.81,-1857.19 240.45,-1852.22 237.09,-1847.24 237.09,-1847.24 188.05,-1774.63 188.05,-1774.63 184.7,-1769.66 187.34,-1764.69 193.34,-1764.69 193.34,-1764.69 412.19,-1764.69 412.19,-1764.69 418.19,-1764.69 427.55,-1769.66 430.91,-1774.63 430.91,-1774.63 479.95,-1847.24 479.95,-1847.24 483.3,-1852.22 480.66,-1857.19 474.66,-1857.19"/>
<text xml:space="preserve" text-anchor="middle" x="334" y="-1820.56" font-family="Helvetica,sans-Serif" font-size="10.00" fill="#ece1d7">WalChunk stream</text>
<text xml:space="preserve" text-anchor="middle" x="334" y="-1807.81" font-family="Helvetica,sans-Serif" font-size="10.00" fill="#ece1d7">(start_lsn, server_wal_end,</text>
<text xml:space="preserve" text-anchor="middle" x="334" y="-1795.06" font-family="Helvetica,sans-Serif" font-size="10.00" fill="#ece1d7"> bytes)</text>
</g>
<!-- feed&#45;&gt;chunks -->
<g id="edge1" class="edge">
<title>feed&#45;&gt;chunks</title>
<path fill="none" stroke="#c1a78e" d="M334,-1907.95C334,-1896.23 334,-1882.27 334,-1868.69"/>
<polygon fill="#c1a78e" stroke="#c1a78e" points="337.5,-1868.93 334,-1858.93 330.5,-1868.93 337.5,-1868.93"/>
</g>
<!-- walker -->
<g id="node6" class="node">
<title>walker</title>
<path fill="#4d3a28" stroke="#6e6963" d="M393.75,-1702.44C393.75,-1702.44 274.25,-1702.44 274.25,-1702.44 268.25,-1702.44 262.25,-1696.44 262.25,-1690.44 262.25,-1690.44 262.25,-1668.19 262.25,-1668.19 262.25,-1662.19 268.25,-1656.19 274.25,-1656.19 274.25,-1656.19 393.75,-1656.19 393.75,-1656.19 399.75,-1656.19 405.75,-1662.19 405.75,-1668.19 405.75,-1668.19 405.75,-1690.44 405.75,-1690.44 405.75,-1696.44 399.75,-1702.44 393.75,-1702.44"/>
<text xml:space="preserve" text-anchor="middle" x="334" y="-1688.94" font-family="Helvetica,sans-Serif" font-size="10.00" fill="#ece1d7">StreamingWalker</text>
<text xml:space="preserve" text-anchor="middle" x="334" y="-1676.19" font-family="Helvetica,sans-Serif" font-size="10.00" fill="#ece1d7">page&#45;state machine</text>
<text xml:space="preserve" text-anchor="middle" x="334" y="-1663.44" font-family="Helvetica,sans-Serif" font-size="10.00" fill="#ece1d7">record stitch across pages</text>
</g>
<!-- chunks&#45;&gt;walker -->
<g id="edge6" class="edge">
<title>chunks&#45;&gt;walker</title>
<path fill="none" stroke="#a1a9cc" stroke-width="2" d="M334,-1764.24C334,-1748.28 334,-1730.62 334,-1715.63"/>
<polygon fill="#a1a9cc" stroke="#a1a9cc" stroke-width="2" points="337.5,-1715.77 334,-1705.77 330.5,-1715.77 337.5,-1715.77"/>
</g>
<!-- decide -->
<g id="node8" class="node">
<title>decide</title>
<path fill="#4d3a28" stroke="#6e6963" d="M370.12,-1615.19C370.12,-1615.19 297.88,-1615.19 297.88,-1615.19 291.88,-1615.19 285.88,-1609.19 285.88,-1603.19 285.88,-1603.19 285.88,-1568.19 285.88,-1568.19 285.88,-1562.19 291.88,-1556.19 297.88,-1556.19 297.88,-1556.19 370.12,-1556.19 370.12,-1556.19 376.12,-1556.19 382.12,-1562.19 382.12,-1568.19 382.12,-1568.19 382.12,-1603.19 382.12,-1603.19 382.12,-1609.19 376.12,-1615.19 370.12,-1615.19"/>
<text xml:space="preserve" text-anchor="middle" x="334" y="-1601.69" font-family="Helvetica,sans-Serif" font-size="10.00" fill="#ece1d7">Filter::decide</text>
<text xml:space="preserve" text-anchor="middle" x="334" y="-1588.94" font-family="Helvetica,sans-Serif" font-size="10.00" fill="#ece1d7">Keep catalog</text>
<text xml:space="preserve" text-anchor="middle" x="334" y="-1576.19" font-family="Helvetica,sans-Serif" font-size="10.00" fill="#ece1d7">Drop user&#45;heap</text>
<text xml:space="preserve" text-anchor="middle" x="334" y="-1563.44" font-family="Helvetica,sans-Serif" font-size="10.00" fill="#ece1d7">Empty → reclass</text>
</g>
<!-- walker&#45;&gt;decide -->
<g id="edge2" class="edge">
<title>walker&#45;&gt;decide</title>
<path fill="none" stroke="#c1a78e" d="M334,-1656.13C334,-1647.38 334,-1637.04 334,-1627.05"/>
<polygon fill="#c1a78e" stroke="#c1a78e" points="337.5,-1627.11 334,-1617.11 330.5,-1627.11 337.5,-1627.11"/>
</g>
<!-- track -->
<g id="node7" class="node">
<title>track</title>
<path fill="#4d3a28" stroke="#6e6963" d="M517.62,-1504.94C517.62,-1504.94 394.38,-1504.94 394.38,-1504.94 388.38,-1504.94 382.38,-1498.94 382.38,-1492.94 382.38,-1492.94 382.38,-1470.69 382.38,-1470.69 382.38,-1464.69 388.38,-1458.69 394.38,-1458.69 394.38,-1458.69 517.62,-1458.69 517.62,-1458.69 523.62,-1458.69 529.62,-1464.69 529.62,-1470.69 529.62,-1470.69 529.62,-1492.94 529.62,-1492.94 529.62,-1498.94 523.62,-1504.94 517.62,-1504.94"/>
<text xml:space="preserve" text-anchor="middle" x="456" y="-1491.44" font-family="Helvetica,sans-Serif" font-size="10.00" fill="#ece1d7">CatalogTracker</text>
<text xml:space="preserve" text-anchor="middle" x="456" y="-1478.69" font-family="Helvetica,sans-Serif" font-size="10.00" fill="#ece1d7">relfilenode set</text>
<text xml:space="preserve" text-anchor="middle" x="456" y="-1465.94" font-family="Helvetica,sans-Serif" font-size="10.00" fill="#ece1d7">(relmap + pg_class writes)</text>
</g>
<!-- inval -->
<g id="node23" class="node">
<title>inval</title>
<path fill="#4d4d28" stroke="#6e6963" d="M752.88,-2088.69C752.88,-2088.69 673.12,-2088.69 673.12,-2088.69 667.12,-2088.69 661.12,-2082.69 661.12,-2076.69 661.12,-2076.69 661.12,-2041.69 661.12,-2041.69 661.12,-2035.69 667.12,-2029.69 673.12,-2029.69 673.12,-2029.69 752.88,-2029.69 752.88,-2029.69 758.88,-2029.69 764.88,-2035.69 764.88,-2041.69 764.88,-2041.69 764.88,-2076.69 764.88,-2076.69 764.88,-2082.69 758.88,-2088.69 752.88,-2088.69"/>
<text xml:space="preserve" text-anchor="middle" x="713" y="-2075.19" font-family="Helvetica,sans-Serif" font-size="10.00" fill="#ece1d7">invalidation_drain</text>
<text xml:space="preserve" text-anchor="middle" x="713" y="-2062.44" font-family="Helvetica,sans-Serif" font-size="10.00" fill="#ece1d7">(tokio task)</text>
<text xml:space="preserve" text-anchor="middle" x="713" y="-2049.69" font-family="Helvetica,sans-Serif" font-size="10.00" fill="#ece1d7">bump generation</text>
<text xml:space="preserve" text-anchor="middle" x="713" y="-2036.94" font-family="Helvetica,sans-Serif" font-size="10.00" fill="#ece1d7">on catalog write</text>
</g>
<!-- track&#45;&gt;inval -->
<g id="edge20" class="edge">
<title>track&#45;&gt;inval</title>
<path fill="none" stroke="#cba85e" stroke-dasharray="5,2" d="M453.35,-1505.21C448.81,-1552.72 443.93,-1665.69 488,-1744.69 492.16,-1752.14 497.51,-1750.15 503,-1756.69 582.62,-1851.38 556.11,-1907.08 637,-2000.69 643.67,-2008.41 651.54,-2015.75 659.65,-2022.44"/>
<polygon fill="#cba85e" stroke="#cba85e" points="657.28,-2025.04 667.3,-2028.5 661.63,-2019.55 657.28,-2025.04"/>
</g>
<!-- decide&#45;&gt;track -->
<g id="edge5" class="edge">
<title>decide&#45;&gt;track</title>
<path fill="none" stroke="#c1a78e" stroke-dasharray="5,2" d="M361.85,-1547.34C368.62,-1539.46 376.19,-1531.54 384,-1524.94 389.72,-1520.1 396.07,-1515.5 402.56,-1511.23"/>
<polygon fill="#c1a78e" stroke="#c1a78e" points="355.61,-1554.87 358.52,-1544.3 358.02,-1551.96 361.99,-1547.17 361.99,-1547.17 361.99,-1547.17 358.02,-1551.96 365.45,-1550.04 355.61,-1554.87"/>
<polygon fill="#c1a78e" stroke="#c1a78e" points="404.22,-1514.32 410.83,-1506.04 400.5,-1508.4 404.22,-1514.32"/>
</g>
<!-- rewrite -->
<g id="node9" class="node">
<title>rewrite</title>
<path fill="#4d3a28" stroke="#6e6963" d="M338.38,-1504.94C338.38,-1504.94 231.62,-1504.94 231.62,-1504.94 225.62,-1504.94 219.62,-1498.94 219.62,-1492.94 219.62,-1492.94 219.62,-1470.69 219.62,-1470.69 219.62,-1464.69 225.62,-1458.69 231.62,-1458.69 231.62,-1458.69 338.38,-1458.69 338.38,-1458.69 344.38,-1458.69 350.38,-1464.69 350.38,-1470.69 350.38,-1470.69 350.38,-1492.94 350.38,-1492.94 350.38,-1498.94 344.38,-1504.94 338.38,-1504.94"/>
<text xml:space="preserve" text-anchor="middle" x="285" y="-1491.44" font-family="Helvetica,sans-Serif" font-size="10.00" fill="#ece1d7">rewrite::noop_replace</text>
<text xml:space="preserve" text-anchor="middle" x="285" y="-1478.69" font-family="Helvetica,sans-Serif" font-size="10.00" fill="#ece1d7">in&#45;place at byte_ranges</text>
<text xml:space="preserve" text-anchor="middle" x="285" y="-1465.94" font-family="Helvetica,sans-Serif" font-size="10.00" fill="#ece1d7">+ CRC32C recompute</text>
</g>
<!-- decide&#45;&gt;rewrite -->
<g id="edge3" class="edge">
<title>decide&#45;&gt;rewrite</title>
<path fill="none" stroke="#c1a78e" d="M320.09,-1555.77C314.08,-1543.27 307.01,-1528.58 300.8,-1515.67"/>
<polygon fill="#c1a78e" stroke="#c1a78e" points="303.97,-1514.19 296.49,-1506.69 297.67,-1517.22 303.97,-1514.19"/>
</g>
<!-- segbuf -->
<g id="node10" class="node">
<title>segbuf</title>
<path fill="#4d3a28" stroke="#6e6963" d="M348.5,-1403.25C348.5,-1405.56 320.04,-1407.44 285,-1407.44 249.96,-1407.44 221.5,-1405.56 221.5,-1403.25 221.5,-1403.25 221.5,-1365.56 221.5,-1365.56 221.5,-1363.25 249.96,-1361.38 285,-1361.38 320.04,-1361.38 348.5,-1363.25 348.5,-1365.56 348.5,-1365.56 348.5,-1403.25 348.5,-1403.25"/>
<path fill="none" stroke="#6e6963" d="M348.5,-1403.25C348.5,-1400.94 320.04,-1399.06 285,-1399.06 249.96,-1399.06 221.5,-1400.94 221.5,-1403.25"/>
<text xml:space="preserve" text-anchor="middle" x="285" y="-1387.66" font-family="Helvetica,sans-Serif" font-size="10.00" fill="#ece1d7">16 MiB segment buffer</text>
<text xml:space="preserve" text-anchor="middle" x="285" y="-1374.91" font-family="Helvetica,sans-Serif" font-size="10.00" fill="#ece1d7">(rewritten image)</text>
</g>
<!-- rewrite&#45;&gt;segbuf -->
<g id="edge4" class="edge">
<title>rewrite&#45;&gt;segbuf</title>
<path fill="none" stroke="#c1a78e" d="M285,-1458.2C285,-1446.56 285,-1432.13 285,-1419.19"/>
<polygon fill="#c1a78e" stroke="#c1a78e" points="288.5,-1419.37 285,-1409.37 281.5,-1419.37 288.5,-1419.37"/>
</g>
<!-- bytesink -->
<g id="node11" class="node">
<title>bytesink</title>
<path fill="#4d3340" stroke="#6e6963" d="M479.25,-1294C479.25,-1294 380.75,-1294 380.75,-1294 374.75,-1294 368.75,-1288 368.75,-1282 368.75,-1282 368.75,-1270 368.75,-1270 368.75,-1264 374.75,-1258 380.75,-1258 380.75,-1258 479.25,-1258 479.25,-1258 485.25,-1258 491.25,-1264 491.25,-1270 491.25,-1270 491.25,-1282 491.25,-1282 491.25,-1288 485.25,-1294 479.25,-1294"/>
<text xml:space="preserve" text-anchor="middle" x="430" y="-1279.25" font-family="Helvetica,sans-Serif" font-size="10.00" fill="#ece1d7">❶ ShadowStreamSink</text>
<text xml:space="preserve" text-anchor="middle" x="430" y="-1266.5" font-family="Helvetica,sans-Serif" font-size="10.00" fill="#ece1d7">on_record_bytes</text>
</g>
<!-- segbuf&#45;&gt;bytesink -->
<g id="edge7" class="edge">
<title>segbuf&#45;&gt;bytesink</title>
<path fill="none" stroke="#bd8183" stroke-width="2" d="M315.4,-1361.1C338.98,-1343.79 371.66,-1319.81 396.09,-1301.89"/>
<polygon fill="#bd8183" stroke="#bd8183" stroke-width="2" points="397.9,-1304.9 403.89,-1296.16 393.76,-1299.25 397.9,-1304.9"/>
</g>
<!-- recsink -->
<g id="node12" class="node">
<title>recsink</title>
<path fill="#4d4128" stroke="#6e6963" d="M324.5,-1299.12C324.5,-1299.12 245.5,-1299.12 245.5,-1299.12 239.5,-1299.12 233.5,-1293.12 233.5,-1287.12 233.5,-1287.12 233.5,-1264.88 233.5,-1264.88 233.5,-1258.88 239.5,-1252.88 245.5,-1252.88 245.5,-1252.88 324.5,-1252.88 324.5,-1252.88 330.5,-1252.88 336.5,-1258.88 336.5,-1264.88 336.5,-1264.88 336.5,-1287.12 336.5,-1287.12 336.5,-1293.12 330.5,-1299.12 324.5,-1299.12"/>
<text xml:space="preserve" text-anchor="middle" x="285" y="-1285.62" font-family="Helvetica,sans-Serif" font-size="10.00" fill="#ece1d7">❷ DecoderSink</text>
<text xml:space="preserve" text-anchor="middle" x="285" y="-1272.88" font-family="Helvetica,sans-Serif" font-size="10.00" fill="#ece1d7">on_record</text>
<text xml:space="preserve" text-anchor="middle" x="285" y="-1260.12" font-family="Helvetica,sans-Serif" font-size="10.00" fill="#ece1d7">(if Drop &amp;&amp; Heap)</text>
</g>
<!-- segbuf&#45;&gt;recsink -->
<g id="edge8" class="edge">
<title>segbuf&#45;&gt;recsink</title>
<path fill="none" stroke="#c1a78e" d="M285,-1361.1C285,-1346.49 285,-1327.11 285,-1310.65"/>
<polygon fill="#c1a78e" stroke="#c1a78e" points="288.5,-1310.79 285,-1300.79 281.5,-1310.79 288.5,-1310.79"/>
</g>
<!-- segsink -->
<g id="node13" class="node">
<title>segsink</title>
<path fill="#4d3340" stroke="#6e6963" d="M158.38,-1299.12C158.38,-1299.12 63.62,-1299.12 63.62,-1299.12 57.62,-1299.12 51.62,-1293.12 51.62,-1287.12 51.62,-1287.12 51.62,-1264.88 51.62,-1264.88 51.62,-1258.88 57.62,-1252.88 63.62,-1252.88 63.62,-1252.88 158.38,-1252.88 158.38,-1252.88 164.38,-1252.88 170.38,-1258.88 170.38,-1264.88 170.38,-1264.88 170.38,-1287.12 170.38,-1287.12 170.38,-1293.12 164.38,-1299.12 158.38,-1299.12"/>
<text xml:space="preserve" text-anchor="middle" x="111" y="-1285.62" font-family="Helvetica,sans-Serif" font-size="10.00" fill="#ece1d7">❸ DirSegmentSink</text>
<text xml:space="preserve" text-anchor="middle" x="111" y="-1272.88" font-family="Helvetica,sans-Serif" font-size="10.00" fill="#ece1d7">on_segment</text>
<text xml:space="preserve" text-anchor="middle" x="111" y="-1260.12" font-family="Helvetica,sans-Serif" font-size="10.00" fill="#ece1d7">(at 16 MiB boundary)</text>
</g>
<!-- segbuf&#45;&gt;segsink -->
<g id="edge9" class="edge">
<title>segbuf&#45;&gt;segsink</title>
<path fill="none" stroke="#c1a78e" stroke-dasharray="5,2" d="M248.52,-1361.1C222.05,-1344.91 186.02,-1322.88 157.48,-1305.42"/>
<polygon fill="#c1a78e" stroke="#c1a78e" points="159.38,-1302.48 149.02,-1300.25 155.72,-1308.45 159.38,-1302.48"/>
</g>
<!-- sendq -->
<g id="node25" class="node">
<title>sendq</title>
<path fill="#5d3f40" stroke="#6e6963" d="M704.5,-1185.5C704.5,-1185.5 601.5,-1185.5 601.5,-1185.5 595.5,-1185.5 589.5,-1179.5 589.5,-1173.5 589.5,-1173.5 589.5,-1151.25 589.5,-1151.25 589.5,-1145.25 595.5,-1139.25 601.5,-1139.25 601.5,-1139.25 704.5,-1139.25 704.5,-1139.25 710.5,-1139.25 716.5,-1145.25 716.5,-1151.25 716.5,-1151.25 716.5,-1173.5 716.5,-1173.5 716.5,-1179.5 710.5,-1185.5 704.5,-1185.5"/>
<text xml:space="preserve" text-anchor="middle" x="653" y="-1172" font-family="Helvetica,sans-Serif" font-size="10.00" fill="#ece1d7">per&#45;conn send queue</text>
<text xml:space="preserve" text-anchor="middle" x="653" y="-1159.25" font-family="Helvetica,sans-Serif" font-size="10.00" fill="#ece1d7">&#39;w&#39; XLogData @ record</text>
<text xml:space="preserve" text-anchor="middle" x="653" y="-1146.5" font-family="Helvetica,sans-Serif" font-size="10.00" fill="#ece1d7">&#39;k&#39; keepalive on idle</text>
</g>
<!-- bytesink&#45;&gt;sendq -->
<g id="edge22" class="edge">
<title>bytesink&#45;&gt;sendq</title>
<path fill="none" stroke="#bd8183" stroke-width="2" d="M464.84,-1257.56C500.04,-1239.94 554.98,-1212.44 596.43,-1191.69"/>
<polygon fill="#bd8183" stroke="#bd8183" stroke-width="2" points="597.92,-1194.86 605.3,-1187.25 594.79,-1188.6 597.92,-1194.86"/>
</g>
<!-- catgate -->
<g id="node14" class="node">
<title>catgate</title>
<path fill="#4d4128" stroke="#6e6963" d="M372.12,-1180.38C372.12,-1180.38 245.88,-1180.38 245.88,-1180.38 239.88,-1180.38 233.88,-1174.38 233.88,-1168.38 233.88,-1168.38 233.88,-1156.38 233.88,-1156.38 233.88,-1150.38 239.88,-1144.38 245.88,-1144.38 245.88,-1144.38 372.12,-1144.38 372.12,-1144.38 378.12,-1144.38 384.12,-1150.38 384.12,-1156.38 384.12,-1156.38 384.12,-1168.38 384.12,-1168.38 384.12,-1174.38 378.12,-1180.38 372.12,-1180.38"/>
<text xml:space="preserve" text-anchor="middle" x="309" y="-1165.62" font-family="Helvetica,sans-Serif" font-size="10.00" fill="#ece1d7">ShadowCatalog::relation_at</text>
<text xml:space="preserve" text-anchor="middle" x="309" y="-1152.88" font-family="Helvetica,sans-Serif" font-size="10.00" fill="#ece1d7">wait_for_replay(at_lsn)</text>
</g>
<!-- recsink&#45;&gt;catgate -->
<g id="edge13" class="edge">
<title>recsink&#45;&gt;catgate</title>
<path fill="none" stroke="#c1a78e" d="M289.86,-1252.41C293.6,-1234.98 298.81,-1210.75 302.85,-1191.96"/>
<polygon fill="#c1a78e" stroke="#c1a78e" points="306.25,-1192.8 304.93,-1182.29 299.41,-1191.33 306.25,-1192.8"/>
</g>
<!-- outdir -->
<g id="node27" class="node">
<title>outdir</title>
<polygon fill="#4d3850" stroke="#6e6963" points="120,-746.25 32,-746.25 32,-700 126,-700 126,-740.25 120,-746.25"/>
<polyline fill="none" stroke="#6e6963" points="120,-746.25 120,-740.25"/>
<polyline fill="none" stroke="#6e6963" points="126,-740.25 120,-740.25"/>
<text xml:space="preserve" text-anchor="middle" x="79" y="-732.75" font-family="Helvetica,sans-Serif" font-size="10.00" fill="#ece1d7">out/&lt;seg&gt;</text>
<text xml:space="preserve" text-anchor="middle" x="79" y="-720" font-family="Helvetica,sans-Serif" font-size="10.00" fill="#ece1d7">16 MiB filtered</text>
<text xml:space="preserve" text-anchor="middle" x="79" y="-707.25" font-family="Helvetica,sans-Serif" font-size="10.00" fill="#ece1d7">+ manifest.json</text>
</g>
<!-- segsink&#45;&gt;outdir -->
<g id="edge28" class="edge">
<title>segsink&#45;&gt;outdir</title>
<path fill="none" stroke="#c1a78e" d="M100.52,-1252.45C91.19,-1230.28 79,-1195.23 79,-1163.38 79,-1163.38 79,-1163.38 79,-840.88 79,-812.91 79,-781.18 79,-757.87"/>
<polygon fill="#c1a78e" stroke="#c1a78e" points="82.5,-758.02 79,-748.02 75.5,-758.02 82.5,-758.02"/>
</g>
<!-- decoder -->
<g id="node15" class="node">
<title>decoder</title>
<path fill="#4d4128" stroke="#6e6963" d="M384.12,-1088C384.12,-1088 233.88,-1088 233.88,-1088 227.88,-1088 221.88,-1082 221.88,-1076 221.88,-1076 221.88,-1028.25 221.88,-1028.25 221.88,-1022.25 227.88,-1016.25 233.88,-1016.25 233.88,-1016.25 384.12,-1016.25 384.12,-1016.25 390.12,-1016.25 396.12,-1022.25 396.12,-1028.25 396.12,-1028.25 396.12,-1076 396.12,-1076 396.12,-1082 390.12,-1088 384.12,-1088"/>
<text xml:space="preserve" text-anchor="middle" x="309" y="-1074.5" font-family="Helvetica,sans-Serif" font-size="10.00" fill="#ece1d7">heap_decoder</text>
<text xml:space="preserve" text-anchor="middle" x="309" y="-1061.75" font-family="Helvetica,sans-Serif" font-size="10.00" fill="#ece1d7">INSERT / DELETE / UPDATE / HOT</text>
<text xml:space="preserve" text-anchor="middle" x="309" y="-1049" font-family="Helvetica,sans-Serif" font-size="10.00" fill="#ece1d7">Tier 1 fixed&#45;width</text>
<text xml:space="preserve" text-anchor="middle" x="309" y="-1036.25" font-family="Helvetica,sans-Serif" font-size="10.00" fill="#ece1d7">Tier 2 length&#45;prefixed</text>
<text xml:space="preserve" text-anchor="middle" x="309" y="-1023.5" font-family="Helvetica,sans-Serif" font-size="10.00" fill="#ece1d7">Replica identity matrix</text>
</g>
<!-- catgate&#45;&gt;decoder -->
<g id="edge10" class="edge">
<title>catgate&#45;&gt;decoder</title>
<path fill="none" stroke="#c1a78e" d="M309,-1143.98C309,-1131.96 309,-1115.36 309,-1099.63"/>
<polygon fill="#c1a78e" stroke="#c1a78e" points="312.5,-1099.93 309,-1089.93 305.5,-1099.93 312.5,-1099.93"/>
</g>
<!-- lru -->
<g id="node21" class="node">
<title>lru</title>
<path fill="#4d4d28" stroke="#6e6963" d="M760.75,-1961.06C760.75,-1961.06 665.25,-1961.06 665.25,-1961.06 659.25,-1961.06 653.25,-1955.06 653.25,-1949.06 653.25,-1949.06 653.25,-1926.81 653.25,-1926.81 653.25,-1920.81 659.25,-1914.81 665.25,-1914.81 665.25,-1914.81 760.75,-1914.81 760.75,-1914.81 766.75,-1914.81 772.75,-1920.81 772.75,-1926.81 772.75,-1926.81 772.75,-1949.06 772.75,-1949.06 772.75,-1955.06 766.75,-1961.06 760.75,-1961.06"/>
<text xml:space="preserve" text-anchor="middle" x="713" y="-1947.56" font-family="Helvetica,sans-Serif" font-size="10.00" fill="#ece1d7">LRU 4096</text>
<text xml:space="preserve" text-anchor="middle" x="713" y="-1934.81" font-family="Helvetica,sans-Serif" font-size="10.00" fill="#ece1d7">by_filenode / by_oid</text>
<text xml:space="preserve" text-anchor="middle" x="713" y="-1922.06" font-family="Helvetica,sans-Serif" font-size="10.00" fill="#ece1d7">+ generation counter</text>
</g>
<!-- catgate&#45;&gt;lru -->
<g id="edge19" class="edge">
<title>catgate&#45;&gt;lru</title>
<path fill="none" stroke="#cba85e" stroke-dasharray="5,2" d="M384.62,-1175.25C428.98,-1186.08 482.68,-1206.54 516,-1244.88 606.93,-1349.5 571.18,-1734.14 635,-1857.19 644.76,-1876.01 660.45,-1893.33 675.2,-1906.98"/>
<polygon fill="#cba85e" stroke="#cba85e" points="672.8,-1909.53 682.6,-1913.57 677.46,-1904.3 672.8,-1909.53"/>
<text xml:space="preserve" text-anchor="middle" x="599.96" y="-1527.64" font-family="Helvetica,sans-Serif" font-size="9.00" fill="#ece1d7">lookup</text>
</g>
<!-- xactbuf -->
<g id="node16" class="node">
<title>xactbuf</title>
<path fill="#4d4128" stroke="#6e6963" d="M356.38,-975.25C356.38,-975.25 261.62,-975.25 261.62,-975.25 255.62,-975.25 249.62,-969.25 249.62,-963.25 249.62,-963.25 249.62,-928.25 249.62,-928.25 249.62,-922.25 255.62,-916.25 261.62,-916.25 261.62,-916.25 356.38,-916.25 356.38,-916.25 362.38,-916.25 368.38,-922.25 368.38,-928.25 368.38,-928.25 368.38,-963.25 368.38,-963.25 368.38,-969.25 362.38,-975.25 356.38,-975.25"/>
<text xml:space="preserve" text-anchor="middle" x="309" y="-961.75" font-family="Helvetica,sans-Serif" font-size="10.00" fill="#ece1d7">XactBuffer</text>
<text xml:space="preserve" text-anchor="middle" x="309" y="-949" font-family="Helvetica,sans-Serif" font-size="10.00" fill="#ece1d7">per&#45;xid hashmap +</text>
<text xml:space="preserve" text-anchor="middle" x="309" y="-936.25" font-family="Helvetica,sans-Serif" font-size="10.00" fill="#ece1d7">TOAST reassembly</text>
<text xml:space="preserve" text-anchor="middle" x="309" y="-923.5" font-family="Helvetica,sans-Serif" font-size="10.00" fill="#ece1d7">budget = work_mem</text>
</g>
<!-- decoder&#45;&gt;xactbuf -->
<g id="edge11" class="edge">
<title>decoder&#45;&gt;xactbuf</title>
<path fill="none" stroke="#c1a78e" d="M309,-1015.79C309,-1006.45 309,-996.31 309,-986.75"/>
<polygon fill="#c1a78e" stroke="#c1a78e" points="312.5,-986.98 309,-976.98 305.5,-986.98 312.5,-986.98"/>
</g>
<!-- drain -->
<g id="node17" class="node">
<title>drain</title>
<path fill="#4d4128" stroke="#6e6963" d="M478.88,-865C478.88,-865 357.12,-865 357.12,-865 351.12,-865 345.12,-859 345.12,-853 345.12,-853 345.12,-830.75 345.12,-830.75 345.12,-824.75 351.12,-818.75 357.12,-818.75 357.12,-818.75 478.88,-818.75 478.88,-818.75 484.88,-818.75 490.88,-824.75 490.88,-830.75 490.88,-830.75 490.88,-853 490.88,-853 490.88,-859 484.88,-865 478.88,-865"/>
<text xml:space="preserve" text-anchor="middle" x="418" y="-851.5" font-family="Helvetica,sans-Serif" font-size="10.00" fill="#ece1d7">commit drain</text>
<text xml:space="preserve" text-anchor="middle" x="418" y="-838.75" font-family="Helvetica,sans-Serif" font-size="10.00" fill="#ece1d7">(spilled first, mem second,</text>
<text xml:space="preserve" text-anchor="middle" x="418" y="-826" font-family="Helvetica,sans-Serif" font-size="10.00" fill="#ece1d7"> WAL&#45;order replay)</text>
</g>
<!-- xactbuf&#45;&gt;drain -->
<g id="edge12" class="edge">
<title>xactbuf&#45;&gt;drain</title>
<path fill="none" stroke="#c1a78e" d="M339.94,-915.83C354.25,-902.45 371.25,-886.57 385.72,-873.04"/>
<polygon fill="#c1a78e" stroke="#c1a78e" points="387.89,-875.81 392.81,-866.42 383.11,-870.69 387.89,-875.81"/>
</g>
<!-- spill -->
<g id="node28" class="node">
<title>spill</title>
<polygon fill="#4d3850" stroke="#6e6963" points="306,-746.25 158,-746.25 158,-700 312,-700 312,-740.25 306,-746.25"/>
<polyline fill="none" stroke="#6e6963" points="306,-746.25 306,-740.25"/>
<polyline fill="none" stroke="#6e6963" points="312,-740.25 306,-740.25"/>
<text xml:space="preserve" text-anchor="middle" x="235" y="-732.75" font-family="Helvetica,sans-Serif" font-size="10.00" fill="#ece1d7">{spill}/xid&#45;&lt;xid&gt;&#45;&lt;lsn&gt;.bin</text>
<text xml:space="preserve" text-anchor="middle" x="235" y="-720" font-family="Helvetica,sans-Serif" font-size="10.00" fill="#ece1d7">append&#45;only</text>
<text xml:space="preserve" text-anchor="middle" x="235" y="-707.25" font-family="Helvetica,sans-Serif" font-size="10.00" fill="#ece1d7">[tag u8 | len u32 | body]</text>
</g>
<!-- xactbuf&#45;&gt;spill -->
<g id="edge30" class="edge">
<title>xactbuf&#45;&gt;spill</title>
<path fill="none" stroke="#c1a78e" stroke-dasharray="5,2" d="M282.39,-915.89C270.78,-901.62 258.2,-883.51 251,-865 237.43,-830.12 234.34,-786.98 234.06,-757.69"/>
<polygon fill="#c1a78e" stroke="#c1a78e" points="237.56,-757.95 234.08,-747.95 230.56,-757.94 237.56,-757.95"/>
<text xml:space="preserve" text-anchor="middle" x="290" y="-838.95" font-family="Helvetica,sans-Serif" font-size="9.00" fill="#ece1d7">evict largest xact</text>
</g>
<!-- tableenc -->
<g id="node18" class="node">
<title>tableenc</title>
<path fill="#5d4628" stroke="#6e6963" d="M596.75,-746.25C596.75,-746.25 525.25,-746.25 525.25,-746.25 519.25,-746.25 513.25,-740.25 513.25,-734.25 513.25,-734.25 513.25,-712 513.25,-712 513.25,-706 519.25,-700 525.25,-700 525.25,-700 596.75,-700 596.75,-700 602.75,-700 608.75,-706 608.75,-712 608.75,-712 608.75,-734.25 608.75,-734.25 608.75,-740.25 602.75,-746.25 596.75,-746.25"/>
<text xml:space="preserve" text-anchor="middle" x="561" y="-732.75" font-family="Helvetica,sans-Serif" font-size="10.00" fill="#ece1d7">TableEncoder</text>
<text xml:space="preserve" text-anchor="middle" x="561" y="-720" font-family="Helvetica,sans-Serif" font-size="10.00" fill="#ece1d7">per (table, xact)</text>
<text xml:space="preserve" text-anchor="middle" x="561" y="-707.25" font-family="Helvetica,sans-Serif" font-size="10.00" fill="#ece1d7">row/byte budget</text>
</g>
<!-- drain&#45;&gt;tableenc -->
<g id="edge16" class="edge">
<title>drain&#45;&gt;tableenc</title>
<path fill="none" stroke="#bf8c5f" stroke-width="2" d="M448.79,-818.27C457.06,-812.05 465.94,-805.23 474,-798.75 491.6,-784.61 510.69,-768.34 526.49,-754.62"/>
<polygon fill="#bf8c5f" stroke="#bf8c5f" stroke-width="2" points="528.34,-757.64 533.58,-748.43 523.74,-752.37 528.34,-757.64"/>
</g>
<!-- cursor -->
<g id="node29" class="node">
<title>cursor</title>
<polygon fill="#4d3850" stroke="#6e6963" points="464.12,-746.25 343.88,-746.25 343.88,-700 470.12,-700 470.12,-740.25 464.12,-746.25"/>
<polyline fill="none" stroke="#6e6963" points="464.12,-746.25 464.12,-740.25"/>
<polyline fill="none" stroke="#6e6963" points="470.12,-740.25 464.12,-740.25"/>
<text xml:space="preserve" text-anchor="middle" x="407" y="-732.75" font-family="Helvetica,sans-Serif" font-size="10.00" fill="#ece1d7">{spill}/cursor.bin</text>
<text xml:space="preserve" text-anchor="middle" x="407" y="-720" font-family="Helvetica,sans-Serif" font-size="10.00" fill="#ece1d7">56B atomic rename</text>
<text xml:space="preserve" text-anchor="middle" x="407" y="-707.25" font-family="Helvetica,sans-Serif" font-size="10.00" fill="#ece1d7">5 LSN fields + CRC32C</text>
</g>
<!-- drain&#45;&gt;cursor -->
<g id="edge31" class="edge">
<title>drain&#45;&gt;cursor</title>
<path fill="none" stroke="#b380b0" stroke-dasharray="1,5" d="M415.88,-818.36C414.27,-801.24 412.02,-777.4 410.19,-757.99"/>
<polygon fill="#b380b0" stroke="#b380b0" points="413.68,-757.7 409.26,-748.07 406.71,-758.36 413.68,-757.7"/>
<text xml:space="preserve" text-anchor="middle" x="440.06" y="-790.2" font-family="Helvetica,sans-Serif" font-size="9.00" fill="#ece1d7">LSN bundle</text>
</g>
<!-- block -->
<g id="node19" class="node">
<title>block</title>
<path fill="#5d4628" stroke="#6e6963" d="M639.5,-659C639.5,-659 506.5,-659 506.5,-659 500.5,-659 494.5,-653 494.5,-647 494.5,-647 494.5,-624.75 494.5,-624.75 494.5,-618.75 500.5,-612.75 506.5,-612.75 506.5,-612.75 639.5,-612.75 639.5,-612.75 645.5,-612.75 651.5,-618.75 651.5,-624.75 651.5,-624.75 651.5,-647 651.5,-647 651.5,-653 645.5,-659 639.5,-659"/>
<text xml:space="preserve" text-anchor="middle" x="573" y="-645.5" font-family="Helvetica,sans-Serif" font-size="10.00" fill="#ece1d7">BlockBuilder</text>
<text xml:space="preserve" text-anchor="middle" x="573" y="-632.75" font-family="Helvetica,sans-Serif" font-size="10.00" fill="#ece1d7">Native columns +</text>
<text xml:space="preserve" text-anchor="middle" x="573" y="-620" font-family="Helvetica,sans-Serif" font-size="10.00" fill="#ece1d7">_lsn / _xid / _op / _commit_ts</text>
</g>
<!-- tableenc&#45;&gt;block -->
<g id="edge14" class="edge">
<title>tableenc&#45;&gt;block</title>
<path fill="none" stroke="#c1a78e" d="M564.15,-699.73C565.4,-690.89 566.85,-680.54 568.22,-670.82"/>
<polygon fill="#c1a78e" stroke="#c1a78e" points="571.69,-671.31 569.62,-660.92 564.76,-670.33 571.69,-671.31"/>
</g>
<!-- chwire -->
<g id="node20" class="node">
<title>chwire</title>
<path fill="#5d4628" stroke="#6e6963" d="M631.62,-571.75C631.62,-571.75 514.38,-571.75 514.38,-571.75 508.38,-571.75 502.38,-565.75 502.38,-559.75 502.38,-559.75 502.38,-524.75 502.38,-524.75 502.38,-518.75 508.38,-512.75 514.38,-512.75 514.38,-512.75 631.62,-512.75 631.62,-512.75 637.62,-512.75 643.62,-518.75 643.62,-524.75 643.62,-524.75 643.62,-559.75 643.62,-559.75 643.62,-565.75 637.62,-571.75 631.62,-571.75"/>
<text xml:space="preserve" text-anchor="middle" x="573" y="-558.25" font-family="Helvetica,sans-Serif" font-size="10.00" fill="#ece1d7">clickhouse&#45;c&#45;rs</text>
<text xml:space="preserve" text-anchor="middle" x="573" y="-545.5" font-family="Helvetica,sans-Serif" font-size="10.00" fill="#ece1d7">send_query →</text>
<text xml:space="preserve" text-anchor="middle" x="573" y="-532.75" font-family="Helvetica,sans-Serif" font-size="10.00" fill="#ece1d7">send_data(Some|None) →</text>
<text xml:space="preserve" text-anchor="middle" x="573" y="-520" font-family="Helvetica,sans-Serif" font-size="10.00" fill="#ece1d7">drain responses</text>
</g>
<!-- block&#45;&gt;chwire -->
<g id="edge15" class="edge">
<title>block&#45;&gt;chwire</title>
<path fill="none" stroke="#c1a78e" d="M573,-612.7C573,-603.94 573,-593.6 573,-583.61"/>
<polygon fill="#c1a78e" stroke="#c1a78e" points="576.5,-583.67 573,-573.67 569.5,-583.67 576.5,-583.67"/>
</g>
<!-- chwire&#45;&gt;ch -->
<g id="edge32" class="edge">
<title>chwire&#45;&gt;ch</title>
<path fill="none" stroke="#bf8c5f" stroke-width="2" d="M573,-512.45C573,-503.57 573,-493.78 573,-484.82"/>
<polygon fill="#bf8c5f" stroke="#bf8c5f" stroke-width="2" points="576.5,-485.11 573,-475.11 569.5,-485.11 576.5,-485.11"/>
</g>
<!-- libpq -->
<g id="node22" class="node">
<title>libpq</title>
<path fill="#4d4d28" stroke="#6e6963" d="M762.62,-1834.06C762.62,-1834.06 663.38,-1834.06 663.38,-1834.06 657.38,-1834.06 651.38,-1828.06 651.38,-1822.06 651.38,-1822.06 651.38,-1799.81 651.38,-1799.81 651.38,-1793.81 657.38,-1787.81 663.38,-1787.81 663.38,-1787.81 762.62,-1787.81 762.62,-1787.81 768.62,-1787.81 774.62,-1793.81 774.62,-1799.81 774.62,-1799.81 774.62,-1822.06 774.62,-1822.06 774.62,-1828.06 768.62,-1834.06 762.62,-1834.06"/>
<text xml:space="preserve" text-anchor="middle" x="713" y="-1820.56" font-family="Helvetica,sans-Serif" font-size="10.00" fill="#ece1d7">tokio_postgres::Client</text>
<text xml:space="preserve" text-anchor="middle" x="713" y="-1807.81" font-family="Helvetica,sans-Serif" font-size="10.00" fill="#ece1d7">SELECT pg_class /</text>
<text xml:space="preserve" text-anchor="middle" x="713" y="-1795.06" font-family="Helvetica,sans-Serif" font-size="10.00" fill="#ece1d7">pg_attribute / pg_type</text>
</g>
<!-- lru&#45;&gt;libpq -->
<g id="edge17" class="edge">
<title>lru&#45;&gt;libpq</title>
<path fill="none" stroke="#c1a78e" stroke-dasharray="5,2" d="M713,-1914.59C713,-1895.51 713,-1867.78 713,-1845.94"/>
<polygon fill="#c1a78e" stroke="#c1a78e" points="716.5,-1846.03 713,-1836.03 709.5,-1846.03 716.5,-1846.03"/>
<text xml:space="preserve" text-anchor="middle" x="723.12" y="-1879.89" font-family="Helvetica,sans-Serif" font-size="9.00" fill="#ece1d7">miss</text>
</g>
<!-- libpq&#45;&gt;shd -->
<g id="edge27" class="edge">
<title>libpq&#45;&gt;shd</title>
<path fill="none" stroke="#cba85e" d="M736.75,-1778.29C814.32,-1670.92 1045.05,-1316.94 863,-1131.25 829.03,-1096.6 678.35,-1154.49 645,-1119.25 638.85,-1112.75 637.15,-1104.15 637.77,-1095.3"/>
<polygon fill="#cba85e" stroke="#cba85e" points="730.88,-1786.34 733.13,-1775.61 733.11,-1783.29 736.77,-1778.26 736.77,-1778.26 736.77,-1778.26 733.11,-1783.29 740.4,-1780.91 730.88,-1786.34"/>
<polygon fill="#cba85e" stroke="#cba85e" points="641.19,-1096.03 639.38,-1085.59 634.29,-1094.88 641.19,-1096.03"/>
<text xml:space="preserve" text-anchor="middle" x="944.68" y="-1430.14" font-family="Helvetica,sans-Serif" font-size="9.00" fill="#ece1d7">libpq SELECT</text>
</g>
<!-- inval&#45;&gt;lru -->
<g id="edge18" class="edge">
<title>inval&#45;&gt;lru</title>
<path fill="none" stroke="#cba85e" stroke-dasharray="5,2" d="M713,-2029.32C713,-2012.21 713,-1990.45 713,-1972.57"/>
<polygon fill="#cba85e" stroke="#cba85e" points="716.5,-1972.71 713,-1962.71 709.5,-1972.71 716.5,-1972.71"/>
</g>
<!-- listener -->
<g id="node24" class="node">
<title>listener</title>
<path fill="#5d3f40" stroke="#6e6963" d="M693.25,-1299.12C693.25,-1299.12 600.75,-1299.12 600.75,-1299.12 594.75,-1299.12 588.75,-1293.12 588.75,-1287.12 588.75,-1287.12 588.75,-1264.88 588.75,-1264.88 588.75,-1258.88 594.75,-1252.88 600.75,-1252.88 600.75,-1252.88 693.25,-1252.88 693.25,-1252.88 699.25,-1252.88 705.25,-1258.88 705.25,-1264.88 705.25,-1264.88 705.25,-1287.12 705.25,-1287.12 705.25,-1293.12 699.25,-1299.12 693.25,-1299.12"/>
<text xml:space="preserve" text-anchor="middle" x="647" y="-1285.62" font-family="Helvetica,sans-Serif" font-size="10.00" fill="#ece1d7">accept(unix / TCP)</text>
<text xml:space="preserve" text-anchor="middle" x="647" y="-1272.88" font-family="Helvetica,sans-Serif" font-size="10.00" fill="#ece1d7">IDENTIFY_SYSTEM +</text>
<text xml:space="preserve" text-anchor="middle" x="647" y="-1260.12" font-family="Helvetica,sans-Serif" font-size="10.00" fill="#ece1d7">START_REPLICATION</text>
</g>
<!-- listener&#45;&gt;sendq -->
<g id="edge21" class="edge">
<title>listener&#45;&gt;sendq</title>
<path fill="none" stroke="#c1a78e" stroke-dasharray="5,2" d="M648.21,-1252.41C649.06,-1236.6 650.21,-1215.2 651.17,-1197.34"/>
<polygon fill="#c1a78e" stroke="#c1a78e" points="654.66,-1197.62 651.71,-1187.44 647.67,-1197.24 654.66,-1197.62"/>
</g>
<!-- sendq&#45;&gt;shd -->
<g id="edge25" class="edge">
<title>sendq&#45;&gt;shd</title>
<path fill="none" stroke="#bd8183" stroke-width="2" d="M653,-1138.95C653,-1126.81 653,-1111.39 653,-1096.97"/>
<polygon fill="#bd8183" stroke="#bd8183" stroke-width="2" points="656.5,-1097.17 653,-1087.17 649.5,-1097.17 656.5,-1097.17"/>
<text xml:space="preserve" text-anchor="middle" x="683.38" y="-1110.7" font-family="Helvetica,sans-Serif" font-size="9.00" fill="#ece1d7">hot wire (ms)</text>
</g>
<!-- stat&#45;&gt;catgate -->
<g id="edge23" class="edge">
<title>stat&#45;&gt;catgate</title>
<path fill="none" stroke="#bd8183" stroke-dasharray="5,2" d="M745.21,-1252.48C737.25,-1249.51 728.99,-1246.82 721,-1244.88 660.43,-1230.15 642.71,-1243.29 581.25,-1232.88 510.72,-1220.93 431.66,-1199.86 376.98,-1184.05"/>
<polygon fill="#bd8183" stroke="#bd8183" points="378.07,-1180.72 367.49,-1181.28 376.11,-1187.44 378.07,-1180.72"/>
<text xml:space="preserve" text-anchor="middle" x="638.62" y="-1224.33" font-family="Helvetica,sans-Serif" font-size="9.00" fill="#ece1d7">apply_lsn → unblock gate</text>
</g>
<!-- outdir&#45;&gt;shd -->
<g id="edge29" class="edge">
<title>outdir&#45;&gt;shd</title>
<path fill="none" stroke="#6e6963" stroke-dasharray="5,2" d="M97.48,-746.72C108.89,-758.87 124.64,-772.71 142,-779.5 176.37,-792.93 438.01,-779.37 474,-787.5 498.69,-793.08 507.52,-793.45 526,-810.75 585.66,-866.62 622.72,-956.9 640.46,-1009.47"/>
<polygon fill="#6e6963" stroke="#6e6963" points="637.03,-1010.25 643.48,-1018.65 643.68,-1008.06 637.03,-1010.25"/>
<text xml:space="preserve" text-anchor="middle" x="631.12" y="-887.7" font-family="Helvetica,sans-Serif" font-size="9.00" fill="#ece1d7">restore_command</text>
</g>
</g>
</svg>
