<?xml version="1.0" encoding="UTF-8" standalone="no"?>
<!DOCTYPE svg PUBLIC "-//W3C//DTD SVG 1.1//EN"
 "http://www.w3.org/Graphics/SVG/1.1/DTD/svg11.dtd">
<!-- Generated by graphviz version 14.1.5 (0)
 -->
<!-- Title: ops Pages: 1 -->
<svg width="1090pt" height="1697pt"
 viewBox="0.00 0.00 1090.00 1697.00" xmlns="http://www.w3.org/2000/svg" xmlns:xlink="http://www.w3.org/1999/xlink">
<g id="graph0" class="graph" transform="scale(1 1) rotate(0) translate(4 1692.67)">
<title>ops</title>
<polygon fill="#272623" stroke="none" points="-4,4 -4,-1692.67 1086.38,-1692.67 1086.38,4 -4,4"/>
<text xml:space="preserve" text-anchor="middle" x="541.19" y="-1671.37" font-family="Helvetica,sans-Serif" font-size="14.00" fill="#ece1d7">walshadow — cursor durability + slot advance (status_loop, 10 s cadence)</text>
<g id="clust1" class="cluster">
<title>cluster_inputs</title>
<path fill="#34302c" stroke="#4c4641" d="M146,-1431C146,-1431 926,-1431 926,-1431 932,-1431 938,-1437 938,-1443 938,-1443 938,-1643.42 938,-1643.42 938,-1649.42 932,-1655.42 926,-1655.42 926,-1655.42 146,-1655.42 146,-1655.42 140,-1655.42 134,-1649.42 134,-1643.42 134,-1643.42 134,-1443 134,-1443 134,-1437 140,-1431 146,-1431"/>
<text xml:space="preserve" text-anchor="middle" x="536" y="-1638.12" font-family="Helvetica,sans-Serif" font-size="14.00" fill="#ece1d7">LSN sources (single source of truth per field)</text>
</g>
<g id="clust2" class="cluster">
<title>cluster_status</title>
<path fill="#34302c" stroke="#4c4641" d="M20,-869C20,-869 369,-869 369,-869 375,-869 381,-875 381,-881 381,-881 381,-1367.5 381,-1367.5 381,-1373.5 375,-1379.5 369,-1379.5 369,-1379.5 20,-1379.5 20,-1379.5 14,-1379.5 8,-1373.5 8,-1367.5 8,-1367.5 8,-881 8,-881 8,-875 14,-869 20,-869"/>
<text xml:space="preserve" text-anchor="middle" x="194.5" y="-1362.2" font-family="Helvetica,sans-Serif" font-size="14.00" fill="#ece1d7">status_loop (bin/stream.rs, &#45;&#45;status&#45;interval = 10 s)</text>
</g>
<!-- shd -->
<g id="node1" class="node">
<title>shd</title>
<path fill="#3d4128" stroke="#6e6963" d="M1082.38,-1625.06C1082.38,-1628.25 1051.73,-1630.84 1014,-1630.84 976.27,-1630.84 945.62,-1628.25 945.62,-1625.06 945.62,-1625.06 945.62,-1573.03 945.62,-1573.03 945.62,-1569.84 976.27,-1567.25 1014,-1567.25 1051.73,-1567.25 1082.38,-1569.84 1082.38,-1573.03 1082.38,-1573.03 1082.38,-1625.06 1082.38,-1625.06"/>
<path fill="none" stroke="#6e6963" d="M1082.38,-1625.06C1082.38,-1621.87 1051.73,-1619.28 1014,-1619.28 976.27,-1619.28 945.62,-1621.87 945.62,-1625.06"/>
<text xml:space="preserve" text-anchor="middle" x="1014" y="-1608.67" font-family="Helvetica,sans-Serif" font-size="10.00" fill="#ece1d7">shadow PG</text>
<text xml:space="preserve" text-anchor="middle" x="1014" y="-1595.92" font-family="Helvetica,sans-Serif" font-size="10.00" fill="#ece1d7">pg_last_wal_replay_lsn()</text>
<text xml:space="preserve" text-anchor="middle" x="1014" y="-1583.17" font-family="Helvetica,sans-Serif" font-size="10.00" fill="#ece1d7">+ walreceiver &#39;r&#39; frames</text>
</g>
<!-- sweeper -->
<g id="node7" class="node">
<title>sweeper</title>
<path fill="#4d3a28" stroke="#6e6963" d="M718.75,-1491.62C718.75,-1491.62 533.25,-1491.62 533.25,-1491.62 527.25,-1491.62 521.25,-1485.62 521.25,-1479.62 521.25,-1479.62 521.25,-1457.38 521.25,-1457.38 521.25,-1451.38 527.25,-1445.38 533.25,-1445.38 533.25,-1445.38 718.75,-1445.38 718.75,-1445.38 724.75,-1445.38 730.75,-1451.38 730.75,-1457.38 730.75,-1457.38 730.75,-1479.62 730.75,-1479.62 730.75,-1485.62 724.75,-1491.62 718.75,-1491.62"/>
<text xml:space="preserve" text-anchor="middle" x="626" y="-1478.12" font-family="Helvetica,sans-Serif" font-size="10.00" fill="#ece1d7">retention_task (30 s)</text>
<text xml:space="preserve" text-anchor="middle" x="626" y="-1465.38" font-family="Helvetica,sans-Serif" font-size="10.00" fill="#ece1d7">SELECT pg_last_wal_replay_lsn()</text>
<text xml:space="preserve" text-anchor="middle" x="626" y="-1452.62" font-family="Helvetica,sans-Serif" font-size="10.00" fill="#ece1d7">→ Arc&lt;AtomicU64&gt; shadow_replay_lsn</text>
</g>
<!-- shd&#45;&gt;sweeper -->
<g id="edge5" class="edge">
<title>shd&#45;&gt;sweeper</title>
<path fill="none" stroke="#cba85e" stroke-dasharray="5,2" d="M947.41,-1569.28C945.59,-1568.58 943.79,-1567.91 942,-1567.25 867.61,-1539.92 781.58,-1513.64 718.09,-1495.23"/>
<polygon fill="#cba85e" stroke="#cba85e" points="719.33,-1491.95 708.76,-1492.54 717.39,-1498.68 719.33,-1491.95"/>
<text xml:space="preserve" text-anchor="middle" x="886.15" y="-1529.7" font-family="Helvetica,sans-Serif" font-size="9.00" fill="#ece1d7">libpq SELECT</text>
</g>
<!-- walsrv -->
<g id="node8" class="node">
<title>walsrv</title>
<path fill="#5d3f40" stroke="#6e6963" d="M918.25,-1498C918.25,-1498 771.75,-1498 771.75,-1498 765.75,-1498 759.75,-1492 759.75,-1486 759.75,-1486 759.75,-1451 759.75,-1451 759.75,-1445 765.75,-1439 771.75,-1439 771.75,-1439 918.25,-1439 918.25,-1439 924.25,-1439 930.25,-1445 930.25,-1451 930.25,-1451 930.25,-1486 930.25,-1486 930.25,-1492 924.25,-1498 918.25,-1498"/>
<text xml:space="preserve" text-anchor="middle" x="845" y="-1484.5" font-family="Helvetica,sans-Serif" font-size="10.00" fill="#ece1d7">walsender server</text>
<text xml:space="preserve" text-anchor="middle" x="845" y="-1471.75" font-family="Helvetica,sans-Serif" font-size="10.00" fill="#ece1d7">rx &#39;r&#39; standby frames</text>
<text xml:space="preserve" text-anchor="middle" x="845" y="-1459" font-family="Helvetica,sans-Serif" font-size="10.00" fill="#ece1d7">ShadowStreamState::aggregate</text>
<text xml:space="preserve" text-anchor="middle" x="845" y="-1446.25" font-family="Helvetica,sans-Serif" font-size="10.00" fill="#ece1d7">→ min_flush_lsn</text>
</g>
<!-- shd&#45;&gt;walsrv -->
<g id="edge6" class="edge">
<title>shd&#45;&gt;walsrv</title>
<path fill="none" stroke="#bd8183" stroke-dasharray="5,2" d="M973.52,-1567.26C949.08,-1548.67 917.83,-1524.89 892.26,-1505.45"/>
<polygon fill="#bd8183" stroke="#bd8183" points="894.4,-1502.68 884.32,-1499.41 890.17,-1508.25 894.4,-1502.68"/>
<text xml:space="preserve" text-anchor="middle" x="965.69" y="-1529.7" font-family="Helvetica,sans-Serif" font-size="9.00" fill="#ece1d7">walreceiver &#39;r&#39;</text>
</g>
<!-- src -->
<g id="node2" class="node">
<title>src</title>
<path fill="#3d3d54" stroke="#6e6963" d="M173.75,-786.64C173.75,-789.83 148.31,-792.42 117,-792.42 85.69,-792.42 60.25,-789.83 60.25,-786.64 60.25,-786.64 60.25,-734.61 60.25,-734.61 60.25,-731.42 85.69,-728.83 117,-728.83 148.31,-728.83 173.75,-731.42 173.75,-734.61 173.75,-734.61 173.75,-786.64 173.75,-786.64"/>
<path fill="none" stroke="#6e6963" d="M173.75,-786.64C173.75,-783.45 148.31,-780.86 117,-780.86 85.69,-780.86 60.25,-783.45 60.25,-786.64"/>
<text xml:space="preserve" text-anchor="middle" x="117" y="-770.25" font-family="Helvetica,sans-Serif" font-size="10.00" fill="#ece1d7">source PG</text>
<text xml:space="preserve" text-anchor="middle" x="117" y="-757.5" font-family="Helvetica,sans-Serif" font-size="10.00" fill="#ece1d7">pg_replication_slots</text>
<text xml:space="preserve" text-anchor="middle" x="117" y="-744.75" font-family="Helvetica,sans-Serif" font-size="10.00" fill="#ece1d7">confirmed_flush_lsn</text>
</g>
<!-- prom -->
<g id="node3" class="node">
<title>prom</title>
<path fill="#3d3d54" stroke="#6e6963" d="M535.88,-1048.22C535.88,-1050.53 511.28,-1052.41 481,-1052.41 450.72,-1052.41 426.12,-1050.53 426.12,-1048.22 426.12,-1048.22 426.12,-1010.53 426.12,-1010.53 426.12,-1008.22 450.72,-1006.34 481,-1006.34 511.28,-1006.34 535.88,-1008.22 535.88,-1010.53 535.88,-1010.53 535.88,-1048.22 535.88,-1048.22"/>
<path fill="none" stroke="#6e6963" d="M535.88,-1048.22C535.88,-1045.91 511.28,-1044.03 481,-1044.03 450.72,-1044.03 426.12,-1045.91 426.12,-1048.22"/>
<text xml:space="preserve" text-anchor="middle" x="481" y="-1032.62" font-family="Helvetica,sans-Serif" font-size="10.00" fill="#ece1d7">Prometheus scrape</text>
<text xml:space="preserve" text-anchor="middle" x="481" y="-1019.88" font-family="Helvetica,sans-Serif" font-size="10.00" fill="#ece1d7">/metrics</text>
</g>
<!-- feed -->
<g id="node4" class="node">
<title>feed</title>
<path fill="#3d3d54" stroke="#6e6963" d="M256.12,-1622.17C256.12,-1622.17 153.88,-1622.17 153.88,-1622.17 147.88,-1622.17 141.88,-1616.17 141.88,-1610.17 141.88,-1610.17 141.88,-1587.92 141.88,-1587.92 141.88,-1581.92 147.88,-1575.92 153.88,-1575.92 153.88,-1575.92 256.12,-1575.92 256.12,-1575.92 262.12,-1575.92 268.12,-1581.92 268.12,-1587.92 268.12,-1587.92 268.12,-1610.17 268.12,-1610.17 268.12,-1616.17 262.12,-1622.17 256.12,-1622.17"/>
<text xml:space="preserve" text-anchor="middle" x="205" y="-1608.67" font-family="Helvetica,sans-Serif" font-size="10.00" fill="#ece1d7">SourceFeed::pump</text>
<text xml:space="preserve" text-anchor="middle" x="205" y="-1595.92" font-family="Helvetica,sans-Serif" font-size="10.00" fill="#ece1d7">last_server_wal_end</text>
<text xml:space="preserve" text-anchor="middle" x="205" y="-1583.17" font-family="Helvetica,sans-Serif" font-size="10.00" fill="#ece1d7">→ source_received_lsn</text>
</g>
<!-- snap -->
<g id="node9" class="node">
<title>snap</title>
<path fill="#4d3a28" stroke="#6e6963" d="M358.62,-1346.25C358.62,-1346.25 277.38,-1346.25 277.38,-1346.25 271.38,-1346.25 265.38,-1340.25 265.38,-1334.25 265.38,-1334.25 265.38,-1322.25 265.38,-1322.25 265.38,-1316.25 271.38,-1310.25 277.38,-1310.25 277.38,-1310.25 358.62,-1310.25 358.62,-1310.25 364.62,-1310.25 370.62,-1316.25 370.62,-1322.25 370.62,-1322.25 370.62,-1334.25 370.62,-1334.25 370.62,-1340.25 364.62,-1346.25 358.62,-1346.25"/>
<text xml:space="preserve" text-anchor="middle" x="318" y="-1331.5" font-family="Helvetica,sans-Serif" font-size="10.00" fill="#ece1d7">snapshot 6 LSNs</text>
<text xml:space="preserve" text-anchor="middle" x="318" y="-1318.75" font-family="Helvetica,sans-Serif" font-size="10.00" fill="#ece1d7">build Cursor { … }</text>
</g>
<!-- feed&#45;&gt;snap -->
<g id="edge7" class="edge">
<title>feed&#45;&gt;snap</title>
<path fill="none" stroke="#c1a78e" d="M141.79,-1578.31C104.12,-1562.91 59.39,-1537.4 37,-1498 22.29,-1472.11 19.9,-1455.38 37,-1431 85.8,-1361.43 187.17,-1339.23 253.87,-1332.27"/>
<polygon fill="#c1a78e" stroke="#c1a78e" points="253.95,-1335.77 263.57,-1331.35 253.29,-1328.81 253.95,-1335.77"/>
<text xml:space="preserve" text-anchor="middle" x="82" y="-1465.58" font-family="Helvetica,sans-Serif" font-size="9.00" fill="#ece1d7">source_received_lsn</text>
</g>
<!-- segsink -->
<g id="node5" class="node">
<title>segsink</title>
<path fill="#4d3340" stroke="#6e6963" d="M290.38,-1498C290.38,-1498 153.62,-1498 153.62,-1498 147.62,-1498 141.62,-1492 141.62,-1486 141.62,-1486 141.62,-1451 141.62,-1451 141.62,-1445 147.62,-1439 153.62,-1439 153.62,-1439 290.38,-1439 290.38,-1439 296.38,-1439 302.38,-1445 302.38,-1451 302.38,-1451 302.38,-1486 302.38,-1486 302.38,-1492 296.38,-1498 290.38,-1498"/>
<text xml:space="preserve" text-anchor="middle" x="222" y="-1484.5" font-family="Helvetica,sans-Serif" font-size="10.00" fill="#ece1d7">DirSegmentSink::on_segment</text>
<text xml:space="preserve" text-anchor="middle" x="222" y="-1471.75" font-family="Helvetica,sans-Serif" font-size="10.00" fill="#ece1d7">fsync seg + dir</text>
<text xml:space="preserve" text-anchor="middle" x="222" y="-1459" font-family="Helvetica,sans-Serif" font-size="10.00" fill="#ece1d7">→ filter_durable_lsn</text>
<text xml:space="preserve" text-anchor="middle" x="222" y="-1446.25" font-family="Helvetica,sans-Serif" font-size="10.00" fill="#ece1d7">(= flush advertised)</text>
</g>
<!-- segsink&#45;&gt;snap -->
<g id="edge8" class="edge">
<title>segsink&#45;&gt;snap</title>
<path fill="none" stroke="#c1a78e" d="M240.42,-1438.73C250.38,-1423.39 263.01,-1404.26 274.75,-1387.5 282.14,-1376.94 290.53,-1365.52 297.94,-1355.61"/>
<polygon fill="#c1a78e" stroke="#c1a78e" points="300.56,-1357.96 303.77,-1347.86 294.96,-1353.75 300.56,-1357.96"/>
<text xml:space="preserve" text-anchor="middle" x="313.38" y="-1395.83" font-family="Helvetica,sans-Serif" font-size="9.00" fill="#ece1d7">filter_durable_lsn</text>
</g>
<!-- xact -->
<g id="node6" class="node">
<title>xact</title>
<path fill="#4d4128" stroke="#6e6963" d="M480.38,-1498C480.38,-1498 343.62,-1498 343.62,-1498 337.62,-1498 331.62,-1492 331.62,-1486 331.62,-1486 331.62,-1451 331.62,-1451 331.62,-1445 337.62,-1439 343.62,-1439 343.62,-1439 480.38,-1439 480.38,-1439 486.38,-1439 492.38,-1445 492.38,-1451 492.38,-1451 492.38,-1486 492.38,-1486 492.38,-1492 486.38,-1498 480.38,-1498"/>
<text xml:space="preserve" text-anchor="middle" x="412" y="-1484.5" font-family="Helvetica,sans-Serif" font-size="10.00" fill="#ece1d7">XactBuffer stats.drain_lsn</text>
<text xml:space="preserve" text-anchor="middle" x="412" y="-1471.75" font-family="Helvetica,sans-Serif" font-size="10.00" fill="#ece1d7">+ pipeline ack collector</text>
<text xml:space="preserve" text-anchor="middle" x="412" y="-1459" font-family="Helvetica,sans-Serif" font-size="10.00" fill="#ece1d7">emitter_ack atomic</text>
<text xml:space="preserve" text-anchor="middle" x="412" y="-1446.25" font-family="Helvetica,sans-Serif" font-size="10.00" fill="#ece1d7">(contiguous&#45;done watermark)</text>
</g>
<!-- xact&#45;&gt;snap -->
<g id="edge9" class="edge">
<title>xact&#45;&gt;snap</title>
<path fill="none" stroke="#c1a78e" d="M392.29,-1438.52C375.71,-1414.13 352.2,-1379.54 336.09,-1355.85"/>
<polygon fill="#c1a78e" stroke="#c1a78e" points="339.05,-1353.98 330.53,-1347.68 333.26,-1357.92 339.05,-1353.98"/>
<text xml:space="preserve" text-anchor="middle" x="405.88" y="-1401.45" font-family="Helvetica,sans-Serif" font-size="9.00" fill="#ece1d7">drain_lsn,</text>
<text xml:space="preserve" text-anchor="middle" x="405.88" y="-1390.2" font-family="Helvetica,sans-Serif" font-size="9.00" fill="#ece1d7">emitter_ack_lsn</text>
</g>
<!-- sweeper&#45;&gt;snap -->
<g id="edge10" class="edge">
<title>sweeper&#45;&gt;snap</title>
<path fill="none" stroke="#c1a78e" d="M575.75,-1444.9C540.1,-1428.87 491.12,-1406.85 448,-1387.5 421.37,-1375.55 391.66,-1362.23 367.37,-1351.36"/>
<polygon fill="#c1a78e" stroke="#c1a78e" points="368.91,-1348.21 358.35,-1347.32 366.05,-1354.6 368.91,-1348.21"/>
<text xml:space="preserve" text-anchor="middle" x="538.9" y="-1395.83" font-family="Helvetica,sans-Serif" font-size="9.00" fill="#ece1d7">shadow_replay_lsn</text>
</g>
<!-- trim -->
<g id="node16" class="node">
<title>trim</title>
<path fill="#4d3a28" stroke="#6e6963" d="M703.75,-1357.75C703.75,-1357.75 596.25,-1357.75 596.25,-1357.75 590.25,-1357.75 584.25,-1351.75 584.25,-1345.75 584.25,-1345.75 584.25,-1310.75 584.25,-1310.75 584.25,-1304.75 590.25,-1298.75 596.25,-1298.75 596.25,-1298.75 703.75,-1298.75 703.75,-1298.75 709.75,-1298.75 715.75,-1304.75 715.75,-1310.75 715.75,-1310.75 715.75,-1345.75 715.75,-1345.75 715.75,-1351.75 709.75,-1357.75 703.75,-1357.75"/>
<text xml:space="preserve" text-anchor="middle" x="650" y="-1344.25" font-family="Helvetica,sans-Serif" font-size="10.00" fill="#ece1d7">trim_below_lsn</text>
<text xml:space="preserve" text-anchor="middle" x="650" y="-1331.5" font-family="Helvetica,sans-Serif" font-size="10.00" fill="#ece1d7">cutoff = shadow_replay</text>
<text xml:space="preserve" text-anchor="middle" x="650" y="-1318.75" font-family="Helvetica,sans-Serif" font-size="10.00" fill="#ece1d7"> &#160;− retention_bytes</text>
<text xml:space="preserve" text-anchor="middle" x="650" y="-1306" font-family="Helvetica,sans-Serif" font-size="10.00" fill="#ece1d7">(default 256 MiB)</text>
</g>
<!-- sweeper&#45;&gt;trim -->
<g id="edge14" class="edge">
<title>sweeper&#45;&gt;trim</title>
<path fill="none" stroke="#6e6963" stroke-dasharray="5,2" d="M629.91,-1444.98C633.46,-1424.5 638.79,-1393.82 643.07,-1369.18"/>
<polygon fill="#6e6963" stroke="#6e6963" points="646.49,-1369.94 644.75,-1359.49 639.59,-1368.75 646.49,-1369.94"/>
</g>
<!-- walsrv&#45;&gt;snap -->
<g id="edge11" class="edge">
<title>walsrv&#45;&gt;snap</title>
<path fill="none" stroke="#bd8183" d="M767.69,-1438.59C760.05,-1435.94 752.39,-1433.37 745,-1431 618.55,-1390.48 466.42,-1357.98 382.15,-1341.36"/>
<polygon fill="#bd8183" stroke="#bd8183" points="382.94,-1337.94 372.45,-1339.46 381.59,-1344.81 382.94,-1337.94"/>
<text xml:space="preserve" text-anchor="middle" x="703.9" y="-1395.83" font-family="Helvetica,sans-Serif" font-size="9.00" fill="#ece1d7">shadow_flush_lsn</text>
</g>
<!-- apply -->
<g id="node10" class="node">
<title>apply</title>
<path fill="#4d3a28" stroke="#6e6963" d="M247.12,-1218.25C247.12,-1218.25 78.88,-1218.25 78.88,-1218.25 72.88,-1218.25 66.88,-1212.25 66.88,-1206.25 66.88,-1206.25 66.88,-1171.25 66.88,-1171.25 66.88,-1165.25 72.88,-1159.25 78.88,-1159.25 78.88,-1159.25 247.12,-1159.25 247.12,-1159.25 253.12,-1159.25 259.12,-1165.25 259.12,-1171.25 259.12,-1171.25 259.12,-1206.25 259.12,-1206.25 259.12,-1212.25 253.12,-1218.25 247.12,-1218.25"/>
<text xml:space="preserve" text-anchor="middle" x="163" y="-1204.75" font-family="Helvetica,sans-Serif" font-size="10.00" fill="#ece1d7">apply_ceiling =</text>
<text xml:space="preserve" text-anchor="middle" x="163" y="-1192" font-family="Helvetica,sans-Serif" font-size="10.00" fill="#ece1d7">shadow_replay==0</text>
<text xml:space="preserve" text-anchor="middle" x="163" y="-1179.25" font-family="Helvetica,sans-Serif" font-size="10.00" fill="#ece1d7"> &#160;? emitter_ack</text>
<text xml:space="preserve" text-anchor="middle" x="163" y="-1166.5" font-family="Helvetica,sans-Serif" font-size="10.00" fill="#ece1d7"> &#160;: min(shadow_replay, emitter_ack)</text>
</g>
<!-- snap&#45;&gt;apply -->
<g id="edge1" class="edge">
<title>snap&#45;&gt;apply</title>
<path fill="none" stroke="#c1a78e" d="M298.37,-1309.84C274.69,-1288.83 234.27,-1252.97 203.74,-1225.89"/>
<polygon fill="#c1a78e" stroke="#c1a78e" points="206.36,-1223.53 196.55,-1219.51 201.71,-1228.77 206.36,-1223.53"/>
</g>
<!-- cwrite -->
<g id="node11" class="node">
<title>cwrite</title>
<path fill="#4d3a28" stroke="#6e6963" d="M361.12,-1130.25C361.12,-1130.25 198.88,-1130.25 198.88,-1130.25 192.88,-1130.25 186.88,-1124.25 186.88,-1118.25 186.88,-1118.25 186.88,-1106.25 186.88,-1106.25 186.88,-1100.25 192.88,-1094.25 198.88,-1094.25 198.88,-1094.25 361.12,-1094.25 361.12,-1094.25 367.12,-1094.25 373.12,-1100.25 373.12,-1106.25 373.12,-1106.25 373.12,-1118.25 373.12,-1118.25 373.12,-1124.25 367.12,-1130.25 361.12,-1130.25"/>
<text xml:space="preserve" text-anchor="middle" x="280" y="-1115.5" font-family="Helvetica,sans-Serif" font-size="10.00" fill="#ece1d7">cursor::write</text>
<text xml:space="preserve" text-anchor="middle" x="280" y="-1102.75" font-family="Helvetica,sans-Serif" font-size="10.00" fill="#ece1d7">tmp → fsync → rename → fsync_dir</text>
</g>
<!-- snap&#45;&gt;cwrite -->
<g id="edge2" class="edge">
<title>snap&#45;&gt;cwrite</title>
<path fill="none" stroke="#b380b0" stroke-width="2" stroke-dasharray="1,5" d="M314.95,-1310.1C308.51,-1273.79 293.41,-1188.75 285.33,-1143.24"/>
<polygon fill="#b380b0" stroke="#b380b0" stroke-width="2" points="288.78,-1142.7 283.59,-1133.46 281.89,-1143.92 288.78,-1142.7"/>
</g>
<!-- metrics -->
<g id="node17" class="node">
<title>metrics</title>
<path fill="#4d4128" stroke="#6e6963" d="M561,-1218.25C561,-1218.25 401,-1218.25 401,-1218.25 395,-1218.25 389,-1212.25 389,-1206.25 389,-1206.25 389,-1171.25 389,-1171.25 389,-1165.25 395,-1159.25 401,-1159.25 401,-1159.25 561,-1159.25 561,-1159.25 567,-1159.25 573,-1165.25 573,-1171.25 573,-1171.25 573,-1206.25 573,-1206.25 573,-1212.25 567,-1218.25 561,-1218.25"/>
<text xml:space="preserve" text-anchor="middle" x="481" y="-1204.75" font-family="Helvetica,sans-Serif" font-size="10.00" fill="#ece1d7">MetricsSnapshot → text</text>
<text xml:space="preserve" text-anchor="middle" x="481" y="-1192" font-family="Helvetica,sans-Serif" font-size="10.00" fill="#ece1d7">walshadow_*_lsn gauges,</text>
<text xml:space="preserve" text-anchor="middle" x="481" y="-1179.25" font-family="Helvetica,sans-Serif" font-size="10.00" fill="#ece1d7">shadow_apply_lag_bytes/seconds,</text>
<text xml:space="preserve" text-anchor="middle" x="481" y="-1166.5" font-family="Helvetica,sans-Serif" font-size="10.00" fill="#ece1d7">RateEstimator (30 s window)</text>
</g>
<!-- snap&#45;&gt;metrics -->
<g id="edge16" class="edge">
<title>snap&#45;&gt;metrics</title>
<path fill="none" stroke="#cba85e" stroke-dasharray="5,2" d="M338.64,-1309.84C363.54,-1288.83 406.05,-1252.97 438.15,-1225.89"/>
<polygon fill="#cba85e" stroke="#cba85e" points="440.36,-1228.61 445.75,-1219.49 435.85,-1223.26 440.36,-1228.61"/>
<text xml:space="preserve" text-anchor="middle" x="441.51" y="-1261.2" font-family="Helvetica,sans-Serif" font-size="9.00" fill="#ece1d7">LSN gauges +</text>
<text xml:space="preserve" text-anchor="middle" x="441.51" y="-1249.95" font-family="Helvetica,sans-Serif" font-size="9.00" fill="#ece1d7">apply_lag_*</text>
</g>
<!-- triple -->
<g id="node12" class="node">
<title>triple</title>
<path fill="#4d3a28" stroke="#6e6963" d="M216.75,-1065.25C216.75,-1065.25 97.25,-1065.25 97.25,-1065.25 91.25,-1065.25 85.25,-1059.25 85.25,-1053.25 85.25,-1053.25 85.25,-1005.5 85.25,-1005.5 85.25,-999.5 91.25,-993.5 97.25,-993.5 97.25,-993.5 216.75,-993.5 216.75,-993.5 222.75,-993.5 228.75,-999.5 228.75,-1005.5 228.75,-1005.5 228.75,-1053.25 228.75,-1053.25 228.75,-1059.25 222.75,-1065.25 216.75,-1065.25"/>
<text xml:space="preserve" text-anchor="middle" x="157" y="-1051.75" font-family="Helvetica,sans-Serif" font-size="10.00" fill="#ece1d7">StandbyStatus {</text>
<text xml:space="preserve" text-anchor="middle" x="157" y="-1039" font-family="Helvetica,sans-Serif" font-size="10.00" fill="#ece1d7"> &#160;write = source_received,</text>
<text xml:space="preserve" text-anchor="middle" x="157" y="-1026.25" font-family="Helvetica,sans-Serif" font-size="10.00" fill="#ece1d7"> &#160;flush = filter_durable,</text>
<text xml:space="preserve" text-anchor="middle" x="157" y="-1013.5" font-family="Helvetica,sans-Serif" font-size="10.00" fill="#ece1d7"> &#160;apply = apply_ceiling</text>
<text xml:space="preserve" text-anchor="middle" x="157" y="-1000.75" font-family="Helvetica,sans-Serif" font-size="10.00" fill="#ece1d7">}</text>
</g>
<!-- apply&#45;&gt;triple -->
<g id="edge3" class="edge">
<title>apply&#45;&gt;triple</title>
<path fill="none" stroke="#c1a78e" d="M161.9,-1158.88C161.03,-1136 159.79,-1103.58 158.78,-1077.02"/>
<polygon fill="#c1a78e" stroke="#c1a78e" points="162.28,-1077.04 158.4,-1067.18 155.29,-1077.31 162.28,-1077.04"/>
</g>
<!-- cursor_bin -->
<g id="node14" class="node">
<title>cursor_bin</title>
<polygon fill="#4d3850" stroke="#6e6963" points="377.5,-796.5 202.5,-796.5 202.5,-724.75 383.5,-724.75 383.5,-790.5 377.5,-796.5"/>
<polyline fill="none" stroke="#6e6963" points="377.5,-796.5 377.5,-790.5"/>
<polyline fill="none" stroke="#6e6963" points="383.5,-790.5 377.5,-790.5"/>
<text xml:space="preserve" text-anchor="middle" x="293" y="-783" font-family="Helvetica,sans-Serif" font-size="10.00" fill="#ece1d7">{spill_dir}/cursor.bin</text>
<text xml:space="preserve" text-anchor="middle" x="293" y="-770.25" font-family="Helvetica,sans-Serif" font-size="10.00" fill="#ece1d7">64 B, schema v2, CRC32C</text>
<text xml:space="preserve" text-anchor="middle" x="293" y="-757.5" font-family="Helvetica,sans-Serif" font-size="10.00" fill="#ece1d7">atomic rename via cursor.bin.tmp</text>
<text xml:space="preserve" text-anchor="middle" x="293" y="-744.75" font-family="Helvetica,sans-Serif" font-size="10.00" fill="#ece1d7">(boot: emitter_ack_lsn is</text>
<text xml:space="preserve" text-anchor="middle" x="293" y="-732" font-family="Helvetica,sans-Serif" font-size="10.00" fill="#ece1d7">resume floor, seg&#45;aligned)</text>
</g>
<!-- cwrite&#45;&gt;cursor_bin -->
<g id="edge12" class="edge">
<title>cwrite&#45;&gt;cursor_bin</title>
<path fill="none" stroke="#b380b0" stroke-width="2" stroke-dasharray="1,5" d="M280.64,-1093.91C282.56,-1042.4 288.27,-888.94 291.21,-809.88"/>
<polygon fill="#b380b0" stroke="#b380b0" stroke-width="2" points="294.7,-810.09 291.57,-799.97 287.71,-809.83 294.7,-810.09"/>
<text xml:space="preserve" text-anchor="middle" x="324.02" y="-955.95" font-family="Helvetica,sans-Serif" font-size="9.00" fill="#ece1d7">every 10 s</text>
<text xml:space="preserve" text-anchor="middle" x="324.02" y="-944.7" font-family="Helvetica,sans-Serif" font-size="9.00" fill="#ece1d7">(atomic rename)</text>
</g>
<!-- sendst -->
<g id="node13" class="node">
<title>sendst</title>
<path fill="#3d3d54" stroke="#6e6963" d="M199.12,-913C199.12,-913 60.88,-913 60.88,-913 54.88,-913 48.88,-907 48.88,-901 48.88,-901 48.88,-889 48.88,-889 48.88,-883 54.88,-877 60.88,-877 60.88,-877 199.12,-877 199.12,-877 205.12,-877 211.12,-883 211.12,-889 211.12,-889 211.12,-901 211.12,-901 211.12,-907 205.12,-913 199.12,-913"/>
<text xml:space="preserve" text-anchor="middle" x="130" y="-898.25" font-family="Helvetica,sans-Serif" font-size="10.00" fill="#ece1d7">SourceFeed::send_status</text>
<text xml:space="preserve" text-anchor="middle" x="130" y="-885.5" font-family="Helvetica,sans-Serif" font-size="10.00" fill="#ece1d7">&#39;r&#39; frame on replication socket</text>
</g>
<!-- triple&#45;&gt;sendst -->
<g id="edge4" class="edge">
<title>triple&#45;&gt;sendst</title>
<path fill="none" stroke="#c1a78e" d="M149.84,-993.25C145.47,-971.84 139.96,-944.81 135.85,-924.69"/>
<polygon fill="#c1a78e" stroke="#c1a78e" points="139.29,-924.03 133.86,-914.93 132.43,-925.43 139.29,-924.03"/>
</g>
<!-- sendst&#45;&gt;src -->
<g id="edge13" class="edge">
<title>sendst&#45;&gt;src</title>
<path fill="none" stroke="#a1a9cc" stroke-width="2" d="M128.3,-876.69C126.54,-858.78 123.72,-830.06 121.34,-805.8"/>
<polygon fill="#a1a9cc" stroke="#a1a9cc" stroke-width="2" points="124.83,-805.5 120.37,-795.89 117.86,-806.18 124.83,-805.5"/>
<text xml:space="preserve" text-anchor="middle" x="172.3" y="-839.45" font-family="Helvetica,sans-Serif" font-size="9.00" fill="#ece1d7">standby&#45;status triple</text>
<text xml:space="preserve" text-anchor="middle" x="172.3" y="-828.2" font-family="Helvetica,sans-Serif" font-size="9.00" fill="#ece1d7">(write/flush/apply)</text>
</g>
<!-- cursor_table -->
<g id="node18" class="node">
<title>cursor_table</title>
<path fill="#6e6963" stroke="none" d="M485.12,-665.75C485.12,-665.75 100.88,-665.75 100.88,-665.75 94.88,-665.75 88.88,-659.75 88.88,-653.75 88.88,-653.75 88.88,-397.5 88.88,-397.5 88.88,-391.5 94.88,-385.5 100.88,-385.5 100.88,-385.5 485.12,-385.5 485.12,-385.5 491.12,-385.5 497.12,-391.5 497.12,-397.5 497.12,-397.5 497.12,-653.75 497.12,-653.75 497.12,-659.75 491.12,-665.75 485.12,-665.75"/>
<polygon fill="#4d3850" stroke="none" points="96.88,-637 96.88,-661.75 489.12,-661.75 489.12,-637 96.88,-637"/>
<polygon fill="none" stroke="#6e6963" points="96.88,-637 96.88,-661.75 489.12,-661.75 489.12,-637 96.88,-637"/>
<text xml:space="preserve" text-anchor="start" x="190.62" y="-647.25" font-family="Helvetica,sans-Serif" font-weight="bold" font-size="10.00" fill="#ece1d7">cursor.bin layout — 64 B, schema v2</text>
<polygon fill="none" stroke="#6e6963" points="96.88,-612.25 96.88,-637 141.12,-637 141.12,-612.25 96.88,-612.25"/>
<text xml:space="preserve" text-anchor="start" x="102.88" y="-622.5" font-family="Helvetica,sans-Serif" font-weight="bold" font-size="10.00" fill="#ece1d7">offset</text>
<polygon fill="none" stroke="#6e6963" points="141.12,-612.25 141.12,-637 282.12,-637 282.12,-612.25 141.12,-612.25"/>
<text xml:space="preserve" text-anchor="start" x="198.88" y="-622.5" font-family="Helvetica,sans-Serif" font-weight="bold" font-size="10.00" fill="#ece1d7">field</text>
<polygon fill="none" stroke="#6e6963" points="282.12,-612.25 282.12,-637 489.12,-637 489.12,-612.25 282.12,-612.25"/>
<text xml:space="preserve" text-anchor="start" x="374.38" y="-622.5" font-family="Helvetica,sans-Serif" font-weight="bold" font-size="10.00" fill="#ece1d7">role</text>
<polygon fill="none" stroke="#6e6963" points="96.88,-587.5 96.88,-612.25 141.12,-612.25 141.12,-587.5 96.88,-587.5"/>
<text xml:space="preserve" text-anchor="start" x="110" y="-596.5" font-family="Helvetica,sans-Serif" font-size="10.00" fill="#ece1d7">0..8</text>
<polygon fill="none" stroke="#6e6963" points="141.12,-587.5 141.12,-612.25 282.12,-612.25 282.12,-587.5 141.12,-587.5"/>
<text xml:space="preserve" text-anchor="start" x="147.12" y="-596.5" font-family="Helvetica,sans-Serif" font-size="10.00" fill="#ece1d7">MAGIC &quot;WSCRSR\x01\x00&quot;</text>
<polygon fill="none" stroke="#6e6963" points="282.12,-587.5 282.12,-612.25 489.12,-612.25 489.12,-587.5 282.12,-587.5"/>
<text xml:space="preserve" text-anchor="start" x="343.62" y="-596.5" font-family="Helvetica,sans-Serif" font-size="10.00" fill="#ece1d7">file id + reserved</text>
<polygon fill="none" stroke="#6e6963" points="96.88,-562.75 96.88,-587.5 141.12,-587.5 141.12,-562.75 96.88,-562.75"/>
<text xml:space="preserve" text-anchor="start" x="107" y="-571.75" font-family="Helvetica,sans-Serif" font-size="10.00" fill="#ece1d7">8..12</text>
<polygon fill="none" stroke="#6e6963" points="141.12,-562.75 141.12,-587.5 282.12,-587.5 282.12,-562.75 141.12,-562.75"/>
<text xml:space="preserve" text-anchor="start" x="176" y="-571.75" font-family="Helvetica,sans-Serif" font-size="10.00" fill="#ece1d7">version u32 LE</text>
<polygon fill="none" stroke="#6e6963" points="282.12,-562.75 282.12,-587.5 489.12,-587.5 489.12,-562.75 282.12,-562.75"/>
<text xml:space="preserve" text-anchor="start" x="291.88" y="-571.75" font-family="Helvetica,sans-Serif" font-size="10.00" fill="#ece1d7">schema = 2 (added shadow_flush_lsn)</text>
<polygon fill="none" stroke="#6e6963" points="96.88,-538 96.88,-562.75 141.12,-562.75 141.12,-538 96.88,-538"/>
<text xml:space="preserve" text-anchor="start" x="104" y="-547" font-family="Helvetica,sans-Serif" font-size="10.00" fill="#ece1d7">12..20</text>
<polygon fill="none" stroke="#6e6963" points="141.12,-538 141.12,-562.75 282.12,-562.75 282.12,-538 141.12,-538"/>
<text xml:space="preserve" text-anchor="start" x="162.12" y="-547" font-family="Helvetica,sans-Serif" font-size="10.00" fill="#ece1d7">source_received_lsn</text>
<polygon fill="none" stroke="#6e6963" points="282.12,-538 282.12,-562.75 489.12,-562.75 489.12,-538 282.12,-538"/>
<text xml:space="preserve" text-anchor="start" x="318.12" y="-547" font-family="Helvetica,sans-Serif" font-size="10.00" fill="#ece1d7">bookkeeping, gates nothing</text>
<polygon fill="none" stroke="#6e6963" points="96.88,-513.25 96.88,-538 141.12,-538 141.12,-513.25 96.88,-513.25"/>
<text xml:space="preserve" text-anchor="start" x="104" y="-522.25" font-family="Helvetica,sans-Serif" font-size="10.00" fill="#ece1d7">20..28</text>
<polygon fill="none" stroke="#6e6963" points="141.12,-513.25 141.12,-538 282.12,-538 282.12,-513.25 141.12,-513.25"/>
<text xml:space="preserve" text-anchor="start" x="169.62" y="-522.25" font-family="Helvetica,sans-Serif" font-size="10.00" fill="#ece1d7">filter_durable_lsn</text>
<polygon fill="none" stroke="#6e6963" points="282.12,-513.25 282.12,-538 489.12,-538 489.12,-513.25 282.12,-513.25"/>
<text xml:space="preserve" text-anchor="start" x="315.88" y="-522.25" font-family="Helvetica,sans-Serif" font-size="10.00" fill="#ece1d7">standby flush_lsn advertised</text>
<polygon fill="none" stroke="#6e6963" points="96.88,-488.5 96.88,-513.25 141.12,-513.25 141.12,-488.5 96.88,-488.5"/>
<text xml:space="preserve" text-anchor="start" x="104" y="-497.5" font-family="Helvetica,sans-Serif" font-size="10.00" fill="#ece1d7">28..36</text>
<polygon fill="none" stroke="#6e6963" points="141.12,-488.5 141.12,-513.25 282.12,-513.25 282.12,-488.5 141.12,-488.5"/>
<text xml:space="preserve" text-anchor="start" x="165.12" y="-497.5" font-family="Helvetica,sans-Serif" font-size="10.00" fill="#ece1d7">shadow_replay_lsn</text>
<polygon fill="none" stroke="#6e6963" points="282.12,-488.5 282.12,-513.25 489.12,-513.25 489.12,-488.5 282.12,-488.5"/>
<text xml:space="preserve" text-anchor="start" x="315.12" y="-497.5" font-family="Helvetica,sans-Serif" font-size="10.00" fill="#ece1d7">apply ceiling (when nonzero)</text>
<polygon fill="none" stroke="#6e6963" points="96.88,-463.75 96.88,-488.5 141.12,-488.5 141.12,-463.75 96.88,-463.75"/>
<text xml:space="preserve" text-anchor="start" x="104" y="-472.75" font-family="Helvetica,sans-Serif" font-size="10.00" fill="#ece1d7">36..44</text>
<polygon fill="none" stroke="#6e6963" points="141.12,-463.75 141.12,-488.5 282.12,-488.5 282.12,-463.75 141.12,-463.75"/>
<text xml:space="preserve" text-anchor="start" x="189.5" y="-472.75" font-family="Helvetica,sans-Serif" font-size="10.00" fill="#ece1d7">drain_lsn</text>
<polygon fill="none" stroke="#6e6963" points="282.12,-463.75 282.12,-488.5 489.12,-488.5 489.12,-463.75 282.12,-463.75"/>
<text xml:space="preserve" text-anchor="start" x="326.38" y="-472.75" font-family="Helvetica,sans-Serif" font-size="10.00" fill="#ece1d7">observer; ≥ emitter_ack</text>
<polygon fill="none" stroke="#6e6963" points="96.88,-439 96.88,-463.75 141.12,-463.75 141.12,-439 96.88,-439"/>
<text xml:space="preserve" text-anchor="start" x="104" y="-448" font-family="Helvetica,sans-Serif" font-size="10.00" fill="#ece1d7">44..52</text>
<polygon fill="none" stroke="#6e6963" points="141.12,-439 141.12,-463.75 282.12,-463.75 282.12,-439 141.12,-439"/>
<text xml:space="preserve" text-anchor="start" x="167.38" y="-449.25" font-family="Helvetica,sans-Serif" font-weight="bold" font-size="10.00" fill="#ece1d7">emitter_ack_lsn</text>
<polygon fill="none" stroke="#6e6963" points="282.12,-439 282.12,-463.75 489.12,-463.75 489.12,-439 282.12,-439"/>
<text xml:space="preserve" text-anchor="start" x="306.88" y="-449.25" font-family="Helvetica,sans-Serif" font-weight="bold" font-size="10.00" fill="#ece1d7">resume LSN + apply ceiling</text>
<polygon fill="none" stroke="#6e6963" points="96.88,-414.25 96.88,-439 141.12,-439 141.12,-414.25 96.88,-414.25"/>
<text xml:space="preserve" text-anchor="start" x="104" y="-423.25" font-family="Helvetica,sans-Serif" font-size="10.00" fill="#ece1d7">52..60</text>
<polygon fill="none" stroke="#6e6963" points="141.12,-414.25 141.12,-439 282.12,-439 282.12,-414.25 141.12,-414.25"/>
<text xml:space="preserve" text-anchor="start" x="168.88" y="-423.25" font-family="Helvetica,sans-Serif" font-size="10.00" fill="#ece1d7">shadow_flush_lsn</text>
<polygon fill="none" stroke="#6e6963" points="282.12,-414.25 282.12,-439 489.12,-439 489.12,-414.25 282.12,-414.25"/>
<text xml:space="preserve" text-anchor="start" x="298.62" y="-423.25" font-family="Helvetica,sans-Serif" font-size="10.00" fill="#ece1d7">walsender hands shadow back here</text>
<polygon fill="none" stroke="#6e6963" points="96.88,-389.5 96.88,-414.25 141.12,-414.25 141.12,-389.5 96.88,-389.5"/>
<text xml:space="preserve" text-anchor="start" x="104" y="-398.5" font-family="Helvetica,sans-Serif" font-size="10.00" fill="#ece1d7">60..64</text>
<polygon fill="none" stroke="#6e6963" points="141.12,-389.5 141.12,-414.25 282.12,-414.25 282.12,-389.5 141.12,-389.5"/>
<text xml:space="preserve" text-anchor="start" x="178.25" y="-398.5" font-family="Helvetica,sans-Serif" font-size="10.00" fill="#ece1d7">crc32c u32 LE</text>
<polygon fill="none" stroke="#6e6963" points="282.12,-389.5 282.12,-414.25 489.12,-414.25 489.12,-389.5 282.12,-389.5"/>
<text xml:space="preserve" text-anchor="start" x="288.12" y="-398.5" font-family="Helvetica,sans-Serif" font-size="10.00" fill="#ece1d7">covers bytes 0..60 (PG&#45;compatible CRC)</text>
</g>
<!-- cursor_bin&#45;&gt;cursor_table -->
<!-- outdir -->
<g id="node15" class="node">
<title>outdir</title>
<polygon fill="#4d3850" stroke="#6e6963" points="707.62,-1211.88 602.38,-1211.88 602.38,-1165.62 713.62,-1165.62 713.62,-1205.88 707.62,-1211.88"/>
<polyline fill="none" stroke="#6e6963" points="707.62,-1211.88 707.62,-1205.88"/>
<polyline fill="none" stroke="#6e6963" points="713.62,-1205.88 707.62,-1205.88"/>
<text xml:space="preserve" text-anchor="middle" x="658" y="-1198.38" font-family="Helvetica,sans-Serif" font-size="10.00" fill="#ece1d7">out/&lt;seg&gt;</text>
<text xml:space="preserve" text-anchor="middle" x="658" y="-1185.62" font-family="Helvetica,sans-Serif" font-size="10.00" fill="#ece1d7">filtered 16 MiB WAL</text>
<text xml:space="preserve" text-anchor="middle" x="658" y="-1172.88" font-family="Helvetica,sans-Serif" font-size="10.00" fill="#ece1d7">+ manifest.json</text>
</g>
<!-- trim&#45;&gt;outdir -->
<g id="edge15" class="edge">
<title>trim&#45;&gt;outdir</title>
<path fill="none" stroke="#6e6963" stroke-dasharray="5,2" d="M651.68,-1298.43C652.95,-1276.56 654.7,-1246.46 656.04,-1223.48"/>
<polygon fill="#6e6963" stroke="#6e6963" points="659.52,-1223.89 656.61,-1213.7 652.53,-1223.48 659.52,-1223.89"/>
<text xml:space="preserve" text-anchor="middle" x="680.73" y="-1255.58" font-family="Helvetica,sans-Serif" font-size="9.00" fill="#ece1d7">rm &lt; cutoff</text>
</g>
<!-- metrics&#45;&gt;prom -->
<g id="edge17" class="edge">
<title>metrics&#45;&gt;prom</title>
<path fill="none" stroke="#a1a9cc" d="M481,-1158.88C481,-1132.02 481,-1091.99 481,-1063.76"/>
<polygon fill="#a1a9cc" stroke="#a1a9cc" points="484.5,-1063.97 481,-1053.97 477.5,-1063.97 484.5,-1063.97"/>
<text xml:space="preserve" text-anchor="middle" x="512.12" y="-1109.33" font-family="Helvetica,sans-Serif" font-size="9.00" fill="#ece1d7">HTTP /metrics</text>
</g>
<!-- legend -->
<g id="node19" class="node">
<title>legend</title>
<path fill="#6e6963" stroke="none" d="M417.5,-326.5C417.5,-326.5 168.5,-326.5 168.5,-326.5 162.5,-326.5 156.5,-320.5 156.5,-314.5 156.5,-314.5 156.5,-12 156.5,-12 156.5,-6 162.5,0 168.5,0 168.5,0 417.5,0 417.5,0 423.5,0 429.5,-6 429.5,-12 429.5,-12 429.5,-314.5 429.5,-314.5 429.5,-320.5 423.5,-326.5 417.5,-326.5"/>
<polygon fill="#34302c" stroke="none" points="164.5,-299.75 164.5,-322.5 421.5,-322.5 421.5,-299.75 164.5,-299.75"/>
<polygon fill="none" stroke="#6e6963" points="164.5,-299.75 164.5,-322.5 421.5,-322.5 421.5,-299.75 164.5,-299.75"/>
<text xml:space="preserve" text-anchor="start" x="249.88" y="-309" font-family="Helvetica,sans-Serif" font-weight="bold" font-size="10.00" fill="#ece1d7">node fill — role</text>
<polygon fill="#3d3d54" stroke="none" points="164.5,-277 164.5,-299.75 192.5,-299.75 192.5,-277 164.5,-277"/>
<polygon fill="none" stroke="#6e6963" points="164.5,-277 164.5,-299.75 192.5,-299.75 192.5,-277 164.5,-277"/>
<polygon fill="none" stroke="#6e6963" points="192.5,-277 192.5,-299.75 421.5,-299.75 421.5,-277 192.5,-277"/>
<text xml:space="preserve" text-anchor="start" x="260.5" y="-285" font-family="Helvetica,sans-Serif" font-size="10.00" fill="#ece1d7">source PG / ingress</text>
<polygon fill="#4d3a28" stroke="none" points="164.5,-254.25 164.5,-277 192.5,-277 192.5,-254.25 164.5,-254.25"/>
<polygon fill="none" stroke="#6e6963" points="164.5,-254.25 164.5,-277 192.5,-277 192.5,-254.25 164.5,-254.25"/>
<polygon fill="none" stroke="#6e6963" points="192.5,-254.25 192.5,-277 421.5,-277 421.5,-254.25 192.5,-254.25"/>
<text xml:space="preserve" text-anchor="start" x="236.5" y="-262.25" font-family="Helvetica,sans-Serif" font-size="10.00" fill="#ece1d7">walshadow status / retention</text>
<polygon fill="#4d3340" stroke="none" points="164.5,-231.5 164.5,-254.25 192.5,-254.25 192.5,-231.5 164.5,-231.5"/>
<polygon fill="none" stroke="#6e6963" points="164.5,-231.5 164.5,-254.25 192.5,-254.25 192.5,-231.5 164.5,-231.5"/>
<polygon fill="none" stroke="#6e6963" points="192.5,-231.5 192.5,-254.25 421.5,-254.25 421.5,-231.5 192.5,-231.5"/>
<text xml:space="preserve" text-anchor="start" x="245.12" y="-239.5" font-family="Helvetica,sans-Serif" font-size="10.00" fill="#ece1d7">walshadow segment sink</text>
<polygon fill="#4d4128" stroke="none" points="164.5,-208.75 164.5,-231.5 192.5,-231.5 192.5,-208.75 164.5,-208.75"/>
<polygon fill="none" stroke="#6e6963" points="164.5,-208.75 164.5,-231.5 192.5,-231.5 192.5,-208.75 164.5,-208.75"/>
<polygon fill="none" stroke="#6e6963" points="192.5,-208.75 192.5,-231.5 421.5,-231.5 421.5,-208.75 192.5,-208.75"/>
<text xml:space="preserve" text-anchor="start" x="229" y="-216.75" font-family="Helvetica,sans-Serif" font-size="10.00" fill="#ece1d7">walshadow xact buffer / metrics</text>
<polygon fill="#5d3f40" stroke="none" points="164.5,-186 164.5,-208.75 192.5,-208.75 192.5,-186 164.5,-186"/>
<polygon fill="none" stroke="#6e6963" points="164.5,-186 164.5,-208.75 192.5,-208.75 192.5,-186 164.5,-186"/>
<polygon fill="none" stroke="#6e6963" points="192.5,-186 192.5,-208.75 421.5,-208.75 421.5,-186 192.5,-186"/>
<text xml:space="preserve" text-anchor="start" x="236.12" y="-194" font-family="Helvetica,sans-Serif" font-size="10.00" fill="#ece1d7">walshadow walsender server</text>
<polygon fill="#4d3850" stroke="none" points="164.5,-163.25 164.5,-186 192.5,-186 192.5,-163.25 164.5,-163.25"/>
<polygon fill="none" stroke="#6e6963" points="164.5,-163.25 164.5,-186 192.5,-186 192.5,-163.25 164.5,-163.25"/>
<polygon fill="none" stroke="#6e6963" points="192.5,-163.25 192.5,-186 421.5,-186 421.5,-163.25 192.5,-163.25"/>
<text xml:space="preserve" text-anchor="start" x="269.88" y="-171.25" font-family="Helvetica,sans-Serif" font-size="10.00" fill="#ece1d7">on&#45;disk artifact</text>
<polygon fill="#3d4128" stroke="none" points="164.5,-140.5 164.5,-163.25 192.5,-163.25 192.5,-140.5 164.5,-140.5"/>
<polygon fill="none" stroke="#6e6963" points="164.5,-140.5 164.5,-163.25 192.5,-163.25 192.5,-140.5 164.5,-140.5"/>
<polygon fill="none" stroke="#6e6963" points="192.5,-140.5 192.5,-163.25 421.5,-163.25 421.5,-140.5 192.5,-140.5"/>
<text xml:space="preserve" text-anchor="start" x="265.75" y="-148.5" font-family="Helvetica,sans-Serif" font-size="10.00" fill="#ece1d7">shadow Postgres</text>
<polygon fill="#34302c" stroke="none" points="164.5,-117.75 164.5,-140.5 421.5,-140.5 421.5,-117.75 164.5,-117.75"/>
<polygon fill="none" stroke="#6e6963" points="164.5,-117.75 164.5,-140.5 421.5,-140.5 421.5,-117.75 164.5,-117.75"/>
<text xml:space="preserve" text-anchor="start" x="259.25" y="-127" font-family="Helvetica,sans-Serif" font-weight="bold" font-size="10.00" fill="#ece1d7">edge colour</text>
<polygon fill="none" stroke="#6e6963" points="164.5,-95 164.5,-117.75 192.5,-117.75 192.5,-95 164.5,-95"/>
<text xml:space="preserve" text-anchor="start" x="172.5" y="-104.25" font-family="Helvetica,sans-Serif" font-weight="bold" font-size="10.00" fill="#a1a9cc">━━</text>
<polygon fill="none" stroke="#6e6963" points="192.5,-95 192.5,-117.75 421.5,-117.75 421.5,-95 192.5,-95"/>
<text xml:space="preserve" text-anchor="start" x="197.5" y="-103" font-family="Helvetica,sans-Serif" font-size="10.00" fill="#ece1d7">source replication (&#39;r&#39; standby) / Prom scrape</text>
<polygon fill="none" stroke="#6e6963" points="164.5,-72.25 164.5,-95 192.5,-95 192.5,-72.25 164.5,-72.25"/>
<text xml:space="preserve" text-anchor="start" x="172.5" y="-81.5" font-family="Helvetica,sans-Serif" font-weight="bold" font-size="10.00" fill="#bd8183">━━</text>
<polygon fill="none" stroke="#6e6963" points="192.5,-72.25 192.5,-95 421.5,-95 421.5,-72.25 192.5,-72.25"/>
<text xml:space="preserve" text-anchor="start" x="226.38" y="-80.25" font-family="Helvetica,sans-Serif" font-size="10.00" fill="#ece1d7">walsender wire (&#39;r&#39; from shadow)</text>
<polygon fill="none" stroke="#6e6963" points="164.5,-49.5 164.5,-72.25 192.5,-72.25 192.5,-49.5 164.5,-49.5"/>
<text xml:space="preserve" text-anchor="start" x="172.5" y="-58.75" font-family="Helvetica,sans-Serif" font-weight="bold" font-size="10.00" fill="#cba85e">━━</text>
<polygon fill="none" stroke="#6e6963" points="192.5,-49.5 192.5,-72.25 421.5,-72.25 421.5,-49.5 192.5,-49.5"/>
<text xml:space="preserve" text-anchor="start" x="227.88" y="-57.5" font-family="Helvetica,sans-Serif" font-size="10.00" fill="#ece1d7">libpq catalog query / metrics tap</text>
<polygon fill="none" stroke="#6e6963" points="164.5,-26.75 164.5,-49.5 192.5,-49.5 192.5,-26.75 164.5,-26.75"/>
<text xml:space="preserve" text-anchor="start" x="172.88" y="-36" font-family="Helvetica,sans-Serif" font-weight="bold" font-size="10.00" fill="#b380b0">···</text>
<polygon fill="none" stroke="#6e6963" points="192.5,-26.75 192.5,-49.5 421.5,-49.5 421.5,-26.75 192.5,-26.75"/>
<text xml:space="preserve" text-anchor="start" x="202.38" y="-34.75" font-family="Helvetica,sans-Serif" font-size="10.00" fill="#ece1d7">cursor durability (atomic rename, CRC32C)</text>
<polygon fill="none" stroke="#6e6963" points="164.5,-4 164.5,-26.75 192.5,-26.75 192.5,-4 164.5,-4"/>
<text xml:space="preserve" text-anchor="start" x="172.5" y="-13.25" font-family="Helvetica,sans-Serif" font-weight="bold" font-size="10.00" fill="#6e6963">┄┄</text>
<polygon fill="none" stroke="#6e6963" points="192.5,-4 192.5,-26.75 421.5,-26.75 421.5,-4 192.5,-4"/>
<text xml:space="preserve" text-anchor="start" x="243.25" y="-12" font-family="Helvetica,sans-Serif" font-size="10.00" fill="#ece1d7">filesystem (segment trim)</text>
</g>
<!-- cursor_table&#45;&gt;legend -->
</g>
</svg>
