<?xml version="1.0" encoding="UTF-8" standalone="no"?>
<!DOCTYPE svg PUBLIC "-//W3C//DTD SVG 1.1//EN"
 "http://www.w3.org/Graphics/SVG/1.1/DTD/svg11.dtd">
<!-- Generated by graphviz version 15.1.0 (20260618.0150)
 -->
<!-- Title: ops Pages: 1 -->
<svg width="1088pt" height="1315pt"
 viewBox="0.00 0.00 1088.00 1315.00" xmlns="http://www.w3.org/2000/svg" xmlns:xlink="http://www.w3.org/1999/xlink">
<g id="graph0" class="graph" transform="scale(1 1) rotate(0) translate(4 1311.41)">
<title>ops</title>
<polygon fill="#272623" stroke="none" points="-4,4 -4,-1311.41 1084,-1311.41 1084,4 -4,4"/>
<text xml:space="preserve" text-anchor="middle" x="540" y="-1290.11" font-family="Helvetica,sans-Serif" font-size="14.00" fill="#ece1d7">walshadow — save restart state before cleanup or source feedback</text>
<g id="clust1" class="cluster">
<title>cluster_inputs</title>
<path fill="#34302c" stroke="#4c4641" d="M153,-1086.62C153,-1086.62 918,-1086.62 918,-1086.62 924,-1086.62 930,-1092.62 930,-1098.62 930,-1098.62 930,-1262.16 930,-1262.16 930,-1268.16 924,-1274.16 918,-1274.16 918,-1274.16 153,-1274.16 153,-1274.16 147,-1274.16 141,-1268.16 141,-1262.16 141,-1262.16 141,-1098.62 141,-1098.62 141,-1092.62 147,-1086.62 153,-1086.62"/>
<text xml:space="preserve" text-anchor="middle" x="535.5" y="-1256.86" font-family="Helvetica,sans-Serif" font-size="14.00" fill="#ece1d7">progress sources</text>
</g>
<g id="clust2" class="cluster">
<title>cluster_status</title>
<path fill="#34302c" stroke="#4c4641" d="M20,-498.03C20,-498.03 321,-498.03 321,-498.03 327,-498.03 333,-504.03 333,-510.03 333,-510.03 333,-1034.38 333,-1034.38 333,-1040.38 327,-1046.38 321,-1046.38 321,-1046.38 20,-1046.38 20,-1046.38 14,-1046.38 8,-1040.38 8,-1034.38 8,-1034.38 8,-510.03 8,-510.03 8,-504.03 14,-498.03 20,-498.03"/>
<text xml:space="preserve" text-anchor="middle" x="170.5" y="-1029.08" font-family="Helvetica,sans-Serif" font-size="14.00" fill="#ece1d7">periodic status loop</text>
</g>
<!-- shd -->
<g id="node1" class="node">
<title>shd</title>
<path fill="#3d4128" stroke="#6e6963" d="M1080,-1241.75C1080,-1244.06 1048.18,-1245.94 1009,-1245.94 969.82,-1245.94 938,-1244.06 938,-1241.75 938,-1241.75 938,-1204.06 938,-1204.06 938,-1201.75 969.82,-1199.88 1009,-1199.88 1048.18,-1199.88 1080,-1201.75 1080,-1204.06 1080,-1204.06 1080,-1241.75 1080,-1241.75"/>
<path fill="none" stroke="#6e6963" d="M1080,-1241.75C1080,-1239.44 1048.18,-1237.56 1009,-1237.56 969.82,-1237.56 938,-1239.44 938,-1241.75"/>
<text xml:space="preserve" text-anchor="middle" x="1009" y="-1226.16" font-family="Helvetica,sans-Serif" font-size="10.00" fill="#ece1d7">shadow PostgreSQL</text>
<text xml:space="preserve" text-anchor="middle" x="1009" y="-1213.41" font-family="Helvetica,sans-Serif" font-size="10.00" fill="#ece1d7">receive + replay progress</text>
</g>
<!-- sweeper -->
<g id="node8" class="node">
<title>sweeper</title>
<path fill="#4d3a28" stroke="#6e6963" d="M909.75,-1130.62C909.75,-1130.62 802.25,-1130.62 802.25,-1130.62 796.25,-1130.62 790.25,-1124.62 790.25,-1118.62 790.25,-1118.62 790.25,-1106.62 790.25,-1106.62 790.25,-1100.62 796.25,-1094.62 802.25,-1094.62 802.25,-1094.62 909.75,-1094.62 909.75,-1094.62 915.75,-1094.62 921.75,-1100.62 921.75,-1106.62 921.75,-1106.62 921.75,-1118.62 921.75,-1118.62 921.75,-1124.62 915.75,-1130.62 909.75,-1130.62"/>
<text xml:space="preserve" text-anchor="middle" x="856" y="-1115.88" font-family="Helvetica,sans-Serif" font-size="10.00" fill="#ece1d7">shadow replay monitor</text>
<text xml:space="preserve" text-anchor="middle" x="856" y="-1103.12" font-family="Helvetica,sans-Serif" font-size="10.00" fill="#ece1d7">track recovery progress</text>
</g>
<!-- shd&#45;&gt;sweeper -->
<g id="edge7" class="edge">
<title>shd&#45;&gt;sweeper</title>
<path fill="none" stroke="#cba85e" stroke-dasharray="5,2" d="M977.3,-1199.47C951.73,-1181.37 915.85,-1155.98 889.75,-1137.51"/>
<polygon fill="#cba85e" stroke="#cba85e" points="892.03,-1134.84 881.85,-1131.92 887.99,-1140.55 892.03,-1134.84"/>
<text xml:space="preserve" text-anchor="middle" x="961" y="-1162.33" font-family="Helvetica,sans-Serif" font-size="9.00" fill="#ece1d7">replay query</text>
</g>
<!-- walsrv -->
<g id="node9" class="node">
<title>walsrv</title>
<path fill="#5d3f40" stroke="#6e6963" d="M281.12,-1130.62C281.12,-1130.62 160.88,-1130.62 160.88,-1130.62 154.88,-1130.62 148.88,-1124.62 148.88,-1118.62 148.88,-1118.62 148.88,-1106.62 148.88,-1106.62 148.88,-1100.62 154.88,-1094.62 160.88,-1094.62 160.88,-1094.62 281.12,-1094.62 281.12,-1094.62 287.12,-1094.62 293.12,-1100.62 293.12,-1106.62 293.12,-1106.62 293.12,-1118.62 293.12,-1118.62 293.12,-1124.62 287.12,-1130.62 281.12,-1130.62"/>
<text xml:space="preserve" text-anchor="middle" x="221" y="-1115.88" font-family="Helvetica,sans-Serif" font-size="10.00" fill="#ece1d7">shadow receiver feedback</text>
<text xml:space="preserve" text-anchor="middle" x="221" y="-1103.12" font-family="Helvetica,sans-Serif" font-size="10.00" fill="#ece1d7">track safe handoff point</text>
</g>
<!-- shd&#45;&gt;walsrv -->
<g id="edge8" class="edge">
<title>shd&#45;&gt;walsrv</title>
<path fill="none" stroke="#bd8183" stroke-dasharray="5,2" d="M940.03,-1201.23C938,-1200.76 935.99,-1200.3 934,-1199.88 660.36,-1140.9 585.21,-1169.49 308,-1130.62 306.97,-1130.48 305.93,-1130.33 304.88,-1130.18"/>
<polygon fill="#bd8183" stroke="#bd8183" points="305.45,-1126.72 295.03,-1128.64 304.37,-1133.64 305.45,-1126.72"/>
<text xml:space="preserve" text-anchor="middle" x="805.87" y="-1162.33" font-family="Helvetica,sans-Serif" font-size="9.00" fill="#ece1d7">receiver feedback</text>
</g>
<!-- src -->
<g id="node2" class="node">
<title>src</title>
<path fill="#3d3d54" stroke="#6e6963" d="M640.38,-542.88C640.38,-545.19 616.45,-547.06 587,-547.06 557.55,-547.06 533.62,-545.19 533.62,-542.88 533.62,-542.88 533.62,-505.19 533.62,-505.19 533.62,-502.88 557.55,-501 587,-501 616.45,-501 640.38,-502.88 640.38,-505.19 640.38,-505.19 640.38,-542.88 640.38,-542.88"/>
<path fill="none" stroke="#6e6963" d="M640.38,-542.88C640.38,-540.56 616.45,-538.69 587,-538.69 557.55,-538.69 533.62,-540.56 533.62,-542.88"/>
<text xml:space="preserve" text-anchor="middle" x="587" y="-527.28" font-family="Helvetica,sans-Serif" font-size="10.00" fill="#ece1d7">source PostgreSQL</text>
<text xml:space="preserve" text-anchor="middle" x="587" y="-514.53" font-family="Helvetica,sans-Serif" font-size="10.00" fill="#ece1d7">replication slot</text>
</g>
<!-- prom -->
<g id="node3" class="node">
<title>prom</title>
<path fill="#3d3d54" stroke="#6e6963" d="M471.88,-753.19C471.88,-755.5 447.28,-757.38 417,-757.38 386.72,-757.38 362.12,-755.5 362.12,-753.19 362.12,-753.19 362.12,-715.5 362.12,-715.5 362.12,-713.19 386.72,-711.31 417,-711.31 447.28,-711.31 471.88,-713.19 471.88,-715.5 471.88,-715.5 471.88,-753.19 471.88,-753.19"/>
<path fill="none" stroke="#6e6963" d="M471.88,-753.19C471.88,-750.88 447.28,-749 417,-749 386.72,-749 362.12,-750.88 362.12,-753.19"/>
<text xml:space="preserve" text-anchor="middle" x="417" y="-737.59" font-family="Helvetica,sans-Serif" font-size="10.00" fill="#ece1d7">Prometheus scrape</text>
<text xml:space="preserve" text-anchor="middle" x="417" y="-724.84" font-family="Helvetica,sans-Serif" font-size="10.00" fill="#ece1d7">/metrics</text>
</g>
<!-- toastmirror -->
<g id="node4" class="node">
<title>toastmirror</title>
<path fill="#4d4128" stroke="#6e6963" d="M786.12,-32.73C786.12,-34.53 753.8,-36 714,-36 674.2,-36 641.88,-34.53 641.88,-32.73 641.88,-32.73 641.88,-3.27 641.88,-3.27 641.88,-1.47 674.2,0 714,0 753.8,0 786.12,-1.47 786.12,-3.27 786.12,-3.27 786.12,-32.73 786.12,-32.73"/>
<path fill="none" stroke="#6e6963" d="M786.12,-32.73C786.12,-30.92 753.8,-29.45 714,-29.45 674.2,-29.45 641.88,-30.92 641.88,-32.73"/>
<text xml:space="preserve" text-anchor="middle" x="714" y="-14.88" font-family="Helvetica,sans-Serif" font-size="10.00" fill="#ece1d7">ClickHouse TOAST mirrors</text>
</g>
<!-- feed -->
<g id="node5" class="node">
<title>feed</title>
<path fill="#3d3d54" stroke="#6e6963" d="M312.88,-1240.91C312.88,-1240.91 161.12,-1240.91 161.12,-1240.91 155.12,-1240.91 149.12,-1234.91 149.12,-1228.91 149.12,-1228.91 149.12,-1216.91 149.12,-1216.91 149.12,-1210.91 155.12,-1204.91 161.12,-1204.91 161.12,-1204.91 312.88,-1204.91 312.88,-1204.91 318.88,-1204.91 324.88,-1210.91 324.88,-1216.91 324.88,-1216.91 324.88,-1228.91 324.88,-1228.91 324.88,-1234.91 318.88,-1240.91 312.88,-1240.91"/>
<text xml:space="preserve" text-anchor="middle" x="237" y="-1226.16" font-family="Helvetica,sans-Serif" font-size="10.00" fill="#ece1d7">source connection</text>
<text xml:space="preserve" text-anchor="middle" x="237" y="-1213.41" font-family="Helvetica,sans-Serif" font-size="10.00" fill="#ece1d7">identity + received WAL position</text>
</g>
<!-- snap -->
<g id="node10" class="node">
<title>snap</title>
<path fill="#4d3a28" stroke="#6e6963" d="M312.75,-1013.12C312.75,-1013.12 139.25,-1013.12 139.25,-1013.12 133.25,-1013.12 127.25,-1007.12 127.25,-1001.12 127.25,-1001.12 127.25,-989.12 127.25,-989.12 127.25,-983.12 133.25,-977.12 139.25,-977.12 139.25,-977.12 312.75,-977.12 312.75,-977.12 318.75,-977.12 324.75,-983.12 324.75,-989.12 324.75,-989.12 324.75,-1001.12 324.75,-1001.12 324.75,-1007.12 318.75,-1013.12 312.75,-1013.12"/>
<text xml:space="preserve" text-anchor="middle" x="226" y="-998.38" font-family="Helvetica,sans-Serif" font-size="10.00" fill="#ece1d7">collect source, archive, shadow,</text>
<text xml:space="preserve" text-anchor="middle" x="226" y="-985.62" font-family="Helvetica,sans-Serif" font-size="10.00" fill="#ece1d7">transaction, and ClickHouse progress</text>
</g>
<!-- feed&#45;&gt;snap -->
<g id="edge9" class="edge">
<title>feed&#45;&gt;snap</title>
<path fill="none" stroke="#c1a78e" d="M192.06,-1204.5C161.15,-1189.88 122.46,-1165.69 104,-1130.62 80.22,-1085.47 135.31,-1043.63 179.02,-1018.98"/>
<polygon fill="#c1a78e" stroke="#c1a78e" points="180.56,-1022.13 187.66,-1014.27 177.2,-1015.99 180.56,-1022.13"/>
<text xml:space="preserve" text-anchor="middle" x="119" y="-1109.7" font-family="Helvetica,sans-Serif" font-size="9.00" fill="#ece1d7">source</text>
</g>
<!-- segsink -->
<g id="node6" class="node">
<title>segsink</title>
<path fill="#4d3340" stroke="#6e6963" d="M521.88,-1130.62C521.88,-1130.62 334.12,-1130.62 334.12,-1130.62 328.12,-1130.62 322.12,-1124.62 322.12,-1118.62 322.12,-1118.62 322.12,-1106.62 322.12,-1106.62 322.12,-1100.62 328.12,-1094.62 334.12,-1094.62 334.12,-1094.62 521.88,-1094.62 521.88,-1094.62 527.88,-1094.62 533.88,-1100.62 533.88,-1106.62 533.88,-1106.62 533.88,-1118.62 533.88,-1118.62 533.88,-1124.62 527.88,-1130.62 521.88,-1130.62"/>
<text xml:space="preserve" text-anchor="middle" x="428" y="-1115.88" font-family="Helvetica,sans-Serif" font-size="10.00" fill="#ece1d7">filtered WAL archive</text>
<text xml:space="preserve" text-anchor="middle" x="428" y="-1103.12" font-family="Helvetica,sans-Serif" font-size="10.00" fill="#ece1d7">save segment before reporting progress</text>
</g>
<!-- segsink&#45;&gt;snap -->
<g id="edge10" class="edge">
<title>segsink&#45;&gt;snap</title>
<path fill="none" stroke="#c1a78e" d="M397.76,-1094.33C362.8,-1074.35 305.12,-1041.36 266.36,-1019.2"/>
<polygon fill="#c1a78e" stroke="#c1a78e" points="268.18,-1016.21 257.76,-1014.29 264.71,-1022.29 268.18,-1016.21"/>
<text xml:space="preserve" text-anchor="middle" x="369.47" y="-1057.08" font-family="Helvetica,sans-Serif" font-size="9.00" fill="#ece1d7">saved WAL</text>
</g>
<!-- xact -->
<g id="node7" class="node">
<title>xact</title>
<path fill="#4d4128" stroke="#6e6963" d="M749.5,-1130.62C749.5,-1130.62 574.5,-1130.62 574.5,-1130.62 568.5,-1130.62 562.5,-1124.62 562.5,-1118.62 562.5,-1118.62 562.5,-1106.62 562.5,-1106.62 562.5,-1100.62 568.5,-1094.62 574.5,-1094.62 574.5,-1094.62 749.5,-1094.62 749.5,-1094.62 755.5,-1094.62 761.5,-1100.62 761.5,-1106.62 761.5,-1106.62 761.5,-1118.62 761.5,-1118.62 761.5,-1124.62 755.5,-1130.62 749.5,-1130.62"/>
<text xml:space="preserve" text-anchor="middle" x="662" y="-1115.88" font-family="Helvetica,sans-Serif" font-size="10.00" fill="#ece1d7">transaction pipeline</text>
<text xml:space="preserve" text-anchor="middle" x="662" y="-1103.12" font-family="Helvetica,sans-Serif" font-size="10.00" fill="#ece1d7">open transactions + durable progress</text>
</g>
<!-- xact&#45;&gt;snap -->
<g id="edge11" class="edge">
<title>xact&#45;&gt;snap</title>
<path fill="none" stroke="#c1a78e" d="M596.25,-1094.21C517.59,-1073.37 386.11,-1038.54 302.84,-1016.48"/>
<polygon fill="#c1a78e" stroke="#c1a78e" points="303.95,-1013.15 293.39,-1013.98 302.16,-1019.92 303.95,-1013.15"/>
<text xml:space="preserve" text-anchor="middle" x="510.8" y="-1057.08" font-family="Helvetica,sans-Serif" font-size="9.00" fill="#ece1d7">transactions</text>
</g>
<!-- retire_toml -->
<g id="node18" class="node">
<title>retire_toml</title>
<polygon fill="#4d3850" stroke="#6e6963" points="802.12,-542.03 669.88,-542.03 669.88,-506.03 808.12,-506.03 808.12,-536.03 802.12,-542.03"/>
<polyline fill="none" stroke="#6e6963" points="802.12,-542.03 802.12,-536.03"/>
<polyline fill="none" stroke="#6e6963" points="808.12,-536.03 802.12,-536.03"/>
<text xml:space="preserve" text-anchor="middle" x="739" y="-527.28" font-family="Helvetica,sans-Serif" font-size="10.00" fill="#ece1d7">toast_retires.toml</text>
<text xml:space="preserve" text-anchor="middle" x="739" y="-514.53" font-family="Helvetica,sans-Serif" font-size="10.00" fill="#ece1d7">saved mirror retirements</text>
</g>
<!-- xact&#45;&gt;retire_toml -->
<g id="edge15" class="edge">
<title>xact&#45;&gt;retire_toml</title>
<path fill="none" stroke="#6e6963" stroke-dasharray="5,2" d="M671.84,-1094.24C683.39,-1072.15 701,-1032.53 701,-996.12 701,-996.12 701,-996.12 701,-633.31 701,-604.51 713.12,-573.7 723.67,-552.34"/>
<polygon fill="#6e6963" stroke="#6e6963" points="726.64,-554.22 728.12,-543.73 720.42,-551.01 726.64,-554.22"/>
<text xml:space="preserve" text-anchor="middle" x="727.62" y="-806.58" font-family="Helvetica,sans-Serif" font-size="9.00" fill="#ece1d7">record drop</text>
</g>
<!-- sweeper&#45;&gt;snap -->
<g id="edge12" class="edge">
<title>sweeper&#45;&gt;snap</title>
<path fill="none" stroke="#c1a78e" d="M803.79,-1094.16C794.59,-1091.41 785.06,-1088.78 776,-1086.62 625.35,-1050.88 448.16,-1024.46 336.46,-1009.68"/>
<polygon fill="#c1a78e" stroke="#c1a78e" points="337.06,-1006.23 326.69,-1008.39 336.14,-1013.17 337.06,-1006.23"/>
<text xml:space="preserve" text-anchor="middle" x="704.43" y="-1057.08" font-family="Helvetica,sans-Serif" font-size="9.00" fill="#ece1d7">shadow replay</text>
</g>
<!-- trim -->
<g id="node21" class="node">
<title>trim</title>
<path fill="#4d3a28" stroke="#6e6963" d="M927,-1013.12C927,-1013.12 785,-1013.12 785,-1013.12 779,-1013.12 773,-1007.12 773,-1001.12 773,-1001.12 773,-989.12 773,-989.12 773,-983.12 779,-977.12 785,-977.12 785,-977.12 927,-977.12 927,-977.12 933,-977.12 939,-983.12 939,-989.12 939,-989.12 939,-1001.12 939,-1001.12 939,-1007.12 933,-1013.12 927,-1013.12"/>
<text xml:space="preserve" text-anchor="middle" x="856" y="-998.38" font-family="Helvetica,sans-Serif" font-size="10.00" fill="#ece1d7">trim old filtered WAL</text>
<text xml:space="preserve" text-anchor="middle" x="856" y="-985.62" font-family="Helvetica,sans-Serif" font-size="10.00" fill="#ece1d7">keep shadow recovery window</text>
</g>
<!-- sweeper&#45;&gt;trim -->
<g id="edge20" class="edge">
<title>sweeper&#45;&gt;trim</title>
<path fill="none" stroke="#6e6963" stroke-dasharray="5,2" d="M856,-1094.58C856,-1076.26 856,-1046.82 856,-1024.9"/>
<polygon fill="#6e6963" stroke="#6e6963" points="859.5,-1025.13 856,-1015.13 852.5,-1025.13 859.5,-1025.13"/>
</g>
<!-- walsrv&#45;&gt;snap -->
<g id="edge13" class="edge">
<title>walsrv&#45;&gt;snap</title>
<path fill="none" stroke="#bd8183" d="M221.74,-1094.58C222.53,-1076.26 223.81,-1046.82 224.75,-1024.9"/>
<polygon fill="#bd8183" stroke="#bd8183" points="228.24,-1025.27 225.18,-1015.13 221.25,-1024.97 228.24,-1025.27"/>
<text xml:space="preserve" text-anchor="middle" x="258.23" y="-1057.08" font-family="Helvetica,sans-Serif" font-size="9.00" fill="#ece1d7">shadow receive</text>
</g>
<!-- floor -->
<g id="node11" class="node">
<title>floor</title>
<path fill="#4d3a28" stroke="#6e6963" d="M154.5,-832.62C154.5,-832.62 39.5,-832.62 39.5,-832.62 33.5,-832.62 27.5,-826.62 27.5,-820.62 27.5,-820.62 27.5,-798.38 27.5,-798.38 27.5,-792.38 33.5,-786.38 39.5,-786.38 39.5,-786.38 154.5,-786.38 154.5,-786.38 160.5,-786.38 166.5,-792.38 166.5,-798.38 166.5,-798.38 166.5,-820.62 166.5,-820.62 166.5,-826.62 160.5,-832.62 154.5,-832.62"/>
<text xml:space="preserve" text-anchor="middle" x="97" y="-819.12" font-family="Helvetica,sans-Serif" font-size="10.00" fill="#ece1d7">choose safe restart point</text>
<text xml:space="preserve" text-anchor="middle" x="97" y="-806.38" font-family="Helvetica,sans-Serif" font-size="10.00" fill="#ece1d7">never pass saved WAL or</text>
<text xml:space="preserve" text-anchor="middle" x="97" y="-793.62" font-family="Helvetica,sans-Serif" font-size="10.00" fill="#ece1d7">an unfinished transaction</text>
</g>
<!-- snap&#45;&gt;floor -->
<g id="edge1" class="edge">
<title>snap&#45;&gt;floor</title>
<path fill="none" stroke="#c1a78e" d="M199.85,-976.86C178.06,-961.22 147.67,-936.32 129,-907.88 116.27,-888.47 108.2,-863.57 103.36,-843.81"/>
<polygon fill="#c1a78e" stroke="#c1a78e" points="106.83,-843.29 101.2,-834.32 100,-844.85 106.83,-843.29"/>
</g>
<!-- apply -->
<g id="node12" class="node">
<title>apply</title>
<path fill="#4d3a28" stroke="#6e6963" d="M298.75,-902.75C298.75,-902.75 155.25,-902.75 155.25,-902.75 149.25,-902.75 143.25,-896.75 143.25,-890.75 143.25,-890.75 143.25,-878.75 143.25,-878.75 143.25,-872.75 149.25,-866.75 155.25,-866.75 155.25,-866.75 298.75,-866.75 298.75,-866.75 304.75,-866.75 310.75,-872.75 310.75,-878.75 310.75,-878.75 310.75,-890.75 310.75,-890.75 310.75,-896.75 304.75,-902.75 298.75,-902.75"/>
<text xml:space="preserve" text-anchor="middle" x="227" y="-888" font-family="Helvetica,sans-Serif" font-size="10.00" fill="#ece1d7">cap source feedback at</text>
<text xml:space="preserve" text-anchor="middle" x="227" y="-875.25" font-family="Helvetica,sans-Serif" font-size="10.00" fill="#ece1d7">shadow + ClickHouse progress</text>
</g>
<!-- snap&#45;&gt;apply -->
<g id="edge4" class="edge">
<title>snap&#45;&gt;apply</title>
<path fill="none" stroke="#c1a78e" d="M226.16,-976.71C226.32,-959.96 226.55,-934.34 226.73,-914.55"/>
<polygon fill="#c1a78e" stroke="#c1a78e" points="230.23,-914.66 226.83,-904.63 223.23,-914.6 230.23,-914.66"/>
</g>
<!-- metrics -->
<g id="node22" class="node">
<title>metrics</title>
<path fill="#4d4128" stroke="#6e6963" d="M480.88,-902.75C480.88,-902.75 353.12,-902.75 353.12,-902.75 347.12,-902.75 341.12,-896.75 341.12,-890.75 341.12,-890.75 341.12,-878.75 341.12,-878.75 341.12,-872.75 347.12,-866.75 353.12,-866.75 353.12,-866.75 480.88,-866.75 480.88,-866.75 486.88,-866.75 492.88,-872.75 492.88,-878.75 492.88,-878.75 492.88,-890.75 492.88,-890.75 492.88,-896.75 486.88,-902.75 480.88,-902.75"/>
<text xml:space="preserve" text-anchor="middle" x="417" y="-888" font-family="Helvetica,sans-Serif" font-size="10.00" fill="#ece1d7">metrics snapshot</text>
<text xml:space="preserve" text-anchor="middle" x="417" y="-875.25" font-family="Helvetica,sans-Serif" font-size="10.00" fill="#ece1d7">export progress + apply lag</text>
</g>
<!-- snap&#45;&gt;metrics -->
<g id="edge22" class="edge">
<title>snap&#45;&gt;metrics</title>
<path fill="none" stroke="#cba85e" stroke-dasharray="5,2" d="M256.69,-976.71C289.27,-958.23 340.9,-928.93 376.73,-908.6"/>
<polygon fill="#cba85e" stroke="#cba85e" points="378.1,-911.85 385.07,-903.87 374.65,-905.76 378.1,-911.85"/>
<text xml:space="preserve" text-anchor="middle" x="368.38" y="-939.58" font-family="Helvetica,sans-Serif" font-size="9.00" fill="#ece1d7">progress + apply lag</text>
</g>
<!-- mwrite -->
<g id="node13" class="node">
<title>mwrite</title>
<path fill="#4d3a28" stroke="#6e6963" d="M147.75,-652.31C147.75,-652.31 28.25,-652.31 28.25,-652.31 22.25,-652.31 16.25,-646.31 16.25,-640.31 16.25,-640.31 16.25,-628.31 16.25,-628.31 16.25,-622.31 22.25,-616.31 28.25,-616.31 28.25,-616.31 147.75,-616.31 147.75,-616.31 153.75,-616.31 159.75,-622.31 159.75,-628.31 159.75,-628.31 159.75,-640.31 159.75,-640.31 159.75,-646.31 153.75,-652.31 147.75,-652.31"/>
<text xml:space="preserve" text-anchor="middle" x="88" y="-637.56" font-family="Helvetica,sans-Serif" font-size="10.00" fill="#ece1d7">save manifest.toml</text>
<text xml:space="preserve" text-anchor="middle" x="88" y="-624.81" font-family="Helvetica,sans-Serif" font-size="10.00" fill="#ece1d7">using atomic replacement</text>
</g>
<!-- floor&#45;&gt;mwrite -->
<g id="edge2" class="edge">
<title>floor&#45;&gt;mwrite</title>
<path fill="none" stroke="#b380b0" stroke-width="2" stroke-dasharray="1,5" d="M95.84,-786.21C94.25,-755.54 91.37,-700.21 89.58,-665.74"/>
<polygon fill="#b380b0" stroke="#b380b0" stroke-width="2" points="93.08,-665.64 89.07,-655.83 86.09,-666 93.08,-665.64"/>
</g>
<!-- triple -->
<g id="node15" class="node">
<title>triple</title>
<path fill="#4d3a28" stroke="#6e6963" d="M308.12,-752.34C308.12,-752.34 175.88,-752.34 175.88,-752.34 169.88,-752.34 163.88,-746.34 163.88,-740.34 163.88,-740.34 163.88,-728.34 163.88,-728.34 163.88,-722.34 169.88,-716.34 175.88,-716.34 175.88,-716.34 308.12,-716.34 308.12,-716.34 314.12,-716.34 320.12,-722.34 320.12,-728.34 320.12,-728.34 320.12,-740.34 320.12,-740.34 320.12,-746.34 314.12,-752.34 308.12,-752.34"/>
<text xml:space="preserve" text-anchor="middle" x="242" y="-737.59" font-family="Helvetica,sans-Serif" font-size="10.00" fill="#ece1d7">build source feedback</text>
<text xml:space="preserve" text-anchor="middle" x="242" y="-724.84" font-family="Helvetica,sans-Serif" font-size="10.00" fill="#ece1d7">write / flush / apply positions</text>
</g>
<!-- apply&#45;&gt;triple -->
<g id="edge5" class="edge">
<title>apply&#45;&gt;triple</title>
<path fill="none" stroke="#c1a78e" d="M228.75,-866.44C231.3,-841.19 236.07,-793.99 239.14,-763.65"/>
<polygon fill="#c1a78e" stroke="#c1a78e" points="242.59,-764.36 240.11,-754.05 235.62,-763.65 242.59,-764.36"/>
</g>
<!-- publish -->
<g id="node14" class="node">
<title>publish</title>
<path fill="#4d3a28" stroke="#6e6963" d="M223.12,-542.03C223.12,-542.03 108.88,-542.03 108.88,-542.03 102.88,-542.03 96.88,-536.03 96.88,-530.03 96.88,-530.03 96.88,-518.03 96.88,-518.03 96.88,-512.03 102.88,-506.03 108.88,-506.03 108.88,-506.03 223.12,-506.03 223.12,-506.03 229.12,-506.03 235.12,-512.03 235.12,-518.03 235.12,-518.03 235.12,-530.03 235.12,-530.03 235.12,-536.03 229.12,-542.03 223.12,-542.03"/>
<text xml:space="preserve" text-anchor="middle" x="166" y="-527.28" font-family="Helvetica,sans-Serif" font-size="10.00" fill="#ece1d7">share saved restart point</text>
<text xml:space="preserve" text-anchor="middle" x="166" y="-514.53" font-family="Helvetica,sans-Serif" font-size="10.00" fill="#ece1d7">with cleanup tasks</text>
</g>
<!-- mwrite&#45;&gt;publish -->
<g id="edge3" class="edge">
<title>mwrite&#45;&gt;publish</title>
<path fill="none" stroke="#b380b0" stroke-width="2" stroke-dasharray="1,5" d="M100.53,-615.92C112.81,-598.87 131.73,-572.61 146.07,-552.7"/>
<polygon fill="#b380b0" stroke="#b380b0" stroke-width="2" points="148.72,-555 151.73,-544.84 143.04,-550.91 148.72,-555"/>
</g>
<!-- manifest_toml -->
<g id="node17" class="node">
<title>manifest_toml</title>
<polygon fill="#4d3850" stroke="#6e6963" points="498.5,-542.03 341.5,-542.03 341.5,-506.03 504.5,-506.03 504.5,-536.03 498.5,-542.03"/>
<polyline fill="none" stroke="#6e6963" points="498.5,-542.03 498.5,-536.03"/>
<polyline fill="none" stroke="#6e6963" points="504.5,-536.03 498.5,-536.03"/>
<text xml:space="preserve" text-anchor="middle" x="423" y="-527.28" font-family="Helvetica,sans-Serif" font-size="10.00" fill="#ece1d7">manifest.toml</text>
<text xml:space="preserve" text-anchor="middle" x="423" y="-514.53" font-family="Helvetica,sans-Serif" font-size="10.00" fill="#ece1d7">source identity + restart state</text>
</g>
<!-- mwrite&#45;&gt;manifest_toml -->
<g id="edge14" class="edge">
<title>mwrite&#45;&gt;manifest_toml</title>
<path fill="none" stroke="#b380b0" stroke-width="2" stroke-dasharray="1,5" d="M141.82,-615.92C200.34,-597 293.92,-566.75 356.87,-546.41"/>
<polygon fill="#b380b0" stroke="#b380b0" stroke-width="2" points="357.71,-549.81 366.15,-543.41 355.56,-543.15 357.71,-549.81"/>
<text xml:space="preserve" text-anchor="middle" x="265.62" y="-578.76" font-family="Helvetica,sans-Serif" font-size="9.00" fill="#ece1d7">save</text>
</g>
<!-- retire_flush -->
<g id="node19" class="node">
<title>retire_flush</title>
<path fill="#4d3a28" stroke="#6e6963" d="M803,-286.5C803,-286.5 625,-286.5 625,-286.5 619,-286.5 613,-280.5 613,-274.5 613,-274.5 613,-262.5 613,-262.5 613,-256.5 619,-250.5 625,-250.5 625,-250.5 803,-250.5 803,-250.5 809,-250.5 815,-256.5 815,-262.5 815,-262.5 815,-274.5 815,-274.5 815,-280.5 809,-286.5 803,-286.5"/>
<text xml:space="preserve" text-anchor="middle" x="714" y="-271.75" font-family="Helvetica,sans-Serif" font-size="10.00" fill="#ece1d7">apply mirror retirements</text>
<text xml:space="preserve" text-anchor="middle" x="714" y="-259" font-family="Helvetica,sans-Serif" font-size="10.00" fill="#ece1d7">once restart can no longer replay drop</text>
</g>
<!-- publish&#45;&gt;retire_flush -->
<g id="edge16" class="edge">
<title>publish&#45;&gt;retire_flush</title>
<path fill="none" stroke="#b380b0" stroke-dasharray="1,5" d="M235.61,-512.87C336.52,-497.24 517.56,-465.54 574,-431.75 630.6,-397.86 675.96,-333.07 698.5,-296.45"/>
<polygon fill="#b380b0" stroke="#b380b0" points="701.3,-298.58 703.46,-288.21 695.3,-294.97 701.3,-298.58"/>
<text xml:space="preserve" text-anchor="middle" x="513.56" y="-463.45" font-family="Helvetica,sans-Serif" font-size="9.00" fill="#ece1d7">safe point</text>
</g>
<!-- sendst -->
<g id="node16" class="node">
<title>sendst</title>
<path fill="#3d3d54" stroke="#6e6963" d="M313.38,-652.31C313.38,-652.31 200.62,-652.31 200.62,-652.31 194.62,-652.31 188.62,-646.31 188.62,-640.31 188.62,-640.31 188.62,-628.31 188.62,-628.31 188.62,-622.31 194.62,-616.31 200.62,-616.31 200.62,-616.31 313.38,-616.31 313.38,-616.31 319.38,-616.31 325.38,-622.31 325.38,-628.31 325.38,-628.31 325.38,-640.31 325.38,-640.31 325.38,-646.31 319.38,-652.31 313.38,-652.31"/>
<text xml:space="preserve" text-anchor="middle" x="257" y="-637.56" font-family="Helvetica,sans-Serif" font-size="10.00" fill="#ece1d7">send feedback</text>
<text xml:space="preserve" text-anchor="middle" x="257" y="-624.81" font-family="Helvetica,sans-Serif" font-size="10.00" fill="#ece1d7">to source replication slot</text>
</g>
<!-- triple&#45;&gt;sendst -->
<g id="edge6" class="edge">
<title>triple&#45;&gt;sendst</title>
<path fill="none" stroke="#c1a78e" d="M244.61,-716.27C246.84,-701.74 250.07,-680.58 252.68,-663.53"/>
<polygon fill="#c1a78e" stroke="#c1a78e" points="256.09,-664.43 254.14,-654.02 249.17,-663.37 256.09,-664.43"/>
</g>
<!-- sendst&#45;&gt;src -->
<g id="edge19" class="edge">
<title>sendst&#45;&gt;src</title>
<path fill="none" stroke="#a1a9cc" stroke-width="2" d="M310.02,-615.92C367.38,-597.1 458.92,-567.06 520.92,-546.71"/>
<polygon fill="#a1a9cc" stroke="#a1a9cc" stroke-width="2" points="522,-550.04 530.41,-543.6 519.82,-543.39 522,-550.04"/>
<text xml:space="preserve" text-anchor="middle" x="467.75" y="-578.76" font-family="Helvetica,sans-Serif" font-size="9.00" fill="#ece1d7">replication feedback</text>
</g>
<!-- legend -->
<g id="node23" class="node">
<title>legend</title>
<path fill="#6e6963" stroke="none" d="M547.5,-431.75C547.5,-431.75 298.5,-431.75 298.5,-431.75 292.5,-431.75 286.5,-425.75 286.5,-419.75 286.5,-419.75 286.5,-117.25 286.5,-117.25 286.5,-111.25 292.5,-105.25 298.5,-105.25 298.5,-105.25 547.5,-105.25 547.5,-105.25 553.5,-105.25 559.5,-111.25 559.5,-117.25 559.5,-117.25 559.5,-419.75 559.5,-419.75 559.5,-425.75 553.5,-431.75 547.5,-431.75"/>
<polygon fill="#34302c" stroke="none" points="294.5,-405 294.5,-427.75 551.5,-427.75 551.5,-405 294.5,-405"/>
<polygon fill="none" stroke="#6e6963" points="294.5,-405 294.5,-427.75 551.5,-427.75 551.5,-405 294.5,-405"/>
<text xml:space="preserve" text-anchor="start" x="379.88" y="-414.25" font-family="Helvetica,sans-Serif" font-weight="bold" font-size="10.00" fill="#ece1d7">node fill — role</text>
<polygon fill="#3d3d54" stroke="none" points="294.5,-382.25 294.5,-405 322.5,-405 322.5,-382.25 294.5,-382.25"/>
<polygon fill="none" stroke="#6e6963" points="294.5,-382.25 294.5,-405 322.5,-405 322.5,-382.25 294.5,-382.25"/>
<polygon fill="none" stroke="#6e6963" points="322.5,-382.25 322.5,-405 551.5,-405 551.5,-382.25 322.5,-382.25"/>
<text xml:space="preserve" text-anchor="start" x="390.5" y="-390.25" font-family="Helvetica,sans-Serif" font-size="10.00" fill="#ece1d7">source PG / ingress</text>
<polygon fill="#4d3a28" stroke="none" points="294.5,-359.5 294.5,-382.25 322.5,-382.25 322.5,-359.5 294.5,-359.5"/>
<polygon fill="none" stroke="#6e6963" points="294.5,-359.5 294.5,-382.25 322.5,-382.25 322.5,-359.5 294.5,-359.5"/>
<polygon fill="none" stroke="#6e6963" points="322.5,-359.5 322.5,-382.25 551.5,-382.25 551.5,-359.5 322.5,-359.5"/>
<text xml:space="preserve" text-anchor="start" x="366.5" y="-367.5" font-family="Helvetica,sans-Serif" font-size="10.00" fill="#ece1d7">walshadow status / retention</text>
<polygon fill="#4d3340" stroke="none" points="294.5,-336.75 294.5,-359.5 322.5,-359.5 322.5,-336.75 294.5,-336.75"/>
<polygon fill="none" stroke="#6e6963" points="294.5,-336.75 294.5,-359.5 322.5,-359.5 322.5,-336.75 294.5,-336.75"/>
<polygon fill="none" stroke="#6e6963" points="322.5,-336.75 322.5,-359.5 551.5,-359.5 551.5,-336.75 322.5,-336.75"/>
<text xml:space="preserve" text-anchor="start" x="375.12" y="-344.75" font-family="Helvetica,sans-Serif" font-size="10.00" fill="#ece1d7">walshadow segment sink</text>
<polygon fill="#4d4128" stroke="none" points="294.5,-314 294.5,-336.75 322.5,-336.75 322.5,-314 294.5,-314"/>
<polygon fill="none" stroke="#6e6963" points="294.5,-314 294.5,-336.75 322.5,-336.75 322.5,-314 294.5,-314"/>
<polygon fill="none" stroke="#6e6963" points="322.5,-314 322.5,-336.75 551.5,-336.75 551.5,-314 322.5,-314"/>
<text xml:space="preserve" text-anchor="start" x="359" y="-322" font-family="Helvetica,sans-Serif" font-size="10.00" fill="#ece1d7">walshadow xact buffer / metrics</text>
<polygon fill="#5d3f40" stroke="none" points="294.5,-291.25 294.5,-314 322.5,-314 322.5,-291.25 294.5,-291.25"/>
<polygon fill="none" stroke="#6e6963" points="294.5,-291.25 294.5,-314 322.5,-314 322.5,-291.25 294.5,-291.25"/>
<polygon fill="none" stroke="#6e6963" points="322.5,-291.25 322.5,-314 551.5,-314 551.5,-291.25 322.5,-291.25"/>
<text xml:space="preserve" text-anchor="start" x="366.12" y="-299.25" font-family="Helvetica,sans-Serif" font-size="10.00" fill="#ece1d7">walshadow walsender server</text>
<polygon fill="#4d3850" stroke="none" points="294.5,-268.5 294.5,-291.25 322.5,-291.25 322.5,-268.5 294.5,-268.5"/>
<polygon fill="none" stroke="#6e6963" points="294.5,-268.5 294.5,-291.25 322.5,-291.25 322.5,-268.5 294.5,-268.5"/>
<polygon fill="none" stroke="#6e6963" points="322.5,-268.5 322.5,-291.25 551.5,-291.25 551.5,-268.5 322.5,-268.5"/>
<text xml:space="preserve" text-anchor="start" x="399.88" y="-276.5" font-family="Helvetica,sans-Serif" font-size="10.00" fill="#ece1d7">on&#45;disk artifact</text>
<polygon fill="#3d4128" stroke="none" points="294.5,-245.75 294.5,-268.5 322.5,-268.5 322.5,-245.75 294.5,-245.75"/>
<polygon fill="none" stroke="#6e6963" points="294.5,-245.75 294.5,-268.5 322.5,-268.5 322.5,-245.75 294.5,-245.75"/>
<polygon fill="none" stroke="#6e6963" points="322.5,-245.75 322.5,-268.5 551.5,-268.5 551.5,-245.75 322.5,-245.75"/>
<text xml:space="preserve" text-anchor="start" x="395.75" y="-253.75" font-family="Helvetica,sans-Serif" font-size="10.00" fill="#ece1d7">shadow Postgres</text>
<polygon fill="#34302c" stroke="none" points="294.5,-223 294.5,-245.75 551.5,-245.75 551.5,-223 294.5,-223"/>
<polygon fill="none" stroke="#6e6963" points="294.5,-223 294.5,-245.75 551.5,-245.75 551.5,-223 294.5,-223"/>
<text xml:space="preserve" text-anchor="start" x="389.25" y="-232.25" font-family="Helvetica,sans-Serif" font-weight="bold" font-size="10.00" fill="#ece1d7">edge colour</text>
<polygon fill="none" stroke="#6e6963" points="294.5,-200.25 294.5,-223 322.5,-223 322.5,-200.25 294.5,-200.25"/>
<text xml:space="preserve" text-anchor="start" x="302.5" y="-209.5" font-family="Helvetica,sans-Serif" font-weight="bold" font-size="10.00" fill="#a1a9cc">━━</text>
<polygon fill="none" stroke="#6e6963" points="322.5,-200.25 322.5,-223 551.5,-223 551.5,-200.25 322.5,-200.25"/>
<text xml:space="preserve" text-anchor="start" x="327.5" y="-208.25" font-family="Helvetica,sans-Serif" font-size="10.00" fill="#ece1d7">source replication (&#39;r&#39; standby) / Prom scrape</text>
<polygon fill="none" stroke="#6e6963" points="294.5,-177.5 294.5,-200.25 322.5,-200.25 322.5,-177.5 294.5,-177.5"/>
<text xml:space="preserve" text-anchor="start" x="302.5" y="-186.75" font-family="Helvetica,sans-Serif" font-weight="bold" font-size="10.00" fill="#bd8183">━━</text>
<polygon fill="none" stroke="#6e6963" points="322.5,-177.5 322.5,-200.25 551.5,-200.25 551.5,-177.5 322.5,-177.5"/>
<text xml:space="preserve" text-anchor="start" x="356.38" y="-185.5" font-family="Helvetica,sans-Serif" font-size="10.00" fill="#ece1d7">walsender wire (&#39;r&#39; from shadow)</text>
<polygon fill="none" stroke="#6e6963" points="294.5,-154.75 294.5,-177.5 322.5,-177.5 322.5,-154.75 294.5,-154.75"/>
<text xml:space="preserve" text-anchor="start" x="302.5" y="-164" font-family="Helvetica,sans-Serif" font-weight="bold" font-size="10.00" fill="#cba85e">━━</text>
<polygon fill="none" stroke="#6e6963" points="322.5,-154.75 322.5,-177.5 551.5,-177.5 551.5,-154.75 322.5,-154.75"/>
<text xml:space="preserve" text-anchor="start" x="357.88" y="-162.75" font-family="Helvetica,sans-Serif" font-size="10.00" fill="#ece1d7">libpq catalog query / metrics tap</text>
<polygon fill="none" stroke="#6e6963" points="294.5,-132 294.5,-154.75 322.5,-154.75 322.5,-132 294.5,-132"/>
<text xml:space="preserve" text-anchor="start" x="302.88" y="-141.25" font-family="Helvetica,sans-Serif" font-weight="bold" font-size="10.00" fill="#b380b0">···</text>
<polygon fill="none" stroke="#6e6963" points="322.5,-132 322.5,-154.75 551.5,-154.75 551.5,-132 322.5,-132"/>
<text xml:space="preserve" text-anchor="start" x="360.12" y="-140" font-family="Helvetica,sans-Serif" font-size="10.00" fill="#ece1d7">manifest persist → floor publish</text>
<polygon fill="none" stroke="#6e6963" points="294.5,-109.25 294.5,-132 322.5,-132 322.5,-109.25 294.5,-109.25"/>
<text xml:space="preserve" text-anchor="start" x="302.5" y="-118.5" font-family="Helvetica,sans-Serif" font-weight="bold" font-size="10.00" fill="#6e6963">┄┄</text>
<polygon fill="none" stroke="#6e6963" points="322.5,-109.25 322.5,-132 551.5,-132 551.5,-109.25 322.5,-109.25"/>
<text xml:space="preserve" text-anchor="start" x="373.25" y="-117.25" font-family="Helvetica,sans-Serif" font-size="10.00" fill="#ece1d7">filesystem (segment trim)</text>
</g>
<!-- manifest_toml&#45;&gt;legend -->
<!-- retire_toml&#45;&gt;retire_flush -->
<g id="edge17" class="edge">
<title>retire_toml&#45;&gt;retire_flush</title>
<path fill="none" stroke="#6e6963" stroke-dasharray="5,2" d="M737.28,-505.61C733.03,-462.53 722.01,-350.73 716.8,-297.92"/>
<polygon fill="#6e6963" stroke="#6e6963" points="720.31,-297.83 715.85,-288.22 713.34,-298.51 720.31,-297.83"/>
<text xml:space="preserve" text-anchor="middle" x="752.35" y="-463.45" font-family="Helvetica,sans-Serif" font-size="9.00" fill="#ece1d7">pending</text>
</g>
<!-- retire_flush&#45;&gt;toastmirror -->
<g id="edge18" class="edge">
<title>retire_flush&#45;&gt;toastmirror</title>
<path fill="none" stroke="#bf8c5f" stroke-dasharray="5,2" d="M714,-250.03C714,-207.79 714,-99.8 714,-47.81"/>
<polygon fill="#bf8c5f" stroke="#bf8c5f" points="717.5,-47.97 714,-37.97 710.5,-47.97 717.5,-47.97"/>
<text xml:space="preserve" text-anchor="middle" x="739.88" y="-67.7" font-family="Helvetica,sans-Serif" font-size="9.00" fill="#ece1d7">wipe mirror</text>
</g>
<!-- outdir -->
<g id="node20" class="node">
<title>outdir</title>
<polygon fill="#4d3850" stroke="#6e6963" points="905.62,-907.88 800.38,-907.88 800.38,-861.62 911.62,-861.62 911.62,-901.88 905.62,-907.88"/>
<polyline fill="none" stroke="#6e6963" points="905.62,-907.88 905.62,-901.88"/>
<polyline fill="none" stroke="#6e6963" points="911.62,-901.88 905.62,-901.88"/>
<text xml:space="preserve" text-anchor="middle" x="856" y="-894.38" font-family="Helvetica,sans-Serif" font-size="10.00" fill="#ece1d7">out/&lt;seg&gt;</text>
<text xml:space="preserve" text-anchor="middle" x="856" y="-881.62" font-family="Helvetica,sans-Serif" font-size="10.00" fill="#ece1d7">filtered 16 MiB WAL</text>
<text xml:space="preserve" text-anchor="middle" x="856" y="-868.88" font-family="Helvetica,sans-Serif" font-size="10.00" fill="#ece1d7">+ manifest.json</text>
</g>
<!-- trim&#45;&gt;outdir -->
<g id="edge21" class="edge">
<title>trim&#45;&gt;outdir</title>
<path fill="none" stroke="#6e6963" stroke-dasharray="5,2" d="M856,-976.71C856,-961.33 856,-938.45 856,-919.49"/>
<polygon fill="#6e6963" stroke="#6e6963" points="859.5,-919.51 856,-909.51 852.5,-919.51 859.5,-919.51"/>
<text xml:space="preserve" text-anchor="middle" x="891.62" y="-939.58" font-family="Helvetica,sans-Serif" font-size="9.00" fill="#ece1d7">remove old files</text>
</g>
<!-- metrics&#45;&gt;prom -->
<g id="edge23" class="edge">
<title>metrics&#45;&gt;prom</title>
<path fill="none" stroke="#a1a9cc" d="M417,-866.44C417,-842.68 417,-799.47 417,-769.17"/>
<polygon fill="#a1a9cc" stroke="#a1a9cc" points="420.5,-769.38 417,-759.38 413.5,-769.38 420.5,-769.38"/>
<text xml:space="preserve" text-anchor="middle" x="448.12" y="-806.58" font-family="Helvetica,sans-Serif" font-size="9.00" fill="#ece1d7">HTTP /metrics</text>
</g>
</g>
</svg>
