<?xml version="1.0" encoding="UTF-8" standalone="no"?>
<!DOCTYPE svg PUBLIC "-//W3C//DTD SVG 1.1//EN"
 "http://www.w3.org/Graphics/SVG/1.1/DTD/svg11.dtd">
<!-- Generated by graphviz version 14.1.5 (0)
 -->
<!-- Title: ops Pages: 1 -->
<svg width="1061pt" height="1697pt"
 viewBox="0.00 0.00 1061.00 1697.00" xmlns="http://www.w3.org/2000/svg" xmlns:xlink="http://www.w3.org/1999/xlink">
<g id="graph0" class="graph" transform="scale(1 1) rotate(0) translate(4 1692.67)">
<title>ops</title>
<polygon fill="#272623" stroke="none" points="-4,4 -4,-1692.67 1057.38,-1692.67 1057.38,4 -4,4"/>
<text xml:space="preserve" text-anchor="middle" x="526.69" y="-1671.37" font-family="Helvetica,sans-Serif" font-size="14.00" fill="#ece1d7">walshadow — cursor durability + slot advance (status_loop, 10 s cadence)</text>
<g id="clust1" class="cluster">
<title>cluster_inputs</title>
<path fill="#34302c" stroke="#4c4641" d="M157,-1431C157,-1431 897,-1431 897,-1431 903,-1431 909,-1437 909,-1443 909,-1443 909,-1643.42 909,-1643.42 909,-1649.42 903,-1655.42 897,-1655.42 897,-1655.42 157,-1655.42 157,-1655.42 151,-1655.42 145,-1649.42 145,-1643.42 145,-1643.42 145,-1443 145,-1443 145,-1437 151,-1431 157,-1431"/>
<text xml:space="preserve" text-anchor="middle" x="527" y="-1638.12" font-family="Helvetica,sans-Serif" font-size="14.00" fill="#ece1d7">LSN sources (single source of truth per field)</text>
</g>
<g id="clust2" class="cluster">
<title>cluster_status</title>
<path fill="#34302c" stroke="#4c4641" d="M20,-869C20,-869 369,-869 369,-869 375,-869 381,-875 381,-881 381,-881 381,-1367.5 381,-1367.5 381,-1373.5 375,-1379.5 369,-1379.5 369,-1379.5 20,-1379.5 20,-1379.5 14,-1379.5 8,-1373.5 8,-1367.5 8,-1367.5 8,-881 8,-881 8,-875 14,-869 20,-869"/>
<text xml:space="preserve" text-anchor="middle" x="194.5" y="-1362.2" font-family="Helvetica,sans-Serif" font-size="14.00" fill="#ece1d7">status_loop (bin/stream.rs, &#45;&#45;status&#45;interval = 10 s)</text>
</g>
<!-- shd -->
<g id="node1" class="node">
<title>shd</title>
<path fill="#3d4128" stroke="#6e6963" d="M1053.38,-1625.06C1053.38,-1628.25 1022.73,-1630.84 985,-1630.84 947.27,-1630.84 916.62,-1628.25 916.62,-1625.06 916.62,-1625.06 916.62,-1573.03 916.62,-1573.03 916.62,-1569.84 947.27,-1567.25 985,-1567.25 1022.73,-1567.25 1053.38,-1569.84 1053.38,-1573.03 1053.38,-1573.03 1053.38,-1625.06 1053.38,-1625.06"/>
<path fill="none" stroke="#6e6963" d="M1053.38,-1625.06C1053.38,-1621.87 1022.73,-1619.28 985,-1619.28 947.27,-1619.28 916.62,-1621.87 916.62,-1625.06"/>
<text xml:space="preserve" text-anchor="middle" x="985" y="-1608.67" font-family="Helvetica,sans-Serif" font-size="10.00" fill="#ece1d7">shadow PG</text>
<text xml:space="preserve" text-anchor="middle" x="985" y="-1595.92" font-family="Helvetica,sans-Serif" font-size="10.00" fill="#ece1d7">pg_last_wal_replay_lsn()</text>
<text xml:space="preserve" text-anchor="middle" x="985" y="-1583.17" font-family="Helvetica,sans-Serif" font-size="10.00" fill="#ece1d7">+ walreceiver &#39;r&#39; frames</text>
</g>
<!-- sweeper -->
<g id="node7" class="node">
<title>sweeper</title>
<path fill="#4d3a28" stroke="#6e6963" d="M689.75,-1491.62C689.75,-1491.62 504.25,-1491.62 504.25,-1491.62 498.25,-1491.62 492.25,-1485.62 492.25,-1479.62 492.25,-1479.62 492.25,-1457.38 492.25,-1457.38 492.25,-1451.38 498.25,-1445.38 504.25,-1445.38 504.25,-1445.38 689.75,-1445.38 689.75,-1445.38 695.75,-1445.38 701.75,-1451.38 701.75,-1457.38 701.75,-1457.38 701.75,-1479.62 701.75,-1479.62 701.75,-1485.62 695.75,-1491.62 689.75,-1491.62"/>
<text xml:space="preserve" text-anchor="middle" x="597" y="-1478.12" font-family="Helvetica,sans-Serif" font-size="10.00" fill="#ece1d7">retention_task (30 s)</text>
<text xml:space="preserve" text-anchor="middle" x="597" y="-1465.38" font-family="Helvetica,sans-Serif" font-size="10.00" fill="#ece1d7">SELECT pg_last_wal_replay_lsn()</text>
<text xml:space="preserve" text-anchor="middle" x="597" y="-1452.62" font-family="Helvetica,sans-Serif" font-size="10.00" fill="#ece1d7">→ Arc&lt;AtomicU64&gt; shadow_replay_lsn</text>
</g>
<!-- shd&#45;&gt;sweeper -->
<g id="edge5" class="edge">
<title>shd&#45;&gt;sweeper</title>
<path fill="none" stroke="#cba85e" stroke-dasharray="5,2" d="M918.41,-1569.28C916.59,-1568.58 914.79,-1567.91 913,-1567.25 838.61,-1539.92 752.58,-1513.64 689.09,-1495.23"/>
<polygon fill="#cba85e" stroke="#cba85e" points="690.33,-1491.95 679.76,-1492.54 688.39,-1498.68 690.33,-1491.95"/>
<text xml:space="preserve" text-anchor="middle" x="857.15" y="-1529.7" font-family="Helvetica,sans-Serif" font-size="9.00" fill="#ece1d7">libpq SELECT</text>
</g>
<!-- walsrv -->
<g id="node8" class="node">
<title>walsrv</title>
<path fill="#5d3f40" stroke="#6e6963" d="M889.25,-1498C889.25,-1498 742.75,-1498 742.75,-1498 736.75,-1498 730.75,-1492 730.75,-1486 730.75,-1486 730.75,-1451 730.75,-1451 730.75,-1445 736.75,-1439 742.75,-1439 742.75,-1439 889.25,-1439 889.25,-1439 895.25,-1439 901.25,-1445 901.25,-1451 901.25,-1451 901.25,-1486 901.25,-1486 901.25,-1492 895.25,-1498 889.25,-1498"/>
<text xml:space="preserve" text-anchor="middle" x="816" y="-1484.5" font-family="Helvetica,sans-Serif" font-size="10.00" fill="#ece1d7">walsender server</text>
<text xml:space="preserve" text-anchor="middle" x="816" y="-1471.75" font-family="Helvetica,sans-Serif" font-size="10.00" fill="#ece1d7">rx &#39;r&#39; standby frames</text>
<text xml:space="preserve" text-anchor="middle" x="816" y="-1459" font-family="Helvetica,sans-Serif" font-size="10.00" fill="#ece1d7">ShadowStreamState::aggregate</text>
<text xml:space="preserve" text-anchor="middle" x="816" y="-1446.25" font-family="Helvetica,sans-Serif" font-size="10.00" fill="#ece1d7">→ min_flush_lsn</text>
</g>
<!-- shd&#45;&gt;walsrv -->
<g id="edge6" class="edge">
<title>shd&#45;&gt;walsrv</title>
<path fill="none" stroke="#bd8183" stroke-dasharray="5,2" d="M944.52,-1567.26C920.08,-1548.67 888.83,-1524.89 863.26,-1505.45"/>
<polygon fill="#bd8183" stroke="#bd8183" points="865.4,-1502.68 855.32,-1499.41 861.17,-1508.25 865.4,-1502.68"/>
<text xml:space="preserve" text-anchor="middle" x="936.69" y="-1529.7" font-family="Helvetica,sans-Serif" font-size="9.00" fill="#ece1d7">walreceiver &#39;r&#39;</text>
</g>
<!-- src -->
<g id="node2" class="node">
<title>src</title>
<path fill="#3d3d54" stroke="#6e6963" d="M177.75,-786.64C177.75,-789.83 152.31,-792.42 121,-792.42 89.69,-792.42 64.25,-789.83 64.25,-786.64 64.25,-786.64 64.25,-734.61 64.25,-734.61 64.25,-731.42 89.69,-728.83 121,-728.83 152.31,-728.83 177.75,-731.42 177.75,-734.61 177.75,-734.61 177.75,-786.64 177.75,-786.64"/>
<path fill="none" stroke="#6e6963" d="M177.75,-786.64C177.75,-783.45 152.31,-780.86 121,-780.86 89.69,-780.86 64.25,-783.45 64.25,-786.64"/>
<text xml:space="preserve" text-anchor="middle" x="121" y="-770.25" font-family="Helvetica,sans-Serif" font-size="10.00" fill="#ece1d7">source PG</text>
<text xml:space="preserve" text-anchor="middle" x="121" y="-757.5" font-family="Helvetica,sans-Serif" font-size="10.00" fill="#ece1d7">pg_replication_slots</text>
<text xml:space="preserve" text-anchor="middle" x="121" y="-744.75" font-family="Helvetica,sans-Serif" font-size="10.00" fill="#ece1d7">confirmed_flush_lsn</text>
</g>
<!-- prom -->
<g id="node3" class="node">
<title>prom</title>
<path fill="#3d3d54" stroke="#6e6963" d="M535.88,-1048.22C535.88,-1050.53 511.28,-1052.41 481,-1052.41 450.72,-1052.41 426.12,-1050.53 426.12,-1048.22 426.12,-1048.22 426.12,-1010.53 426.12,-1010.53 426.12,-1008.22 450.72,-1006.34 481,-1006.34 511.28,-1006.34 535.88,-1008.22 535.88,-1010.53 535.88,-1010.53 535.88,-1048.22 535.88,-1048.22"/>
<path fill="none" stroke="#6e6963" d="M535.88,-1048.22C535.88,-1045.91 511.28,-1044.03 481,-1044.03 450.72,-1044.03 426.12,-1045.91 426.12,-1048.22"/>
<text xml:space="preserve" text-anchor="middle" x="481" y="-1032.62" font-family="Helvetica,sans-Serif" font-size="10.00" fill="#ece1d7">Prometheus scrape</text>
<text xml:space="preserve" text-anchor="middle" x="481" y="-1019.88" font-family="Helvetica,sans-Serif" font-size="10.00" fill="#ece1d7">/metrics</text>
</g>
<!-- feed -->
<g id="node4" class="node">
<title>feed</title>
<path fill="#3d3d54" stroke="#6e6963" d="M267.12,-1622.17C267.12,-1622.17 164.88,-1622.17 164.88,-1622.17 158.88,-1622.17 152.88,-1616.17 152.88,-1610.17 152.88,-1610.17 152.88,-1587.92 152.88,-1587.92 152.88,-1581.92 158.88,-1575.92 164.88,-1575.92 164.88,-1575.92 267.12,-1575.92 267.12,-1575.92 273.12,-1575.92 279.12,-1581.92 279.12,-1587.92 279.12,-1587.92 279.12,-1610.17 279.12,-1610.17 279.12,-1616.17 273.12,-1622.17 267.12,-1622.17"/>
<text xml:space="preserve" text-anchor="middle" x="216" y="-1608.67" font-family="Helvetica,sans-Serif" font-size="10.00" fill="#ece1d7">SourceFeed::pump</text>
<text xml:space="preserve" text-anchor="middle" x="216" y="-1595.92" font-family="Helvetica,sans-Serif" font-size="10.00" fill="#ece1d7">last_server_wal_end</text>
<text xml:space="preserve" text-anchor="middle" x="216" y="-1583.17" font-family="Helvetica,sans-Serif" font-size="10.00" fill="#ece1d7">→ source_received_lsn</text>
</g>
<!-- snap -->
<g id="node9" class="node">
<title>snap</title>
<path fill="#4d3a28" stroke="#6e6963" d="M358.62,-1346.25C358.62,-1346.25 277.38,-1346.25 277.38,-1346.25 271.38,-1346.25 265.38,-1340.25 265.38,-1334.25 265.38,-1334.25 265.38,-1322.25 265.38,-1322.25 265.38,-1316.25 271.38,-1310.25 277.38,-1310.25 277.38,-1310.25 358.62,-1310.25 358.62,-1310.25 364.62,-1310.25 370.62,-1316.25 370.62,-1322.25 370.62,-1322.25 370.62,-1334.25 370.62,-1334.25 370.62,-1340.25 364.62,-1346.25 358.62,-1346.25"/>
<text xml:space="preserve" text-anchor="middle" x="318" y="-1331.5" font-family="Helvetica,sans-Serif" font-size="10.00" fill="#ece1d7">snapshot 6 LSNs</text>
<text xml:space="preserve" text-anchor="middle" x="318" y="-1318.75" font-family="Helvetica,sans-Serif" font-size="10.00" fill="#ece1d7">build Cursor { … }</text>
</g>
<!-- feed&#45;&gt;snap -->
<g id="edge7" class="edge">
<title>feed&#45;&gt;snap</title>
<path fill="none" stroke="#c1a78e" d="M152.79,-1578.31C115.12,-1562.91 70.39,-1537.4 48,-1498 33.29,-1472.11 31.06,-1455.49 48,-1431 94.11,-1364.35 189.77,-1341.3 253.94,-1333.37"/>
<polygon fill="#c1a78e" stroke="#c1a78e" points="254.1,-1336.87 263.64,-1332.27 253.31,-1329.92 254.1,-1336.87"/>
<text xml:space="preserve" text-anchor="middle" x="93" y="-1465.58" font-family="Helvetica,sans-Serif" font-size="9.00" fill="#ece1d7">source_received_lsn</text>
</g>
<!-- segsink -->
<g id="node5" class="node">
<title>segsink</title>
<path fill="#4d3340" stroke="#6e6963" d="M301.38,-1498C301.38,-1498 164.62,-1498 164.62,-1498 158.62,-1498 152.62,-1492 152.62,-1486 152.62,-1486 152.62,-1451 152.62,-1451 152.62,-1445 158.62,-1439 164.62,-1439 164.62,-1439 301.38,-1439 301.38,-1439 307.38,-1439 313.38,-1445 313.38,-1451 313.38,-1451 313.38,-1486 313.38,-1486 313.38,-1492 307.38,-1498 301.38,-1498"/>
<text xml:space="preserve" text-anchor="middle" x="233" y="-1484.5" font-family="Helvetica,sans-Serif" font-size="10.00" fill="#ece1d7">DirSegmentSink::on_segment</text>
<text xml:space="preserve" text-anchor="middle" x="233" y="-1471.75" font-family="Helvetica,sans-Serif" font-size="10.00" fill="#ece1d7">fsync seg + dir</text>
<text xml:space="preserve" text-anchor="middle" x="233" y="-1459" font-family="Helvetica,sans-Serif" font-size="10.00" fill="#ece1d7">→ filter_durable_lsn</text>
<text xml:space="preserve" text-anchor="middle" x="233" y="-1446.25" font-family="Helvetica,sans-Serif" font-size="10.00" fill="#ece1d7">(= flush advertised)</text>
</g>
<!-- segsink&#45;&gt;snap -->
<g id="edge8" class="edge">
<title>segsink&#45;&gt;snap</title>
<path fill="none" stroke="#c1a78e" d="M242.12,-1438.58C247.75,-1422.84 255.79,-1403.4 265.75,-1387.5 273.06,-1375.84 282.77,-1364.28 291.83,-1354.58"/>
<polygon fill="#c1a78e" stroke="#c1a78e" points="294.08,-1357.28 298.5,-1347.66 289.04,-1352.43 294.08,-1357.28"/>
<text xml:space="preserve" text-anchor="middle" x="304.38" y="-1395.83" font-family="Helvetica,sans-Serif" font-size="9.00" fill="#ece1d7">filter_durable_lsn</text>
</g>
<!-- xact -->
<g id="node6" class="node">
<title>xact</title>
<path fill="#4d4128" stroke="#6e6963" d="M451.5,-1498C451.5,-1498 354.5,-1498 354.5,-1498 348.5,-1498 342.5,-1492 342.5,-1486 342.5,-1486 342.5,-1451 342.5,-1451 342.5,-1445 348.5,-1439 354.5,-1439 354.5,-1439 451.5,-1439 451.5,-1439 457.5,-1439 463.5,-1445 463.5,-1451 463.5,-1451 463.5,-1486 463.5,-1486 463.5,-1492 457.5,-1498 451.5,-1498"/>
<text xml:space="preserve" text-anchor="middle" x="403" y="-1484.5" font-family="Helvetica,sans-Serif" font-size="10.00" fill="#ece1d7">XactBuffer</text>
<text xml:space="preserve" text-anchor="middle" x="403" y="-1471.75" font-family="Helvetica,sans-Serif" font-size="10.00" fill="#ece1d7">stats.drain_lsn</text>
<text xml:space="preserve" text-anchor="middle" x="403" y="-1459" font-family="Helvetica,sans-Serif" font-size="10.00" fill="#ece1d7">stats.emitter_ack_lsn</text>
<text xml:space="preserve" text-anchor="middle" x="403" y="-1446.25" font-family="Helvetica,sans-Serif" font-size="10.00" fill="#ece1d7">(on_xact_end → Ok)</text>
</g>
<!-- xact&#45;&gt;snap -->
<g id="edge9" class="edge">
<title>xact&#45;&gt;snap</title>
<path fill="none" stroke="#c1a78e" d="M385.18,-1438.52C370.25,-1414.24 349.11,-1379.85 334.55,-1356.17"/>
<polygon fill="#c1a78e" stroke="#c1a78e" points="337.57,-1354.4 329.35,-1347.72 331.61,-1358.07 337.57,-1354.4"/>
<text xml:space="preserve" text-anchor="middle" x="400.84" y="-1401.45" font-family="Helvetica,sans-Serif" font-size="9.00" fill="#ece1d7">drain_lsn,</text>
<text xml:space="preserve" text-anchor="middle" x="400.84" y="-1390.2" font-family="Helvetica,sans-Serif" font-size="9.00" fill="#ece1d7">emitter_ack_lsn</text>
</g>
<!-- sweeper&#45;&gt;snap -->
<g id="edge10" class="edge">
<title>sweeper&#45;&gt;snap</title>
<path fill="none" stroke="#c1a78e" d="M554.76,-1444.93C523.96,-1428.63 481.11,-1406.27 443,-1387.5 418.04,-1375.21 389.99,-1362.07 366.79,-1351.39"/>
<polygon fill="#c1a78e" stroke="#c1a78e" points="368.42,-1348.29 357.87,-1347.3 365.5,-1354.66 368.42,-1348.29"/>
<text xml:space="preserve" text-anchor="middle" x="527.59" y="-1395.83" font-family="Helvetica,sans-Serif" font-size="9.00" fill="#ece1d7">shadow_replay_lsn</text>
</g>
<!-- trim -->
<g id="node16" class="node">
<title>trim</title>
<path fill="#4d3a28" stroke="#6e6963" d="M693.75,-1357.75C693.75,-1357.75 586.25,-1357.75 586.25,-1357.75 580.25,-1357.75 574.25,-1351.75 574.25,-1345.75 574.25,-1345.75 574.25,-1310.75 574.25,-1310.75 574.25,-1304.75 580.25,-1298.75 586.25,-1298.75 586.25,-1298.75 693.75,-1298.75 693.75,-1298.75 699.75,-1298.75 705.75,-1304.75 705.75,-1310.75 705.75,-1310.75 705.75,-1345.75 705.75,-1345.75 705.75,-1351.75 699.75,-1357.75 693.75,-1357.75"/>
<text xml:space="preserve" text-anchor="middle" x="640" y="-1344.25" font-family="Helvetica,sans-Serif" font-size="10.00" fill="#ece1d7">trim_below_lsn</text>
<text xml:space="preserve" text-anchor="middle" x="640" y="-1331.5" font-family="Helvetica,sans-Serif" font-size="10.00" fill="#ece1d7">cutoff = shadow_replay</text>
<text xml:space="preserve" text-anchor="middle" x="640" y="-1318.75" font-family="Helvetica,sans-Serif" font-size="10.00" fill="#ece1d7"> &#160;− retention_bytes</text>
<text xml:space="preserve" text-anchor="middle" x="640" y="-1306" font-family="Helvetica,sans-Serif" font-size="10.00" fill="#ece1d7">(default 256 MiB)</text>
</g>
<!-- sweeper&#45;&gt;trim -->
<g id="edge14" class="edge">
<title>sweeper&#45;&gt;trim</title>
<path fill="none" stroke="#6e6963" stroke-dasharray="5,2" d="M604,-1444.98C610.4,-1424.41 620,-1393.54 627.68,-1368.85"/>
<polygon fill="#6e6963" stroke="#6e6963" points="630.98,-1370.04 630.61,-1359.45 624.3,-1367.96 630.98,-1370.04"/>
</g>
<!-- walsrv&#45;&gt;snap -->
<g id="edge11" class="edge">
<title>walsrv&#45;&gt;snap</title>
<path fill="none" stroke="#bd8183" d="M737.79,-1438.56C730.44,-1435.96 723.09,-1433.4 716,-1431 654.69,-1410.23 639.52,-1404.28 577,-1387.5 511.06,-1369.8 434.71,-1353.08 382.08,-1342.13"/>
<polygon fill="#bd8183" stroke="#bd8183" points="382.88,-1338.72 372.37,-1340.12 381.46,-1345.58 382.88,-1338.72"/>
<text xml:space="preserve" text-anchor="middle" x="690.96" y="-1395.83" font-family="Helvetica,sans-Serif" font-size="9.00" fill="#ece1d7">shadow_flush_lsn</text>
</g>
<!-- apply -->
<g id="node10" class="node">
<title>apply</title>
<path fill="#4d3a28" stroke="#6e6963" d="M254.12,-1218.25C254.12,-1218.25 85.88,-1218.25 85.88,-1218.25 79.88,-1218.25 73.88,-1212.25 73.88,-1206.25 73.88,-1206.25 73.88,-1171.25 73.88,-1171.25 73.88,-1165.25 79.88,-1159.25 85.88,-1159.25 85.88,-1159.25 254.12,-1159.25 254.12,-1159.25 260.12,-1159.25 266.12,-1165.25 266.12,-1171.25 266.12,-1171.25 266.12,-1206.25 266.12,-1206.25 266.12,-1212.25 260.12,-1218.25 254.12,-1218.25"/>
<text xml:space="preserve" text-anchor="middle" x="170" y="-1204.75" font-family="Helvetica,sans-Serif" font-size="10.00" fill="#ece1d7">apply_ceiling =</text>
<text xml:space="preserve" text-anchor="middle" x="170" y="-1192" font-family="Helvetica,sans-Serif" font-size="10.00" fill="#ece1d7">shadow_replay==0</text>
<text xml:space="preserve" text-anchor="middle" x="170" y="-1179.25" font-family="Helvetica,sans-Serif" font-size="10.00" fill="#ece1d7"> &#160;? emitter_ack</text>
<text xml:space="preserve" text-anchor="middle" x="170" y="-1166.5" font-family="Helvetica,sans-Serif" font-size="10.00" fill="#ece1d7"> &#160;: min(shadow_replay, emitter_ack)</text>
</g>
<!-- snap&#45;&gt;apply -->
<g id="edge1" class="edge">
<title>snap&#45;&gt;apply</title>
<path fill="none" stroke="#c1a78e" d="M299.26,-1309.84C276.74,-1288.92 238.38,-1253.28 209.28,-1226.24"/>
<polygon fill="#c1a78e" stroke="#c1a78e" points="211.77,-1223.78 202.06,-1219.54 207.01,-1228.91 211.77,-1223.78"/>
</g>
<!-- cwrite -->
<g id="node11" class="node">
<title>cwrite</title>
<path fill="#4d3a28" stroke="#6e6963" d="M361.12,-1130.25C361.12,-1130.25 198.88,-1130.25 198.88,-1130.25 192.88,-1130.25 186.88,-1124.25 186.88,-1118.25 186.88,-1118.25 186.88,-1106.25 186.88,-1106.25 186.88,-1100.25 192.88,-1094.25 198.88,-1094.25 198.88,-1094.25 361.12,-1094.25 361.12,-1094.25 367.12,-1094.25 373.12,-1100.25 373.12,-1106.25 373.12,-1106.25 373.12,-1118.25 373.12,-1118.25 373.12,-1124.25 367.12,-1130.25 361.12,-1130.25"/>
<text xml:space="preserve" text-anchor="middle" x="280" y="-1115.5" font-family="Helvetica,sans-Serif" font-size="10.00" fill="#ece1d7">cursor::write</text>
<text xml:space="preserve" text-anchor="middle" x="280" y="-1102.75" font-family="Helvetica,sans-Serif" font-size="10.00" fill="#ece1d7">tmp → fsync → rename → fsync_dir</text>
</g>
<!-- snap&#45;&gt;cwrite -->
<g id="edge2" class="edge">
<title>snap&#45;&gt;cwrite</title>
<path fill="none" stroke="#b380b0" stroke-width="2" stroke-dasharray="1,5" d="M314.95,-1310.1C308.51,-1273.79 293.41,-1188.75 285.33,-1143.24"/>
<polygon fill="#b380b0" stroke="#b380b0" stroke-width="2" points="288.78,-1142.7 283.59,-1133.46 281.89,-1143.92 288.78,-1142.7"/>
</g>
<!-- metrics -->
<g id="node17" class="node">
<title>metrics</title>
<path fill="#4d4128" stroke="#6e6963" d="M561,-1218.25C561,-1218.25 401,-1218.25 401,-1218.25 395,-1218.25 389,-1212.25 389,-1206.25 389,-1206.25 389,-1171.25 389,-1171.25 389,-1165.25 395,-1159.25 401,-1159.25 401,-1159.25 561,-1159.25 561,-1159.25 567,-1159.25 573,-1165.25 573,-1171.25 573,-1171.25 573,-1206.25 573,-1206.25 573,-1212.25 567,-1218.25 561,-1218.25"/>
<text xml:space="preserve" text-anchor="middle" x="481" y="-1204.75" font-family="Helvetica,sans-Serif" font-size="10.00" fill="#ece1d7">MetricsSnapshot → text</text>
<text xml:space="preserve" text-anchor="middle" x="481" y="-1192" font-family="Helvetica,sans-Serif" font-size="10.00" fill="#ece1d7">walshadow_*_lsn gauges,</text>
<text xml:space="preserve" text-anchor="middle" x="481" y="-1179.25" font-family="Helvetica,sans-Serif" font-size="10.00" fill="#ece1d7">shadow_apply_lag_bytes/seconds,</text>
<text xml:space="preserve" text-anchor="middle" x="481" y="-1166.5" font-family="Helvetica,sans-Serif" font-size="10.00" fill="#ece1d7">RateEstimator (30 s window)</text>
</g>
<!-- snap&#45;&gt;metrics -->
<g id="edge16" class="edge">
<title>snap&#45;&gt;metrics</title>
<path fill="none" stroke="#cba85e" stroke-dasharray="5,2" d="M338.64,-1309.84C363.54,-1288.83 406.05,-1252.97 438.15,-1225.89"/>
<polygon fill="#cba85e" stroke="#cba85e" points="440.36,-1228.61 445.75,-1219.49 435.85,-1223.26 440.36,-1228.61"/>
<text xml:space="preserve" text-anchor="middle" x="441.51" y="-1261.2" font-family="Helvetica,sans-Serif" font-size="9.00" fill="#ece1d7">LSN gauges +</text>
<text xml:space="preserve" text-anchor="middle" x="441.51" y="-1249.95" font-family="Helvetica,sans-Serif" font-size="9.00" fill="#ece1d7">apply_lag_*</text>
</g>
<!-- triple -->
<g id="node12" class="node">
<title>triple</title>
<path fill="#4d3a28" stroke="#6e6963" d="M223.75,-1065.25C223.75,-1065.25 104.25,-1065.25 104.25,-1065.25 98.25,-1065.25 92.25,-1059.25 92.25,-1053.25 92.25,-1053.25 92.25,-1005.5 92.25,-1005.5 92.25,-999.5 98.25,-993.5 104.25,-993.5 104.25,-993.5 223.75,-993.5 223.75,-993.5 229.75,-993.5 235.75,-999.5 235.75,-1005.5 235.75,-1005.5 235.75,-1053.25 235.75,-1053.25 235.75,-1059.25 229.75,-1065.25 223.75,-1065.25"/>
<text xml:space="preserve" text-anchor="middle" x="164" y="-1051.75" font-family="Helvetica,sans-Serif" font-size="10.00" fill="#ece1d7">StandbyStatus {</text>
<text xml:space="preserve" text-anchor="middle" x="164" y="-1039" font-family="Helvetica,sans-Serif" font-size="10.00" fill="#ece1d7"> &#160;write = source_received,</text>
<text xml:space="preserve" text-anchor="middle" x="164" y="-1026.25" font-family="Helvetica,sans-Serif" font-size="10.00" fill="#ece1d7"> &#160;flush = filter_durable,</text>
<text xml:space="preserve" text-anchor="middle" x="164" y="-1013.5" font-family="Helvetica,sans-Serif" font-size="10.00" fill="#ece1d7"> &#160;apply = apply_ceiling</text>
<text xml:space="preserve" text-anchor="middle" x="164" y="-1000.75" font-family="Helvetica,sans-Serif" font-size="10.00" fill="#ece1d7">}</text>
</g>
<!-- apply&#45;&gt;triple -->
<g id="edge3" class="edge">
<title>apply&#45;&gt;triple</title>
<path fill="none" stroke="#c1a78e" d="M168.9,-1158.88C168.03,-1136 166.79,-1103.58 165.78,-1077.02"/>
<polygon fill="#c1a78e" stroke="#c1a78e" points="169.28,-1077.04 165.4,-1067.18 162.29,-1077.31 169.28,-1077.04"/>
</g>
<!-- cursor_bin -->
<g id="node14" class="node">
<title>cursor_bin</title>
<polygon fill="#4d3850" stroke="#6e6963" points="381.5,-796.5 206.5,-796.5 206.5,-724.75 387.5,-724.75 387.5,-790.5 381.5,-796.5"/>
<polyline fill="none" stroke="#6e6963" points="381.5,-796.5 381.5,-790.5"/>
<polyline fill="none" stroke="#6e6963" points="387.5,-790.5 381.5,-790.5"/>
<text xml:space="preserve" text-anchor="middle" x="297" y="-783" font-family="Helvetica,sans-Serif" font-size="10.00" fill="#ece1d7">{spill_dir}/cursor.bin</text>
<text xml:space="preserve" text-anchor="middle" x="297" y="-770.25" font-family="Helvetica,sans-Serif" font-size="10.00" fill="#ece1d7">64 B, schema v2, CRC32C</text>
<text xml:space="preserve" text-anchor="middle" x="297" y="-757.5" font-family="Helvetica,sans-Serif" font-size="10.00" fill="#ece1d7">atomic rename via cursor.bin.tmp</text>
<text xml:space="preserve" text-anchor="middle" x="297" y="-744.75" font-family="Helvetica,sans-Serif" font-size="10.00" fill="#ece1d7">(boot: emitter_ack_lsn is</text>
<text xml:space="preserve" text-anchor="middle" x="297" y="-732" font-family="Helvetica,sans-Serif" font-size="10.00" fill="#ece1d7">resume floor, seg&#45;aligned)</text>
</g>
<!-- cwrite&#45;&gt;cursor_bin -->
<g id="edge12" class="edge">
<title>cwrite&#45;&gt;cursor_bin</title>
<path fill="none" stroke="#b380b0" stroke-width="2" stroke-dasharray="1,5" d="M280.84,-1093.91C283.35,-1042.4 290.81,-888.94 294.65,-809.88"/>
<polygon fill="#b380b0" stroke="#b380b0" stroke-width="2" points="298.15,-810.12 295.14,-799.97 291.15,-809.78 298.15,-810.12"/>
<text xml:space="preserve" text-anchor="middle" x="325.91" y="-955.95" font-family="Helvetica,sans-Serif" font-size="9.00" fill="#ece1d7">every 10 s</text>
<text xml:space="preserve" text-anchor="middle" x="325.91" y="-944.7" font-family="Helvetica,sans-Serif" font-size="9.00" fill="#ece1d7">(atomic rename)</text>
</g>
<!-- sendst -->
<g id="node13" class="node">
<title>sendst</title>
<path fill="#3d3d54" stroke="#6e6963" d="M203.12,-913C203.12,-913 64.88,-913 64.88,-913 58.88,-913 52.88,-907 52.88,-901 52.88,-901 52.88,-889 52.88,-889 52.88,-883 58.88,-877 64.88,-877 64.88,-877 203.12,-877 203.12,-877 209.12,-877 215.12,-883 215.12,-889 215.12,-889 215.12,-901 215.12,-901 215.12,-907 209.12,-913 203.12,-913"/>
<text xml:space="preserve" text-anchor="middle" x="134" y="-898.25" font-family="Helvetica,sans-Serif" font-size="10.00" fill="#ece1d7">SourceFeed::send_status</text>
<text xml:space="preserve" text-anchor="middle" x="134" y="-885.5" font-family="Helvetica,sans-Serif" font-size="10.00" fill="#ece1d7">&#39;r&#39; frame on replication socket</text>
</g>
<!-- triple&#45;&gt;sendst -->
<g id="edge4" class="edge">
<title>triple&#45;&gt;sendst</title>
<path fill="none" stroke="#c1a78e" d="M156.04,-993.25C151.16,-971.73 145,-944.56 140.44,-924.41"/>
<polygon fill="#c1a78e" stroke="#c1a78e" points="143.91,-923.91 138.29,-914.93 137.09,-925.45 143.91,-923.91"/>
</g>
<!-- sendst&#45;&gt;src -->
<g id="edge13" class="edge">
<title>sendst&#45;&gt;src</title>
<path fill="none" stroke="#a1a9cc" stroke-width="2" d="M132.3,-876.69C130.54,-858.78 127.72,-830.06 125.34,-805.8"/>
<polygon fill="#a1a9cc" stroke="#a1a9cc" stroke-width="2" points="128.83,-805.5 124.37,-795.89 121.86,-806.18 128.83,-805.5"/>
<text xml:space="preserve" text-anchor="middle" x="176.3" y="-839.45" font-family="Helvetica,sans-Serif" font-size="9.00" fill="#ece1d7">standby&#45;status triple</text>
<text xml:space="preserve" text-anchor="middle" x="176.3" y="-828.2" font-family="Helvetica,sans-Serif" font-size="9.00" fill="#ece1d7">(write/flush/apply)</text>
</g>
<!-- cursor_table -->
<g id="node18" class="node">
<title>cursor_table</title>
<path fill="#6e6963" stroke="none" d="M489.12,-665.75C489.12,-665.75 104.88,-665.75 104.88,-665.75 98.88,-665.75 92.88,-659.75 92.88,-653.75 92.88,-653.75 92.88,-397.5 92.88,-397.5 92.88,-391.5 98.88,-385.5 104.88,-385.5 104.88,-385.5 489.12,-385.5 489.12,-385.5 495.12,-385.5 501.12,-391.5 501.12,-397.5 501.12,-397.5 501.12,-653.75 501.12,-653.75 501.12,-659.75 495.12,-665.75 489.12,-665.75"/>
<polygon fill="#4d3850" stroke="none" points="100.88,-637 100.88,-661.75 493.12,-661.75 493.12,-637 100.88,-637"/>
<polygon fill="none" stroke="#6e6963" points="100.88,-637 100.88,-661.75 493.12,-661.75 493.12,-637 100.88,-637"/>
<text xml:space="preserve" text-anchor="start" x="194.62" y="-647.25" font-family="Helvetica,sans-Serif" font-weight="bold" font-size="10.00" fill="#ece1d7">cursor.bin layout — 64 B, schema v2</text>
<polygon fill="none" stroke="#6e6963" points="100.88,-612.25 100.88,-637 145.12,-637 145.12,-612.25 100.88,-612.25"/>
<text xml:space="preserve" text-anchor="start" x="106.88" y="-622.5" font-family="Helvetica,sans-Serif" font-weight="bold" font-size="10.00" fill="#ece1d7">offset</text>
<polygon fill="none" stroke="#6e6963" points="145.12,-612.25 145.12,-637 286.12,-637 286.12,-612.25 145.12,-612.25"/>
<text xml:space="preserve" text-anchor="start" x="202.88" y="-622.5" font-family="Helvetica,sans-Serif" font-weight="bold" font-size="10.00" fill="#ece1d7">field</text>
<polygon fill="none" stroke="#6e6963" points="286.12,-612.25 286.12,-637 493.12,-637 493.12,-612.25 286.12,-612.25"/>
<text xml:space="preserve" text-anchor="start" x="378.38" y="-622.5" font-family="Helvetica,sans-Serif" font-weight="bold" font-size="10.00" fill="#ece1d7">role</text>
<polygon fill="none" stroke="#6e6963" points="100.88,-587.5 100.88,-612.25 145.12,-612.25 145.12,-587.5 100.88,-587.5"/>
<text xml:space="preserve" text-anchor="start" x="114" y="-596.5" font-family="Helvetica,sans-Serif" font-size="10.00" fill="#ece1d7">0..8</text>
<polygon fill="none" stroke="#6e6963" points="145.12,-587.5 145.12,-612.25 286.12,-612.25 286.12,-587.5 145.12,-587.5"/>
<text xml:space="preserve" text-anchor="start" x="151.12" y="-596.5" font-family="Helvetica,sans-Serif" font-size="10.00" fill="#ece1d7">MAGIC &quot;WSCRSR\x01\x00&quot;</text>
<polygon fill="none" stroke="#6e6963" points="286.12,-587.5 286.12,-612.25 493.12,-612.25 493.12,-587.5 286.12,-587.5"/>
<text xml:space="preserve" text-anchor="start" x="347.62" y="-596.5" font-family="Helvetica,sans-Serif" font-size="10.00" fill="#ece1d7">file id + reserved</text>
<polygon fill="none" stroke="#6e6963" points="100.88,-562.75 100.88,-587.5 145.12,-587.5 145.12,-562.75 100.88,-562.75"/>
<text xml:space="preserve" text-anchor="start" x="111" y="-571.75" font-family="Helvetica,sans-Serif" font-size="10.00" fill="#ece1d7">8..12</text>
<polygon fill="none" stroke="#6e6963" points="145.12,-562.75 145.12,-587.5 286.12,-587.5 286.12,-562.75 145.12,-562.75"/>
<text xml:space="preserve" text-anchor="start" x="180" y="-571.75" font-family="Helvetica,sans-Serif" font-size="10.00" fill="#ece1d7">version u32 LE</text>
<polygon fill="none" stroke="#6e6963" points="286.12,-562.75 286.12,-587.5 493.12,-587.5 493.12,-562.75 286.12,-562.75"/>
<text xml:space="preserve" text-anchor="start" x="295.88" y="-571.75" font-family="Helvetica,sans-Serif" font-size="10.00" fill="#ece1d7">schema = 2 (added shadow_flush_lsn)</text>
<polygon fill="none" stroke="#6e6963" points="100.88,-538 100.88,-562.75 145.12,-562.75 145.12,-538 100.88,-538"/>
<text xml:space="preserve" text-anchor="start" x="108" y="-547" font-family="Helvetica,sans-Serif" font-size="10.00" fill="#ece1d7">12..20</text>
<polygon fill="none" stroke="#6e6963" points="145.12,-538 145.12,-562.75 286.12,-562.75 286.12,-538 145.12,-538"/>
<text xml:space="preserve" text-anchor="start" x="166.12" y="-547" font-family="Helvetica,sans-Serif" font-size="10.00" fill="#ece1d7">source_received_lsn</text>
<polygon fill="none" stroke="#6e6963" points="286.12,-538 286.12,-562.75 493.12,-562.75 493.12,-538 286.12,-538"/>
<text xml:space="preserve" text-anchor="start" x="322.12" y="-547" font-family="Helvetica,sans-Serif" font-size="10.00" fill="#ece1d7">bookkeeping, gates nothing</text>
<polygon fill="none" stroke="#6e6963" points="100.88,-513.25 100.88,-538 145.12,-538 145.12,-513.25 100.88,-513.25"/>
<text xml:space="preserve" text-anchor="start" x="108" y="-522.25" font-family="Helvetica,sans-Serif" font-size="10.00" fill="#ece1d7">20..28</text>
<polygon fill="none" stroke="#6e6963" points="145.12,-513.25 145.12,-538 286.12,-538 286.12,-513.25 145.12,-513.25"/>
<text xml:space="preserve" text-anchor="start" x="173.62" y="-522.25" font-family="Helvetica,sans-Serif" font-size="10.00" fill="#ece1d7">filter_durable_lsn</text>
<polygon fill="none" stroke="#6e6963" points="286.12,-513.25 286.12,-538 493.12,-538 493.12,-513.25 286.12,-513.25"/>
<text xml:space="preserve" text-anchor="start" x="319.88" y="-522.25" font-family="Helvetica,sans-Serif" font-size="10.00" fill="#ece1d7">standby flush_lsn advertised</text>
<polygon fill="none" stroke="#6e6963" points="100.88,-488.5 100.88,-513.25 145.12,-513.25 145.12,-488.5 100.88,-488.5"/>
<text xml:space="preserve" text-anchor="start" x="108" y="-497.5" font-family="Helvetica,sans-Serif" font-size="10.00" fill="#ece1d7">28..36</text>
<polygon fill="none" stroke="#6e6963" points="145.12,-488.5 145.12,-513.25 286.12,-513.25 286.12,-488.5 145.12,-488.5"/>
<text xml:space="preserve" text-anchor="start" x="169.12" y="-497.5" font-family="Helvetica,sans-Serif" font-size="10.00" fill="#ece1d7">shadow_replay_lsn</text>
<polygon fill="none" stroke="#6e6963" points="286.12,-488.5 286.12,-513.25 493.12,-513.25 493.12,-488.5 286.12,-488.5"/>
<text xml:space="preserve" text-anchor="start" x="319.12" y="-497.5" font-family="Helvetica,sans-Serif" font-size="10.00" fill="#ece1d7">apply ceiling (when nonzero)</text>
<polygon fill="none" stroke="#6e6963" points="100.88,-463.75 100.88,-488.5 145.12,-488.5 145.12,-463.75 100.88,-463.75"/>
<text xml:space="preserve" text-anchor="start" x="108" y="-472.75" font-family="Helvetica,sans-Serif" font-size="10.00" fill="#ece1d7">36..44</text>
<polygon fill="none" stroke="#6e6963" points="145.12,-463.75 145.12,-488.5 286.12,-488.5 286.12,-463.75 145.12,-463.75"/>
<text xml:space="preserve" text-anchor="start" x="193.5" y="-472.75" font-family="Helvetica,sans-Serif" font-size="10.00" fill="#ece1d7">drain_lsn</text>
<polygon fill="none" stroke="#6e6963" points="286.12,-463.75 286.12,-488.5 493.12,-488.5 493.12,-463.75 286.12,-463.75"/>
<text xml:space="preserve" text-anchor="start" x="330.38" y="-472.75" font-family="Helvetica,sans-Serif" font-size="10.00" fill="#ece1d7">observer; ≥ emitter_ack</text>
<polygon fill="none" stroke="#6e6963" points="100.88,-439 100.88,-463.75 145.12,-463.75 145.12,-439 100.88,-439"/>
<text xml:space="preserve" text-anchor="start" x="108" y="-448" font-family="Helvetica,sans-Serif" font-size="10.00" fill="#ece1d7">44..52</text>
<polygon fill="none" stroke="#6e6963" points="145.12,-439 145.12,-463.75 286.12,-463.75 286.12,-439 145.12,-439"/>
<text xml:space="preserve" text-anchor="start" x="171.38" y="-449.25" font-family="Helvetica,sans-Serif" font-weight="bold" font-size="10.00" fill="#ece1d7">emitter_ack_lsn</text>
<polygon fill="none" stroke="#6e6963" points="286.12,-439 286.12,-463.75 493.12,-463.75 493.12,-439 286.12,-439"/>
<text xml:space="preserve" text-anchor="start" x="310.88" y="-449.25" font-family="Helvetica,sans-Serif" font-weight="bold" font-size="10.00" fill="#ece1d7">resume LSN + apply ceiling</text>
<polygon fill="none" stroke="#6e6963" points="100.88,-414.25 100.88,-439 145.12,-439 145.12,-414.25 100.88,-414.25"/>
<text xml:space="preserve" text-anchor="start" x="108" y="-423.25" font-family="Helvetica,sans-Serif" font-size="10.00" fill="#ece1d7">52..60</text>
<polygon fill="none" stroke="#6e6963" points="145.12,-414.25 145.12,-439 286.12,-439 286.12,-414.25 145.12,-414.25"/>
<text xml:space="preserve" text-anchor="start" x="172.88" y="-423.25" font-family="Helvetica,sans-Serif" font-size="10.00" fill="#ece1d7">shadow_flush_lsn</text>
<polygon fill="none" stroke="#6e6963" points="286.12,-414.25 286.12,-439 493.12,-439 493.12,-414.25 286.12,-414.25"/>
<text xml:space="preserve" text-anchor="start" x="302.62" y="-423.25" font-family="Helvetica,sans-Serif" font-size="10.00" fill="#ece1d7">walsender hands shadow back here</text>
<polygon fill="none" stroke="#6e6963" points="100.88,-389.5 100.88,-414.25 145.12,-414.25 145.12,-389.5 100.88,-389.5"/>
<text xml:space="preserve" text-anchor="start" x="108" y="-398.5" font-family="Helvetica,sans-Serif" font-size="10.00" fill="#ece1d7">60..64</text>
<polygon fill="none" stroke="#6e6963" points="145.12,-389.5 145.12,-414.25 286.12,-414.25 286.12,-389.5 145.12,-389.5"/>
<text xml:space="preserve" text-anchor="start" x="182.25" y="-398.5" font-family="Helvetica,sans-Serif" font-size="10.00" fill="#ece1d7">crc32c u32 LE</text>
<polygon fill="none" stroke="#6e6963" points="286.12,-389.5 286.12,-414.25 493.12,-414.25 493.12,-389.5 286.12,-389.5"/>
<text xml:space="preserve" text-anchor="start" x="292.12" y="-398.5" font-family="Helvetica,sans-Serif" font-size="10.00" fill="#ece1d7">covers bytes 0..60 (PG&#45;compatible CRC)</text>
</g>
<!-- cursor_bin&#45;&gt;cursor_table -->
<!-- outdir -->
<g id="node15" class="node">
<title>outdir</title>
<polygon fill="#4d3850" stroke="#6e6963" points="707.62,-1211.88 602.38,-1211.88 602.38,-1165.62 713.62,-1165.62 713.62,-1205.88 707.62,-1211.88"/>
<polyline fill="none" stroke="#6e6963" points="707.62,-1211.88 707.62,-1205.88"/>
<polyline fill="none" stroke="#6e6963" points="713.62,-1205.88 707.62,-1205.88"/>
<text xml:space="preserve" text-anchor="middle" x="658" y="-1198.38" font-family="Helvetica,sans-Serif" font-size="10.00" fill="#ece1d7">out/&lt;seg&gt;</text>
<text xml:space="preserve" text-anchor="middle" x="658" y="-1185.62" font-family="Helvetica,sans-Serif" font-size="10.00" fill="#ece1d7">filtered 16 MiB WAL</text>
<text xml:space="preserve" text-anchor="middle" x="658" y="-1172.88" font-family="Helvetica,sans-Serif" font-size="10.00" fill="#ece1d7">+ manifest.json</text>
</g>
<!-- trim&#45;&gt;outdir -->
<g id="edge15" class="edge">
<title>trim&#45;&gt;outdir</title>
<path fill="none" stroke="#6e6963" stroke-dasharray="5,2" d="M643.77,-1298.43C646.64,-1276.56 650.58,-1246.46 653.58,-1223.48"/>
<polygon fill="#6e6963" stroke="#6e6963" points="657.04,-1224.06 654.87,-1213.69 650.1,-1223.15 657.04,-1224.06"/>
<text xml:space="preserve" text-anchor="middle" x="676.33" y="-1255.58" font-family="Helvetica,sans-Serif" font-size="9.00" fill="#ece1d7">rm &lt; cutoff</text>
</g>
<!-- metrics&#45;&gt;prom -->
<g id="edge17" class="edge">
<title>metrics&#45;&gt;prom</title>
<path fill="none" stroke="#a1a9cc" d="M481,-1158.88C481,-1132.02 481,-1091.99 481,-1063.76"/>
<polygon fill="#a1a9cc" stroke="#a1a9cc" points="484.5,-1063.97 481,-1053.97 477.5,-1063.97 484.5,-1063.97"/>
<text xml:space="preserve" text-anchor="middle" x="512.12" y="-1109.33" font-family="Helvetica,sans-Serif" font-size="9.00" fill="#ece1d7">HTTP /metrics</text>
</g>
<!-- legend -->
<g id="node19" class="node">
<title>legend</title>
<path fill="#6e6963" stroke="none" d="M421.5,-326.5C421.5,-326.5 172.5,-326.5 172.5,-326.5 166.5,-326.5 160.5,-320.5 160.5,-314.5 160.5,-314.5 160.5,-12 160.5,-12 160.5,-6 166.5,0 172.5,0 172.5,0 421.5,0 421.5,0 427.5,0 433.5,-6 433.5,-12 433.5,-12 433.5,-314.5 433.5,-314.5 433.5,-320.5 427.5,-326.5 421.5,-326.5"/>
<polygon fill="#34302c" stroke="none" points="168.5,-299.75 168.5,-322.5 425.5,-322.5 425.5,-299.75 168.5,-299.75"/>
<polygon fill="none" stroke="#6e6963" points="168.5,-299.75 168.5,-322.5 425.5,-322.5 425.5,-299.75 168.5,-299.75"/>
<text xml:space="preserve" text-anchor="start" x="253.88" y="-309" font-family="Helvetica,sans-Serif" font-weight="bold" font-size="10.00" fill="#ece1d7">node fill — role</text>
<polygon fill="#3d3d54" stroke="none" points="168.5,-277 168.5,-299.75 196.5,-299.75 196.5,-277 168.5,-277"/>
<polygon fill="none" stroke="#6e6963" points="168.5,-277 168.5,-299.75 196.5,-299.75 196.5,-277 168.5,-277"/>
<polygon fill="none" stroke="#6e6963" points="196.5,-277 196.5,-299.75 425.5,-299.75 425.5,-277 196.5,-277"/>
<text xml:space="preserve" text-anchor="start" x="264.5" y="-285" font-family="Helvetica,sans-Serif" font-size="10.00" fill="#ece1d7">source PG / ingress</text>
<polygon fill="#4d3a28" stroke="none" points="168.5,-254.25 168.5,-277 196.5,-277 196.5,-254.25 168.5,-254.25"/>
<polygon fill="none" stroke="#6e6963" points="168.5,-254.25 168.5,-277 196.5,-277 196.5,-254.25 168.5,-254.25"/>
<polygon fill="none" stroke="#6e6963" points="196.5,-254.25 196.5,-277 425.5,-277 425.5,-254.25 196.5,-254.25"/>
<text xml:space="preserve" text-anchor="start" x="240.5" y="-262.25" font-family="Helvetica,sans-Serif" font-size="10.00" fill="#ece1d7">walshadow status / retention</text>
<polygon fill="#4d3340" stroke="none" points="168.5,-231.5 168.5,-254.25 196.5,-254.25 196.5,-231.5 168.5,-231.5"/>
<polygon fill="none" stroke="#6e6963" points="168.5,-231.5 168.5,-254.25 196.5,-254.25 196.5,-231.5 168.5,-231.5"/>
<polygon fill="none" stroke="#6e6963" points="196.5,-231.5 196.5,-254.25 425.5,-254.25 425.5,-231.5 196.5,-231.5"/>
<text xml:space="preserve" text-anchor="start" x="249.12" y="-239.5" font-family="Helvetica,sans-Serif" font-size="10.00" fill="#ece1d7">walshadow segment sink</text>
<polygon fill="#4d4128" stroke="none" points="168.5,-208.75 168.5,-231.5 196.5,-231.5 196.5,-208.75 168.5,-208.75"/>
<polygon fill="none" stroke="#6e6963" points="168.5,-208.75 168.5,-231.5 196.5,-231.5 196.5,-208.75 168.5,-208.75"/>
<polygon fill="none" stroke="#6e6963" points="196.5,-208.75 196.5,-231.5 425.5,-231.5 425.5,-208.75 196.5,-208.75"/>
<text xml:space="preserve" text-anchor="start" x="233" y="-216.75" font-family="Helvetica,sans-Serif" font-size="10.00" fill="#ece1d7">walshadow xact buffer / metrics</text>
<polygon fill="#5d3f40" stroke="none" points="168.5,-186 168.5,-208.75 196.5,-208.75 196.5,-186 168.5,-186"/>
<polygon fill="none" stroke="#6e6963" points="168.5,-186 168.5,-208.75 196.5,-208.75 196.5,-186 168.5,-186"/>
<polygon fill="none" stroke="#6e6963" points="196.5,-186 196.5,-208.75 425.5,-208.75 425.5,-186 196.5,-186"/>
<text xml:space="preserve" text-anchor="start" x="240.12" y="-194" font-family="Helvetica,sans-Serif" font-size="10.00" fill="#ece1d7">walshadow walsender server</text>
<polygon fill="#4d3850" stroke="none" points="168.5,-163.25 168.5,-186 196.5,-186 196.5,-163.25 168.5,-163.25"/>
<polygon fill="none" stroke="#6e6963" points="168.5,-163.25 168.5,-186 196.5,-186 196.5,-163.25 168.5,-163.25"/>
<polygon fill="none" stroke="#6e6963" points="196.5,-163.25 196.5,-186 425.5,-186 425.5,-163.25 196.5,-163.25"/>
<text xml:space="preserve" text-anchor="start" x="273.88" y="-171.25" font-family="Helvetica,sans-Serif" font-size="10.00" fill="#ece1d7">on&#45;disk artifact</text>
<polygon fill="#3d4128" stroke="none" points="168.5,-140.5 168.5,-163.25 196.5,-163.25 196.5,-140.5 168.5,-140.5"/>
<polygon fill="none" stroke="#6e6963" points="168.5,-140.5 168.5,-163.25 196.5,-163.25 196.5,-140.5 168.5,-140.5"/>
<polygon fill="none" stroke="#6e6963" points="196.5,-140.5 196.5,-163.25 425.5,-163.25 425.5,-140.5 196.5,-140.5"/>
<text xml:space="preserve" text-anchor="start" x="269.75" y="-148.5" font-family="Helvetica,sans-Serif" font-size="10.00" fill="#ece1d7">shadow Postgres</text>
<polygon fill="#34302c" stroke="none" points="168.5,-117.75 168.5,-140.5 425.5,-140.5 425.5,-117.75 168.5,-117.75"/>
<polygon fill="none" stroke="#6e6963" points="168.5,-117.75 168.5,-140.5 425.5,-140.5 425.5,-117.75 168.5,-117.75"/>
<text xml:space="preserve" text-anchor="start" x="263.25" y="-127" font-family="Helvetica,sans-Serif" font-weight="bold" font-size="10.00" fill="#ece1d7">edge colour</text>
<polygon fill="none" stroke="#6e6963" points="168.5,-95 168.5,-117.75 196.5,-117.75 196.5,-95 168.5,-95"/>
<text xml:space="preserve" text-anchor="start" x="176.5" y="-104.25" font-family="Helvetica,sans-Serif" font-weight="bold" font-size="10.00" fill="#a1a9cc">━━</text>
<polygon fill="none" stroke="#6e6963" points="196.5,-95 196.5,-117.75 425.5,-117.75 425.5,-95 196.5,-95"/>
<text xml:space="preserve" text-anchor="start" x="201.5" y="-103" font-family="Helvetica,sans-Serif" font-size="10.00" fill="#ece1d7">source replication (&#39;r&#39; standby) / Prom scrape</text>
<polygon fill="none" stroke="#6e6963" points="168.5,-72.25 168.5,-95 196.5,-95 196.5,-72.25 168.5,-72.25"/>
<text xml:space="preserve" text-anchor="start" x="176.5" y="-81.5" font-family="Helvetica,sans-Serif" font-weight="bold" font-size="10.00" fill="#bd8183">━━</text>
<polygon fill="none" stroke="#6e6963" points="196.5,-72.25 196.5,-95 425.5,-95 425.5,-72.25 196.5,-72.25"/>
<text xml:space="preserve" text-anchor="start" x="230.38" y="-80.25" font-family="Helvetica,sans-Serif" font-size="10.00" fill="#ece1d7">walsender wire (&#39;r&#39; from shadow)</text>
<polygon fill="none" stroke="#6e6963" points="168.5,-49.5 168.5,-72.25 196.5,-72.25 196.5,-49.5 168.5,-49.5"/>
<text xml:space="preserve" text-anchor="start" x="176.5" y="-58.75" font-family="Helvetica,sans-Serif" font-weight="bold" font-size="10.00" fill="#cba85e">━━</text>
<polygon fill="none" stroke="#6e6963" points="196.5,-49.5 196.5,-72.25 425.5,-72.25 425.5,-49.5 196.5,-49.5"/>
<text xml:space="preserve" text-anchor="start" x="231.88" y="-57.5" font-family="Helvetica,sans-Serif" font-size="10.00" fill="#ece1d7">libpq catalog query / metrics tap</text>
<polygon fill="none" stroke="#6e6963" points="168.5,-26.75 168.5,-49.5 196.5,-49.5 196.5,-26.75 168.5,-26.75"/>
<text xml:space="preserve" text-anchor="start" x="176.88" y="-36" font-family="Helvetica,sans-Serif" font-weight="bold" font-size="10.00" fill="#b380b0">···</text>
<polygon fill="none" stroke="#6e6963" points="196.5,-26.75 196.5,-49.5 425.5,-49.5 425.5,-26.75 196.5,-26.75"/>
<text xml:space="preserve" text-anchor="start" x="206.38" y="-34.75" font-family="Helvetica,sans-Serif" font-size="10.00" fill="#ece1d7">cursor durability (atomic rename, CRC32C)</text>
<polygon fill="none" stroke="#6e6963" points="168.5,-4 168.5,-26.75 196.5,-26.75 196.5,-4 168.5,-4"/>
<text xml:space="preserve" text-anchor="start" x="176.5" y="-13.25" font-family="Helvetica,sans-Serif" font-weight="bold" font-size="10.00" fill="#6e6963">┄┄</text>
<polygon fill="none" stroke="#6e6963" points="196.5,-4 196.5,-26.75 425.5,-26.75 425.5,-4 196.5,-4"/>
<text xml:space="preserve" text-anchor="start" x="247.25" y="-12" font-family="Helvetica,sans-Serif" font-size="10.00" fill="#ece1d7">filesystem (segment trim)</text>
</g>
<!-- cursor_table&#45;&gt;legend -->
</g>
</svg>
