<?xml version="1.0" encoding="UTF-8" standalone="no"?>
<!DOCTYPE svg PUBLIC "-//W3C//DTD SVG 1.1//EN"
 "http://www.w3.org/Graphics/SVG/1.1/DTD/svg11.dtd">
<!-- Generated by graphviz version 2.42.4 (0)
 -->
<!-- Title: ops Pages: 1 -->
<svg width="1070pt" height="1612pt"
 viewBox="0.00 0.00 1069.86 1611.69" xmlns="http://www.w3.org/2000/svg" xmlns:xlink="http://www.w3.org/1999/xlink">
<g id="graph0" class="graph" transform="scale(1 1) rotate(0) translate(4 1607.69)">
<title>ops</title>
<polygon fill="#272623" stroke="transparent" points="-4,4 -4,-1607.69 1065.86,-1607.69 1065.86,4 -4,4"/>
<text text-anchor="middle" x="530.93" y="-1588.49" font-family="Helvetica,sans-Serif" font-size="14.00" fill="#ece1d7">walshadow — cursor durability + slot advance (status_loop, 10 s cadence)</text>
<g id="clust1" class="cluster">
<title>cluster_inputs</title>
<path fill="#34302c" stroke="#4c4641" d="M120.36,-1365C120.36,-1365 904.36,-1365 904.36,-1365 910.36,-1365 916.36,-1371 916.36,-1377 916.36,-1377 916.36,-1560.69 916.36,-1560.69 916.36,-1566.69 910.36,-1572.69 904.36,-1572.69 904.36,-1572.69 120.36,-1572.69 120.36,-1572.69 114.36,-1572.69 108.36,-1566.69 108.36,-1560.69 108.36,-1560.69 108.36,-1377 108.36,-1377 108.36,-1371 114.36,-1365 120.36,-1365"/>
<text text-anchor="middle" x="512.36" y="-1557.49" font-family="Helvetica,sans-Serif" font-size="14.00" fill="#ece1d7">LSN sources (single source of truth per field)</text>
</g>
<g id="clust2" class="cluster">
<title>cluster_status</title>
<path fill="#34302c" stroke="#4c4641" d="M281.36,-832C281.36,-832 631.36,-832 631.36,-832 637.36,-832 643.36,-838 643.36,-844 643.36,-844 643.36,-1304 643.36,-1304 643.36,-1310 637.36,-1316 631.36,-1316 631.36,-1316 281.36,-1316 281.36,-1316 275.36,-1316 269.36,-1310 269.36,-1304 269.36,-1304 269.36,-844 269.36,-844 269.36,-838 275.36,-832 281.36,-832"/>
<text text-anchor="middle" x="456.36" y="-1300.8" font-family="Helvetica,sans-Serif" font-size="14.00" fill="#ece1d7">status_loop (bin/stream.rs, &#45;&#45;status&#45;interval = 10 s)</text>
</g>
<!-- shd -->
<g id="node1" class="node">
<title>shd</title>
<path fill="#3d4128" stroke="#6e6963" d="M1061.86,-1544.4C1061.86,-1547.25 1031.16,-1549.56 993.36,-1549.56 955.57,-1549.56 924.86,-1547.25 924.86,-1544.4 924.86,-1544.4 924.86,-1497.97 924.86,-1497.97 924.86,-1495.12 955.57,-1492.81 993.36,-1492.81 1031.16,-1492.81 1061.86,-1495.12 1061.86,-1497.97 1061.86,-1497.97 1061.86,-1544.4 1061.86,-1544.4"/>
<path fill="none" stroke="#6e6963" d="M1061.86,-1544.4C1061.86,-1541.56 1031.16,-1539.25 993.36,-1539.25 955.57,-1539.25 924.86,-1541.56 924.86,-1544.4"/>
<text text-anchor="middle" x="993.36" y="-1529.69" font-family="Helvetica,sans-Serif" font-size="10.00" fill="#ece1d7">shadow PG</text>
<text text-anchor="middle" x="993.36" y="-1518.69" font-family="Helvetica,sans-Serif" font-size="10.00" fill="#ece1d7">pg_last_wal_replay_lsn()</text>
<text text-anchor="middle" x="993.36" y="-1507.69" font-family="Helvetica,sans-Serif" font-size="10.00" fill="#ece1d7">+ walreceiver &#39;r&#39; frames</text>
</g>
<!-- sweeper -->
<g id="node8" class="node">
<title>sweeper</title>
<path fill="#4d3a28" stroke="#6e6963" d="M705.36,-1419.5C705.36,-1419.5 519.36,-1419.5 519.36,-1419.5 513.36,-1419.5 507.36,-1413.5 507.36,-1407.5 507.36,-1407.5 507.36,-1390.5 507.36,-1390.5 507.36,-1384.5 513.36,-1378.5 519.36,-1378.5 519.36,-1378.5 705.36,-1378.5 705.36,-1378.5 711.36,-1378.5 717.36,-1384.5 717.36,-1390.5 717.36,-1390.5 717.36,-1407.5 717.36,-1407.5 717.36,-1413.5 711.36,-1419.5 705.36,-1419.5"/>
<text text-anchor="middle" x="612.36" y="-1407.5" font-family="Helvetica,sans-Serif" font-size="10.00" fill="#ece1d7">retention_task (30 s)</text>
<text text-anchor="middle" x="612.36" y="-1396.5" font-family="Helvetica,sans-Serif" font-size="10.00" fill="#ece1d7">SELECT pg_last_wal_replay_lsn()</text>
<text text-anchor="middle" x="612.36" y="-1385.5" font-family="Helvetica,sans-Serif" font-size="10.00" fill="#ece1d7">→ Arc&lt;AtomicU64&gt; shadow_replay_lsn</text>
</g>
<!-- shd&#45;&gt;sweeper -->
<g id="edge5" class="edge">
<title>shd&#45;&gt;sweeper</title>
<path fill="none" stroke="#cba85e" stroke-dasharray="5,2" d="M926.74,-1494.84C924.93,-1494.22 923.14,-1493.6 921.36,-1493 844.05,-1466.8 754.65,-1440.3 691.96,-1422.33"/>
<polygon fill="#cba85e" stroke="#cba85e" points="692.71,-1418.9 682.14,-1419.52 690.79,-1425.63 692.71,-1418.9"/>
<text text-anchor="middle" x="858.86" y="-1456.8" font-family="Helvetica,sans-Serif" font-size="9.00" fill="#ece1d7">libpq SELECT</text>
</g>
<!-- walsrv -->
<g id="node9" class="node">
<title>walsrv</title>
<path fill="#5d3f40" stroke="#6e6963" d="M465.86,-1425C465.86,-1425 318.86,-1425 318.86,-1425 312.86,-1425 306.86,-1419 306.86,-1413 306.86,-1413 306.86,-1385 306.86,-1385 306.86,-1379 312.86,-1373 318.86,-1373 318.86,-1373 465.86,-1373 465.86,-1373 471.86,-1373 477.86,-1379 477.86,-1385 477.86,-1385 477.86,-1413 477.86,-1413 477.86,-1419 471.86,-1425 465.86,-1425"/>
<text text-anchor="middle" x="392.36" y="-1413" font-family="Helvetica,sans-Serif" font-size="10.00" fill="#ece1d7">walsender server</text>
<text text-anchor="middle" x="392.36" y="-1402" font-family="Helvetica,sans-Serif" font-size="10.00" fill="#ece1d7">rx &#39;r&#39; standby frames</text>
<text text-anchor="middle" x="392.36" y="-1391" font-family="Helvetica,sans-Serif" font-size="10.00" fill="#ece1d7">ShadowStreamState::aggregate</text>
<text text-anchor="middle" x="392.36" y="-1380" font-family="Helvetica,sans-Serif" font-size="10.00" fill="#ece1d7">→ min_flush_lsn</text>
</g>
<!-- shd&#45;&gt;walsrv -->
<g id="edge6" class="edge">
<title>shd&#45;&gt;walsrv</title>
<path fill="none" stroke="#bd8183" stroke-dasharray="5,2" d="M928.02,-1494.87C925.78,-1494.21 923.56,-1493.58 921.36,-1493 735.2,-1443.61 682.13,-1463.29 493.36,-1425 491.63,-1424.65 489.88,-1424.29 488.12,-1423.92"/>
<polygon fill="#bd8183" stroke="#bd8183" points="488.45,-1420.41 477.93,-1421.71 486.97,-1427.25 488.45,-1420.41"/>
<text text-anchor="middle" x="813.86" y="-1456.8" font-family="Helvetica,sans-Serif" font-size="9.00" fill="#ece1d7">walreceiver &#39;r&#39;</text>
</g>
<!-- src -->
<g id="node2" class="node">
<title>src</title>
<path fill="#3d3d54" stroke="#6e6963" d="M626.36,-753.72C626.36,-756.56 600.82,-758.88 569.36,-758.88 537.91,-758.88 512.36,-756.56 512.36,-753.72 512.36,-753.72 512.36,-707.28 512.36,-707.28 512.36,-704.44 537.91,-702.12 569.36,-702.12 600.82,-702.12 626.36,-704.44 626.36,-707.28 626.36,-707.28 626.36,-753.72 626.36,-753.72"/>
<path fill="none" stroke="#6e6963" d="M626.36,-753.72C626.36,-750.87 600.82,-748.56 569.36,-748.56 537.91,-748.56 512.36,-750.87 512.36,-753.72"/>
<text text-anchor="middle" x="569.36" y="-739" font-family="Helvetica,sans-Serif" font-size="10.00" fill="#ece1d7">source PG</text>
<text text-anchor="middle" x="569.36" y="-728" font-family="Helvetica,sans-Serif" font-size="10.00" fill="#ece1d7">pg_replication_slots</text>
<text text-anchor="middle" x="569.36" y="-717" font-family="Helvetica,sans-Serif" font-size="10.00" fill="#ece1d7">confirmed_flush_lsn</text>
</g>
<!-- prom -->
<g id="node3" class="node">
<title>prom</title>
<path fill="#3d3d54" stroke="#6e6963" d="M224.36,-1002.48C224.36,-1004.56 199.71,-1006.25 169.36,-1006.25 139.02,-1006.25 114.36,-1004.56 114.36,-1002.48 114.36,-1002.48 114.36,-968.52 114.36,-968.52 114.36,-966.44 139.02,-964.75 169.36,-964.75 199.71,-964.75 224.36,-966.44 224.36,-968.52 224.36,-968.52 224.36,-1002.48 224.36,-1002.48"/>
<path fill="none" stroke="#6e6963" d="M224.36,-1002.48C224.36,-1000.4 199.71,-998.71 169.36,-998.71 139.02,-998.71 114.36,-1000.4 114.36,-1002.48"/>
<text text-anchor="middle" x="169.36" y="-988.5" font-family="Helvetica,sans-Serif" font-size="10.00" fill="#ece1d7">Prometheus scrape</text>
<text text-anchor="middle" x="169.36" y="-977.5" font-family="Helvetica,sans-Serif" font-size="10.00" fill="#ece1d7">/metrics</text>
</g>
<!-- toastmirror -->
<g id="node4" class="node">
<title>toastmirror</title>
<path fill="#4d4128" stroke="#6e6963" d="M812.36,-167.98C812.36,-170.06 789.06,-171.75 760.36,-171.75 731.67,-171.75 708.36,-170.06 708.36,-167.98 708.36,-167.98 708.36,-134.02 708.36,-134.02 708.36,-131.94 731.67,-130.25 760.36,-130.25 789.06,-130.25 812.36,-131.94 812.36,-134.02 812.36,-134.02 812.36,-167.98 812.36,-167.98"/>
<path fill="none" stroke="#6e6963" d="M812.36,-167.98C812.36,-165.9 789.06,-164.21 760.36,-164.21 731.67,-164.21 708.36,-165.9 708.36,-167.98"/>
<text text-anchor="middle" x="760.36" y="-154" font-family="Helvetica,sans-Serif" font-size="10.00" fill="#ece1d7">CH TOAST mirrors</text>
<text text-anchor="middle" x="760.36" y="-143" font-family="Helvetica,sans-Serif" font-size="10.00" fill="#ece1d7">pg_toast_&lt;relid&gt;</text>
</g>
<!-- feed -->
<g id="node5" class="node">
<title>feed</title>
<path fill="#3d3d54" stroke="#6e6963" d="M231.86,-1541.69C231.86,-1541.69 128.86,-1541.69 128.86,-1541.69 122.86,-1541.69 116.86,-1535.69 116.86,-1529.69 116.86,-1529.69 116.86,-1512.69 116.86,-1512.69 116.86,-1506.69 122.86,-1500.69 128.86,-1500.69 128.86,-1500.69 231.86,-1500.69 231.86,-1500.69 237.86,-1500.69 243.86,-1506.69 243.86,-1512.69 243.86,-1512.69 243.86,-1529.69 243.86,-1529.69 243.86,-1535.69 237.86,-1541.69 231.86,-1541.69"/>
<text text-anchor="middle" x="180.36" y="-1529.69" font-family="Helvetica,sans-Serif" font-size="10.00" fill="#ece1d7">SourceFeed::pump</text>
<text text-anchor="middle" x="180.36" y="-1518.69" font-family="Helvetica,sans-Serif" font-size="10.00" fill="#ece1d7">last_server_wal_end</text>
<text text-anchor="middle" x="180.36" y="-1507.69" font-family="Helvetica,sans-Serif" font-size="10.00" fill="#ece1d7">→ source_received_lsn</text>
</g>
<!-- snap -->
<g id="node10" class="node">
<title>snap</title>
<path fill="#4d3a28" stroke="#6e6963" d="M433.36,-1285C433.36,-1285 351.36,-1285 351.36,-1285 345.36,-1285 339.36,-1279 339.36,-1273 339.36,-1273 339.36,-1261 339.36,-1261 339.36,-1255 345.36,-1249 351.36,-1249 351.36,-1249 433.36,-1249 433.36,-1249 439.36,-1249 445.36,-1255 445.36,-1261 445.36,-1261 445.36,-1273 445.36,-1273 445.36,-1279 439.36,-1285 433.36,-1285"/>
<text text-anchor="middle" x="392.36" y="-1270" font-family="Helvetica,sans-Serif" font-size="10.00" fill="#ece1d7">snapshot 6 LSNs</text>
<text text-anchor="middle" x="392.36" y="-1259" font-family="Helvetica,sans-Serif" font-size="10.00" fill="#ece1d7">build Cursor { … }</text>
</g>
<!-- feed&#45;&gt;snap -->
<g id="edge7" class="edge">
<title>feed&#45;&gt;snap</title>
<path fill="none" stroke="#c1a78e" d="M116.46,-1502.16C78.7,-1487.85 33.96,-1463.67 11.36,-1425 -2.09,-1401.98 -5,-1386.05 11.36,-1365 50.05,-1315.23 231.26,-1286.78 329.19,-1274.8"/>
<polygon fill="#c1a78e" stroke="#c1a78e" points="329.75,-1278.26 339.26,-1273.59 328.91,-1271.31 329.75,-1278.26"/>
<text text-anchor="middle" x="56.86" y="-1396.8" font-family="Helvetica,sans-Serif" font-size="9.00" fill="#ece1d7">source_received_lsn</text>
</g>
<!-- segsink -->
<g id="node6" class="node">
<title>segsink</title>
<path fill="#4d3340" stroke="#6e6963" d="M265.86,-1425C265.86,-1425 128.86,-1425 128.86,-1425 122.86,-1425 116.86,-1419 116.86,-1413 116.86,-1413 116.86,-1385 116.86,-1385 116.86,-1379 122.86,-1373 128.86,-1373 128.86,-1373 265.86,-1373 265.86,-1373 271.86,-1373 277.86,-1379 277.86,-1385 277.86,-1385 277.86,-1413 277.86,-1413 277.86,-1419 271.86,-1425 265.86,-1425"/>
<text text-anchor="middle" x="197.36" y="-1413" font-family="Helvetica,sans-Serif" font-size="10.00" fill="#ece1d7">DirSegmentSink::on_segment</text>
<text text-anchor="middle" x="197.36" y="-1402" font-family="Helvetica,sans-Serif" font-size="10.00" fill="#ece1d7">fsync seg + dir</text>
<text text-anchor="middle" x="197.36" y="-1391" font-family="Helvetica,sans-Serif" font-size="10.00" fill="#ece1d7">→ filter_durable_lsn</text>
<text text-anchor="middle" x="197.36" y="-1380" font-family="Helvetica,sans-Serif" font-size="10.00" fill="#ece1d7">(= flush advertised)</text>
</g>
<!-- segsink&#45;&gt;snap -->
<g id="edge8" class="edge">
<title>segsink&#45;&gt;snap</title>
<path fill="none" stroke="#c1a78e" d="M233.68,-1372.73C254.55,-1358.31 281.32,-1339.97 305.36,-1324 322.16,-1312.85 340.94,-1300.71 356.75,-1290.6"/>
<polygon fill="#c1a78e" stroke="#c1a78e" points="358.65,-1293.54 365.19,-1285.21 354.88,-1287.64 358.65,-1293.54"/>
<text text-anchor="middle" x="344.36" y="-1331.8" font-family="Helvetica,sans-Serif" font-size="9.00" fill="#ece1d7">filter_durable_lsn</text>
</g>
<!-- xact -->
<g id="node7" class="node">
<title>xact</title>
<path fill="#4d4128" stroke="#6e6963" d="M895.86,-1425C895.86,-1425 758.86,-1425 758.86,-1425 752.86,-1425 746.86,-1419 746.86,-1413 746.86,-1413 746.86,-1385 746.86,-1385 746.86,-1379 752.86,-1373 758.86,-1373 758.86,-1373 895.86,-1373 895.86,-1373 901.86,-1373 907.86,-1379 907.86,-1385 907.86,-1385 907.86,-1413 907.86,-1413 907.86,-1419 901.86,-1425 895.86,-1425"/>
<text text-anchor="middle" x="827.36" y="-1413" font-family="Helvetica,sans-Serif" font-size="10.00" fill="#ece1d7">XactBuffer stats.drain_lsn</text>
<text text-anchor="middle" x="827.36" y="-1402" font-family="Helvetica,sans-Serif" font-size="10.00" fill="#ece1d7">+ pipeline ack collector</text>
<text text-anchor="middle" x="827.36" y="-1391" font-family="Helvetica,sans-Serif" font-size="10.00" fill="#ece1d7">emitter_ack atomic</text>
<text text-anchor="middle" x="827.36" y="-1380" font-family="Helvetica,sans-Serif" font-size="10.00" fill="#ece1d7">(contiguous&#45;done watermark)</text>
</g>
<!-- xact&#45;&gt;snap -->
<g id="edge9" class="edge">
<title>xact&#45;&gt;snap</title>
<path fill="none" stroke="#c1a78e" d="M756.42,-1372.93C748.33,-1370.19 740.18,-1367.5 732.36,-1365 636.38,-1334.29 523.67,-1303.08 455.17,-1284.64"/>
<polygon fill="#c1a78e" stroke="#c1a78e" points="455.95,-1281.22 445.39,-1282.01 454.14,-1287.98 455.95,-1281.22"/>
<text text-anchor="middle" x="692.86" y="-1336.8" font-family="Helvetica,sans-Serif" font-size="9.00" fill="#ece1d7">drain_lsn,</text>
<text text-anchor="middle" x="692.86" y="-1326.8" font-family="Helvetica,sans-Serif" font-size="9.00" fill="#ece1d7">emitter_ack_lsn</text>
</g>
<!-- retire_bin -->
<g id="node16" class="node">
<title>retire_bin</title>
<polygon fill="#4d3850" stroke="#6e6963" points="889.36,-756.5 689.36,-756.5 689.36,-704.5 895.36,-704.5 895.36,-750.5 889.36,-756.5"/>
<polyline fill="none" stroke="#6e6963" points="889.36,-756.5 889.36,-750.5 "/>
<polyline fill="none" stroke="#6e6963" points="895.36,-750.5 889.36,-750.5 "/>
<text text-anchor="middle" x="792.36" y="-744.5" font-family="Helvetica,sans-Serif" font-size="10.00" fill="#ece1d7">{spill_dir}/toast_retires.bin</text>
<text text-anchor="middle" x="792.36" y="-733.5" font-family="Helvetica,sans-Serif" font-size="10.00" fill="#ece1d7">pending (toast_relid, drop commit_lsn)</text>
<text text-anchor="middle" x="792.36" y="-722.5" font-family="Helvetica,sans-Serif" font-size="10.00" fill="#ece1d7">fsync on enqueue/remove</text>
<text text-anchor="middle" x="792.36" y="-711.5" font-family="Helvetica,sans-Serif" font-size="10.00" fill="#ece1d7">survives spill cleanup</text>
</g>
<!-- xact&#45;&gt;retire_bin -->
<g id="edge13" class="edge">
<title>xact&#45;&gt;retire_bin</title>
<path fill="none" stroke="#6e6963" stroke-dasharray="5,2" d="M827.36,-1372.59C827.36,-1346.39 827.36,-1304.34 827.36,-1268 827.36,-1268 827.36,-1268 827.36,-857 827.36,-825.45 816.97,-791.02 807.52,-766.22"/>
<polygon fill="#6e6963" stroke="#6e6963" points="810.76,-764.89 803.83,-756.88 804.25,-767.47 810.76,-764.89"/>
<text text-anchor="middle" x="891.36" y="-1066.8" font-family="Helvetica,sans-Serif" font-size="9.00" fill="#ece1d7">toast Dropped barrier</text>
<text text-anchor="middle" x="891.36" y="-1056.8" font-family="Helvetica,sans-Serif" font-size="9.00" fill="#ece1d7">enqueue before commit ack</text>
</g>
<!-- sweeper&#45;&gt;snap -->
<g id="edge10" class="edge">
<title>sweeper&#45;&gt;snap</title>
<path fill="none" stroke="#c1a78e" d="M570.14,-1378.49C549.91,-1368.74 525.53,-1356.4 504.36,-1344 489,-1335 452.56,-1310.01 425.39,-1291.12"/>
<polygon fill="#c1a78e" stroke="#c1a78e" points="427.14,-1288.07 416.93,-1285.23 423.14,-1293.82 427.14,-1288.07"/>
<text text-anchor="middle" x="546.86" y="-1331.8" font-family="Helvetica,sans-Serif" font-size="9.00" fill="#ece1d7">shadow_replay_lsn</text>
</g>
<!-- trim -->
<g id="node19" class="node">
<title>trim</title>
<path fill="#4d3a28" stroke="#6e6963" d="M771.36,-1293C771.36,-1293 663.36,-1293 663.36,-1293 657.36,-1293 651.36,-1287 651.36,-1281 651.36,-1281 651.36,-1253 651.36,-1253 651.36,-1247 657.36,-1241 663.36,-1241 663.36,-1241 771.36,-1241 771.36,-1241 777.36,-1241 783.36,-1247 783.36,-1253 783.36,-1253 783.36,-1281 783.36,-1281 783.36,-1287 777.36,-1293 771.36,-1293"/>
<text text-anchor="middle" x="717.36" y="-1281" font-family="Helvetica,sans-Serif" font-size="10.00" fill="#ece1d7">trim_below_lsn</text>
<text text-anchor="middle" x="717.36" y="-1270" font-family="Helvetica,sans-Serif" font-size="10.00" fill="#ece1d7">cutoff = shadow_replay</text>
<text text-anchor="middle" x="717.36" y="-1259" font-family="Helvetica,sans-Serif" font-size="10.00" fill="#ece1d7"> &#160;− retention_bytes</text>
<text text-anchor="middle" x="717.36" y="-1248" font-family="Helvetica,sans-Serif" font-size="10.00" fill="#ece1d7">(default 256 MiB)</text>
</g>
<!-- sweeper&#45;&gt;trim -->
<g id="edge18" class="edge">
<title>sweeper&#45;&gt;trim</title>
<path fill="none" stroke="#6e6963" stroke-dasharray="5,2" d="M656.65,-1378.26C671.52,-1369.67 686.95,-1358.26 697.36,-1344 705.96,-1332.24 710.87,-1317.06 713.66,-1303.37"/>
<polygon fill="#6e6963" stroke="#6e6963" points="717.15,-1303.72 715.42,-1293.27 710.26,-1302.53 717.15,-1303.72"/>
</g>
<!-- walsrv&#45;&gt;snap -->
<g id="edge11" class="edge">
<title>walsrv&#45;&gt;snap</title>
<path fill="none" stroke="#bd8183" d="M391.81,-1373C391.63,-1363.87 391.45,-1353.47 391.36,-1344 391.22,-1327.91 391.44,-1309.91 391.71,-1295.47"/>
<polygon fill="#bd8183" stroke="#bd8183" points="395.21,-1295.27 391.92,-1285.2 388.21,-1295.13 395.21,-1295.27"/>
<text text-anchor="middle" x="430.86" y="-1331.8" font-family="Helvetica,sans-Serif" font-size="9.00" fill="#ece1d7">shadow_flush_lsn</text>
</g>
<!-- apply -->
<g id="node11" class="node">
<title>apply</title>
<path fill="#4d3a28" stroke="#6e6963" d="M611.86,-1163C611.86,-1163 442.86,-1163 442.86,-1163 436.86,-1163 430.86,-1157 430.86,-1151 430.86,-1151 430.86,-1123 430.86,-1123 430.86,-1117 436.86,-1111 442.86,-1111 442.86,-1111 611.86,-1111 611.86,-1111 617.86,-1111 623.86,-1117 623.86,-1123 623.86,-1123 623.86,-1151 623.86,-1151 623.86,-1157 617.86,-1163 611.86,-1163"/>
<text text-anchor="middle" x="527.36" y="-1151" font-family="Helvetica,sans-Serif" font-size="10.00" fill="#ece1d7">apply_ceiling =</text>
<text text-anchor="middle" x="527.36" y="-1140" font-family="Helvetica,sans-Serif" font-size="10.00" fill="#ece1d7">shadow_replay==0</text>
<text text-anchor="middle" x="527.36" y="-1129" font-family="Helvetica,sans-Serif" font-size="10.00" fill="#ece1d7"> &#160;? emitter_ack</text>
<text text-anchor="middle" x="527.36" y="-1118" font-family="Helvetica,sans-Serif" font-size="10.00" fill="#ece1d7"> &#160;: min(shadow_replay, emitter_ack)</text>
</g>
<!-- snap&#45;&gt;apply -->
<g id="edge1" class="edge">
<title>snap&#45;&gt;apply</title>
<path fill="none" stroke="#c1a78e" d="M410.57,-1248.74C431.66,-1228.74 466.88,-1195.35 493.13,-1170.46"/>
<polygon fill="#c1a78e" stroke="#c1a78e" points="495.78,-1172.77 500.63,-1163.35 490.96,-1167.69 495.78,-1172.77"/>
</g>
<!-- cwrite -->
<g id="node12" class="node">
<title>cwrite</title>
<path fill="#4d3a28" stroke="#6e6963" d="M473.86,-1082C473.86,-1082 310.86,-1082 310.86,-1082 304.86,-1082 298.86,-1076 298.86,-1070 298.86,-1070 298.86,-1058 298.86,-1058 298.86,-1052 304.86,-1046 310.86,-1046 310.86,-1046 473.86,-1046 473.86,-1046 479.86,-1046 485.86,-1052 485.86,-1058 485.86,-1058 485.86,-1070 485.86,-1070 485.86,-1076 479.86,-1082 473.86,-1082"/>
<text text-anchor="middle" x="392.36" y="-1067" font-family="Helvetica,sans-Serif" font-size="10.00" fill="#ece1d7">cursor::write</text>
<text text-anchor="middle" x="392.36" y="-1056" font-family="Helvetica,sans-Serif" font-size="10.00" fill="#ece1d7">tmp → fsync → rename → fsync_dir</text>
</g>
<!-- snap&#45;&gt;cwrite -->
<g id="edge2" class="edge">
<title>snap&#45;&gt;cwrite</title>
<path fill="none" stroke="#b380b0" stroke-width="2" stroke-dasharray="1,5" d="M392.36,-1248.86C392.36,-1213.93 392.36,-1134.24 392.36,-1092.17"/>
<polygon fill="#b380b0" stroke="#b380b0" stroke-width="2" points="395.87,-1092.09 392.36,-1082.09 388.87,-1092.09 395.87,-1092.09"/>
</g>
<!-- metrics -->
<g id="node20" class="node">
<title>metrics</title>
<path fill="#4d4128" stroke="#6e6963" d="M249.86,-1163C249.86,-1163 88.86,-1163 88.86,-1163 82.86,-1163 76.86,-1157 76.86,-1151 76.86,-1151 76.86,-1123 76.86,-1123 76.86,-1117 82.86,-1111 88.86,-1111 88.86,-1111 249.86,-1111 249.86,-1111 255.86,-1111 261.86,-1117 261.86,-1123 261.86,-1123 261.86,-1151 261.86,-1151 261.86,-1157 255.86,-1163 249.86,-1163"/>
<text text-anchor="middle" x="169.36" y="-1151" font-family="Helvetica,sans-Serif" font-size="10.00" fill="#ece1d7">MetricsSnapshot → text</text>
<text text-anchor="middle" x="169.36" y="-1140" font-family="Helvetica,sans-Serif" font-size="10.00" fill="#ece1d7">walshadow_*_lsn gauges,</text>
<text text-anchor="middle" x="169.36" y="-1129" font-family="Helvetica,sans-Serif" font-size="10.00" fill="#ece1d7">shadow_apply_lag_bytes/seconds,</text>
<text text-anchor="middle" x="169.36" y="-1118" font-family="Helvetica,sans-Serif" font-size="10.00" fill="#ece1d7">RateEstimator (30 s window)</text>
</g>
<!-- snap&#45;&gt;metrics -->
<g id="edge20" class="edge">
<title>snap&#45;&gt;metrics</title>
<path fill="none" stroke="#cba85e" stroke-dasharray="5,2" d="M362.29,-1248.74C326.37,-1228.12 265.64,-1193.26 221.91,-1168.16"/>
<polygon fill="#cba85e" stroke="#cba85e" points="223.54,-1165.06 213.13,-1163.12 220.06,-1171.13 223.54,-1165.06"/>
<text text-anchor="middle" x="325.86" y="-1204.8" font-family="Helvetica,sans-Serif" font-size="9.00" fill="#ece1d7">LSN gauges +</text>
<text text-anchor="middle" x="325.86" y="-1194.8" font-family="Helvetica,sans-Serif" font-size="9.00" fill="#ece1d7">apply_lag_*</text>
</g>
<!-- triple -->
<g id="node13" class="node">
<title>triple</title>
<path fill="#4d3a28" stroke="#6e6963" d="M593.36,-1017C593.36,-1017 473.36,-1017 473.36,-1017 467.36,-1017 461.36,-1011 461.36,-1005 461.36,-1005 461.36,-966 461.36,-966 461.36,-960 467.36,-954 473.36,-954 473.36,-954 593.36,-954 593.36,-954 599.36,-954 605.36,-960 605.36,-966 605.36,-966 605.36,-1005 605.36,-1005 605.36,-1011 599.36,-1017 593.36,-1017"/>
<text text-anchor="middle" x="533.36" y="-1005" font-family="Helvetica,sans-Serif" font-size="10.00" fill="#ece1d7">StandbyStatus {</text>
<text text-anchor="middle" x="533.36" y="-994" font-family="Helvetica,sans-Serif" font-size="10.00" fill="#ece1d7"> &#160;write = source_received,</text>
<text text-anchor="middle" x="533.36" y="-983" font-family="Helvetica,sans-Serif" font-size="10.00" fill="#ece1d7"> &#160;flush = filter_durable,</text>
<text text-anchor="middle" x="533.36" y="-972" font-family="Helvetica,sans-Serif" font-size="10.00" fill="#ece1d7"> &#160;apply = apply_ceiling</text>
<text text-anchor="middle" x="533.36" y="-961" font-family="Helvetica,sans-Serif" font-size="10.00" fill="#ece1d7">}</text>
</g>
<!-- apply&#45;&gt;triple -->
<g id="edge3" class="edge">
<title>apply&#45;&gt;triple</title>
<path fill="none" stroke="#c1a78e" d="M528.37,-1110.98C529.29,-1088.16 530.66,-1054.02 531.73,-1027.26"/>
<polygon fill="#c1a78e" stroke="#c1a78e" points="535.24,-1027.17 532.14,-1017.04 528.24,-1026.89 535.24,-1027.17"/>
</g>
<!-- cursor_bin -->
<g id="node15" class="node">
<title>cursor_bin</title>
<polygon fill="#4d3850" stroke="#6e6963" points="477.36,-762 301.36,-762 301.36,-699 483.36,-699 483.36,-756 477.36,-762"/>
<polyline fill="none" stroke="#6e6963" points="477.36,-762 477.36,-756 "/>
<polyline fill="none" stroke="#6e6963" points="483.36,-756 477.36,-756 "/>
<text text-anchor="middle" x="392.36" y="-750" font-family="Helvetica,sans-Serif" font-size="10.00" fill="#ece1d7">{spill_dir}/cursor.bin</text>
<text text-anchor="middle" x="392.36" y="-739" font-family="Helvetica,sans-Serif" font-size="10.00" fill="#ece1d7">64 B, schema v2, CRC32C</text>
<text text-anchor="middle" x="392.36" y="-728" font-family="Helvetica,sans-Serif" font-size="10.00" fill="#ece1d7">atomic rename via cursor.bin.tmp</text>
<text text-anchor="middle" x="392.36" y="-717" font-family="Helvetica,sans-Serif" font-size="10.00" fill="#ece1d7">(boot: emitter_ack_lsn is</text>
<text text-anchor="middle" x="392.36" y="-706" font-family="Helvetica,sans-Serif" font-size="10.00" fill="#ece1d7">resume floor, seg&#45;aligned)</text>
</g>
<!-- cwrite&#45;&gt;cursor_bin -->
<g id="edge12" class="edge">
<title>cwrite&#45;&gt;cursor_bin</title>
<path fill="none" stroke="#b380b0" stroke-width="2" stroke-dasharray="1,5" d="M392.36,-1045.64C392.36,-994.79 392.36,-845.15 392.36,-772.29"/>
<polygon fill="#b380b0" stroke="#b380b0" stroke-width="2" points="395.87,-772.12 392.36,-762.12 388.87,-772.12 395.87,-772.12"/>
<text text-anchor="middle" x="430.36" y="-917.8" font-family="Helvetica,sans-Serif" font-size="9.00" fill="#ece1d7">every 10 s</text>
<text text-anchor="middle" x="430.36" y="-907.8" font-family="Helvetica,sans-Serif" font-size="9.00" fill="#ece1d7">(atomic rename)</text>
</g>
<!-- sendst -->
<g id="node14" class="node">
<title>sendst</title>
<path fill="#3d3d54" stroke="#6e6963" d="M620.86,-876C620.86,-876 481.86,-876 481.86,-876 475.86,-876 469.86,-870 469.86,-864 469.86,-864 469.86,-852 469.86,-852 469.86,-846 475.86,-840 481.86,-840 481.86,-840 620.86,-840 620.86,-840 626.86,-840 632.86,-846 632.86,-852 632.86,-852 632.86,-864 632.86,-864 632.86,-870 626.86,-876 620.86,-876"/>
<text text-anchor="middle" x="551.36" y="-861" font-family="Helvetica,sans-Serif" font-size="10.00" fill="#ece1d7">SourceFeed::send_status</text>
<text text-anchor="middle" x="551.36" y="-850" font-family="Helvetica,sans-Serif" font-size="10.00" fill="#ece1d7">&#39;r&#39; frame on replication socket</text>
</g>
<!-- triple&#45;&gt;sendst -->
<g id="edge4" class="edge">
<title>triple&#45;&gt;sendst</title>
<path fill="none" stroke="#c1a78e" d="M537.77,-953.8C540.73,-933.13 544.61,-906.12 547.46,-886.22"/>
<polygon fill="#c1a78e" stroke="#c1a78e" points="550.93,-886.66 548.89,-876.26 544,-885.66 550.93,-886.66"/>
</g>
<!-- sendst&#45;&gt;src -->
<g id="edge17" class="edge">
<title>sendst&#45;&gt;src</title>
<path fill="none" stroke="#a1a9cc" stroke-width="2" d="M553.83,-839.81C556.43,-821.68 560.61,-792.55 563.98,-769.06"/>
<polygon fill="#a1a9cc" stroke="#a1a9cc" stroke-width="2" points="567.46,-769.45 565.41,-759.06 560.53,-768.46 567.46,-769.45"/>
<text text-anchor="middle" x="607.36" y="-803.8" font-family="Helvetica,sans-Serif" font-size="9.00" fill="#ece1d7">standby&#45;status triple</text>
<text text-anchor="middle" x="607.36" y="-793.8" font-family="Helvetica,sans-Serif" font-size="9.00" fill="#ece1d7">(write/flush/apply)</text>
</g>
<!-- retire_flush -->
<g id="node17" class="node">
<title>retire_flush</title>
<path fill="#4d3a28" stroke="#6e6963" d="M850.36,-526.5C850.36,-526.5 670.36,-526.5 670.36,-526.5 664.36,-526.5 658.36,-520.5 658.36,-514.5 658.36,-514.5 658.36,-486.5 658.36,-486.5 658.36,-480.5 664.36,-474.5 670.36,-474.5 670.36,-474.5 850.36,-474.5 850.36,-474.5 856.36,-474.5 862.36,-480.5 862.36,-486.5 862.36,-486.5 862.36,-514.5 862.36,-514.5 862.36,-520.5 856.36,-526.5 850.36,-526.5"/>
<text text-anchor="middle" x="760.36" y="-514.5" font-family="Helvetica,sans-Serif" font-size="10.00" fill="#ece1d7">flush_due_retires</text>
<text text-anchor="middle" x="760.36" y="-503.5" font-family="Helvetica,sans-Serif" font-size="10.00" fill="#ece1d7">standup + commit + idle</text>
<text text-anchor="middle" x="760.36" y="-492.5" font-family="Helvetica,sans-Serif" font-size="10.00" fill="#ece1d7">when aligned resume floor &gt; drop LSN</text>
<text text-anchor="middle" x="760.36" y="-481.5" font-family="Helvetica,sans-Serif" font-size="10.00" fill="#ece1d7">TRUNCATE mirror, then remove entry</text>
</g>
<!-- cursor_bin&#45;&gt;retire_flush -->
<g id="edge14" class="edge">
<title>cursor_bin&#45;&gt;retire_flush</title>
<path fill="none" stroke="#b380b0" stroke-dasharray="1,5" d="M476.07,-698.9C518.46,-681.72 569.82,-658.26 612.36,-631 656.3,-602.84 700.53,-562.15 729.04,-533.92"/>
<polygon fill="#b380b0" stroke="#b380b0" points="731.7,-536.22 736.29,-526.67 726.75,-531.26 731.7,-536.22"/>
<text text-anchor="middle" x="611.36" y="-662.8" font-family="Helvetica,sans-Serif" font-size="9.00" fill="#ece1d7">persisted resume floor</text>
</g>
<!-- cursor_table -->
<g id="node21" class="node">
<title>cursor_table</title>
<path fill="#6e6963" stroke="transparent" d="M585.86,-631C585.86,-631 198.86,-631 198.86,-631 192.86,-631 186.86,-625 186.86,-619 186.86,-619 186.86,-382 186.86,-382 186.86,-376 192.86,-370 198.86,-370 198.86,-370 585.86,-370 585.86,-370 591.86,-370 597.86,-376 597.86,-382 597.86,-382 597.86,-619 597.86,-619 597.86,-625 591.86,-631 585.86,-631"/>
<polygon fill="#4d3850" stroke="transparent" points="195.36,-603.5 195.36,-626.5 590.36,-626.5 590.36,-603.5 195.36,-603.5"/>
<polygon fill="none" stroke="#6e6963" points="195.36,-603.5 195.36,-626.5 590.36,-626.5 590.36,-603.5 195.36,-603.5"/>
<text text-anchor="start" x="290.36" y="-613.5" font-family="Helvetica,sans-Serif" font-weight="bold" font-size="10.00" fill="#ece1d7">cursor.bin layout — 64 B, schema v2</text>
<polygon fill="none" stroke="#6e6963" points="195.36,-580.5 195.36,-603.5 240.36,-603.5 240.36,-580.5 195.36,-580.5"/>
<text text-anchor="start" x="201.36" y="-590.5" font-family="Helvetica,sans-Serif" font-weight="bold" font-size="10.00" fill="#ece1d7">offset</text>
<polygon fill="none" stroke="#6e6963" points="240.36,-580.5 240.36,-603.5 382.36,-603.5 382.36,-580.5 240.36,-580.5"/>
<text text-anchor="start" x="298.36" y="-590.5" font-family="Helvetica,sans-Serif" font-weight="bold" font-size="10.00" fill="#ece1d7">field</text>
<polygon fill="none" stroke="#6e6963" points="382.36,-580.5 382.36,-603.5 590.36,-603.5 590.36,-580.5 382.36,-580.5"/>
<text text-anchor="start" x="474.86" y="-590.5" font-family="Helvetica,sans-Serif" font-weight="bold" font-size="10.00" fill="#ece1d7">role</text>
<polygon fill="none" stroke="#6e6963" points="195.36,-557.5 195.36,-580.5 240.36,-580.5 240.36,-557.5 195.36,-557.5"/>
<text text-anchor="start" x="208.36" y="-566.5" font-family="Helvetica,sans-Serif" font-size="10.00" fill="#ece1d7">0..8</text>
<polygon fill="none" stroke="#6e6963" points="240.36,-557.5 240.36,-580.5 382.36,-580.5 382.36,-557.5 240.36,-557.5"/>
<text text-anchor="start" x="246.36" y="-566.5" font-family="Helvetica,sans-Serif" font-size="10.00" fill="#ece1d7">MAGIC &quot;WSCRSR\x01\x00&quot;</text>
<polygon fill="none" stroke="#6e6963" points="382.36,-557.5 382.36,-580.5 590.36,-580.5 590.36,-557.5 382.36,-557.5"/>
<text text-anchor="start" x="443.86" y="-566.5" font-family="Helvetica,sans-Serif" font-size="10.00" fill="#ece1d7">file id + reserved</text>
<polygon fill="none" stroke="#6e6963" points="195.36,-534.5 195.36,-557.5 240.36,-557.5 240.36,-534.5 195.36,-534.5"/>
<text text-anchor="start" x="205.36" y="-543.5" font-family="Helvetica,sans-Serif" font-size="10.00" fill="#ece1d7">8..12</text>
<polygon fill="none" stroke="#6e6963" points="240.36,-534.5 240.36,-557.5 382.36,-557.5 382.36,-534.5 240.36,-534.5"/>
<text text-anchor="start" x="275.36" y="-543.5" font-family="Helvetica,sans-Serif" font-size="10.00" fill="#ece1d7">version u32 LE</text>
<polygon fill="none" stroke="#6e6963" points="382.36,-534.5 382.36,-557.5 590.36,-557.5 590.36,-534.5 382.36,-534.5"/>
<text text-anchor="start" x="392.36" y="-543.5" font-family="Helvetica,sans-Serif" font-size="10.00" fill="#ece1d7">schema = 2 (added shadow_flush_lsn)</text>
<polygon fill="none" stroke="#6e6963" points="195.36,-511.5 195.36,-534.5 240.36,-534.5 240.36,-511.5 195.36,-511.5"/>
<text text-anchor="start" x="202.36" y="-520.5" font-family="Helvetica,sans-Serif" font-size="10.00" fill="#ece1d7">12..20</text>
<polygon fill="none" stroke="#6e6963" points="240.36,-511.5 240.36,-534.5 382.36,-534.5 382.36,-511.5 240.36,-511.5"/>
<text text-anchor="start" x="261.36" y="-520.5" font-family="Helvetica,sans-Serif" font-size="10.00" fill="#ece1d7">source_received_lsn</text>
<polygon fill="none" stroke="#6e6963" points="382.36,-511.5 382.36,-534.5 590.36,-534.5 590.36,-511.5 382.36,-511.5"/>
<text text-anchor="start" x="418.36" y="-520.5" font-family="Helvetica,sans-Serif" font-size="10.00" fill="#ece1d7">bookkeeping, gates nothing</text>
<polygon fill="none" stroke="#6e6963" points="195.36,-488.5 195.36,-511.5 240.36,-511.5 240.36,-488.5 195.36,-488.5"/>
<text text-anchor="start" x="202.36" y="-497.5" font-family="Helvetica,sans-Serif" font-size="10.00" fill="#ece1d7">20..28</text>
<polygon fill="none" stroke="#6e6963" points="240.36,-488.5 240.36,-511.5 382.36,-511.5 382.36,-488.5 240.36,-488.5"/>
<text text-anchor="start" x="268.86" y="-497.5" font-family="Helvetica,sans-Serif" font-size="10.00" fill="#ece1d7">filter_durable_lsn</text>
<polygon fill="none" stroke="#6e6963" points="382.36,-488.5 382.36,-511.5 590.36,-511.5 590.36,-488.5 382.36,-488.5"/>
<text text-anchor="start" x="416.36" y="-497.5" font-family="Helvetica,sans-Serif" font-size="10.00" fill="#ece1d7">standby flush_lsn advertised</text>
<polygon fill="none" stroke="#6e6963" points="195.36,-465.5 195.36,-488.5 240.36,-488.5 240.36,-465.5 195.36,-465.5"/>
<text text-anchor="start" x="202.36" y="-474.5" font-family="Helvetica,sans-Serif" font-size="10.00" fill="#ece1d7">28..36</text>
<polygon fill="none" stroke="#6e6963" points="240.36,-465.5 240.36,-488.5 382.36,-488.5 382.36,-465.5 240.36,-465.5"/>
<text text-anchor="start" x="264.36" y="-474.5" font-family="Helvetica,sans-Serif" font-size="10.00" fill="#ece1d7">shadow_replay_lsn</text>
<polygon fill="none" stroke="#6e6963" points="382.36,-465.5 382.36,-488.5 590.36,-488.5 590.36,-465.5 382.36,-465.5"/>
<text text-anchor="start" x="415.36" y="-474.5" font-family="Helvetica,sans-Serif" font-size="10.00" fill="#ece1d7">apply ceiling (when nonzero)</text>
<polygon fill="none" stroke="#6e6963" points="195.36,-442.5 195.36,-465.5 240.36,-465.5 240.36,-442.5 195.36,-442.5"/>
<text text-anchor="start" x="202.36" y="-451.5" font-family="Helvetica,sans-Serif" font-size="10.00" fill="#ece1d7">36..44</text>
<polygon fill="none" stroke="#6e6963" points="240.36,-442.5 240.36,-465.5 382.36,-465.5 382.36,-442.5 240.36,-442.5"/>
<text text-anchor="start" x="288.86" y="-451.5" font-family="Helvetica,sans-Serif" font-size="10.00" fill="#ece1d7">drain_lsn</text>
<polygon fill="none" stroke="#6e6963" points="382.36,-442.5 382.36,-465.5 590.36,-465.5 590.36,-442.5 382.36,-442.5"/>
<text text-anchor="start" x="426.86" y="-451.5" font-family="Helvetica,sans-Serif" font-size="10.00" fill="#ece1d7">observer; ≥ emitter_ack</text>
<polygon fill="none" stroke="#6e6963" points="195.36,-419.5 195.36,-442.5 240.36,-442.5 240.36,-419.5 195.36,-419.5"/>
<text text-anchor="start" x="202.36" y="-428.5" font-family="Helvetica,sans-Serif" font-size="10.00" fill="#ece1d7">44..52</text>
<polygon fill="none" stroke="#6e6963" points="240.36,-419.5 240.36,-442.5 382.36,-442.5 382.36,-419.5 240.36,-419.5"/>
<text text-anchor="start" x="266.86" y="-429.5" font-family="Helvetica,sans-Serif" font-weight="bold" font-size="10.00" fill="#ece1d7">emitter_ack_lsn</text>
<polygon fill="none" stroke="#6e6963" points="382.36,-419.5 382.36,-442.5 590.36,-442.5 590.36,-419.5 382.36,-419.5"/>
<text text-anchor="start" x="407.36" y="-429.5" font-family="Helvetica,sans-Serif" font-weight="bold" font-size="10.00" fill="#ece1d7">resume LSN + apply ceiling</text>
<polygon fill="none" stroke="#6e6963" points="195.36,-396.5 195.36,-419.5 240.36,-419.5 240.36,-396.5 195.36,-396.5"/>
<text text-anchor="start" x="202.36" y="-405.5" font-family="Helvetica,sans-Serif" font-size="10.00" fill="#ece1d7">52..60</text>
<polygon fill="none" stroke="#6e6963" points="240.36,-396.5 240.36,-419.5 382.36,-419.5 382.36,-396.5 240.36,-396.5"/>
<text text-anchor="start" x="268.36" y="-405.5" font-family="Helvetica,sans-Serif" font-size="10.00" fill="#ece1d7">shadow_flush_lsn</text>
<polygon fill="none" stroke="#6e6963" points="382.36,-396.5 382.36,-419.5 590.36,-419.5 590.36,-396.5 382.36,-396.5"/>
<text text-anchor="start" x="398.86" y="-405.5" font-family="Helvetica,sans-Serif" font-size="10.00" fill="#ece1d7">walsender hands shadow back here</text>
<polygon fill="none" stroke="#6e6963" points="195.36,-373.5 195.36,-396.5 240.36,-396.5 240.36,-373.5 195.36,-373.5"/>
<text text-anchor="start" x="202.36" y="-382.5" font-family="Helvetica,sans-Serif" font-size="10.00" fill="#ece1d7">60..64</text>
<polygon fill="none" stroke="#6e6963" points="240.36,-373.5 240.36,-396.5 382.36,-396.5 382.36,-373.5 240.36,-373.5"/>
<text text-anchor="start" x="277.86" y="-382.5" font-family="Helvetica,sans-Serif" font-size="10.00" fill="#ece1d7">crc32c u32 LE</text>
<polygon fill="none" stroke="#6e6963" points="382.36,-373.5 382.36,-396.5 590.36,-396.5 590.36,-373.5 382.36,-373.5"/>
<text text-anchor="start" x="388.36" y="-382.5" font-family="Helvetica,sans-Serif" font-size="10.00" fill="#ece1d7">covers bytes 0..60 (PG&#45;compatible CRC)</text>
</g>
<!-- cursor_bin&#45;&gt;cursor_table -->
<!-- retire_bin&#45;&gt;retire_flush -->
<g id="edge15" class="edge">
<title>retire_bin&#45;&gt;retire_flush</title>
<path fill="none" stroke="#6e6963" stroke-dasharray="5,2" d="M788.82,-704.23C783.1,-663.46 771.81,-583.08 765.31,-536.72"/>
<polygon fill="#6e6963" stroke="#6e6963" points="768.73,-535.95 763.88,-526.54 761.8,-536.93 768.73,-535.95"/>
<text text-anchor="middle" x="816.86" y="-662.8" font-family="Helvetica,sans-Serif" font-size="9.00" fill="#ece1d7">pending wipes</text>
</g>
<!-- retire_flush&#45;&gt;toastmirror -->
<g id="edge16" class="edge">
<title>retire_flush&#45;&gt;toastmirror</title>
<path fill="none" stroke="#bf8c5f" stroke-dasharray="5,2" d="M760.36,-474.23C760.36,-411.65 760.36,-249.66 760.36,-182.19"/>
<polygon fill="#bf8c5f" stroke="#bf8c5f" points="763.87,-181.84 760.36,-171.84 756.87,-181.84 763.87,-181.84"/>
<text text-anchor="middle" x="788.86" y="-333.8" font-family="Helvetica,sans-Serif" font-size="9.00" fill="#ece1d7">retire_mirror</text>
</g>
<!-- outdir -->
<g id="node18" class="node">
<title>outdir</title>
<polygon fill="#4d3850" stroke="#6e6963" points="767.36,-1157.5 661.36,-1157.5 661.36,-1116.5 773.36,-1116.5 773.36,-1151.5 767.36,-1157.5"/>
<polyline fill="none" stroke="#6e6963" points="767.36,-1157.5 767.36,-1151.5 "/>
<polyline fill="none" stroke="#6e6963" points="773.36,-1151.5 767.36,-1151.5 "/>
<text text-anchor="middle" x="717.36" y="-1145.5" font-family="Helvetica,sans-Serif" font-size="10.00" fill="#ece1d7">out/&lt;seg&gt;</text>
<text text-anchor="middle" x="717.36" y="-1134.5" font-family="Helvetica,sans-Serif" font-size="10.00" fill="#ece1d7">filtered 16 MiB WAL</text>
<text text-anchor="middle" x="717.36" y="-1123.5" font-family="Helvetica,sans-Serif" font-size="10.00" fill="#ece1d7">+ manifest.json</text>
</g>
<!-- trim&#45;&gt;outdir -->
<g id="edge19" class="edge">
<title>trim&#45;&gt;outdir</title>
<path fill="none" stroke="#6e6963" stroke-dasharray="5,2" d="M717.36,-1240.71C717.36,-1219.8 717.36,-1190.05 717.36,-1167.95"/>
<polygon fill="#6e6963" stroke="#6e6963" points="720.87,-1167.79 717.36,-1157.79 713.87,-1167.79 720.87,-1167.79"/>
<text text-anchor="middle" x="743.86" y="-1199.8" font-family="Helvetica,sans-Serif" font-size="9.00" fill="#ece1d7">rm &lt; cutoff</text>
</g>
<!-- metrics&#45;&gt;prom -->
<g id="edge21" class="edge">
<title>metrics&#45;&gt;prom</title>
<path fill="none" stroke="#a1a9cc" d="M169.36,-1110.98C169.36,-1085 169.36,-1044.36 169.36,-1016.63"/>
<polygon fill="#a1a9cc" stroke="#a1a9cc" points="172.87,-1016.34 169.36,-1006.34 165.87,-1016.34 172.87,-1016.34"/>
<text text-anchor="middle" x="200.86" y="-1061.8" font-family="Helvetica,sans-Serif" font-size="9.00" fill="#ece1d7">HTTP /metrics</text>
</g>
<!-- legend -->
<g id="node22" class="node">
<title>legend</title>
<path fill="#6e6963" stroke="transparent" d="M517.36,-302C517.36,-302 267.36,-302 267.36,-302 261.36,-302 255.36,-296 255.36,-290 255.36,-290 255.36,-12 255.36,-12 255.36,-6 261.36,0 267.36,0 267.36,0 517.36,0 517.36,0 523.36,0 529.36,-6 529.36,-12 529.36,-12 529.36,-290 529.36,-290 529.36,-296 523.36,-302 517.36,-302"/>
<polygon fill="#34302c" stroke="transparent" points="263.36,-277 263.36,-298 521.36,-298 521.36,-277 263.36,-277"/>
<polygon fill="none" stroke="#6e6963" points="263.36,-277 263.36,-298 521.36,-298 521.36,-277 263.36,-277"/>
<text text-anchor="start" x="348.86" y="-286" font-family="Helvetica,sans-Serif" font-weight="bold" font-size="10.00" fill="#ece1d7">node fill — role</text>
<polygon fill="#3d3d54" stroke="transparent" points="263.36,-256 263.36,-277 291.36,-277 291.36,-256 263.36,-256"/>
<polygon fill="none" stroke="#6e6963" points="263.36,-256 263.36,-277 291.36,-277 291.36,-256 263.36,-256"/>
<polygon fill="none" stroke="#6e6963" points="291.36,-256 291.36,-277 521.36,-277 521.36,-256 291.36,-256"/>
<text text-anchor="start" x="359.36" y="-264" font-family="Helvetica,sans-Serif" font-size="10.00" fill="#ece1d7">source PG / ingress</text>
<polygon fill="#4d3a28" stroke="transparent" points="263.36,-235 263.36,-256 291.36,-256 291.36,-235 263.36,-235"/>
<polygon fill="none" stroke="#6e6963" points="263.36,-235 263.36,-256 291.36,-256 291.36,-235 263.36,-235"/>
<polygon fill="none" stroke="#6e6963" points="291.36,-235 291.36,-256 521.36,-256 521.36,-235 291.36,-235"/>
<text text-anchor="start" x="335.36" y="-243" font-family="Helvetica,sans-Serif" font-size="10.00" fill="#ece1d7">walshadow status / retention</text>
<polygon fill="#4d3340" stroke="transparent" points="263.36,-214 263.36,-235 291.36,-235 291.36,-214 263.36,-214"/>
<polygon fill="none" stroke="#6e6963" points="263.36,-214 263.36,-235 291.36,-235 291.36,-214 263.36,-214"/>
<polygon fill="none" stroke="#6e6963" points="291.36,-214 291.36,-235 521.36,-235 521.36,-214 291.36,-214"/>
<text text-anchor="start" x="344.36" y="-222" font-family="Helvetica,sans-Serif" font-size="10.00" fill="#ece1d7">walshadow segment sink</text>
<polygon fill="#4d4128" stroke="transparent" points="263.36,-193 263.36,-214 291.36,-214 291.36,-193 263.36,-193"/>
<polygon fill="none" stroke="#6e6963" points="263.36,-193 263.36,-214 291.36,-214 291.36,-193 263.36,-193"/>
<polygon fill="none" stroke="#6e6963" points="291.36,-193 291.36,-214 521.36,-214 521.36,-193 291.36,-193"/>
<text text-anchor="start" x="327.86" y="-201" font-family="Helvetica,sans-Serif" font-size="10.00" fill="#ece1d7">walshadow xact buffer / metrics</text>
<polygon fill="#5d3f40" stroke="transparent" points="263.36,-172 263.36,-193 291.36,-193 291.36,-172 263.36,-172"/>
<polygon fill="none" stroke="#6e6963" points="263.36,-172 263.36,-193 291.36,-193 291.36,-172 263.36,-172"/>
<polygon fill="none" stroke="#6e6963" points="291.36,-172 291.36,-193 521.36,-193 521.36,-172 291.36,-172"/>
<text text-anchor="start" x="335.36" y="-180" font-family="Helvetica,sans-Serif" font-size="10.00" fill="#ece1d7">walshadow walsender server</text>
<polygon fill="#4d3850" stroke="transparent" points="263.36,-151 263.36,-172 291.36,-172 291.36,-151 263.36,-151"/>
<polygon fill="none" stroke="#6e6963" points="263.36,-151 263.36,-172 291.36,-172 291.36,-151 263.36,-151"/>
<polygon fill="none" stroke="#6e6963" points="291.36,-151 291.36,-172 521.36,-172 521.36,-151 291.36,-151"/>
<text text-anchor="start" x="368.86" y="-159" font-family="Helvetica,sans-Serif" font-size="10.00" fill="#ece1d7">on&#45;disk artifact</text>
<polygon fill="#3d4128" stroke="transparent" points="263.36,-130 263.36,-151 291.36,-151 291.36,-130 263.36,-130"/>
<polygon fill="none" stroke="#6e6963" points="263.36,-130 263.36,-151 291.36,-151 291.36,-130 263.36,-130"/>
<polygon fill="none" stroke="#6e6963" points="291.36,-130 291.36,-151 521.36,-151 521.36,-130 291.36,-130"/>
<text text-anchor="start" x="364.86" y="-138" font-family="Helvetica,sans-Serif" font-size="10.00" fill="#ece1d7">shadow Postgres</text>
<polygon fill="#34302c" stroke="transparent" points="263.36,-109 263.36,-130 521.36,-130 521.36,-109 263.36,-109"/>
<polygon fill="none" stroke="#6e6963" points="263.36,-109 263.36,-130 521.36,-130 521.36,-109 263.36,-109"/>
<text text-anchor="start" x="358.36" y="-118" font-family="Helvetica,sans-Serif" font-weight="bold" font-size="10.00" fill="#ece1d7">edge colour</text>
<polygon fill="none" stroke="#6e6963" points="263.36,-88 263.36,-109 291.36,-109 291.36,-88 263.36,-88"/>
<text text-anchor="start" x="270.86" y="-97" font-family="Helvetica,sans-Serif" font-weight="bold" font-size="10.00" fill="#a1a9cc">━━</text>
<polygon fill="none" stroke="#6e6963" points="291.36,-88 291.36,-109 521.36,-109 521.36,-88 291.36,-88"/>
<text text-anchor="start" x="296.36" y="-96" font-family="Helvetica,sans-Serif" font-size="10.00" fill="#ece1d7">source replication (&#39;r&#39; standby) / Prom scrape</text>
<polygon fill="none" stroke="#6e6963" points="263.36,-67 263.36,-88 291.36,-88 291.36,-67 263.36,-67"/>
<text text-anchor="start" x="270.86" y="-76" font-family="Helvetica,sans-Serif" font-weight="bold" font-size="10.00" fill="#bd8183">━━</text>
<polygon fill="none" stroke="#6e6963" points="291.36,-67 291.36,-88 521.36,-88 521.36,-67 291.36,-67"/>
<text text-anchor="start" x="325.36" y="-75" font-family="Helvetica,sans-Serif" font-size="10.00" fill="#ece1d7">walsender wire (&#39;r&#39; from shadow)</text>
<polygon fill="none" stroke="#6e6963" points="263.36,-46 263.36,-67 291.36,-67 291.36,-46 263.36,-46"/>
<text text-anchor="start" x="270.86" y="-55" font-family="Helvetica,sans-Serif" font-weight="bold" font-size="10.00" fill="#cba85e">━━</text>
<polygon fill="none" stroke="#6e6963" points="291.36,-46 291.36,-67 521.36,-67 521.36,-46 291.36,-46"/>
<text text-anchor="start" x="326.86" y="-54" font-family="Helvetica,sans-Serif" font-size="10.00" fill="#ece1d7">libpq catalog query / metrics tap</text>
<polygon fill="none" stroke="#6e6963" points="263.36,-25 263.36,-46 291.36,-46 291.36,-25 263.36,-25"/>
<text text-anchor="start" x="271.36" y="-34" font-family="Helvetica,sans-Serif" font-weight="bold" font-size="10.00" fill="#b380b0">···</text>
<polygon fill="none" stroke="#6e6963" points="291.36,-25 291.36,-46 521.36,-46 521.36,-25 291.36,-25"/>
<text text-anchor="start" x="301.36" y="-33" font-family="Helvetica,sans-Serif" font-size="10.00" fill="#ece1d7">cursor durability (atomic rename, CRC32C)</text>
<polygon fill="none" stroke="#6e6963" points="263.36,-4 263.36,-25 291.36,-25 291.36,-4 263.36,-4"/>
<text text-anchor="start" x="270.86" y="-13" font-family="Helvetica,sans-Serif" font-weight="bold" font-size="10.00" fill="#6e6963">┄┄</text>
<polygon fill="none" stroke="#6e6963" points="291.36,-4 291.36,-25 521.36,-25 521.36,-4 291.36,-4"/>
<text text-anchor="start" x="342.36" y="-12" font-family="Helvetica,sans-Serif" font-size="10.00" fill="#ece1d7">filesystem (segment trim)</text>
</g>
<!-- cursor_table&#45;&gt;legend -->
</g>
</svg>
