<?xml version="1.0" encoding="UTF-8" standalone="no"?>
<!DOCTYPE svg PUBLIC "-//W3C//DTD SVG 1.1//EN"
 "http://www.w3.org/Graphics/SVG/1.1/DTD/svg11.dtd">
<!-- Generated by graphviz version 14.1.5 (0)
 -->
<!-- Title: oracle Pages: 1 -->
<svg width="1343pt" height="1429pt"
 viewBox="0.00 0.00 1343.00 1429.00" xmlns="http://www.w3.org/2000/svg" xmlns:xlink="http://www.w3.org/1999/xlink">
<g id="graph0" class="graph" transform="scale(1 1) rotate(0) translate(4 1424.5)">
<title>oracle</title>
<polygon fill="#272623" stroke="none" points="-4,4 -4,-1424.5 1339,-1424.5 1339,4 -4,4"/>
<text xml:space="preserve" text-anchor="middle" x="667.5" y="-1403.2" font-family="Helvetica,sans-Serif" font-size="14.00" fill="#ece1d7">walshadow oracle — differential decode bridge + 1&#45;in&#45;N validator</text>
<g id="clust1" class="cluster">
<title>cluster_decoder</title>
<path fill="#34302c" stroke="#4c4641" d="M110,-1287C110,-1287 544,-1287 544,-1287 550,-1287 556,-1293 556,-1299 556,-1299 556,-1375.25 556,-1375.25 556,-1381.25 550,-1387.25 544,-1387.25 544,-1387.25 110,-1387.25 110,-1387.25 104,-1387.25 98,-1381.25 98,-1375.25 98,-1375.25 98,-1299 98,-1299 98,-1293 104,-1287 110,-1287"/>
<text xml:space="preserve" text-anchor="middle" x="327" y="-1369.95" font-family="Helvetica,sans-Serif" font-size="14.00" fill="#ece1d7">① decoder — ColumnValue (heap_decoder.rs)</text>
</g>
<g id="clust2" class="cluster">
<title>cluster_oracle</title>
<path fill="#34302c" stroke="#4c4641" d="M20,-858.12C20,-858.12 784,-858.12 784,-858.12 790,-858.12 796,-864.12 796,-870.12 796,-870.12 796,-1178.75 796,-1178.75 796,-1184.75 790,-1190.75 784,-1190.75 784,-1190.75 20,-1190.75 20,-1190.75 14,-1190.75 8,-1184.75 8,-1178.75 8,-1178.75 8,-870.12 8,-870.12 8,-864.12 14,-858.12 20,-858.12"/>
<text xml:space="preserve" text-anchor="middle" x="402" y="-1173.45" font-family="Helvetica,sans-Serif" font-size="14.00" fill="#ece1d7">② OracleObserver (src/oracle.rs) — TupleObserver wrapper</text>
</g>
<g id="clust3" class="cluster">
<title>cluster_shadow</title>
<path fill="#34302c" stroke="#4c4641" d="M808,-598.5C808,-598.5 1315,-598.5 1315,-598.5 1321,-598.5 1327,-604.5 1327,-610.5 1327,-610.5 1327,-750.5 1327,-750.5 1327,-756.5 1321,-762.5 1315,-762.5 1315,-762.5 808,-762.5 808,-762.5 802,-762.5 796,-756.5 796,-750.5 796,-750.5 796,-610.5 796,-610.5 796,-604.5 802,-598.5 808,-598.5"/>
<text xml:space="preserve" text-anchor="middle" x="1061.5" y="-745.2" font-family="Helvetica,sans-Serif" font-size="14.00" fill="#ece1d7">④ shadow PG</text>
</g>
<g id="clust4" class="cluster">
<title>cluster_pgext</title>
<path fill="#34302c" stroke="#4c4641" d="M1034,-851.75C1034,-851.75 1179,-851.75 1179,-851.75 1185,-851.75 1191,-857.75 1191,-863.75 1191,-863.75 1191,-952.75 1191,-952.75 1191,-958.75 1185,-964.75 1179,-964.75 1179,-964.75 1034,-964.75 1034,-964.75 1028,-964.75 1022,-958.75 1022,-952.75 1022,-952.75 1022,-863.75 1022,-863.75 1022,-857.75 1028,-851.75 1034,-851.75"/>
<text xml:space="preserve" text-anchor="middle" x="1106.5" y="-947.45" font-family="Helvetica,sans-Serif" font-size="14.00" fill="#ece1d7">⑤ pgext/ (PGXS build)</text>
</g>
<g id="clust5" class="cluster">
<title>cluster_emit</title>
<path fill="#34302c" stroke="#4c4641" d="M578,-1287C578,-1287 1028,-1287 1028,-1287 1034,-1287 1040,-1293 1040,-1299 1040,-1299 1040,-1375.25 1040,-1375.25 1040,-1381.25 1034,-1387.25 1028,-1387.25 1028,-1387.25 578,-1387.25 578,-1387.25 572,-1387.25 566,-1381.25 566,-1375.25 566,-1375.25 566,-1299 566,-1299 566,-1293 572,-1287 578,-1287"/>
<text xml:space="preserve" text-anchor="middle" x="803" y="-1369.95" font-family="Helvetica,sans-Serif" font-size="14.00" fill="#ece1d7">⑥ downstream — emit&#45;time disposition</text>
</g>
<!-- tier12 -->
<g id="node1" class="node">
<title>tier12</title>
<path fill="#4d4128" stroke="#6e6963" d="M217.62,-1354C217.62,-1354 118.38,-1354 118.38,-1354 112.38,-1354 106.38,-1348 106.38,-1342 106.38,-1342 106.38,-1307 106.38,-1307 106.38,-1301 112.38,-1295 118.38,-1295 118.38,-1295 217.62,-1295 217.62,-1295 223.62,-1295 229.62,-1301 229.62,-1307 229.62,-1307 229.62,-1342 229.62,-1342 229.62,-1348 223.62,-1354 217.62,-1354"/>
<text xml:space="preserve" text-anchor="middle" x="168" y="-1340.5" font-family="Helvetica,sans-Serif" font-size="10.00" fill="#ece1d7">ColumnValue::Tier 1/2</text>
<text xml:space="preserve" text-anchor="middle" x="168" y="-1327.75" font-family="Helvetica,sans-Serif" font-size="10.00" fill="#ece1d7">fixed&#45;width / varlena</text>
<text xml:space="preserve" text-anchor="middle" x="168" y="-1315" font-family="Helvetica,sans-Serif" font-size="10.00" fill="#ece1d7">locally rendered</text>
<text xml:space="preserve" text-anchor="middle" x="168" y="-1302.25" font-family="Helvetica,sans-Serif" font-size="10.00" fill="#ece1d7">(no raw bytes kept)</text>
</g>
<!-- sampler -->
<g id="node5" class="node">
<title>sampler</title>
<path fill="#5d3f40" stroke="#6e6963" d="M357.77,-1157.5C357.77,-1157.5 100.57,-1157.5 100.57,-1157.5 94.57,-1157.5 85.43,-1152.38 82.3,-1147.27 82.3,-1147.27 22.51,-1049.73 22.51,-1049.73 19.37,-1044.62 22.23,-1039.5 28.23,-1039.5 28.23,-1039.5 285.43,-1039.5 285.43,-1039.5 291.43,-1039.5 300.57,-1044.62 303.7,-1049.73 303.7,-1049.73 363.49,-1147.27 363.49,-1147.27 366.63,-1152.38 363.77,-1157.5 357.77,-1157.5"/>
<text xml:space="preserve" text-anchor="middle" x="193" y="-1114.5" font-family="Helvetica,sans-Serif" font-size="10.00" fill="#ece1d7">Sampler::pick</text>
<text xml:space="preserve" text-anchor="middle" x="193" y="-1101.75" font-family="Helvetica,sans-Serif" font-size="10.00" fill="#ece1d7">AtomicU64::fetch_add(Relaxed)</text>
<text xml:space="preserve" text-anchor="middle" x="193" y="-1089" font-family="Helvetica,sans-Serif" font-size="10.00" fill="#ece1d7">rate == 0 short&#45;circuits</text>
<text xml:space="preserve" text-anchor="middle" x="193" y="-1076.25" font-family="Helvetica,sans-Serif" font-size="10.00" fill="#ece1d7">else 1&#45;in&#45;N hit</text>
</g>
<!-- tier12&#45;&gt;sampler -->
<g id="edge5" class="edge">
<title>tier12&#45;&gt;sampler</title>
<path fill="none" stroke="#b380b0" stroke-dasharray="1,5" d="M171.22,-1294.67C174.73,-1263.18 180.49,-1211.57 185.21,-1169.34"/>
<polygon fill="#b380b0" stroke="#b380b0" points="188.67,-1169.81 186.31,-1159.48 181.72,-1169.03 188.67,-1169.81"/>
<text xml:space="preserve" text-anchor="middle" x="198.87" y="-1223.95" font-family="Helvetica,sans-Serif" font-size="9.00" fill="#ece1d7">skipped</text>
<text xml:space="preserve" text-anchor="middle" x="198.87" y="-1212.7" font-family="Helvetica,sans-Serif" font-size="9.00" fill="#ece1d7">(no raw</text>
<text xml:space="preserve" text-anchor="middle" x="198.87" y="-1201.45" font-family="Helvetica,sans-Serif" font-size="9.00" fill="#ece1d7"> bytes)</text>
</g>
<!-- tier3 -->
<g id="node2" class="node">
<title>tier3</title>
<path fill="#4d4128" stroke="#6e6963" d="M367,-1354C367,-1354 267,-1354 267,-1354 261,-1354 255,-1348 255,-1342 255,-1342 255,-1307 255,-1307 255,-1301 261,-1295 267,-1295 267,-1295 367,-1295 367,-1295 373,-1295 379,-1301 379,-1307 379,-1307 379,-1342 379,-1342 379,-1348 373,-1354 367,-1354"/>
<text xml:space="preserve" text-anchor="middle" x="317" y="-1340.5" font-family="Helvetica,sans-Serif" font-size="10.00" fill="#ece1d7">ColumnValue::Tier 3</text>
<text xml:space="preserve" text-anchor="middle" x="317" y="-1327.75" font-family="Helvetica,sans-Serif" font-size="10.00" fill="#ece1d7">numeric / inet / cidr /</text>
<text xml:space="preserve" text-anchor="middle" x="317" y="-1315" font-family="Helvetica,sans-Serif" font-size="10.00" fill="#ece1d7">interval (codecs.rs)</text>
<text xml:space="preserve" text-anchor="middle" x="317" y="-1302.25" font-family="Helvetica,sans-Serif" font-size="10.00" fill="#ece1d7">local text + raw bytes</text>
</g>
<!-- tier3&#45;&gt;sampler -->
<g id="edge4" class="edge">
<title>tier3&#45;&gt;sampler</title>
<path fill="none" stroke="#b380b0" stroke-dasharray="5,2" d="M301.04,-1294.67C283.42,-1262.84 254.43,-1210.47 230.91,-1167.99"/>
<polygon fill="#b380b0" stroke="#b380b0" points="234.01,-1166.36 226.11,-1159.3 227.89,-1169.75 234.01,-1166.36"/>
</g>
<!-- pend -->
<g id="node3" class="node">
<title>pend</title>
<path fill="#5d3f40" stroke="#6e6963" d="M536.12,-1354C536.12,-1354 415.88,-1354 415.88,-1354 409.88,-1354 403.88,-1348 403.88,-1342 403.88,-1342 403.88,-1307 403.88,-1307 403.88,-1301 409.88,-1295 415.88,-1295 415.88,-1295 536.12,-1295 536.12,-1295 542.12,-1295 548.12,-1301 548.12,-1307 548.12,-1307 548.12,-1342 548.12,-1342 548.12,-1348 542.12,-1354 536.12,-1354"/>
<text xml:space="preserve" text-anchor="middle" x="476" y="-1340.5" font-family="Helvetica,sans-Serif" font-size="10.00" fill="#ece1d7">ColumnValue::PgPending</text>
<text xml:space="preserve" text-anchor="middle" x="476" y="-1327.75" font-family="Helvetica,sans-Serif" font-size="10.00" fill="#ece1d7">{ type_oid, raw }</text>
<text xml:space="preserve" text-anchor="middle" x="476" y="-1315" font-family="Helvetica,sans-Serif" font-size="10.00" fill="#ece1d7">jsonb / array / range /</text>
<text xml:space="preserve" text-anchor="middle" x="476" y="-1302.25" font-family="Helvetica,sans-Serif" font-size="10.00" fill="#ece1d7">tsvector / domain / vendor</text>
</g>
<!-- resolve -->
<g id="node4" class="node">
<title>resolve</title>
<path fill="#5d3f40" stroke="#6e6963" d="M544.75,-1128C544.75,-1128 407.25,-1128 407.25,-1128 401.25,-1128 395.25,-1122 395.25,-1116 395.25,-1116 395.25,-1081 395.25,-1081 395.25,-1075 401.25,-1069 407.25,-1069 407.25,-1069 544.75,-1069 544.75,-1069 550.75,-1069 556.75,-1075 556.75,-1081 556.75,-1081 556.75,-1116 556.75,-1116 556.75,-1122 550.75,-1128 544.75,-1128"/>
<text xml:space="preserve" text-anchor="middle" x="476" y="-1114.5" font-family="Helvetica,sans-Serif" font-size="10.00" fill="#ece1d7">resolve_pending_tuple</text>
<text xml:space="preserve" text-anchor="middle" x="476" y="-1101.75" font-family="Helvetica,sans-Serif" font-size="10.00" fill="#ece1d7">walk columns,</text>
<text xml:space="preserve" text-anchor="middle" x="476" y="-1089" font-family="Helvetica,sans-Serif" font-size="10.00" fill="#ece1d7">PgPending → resolve_pending</text>
<text xml:space="preserve" text-anchor="middle" x="476" y="-1076.25" font-family="Helvetica,sans-Serif" font-size="10.00" fill="#ece1d7">swap to Text on Ok(Some)</text>
</g>
<!-- pend&#45;&gt;resolve -->
<g id="edge1" class="edge">
<title>pend&#45;&gt;resolve</title>
<path fill="none" stroke="#a1a9cc" stroke-width="2" d="M476,-1294.67C476,-1255.7 476,-1185.93 476,-1141.22"/>
<polygon fill="#a1a9cc" stroke="#a1a9cc" stroke-width="2" points="479.5,-1141.24 476,-1131.24 472.5,-1141.24 479.5,-1141.24"/>
<text xml:space="preserve" text-anchor="middle" x="491" y="-1212.7" font-family="Helvetica,sans-Serif" font-size="9.00" fill="#ece1d7">always</text>
</g>
<!-- stats -->
<g id="node7" class="node">
<title>stats</title>
<polygon fill="#5d3f40" stroke="#6e6963" points="781.62,-1128 652.38,-1128 652.38,-1069 787.62,-1069 787.62,-1122 781.62,-1128"/>
<polyline fill="none" stroke="#6e6963" points="781.62,-1128 781.62,-1122"/>
<polyline fill="none" stroke="#6e6963" points="787.62,-1122 781.62,-1122"/>
<text xml:space="preserve" text-anchor="middle" x="720" y="-1114.5" font-family="Helvetica,sans-Serif" font-size="10.00" fill="#ece1d7">OracleStats</text>
<text xml:space="preserve" text-anchor="middle" x="720" y="-1101.75" font-family="Helvetica,sans-Serif" font-size="10.00" fill="#ece1d7">resolved / fallback_raw /</text>
<text xml:space="preserve" text-anchor="middle" x="720" y="-1089" font-family="Helvetica,sans-Serif" font-size="10.00" fill="#ece1d7">probes / matches /</text>
<text xml:space="preserve" text-anchor="middle" x="720" y="-1076.25" font-family="Helvetica,sans-Serif" font-size="10.00" fill="#ece1d7">mismatches / errors</text>
</g>
<!-- resolve&#45;&gt;stats -->
<g id="edge12" class="edge">
<title>resolve&#45;&gt;stats</title>
<path fill="none" stroke="#cba85e" stroke-dasharray="5,2" d="M557.25,-1098.5C584.18,-1098.5 614.1,-1098.5 640.87,-1098.5"/>
<polygon fill="#cba85e" stroke="#cba85e" points="640.62,-1102 650.62,-1098.5 640.62,-1095 640.62,-1102"/>
<text xml:space="preserve" text-anchor="middle" x="604.56" y="-1115.45" font-family="Helvetica,sans-Serif" font-size="9.00" fill="#ece1d7">resolved++ /</text>
<text xml:space="preserve" text-anchor="middle" x="604.56" y="-1104.2" font-family="Helvetica,sans-Serif" font-size="9.00" fill="#ece1d7">fallback_raw++</text>
</g>
<!-- client -->
<g id="node8" class="node">
<title>client</title>
<path fill="#4d4d28" stroke="#6e6963" d="M971.75,-931.5C971.75,-931.5 816.25,-931.5 816.25,-931.5 810.25,-931.5 804.25,-925.5 804.25,-919.5 804.25,-919.5 804.25,-871.75 804.25,-871.75 804.25,-865.75 810.25,-859.75 816.25,-859.75 816.25,-859.75 971.75,-859.75 971.75,-859.75 977.75,-859.75 983.75,-865.75 983.75,-871.75 983.75,-871.75 983.75,-919.5 983.75,-919.5 983.75,-925.5 977.75,-931.5 971.75,-931.5"/>
<text xml:space="preserve" text-anchor="middle" x="894" y="-918" font-family="Helvetica,sans-Serif" font-size="10.00" fill="#ece1d7">Oracle::client</text>
<text xml:space="preserve" text-anchor="middle" x="894" y="-905.25" font-family="Helvetica,sans-Serif" font-size="10.00" fill="#ece1d7">tokio_postgres::Client</text>
<text xml:space="preserve" text-anchor="middle" x="894" y="-892.5" font-family="Helvetica,sans-Serif" font-size="10.00" fill="#ece1d7">SELECT walshadow_decode_disk(</text>
<text xml:space="preserve" text-anchor="middle" x="894" y="-879.75" font-family="Helvetica,sans-Serif" font-size="10.00" fill="#ece1d7"> &#160;$1::oid, $2::bytea)</text>
<text xml:space="preserve" text-anchor="middle" x="894" y="-867" font-family="Helvetica,sans-Serif" font-size="10.00" fill="#ece1d7">reconnect&#45;once on is_closed</text>
</g>
<!-- resolve&#45;&gt;client -->
<g id="edge2" class="edge">
<title>resolve&#45;&gt;client</title>
<path fill="none" stroke="#cba85e" stroke-width="2" d="M557.02,-1070.4C624.09,-1046.55 720.86,-1008.81 800,-964.75 813.34,-957.32 827.03,-948.32 839.67,-939.33"/>
<polygon fill="#cba85e" stroke="#cba85e" stroke-width="2" points="841.54,-942.3 847.58,-933.59 837.43,-936.64 841.54,-942.3"/>
<text xml:space="preserve" text-anchor="middle" x="824.32" y="-992.33" font-family="Helvetica,sans-Serif" font-size="9.00" fill="#ece1d7">resolve_pending</text>
<text xml:space="preserve" text-anchor="middle" x="824.32" y="-981.08" font-family="Helvetica,sans-Serif" font-size="9.00" fill="#ece1d7">per PgPending col</text>
</g>
<!-- emit_text -->
<g id="node13" class="node">
<title>emit_text</title>
<path fill="#5d4628" stroke="#6e6963" d="M668.38,-1347.62C668.38,-1347.62 585.62,-1347.62 585.62,-1347.62 579.62,-1347.62 573.62,-1341.62 573.62,-1335.62 573.62,-1335.62 573.62,-1313.38 573.62,-1313.38 573.62,-1307.38 579.62,-1301.38 585.62,-1301.38 585.62,-1301.38 668.38,-1301.38 668.38,-1301.38 674.38,-1301.38 680.38,-1307.38 680.38,-1313.38 680.38,-1313.38 680.38,-1335.62 680.38,-1335.62 680.38,-1341.62 674.38,-1347.62 668.38,-1347.62"/>
<text xml:space="preserve" text-anchor="middle" x="627" y="-1334.12" font-family="Helvetica,sans-Serif" font-size="10.00" fill="#ece1d7">ColumnValue::Text</text>
<text xml:space="preserve" text-anchor="middle" x="627" y="-1321.38" font-family="Helvetica,sans-Serif" font-size="10.00" fill="#ece1d7">→ CH String</text>
<text xml:space="preserve" text-anchor="middle" x="627" y="-1308.62" font-family="Helvetica,sans-Serif" font-size="10.00" fill="#ece1d7">(encode_value)</text>
</g>
<!-- resolve&#45;&gt;emit_text -->
<g id="edge14" class="edge">
<title>resolve&#45;&gt;emit_text</title>
<path fill="none" stroke="#bf8c5f" stroke-width="2" d="M495.45,-1128.36C523.53,-1170 575.26,-1246.74 604.79,-1290.56"/>
<polygon fill="#bf8c5f" stroke="#bf8c5f" stroke-width="2" points="601.79,-1292.36 610.28,-1298.69 607.59,-1288.44 601.79,-1292.36"/>
<text xml:space="preserve" text-anchor="middle" x="589.02" y="-1223.95" font-family="Helvetica,sans-Serif" font-size="9.00" fill="#ece1d7">Ok(Some)</text>
<text xml:space="preserve" text-anchor="middle" x="589.02" y="-1212.7" font-family="Helvetica,sans-Serif" font-size="9.00" fill="#ece1d7">PgPending</text>
<text xml:space="preserve" text-anchor="middle" x="589.02" y="-1201.45" font-family="Helvetica,sans-Serif" font-size="9.00" fill="#ece1d7">→ Text</text>
</g>
<!-- emit_raw -->
<g id="node14" class="node">
<title>emit_raw</title>
<path fill="#5d4628" stroke="#6e6963" d="M847,-1354C847,-1354 717,-1354 717,-1354 711,-1354 705,-1348 705,-1342 705,-1342 705,-1307 705,-1307 705,-1301 711,-1295 717,-1295 717,-1295 847,-1295 847,-1295 853,-1295 859,-1301 859,-1307 859,-1307 859,-1342 859,-1342 859,-1348 853,-1354 847,-1354"/>
<text xml:space="preserve" text-anchor="middle" x="782" y="-1340.5" font-family="Helvetica,sans-Serif" font-size="10.00" fill="#ece1d7">PgPending raw bytes</text>
<text xml:space="preserve" text-anchor="middle" x="782" y="-1327.75" font-family="Helvetica,sans-Serif" font-size="10.00" fill="#ece1d7">→ append_string_bytes(raw)</text>
<text xml:space="preserve" text-anchor="middle" x="782" y="-1315" font-family="Helvetica,sans-Serif" font-size="10.00" fill="#ece1d7">unsupported_values++</text>
<text xml:space="preserve" text-anchor="middle" x="782" y="-1302.25" font-family="Helvetica,sans-Serif" font-size="10.00" fill="#ece1d7">placeholder &lt;oid:N&gt;</text>
</g>
<!-- resolve&#45;&gt;emit_raw -->
<g id="edge15" class="edge">
<title>resolve&#45;&gt;emit_raw</title>
<path fill="none" stroke="#bf8c5f" stroke-dasharray="5,2" d="M518.6,-1128.3C547.23,-1147.84 585.67,-1174.45 619,-1198.75 659.14,-1228.01 703.89,-1262.4 736.34,-1287.65"/>
<polygon fill="#bf8c5f" stroke="#bf8c5f" points="733.91,-1290.2 743.95,-1293.58 738.22,-1284.68 733.91,-1290.2"/>
<text xml:space="preserve" text-anchor="middle" x="691.63" y="-1223.95" font-family="Helvetica,sans-Serif" font-size="9.00" fill="#ece1d7">Ok(None)</text>
<text xml:space="preserve" text-anchor="middle" x="691.63" y="-1212.7" font-family="Helvetica,sans-Serif" font-size="9.00" fill="#ece1d7">ext absent /</text>
<text xml:space="preserve" text-anchor="middle" x="691.63" y="-1201.45" font-family="Helvetica,sans-Serif" font-size="9.00" fill="#ece1d7">NULL / error</text>
</g>
<!-- validate -->
<g id="node6" class="node">
<title>validate</title>
<path fill="#5d3f40" stroke="#6e6963" d="M355.88,-925.12C355.88,-925.12 258.12,-925.12 258.12,-925.12 252.12,-925.12 246.12,-919.12 246.12,-913.12 246.12,-913.12 246.12,-878.12 246.12,-878.12 246.12,-872.12 252.12,-866.12 258.12,-866.12 258.12,-866.12 355.88,-866.12 355.88,-866.12 361.88,-866.12 367.88,-872.12 367.88,-878.12 367.88,-878.12 367.88,-913.12 367.88,-913.12 367.88,-919.12 361.88,-925.12 355.88,-925.12"/>
<text xml:space="preserve" text-anchor="middle" x="307" y="-911.62" font-family="Helvetica,sans-Serif" font-size="10.00" fill="#ece1d7">validate</text>
<text xml:space="preserve" text-anchor="middle" x="307" y="-898.88" font-family="Helvetica,sans-Serif" font-size="10.00" fill="#ece1d7">type_oid ∈ {numeric,</text>
<text xml:space="preserve" text-anchor="middle" x="307" y="-886.12" font-family="Helvetica,sans-Serif" font-size="10.00" fill="#ece1d7"> inet, cidr, interval}</text>
<text xml:space="preserve" text-anchor="middle" x="307" y="-873.38" font-family="Helvetica,sans-Serif" font-size="10.00" fill="#ece1d7">else skip</text>
</g>
<!-- sampler&#45;&gt;validate -->
<g id="edge6" class="edge">
<title>sampler&#45;&gt;validate</title>
<path fill="none" stroke="#b380b0" d="M226.13,-1039.13C245.06,-1005.76 268.29,-964.84 284.98,-935.42"/>
<polygon fill="#b380b0" stroke="#b380b0" points="287.96,-937.26 289.85,-926.84 281.87,-933.81 287.96,-937.26"/>
<text xml:space="preserve" text-anchor="middle" x="284.56" y="-986.7" font-family="Helvetica,sans-Serif" font-size="9.00" fill="#ece1d7">1&#45;in&#45;N hit</text>
</g>
<!-- validate&#45;&gt;stats -->
<g id="edge13" class="edge">
<title>validate&#45;&gt;stats</title>
<path fill="none" stroke="#cba85e" stroke-dasharray="5,2" d="M352.95,-925.52C390.9,-948.81 446.56,-981.65 497.25,-1006.5 544.11,-1029.47 598.27,-1051.69 641.45,-1068.42"/>
<polygon fill="#cba85e" stroke="#cba85e" points="640.18,-1071.68 650.77,-1072.01 642.7,-1065.15 640.18,-1071.68"/>
<text xml:space="preserve" text-anchor="middle" x="532.12" y="-997.95" font-family="Helvetica,sans-Serif" font-size="9.00" fill="#ece1d7">probes++ /</text>
<text xml:space="preserve" text-anchor="middle" x="532.12" y="-986.7" font-family="Helvetica,sans-Serif" font-size="9.00" fill="#ece1d7">matches /</text>
<text xml:space="preserve" text-anchor="middle" x="532.12" y="-975.45" font-family="Helvetica,sans-Serif" font-size="9.00" fill="#ece1d7">mismatches++</text>
</g>
<!-- validate&#45;&gt;client -->
<g id="edge7" class="edge">
<title>validate&#45;&gt;client</title>
<path fill="none" stroke="#cba85e" d="M368.16,-895.62C468.82,-895.62 670.41,-895.62 792.65,-895.62"/>
<polygon fill="#cba85e" stroke="#cba85e" points="792.35,-899.13 802.35,-895.63 792.35,-892.13 792.35,-899.13"/>
<text xml:space="preserve" text-anchor="middle" x="586.06" y="-901.33" font-family="Helvetica,sans-Serif" font-size="9.00" fill="#ece1d7">probe SQL</text>
</g>
<!-- alarm -->
<g id="node15" class="node">
<title>alarm</title>
<polygon fill="#5d4628" stroke="#6e6963" points="1026.38,-1354 883.62,-1354 883.62,-1295 1032.38,-1295 1032.38,-1348 1026.38,-1354"/>
<polyline fill="none" stroke="#6e6963" points="1026.38,-1354 1026.38,-1348"/>
<polyline fill="none" stroke="#6e6963" points="1032.38,-1348 1026.38,-1348"/>
<text xml:space="preserve" text-anchor="middle" x="958" y="-1340.5" font-family="Helvetica,sans-Serif" font-size="10.00" fill="#ece1d7">mismatch alarm</text>
<text xml:space="preserve" text-anchor="middle" x="958" y="-1327.75" font-family="Helvetica,sans-Serif" font-size="10.00" fill="#ece1d7">log + stats.mismatches++</text>
<text xml:space="preserve" text-anchor="middle" x="958" y="-1315" font-family="Helvetica,sans-Serif" font-size="10.00" fill="#ece1d7">row STILL ships</text>
<text xml:space="preserve" text-anchor="middle" x="958" y="-1302.25" font-family="Helvetica,sans-Serif" font-size="10.00" fill="#ece1d7">(watchdog, not gate)</text>
</g>
<!-- validate&#45;&gt;alarm -->
<g id="edge16" class="edge">
<title>validate&#45;&gt;alarm</title>
<path fill="none" stroke="#bf8c5f" stroke-dasharray="5,2" d="M368.15,-905.99C460.03,-919.88 639.21,-946.29 792,-964.75 809.52,-966.87 857.67,-961.19 871,-972.75 962,-1051.65 965.44,-1209.47 961.47,-1283.47"/>
<polygon fill="#bf8c5f" stroke="#bf8c5f" points="958,-1282.89 960.88,-1293.09 964.99,-1283.32 958,-1282.89"/>
<text xml:space="preserve" text-anchor="middle" x="977.26" y="-1101.2" font-family="Helvetica,sans-Serif" font-size="9.00" fill="#ece1d7">local !=</text>
<text xml:space="preserve" text-anchor="middle" x="977.26" y="-1089.95" font-family="Helvetica,sans-Serif" font-size="9.00" fill="#ece1d7">shadow</text>
</g>
<!-- ext -->
<g id="node9" class="node">
<title>ext</title>
<path fill="#3d4128" stroke="#6e6963" d="M972.12,-729.25C972.12,-729.25 815.88,-729.25 815.88,-729.25 809.88,-729.25 803.88,-723.25 803.88,-717.25 803.88,-717.25 803.88,-618.5 803.88,-618.5 803.88,-612.5 809.88,-606.5 815.88,-606.5 815.88,-606.5 972.12,-606.5 972.12,-606.5 978.12,-606.5 984.12,-612.5 984.12,-618.5 984.12,-618.5 984.12,-717.25 984.12,-717.25 984.12,-723.25 978.12,-729.25 972.12,-729.25"/>
<text xml:space="preserve" text-anchor="middle" x="894" y="-715.75" font-family="Helvetica,sans-Serif" font-size="10.00" fill="#ece1d7">walshadow extension</text>
<text xml:space="preserve" text-anchor="middle" x="894" y="-703" font-family="Helvetica,sans-Serif" font-size="10.00" fill="#ece1d7">(pgext/walshadow.c)</text>
<text xml:space="preserve" text-anchor="middle" x="894" y="-690.25" font-family="Helvetica,sans-Serif" font-size="10.00" fill="#ece1d7">SearchSysCache1(TYPEOID)</text>
<text xml:space="preserve" text-anchor="middle" x="894" y="-677.5" font-family="Helvetica,sans-Serif" font-size="10.00" fill="#ece1d7">Datum reconstruct ×4 branches:</text>
<text xml:space="preserve" text-anchor="middle" x="894" y="-664.75" font-family="Helvetica,sans-Serif" font-size="10.00" fill="#ece1d7"> &#160;typlen=−1 varlena</text>
<text xml:space="preserve" text-anchor="middle" x="894" y="-652" font-family="Helvetica,sans-Serif" font-size="10.00" fill="#ece1d7"> &#160;typlen=−2 cstring</text>
<text xml:space="preserve" text-anchor="middle" x="894" y="-639.25" font-family="Helvetica,sans-Serif" font-size="10.00" fill="#ece1d7"> &#160;typbyval fixed (memcpy)</text>
<text xml:space="preserve" text-anchor="middle" x="894" y="-626.5" font-family="Helvetica,sans-Serif" font-size="10.00" fill="#ece1d7"> &#160;fixed by&#45;ref (palloc)</text>
<text xml:space="preserve" text-anchor="middle" x="894" y="-613.75" font-family="Helvetica,sans-Serif" font-size="10.00" fill="#ece1d7">OidOutputFunctionCall(typoutput)</text>
</g>
<!-- client&#45;&gt;ext -->
<g id="edge3" class="edge">
<title>client&#45;&gt;ext</title>
<path fill="none" stroke="#cba85e" stroke-width="2" d="M893.21,-846.99C893.12,-840.2 893.05,-833.3 893,-826.75 892.88,-810.18 892.87,-792.64 892.93,-775.5"/>
<polygon fill="#cba85e" stroke="#cba85e" stroke-width="2" points="893.35,-856.96 888.71,-847.02 892.81,-854.41 892.71,-846.97 893.21,-846.96 893.71,-846.96 893.81,-854.39 897.71,-846.9 893.35,-856.96"/>
<polygon fill="#cba85e" stroke="#cba85e" stroke-width="2" points="896.43,-775.54 892.97,-765.52 889.43,-775.51 896.43,-775.54"/>
<text xml:space="preserve" text-anchor="middle" x="936.5" y="-812.58" font-family="Helvetica,sans-Serif" font-size="9.00" fill="#ece1d7">libpq SELECT</text>
<text xml:space="preserve" text-anchor="middle" x="936.5" y="-801.33" font-family="Helvetica,sans-Serif" font-size="9.00" fill="#ece1d7">tokio_postgres pool</text>
<text xml:space="preserve" text-anchor="middle" x="936.5" y="-790.08" font-family="Helvetica,sans-Serif" font-size="9.00" fill="#ece1d7">(separate from</text>
<text xml:space="preserve" text-anchor="middle" x="936.5" y="-778.83" font-family="Helvetica,sans-Serif" font-size="9.00" fill="#ece1d7"> ShadowCatalog)</text>
</g>
<!-- probe -->
<g id="node10" class="node">
<title>probe</title>
<polygon fill="#3d4128" stroke="#6e6963" points="1152.75,-703.75 1009.25,-703.75 1009.25,-632 1158.75,-632 1158.75,-697.75 1152.75,-703.75"/>
<polyline fill="none" stroke="#6e6963" points="1152.75,-703.75 1152.75,-697.75"/>
<polyline fill="none" stroke="#6e6963" points="1158.75,-697.75 1152.75,-697.75"/>
<text xml:space="preserve" text-anchor="middle" x="1084" y="-690.25" font-family="Helvetica,sans-Serif" font-size="10.00" fill="#ece1d7">probe_extension</text>
<text xml:space="preserve" text-anchor="middle" x="1084" y="-677.5" font-family="Helvetica,sans-Serif" font-size="10.00" fill="#ece1d7">SELECT EXISTS</text>
<text xml:space="preserve" text-anchor="middle" x="1084" y="-664.75" font-family="Helvetica,sans-Serif" font-size="10.00" fill="#ece1d7">(pg_proc.proname =</text>
<text xml:space="preserve" text-anchor="middle" x="1084" y="-652" font-family="Helvetica,sans-Serif" font-size="10.00" fill="#ece1d7"> &#39;walshadow_decode_disk&#39;)</text>
<text xml:space="preserve" text-anchor="middle" x="1084" y="-639.25" font-family="Helvetica,sans-Serif" font-size="10.00" fill="#ece1d7">at connect + reconnect</text>
</g>
<!-- client&#45;&gt;probe -->
<g id="edge10" class="edge">
<title>client&#45;&gt;probe</title>
<path fill="none" stroke="#cba85e" stroke-dasharray="5,2" d="M947.69,-859.4C959.93,-849.78 972.2,-838.68 982,-826.75 999.73,-805.17 995.51,-794.37 1010,-770.5 1021.86,-750.96 1036.41,-730.4 1049.45,-712.92"/>
<polygon fill="#cba85e" stroke="#cba85e" points="1051.98,-715.38 1055.2,-705.29 1046.39,-711.17 1051.98,-715.38"/>
<text xml:space="preserve" text-anchor="middle" x="1043" y="-806.95" font-family="Helvetica,sans-Serif" font-size="9.00" fill="#ece1d7">connect /</text>
<text xml:space="preserve" text-anchor="middle" x="1043" y="-795.7" font-family="Helvetica,sans-Serif" font-size="9.00" fill="#ece1d7">reconnect:</text>
<text xml:space="preserve" text-anchor="middle" x="1043" y="-784.45" font-family="Helvetica,sans-Serif" font-size="9.00" fill="#ece1d7">probe pg_proc</text>
</g>
<!-- lc -->
<g id="node11" class="node">
<title>lc</title>
<polygon fill="#3d4128" stroke="#6e6963" points="1312.62,-691 1183.38,-691 1183.38,-644.75 1318.62,-644.75 1318.62,-685 1312.62,-691"/>
<polyline fill="none" stroke="#6e6963" points="1312.62,-691 1312.62,-685"/>
<polyline fill="none" stroke="#6e6963" points="1318.62,-685 1312.62,-685"/>
<text xml:space="preserve" text-anchor="middle" x="1251" y="-677.5" font-family="Helvetica,sans-Serif" font-size="10.00" fill="#ece1d7">pinned locale</text>
<text xml:space="preserve" text-anchor="middle" x="1251" y="-664.75" font-family="Helvetica,sans-Serif" font-size="10.00" fill="#ece1d7">lc_numeric / lc_time = C</text>
<text xml:space="preserve" text-anchor="middle" x="1251" y="-652" font-family="Helvetica,sans-Serif" font-size="10.00" fill="#ece1d7">(shadow bootstrap)</text>
</g>
<!-- ext&#45;&gt;lc -->
<g id="edge9" class="edge">
<title>ext&#45;&gt;lc</title>
<path fill="none" stroke="#6e6963" stroke-dasharray="5,2" d="M927.78,-729.72C947.42,-758.97 975.1,-790.97 1009.5,-807.12 1069.44,-835.28 1100.14,-838.42 1158.5,-807.12 1199.63,-785.07 1225.59,-735.77 1239.21,-702.16"/>
<polygon fill="#6e6963" stroke="#6e6963" points="1242.47,-703.43 1242.81,-692.84 1235.94,-700.9 1242.47,-703.43"/>
</g>
<!-- legend -->
<g id="node17" class="node">
<title>legend</title>
<path fill="#6e6963" stroke="none" d="M1005.75,-539.5C1005.75,-539.5 782.25,-539.5 782.25,-539.5 776.25,-539.5 770.25,-533.5 770.25,-527.5 770.25,-527.5 770.25,-12 770.25,-12 770.25,-6 776.25,0 782.25,0 782.25,0 1005.75,0 1005.75,0 1011.75,0 1017.75,-6 1017.75,-12 1017.75,-12 1017.75,-527.5 1017.75,-527.5 1017.75,-533.5 1011.75,-539.5 1005.75,-539.5"/>
<polygon fill="#34302c" stroke="none" points="778.25,-512.75 778.25,-535.5 1009.75,-535.5 1009.75,-512.75 778.25,-512.75"/>
<polygon fill="none" stroke="#6e6963" points="778.25,-512.75 778.25,-535.5 1009.75,-535.5 1009.75,-512.75 778.25,-512.75"/>
<text xml:space="preserve" text-anchor="start" x="870.75" y="-522" font-family="Helvetica,sans-Serif" font-weight="bold" font-size="10.00" fill="#ece1d7">node fill</text>
<polygon fill="#3d3d54" stroke="none" points="778.25,-490 778.25,-512.75 849.75,-512.75 849.75,-490 778.25,-490"/>
<polygon fill="none" stroke="#6e6963" points="778.25,-490 778.25,-512.75 849.75,-512.75 849.75,-490 778.25,-490"/>
<polygon fill="none" stroke="#6e6963" points="849.75,-490 849.75,-512.75 1009.75,-512.75 1009.75,-490 849.75,-490"/>
<text xml:space="preserve" text-anchor="start" x="909.88" y="-498" font-family="Helvetica,sans-Serif" font-size="10.00" fill="#ece1d7">CLI gate</text>
<polygon fill="#4d4128" stroke="none" points="778.25,-467.25 778.25,-490 849.75,-490 849.75,-467.25 778.25,-467.25"/>
<polygon fill="none" stroke="#6e6963" points="778.25,-467.25 778.25,-490 849.75,-490 849.75,-467.25 778.25,-467.25"/>
<polygon fill="none" stroke="#6e6963" points="849.75,-467.25 849.75,-490 1009.75,-490 1009.75,-467.25 849.75,-467.25"/>
<text xml:space="preserve" text-anchor="start" x="876.5" y="-475.25" font-family="Helvetica,sans-Serif" font-size="10.00" fill="#ece1d7">decoder ColumnValue</text>
<polygon fill="#5d3f40" stroke="none" points="778.25,-444.5 778.25,-467.25 849.75,-467.25 849.75,-444.5 778.25,-444.5"/>
<polygon fill="none" stroke="#6e6963" points="778.25,-444.5 778.25,-467.25 849.75,-467.25 849.75,-444.5 778.25,-444.5"/>
<polygon fill="none" stroke="#6e6963" points="849.75,-444.5 849.75,-467.25 1009.75,-467.25 1009.75,-444.5 849.75,-444.5"/>
<text xml:space="preserve" text-anchor="start" x="879.88" y="-452.5" font-family="Helvetica,sans-Serif" font-size="10.00" fill="#ece1d7">oracle (src/oracle.rs)</text>
<polygon fill="#4d4d28" stroke="none" points="778.25,-421.75 778.25,-444.5 849.75,-444.5 849.75,-421.75 778.25,-421.75"/>
<polygon fill="none" stroke="#6e6963" points="778.25,-421.75 778.25,-444.5 849.75,-444.5 849.75,-421.75 778.25,-421.75"/>
<polygon fill="none" stroke="#6e6963" points="849.75,-421.75 849.75,-444.5 1009.75,-444.5 1009.75,-421.75 849.75,-421.75"/>
<text xml:space="preserve" text-anchor="start" x="875.38" y="-429.75" font-family="Helvetica,sans-Serif" font-size="10.00" fill="#ece1d7">libpq client (own pool)</text>
<polygon fill="#3d4128" stroke="none" points="778.25,-399 778.25,-421.75 849.75,-421.75 849.75,-399 778.25,-399"/>
<polygon fill="none" stroke="#6e6963" points="778.25,-399 778.25,-421.75 849.75,-421.75 849.75,-399 778.25,-399"/>
<polygon fill="none" stroke="#6e6963" points="849.75,-399 849.75,-421.75 1009.75,-421.75 1009.75,-399 849.75,-399"/>
<text xml:space="preserve" text-anchor="start" x="874.25" y="-407" font-family="Helvetica,sans-Serif" font-size="10.00" fill="#ece1d7">shadow PG / extension</text>
<polygon fill="#4d3850" stroke="none" points="778.25,-376.25 778.25,-399 849.75,-399 849.75,-376.25 778.25,-376.25"/>
<polygon fill="none" stroke="#6e6963" points="778.25,-376.25 778.25,-399 849.75,-399 849.75,-376.25 778.25,-376.25"/>
<polygon fill="none" stroke="#6e6963" points="849.75,-376.25 849.75,-399 1009.75,-399 1009.75,-376.25 849.75,-376.25"/>
<text xml:space="preserve" text-anchor="start" x="881.75" y="-384.25" font-family="Helvetica,sans-Serif" font-size="10.00" fill="#ece1d7">pgext/ build artifact</text>
<polygon fill="#5d4628" stroke="none" points="778.25,-353.5 778.25,-376.25 849.75,-376.25 849.75,-353.5 778.25,-353.5"/>
<polygon fill="none" stroke="#6e6963" points="778.25,-353.5 778.25,-376.25 849.75,-376.25 849.75,-353.5 778.25,-353.5"/>
<polygon fill="none" stroke="#6e6963" points="849.75,-353.5 849.75,-376.25 1009.75,-376.25 1009.75,-353.5 849.75,-353.5"/>
<text xml:space="preserve" text-anchor="start" x="888.12" y="-361.5" font-family="Helvetica,sans-Serif" font-size="10.00" fill="#ece1d7">emit sink / alarm</text>
<polygon fill="#34302c" stroke="none" points="778.25,-330.75 778.25,-353.5 1009.75,-353.5 1009.75,-330.75 778.25,-330.75"/>
<polygon fill="none" stroke="#6e6963" points="778.25,-330.75 778.25,-353.5 1009.75,-353.5 1009.75,-330.75 778.25,-330.75"/>
<text xml:space="preserve" text-anchor="start" x="860.25" y="-340" font-family="Helvetica,sans-Serif" font-weight="bold" font-size="10.00" fill="#ece1d7">edge colour</text>
<polygon fill="none" stroke="#6e6963" points="778.25,-308 778.25,-330.75 849.75,-330.75 849.75,-308 778.25,-308"/>
<text xml:space="preserve" text-anchor="start" x="808" y="-317.25" font-family="Helvetica,sans-Serif" font-weight="bold" font-size="10.00" fill="#a1a9cc">━━</text>
<polygon fill="none" stroke="#6e6963" points="849.75,-308 849.75,-330.75 1009.75,-330.75 1009.75,-308 849.75,-308"/>
<text xml:space="preserve" text-anchor="start" x="854.75" y="-316" font-family="Helvetica,sans-Serif" font-size="10.00" fill="#ece1d7">PgPending → resolver (always)</text>
<polygon fill="none" stroke="#6e6963" points="778.25,-285.25 778.25,-308 849.75,-308 849.75,-285.25 778.25,-285.25"/>
<text xml:space="preserve" text-anchor="start" x="808" y="-294.5" font-family="Helvetica,sans-Serif" font-weight="bold" font-size="10.00" fill="#b380b0">┄┄</text>
<polygon fill="none" stroke="#6e6963" points="849.75,-285.25 849.75,-308 1009.75,-308 1009.75,-285.25 849.75,-285.25"/>
<text xml:space="preserve" text-anchor="start" x="863.75" y="-293.25" font-family="Helvetica,sans-Serif" font-size="10.00" fill="#ece1d7">sampler gate (&#45;&#45;validate N)</text>
<polygon fill="none" stroke="#6e6963" points="778.25,-262.5 778.25,-285.25 849.75,-285.25 849.75,-262.5 778.25,-262.5"/>
<text xml:space="preserve" text-anchor="start" x="808" y="-271.75" font-family="Helvetica,sans-Serif" font-weight="bold" font-size="10.00" fill="#cba85e">━━</text>
<polygon fill="none" stroke="#6e6963" points="849.75,-262.5 849.75,-285.25 1009.75,-285.25 1009.75,-262.5 849.75,-262.5"/>
<text xml:space="preserve" text-anchor="start" x="867.88" y="-270.5" font-family="Helvetica,sans-Serif" font-size="10.00" fill="#ece1d7">libpq SELECT (MAIN wire)</text>
<polygon fill="none" stroke="#6e6963" points="778.25,-239.75 778.25,-262.5 849.75,-262.5 849.75,-239.75 778.25,-239.75"/>
<text xml:space="preserve" text-anchor="start" x="808" y="-249" font-family="Helvetica,sans-Serif" font-weight="bold" font-size="10.00" fill="#bf8c5f">━━</text>
<polygon fill="none" stroke="#6e6963" points="849.75,-239.75 849.75,-262.5 1009.75,-262.5 1009.75,-239.75 849.75,-239.75"/>
<text xml:space="preserve" text-anchor="start" x="877.25" y="-247.75" font-family="Helvetica,sans-Serif" font-size="10.00" fill="#ece1d7">emit&#45;time disposition</text>
<polygon fill="none" stroke="#6e6963" points="778.25,-217 778.25,-239.75 849.75,-239.75 849.75,-217 778.25,-217"/>
<text xml:space="preserve" text-anchor="start" x="808" y="-226.25" font-family="Helvetica,sans-Serif" font-weight="bold" font-size="10.00" fill="#6e6963">┄┄</text>
<polygon fill="none" stroke="#6e6963" points="849.75,-217 849.75,-239.75 1009.75,-239.75 1009.75,-217 849.75,-217"/>
<text xml:space="preserve" text-anchor="start" x="868.62" y="-225" font-family="Helvetica,sans-Serif" font-size="10.00" fill="#ece1d7">pgext install (filesystem)</text>
<polygon fill="#34302c" stroke="none" points="778.25,-194.25 778.25,-217 1009.75,-217 1009.75,-194.25 778.25,-194.25"/>
<polygon fill="none" stroke="#6e6963" points="778.25,-194.25 778.25,-217 1009.75,-217 1009.75,-194.25 778.25,-194.25"/>
<text xml:space="preserve" text-anchor="start" x="850.12" y="-203.5" font-family="Helvetica,sans-Serif" font-weight="bold" font-size="10.00" fill="#ece1d7">trigger sources</text>
<polygon fill="none" stroke="#6e6963" points="778.25,-171.5 778.25,-194.25 849.75,-194.25 849.75,-171.5 778.25,-171.5"/>
<text xml:space="preserve" text-anchor="start" x="783.25" y="-180.75" font-family="Helvetica,sans-Serif" font-weight="bold" font-size="10.00" fill="#ece1d7">PgPending</text>
<polygon fill="none" stroke="#6e6963" points="849.75,-171.5 849.75,-194.25 1009.75,-194.25 1009.75,-171.5 849.75,-171.5"/>
<text xml:space="preserve" text-anchor="start" x="875" y="-179.5" font-family="Helvetica,sans-Serif" font-size="10.00" fill="#ece1d7">always — once per col</text>
<polygon fill="none" stroke="#6e6963" points="778.25,-148.75 778.25,-171.5 849.75,-171.5 849.75,-148.75 778.25,-148.75"/>
<text xml:space="preserve" text-anchor="start" x="797.5" y="-158" font-family="Helvetica,sans-Serif" font-weight="bold" font-size="10.00" fill="#ece1d7">Tier 3</text>
<polygon fill="none" stroke="#6e6963" points="849.75,-148.75 849.75,-171.5 1009.75,-171.5 1009.75,-148.75 849.75,-148.75"/>
<text xml:space="preserve" text-anchor="start" x="862.62" y="-156.75" font-family="Helvetica,sans-Serif" font-size="10.00" fill="#ece1d7">&#45;&#45;validate N, sampler&#45;gated</text>
<polygon fill="none" stroke="#6e6963" points="778.25,-126 778.25,-148.75 849.75,-148.75 849.75,-126 778.25,-126"/>
<text xml:space="preserve" text-anchor="start" x="792.25" y="-135.25" font-family="Helvetica,sans-Serif" font-weight="bold" font-size="10.00" fill="#ece1d7">Tier 1/2</text>
<polygon fill="none" stroke="#6e6963" points="849.75,-126 849.75,-148.75 1009.75,-148.75 1009.75,-126 849.75,-126"/>
<text xml:space="preserve" text-anchor="start" x="860.75" y="-134" font-family="Helvetica,sans-Serif" font-size="10.00" fill="#ece1d7">not validated (no raw bytes)</text>
<polygon fill="#34302c" stroke="none" points="778.25,-103.25 778.25,-126 1009.75,-126 1009.75,-103.25 778.25,-103.25"/>
<polygon fill="none" stroke="#6e6963" points="778.25,-103.25 778.25,-126 1009.75,-126 1009.75,-103.25 778.25,-103.25"/>
<text xml:space="preserve" text-anchor="start" x="841.12" y="-112.5" font-family="Helvetica,sans-Serif" font-weight="bold" font-size="10.00" fill="#ece1d7">extension&#45;absence</text>
<polygon fill="none" stroke="#6e6963" points="778.25,-4 778.25,-103.25 1009.75,-103.25 1009.75,-4 778.25,-4"/>
<text xml:space="preserve" text-anchor="start" x="783.25" y="-88.5" font-family="Helvetica,sans-Serif" font-size="10.00" fill="#ece1d7">probe_extension at connect →</text>
<text xml:space="preserve" text-anchor="start" x="783.25" y="-75.75" font-family="Helvetica,sans-Serif" font-size="10.00" fill="#ece1d7">has_extension=false →</text>
<text xml:space="preserve" text-anchor="start" x="783.25" y="-63" font-family="Helvetica,sans-Serif" font-size="10.00" fill="#ece1d7">resolve_pending Ok(None) →</text>
<text xml:space="preserve" text-anchor="start" x="783.25" y="-50.25" font-family="Helvetica,sans-Serif" font-size="10.00" fill="#ece1d7">stats.fallback_raw++ →</text>
<text xml:space="preserve" text-anchor="start" x="783.25" y="-37.5" font-family="Helvetica,sans-Serif" font-size="10.00" fill="#ece1d7">emitter writes raw bytes.</text>
<text xml:space="preserve" text-anchor="start" x="783.25" y="-24.75" font-family="Helvetica,sans-Serif" font-size="10.00" fill="#ece1d7">No failure. CREATE EXTENSION</text>
<text xml:space="preserve" text-anchor="start" x="800.12" y="-12" font-family="Helvetica,sans-Serif" font-size="10.00" fill="#ece1d7">+ reconnect re&#45;enables.</text>
</g>
<!-- ext&#45;&gt;legend -->
<!-- artifact -->
<g id="node12" class="node">
<title>artifact</title>
<polygon fill="#4d3850" stroke="#6e6963" points="1160,-931.5 1048,-931.5 1048,-859.75 1166,-859.75 1166,-925.5 1160,-931.5"/>
<polyline fill="none" stroke="#6e6963" points="1160,-931.5 1160,-925.5"/>
<polyline fill="none" stroke="#6e6963" points="1166,-925.5 1160,-925.5"/>
<text xml:space="preserve" text-anchor="middle" x="1107" y="-918" font-family="Helvetica,sans-Serif" font-size="10.00" fill="#ece1d7">walshadow.so</text>
<text xml:space="preserve" text-anchor="middle" x="1107" y="-905.25" font-family="Helvetica,sans-Serif" font-size="10.00" fill="#ece1d7">walshadow.control</text>
<text xml:space="preserve" text-anchor="middle" x="1107" y="-892.5" font-family="Helvetica,sans-Serif" font-size="10.00" fill="#ece1d7">walshadow&#45;&#45;0.1.sql</text>
<text xml:space="preserve" text-anchor="middle" x="1107" y="-879.75" font-family="Helvetica,sans-Serif" font-size="10.00" fill="#ece1d7">CREATE FUNCTION</text>
<text xml:space="preserve" text-anchor="middle" x="1107" y="-867" font-family="Helvetica,sans-Serif" font-size="10.00" fill="#ece1d7"> &#160;STRICT IMMUTABLE</text>
</g>
<!-- artifact&#45;&gt;ext -->
<g id="edge11" class="edge">
<title>artifact&#45;&gt;ext</title>
<path fill="none" stroke="#6e6963" stroke-dasharray="5,2" d="M1108.79,-851.75C1107.45,-824.38 1100.71,-790.41 1078,-770.5 1066.74,-760.62 1029.92,-766.66 1008.2,-764.85"/>
<polygon fill="#6e6963" stroke="#6e6963" points="1008.99,-761.44 998.48,-762.81 1007.55,-768.29 1008.99,-761.44"/>
<text xml:space="preserve" text-anchor="middle" x="1150.41" y="-818.2" font-family="Helvetica,sans-Serif" font-size="9.00" fill="#ece1d7">install:</text>
<text xml:space="preserve" text-anchor="middle" x="1150.41" y="-806.95" font-family="Helvetica,sans-Serif" font-size="9.00" fill="#ece1d7">$libdir +</text>
<text xml:space="preserve" text-anchor="middle" x="1150.41" y="-795.7" font-family="Helvetica,sans-Serif" font-size="9.00" fill="#ece1d7">extension dir;</text>
<text xml:space="preserve" text-anchor="middle" x="1150.41" y="-784.45" font-family="Helvetica,sans-Serif" font-size="9.00" fill="#ece1d7">CREATE EXTENSION</text>
<text xml:space="preserve" text-anchor="middle" x="1150.41" y="-773.2" font-family="Helvetica,sans-Serif" font-size="9.00" fill="#ece1d7">walshadow</text>
</g>
<!-- cli -->
<g id="node16" class="node">
<title>cli</title>
<path fill="#3d3d54" stroke="#6e6963" d="M1271.01,-1383.5C1271.01,-1383.5 1115.24,-1383.5 1115.24,-1383.5 1109.24,-1383.5 1101.05,-1377.91 1098.86,-1372.33 1098.86,-1372.33 1061.37,-1276.67 1061.37,-1276.67 1059.18,-1271.09 1062.99,-1265.5 1068.99,-1265.5 1068.99,-1265.5 1224.76,-1265.5 1224.76,-1265.5 1230.76,-1265.5 1238.95,-1271.09 1241.14,-1276.67 1241.14,-1276.67 1278.63,-1372.33 1278.63,-1372.33 1280.82,-1377.91 1277.01,-1383.5 1271.01,-1383.5"/>
<text xml:space="preserve" text-anchor="middle" x="1170" y="-1340.5" font-family="Helvetica,sans-Serif" font-size="10.00" fill="#ece1d7">walshadow&#45;stream</text>
<text xml:space="preserve" text-anchor="middle" x="1170" y="-1327.75" font-family="Helvetica,sans-Serif" font-size="10.00" fill="#ece1d7">&#45;&#45;validate &lt;N&gt;</text>
<text xml:space="preserve" text-anchor="middle" x="1170" y="-1315" font-family="Helvetica,sans-Serif" font-size="10.00" fill="#ece1d7">(0 = off,</text>
<text xml:space="preserve" text-anchor="middle" x="1170" y="-1302.25" font-family="Helvetica,sans-Serif" font-size="10.00" fill="#ece1d7"> default)</text>
</g>
<!-- cli&#45;&gt;sampler -->
<g id="edge8" class="edge">
<title>cli&#45;&gt;sampler</title>
<path fill="none" stroke="#b380b0" stroke-dasharray="1,5" d="M1058.28,-1269.82C1054.16,-1268.3 1050.06,-1266.85 1046,-1265.5 907.74,-1219.49 869.77,-1215.36 725,-1198.75 687.24,-1194.42 419.96,-1199.62 383,-1190.75 356.57,-1184.41 329.49,-1174.06 304.35,-1162.58"/>
<polygon fill="#b380b0" stroke="#b380b0" points="305.99,-1159.48 295.45,-1158.41 303.03,-1165.82 305.99,-1159.48"/>
<text xml:space="preserve" text-anchor="middle" x="951.17" y="-1212.7" font-family="Helvetica,sans-Serif" font-size="9.00" fill="#ece1d7">rate N</text>
</g>
</g>
</svg>
