<?xml version="1.0" encoding="UTF-8" standalone="no"?>
<!DOCTYPE svg PUBLIC "-//W3C//DTD SVG 1.1//EN"
 "http://www.w3.org/Graphics/SVG/1.1/DTD/svg11.dtd">
<!-- Generated by graphviz version 15.1.0 (20260618.0150)
 -->
<!-- Title: oracle Pages: 1 -->
<svg width="1128pt" height="1522pt"
 viewBox="0.00 0.00 1128.00 1522.00" xmlns="http://www.w3.org/2000/svg" xmlns:xlink="http://www.w3.org/1999/xlink">
<g id="graph0" class="graph" transform="scale(1 1) rotate(0) translate(4 1518)">
<title>oracle</title>
<polygon fill="#272623" stroke="none" points="-4,4 -4,-1518 1124,-1518 1124,4 -4,4"/>
<text xml:space="preserve" text-anchor="middle" x="560" y="-1496.7" font-family="Helvetica,sans-Serif" font-size="14.00" fill="#ece1d7">walshadow oracle — PgPending decode bridge</text>
<g id="clust1" class="cluster">
<title>cluster_decoder</title>
<path fill="#34302c" stroke="#4c4641" d="M20,-1259.75C20,-1259.75 626,-1259.75 626,-1259.75 632,-1259.75 638,-1265.75 638,-1271.75 638,-1271.75 638,-1386 638,-1386 638,-1392 632,-1398 626,-1398 626,-1398 20,-1398 20,-1398 14,-1398 8,-1392 8,-1386 8,-1386 8,-1271.75 8,-1271.75 8,-1265.75 14,-1259.75 20,-1259.75"/>
<text xml:space="preserve" text-anchor="middle" x="323" y="-1380.7" font-family="Helvetica,sans-Serif" font-size="14.00" fill="#ece1d7">① decoder — ColumnValue (heap_decoder.rs)</text>
</g>
<g id="clust2" class="cluster">
<title>cluster_oracle</title>
<path fill="#34302c" stroke="#4c4641" d="M225,-1018C225,-1018 780,-1018 780,-1018 786,-1018 792,-1024 792,-1030 792,-1030 792,-1169.75 792,-1169.75 792,-1175.75 786,-1181.75 780,-1181.75 780,-1181.75 225,-1181.75 225,-1181.75 219,-1181.75 213,-1175.75 213,-1169.75 213,-1169.75 213,-1030 213,-1030 213,-1024 219,-1018 225,-1018"/>
<text xml:space="preserve" text-anchor="middle" x="502.5" y="-1164.45" font-family="Helvetica,sans-Serif" font-size="14.00" fill="#ece1d7">② oracle path — post&#45;plan, decode workers call directly; metrics&#45;only runs skip it</text>
</g>
<g id="clust3" class="cluster">
<title>cluster_shadow</title>
<path fill="#34302c" stroke="#4c4641" d="M298,-545.75C298,-545.75 805,-545.75 805,-545.75 811,-545.75 817,-551.75 817,-557.75 817,-557.75 817,-723 817,-723 817,-729 811,-735 805,-735 805,-735 298,-735 298,-735 292,-735 286,-729 286,-723 286,-723 286,-557.75 286,-557.75 286,-551.75 292,-545.75 298,-545.75"/>
<text xml:space="preserve" text-anchor="middle" x="551.5" y="-717.7" font-family="Helvetica,sans-Serif" font-size="14.00" fill="#ece1d7">④ shadow PG</text>
</g>
<g id="clust4" class="cluster">
<title>cluster_pgext</title>
<path fill="#34302c" stroke="#4c4641" d="M524,-824.25C524,-824.25 669,-824.25 669,-824.25 675,-824.25 681,-830.25 681,-836.25 681,-836.25 681,-950.5 681,-950.5 681,-956.5 675,-962.5 669,-962.5 669,-962.5 524,-962.5 524,-962.5 518,-962.5 512,-956.5 512,-950.5 512,-950.5 512,-836.25 512,-836.25 512,-830.25 518,-824.25 524,-824.25"/>
<text xml:space="preserve" text-anchor="middle" x="596.5" y="-945.2" font-family="Helvetica,sans-Serif" font-size="14.00" fill="#ece1d7">⑤ pgext/ (PGXS build)</text>
</g>
<g id="clust5" class="cluster">
<title>cluster_emit</title>
<path fill="#34302c" stroke="#4c4641" d="M660,-1272.5C660,-1272.5 1100,-1272.5 1100,-1272.5 1106,-1272.5 1112,-1278.5 1112,-1284.5 1112,-1284.5 1112,-1373.25 1112,-1373.25 1112,-1379.25 1106,-1385.25 1100,-1385.25 1100,-1385.25 660,-1385.25 660,-1385.25 654,-1385.25 648,-1379.25 648,-1373.25 648,-1373.25 648,-1284.5 648,-1284.5 648,-1278.5 654,-1272.5 660,-1272.5"/>
<text xml:space="preserve" text-anchor="middle" x="880" y="-1367.95" font-family="Helvetica,sans-Serif" font-size="14.00" fill="#ece1d7">⑥ downstream — emit&#45;time disposition</text>
</g>
<!-- tier12 -->
<g id="node1" class="node">
<title>tier12</title>
<path fill="#4d4128" stroke="#6e6963" d="M127.62,-1333.12C127.62,-1333.12 28.38,-1333.12 28.38,-1333.12 22.38,-1333.12 16.38,-1327.12 16.38,-1321.12 16.38,-1321.12 16.38,-1286.12 16.38,-1286.12 16.38,-1280.12 22.38,-1274.12 28.38,-1274.12 28.38,-1274.12 127.62,-1274.12 127.62,-1274.12 133.62,-1274.12 139.62,-1280.12 139.62,-1286.12 139.62,-1286.12 139.62,-1321.12 139.62,-1321.12 139.62,-1327.12 133.62,-1333.12 127.62,-1333.12"/>
<text xml:space="preserve" text-anchor="middle" x="78" y="-1319.62" font-family="Helvetica,sans-Serif" font-size="10.00" fill="#ece1d7">ColumnValue::Tier 1/2</text>
<text xml:space="preserve" text-anchor="middle" x="78" y="-1306.88" font-family="Helvetica,sans-Serif" font-size="10.00" fill="#ece1d7">fixed&#45;width / varlena</text>
<text xml:space="preserve" text-anchor="middle" x="78" y="-1294.12" font-family="Helvetica,sans-Serif" font-size="10.00" fill="#ece1d7">locally rendered</text>
<text xml:space="preserve" text-anchor="middle" x="78" y="-1281.38" font-family="Helvetica,sans-Serif" font-size="10.00" fill="#ece1d7">(no raw bytes kept)</text>
</g>
<!-- emit_text -->
<g id="node12" class="node">
<title>emit_text</title>
<path fill="#5d4628" stroke="#6e6963" d="M750.38,-1326.75C750.38,-1326.75 667.62,-1326.75 667.62,-1326.75 661.62,-1326.75 655.62,-1320.75 655.62,-1314.75 655.62,-1314.75 655.62,-1292.5 655.62,-1292.5 655.62,-1286.5 661.62,-1280.5 667.62,-1280.5 667.62,-1280.5 750.38,-1280.5 750.38,-1280.5 756.38,-1280.5 762.38,-1286.5 762.38,-1292.5 762.38,-1292.5 762.38,-1314.75 762.38,-1314.75 762.38,-1320.75 756.38,-1326.75 750.38,-1326.75"/>
<text xml:space="preserve" text-anchor="middle" x="709" y="-1313.25" font-family="Helvetica,sans-Serif" font-size="10.00" fill="#ece1d7">ColumnValue::Text</text>
<text xml:space="preserve" text-anchor="middle" x="709" y="-1300.5" font-family="Helvetica,sans-Serif" font-size="10.00" fill="#ece1d7">→ CH String</text>
<text xml:space="preserve" text-anchor="middle" x="709" y="-1287.75" font-family="Helvetica,sans-Serif" font-size="10.00" fill="#ece1d7">(encode_value)</text>
</g>
<!-- tier12&#45;&gt;emit_text -->
<g id="edge5" class="edge">
<title>tier12&#45;&gt;emit_text</title>
<path fill="none" stroke="#bf8c5f" stroke-dasharray="1,5" d="M94.31,-1333.5C107.26,-1353.83 127.41,-1379.09 153,-1390.83 202.58,-1413.59 595.24,-1415.3 644,-1390.83 666.32,-1379.63 682.92,-1356.74 693.76,-1337.21"/>
<polygon fill="#bf8c5f" stroke="#bf8c5f" points="696.81,-1338.93 698.34,-1328.44 690.61,-1335.68 696.81,-1338.93"/>
<text xml:space="preserve" text-anchor="middle" x="236" y="-1408.7" font-family="Helvetica,sans-Serif" font-size="9.00" fill="#ece1d7">local render</text>
</g>
<!-- tier3 -->
<g id="node2" class="node">
<title>tier3</title>
<path fill="#4d4128" stroke="#6e6963" d="M274.88,-1339.5C274.88,-1339.5 177.12,-1339.5 177.12,-1339.5 171.12,-1339.5 165.12,-1333.5 165.12,-1327.5 165.12,-1327.5 165.12,-1279.75 165.12,-1279.75 165.12,-1273.75 171.12,-1267.75 177.12,-1267.75 177.12,-1267.75 274.88,-1267.75 274.88,-1267.75 280.88,-1267.75 286.88,-1273.75 286.88,-1279.75 286.88,-1279.75 286.88,-1327.5 286.88,-1327.5 286.88,-1333.5 280.88,-1339.5 274.88,-1339.5"/>
<text xml:space="preserve" text-anchor="middle" x="226" y="-1326" font-family="Helvetica,sans-Serif" font-size="10.00" fill="#ece1d7">ColumnValue::Tier 3</text>
<text xml:space="preserve" text-anchor="middle" x="226" y="-1313.25" font-family="Helvetica,sans-Serif" font-size="10.00" fill="#ece1d7">numeric / inet / cidr /</text>
<text xml:space="preserve" text-anchor="middle" x="226" y="-1300.5" font-family="Helvetica,sans-Serif" font-size="10.00" fill="#ece1d7">interval (codecs.rs)</text>
<text xml:space="preserve" text-anchor="middle" x="226" y="-1287.75" font-family="Helvetica,sans-Serif" font-size="10.00" fill="#ece1d7">local decode only</text>
<text xml:space="preserve" text-anchor="middle" x="226" y="-1275" font-family="Helvetica,sans-Serif" font-size="10.00" fill="#ece1d7">(raw bytes discarded)</text>
</g>
<!-- tier3&#45;&gt;emit_text -->
<g id="edge6" class="edge">
<title>tier3&#45;&gt;emit_text</title>
<path fill="none" stroke="#bf8c5f" stroke-dasharray="1,5" d="M245.62,-1339.66C258.14,-1358.68 276.28,-1380.22 299,-1390.83 368.46,-1423.28 575.48,-1425.22 644,-1390.83 666.32,-1379.63 682.92,-1356.74 693.76,-1337.21"/>
<polygon fill="#bf8c5f" stroke="#bf8c5f" points="696.81,-1338.93 698.34,-1328.44 690.61,-1335.68 696.81,-1338.93"/>
<text xml:space="preserve" text-anchor="middle" x="471" y="-1408.7" font-family="Helvetica,sans-Serif" font-size="9.00" fill="#ece1d7">local render</text>
</g>
<!-- pend -->
<g id="node3" class="node">
<title>pend</title>
<path fill="#5d3f40" stroke="#6e6963" d="M444.12,-1333.12C444.12,-1333.12 323.88,-1333.12 323.88,-1333.12 317.88,-1333.12 311.88,-1327.12 311.88,-1321.12 311.88,-1321.12 311.88,-1286.12 311.88,-1286.12 311.88,-1280.12 317.88,-1274.12 323.88,-1274.12 323.88,-1274.12 444.12,-1274.12 444.12,-1274.12 450.12,-1274.12 456.12,-1280.12 456.12,-1286.12 456.12,-1286.12 456.12,-1321.12 456.12,-1321.12 456.12,-1327.12 450.12,-1333.12 444.12,-1333.12"/>
<text xml:space="preserve" text-anchor="middle" x="384" y="-1319.62" font-family="Helvetica,sans-Serif" font-size="10.00" fill="#ece1d7">ColumnValue::PgPending</text>
<text xml:space="preserve" text-anchor="middle" x="384" y="-1306.88" font-family="Helvetica,sans-Serif" font-size="10.00" fill="#ece1d7">{ type_oid, raw }</text>
<text xml:space="preserve" text-anchor="middle" x="384" y="-1294.12" font-family="Helvetica,sans-Serif" font-size="10.00" fill="#ece1d7">jsonb / array / range /</text>
<text xml:space="preserve" text-anchor="middle" x="384" y="-1281.38" font-family="Helvetica,sans-Serif" font-size="10.00" fill="#ece1d7">tsvector / domain / vendor</text>
</g>
<!-- resolve -->
<g id="node5" class="node">
<title>resolve</title>
<path fill="#5d3f40" stroke="#6e6963" d="M448.25,-1123.25C448.25,-1123.25 319.75,-1123.25 319.75,-1123.25 313.75,-1123.25 307.75,-1117.25 307.75,-1111.25 307.75,-1111.25 307.75,-1038 307.75,-1038 307.75,-1032 313.75,-1026 319.75,-1026 319.75,-1026 448.25,-1026 448.25,-1026 454.25,-1026 460.25,-1032 460.25,-1038 460.25,-1038 460.25,-1111.25 460.25,-1111.25 460.25,-1117.25 454.25,-1123.25 448.25,-1123.25"/>
<text xml:space="preserve" text-anchor="middle" x="384" y="-1109.75" font-family="Helvetica,sans-Serif" font-size="10.00" fill="#ece1d7">resolve_pending_tuple</text>
<text xml:space="preserve" text-anchor="middle" x="384" y="-1097" font-family="Helvetica,sans-Serif" font-size="10.00" fill="#ece1d7">walk columns,</text>
<text xml:space="preserve" text-anchor="middle" x="384" y="-1084.25" font-family="Helvetica,sans-Serif" font-size="10.00" fill="#ece1d7">PgPending | Unsupported</text>
<text xml:space="preserve" text-anchor="middle" x="384" y="-1071.5" font-family="Helvetica,sans-Serif" font-size="10.00" fill="#ece1d7">→ resolve_pending</text>
<text xml:space="preserve" text-anchor="middle" x="384" y="-1058.75" font-family="Helvetica,sans-Serif" font-size="10.00" fill="#ece1d7">swap to Text on Ok(Some)</text>
<text xml:space="preserve" text-anchor="middle" x="384" y="-1046" font-family="Helvetica,sans-Serif" font-size="10.00" fill="#ece1d7">best effort: shadow may lag</text>
<text xml:space="preserve" text-anchor="middle" x="384" y="-1033.25" font-family="Helvetica,sans-Serif" font-size="10.00" fill="#ece1d7">row&#39;s catalog interval</text>
</g>
<!-- pend&#45;&gt;resolve -->
<g id="edge1" class="edge">
<title>pend&#45;&gt;resolve</title>
<path fill="none" stroke="#a1a9cc" stroke-width="2" d="M384,-1273.88C384,-1239.45 384,-1180.87 384,-1136.29"/>
<polygon fill="#a1a9cc" stroke="#a1a9cc" stroke-width="2" points="387.5,-1136.56 384,-1126.56 380.5,-1136.56 387.5,-1136.56"/>
<text xml:space="preserve" text-anchor="middle" x="399" y="-1209.33" font-family="Helvetica,sans-Serif" font-size="9.00" fill="#ece1d7">always</text>
</g>
<!-- unsup -->
<g id="node4" class="node">
<title>unsup</title>
<path fill="#5d3f40" stroke="#6e6963" d="M618.38,-1333.12C618.38,-1333.12 493.62,-1333.12 493.62,-1333.12 487.62,-1333.12 481.62,-1327.12 481.62,-1321.12 481.62,-1321.12 481.62,-1286.12 481.62,-1286.12 481.62,-1280.12 487.62,-1274.12 493.62,-1274.12 493.62,-1274.12 618.38,-1274.12 618.38,-1274.12 624.38,-1274.12 630.38,-1280.12 630.38,-1286.12 630.38,-1286.12 630.38,-1321.12 630.38,-1321.12 630.38,-1327.12 624.38,-1333.12 618.38,-1333.12"/>
<text xml:space="preserve" text-anchor="middle" x="556" y="-1319.62" font-family="Helvetica,sans-Serif" font-size="10.00" fill="#ece1d7">ColumnValue::Unsupported</text>
<text xml:space="preserve" text-anchor="middle" x="556" y="-1306.88" font-family="Helvetica,sans-Serif" font-size="10.00" fill="#ece1d7">{ type_oid, raw }</text>
<text xml:space="preserve" text-anchor="middle" x="556" y="-1294.12" font-family="Helvetica,sans-Serif" font-size="10.00" fill="#ece1d7">fail&#45;closed backstop</text>
<text xml:space="preserve" text-anchor="middle" x="556" y="-1281.38" font-family="Helvetica,sans-Serif" font-size="10.00" fill="#ece1d7">unless oracle resolves</text>
</g>
<!-- unsup&#45;&gt;resolve -->
<g id="edge2" class="edge">
<title>unsup&#45;&gt;resolve</title>
<path fill="none" stroke="#a1a9cc" stroke-dasharray="5,2" d="M534.22,-1273.88C507.41,-1238.49 461.26,-1177.59 427.17,-1132.59"/>
<polygon fill="#a1a9cc" stroke="#a1a9cc" points="430.04,-1130.6 421.22,-1124.74 424.46,-1134.82 430.04,-1130.6"/>
<text xml:space="preserve" text-anchor="middle" x="515.37" y="-1209.33" font-family="Helvetica,sans-Serif" font-size="9.00" fill="#ece1d7">always</text>
</g>
<!-- stats -->
<g id="node6" class="node">
<title>stats</title>
<polygon fill="#5d3f40" stroke="#6e6963" points="733.62,-1097.75 604.38,-1097.75 604.38,-1051.5 739.62,-1051.5 739.62,-1091.75 733.62,-1097.75"/>
<polyline fill="none" stroke="#6e6963" points="733.62,-1097.75 733.62,-1091.75"/>
<polyline fill="none" stroke="#6e6963" points="739.62,-1091.75 733.62,-1091.75"/>
<text xml:space="preserve" text-anchor="middle" x="672" y="-1084.25" font-family="Helvetica,sans-Serif" font-size="10.00" fill="#ece1d7">OracleStats</text>
<text xml:space="preserve" text-anchor="middle" x="672" y="-1071.5" font-family="Helvetica,sans-Serif" font-size="10.00" fill="#ece1d7">resolved / fallback_raw /</text>
<text xml:space="preserve" text-anchor="middle" x="672" y="-1058.75" font-family="Helvetica,sans-Serif" font-size="10.00" fill="#ece1d7">errors</text>
</g>
<!-- resolve&#45;&gt;stats -->
<g id="edge10" class="edge">
<title>resolve&#45;&gt;stats</title>
<path fill="none" stroke="#cba85e" stroke-dasharray="5,2" d="M460.42,-1074.62C501.25,-1074.62 551.44,-1074.62 592.69,-1074.62"/>
<polygon fill="#cba85e" stroke="#cba85e" points="592.56,-1078.13 602.56,-1074.63 592.56,-1071.13 592.56,-1078.13"/>
<text xml:space="preserve" text-anchor="middle" x="532.31" y="-1102.83" font-family="Helvetica,sans-Serif" font-size="9.00" fill="#ece1d7">resolved++ /</text>
<text xml:space="preserve" text-anchor="middle" x="532.31" y="-1091.58" font-family="Helvetica,sans-Serif" font-size="9.00" fill="#ece1d7">fallback_raw++ /</text>
<text xml:space="preserve" text-anchor="middle" x="532.31" y="-1080.33" font-family="Helvetica,sans-Serif" font-size="9.00" fill="#ece1d7">errors++</text>
</g>
<!-- client -->
<g id="node7" class="node">
<title>client</title>
<path fill="#4d4d28" stroke="#6e6963" d="M461.75,-904C461.75,-904 306.25,-904 306.25,-904 300.25,-904 294.25,-898 294.25,-892 294.25,-892 294.25,-844.25 294.25,-844.25 294.25,-838.25 300.25,-832.25 306.25,-832.25 306.25,-832.25 461.75,-832.25 461.75,-832.25 467.75,-832.25 473.75,-838.25 473.75,-844.25 473.75,-844.25 473.75,-892 473.75,-892 473.75,-898 467.75,-904 461.75,-904"/>
<text xml:space="preserve" text-anchor="middle" x="384" y="-890.5" font-family="Helvetica,sans-Serif" font-size="10.00" fill="#ece1d7">Oracle::client</text>
<text xml:space="preserve" text-anchor="middle" x="384" y="-877.75" font-family="Helvetica,sans-Serif" font-size="10.00" fill="#ece1d7">tokio_postgres::Client</text>
<text xml:space="preserve" text-anchor="middle" x="384" y="-865" font-family="Helvetica,sans-Serif" font-size="10.00" fill="#ece1d7">SELECT walshadow_decode_disk(</text>
<text xml:space="preserve" text-anchor="middle" x="384" y="-852.25" font-family="Helvetica,sans-Serif" font-size="10.00" fill="#ece1d7"> &#160;$1::oid, $2::bytea)</text>
<text xml:space="preserve" text-anchor="middle" x="384" y="-839.5" font-family="Helvetica,sans-Serif" font-size="10.00" fill="#ece1d7">reconnect&#45;once on is_closed</text>
</g>
<!-- resolve&#45;&gt;client -->
<g id="edge3" class="edge">
<title>resolve&#45;&gt;client</title>
<path fill="none" stroke="#cba85e" stroke-width="2" d="M384,-1025.68C384,-992.99 384,-949.88 384,-917.18"/>
<polygon fill="#cba85e" stroke="#cba85e" stroke-width="2" points="387.5,-917.33 384,-907.33 380.5,-917.33 387.5,-917.33"/>
<text xml:space="preserve" text-anchor="middle" x="420.75" y="-984.45" font-family="Helvetica,sans-Serif" font-size="9.00" fill="#ece1d7">resolve_pending</text>
<text xml:space="preserve" text-anchor="middle" x="420.75" y="-973.2" font-family="Helvetica,sans-Serif" font-size="9.00" fill="#ece1d7">per pending col</text>
</g>
<!-- resolve&#45;&gt;emit_text -->
<g id="edge11" class="edge">
<title>resolve&#45;&gt;emit_text</title>
<path fill="none" stroke="#bf8c5f" stroke-width="2" d="M452.67,-1123.59C517.13,-1168.61 611.56,-1234.56 665.99,-1272.59"/>
<polygon fill="#bf8c5f" stroke="#bf8c5f" stroke-width="2" points="663.97,-1275.44 674.17,-1278.3 667.97,-1269.7 663.97,-1275.44"/>
<text xml:space="preserve" text-anchor="middle" x="626.38" y="-1220.58" font-family="Helvetica,sans-Serif" font-size="9.00" fill="#ece1d7">Ok(Some)</text>
<text xml:space="preserve" text-anchor="middle" x="626.38" y="-1209.33" font-family="Helvetica,sans-Serif" font-size="9.00" fill="#ece1d7">pending</text>
<text xml:space="preserve" text-anchor="middle" x="626.38" y="-1198.08" font-family="Helvetica,sans-Serif" font-size="9.00" fill="#ece1d7">→ Text</text>
</g>
<!-- emit_raw -->
<g id="node13" class="node">
<title>emit_raw</title>
<path fill="#5d4628" stroke="#6e6963" d="M929,-1326.75C929,-1326.75 799,-1326.75 799,-1326.75 793,-1326.75 787,-1320.75 787,-1314.75 787,-1314.75 787,-1292.5 787,-1292.5 787,-1286.5 793,-1280.5 799,-1280.5 799,-1280.5 929,-1280.5 929,-1280.5 935,-1280.5 941,-1286.5 941,-1292.5 941,-1292.5 941,-1314.75 941,-1314.75 941,-1320.75 935,-1326.75 929,-1326.75"/>
<text xml:space="preserve" text-anchor="middle" x="864" y="-1313.25" font-family="Helvetica,sans-Serif" font-size="10.00" fill="#ece1d7">PgPending raw bytes</text>
<text xml:space="preserve" text-anchor="middle" x="864" y="-1300.5" font-family="Helvetica,sans-Serif" font-size="10.00" fill="#ece1d7">→ append_string_bytes(raw)</text>
<text xml:space="preserve" text-anchor="middle" x="864" y="-1287.75" font-family="Helvetica,sans-Serif" font-size="10.00" fill="#ece1d7">best&#45;effort verbatim body</text>
</g>
<!-- resolve&#45;&gt;emit_raw -->
<g id="edge12" class="edge">
<title>resolve&#45;&gt;emit_raw</title>
<path fill="none" stroke="#bf8c5f" stroke-dasharray="5,2" d="M460.31,-1122.61C498.52,-1144.01 546.29,-1167.66 592,-1181.75 618.97,-1190.07 628.13,-1181.12 655,-1189.75 716.66,-1209.55 781.33,-1247.54 822.1,-1273.95"/>
<polygon fill="#bf8c5f" stroke="#bf8c5f" points="820.14,-1276.84 830.42,-1279.4 823.97,-1270.99 820.14,-1276.84"/>
<text xml:space="preserve" text-anchor="middle" x="783.46" y="-1226.2" font-family="Helvetica,sans-Serif" font-size="9.00" fill="#ece1d7">Ok(None)</text>
<text xml:space="preserve" text-anchor="middle" x="783.46" y="-1214.95" font-family="Helvetica,sans-Serif" font-size="9.00" fill="#ece1d7">ext absent /</text>
<text xml:space="preserve" text-anchor="middle" x="783.46" y="-1203.7" font-family="Helvetica,sans-Serif" font-size="9.00" fill="#ece1d7">NULL / error</text>
<text xml:space="preserve" text-anchor="middle" x="783.46" y="-1192.45" font-family="Helvetica,sans-Serif" font-size="9.00" fill="#ece1d7">(PgPending)</text>
</g>
<!-- emit_fail -->
<g id="node14" class="node">
<title>emit_fail</title>
<polygon fill="#5d4628" stroke="#6e6963" points="1098.12,-1326.75 965.88,-1326.75 965.88,-1280.5 1104.12,-1280.5 1104.12,-1320.75 1098.12,-1326.75"/>
<polyline fill="none" stroke="#6e6963" points="1098.12,-1326.75 1098.12,-1320.75"/>
<polyline fill="none" stroke="#6e6963" points="1104.12,-1320.75 1098.12,-1320.75"/>
<text xml:space="preserve" text-anchor="middle" x="1035" y="-1313.25" font-family="Helvetica,sans-Serif" font-size="10.00" fill="#ece1d7">Unsupported unresolved</text>
<text xml:space="preserve" text-anchor="middle" x="1035" y="-1300.5" font-family="Helvetica,sans-Serif" font-size="10.00" fill="#ece1d7">→ EmitterError::</text>
<text xml:space="preserve" text-anchor="middle" x="1035" y="-1287.75" font-family="Helvetica,sans-Serif" font-size="10.00" fill="#ece1d7">UnsupportedValue (fatal)</text>
</g>
<!-- resolve&#45;&gt;emit_fail -->
<g id="edge13" class="edge">
<title>resolve&#45;&gt;emit_fail</title>
<path fill="none" stroke="#bf8c5f" stroke-dasharray="1,5" d="M458.35,-1123.6C496.67,-1145.66 545.11,-1169.59 592,-1181.75 640.43,-1194.31 768.57,-1177.18 817,-1189.75 882.83,-1206.84 951.29,-1246.48 993.53,-1273.92"/>
<polygon fill="#bf8c5f" stroke="#bf8c5f" points="991.37,-1276.68 1001.64,-1279.26 995.21,-1270.84 991.37,-1276.68"/>
<text xml:space="preserve" text-anchor="middle" x="955.76" y="-1214.95" font-family="Helvetica,sans-Serif" font-size="9.00" fill="#ece1d7">Ok(None)</text>
<text xml:space="preserve" text-anchor="middle" x="955.76" y="-1203.7" font-family="Helvetica,sans-Serif" font-size="9.00" fill="#ece1d7">(Unsupported)</text>
</g>
<!-- ext -->
<g id="node8" class="node">
<title>ext</title>
<path fill="#3d4128" stroke="#6e6963" d="M462.12,-676.5C462.12,-676.5 305.88,-676.5 305.88,-676.5 299.88,-676.5 293.88,-670.5 293.88,-664.5 293.88,-664.5 293.88,-565.75 293.88,-565.75 293.88,-559.75 299.88,-553.75 305.88,-553.75 305.88,-553.75 462.12,-553.75 462.12,-553.75 468.12,-553.75 474.12,-559.75 474.12,-565.75 474.12,-565.75 474.12,-664.5 474.12,-664.5 474.12,-670.5 468.12,-676.5 462.12,-676.5"/>
<text xml:space="preserve" text-anchor="middle" x="384" y="-663" font-family="Helvetica,sans-Serif" font-size="10.00" fill="#ece1d7">walshadow extension</text>
<text xml:space="preserve" text-anchor="middle" x="384" y="-650.25" font-family="Helvetica,sans-Serif" font-size="10.00" fill="#ece1d7">(pgext/walshadow.c)</text>
<text xml:space="preserve" text-anchor="middle" x="384" y="-637.5" font-family="Helvetica,sans-Serif" font-size="10.00" fill="#ece1d7">SearchSysCache1(TYPEOID)</text>
<text xml:space="preserve" text-anchor="middle" x="384" y="-624.75" font-family="Helvetica,sans-Serif" font-size="10.00" fill="#ece1d7">Datum reconstruct ×4 branches:</text>
<text xml:space="preserve" text-anchor="middle" x="384" y="-612" font-family="Helvetica,sans-Serif" font-size="10.00" fill="#ece1d7"> &#160;typlen=−1 varlena</text>
<text xml:space="preserve" text-anchor="middle" x="384" y="-599.25" font-family="Helvetica,sans-Serif" font-size="10.00" fill="#ece1d7"> &#160;typlen=−2 cstring</text>
<text xml:space="preserve" text-anchor="middle" x="384" y="-586.5" font-family="Helvetica,sans-Serif" font-size="10.00" fill="#ece1d7"> &#160;typbyval fixed (memcpy)</text>
<text xml:space="preserve" text-anchor="middle" x="384" y="-573.75" font-family="Helvetica,sans-Serif" font-size="10.00" fill="#ece1d7"> &#160;fixed by&#45;ref (palloc)</text>
<text xml:space="preserve" text-anchor="middle" x="384" y="-561" font-family="Helvetica,sans-Serif" font-size="10.00" fill="#ece1d7">OidOutputFunctionCall(typoutput)</text>
</g>
<!-- client&#45;&gt;ext -->
<g id="edge4" class="edge">
<title>client&#45;&gt;ext</title>
<path fill="none" stroke="#cba85e" stroke-width="2" d="M383.21,-819.49C383.12,-812.7 383.05,-805.8 383,-799.25 382.88,-782.62 382.85,-765.14 382.88,-747.85"/>
<polygon fill="#cba85e" stroke="#cba85e" stroke-width="2" points="383.35,-829.46 378.71,-819.52 382.81,-826.91 382.71,-819.47 383.21,-819.46 383.71,-819.46 383.81,-826.89 387.71,-819.4 383.35,-829.46"/>
<polygon fill="#cba85e" stroke="#cba85e" stroke-width="2" points="386.37,-748.03 382.9,-738.02 379.38,-748.02 386.37,-748.03"/>
<text xml:space="preserve" text-anchor="middle" x="426.5" y="-785.08" font-family="Helvetica,sans-Serif" font-size="9.00" fill="#ece1d7">libpq SELECT</text>
<text xml:space="preserve" text-anchor="middle" x="426.5" y="-773.83" font-family="Helvetica,sans-Serif" font-size="9.00" fill="#ece1d7">tokio_postgres pool</text>
<text xml:space="preserve" text-anchor="middle" x="426.5" y="-762.58" font-family="Helvetica,sans-Serif" font-size="9.00" fill="#ece1d7">(separate from</text>
<text xml:space="preserve" text-anchor="middle" x="426.5" y="-751.33" font-family="Helvetica,sans-Serif" font-size="9.00" fill="#ece1d7"> ShadowCatalog)</text>
</g>
<!-- probe -->
<g id="node9" class="node">
<title>probe</title>
<polygon fill="#3d4128" stroke="#6e6963" points="642.75,-651 499.25,-651 499.25,-579.25 648.75,-579.25 648.75,-645 642.75,-651"/>
<polyline fill="none" stroke="#6e6963" points="642.75,-651 642.75,-645"/>
<polyline fill="none" stroke="#6e6963" points="648.75,-645 642.75,-645"/>
<text xml:space="preserve" text-anchor="middle" x="574" y="-637.5" font-family="Helvetica,sans-Serif" font-size="10.00" fill="#ece1d7">probe_extension</text>
<text xml:space="preserve" text-anchor="middle" x="574" y="-624.75" font-family="Helvetica,sans-Serif" font-size="10.00" fill="#ece1d7">SELECT EXISTS</text>
<text xml:space="preserve" text-anchor="middle" x="574" y="-612" font-family="Helvetica,sans-Serif" font-size="10.00" fill="#ece1d7">(pg_proc.proname =</text>
<text xml:space="preserve" text-anchor="middle" x="574" y="-599.25" font-family="Helvetica,sans-Serif" font-size="10.00" fill="#ece1d7"> &#39;walshadow_decode_disk&#39;)</text>
<text xml:space="preserve" text-anchor="middle" x="574" y="-586.5" font-family="Helvetica,sans-Serif" font-size="10.00" fill="#ece1d7">at connect + reconnect</text>
</g>
<!-- client&#45;&gt;probe -->
<g id="edge8" class="edge">
<title>client&#45;&gt;probe</title>
<path fill="none" stroke="#cba85e" stroke-dasharray="5,2" d="M437.69,-831.9C449.93,-822.28 462.2,-811.18 472,-799.25 489.73,-777.67 486.74,-767.57 500,-743 514.9,-715.39 532.58,-685.01 546.91,-660.9"/>
<polygon fill="#cba85e" stroke="#cba85e" points="549.74,-663 551.86,-652.62 543.73,-659.41 549.74,-663"/>
<text xml:space="preserve" text-anchor="middle" x="533" y="-779.45" font-family="Helvetica,sans-Serif" font-size="9.00" fill="#ece1d7">connect /</text>
<text xml:space="preserve" text-anchor="middle" x="533" y="-768.2" font-family="Helvetica,sans-Serif" font-size="9.00" fill="#ece1d7">reconnect:</text>
<text xml:space="preserve" text-anchor="middle" x="533" y="-756.95" font-family="Helvetica,sans-Serif" font-size="9.00" fill="#ece1d7">probe pg_proc</text>
</g>
<!-- lc -->
<g id="node10" class="node">
<title>lc</title>
<polygon fill="#3d4128" stroke="#6e6963" points="802.62,-638.25 673.38,-638.25 673.38,-592 808.62,-592 808.62,-632.25 802.62,-638.25"/>
<polyline fill="none" stroke="#6e6963" points="802.62,-638.25 802.62,-632.25"/>
<polyline fill="none" stroke="#6e6963" points="808.62,-632.25 802.62,-632.25"/>
<text xml:space="preserve" text-anchor="middle" x="741" y="-624.75" font-family="Helvetica,sans-Serif" font-size="10.00" fill="#ece1d7">pinned locale</text>
<text xml:space="preserve" text-anchor="middle" x="741" y="-612" font-family="Helvetica,sans-Serif" font-size="10.00" fill="#ece1d7">lc_numeric / lc_time = C</text>
<text xml:space="preserve" text-anchor="middle" x="741" y="-599.25" font-family="Helvetica,sans-Serif" font-size="10.00" fill="#ece1d7">(shadow bootstrap)</text>
</g>
<!-- ext&#45;&gt;lc -->
<g id="edge7" class="edge">
<title>ext&#45;&gt;lc</title>
<path fill="none" stroke="#6e6963" stroke-dasharray="5,2" d="M409.42,-676.9C428.31,-714 458.01,-758.06 499.5,-779.62 558.26,-810.17 591.34,-813.06 648.5,-779.62 696.25,-751.69 721.25,-689.06 732.74,-649.64"/>
<polygon fill="#6e6963" stroke="#6e6963" points="736.07,-650.73 735.35,-640.16 729.32,-648.87 736.07,-650.73"/>
</g>
<!-- legend -->
<g id="node15" class="node">
<title>legend</title>
<path fill="#6e6963" stroke="none" d="M480.25,-486.75C480.25,-486.75 287.75,-486.75 287.75,-486.75 281.75,-486.75 275.75,-480.75 275.75,-474.75 275.75,-474.75 275.75,-12 275.75,-12 275.75,-6 281.75,0 287.75,0 287.75,0 480.25,0 480.25,0 486.25,0 492.25,-6 492.25,-12 492.25,-12 492.25,-474.75 492.25,-474.75 492.25,-480.75 486.25,-486.75 480.25,-486.75"/>
<polygon fill="#34302c" stroke="none" points="283.75,-460 283.75,-482.75 484.25,-482.75 484.25,-460 283.75,-460"/>
<polygon fill="none" stroke="#6e6963" points="283.75,-460 283.75,-482.75 484.25,-482.75 484.25,-460 283.75,-460"/>
<text xml:space="preserve" text-anchor="start" x="360.75" y="-469.25" font-family="Helvetica,sans-Serif" font-weight="bold" font-size="10.00" fill="#ece1d7">node fill</text>
<polygon fill="#4d4128" stroke="none" points="283.75,-437.25 283.75,-460 321,-460 321,-437.25 283.75,-437.25"/>
<polygon fill="none" stroke="#6e6963" points="283.75,-437.25 283.75,-460 321,-460 321,-437.25 283.75,-437.25"/>
<polygon fill="none" stroke="#6e6963" points="321,-437.25 321,-460 484.25,-460 484.25,-437.25 321,-437.25"/>
<text xml:space="preserve" text-anchor="start" x="349.38" y="-445.25" font-family="Helvetica,sans-Serif" font-size="10.00" fill="#ece1d7">decoder ColumnValue</text>
<polygon fill="#5d3f40" stroke="none" points="283.75,-414.5 283.75,-437.25 321,-437.25 321,-414.5 283.75,-414.5"/>
<polygon fill="none" stroke="#6e6963" points="283.75,-414.5 283.75,-437.25 321,-437.25 321,-414.5 283.75,-414.5"/>
<polygon fill="none" stroke="#6e6963" points="321,-414.5 321,-437.25 484.25,-437.25 484.25,-414.5 321,-414.5"/>
<text xml:space="preserve" text-anchor="start" x="342.62" y="-422.5" font-family="Helvetica,sans-Serif" font-size="10.00" fill="#ece1d7">oracle (src/ops/oracle.rs)</text>
<polygon fill="#4d4d28" stroke="none" points="283.75,-391.75 283.75,-414.5 321,-414.5 321,-391.75 283.75,-391.75"/>
<polygon fill="none" stroke="#6e6963" points="283.75,-391.75 283.75,-414.5 321,-414.5 321,-391.75 283.75,-391.75"/>
<polygon fill="none" stroke="#6e6963" points="321,-391.75 321,-414.5 484.25,-414.5 484.25,-391.75 321,-391.75"/>
<text xml:space="preserve" text-anchor="start" x="348.25" y="-399.75" font-family="Helvetica,sans-Serif" font-size="10.00" fill="#ece1d7">libpq client (own pool)</text>
<polygon fill="#3d4128" stroke="none" points="283.75,-369 283.75,-391.75 321,-391.75 321,-369 283.75,-369"/>
<polygon fill="none" stroke="#6e6963" points="283.75,-369 283.75,-391.75 321,-391.75 321,-369 283.75,-369"/>
<polygon fill="none" stroke="#6e6963" points="321,-369 321,-391.75 484.25,-391.75 484.25,-369 321,-369"/>
<text xml:space="preserve" text-anchor="start" x="347.12" y="-377" font-family="Helvetica,sans-Serif" font-size="10.00" fill="#ece1d7">shadow PG / extension</text>
<polygon fill="#4d3850" stroke="none" points="283.75,-346.25 283.75,-369 321,-369 321,-346.25 283.75,-346.25"/>
<polygon fill="none" stroke="#6e6963" points="283.75,-346.25 283.75,-369 321,-369 321,-346.25 283.75,-346.25"/>
<polygon fill="none" stroke="#6e6963" points="321,-346.25 321,-369 484.25,-369 484.25,-346.25 321,-346.25"/>
<text xml:space="preserve" text-anchor="start" x="354.62" y="-354.25" font-family="Helvetica,sans-Serif" font-size="10.00" fill="#ece1d7">pgext/ build artifact</text>
<polygon fill="#5d4628" stroke="none" points="283.75,-323.5 283.75,-346.25 321,-346.25 321,-323.5 283.75,-323.5"/>
<polygon fill="none" stroke="#6e6963" points="283.75,-323.5 283.75,-346.25 321,-346.25 321,-323.5 283.75,-323.5"/>
<polygon fill="none" stroke="#6e6963" points="321,-323.5 321,-346.25 484.25,-346.25 484.25,-323.5 321,-323.5"/>
<text xml:space="preserve" text-anchor="start" x="379.75" y="-331.5" font-family="Helvetica,sans-Serif" font-size="10.00" fill="#ece1d7">emit sink</text>
<polygon fill="#34302c" stroke="none" points="283.75,-300.75 283.75,-323.5 484.25,-323.5 484.25,-300.75 283.75,-300.75"/>
<polygon fill="none" stroke="#6e6963" points="283.75,-300.75 283.75,-323.5 484.25,-323.5 484.25,-300.75 283.75,-300.75"/>
<text xml:space="preserve" text-anchor="start" x="350.25" y="-310" font-family="Helvetica,sans-Serif" font-weight="bold" font-size="10.00" fill="#ece1d7">edge colour</text>
<polygon fill="none" stroke="#6e6963" points="283.75,-278 283.75,-300.75 321,-300.75 321,-278 283.75,-278"/>
<text xml:space="preserve" text-anchor="start" x="296.38" y="-287.25" font-family="Helvetica,sans-Serif" font-weight="bold" font-size="10.00" fill="#a1a9cc">━━</text>
<polygon fill="none" stroke="#6e6963" points="321,-278 321,-300.75 484.25,-300.75 484.25,-278 321,-278"/>
<text xml:space="preserve" text-anchor="start" x="333.62" y="-286" font-family="Helvetica,sans-Serif" font-size="10.00" fill="#ece1d7">pending → resolver (always)</text>
<polygon fill="none" stroke="#6e6963" points="283.75,-255.25 283.75,-278 321,-278 321,-255.25 283.75,-255.25"/>
<text xml:space="preserve" text-anchor="start" x="296.38" y="-264.5" font-family="Helvetica,sans-Serif" font-weight="bold" font-size="10.00" fill="#cba85e">━━</text>
<polygon fill="none" stroke="#6e6963" points="321,-255.25 321,-278 484.25,-278 484.25,-255.25 321,-255.25"/>
<text xml:space="preserve" text-anchor="start" x="340.75" y="-263.25" font-family="Helvetica,sans-Serif" font-size="10.00" fill="#ece1d7">libpq SELECT (MAIN wire)</text>
<polygon fill="none" stroke="#6e6963" points="283.75,-232.5 283.75,-255.25 321,-255.25 321,-232.5 283.75,-232.5"/>
<text xml:space="preserve" text-anchor="start" x="296.38" y="-241.75" font-family="Helvetica,sans-Serif" font-weight="bold" font-size="10.00" fill="#bf8c5f">━━</text>
<polygon fill="none" stroke="#6e6963" points="321,-232.5 321,-255.25 484.25,-255.25 484.25,-232.5 321,-232.5"/>
<text xml:space="preserve" text-anchor="start" x="350.12" y="-240.5" font-family="Helvetica,sans-Serif" font-size="10.00" fill="#ece1d7">emit&#45;time disposition</text>
<polygon fill="none" stroke="#6e6963" points="283.75,-209.75 283.75,-232.5 321,-232.5 321,-209.75 283.75,-209.75"/>
<text xml:space="preserve" text-anchor="start" x="296.38" y="-219" font-family="Helvetica,sans-Serif" font-weight="bold" font-size="10.00" fill="#6e6963">┄┄</text>
<polygon fill="none" stroke="#6e6963" points="321,-209.75 321,-232.5 484.25,-232.5 484.25,-209.75 321,-209.75"/>
<text xml:space="preserve" text-anchor="start" x="341.5" y="-217.75" font-family="Helvetica,sans-Serif" font-size="10.00" fill="#ece1d7">pgext install (filesystem)</text>
<polygon fill="#34302c" stroke="none" points="283.75,-187 283.75,-209.75 484.25,-209.75 484.25,-187 283.75,-187"/>
<polygon fill="none" stroke="#6e6963" points="283.75,-187 283.75,-209.75 484.25,-209.75 484.25,-187 283.75,-187"/>
<text xml:space="preserve" text-anchor="start" x="366.75" y="-196.25" font-family="Helvetica,sans-Serif" font-weight="bold" font-size="10.00" fill="#ece1d7">policy</text>
<polygon fill="none" stroke="#6e6963" points="283.75,-126 283.75,-187 484.25,-187 484.25,-126 283.75,-126"/>
<text xml:space="preserve" text-anchor="start" x="288.75" y="-172.25" font-family="Helvetica,sans-Serif" font-size="10.00" fill="#ece1d7">Best effort: resolution runs post&#45;plan;</text>
<text xml:space="preserve" text-anchor="start" x="288.75" y="-159.5" font-family="Helvetica,sans-Serif" font-size="10.00" fill="#ece1d7">shadow&#39;s catalog may lag the row&#39;s</text>
<text xml:space="preserve" text-anchor="start" x="288.75" y="-146.75" font-family="Helvetica,sans-Serif" font-size="10.00" fill="#ece1d7">interval in DDL edge cases — accepted</text>
<text xml:space="preserve" text-anchor="start" x="300.75" y="-134" font-family="Helvetica,sans-Serif" font-size="10.00" fill="#ece1d7">to mostly support unknown types.</text>
<polygon fill="#34302c" stroke="none" points="283.75,-103.25 283.75,-126 484.25,-126 484.25,-103.25 283.75,-103.25"/>
<polygon fill="none" stroke="#6e6963" points="283.75,-103.25 283.75,-126 484.25,-126 484.25,-103.25 283.75,-103.25"/>
<text xml:space="preserve" text-anchor="start" x="331.12" y="-112.5" font-family="Helvetica,sans-Serif" font-weight="bold" font-size="10.00" fill="#ece1d7">extension&#45;absence</text>
<polygon fill="none" stroke="#6e6963" points="283.75,-4 283.75,-103.25 484.25,-103.25 484.25,-4 283.75,-4"/>
<text xml:space="preserve" text-anchor="start" x="288.75" y="-88.5" font-family="Helvetica,sans-Serif" font-size="10.00" fill="#ece1d7">probe_extension at connect →</text>
<text xml:space="preserve" text-anchor="start" x="288.75" y="-75.75" font-family="Helvetica,sans-Serif" font-size="10.00" fill="#ece1d7">has_extension=false →</text>
<text xml:space="preserve" text-anchor="start" x="288.75" y="-63" font-family="Helvetica,sans-Serif" font-size="10.00" fill="#ece1d7">resolve_pending Ok(None) →</text>
<text xml:space="preserve" text-anchor="start" x="288.75" y="-50.25" font-family="Helvetica,sans-Serif" font-size="10.00" fill="#ece1d7">stats.fallback_raw++ →</text>
<text xml:space="preserve" text-anchor="start" x="288.75" y="-37.5" font-family="Helvetica,sans-Serif" font-size="10.00" fill="#ece1d7">emitter writes raw bytes.</text>
<text xml:space="preserve" text-anchor="start" x="288.75" y="-24.75" font-family="Helvetica,sans-Serif" font-size="10.00" fill="#ece1d7">No failure. CREATE EXTENSION</text>
<text xml:space="preserve" text-anchor="start" x="305.62" y="-12" font-family="Helvetica,sans-Serif" font-size="10.00" fill="#ece1d7">+ reconnect re&#45;enables.</text>
</g>
<!-- ext&#45;&gt;legend -->
<!-- artifact -->
<g id="node11" class="node">
<title>artifact</title>
<polygon fill="#4d3850" stroke="#6e6963" points="650,-904 538,-904 538,-832.25 656,-832.25 656,-898 650,-904"/>
<polyline fill="none" stroke="#6e6963" points="650,-904 650,-898"/>
<polyline fill="none" stroke="#6e6963" points="656,-898 650,-898"/>
<text xml:space="preserve" text-anchor="middle" x="597" y="-890.5" font-family="Helvetica,sans-Serif" font-size="10.00" fill="#ece1d7">walshadow.so</text>
<text xml:space="preserve" text-anchor="middle" x="597" y="-877.75" font-family="Helvetica,sans-Serif" font-size="10.00" fill="#ece1d7">walshadow.control</text>
<text xml:space="preserve" text-anchor="middle" x="597" y="-865" font-family="Helvetica,sans-Serif" font-size="10.00" fill="#ece1d7">walshadow&#45;&#45;0.1.sql</text>
<text xml:space="preserve" text-anchor="middle" x="597" y="-852.25" font-family="Helvetica,sans-Serif" font-size="10.00" fill="#ece1d7">CREATE FUNCTION</text>
<text xml:space="preserve" text-anchor="middle" x="597" y="-839.5" font-family="Helvetica,sans-Serif" font-size="10.00" fill="#ece1d7"> &#160;STRICT IMMUTABLE</text>
</g>
<!-- artifact&#45;&gt;ext -->
<g id="edge9" class="edge">
<title>artifact&#45;&gt;ext</title>
<path fill="none" stroke="#6e6963" stroke-dasharray="5,2" d="M598.79,-824.25C597.45,-796.88 590.71,-762.91 568,-743 556.74,-733.12 519.6,-739.82 498.04,-737.69"/>
<polygon fill="#6e6963" stroke="#6e6963" points="499.02,-734.33 488.47,-735.36 497.36,-741.13 499.02,-734.33"/>
<text xml:space="preserve" text-anchor="middle" x="640.41" y="-790.7" font-family="Helvetica,sans-Serif" font-size="9.00" fill="#ece1d7">install:</text>
<text xml:space="preserve" text-anchor="middle" x="640.41" y="-779.45" font-family="Helvetica,sans-Serif" font-size="9.00" fill="#ece1d7">$libdir +</text>
<text xml:space="preserve" text-anchor="middle" x="640.41" y="-768.2" font-family="Helvetica,sans-Serif" font-size="9.00" fill="#ece1d7">extension dir;</text>
<text xml:space="preserve" text-anchor="middle" x="640.41" y="-756.95" font-family="Helvetica,sans-Serif" font-size="9.00" fill="#ece1d7">CREATE EXTENSION</text>
<text xml:space="preserve" text-anchor="middle" x="640.41" y="-745.7" font-family="Helvetica,sans-Serif" font-size="9.00" fill="#ece1d7">walshadow</text>
</g>
</g>
</svg>
