<?xml version="1.0" encoding="UTF-8" standalone="no"?>
<!DOCTYPE svg PUBLIC "-//W3C//DTD SVG 1.1//EN"
 "http://www.w3.org/Graphics/SVG/1.1/DTD/svg11.dtd">
<!-- Generated by graphviz version 15.1.0 (20260618.0150)
 -->
<!-- Title: oracle Pages: 1 -->
<svg width="1353pt" height="1435pt"
 viewBox="0.00 0.00 1353.00 1435.00" xmlns="http://www.w3.org/2000/svg" xmlns:xlink="http://www.w3.org/1999/xlink">
<g id="graph0" class="graph" transform="scale(1 1) rotate(0) translate(4 1430.88)">
<title>oracle</title>
<polygon fill="#272623" stroke="none" points="-4,4 -4,-1430.88 1349,-1430.88 1349,4 -4,4"/>
<text xml:space="preserve" text-anchor="middle" x="672.5" y="-1409.58" font-family="Helvetica,sans-Serif" font-size="14.00" fill="#ece1d7">walshadow oracle — differential decode bridge + 1&#45;in&#45;N validator</text>
<g id="clust1" class="cluster">
<title>cluster_decoder</title>
<path fill="#34302c" stroke="#4c4641" d="M122,-1280.62C122,-1280.62 554,-1280.62 554,-1280.62 560,-1280.62 566,-1286.62 566,-1292.62 566,-1292.62 566,-1381.62 566,-1381.62 566,-1387.62 560,-1393.62 554,-1393.62 554,-1393.62 122,-1393.62 122,-1393.62 116,-1393.62 110,-1387.62 110,-1381.62 110,-1381.62 110,-1292.62 110,-1292.62 110,-1286.62 116,-1280.62 122,-1280.62"/>
<text xml:space="preserve" text-anchor="middle" x="338" y="-1376.33" font-family="Helvetica,sans-Serif" font-size="14.00" fill="#ece1d7">① decoder — ColumnValue (heap_decoder.rs)</text>
</g>
<g id="clust2" class="cluster">
<title>cluster_oracle</title>
<path fill="#34302c" stroke="#4c4641" d="M20,-851.75C20,-851.75 794,-851.75 794,-851.75 800,-851.75 806,-857.75 806,-863.75 806,-863.75 806,-1178.75 806,-1178.75 806,-1184.75 800,-1190.75 794,-1190.75 794,-1190.75 20,-1190.75 20,-1190.75 14,-1190.75 8,-1184.75 8,-1178.75 8,-1178.75 8,-863.75 8,-863.75 8,-857.75 14,-851.75 20,-851.75"/>
<text xml:space="preserve" text-anchor="middle" x="407" y="-1173.45" font-family="Helvetica,sans-Serif" font-size="14.00" fill="#ece1d7">② oracle path (src/oracle.rs) — decode pool ×M calls directly; OracleObserver wraps the serial metrics&#45;only path</text>
</g>
<g id="clust3" class="cluster">
<title>cluster_shadow</title>
<path fill="#34302c" stroke="#4c4641" d="M818,-598.5C818,-598.5 1325,-598.5 1325,-598.5 1331,-598.5 1337,-604.5 1337,-610.5 1337,-610.5 1337,-750.5 1337,-750.5 1337,-756.5 1331,-762.5 1325,-762.5 1325,-762.5 818,-762.5 818,-762.5 812,-762.5 806,-756.5 806,-750.5 806,-750.5 806,-610.5 806,-610.5 806,-604.5 812,-598.5 818,-598.5"/>
<text xml:space="preserve" text-anchor="middle" x="1071.5" y="-745.2" font-family="Helvetica,sans-Serif" font-size="14.00" fill="#ece1d7">④ shadow PG</text>
</g>
<g id="clust4" class="cluster">
<title>cluster_pgext</title>
<path fill="#34302c" stroke="#4c4641" d="M1044,-851.75C1044,-851.75 1189,-851.75 1189,-851.75 1195,-851.75 1201,-857.75 1201,-863.75 1201,-863.75 1201,-952.75 1201,-952.75 1201,-958.75 1195,-964.75 1189,-964.75 1189,-964.75 1044,-964.75 1044,-964.75 1038,-964.75 1032,-958.75 1032,-952.75 1032,-952.75 1032,-863.75 1032,-863.75 1032,-857.75 1038,-851.75 1044,-851.75"/>
<text xml:space="preserve" text-anchor="middle" x="1116.5" y="-947.45" font-family="Helvetica,sans-Serif" font-size="14.00" fill="#ece1d7">⑤ pgext/ (PGXS build)</text>
</g>
<g id="clust5" class="cluster">
<title>cluster_emit</title>
<path fill="#34302c" stroke="#4c4641" d="M588,-1287C588,-1287 1038,-1287 1038,-1287 1044,-1287 1050,-1293 1050,-1299 1050,-1299 1050,-1375.25 1050,-1375.25 1050,-1381.25 1044,-1387.25 1038,-1387.25 1038,-1387.25 588,-1387.25 588,-1387.25 582,-1387.25 576,-1381.25 576,-1375.25 576,-1375.25 576,-1299 576,-1299 576,-1293 582,-1287 588,-1287"/>
<text xml:space="preserve" text-anchor="middle" x="813" y="-1369.95" font-family="Helvetica,sans-Serif" font-size="14.00" fill="#ece1d7">⑥ downstream — emit&#45;time disposition</text>
</g>
<!-- tier12 -->
<g id="node1" class="node">
<title>tier12</title>
<path fill="#4d4128" stroke="#6e6963" d="M229.62,-1354C229.62,-1354 130.38,-1354 130.38,-1354 124.38,-1354 118.38,-1348 118.38,-1342 118.38,-1342 118.38,-1307 118.38,-1307 118.38,-1301 124.38,-1295 130.38,-1295 130.38,-1295 229.62,-1295 229.62,-1295 235.62,-1295 241.62,-1301 241.62,-1307 241.62,-1307 241.62,-1342 241.62,-1342 241.62,-1348 235.62,-1354 229.62,-1354"/>
<text xml:space="preserve" text-anchor="middle" x="180" y="-1340.5" font-family="Helvetica,sans-Serif" font-size="10.00" fill="#ece1d7">ColumnValue::Tier 1/2</text>
<text xml:space="preserve" text-anchor="middle" x="180" y="-1327.75" font-family="Helvetica,sans-Serif" font-size="10.00" fill="#ece1d7">fixed&#45;width / varlena</text>
<text xml:space="preserve" text-anchor="middle" x="180" y="-1315" font-family="Helvetica,sans-Serif" font-size="10.00" fill="#ece1d7">locally rendered</text>
<text xml:space="preserve" text-anchor="middle" x="180" y="-1302.25" font-family="Helvetica,sans-Serif" font-size="10.00" fill="#ece1d7">(no raw bytes kept)</text>
</g>
<!-- sampler -->
<g id="node5" class="node">
<title>sampler</title>
<path fill="#5d3f40" stroke="#6e6963" d="M367.77,-1157.5C367.77,-1157.5 110.57,-1157.5 110.57,-1157.5 104.57,-1157.5 95.43,-1152.38 92.3,-1147.27 92.3,-1147.27 32.51,-1049.73 32.51,-1049.73 29.37,-1044.62 32.23,-1039.5 38.23,-1039.5 38.23,-1039.5 295.43,-1039.5 295.43,-1039.5 301.43,-1039.5 310.57,-1044.62 313.7,-1049.73 313.7,-1049.73 373.49,-1147.27 373.49,-1147.27 376.63,-1152.38 373.77,-1157.5 367.77,-1157.5"/>
<text xml:space="preserve" text-anchor="middle" x="203" y="-1114.5" font-family="Helvetica,sans-Serif" font-size="10.00" fill="#ece1d7">Sampler::pick</text>
<text xml:space="preserve" text-anchor="middle" x="203" y="-1101.75" font-family="Helvetica,sans-Serif" font-size="10.00" fill="#ece1d7">AtomicU64::fetch_add(Relaxed)</text>
<text xml:space="preserve" text-anchor="middle" x="203" y="-1089" font-family="Helvetica,sans-Serif" font-size="10.00" fill="#ece1d7">rate == 0 short&#45;circuits</text>
<text xml:space="preserve" text-anchor="middle" x="203" y="-1076.25" font-family="Helvetica,sans-Serif" font-size="10.00" fill="#ece1d7">else 1&#45;in&#45;N hit</text>
</g>
<!-- tier12&#45;&gt;sampler -->
<g id="edge6" class="edge">
<title>tier12&#45;&gt;sampler</title>
<path fill="none" stroke="#b380b0" stroke-dasharray="1,5" d="M182.96,-1294.67C186.19,-1263.18 191.49,-1211.57 195.83,-1169.34"/>
<polygon fill="#b380b0" stroke="#b380b0" points="199.3,-1169.79 196.84,-1159.49 192.34,-1169.08 199.3,-1169.79"/>
<text xml:space="preserve" text-anchor="middle" x="209.81" y="-1223.95" font-family="Helvetica,sans-Serif" font-size="9.00" fill="#ece1d7">skipped</text>
<text xml:space="preserve" text-anchor="middle" x="209.81" y="-1212.7" font-family="Helvetica,sans-Serif" font-size="9.00" fill="#ece1d7">(no raw</text>
<text xml:space="preserve" text-anchor="middle" x="209.81" y="-1201.45" font-family="Helvetica,sans-Serif" font-size="9.00" fill="#ece1d7"> bytes)</text>
</g>
<!-- tier3 -->
<g id="node2" class="node">
<title>tier3</title>
<path fill="#4d4128" stroke="#6e6963" d="M376.88,-1360.38C376.88,-1360.38 279.12,-1360.38 279.12,-1360.38 273.12,-1360.38 267.12,-1354.38 267.12,-1348.38 267.12,-1348.38 267.12,-1300.62 267.12,-1300.62 267.12,-1294.62 273.12,-1288.62 279.12,-1288.62 279.12,-1288.62 376.88,-1288.62 376.88,-1288.62 382.88,-1288.62 388.88,-1294.62 388.88,-1300.62 388.88,-1300.62 388.88,-1348.38 388.88,-1348.38 388.88,-1354.38 382.88,-1360.38 376.88,-1360.38"/>
<text xml:space="preserve" text-anchor="middle" x="328" y="-1346.88" font-family="Helvetica,sans-Serif" font-size="10.00" fill="#ece1d7">ColumnValue::Tier 3</text>
<text xml:space="preserve" text-anchor="middle" x="328" y="-1334.12" font-family="Helvetica,sans-Serif" font-size="10.00" fill="#ece1d7">numeric / inet / cidr /</text>
<text xml:space="preserve" text-anchor="middle" x="328" y="-1321.38" font-family="Helvetica,sans-Serif" font-size="10.00" fill="#ece1d7">interval (codecs.rs)</text>
<text xml:space="preserve" text-anchor="middle" x="328" y="-1308.62" font-family="Helvetica,sans-Serif" font-size="10.00" fill="#ece1d7">local decode only</text>
<text xml:space="preserve" text-anchor="middle" x="328" y="-1295.88" font-family="Helvetica,sans-Serif" font-size="10.00" fill="#ece1d7">(raw bytes discarded)</text>
</g>
<!-- tier3&#45;&gt;sampler -->
<g id="edge5" class="edge">
<title>tier3&#45;&gt;sampler</title>
<path fill="none" stroke="#b380b0" stroke-dasharray="1,5" d="M308.47,-1288.5C290.49,-1256.28 263.32,-1207.6 241.06,-1167.71"/>
<polygon fill="#b380b0" stroke="#b380b0" points="244.18,-1166.12 236.25,-1159.09 238.07,-1169.53 244.18,-1166.12"/>
<text xml:space="preserve" text-anchor="middle" x="302.2" y="-1223.95" font-family="Helvetica,sans-Serif" font-size="9.00" fill="#ece1d7">skipped</text>
<text xml:space="preserve" text-anchor="middle" x="302.2" y="-1212.7" font-family="Helvetica,sans-Serif" font-size="9.00" fill="#ece1d7">(raw bytes</text>
<text xml:space="preserve" text-anchor="middle" x="302.2" y="-1201.45" font-family="Helvetica,sans-Serif" font-size="9.00" fill="#ece1d7"> discarded)</text>
</g>
<!-- pend -->
<g id="node3" class="node">
<title>pend</title>
<path fill="#5d3f40" stroke="#6e6963" d="M546.12,-1354C546.12,-1354 425.88,-1354 425.88,-1354 419.88,-1354 413.88,-1348 413.88,-1342 413.88,-1342 413.88,-1307 413.88,-1307 413.88,-1301 419.88,-1295 425.88,-1295 425.88,-1295 546.12,-1295 546.12,-1295 552.12,-1295 558.12,-1301 558.12,-1307 558.12,-1307 558.12,-1342 558.12,-1342 558.12,-1348 552.12,-1354 546.12,-1354"/>
<text xml:space="preserve" text-anchor="middle" x="486" y="-1340.5" font-family="Helvetica,sans-Serif" font-size="10.00" fill="#ece1d7">ColumnValue::PgPending</text>
<text xml:space="preserve" text-anchor="middle" x="486" y="-1327.75" font-family="Helvetica,sans-Serif" font-size="10.00" fill="#ece1d7">{ type_oid, raw }</text>
<text xml:space="preserve" text-anchor="middle" x="486" y="-1315" font-family="Helvetica,sans-Serif" font-size="10.00" fill="#ece1d7">jsonb / array / range /</text>
<text xml:space="preserve" text-anchor="middle" x="486" y="-1302.25" font-family="Helvetica,sans-Serif" font-size="10.00" fill="#ece1d7">tsvector / domain / vendor</text>
</g>
<!-- resolve -->
<g id="node4" class="node">
<title>resolve</title>
<path fill="#5d3f40" stroke="#6e6963" d="M554.75,-1128C554.75,-1128 417.25,-1128 417.25,-1128 411.25,-1128 405.25,-1122 405.25,-1116 405.25,-1116 405.25,-1081 405.25,-1081 405.25,-1075 411.25,-1069 417.25,-1069 417.25,-1069 554.75,-1069 554.75,-1069 560.75,-1069 566.75,-1075 566.75,-1081 566.75,-1081 566.75,-1116 566.75,-1116 566.75,-1122 560.75,-1128 554.75,-1128"/>
<text xml:space="preserve" text-anchor="middle" x="486" y="-1114.5" font-family="Helvetica,sans-Serif" font-size="10.00" fill="#ece1d7">resolve_pending_tuple</text>
<text xml:space="preserve" text-anchor="middle" x="486" y="-1101.75" font-family="Helvetica,sans-Serif" font-size="10.00" fill="#ece1d7">walk columns,</text>
<text xml:space="preserve" text-anchor="middle" x="486" y="-1089" font-family="Helvetica,sans-Serif" font-size="10.00" fill="#ece1d7">PgPending → resolve_pending</text>
<text xml:space="preserve" text-anchor="middle" x="486" y="-1076.25" font-family="Helvetica,sans-Serif" font-size="10.00" fill="#ece1d7">swap to Text on Ok(Some)</text>
</g>
<!-- pend&#45;&gt;resolve -->
<g id="edge1" class="edge">
<title>pend&#45;&gt;resolve</title>
<path fill="none" stroke="#a1a9cc" stroke-width="2" d="M486,-1294.67C486,-1255.7 486,-1185.93 486,-1141.22"/>
<polygon fill="#a1a9cc" stroke="#a1a9cc" stroke-width="2" points="489.5,-1141.24 486,-1131.24 482.5,-1141.24 489.5,-1141.24"/>
<text xml:space="preserve" text-anchor="middle" x="501" y="-1212.7" font-family="Helvetica,sans-Serif" font-size="9.00" fill="#ece1d7">always</text>
</g>
<!-- pend&#45;&gt;sampler -->
<g id="edge4" class="edge">
<title>pend&#45;&gt;sampler</title>
<path fill="none" stroke="#b380b0" stroke-dasharray="5,2" d="M451.6,-1294.62C420.99,-1269.09 374.88,-1230.99 334,-1198.75 319.9,-1187.63 304.81,-1175.98 290.08,-1164.73"/>
<polygon fill="#b380b0" stroke="#b380b0" points="292.24,-1161.98 282.17,-1158.7 288,-1167.55 292.24,-1161.98"/>
</g>
<!-- stats -->
<g id="node7" class="node">
<title>stats</title>
<polygon fill="#5d3f40" stroke="#6e6963" points="791.62,-1128 662.38,-1128 662.38,-1069 797.62,-1069 797.62,-1122 791.62,-1128"/>
<polyline fill="none" stroke="#6e6963" points="791.62,-1128 791.62,-1122"/>
<polyline fill="none" stroke="#6e6963" points="797.62,-1122 791.62,-1122"/>
<text xml:space="preserve" text-anchor="middle" x="730" y="-1114.5" font-family="Helvetica,sans-Serif" font-size="10.00" fill="#ece1d7">OracleStats</text>
<text xml:space="preserve" text-anchor="middle" x="730" y="-1101.75" font-family="Helvetica,sans-Serif" font-size="10.00" fill="#ece1d7">resolved / fallback_raw /</text>
<text xml:space="preserve" text-anchor="middle" x="730" y="-1089" font-family="Helvetica,sans-Serif" font-size="10.00" fill="#ece1d7">probes / matches /</text>
<text xml:space="preserve" text-anchor="middle" x="730" y="-1076.25" font-family="Helvetica,sans-Serif" font-size="10.00" fill="#ece1d7">mismatches / errors</text>
</g>
<!-- resolve&#45;&gt;stats -->
<g id="edge13" class="edge">
<title>resolve&#45;&gt;stats</title>
<path fill="none" stroke="#cba85e" stroke-dasharray="5,2" d="M567.25,-1098.5C594.18,-1098.5 624.1,-1098.5 650.87,-1098.5"/>
<polygon fill="#cba85e" stroke="#cba85e" points="650.62,-1102 660.62,-1098.5 650.62,-1095 650.62,-1102"/>
<text xml:space="preserve" text-anchor="middle" x="614.56" y="-1115.45" font-family="Helvetica,sans-Serif" font-size="9.00" fill="#ece1d7">resolved++ /</text>
<text xml:space="preserve" text-anchor="middle" x="614.56" y="-1104.2" font-family="Helvetica,sans-Serif" font-size="9.00" fill="#ece1d7">fallback_raw++</text>
</g>
<!-- client -->
<g id="node8" class="node">
<title>client</title>
<path fill="#4d4d28" stroke="#6e6963" d="M981.75,-931.5C981.75,-931.5 826.25,-931.5 826.25,-931.5 820.25,-931.5 814.25,-925.5 814.25,-919.5 814.25,-919.5 814.25,-871.75 814.25,-871.75 814.25,-865.75 820.25,-859.75 826.25,-859.75 826.25,-859.75 981.75,-859.75 981.75,-859.75 987.75,-859.75 993.75,-865.75 993.75,-871.75 993.75,-871.75 993.75,-919.5 993.75,-919.5 993.75,-925.5 987.75,-931.5 981.75,-931.5"/>
<text xml:space="preserve" text-anchor="middle" x="904" y="-918" font-family="Helvetica,sans-Serif" font-size="10.00" fill="#ece1d7">Oracle::client</text>
<text xml:space="preserve" text-anchor="middle" x="904" y="-905.25" font-family="Helvetica,sans-Serif" font-size="10.00" fill="#ece1d7">tokio_postgres::Client</text>
<text xml:space="preserve" text-anchor="middle" x="904" y="-892.5" font-family="Helvetica,sans-Serif" font-size="10.00" fill="#ece1d7">SELECT walshadow_decode_disk(</text>
<text xml:space="preserve" text-anchor="middle" x="904" y="-879.75" font-family="Helvetica,sans-Serif" font-size="10.00" fill="#ece1d7"> &#160;$1::oid, $2::bytea)</text>
<text xml:space="preserve" text-anchor="middle" x="904" y="-867" font-family="Helvetica,sans-Serif" font-size="10.00" fill="#ece1d7">reconnect&#45;once on is_closed</text>
</g>
<!-- resolve&#45;&gt;client -->
<g id="edge2" class="edge">
<title>resolve&#45;&gt;client</title>
<path fill="none" stroke="#cba85e" stroke-width="2" d="M567.02,-1070.4C634.09,-1046.55 730.86,-1008.81 810,-964.75 823.34,-957.32 837.03,-948.32 849.67,-939.33"/>
<polygon fill="#cba85e" stroke="#cba85e" stroke-width="2" points="851.54,-942.3 857.58,-933.59 847.43,-936.64 851.54,-942.3"/>
<text xml:space="preserve" text-anchor="middle" x="834.32" y="-992.33" font-family="Helvetica,sans-Serif" font-size="9.00" fill="#ece1d7">resolve_pending</text>
<text xml:space="preserve" text-anchor="middle" x="834.32" y="-981.08" font-family="Helvetica,sans-Serif" font-size="9.00" fill="#ece1d7">per PgPending col</text>
</g>
<!-- emit_text -->
<g id="node13" class="node">
<title>emit_text</title>
<path fill="#5d4628" stroke="#6e6963" d="M678.38,-1347.62C678.38,-1347.62 595.62,-1347.62 595.62,-1347.62 589.62,-1347.62 583.62,-1341.62 583.62,-1335.62 583.62,-1335.62 583.62,-1313.38 583.62,-1313.38 583.62,-1307.38 589.62,-1301.38 595.62,-1301.38 595.62,-1301.38 678.38,-1301.38 678.38,-1301.38 684.38,-1301.38 690.38,-1307.38 690.38,-1313.38 690.38,-1313.38 690.38,-1335.62 690.38,-1335.62 690.38,-1341.62 684.38,-1347.62 678.38,-1347.62"/>
<text xml:space="preserve" text-anchor="middle" x="637" y="-1334.12" font-family="Helvetica,sans-Serif" font-size="10.00" fill="#ece1d7">ColumnValue::Text</text>
<text xml:space="preserve" text-anchor="middle" x="637" y="-1321.38" font-family="Helvetica,sans-Serif" font-size="10.00" fill="#ece1d7">→ CH String</text>
<text xml:space="preserve" text-anchor="middle" x="637" y="-1308.62" font-family="Helvetica,sans-Serif" font-size="10.00" fill="#ece1d7">(encode_value)</text>
</g>
<!-- resolve&#45;&gt;emit_text -->
<g id="edge15" class="edge">
<title>resolve&#45;&gt;emit_text</title>
<path fill="none" stroke="#bf8c5f" stroke-width="2" d="M505.45,-1128.36C533.53,-1170 585.26,-1246.74 614.79,-1290.56"/>
<polygon fill="#bf8c5f" stroke="#bf8c5f" stroke-width="2" points="611.79,-1292.36 620.28,-1298.69 617.59,-1288.44 611.79,-1292.36"/>
<text xml:space="preserve" text-anchor="middle" x="599.02" y="-1223.95" font-family="Helvetica,sans-Serif" font-size="9.00" fill="#ece1d7">Ok(Some)</text>
<text xml:space="preserve" text-anchor="middle" x="599.02" y="-1212.7" font-family="Helvetica,sans-Serif" font-size="9.00" fill="#ece1d7">PgPending</text>
<text xml:space="preserve" text-anchor="middle" x="599.02" y="-1201.45" font-family="Helvetica,sans-Serif" font-size="9.00" fill="#ece1d7">→ Text</text>
</g>
<!-- emit_raw -->
<g id="node14" class="node">
<title>emit_raw</title>
<path fill="#5d4628" stroke="#6e6963" d="M857,-1354C857,-1354 727,-1354 727,-1354 721,-1354 715,-1348 715,-1342 715,-1342 715,-1307 715,-1307 715,-1301 721,-1295 727,-1295 727,-1295 857,-1295 857,-1295 863,-1295 869,-1301 869,-1307 869,-1307 869,-1342 869,-1342 869,-1348 863,-1354 857,-1354"/>
<text xml:space="preserve" text-anchor="middle" x="792" y="-1340.5" font-family="Helvetica,sans-Serif" font-size="10.00" fill="#ece1d7">PgPending raw bytes</text>
<text xml:space="preserve" text-anchor="middle" x="792" y="-1327.75" font-family="Helvetica,sans-Serif" font-size="10.00" fill="#ece1d7">→ append_string_bytes(raw)</text>
<text xml:space="preserve" text-anchor="middle" x="792" y="-1315" font-family="Helvetica,sans-Serif" font-size="10.00" fill="#ece1d7">unsupported_values++</text>
<text xml:space="preserve" text-anchor="middle" x="792" y="-1302.25" font-family="Helvetica,sans-Serif" font-size="10.00" fill="#ece1d7">placeholder &lt;oid:N&gt;</text>
</g>
<!-- resolve&#45;&gt;emit_raw -->
<g id="edge16" class="edge">
<title>resolve&#45;&gt;emit_raw</title>
<path fill="none" stroke="#bf8c5f" stroke-dasharray="5,2" d="M528.6,-1128.3C557.23,-1147.84 595.67,-1174.45 629,-1198.75 669.14,-1228.01 713.89,-1262.4 746.34,-1287.65"/>
<polygon fill="#bf8c5f" stroke="#bf8c5f" points="743.91,-1290.2 753.95,-1293.58 748.22,-1284.68 743.91,-1290.2"/>
<text xml:space="preserve" text-anchor="middle" x="701.63" y="-1223.95" font-family="Helvetica,sans-Serif" font-size="9.00" fill="#ece1d7">Ok(None)</text>
<text xml:space="preserve" text-anchor="middle" x="701.63" y="-1212.7" font-family="Helvetica,sans-Serif" font-size="9.00" fill="#ece1d7">ext absent /</text>
<text xml:space="preserve" text-anchor="middle" x="701.63" y="-1201.45" font-family="Helvetica,sans-Serif" font-size="9.00" fill="#ece1d7">NULL / error</text>
</g>
<!-- validate -->
<g id="node6" class="node">
<title>validate</title>
<path fill="#5d3f40" stroke="#6e6963" d="M396.62,-931.5C396.62,-931.5 237.38,-931.5 237.38,-931.5 231.38,-931.5 225.38,-925.5 225.38,-919.5 225.38,-919.5 225.38,-871.75 225.38,-871.75 225.38,-865.75 231.38,-859.75 237.38,-859.75 237.38,-859.75 396.62,-859.75 396.62,-859.75 402.62,-859.75 408.62,-865.75 408.62,-871.75 408.62,-871.75 408.62,-919.5 408.62,-919.5 408.62,-925.5 402.62,-931.5 396.62,-931.5"/>
<text xml:space="preserve" text-anchor="middle" x="317" y="-918" font-family="Helvetica,sans-Serif" font-size="10.00" fill="#ece1d7">validate(type_oid, raw, local_text)</text>
<text xml:space="preserve" text-anchor="middle" x="317" y="-905.25" font-family="Helvetica,sans-Serif" font-size="10.00" fill="#ece1d7">PgPending only (raw present;</text>
<text xml:space="preserve" text-anchor="middle" x="317" y="-892.5" font-family="Helvetica,sans-Serif" font-size="10.00" fill="#ece1d7"> local_text empty) —</text>
<text xml:space="preserve" text-anchor="middle" x="317" y="-879.75" font-family="Helvetica,sans-Serif" font-size="10.00" fill="#ece1d7">probe = extension call succeeds</text>
<text xml:space="preserve" text-anchor="middle" x="317" y="-867" font-family="Helvetica,sans-Serif" font-size="10.00" fill="#ece1d7">+ returns text</text>
</g>
<!-- sampler&#45;&gt;validate -->
<g id="edge7" class="edge">
<title>sampler&#45;&gt;validate</title>
<path fill="none" stroke="#b380b0" d="M236.13,-1039.13C253.77,-1008.04 275.13,-970.39 291.47,-941.6"/>
<polygon fill="#b380b0" stroke="#b380b0" points="294.39,-943.55 296.28,-933.13 288.3,-940.1 294.39,-943.55"/>
<text xml:space="preserve" text-anchor="middle" x="294.56" y="-986.7" font-family="Helvetica,sans-Serif" font-size="9.00" fill="#ece1d7">1&#45;in&#45;N hit</text>
</g>
<!-- validate&#45;&gt;stats -->
<g id="edge14" class="edge">
<title>validate&#45;&gt;stats</title>
<path fill="none" stroke="#cba85e" stroke-dasharray="5,2" d="M373.34,-931.87C410.64,-954.52 461.01,-983.83 507.25,-1006.5 554.11,-1029.47 608.27,-1051.69 651.45,-1068.42"/>
<polygon fill="#cba85e" stroke="#cba85e" points="650.18,-1071.68 660.77,-1072.01 652.7,-1065.15 650.18,-1071.68"/>
<text xml:space="preserve" text-anchor="middle" x="542.12" y="-997.95" font-family="Helvetica,sans-Serif" font-size="9.00" fill="#ece1d7">probes++ /</text>
<text xml:space="preserve" text-anchor="middle" x="542.12" y="-986.7" font-family="Helvetica,sans-Serif" font-size="9.00" fill="#ece1d7">matches /</text>
<text xml:space="preserve" text-anchor="middle" x="542.12" y="-975.45" font-family="Helvetica,sans-Serif" font-size="9.00" fill="#ece1d7">mismatches++</text>
</g>
<!-- validate&#45;&gt;client -->
<g id="edge8" class="edge">
<title>validate&#45;&gt;client</title>
<path fill="none" stroke="#cba85e" d="M409.04,-895.62C515.93,-895.62 691.71,-895.62 802.48,-895.62"/>
<polygon fill="#cba85e" stroke="#cba85e" points="802.48,-899.13 812.48,-895.63 802.48,-892.13 802.48,-899.13"/>
<text xml:space="preserve" text-anchor="middle" x="611.44" y="-901.33" font-family="Helvetica,sans-Serif" font-size="9.00" fill="#ece1d7">probe SQL</text>
</g>
<!-- alarm -->
<g id="node15" class="node">
<title>alarm</title>
<polygon fill="#5d4628" stroke="#6e6963" points="1036.38,-1354 893.62,-1354 893.62,-1295 1042.38,-1295 1042.38,-1348 1036.38,-1354"/>
<polyline fill="none" stroke="#6e6963" points="1036.38,-1354 1036.38,-1348"/>
<polyline fill="none" stroke="#6e6963" points="1042.38,-1348 1036.38,-1348"/>
<text xml:space="preserve" text-anchor="middle" x="968" y="-1340.5" font-family="Helvetica,sans-Serif" font-size="10.00" fill="#ece1d7">mismatch alarm</text>
<text xml:space="preserve" text-anchor="middle" x="968" y="-1327.75" font-family="Helvetica,sans-Serif" font-size="10.00" fill="#ece1d7">log + stats.mismatches++</text>
<text xml:space="preserve" text-anchor="middle" x="968" y="-1315" font-family="Helvetica,sans-Serif" font-size="10.00" fill="#ece1d7">row STILL ships</text>
<text xml:space="preserve" text-anchor="middle" x="968" y="-1302.25" font-family="Helvetica,sans-Serif" font-size="10.00" fill="#ece1d7">(watchdog, not gate)</text>
</g>
<!-- validate&#45;&gt;alarm -->
<g id="edge17" class="edge">
<title>validate&#45;&gt;alarm</title>
<path fill="none" stroke="#bf8c5f" stroke-dasharray="5,2" d="M408.94,-910.62C506.38,-925.19 664.83,-948.18 802,-964.75 819.52,-966.87 867.67,-961.19 881,-972.75 972,-1051.65 975.44,-1209.47 971.47,-1283.47"/>
<polygon fill="#bf8c5f" stroke="#bf8c5f" points="968,-1282.89 970.88,-1293.09 974.99,-1283.32 968,-1282.89"/>
<text xml:space="preserve" text-anchor="middle" x="1003.01" y="-1101.2" font-family="Helvetica,sans-Serif" font-size="9.00" fill="#ece1d7">probe error /</text>
<text xml:space="preserve" text-anchor="middle" x="1003.01" y="-1089.95" font-family="Helvetica,sans-Serif" font-size="9.00" fill="#ece1d7">text mismatch</text>
</g>
<!-- ext -->
<g id="node9" class="node">
<title>ext</title>
<path fill="#3d4128" stroke="#6e6963" d="M982.12,-729.25C982.12,-729.25 825.88,-729.25 825.88,-729.25 819.88,-729.25 813.88,-723.25 813.88,-717.25 813.88,-717.25 813.88,-618.5 813.88,-618.5 813.88,-612.5 819.88,-606.5 825.88,-606.5 825.88,-606.5 982.12,-606.5 982.12,-606.5 988.12,-606.5 994.12,-612.5 994.12,-618.5 994.12,-618.5 994.12,-717.25 994.12,-717.25 994.12,-723.25 988.12,-729.25 982.12,-729.25"/>
<text xml:space="preserve" text-anchor="middle" x="904" y="-715.75" font-family="Helvetica,sans-Serif" font-size="10.00" fill="#ece1d7">walshadow extension</text>
<text xml:space="preserve" text-anchor="middle" x="904" y="-703" font-family="Helvetica,sans-Serif" font-size="10.00" fill="#ece1d7">(pgext/walshadow.c)</text>
<text xml:space="preserve" text-anchor="middle" x="904" y="-690.25" font-family="Helvetica,sans-Serif" font-size="10.00" fill="#ece1d7">SearchSysCache1(TYPEOID)</text>
<text xml:space="preserve" text-anchor="middle" x="904" y="-677.5" font-family="Helvetica,sans-Serif" font-size="10.00" fill="#ece1d7">Datum reconstruct ×4 branches:</text>
<text xml:space="preserve" text-anchor="middle" x="904" y="-664.75" font-family="Helvetica,sans-Serif" font-size="10.00" fill="#ece1d7"> &#160;typlen=−1 varlena</text>
<text xml:space="preserve" text-anchor="middle" x="904" y="-652" font-family="Helvetica,sans-Serif" font-size="10.00" fill="#ece1d7"> &#160;typlen=−2 cstring</text>
<text xml:space="preserve" text-anchor="middle" x="904" y="-639.25" font-family="Helvetica,sans-Serif" font-size="10.00" fill="#ece1d7"> &#160;typbyval fixed (memcpy)</text>
<text xml:space="preserve" text-anchor="middle" x="904" y="-626.5" font-family="Helvetica,sans-Serif" font-size="10.00" fill="#ece1d7"> &#160;fixed by&#45;ref (palloc)</text>
<text xml:space="preserve" text-anchor="middle" x="904" y="-613.75" font-family="Helvetica,sans-Serif" font-size="10.00" fill="#ece1d7">OidOutputFunctionCall(typoutput)</text>
</g>
<!-- client&#45;&gt;ext -->
<g id="edge3" class="edge">
<title>client&#45;&gt;ext</title>
<path fill="none" stroke="#cba85e" stroke-width="2" d="M903.21,-846.99C903.12,-840.2 903.05,-833.3 903,-826.75 902.88,-810.18 902.87,-792.64 902.93,-775.5"/>
<polygon fill="#cba85e" stroke="#cba85e" stroke-width="2" points="903.35,-856.96 898.71,-847.02 902.81,-854.41 902.71,-846.97 903.21,-846.96 903.71,-846.96 903.81,-854.39 907.71,-846.9 903.35,-856.96"/>
<polygon fill="#cba85e" stroke="#cba85e" stroke-width="2" points="906.43,-775.54 902.97,-765.52 899.43,-775.51 906.43,-775.54"/>
<text xml:space="preserve" text-anchor="middle" x="946.5" y="-812.58" font-family="Helvetica,sans-Serif" font-size="9.00" fill="#ece1d7">libpq SELECT</text>
<text xml:space="preserve" text-anchor="middle" x="946.5" y="-801.33" font-family="Helvetica,sans-Serif" font-size="9.00" fill="#ece1d7">tokio_postgres pool</text>
<text xml:space="preserve" text-anchor="middle" x="946.5" y="-790.08" font-family="Helvetica,sans-Serif" font-size="9.00" fill="#ece1d7">(separate from</text>
<text xml:space="preserve" text-anchor="middle" x="946.5" y="-778.83" font-family="Helvetica,sans-Serif" font-size="9.00" fill="#ece1d7"> ShadowCatalog)</text>
</g>
<!-- probe -->
<g id="node10" class="node">
<title>probe</title>
<polygon fill="#3d4128" stroke="#6e6963" points="1162.75,-703.75 1019.25,-703.75 1019.25,-632 1168.75,-632 1168.75,-697.75 1162.75,-703.75"/>
<polyline fill="none" stroke="#6e6963" points="1162.75,-703.75 1162.75,-697.75"/>
<polyline fill="none" stroke="#6e6963" points="1168.75,-697.75 1162.75,-697.75"/>
<text xml:space="preserve" text-anchor="middle" x="1094" y="-690.25" font-family="Helvetica,sans-Serif" font-size="10.00" fill="#ece1d7">probe_extension</text>
<text xml:space="preserve" text-anchor="middle" x="1094" y="-677.5" font-family="Helvetica,sans-Serif" font-size="10.00" fill="#ece1d7">SELECT EXISTS</text>
<text xml:space="preserve" text-anchor="middle" x="1094" y="-664.75" font-family="Helvetica,sans-Serif" font-size="10.00" fill="#ece1d7">(pg_proc.proname =</text>
<text xml:space="preserve" text-anchor="middle" x="1094" y="-652" font-family="Helvetica,sans-Serif" font-size="10.00" fill="#ece1d7"> &#39;walshadow_decode_disk&#39;)</text>
<text xml:space="preserve" text-anchor="middle" x="1094" y="-639.25" font-family="Helvetica,sans-Serif" font-size="10.00" fill="#ece1d7">at connect + reconnect</text>
</g>
<!-- client&#45;&gt;probe -->
<g id="edge11" class="edge">
<title>client&#45;&gt;probe</title>
<path fill="none" stroke="#cba85e" stroke-dasharray="5,2" d="M957.69,-859.4C969.93,-849.78 982.2,-838.68 992,-826.75 1009.73,-805.17 1005.51,-794.37 1020,-770.5 1031.86,-750.96 1046.41,-730.4 1059.45,-712.92"/>
<polygon fill="#cba85e" stroke="#cba85e" points="1061.98,-715.38 1065.2,-705.29 1056.39,-711.17 1061.98,-715.38"/>
<text xml:space="preserve" text-anchor="middle" x="1053" y="-806.95" font-family="Helvetica,sans-Serif" font-size="9.00" fill="#ece1d7">connect /</text>
<text xml:space="preserve" text-anchor="middle" x="1053" y="-795.7" font-family="Helvetica,sans-Serif" font-size="9.00" fill="#ece1d7">reconnect:</text>
<text xml:space="preserve" text-anchor="middle" x="1053" y="-784.45" font-family="Helvetica,sans-Serif" font-size="9.00" fill="#ece1d7">probe pg_proc</text>
</g>
<!-- lc -->
<g id="node11" class="node">
<title>lc</title>
<polygon fill="#3d4128" stroke="#6e6963" points="1322.62,-691 1193.38,-691 1193.38,-644.75 1328.62,-644.75 1328.62,-685 1322.62,-691"/>
<polyline fill="none" stroke="#6e6963" points="1322.62,-691 1322.62,-685"/>
<polyline fill="none" stroke="#6e6963" points="1328.62,-685 1322.62,-685"/>
<text xml:space="preserve" text-anchor="middle" x="1261" y="-677.5" font-family="Helvetica,sans-Serif" font-size="10.00" fill="#ece1d7">pinned locale</text>
<text xml:space="preserve" text-anchor="middle" x="1261" y="-664.75" font-family="Helvetica,sans-Serif" font-size="10.00" fill="#ece1d7">lc_numeric / lc_time = C</text>
<text xml:space="preserve" text-anchor="middle" x="1261" y="-652" font-family="Helvetica,sans-Serif" font-size="10.00" fill="#ece1d7">(shadow bootstrap)</text>
</g>
<!-- ext&#45;&gt;lc -->
<g id="edge10" class="edge">
<title>ext&#45;&gt;lc</title>
<path fill="none" stroke="#6e6963" stroke-dasharray="5,2" d="M937.78,-729.72C957.42,-758.97 985.1,-790.97 1019.5,-807.12 1079.44,-835.28 1110.14,-838.42 1168.5,-807.12 1209.63,-785.07 1235.59,-735.77 1249.21,-702.16"/>
<polygon fill="#6e6963" stroke="#6e6963" points="1252.47,-703.43 1252.81,-692.84 1245.94,-700.9 1252.47,-703.43"/>
</g>
<!-- legend -->
<g id="node17" class="node">
<title>legend</title>
<path fill="#6e6963" stroke="none" d="M1056.25,-539.5C1056.25,-539.5 751.75,-539.5 751.75,-539.5 745.75,-539.5 739.75,-533.5 739.75,-527.5 739.75,-527.5 739.75,-12 739.75,-12 739.75,-6 745.75,0 751.75,0 751.75,0 1056.25,0 1056.25,0 1062.25,0 1068.25,-6 1068.25,-12 1068.25,-12 1068.25,-527.5 1068.25,-527.5 1068.25,-533.5 1062.25,-539.5 1056.25,-539.5"/>
<polygon fill="#34302c" stroke="none" points="747.75,-512.75 747.75,-535.5 1060.25,-535.5 1060.25,-512.75 747.75,-512.75"/>
<polygon fill="none" stroke="#6e6963" points="747.75,-512.75 747.75,-535.5 1060.25,-535.5 1060.25,-512.75 747.75,-512.75"/>
<text xml:space="preserve" text-anchor="start" x="880.75" y="-522" font-family="Helvetica,sans-Serif" font-weight="bold" font-size="10.00" fill="#ece1d7">node fill</text>
<polygon fill="#3d3d54" stroke="none" points="747.75,-490 747.75,-512.75 865,-512.75 865,-490 747.75,-490"/>
<polygon fill="none" stroke="#6e6963" points="747.75,-490 747.75,-512.75 865,-512.75 865,-490 747.75,-490"/>
<polygon fill="none" stroke="#6e6963" points="865,-490 865,-512.75 1060.25,-512.75 1060.25,-490 865,-490"/>
<text xml:space="preserve" text-anchor="start" x="942.75" y="-498" font-family="Helvetica,sans-Serif" font-size="10.00" fill="#ece1d7">CLI gate</text>
<polygon fill="#4d4128" stroke="none" points="747.75,-467.25 747.75,-490 865,-490 865,-467.25 747.75,-467.25"/>
<polygon fill="none" stroke="#6e6963" points="747.75,-467.25 747.75,-490 865,-490 865,-467.25 747.75,-467.25"/>
<polygon fill="none" stroke="#6e6963" points="865,-467.25 865,-490 1060.25,-490 1060.25,-467.25 865,-467.25"/>
<text xml:space="preserve" text-anchor="start" x="909.38" y="-475.25" font-family="Helvetica,sans-Serif" font-size="10.00" fill="#ece1d7">decoder ColumnValue</text>
<polygon fill="#5d3f40" stroke="none" points="747.75,-444.5 747.75,-467.25 865,-467.25 865,-444.5 747.75,-444.5"/>
<polygon fill="none" stroke="#6e6963" points="747.75,-444.5 747.75,-467.25 865,-467.25 865,-444.5 747.75,-444.5"/>
<polygon fill="none" stroke="#6e6963" points="865,-444.5 865,-467.25 1060.25,-467.25 1060.25,-444.5 865,-444.5"/>
<text xml:space="preserve" text-anchor="start" x="912.75" y="-452.5" font-family="Helvetica,sans-Serif" font-size="10.00" fill="#ece1d7">oracle (src/oracle.rs)</text>
<polygon fill="#4d4d28" stroke="none" points="747.75,-421.75 747.75,-444.5 865,-444.5 865,-421.75 747.75,-421.75"/>
<polygon fill="none" stroke="#6e6963" points="747.75,-421.75 747.75,-444.5 865,-444.5 865,-421.75 747.75,-421.75"/>
<polygon fill="none" stroke="#6e6963" points="865,-421.75 865,-444.5 1060.25,-444.5 1060.25,-421.75 865,-421.75"/>
<text xml:space="preserve" text-anchor="start" x="908.25" y="-429.75" font-family="Helvetica,sans-Serif" font-size="10.00" fill="#ece1d7">libpq client (own pool)</text>
<polygon fill="#3d4128" stroke="none" points="747.75,-399 747.75,-421.75 865,-421.75 865,-399 747.75,-399"/>
<polygon fill="none" stroke="#6e6963" points="747.75,-399 747.75,-421.75 865,-421.75 865,-399 747.75,-399"/>
<polygon fill="none" stroke="#6e6963" points="865,-399 865,-421.75 1060.25,-421.75 1060.25,-399 865,-399"/>
<text xml:space="preserve" text-anchor="start" x="907.12" y="-407" font-family="Helvetica,sans-Serif" font-size="10.00" fill="#ece1d7">shadow PG / extension</text>
<polygon fill="#4d3850" stroke="none" points="747.75,-376.25 747.75,-399 865,-399 865,-376.25 747.75,-376.25"/>
<polygon fill="none" stroke="#6e6963" points="747.75,-376.25 747.75,-399 865,-399 865,-376.25 747.75,-376.25"/>
<polygon fill="none" stroke="#6e6963" points="865,-376.25 865,-399 1060.25,-399 1060.25,-376.25 865,-376.25"/>
<text xml:space="preserve" text-anchor="start" x="914.62" y="-384.25" font-family="Helvetica,sans-Serif" font-size="10.00" fill="#ece1d7">pgext/ build artifact</text>
<polygon fill="#5d4628" stroke="none" points="747.75,-353.5 747.75,-376.25 865,-376.25 865,-353.5 747.75,-353.5"/>
<polygon fill="none" stroke="#6e6963" points="747.75,-353.5 747.75,-376.25 865,-376.25 865,-353.5 747.75,-353.5"/>
<polygon fill="none" stroke="#6e6963" points="865,-353.5 865,-376.25 1060.25,-376.25 1060.25,-353.5 865,-353.5"/>
<text xml:space="preserve" text-anchor="start" x="921" y="-361.5" font-family="Helvetica,sans-Serif" font-size="10.00" fill="#ece1d7">emit sink / alarm</text>
<polygon fill="#34302c" stroke="none" points="747.75,-330.75 747.75,-353.5 1060.25,-353.5 1060.25,-330.75 747.75,-330.75"/>
<polygon fill="none" stroke="#6e6963" points="747.75,-330.75 747.75,-353.5 1060.25,-353.5 1060.25,-330.75 747.75,-330.75"/>
<text xml:space="preserve" text-anchor="start" x="870.25" y="-340" font-family="Helvetica,sans-Serif" font-weight="bold" font-size="10.00" fill="#ece1d7">edge colour</text>
<polygon fill="none" stroke="#6e6963" points="747.75,-308 747.75,-330.75 865,-330.75 865,-308 747.75,-308"/>
<text xml:space="preserve" text-anchor="start" x="800.38" y="-317.25" font-family="Helvetica,sans-Serif" font-weight="bold" font-size="10.00" fill="#a1a9cc">━━</text>
<polygon fill="none" stroke="#6e6963" points="865,-308 865,-330.75 1060.25,-330.75 1060.25,-308 865,-308"/>
<text xml:space="preserve" text-anchor="start" x="887.62" y="-316" font-family="Helvetica,sans-Serif" font-size="10.00" fill="#ece1d7">PgPending → resolver (always)</text>
<polygon fill="none" stroke="#6e6963" points="747.75,-285.25 747.75,-308 865,-308 865,-285.25 747.75,-285.25"/>
<text xml:space="preserve" text-anchor="start" x="800.38" y="-294.5" font-family="Helvetica,sans-Serif" font-weight="bold" font-size="10.00" fill="#b380b0">┄┄</text>
<polygon fill="none" stroke="#6e6963" points="865,-285.25 865,-308 1060.25,-308 1060.25,-285.25 865,-285.25"/>
<text xml:space="preserve" text-anchor="start" x="896.62" y="-293.25" font-family="Helvetica,sans-Serif" font-size="10.00" fill="#ece1d7">sampler gate (&#45;&#45;validate N)</text>
<polygon fill="none" stroke="#6e6963" points="747.75,-262.5 747.75,-285.25 865,-285.25 865,-262.5 747.75,-262.5"/>
<text xml:space="preserve" text-anchor="start" x="800.38" y="-271.75" font-family="Helvetica,sans-Serif" font-weight="bold" font-size="10.00" fill="#cba85e">━━</text>
<polygon fill="none" stroke="#6e6963" points="865,-262.5 865,-285.25 1060.25,-285.25 1060.25,-262.5 865,-262.5"/>
<text xml:space="preserve" text-anchor="start" x="900.75" y="-270.5" font-family="Helvetica,sans-Serif" font-size="10.00" fill="#ece1d7">libpq SELECT (MAIN wire)</text>
<polygon fill="none" stroke="#6e6963" points="747.75,-239.75 747.75,-262.5 865,-262.5 865,-239.75 747.75,-239.75"/>
<text xml:space="preserve" text-anchor="start" x="800.38" y="-249" font-family="Helvetica,sans-Serif" font-weight="bold" font-size="10.00" fill="#bf8c5f">━━</text>
<polygon fill="none" stroke="#6e6963" points="865,-239.75 865,-262.5 1060.25,-262.5 1060.25,-239.75 865,-239.75"/>
<text xml:space="preserve" text-anchor="start" x="910.12" y="-247.75" font-family="Helvetica,sans-Serif" font-size="10.00" fill="#ece1d7">emit&#45;time disposition</text>
<polygon fill="none" stroke="#6e6963" points="747.75,-217 747.75,-239.75 865,-239.75 865,-217 747.75,-217"/>
<text xml:space="preserve" text-anchor="start" x="800.38" y="-226.25" font-family="Helvetica,sans-Serif" font-weight="bold" font-size="10.00" fill="#6e6963">┄┄</text>
<polygon fill="none" stroke="#6e6963" points="865,-217 865,-239.75 1060.25,-239.75 1060.25,-217 865,-217"/>
<text xml:space="preserve" text-anchor="start" x="901.5" y="-225" font-family="Helvetica,sans-Serif" font-size="10.00" fill="#ece1d7">pgext install (filesystem)</text>
<polygon fill="#34302c" stroke="none" points="747.75,-194.25 747.75,-217 1060.25,-217 1060.25,-194.25 747.75,-194.25"/>
<polygon fill="none" stroke="#6e6963" points="747.75,-194.25 747.75,-217 1060.25,-217 1060.25,-194.25 747.75,-194.25"/>
<text xml:space="preserve" text-anchor="start" x="860.12" y="-203.5" font-family="Helvetica,sans-Serif" font-weight="bold" font-size="10.00" fill="#ece1d7">trigger sources</text>
<polygon fill="none" stroke="#6e6963" points="747.75,-171.5 747.75,-194.25 865,-194.25 865,-171.5 747.75,-171.5"/>
<text xml:space="preserve" text-anchor="start" x="752.75" y="-180.75" font-family="Helvetica,sans-Serif" font-weight="bold" font-size="10.00" fill="#ece1d7">PgPending resolve</text>
<polygon fill="none" stroke="#6e6963" points="865,-171.5 865,-194.25 1060.25,-194.25 1060.25,-171.5 865,-171.5"/>
<text xml:space="preserve" text-anchor="start" x="907.88" y="-179.5" font-family="Helvetica,sans-Serif" font-size="10.00" fill="#ece1d7">always — once per col</text>
<polygon fill="none" stroke="#6e6963" points="747.75,-148.75 747.75,-171.5 865,-171.5 865,-148.75 747.75,-148.75"/>
<text xml:space="preserve" text-anchor="start" x="756.88" y="-158" font-family="Helvetica,sans-Serif" font-weight="bold" font-size="10.00" fill="#ece1d7">PgPending probe</text>
<polygon fill="none" stroke="#6e6963" points="865,-148.75 865,-171.5 1060.25,-171.5 1060.25,-148.75 865,-148.75"/>
<text xml:space="preserve" text-anchor="start" x="895.5" y="-156.75" font-family="Helvetica,sans-Serif" font-size="10.00" fill="#ece1d7">&#45;&#45;validate N, sampler&#45;gated</text>
<polygon fill="none" stroke="#6e6963" points="747.75,-126 747.75,-148.75 865,-148.75 865,-126 747.75,-126"/>
<text xml:space="preserve" text-anchor="start" x="779.38" y="-135.25" font-family="Helvetica,sans-Serif" font-weight="bold" font-size="10.00" fill="#ece1d7">Tier 1/2/3</text>
<polygon fill="none" stroke="#6e6963" points="865,-126 865,-148.75 1060.25,-148.75 1060.25,-126 865,-126"/>
<text xml:space="preserve" text-anchor="start" x="870" y="-134" font-family="Helvetica,sans-Serif" font-size="10.00" fill="#ece1d7">not validated (raw bytes not retained)</text>
<polygon fill="#34302c" stroke="none" points="747.75,-103.25 747.75,-126 1060.25,-126 1060.25,-103.25 747.75,-103.25"/>
<polygon fill="none" stroke="#6e6963" points="747.75,-103.25 747.75,-126 1060.25,-126 1060.25,-103.25 747.75,-103.25"/>
<text xml:space="preserve" text-anchor="start" x="851.12" y="-112.5" font-family="Helvetica,sans-Serif" font-weight="bold" font-size="10.00" fill="#ece1d7">extension&#45;absence</text>
<polygon fill="none" stroke="#6e6963" points="747.75,-4 747.75,-103.25 1060.25,-103.25 1060.25,-4 747.75,-4"/>
<text xml:space="preserve" text-anchor="start" x="752.75" y="-88.5" font-family="Helvetica,sans-Serif" font-size="10.00" fill="#ece1d7">probe_extension at connect →</text>
<text xml:space="preserve" text-anchor="start" x="752.75" y="-75.75" font-family="Helvetica,sans-Serif" font-size="10.00" fill="#ece1d7">has_extension=false →</text>
<text xml:space="preserve" text-anchor="start" x="752.75" y="-63" font-family="Helvetica,sans-Serif" font-size="10.00" fill="#ece1d7">resolve_pending Ok(None) →</text>
<text xml:space="preserve" text-anchor="start" x="752.75" y="-50.25" font-family="Helvetica,sans-Serif" font-size="10.00" fill="#ece1d7">stats.fallback_raw++ →</text>
<text xml:space="preserve" text-anchor="start" x="752.75" y="-37.5" font-family="Helvetica,sans-Serif" font-size="10.00" fill="#ece1d7">emitter writes raw bytes.</text>
<text xml:space="preserve" text-anchor="start" x="752.75" y="-24.75" font-family="Helvetica,sans-Serif" font-size="10.00" fill="#ece1d7">No failure. CREATE EXTENSION</text>
<text xml:space="preserve" text-anchor="start" x="769.62" y="-12" font-family="Helvetica,sans-Serif" font-size="10.00" fill="#ece1d7">+ reconnect re&#45;enables.</text>
</g>
<!-- ext&#45;&gt;legend -->
<!-- artifact -->
<g id="node12" class="node">
<title>artifact</title>
<polygon fill="#4d3850" stroke="#6e6963" points="1170,-931.5 1058,-931.5 1058,-859.75 1176,-859.75 1176,-925.5 1170,-931.5"/>
<polyline fill="none" stroke="#6e6963" points="1170,-931.5 1170,-925.5"/>
<polyline fill="none" stroke="#6e6963" points="1176,-925.5 1170,-925.5"/>
<text xml:space="preserve" text-anchor="middle" x="1117" y="-918" font-family="Helvetica,sans-Serif" font-size="10.00" fill="#ece1d7">walshadow.so</text>
<text xml:space="preserve" text-anchor="middle" x="1117" y="-905.25" font-family="Helvetica,sans-Serif" font-size="10.00" fill="#ece1d7">walshadow.control</text>
<text xml:space="preserve" text-anchor="middle" x="1117" y="-892.5" font-family="Helvetica,sans-Serif" font-size="10.00" fill="#ece1d7">walshadow&#45;&#45;0.1.sql</text>
<text xml:space="preserve" text-anchor="middle" x="1117" y="-879.75" font-family="Helvetica,sans-Serif" font-size="10.00" fill="#ece1d7">CREATE FUNCTION</text>
<text xml:space="preserve" text-anchor="middle" x="1117" y="-867" font-family="Helvetica,sans-Serif" font-size="10.00" fill="#ece1d7"> &#160;STRICT IMMUTABLE</text>
</g>
<!-- artifact&#45;&gt;ext -->
<g id="edge12" class="edge">
<title>artifact&#45;&gt;ext</title>
<path fill="none" stroke="#6e6963" stroke-dasharray="5,2" d="M1118.79,-851.75C1117.45,-824.38 1110.71,-790.41 1088,-770.5 1076.74,-760.62 1039.92,-766.66 1018.2,-764.85"/>
<polygon fill="#6e6963" stroke="#6e6963" points="1018.99,-761.44 1008.48,-762.81 1017.55,-768.29 1018.99,-761.44"/>
<text xml:space="preserve" text-anchor="middle" x="1160.41" y="-818.2" font-family="Helvetica,sans-Serif" font-size="9.00" fill="#ece1d7">install:</text>
<text xml:space="preserve" text-anchor="middle" x="1160.41" y="-806.95" font-family="Helvetica,sans-Serif" font-size="9.00" fill="#ece1d7">$libdir +</text>
<text xml:space="preserve" text-anchor="middle" x="1160.41" y="-795.7" font-family="Helvetica,sans-Serif" font-size="9.00" fill="#ece1d7">extension dir;</text>
<text xml:space="preserve" text-anchor="middle" x="1160.41" y="-784.45" font-family="Helvetica,sans-Serif" font-size="9.00" fill="#ece1d7">CREATE EXTENSION</text>
<text xml:space="preserve" text-anchor="middle" x="1160.41" y="-773.2" font-family="Helvetica,sans-Serif" font-size="9.00" fill="#ece1d7">walshadow</text>
</g>
<!-- cli -->
<g id="node16" class="node">
<title>cli</title>
<path fill="#3d3d54" stroke="#6e6963" d="M1281.01,-1383.5C1281.01,-1383.5 1125.24,-1383.5 1125.24,-1383.5 1119.24,-1383.5 1111.05,-1377.91 1108.86,-1372.33 1108.86,-1372.33 1071.37,-1276.67 1071.37,-1276.67 1069.18,-1271.09 1072.99,-1265.5 1078.99,-1265.5 1078.99,-1265.5 1234.76,-1265.5 1234.76,-1265.5 1240.76,-1265.5 1248.95,-1271.09 1251.14,-1276.67 1251.14,-1276.67 1288.63,-1372.33 1288.63,-1372.33 1290.82,-1377.91 1287.01,-1383.5 1281.01,-1383.5"/>
<text xml:space="preserve" text-anchor="middle" x="1180" y="-1340.5" font-family="Helvetica,sans-Serif" font-size="10.00" fill="#ece1d7">walshadow&#45;stream</text>
<text xml:space="preserve" text-anchor="middle" x="1180" y="-1327.75" font-family="Helvetica,sans-Serif" font-size="10.00" fill="#ece1d7">&#45;&#45;validate &lt;N&gt;</text>
<text xml:space="preserve" text-anchor="middle" x="1180" y="-1315" font-family="Helvetica,sans-Serif" font-size="10.00" fill="#ece1d7">(0 = off,</text>
<text xml:space="preserve" text-anchor="middle" x="1180" y="-1302.25" font-family="Helvetica,sans-Serif" font-size="10.00" fill="#ece1d7"> default)</text>
</g>
<!-- cli&#45;&gt;sampler -->
<g id="edge9" class="edge">
<title>cli&#45;&gt;sampler</title>
<path fill="none" stroke="#b380b0" stroke-dasharray="1,5" d="M1068.28,-1269.82C1064.16,-1268.3 1060.06,-1266.85 1056,-1265.5 917.74,-1219.49 879.77,-1215.36 735,-1198.75 697.24,-1194.42 429.96,-1199.62 393,-1190.75 366.57,-1184.41 339.49,-1174.06 314.35,-1162.58"/>
<polygon fill="#b380b0" stroke="#b380b0" points="315.99,-1159.48 305.45,-1158.41 313.03,-1165.82 315.99,-1159.48"/>
<text xml:space="preserve" text-anchor="middle" x="961.17" y="-1212.7" font-family="Helvetica,sans-Serif" font-size="9.00" fill="#ece1d7">rate N</text>
</g>
</g>
</svg>
