<?xml version="1.0" encoding="UTF-8" standalone="no"?>
<!DOCTYPE svg PUBLIC "-//W3C//DTD SVG 1.1//EN"
 "http://www.w3.org/Graphics/SVG/1.1/DTD/svg11.dtd">
<!-- Generated by graphviz version 15.1.0 (20260618.0150)
 -->
<!-- Title: overview Pages: 1 -->
<svg width="975pt" height="980pt"
 viewBox="0.00 0.00 975.00 980.00" xmlns="http://www.w3.org/2000/svg" xmlns:xlink="http://www.w3.org/1999/xlink">
<g id="graph0" class="graph" transform="scale(1 1) rotate(0) translate(4 975.5)">
<title>overview</title>
<polygon fill="#272623" stroke="none" points="-4,4 -4,-975.5 970.62,-975.5 970.62,4 -4,4"/>
<text xml:space="preserve" text-anchor="middle" x="483.31" y="-954.2" font-family="Helvetica,sans-Serif" font-size="14.00" fill="#ece1d7">walshadow — source Postgres → ClickHouse, with shadow Postgres as catalog&#45;replay sidecar</text>
<!-- src -->
<g id="node1" class="node">
<title>src</title>
<path fill="#3d3d54" stroke="#6e6963" d="M342,-938.12C342,-942.61 314.21,-946.25 280,-946.25 245.79,-946.25 218,-942.61 218,-938.12 218,-938.12 218,-865 218,-865 218,-860.52 245.79,-856.88 280,-856.88 314.21,-856.88 342,-860.52 342,-865 342,-865 342,-938.12 342,-938.12"/>
<path fill="none" stroke="#6e6963" d="M342,-938.12C342,-933.64 314.21,-930 280,-930 245.79,-930 218,-933.64 218,-938.12"/>
<text xml:space="preserve" text-anchor="middle" x="280" y="-918.66" font-family="Helvetica,sans-Serif" font-size="12.00" fill="#ece1d7">source</text>
<text xml:space="preserve" text-anchor="middle" x="280" y="-904.41" font-family="Helvetica,sans-Serif" font-size="12.00" fill="#ece1d7">Postgres</text>
<text xml:space="preserve" text-anchor="middle" x="280" y="-890.16" font-family="Helvetica,sans-Serif" font-size="12.00" fill="#ece1d7">(primary,</text>
<text xml:space="preserve" text-anchor="middle" x="280" y="-875.91" font-family="Helvetica,sans-Serif" font-size="12.00" fill="#ece1d7">wal_level=replica)</text>
</g>
<!-- wal -->
<g id="node2" class="node">
<title>wal</title>
<path fill="#4d3a28" stroke="#6e6963" d="M372.75,-751.38C372.75,-751.38 187.25,-751.38 187.25,-751.38 181.25,-751.38 175.25,-745.38 175.25,-739.38 175.25,-739.38 175.25,-670.12 175.25,-670.12 175.25,-664.12 181.25,-658.12 187.25,-658.12 187.25,-658.12 372.75,-658.12 372.75,-658.12 378.75,-658.12 384.75,-664.12 384.75,-670.12 384.75,-670.12 384.75,-739.38 384.75,-739.38 384.75,-745.38 378.75,-751.38 372.75,-751.38"/>
<text xml:space="preserve" text-anchor="middle" x="280" y="-735.98" font-family="Helvetica,sans-Serif" font-size="12.00" fill="#ece1d7">walshadow&#45;stream</text>
<text xml:space="preserve" text-anchor="middle" x="280" y="-707.73" font-family="Helvetica,sans-Serif" font-size="12.00" fill="#ece1d7">filters WAL (drop user&#45;heap,</text>
<text xml:space="preserve" text-anchor="middle" x="280" y="-693.48" font-family="Helvetica,sans-Serif" font-size="12.00" fill="#ece1d7">keep catalog) → rewrites CRC,</text>
<text xml:space="preserve" text-anchor="middle" x="280" y="-679.23" font-family="Helvetica,sans-Serif" font-size="12.00" fill="#ece1d7">decodes heap → emits to CH,</text>
<text xml:space="preserve" text-anchor="middle" x="280" y="-664.98" font-family="Helvetica,sans-Serif" font-size="12.00" fill="#ece1d7">DDL events → CH ALTER/CREATE</text>
</g>
<!-- src&#45;&gt;wal -->
<g id="edge1" class="edge">
<title>src&#45;&gt;wal</title>
<path fill="none" stroke="#a1a9cc" stroke-width="2" d="M280,-856.84C280,-829.58 280,-794.15 280,-764.46"/>
<polygon fill="#a1a9cc" stroke="#a1a9cc" stroke-width="2" points="283.5,-764.72 280,-754.72 276.5,-764.72 283.5,-764.72"/>
<text xml:space="preserve" text-anchor="middle" x="333.62" y="-807.38" font-family="Helvetica,sans-Serif" font-size="10.00" fill="#ece1d7">① physical replication</text>
<text xml:space="preserve" text-anchor="middle" x="333.62" y="-794.62" font-family="Helvetica,sans-Serif" font-size="10.00" fill="#ece1d7">CopyData &#39;w&#39;</text>
</g>
<!-- arc -->
<g id="node3" class="node">
<title>arc</title>
<polygon fill="#4d3850" stroke="#6e6963" points="106,-507.81 0,-507.81 0,-457.06 112,-457.06 112,-501.81 106,-507.81"/>
<polyline fill="none" stroke="#6e6963" points="106,-507.81 106,-501.81"/>
<polyline fill="none" stroke="#6e6963" points="112,-501.81 106,-501.81"/>
<text xml:space="preserve" text-anchor="middle" x="56" y="-492.41" font-family="Helvetica,sans-Serif" font-size="12.00" fill="#ece1d7">out/&lt;seg&gt;</text>
<text xml:space="preserve" text-anchor="middle" x="56" y="-478.16" font-family="Helvetica,sans-Serif" font-size="12.00" fill="#ece1d7">filtered 16 MiB</text>
<text xml:space="preserve" text-anchor="middle" x="56" y="-463.91" font-family="Helvetica,sans-Serif" font-size="12.00" fill="#ece1d7">WAL + manifest</text>
</g>
<!-- wal&#45;&gt;arc -->
<g id="edge4" class="edge">
<title>wal&#45;&gt;arc</title>
<path fill="none" stroke="#6e6963" d="M219.32,-657.7C204.09,-645.35 188.07,-631.65 174,-618.12 140.32,-585.77 105.53,-545 82.53,-516.84"/>
<polygon fill="#6e6963" stroke="#6e6963" points="85.47,-514.9 76.45,-509.34 80.03,-519.31 85.47,-514.9"/>
<text xml:space="preserve" text-anchor="middle" x="216" y="-595.88" font-family="Helvetica,sans-Serif" font-size="10.00" fill="#ece1d7">④ fsync segment</text>
<text xml:space="preserve" text-anchor="middle" x="216" y="-583.12" font-family="Helvetica,sans-Serif" font-size="10.00" fill="#ece1d7">+ manifest</text>
</g>
<!-- shd -->
<g id="node4" class="node">
<title>shd</title>
<path fill="#3d4128" stroke="#6e6963" d="M412.12,-519C412.12,-523.48 377.11,-527.12 334,-527.12 290.89,-527.12 255.88,-523.48 255.88,-519 255.88,-519 255.88,-445.88 255.88,-445.88 255.88,-441.39 290.89,-437.75 334,-437.75 377.11,-437.75 412.12,-441.39 412.12,-445.88 412.12,-445.88 412.12,-519 412.12,-519"/>
<path fill="none" stroke="#6e6963" d="M412.12,-519C412.12,-514.52 377.11,-510.88 334,-510.88 290.89,-510.88 255.88,-514.52 255.88,-519"/>
<text xml:space="preserve" text-anchor="middle" x="334" y="-499.54" font-family="Helvetica,sans-Serif" font-size="12.00" fill="#ece1d7">shadow</text>
<text xml:space="preserve" text-anchor="middle" x="334" y="-485.29" font-family="Helvetica,sans-Serif" font-size="12.00" fill="#ece1d7">Postgres</text>
<text xml:space="preserve" text-anchor="middle" x="334" y="-471.04" font-family="Helvetica,sans-Serif" font-size="12.00" fill="#ece1d7">(continuous recovery,</text>
<text xml:space="preserve" text-anchor="middle" x="334" y="-456.79" font-family="Helvetica,sans-Serif" font-size="12.00" fill="#ece1d7">schema/catalog mirror)</text>
</g>
<!-- wal&#45;&gt;shd -->
<g id="edge2" class="edge">
<title>wal&#45;&gt;shd</title>
<path fill="none" stroke="#bd8183" stroke-width="2" d="M270.99,-657.8C267.52,-630.79 266.31,-596.33 275.5,-567.12 278.64,-557.15 283.44,-547.32 288.97,-538.11"/>
<polygon fill="#bd8183" stroke="#bd8183" stroke-width="2" points="291.89,-540.05 294.37,-529.75 286.01,-536.25 291.89,-540.05"/>
<text xml:space="preserve" text-anchor="middle" x="342.25" y="-595.88" font-family="Helvetica,sans-Serif" font-size="10.00" fill="#ece1d7">② walsender wire</text>
<text xml:space="preserve" text-anchor="middle" x="342.25" y="-583.12" font-family="Helvetica,sans-Serif" font-size="10.00" fill="#ece1d7">&#39;w&#39; XLogData (ms cadence)</text>
</g>
<!-- wal&#45;&gt;shd -->
<g id="edge3" class="edge">
<title>wal&#45;&gt;shd</title>
<path fill="none" stroke="#cba85e" d="M387.94,-650.83C398.72,-641.39 408.18,-630.53 415,-618.12 425.92,-598.26 423.5,-588.14 415,-567.12 410.31,-555.53 403.15,-544.65 395,-534.82"/>
<polygon fill="#cba85e" stroke="#cba85e" points="380.41,-657 385.29,-647.18 383.33,-654.6 388.14,-650.66 388.14,-650.66 388.14,-650.66 383.33,-654.6 390.99,-654.14 380.41,-657"/>
<polygon fill="#cba85e" stroke="#cba85e" points="397.85,-532.77 388.61,-527.59 392.61,-537.4 397.85,-532.77"/>
<text xml:space="preserve" text-anchor="middle" x="463.56" y="-595.88" font-family="Helvetica,sans-Serif" font-size="10.00" fill="#ece1d7">③ libpq SELECT</text>
<text xml:space="preserve" text-anchor="middle" x="463.56" y="-583.12" font-family="Helvetica,sans-Serif" font-size="10.00" fill="#ece1d7">catalog cache fill</text>
</g>
<!-- ch -->
<g id="node5" class="node">
<title>ch</title>
<path fill="#4d4128" stroke="#6e6963" d="M676.75,-502.97C676.75,-505.49 639.21,-507.53 593,-507.53 546.79,-507.53 509.25,-505.49 509.25,-502.97 509.25,-502.97 509.25,-461.91 509.25,-461.91 509.25,-459.39 546.79,-457.34 593,-457.34 639.21,-457.34 676.75,-459.39 676.75,-461.91 676.75,-461.91 676.75,-502.97 676.75,-502.97"/>
<path fill="none" stroke="#6e6963" d="M676.75,-502.97C676.75,-500.45 639.21,-498.41 593,-498.41 546.79,-498.41 509.25,-500.45 509.25,-502.97"/>
<text xml:space="preserve" text-anchor="middle" x="593" y="-485.29" font-family="Helvetica,sans-Serif" font-size="12.00" fill="#ece1d7">ClickHouse</text>
<text xml:space="preserve" text-anchor="middle" x="593" y="-471.04" font-family="Helvetica,sans-Serif" font-size="12.00" fill="#ece1d7">ReplacingMergeTree(_lsn)</text>
</g>
<!-- wal&#45;&gt;ch -->
<g id="edge6" class="edge">
<title>wal&#45;&gt;ch</title>
<path fill="none" stroke="#bf8c5f" stroke-width="2" d="M385.22,-682.26C428.98,-669.3 478.06,-649.09 515,-618.12 546.17,-592 567.65,-550.04 580.06,-519.9"/>
<polygon fill="#bf8c5f" stroke="#bf8c5f" stroke-width="2" points="583.31,-521.19 583.71,-510.6 576.8,-518.62 583.31,-521.19"/>
<text xml:space="preserve" text-anchor="middle" x="605.48" y="-608.62" font-family="Helvetica,sans-Serif" font-size="10.00" fill="#ece1d7">⑥ CH Native blocks</text>
<text xml:space="preserve" text-anchor="middle" x="605.48" y="-595.88" font-family="Helvetica,sans-Serif" font-size="10.00" fill="#ece1d7">atomic&#45;seal INSERT</text>
<text xml:space="preserve" text-anchor="middle" x="605.48" y="-583.12" font-family="Helvetica,sans-Serif" font-size="10.00" fill="#ece1d7">(buffered multi&#45;xact,</text>
<text xml:space="preserve" text-anchor="middle" x="605.48" y="-570.38" font-family="Helvetica,sans-Serif" font-size="10.00" fill="#ece1d7"> budget / deadline)</text>
</g>
<!-- arc&#45;&gt;shd -->
<g id="edge5" class="edge">
<title>arc&#45;&gt;shd</title>
<path fill="none" stroke="#6e6963" stroke-dasharray="5,2" d="M112.26,-482.44C150.05,-482.44 200.68,-482.44 244.01,-482.44"/>
<polygon fill="#6e6963" stroke="#6e6963" points="243.93,-485.94 253.93,-482.44 243.93,-478.94 243.93,-485.94"/>
<text xml:space="preserve" text-anchor="middle" x="183.94" y="-501.44" font-family="Helvetica,sans-Serif" font-size="10.00" fill="#ece1d7">⑤ restore_command</text>
<text xml:space="preserve" text-anchor="middle" x="183.94" y="-488.69" font-family="Helvetica,sans-Serif" font-size="10.00" fill="#ece1d7">(archive fallback)</text>
</g>
<!-- legend -->
<g id="node6" class="node">
<title>legend</title>
<path fill="#6e6963" stroke="none" d="M954.62,-356.75C954.62,-356.75 231.38,-356.75 231.38,-356.75 225.38,-356.75 219.38,-350.75 219.38,-344.75 219.38,-344.75 219.38,-12 219.38,-12 219.38,-6 225.38,0 231.38,0 231.38,0 954.62,0 954.62,0 960.62,0 966.62,-6 966.62,-12 966.62,-12 966.62,-344.75 966.62,-344.75 966.62,-350.75 960.62,-356.75 954.62,-356.75"/>
<polygon fill="#34302c" stroke="none" points="227.38,-326.5 227.38,-352.75 958.62,-352.75 958.62,-326.5 227.38,-326.5"/>
<polygon fill="none" stroke="#6e6963" points="227.38,-326.5 227.38,-352.75 958.62,-352.75 958.62,-326.5 227.38,-326.5"/>
<text xml:space="preserve" text-anchor="start" x="578.38" y="-336.35" font-family="Helvetica,sans-Serif" font-weight="bold" font-size="12.00" fill="#ece1d7">wire</text>
<polygon fill="none" stroke="#6e6963" points="227.38,-300.25 227.38,-326.5 249.88,-326.5 249.88,-300.25 227.38,-300.25"/>
<text xml:space="preserve" text-anchor="start" x="233.38" y="-310.1" font-family="Helvetica,sans-Serif" font-weight="bold" font-size="12.00" fill="#a1a9cc">①</text>
<polygon fill="none" stroke="#6e6963" points="249.88,-300.25 249.88,-326.5 958.62,-326.5 958.62,-300.25 249.88,-300.25"/>
<text xml:space="preserve" text-anchor="start" x="383.38" y="-309.25" font-family="Helvetica,sans-Serif" font-size="12.00" fill="#ece1d7">source → walshadow: physical replication (START_REPLICATION PHYSICAL)</text>
<polygon fill="none" stroke="#6e6963" points="227.38,-274 227.38,-300.25 249.88,-300.25 249.88,-274 227.38,-274"/>
<text xml:space="preserve" text-anchor="start" x="233.38" y="-283.85" font-family="Helvetica,sans-Serif" font-weight="bold" font-size="12.00" fill="#bd8183">②</text>
<polygon fill="none" stroke="#6e6963" points="249.88,-274 249.88,-300.25 958.62,-300.25 958.62,-274 249.88,-274"/>
<text xml:space="preserve" text-anchor="start" x="409.62" y="-283" font-family="Helvetica,sans-Serif" font-size="12.00" fill="#ece1d7">walshadow → shadow: walsender wire, record cadence (hot path)</text>
<polygon fill="none" stroke="#6e6963" points="227.38,-247.75 227.38,-274 249.88,-274 249.88,-247.75 227.38,-247.75"/>
<text xml:space="preserve" text-anchor="start" x="233.38" y="-257.6" font-family="Helvetica,sans-Serif" font-weight="bold" font-size="12.00" fill="#cba85e">③</text>
<polygon fill="none" stroke="#6e6963" points="249.88,-247.75 249.88,-274 958.62,-274 958.62,-247.75 249.88,-247.75"/>
<text xml:space="preserve" text-anchor="start" x="379.62" y="-256.75" font-family="Helvetica,sans-Serif" font-size="12.00" fill="#ece1d7">walshadow ↔ shadow: libpq SELECT on cache miss (pg_class / pg_attribute)</text>
<polygon fill="none" stroke="#6e6963" points="227.38,-221.5 227.38,-247.75 249.88,-247.75 249.88,-221.5 227.38,-221.5"/>
<text xml:space="preserve" text-anchor="start" x="233.38" y="-231.35" font-family="Helvetica,sans-Serif" font-weight="bold" font-size="12.00" fill="#6e6963">④</text>
<polygon fill="none" stroke="#6e6963" points="249.88,-221.5 249.88,-247.75 958.62,-247.75 958.62,-221.5 249.88,-221.5"/>
<text xml:space="preserve" text-anchor="start" x="407.38" y="-230.5" font-family="Helvetica,sans-Serif" font-size="12.00" fill="#ece1d7">walshadow → on&#45;disk: fsynced filtered WAL segments + manifests</text>
<polygon fill="none" stroke="#6e6963" points="227.38,-195.25 227.38,-221.5 249.88,-221.5 249.88,-195.25 227.38,-195.25"/>
<text xml:space="preserve" text-anchor="start" x="233.38" y="-205.1" font-family="Helvetica,sans-Serif" font-weight="bold" font-size="12.00" fill="#6e6963">⑤</text>
<polygon fill="none" stroke="#6e6963" points="249.88,-195.25 249.88,-221.5 958.62,-221.5 958.62,-195.25 249.88,-195.25"/>
<text xml:space="preserve" text-anchor="start" x="377.38" y="-204.25" font-family="Helvetica,sans-Serif" font-size="12.00" fill="#ece1d7">on&#45;disk → shadow: restore_command archive fallback when walsender stalls</text>
<polygon fill="none" stroke="#6e6963" points="227.38,-169 227.38,-195.25 249.88,-195.25 249.88,-169 227.38,-169"/>
<text xml:space="preserve" text-anchor="start" x="233.38" y="-178.85" font-family="Helvetica,sans-Serif" font-weight="bold" font-size="12.00" fill="#bf8c5f">⑥</text>
<polygon fill="none" stroke="#6e6963" points="249.88,-169 249.88,-195.25 958.62,-195.25 958.62,-169 249.88,-169"/>
<text xml:space="preserve" text-anchor="start" x="255.88" y="-178" font-family="Helvetica,sans-Serif" font-size="12.00" fill="#ece1d7">walshadow → ClickHouse: Native protocol, rows buffered across xacts, sealed as complete INSERTs (budget/deadline)</text>
<polygon fill="#34302c" stroke="none" points="227.38,-142.75 227.38,-169 958.62,-169 958.62,-142.75 227.38,-142.75"/>
<polygon fill="none" stroke="#6e6963" points="227.38,-142.75 227.38,-169 958.62,-169 958.62,-142.75 227.38,-142.75"/>
<text xml:space="preserve" text-anchor="start" x="534.88" y="-152.6" font-family="Helvetica,sans-Serif" font-weight="bold" font-size="12.00" fill="#ece1d7">where to go next</text>
<polygon fill="none" stroke="#6e6963" points="227.38,-115 227.38,-142.75 958.62,-142.75 958.62,-115 227.38,-115"/>
<text xml:space="preserve" text-anchor="start" x="458.38" y="-126.35" font-family="monospace" font-size="12.00" fill="#ece1d7">internals.svg</text>
<text xml:space="preserve" text-anchor="start" x="536.38" y="-126.35" font-family="Helvetica,sans-Serif" font-size="12.00" fill="#ece1d7"> — pipeline stages, taps, caches</text>
<polygon fill="none" stroke="#6e6963" points="227.38,-87.25 227.38,-115 958.62,-115 958.62,-87.25 227.38,-87.25"/>
<text xml:space="preserve" text-anchor="start" x="441.5" y="-98.6" font-family="monospace" font-size="12.00" fill="#ece1d7">shadow_communication.svg</text>
<text xml:space="preserve" text-anchor="start" x="585.5" y="-98.6" font-family="Helvetica,sans-Serif" font-size="12.00" fill="#ece1d7"> — channels ②③⑤ in detail</text>
<polygon fill="none" stroke="#6e6963" points="227.38,-59.5 227.38,-87.25 958.62,-87.25 958.62,-59.5 227.38,-59.5"/>
<text xml:space="preserve" text-anchor="start" x="460.25" y="-70.85" font-family="monospace" font-size="12.00" fill="#ece1d7">timeline_bootstrap.svg</text>
<text xml:space="preserve" text-anchor="start" x="592.25" y="-70.85" font-family="Helvetica,sans-Serif" font-size="12.00" fill="#ece1d7"> — greenfield bring&#45;up</text>
<polygon fill="none" stroke="#6e6963" points="227.38,-31.75 227.38,-59.5 958.62,-59.5 958.62,-31.75 227.38,-31.75"/>
<text xml:space="preserve" text-anchor="start" x="443.75" y="-43.1" font-family="monospace" font-size="12.00" fill="#ece1d7">timeline_streaming.svg</text>
<text xml:space="preserve" text-anchor="start" x="575.75" y="-43.1" font-family="Helvetica,sans-Serif" font-size="12.00" fill="#ece1d7"> — steady&#45;state record path</text>
<polygon fill="none" stroke="#6e6963" points="227.38,-4 227.38,-31.75 958.62,-31.75 958.62,-4 227.38,-4"/>
<text xml:space="preserve" text-anchor="start" x="473" y="-15.35" font-family="monospace" font-size="12.00" fill="#ece1d7">timeline_restart.svg</text>
<text xml:space="preserve" text-anchor="start" x="593" y="-15.35" font-family="Helvetica,sans-Serif" font-size="12.00" fill="#ece1d7"> — restart scenarios</text>
</g>
<!-- ch&#45;&gt;legend -->
</g>
</svg>
