<?xml version="1.0" encoding="UTF-8" standalone="no"?>
<!DOCTYPE svg PUBLIC "-//W3C//DTD SVG 1.1//EN"
 "http://www.w3.org/Graphics/SVG/1.1/DTD/svg11.dtd">
<!-- Generated by graphviz version 14.1.5 (0)
 -->
<!-- Title: overview Pages: 1 -->
<svg width="1480pt" height="523pt"
 viewBox="0.00 0.00 1480.00 523.00" xmlns="http://www.w3.org/2000/svg" xmlns:xlink="http://www.w3.org/1999/xlink">
<g id="graph0" class="graph" transform="scale(1 1) rotate(0) translate(4 519)">
<title>overview</title>
<polygon fill="#272623" stroke="none" points="-4,4 -4,-519 1476,-519 1476,4 -4,4"/>
<text xml:space="preserve" text-anchor="middle" x="736" y="-497.7" font-family="Helvetica,sans-Serif" font-size="14.00" fill="#ece1d7">walshadow — source Postgres → ClickHouse, with shadow Postgres as catalog&#45;replay sidecar</text>
<!-- src -->
<g id="node1" class="node">
<title>src</title>
<path fill="#3d3d54" stroke="#6e6963" d="M124,-362.94C124,-367.42 96.21,-371.06 62,-371.06 27.79,-371.06 0,-367.42 0,-362.94 0,-362.94 0,-289.81 0,-289.81 0,-285.33 27.79,-281.69 62,-281.69 96.21,-281.69 124,-285.33 124,-289.81 124,-289.81 124,-362.94 124,-362.94"/>
<path fill="none" stroke="#6e6963" d="M124,-362.94C124,-358.45 96.21,-354.81 62,-354.81 27.79,-354.81 0,-358.45 0,-362.94"/>
<text xml:space="preserve" text-anchor="middle" x="62" y="-343.48" font-family="Helvetica,sans-Serif" font-size="12.00" fill="#ece1d7">source</text>
<text xml:space="preserve" text-anchor="middle" x="62" y="-329.23" font-family="Helvetica,sans-Serif" font-size="12.00" fill="#ece1d7">Postgres</text>
<text xml:space="preserve" text-anchor="middle" x="62" y="-314.98" font-family="Helvetica,sans-Serif" font-size="12.00" fill="#ece1d7">(primary,</text>
<text xml:space="preserve" text-anchor="middle" x="62" y="-300.73" font-family="Helvetica,sans-Serif" font-size="12.00" fill="#ece1d7">wal_level=replica)</text>
</g>
<!-- wal -->
<g id="node2" class="node">
<title>wal</title>
<path fill="#4d3a28" stroke="#6e6963" d="M493.75,-365.88C493.75,-365.88 323.25,-365.88 323.25,-365.88 317.25,-365.88 311.25,-359.88 311.25,-353.88 311.25,-353.88 311.25,-298.88 311.25,-298.88 311.25,-292.88 317.25,-286.88 323.25,-286.88 323.25,-286.88 493.75,-286.88 493.75,-286.88 499.75,-286.88 505.75,-292.88 505.75,-298.88 505.75,-298.88 505.75,-353.88 505.75,-353.88 505.75,-359.88 499.75,-365.88 493.75,-365.88"/>
<text xml:space="preserve" text-anchor="middle" x="408.5" y="-350.48" font-family="Helvetica,sans-Serif" font-size="12.00" fill="#ece1d7">walshadow&#45;stream</text>
<text xml:space="preserve" text-anchor="middle" x="408.5" y="-322.23" font-family="Helvetica,sans-Serif" font-size="12.00" fill="#ece1d7">filters WAL (drop user&#45;heap,</text>
<text xml:space="preserve" text-anchor="middle" x="408.5" y="-307.98" font-family="Helvetica,sans-Serif" font-size="12.00" fill="#ece1d7">keep catalog) → rewrites CRC,</text>
<text xml:space="preserve" text-anchor="middle" x="408.5" y="-293.73" font-family="Helvetica,sans-Serif" font-size="12.00" fill="#ece1d7">decodes heap → emits to CH</text>
</g>
<!-- src&#45;&gt;wal -->
<g id="edge1" class="edge">
<title>src&#45;&gt;wal</title>
<path fill="none" stroke="#a1a9cc" stroke-width="2" d="M124.19,-326.38C172.28,-326.38 240.49,-326.38 297.93,-326.38"/>
<polygon fill="#a1a9cc" stroke="#a1a9cc" stroke-width="2" points="297.74,-329.88 307.74,-326.38 297.74,-322.88 297.74,-329.88"/>
<text xml:space="preserve" text-anchor="middle" x="217.62" y="-342.38" font-family="Helvetica,sans-Serif" font-size="10.00" fill="#ece1d7">① physical replication</text>
<text xml:space="preserve" text-anchor="middle" x="217.62" y="-329.62" font-family="Helvetica,sans-Serif" font-size="10.00" fill="#ece1d7">CopyData &#39;w&#39;</text>
</g>
<!-- arc -->
<g id="node3" class="node">
<title>arc</title>
<polygon fill="#4d3850" stroke="#6e6963" points="853,-489.75 747,-489.75 747,-439 859,-439 859,-483.75 853,-489.75"/>
<polyline fill="none" stroke="#6e6963" points="853,-489.75 853,-483.75"/>
<polyline fill="none" stroke="#6e6963" points="859,-483.75 853,-483.75"/>
<text xml:space="preserve" text-anchor="middle" x="803" y="-474.35" font-family="Helvetica,sans-Serif" font-size="12.00" fill="#ece1d7">out/&lt;seg&gt;</text>
<text xml:space="preserve" text-anchor="middle" x="803" y="-460.1" font-family="Helvetica,sans-Serif" font-size="12.00" fill="#ece1d7">filtered 16 MiB</text>
<text xml:space="preserve" text-anchor="middle" x="803" y="-445.85" font-family="Helvetica,sans-Serif" font-size="12.00" fill="#ece1d7">WAL + manifest</text>
</g>
<!-- wal&#45;&gt;arc -->
<g id="edge4" class="edge">
<title>wal&#45;&gt;arc</title>
<path fill="none" stroke="#6e6963" d="M506.02,-360.31C577.58,-385.47 673.23,-419.1 736.18,-441.23"/>
<polygon fill="#6e6963" stroke="#6e6963" points="734.74,-444.44 745.33,-444.45 737.06,-437.83 734.74,-444.44"/>
<text xml:space="preserve" text-anchor="middle" x="612.5" y="-435.74" font-family="Helvetica,sans-Serif" font-size="10.00" fill="#ece1d7">④ fsync segment</text>
<text xml:space="preserve" text-anchor="middle" x="612.5" y="-422.99" font-family="Helvetica,sans-Serif" font-size="10.00" fill="#ece1d7">+ manifest</text>
</g>
<!-- shd -->
<g id="node4" class="node">
<title>shd</title>
<path fill="#3d4128" stroke="#6e6963" d="M881.12,-344.94C881.12,-349.42 846.11,-353.06 803,-353.06 759.89,-353.06 724.88,-349.42 724.88,-344.94 724.88,-344.94 724.88,-271.81 724.88,-271.81 724.88,-267.33 759.89,-263.69 803,-263.69 846.11,-263.69 881.12,-267.33 881.12,-271.81 881.12,-271.81 881.12,-344.94 881.12,-344.94"/>
<path fill="none" stroke="#6e6963" d="M881.12,-344.94C881.12,-340.45 846.11,-336.81 803,-336.81 759.89,-336.81 724.88,-340.45 724.88,-344.94"/>
<text xml:space="preserve" text-anchor="middle" x="803" y="-325.48" font-family="Helvetica,sans-Serif" font-size="12.00" fill="#ece1d7">shadow</text>
<text xml:space="preserve" text-anchor="middle" x="803" y="-311.23" font-family="Helvetica,sans-Serif" font-size="12.00" fill="#ece1d7">Postgres</text>
<text xml:space="preserve" text-anchor="middle" x="803" y="-296.98" font-family="Helvetica,sans-Serif" font-size="12.00" fill="#ece1d7">(continuous recovery,</text>
<text xml:space="preserve" text-anchor="middle" x="803" y="-282.73" font-family="Helvetica,sans-Serif" font-size="12.00" fill="#ece1d7">schema/catalog mirror)</text>
</g>
<!-- wal&#45;&gt;shd -->
<g id="edge2" class="edge">
<title>wal&#45;&gt;shd</title>
<path fill="none" stroke="#bd8183" stroke-width="2" d="M506.02,-321.95C568.85,-319.07 650.26,-315.33 711.79,-312.51"/>
<polygon fill="#bd8183" stroke="#bd8183" stroke-width="2" points="711.75,-316.02 721.58,-312.06 711.43,-309.02 711.75,-316.02"/>
<text xml:space="preserve" text-anchor="middle" x="612.5" y="-336.04" font-family="Helvetica,sans-Serif" font-size="10.00" fill="#ece1d7">② walsender wire</text>
<text xml:space="preserve" text-anchor="middle" x="612.5" y="-323.29" font-family="Helvetica,sans-Serif" font-size="10.00" fill="#ece1d7">&#39;w&#39; XLogData (ms cadence)</text>
</g>
<!-- wal&#45;&gt;shd -->
<g id="edge3" class="edge">
<title>wal&#45;&gt;shd</title>
<path fill="none" stroke="#cba85e" d="M516.52,-285.35C526.3,-282.73 536.14,-280.5 545.75,-278.88 604.25,-268.97 620.33,-271.89 679.25,-278.88 690.47,-280.2 702.14,-282.19 713.63,-284.52"/>
<polygon fill="#cba85e" stroke="#cba85e" points="507.13,-287.99 515.53,-280.95 510.77,-286.97 516.75,-285.28 516.75,-285.28 516.75,-285.28 510.77,-286.97 517.97,-289.61 507.13,-287.99"/>
<polygon fill="#cba85e" stroke="#cba85e" points="712.59,-287.88 723.1,-286.54 714.04,-281.03 712.59,-287.88"/>
<text xml:space="preserve" text-anchor="middle" x="612.5" y="-294.88" font-family="Helvetica,sans-Serif" font-size="10.00" fill="#ece1d7">③ libpq SELECT</text>
<text xml:space="preserve" text-anchor="middle" x="612.5" y="-282.12" font-family="Helvetica,sans-Serif" font-size="10.00" fill="#ece1d7">catalog cache fill</text>
</g>
<!-- ch -->
<g id="node5" class="node">
<title>ch</title>
<path fill="#4d4128" stroke="#6e6963" d="M886.75,-198.91C886.75,-201.42 849.21,-203.47 803,-203.47 756.79,-203.47 719.25,-201.42 719.25,-198.91 719.25,-198.91 719.25,-157.84 719.25,-157.84 719.25,-155.33 756.79,-153.28 803,-153.28 849.21,-153.28 886.75,-155.33 886.75,-157.84 886.75,-157.84 886.75,-198.91 886.75,-198.91"/>
<path fill="none" stroke="#6e6963" d="M886.75,-198.91C886.75,-196.39 849.21,-194.34 803,-194.34 756.79,-194.34 719.25,-196.39 719.25,-198.91"/>
<text xml:space="preserve" text-anchor="middle" x="803" y="-181.22" font-family="Helvetica,sans-Serif" font-size="12.00" fill="#ece1d7">ClickHouse</text>
<text xml:space="preserve" text-anchor="middle" x="803" y="-166.97" font-family="Helvetica,sans-Serif" font-size="12.00" fill="#ece1d7">ReplacingMergeTree(_lsn)</text>
</g>
<!-- wal&#45;&gt;ch -->
<g id="edge6" class="edge">
<title>wal&#45;&gt;ch</title>
<path fill="none" stroke="#bf8c5f" stroke-width="2" d="M460.72,-286.44C485.27,-268.99 515.81,-249.63 545.75,-236.88 596.73,-215.15 657,-200.88 706.28,-191.87"/>
<polygon fill="#bf8c5f" stroke="#bf8c5f" stroke-width="2" points="706.67,-195.35 715.9,-190.16 705.44,-188.46 706.67,-195.35"/>
<text xml:space="preserve" text-anchor="middle" x="612.5" y="-252.88" font-family="Helvetica,sans-Serif" font-size="10.00" fill="#ece1d7">⑥ CH Native blocks</text>
<text xml:space="preserve" text-anchor="middle" x="612.5" y="-240.12" font-family="Helvetica,sans-Serif" font-size="10.00" fill="#ece1d7">(per&#45;xact INSERT)</text>
</g>
<!-- arc&#45;&gt;shd -->
<g id="edge5" class="edge">
<title>arc&#45;&gt;shd</title>
<path fill="none" stroke="#6e6963" stroke-dasharray="5,2" d="M803,-438.79C803,-418.77 803,-390.17 803,-364.86"/>
<polygon fill="#6e6963" stroke="#6e6963" points="806.5,-365.01 803,-355.01 799.5,-365.01 806.5,-365.01"/>
<text xml:space="preserve" text-anchor="middle" x="787.25" y="-399.28" font-family="Helvetica,sans-Serif" font-size="10.00" fill="#ece1d7">⑤ restore_command</text>
<text xml:space="preserve" text-anchor="middle" x="787.25" y="-386.53" font-family="Helvetica,sans-Serif" font-size="10.00" fill="#ece1d7">(archive fallback)</text>
</g>
<!-- legend -->
<g id="node6" class="node">
<title>legend</title>
<path fill="#6e6963" stroke="none" d="M1460,-356.75C1460,-356.75 979.75,-356.75 979.75,-356.75 973.75,-356.75 967.75,-350.75 967.75,-344.75 967.75,-344.75 967.75,-12 967.75,-12 967.75,-6 973.75,0 979.75,0 979.75,0 1460,0 1460,0 1466,0 1472,-6 1472,-12 1472,-12 1472,-344.75 1472,-344.75 1472,-350.75 1466,-356.75 1460,-356.75"/>
<polygon fill="#34302c" stroke="none" points="975.75,-326.5 975.75,-352.75 1464,-352.75 1464,-326.5 975.75,-326.5"/>
<polygon fill="none" stroke="#6e6963" points="975.75,-326.5 975.75,-352.75 1464,-352.75 1464,-326.5 975.75,-326.5"/>
<text xml:space="preserve" text-anchor="start" x="1205.25" y="-336.35" font-family="Helvetica,sans-Serif" font-weight="bold" font-size="12.00" fill="#ece1d7">wire</text>
<polygon fill="none" stroke="#6e6963" points="975.75,-300.25 975.75,-326.5 998.25,-326.5 998.25,-300.25 975.75,-300.25"/>
<text xml:space="preserve" text-anchor="start" x="981.75" y="-310.1" font-family="Helvetica,sans-Serif" font-weight="bold" font-size="12.00" fill="#a1a9cc">①</text>
<polygon fill="none" stroke="#6e6963" points="998.25,-300.25 998.25,-326.5 1464,-326.5 1464,-300.25 998.25,-300.25"/>
<text xml:space="preserve" text-anchor="start" x="1010.25" y="-309.25" font-family="Helvetica,sans-Serif" font-size="12.00" fill="#ece1d7">source → walshadow: physical replication (START_REPLICATION PHYSICAL)</text>
<polygon fill="none" stroke="#6e6963" points="975.75,-274 975.75,-300.25 998.25,-300.25 998.25,-274 975.75,-274"/>
<text xml:space="preserve" text-anchor="start" x="981.75" y="-283.85" font-family="Helvetica,sans-Serif" font-weight="bold" font-size="12.00" fill="#bd8183">②</text>
<polygon fill="none" stroke="#6e6963" points="998.25,-274 998.25,-300.25 1464,-300.25 1464,-274 998.25,-274"/>
<text xml:space="preserve" text-anchor="start" x="1007.25" y="-283" font-family="Helvetica,sans-Serif" font-size="12.00" fill="#ece1d7">walshadow → shadow: walsender wire, record cadence (Phase 13 hot path)</text>
<polygon fill="none" stroke="#6e6963" points="975.75,-247.75 975.75,-274 998.25,-274 998.25,-247.75 975.75,-247.75"/>
<text xml:space="preserve" text-anchor="start" x="981.75" y="-257.6" font-family="Helvetica,sans-Serif" font-weight="bold" font-size="12.00" fill="#cba85e">③</text>
<polygon fill="none" stroke="#6e6963" points="998.25,-247.75 998.25,-274 1464,-274 1464,-247.75 998.25,-247.75"/>
<text xml:space="preserve" text-anchor="start" x="1006.5" y="-256.75" font-family="Helvetica,sans-Serif" font-size="12.00" fill="#ece1d7">walshadow ↔ shadow: libpq SELECT on cache miss (pg_class / pg_attribute)</text>
<polygon fill="none" stroke="#6e6963" points="975.75,-221.5 975.75,-247.75 998.25,-247.75 998.25,-221.5 975.75,-221.5"/>
<text xml:space="preserve" text-anchor="start" x="981.75" y="-231.35" font-family="Helvetica,sans-Serif" font-weight="bold" font-size="12.00" fill="#6e6963">④</text>
<polygon fill="none" stroke="#6e6963" points="998.25,-221.5 998.25,-247.75 1464,-247.75 1464,-221.5 998.25,-221.5"/>
<text xml:space="preserve" text-anchor="start" x="1034.25" y="-230.5" font-family="Helvetica,sans-Serif" font-size="12.00" fill="#ece1d7">walshadow → on&#45;disk: fsynced filtered WAL segments + manifests</text>
<polygon fill="none" stroke="#6e6963" points="975.75,-195.25 975.75,-221.5 998.25,-221.5 998.25,-195.25 975.75,-195.25"/>
<text xml:space="preserve" text-anchor="start" x="981.75" y="-205.1" font-family="Helvetica,sans-Serif" font-weight="bold" font-size="12.00" fill="#6e6963">⑤</text>
<polygon fill="none" stroke="#6e6963" points="998.25,-195.25 998.25,-221.5 1464,-221.5 1464,-195.25 998.25,-195.25"/>
<text xml:space="preserve" text-anchor="start" x="1004.25" y="-204.25" font-family="Helvetica,sans-Serif" font-size="12.00" fill="#ece1d7">on&#45;disk → shadow: restore_command archive fallback when walsender stalls</text>
<polygon fill="none" stroke="#6e6963" points="975.75,-169 975.75,-195.25 998.25,-195.25 998.25,-169 975.75,-169"/>
<text xml:space="preserve" text-anchor="start" x="981.75" y="-178.85" font-family="Helvetica,sans-Serif" font-weight="bold" font-size="12.00" fill="#bf8c5f">⑥</text>
<polygon fill="none" stroke="#6e6963" points="998.25,-169 998.25,-195.25 1464,-195.25 1464,-169 998.25,-169"/>
<text xml:space="preserve" text-anchor="start" x="1008" y="-178" font-family="Helvetica,sans-Serif" font-size="12.00" fill="#ece1d7">walshadow → ClickHouse: Native protocol, per&#45;xact INSERT FORMAT Native</text>
<polygon fill="#34302c" stroke="none" points="975.75,-142.75 975.75,-169 1464,-169 1464,-142.75 975.75,-142.75"/>
<polygon fill="none" stroke="#6e6963" points="975.75,-142.75 975.75,-169 1464,-169 1464,-142.75 975.75,-142.75"/>
<text xml:space="preserve" text-anchor="start" x="1161.75" y="-152.6" font-family="Helvetica,sans-Serif" font-weight="bold" font-size="12.00" fill="#ece1d7">where to go next</text>
<polygon fill="none" stroke="#6e6963" points="975.75,-115 975.75,-142.75 1464,-142.75 1464,-115 975.75,-115"/>
<text xml:space="preserve" text-anchor="start" x="1085.25" y="-126.35" font-family="monospace" font-size="12.00" fill="#ece1d7">internals.svg</text>
<text xml:space="preserve" text-anchor="start" x="1163.25" y="-126.35" font-family="Helvetica,sans-Serif" font-size="12.00" fill="#ece1d7"> — pipeline stages, taps, caches</text>
<polygon fill="none" stroke="#6e6963" points="975.75,-87.25 975.75,-115 1464,-115 1464,-87.25 975.75,-87.25"/>
<text xml:space="preserve" text-anchor="start" x="1068.38" y="-98.6" font-family="monospace" font-size="12.00" fill="#ece1d7">shadow_communication.svg</text>
<text xml:space="preserve" text-anchor="start" x="1212.38" y="-98.6" font-family="Helvetica,sans-Serif" font-size="12.00" fill="#ece1d7"> — channels ②③⑤ in detail</text>
<polygon fill="none" stroke="#6e6963" points="975.75,-59.5 975.75,-87.25 1464,-87.25 1464,-59.5 975.75,-59.5"/>
<text xml:space="preserve" text-anchor="start" x="1087.12" y="-70.85" font-family="monospace" font-size="12.00" fill="#ece1d7">timeline_bootstrap.svg</text>
<text xml:space="preserve" text-anchor="start" x="1219.12" y="-70.85" font-family="Helvetica,sans-Serif" font-size="12.00" fill="#ece1d7"> — greenfield bring&#45;up</text>
<polygon fill="none" stroke="#6e6963" points="975.75,-31.75 975.75,-59.5 1464,-59.5 1464,-31.75 975.75,-31.75"/>
<text xml:space="preserve" text-anchor="start" x="1070.62" y="-43.1" font-family="monospace" font-size="12.00" fill="#ece1d7">timeline_streaming.svg</text>
<text xml:space="preserve" text-anchor="start" x="1202.62" y="-43.1" font-family="Helvetica,sans-Serif" font-size="12.00" fill="#ece1d7"> — steady&#45;state record path</text>
<polygon fill="none" stroke="#6e6963" points="975.75,-4 975.75,-31.75 1464,-31.75 1464,-4 975.75,-4"/>
<text xml:space="preserve" text-anchor="start" x="1099.88" y="-15.35" font-family="monospace" font-size="12.00" fill="#ece1d7">timeline_restart.svg</text>
<text xml:space="preserve" text-anchor="start" x="1219.88" y="-15.35" font-family="Helvetica,sans-Serif" font-size="12.00" fill="#ece1d7"> — restart scenarios</text>
</g>
<!-- ch&#45;&gt;legend -->
</g>
</svg>
