<?xml version="1.0" encoding="UTF-8" standalone="no"?>
<!DOCTYPE svg PUBLIC "-//W3C//DTD SVG 1.1//EN"
 "http://www.w3.org/Graphics/SVG/1.1/DTD/svg11.dtd">
<!-- Generated by graphviz version 14.1.5 (0)
 -->
<!-- Title: overview Pages: 1 -->
<svg width="975pt" height="972pt"
 viewBox="0.00 0.00 975.00 972.00" xmlns="http://www.w3.org/2000/svg" xmlns:xlink="http://www.w3.org/1999/xlink">
<g id="graph0" class="graph" transform="scale(1 1) rotate(0) translate(4 968)">
<title>overview</title>
<polygon fill="#272623" stroke="none" points="-4,4 -4,-968 970.62,-968 970.62,4 -4,4"/>
<text xml:space="preserve" text-anchor="middle" x="483.31" y="-946.7" font-family="Helvetica,sans-Serif" font-size="14.00" fill="#ece1d7">walshadow — source Postgres → ClickHouse, with shadow Postgres as catalog&#45;replay sidecar</text>
<!-- src -->
<g id="node1" class="node">
<title>src</title>
<path fill="#3d3d54" stroke="#6e6963" d="M342,-930.62C342,-935.11 314.21,-938.75 280,-938.75 245.79,-938.75 218,-935.11 218,-930.62 218,-930.62 218,-857.5 218,-857.5 218,-853.02 245.79,-849.38 280,-849.38 314.21,-849.38 342,-853.02 342,-857.5 342,-857.5 342,-930.62 342,-930.62"/>
<path fill="none" stroke="#6e6963" d="M342,-930.62C342,-926.14 314.21,-922.5 280,-922.5 245.79,-922.5 218,-926.14 218,-930.62"/>
<text xml:space="preserve" text-anchor="middle" x="280" y="-911.16" font-family="Helvetica,sans-Serif" font-size="12.00" fill="#ece1d7">source</text>
<text xml:space="preserve" text-anchor="middle" x="280" y="-896.91" font-family="Helvetica,sans-Serif" font-size="12.00" fill="#ece1d7">Postgres</text>
<text xml:space="preserve" text-anchor="middle" x="280" y="-882.66" font-family="Helvetica,sans-Serif" font-size="12.00" fill="#ece1d7">(primary,</text>
<text xml:space="preserve" text-anchor="middle" x="280" y="-868.41" font-family="Helvetica,sans-Serif" font-size="12.00" fill="#ece1d7">wal_level=replica)</text>
</g>
<!-- wal -->
<g id="node2" class="node">
<title>wal</title>
<path fill="#4d3a28" stroke="#6e6963" d="M372.75,-743.88C372.75,-743.88 187.25,-743.88 187.25,-743.88 181.25,-743.88 175.25,-737.88 175.25,-731.88 175.25,-731.88 175.25,-662.62 175.25,-662.62 175.25,-656.62 181.25,-650.62 187.25,-650.62 187.25,-650.62 372.75,-650.62 372.75,-650.62 378.75,-650.62 384.75,-656.62 384.75,-662.62 384.75,-662.62 384.75,-731.88 384.75,-731.88 384.75,-737.88 378.75,-743.88 372.75,-743.88"/>
<text xml:space="preserve" text-anchor="middle" x="280" y="-728.48" font-family="Helvetica,sans-Serif" font-size="12.00" fill="#ece1d7">walshadow&#45;stream</text>
<text xml:space="preserve" text-anchor="middle" x="280" y="-700.23" font-family="Helvetica,sans-Serif" font-size="12.00" fill="#ece1d7">filters WAL (drop user&#45;heap,</text>
<text xml:space="preserve" text-anchor="middle" x="280" y="-685.98" font-family="Helvetica,sans-Serif" font-size="12.00" fill="#ece1d7">keep catalog) → rewrites CRC,</text>
<text xml:space="preserve" text-anchor="middle" x="280" y="-671.73" font-family="Helvetica,sans-Serif" font-size="12.00" fill="#ece1d7">decodes heap → emits to CH,</text>
<text xml:space="preserve" text-anchor="middle" x="280" y="-657.48" font-family="Helvetica,sans-Serif" font-size="12.00" fill="#ece1d7">DDL events → CH ALTER/CREATE</text>
</g>
<!-- src&#45;&gt;wal -->
<g id="edge1" class="edge">
<title>src&#45;&gt;wal</title>
<path fill="none" stroke="#a1a9cc" stroke-width="2" d="M280,-849.34C280,-822.08 280,-786.65 280,-756.96"/>
<polygon fill="#a1a9cc" stroke="#a1a9cc" stroke-width="2" points="283.5,-757.22 280,-747.22 276.5,-757.22 283.5,-757.22"/>
<text xml:space="preserve" text-anchor="middle" x="333.62" y="-799.88" font-family="Helvetica,sans-Serif" font-size="10.00" fill="#ece1d7">① physical replication</text>
<text xml:space="preserve" text-anchor="middle" x="333.62" y="-787.12" font-family="Helvetica,sans-Serif" font-size="10.00" fill="#ece1d7">CopyData &#39;w&#39;</text>
</g>
<!-- arc -->
<g id="node3" class="node">
<title>arc</title>
<polygon fill="#4d3850" stroke="#6e6963" points="106,-500.31 0,-500.31 0,-449.56 112,-449.56 112,-494.31 106,-500.31"/>
<polyline fill="none" stroke="#6e6963" points="106,-500.31 106,-494.31"/>
<polyline fill="none" stroke="#6e6963" points="112,-494.31 106,-494.31"/>
<text xml:space="preserve" text-anchor="middle" x="56" y="-484.91" font-family="Helvetica,sans-Serif" font-size="12.00" fill="#ece1d7">out/&lt;seg&gt;</text>
<text xml:space="preserve" text-anchor="middle" x="56" y="-470.66" font-family="Helvetica,sans-Serif" font-size="12.00" fill="#ece1d7">filtered 16 MiB</text>
<text xml:space="preserve" text-anchor="middle" x="56" y="-456.41" font-family="Helvetica,sans-Serif" font-size="12.00" fill="#ece1d7">WAL + manifest</text>
</g>
<!-- wal&#45;&gt;arc -->
<g id="edge4" class="edge">
<title>wal&#45;&gt;arc</title>
<path fill="none" stroke="#6e6963" d="M219.32,-650.2C204.09,-637.85 188.07,-624.15 174,-610.62 140.32,-578.27 105.53,-537.5 82.53,-509.34"/>
<polygon fill="#6e6963" stroke="#6e6963" points="85.47,-507.4 76.45,-501.84 80.03,-511.81 85.47,-507.4"/>
<text xml:space="preserve" text-anchor="middle" x="216" y="-588.38" font-family="Helvetica,sans-Serif" font-size="10.00" fill="#ece1d7">④ fsync segment</text>
<text xml:space="preserve" text-anchor="middle" x="216" y="-575.62" font-family="Helvetica,sans-Serif" font-size="10.00" fill="#ece1d7">+ manifest</text>
</g>
<!-- shd -->
<g id="node4" class="node">
<title>shd</title>
<path fill="#3d4128" stroke="#6e6963" d="M412.12,-511.5C412.12,-515.98 377.11,-519.62 334,-519.62 290.89,-519.62 255.88,-515.98 255.88,-511.5 255.88,-511.5 255.88,-438.38 255.88,-438.38 255.88,-433.89 290.89,-430.25 334,-430.25 377.11,-430.25 412.12,-433.89 412.12,-438.38 412.12,-438.38 412.12,-511.5 412.12,-511.5"/>
<path fill="none" stroke="#6e6963" d="M412.12,-511.5C412.12,-507.02 377.11,-503.38 334,-503.38 290.89,-503.38 255.88,-507.02 255.88,-511.5"/>
<text xml:space="preserve" text-anchor="middle" x="334" y="-492.04" font-family="Helvetica,sans-Serif" font-size="12.00" fill="#ece1d7">shadow</text>
<text xml:space="preserve" text-anchor="middle" x="334" y="-477.79" font-family="Helvetica,sans-Serif" font-size="12.00" fill="#ece1d7">Postgres</text>
<text xml:space="preserve" text-anchor="middle" x="334" y="-463.54" font-family="Helvetica,sans-Serif" font-size="12.00" fill="#ece1d7">(continuous recovery,</text>
<text xml:space="preserve" text-anchor="middle" x="334" y="-449.29" font-family="Helvetica,sans-Serif" font-size="12.00" fill="#ece1d7">schema/catalog mirror)</text>
</g>
<!-- wal&#45;&gt;shd -->
<g id="edge2" class="edge">
<title>wal&#45;&gt;shd</title>
<path fill="none" stroke="#bd8183" stroke-width="2" d="M270.99,-650.3C267.52,-623.29 266.31,-588.83 275.5,-559.62 278.64,-549.65 283.44,-539.82 288.97,-530.61"/>
<polygon fill="#bd8183" stroke="#bd8183" stroke-width="2" points="291.89,-532.55 294.37,-522.25 286.01,-528.75 291.89,-532.55"/>
<text xml:space="preserve" text-anchor="middle" x="342.25" y="-588.38" font-family="Helvetica,sans-Serif" font-size="10.00" fill="#ece1d7">② walsender wire</text>
<text xml:space="preserve" text-anchor="middle" x="342.25" y="-575.62" font-family="Helvetica,sans-Serif" font-size="10.00" fill="#ece1d7">&#39;w&#39; XLogData (ms cadence)</text>
</g>
<!-- wal&#45;&gt;shd -->
<g id="edge3" class="edge">
<title>wal&#45;&gt;shd</title>
<path fill="none" stroke="#cba85e" d="M387.94,-643.33C398.72,-633.89 408.18,-623.03 415,-610.62 425.92,-590.76 423.5,-580.64 415,-559.62 410.31,-548.03 403.15,-537.15 395,-527.32"/>
<polygon fill="#cba85e" stroke="#cba85e" points="380.41,-649.5 385.29,-639.68 383.33,-647.1 388.14,-643.16 388.14,-643.16 388.14,-643.16 383.33,-647.1 390.99,-646.64 380.41,-649.5"/>
<polygon fill="#cba85e" stroke="#cba85e" points="397.85,-525.27 388.61,-520.09 392.61,-529.9 397.85,-525.27"/>
<text xml:space="preserve" text-anchor="middle" x="463.56" y="-588.38" font-family="Helvetica,sans-Serif" font-size="10.00" fill="#ece1d7">③ libpq SELECT</text>
<text xml:space="preserve" text-anchor="middle" x="463.56" y="-575.62" font-family="Helvetica,sans-Serif" font-size="10.00" fill="#ece1d7">catalog cache fill</text>
</g>
<!-- ch -->
<g id="node5" class="node">
<title>ch</title>
<path fill="#4d4128" stroke="#6e6963" d="M676.75,-495.47C676.75,-497.99 639.21,-500.03 593,-500.03 546.79,-500.03 509.25,-497.99 509.25,-495.47 509.25,-495.47 509.25,-454.41 509.25,-454.41 509.25,-451.89 546.79,-449.84 593,-449.84 639.21,-449.84 676.75,-451.89 676.75,-454.41 676.75,-454.41 676.75,-495.47 676.75,-495.47"/>
<path fill="none" stroke="#6e6963" d="M676.75,-495.47C676.75,-492.95 639.21,-490.91 593,-490.91 546.79,-490.91 509.25,-492.95 509.25,-495.47"/>
<text xml:space="preserve" text-anchor="middle" x="593" y="-477.79" font-family="Helvetica,sans-Serif" font-size="12.00" fill="#ece1d7">ClickHouse</text>
<text xml:space="preserve" text-anchor="middle" x="593" y="-463.54" font-family="Helvetica,sans-Serif" font-size="12.00" fill="#ece1d7">ReplacingMergeTree(_lsn)</text>
</g>
<!-- wal&#45;&gt;ch -->
<g id="edge6" class="edge">
<title>wal&#45;&gt;ch</title>
<path fill="none" stroke="#bf8c5f" stroke-width="2" d="M385.22,-674.76C428.98,-661.8 478.06,-641.59 515,-610.62 546.17,-584.5 567.65,-542.54 580.06,-512.4"/>
<polygon fill="#bf8c5f" stroke="#bf8c5f" stroke-width="2" points="583.31,-513.69 583.71,-503.1 576.8,-511.12 583.31,-513.69"/>
<text xml:space="preserve" text-anchor="middle" x="605.48" y="-601.12" font-family="Helvetica,sans-Serif" font-size="10.00" fill="#ece1d7">⑥ CH Native blocks</text>
<text xml:space="preserve" text-anchor="middle" x="605.48" y="-588.38" font-family="Helvetica,sans-Serif" font-size="10.00" fill="#ece1d7">atomic&#45;seal INSERT</text>
<text xml:space="preserve" text-anchor="middle" x="605.48" y="-575.62" font-family="Helvetica,sans-Serif" font-size="10.00" fill="#ece1d7">(buffered multi&#45;xact,</text>
<text xml:space="preserve" text-anchor="middle" x="605.48" y="-562.88" font-family="Helvetica,sans-Serif" font-size="10.00" fill="#ece1d7"> budget / deadline)</text>
</g>
<!-- arc&#45;&gt;shd -->
<g id="edge5" class="edge">
<title>arc&#45;&gt;shd</title>
<path fill="none" stroke="#6e6963" stroke-dasharray="5,2" d="M112.26,-474.94C150.05,-474.94 200.68,-474.94 244.01,-474.94"/>
<polygon fill="#6e6963" stroke="#6e6963" points="243.93,-478.44 253.93,-474.94 243.93,-471.44 243.93,-478.44"/>
<text xml:space="preserve" text-anchor="middle" x="183.94" y="-493.94" font-family="Helvetica,sans-Serif" font-size="10.00" fill="#ece1d7">⑤ restore_command</text>
<text xml:space="preserve" text-anchor="middle" x="183.94" y="-481.19" font-family="Helvetica,sans-Serif" font-size="10.00" fill="#ece1d7">(archive fallback)</text>
</g>
<!-- legend -->
<g id="node6" class="node">
<title>legend</title>
<path fill="#6e6963" stroke="none" d="M954.62,-349.25C954.62,-349.25 231.38,-349.25 231.38,-349.25 225.38,-349.25 219.38,-343.25 219.38,-337.25 219.38,-337.25 219.38,-12 219.38,-12 219.38,-6 225.38,0 231.38,0 231.38,0 954.62,0 954.62,0 960.62,0 966.62,-6 966.62,-12 966.62,-12 966.62,-337.25 966.62,-337.25 966.62,-343.25 960.62,-349.25 954.62,-349.25"/>
<polygon fill="#34302c" stroke="none" points="227.38,-319 227.38,-345.25 958.62,-345.25 958.62,-319 227.38,-319"/>
<polygon fill="none" stroke="#6e6963" points="227.38,-319 227.38,-345.25 958.62,-345.25 958.62,-319 227.38,-319"/>
<text xml:space="preserve" text-anchor="start" x="578.38" y="-328.85" font-family="Helvetica,sans-Serif" font-weight="bold" font-size="12.00" fill="#ece1d7">wire</text>
<polygon fill="none" stroke="#6e6963" points="227.38,-292.75 227.38,-319 249.88,-319 249.88,-292.75 227.38,-292.75"/>
<text xml:space="preserve" text-anchor="start" x="233.38" y="-302.6" font-family="Helvetica,sans-Serif" font-weight="bold" font-size="12.00" fill="#a1a9cc">①</text>
<polygon fill="none" stroke="#6e6963" points="249.88,-292.75 249.88,-319 958.62,-319 958.62,-292.75 249.88,-292.75"/>
<text xml:space="preserve" text-anchor="start" x="383.38" y="-301.75" font-family="Helvetica,sans-Serif" font-size="12.00" fill="#ece1d7">source → walshadow: physical replication (START_REPLICATION PHYSICAL)</text>
<polygon fill="none" stroke="#6e6963" points="227.38,-266.5 227.38,-292.75 249.88,-292.75 249.88,-266.5 227.38,-266.5"/>
<text xml:space="preserve" text-anchor="start" x="233.38" y="-276.35" font-family="Helvetica,sans-Serif" font-weight="bold" font-size="12.00" fill="#bd8183">②</text>
<polygon fill="none" stroke="#6e6963" points="249.88,-266.5 249.88,-292.75 958.62,-292.75 958.62,-266.5 249.88,-266.5"/>
<text xml:space="preserve" text-anchor="start" x="409.62" y="-275.5" font-family="Helvetica,sans-Serif" font-size="12.00" fill="#ece1d7">walshadow → shadow: walsender wire, record cadence (hot path)</text>
<polygon fill="none" stroke="#6e6963" points="227.38,-240.25 227.38,-266.5 249.88,-266.5 249.88,-240.25 227.38,-240.25"/>
<text xml:space="preserve" text-anchor="start" x="233.38" y="-250.1" font-family="Helvetica,sans-Serif" font-weight="bold" font-size="12.00" fill="#cba85e">③</text>
<polygon fill="none" stroke="#6e6963" points="249.88,-240.25 249.88,-266.5 958.62,-266.5 958.62,-240.25 249.88,-240.25"/>
<text xml:space="preserve" text-anchor="start" x="379.62" y="-249.25" font-family="Helvetica,sans-Serif" font-size="12.00" fill="#ece1d7">walshadow ↔ shadow: libpq SELECT on cache miss (pg_class / pg_attribute)</text>
<polygon fill="none" stroke="#6e6963" points="227.38,-214 227.38,-240.25 249.88,-240.25 249.88,-214 227.38,-214"/>
<text xml:space="preserve" text-anchor="start" x="233.38" y="-223.85" font-family="Helvetica,sans-Serif" font-weight="bold" font-size="12.00" fill="#6e6963">④</text>
<polygon fill="none" stroke="#6e6963" points="249.88,-214 249.88,-240.25 958.62,-240.25 958.62,-214 249.88,-214"/>
<text xml:space="preserve" text-anchor="start" x="407.38" y="-223" font-family="Helvetica,sans-Serif" font-size="12.00" fill="#ece1d7">walshadow → on&#45;disk: fsynced filtered WAL segments + manifests</text>
<polygon fill="none" stroke="#6e6963" points="227.38,-187.75 227.38,-214 249.88,-214 249.88,-187.75 227.38,-187.75"/>
<text xml:space="preserve" text-anchor="start" x="233.38" y="-197.6" font-family="Helvetica,sans-Serif" font-weight="bold" font-size="12.00" fill="#6e6963">⑤</text>
<polygon fill="none" stroke="#6e6963" points="249.88,-187.75 249.88,-214 958.62,-214 958.62,-187.75 249.88,-187.75"/>
<text xml:space="preserve" text-anchor="start" x="377.38" y="-196.75" font-family="Helvetica,sans-Serif" font-size="12.00" fill="#ece1d7">on&#45;disk → shadow: restore_command archive fallback when walsender stalls</text>
<polygon fill="none" stroke="#6e6963" points="227.38,-161.5 227.38,-187.75 249.88,-187.75 249.88,-161.5 227.38,-161.5"/>
<text xml:space="preserve" text-anchor="start" x="233.38" y="-171.35" font-family="Helvetica,sans-Serif" font-weight="bold" font-size="12.00" fill="#bf8c5f">⑥</text>
<polygon fill="none" stroke="#6e6963" points="249.88,-161.5 249.88,-187.75 958.62,-187.75 958.62,-161.5 249.88,-161.5"/>
<text xml:space="preserve" text-anchor="start" x="255.88" y="-170.5" font-family="Helvetica,sans-Serif" font-size="12.00" fill="#ece1d7">walshadow → ClickHouse: Native protocol, rows buffered across xacts, sealed as complete INSERTs (budget/deadline)</text>
<polygon fill="#34302c" stroke="none" points="227.38,-135.25 227.38,-161.5 958.62,-161.5 958.62,-135.25 227.38,-135.25"/>
<polygon fill="none" stroke="#6e6963" points="227.38,-135.25 227.38,-161.5 958.62,-161.5 958.62,-135.25 227.38,-135.25"/>
<text xml:space="preserve" text-anchor="start" x="534.88" y="-145.1" font-family="Helvetica,sans-Serif" font-weight="bold" font-size="12.00" fill="#ece1d7">where to go next</text>
<polygon fill="none" stroke="#6e6963" points="227.38,-109 227.38,-135.25 958.62,-135.25 958.62,-109 227.38,-109"/>
<text xml:space="preserve" text-anchor="start" x="448.62" y="-118.85" font-family="monospace" font-size="12.00" fill="#ece1d7">internals.svg</text>
<text xml:space="preserve" text-anchor="start" x="546.12" y="-118.85" font-family="Helvetica,sans-Serif" font-size="12.00" fill="#ece1d7"> — pipeline stages, taps, caches</text>
<polygon fill="none" stroke="#6e6963" points="227.38,-82.75 227.38,-109 958.62,-109 958.62,-82.75 227.38,-82.75"/>
<text xml:space="preserve" text-anchor="start" x="423.5" y="-92.6" font-family="monospace" font-size="12.00" fill="#ece1d7">shadow_communication.svg</text>
<text xml:space="preserve" text-anchor="start" x="603.5" y="-92.6" font-family="Helvetica,sans-Serif" font-size="12.00" fill="#ece1d7"> — channels ②③⑤ in detail</text>
<polygon fill="none" stroke="#6e6963" points="227.38,-56.5 227.38,-82.75 958.62,-82.75 958.62,-56.5 227.38,-56.5"/>
<text xml:space="preserve" text-anchor="start" x="443.75" y="-66.35" font-family="monospace" font-size="12.00" fill="#ece1d7">timeline_bootstrap.svg</text>
<text xml:space="preserve" text-anchor="start" x="608.75" y="-66.35" font-family="Helvetica,sans-Serif" font-size="12.00" fill="#ece1d7"> — greenfield bring&#45;up</text>
<polygon fill="none" stroke="#6e6963" points="227.38,-30.25 227.38,-56.5 958.62,-56.5 958.62,-30.25 227.38,-30.25"/>
<text xml:space="preserve" text-anchor="start" x="427.25" y="-40.1" font-family="monospace" font-size="12.00" fill="#ece1d7">timeline_streaming.svg</text>
<text xml:space="preserve" text-anchor="start" x="592.25" y="-40.1" font-family="Helvetica,sans-Serif" font-size="12.00" fill="#ece1d7"> — steady&#45;state record path</text>
<polygon fill="none" stroke="#6e6963" points="227.38,-4 227.38,-30.25 958.62,-30.25 958.62,-4 227.38,-4"/>
<text xml:space="preserve" text-anchor="start" x="458" y="-13.85" font-family="monospace" font-size="12.00" fill="#ece1d7">timeline_restart.svg</text>
<text xml:space="preserve" text-anchor="start" x="608" y="-13.85" font-family="Helvetica,sans-Serif" font-size="12.00" fill="#ece1d7"> — restart scenarios</text>
</g>
<!-- ch&#45;&gt;legend -->
</g>
</svg>
