<?xml version="1.0" encoding="UTF-8" standalone="no"?>
<!DOCTYPE svg PUBLIC "-//W3C//DTD SVG 1.1//EN"
 "http://www.w3.org/Graphics/SVG/1.1/DTD/svg11.dtd">
<!-- Generated by graphviz version 14.1.5 (0)
 -->
<!-- Title: overview Pages: 1 -->
<svg width="1664pt" height="529pt"
 viewBox="0.00 0.00 1664.00 529.00" xmlns="http://www.w3.org/2000/svg" xmlns:xlink="http://www.w3.org/1999/xlink">
<g id="graph0" class="graph" transform="scale(1 1) rotate(0) translate(4 525)">
<title>overview</title>
<polygon fill="#272623" stroke="none" points="-4,4 -4,-525 1659.75,-525 1659.75,4 -4,4"/>
<text xml:space="preserve" text-anchor="middle" x="827.88" y="-503.7" font-family="Helvetica,sans-Serif" font-size="14.00" fill="#ece1d7">walshadow — source Postgres → ClickHouse, with shadow Postgres as catalog&#45;replay sidecar</text>
<!-- src -->
<g id="node1" class="node">
<title>src</title>
<path fill="#3d3d54" stroke="#6e6963" d="M124,-374.94C124,-379.42 96.21,-383.06 62,-383.06 27.79,-383.06 0,-379.42 0,-374.94 0,-374.94 0,-301.81 0,-301.81 0,-297.33 27.79,-293.69 62,-293.69 96.21,-293.69 124,-297.33 124,-301.81 124,-301.81 124,-374.94 124,-374.94"/>
<path fill="none" stroke="#6e6963" d="M124,-374.94C124,-370.45 96.21,-366.81 62,-366.81 27.79,-366.81 0,-370.45 0,-374.94"/>
<text xml:space="preserve" text-anchor="middle" x="62" y="-355.48" font-family="Helvetica,sans-Serif" font-size="12.00" fill="#ece1d7">source</text>
<text xml:space="preserve" text-anchor="middle" x="62" y="-341.23" font-family="Helvetica,sans-Serif" font-size="12.00" fill="#ece1d7">Postgres</text>
<text xml:space="preserve" text-anchor="middle" x="62" y="-326.98" font-family="Helvetica,sans-Serif" font-size="12.00" fill="#ece1d7">(primary,</text>
<text xml:space="preserve" text-anchor="middle" x="62" y="-312.73" font-family="Helvetica,sans-Serif" font-size="12.00" fill="#ece1d7">wal_level=replica)</text>
</g>
<!-- wal -->
<g id="node2" class="node">
<title>wal</title>
<path fill="#4d3a28" stroke="#6e6963" d="M508.75,-385C508.75,-385 323.25,-385 323.25,-385 317.25,-385 311.25,-379 311.25,-373 311.25,-373 311.25,-303.75 311.25,-303.75 311.25,-297.75 317.25,-291.75 323.25,-291.75 323.25,-291.75 508.75,-291.75 508.75,-291.75 514.75,-291.75 520.75,-297.75 520.75,-303.75 520.75,-303.75 520.75,-373 520.75,-373 520.75,-379 514.75,-385 508.75,-385"/>
<text xml:space="preserve" text-anchor="middle" x="416" y="-369.6" font-family="Helvetica,sans-Serif" font-size="12.00" fill="#ece1d7">walshadow&#45;stream</text>
<text xml:space="preserve" text-anchor="middle" x="416" y="-341.35" font-family="Helvetica,sans-Serif" font-size="12.00" fill="#ece1d7">filters WAL (drop user&#45;heap,</text>
<text xml:space="preserve" text-anchor="middle" x="416" y="-327.1" font-family="Helvetica,sans-Serif" font-size="12.00" fill="#ece1d7">keep catalog) → rewrites CRC,</text>
<text xml:space="preserve" text-anchor="middle" x="416" y="-312.85" font-family="Helvetica,sans-Serif" font-size="12.00" fill="#ece1d7">decodes heap → emits to CH,</text>
<text xml:space="preserve" text-anchor="middle" x="416" y="-298.6" font-family="Helvetica,sans-Serif" font-size="12.00" fill="#ece1d7">DDL events → CH ALTER/CREATE</text>
</g>
<!-- src&#45;&gt;wal -->
<g id="edge1" class="edge">
<title>src&#45;&gt;wal</title>
<path fill="none" stroke="#a1a9cc" stroke-width="2" d="M124.31,-338.38C172.11,-338.38 239.89,-338.38 297.98,-338.38"/>
<polygon fill="#a1a9cc" stroke="#a1a9cc" stroke-width="2" points="297.95,-341.88 307.95,-338.38 297.95,-334.88 297.95,-341.88"/>
<text xml:space="preserve" text-anchor="middle" x="217.62" y="-354.38" font-family="Helvetica,sans-Serif" font-size="10.00" fill="#ece1d7">① physical replication</text>
<text xml:space="preserve" text-anchor="middle" x="217.62" y="-341.62" font-family="Helvetica,sans-Serif" font-size="10.00" fill="#ece1d7">CopyData &#39;w&#39;</text>
</g>
<!-- arc -->
<g id="node3" class="node">
<title>arc</title>
<polygon fill="#4d3850" stroke="#6e6963" points="879.25,-495.75 773.25,-495.75 773.25,-445 885.25,-445 885.25,-489.75 879.25,-495.75"/>
<polyline fill="none" stroke="#6e6963" points="879.25,-495.75 879.25,-489.75"/>
<polyline fill="none" stroke="#6e6963" points="885.25,-489.75 879.25,-489.75"/>
<text xml:space="preserve" text-anchor="middle" x="829.25" y="-480.35" font-family="Helvetica,sans-Serif" font-size="12.00" fill="#ece1d7">out/&lt;seg&gt;</text>
<text xml:space="preserve" text-anchor="middle" x="829.25" y="-466.1" font-family="Helvetica,sans-Serif" font-size="12.00" fill="#ece1d7">filtered 16 MiB</text>
<text xml:space="preserve" text-anchor="middle" x="829.25" y="-451.85" font-family="Helvetica,sans-Serif" font-size="12.00" fill="#ece1d7">WAL + manifest</text>
</g>
<!-- wal&#45;&gt;arc -->
<g id="edge4" class="edge">
<title>wal&#45;&gt;arc</title>
<path fill="none" stroke="#6e6963" d="M521.04,-371.77C596.73,-396.06 696.95,-428.23 762.01,-449.11"/>
<polygon fill="#6e6963" stroke="#6e6963" points="760.9,-452.43 771.49,-452.16 763.04,-445.77 760.9,-452.43"/>
<text xml:space="preserve" text-anchor="middle" x="633.12" y="-443.68" font-family="Helvetica,sans-Serif" font-size="10.00" fill="#ece1d7">④ fsync segment</text>
<text xml:space="preserve" text-anchor="middle" x="633.12" y="-430.93" font-family="Helvetica,sans-Serif" font-size="10.00" fill="#ece1d7">+ manifest</text>
</g>
<!-- shd -->
<g id="node4" class="node">
<title>shd</title>
<path fill="#3d4128" stroke="#6e6963" d="M907.38,-350.94C907.38,-355.42 872.36,-359.06 829.25,-359.06 786.14,-359.06 751.12,-355.42 751.12,-350.94 751.12,-350.94 751.12,-277.81 751.12,-277.81 751.12,-273.33 786.14,-269.69 829.25,-269.69 872.36,-269.69 907.38,-273.33 907.38,-277.81 907.38,-277.81 907.38,-350.94 907.38,-350.94"/>
<path fill="none" stroke="#6e6963" d="M907.38,-350.94C907.38,-346.45 872.36,-342.81 829.25,-342.81 786.14,-342.81 751.12,-346.45 751.12,-350.94"/>
<text xml:space="preserve" text-anchor="middle" x="829.25" y="-331.48" font-family="Helvetica,sans-Serif" font-size="12.00" fill="#ece1d7">shadow</text>
<text xml:space="preserve" text-anchor="middle" x="829.25" y="-317.23" font-family="Helvetica,sans-Serif" font-size="12.00" fill="#ece1d7">Postgres</text>
<text xml:space="preserve" text-anchor="middle" x="829.25" y="-302.98" font-family="Helvetica,sans-Serif" font-size="12.00" fill="#ece1d7">(continuous recovery,</text>
<text xml:space="preserve" text-anchor="middle" x="829.25" y="-288.73" font-family="Helvetica,sans-Serif" font-size="12.00" fill="#ece1d7">schema/catalog mirror)</text>
</g>
<!-- wal&#45;&gt;shd -->
<g id="edge2" class="edge">
<title>wal&#45;&gt;shd</title>
<path fill="none" stroke="#bd8183" stroke-width="2" d="M521.04,-332.3C587.94,-328.4 673.99,-323.38 738,-319.64"/>
<polygon fill="#bd8183" stroke="#bd8183" stroke-width="2" points="738.1,-323.14 747.88,-319.07 737.69,-316.15 738.1,-323.14"/>
<text xml:space="preserve" text-anchor="middle" x="633.12" y="-345.93" font-family="Helvetica,sans-Serif" font-size="10.00" fill="#ece1d7">② walsender wire</text>
<text xml:space="preserve" text-anchor="middle" x="633.12" y="-333.18" font-family="Helvetica,sans-Serif" font-size="10.00" fill="#ece1d7">&#39;w&#39; XLogData (ms cadence)</text>
</g>
<!-- wal&#45;&gt;shd -->
<g id="edge3" class="edge">
<title>wal&#45;&gt;shd</title>
<path fill="none" stroke="#cba85e" d="M531.62,-293.42C541.36,-290.79 551.16,-288.54 560.75,-286.88 624.13,-275.86 641.56,-279.8 705.5,-286.88 716.57,-288.1 728.1,-289.93 739.47,-292.07"/>
<polygon fill="#cba85e" stroke="#cba85e" points="522.24,-296.08 530.64,-289.02 525.88,-295.04 531.86,-293.35 531.86,-293.35 531.86,-293.35 525.88,-295.04 533.09,-297.68 522.24,-296.08"/>
<polygon fill="#cba85e" stroke="#cba85e" points="738.79,-295.5 749.28,-294.01 740.15,-288.64 738.79,-295.5"/>
<text xml:space="preserve" text-anchor="middle" x="633.12" y="-302.88" font-family="Helvetica,sans-Serif" font-size="10.00" fill="#ece1d7">③ libpq SELECT</text>
<text xml:space="preserve" text-anchor="middle" x="633.12" y="-290.12" font-family="Helvetica,sans-Serif" font-size="10.00" fill="#ece1d7">catalog cache fill</text>
</g>
<!-- ch -->
<g id="node5" class="node">
<title>ch</title>
<path fill="#4d4128" stroke="#6e6963" d="M913,-198.91C913,-201.42 875.46,-203.47 829.25,-203.47 783.04,-203.47 745.5,-201.42 745.5,-198.91 745.5,-198.91 745.5,-157.84 745.5,-157.84 745.5,-155.33 783.04,-153.28 829.25,-153.28 875.46,-153.28 913,-155.33 913,-157.84 913,-157.84 913,-198.91 913,-198.91"/>
<path fill="none" stroke="#6e6963" d="M913,-198.91C913,-196.39 875.46,-194.34 829.25,-194.34 783.04,-194.34 745.5,-196.39 745.5,-198.91"/>
<text xml:space="preserve" text-anchor="middle" x="829.25" y="-181.22" font-family="Helvetica,sans-Serif" font-size="12.00" fill="#ece1d7">ClickHouse</text>
<text xml:space="preserve" text-anchor="middle" x="829.25" y="-166.97" font-family="Helvetica,sans-Serif" font-size="12.00" fill="#ece1d7">ReplacingMergeTree(_lsn)</text>
</g>
<!-- wal&#45;&gt;ch -->
<g id="edge6" class="edge">
<title>wal&#45;&gt;ch</title>
<path fill="none" stroke="#bf8c5f" stroke-width="2" d="M468.76,-291.44C494.68,-270.3 527.56,-246.84 560.75,-232.12 614.96,-208.09 680.11,-194.71 732.54,-187.31"/>
<polygon fill="#bf8c5f" stroke="#bf8c5f" stroke-width="2" points="732.8,-190.8 742.24,-186 731.86,-183.87 732.8,-190.8"/>
<text xml:space="preserve" text-anchor="middle" x="633.12" y="-260.88" font-family="Helvetica,sans-Serif" font-size="10.00" fill="#ece1d7">⑥ CH Native blocks</text>
<text xml:space="preserve" text-anchor="middle" x="633.12" y="-248.12" font-family="Helvetica,sans-Serif" font-size="10.00" fill="#ece1d7">held&#45;open INSERT</text>
<text xml:space="preserve" text-anchor="middle" x="633.12" y="-235.38" font-family="Helvetica,sans-Serif" font-size="10.00" fill="#ece1d7">(multi&#45;xact, deadline&#45;flushed)</text>
</g>
<!-- arc&#45;&gt;shd -->
<g id="edge5" class="edge">
<title>arc&#45;&gt;shd</title>
<path fill="none" stroke="#6e6963" stroke-dasharray="5,2" d="M829.25,-444.79C829.25,-424.77 829.25,-396.17 829.25,-370.86"/>
<polygon fill="#6e6963" stroke="#6e6963" points="832.75,-371.01 829.25,-361.01 825.75,-371.01 832.75,-371.01"/>
<text xml:space="preserve" text-anchor="middle" x="813.5" y="-405.28" font-family="Helvetica,sans-Serif" font-size="10.00" fill="#ece1d7">⑤ restore_command</text>
<text xml:space="preserve" text-anchor="middle" x="813.5" y="-392.53" font-family="Helvetica,sans-Serif" font-size="10.00" fill="#ece1d7">(archive fallback)</text>
</g>
<!-- legend -->
<g id="node6" class="node">
<title>legend</title>
<path fill="#6e6963" stroke="none" d="M1643.75,-356.75C1643.75,-356.75 1006,-356.75 1006,-356.75 1000,-356.75 994,-350.75 994,-344.75 994,-344.75 994,-12 994,-12 994,-6 1000,0 1006,0 1006,0 1643.75,0 1643.75,0 1649.75,0 1655.75,-6 1655.75,-12 1655.75,-12 1655.75,-344.75 1655.75,-344.75 1655.75,-350.75 1649.75,-356.75 1643.75,-356.75"/>
<polygon fill="#34302c" stroke="none" points="1002,-326.5 1002,-352.75 1647.75,-352.75 1647.75,-326.5 1002,-326.5"/>
<polygon fill="none" stroke="#6e6963" points="1002,-326.5 1002,-352.75 1647.75,-352.75 1647.75,-326.5 1002,-326.5"/>
<text xml:space="preserve" text-anchor="start" x="1310.25" y="-336.35" font-family="Helvetica,sans-Serif" font-weight="bold" font-size="12.00" fill="#ece1d7">wire</text>
<polygon fill="none" stroke="#6e6963" points="1002,-300.25 1002,-326.5 1024.5,-326.5 1024.5,-300.25 1002,-300.25"/>
<text xml:space="preserve" text-anchor="start" x="1008" y="-310.1" font-family="Helvetica,sans-Serif" font-weight="bold" font-size="12.00" fill="#a1a9cc">①</text>
<polygon fill="none" stroke="#6e6963" points="1024.5,-300.25 1024.5,-326.5 1647.75,-326.5 1647.75,-300.25 1024.5,-300.25"/>
<text xml:space="preserve" text-anchor="start" x="1115.25" y="-309.25" font-family="Helvetica,sans-Serif" font-size="12.00" fill="#ece1d7">source → walshadow: physical replication (START_REPLICATION PHYSICAL)</text>
<polygon fill="none" stroke="#6e6963" points="1002,-274 1002,-300.25 1024.5,-300.25 1024.5,-274 1002,-274"/>
<text xml:space="preserve" text-anchor="start" x="1008" y="-283.85" font-family="Helvetica,sans-Serif" font-weight="bold" font-size="12.00" fill="#bd8183">②</text>
<polygon fill="none" stroke="#6e6963" points="1024.5,-274 1024.5,-300.25 1647.75,-300.25 1647.75,-274 1024.5,-274"/>
<text xml:space="preserve" text-anchor="start" x="1112.25" y="-283" font-family="Helvetica,sans-Serif" font-size="12.00" fill="#ece1d7">walshadow → shadow: walsender wire, record cadence (Phase 13 hot path)</text>
<polygon fill="none" stroke="#6e6963" points="1002,-247.75 1002,-274 1024.5,-274 1024.5,-247.75 1002,-247.75"/>
<text xml:space="preserve" text-anchor="start" x="1008" y="-257.6" font-family="Helvetica,sans-Serif" font-weight="bold" font-size="12.00" fill="#cba85e">③</text>
<polygon fill="none" stroke="#6e6963" points="1024.5,-247.75 1024.5,-274 1647.75,-274 1647.75,-247.75 1024.5,-247.75"/>
<text xml:space="preserve" text-anchor="start" x="1111.5" y="-256.75" font-family="Helvetica,sans-Serif" font-size="12.00" fill="#ece1d7">walshadow ↔ shadow: libpq SELECT on cache miss (pg_class / pg_attribute)</text>
<polygon fill="none" stroke="#6e6963" points="1002,-221.5 1002,-247.75 1024.5,-247.75 1024.5,-221.5 1002,-221.5"/>
<text xml:space="preserve" text-anchor="start" x="1008" y="-231.35" font-family="Helvetica,sans-Serif" font-weight="bold" font-size="12.00" fill="#6e6963">④</text>
<polygon fill="none" stroke="#6e6963" points="1024.5,-221.5 1024.5,-247.75 1647.75,-247.75 1647.75,-221.5 1024.5,-221.5"/>
<text xml:space="preserve" text-anchor="start" x="1139.25" y="-230.5" font-family="Helvetica,sans-Serif" font-size="12.00" fill="#ece1d7">walshadow → on&#45;disk: fsynced filtered WAL segments + manifests</text>
<polygon fill="none" stroke="#6e6963" points="1002,-195.25 1002,-221.5 1024.5,-221.5 1024.5,-195.25 1002,-195.25"/>
<text xml:space="preserve" text-anchor="start" x="1008" y="-205.1" font-family="Helvetica,sans-Serif" font-weight="bold" font-size="12.00" fill="#6e6963">⑤</text>
<polygon fill="none" stroke="#6e6963" points="1024.5,-195.25 1024.5,-221.5 1647.75,-221.5 1647.75,-195.25 1024.5,-195.25"/>
<text xml:space="preserve" text-anchor="start" x="1109.25" y="-204.25" font-family="Helvetica,sans-Serif" font-size="12.00" fill="#ece1d7">on&#45;disk → shadow: restore_command archive fallback when walsender stalls</text>
<polygon fill="none" stroke="#6e6963" points="1002,-169 1002,-195.25 1024.5,-195.25 1024.5,-169 1002,-169"/>
<text xml:space="preserve" text-anchor="start" x="1008" y="-178.85" font-family="Helvetica,sans-Serif" font-weight="bold" font-size="12.00" fill="#bf8c5f">⑥</text>
<polygon fill="none" stroke="#6e6963" points="1024.5,-169 1024.5,-195.25 1647.75,-195.25 1647.75,-169 1024.5,-169"/>
<text xml:space="preserve" text-anchor="start" x="1030.5" y="-178" font-family="Helvetica,sans-Serif" font-size="12.00" fill="#ece1d7">walshadow → ClickHouse: Native protocol, INSERT held open across xacts, deadline&#45;flushed (PHASE14)</text>
<polygon fill="#34302c" stroke="none" points="1002,-142.75 1002,-169 1647.75,-169 1647.75,-142.75 1002,-142.75"/>
<polygon fill="none" stroke="#6e6963" points="1002,-142.75 1002,-169 1647.75,-169 1647.75,-142.75 1002,-142.75"/>
<text xml:space="preserve" text-anchor="start" x="1266.75" y="-152.6" font-family="Helvetica,sans-Serif" font-weight="bold" font-size="12.00" fill="#ece1d7">where to go next</text>
<polygon fill="none" stroke="#6e6963" points="1002,-115 1002,-142.75 1647.75,-142.75 1647.75,-115 1002,-115"/>
<text xml:space="preserve" text-anchor="start" x="1190.25" y="-126.35" font-family="monospace" font-size="12.00" fill="#ece1d7">internals.svg</text>
<text xml:space="preserve" text-anchor="start" x="1268.25" y="-126.35" font-family="Helvetica,sans-Serif" font-size="12.00" fill="#ece1d7"> — pipeline stages, taps, caches</text>
<polygon fill="none" stroke="#6e6963" points="1002,-87.25 1002,-115 1647.75,-115 1647.75,-87.25 1002,-87.25"/>
<text xml:space="preserve" text-anchor="start" x="1173.38" y="-98.6" font-family="monospace" font-size="12.00" fill="#ece1d7">shadow_communication.svg</text>
<text xml:space="preserve" text-anchor="start" x="1317.38" y="-98.6" font-family="Helvetica,sans-Serif" font-size="12.00" fill="#ece1d7"> — channels ②③⑤ in detail</text>
<polygon fill="none" stroke="#6e6963" points="1002,-59.5 1002,-87.25 1647.75,-87.25 1647.75,-59.5 1002,-59.5"/>
<text xml:space="preserve" text-anchor="start" x="1192.12" y="-70.85" font-family="monospace" font-size="12.00" fill="#ece1d7">timeline_bootstrap.svg</text>
<text xml:space="preserve" text-anchor="start" x="1324.12" y="-70.85" font-family="Helvetica,sans-Serif" font-size="12.00" fill="#ece1d7"> — greenfield bring&#45;up</text>
<polygon fill="none" stroke="#6e6963" points="1002,-31.75 1002,-59.5 1647.75,-59.5 1647.75,-31.75 1002,-31.75"/>
<text xml:space="preserve" text-anchor="start" x="1175.62" y="-43.1" font-family="monospace" font-size="12.00" fill="#ece1d7">timeline_streaming.svg</text>
<text xml:space="preserve" text-anchor="start" x="1307.62" y="-43.1" font-family="Helvetica,sans-Serif" font-size="12.00" fill="#ece1d7"> — steady&#45;state record path</text>
<polygon fill="none" stroke="#6e6963" points="1002,-4 1002,-31.75 1647.75,-31.75 1647.75,-4 1002,-4"/>
<text xml:space="preserve" text-anchor="start" x="1204.88" y="-15.35" font-family="monospace" font-size="12.00" fill="#ece1d7">timeline_restart.svg</text>
<text xml:space="preserve" text-anchor="start" x="1324.88" y="-15.35" font-family="Helvetica,sans-Serif" font-size="12.00" fill="#ece1d7"> — restart scenarios</text>
</g>
<!-- ch&#45;&gt;legend -->
</g>
</svg>
