<?xml version="1.0" encoding="UTF-8" standalone="no"?>
<!DOCTYPE svg PUBLIC "-//W3C//DTD SVG 1.1//EN"
 "http://www.w3.org/Graphics/SVG/1.1/DTD/svg11.dtd">
<!-- Generated by graphviz version 14.1.5 (0)
 -->
<!-- Title: overview Pages: 1 -->
<svg width="898pt" height="967pt"
 viewBox="0.00 0.00 898.00 967.00" xmlns="http://www.w3.org/2000/svg" xmlns:xlink="http://www.w3.org/1999/xlink">
<g id="graph0" class="graph" transform="scale(1 1) rotate(0) translate(4 962.75)">
<title>overview</title>
<polygon fill="#272623" stroke="none" points="-4,4 -4,-962.75 894.12,-962.75 894.12,4 -4,4"/>
<text xml:space="preserve" text-anchor="middle" x="445.06" y="-941.45" font-family="Helvetica,sans-Serif" font-size="14.00" fill="#ece1d7">walshadow — source Postgres → ClickHouse, with shadow Postgres as catalog&#45;replay sidecar</text>
<!-- src -->
<g id="node1" class="node">
<title>src</title>
<path fill="#3d3d54" stroke="#6e6963" d="M342,-925.38C342,-929.86 314.21,-933.5 280,-933.5 245.79,-933.5 218,-929.86 218,-925.38 218,-925.38 218,-852.25 218,-852.25 218,-847.77 245.79,-844.12 280,-844.12 314.21,-844.12 342,-847.77 342,-852.25 342,-852.25 342,-925.38 342,-925.38"/>
<path fill="none" stroke="#6e6963" d="M342,-925.38C342,-920.89 314.21,-917.25 280,-917.25 245.79,-917.25 218,-920.89 218,-925.38"/>
<text xml:space="preserve" text-anchor="middle" x="280" y="-905.91" font-family="Helvetica,sans-Serif" font-size="12.00" fill="#ece1d7">source</text>
<text xml:space="preserve" text-anchor="middle" x="280" y="-891.66" font-family="Helvetica,sans-Serif" font-size="12.00" fill="#ece1d7">Postgres</text>
<text xml:space="preserve" text-anchor="middle" x="280" y="-877.41" font-family="Helvetica,sans-Serif" font-size="12.00" fill="#ece1d7">(primary,</text>
<text xml:space="preserve" text-anchor="middle" x="280" y="-863.16" font-family="Helvetica,sans-Serif" font-size="12.00" fill="#ece1d7">wal_level=replica)</text>
</g>
<!-- wal -->
<g id="node2" class="node">
<title>wal</title>
<path fill="#4d3a28" stroke="#6e6963" d="M372.75,-738.62C372.75,-738.62 187.25,-738.62 187.25,-738.62 181.25,-738.62 175.25,-732.62 175.25,-726.62 175.25,-726.62 175.25,-657.38 175.25,-657.38 175.25,-651.38 181.25,-645.38 187.25,-645.38 187.25,-645.38 372.75,-645.38 372.75,-645.38 378.75,-645.38 384.75,-651.38 384.75,-657.38 384.75,-657.38 384.75,-726.62 384.75,-726.62 384.75,-732.62 378.75,-738.62 372.75,-738.62"/>
<text xml:space="preserve" text-anchor="middle" x="280" y="-723.23" font-family="Helvetica,sans-Serif" font-size="12.00" fill="#ece1d7">walshadow&#45;stream</text>
<text xml:space="preserve" text-anchor="middle" x="280" y="-694.98" font-family="Helvetica,sans-Serif" font-size="12.00" fill="#ece1d7">filters WAL (drop user&#45;heap,</text>
<text xml:space="preserve" text-anchor="middle" x="280" y="-680.73" font-family="Helvetica,sans-Serif" font-size="12.00" fill="#ece1d7">keep catalog) → rewrites CRC,</text>
<text xml:space="preserve" text-anchor="middle" x="280" y="-666.48" font-family="Helvetica,sans-Serif" font-size="12.00" fill="#ece1d7">decodes heap → emits to CH,</text>
<text xml:space="preserve" text-anchor="middle" x="280" y="-652.23" font-family="Helvetica,sans-Serif" font-size="12.00" fill="#ece1d7">DDL events → CH ALTER/CREATE</text>
</g>
<!-- src&#45;&gt;wal -->
<g id="edge1" class="edge">
<title>src&#45;&gt;wal</title>
<path fill="none" stroke="#a1a9cc" stroke-width="2" d="M280,-844.09C280,-816.83 280,-781.4 280,-751.71"/>
<polygon fill="#a1a9cc" stroke="#a1a9cc" stroke-width="2" points="283.5,-751.97 280,-741.97 276.5,-751.97 283.5,-751.97"/>
<text xml:space="preserve" text-anchor="middle" x="333.62" y="-794.62" font-family="Helvetica,sans-Serif" font-size="10.00" fill="#ece1d7">① physical replication</text>
<text xml:space="preserve" text-anchor="middle" x="333.62" y="-781.88" font-family="Helvetica,sans-Serif" font-size="10.00" fill="#ece1d7">CopyData &#39;w&#39;</text>
</g>
<!-- arc -->
<g id="node3" class="node">
<title>arc</title>
<polygon fill="#4d3850" stroke="#6e6963" points="106,-507.81 0,-507.81 0,-457.06 112,-457.06 112,-501.81 106,-507.81"/>
<polyline fill="none" stroke="#6e6963" points="106,-507.81 106,-501.81"/>
<polyline fill="none" stroke="#6e6963" points="112,-501.81 106,-501.81"/>
<text xml:space="preserve" text-anchor="middle" x="56" y="-492.41" font-family="Helvetica,sans-Serif" font-size="12.00" fill="#ece1d7">out/&lt;seg&gt;</text>
<text xml:space="preserve" text-anchor="middle" x="56" y="-478.16" font-family="Helvetica,sans-Serif" font-size="12.00" fill="#ece1d7">filtered 16 MiB</text>
<text xml:space="preserve" text-anchor="middle" x="56" y="-463.91" font-family="Helvetica,sans-Serif" font-size="12.00" fill="#ece1d7">WAL + manifest</text>
</g>
<!-- wal&#45;&gt;arc -->
<g id="edge4" class="edge">
<title>wal&#45;&gt;arc</title>
<path fill="none" stroke="#6e6963" d="M221.24,-645.04C205.9,-632.51 189.58,-618.71 175,-605.38 143.43,-576.5 109.54,-541.32 86.04,-516.19"/>
<polygon fill="#6e6963" stroke="#6e6963" points="88.89,-514.11 79.51,-509.18 83.77,-518.88 88.89,-514.11"/>
<text xml:space="preserve" text-anchor="middle" x="217" y="-589.5" font-family="Helvetica,sans-Serif" font-size="10.00" fill="#ece1d7">④ fsync segment</text>
<text xml:space="preserve" text-anchor="middle" x="217" y="-576.75" font-family="Helvetica,sans-Serif" font-size="10.00" fill="#ece1d7">+ manifest</text>
</g>
<!-- shd -->
<g id="node4" class="node">
<title>shd</title>
<path fill="#3d4128" stroke="#6e6963" d="M412.12,-519C412.12,-523.48 377.11,-527.12 334,-527.12 290.89,-527.12 255.88,-523.48 255.88,-519 255.88,-519 255.88,-445.88 255.88,-445.88 255.88,-441.39 290.89,-437.75 334,-437.75 377.11,-437.75 412.12,-441.39 412.12,-445.88 412.12,-445.88 412.12,-519 412.12,-519"/>
<path fill="none" stroke="#6e6963" d="M412.12,-519C412.12,-514.52 377.11,-510.88 334,-510.88 290.89,-510.88 255.88,-514.52 255.88,-519"/>
<text xml:space="preserve" text-anchor="middle" x="334" y="-499.54" font-family="Helvetica,sans-Serif" font-size="12.00" fill="#ece1d7">shadow</text>
<text xml:space="preserve" text-anchor="middle" x="334" y="-485.29" font-family="Helvetica,sans-Serif" font-size="12.00" fill="#ece1d7">Postgres</text>
<text xml:space="preserve" text-anchor="middle" x="334" y="-471.04" font-family="Helvetica,sans-Serif" font-size="12.00" fill="#ece1d7">(continuous recovery,</text>
<text xml:space="preserve" text-anchor="middle" x="334" y="-456.79" font-family="Helvetica,sans-Serif" font-size="12.00" fill="#ece1d7">schema/catalog mirror)</text>
</g>
<!-- wal&#45;&gt;shd -->
<g id="edge2" class="edge">
<title>wal&#45;&gt;shd</title>
<path fill="none" stroke="#bd8183" stroke-width="2" d="M271.08,-645C268.26,-621.23 267.65,-592.07 275.5,-567.12 278.64,-557.15 283.44,-547.32 288.97,-538.11"/>
<polygon fill="#bd8183" stroke="#bd8183" stroke-width="2" points="291.89,-540.05 294.37,-529.75 286.01,-536.25 291.89,-540.05"/>
<text xml:space="preserve" text-anchor="middle" x="342.25" y="-589.5" font-family="Helvetica,sans-Serif" font-size="10.00" fill="#ece1d7">② walsender wire</text>
<text xml:space="preserve" text-anchor="middle" x="342.25" y="-576.75" font-family="Helvetica,sans-Serif" font-size="10.00" fill="#ece1d7">&#39;w&#39; XLogData (ms cadence)</text>
</g>
<!-- wal&#45;&gt;shd -->
<g id="edge3" class="edge">
<title>wal&#45;&gt;shd</title>
<path fill="none" stroke="#cba85e" d="M387.94,-638.08C398.72,-628.64 408.18,-617.78 415,-605.38 428.24,-581.29 415.84,-555.8 397.1,-534.38"/>
<polygon fill="#cba85e" stroke="#cba85e" points="380.41,-644.25 385.29,-634.43 383.33,-641.85 388.14,-637.91 388.14,-637.91 388.14,-637.91 383.33,-641.85 390.99,-641.39 380.41,-644.25"/>
<polygon fill="#cba85e" stroke="#cba85e" points="399.77,-532.1 390.38,-527.18 394.65,-536.88 399.77,-532.1"/>
<text xml:space="preserve" text-anchor="middle" x="461.77" y="-589.5" font-family="Helvetica,sans-Serif" font-size="10.00" fill="#ece1d7">③ libpq SELECT</text>
<text xml:space="preserve" text-anchor="middle" x="461.77" y="-576.75" font-family="Helvetica,sans-Serif" font-size="10.00" fill="#ece1d7">catalog cache fill</text>
</g>
<!-- ch -->
<g id="node5" class="node">
<title>ch</title>
<path fill="#4d4128" stroke="#6e6963" d="M676.75,-502.97C676.75,-505.49 639.21,-507.53 593,-507.53 546.79,-507.53 509.25,-505.49 509.25,-502.97 509.25,-502.97 509.25,-461.91 509.25,-461.91 509.25,-459.39 546.79,-457.34 593,-457.34 639.21,-457.34 676.75,-459.39 676.75,-461.91 676.75,-461.91 676.75,-502.97 676.75,-502.97"/>
<path fill="none" stroke="#6e6963" d="M676.75,-502.97C676.75,-500.45 639.21,-498.41 593,-498.41 546.79,-498.41 509.25,-500.45 509.25,-502.97"/>
<text xml:space="preserve" text-anchor="middle" x="593" y="-485.29" font-family="Helvetica,sans-Serif" font-size="12.00" fill="#ece1d7">ClickHouse</text>
<text xml:space="preserve" text-anchor="middle" x="593" y="-471.04" font-family="Helvetica,sans-Serif" font-size="12.00" fill="#ece1d7">ReplacingMergeTree(_lsn)</text>
</g>
<!-- wal&#45;&gt;ch -->
<g id="edge6" class="edge">
<title>wal&#45;&gt;ch</title>
<path fill="none" stroke="#bf8c5f" stroke-width="2" d="M384.98,-667.89C427.86,-654.72 475.96,-634.79 513,-605.38 541.71,-582.57 563.54,-546.55 577.09,-519.55"/>
<polygon fill="#bf8c5f" stroke="#bf8c5f" stroke-width="2" points="580.22,-521.12 581.41,-510.6 573.91,-518.08 580.22,-521.12"/>
<text xml:space="preserve" text-anchor="middle" x="620.47" y="-595.88" font-family="Helvetica,sans-Serif" font-size="10.00" fill="#ece1d7">⑥ CH Native blocks</text>
<text xml:space="preserve" text-anchor="middle" x="620.47" y="-583.12" font-family="Helvetica,sans-Serif" font-size="10.00" fill="#ece1d7">held&#45;open INSERT</text>
<text xml:space="preserve" text-anchor="middle" x="620.47" y="-570.38" font-family="Helvetica,sans-Serif" font-size="10.00" fill="#ece1d7">(multi&#45;xact, deadline&#45;flushed)</text>
</g>
<!-- arc&#45;&gt;shd -->
<g id="edge5" class="edge">
<title>arc&#45;&gt;shd</title>
<path fill="none" stroke="#6e6963" stroke-dasharray="5,2" d="M112.26,-482.44C150.05,-482.44 200.68,-482.44 244.01,-482.44"/>
<polygon fill="#6e6963" stroke="#6e6963" points="243.93,-485.94 253.93,-482.44 243.93,-478.94 243.93,-485.94"/>
<text xml:space="preserve" text-anchor="middle" x="183.94" y="-501.44" font-family="Helvetica,sans-Serif" font-size="10.00" fill="#ece1d7">⑤ restore_command</text>
<text xml:space="preserve" text-anchor="middle" x="183.94" y="-488.69" font-family="Helvetica,sans-Serif" font-size="10.00" fill="#ece1d7">(archive fallback)</text>
</g>
<!-- legend -->
<g id="node6" class="node">
<title>legend</title>
<path fill="#6e6963" stroke="none" d="M878.12,-356.75C878.12,-356.75 307.88,-356.75 307.88,-356.75 301.88,-356.75 295.88,-350.75 295.88,-344.75 295.88,-344.75 295.88,-12 295.88,-12 295.88,-6 301.88,0 307.88,0 307.88,0 878.12,0 878.12,0 884.12,0 890.12,-6 890.12,-12 890.12,-12 890.12,-344.75 890.12,-344.75 890.12,-350.75 884.12,-356.75 878.12,-356.75"/>
<polygon fill="#34302c" stroke="none" points="303.88,-326.5 303.88,-352.75 882.12,-352.75 882.12,-326.5 303.88,-326.5"/>
<polygon fill="none" stroke="#6e6963" points="303.88,-326.5 303.88,-352.75 882.12,-352.75 882.12,-326.5 303.88,-326.5"/>
<text xml:space="preserve" text-anchor="start" x="578.38" y="-336.35" font-family="Helvetica,sans-Serif" font-weight="bold" font-size="12.00" fill="#ece1d7">wire</text>
<polygon fill="none" stroke="#6e6963" points="303.88,-300.25 303.88,-326.5 326.38,-326.5 326.38,-300.25 303.88,-300.25"/>
<text xml:space="preserve" text-anchor="start" x="309.88" y="-310.1" font-family="Helvetica,sans-Serif" font-weight="bold" font-size="12.00" fill="#a1a9cc">①</text>
<polygon fill="none" stroke="#6e6963" points="326.38,-300.25 326.38,-326.5 882.12,-326.5 882.12,-300.25 326.38,-300.25"/>
<text xml:space="preserve" text-anchor="start" x="383.38" y="-309.25" font-family="Helvetica,sans-Serif" font-size="12.00" fill="#ece1d7">source → walshadow: physical replication (START_REPLICATION PHYSICAL)</text>
<polygon fill="none" stroke="#6e6963" points="303.88,-274 303.88,-300.25 326.38,-300.25 326.38,-274 303.88,-274"/>
<text xml:space="preserve" text-anchor="start" x="309.88" y="-283.85" font-family="Helvetica,sans-Serif" font-weight="bold" font-size="12.00" fill="#bd8183">②</text>
<polygon fill="none" stroke="#6e6963" points="326.38,-274 326.38,-300.25 882.12,-300.25 882.12,-274 326.38,-274"/>
<text xml:space="preserve" text-anchor="start" x="409.62" y="-283" font-family="Helvetica,sans-Serif" font-size="12.00" fill="#ece1d7">walshadow → shadow: walsender wire, record cadence (hot path)</text>
<polygon fill="none" stroke="#6e6963" points="303.88,-247.75 303.88,-274 326.38,-274 326.38,-247.75 303.88,-247.75"/>
<text xml:space="preserve" text-anchor="start" x="309.88" y="-257.6" font-family="Helvetica,sans-Serif" font-weight="bold" font-size="12.00" fill="#cba85e">③</text>
<polygon fill="none" stroke="#6e6963" points="326.38,-247.75 326.38,-274 882.12,-274 882.12,-247.75 326.38,-247.75"/>
<text xml:space="preserve" text-anchor="start" x="379.62" y="-256.75" font-family="Helvetica,sans-Serif" font-size="12.00" fill="#ece1d7">walshadow ↔ shadow: libpq SELECT on cache miss (pg_class / pg_attribute)</text>
<polygon fill="none" stroke="#6e6963" points="303.88,-221.5 303.88,-247.75 326.38,-247.75 326.38,-221.5 303.88,-221.5"/>
<text xml:space="preserve" text-anchor="start" x="309.88" y="-231.35" font-family="Helvetica,sans-Serif" font-weight="bold" font-size="12.00" fill="#6e6963">④</text>
<polygon fill="none" stroke="#6e6963" points="326.38,-221.5 326.38,-247.75 882.12,-247.75 882.12,-221.5 326.38,-221.5"/>
<text xml:space="preserve" text-anchor="start" x="407.38" y="-230.5" font-family="Helvetica,sans-Serif" font-size="12.00" fill="#ece1d7">walshadow → on&#45;disk: fsynced filtered WAL segments + manifests</text>
<polygon fill="none" stroke="#6e6963" points="303.88,-195.25 303.88,-221.5 326.38,-221.5 326.38,-195.25 303.88,-195.25"/>
<text xml:space="preserve" text-anchor="start" x="309.88" y="-205.1" font-family="Helvetica,sans-Serif" font-weight="bold" font-size="12.00" fill="#6e6963">⑤</text>
<polygon fill="none" stroke="#6e6963" points="326.38,-195.25 326.38,-221.5 882.12,-221.5 882.12,-195.25 326.38,-195.25"/>
<text xml:space="preserve" text-anchor="start" x="377.38" y="-204.25" font-family="Helvetica,sans-Serif" font-size="12.00" fill="#ece1d7">on&#45;disk → shadow: restore_command archive fallback when walsender stalls</text>
<polygon fill="none" stroke="#6e6963" points="303.88,-169 303.88,-195.25 326.38,-195.25 326.38,-169 303.88,-169"/>
<text xml:space="preserve" text-anchor="start" x="309.88" y="-178.85" font-family="Helvetica,sans-Serif" font-weight="bold" font-size="12.00" fill="#bf8c5f">⑥</text>
<polygon fill="none" stroke="#6e6963" points="326.38,-169 326.38,-195.25 882.12,-195.25 882.12,-169 326.38,-169"/>
<text xml:space="preserve" text-anchor="start" x="332.38" y="-178" font-family="Helvetica,sans-Serif" font-size="12.00" fill="#ece1d7">walshadow → ClickHouse: Native protocol, INSERT held open across xacts, deadline&#45;flushed</text>
<polygon fill="#34302c" stroke="none" points="303.88,-142.75 303.88,-169 882.12,-169 882.12,-142.75 303.88,-142.75"/>
<polygon fill="none" stroke="#6e6963" points="303.88,-142.75 303.88,-169 882.12,-169 882.12,-142.75 303.88,-142.75"/>
<text xml:space="preserve" text-anchor="start" x="534.88" y="-152.6" font-family="Helvetica,sans-Serif" font-weight="bold" font-size="12.00" fill="#ece1d7">where to go next</text>
<polygon fill="none" stroke="#6e6963" points="303.88,-115 303.88,-142.75 882.12,-142.75 882.12,-115 303.88,-115"/>
<text xml:space="preserve" text-anchor="start" x="458.38" y="-126.35" font-family="monospace" font-size="12.00" fill="#ece1d7">internals.svg</text>
<text xml:space="preserve" text-anchor="start" x="536.38" y="-126.35" font-family="Helvetica,sans-Serif" font-size="12.00" fill="#ece1d7"> — pipeline stages, taps, caches</text>
<polygon fill="none" stroke="#6e6963" points="303.88,-87.25 303.88,-115 882.12,-115 882.12,-87.25 303.88,-87.25"/>
<text xml:space="preserve" text-anchor="start" x="441.5" y="-98.6" font-family="monospace" font-size="12.00" fill="#ece1d7">shadow_communication.svg</text>
<text xml:space="preserve" text-anchor="start" x="585.5" y="-98.6" font-family="Helvetica,sans-Serif" font-size="12.00" fill="#ece1d7"> — channels ②③⑤ in detail</text>
<polygon fill="none" stroke="#6e6963" points="303.88,-59.5 303.88,-87.25 882.12,-87.25 882.12,-59.5 303.88,-59.5"/>
<text xml:space="preserve" text-anchor="start" x="460.25" y="-70.85" font-family="monospace" font-size="12.00" fill="#ece1d7">timeline_bootstrap.svg</text>
<text xml:space="preserve" text-anchor="start" x="592.25" y="-70.85" font-family="Helvetica,sans-Serif" font-size="12.00" fill="#ece1d7"> — greenfield bring&#45;up</text>
<polygon fill="none" stroke="#6e6963" points="303.88,-31.75 303.88,-59.5 882.12,-59.5 882.12,-31.75 303.88,-31.75"/>
<text xml:space="preserve" text-anchor="start" x="443.75" y="-43.1" font-family="monospace" font-size="12.00" fill="#ece1d7">timeline_streaming.svg</text>
<text xml:space="preserve" text-anchor="start" x="575.75" y="-43.1" font-family="Helvetica,sans-Serif" font-size="12.00" fill="#ece1d7"> — steady&#45;state record path</text>
<polygon fill="none" stroke="#6e6963" points="303.88,-4 303.88,-31.75 882.12,-31.75 882.12,-4 303.88,-4"/>
<text xml:space="preserve" text-anchor="start" x="473" y="-15.35" font-family="monospace" font-size="12.00" fill="#ece1d7">timeline_restart.svg</text>
<text xml:space="preserve" text-anchor="start" x="593" y="-15.35" font-family="Helvetica,sans-Serif" font-size="12.00" fill="#ece1d7"> — restart scenarios</text>
</g>
<!-- ch&#45;&gt;legend -->
</g>
</svg>
