<?xml version="1.0" encoding="UTF-8" standalone="no"?>
<!DOCTYPE svg PUBLIC "-//W3C//DTD SVG 1.1//EN"
 "http://www.w3.org/Graphics/SVG/1.1/DTD/svg11.dtd">
<!-- Generated by graphviz version 14.1.5 (0)
 -->
<!-- Title: safety Pages: 1 -->
<svg width="893pt" height="1108pt"
 viewBox="0.00 0.00 893.00 1108.00" xmlns="http://www.w3.org/2000/svg" xmlns:xlink="http://www.w3.org/1999/xlink">
<g id="graph0" class="graph" transform="scale(1 1) rotate(0) translate(4 1103.88)">
<title>safety</title>
<polygon fill="#272623" stroke="none" points="-4,4 -4,-1103.88 889.25,-1103.88 889.25,4 -4,4"/>
<text xml:space="preserve" text-anchor="middle" x="442.62" y="-1082.58" font-family="Helvetica,sans-Serif" font-size="14.00" fill="#ece1d7">walshadow safety — clickhouse&#45;c&#45;rs Rust ↔ C FFI trust boundary (audited 2026&#45;05&#45;17 @ b5af579)</text>
<g id="clust1" class="cluster">
<title>cluster_rust</title>
<path fill="#34302c" stroke="#4c4641" d="M20,-622.97C20,-622.97 425,-622.97 425,-622.97 431,-622.97 437,-628.97 437,-634.97 437,-634.97 437,-968.12 437,-968.12 437,-974.12 431,-980.12 425,-980.12 425,-980.12 20,-980.12 20,-980.12 14,-980.12 8,-974.12 8,-968.12 8,-968.12 8,-634.97 8,-634.97 8,-628.97 14,-622.97 20,-622.97"/>
<text xml:space="preserve" text-anchor="middle" x="222.5" y="-962.83" font-family="Helvetica,sans-Serif" font-size="14.00" fill="#ece1d7">Rust side — clickhouse&#45;c&#45;rs (owning types, lifetime: &#39;fd)</text>
</g>
<g id="clust2" class="cluster">
<title>cluster_c</title>
<path fill="#34302c" stroke="#4c4641" d="M457,-377.5C457,-377.5 782,-377.5 782,-377.5 788,-377.5 794,-383.5 794,-389.5 794,-389.5 794,-698.38 794,-698.38 794,-704.38 788,-710.38 782,-710.38 782,-710.38 457,-710.38 457,-710.38 451,-710.38 445,-704.38 445,-698.38 445,-698.38 445,-389.5 445,-389.5 445,-383.5 451,-377.5 457,-377.5"/>
<text xml:space="preserve" text-anchor="middle" x="619.5" y="-693.08" font-family="Helvetica,sans-Serif" font-size="14.00" fill="#ece1d7">C side — sys:: FFI + clickhouse&#45;c (trusted base)</text>
</g>
<!-- caller -->
<g id="node1" class="node">
<title>caller</title>
<path fill="#5d4628" stroke="#6e6963" d="M312.75,-1074.62C312.75,-1074.62 139.25,-1074.62 139.25,-1074.62 133.25,-1074.62 127.25,-1068.62 127.25,-1062.62 127.25,-1062.62 127.25,-1040.38 127.25,-1040.38 127.25,-1034.38 133.25,-1028.38 139.25,-1028.38 139.25,-1028.38 312.75,-1028.38 312.75,-1028.38 318.75,-1028.38 324.75,-1034.38 324.75,-1040.38 324.75,-1040.38 324.75,-1062.62 324.75,-1062.62 324.75,-1068.62 318.75,-1074.62 312.75,-1074.62"/>
<text xml:space="preserve" text-anchor="middle" x="226" y="-1061.12" font-family="Helvetica,sans-Serif" font-size="10.00" fill="#ece1d7">walshadow CH emitter</text>
<text xml:space="preserve" text-anchor="middle" x="226" y="-1048.38" font-family="Helvetica,sans-Serif" font-size="10.00" fill="#ece1d7">plans/emitter.md</text>
<text xml:space="preserve" text-anchor="middle" x="226" y="-1035.62" font-family="Helvetica,sans-Serif" font-size="10.00" fill="#ece1d7">owns Client&lt;&#39;static&gt; for daemon life</text>
</g>
<!-- client -->
<g id="node2" class="node">
<title>client</title>
<path fill="#5d4628" stroke="#6e6963" d="M274.12,-946.88C274.12,-946.88 177.88,-946.88 177.88,-946.88 171.88,-946.88 165.88,-940.88 165.88,-934.88 165.88,-934.88 165.88,-912.62 165.88,-912.62 165.88,-906.62 171.88,-900.62 177.88,-900.62 177.88,-900.62 274.12,-900.62 274.12,-900.62 280.12,-900.62 286.12,-906.62 286.12,-912.62 286.12,-912.62 286.12,-934.88 286.12,-934.88 286.12,-940.88 280.12,-946.88 274.12,-946.88"/>
<text xml:space="preserve" text-anchor="middle" x="226" y="-933.38" font-family="Helvetica,sans-Serif" font-size="10.00" fill="#ece1d7">Client&lt;&#39;fd&gt;</text>
<text xml:space="preserve" text-anchor="middle" x="226" y="-920.62" font-family="Helvetica,sans-Serif" font-size="10.00" fill="#ece1d7">client.rs:142</text>
<text xml:space="preserve" text-anchor="middle" x="226" y="-907.88" font-family="Helvetica,sans-Serif" font-size="10.00" fill="#ece1d7">NonNull&lt;chc_client&gt;</text>
<text xml:space="preserve" text-anchor="start" x="152.38" y="-905.92" font-family="Helvetica,sans-Serif" font-weight="bold" font-size="16.00" fill="#b58b86">①</text>
</g>
<!-- caller&#45;&gt;client -->
<g id="edge5" class="edge">
<title>caller&#45;&gt;client</title>
<path fill="none" stroke="#c1a78e" d="M226,-1028.02C226,-1017.56 226,-1004.52 226,-991.26"/>
<polygon fill="#c1a78e" stroke="#c1a78e" points="229.5,-991.63 226,-981.63 222.5,-991.63 229.5,-991.63"/>
<text xml:space="preserve" text-anchor="middle" x="248.88" y="-990.83" font-family="Helvetica,sans-Serif" font-size="9.00" fill="#ece1d7">Client::init</text>
</g>
<!-- builder -->
<g id="node6" class="node">
<title>builder</title>
<path fill="#5d4628" stroke="#6e6963" d="M416.5,-946.88C416.5,-946.88 337.5,-946.88 337.5,-946.88 331.5,-946.88 325.5,-940.88 325.5,-934.88 325.5,-934.88 325.5,-912.62 325.5,-912.62 325.5,-906.62 331.5,-900.62 337.5,-900.62 337.5,-900.62 416.5,-900.62 416.5,-900.62 422.5,-900.62 428.5,-906.62 428.5,-912.62 428.5,-912.62 428.5,-934.88 428.5,-934.88 428.5,-940.88 422.5,-946.88 416.5,-946.88"/>
<text xml:space="preserve" text-anchor="middle" x="377" y="-933.38" font-family="Helvetica,sans-Serif" font-size="10.00" fill="#ece1d7">BlockBuilder&lt;&#39;a&gt;</text>
<text xml:space="preserve" text-anchor="middle" x="377" y="-920.62" font-family="Helvetica,sans-Serif" font-size="10.00" fill="#ece1d7">block.rs</text>
<text xml:space="preserve" text-anchor="middle" x="377" y="-907.88" font-family="Helvetica,sans-Serif" font-size="10.00" fill="#ece1d7">no&#45;copy slabs</text>
<text xml:space="preserve" text-anchor="start" x="293.25" y="-905.92" font-family="Helvetica,sans-Serif" font-weight="bold" font-size="16.00" fill="#b58b86">② ⑤</text>
</g>
<!-- caller&#45;&gt;builder -->
<g id="edge6" class="edge">
<title>caller&#45;&gt;builder</title>
<path fill="none" stroke="#c1a78e" stroke-dasharray="5,2" d="M253,-1028.02C277.61,-1007.52 314.16,-977.08 341.21,-954.56"/>
<polygon fill="#c1a78e" stroke="#c1a78e" points="343.38,-957.31 348.82,-948.22 338.9,-951.93 343.38,-957.31"/>
<text xml:space="preserve" text-anchor="middle" x="325.85" y="-990.83" font-family="Helvetica,sans-Serif" font-size="9.00" fill="#ece1d7">fill per batch</text>
</g>
<!-- alloc -->
<g id="node3" class="node">
<title>alloc</title>
<path fill="#5d4628" stroke="#6e6963" d="M98.38,-828.88C98.38,-828.88 27.62,-828.88 27.62,-828.88 21.62,-828.88 15.62,-822.88 15.62,-816.88 15.62,-816.88 15.62,-794.62 15.62,-794.62 15.62,-788.62 21.62,-782.62 27.62,-782.62 27.62,-782.62 98.38,-782.62 98.38,-782.62 104.38,-782.62 110.38,-788.62 110.38,-794.62 110.38,-794.62 110.38,-816.88 110.38,-816.88 110.38,-822.88 104.38,-828.88 98.38,-828.88"/>
<text xml:space="preserve" text-anchor="middle" x="63" y="-815.38" font-family="Helvetica,sans-Serif" font-size="10.00" fill="#ece1d7">alloc:</text>
<text xml:space="preserve" text-anchor="middle" x="63" y="-802.62" font-family="Helvetica,sans-Serif" font-size="10.00" fill="#ece1d7">Box&lt;Allocator&gt;</text>
<text xml:space="preserve" text-anchor="middle" x="63" y="-789.88" font-family="Helvetica,sans-Serif" font-size="10.00" fill="#ece1d7">stdlib</text>
</g>
<!-- client&#45;&gt;alloc -->
<g id="edge1" class="edge">
<title>client&#45;&gt;alloc</title>
<path fill="none" stroke="#c1a78e" d="M194.57,-900.38C168.72,-881.99 131.9,-855.78 103.78,-835.77"/>
<polygon fill="#c1a78e" stroke="#c1a78e" points="106.02,-833.07 95.84,-830.12 101.96,-838.77 106.02,-833.07"/>
</g>
<!-- codec -->
<g id="node4" class="node">
<title>codec</title>
<path fill="#5d4628" stroke="#6e6963" d="M240.38,-835.25C240.38,-835.25 151.62,-835.25 151.62,-835.25 145.62,-835.25 139.62,-829.25 139.62,-823.25 139.62,-823.25 139.62,-788.25 139.62,-788.25 139.62,-782.25 145.62,-776.25 151.62,-776.25 151.62,-776.25 240.38,-776.25 240.38,-776.25 246.38,-776.25 252.38,-782.25 252.38,-788.25 252.38,-788.25 252.38,-823.25 252.38,-823.25 252.38,-829.25 246.38,-835.25 240.38,-835.25"/>
<text xml:space="preserve" text-anchor="middle" x="196" y="-821.75" font-family="Helvetica,sans-Serif" font-size="10.00" fill="#ece1d7">_codec:</text>
<text xml:space="preserve" text-anchor="middle" x="196" y="-809" font-family="Helvetica,sans-Serif" font-size="10.00" fill="#ece1d7">Pin&lt;Box&lt;Codec&gt;&gt;</text>
<text xml:space="preserve" text-anchor="middle" x="196" y="-796.25" font-family="Helvetica,sans-Serif" font-size="10.00" fill="#ece1d7">lz4 / zstd</text>
<text xml:space="preserve" text-anchor="middle" x="196" y="-783.5" font-family="Helvetica,sans-Serif" font-size="10.00" fill="#ece1d7">!Unpin</text>
<text xml:space="preserve" text-anchor="start" x="126.12" y="-840.55" font-family="Helvetica,sans-Serif" font-weight="bold" font-size="16.00" fill="#b58b86">③</text>
</g>
<!-- client&#45;&gt;codec -->
<g id="edge2" class="edge">
<title>client&#45;&gt;codec</title>
<path fill="none" stroke="#c1a78e" d="M220.22,-900.38C216.29,-885.19 210.98,-864.67 206.33,-846.71"/>
<polygon fill="#c1a78e" stroke="#c1a78e" points="209.74,-845.92 203.85,-837.11 202.97,-847.67 209.74,-845.92"/>
</g>
<!-- posix -->
<g id="node5" class="node">
<title>posix</title>
<path fill="#5d4628" stroke="#6e6963" d="M416.62,-841.62C416.62,-841.62 293.38,-841.62 293.38,-841.62 287.38,-841.62 281.38,-835.62 281.38,-829.62 281.38,-829.62 281.38,-781.88 281.38,-781.88 281.38,-775.88 287.38,-769.88 293.38,-769.88 293.38,-769.88 416.62,-769.88 416.62,-769.88 422.62,-769.88 428.62,-775.88 428.62,-781.88 428.62,-781.88 428.62,-829.62 428.62,-829.62 428.62,-835.62 422.62,-841.62 416.62,-841.62"/>
<text xml:space="preserve" text-anchor="middle" x="355" y="-828.12" font-family="Helvetica,sans-Serif" font-size="10.00" fill="#ece1d7">_io:</text>
<text xml:space="preserve" text-anchor="middle" x="355" y="-815.38" font-family="Helvetica,sans-Serif" font-size="10.00" fill="#ece1d7">Pin&lt;Box&lt;PosixIo&lt;&#39;fd&gt;&gt;&gt;</text>
<text xml:space="preserve" text-anchor="middle" x="355" y="-802.62" font-family="Helvetica,sans-Serif" font-size="10.00" fill="#ece1d7">io.rs:17</text>
<text xml:space="preserve" text-anchor="middle" x="355" y="-789.88" font-family="Helvetica,sans-Serif" font-size="10.00" fill="#ece1d7">state + io + owned</text>
<text xml:space="preserve" text-anchor="middle" x="355" y="-777.12" font-family="Helvetica,sans-Serif" font-size="10.00" fill="#ece1d7">!Unpin</text>
<text xml:space="preserve" text-anchor="start" x="267.88" y="-846.92" font-family="Helvetica,sans-Serif" font-weight="bold" font-size="16.00" fill="#b58b86">⑥</text>
</g>
<!-- client&#45;&gt;posix -->
<g id="edge3" class="edge">
<title>client&#45;&gt;posix</title>
<path fill="none" stroke="#c1a78e" d="M250.87,-900.38C266.88,-885.99 288.21,-866.81 307.39,-849.56"/>
<polygon fill="#c1a78e" stroke="#c1a78e" points="309.52,-852.36 314.61,-843.07 304.84,-847.15 309.52,-852.36"/>
</g>
<!-- ffi -->
<g id="node8" class="node">
<title>ffi</title>
<path fill="#4d4128" stroke="#6e6963" d="M677.25,-677.12C677.25,-677.12 464.75,-677.12 464.75,-677.12 458.75,-677.12 452.75,-671.12 452.75,-665.12 452.75,-665.12 452.75,-642.88 452.75,-642.88 452.75,-636.88 458.75,-630.88 464.75,-630.88 464.75,-630.88 677.25,-630.88 677.25,-630.88 683.25,-630.88 689.25,-636.88 689.25,-642.88 689.25,-642.88 689.25,-665.12 689.25,-665.12 689.25,-671.12 683.25,-677.12 677.25,-677.12"/>
<text xml:space="preserve" text-anchor="middle" x="571" y="-663.62" font-family="Helvetica,sans-Serif" font-size="10.00" fill="#ece1d7">sys:: extern &quot;C&quot;</text>
<text xml:space="preserve" text-anchor="middle" x="571" y="-650.88" font-family="Helvetica,sans-Serif" font-size="10.00" fill="#ece1d7">chc_client_init / send_query / send_data /</text>
<text xml:space="preserve" text-anchor="middle" x="571" y="-638.12" font-family="Helvetica,sans-Serif" font-size="10.00" fill="#ece1d7">recv_packet / chc_posix_io_init / chc_codec_*</text>
</g>
<!-- client&#45;&gt;ffi -->
<g id="edge9" class="edge">
<title>client&#45;&gt;ffi</title>
<path fill="none" stroke="#bf8c5f" stroke-width="2" d="M286.51,-904.96C341.77,-887.87 418.47,-861.74 443,-841.62 472.02,-817.83 466.57,-801.02 487.5,-769.88 506.5,-741.61 529.3,-710.41 546.28,-687.66"/>
<polygon fill="#bf8c5f" stroke="#bf8c5f" stroke-width="2" points="548.85,-690.06 552.05,-679.96 543.25,-685.86 548.85,-690.06"/>
<text xml:space="preserve" text-anchor="middle" x="516.75" y="-814.08" font-family="Helvetica,sans-Serif" font-size="9.00" fill="#ece1d7">send_query /</text>
<text xml:space="preserve" text-anchor="middle" x="516.75" y="-802.83" font-family="Helvetica,sans-Serif" font-size="9.00" fill="#ece1d7">send_data /</text>
<text xml:space="preserve" text-anchor="middle" x="516.75" y="-791.58" font-family="Helvetica,sans-Serif" font-size="9.00" fill="#ece1d7">recv_packet</text>
</g>
<!-- fd -->
<g id="node7" class="node">
<title>fd</title>
<path fill="#3d3d54" stroke="#6e6963" d="M414.5,-672.84C414.5,-675.15 384.69,-677.03 348,-677.03 311.31,-677.03 281.5,-675.15 281.5,-672.84 281.5,-672.84 281.5,-635.16 281.5,-635.16 281.5,-632.85 311.31,-630.97 348,-630.97 384.69,-630.97 414.5,-632.85 414.5,-635.16 414.5,-635.16 414.5,-672.84 414.5,-672.84"/>
<path fill="none" stroke="#6e6963" d="M414.5,-672.84C414.5,-670.53 384.69,-668.66 348,-668.66 311.31,-668.66 281.5,-670.53 281.5,-672.84"/>
<text xml:space="preserve" text-anchor="middle" x="348" y="-657.25" font-family="Helvetica,sans-Serif" font-size="10.00" fill="#ece1d7">BorrowedFd&lt;&#39;fd&gt;</text>
<text xml:space="preserve" text-anchor="middle" x="348" y="-644.5" font-family="Helvetica,sans-Serif" font-size="10.00" fill="#ece1d7">TCP / OwnedFd → &#39;static</text>
</g>
<!-- posix&#45;&gt;fd -->
<g id="edge4" class="edge">
<title>posix&#45;&gt;fd</title>
<path fill="none" stroke="#c1a78e" stroke-dasharray="5,2" d="M349.16,-769.7C347.85,-760.36 346.66,-750.26 346,-740.88 344.79,-723.69 345.09,-704.52 345.77,-688.66"/>
<polygon fill="#c1a78e" stroke="#c1a78e" points="349.26,-688.94 346.27,-678.78 342.27,-688.59 349.26,-688.94"/>
<text xml:space="preserve" text-anchor="middle" x="364" y="-726.7" font-family="Helvetica,sans-Serif" font-size="9.00" fill="#ece1d7">borrows</text>
</g>
<!-- posix&#45;&gt;ffi -->
<g id="edge11" class="edge">
<title>posix&#45;&gt;ffi</title>
<path fill="none" stroke="#bf8c5f" stroke-width="1.5" stroke-dasharray="5,2" d="M372.49,-769.63C382.95,-751.91 397.81,-731.46 416.25,-718.38 426.72,-710.94 431.92,-714.73 444,-710.38 466.63,-702.22 490.97,-691.98 512.22,-682.54"/>
<polygon fill="#bf8c5f" stroke="#bf8c5f" stroke-width="1.5" points="513.59,-685.76 521.28,-678.47 510.72,-679.37 513.59,-685.76"/>
<text xml:space="preserve" text-anchor="middle" x="440.62" y="-732.33" font-family="Helvetica,sans-Serif" font-size="9.00" fill="#ece1d7">io_ptr()</text>
<text xml:space="preserve" text-anchor="middle" x="440.62" y="-721.08" font-family="Helvetica,sans-Serif" font-size="9.00" fill="#ece1d7">pub(crate)</text>
</g>
<!-- builder&#45;&gt;ffi -->
<g id="edge10" class="edge">
<title>builder&#45;&gt;ffi</title>
<path fill="none" stroke="#bf8c5f" stroke-width="1.5" d="M428.9,-914.98C470.92,-905.58 527.22,-885.2 553,-841.62 580.76,-794.71 579.9,-729.31 575.99,-689.69"/>
<polygon fill="#bf8c5f" stroke="#bf8c5f" stroke-width="1.5" points="579.47,-689.34 574.87,-679.8 572.52,-690.13 579.47,-689.34"/>
<text xml:space="preserve" text-anchor="middle" x="590.98" y="-808.45" font-family="Helvetica,sans-Serif" font-size="9.00" fill="#ece1d7">bb_ptr</text>
<text xml:space="preserve" text-anchor="middle" x="590.98" y="-797.2" font-family="Helvetica,sans-Serif" font-size="9.00" fill="#ece1d7">valid &#39;a</text>
</g>
<!-- cstruct -->
<g id="node9" class="node">
<title>cstruct</title>
<path fill="#4d4128" stroke="#6e6963" d="M662.25,-561.62C662.25,-561.62 479.75,-561.62 479.75,-561.62 473.75,-561.62 467.75,-555.62 467.75,-549.62 467.75,-549.62 467.75,-537.62 467.75,-537.62 467.75,-531.62 473.75,-525.62 479.75,-525.62 479.75,-525.62 662.25,-525.62 662.25,-525.62 668.25,-525.62 674.25,-531.62 674.25,-537.62 674.25,-537.62 674.25,-549.62 674.25,-549.62 674.25,-555.62 668.25,-561.62 662.25,-561.62"/>
<text xml:space="preserve" text-anchor="middle" x="571" y="-546.88" font-family="Helvetica,sans-Serif" font-size="10.00" fill="#ece1d7">chc_client { al, io, codec }</text>
<text xml:space="preserve" text-anchor="middle" x="571" y="-534.12" font-family="Helvetica,sans-Serif" font-size="10.00" fill="#ece1d7">back&#45;ptrs into our Pin&lt;Box&lt;_&gt;&gt; fields</text>
</g>
<!-- ffi&#45;&gt;cstruct -->
<g id="edge7" class="edge">
<title>ffi&#45;&gt;cstruct</title>
<path fill="none" stroke="#c1a78e" stroke-dasharray="5,2" d="M571,-630.54C571,-614.02 571,-591.42 571,-573.55"/>
<polygon fill="#c1a78e" stroke="#c1a78e" points="574.5,-573.57 571,-563.57 567.5,-573.57 574.5,-573.57"/>
<text xml:space="preserve" text-anchor="middle" x="591.25" y="-593.33" font-family="Helvetica,sans-Serif" font-size="9.00" fill="#ece1d7">init wires</text>
</g>
<!-- cclient -->
<g id="node10" class="node">
<title>cclient</title>
<path fill="#4d4128" stroke="#6e6963" d="M660,-459.25C660,-463.32 620.11,-466.62 571,-466.62 521.89,-466.62 482,-463.32 482,-459.25 482,-459.25 482,-392.88 482,-392.88 482,-388.81 521.89,-385.5 571,-385.5 620.11,-385.5 660,-388.81 660,-392.88 660,-392.88 660,-459.25 660,-459.25"/>
<path fill="none" stroke="#6e6963" d="M660,-459.25C660,-455.18 620.11,-451.88 571,-451.88 521.89,-451.88 482,-455.18 482,-459.25"/>
<text xml:space="preserve" text-anchor="middle" x="571" y="-442.06" font-family="Helvetica,sans-Serif" font-size="10.00" fill="#ece1d7">clickhouse&#45;c</text>
<text xml:space="preserve" text-anchor="middle" x="571" y="-429.31" font-family="Helvetica,sans-Serif" font-size="10.00" fill="#ece1d7">(out of scope — trusted)</text>
<text xml:space="preserve" text-anchor="middle" x="571" y="-416.56" font-family="Helvetica,sans-Serif" font-size="10.00" fill="#ece1d7">n_rows / offsets.last() / name_len</text>
<text xml:space="preserve" text-anchor="middle" x="571" y="-403.81" font-family="Helvetica,sans-Serif" font-size="10.00" fill="#ece1d7">consistent with buffers</text>
<text xml:space="preserve" text-anchor="start" x="468.5" y="-471.93" font-family="Helvetica,sans-Serif" font-weight="bold" font-size="16.00" fill="#b58b86">④</text>
</g>
<!-- cstruct&#45;&gt;cclient -->
<g id="edge8" class="edge">
<title>cstruct&#45;&gt;cclient</title>
<path fill="none" stroke="#c1a78e" stroke-dasharray="5,2" d="M571,-525.57C571,-512.9 571,-494.92 571,-477.78"/>
<polygon fill="#c1a78e" stroke="#c1a78e" points="574.5,-478.21 571,-468.21 567.5,-478.21 574.5,-478.21"/>
</g>
<!-- legend -->
<g id="node11" class="node">
<title>legend</title>
<polygon fill="#34302c" stroke="none" points="264.75,-299.75 264.75,-322.5 877.25,-322.5 877.25,-299.75 264.75,-299.75"/>
<polygon fill="none" stroke="#272623" points="264.75,-299.75 264.75,-322.5 877.25,-322.5 877.25,-299.75 264.75,-299.75"/>
<text xml:space="preserve" text-anchor="start" x="451.75" y="-309" font-family="Helvetica,sans-Serif" font-weight="bold" font-size="10.00" fill="#ece1d7">unsafe holes — UNSAFE landing (b5af579)</text>
<polygon fill="none" stroke="#272623" points="264.75,-277 264.75,-299.75 292.75,-299.75 292.75,-277 264.75,-277"/>
<text xml:space="preserve" text-anchor="start" x="274.62" y="-286.25" font-family="Helvetica,sans-Serif" font-weight="bold" font-size="10.00" fill="#b58b86">①</text>
<polygon fill="none" stroke="#272623" points="292.75,-277 292.75,-299.75 877.25,-299.75 877.25,-277 292.75,-277"/>
<text xml:space="preserve" text-anchor="start" x="299.62" y="-286.25" font-family="Helvetica,sans-Serif" font-weight="bold" font-size="10.00" fill="#ece1d7">Client ownership of PosixIo / Codec</text>
<text xml:space="preserve" text-anchor="start" x="500.62" y="-286.25" font-family="Helvetica,sans-Serif" font-size="10.00" fill="#ece1d7"> — </text>
<text xml:space="preserve" text-anchor="start" x="516.38" y="-286.25" font-family="monospace" font-size="10.00" fill="#ece1d7">Pin&lt;Box&gt;</text>
<text xml:space="preserve" text-anchor="start" x="558.38" y="-286.25" font-family="Helvetica,sans-Serif" font-size="10.00" fill="#ece1d7"> for drop order + address stability; C back&#45;ptrs live through </text>
<text xml:space="preserve" text-anchor="start" x="849.38" y="-286.25" font-family="monospace" font-size="10.00" fill="#ece1d7">Drop</text>
<polygon fill="none" stroke="#272623" points="264.75,-254.25 264.75,-277 292.75,-277 292.75,-254.25 264.75,-254.25"/>
<text xml:space="preserve" text-anchor="start" x="274.62" y="-263.5" font-family="Helvetica,sans-Serif" font-weight="bold" font-size="10.00" fill="#b58b86">②</text>
<polygon fill="none" stroke="#272623" points="292.75,-254.25 292.75,-277 877.25,-277 877.25,-254.25 292.75,-254.25"/>
<text xml:space="preserve" text-anchor="start" x="328.12" y="-263.5" font-family="Helvetica,sans-Serif" font-weight="bold" font-size="10.00" fill="#ece1d7">&amp;[u8] over &amp;str</text>
<text xml:space="preserve" text-anchor="start" x="417.38" y="-263.5" font-family="Helvetica,sans-Serif" font-size="10.00" fill="#ece1d7"> — no </text>
<text xml:space="preserve" text-anchor="start" x="448.12" y="-263.5" font-family="monospace" font-size="10.00" fill="#ece1d7">from_utf8_unchecked</text>
<text xml:space="preserve" text-anchor="start" x="547.88" y="-263.5" font-family="Helvetica,sans-Serif" font-size="10.00" fill="#ece1d7">; text accessors return bytes, </text>
<text xml:space="preserve" text-anchor="start" x="692.62" y="-263.5" font-family="monospace" font-size="10.00" fill="#ece1d7">format()</text>
<text xml:space="preserve" text-anchor="start" x="734.62" y="-263.5" font-family="Helvetica,sans-Serif" font-size="10.00" fill="#ece1d7"> uses </text>
<text xml:space="preserve" text-anchor="start" x="763.12" y="-263.5" font-family="monospace" font-size="10.00" fill="#ece1d7">from_utf8_lossy</text>
<polygon fill="none" stroke="#272623" points="264.75,-231.5 264.75,-254.25 292.75,-254.25 292.75,-231.5 264.75,-231.5"/>
<text xml:space="preserve" text-anchor="start" x="274.62" y="-240.75" font-family="Helvetica,sans-Serif" font-weight="bold" font-size="10.00" fill="#b58b86">③</text>
<polygon fill="none" stroke="#272623" points="292.75,-231.5 292.75,-254.25 877.25,-254.25 877.25,-231.5 292.75,-231.5"/>
<text xml:space="preserve" text-anchor="start" x="307.12" y="-240.75" font-family="Helvetica,sans-Serif" font-weight="bold" font-size="10.00" fill="#ece1d7">Codec::raw_mut unsafe</text>
<text xml:space="preserve" text-anchor="start" x="438.38" y="-240.75" font-family="Helvetica,sans-Serif" font-size="10.00" fill="#ece1d7"> — caller installs fn&#45;ptr table matching </text>
<text xml:space="preserve" text-anchor="start" x="628.88" y="-240.75" font-family="monospace" font-size="10.00" fill="#ece1d7">chc_codec</text>
<text xml:space="preserve" text-anchor="start" x="676.12" y="-240.75" font-family="Helvetica,sans-Serif" font-size="10.00" fill="#ece1d7"> signatures; </text>
<text xml:space="preserve" text-anchor="start" x="736.12" y="-240.75" font-family="monospace" font-size="10.00" fill="#ece1d7">ud</text>
<text xml:space="preserve" text-anchor="start" x="746.62" y="-240.75" font-family="Helvetica,sans-Serif" font-size="10.00" fill="#ece1d7"> alive for codec lifetime</text>
<polygon fill="none" stroke="#272623" points="264.75,-208.75 264.75,-231.5 292.75,-231.5 292.75,-208.75 264.75,-208.75"/>
<text xml:space="preserve" text-anchor="start" x="274.62" y="-218" font-family="Helvetica,sans-Serif" font-weight="bold" font-size="10.00" fill="#b58b86">④</text>
<polygon fill="none" stroke="#272623" points="292.75,-208.75 292.75,-231.5 877.25,-231.5 877.25,-208.75 292.75,-208.75"/>
<text xml:space="preserve" text-anchor="start" x="298.5" y="-218" font-family="Helvetica,sans-Serif" font-weight="bold" font-size="10.00" fill="#ece1d7">C&#45;side trust boundary</text>
<text xml:space="preserve" text-anchor="start" x="423" y="-218" font-family="Helvetica,sans-Serif" font-size="10.00" fill="#ece1d7"> — release trusts </text>
<text xml:space="preserve" text-anchor="start" x="508.5" y="-218" font-family="monospace" font-size="10.00" fill="#ece1d7">clickhouse&#45;c</text>
<text xml:space="preserve" text-anchor="start" x="571.5" y="-218" font-family="Helvetica,sans-Serif" font-size="10.00" fill="#ece1d7"> invariants (</text>
<text xml:space="preserve" text-anchor="start" x="630" y="-218" font-family="monospace" font-size="10.00" fill="#ece1d7">n_rows</text>
<text xml:space="preserve" text-anchor="start" x="661.5" y="-218" font-family="Helvetica,sans-Serif" font-size="10.00" fill="#ece1d7">, </text>
<text xml:space="preserve" text-anchor="start" x="667.5" y="-218" font-family="monospace" font-size="10.00" fill="#ece1d7">offsets.last()</text>
<text xml:space="preserve" text-anchor="start" x="741" y="-218" font-family="Helvetica,sans-Serif" font-size="10.00" fill="#ece1d7">); no API to query alloc cap</text>
<polygon fill="none" stroke="#272623" points="264.75,-186 264.75,-208.75 292.75,-208.75 292.75,-186 264.75,-186"/>
<text xml:space="preserve" text-anchor="start" x="274.62" y="-195.25" font-family="Helvetica,sans-Serif" font-weight="bold" font-size="10.00" fill="#b58b86">⑤</text>
<polygon fill="none" stroke="#272623" points="292.75,-186 292.75,-208.75 877.25,-208.75 877.25,-186 292.75,-186"/>
<text xml:space="preserve" text-anchor="start" x="297.75" y="-195.25" font-family="Helvetica,sans-Serif" font-weight="bold" font-size="10.00" fill="#ece1d7">checked_mul at FFI size params</text>
<text xml:space="preserve" text-anchor="start" x="479.25" y="-195.25" font-family="Helvetica,sans-Serif" font-size="10.00" fill="#ece1d7"> — </text>
<text xml:space="preserve" text-anchor="start" x="495" y="-195.25" font-family="monospace" font-size="10.00" fill="#ece1d7">Column::fixed</text>
<text xml:space="preserve" text-anchor="start" x="563.25" y="-195.25" font-family="Helvetica,sans-Serif" font-size="10.00" fill="#ece1d7"> / </text>
<text xml:space="preserve" text-anchor="start" x="572.25" y="-195.25" font-family="monospace" font-size="10.00" fill="#ece1d7">low_cardinality</text>
<text xml:space="preserve" text-anchor="start" x="651" y="-195.25" font-family="Helvetica,sans-Serif" font-size="10.00" fill="#ece1d7"> use </text>
<text xml:space="preserve" text-anchor="start" x="674.25" y="-195.25" font-family="monospace" font-size="10.00" fill="#ece1d7">n_rows.checked_mul(elem_size)</text>
<text xml:space="preserve" text-anchor="start" x="826.5" y="-195.25" font-family="Helvetica,sans-Serif" font-size="10.00" fill="#ece1d7"> → </text>
<text xml:space="preserve" text-anchor="start" x="840.75" y="-195.25" font-family="monospace" font-size="10.00" fill="#ece1d7">Option</text>
<polygon fill="none" stroke="#272623" points="264.75,-163.25 264.75,-186 292.75,-186 292.75,-163.25 264.75,-163.25"/>
<text xml:space="preserve" text-anchor="start" x="274.62" y="-172.5" font-family="Helvetica,sans-Serif" font-weight="bold" font-size="10.00" fill="#b58b86">⑥</text>
<polygon fill="none" stroke="#272623" points="292.75,-163.25 292.75,-186 877.25,-186 877.25,-163.25 292.75,-163.25"/>
<text xml:space="preserve" text-anchor="start" x="315.75" y="-172.5" font-family="Helvetica,sans-Serif" font-weight="bold" font-size="10.00" fill="#ece1d7">BorrowedFd discipline</text>
<text xml:space="preserve" text-anchor="start" x="444" y="-172.5" font-family="Helvetica,sans-Serif" font-size="10.00" fill="#ece1d7"> — </text>
<text xml:space="preserve" text-anchor="start" x="459.75" y="-172.5" font-family="monospace" font-size="10.00" fill="#ece1d7">&#39;fd</text>
<text xml:space="preserve" text-anchor="start" x="475.5" y="-172.5" font-family="Helvetica,sans-Serif" font-size="10.00" fill="#ece1d7"> ties </text>
<text xml:space="preserve" text-anchor="start" x="499.5" y="-172.5" font-family="monospace" font-size="10.00" fill="#ece1d7">Client</text>
<text xml:space="preserve" text-anchor="start" x="531" y="-172.5" font-family="Helvetica,sans-Serif" font-size="10.00" fill="#ece1d7"> to fd lifetime (was raw </text>
<text xml:space="preserve" text-anchor="start" x="648" y="-172.5" font-family="monospace" font-size="10.00" fill="#ece1d7">c_int</text>
<text xml:space="preserve" text-anchor="start" x="674.25" y="-172.5" font-family="Helvetica,sans-Serif" font-size="10.00" fill="#ece1d7"> pre&#45;UNSAFE 6); </text>
<text xml:space="preserve" text-anchor="start" x="756" y="-172.5" font-family="monospace" font-size="10.00" fill="#ece1d7">new_owned</text>
<text xml:space="preserve" text-anchor="start" x="803.25" y="-172.5" font-family="Helvetica,sans-Serif" font-size="10.00" fill="#ece1d7"> → </text>
<text xml:space="preserve" text-anchor="start" x="817.5" y="-172.5" font-family="monospace" font-size="10.00" fill="#ece1d7">&#39;static</text>
<polygon fill="#34302c" stroke="none" points="264.75,-140.5 264.75,-163.25 877.25,-163.25 877.25,-140.5 264.75,-140.5"/>
<polygon fill="none" stroke="#272623" points="264.75,-140.5 264.75,-163.25 877.25,-163.25 877.25,-140.5 264.75,-140.5"/>
<text xml:space="preserve" text-anchor="start" x="535.75" y="-149.75" font-family="Helvetica,sans-Serif" font-weight="bold" font-size="10.00" fill="#ece1d7">edge — kind</text>
<polygon fill="none" stroke="#272623" points="264.75,-117.75 264.75,-140.5 292.75,-140.5 292.75,-117.75 264.75,-117.75"/>
<text xml:space="preserve" text-anchor="start" x="272.75" y="-127" font-family="Helvetica,sans-Serif" font-weight="bold" font-size="10.00" fill="#c1a78e">━━</text>
<polygon fill="none" stroke="#272623" points="292.75,-117.75 292.75,-140.5 877.25,-140.5 877.25,-117.75 292.75,-117.75"/>
<text xml:space="preserve" text-anchor="start" x="525.38" y="-125.75" font-family="Helvetica,sans-Serif" font-size="10.00" fill="#ece1d7">ownership / composition</text>
<polygon fill="none" stroke="#272623" points="264.75,-95 264.75,-117.75 292.75,-117.75 292.75,-95 264.75,-95"/>
<text xml:space="preserve" text-anchor="start" x="272.75" y="-104.25" font-family="Helvetica,sans-Serif" font-weight="bold" font-size="10.00" fill="#bf8c5f">━━</text>
<polygon fill="none" stroke="#272623" points="292.75,-95 292.75,-117.75 877.25,-117.75 877.25,-95 292.75,-95"/>
<text xml:space="preserve" text-anchor="start" x="499.12" y="-103" font-family="Helvetica,sans-Serif" font-size="10.00" fill="#ece1d7">FFI call crossing the trust boundary</text>
<polygon fill="#34302c" stroke="none" points="264.75,-72.25 264.75,-95 877.25,-95 877.25,-72.25 264.75,-72.25"/>
<polygon fill="none" stroke="#272623" points="264.75,-72.25 264.75,-95 877.25,-95 877.25,-72.25 264.75,-72.25"/>
<text xml:space="preserve" text-anchor="start" x="527.88" y="-81.5" font-family="Helvetica,sans-Serif" font-weight="bold" font-size="10.00" fill="#ece1d7">node fill — role</text>
<polygon fill="#5d4628" stroke="none" points="264.75,-49.5 264.75,-72.25 292.75,-72.25 292.75,-49.5 264.75,-49.5"/>
<polygon fill="none" stroke="#272623" points="264.75,-49.5 264.75,-72.25 292.75,-72.25 292.75,-49.5 264.75,-49.5"/>
<polygon fill="none" stroke="#272623" points="292.75,-49.5 292.75,-72.25 877.25,-72.25 877.25,-49.5 292.75,-49.5"/>
<text xml:space="preserve" text-anchor="start" x="499.12" y="-57.5" font-family="Helvetica,sans-Serif" font-size="10.00" fill="#ece1d7">walshadow CH emitter / Rust types</text>
<polygon fill="#4d4128" stroke="none" points="264.75,-26.75 264.75,-49.5 292.75,-49.5 292.75,-26.75 264.75,-26.75"/>
<polygon fill="none" stroke="#272623" points="264.75,-26.75 264.75,-49.5 292.75,-49.5 292.75,-26.75 264.75,-26.75"/>
<polygon fill="none" stroke="#272623" points="292.75,-26.75 292.75,-49.5 877.25,-49.5 877.25,-26.75 292.75,-26.75"/>
<text xml:space="preserve" text-anchor="start" x="523.12" y="-34.75" font-family="Helvetica,sans-Serif" font-size="10.00" fill="#ece1d7">C&#45;side FFI + clickhouse&#45;c</text>
<polygon fill="#3d3d54" stroke="none" points="264.75,-4 264.75,-26.75 292.75,-26.75 292.75,-4 264.75,-4"/>
<polygon fill="none" stroke="#272623" points="264.75,-4 264.75,-26.75 292.75,-26.75 292.75,-4 264.75,-4"/>
<polygon fill="none" stroke="#272623" points="292.75,-4 292.75,-26.75 877.25,-26.75 877.25,-4 292.75,-4"/>
<text xml:space="preserve" text-anchor="start" x="523.5" y="-12" font-family="Helvetica,sans-Serif" font-size="10.00" fill="#ece1d7">kernel&#45;level resource (fd)</text>
</g>
<!-- cclient&#45;&gt;legend -->
</g>
</svg>
