<?xml version="1.0" encoding="UTF-8" standalone="no"?>
<!DOCTYPE svg PUBLIC "-//W3C//DTD SVG 1.1//EN"
 "http://www.w3.org/Graphics/SVG/1.1/DTD/svg11.dtd">
<!-- Generated by graphviz version 15.1.0 (20260618.0150)
 -->
<!-- Title: shadow_catalog Pages: 1 -->
<svg width="1306pt" height="1682pt"
 viewBox="0.00 0.00 1306.00 1682.00" xmlns="http://www.w3.org/2000/svg" xmlns:xlink="http://www.w3.org/1999/xlink">
<g id="graph0" class="graph" transform="scale(1 1) rotate(0) translate(4 1678.41)">
<title>shadow_catalog</title>
<polygon fill="#272623" stroke="none" points="-4,4 -4,-1678.41 1301.62,-1678.41 1301.62,4 -4,4"/>
<text xml:space="preserve" text-anchor="middle" x="648.81" y="-1657.11" font-family="Helvetica,sans-Serif" font-size="14.00" fill="#ece1d7">ShadowCatalog — LRU + generation invalidation + SchemaEvent emission (plans/shadow.md)</text>
<g id="clust2" class="cluster">
<title>cluster_cat</title>
<path fill="#34302c" stroke="#4c4641" d="M126.62,-544.88C126.62,-544.88 516.62,-544.88 516.62,-544.88 522.62,-544.88 528.62,-550.88 528.62,-556.88 528.62,-556.88 528.62,-1369.75 528.62,-1369.75 528.62,-1375.75 522.62,-1381.75 516.62,-1381.75 516.62,-1381.75 126.62,-1381.75 126.62,-1381.75 120.62,-1381.75 114.62,-1375.75 114.62,-1369.75 114.62,-1369.75 114.62,-556.88 114.62,-556.88 114.62,-550.88 120.62,-544.88 126.62,-544.88"/>
<text xml:space="preserve" text-anchor="middle" x="321.62" y="-1364.45" font-family="Helvetica,sans-Serif" font-size="14.00" fill="#ece1d7">ShadowCatalog (src/shadow_catalog.rs)</text>
</g>
<!-- tracker -->
<g id="node1" class="node">
<title>tracker</title>
<path fill="#4d3a28" stroke="#6e6963" d="M171.25,-1649.16C171.25,-1649.16 12,-1649.16 12,-1649.16 6,-1649.16 0,-1643.16 0,-1637.16 0,-1637.16 0,-1589.41 0,-1589.41 0,-1583.41 6,-1577.41 12,-1577.41 12,-1577.41 171.25,-1577.41 171.25,-1577.41 177.25,-1577.41 183.25,-1583.41 183.25,-1589.41 183.25,-1589.41 183.25,-1637.16 183.25,-1637.16 183.25,-1643.16 177.25,-1649.16 171.25,-1649.16"/>
<text xml:space="preserve" text-anchor="middle" x="91.62" y="-1635.66" font-family="Helvetica,sans-Serif" font-size="10.00" fill="#ece1d7">CatalogTracker</text>
<text xml:space="preserve" text-anchor="middle" x="91.62" y="-1622.91" font-family="Helvetica,sans-Serif" font-size="10.00" fill="#ece1d7">(filter pipeline, sync)</text>
<text xml:space="preserve" text-anchor="middle" x="91.62" y="-1610.16" font-family="Helvetica,sans-Serif" font-size="10.00" fill="#ece1d7">catalog WAL writes →</text>
<text xml:space="preserve" text-anchor="middle" x="91.62" y="-1597.41" font-family="Helvetica,sans-Serif" font-size="10.00" fill="#ece1d7">epoch bump (Release&#45;store)</text>
<text xml:space="preserve" text-anchor="middle" x="91.62" y="-1584.66" font-family="Helvetica,sans-Serif" font-size="10.00" fill="#ece1d7">+ CatalogSignal verdict on Record</text>
</g>
<!-- caller -->
<g id="node2" class="node">
<title>caller</title>
<path fill="#4d4128" stroke="#6e6963" d="M387,-1636.41C387,-1636.41 286.25,-1636.41 286.25,-1636.41 280.25,-1636.41 274.25,-1630.41 274.25,-1624.41 274.25,-1624.41 274.25,-1602.16 274.25,-1602.16 274.25,-1596.16 280.25,-1590.16 286.25,-1590.16 286.25,-1590.16 387,-1590.16 387,-1590.16 393,-1590.16 399,-1596.16 399,-1602.16 399,-1602.16 399,-1624.41 399,-1624.41 399,-1630.41 393,-1636.41 387,-1636.41"/>
<text xml:space="preserve" text-anchor="middle" x="336.62" y="-1622.91" font-family="Helvetica,sans-Serif" font-size="10.00" fill="#ece1d7">BufferingDecoderSink</text>
<text xml:space="preserve" text-anchor="middle" x="336.62" y="-1610.16" font-family="Helvetica,sans-Serif" font-size="10.00" fill="#ece1d7">relation_at(rfn, at_lsn)</text>
<text xml:space="preserve" text-anchor="middle" x="336.62" y="-1597.41" font-family="Helvetica,sans-Serif" font-size="10.00" fill="#ece1d7">(decoder worker task)</text>
</g>
<!-- tracker&#45;&gt;caller -->
<g id="edge2" class="edge">
<title>tracker&#45;&gt;caller</title>
<path fill="none" stroke="#cba85e" stroke-dasharray="5,2" d="M183.55,-1613.28C209.69,-1613.28 237.82,-1613.28 262.74,-1613.28"/>
<polygon fill="#cba85e" stroke="#cba85e" points="262.43,-1616.78 272.43,-1613.28 262.43,-1609.78 262.43,-1616.78"/>
<text xml:space="preserve" text-anchor="middle" x="228.75" y="-1630.23" font-family="Helvetica,sans-Serif" font-size="9.00" fill="#ece1d7">CatalogSignal</text>
<text xml:space="preserve" text-anchor="middle" x="228.75" y="-1618.98" font-family="Helvetica,sans-Serif" font-size="9.00" fill="#ece1d7">rides Record</text>
</g>
<!-- atomics -->
<g id="node3" class="node">
<title>atomics</title>
<ellipse fill="#4d4d28" stroke="#6e6963" cx="222.62" cy="-1478.2" rx="93.51" ry="32.7"/>
<text xml:space="preserve" text-anchor="middle" x="222.62" y="-1487.83" font-family="Helvetica,sans-Serif" font-size="10.00" fill="#ece1d7">invalidation_epoch</text>
<text xml:space="preserve" text-anchor="middle" x="222.62" y="-1475.08" font-family="Helvetica,sans-Serif" font-size="10.00" fill="#ece1d7">Arc&lt;AtomicU64&gt;</text>
<text xml:space="preserve" text-anchor="middle" x="222.62" y="-1462.33" font-family="Helvetica,sans-Serif" font-size="10.00" fill="#ece1d7">(any catalog WAL write)</text>
</g>
<!-- tracker&#45;&gt;atomics -->
<g id="edge1" class="edge">
<title>tracker&#45;&gt;atomics</title>
<path fill="none" stroke="#cba85e" stroke-dasharray="5,2" d="M126.39,-1576.97C144.48,-1558.59 166.62,-1536.1 185.1,-1517.33"/>
<polygon fill="#cba85e" stroke="#cba85e" points="187.45,-1519.92 191.97,-1510.34 182.46,-1515.01 187.45,-1519.92"/>
<text xml:space="preserve" text-anchor="middle" x="201.48" y="-1546.86" font-family="Helvetica,sans-Serif" font-size="9.00" fill="#ece1d7">bump at</text>
<text xml:space="preserve" text-anchor="middle" x="201.48" y="-1535.61" font-family="Helvetica,sans-Serif" font-size="9.00" fill="#ece1d7">pump position</text>
</g>
<!-- caller&#45;&gt;atomics -->
<g id="edge3" class="edge">
<title>caller&#45;&gt;atomics</title>
<path fill="none" stroke="#cba85e" stroke-dasharray="5,2" d="M317.29,-1589.71C300.61,-1570.24 276.16,-1541.7 256.28,-1518.49"/>
<polygon fill="#cba85e" stroke="#cba85e" points="259.06,-1516.36 249.9,-1511.04 253.75,-1520.91 259.06,-1516.36"/>
<text xml:space="preserve" text-anchor="middle" x="320.95" y="-1546.86" font-family="Helvetica,sans-Serif" font-size="9.00" fill="#ece1d7">re&#45;bump at</text>
<text xml:space="preserve" text-anchor="middle" x="320.95" y="-1535.61" font-family="Helvetica,sans-Serif" font-size="9.00" fill="#ece1d7">worker position</text>
</g>
<!-- psweeps -->
<g id="node4" class="node">
<title>psweeps</title>
<ellipse fill="#4d4d28" stroke="#6e6963" cx="468.62" cy="-1478.2" rx="123.21" ry="32.7"/>
<text xml:space="preserve" text-anchor="middle" x="468.62" y="-1487.83" font-family="Helvetica,sans-Serif" font-size="10.00" fill="#ece1d7">PendingSweeps</text>
<text xml:space="preserve" text-anchor="middle" x="468.62" y="-1475.08" font-family="Helvetica,sans-Serif" font-size="10.00" fill="#ece1d7">Mutex&lt;HashSet&lt;xid&gt;&gt;</text>
<text xml:space="preserve" text-anchor="middle" x="468.62" y="-1462.33" font-family="Helvetica,sans-Serif" font-size="10.00" fill="#ece1d7">armed per pg_class heap_delete</text>
</g>
<!-- caller&#45;&gt;psweeps -->
<g id="edge4" class="edge">
<title>caller&#45;&gt;psweeps</title>
<path fill="none" stroke="#cba85e" stroke-dasharray="5,2" d="M359.02,-1589.71C378.49,-1570.07 407.14,-1541.19 430.26,-1517.88"/>
<polygon fill="#cba85e" stroke="#cba85e" points="432.56,-1520.53 437.12,-1510.97 427.59,-1515.6 432.56,-1520.53"/>
<text xml:space="preserve" text-anchor="middle" x="451.57" y="-1546.86" font-family="Helvetica,sans-Serif" font-size="9.00" fill="#ece1d7">arm(xid) on</text>
<text xml:space="preserve" text-anchor="middle" x="451.57" y="-1535.61" font-family="Helvetica,sans-Serif" font-size="9.00" fill="#ece1d7">InvalidateSweep</text>
</g>
<!-- gate -->
<g id="node5" class="node">
<title>gate</title>
<path fill="#4d4d28" stroke="#6e6963" d="M310.88,-1348.5C310.88,-1348.5 134.38,-1348.5 134.38,-1348.5 128.38,-1348.5 122.38,-1342.5 122.38,-1336.5 122.38,-1336.5 122.38,-1288.75 122.38,-1288.75 122.38,-1282.75 128.38,-1276.75 134.38,-1276.75 134.38,-1276.75 310.88,-1276.75 310.88,-1276.75 316.88,-1276.75 322.88,-1282.75 322.88,-1288.75 322.88,-1288.75 322.88,-1336.5 322.88,-1336.5 322.88,-1342.5 316.88,-1348.5 310.88,-1348.5"/>
<text xml:space="preserve" text-anchor="middle" x="222.62" y="-1335" font-family="Helvetica,sans-Serif" font-size="10.00" fill="#ece1d7">relation_at orchestration</text>
<text xml:space="preserve" text-anchor="middle" x="222.62" y="-1322.25" font-family="Helvetica,sans-Serif" font-size="10.00" fill="#ece1d7">① drain_invalidations (Acquire epoch)</text>
<text xml:space="preserve" text-anchor="middle" x="222.62" y="-1309.5" font-family="Helvetica,sans-Serif" font-size="10.00" fill="#ece1d7">② wait_for_replay(at_lsn)</text>
<text xml:space="preserve" text-anchor="middle" x="222.62" y="-1296.75" font-family="Helvetica,sans-Serif" font-size="10.00" fill="#ece1d7">③ drain_invalidations</text>
<text xml:space="preserve" text-anchor="middle" x="222.62" y="-1284" font-family="Helvetica,sans-Serif" font-size="10.00" fill="#ece1d7">④ cache lookup</text>
</g>
<!-- caller&#45;&gt;gate -->
<g id="edge5" class="edge">
<title>caller&#45;&gt;gate</title>
<path fill="none" stroke="#cba85e" d="M273.78,-1598.17C201.56,-1580.4 90.29,-1547.71 69.62,-1510.91 37.07,-1452.94 98.45,-1393.62 152.88,-1355.37"/>
<polygon fill="#cba85e" stroke="#cba85e" points="154.73,-1358.35 160.99,-1349.81 150.77,-1352.58 154.73,-1358.35"/>
<text xml:space="preserve" text-anchor="middle" x="92.12" y="-1475.28" font-family="Helvetica,sans-Serif" font-size="9.00" fill="#ece1d7">rfn, at_lsn</text>
</g>
<!-- atomics&#45;&gt;gate -->
<g id="edge14" class="edge">
<title>atomics&#45;&gt;gate</title>
<path fill="none" stroke="#cba85e" stroke-dasharray="5,2" d="M222.62,-1445.28C222.62,-1421.03 222.62,-1387.34 222.62,-1360.11"/>
<polygon fill="#cba85e" stroke="#cba85e" points="226.13,-1360.39 222.63,-1350.39 219.13,-1360.39 226.13,-1360.39"/>
<text xml:space="preserve" text-anchor="middle" x="250.75" y="-1409.33" font-family="Helvetica,sans-Serif" font-size="9.00" fill="#ece1d7">Acquire&#45;load</text>
<text xml:space="preserve" text-anchor="middle" x="250.75" y="-1398.08" font-family="Helvetica,sans-Serif" font-size="9.00" fill="#ece1d7">per lookup</text>
</g>
<!-- sweep -->
<g id="node12" class="node">
<title>sweep</title>
<path fill="#4d4d28" stroke="#6e6963" d="M508.12,-1342.13C508.12,-1342.13 375.12,-1342.13 375.12,-1342.13 369.12,-1342.13 363.12,-1336.13 363.12,-1330.13 363.12,-1330.13 363.12,-1295.13 363.12,-1295.13 363.12,-1289.13 369.12,-1283.13 375.12,-1283.13 375.12,-1283.13 508.12,-1283.13 508.12,-1283.13 514.12,-1283.13 520.12,-1289.13 520.12,-1295.13 520.12,-1295.13 520.12,-1330.13 520.12,-1330.13 520.12,-1336.13 514.12,-1342.13 508.12,-1342.13"/>
<text xml:space="preserve" text-anchor="middle" x="441.62" y="-1328.63" font-family="Helvetica,sans-Serif" font-size="10.00" fill="#ece1d7">sweep_dropped</text>
<text xml:space="preserve" text-anchor="middle" x="441.62" y="-1315.88" font-family="Helvetica,sans-Serif" font-size="10.00" fill="#ece1d7">poll pg_class for known oids;</text>
<text xml:space="preserve" text-anchor="middle" x="441.62" y="-1303.13" font-family="Helvetica,sans-Serif" font-size="10.00" fill="#ece1d7">missing → emit Dropped</text>
<text xml:space="preserve" text-anchor="middle" x="441.62" y="-1290.38" font-family="Helvetica,sans-Serif" font-size="10.00" fill="#ece1d7">no internal throttle</text>
</g>
<!-- psweeps&#45;&gt;sweep -->
<g id="edge17" class="edge">
<title>psweeps&#45;&gt;sweep</title>
<path fill="none" stroke="#cba85e" stroke-dasharray="5,2" d="M463.36,-1445.28C459.03,-1419.05 452.87,-1381.75 448.21,-1353.55"/>
<polygon fill="#cba85e" stroke="#cba85e" points="451.71,-1353.25 446.63,-1343.95 444.81,-1354.39 451.71,-1353.25"/>
<text xml:space="preserve" text-anchor="middle" x="539" y="-1414.95" font-family="Helvetica,sans-Serif" font-size="9.00" fill="#ece1d7">disarm at armed xact&#39;s commit ⇒</text>
<text xml:space="preserve" text-anchor="middle" x="539" y="-1403.7" font-family="Helvetica,sans-Serif" font-size="9.00" fill="#ece1d7">wait_for_replay(commit lsn), sweep</text>
<text xml:space="preserve" text-anchor="middle" x="539" y="-1392.45" font-family="Helvetica,sans-Serif" font-size="9.00" fill="#ece1d7">(abort disarms, no sweep)</text>
</g>
<!-- gencnt -->
<g id="node6" class="node">
<title>gencnt</title>
<ellipse fill="#4d4d28" stroke="#6e6963" cx="378.62" cy="-1161.75" rx="107.3" ry="59.75"/>
<text xml:space="preserve" text-anchor="middle" x="378.62" y="-1190.5" font-family="Helvetica,sans-Serif" font-size="10.00" fill="#ece1d7">generation: u64</text>
<text xml:space="preserve" text-anchor="middle" x="378.62" y="-1177.75" font-family="Helvetica,sans-Serif" font-size="10.00" fill="#ece1d7">entry hit iff gen == self.gen</text>
<text xml:space="preserve" text-anchor="middle" x="378.62" y="-1165" font-family="Helvetica,sans-Serif" font-size="10.00" fill="#ece1d7">bumped by:</text>
<text xml:space="preserve" text-anchor="middle" x="378.62" y="-1152.25" font-family="Helvetica,sans-Serif" font-size="10.00" fill="#ece1d7"> &#160;• epoch advance (drain)</text>
<text xml:space="preserve" text-anchor="middle" x="378.62" y="-1139.5" font-family="Helvetica,sans-Serif" font-size="10.00" fill="#ece1d7"> &#160;• reconnect</text>
<text xml:space="preserve" text-anchor="middle" x="378.62" y="-1126.75" font-family="Helvetica,sans-Serif" font-size="10.00" fill="#ece1d7"> &#160;• DROP sweep</text>
</g>
<!-- gate&#45;&gt;gencnt -->
<g id="edge15" class="edge">
<title>gate&#45;&gt;gencnt</title>
<path fill="none" stroke="#cba85e" stroke-dasharray="5,2" d="M259.59,-1276.34C276.7,-1260.02 297.49,-1240.18 316.88,-1221.68"/>
<polygon fill="#cba85e" stroke="#cba85e" points="319.17,-1224.32 323.99,-1214.89 314.34,-1219.26 319.17,-1224.32"/>
<text xml:space="preserve" text-anchor="middle" x="332.53" y="-1246.2" font-family="Helvetica,sans-Serif" font-size="9.00" fill="#ece1d7">bump on advance</text>
</g>
<!-- lru -->
<g id="node7" class="node">
<title>lru</title>
<path fill="#4d4d28" stroke="#6e6963" d="M347.12,-1046.75C347.12,-1046.75 196.12,-1046.75 196.12,-1046.75 190.12,-1046.75 184.12,-1040.75 184.12,-1034.75 184.12,-1034.75 184.12,-1012.5 184.12,-1012.5 184.12,-1006.5 190.12,-1000.5 196.12,-1000.5 196.12,-1000.5 347.12,-1000.5 347.12,-1000.5 353.12,-1000.5 359.12,-1006.5 359.12,-1012.5 359.12,-1012.5 359.12,-1034.75 359.12,-1034.75 359.12,-1040.75 353.12,-1046.75 347.12,-1046.75"/>
<text xml:space="preserve" text-anchor="middle" x="271.62" y="-1033.25" font-family="Helvetica,sans-Serif" font-size="10.00" fill="#ece1d7">by_filenode + by_oid</text>
<text xml:space="preserve" text-anchor="middle" x="271.62" y="-1020.5" font-family="Helvetica,sans-Serif" font-size="10.00" fill="#ece1d7">HashMap + EvictionIndex (FIFO)</text>
<text xml:space="preserve" text-anchor="middle" x="271.62" y="-1007.75" font-family="Helvetica,sans-Serif" font-size="10.00" fill="#ece1d7">cap = 4096</text>
</g>
<!-- gate&#45;&gt;lru -->
<g id="edge6" class="edge">
<title>gate&#45;&gt;lru</title>
<path fill="none" stroke="#cba85e" d="M208.01,-1276.49C192.48,-1233.69 173.15,-1159.95 196.62,-1102 204.01,-1083.76 217.99,-1067.45 231.89,-1054.56"/>
<polygon fill="#cba85e" stroke="#cba85e" points="234.16,-1057.23 239.35,-1047.99 229.53,-1051.98 234.16,-1057.23"/>
<text xml:space="preserve" text-anchor="middle" x="226.62" y="-1164.45" font-family="Helvetica,sans-Serif" font-size="9.00" fill="#ece1d7">check</text>
<text xml:space="preserve" text-anchor="middle" x="226.62" y="-1153.2" font-family="Helvetica,sans-Serif" font-size="9.00" fill="#ece1d7">(gen, rfn|oid)</text>
</g>
<!-- gencnt&#45;&gt;lru -->
<g id="edge16" class="edge">
<title>gencnt&#45;&gt;lru</title>
<path fill="none" stroke="#cba85e" stroke-dasharray="5,2" d="M336.03,-1106.56C322.51,-1089.37 308.03,-1070.94 296.23,-1055.93"/>
<polygon fill="#cba85e" stroke="#cba85e" points="299.13,-1053.95 290.2,-1048.25 293.62,-1058.28 299.13,-1053.95"/>
<text xml:space="preserve" text-anchor="middle" x="361.89" y="-1071.45" font-family="Helvetica,sans-Serif" font-size="9.00" fill="#ece1d7">gen mismatch ⇒ miss</text>
</g>
<!-- fetch -->
<g id="node8" class="node">
<title>fetch</title>
<path fill="#4d4d28" stroke="#6e6963" d="M367.62,-922.75C367.62,-922.75 195.62,-922.75 195.62,-922.75 189.62,-922.75 183.62,-916.75 183.62,-910.75 183.62,-910.75 183.62,-863 183.62,-863 183.62,-857 189.62,-851 195.62,-851 195.62,-851 367.62,-851 367.62,-851 373.62,-851 379.62,-857 379.62,-863 379.62,-863 379.62,-910.75 379.62,-910.75 379.62,-916.75 373.62,-922.75 367.62,-922.75"/>
<text xml:space="preserve" text-anchor="middle" x="281.62" y="-909.25" font-family="Helvetica,sans-Serif" font-size="10.00" fill="#ece1d7">fetch_by_filenode / fetch_by_oid</text>
<text xml:space="preserve" text-anchor="middle" x="281.62" y="-896.5" font-family="Helvetica,sans-Serif" font-size="10.00" fill="#ece1d7">SELECT pg_class + pg_namespace +</text>
<text xml:space="preserve" text-anchor="middle" x="281.62" y="-883.75" font-family="Helvetica,sans-Serif" font-size="10.00" fill="#ece1d7">pg_index (replident) +</text>
<text xml:space="preserve" text-anchor="middle" x="281.62" y="-871" font-family="Helvetica,sans-Serif" font-size="10.00" fill="#ece1d7">pg_attribute + pg_type</text>
<text xml:space="preserve" text-anchor="middle" x="281.62" y="-858.25" font-family="Helvetica,sans-Serif" font-size="10.00" fill="#ece1d7">(one SQL fan&#45;out per miss)</text>
</g>
<!-- lru&#45;&gt;fetch -->
<g id="edge7" class="edge">
<title>lru&#45;&gt;fetch</title>
<path fill="none" stroke="#cba85e" stroke-dasharray="5,2" d="M311.58,-1000.15C318.87,-994.11 325.47,-986.89 329.62,-978.5 337.15,-963.32 332.45,-946.9 323.57,-932.27"/>
<polygon fill="#cba85e" stroke="#cba85e" points="326.59,-930.49 318.07,-924.19 320.81,-934.43 326.59,-930.49"/>
<text xml:space="preserve" text-anchor="middle" x="343.49" y="-958.7" font-family="Helvetica,sans-Serif" font-size="9.00" fill="#ece1d7">miss</text>
</g>
<!-- fetch&#45;&gt;lru -->
<g id="edge10" class="edge">
<title>fetch&#45;&gt;lru</title>
<path fill="none" stroke="#cba85e" stroke-dasharray="5,2" d="M265.16,-923.05C262.56,-930.09 260.26,-937.54 258.88,-944.75 256.04,-959.48 256.77,-963.65 258.88,-978.5 259.39,-982.13 260.13,-985.88 261,-989.59"/>
<polygon fill="#cba85e" stroke="#cba85e" points="257.55,-990.22 263.51,-998.98 264.31,-988.42 257.55,-990.22"/>
<text xml:space="preserve" text-anchor="middle" x="290.75" y="-969.95" font-family="Helvetica,sans-Serif" font-size="9.00" fill="#ece1d7">insert</text>
<text xml:space="preserve" text-anchor="middle" x="290.75" y="-958.7" font-family="Helvetica,sans-Serif" font-size="9.00" fill="#ece1d7">EvictionIndex</text>
<text xml:space="preserve" text-anchor="middle" x="290.75" y="-947.45" font-family="Helvetica,sans-Serif" font-size="9.00" fill="#ece1d7">evict over cap</text>
</g>
<!-- libpq -->
<g id="node9" class="node">
<title>libpq</title>
<path fill="#4d4d28" stroke="#6e6963" d="M509,-795.75C509,-795.75 342.25,-795.75 342.25,-795.75 336.25,-795.75 330.25,-789.75 330.25,-783.75 330.25,-783.75 330.25,-723.25 330.25,-723.25 330.25,-717.25 336.25,-711.25 342.25,-711.25 342.25,-711.25 509,-711.25 509,-711.25 515,-711.25 521,-717.25 521,-723.25 521,-723.25 521,-783.75 521,-783.75 521,-789.75 515,-795.75 509,-795.75"/>
<text xml:space="preserve" text-anchor="middle" x="425.62" y="-782.25" font-family="Helvetica,sans-Serif" font-size="10.00" fill="#ece1d7">tokio_postgres::Client</text>
<text xml:space="preserve" text-anchor="middle" x="425.62" y="-769.5" font-family="Helvetica,sans-Serif" font-size="10.00" fill="#ece1d7">unix socket, long&#45;lived</text>
<text xml:space="preserve" text-anchor="middle" x="425.62" y="-756.75" font-family="Helvetica,sans-Serif" font-size="10.00" fill="#ece1d7">ensure_open → with_transient_retry</text>
<text xml:space="preserve" text-anchor="middle" x="425.62" y="-744" font-family="Helvetica,sans-Serif" font-size="10.00" fill="#ece1d7">→ reconnect on is_closed:</text>
<text xml:space="preserve" text-anchor="middle" x="425.62" y="-731.25" font-family="Helvetica,sans-Serif" font-size="10.00" fill="#ece1d7"> &#160;rebuild Client (conninfo stashed),</text>
<text xml:space="preserve" text-anchor="middle" x="425.62" y="-718.5" font-family="Helvetica,sans-Serif" font-size="10.00" fill="#ece1d7"> &#160;bump gen, reset last_replay_lsn</text>
</g>
<!-- fetch&#45;&gt;libpq -->
<g id="edge8" class="edge">
<title>fetch&#45;&gt;libpq</title>
<path fill="none" stroke="#c1a78e" d="M328.8,-850.77C337.58,-843.78 346.53,-836.33 354.62,-829 363.16,-821.28 371.89,-812.72 380.18,-804.25"/>
<polygon fill="#c1a78e" stroke="#c1a78e" points="382.5,-806.89 386.93,-797.26 377.47,-802.02 382.5,-806.89"/>
</g>
<!-- rec -->
<g id="node10" class="node">
<title>rec</title>
<path fill="#4d4d28" stroke="#6e6963" d="M289.25,-783C289.25,-783 166,-783 166,-783 160,-783 154,-777 154,-771 154,-771 154,-736 154,-736 154,-730 160,-724 166,-724 166,-724 289.25,-724 289.25,-724 295.25,-724 301.25,-730 301.25,-736 301.25,-736 301.25,-771 301.25,-771 301.25,-777 295.25,-783 289.25,-783"/>
<text xml:space="preserve" text-anchor="middle" x="227.62" y="-769.5" font-family="Helvetica,sans-Serif" font-size="10.00" fill="#ece1d7">record_descriptor</text>
<text xml:space="preserve" text-anchor="middle" x="227.62" y="-756.75" font-family="Helvetica,sans-Serif" font-size="10.00" fill="#ece1d7">diff(new, prev_known[oid])</text>
<text xml:space="preserve" text-anchor="middle" x="227.62" y="-744" font-family="Helvetica,sans-Serif" font-size="10.00" fill="#ece1d7">→ Added | Changed{diff} |</text>
<text xml:space="preserve" text-anchor="middle" x="227.62" y="-731.25" font-family="Helvetica,sans-Serif" font-size="10.00" fill="#ece1d7">no&#45;op (Arc::ptr_eq)</text>
</g>
<!-- fetch&#45;&gt;rec -->
<g id="edge9" class="edge">
<title>fetch&#45;&gt;rec</title>
<path fill="none" stroke="#c1a78e" d="M267.15,-850.67C259.93,-833.09 251.16,-811.77 243.72,-793.67"/>
<polygon fill="#c1a78e" stroke="#c1a78e" points="247.02,-792.48 239.98,-784.56 240.55,-795.14 247.02,-792.48"/>
<text xml:space="preserve" text-anchor="middle" x="302.86" y="-820.45" font-family="Helvetica,sans-Serif" font-size="9.00" fill="#ece1d7">Arc&lt;RelDescriptor&gt;</text>
</g>
<!-- shd -->
<g id="node13" class="node">
<title>shd</title>
<path fill="#3d4128" stroke="#6e6963" d="M922,-609.19C922,-613.26 891.35,-616.56 853.62,-616.56 815.9,-616.56 785.25,-613.26 785.25,-609.19 785.25,-609.19 785.25,-542.81 785.25,-542.81 785.25,-538.74 815.9,-535.44 853.62,-535.44 891.35,-535.44 922,-538.74 922,-542.81 922,-542.81 922,-609.19 922,-609.19"/>
<path fill="none" stroke="#6e6963" d="M922,-609.19C922,-605.12 891.35,-601.81 853.62,-601.81 815.9,-601.81 785.25,-605.12 785.25,-609.19"/>
<text xml:space="preserve" text-anchor="middle" x="853.62" y="-592" font-family="Helvetica,sans-Serif" font-size="10.00" fill="#ece1d7">shadow PG</text>
<text xml:space="preserve" text-anchor="middle" x="853.62" y="-579.25" font-family="Helvetica,sans-Serif" font-size="10.00" fill="#ece1d7">pg_class / pg_attribute /</text>
<text xml:space="preserve" text-anchor="middle" x="853.62" y="-566.5" font-family="Helvetica,sans-Serif" font-size="10.00" fill="#ece1d7">pg_type / pg_index /</text>
<text xml:space="preserve" text-anchor="middle" x="853.62" y="-553.75" font-family="Helvetica,sans-Serif" font-size="10.00" fill="#ece1d7">pg_last_wal_replay_lsn()</text>
</g>
<!-- libpq&#45;&gt;shd -->
<g id="edge13" class="edge">
<title>libpq&#45;&gt;shd</title>
<path fill="none" stroke="#cba85e" stroke-width="2" d="M532.88,-716.32C601.78,-692.03 692.65,-658.02 770.62,-622.25 772.49,-621.4 774.36,-620.52 776.25,-619.62"/>
<polygon fill="#cba85e" stroke="#cba85e" stroke-width="2" points="523.45,-719.63 531.39,-712.07 525.7,-718.31 532.72,-715.85 532.88,-716.32 533.05,-716.79 526.03,-719.25 534.37,-720.56 523.45,-719.63"/>
<polygon fill="#cba85e" stroke="#cba85e" stroke-width="2" points="777.75,-622.78 785.18,-615.23 774.66,-616.5 777.75,-622.78"/>
<text xml:space="preserve" text-anchor="middle" x="788.88" y="-680.7" font-family="Helvetica,sans-Serif" font-size="9.00" fill="#ece1d7">SELECT pg_class / pg_attribute /</text>
<text xml:space="preserve" text-anchor="middle" x="788.88" y="-669.45" font-family="Helvetica,sans-Serif" font-size="9.00" fill="#ece1d7">pg_type / pg_index +</text>
<text xml:space="preserve" text-anchor="middle" x="788.88" y="-658.2" font-family="Helvetica,sans-Serif" font-size="9.00" fill="#ece1d7">pg_last_wal_replay_lsn()</text>
<text xml:space="preserve" text-anchor="middle" x="788.88" y="-646.95" font-family="Helvetica,sans-Serif" font-size="9.00" fill="#ece1d7">port=55434, unix sock</text>
</g>
<!-- prev -->
<g id="node11" class="node">
<title>prev</title>
<polygon fill="#4d4d28" stroke="#6e6963" points="324.12,-599.12 321.12,-603.12 300.12,-603.12 297.12,-599.12 125.12,-599.12 125.12,-552.88 324.12,-552.88 324.12,-599.12"/>
<text xml:space="preserve" text-anchor="middle" x="224.62" y="-585.62" font-family="Helvetica,sans-Serif" font-size="10.00" fill="#ece1d7">prev_known</text>
<text xml:space="preserve" text-anchor="middle" x="224.62" y="-572.88" font-family="Helvetica,sans-Serif" font-size="10.00" fill="#ece1d7">HashMap&lt;Oid, Arc&lt;RelDescriptor&gt;&gt;</text>
<text xml:space="preserve" text-anchor="middle" x="224.62" y="-560.12" font-family="Helvetica,sans-Serif" font-size="10.00" fill="#ece1d7">last&#45;seen shape per oid</text>
</g>
<!-- rec&#45;&gt;prev -->
<g id="edge11" class="edge">
<title>rec&#45;&gt;prev</title>
<path fill="none" stroke="#cba85e" stroke-dasharray="5,2" d="M227.13,-723.52C226.6,-692.56 225.76,-643.55 225.2,-610.85"/>
<polygon fill="#cba85e" stroke="#cba85e" points="228.71,-611.05 225.04,-601.11 221.71,-611.17 228.71,-611.05"/>
<text xml:space="preserve" text-anchor="middle" x="241.11" y="-663.83" font-family="Helvetica,sans-Serif" font-size="9.00" fill="#ece1d7">upsert</text>
</g>
<!-- evtx -->
<g id="node14" class="node">
<title>evtx</title>
<path fill="#4d4d28" stroke="#6e6963" d="M744.52,-622.25C744.52,-622.25 593.7,-622.25 593.7,-622.25 587.7,-622.25 579.08,-616.85 576.45,-611.46 576.45,-611.46 541.98,-540.54 541.98,-540.54 539.35,-535.15 542.73,-529.75 548.73,-529.75 548.73,-529.75 699.55,-529.75 699.55,-529.75 705.55,-529.75 714.17,-535.15 716.8,-540.54 716.8,-540.54 751.27,-611.46 751.27,-611.46 753.9,-616.85 750.52,-622.25 744.52,-622.25"/>
<text xml:space="preserve" text-anchor="middle" x="646.62" y="-585.62" font-family="Helvetica,sans-Serif" font-size="10.00" fill="#ece1d7">schema_event_tx</text>
<text xml:space="preserve" text-anchor="middle" x="646.62" y="-572.88" font-family="Helvetica,sans-Serif" font-size="10.00" fill="#ece1d7">mpsc::unbounded</text>
<text xml:space="preserve" text-anchor="middle" x="646.62" y="-560.12" font-family="Helvetica,sans-Serif" font-size="10.00" fill="#ece1d7">(single subscriber)</text>
</g>
<!-- rec&#45;&gt;evtx -->
<g id="edge12" class="edge">
<title>rec&#45;&gt;evtx</title>
<path fill="none" stroke="#cba85e" stroke-width="2" d="M288.04,-723.71C297.25,-719.46 306.67,-715.19 315.62,-711.25 361.1,-691.26 479.28,-643.72 561.36,-610.93"/>
<polygon fill="#cba85e" stroke="#cba85e" stroke-width="2" points="562.65,-614.19 570.64,-607.23 560.05,-607.69 562.65,-614.19"/>
<text xml:space="preserve" text-anchor="middle" x="525.04" y="-663.83" font-family="Helvetica,sans-Serif" font-size="9.00" fill="#ece1d7">Added | Changed{diff}</text>
</g>
<!-- sweep&#45;&gt;gencnt -->
<g id="edge21" class="edge">
<title>sweep&#45;&gt;gencnt</title>
<path fill="none" stroke="#cba85e" stroke-dasharray="5,2" d="M429.48,-1282.92C423.17,-1268.02 415.18,-1249.12 407.4,-1230.76"/>
<polygon fill="#cba85e" stroke="#cba85e" points="410.7,-1229.58 403.58,-1221.73 404.26,-1232.3 410.7,-1229.58"/>
<text xml:space="preserve" text-anchor="middle" x="450.27" y="-1246.2" font-family="Helvetica,sans-Serif" font-size="9.00" fill="#ece1d7">bump on DROP</text>
</g>
<!-- sweep&#45;&gt;libpq -->
<g id="edge18" class="edge">
<title>sweep&#45;&gt;libpq</title>
<path fill="none" stroke="#cba85e" stroke-dasharray="5,2" d="M471.41,-1282.87C478.88,-1274.4 486.28,-1264.71 491.62,-1254.75 498.87,-1241.26 498.61,-1236.68 500.62,-1221.5 507.62,-1168.85 509.38,-1154.38 500.62,-1102 496.34,-1076.39 488.31,-1071.84 481.62,-1046.75 459.63,-964.15 442.67,-866.23 433.43,-807.3"/>
<polygon fill="#cba85e" stroke="#cba85e" points="436.91,-806.9 431.92,-797.55 429.99,-807.97 436.91,-806.9"/>
<text xml:space="preserve" text-anchor="middle" x="532.62" y="-1026.33" font-family="Helvetica,sans-Serif" font-size="9.00" fill="#ece1d7">SELECT oid = ANY($1)</text>
<text xml:space="preserve" text-anchor="middle" x="532.62" y="-1015.08" font-family="Helvetica,sans-Serif" font-size="9.00" fill="#ece1d7">FROM pg_class</text>
</g>
<!-- sweep&#45;&gt;prev -->
<g id="edge19" class="edge">
<title>sweep&#45;&gt;prev</title>
<path fill="none" stroke="#cba85e" stroke-dasharray="5,2" d="M363.01,-1285.2C323.6,-1271.75 283.4,-1257.63 279.62,-1254.75 223.55,-1211.98 271.88,-1163.08 236.62,-1102 217.33,-1068.57 188.13,-1080.62 169.62,-1046.75 97.84,-915.38 97.93,-855.03 139.62,-711.25 150.91,-672.31 177.25,-633.84 197.64,-608.13"/>
<polygon fill="#cba85e" stroke="#cba85e" points="200.3,-610.4 203.89,-600.43 194.87,-605.99 200.3,-610.4"/>
<text xml:space="preserve" text-anchor="middle" x="171.84" y="-958.7" font-family="Helvetica,sans-Serif" font-size="9.00" fill="#ece1d7">remove missing</text>
</g>
<!-- sweep&#45;&gt;evtx -->
<g id="edge20" class="edge">
<title>sweep&#45;&gt;evtx</title>
<path fill="none" stroke="#cba85e" d="M508.33,-1282.87C553.73,-1258.31 605.62,-1218.12 605.62,-1162.75 605.62,-1162.75 605.62,-1162.75 605.62,-752.5 605.62,-711.84 616.19,-667.25 626.59,-633.18"/>
<polygon fill="#cba85e" stroke="#cba85e" points="629.83,-634.54 629.49,-623.95 623.15,-632.44 629.83,-634.54"/>
<text xml:space="preserve" text-anchor="middle" x="661.12" y="-958.7" font-family="Helvetica,sans-Serif" font-size="9.00" fill="#ece1d7">Dropped { oid, qname }</text>
</g>
<!-- xbuf -->
<g id="node15" class="node">
<title>xbuf</title>
<path fill="#4d4128" stroke="#6e6963" d="M644.88,-463.25C644.88,-463.25 492.38,-463.25 492.38,-463.25 486.38,-463.25 480.38,-457.25 480.38,-451.25 480.38,-451.25 480.38,-429 480.38,-429 480.38,-423 486.38,-417 492.38,-417 492.38,-417 644.88,-417 644.88,-417 650.88,-417 656.88,-423 656.88,-429 656.88,-429 656.88,-451.25 656.88,-451.25 656.88,-457.25 650.88,-463.25 644.88,-463.25"/>
<text xml:space="preserve" text-anchor="middle" x="568.62" y="-449.75" font-family="Helvetica,sans-Serif" font-size="10.00" fill="#ece1d7">XactBuffer</text>
<text xml:space="preserve" text-anchor="middle" x="568.62" y="-437" font-family="Helvetica,sans-Serif" font-size="10.00" fill="#ece1d7">stamps SchemaEvent on xid;</text>
<text xml:space="preserve" text-anchor="middle" x="568.62" y="-424.25" font-family="Helvetica,sans-Serif" font-size="10.00" fill="#ece1d7">drain&#45;time interleave with tuples</text>
</g>
<!-- evtx&#45;&gt;xbuf -->
<g id="edge22" class="edge">
<title>evtx&#45;&gt;xbuf</title>
<path fill="none" stroke="#cba85e" stroke-dasharray="5,2" d="M615.48,-529.52C610.86,-522.32 606.27,-514.9 602.12,-507.75 595.83,-496.88 589.49,-484.69 584.05,-473.73"/>
<polygon fill="#cba85e" stroke="#cba85e" points="587.34,-472.49 579.81,-465.04 581.06,-475.56 587.34,-472.49"/>
<text xml:space="preserve" text-anchor="middle" x="644.88" y="-499.2" font-family="Helvetica,sans-Serif" font-size="9.00" fill="#ece1d7">stamp on xid</text>
<text xml:space="preserve" text-anchor="middle" x="644.88" y="-487.95" font-family="Helvetica,sans-Serif" font-size="9.00" fill="#ece1d7">(lsn&#45;ordered drain)</text>
</g>
<!-- ddlapp -->
<g id="node16" class="node">
<title>ddlapp</title>
<path fill="#5d4628" stroke="#6e6963" d="M821.62,-463.25C821.62,-463.25 697.62,-463.25 697.62,-463.25 691.62,-463.25 685.62,-457.25 685.62,-451.25 685.62,-451.25 685.62,-429 685.62,-429 685.62,-423 691.62,-417 697.62,-417 697.62,-417 821.62,-417 821.62,-417 827.62,-417 833.62,-423 833.62,-429 833.62,-429 833.62,-451.25 833.62,-451.25 833.62,-457.25 827.62,-463.25 821.62,-463.25"/>
<text xml:space="preserve" text-anchor="middle" x="759.62" y="-449.75" font-family="Helvetica,sans-Serif" font-size="10.00" fill="#ece1d7">DdlApplicator</text>
<text xml:space="preserve" text-anchor="middle" x="759.62" y="-437" font-family="Helvetica,sans-Serif" font-size="10.00" fill="#ece1d7">ch_ddl.rs (own CH TCP)</text>
<text xml:space="preserve" text-anchor="middle" x="759.62" y="-424.25" font-family="Helvetica,sans-Serif" font-size="10.00" fill="#ece1d7">drains at commit boundary</text>
</g>
<!-- evtx&#45;&gt;ddlapp -->
<g id="edge23" class="edge">
<title>evtx&#45;&gt;ddlapp</title>
<path fill="none" stroke="#bf8c5f" stroke-width="2" d="M685.2,-529.3C700.66,-510.99 718.12,-490.3 732.24,-473.57"/>
<polygon fill="#bf8c5f" stroke="#bf8c5f" stroke-width="2" points="734.82,-475.94 738.6,-466.04 729.47,-471.42 734.82,-475.94"/>
<text xml:space="preserve" text-anchor="middle" x="756.22" y="-493.57" font-family="Helvetica,sans-Serif" font-size="9.00" fill="#ece1d7">drain at commit</text>
</g>
<!-- legend -->
<g id="node17" class="node">
<title>legend</title>
<path fill="#6e6963" stroke="none" d="M1285.62,-372C1285.62,-372 233.62,-372 233.62,-372 227.62,-372 221.62,-366 221.62,-360 221.62,-360 221.62,-12 221.62,-12 221.62,-6 227.62,0 233.62,0 233.62,0 1285.62,0 1285.62,0 1291.62,0 1297.62,-6 1297.62,-12 1297.62,-12 1297.62,-360 1297.62,-360 1297.62,-366 1291.62,-372 1285.62,-372"/>
<polygon fill="#34302c" stroke="none" points="229.62,-345.25 229.62,-368 1289.62,-368 1289.62,-345.25 229.62,-345.25"/>
<polygon fill="none" stroke="#6e6963" points="229.62,-345.25 229.62,-368 1289.62,-368 1289.62,-345.25 229.62,-345.25"/>
<text xml:space="preserve" text-anchor="start" x="716.5" y="-354.5" font-family="Helvetica,sans-Serif" font-weight="bold" font-size="10.00" fill="#ece1d7">node fill — role</text>
<polygon fill="#4d4d28" stroke="none" points="229.62,-322.5 229.62,-345.25 558.25,-345.25 558.25,-322.5 229.62,-322.5"/>
<polygon fill="none" stroke="#6e6963" points="229.62,-322.5 229.62,-345.25 558.25,-345.25 558.25,-322.5 229.62,-322.5"/>
<polygon fill="none" stroke="#6e6963" points="558.25,-322.5 558.25,-345.25 1289.62,-345.25 1289.62,-322.5 558.25,-322.5"/>
<text xml:space="preserve" text-anchor="start" x="809.56" y="-330.5" font-family="Helvetica,sans-Serif" font-size="10.00" fill="#ece1d7">ShadowCatalog internal (cache, gates, epochs)</text>
<polygon fill="#4d4128" stroke="none" points="229.62,-299.75 229.62,-322.5 558.25,-322.5 558.25,-299.75 229.62,-299.75"/>
<polygon fill="none" stroke="#6e6963" points="229.62,-299.75 229.62,-322.5 558.25,-322.5 558.25,-299.75 229.62,-299.75"/>
<polygon fill="none" stroke="#6e6963" points="558.25,-299.75 558.25,-322.5 1289.62,-322.5 1289.62,-299.75 558.25,-299.75"/>
<text xml:space="preserve" text-anchor="start" x="845.19" y="-307.75" font-family="Helvetica,sans-Serif" font-size="10.00" fill="#ece1d7">decoder / XactBuffer (consumer)</text>
<polygon fill="#4d3a28" stroke="none" points="229.62,-277 229.62,-299.75 558.25,-299.75 558.25,-277 229.62,-277"/>
<polygon fill="none" stroke="#6e6963" points="229.62,-277 229.62,-299.75 558.25,-299.75 558.25,-277 229.62,-277"/>
<polygon fill="none" stroke="#6e6963" points="558.25,-277 558.25,-299.75 1289.62,-299.75 1289.62,-277 558.25,-277"/>
<text xml:space="preserve" text-anchor="start" x="822.69" y="-285" font-family="Helvetica,sans-Serif" font-size="10.00" fill="#ece1d7">CatalogTracker (filter, producer of bumps)</text>
<polygon fill="#5d4628" stroke="none" points="229.62,-254.25 229.62,-277 558.25,-277 558.25,-254.25 229.62,-254.25"/>
<polygon fill="none" stroke="#6e6963" points="229.62,-254.25 229.62,-277 558.25,-277 558.25,-254.25 229.62,-254.25"/>
<polygon fill="none" stroke="#6e6963" points="558.25,-254.25 558.25,-277 1289.62,-277 1289.62,-254.25 558.25,-254.25"/>
<text xml:space="preserve" text-anchor="start" x="843.31" y="-262.25" font-family="Helvetica,sans-Serif" font-size="10.00" fill="#ece1d7">DdlApplicator (CH DDL, own TCP)</text>
<polygon fill="#3d4128" stroke="none" points="229.62,-231.5 229.62,-254.25 558.25,-254.25 558.25,-231.5 229.62,-231.5"/>
<polygon fill="none" stroke="#6e6963" points="229.62,-231.5 229.62,-254.25 558.25,-254.25 558.25,-231.5 229.62,-231.5"/>
<polygon fill="none" stroke="#6e6963" points="558.25,-231.5 558.25,-254.25 1289.62,-254.25 1289.62,-231.5 558.25,-231.5"/>
<text xml:space="preserve" text-anchor="start" x="882.69" y="-239.5" font-family="Helvetica,sans-Serif" font-size="10.00" fill="#ece1d7">shadow Postgres</text>
<polygon fill="#34302c" stroke="none" points="229.62,-208.75 229.62,-231.5 1289.62,-231.5 1289.62,-208.75 229.62,-208.75"/>
<polygon fill="none" stroke="#6e6963" points="229.62,-208.75 229.62,-231.5 1289.62,-231.5 1289.62,-208.75 229.62,-208.75"/>
<text xml:space="preserve" text-anchor="start" x="729.62" y="-218" font-family="Helvetica,sans-Serif" font-weight="bold" font-size="10.00" fill="#ece1d7">edge style</text>
<polygon fill="none" stroke="#6e6963" points="229.62,-186 229.62,-208.75 558.25,-208.75 558.25,-186 229.62,-186"/>
<text xml:space="preserve" text-anchor="start" x="387.94" y="-195.25" font-family="Helvetica,sans-Serif" font-weight="bold" font-size="10.00" fill="#cba85e">━━</text>
<polygon fill="none" stroke="#6e6963" points="558.25,-186 558.25,-208.75 1289.62,-208.75 1289.62,-186 558.25,-186"/>
<text xml:space="preserve" text-anchor="start" x="791.94" y="-194" font-family="Helvetica,sans-Serif" font-size="10.00" fill="#ece1d7">libpq query / SchemaEvent flow (solid = forward path)</text>
<polygon fill="none" stroke="#6e6963" points="229.62,-163.25 229.62,-186 558.25,-186 558.25,-163.25 229.62,-163.25"/>
<text xml:space="preserve" text-anchor="start" x="387.94" y="-172.5" font-family="Helvetica,sans-Serif" font-weight="bold" font-size="10.00" fill="#cba85e">┄┄</text>
<polygon fill="none" stroke="#6e6963" points="558.25,-163.25 558.25,-186 1289.62,-186 1289.62,-163.25 558.25,-163.25"/>
<text xml:space="preserve" text-anchor="start" x="829.44" y="-171.25" font-family="Helvetica,sans-Serif" font-size="10.00" fill="#ece1d7">invalidation / cache feedback (dashed)</text>
<polygon fill="none" stroke="#6e6963" points="229.62,-140.5 229.62,-163.25 558.25,-163.25 558.25,-140.5 229.62,-140.5"/>
<text xml:space="preserve" text-anchor="start" x="387.94" y="-149.75" font-family="Helvetica,sans-Serif" font-weight="bold" font-size="10.00" fill="#bf8c5f">━━</text>
<polygon fill="none" stroke="#6e6963" points="558.25,-140.5 558.25,-163.25 1289.62,-163.25 1289.62,-140.5 558.25,-140.5"/>
<text xml:space="preserve" text-anchor="start" x="819.31" y="-148.5" font-family="Helvetica,sans-Serif" font-size="10.00" fill="#ece1d7">CH Native DDL (off hot path, separate TCP)</text>
<polygon fill="#34302c" stroke="none" points="229.62,-117.75 229.62,-140.5 1289.62,-140.5 1289.62,-117.75 229.62,-117.75"/>
<polygon fill="none" stroke="#6e6963" points="229.62,-117.75 229.62,-140.5 1289.62,-140.5 1289.62,-117.75 229.62,-117.75"/>
<text xml:space="preserve" text-anchor="start" x="696.62" y="-127" font-family="Helvetica,sans-Serif" font-weight="bold" font-size="10.00" fill="#ece1d7">SchemaEvent variants</text>
<polygon fill="none" stroke="#6e6963" points="229.62,-95 229.62,-117.75 558.25,-117.75 558.25,-95 229.62,-95"/>
<text xml:space="preserve" text-anchor="start" x="375.56" y="-104.25" font-family="Helvetica,sans-Serif" font-weight="bold" font-size="10.00" fill="#ece1d7">Added</text>
<polygon fill="none" stroke="#6e6963" points="558.25,-95 558.25,-117.75 1289.62,-117.75 1289.62,-95 558.25,-95"/>
<text xml:space="preserve" text-anchor="start" x="740.56" y="-103" font-family="Helvetica,sans-Serif" font-size="10.00" fill="#ece1d7">first sight of oid → CREATE TABLE (post&#45;DROP re&#45;create, seed_from_source)</text>
<polygon fill="none" stroke="#6e6963" points="229.62,-72.25 229.62,-95 558.25,-95 558.25,-72.25 229.62,-72.25"/>
<text xml:space="preserve" text-anchor="start" x="369.19" y="-81.5" font-family="Helvetica,sans-Serif" font-weight="bold" font-size="10.00" fill="#ece1d7">Changed</text>
<polygon fill="none" stroke="#6e6963" points="558.25,-72.25 558.25,-95 1289.62,-95 1289.62,-72.25 558.25,-72.25"/>
<text xml:space="preserve" text-anchor="start" x="697.81" y="-80.25" font-family="Helvetica,sans-Serif" font-size="10.00" fill="#ece1d7">refetched shape ≠ prev_known: ADD/DROP/RENAME COLUMN, type widen (rejected for now)</text>
<polygon fill="none" stroke="#6e6963" points="229.62,-49.5 229.62,-72.25 558.25,-72.25 558.25,-49.5 229.62,-49.5"/>
<text xml:space="preserve" text-anchor="start" x="369.19" y="-58.75" font-family="Helvetica,sans-Serif" font-weight="bold" font-size="10.00" fill="#ece1d7">Dropped</text>
<polygon fill="none" stroke="#6e6963" points="558.25,-49.5 558.25,-72.25 1289.62,-72.25 1289.62,-49.5 558.25,-49.5"/>
<text xml:space="preserve" text-anchor="start" x="700.44" y="-57.5" font-family="Helvetica,sans-Serif" font-size="10.00" fill="#ece1d7">sweep at armed commit → configured dest action; pg_toast → durable deferred mirror retire</text>
<polygon fill="#34302c" stroke="none" points="229.62,-26.75 229.62,-49.5 1289.62,-49.5 1289.62,-26.75 229.62,-26.75"/>
<polygon fill="none" stroke="#6e6963" points="229.62,-26.75 229.62,-49.5 1289.62,-49.5 1289.62,-26.75 229.62,-26.75"/>
<text xml:space="preserve" text-anchor="start" x="701.5" y="-36" font-family="Helvetica,sans-Serif" font-weight="bold" font-size="10.00" fill="#ece1d7">generation invariant</text>
<polygon fill="none" stroke="#6e6963" points="229.62,-4 229.62,-26.75 1289.62,-26.75 1289.62,-4 229.62,-4"/>
<text xml:space="preserve" text-anchor="start" x="234.62" y="-12" font-family="Helvetica,sans-Serif" font-size="10.00" fill="#ece1d7">one DDL → one bump → every cache entry stale on next access. Coarse&#45;fire over&#45;invalidates (hint&#45;bit / autovac noise count) but never under&#45;invalidates — schema correctness is the floor, refetch cost the negotiable.</text>
</g>
<!-- ddlapp&#45;&gt;legend -->
</g>
</svg>
