<?xml version="1.0" encoding="UTF-8" standalone="no"?>
<!DOCTYPE svg PUBLIC "-//W3C//DTD SVG 1.1//EN"
 "http://www.w3.org/Graphics/SVG/1.1/DTD/svg11.dtd">
<!-- Generated by graphviz version 14.1.5 (0)
 -->
<!-- Title: shadow_comm Pages: 1 -->
<svg width="1797pt" height="832pt"
 viewBox="0.00 0.00 1797.00 832.00" xmlns="http://www.w3.org/2000/svg" xmlns:xlink="http://www.w3.org/1999/xlink">
<g id="graph0" class="graph" transform="scale(1 1) rotate(0) translate(4 827.62)">
<title>shadow_comm</title>
<polygon fill="#272623" stroke="none" points="-4,4 -4,-827.62 1792.75,-827.62 1792.75,4 -4,4"/>
<text xml:space="preserve" text-anchor="middle" x="894.38" y="-806.33" font-family="Helvetica,sans-Serif" font-size="14.00" fill="#ece1d7">walshadow ↔ shadow PG — three communication channels</text>
<g id="clust1" class="cluster">
<title>cluster_w</title>
<polygon fill="#34302c" stroke="#a1a9cc" points="262.88,-128.12 262.88,-462.12 1094.75,-462.12 1094.75,-128.12 262.88,-128.12"/>
<text xml:space="preserve" text-anchor="middle" x="678.81" y="-444.82" font-family="Helvetica,sans-Serif" font-size="14.00" fill="#ece1d7">walshadow&#45;stream daemon</text>
</g>
<g id="clust2" class="cluster">
<title>cluster_s</title>
<polygon fill="#34302c" stroke="#869461" points="1278.25,-123.12 1278.25,-378.12 1780.75,-378.12 1780.75,-123.12 1278.25,-123.12"/>
<text xml:space="preserve" text-anchor="middle" x="1529.5" y="-360.82" font-family="Helvetica,sans-Serif" font-size="14.00" fill="#ece1d7">shadow PG (continuous recovery)</text>
</g>
<!-- catalog -->
<g id="node1" class="node">
<title>catalog</title>
<path fill="#3d3d54" stroke="#6e6963" d="M1074.75,-272.62C1074.75,-272.62 930.5,-272.62 930.5,-272.62 924.5,-272.62 918.5,-266.62 918.5,-260.62 918.5,-260.62 918.5,-225.62 918.5,-225.62 918.5,-219.62 924.5,-213.62 930.5,-213.62 930.5,-213.62 1074.75,-213.62 1074.75,-213.62 1080.75,-213.62 1086.75,-219.62 1086.75,-225.62 1086.75,-225.62 1086.75,-260.62 1086.75,-260.62 1086.75,-266.62 1080.75,-272.62 1074.75,-272.62"/>
<text xml:space="preserve" text-anchor="middle" x="1002.62" y="-259.12" font-family="Helvetica,sans-Serif" font-size="10.00" fill="#ece1d7">ShadowCatalog</text>
<text xml:space="preserve" text-anchor="middle" x="1002.62" y="-246.38" font-family="Helvetica,sans-Serif" font-size="10.00" fill="#ece1d7">RelDescriptor LRU</text>
<text xml:space="preserve" text-anchor="middle" x="1002.62" y="-233.62" font-family="Helvetica,sans-Serif" font-size="10.00" fill="#ece1d7">+ tokio_postgres client</text>
<text xml:space="preserve" text-anchor="middle" x="1002.62" y="-220.88" font-family="Helvetica,sans-Serif" font-size="10.00" fill="#ece1d7">+ schema_event_tx (PHASE15)</text>
</g>
<!-- shadcat -->
<g id="node10" class="node">
<title>shadcat</title>
<path fill="#3d4128" stroke="#6e6963" d="M1425.25,-266.25C1425.25,-266.25 1311.75,-266.25 1311.75,-266.25 1305.75,-266.25 1299.75,-260.25 1299.75,-254.25 1299.75,-254.25 1299.75,-232 1299.75,-232 1299.75,-226 1305.75,-220 1311.75,-220 1311.75,-220 1425.25,-220 1425.25,-220 1431.25,-220 1437.25,-226 1437.25,-232 1437.25,-232 1437.25,-254.25 1437.25,-254.25 1437.25,-260.25 1431.25,-266.25 1425.25,-266.25"/>
<text xml:space="preserve" text-anchor="middle" x="1368.5" y="-252.75" font-family="Helvetica,sans-Serif" font-size="10.00" fill="#ece1d7">pg_class /</text>
<text xml:space="preserve" text-anchor="middle" x="1368.5" y="-240" font-family="Helvetica,sans-Serif" font-size="10.00" fill="#ece1d7">pg_attribute /</text>
<text xml:space="preserve" text-anchor="middle" x="1368.5" y="-227.25" font-family="Helvetica,sans-Serif" font-size="10.00" fill="#ece1d7">pg_type / pg_namespace</text>
</g>
<!-- catalog&#45;&gt;shadcat -->
<g id="edge1" class="edge">
<title>catalog&#45;&gt;shadcat</title>
<path fill="none" stroke="#cba85e" stroke-width="2" d="M1099.43,-243.12C1157.62,-243.12 1231.09,-243.12 1286.4,-243.12"/>
<polygon fill="#cba85e" stroke="#cba85e" stroke-width="2" points="1089.54,-243.13 1099.54,-238.63 1092.11,-242.63 1099.54,-242.63 1099.54,-243.13 1099.54,-243.63 1092.11,-243.63 1099.54,-247.63 1089.54,-243.13"/>
<polygon fill="#cba85e" stroke="#cba85e" stroke-width="2" points="1286.3,-246.63 1296.3,-243.13 1286.3,-239.63 1286.3,-246.63"/>
<text xml:space="preserve" text-anchor="middle" x="1186.5" y="-271.88" font-family="Helvetica,sans-Serif" font-size="10.00" fill="#ece1d7">① libpq SELECT</text>
<text xml:space="preserve" text-anchor="middle" x="1186.5" y="-259.12" font-family="Helvetica,sans-Serif" font-size="10.00" fill="#ece1d7">(cache fill on miss)</text>
<text xml:space="preserve" text-anchor="middle" x="1186.5" y="-246.38" font-family="Helvetica,sans-Serif" font-size="10.00" fill="#ece1d7">port=55434</text>
</g>
<!-- inval -->
<g id="node2" class="node">
<title>inval</title>
<path fill="#3d3d54" stroke="#6e6963" d="M410.25,-261.12C410.25,-261.12 306.5,-261.12 306.5,-261.12 300.5,-261.12 294.5,-255.12 294.5,-249.12 294.5,-249.12 294.5,-237.12 294.5,-237.12 294.5,-231.12 300.5,-225.12 306.5,-225.12 306.5,-225.12 410.25,-225.12 410.25,-225.12 416.25,-225.12 422.25,-231.12 422.25,-237.12 422.25,-237.12 422.25,-249.12 422.25,-249.12 422.25,-255.12 416.25,-261.12 410.25,-261.12"/>
<text xml:space="preserve" text-anchor="middle" x="358.38" y="-246.38" font-family="Helvetica,sans-Serif" font-size="10.00" fill="#ece1d7">invalidation_drain task</text>
<text xml:space="preserve" text-anchor="middle" x="358.38" y="-233.62" font-family="Helvetica,sans-Serif" font-size="10.00" fill="#ece1d7">generation counter</text>
</g>
<!-- inval&#45;&gt;catalog -->
<g id="edge11" class="edge">
<title>inval&#45;&gt;catalog</title>
<path fill="none" stroke="#cba85e" stroke-dasharray="5,2" d="M422.71,-243.12C536.03,-243.12 773.99,-243.12 906.83,-243.12"/>
<polygon fill="#cba85e" stroke="#cba85e" points="906.66,-246.63 916.66,-243.13 906.66,-239.63 906.66,-246.63"/>
<text xml:space="preserve" text-anchor="middle" x="817.62" y="-259.12" font-family="Helvetica,sans-Serif" font-size="10.00" fill="#ece1d7">bump generation</text>
<text xml:space="preserve" text-anchor="middle" x="817.62" y="-246.38" font-family="Helvetica,sans-Serif" font-size="10.00" fill="#ece1d7">(force cache miss)</text>
</g>
<!-- sender -->
<g id="node3" class="node">
<title>sender</title>
<path fill="#4d3340" stroke="#6e6963" d="M433.88,-350.25C433.88,-350.25 282.88,-350.25 282.88,-350.25 276.88,-350.25 270.88,-344.25 270.88,-338.25 270.88,-338.25 270.88,-316 270.88,-316 270.88,-310 276.88,-304 282.88,-304 282.88,-304 433.88,-304 433.88,-304 439.88,-304 445.88,-310 445.88,-316 445.88,-316 445.88,-338.25 445.88,-338.25 445.88,-344.25 439.88,-350.25 433.88,-350.25"/>
<text xml:space="preserve" text-anchor="middle" x="358.38" y="-336.75" font-family="Helvetica,sans-Serif" font-size="10.00" fill="#ece1d7">ShadowStreamSink + walsender</text>
<text xml:space="preserve" text-anchor="middle" x="358.38" y="-324" font-family="Helvetica,sans-Serif" font-size="10.00" fill="#ece1d7">listener (unix / TCP)</text>
<text xml:space="preserve" text-anchor="middle" x="358.38" y="-311.25" font-family="Helvetica,sans-Serif" font-size="10.00" fill="#ece1d7">frame encoder</text>
</g>
<!-- walrecv -->
<g id="node8" class="node">
<title>walrecv</title>
<path fill="#3d4128" stroke="#6e6963" d="M1438.75,-177.25C1438.75,-177.25 1298.25,-177.25 1298.25,-177.25 1292.25,-177.25 1286.25,-171.25 1286.25,-165.25 1286.25,-165.25 1286.25,-143 1286.25,-143 1286.25,-137 1292.25,-131 1298.25,-131 1298.25,-131 1438.75,-131 1438.75,-131 1444.75,-131 1450.75,-137 1450.75,-143 1450.75,-143 1450.75,-165.25 1450.75,-165.25 1450.75,-171.25 1444.75,-177.25 1438.75,-177.25"/>
<text xml:space="preserve" text-anchor="middle" x="1368.5" y="-163.75" font-family="Helvetica,sans-Serif" font-size="10.00" fill="#ece1d7">walreceiver</text>
<text xml:space="preserve" text-anchor="middle" x="1368.5" y="-151" font-family="Helvetica,sans-Serif" font-size="10.00" fill="#ece1d7">primary_conninfo=walshadow</text>
<text xml:space="preserve" text-anchor="middle" x="1368.5" y="-138.25" font-family="Helvetica,sans-Serif" font-size="10.00" fill="#ece1d7">flush/apply LSN</text>
</g>
<!-- sender&#45;&gt;walrecv -->
<g id="edge2" class="edge">
<title>sender&#45;&gt;walrecv</title>
<path fill="none" stroke="#bd8183" stroke-width="3" d="M446.04,-335.14C522.51,-338.08 634.32,-331.94 716.75,-283.12 740.31,-269.17 731.74,-250.69 752.75,-233.12 815.39,-180.75 838.87,-171.93 918.5,-153.88 994.89,-136.55 1016.42,-153.84 1094.75,-153.88 1153.51,-153.9 1219.38,-153.96 1271.67,-154.02"/>
<polygon fill="#bd8183" stroke="#bd8183" stroke-width="3" points="1271.5,-157.52 1281.5,-154.03 1271.51,-150.52 1271.5,-157.52"/>
<text xml:space="preserve" text-anchor="middle" x="1002.62" y="-182.62" font-family="Helvetica,sans-Serif" font-size="10.00" fill="#ece1d7">② &#39;w&#39; XLogData frames</text>
<text xml:space="preserve" text-anchor="middle" x="1002.62" y="-169.88" font-family="Helvetica,sans-Serif" font-size="10.00" fill="#ece1d7">record cadence (ms)</text>
<text xml:space="preserve" text-anchor="middle" x="1002.62" y="-157.12" font-family="Helvetica,sans-Serif" font-size="10.00" fill="#ece1d7">streaming&#45;replication protocol</text>
</g>
<!-- segwrt -->
<g id="node4" class="node">
<title>segwrt</title>
<path fill="#4d3850" stroke="#6e6963" d="M426,-429.12C426,-429.12 290.75,-429.12 290.75,-429.12 284.75,-429.12 278.75,-423.12 278.75,-417.12 278.75,-417.12 278.75,-405.12 278.75,-405.12 278.75,-399.12 284.75,-393.12 290.75,-393.12 290.75,-393.12 426,-393.12 426,-393.12 432,-393.12 438,-399.12 438,-405.12 438,-405.12 438,-417.12 438,-417.12 438,-423.12 432,-429.12 426,-429.12"/>
<text xml:space="preserve" text-anchor="middle" x="358.38" y="-414.38" font-family="Helvetica,sans-Serif" font-size="10.00" fill="#ece1d7">DirSegmentSink</text>
<text xml:space="preserve" text-anchor="middle" x="358.38" y="-401.62" font-family="Helvetica,sans-Serif" font-size="10.00" fill="#ece1d7">filtered segments + manifest</text>
</g>
<!-- outdir -->
<g id="node6" class="node">
<title>outdir</title>
<polygon fill="#5a3d5a" stroke="#6e6963" points="1060.12,-527.25 939.12,-527.25 939.12,-481 1066.12,-481 1066.12,-521.25 1060.12,-527.25"/>
<polyline fill="none" stroke="#6e6963" points="1060.12,-527.25 1060.12,-521.25"/>
<polyline fill="none" stroke="#6e6963" points="1066.12,-521.25 1060.12,-521.25"/>
<text xml:space="preserve" text-anchor="middle" x="1002.62" y="-513.75" font-family="Helvetica,sans-Serif" font-size="10.00" fill="#ece1d7">out/&lt;seg&gt;</text>
<text xml:space="preserve" text-anchor="middle" x="1002.62" y="-501" font-family="Helvetica,sans-Serif" font-size="10.00" fill="#ece1d7">16 MiB filtered</text>
<text xml:space="preserve" text-anchor="middle" x="1002.62" y="-488.25" font-family="Helvetica,sans-Serif" font-size="10.00" fill="#ece1d7">segments + manifests</text>
</g>
<!-- segwrt&#45;&gt;outdir -->
<g id="edge4" class="edge">
<title>segwrt&#45;&gt;outdir</title>
<path fill="none" stroke="#6e6963" d="M438.39,-417.95C510.96,-424.64 621.38,-435.9 716.75,-450.12 788.75,-460.86 870.31,-476.7 927.65,-488.45"/>
<polygon fill="#6e6963" stroke="#6e6963" points="926.8,-491.85 937.3,-490.44 928.21,-484.99 926.8,-491.85"/>
<text xml:space="preserve" text-anchor="middle" x="817.62" y="-482.01" font-family="Helvetica,sans-Serif" font-size="10.00" fill="#ece1d7">fsync segment + manifest</text>
</g>
<!-- bootstrap -->
<g id="node5" class="node">
<title>bootstrap</title>
<path fill="#4d4128" stroke="#6e6963" d="M431.62,-182.25C431.62,-182.25 285.12,-182.25 285.12,-182.25 279.12,-182.25 273.12,-176.25 273.12,-170.25 273.12,-170.25 273.12,-148 273.12,-148 273.12,-142 279.12,-136 285.12,-136 285.12,-136 431.62,-136 431.62,-136 437.62,-136 443.62,-142 443.62,-148 443.62,-148 443.62,-170.25 443.62,-170.25 443.62,-176.25 437.62,-182.25 431.62,-182.25"/>
<text xml:space="preserve" text-anchor="middle" x="358.38" y="-168.75" font-family="Helvetica,sans-Serif" font-size="10.00" fill="#ece1d7">Bootstrap orchestrator</text>
<text xml:space="preserve" text-anchor="middle" x="358.38" y="-156" font-family="Helvetica,sans-Serif" font-size="10.00" fill="#ece1d7">spawn_greenfield_bootstrap</text>
<text xml:space="preserve" text-anchor="middle" x="358.38" y="-143.25" font-family="Helvetica,sans-Serif" font-size="10.00" fill="#ece1d7">(catalog seed + BASE_BACKUP)</text>
</g>
<!-- dataok -->
<g id="node7" class="node">
<title>dataok</title>
<polygon fill="#5a3d5a" stroke="#6e6963" points="1061.25,-46.25 938,-46.25 938,0 1067.25,0 1067.25,-40.25 1061.25,-46.25"/>
<polyline fill="none" stroke="#6e6963" points="1061.25,-46.25 1061.25,-40.25"/>
<polyline fill="none" stroke="#6e6963" points="1067.25,-40.25 1061.25,-40.25"/>
<text xml:space="preserve" text-anchor="middle" x="1002.62" y="-32.75" font-family="Helvetica,sans-Serif" font-size="10.00" fill="#ece1d7">shadow data dir</text>
<text xml:space="preserve" text-anchor="middle" x="1002.62" y="-20" font-family="Helvetica,sans-Serif" font-size="10.00" fill="#ece1d7">populated by bootstrap</text>
<text xml:space="preserve" text-anchor="middle" x="1002.62" y="-7.25" font-family="Helvetica,sans-Serif" font-size="10.00" fill="#ece1d7">(catalog files landed)</text>
</g>
<!-- bootstrap&#45;&gt;dataok -->
<g id="edge8" class="edge">
<title>bootstrap&#45;&gt;dataok</title>
<path fill="none" stroke="#bf8c5f" stroke-width="2" stroke-dasharray="5,2" d="M443.74,-140.81C523.37,-123.57 646.13,-97.11 752.75,-74.62 810.54,-62.44 875.93,-48.92 925.18,-38.79"/>
<polygon fill="#bf8c5f" stroke="#bf8c5f" stroke-width="2" points="925.6,-42.27 934.69,-36.83 924.19,-35.42 925.6,-42.27"/>
<text xml:space="preserve" text-anchor="middle" x="817.62" y="-90.62" font-family="Helvetica,sans-Serif" font-size="10.00" fill="#ece1d7">④ catalog files</text>
<text xml:space="preserve" text-anchor="middle" x="817.62" y="-77.88" font-family="Helvetica,sans-Serif" font-size="10.00" fill="#ece1d7">(BASE_BACKUP landed)</text>
</g>
<!-- restorer -->
<g id="node9" class="node">
<title>restorer</title>
<path fill="#3d4128" stroke="#6e6963" d="M1408.75,-345.12C1408.75,-345.12 1328.25,-345.12 1328.25,-345.12 1322.25,-345.12 1316.25,-339.12 1316.25,-333.12 1316.25,-333.12 1316.25,-321.12 1316.25,-321.12 1316.25,-315.12 1322.25,-309.12 1328.25,-309.12 1328.25,-309.12 1408.75,-309.12 1408.75,-309.12 1414.75,-309.12 1420.75,-315.12 1420.75,-321.12 1420.75,-321.12 1420.75,-333.12 1420.75,-333.12 1420.75,-339.12 1414.75,-345.12 1408.75,-345.12"/>
<text xml:space="preserve" text-anchor="middle" x="1368.5" y="-330.38" font-family="Helvetica,sans-Serif" font-size="10.00" fill="#ece1d7">restore_command</text>
<text xml:space="preserve" text-anchor="middle" x="1368.5" y="-317.62" font-family="Helvetica,sans-Serif" font-size="10.00" fill="#ece1d7">cp out/%f %p</text>
</g>
<!-- outdir&#45;&gt;restorer -->
<g id="edge5" class="edge">
<title>outdir&#45;&gt;restorer</title>
<path fill="none" stroke="#6e6963" stroke-width="2" d="M1066.36,-483.5C1075.97,-479.94 1085.69,-476.1 1094.75,-472.12 1179,-435.19 1272.8,-382.65 1325.53,-352.01"/>
<polygon fill="#6e6963" stroke="#6e6963" stroke-width="2" points="1327.28,-355.03 1334.15,-346.97 1323.75,-348.99 1327.28,-355.03"/>
<text xml:space="preserve" text-anchor="middle" x="1186.5" y="-487.04" font-family="Helvetica,sans-Serif" font-size="10.00" fill="#ece1d7">③ filesystem read</text>
<text xml:space="preserve" text-anchor="middle" x="1186.5" y="-474.29" font-family="Helvetica,sans-Serif" font-size="10.00" fill="#ece1d7">on walreceiver disconnect</text>
<text xml:space="preserve" text-anchor="middle" x="1186.5" y="-461.54" font-family="Helvetica,sans-Serif" font-size="10.00" fill="#ece1d7">or end&#45;of&#45;WAL</text>
</g>
<!-- pglog -->
<g id="node11" class="node">
<title>pglog</title>
<path fill="#3d4128" stroke="#6e6963" d="M1760.75,-229.12C1760.75,-229.12 1648,-229.12 1648,-229.12 1642,-229.12 1636,-223.12 1636,-217.12 1636,-217.12 1636,-205.12 1636,-205.12 1636,-199.12 1642,-193.12 1648,-193.12 1648,-193.12 1760.75,-193.12 1760.75,-193.12 1766.75,-193.12 1772.75,-199.12 1772.75,-205.12 1772.75,-205.12 1772.75,-217.12 1772.75,-217.12 1772.75,-223.12 1766.75,-229.12 1760.75,-229.12"/>
<text xml:space="preserve" text-anchor="middle" x="1704.38" y="-214.38" font-family="Helvetica,sans-Serif" font-size="10.00" fill="#ece1d7">redo apply</text>
<text xml:space="preserve" text-anchor="middle" x="1704.38" y="-201.62" font-family="Helvetica,sans-Serif" font-size="10.00" fill="#ece1d7">pg_last_wal_replay_lsn()</text>
</g>
<!-- dataok&#45;&gt;pglog -->
<g id="edge9" class="edge">
<title>dataok&#45;&gt;pglog</title>
<path fill="none" stroke="#bf8c5f" stroke-dasharray="5,2" d="M1067.75,-25.74C1180.57,-32.49 1419.72,-56.59 1600,-142.12 1625.3,-154.13 1651.51,-171.69 1671.21,-186.09"/>
<polygon fill="#bf8c5f" stroke="#bf8c5f" points="1669,-188.81 1679.11,-191.97 1673.18,-183.19 1669,-188.81"/>
<text xml:space="preserve" text-anchor="middle" x="1368.5" y="-88.51" font-family="Helvetica,sans-Serif" font-size="10.00" fill="#ece1d7">initial state</text>
</g>
<!-- walrecv&#45;&gt;catalog -->
<g id="edge12" class="edge">
<title>walrecv&#45;&gt;catalog</title>
<path fill="none" stroke="#a1a9cc" stroke-dasharray="1,5" d="M1303.34,-177.55C1293.98,-183.16 1285.17,-189.95 1278.25,-198.12 1250.36,-231.07 1284.89,-265.37 1250.25,-291.12 1195.82,-331.58 1116.53,-305.19 1062.66,-278.23"/>
<polygon fill="#a1a9cc" stroke="#a1a9cc" points="1064.41,-275.19 1053.92,-273.72 1061.2,-281.41 1064.41,-275.19"/>
<text xml:space="preserve" text-anchor="middle" x="1186.5" y="-340.68" font-family="Helvetica,sans-Serif" font-size="10.00" fill="#ece1d7">apply_lsn drives</text>
<text xml:space="preserve" text-anchor="middle" x="1186.5" y="-327.93" font-family="Helvetica,sans-Serif" font-size="10.00" fill="#ece1d7">relation_at gate</text>
<text xml:space="preserve" text-anchor="middle" x="1186.5" y="-315.18" font-family="Helvetica,sans-Serif" font-size="10.00" fill="#ece1d7">(unblocks decoder)</text>
</g>
<!-- walrecv&#45;&gt;sender -->
<g id="edge3" class="edge">
<title>walrecv&#45;&gt;sender</title>
<path fill="none" stroke="#bd8183" stroke-dasharray="5,2" d="M1303.34,-177.55C1293.98,-183.16 1285.17,-189.95 1278.25,-198.12 1250.36,-231.07 1284.37,-264.68 1250.25,-291.12 1129.2,-384.95 662.99,-355.23 457.55,-336.91"/>
<polygon fill="#bd8183" stroke="#bd8183" points="457.96,-333.43 447.69,-336.02 457.34,-340.4 457.96,-333.43"/>
<text xml:space="preserve" text-anchor="middle" x="1002.62" y="-371.31" font-family="Helvetica,sans-Serif" font-size="10.00" fill="#ece1d7">② &#39;r&#39; standby status</text>
<text xml:space="preserve" text-anchor="middle" x="1002.62" y="-358.56" font-family="Helvetica,sans-Serif" font-size="10.00" fill="#ece1d7">flush_lsn / apply_lsn</text>
</g>
<!-- walrecv&#45;&gt;pglog -->
<g id="edge7" class="edge">
<title>walrecv&#45;&gt;pglog</title>
<path fill="none" stroke="#bd8183" d="M1417.69,-177.68C1438.44,-186.7 1463.28,-196.03 1486.75,-201.12 1531.65,-210.87 1582.96,-213.59 1624.38,-213.78"/>
<polygon fill="#bd8183" stroke="#bd8183" points="1624.27,-217.28 1634.27,-213.77 1624.26,-210.28 1624.27,-217.28"/>
<text xml:space="preserve" text-anchor="middle" x="1543.38" y="-216.57" font-family="Helvetica,sans-Serif" font-size="10.00" fill="#ece1d7">apply &#39;w&#39; frames</text>
</g>
<!-- restorer&#45;&gt;pglog -->
<g id="edge6" class="edge">
<title>restorer&#45;&gt;pglog</title>
<path fill="none" stroke="#6e6963" d="M1420.94,-309.25C1479.73,-288.83 1576.01,-255.38 1639.54,-233.3"/>
<polygon fill="#6e6963" stroke="#6e6963" points="1640.5,-236.68 1648.79,-230.09 1638.2,-230.06 1640.5,-236.68"/>
<text xml:space="preserve" text-anchor="middle" x="1543.38" y="-289.54" font-family="Helvetica,sans-Serif" font-size="10.00" fill="#ece1d7">apply segment</text>
</g>
<!-- pglog&#45;&gt;walrecv -->
<g id="edge10" class="edge">
<title>pglog&#45;&gt;walrecv</title>
<path fill="none" stroke="#c1a78e" stroke-dasharray="5,2" d="M1670.01,-192.71C1650.27,-182.78 1624.43,-171.4 1600,-165.62 1555.53,-155.11 1504.94,-151.68 1462.5,-151.11"/>
<polygon fill="#c1a78e" stroke="#c1a78e" points="1462.59,-147.61 1452.56,-151.03 1462.54,-154.61 1462.59,-147.61"/>
<text xml:space="preserve" text-anchor="middle" x="1543.38" y="-181.62" font-family="Helvetica,sans-Serif" font-size="10.00" fill="#ece1d7">advance</text>
<text xml:space="preserve" text-anchor="middle" x="1543.38" y="-168.88" font-family="Helvetica,sans-Serif" font-size="10.00" fill="#ece1d7">pg_last_wal_replay_lsn</text>
</g>
<!-- legend -->
<g id="node12" class="node">
<title>legend</title>
<path fill="#6e6963" stroke="none" d="M704.75,-798.38C704.75,-798.38 12,-798.38 12,-798.38 6,-798.38 0,-792.38 0,-786.38 0,-786.38 0,-483.88 0,-483.88 0,-477.88 6,-471.88 12,-471.88 12,-471.88 704.75,-471.88 704.75,-471.88 710.75,-471.88 716.75,-477.88 716.75,-483.88 716.75,-483.88 716.75,-786.38 716.75,-786.38 716.75,-792.38 710.75,-798.38 704.75,-798.38"/>
<polygon fill="#34302c" stroke="none" points="8,-771.62 8,-794.38 708.75,-794.38 708.75,-771.62 8,-771.62"/>
<polygon fill="none" stroke="#6e6963" points="8,-771.62 8,-794.38 708.75,-794.38 708.75,-771.62 8,-771.62"/>
<text xml:space="preserve" text-anchor="start" x="296.88" y="-780.88" font-family="Helvetica,sans-Serif" font-weight="bold" font-size="10.00" fill="#ece1d7">channels (edge color)</text>
<polygon fill="none" stroke="#6e6963" points="8,-748.88 8,-771.62 230.88,-771.62 230.88,-748.88 8,-748.88"/>
<text xml:space="preserve" text-anchor="start" x="107.44" y="-758.12" font-family="Helvetica,sans-Serif" font-weight="bold" font-size="10.00" fill="#cba85e">① ━━</text>
<polygon fill="none" stroke="#6e6963" points="230.88,-748.88 230.88,-771.62 708.75,-771.62 708.75,-748.88 230.88,-748.88"/>
<text xml:space="preserve" text-anchor="start" x="369.69" y="-756.88" font-family="Helvetica,sans-Serif" font-size="10.00" fill="#ece1d7">libpq queries (catalog cache fill, on miss)</text>
<polygon fill="none" stroke="#6e6963" points="8,-726.12 8,-748.88 230.88,-748.88 230.88,-726.12 8,-726.12"/>
<text xml:space="preserve" text-anchor="start" x="107.44" y="-735.38" font-family="Helvetica,sans-Serif" font-weight="bold" font-size="10.00" fill="#bd8183">② ━━</text>
<polygon fill="none" stroke="#6e6963" points="230.88,-726.12 230.88,-748.88 708.75,-748.88 708.75,-726.12 230.88,-726.12"/>
<text xml:space="preserve" text-anchor="start" x="334.81" y="-734.12" font-family="Helvetica,sans-Serif" font-size="10.00" fill="#ece1d7">walsender wire — &#39;w&#39; XLogData @ record cadence (ms)</text>
<polygon fill="none" stroke="#6e6963" points="8,-703.38 8,-726.12 230.88,-726.12 230.88,-703.38 8,-703.38"/>
<text xml:space="preserve" text-anchor="start" x="107.44" y="-712.62" font-family="Helvetica,sans-Serif" font-weight="bold" font-size="10.00" fill="#6e6963">③ ━━</text>
<polygon fill="none" stroke="#6e6963" points="230.88,-703.38 230.88,-726.12 708.75,-726.12 708.75,-703.38 230.88,-703.38"/>
<text xml:space="preserve" text-anchor="start" x="330.31" y="-711.38" font-family="Helvetica,sans-Serif" font-size="10.00" fill="#ece1d7">restore_command — archive fallback (segment cadence)</text>
<polygon fill="none" stroke="#6e6963" points="8,-680.62 8,-703.38 230.88,-703.38 230.88,-680.62 8,-680.62"/>
<text xml:space="preserve" text-anchor="start" x="107.44" y="-689.88" font-family="Helvetica,sans-Serif" font-weight="bold" font-size="10.00" fill="#bf8c5f">④ ┄┄</text>
<polygon fill="none" stroke="#6e6963" points="230.88,-680.62 230.88,-703.38 708.75,-703.38 708.75,-680.62 230.88,-680.62"/>
<text xml:space="preserve" text-anchor="start" x="368.56" y="-688.62" font-family="Helvetica,sans-Serif" font-size="10.00" fill="#ece1d7">BASE_BACKUP land (one&#45;shot, greenfield)</text>
<polygon fill="none" stroke="#6e6963" points="8,-657.88 8,-680.62 230.88,-680.62 230.88,-657.88 8,-657.88"/>
<text xml:space="preserve" text-anchor="start" x="113.81" y="-667.12" font-family="Helvetica,sans-Serif" font-weight="bold" font-size="10.00" fill="#a1a9cc">···</text>
<polygon fill="none" stroke="#6e6963" points="230.88,-657.88 230.88,-680.62 708.75,-680.62 708.75,-657.88 230.88,-657.88"/>
<text xml:space="preserve" text-anchor="start" x="346.44" y="-665.88" font-family="Helvetica,sans-Serif" font-size="10.00" fill="#ece1d7">catalog gate dependency (apply_lsn → relation_at)</text>
<polygon fill="#34302c" stroke="none" points="8,-635.12 8,-657.88 708.75,-657.88 708.75,-635.12 8,-635.12"/>
<polygon fill="none" stroke="#6e6963" points="8,-635.12 8,-657.88 708.75,-657.88 708.75,-635.12 8,-635.12"/>
<text xml:space="preserve" text-anchor="start" x="302.88" y="-644.38" font-family="Helvetica,sans-Serif" font-weight="bold" font-size="10.00" fill="#ece1d7">derived flow (off ①)</text>
<polygon fill="none" stroke="#6e6963" points="8,-612.38 8,-635.12 708.75,-635.12 708.75,-612.38 8,-612.38"/>
<text xml:space="preserve" text-anchor="start" x="13" y="-620.38" font-family="Helvetica,sans-Serif" font-size="10.00" fill="#ece1d7">PHASE15: cache miss → schema diff → SchemaEvent → DdlApplicator → CH ALTER/CREATE/DROP. Stays inside walshadow; CH wire not drawn.</text>
<polygon fill="#34302c" stroke="none" points="8,-589.62 8,-612.38 708.75,-612.38 708.75,-589.62 8,-589.62"/>
<polygon fill="none" stroke="#6e6963" points="8,-589.62 8,-612.38 708.75,-612.38 708.75,-589.62 8,-589.62"/>
<text xml:space="preserve" text-anchor="start" x="335.12" y="-598.88" font-family="Helvetica,sans-Serif" font-weight="bold" font-size="10.00" fill="#ece1d7">node fill</text>
<polygon fill="#3d3d54" stroke="none" points="8,-566.88 8,-589.62 230.88,-589.62 230.88,-566.88 8,-566.88"/>
<polygon fill="none" stroke="#6e6963" points="8,-566.88 8,-589.62 230.88,-589.62 230.88,-566.88 8,-566.88"/>
<polygon fill="none" stroke="#6e6963" points="230.88,-566.88 230.88,-589.62 708.75,-589.62 708.75,-566.88 230.88,-566.88"/>
<text xml:space="preserve" text-anchor="start" x="364.44" y="-574.88" font-family="Helvetica,sans-Serif" font-size="10.00" fill="#ece1d7">walshadow — ShadowCatalog (libpq client)</text>
<polygon fill="#4d3340" stroke="none" points="8,-544.12 8,-566.88 230.88,-566.88 230.88,-544.12 8,-544.12"/>
<polygon fill="none" stroke="#6e6963" points="8,-544.12 8,-566.88 230.88,-566.88 230.88,-544.12 8,-544.12"/>
<polygon fill="none" stroke="#6e6963" points="230.88,-544.12 230.88,-566.88 708.75,-566.88 708.75,-544.12 230.88,-544.12"/>
<text xml:space="preserve" text-anchor="start" x="376.81" y="-552.12" font-family="Helvetica,sans-Serif" font-size="10.00" fill="#ece1d7">walshadow — walsender / sender side</text>
<polygon fill="#4d3850" stroke="none" points="8,-521.38 8,-544.12 230.88,-544.12 230.88,-521.38 8,-521.38"/>
<polygon fill="none" stroke="#6e6963" points="8,-521.38 8,-544.12 230.88,-544.12 230.88,-521.38 8,-521.38"/>
<polygon fill="none" stroke="#6e6963" points="230.88,-521.38 230.88,-544.12 708.75,-544.12 708.75,-521.38 230.88,-521.38"/>
<text xml:space="preserve" text-anchor="start" x="347.56" y="-529.38" font-family="Helvetica,sans-Serif" font-size="10.00" fill="#ece1d7">walshadow — on&#45;disk segments / shadow data dir</text>
<polygon fill="#4d4128" stroke="none" points="8,-498.62 8,-521.38 230.88,-521.38 230.88,-498.62 8,-498.62"/>
<polygon fill="none" stroke="#6e6963" points="8,-498.62 8,-521.38 230.88,-521.38 230.88,-498.62 8,-498.62"/>
<polygon fill="none" stroke="#6e6963" points="230.88,-498.62 230.88,-521.38 708.75,-521.38 708.75,-498.62 230.88,-498.62"/>
<text xml:space="preserve" text-anchor="start" x="380.19" y="-506.62" font-family="Helvetica,sans-Serif" font-size="10.00" fill="#ece1d7">walshadow — bootstrap orchestrator</text>
<polygon fill="#3d4128" stroke="none" points="8,-475.88 8,-498.62 230.88,-498.62 230.88,-475.88 8,-475.88"/>
<polygon fill="none" stroke="#6e6963" points="8,-475.88 8,-498.62 230.88,-498.62 230.88,-475.88 8,-475.88"/>
<polygon fill="none" stroke="#6e6963" points="230.88,-475.88 230.88,-498.62 708.75,-498.62 708.75,-475.88 230.88,-475.88"/>
<text xml:space="preserve" text-anchor="start" x="382.06" y="-483.88" font-family="Helvetica,sans-Serif" font-size="10.00" fill="#ece1d7">shadow Postgres receivers / catalog</text>
</g>
</g>
</svg>
