<?xml version="1.0" encoding="UTF-8" standalone="no"?>
<!DOCTYPE svg PUBLIC "-//W3C//DTD SVG 1.1//EN"
 "http://www.w3.org/Graphics/SVG/1.1/DTD/svg11.dtd">
<!-- Generated by graphviz version 2.42.4 (0)
 -->
<!-- Title: shadow_catalog Pages: 1 -->
<svg width="1304pt" height="1549pt"
 viewBox="0.00 0.00 1303.50 1548.63" xmlns="http://www.w3.org/2000/svg" xmlns:xlink="http://www.w3.org/1999/xlink">
<g id="graph0" class="graph" transform="scale(1 1) rotate(0) translate(4 1544.63)">
<title>shadow_catalog</title>
<polygon fill="#272623" stroke="transparent" points="-4,4 -4,-1544.63 1299.5,-1544.63 1299.5,4 -4,4"/>
<text text-anchor="middle" x="647.75" y="-1525.43" font-family="Helvetica,sans-Serif" font-size="14.00" fill="#ece1d7">ShadowCatalog — LRU + generation invalidation + SchemaEvent emission (plans/shadow.md)</text>
<g id="clust2" class="cluster">
<title>cluster_cat</title>
<path fill="#34302c" stroke="#4c4641" d="M120,-506.5C120,-506.5 512,-506.5 512,-506.5 518,-506.5 524,-512.5 524,-518.5 524,-518.5 524,-1260.65 524,-1260.65 524,-1266.65 518,-1272.65 512,-1272.65 512,-1272.65 120,-1272.65 120,-1272.65 114,-1272.65 108,-1266.65 108,-1260.65 108,-1260.65 108,-518.5 108,-518.5 108,-512.5 114,-506.5 120,-506.5"/>
<text text-anchor="middle" x="316" y="-1257.45" font-family="Helvetica,sans-Serif" font-size="14.00" fill="#ece1d7">ShadowCatalog (src/shadow_catalog.rs)</text>
</g>
<!-- tracker -->
<g id="node1" class="node">
<title>tracker</title>
<path fill="#4d3a28" stroke="#6e6963" d="M172,-1517.63C172,-1517.63 12,-1517.63 12,-1517.63 6,-1517.63 0,-1511.63 0,-1505.63 0,-1505.63 0,-1466.63 0,-1466.63 0,-1460.63 6,-1454.63 12,-1454.63 12,-1454.63 172,-1454.63 172,-1454.63 178,-1454.63 184,-1460.63 184,-1466.63 184,-1466.63 184,-1505.63 184,-1505.63 184,-1511.63 178,-1517.63 172,-1517.63"/>
<text text-anchor="middle" x="92" y="-1505.63" font-family="Helvetica,sans-Serif" font-size="10.00" fill="#ece1d7">CatalogTracker</text>
<text text-anchor="middle" x="92" y="-1494.63" font-family="Helvetica,sans-Serif" font-size="10.00" fill="#ece1d7">(filter pipeline, sync)</text>
<text text-anchor="middle" x="92" y="-1483.63" font-family="Helvetica,sans-Serif" font-size="10.00" fill="#ece1d7">catalog WAL writes →</text>
<text text-anchor="middle" x="92" y="-1472.63" font-family="Helvetica,sans-Serif" font-size="10.00" fill="#ece1d7">epoch bump (Release&#45;store)</text>
<text text-anchor="middle" x="92" y="-1461.63" font-family="Helvetica,sans-Serif" font-size="10.00" fill="#ece1d7">+ CatalogSignal verdict on Record</text>
</g>
<!-- caller -->
<g id="node2" class="node">
<title>caller</title>
<path fill="#4d4128" stroke="#6e6963" d="M387.5,-1506.63C387.5,-1506.63 286.5,-1506.63 286.5,-1506.63 280.5,-1506.63 274.5,-1500.63 274.5,-1494.63 274.5,-1494.63 274.5,-1477.63 274.5,-1477.63 274.5,-1471.63 280.5,-1465.63 286.5,-1465.63 286.5,-1465.63 387.5,-1465.63 387.5,-1465.63 393.5,-1465.63 399.5,-1471.63 399.5,-1477.63 399.5,-1477.63 399.5,-1494.63 399.5,-1494.63 399.5,-1500.63 393.5,-1506.63 387.5,-1506.63"/>
<text text-anchor="middle" x="337" y="-1494.63" font-family="Helvetica,sans-Serif" font-size="10.00" fill="#ece1d7">BufferingDecoderSink</text>
<text text-anchor="middle" x="337" y="-1483.63" font-family="Helvetica,sans-Serif" font-size="10.00" fill="#ece1d7">relation_at(rfn, at_lsn)</text>
<text text-anchor="middle" x="337" y="-1472.63" font-family="Helvetica,sans-Serif" font-size="10.00" fill="#ece1d7">(decoder worker task)</text>
</g>
<!-- tracker&#45;&gt;caller -->
<g id="edge2" class="edge">
<title>tracker&#45;&gt;caller</title>
<path fill="none" stroke="#cba85e" stroke-dasharray="5,2" d="M184.27,-1486.13C210.74,-1486.13 239.22,-1486.13 264.32,-1486.13"/>
<polygon fill="#cba85e" stroke="#cba85e" points="264.5,-1489.63 274.5,-1486.13 264.5,-1482.63 264.5,-1489.63"/>
<text text-anchor="middle" x="229.25" y="-1501.93" font-family="Helvetica,sans-Serif" font-size="9.00" fill="#ece1d7">CatalogSignal</text>
<text text-anchor="middle" x="229.25" y="-1491.93" font-family="Helvetica,sans-Serif" font-size="9.00" fill="#ece1d7">rides Record</text>
</g>
<!-- atomics -->
<g id="node3" class="node">
<title>atomics</title>
<ellipse fill="#4d4d28" stroke="#6e6963" cx="217" cy="-1361.64" rx="94.09" ry="28.98"/>
<text text-anchor="middle" x="217" y="-1370.14" font-family="Helvetica,sans-Serif" font-size="10.00" fill="#ece1d7">invalidation_epoch</text>
<text text-anchor="middle" x="217" y="-1359.14" font-family="Helvetica,sans-Serif" font-size="10.00" fill="#ece1d7">Arc&lt;AtomicU64&gt;</text>
<text text-anchor="middle" x="217" y="-1348.14" font-family="Helvetica,sans-Serif" font-size="10.00" fill="#ece1d7">(any catalog WAL write)</text>
</g>
<!-- tracker&#45;&gt;atomics -->
<g id="edge1" class="edge">
<title>tracker&#45;&gt;atomics</title>
<path fill="none" stroke="#cba85e" stroke-dasharray="5,2" d="M123.22,-1454.54C141.22,-1436.9 163.89,-1414.69 182.43,-1396.52"/>
<polygon fill="#cba85e" stroke="#cba85e" points="184.88,-1399.02 189.57,-1389.52 179.98,-1394.02 184.88,-1399.02"/>
<text text-anchor="middle" x="199" y="-1425.43" font-family="Helvetica,sans-Serif" font-size="9.00" fill="#ece1d7">bump at</text>
<text text-anchor="middle" x="199" y="-1415.43" font-family="Helvetica,sans-Serif" font-size="9.00" fill="#ece1d7">pump position</text>
</g>
<!-- caller&#45;&gt;atomics -->
<g id="edge3" class="edge">
<title>caller&#45;&gt;atomics</title>
<path fill="none" stroke="#cba85e" stroke-dasharray="5,2" d="M317.72,-1465.45C299.62,-1446.98 272.17,-1418.96 250.5,-1396.84"/>
<polygon fill="#cba85e" stroke="#cba85e" points="252.89,-1394.28 243.39,-1389.58 247.89,-1399.17 252.89,-1394.28"/>
<text text-anchor="middle" x="320" y="-1425.43" font-family="Helvetica,sans-Serif" font-size="9.00" fill="#ece1d7">re&#45;bump at</text>
<text text-anchor="middle" x="320" y="-1415.43" font-family="Helvetica,sans-Serif" font-size="9.00" fill="#ece1d7">worker position</text>
</g>
<!-- psweeps -->
<g id="node4" class="node">
<title>psweeps</title>
<ellipse fill="#4d4d28" stroke="#6e6963" cx="464" cy="-1361.64" rx="123.99" ry="28.98"/>
<text text-anchor="middle" x="464" y="-1370.14" font-family="Helvetica,sans-Serif" font-size="10.00" fill="#ece1d7">PendingSweeps</text>
<text text-anchor="middle" x="464" y="-1359.14" font-family="Helvetica,sans-Serif" font-size="10.00" fill="#ece1d7">Mutex&lt;HashSet&lt;xid&gt;&gt;</text>
<text text-anchor="middle" x="464" y="-1348.14" font-family="Helvetica,sans-Serif" font-size="10.00" fill="#ece1d7">armed per pg_class heap_delete</text>
</g>
<!-- caller&#45;&gt;psweeps -->
<g id="edge4" class="edge">
<title>caller&#45;&gt;psweeps</title>
<path fill="none" stroke="#cba85e" stroke-dasharray="5,2" d="M357.4,-1465.45C376.51,-1447.03 405.48,-1419.09 428.39,-1396.99"/>
<polygon fill="#cba85e" stroke="#cba85e" points="430.83,-1399.5 435.6,-1390.03 425.97,-1394.46 430.83,-1399.5"/>
<text text-anchor="middle" x="448.5" y="-1425.43" font-family="Helvetica,sans-Serif" font-size="9.00" fill="#ece1d7">arm(xid) on</text>
<text text-anchor="middle" x="448.5" y="-1415.43" font-family="Helvetica,sans-Serif" font-size="9.00" fill="#ece1d7">InvalidateSweep</text>
</g>
<!-- gate -->
<g id="node5" class="node">
<title>gate</title>
<path fill="#4d4d28" stroke="#6e6963" d="M305.5,-1241.65C305.5,-1241.65 128.5,-1241.65 128.5,-1241.65 122.5,-1241.65 116.5,-1235.65 116.5,-1229.65 116.5,-1229.65 116.5,-1190.65 116.5,-1190.65 116.5,-1184.65 122.5,-1178.65 128.5,-1178.65 128.5,-1178.65 305.5,-1178.65 305.5,-1178.65 311.5,-1178.65 317.5,-1184.65 317.5,-1190.65 317.5,-1190.65 317.5,-1229.65 317.5,-1229.65 317.5,-1235.65 311.5,-1241.65 305.5,-1241.65"/>
<text text-anchor="middle" x="217" y="-1229.65" font-family="Helvetica,sans-Serif" font-size="10.00" fill="#ece1d7">relation_at orchestration</text>
<text text-anchor="middle" x="217" y="-1218.65" font-family="Helvetica,sans-Serif" font-size="10.00" fill="#ece1d7">① drain_invalidations (Acquire epoch)</text>
<text text-anchor="middle" x="217" y="-1207.65" font-family="Helvetica,sans-Serif" font-size="10.00" fill="#ece1d7">② wait_for_replay(at_lsn)</text>
<text text-anchor="middle" x="217" y="-1196.65" font-family="Helvetica,sans-Serif" font-size="10.00" fill="#ece1d7">③ drain_invalidations</text>
<text text-anchor="middle" x="217" y="-1185.65" font-family="Helvetica,sans-Serif" font-size="10.00" fill="#ece1d7">④ cache lookup</text>
</g>
<!-- caller&#45;&gt;gate -->
<g id="edge5" class="edge">
<title>caller&#45;&gt;gate</title>
<path fill="none" stroke="#cba85e" d="M274.49,-1472.21C235.41,-1463.2 184.43,-1449.74 141,-1432.63 104,-1418.06 82.48,-1424.72 62,-1390.63 29.04,-1335.78 93.24,-1281.37 148.78,-1247.09"/>
<polygon fill="#cba85e" stroke="#cba85e" points="150.85,-1249.93 157.6,-1241.76 147.23,-1243.93 150.85,-1249.93"/>
<text text-anchor="middle" x="85" y="-1359.44" font-family="Helvetica,sans-Serif" font-size="9.00" fill="#ece1d7">rfn, at_lsn</text>
</g>
<!-- atomics&#45;&gt;gate -->
<g id="edge14" class="edge">
<title>atomics&#45;&gt;gate</title>
<path fill="none" stroke="#cba85e" stroke-dasharray="5,2" d="M217,-1332.52C217,-1309.78 217,-1277.44 217,-1251.86"/>
<polygon fill="#cba85e" stroke="#cba85e" points="220.5,-1251.72 217,-1241.72 213.5,-1251.72 220.5,-1251.72"/>
<text text-anchor="middle" x="245.5" y="-1298.45" font-family="Helvetica,sans-Serif" font-size="9.00" fill="#ece1d7">Acquire&#45;load</text>
<text text-anchor="middle" x="245.5" y="-1288.45" font-family="Helvetica,sans-Serif" font-size="9.00" fill="#ece1d7">per lookup</text>
</g>
<!-- sweep -->
<g id="node12" class="node">
<title>sweep</title>
<path fill="#4d4d28" stroke="#6e6963" d="M504,-1236.15C504,-1236.15 370,-1236.15 370,-1236.15 364,-1236.15 358,-1230.15 358,-1224.15 358,-1224.15 358,-1196.15 358,-1196.15 358,-1190.15 364,-1184.15 370,-1184.15 370,-1184.15 504,-1184.15 504,-1184.15 510,-1184.15 516,-1190.15 516,-1196.15 516,-1196.15 516,-1224.15 516,-1224.15 516,-1230.15 510,-1236.15 504,-1236.15"/>
<text text-anchor="middle" x="437" y="-1224.15" font-family="Helvetica,sans-Serif" font-size="10.00" fill="#ece1d7">sweep_dropped</text>
<text text-anchor="middle" x="437" y="-1213.15" font-family="Helvetica,sans-Serif" font-size="10.00" fill="#ece1d7">poll pg_class for known oids;</text>
<text text-anchor="middle" x="437" y="-1202.15" font-family="Helvetica,sans-Serif" font-size="10.00" fill="#ece1d7">missing → emit Dropped</text>
<text text-anchor="middle" x="437" y="-1191.15" font-family="Helvetica,sans-Serif" font-size="10.00" fill="#ece1d7">no internal throttle</text>
</g>
<!-- psweeps&#45;&gt;sweep -->
<g id="edge17" class="edge">
<title>psweeps&#45;&gt;sweep</title>
<path fill="none" stroke="#cba85e" stroke-dasharray="5,2" d="M458.92,-1332.52C454.5,-1308.03 448.07,-1272.42 443.31,-1246.1"/>
<polygon fill="#cba85e" stroke="#cba85e" points="446.74,-1245.38 441.52,-1236.16 439.85,-1246.63 446.74,-1245.38"/>
<text text-anchor="middle" x="534" y="-1303.45" font-family="Helvetica,sans-Serif" font-size="9.00" fill="#ece1d7">disarm at armed xact&#39;s commit ⇒</text>
<text text-anchor="middle" x="534" y="-1293.45" font-family="Helvetica,sans-Serif" font-size="9.00" fill="#ece1d7">wait_for_replay(commit lsn), sweep</text>
<text text-anchor="middle" x="534" y="-1283.45" font-family="Helvetica,sans-Serif" font-size="9.00" fill="#ece1d7">(abort disarms, no sweep)</text>
</g>
<!-- gencnt -->
<g id="node6" class="node">
<title>gencnt</title>
<ellipse fill="#4d4d28" stroke="#6e6963" cx="373" cy="-1072.33" rx="107.46" ry="52.15"/>
<text text-anchor="middle" x="373" y="-1097.33" font-family="Helvetica,sans-Serif" font-size="10.00" fill="#ece1d7">generation: u64</text>
<text text-anchor="middle" x="373" y="-1086.33" font-family="Helvetica,sans-Serif" font-size="10.00" fill="#ece1d7">entry hit iff gen == self.gen</text>
<text text-anchor="middle" x="373" y="-1075.33" font-family="Helvetica,sans-Serif" font-size="10.00" fill="#ece1d7">bumped by:</text>
<text text-anchor="middle" x="373" y="-1064.33" font-family="Helvetica,sans-Serif" font-size="10.00" fill="#ece1d7"> &#160;• epoch advance (drain)</text>
<text text-anchor="middle" x="373" y="-1053.33" font-family="Helvetica,sans-Serif" font-size="10.00" fill="#ece1d7"> &#160;• reconnect</text>
<text text-anchor="middle" x="373" y="-1042.33" font-family="Helvetica,sans-Serif" font-size="10.00" fill="#ece1d7"> &#160;• DROP sweep</text>
</g>
<!-- gate&#45;&gt;gencnt -->
<g id="edge15" class="edge">
<title>gate&#45;&gt;gencnt</title>
<path fill="none" stroke="#cba85e" stroke-dasharray="5,2" d="M252.4,-1178.33C270.41,-1162.65 292.8,-1143.15 313.38,-1125.24"/>
<polygon fill="#cba85e" stroke="#cba85e" points="315.92,-1127.66 321.17,-1118.46 311.33,-1122.38 315.92,-1127.66"/>
<text text-anchor="middle" x="327.5" y="-1149.45" font-family="Helvetica,sans-Serif" font-size="9.00" fill="#ece1d7">bump on advance</text>
</g>
<!-- lru -->
<g id="node7" class="node">
<title>lru</title>
<path fill="#4d4d28" stroke="#6e6963" d="M341,-966C341,-966 189,-966 189,-966 183,-966 177,-960 177,-954 177,-954 177,-937 177,-937 177,-931 183,-925 189,-925 189,-925 341,-925 341,-925 347,-925 353,-931 353,-937 353,-937 353,-954 353,-954 353,-960 347,-966 341,-966"/>
<text text-anchor="middle" x="265" y="-954" font-family="Helvetica,sans-Serif" font-size="10.00" fill="#ece1d7">by_filenode + by_oid</text>
<text text-anchor="middle" x="265" y="-943" font-family="Helvetica,sans-Serif" font-size="10.00" fill="#ece1d7">HashMap + EvictionIndex (FIFO)</text>
<text text-anchor="middle" x="265" y="-932" font-family="Helvetica,sans-Serif" font-size="10.00" fill="#ece1d7">cap = 4096</text>
</g>
<!-- gate&#45;&gt;lru -->
<g id="edge6" class="edge">
<title>gate&#45;&gt;lru</title>
<path fill="none" stroke="#cba85e" d="M203.05,-1178.41C187.69,-1139.91 167.9,-1072.6 190,-1020 197.81,-1001.42 212.85,-985.18 227.43,-972.73"/>
<polygon fill="#cba85e" stroke="#cba85e" points="229.89,-975.24 235.43,-966.21 225.47,-969.81 229.89,-975.24"/>
<text text-anchor="middle" x="220.5" y="-1075.13" font-family="Helvetica,sans-Serif" font-size="9.00" fill="#ece1d7">check</text>
<text text-anchor="middle" x="220.5" y="-1065.13" font-family="Helvetica,sans-Serif" font-size="9.00" fill="#ece1d7">(gen, rfn|oid)</text>
</g>
<!-- gencnt&#45;&gt;lru -->
<g id="edge16" class="edge">
<title>gencnt&#45;&gt;lru</title>
<path fill="none" stroke="#cba85e" stroke-dasharray="5,2" d="M331.86,-1023.78C317.28,-1006.92 301.36,-988.53 288.72,-973.91"/>
<polygon fill="#cba85e" stroke="#cba85e" points="291.25,-971.49 282.06,-966.22 285.96,-976.07 291.25,-971.49"/>
<text text-anchor="middle" x="360" y="-990.8" font-family="Helvetica,sans-Serif" font-size="9.00" fill="#ece1d7">gen mismatch ⇒ miss</text>
</g>
<!-- fetch -->
<g id="node8" class="node">
<title>fetch</title>
<path fill="#4d4d28" stroke="#6e6963" d="M353.5,-851C353.5,-851 180.5,-851 180.5,-851 174.5,-851 168.5,-845 168.5,-839 168.5,-839 168.5,-800 168.5,-800 168.5,-794 174.5,-788 180.5,-788 180.5,-788 353.5,-788 353.5,-788 359.5,-788 365.5,-794 365.5,-800 365.5,-800 365.5,-839 365.5,-839 365.5,-845 359.5,-851 353.5,-851"/>
<text text-anchor="middle" x="267" y="-839" font-family="Helvetica,sans-Serif" font-size="10.00" fill="#ece1d7">fetch_by_filenode / fetch_by_oid</text>
<text text-anchor="middle" x="267" y="-828" font-family="Helvetica,sans-Serif" font-size="10.00" fill="#ece1d7">SELECT pg_class + pg_namespace +</text>
<text text-anchor="middle" x="267" y="-817" font-family="Helvetica,sans-Serif" font-size="10.00" fill="#ece1d7">pg_index (replident) +</text>
<text text-anchor="middle" x="267" y="-806" font-family="Helvetica,sans-Serif" font-size="10.00" fill="#ece1d7">pg_attribute + pg_type</text>
<text text-anchor="middle" x="267" y="-795" font-family="Helvetica,sans-Serif" font-size="10.00" fill="#ece1d7">(one SQL fan&#45;out per miss)</text>
</g>
<!-- lru&#45;&gt;fetch -->
<g id="edge7" class="edge">
<title>lru&#45;&gt;fetch</title>
<path fill="none" stroke="#cba85e" stroke-dasharray="5,2" d="M259.83,-924.8C258.27,-917.95 256.77,-910.18 256,-903 254.58,-889.74 254.63,-886.26 256,-873 256.4,-869.1 256.97,-865.06 257.64,-861.04"/>
<polygon fill="#cba85e" stroke="#cba85e" points="261.09,-861.62 259.47,-851.15 254.21,-860.34 261.09,-861.62"/>
<text text-anchor="middle" x="266.5" y="-885.8" font-family="Helvetica,sans-Serif" font-size="9.00" fill="#ece1d7">miss</text>
</g>
<!-- fetch&#45;&gt;lru -->
<g id="edge10" class="edge">
<title>fetch&#45;&gt;lru</title>
<path fill="none" stroke="#cba85e" stroke-dasharray="5,2" d="M276.65,-851.1C280.33,-866.66 283,-885.86 280,-903 279.31,-906.96 278.27,-911.04 277.05,-915.03"/>
<polygon fill="#cba85e" stroke="#cba85e" points="273.7,-914.03 273.77,-924.62 280.32,-916.29 273.7,-914.03"/>
<text text-anchor="middle" x="314" y="-895.8" font-family="Helvetica,sans-Serif" font-size="9.00" fill="#ece1d7">insert</text>
<text text-anchor="middle" x="314" y="-885.8" font-family="Helvetica,sans-Serif" font-size="9.00" fill="#ece1d7">EvictionIndex</text>
<text text-anchor="middle" x="314" y="-875.8" font-family="Helvetica,sans-Serif" font-size="9.00" fill="#ece1d7">evict over cap</text>
</g>
<!-- libpq -->
<g id="node9" class="node">
<title>libpq</title>
<path fill="#4d4d28" stroke="#6e6963" d="M503.5,-734C503.5,-734 336.5,-734 336.5,-734 330.5,-734 324.5,-728 324.5,-722 324.5,-722 324.5,-672 324.5,-672 324.5,-666 330.5,-660 336.5,-660 336.5,-660 503.5,-660 503.5,-660 509.5,-660 515.5,-666 515.5,-672 515.5,-672 515.5,-722 515.5,-722 515.5,-728 509.5,-734 503.5,-734"/>
<text text-anchor="middle" x="420" y="-722" font-family="Helvetica,sans-Serif" font-size="10.00" fill="#ece1d7">tokio_postgres::Client</text>
<text text-anchor="middle" x="420" y="-711" font-family="Helvetica,sans-Serif" font-size="10.00" fill="#ece1d7">unix socket, long&#45;lived</text>
<text text-anchor="middle" x="420" y="-700" font-family="Helvetica,sans-Serif" font-size="10.00" fill="#ece1d7">ensure_open → with_transient_retry</text>
<text text-anchor="middle" x="420" y="-689" font-family="Helvetica,sans-Serif" font-size="10.00" fill="#ece1d7">→ reconnect on is_closed:</text>
<text text-anchor="middle" x="420" y="-678" font-family="Helvetica,sans-Serif" font-size="10.00" fill="#ece1d7"> &#160;rebuild Client (conninfo stashed),</text>
<text text-anchor="middle" x="420" y="-667" font-family="Helvetica,sans-Serif" font-size="10.00" fill="#ece1d7"> &#160;bump gen, reset last_replay_lsn</text>
</g>
<!-- fetch&#45;&gt;libpq -->
<g id="edge8" class="edge">
<title>fetch&#45;&gt;libpq</title>
<path fill="none" stroke="#c1a78e" d="M314.8,-787.92C324.96,-780.98 335.49,-773.45 345,-766 354.94,-758.22 365.2,-749.45 374.82,-740.87"/>
<polygon fill="#c1a78e" stroke="#c1a78e" points="377.31,-743.34 382.39,-734.04 372.62,-738.14 377.31,-743.34"/>
</g>
<!-- rec -->
<g id="node10" class="node">
<title>rec</title>
<path fill="#4d4d28" stroke="#6e6963" d="M283,-723C283,-723 159,-723 159,-723 153,-723 147,-717 147,-711 147,-711 147,-683 147,-683 147,-677 153,-671 159,-671 159,-671 283,-671 283,-671 289,-671 295,-677 295,-683 295,-683 295,-711 295,-711 295,-717 289,-723 283,-723"/>
<text text-anchor="middle" x="221" y="-711" font-family="Helvetica,sans-Serif" font-size="10.00" fill="#ece1d7">record_descriptor</text>
<text text-anchor="middle" x="221" y="-700" font-family="Helvetica,sans-Serif" font-size="10.00" fill="#ece1d7">diff(new, prev_known[oid])</text>
<text text-anchor="middle" x="221" y="-689" font-family="Helvetica,sans-Serif" font-size="10.00" fill="#ece1d7">→ Added | Changed{diff} |</text>
<text text-anchor="middle" x="221" y="-678" font-family="Helvetica,sans-Serif" font-size="10.00" fill="#ece1d7">no&#45;op (Arc::ptr_eq)</text>
</g>
<!-- fetch&#45;&gt;rec -->
<g id="edge9" class="edge">
<title>fetch&#45;&gt;rec</title>
<path fill="none" stroke="#c1a78e" d="M255.27,-787.78C248.91,-771.11 241.02,-750.43 234.41,-733.12"/>
<polygon fill="#c1a78e" stroke="#c1a78e" points="237.52,-731.47 230.69,-723.38 230.98,-733.97 237.52,-731.47"/>
<text text-anchor="middle" x="292.5" y="-758.8" font-family="Helvetica,sans-Serif" font-size="9.00" fill="#ece1d7">Arc&lt;RelDescriptor&gt;</text>
</g>
<!-- shd -->
<g id="node13" class="node">
<title>shd</title>
<path fill="#3d4128" stroke="#6e6963" d="M919.5,-564.05C919.5,-567.61 888.8,-570.5 851,-570.5 813.2,-570.5 782.5,-567.61 782.5,-564.05 782.5,-564.05 782.5,-505.95 782.5,-505.95 782.5,-502.39 813.2,-499.5 851,-499.5 888.8,-499.5 919.5,-502.39 919.5,-505.95 919.5,-505.95 919.5,-564.05 919.5,-564.05"/>
<path fill="none" stroke="#6e6963" d="M919.5,-564.05C919.5,-560.49 888.8,-557.59 851,-557.59 813.2,-557.59 782.5,-560.49 782.5,-564.05"/>
<text text-anchor="middle" x="851" y="-549" font-family="Helvetica,sans-Serif" font-size="10.00" fill="#ece1d7">shadow PG</text>
<text text-anchor="middle" x="851" y="-538" font-family="Helvetica,sans-Serif" font-size="10.00" fill="#ece1d7">pg_class / pg_attribute /</text>
<text text-anchor="middle" x="851" y="-527" font-family="Helvetica,sans-Serif" font-size="10.00" fill="#ece1d7">pg_type / pg_index /</text>
<text text-anchor="middle" x="851" y="-516" font-family="Helvetica,sans-Serif" font-size="10.00" fill="#ece1d7">pg_last_wal_replay_lsn()</text>
</g>
<!-- libpq&#45;&gt;shd -->
<g id="edge13" class="edge">
<title>libpq&#45;&gt;shd</title>
<path fill="none" stroke="#cba85e" stroke-width="2" d="M525.31,-663.24C594.96,-640.71 687.85,-609 768,-576 770.87,-574.82 773.77,-573.59 776.7,-572.32"/>
<polygon fill="#cba85e" stroke="#cba85e" stroke-width="2" points="515.65,-666.36 523.78,-659.01 520.25,-664.35 525.01,-662.81 525.16,-663.29 525.32,-663.77 520.56,-665.3 526.54,-667.57 515.65,-666.36 515.65,-666.36"/>
<polygon fill="#cba85e" stroke="#cba85e" stroke-width="2" points="778.35,-575.42 786.08,-568.17 775.52,-569.02 778.35,-575.42"/>
<text text-anchor="middle" x="785" y="-630.8" font-family="Helvetica,sans-Serif" font-size="9.00" fill="#ece1d7">SELECT pg_class / pg_attribute /</text>
<text text-anchor="middle" x="785" y="-620.8" font-family="Helvetica,sans-Serif" font-size="9.00" fill="#ece1d7">pg_type / pg_index +</text>
<text text-anchor="middle" x="785" y="-610.8" font-family="Helvetica,sans-Serif" font-size="9.00" fill="#ece1d7">pg_last_wal_replay_lsn()</text>
<text text-anchor="middle" x="785" y="-600.8" font-family="Helvetica,sans-Serif" font-size="9.00" fill="#ece1d7">port=55434, unix sock</text>
</g>
<!-- prev -->
<g id="node11" class="node">
<title>prev</title>
<polygon fill="#4d4d28" stroke="#6e6963" points="318,-555.5 315,-559.5 294,-559.5 291,-555.5 118,-555.5 118,-514.5 318,-514.5 318,-555.5"/>
<text text-anchor="middle" x="218" y="-543.5" font-family="Helvetica,sans-Serif" font-size="10.00" fill="#ece1d7">prev_known</text>
<text text-anchor="middle" x="218" y="-532.5" font-family="Helvetica,sans-Serif" font-size="10.00" fill="#ece1d7">HashMap&lt;Oid, Arc&lt;RelDescriptor&gt;&gt;</text>
<text text-anchor="middle" x="218" y="-521.5" font-family="Helvetica,sans-Serif" font-size="10.00" fill="#ece1d7">last&#45;seen shape per oid</text>
</g>
<!-- rec&#45;&gt;prev -->
<g id="edge11" class="edge">
<title>rec&#45;&gt;prev</title>
<path fill="none" stroke="#cba85e" stroke-dasharray="5,2" d="M220.52,-670.65C219.99,-642.24 219.13,-596.22 218.56,-566.03"/>
<polygon fill="#cba85e" stroke="#cba85e" points="222.06,-565.62 218.37,-555.69 215.06,-565.75 222.06,-565.62"/>
<text text-anchor="middle" x="235" y="-615.8" font-family="Helvetica,sans-Serif" font-size="9.00" fill="#ece1d7">upsert</text>
</g>
<!-- evtx -->
<g id="node14" class="node">
<title>evtx</title>
<path fill="#4d4d28" stroke="#6e6963" d="M741.87,-576C741.87,-576 589.5,-576 589.5,-576 583.5,-576 574.6,-570.75 571.69,-565.5 571.69,-565.5 537.94,-504.5 537.94,-504.5 535.04,-499.25 538.13,-494 544.13,-494 544.13,-494 696.5,-494 696.5,-494 702.5,-494 711.4,-499.25 714.31,-504.5 714.31,-504.5 748.06,-565.5 748.06,-565.5 750.96,-570.75 747.87,-576 741.87,-576"/>
<text text-anchor="middle" x="643" y="-543.5" font-family="Helvetica,sans-Serif" font-size="10.00" fill="#ece1d7">schema_event_tx</text>
<text text-anchor="middle" x="643" y="-532.5" font-family="Helvetica,sans-Serif" font-size="10.00" fill="#ece1d7">mpsc::unbounded</text>
<text text-anchor="middle" x="643" y="-521.5" font-family="Helvetica,sans-Serif" font-size="10.00" fill="#ece1d7">(single subscriber)</text>
</g>
<!-- rec&#45;&gt;evtx -->
<g id="edge12" class="edge">
<title>rec&#45;&gt;evtx</title>
<path fill="none" stroke="#cba85e" stroke-width="2" d="M282.7,-670.85C291.84,-667.18 301.16,-663.47 310,-660 394.7,-626.76 492.34,-590.66 559.9,-566.03"/>
<polygon fill="#cba85e" stroke="#cba85e" stroke-width="2" points="561.44,-569.19 569.64,-562.48 559.04,-562.62 561.44,-569.19"/>
<text text-anchor="middle" x="517" y="-615.8" font-family="Helvetica,sans-Serif" font-size="9.00" fill="#ece1d7">Added | Changed{diff}</text>
</g>
<!-- sweep&#45;&gt;gencnt -->
<g id="edge21" class="edge">
<title>sweep&#45;&gt;gencnt</title>
<path fill="none" stroke="#cba85e" stroke-dasharray="5,2" d="M425.11,-1183.92C418.31,-1169.48 409.47,-1150.72 401,-1132.76"/>
<polygon fill="#cba85e" stroke="#cba85e" points="404.05,-1131.02 396.62,-1123.46 397.72,-1134 404.05,-1131.02"/>
<text text-anchor="middle" x="445" y="-1149.45" font-family="Helvetica,sans-Serif" font-size="9.00" fill="#ece1d7">bump on DROP</text>
</g>
<!-- sweep&#45;&gt;libpq -->
<g id="edge18" class="edge">
<title>sweep&#45;&gt;libpq</title>
<path fill="none" stroke="#cba85e" stroke-dasharray="5,2" d="M465.92,-1184.08C473.74,-1176.01 481.54,-1166.58 487,-1156.65 494.07,-1143.81 493.21,-1139.2 495,-1124.65 500.68,-1078.49 502.83,-1065.85 495,-1020 490.72,-994.92 482.84,-990.51 476,-966 454.57,-889.23 437.19,-798.04 427.74,-744.26"/>
<polygon fill="#cba85e" stroke="#cba85e" points="431.18,-743.6 426.02,-734.34 424.29,-744.8 431.18,-743.6"/>
<text text-anchor="middle" x="527.5" y="-948.3" font-family="Helvetica,sans-Serif" font-size="9.00" fill="#ece1d7">SELECT oid = ANY($1)</text>
<text text-anchor="middle" x="527.5" y="-938.3" font-family="Helvetica,sans-Serif" font-size="9.00" fill="#ece1d7">FROM pg_class</text>
</g>
<!-- sweep&#45;&gt;prev -->
<g id="edge19" class="edge">
<title>sweep&#45;&gt;prev</title>
<path fill="none" stroke="#cba85e" stroke-dasharray="5,2" d="M357.7,-1185.78C320.39,-1174.36 282.43,-1161.96 275,-1156.65 223.08,-1119.56 264.23,-1074.47 231,-1020 210.72,-986.76 181.27,-999.84 162,-966 94.38,-847.25 91.2,-790.42 132,-660 143.67,-622.71 170.93,-586.78 191.65,-563.29"/>
<polygon fill="#cba85e" stroke="#cba85e" points="194.3,-565.58 198.4,-555.81 189.1,-560.89 194.3,-565.58"/>
<text text-anchor="middle" x="166" y="-885.8" font-family="Helvetica,sans-Serif" font-size="9.00" fill="#ece1d7">remove missing</text>
</g>
<!-- sweep&#45;&gt;evtx -->
<g id="edge20" class="edge">
<title>sweep&#45;&gt;evtx</title>
<path fill="none" stroke="#cba85e" d="M504.65,-1184.02C549.83,-1162.38 601,-1126.19 601,-1073.33 601,-1073.33 601,-1073.33 601,-696 601,-658.17 612.12,-616.9 622.92,-585.75"/>
<polygon fill="#cba85e" stroke="#cba85e" points="626.33,-586.61 626.4,-576.01 619.74,-584.25 626.33,-586.61"/>
<text text-anchor="middle" x="657" y="-885.8" font-family="Helvetica,sans-Serif" font-size="9.00" fill="#ece1d7">Dropped { oid, qname }</text>
</g>
<!-- xbuf -->
<g id="node15" class="node">
<title>xbuf</title>
<path fill="#4d4128" stroke="#6e6963" d="M641.5,-430C641.5,-430 488.5,-430 488.5,-430 482.5,-430 476.5,-424 476.5,-418 476.5,-418 476.5,-401 476.5,-401 476.5,-395 482.5,-389 488.5,-389 488.5,-389 641.5,-389 641.5,-389 647.5,-389 653.5,-395 653.5,-401 653.5,-401 653.5,-418 653.5,-418 653.5,-424 647.5,-430 641.5,-430"/>
<text text-anchor="middle" x="565" y="-418" font-family="Helvetica,sans-Serif" font-size="10.00" fill="#ece1d7">XactBuffer</text>
<text text-anchor="middle" x="565" y="-407" font-family="Helvetica,sans-Serif" font-size="10.00" fill="#ece1d7">stamps SchemaEvent on xid;</text>
<text text-anchor="middle" x="565" y="-396" font-family="Helvetica,sans-Serif" font-size="10.00" fill="#ece1d7">drain&#45;time interleave with tuples</text>
</g>
<!-- evtx&#45;&gt;xbuf -->
<g id="edge22" class="edge">
<title>evtx&#45;&gt;xbuf</title>
<path fill="none" stroke="#cba85e" stroke-dasharray="5,2" d="M613.46,-493.76C608.49,-486.6 603.5,-479.15 599,-472 592.37,-461.45 585.62,-449.54 579.9,-439.02"/>
<polygon fill="#cba85e" stroke="#cba85e" points="582.99,-437.37 575.17,-430.21 576.82,-440.68 582.99,-437.37"/>
<text text-anchor="middle" x="642" y="-464.8" font-family="Helvetica,sans-Serif" font-size="9.00" fill="#ece1d7">stamp on xid</text>
<text text-anchor="middle" x="642" y="-454.8" font-family="Helvetica,sans-Serif" font-size="9.00" fill="#ece1d7">(lsn&#45;ordered drain)</text>
</g>
<!-- ddlapp -->
<g id="node16" class="node">
<title>ddlapp</title>
<path fill="#5d4628" stroke="#6e6963" d="M819.5,-430C819.5,-430 694.5,-430 694.5,-430 688.5,-430 682.5,-424 682.5,-418 682.5,-418 682.5,-401 682.5,-401 682.5,-395 688.5,-389 694.5,-389 694.5,-389 819.5,-389 819.5,-389 825.5,-389 831.5,-395 831.5,-401 831.5,-401 831.5,-418 831.5,-418 831.5,-424 825.5,-430 819.5,-430"/>
<text text-anchor="middle" x="757" y="-418" font-family="Helvetica,sans-Serif" font-size="10.00" fill="#ece1d7">DdlApplicator</text>
<text text-anchor="middle" x="757" y="-407" font-family="Helvetica,sans-Serif" font-size="10.00" fill="#ece1d7">ch_ddl.rs (own CH TCP)</text>
<text text-anchor="middle" x="757" y="-396" font-family="Helvetica,sans-Serif" font-size="10.00" fill="#ece1d7">drains at commit boundary</text>
</g>
<!-- evtx&#45;&gt;ddlapp -->
<g id="edge23" class="edge">
<title>evtx&#45;&gt;ddlapp</title>
<path fill="none" stroke="#bf8c5f" stroke-width="2" d="M680.01,-493.9C697,-475.5 716.69,-454.17 731.91,-437.68"/>
<polygon fill="#bf8c5f" stroke="#bf8c5f" stroke-width="2" points="734.78,-439.73 738.99,-430.01 729.64,-434.98 734.78,-439.73"/>
<text text-anchor="middle" x="752.5" y="-459.8" font-family="Helvetica,sans-Serif" font-size="9.00" fill="#ece1d7">drain at commit</text>
</g>
<!-- legend -->
<g id="node17" class="node">
<title>legend</title>
<path fill="#6e6963" stroke="transparent" d="M1283.5,-344C1283.5,-344 230.5,-344 230.5,-344 224.5,-344 218.5,-338 218.5,-332 218.5,-332 218.5,-12 218.5,-12 218.5,-6 224.5,0 230.5,0 230.5,0 1283.5,0 1283.5,0 1289.5,0 1295.5,-6 1295.5,-12 1295.5,-12 1295.5,-332 1295.5,-332 1295.5,-338 1289.5,-344 1283.5,-344"/>
<polygon fill="#34302c" stroke="transparent" points="227,-319 227,-340 1288,-340 1288,-319 227,-319"/>
<polygon fill="none" stroke="#6e6963" points="227,-319 227,-340 1288,-340 1288,-319 227,-319"/>
<text text-anchor="start" x="714" y="-328" font-family="Helvetica,sans-Serif" font-weight="bold" font-size="10.00" fill="#ece1d7">node fill — role</text>
<polygon fill="#4d4d28" stroke="transparent" points="227,-298 227,-319 556,-319 556,-298 227,-298"/>
<polygon fill="none" stroke="#6e6963" points="227,-298 227,-319 556,-319 556,-298 227,-298"/>
<polygon fill="none" stroke="#6e6963" points="556,-298 556,-319 1288,-319 1288,-298 556,-298"/>
<text text-anchor="start" x="807.5" y="-306" font-family="Helvetica,sans-Serif" font-size="10.00" fill="#ece1d7">ShadowCatalog internal (cache, gates, epochs)</text>
<polygon fill="#4d4128" stroke="transparent" points="227,-277 227,-298 556,-298 556,-277 227,-277"/>
<polygon fill="none" stroke="#6e6963" points="227,-277 227,-298 556,-298 556,-277 227,-277"/>
<polygon fill="none" stroke="#6e6963" points="556,-277 556,-298 1288,-298 1288,-277 556,-277"/>
<text text-anchor="start" x="843" y="-285" font-family="Helvetica,sans-Serif" font-size="10.00" fill="#ece1d7">decoder / XactBuffer (consumer)</text>
<polygon fill="#4d3a28" stroke="transparent" points="227,-256 227,-277 556,-277 556,-256 227,-256"/>
<polygon fill="none" stroke="#6e6963" points="227,-256 227,-277 556,-277 556,-256 227,-256"/>
<polygon fill="none" stroke="#6e6963" points="556,-256 556,-277 1288,-277 1288,-256 556,-256"/>
<text text-anchor="start" x="820.5" y="-264" font-family="Helvetica,sans-Serif" font-size="10.00" fill="#ece1d7">CatalogTracker (filter, producer of bumps)</text>
<polygon fill="#5d4628" stroke="transparent" points="227,-235 227,-256 556,-256 556,-235 227,-235"/>
<polygon fill="none" stroke="#6e6963" points="227,-235 227,-256 556,-256 556,-235 227,-235"/>
<polygon fill="none" stroke="#6e6963" points="556,-235 556,-256 1288,-256 1288,-235 556,-235"/>
<text text-anchor="start" x="841" y="-243" font-family="Helvetica,sans-Serif" font-size="10.00" fill="#ece1d7">DdlApplicator (CH DDL, own TCP)</text>
<polygon fill="#3d4128" stroke="transparent" points="227,-214 227,-235 556,-235 556,-214 227,-214"/>
<polygon fill="none" stroke="#6e6963" points="227,-214 227,-235 556,-235 556,-214 227,-214"/>
<polygon fill="none" stroke="#6e6963" points="556,-214 556,-235 1288,-235 1288,-214 556,-214"/>
<text text-anchor="start" x="880.5" y="-222" font-family="Helvetica,sans-Serif" font-size="10.00" fill="#ece1d7">shadow Postgres</text>
<polygon fill="#34302c" stroke="transparent" points="227,-193 227,-214 1288,-214 1288,-193 227,-193"/>
<polygon fill="none" stroke="#6e6963" points="227,-193 227,-214 1288,-214 1288,-193 227,-193"/>
<text text-anchor="start" x="727" y="-202" font-family="Helvetica,sans-Serif" font-weight="bold" font-size="10.00" fill="#ece1d7">edge style</text>
<polygon fill="none" stroke="#6e6963" points="227,-172 227,-193 556,-193 556,-172 227,-172"/>
<text text-anchor="start" x="385" y="-181" font-family="Helvetica,sans-Serif" font-weight="bold" font-size="10.00" fill="#cba85e">━━</text>
<polygon fill="none" stroke="#6e6963" points="556,-172 556,-193 1288,-193 1288,-172 556,-172"/>
<text text-anchor="start" x="789.5" y="-180" font-family="Helvetica,sans-Serif" font-size="10.00" fill="#ece1d7">libpq query / SchemaEvent flow (solid = forward path)</text>
<polygon fill="none" stroke="#6e6963" points="227,-151 227,-172 556,-172 556,-151 227,-151"/>
<text text-anchor="start" x="385" y="-160" font-family="Helvetica,sans-Serif" font-weight="bold" font-size="10.00" fill="#cba85e">┄┄</text>
<polygon fill="none" stroke="#6e6963" points="556,-151 556,-172 1288,-172 1288,-151 556,-151"/>
<text text-anchor="start" x="827" y="-159" font-family="Helvetica,sans-Serif" font-size="10.00" fill="#ece1d7">invalidation / cache feedback (dashed)</text>
<polygon fill="none" stroke="#6e6963" points="227,-130 227,-151 556,-151 556,-130 227,-130"/>
<text text-anchor="start" x="385" y="-139" font-family="Helvetica,sans-Serif" font-weight="bold" font-size="10.00" fill="#bf8c5f">━━</text>
<polygon fill="none" stroke="#6e6963" points="556,-130 556,-151 1288,-151 1288,-130 556,-130"/>
<text text-anchor="start" x="817" y="-138" font-family="Helvetica,sans-Serif" font-size="10.00" fill="#ece1d7">CH Native DDL (off hot path, separate TCP)</text>
<polygon fill="#34302c" stroke="transparent" points="227,-109 227,-130 1288,-130 1288,-109 227,-109"/>
<polygon fill="none" stroke="#6e6963" points="227,-109 227,-130 1288,-130 1288,-109 227,-109"/>
<text text-anchor="start" x="694" y="-118" font-family="Helvetica,sans-Serif" font-weight="bold" font-size="10.00" fill="#ece1d7">SchemaEvent variants</text>
<polygon fill="none" stroke="#6e6963" points="227,-88 227,-109 556,-109 556,-88 227,-88"/>
<text text-anchor="start" x="373" y="-97" font-family="Helvetica,sans-Serif" font-weight="bold" font-size="10.00" fill="#ece1d7">Added</text>
<polygon fill="none" stroke="#6e6963" points="556,-88 556,-109 1288,-109 1288,-88 556,-88"/>
<text text-anchor="start" x="738.5" y="-96" font-family="Helvetica,sans-Serif" font-size="10.00" fill="#ece1d7">first sight of oid → CREATE TABLE (post&#45;DROP re&#45;create, seed_from_source)</text>
<polygon fill="none" stroke="#6e6963" points="227,-67 227,-88 556,-88 556,-67 227,-67"/>
<text text-anchor="start" x="366.5" y="-76" font-family="Helvetica,sans-Serif" font-weight="bold" font-size="10.00" fill="#ece1d7">Changed</text>
<polygon fill="none" stroke="#6e6963" points="556,-67 556,-88 1288,-88 1288,-67 556,-67"/>
<text text-anchor="start" x="695.5" y="-75" font-family="Helvetica,sans-Serif" font-size="10.00" fill="#ece1d7">refetched shape ≠ prev_known: ADD/DROP/RENAME COLUMN, type widen (rejected for now)</text>
<polygon fill="none" stroke="#6e6963" points="227,-46 227,-67 556,-67 556,-46 227,-46"/>
<text text-anchor="start" x="366.5" y="-55" font-family="Helvetica,sans-Serif" font-weight="bold" font-size="10.00" fill="#ece1d7">Dropped</text>
<polygon fill="none" stroke="#6e6963" points="556,-46 556,-67 1288,-67 1288,-46 556,-46"/>
<text text-anchor="start" x="732" y="-54" font-family="Helvetica,sans-Serif" font-size="10.00" fill="#ece1d7">sweep_dropped poll at armed xact&#39;s commit (PendingSweeps) → DROP TABLE</text>
<polygon fill="#34302c" stroke="transparent" points="227,-25 227,-46 1288,-46 1288,-25 227,-25"/>
<polygon fill="none" stroke="#6e6963" points="227,-25 227,-46 1288,-46 1288,-25 227,-25"/>
<text text-anchor="start" x="699" y="-34" font-family="Helvetica,sans-Serif" font-weight="bold" font-size="10.00" fill="#ece1d7">generation invariant</text>
<polygon fill="none" stroke="#6e6963" points="227,-4 227,-25 1288,-25 1288,-4 227,-4"/>
<text text-anchor="start" x="232" y="-12" font-family="Helvetica,sans-Serif" font-size="10.00" fill="#ece1d7">one DDL → one bump → every cache entry stale on next access. Coarse&#45;fire over&#45;invalidates (hint&#45;bit / autovac noise count) but never under&#45;invalidates — schema correctness is the floor, refetch cost the negotiable.</text>
</g>
<!-- ddlapp&#45;&gt;legend -->
</g>
</svg>
