<?xml version="1.0" encoding="UTF-8" standalone="no"?>
<!DOCTYPE svg PUBLIC "-//W3C//DTD SVG 1.1//EN"
 "http://www.w3.org/Graphics/SVG/1.1/DTD/svg11.dtd">
<!-- Generated by graphviz version 14.1.5 (0)
 -->
<!-- Title: shadow_comm Pages: 1 -->
<svg width="1399pt" height="780pt"
 viewBox="0.00 0.00 1399.00 780.00" xmlns="http://www.w3.org/2000/svg" xmlns:xlink="http://www.w3.org/1999/xlink">
<g id="graph0" class="graph" transform="scale(1 1) rotate(0) translate(4 775.88)">
<title>shadow_comm</title>
<polygon fill="#272623" stroke="none" points="-4,4 -4,-775.88 1394.5,-775.88 1394.5,4 -4,4"/>
<text xml:space="preserve" text-anchor="middle" x="695.25" y="-754.58" font-family="Helvetica,sans-Serif" font-size="14.00" fill="#ece1d7">walshadow ↔ shadow PG — three communication channels</text>
<g id="clust1" class="cluster">
<title>cluster_w</title>
<polygon fill="#34302c" stroke="#a1a9cc" points="74,-121.12 74,-455.12 687.25,-455.12 687.25,-121.12 74,-121.12"/>
<text xml:space="preserve" text-anchor="middle" x="380.62" y="-437.82" font-family="Helvetica,sans-Serif" font-size="14.00" fill="#ece1d7">walshadow&#45;stream daemon</text>
</g>
<g id="clust2" class="cluster">
<title>cluster_s</title>
<polygon fill="#34302c" stroke="#869461" points="880,-116.12 880,-371.12 1382.5,-371.12 1382.5,-116.12 880,-116.12"/>
<text xml:space="preserve" text-anchor="middle" x="1131.25" y="-353.82" font-family="Helvetica,sans-Serif" font-size="14.00" fill="#ece1d7">shadow PG (continuous recovery)</text>
</g>
<!-- catalog -->
<g id="node1" class="node">
<title>catalog</title>
<path fill="#3d3d54" stroke="#6e6963" d="M667.25,-259.25C667.25,-259.25 562,-259.25 562,-259.25 556,-259.25 550,-253.25 550,-247.25 550,-247.25 550,-225 550,-225 550,-219 556,-213 562,-213 562,-213 667.25,-213 667.25,-213 673.25,-213 679.25,-219 679.25,-225 679.25,-225 679.25,-247.25 679.25,-247.25 679.25,-253.25 673.25,-259.25 667.25,-259.25"/>
<text xml:space="preserve" text-anchor="middle" x="614.62" y="-245.75" font-family="Helvetica,sans-Serif" font-size="10.00" fill="#ece1d7">ShadowCatalog</text>
<text xml:space="preserve" text-anchor="middle" x="614.62" y="-233" font-family="Helvetica,sans-Serif" font-size="10.00" fill="#ece1d7">RelDescriptor LRU</text>
<text xml:space="preserve" text-anchor="middle" x="614.62" y="-220.25" font-family="Helvetica,sans-Serif" font-size="10.00" fill="#ece1d7">+ tokio_postgres client</text>
</g>
<!-- shadcat -->
<g id="node10" class="node">
<title>shadcat</title>
<path fill="#3d4128" stroke="#6e6963" d="M1027,-259.25C1027,-259.25 913.5,-259.25 913.5,-259.25 907.5,-259.25 901.5,-253.25 901.5,-247.25 901.5,-247.25 901.5,-225 901.5,-225 901.5,-219 907.5,-213 913.5,-213 913.5,-213 1027,-213 1027,-213 1033,-213 1039,-219 1039,-225 1039,-225 1039,-247.25 1039,-247.25 1039,-253.25 1033,-259.25 1027,-259.25"/>
<text xml:space="preserve" text-anchor="middle" x="970.25" y="-245.75" font-family="Helvetica,sans-Serif" font-size="10.00" fill="#ece1d7">pg_class /</text>
<text xml:space="preserve" text-anchor="middle" x="970.25" y="-233" font-family="Helvetica,sans-Serif" font-size="10.00" fill="#ece1d7">pg_attribute /</text>
<text xml:space="preserve" text-anchor="middle" x="970.25" y="-220.25" font-family="Helvetica,sans-Serif" font-size="10.00" fill="#ece1d7">pg_type / pg_namespace</text>
</g>
<!-- catalog&#45;&gt;shadcat -->
<g id="edge1" class="edge">
<title>catalog&#45;&gt;shadcat</title>
<path fill="none" stroke="#cba85e" stroke-width="2" d="M691.76,-236.12C749.75,-236.12 829.41,-236.12 888.51,-236.12"/>
<polygon fill="#cba85e" stroke="#cba85e" stroke-width="2" points="682.1,-236.13 692.1,-231.63 684.66,-235.63 692.1,-235.63 692.1,-236.13 692.1,-236.63 684.66,-236.63 692.1,-240.63 682.1,-236.13"/>
<polygon fill="#cba85e" stroke="#cba85e" stroke-width="2" points="888.14,-239.63 898.14,-236.13 888.14,-232.63 888.14,-239.63"/>
<text xml:space="preserve" text-anchor="middle" x="788.25" y="-264.88" font-family="Helvetica,sans-Serif" font-size="10.00" fill="#ece1d7">① libpq SELECT</text>
<text xml:space="preserve" text-anchor="middle" x="788.25" y="-252.12" font-family="Helvetica,sans-Serif" font-size="10.00" fill="#ece1d7">(cache fill on miss)</text>
<text xml:space="preserve" text-anchor="middle" x="788.25" y="-239.38" font-family="Helvetica,sans-Serif" font-size="10.00" fill="#ece1d7">port=55434</text>
</g>
<!-- inval -->
<g id="node2" class="node">
<title>inval</title>
<path fill="#3d3d54" stroke="#6e6963" d="M221.38,-254.12C221.38,-254.12 117.62,-254.12 117.62,-254.12 111.62,-254.12 105.62,-248.12 105.62,-242.12 105.62,-242.12 105.62,-230.12 105.62,-230.12 105.62,-224.12 111.62,-218.12 117.62,-218.12 117.62,-218.12 221.38,-218.12 221.38,-218.12 227.38,-218.12 233.38,-224.12 233.38,-230.12 233.38,-230.12 233.38,-242.12 233.38,-242.12 233.38,-248.12 227.38,-254.12 221.38,-254.12"/>
<text xml:space="preserve" text-anchor="middle" x="169.5" y="-239.38" font-family="Helvetica,sans-Serif" font-size="10.00" fill="#ece1d7">invalidation_drain task</text>
<text xml:space="preserve" text-anchor="middle" x="169.5" y="-226.62" font-family="Helvetica,sans-Serif" font-size="10.00" fill="#ece1d7">generation counter</text>
</g>
<!-- inval&#45;&gt;catalog -->
<g id="edge11" class="edge">
<title>inval&#45;&gt;catalog</title>
<path fill="none" stroke="#cba85e" stroke-dasharray="5,2" d="M233.52,-236.12C313.82,-236.12 452.46,-236.12 538.26,-236.12"/>
<polygon fill="#cba85e" stroke="#cba85e" points="538.23,-239.63 548.23,-236.13 538.23,-232.63 538.23,-239.63"/>
<text xml:space="preserve" text-anchor="middle" x="439.88" y="-252.12" font-family="Helvetica,sans-Serif" font-size="10.00" fill="#ece1d7">bump generation</text>
<text xml:space="preserve" text-anchor="middle" x="439.88" y="-239.38" font-family="Helvetica,sans-Serif" font-size="10.00" fill="#ece1d7">(force cache miss)</text>
</g>
<!-- sender -->
<g id="node3" class="node">
<title>sender</title>
<path fill="#4d3340" stroke="#6e6963" d="M245,-343.25C245,-343.25 94,-343.25 94,-343.25 88,-343.25 82,-337.25 82,-331.25 82,-331.25 82,-309 82,-309 82,-303 88,-297 94,-297 94,-297 245,-297 245,-297 251,-297 257,-303 257,-309 257,-309 257,-331.25 257,-331.25 257,-337.25 251,-343.25 245,-343.25"/>
<text xml:space="preserve" text-anchor="middle" x="169.5" y="-329.75" font-family="Helvetica,sans-Serif" font-size="10.00" fill="#ece1d7">ShadowStreamSink + walsender</text>
<text xml:space="preserve" text-anchor="middle" x="169.5" y="-317" font-family="Helvetica,sans-Serif" font-size="10.00" fill="#ece1d7">listener (unix / TCP)</text>
<text xml:space="preserve" text-anchor="middle" x="169.5" y="-304.25" font-family="Helvetica,sans-Serif" font-size="10.00" fill="#ece1d7">frame encoder</text>
</g>
<!-- walrecv -->
<g id="node8" class="node">
<title>walrecv</title>
<path fill="#3d4128" stroke="#6e6963" d="M1040.5,-170.25C1040.5,-170.25 900,-170.25 900,-170.25 894,-170.25 888,-164.25 888,-158.25 888,-158.25 888,-136 888,-136 888,-130 894,-124 900,-124 900,-124 1040.5,-124 1040.5,-124 1046.5,-124 1052.5,-130 1052.5,-136 1052.5,-136 1052.5,-158.25 1052.5,-158.25 1052.5,-164.25 1046.5,-170.25 1040.5,-170.25"/>
<text xml:space="preserve" text-anchor="middle" x="970.25" y="-156.75" font-family="Helvetica,sans-Serif" font-size="10.00" fill="#ece1d7">walreceiver</text>
<text xml:space="preserve" text-anchor="middle" x="970.25" y="-144" font-family="Helvetica,sans-Serif" font-size="10.00" fill="#ece1d7">primary_conninfo=walshadow</text>
<text xml:space="preserve" text-anchor="middle" x="970.25" y="-131.25" font-family="Helvetica,sans-Serif" font-size="10.00" fill="#ece1d7">flush/apply LSN</text>
</g>
<!-- sender&#45;&gt;walrecv -->
<g id="edge2" class="edge">
<title>sender&#45;&gt;walrecv</title>
<path fill="none" stroke="#bd8183" stroke-width="3" d="M257.2,-309.38C285.07,-302.94 314.94,-292.63 339,-276.12 361.58,-260.64 353.73,-243.37 375,-226.12 437.55,-175.39 462.06,-170.04 540.75,-152.88 652.87,-128.42 785.44,-131.34 873.11,-137.54"/>
<polygon fill="#bd8183" stroke="#bd8183" stroke-width="3" points="872.84,-141.02 883.07,-138.28 873.36,-134.04 872.84,-141.02"/>
<text xml:space="preserve" text-anchor="middle" x="614.62" y="-181.62" font-family="Helvetica,sans-Serif" font-size="10.00" fill="#ece1d7">② &#39;w&#39; XLogData frames</text>
<text xml:space="preserve" text-anchor="middle" x="614.62" y="-168.88" font-family="Helvetica,sans-Serif" font-size="10.00" fill="#ece1d7">record cadence (ms)</text>
<text xml:space="preserve" text-anchor="middle" x="614.62" y="-156.12" font-family="Helvetica,sans-Serif" font-size="10.00" fill="#ece1d7">streaming&#45;replication protocol</text>
</g>
<!-- segwrt -->
<g id="node4" class="node">
<title>segwrt</title>
<path fill="#4d3850" stroke="#6e6963" d="M237.12,-422.12C237.12,-422.12 101.88,-422.12 101.88,-422.12 95.88,-422.12 89.88,-416.12 89.88,-410.12 89.88,-410.12 89.88,-398.12 89.88,-398.12 89.88,-392.12 95.88,-386.12 101.88,-386.12 101.88,-386.12 237.12,-386.12 237.12,-386.12 243.12,-386.12 249.12,-392.12 249.12,-398.12 249.12,-398.12 249.12,-410.12 249.12,-410.12 249.12,-416.12 243.12,-422.12 237.12,-422.12"/>
<text xml:space="preserve" text-anchor="middle" x="169.5" y="-407.38" font-family="Helvetica,sans-Serif" font-size="10.00" fill="#ece1d7">DirSegmentSink</text>
<text xml:space="preserve" text-anchor="middle" x="169.5" y="-394.62" font-family="Helvetica,sans-Serif" font-size="10.00" fill="#ece1d7">filtered segments + manifest</text>
</g>
<!-- outdir -->
<g id="node6" class="node">
<title>outdir</title>
<polygon fill="#5a3d5a" stroke="#6e6963" points="672.12,-517.25 551.12,-517.25 551.12,-471 678.12,-471 678.12,-511.25 672.12,-517.25"/>
<polyline fill="none" stroke="#6e6963" points="672.12,-517.25 672.12,-511.25"/>
<polyline fill="none" stroke="#6e6963" points="678.12,-511.25 672.12,-511.25"/>
<text xml:space="preserve" text-anchor="middle" x="614.62" y="-503.75" font-family="Helvetica,sans-Serif" font-size="10.00" fill="#ece1d7">out/&lt;seg&gt;</text>
<text xml:space="preserve" text-anchor="middle" x="614.62" y="-491" font-family="Helvetica,sans-Serif" font-size="10.00" fill="#ece1d7">16 MiB filtered</text>
<text xml:space="preserve" text-anchor="middle" x="614.62" y="-478.25" font-family="Helvetica,sans-Serif" font-size="10.00" fill="#ece1d7">segments + manifests</text>
</g>
<!-- segwrt&#45;&gt;outdir -->
<g id="edge4" class="edge">
<title>segwrt&#45;&gt;outdir</title>
<path fill="none" stroke="#6e6963" d="M249.47,-420.16C331.69,-436.86 459.48,-462.82 539.76,-479.12"/>
<polygon fill="#6e6963" stroke="#6e6963" points="538.78,-482.49 549.27,-481.06 540.17,-475.63 538.78,-482.49"/>
<text xml:space="preserve" text-anchor="middle" x="439.88" y="-473.24" font-family="Helvetica,sans-Serif" font-size="10.00" fill="#ece1d7">fsync segment + manifest</text>
</g>
<!-- bootstrap -->
<g id="node5" class="node">
<title>bootstrap</title>
<path fill="#4d4128" stroke="#6e6963" d="M242.75,-175.25C242.75,-175.25 96.25,-175.25 96.25,-175.25 90.25,-175.25 84.25,-169.25 84.25,-163.25 84.25,-163.25 84.25,-141 84.25,-141 84.25,-135 90.25,-129 96.25,-129 96.25,-129 242.75,-129 242.75,-129 248.75,-129 254.75,-135 254.75,-141 254.75,-141 254.75,-163.25 254.75,-163.25 254.75,-169.25 248.75,-175.25 242.75,-175.25"/>
<text xml:space="preserve" text-anchor="middle" x="169.5" y="-161.75" font-family="Helvetica,sans-Serif" font-size="10.00" fill="#ece1d7">Bootstrap orchestrator</text>
<text xml:space="preserve" text-anchor="middle" x="169.5" y="-149" font-family="Helvetica,sans-Serif" font-size="10.00" fill="#ece1d7">spawn_greenfield_bootstrap</text>
<text xml:space="preserve" text-anchor="middle" x="169.5" y="-136.25" font-family="Helvetica,sans-Serif" font-size="10.00" fill="#ece1d7">(catalog seed + BASE_BACKUP)</text>
</g>
<!-- dataok -->
<g id="node7" class="node">
<title>dataok</title>
<polygon fill="#5a3d5a" stroke="#6e6963" points="673.25,-46.25 550,-46.25 550,0 679.25,0 679.25,-40.25 673.25,-46.25"/>
<polyline fill="none" stroke="#6e6963" points="673.25,-46.25 673.25,-40.25"/>
<polyline fill="none" stroke="#6e6963" points="679.25,-40.25 673.25,-40.25"/>
<text xml:space="preserve" text-anchor="middle" x="614.62" y="-32.75" font-family="Helvetica,sans-Serif" font-size="10.00" fill="#ece1d7">shadow data dir</text>
<text xml:space="preserve" text-anchor="middle" x="614.62" y="-20" font-family="Helvetica,sans-Serif" font-size="10.00" fill="#ece1d7">populated by bootstrap</text>
<text xml:space="preserve" text-anchor="middle" x="614.62" y="-7.25" font-family="Helvetica,sans-Serif" font-size="10.00" fill="#ece1d7">(catalog files landed)</text>
</g>
<!-- bootstrap&#45;&gt;dataok -->
<g id="edge8" class="edge">
<title>bootstrap&#45;&gt;dataok</title>
<path fill="none" stroke="#bf8c5f" stroke-width="2" stroke-dasharray="5,2" d="M225.71,-128.62C266.44,-111.93 323.48,-89.85 375,-74.62 428.43,-58.83 489.9,-45.68 537.07,-36.62"/>
<polygon fill="#bf8c5f" stroke="#bf8c5f" stroke-width="2" points="537.52,-40.1 546.69,-34.8 536.22,-33.22 537.52,-40.1"/>
<text xml:space="preserve" text-anchor="middle" x="439.88" y="-90.62" font-family="Helvetica,sans-Serif" font-size="10.00" fill="#ece1d7">④ catalog files</text>
<text xml:space="preserve" text-anchor="middle" x="439.88" y="-77.88" font-family="Helvetica,sans-Serif" font-size="10.00" fill="#ece1d7">(BASE_BACKUP landed)</text>
</g>
<!-- restorer -->
<g id="node9" class="node">
<title>restorer</title>
<path fill="#3d4128" stroke="#6e6963" d="M1010.5,-338.12C1010.5,-338.12 930,-338.12 930,-338.12 924,-338.12 918,-332.12 918,-326.12 918,-326.12 918,-314.12 918,-314.12 918,-308.12 924,-302.12 930,-302.12 930,-302.12 1010.5,-302.12 1010.5,-302.12 1016.5,-302.12 1022.5,-308.12 1022.5,-314.12 1022.5,-314.12 1022.5,-326.12 1022.5,-326.12 1022.5,-332.12 1016.5,-338.12 1010.5,-338.12"/>
<text xml:space="preserve" text-anchor="middle" x="970.25" y="-323.38" font-family="Helvetica,sans-Serif" font-size="10.00" fill="#ece1d7">restore_command</text>
<text xml:space="preserve" text-anchor="middle" x="970.25" y="-310.62" font-family="Helvetica,sans-Serif" font-size="10.00" fill="#ece1d7">cp out/%f %p</text>
</g>
<!-- outdir&#45;&gt;restorer -->
<g id="edge5" class="edge">
<title>outdir&#45;&gt;restorer</title>
<path fill="none" stroke="#6e6963" stroke-width="2" d="M676.26,-470.52C680.42,-468.74 684.54,-466.93 688.5,-465.12 773.6,-426.33 869.87,-374.9 924.69,-344.87"/>
<polygon fill="#6e6963" stroke="#6e6963" stroke-width="2" points="926.33,-347.95 933.41,-340.07 922.96,-341.82 926.33,-347.95"/>
<text xml:space="preserve" text-anchor="middle" x="788.25" y="-475.66" font-family="Helvetica,sans-Serif" font-size="10.00" fill="#ece1d7">③ filesystem read</text>
<text xml:space="preserve" text-anchor="middle" x="788.25" y="-462.91" font-family="Helvetica,sans-Serif" font-size="10.00" fill="#ece1d7">on walreceiver disconnect</text>
<text xml:space="preserve" text-anchor="middle" x="788.25" y="-450.16" font-family="Helvetica,sans-Serif" font-size="10.00" fill="#ece1d7">or end&#45;of&#45;WAL</text>
</g>
<!-- pglog -->
<g id="node11" class="node">
<title>pglog</title>
<path fill="#3d4128" stroke="#6e6963" d="M1362.5,-222.12C1362.5,-222.12 1249.75,-222.12 1249.75,-222.12 1243.75,-222.12 1237.75,-216.12 1237.75,-210.12 1237.75,-210.12 1237.75,-198.12 1237.75,-198.12 1237.75,-192.12 1243.75,-186.12 1249.75,-186.12 1249.75,-186.12 1362.5,-186.12 1362.5,-186.12 1368.5,-186.12 1374.5,-192.12 1374.5,-198.12 1374.5,-198.12 1374.5,-210.12 1374.5,-210.12 1374.5,-216.12 1368.5,-222.12 1362.5,-222.12"/>
<text xml:space="preserve" text-anchor="middle" x="1306.12" y="-207.38" font-family="Helvetica,sans-Serif" font-size="10.00" fill="#ece1d7">redo apply</text>
<text xml:space="preserve" text-anchor="middle" x="1306.12" y="-194.62" font-family="Helvetica,sans-Serif" font-size="10.00" fill="#ece1d7">pg_last_wal_replay_lsn()</text>
</g>
<!-- dataok&#45;&gt;pglog -->
<g id="edge9" class="edge">
<title>dataok&#45;&gt;pglog</title>
<path fill="none" stroke="#bf8c5f" stroke-dasharray="5,2" d="M679.59,-24.92C790.92,-30.26 1025.32,-51.42 1201.75,-135.12 1227.05,-147.13 1253.26,-164.69 1272.96,-179.09"/>
<polygon fill="#bf8c5f" stroke="#bf8c5f" points="1270.75,-181.81 1280.86,-184.97 1274.93,-176.19 1270.75,-181.81"/>
<text xml:space="preserve" text-anchor="middle" x="970.25" y="-83.07" font-family="Helvetica,sans-Serif" font-size="10.00" fill="#ece1d7">initial state</text>
</g>
<!-- walrecv&#45;&gt;catalog -->
<g id="edge12" class="edge">
<title>walrecv&#45;&gt;catalog</title>
<path fill="none" stroke="#a1a9cc" stroke-dasharray="1,5" d="M905.09,-170.55C895.73,-176.16 886.92,-182.95 880,-191.12 852.11,-224.07 886.64,-258.37 852,-284.12 796.23,-325.58 713.45,-293.12 662.1,-265.16"/>
<polygon fill="#a1a9cc" stroke="#a1a9cc" points="664.02,-262.22 653.59,-260.39 660.6,-268.33 664.02,-262.22"/>
<text xml:space="preserve" text-anchor="middle" x="788.25" y="-332.61" font-family="Helvetica,sans-Serif" font-size="10.00" fill="#ece1d7">apply_lsn drives</text>
<text xml:space="preserve" text-anchor="middle" x="788.25" y="-319.86" font-family="Helvetica,sans-Serif" font-size="10.00" fill="#ece1d7">relation_at gate</text>
<text xml:space="preserve" text-anchor="middle" x="788.25" y="-307.11" font-family="Helvetica,sans-Serif" font-size="10.00" fill="#ece1d7">(unblocks decoder)</text>
</g>
<!-- walrecv&#45;&gt;sender -->
<g id="edge3" class="edge">
<title>walrecv&#45;&gt;sender</title>
<path fill="none" stroke="#bd8183" stroke-dasharray="5,2" d="M905.09,-170.55C895.73,-176.16 886.92,-182.95 880,-191.12 852.11,-224.07 885.95,-257.47 852,-284.12 682.49,-417.2 409.83,-379.35 266.16,-346.28"/>
<polygon fill="#bd8183" stroke="#bd8183" points="267.21,-342.93 256.68,-344.05 265.61,-349.75 267.21,-342.93"/>
<text xml:space="preserve" text-anchor="middle" x="614.62" y="-393.51" font-family="Helvetica,sans-Serif" font-size="10.00" fill="#ece1d7">② &#39;r&#39; standby status</text>
<text xml:space="preserve" text-anchor="middle" x="614.62" y="-380.76" font-family="Helvetica,sans-Serif" font-size="10.00" fill="#ece1d7">flush_lsn / apply_lsn</text>
</g>
<!-- walrecv&#45;&gt;pglog -->
<g id="edge7" class="edge">
<title>walrecv&#45;&gt;pglog</title>
<path fill="none" stroke="#bd8183" d="M1019.44,-170.68C1040.19,-179.7 1065.03,-189.03 1088.5,-194.12 1133.4,-203.87 1184.71,-206.59 1226.13,-206.78"/>
<polygon fill="#bd8183" stroke="#bd8183" points="1226.02,-210.28 1236.02,-206.77 1226.01,-203.28 1226.02,-210.28"/>
<text xml:space="preserve" text-anchor="middle" x="1145.12" y="-209.57" font-family="Helvetica,sans-Serif" font-size="10.00" fill="#ece1d7">apply &#39;w&#39; frames</text>
</g>
<!-- restorer&#45;&gt;pglog -->
<g id="edge6" class="edge">
<title>restorer&#45;&gt;pglog</title>
<path fill="none" stroke="#6e6963" d="M1022.69,-302.25C1081.48,-281.83 1177.76,-248.38 1241.29,-226.3"/>
<polygon fill="#6e6963" stroke="#6e6963" points="1242.25,-229.68 1250.54,-223.09 1239.95,-223.06 1242.25,-229.68"/>
<text xml:space="preserve" text-anchor="middle" x="1145.12" y="-282.54" font-family="Helvetica,sans-Serif" font-size="10.00" fill="#ece1d7">apply segment</text>
</g>
<!-- pglog&#45;&gt;walrecv -->
<g id="edge10" class="edge">
<title>pglog&#45;&gt;walrecv</title>
<path fill="none" stroke="#c1a78e" stroke-dasharray="5,2" d="M1271.76,-185.71C1252.02,-175.78 1226.18,-164.4 1201.75,-158.62 1157.28,-148.11 1106.69,-144.68 1064.25,-144.11"/>
<polygon fill="#c1a78e" stroke="#c1a78e" points="1064.34,-140.61 1054.31,-144.03 1064.29,-147.61 1064.34,-140.61"/>
<text xml:space="preserve" text-anchor="middle" x="1145.12" y="-174.62" font-family="Helvetica,sans-Serif" font-size="10.00" fill="#ece1d7">advance</text>
<text xml:space="preserve" text-anchor="middle" x="1145.12" y="-161.88" font-family="Helvetica,sans-Serif" font-size="10.00" fill="#ece1d7">pg_last_wal_replay_lsn</text>
</g>
<!-- legend -->
<g id="node12" class="node">
<title>legend</title>
<path fill="#6e6963" stroke="none" d="M327,-746.62C327,-746.62 12,-746.62 12,-746.62 6,-746.62 0,-740.62 0,-734.62 0,-734.62 0,-477.62 0,-477.62 0,-471.62 6,-465.62 12,-465.62 12,-465.62 327,-465.62 327,-465.62 333,-465.62 339,-471.62 339,-477.62 339,-477.62 339,-734.62 339,-734.62 339,-740.62 333,-746.62 327,-746.62"/>
<polygon fill="#34302c" stroke="none" points="8,-719.88 8,-742.62 331,-742.62 331,-719.88 8,-719.88"/>
<polygon fill="none" stroke="#6e6963" points="8,-719.88 8,-742.62 331,-742.62 331,-719.88 8,-719.88"/>
<text xml:space="preserve" text-anchor="start" x="108" y="-729.12" font-family="Helvetica,sans-Serif" font-weight="bold" font-size="10.00" fill="#ece1d7">channels (edge color)</text>
<polygon fill="none" stroke="#6e6963" points="8,-697.12 8,-719.88 42,-719.88 42,-697.12 8,-697.12"/>
<text xml:space="preserve" text-anchor="start" x="13" y="-706.38" font-family="Helvetica,sans-Serif" font-weight="bold" font-size="10.00" fill="#cba85e">① ━━</text>
<polygon fill="none" stroke="#6e6963" points="42,-697.12 42,-719.88 331,-719.88 331,-697.12 42,-697.12"/>
<text xml:space="preserve" text-anchor="start" x="86.38" y="-705.12" font-family="Helvetica,sans-Serif" font-size="10.00" fill="#ece1d7">libpq queries (catalog cache fill, on miss)</text>
<polygon fill="none" stroke="#6e6963" points="8,-674.38 8,-697.12 42,-697.12 42,-674.38 8,-674.38"/>
<text xml:space="preserve" text-anchor="start" x="13" y="-683.62" font-family="Helvetica,sans-Serif" font-weight="bold" font-size="10.00" fill="#bd8183">② ━━</text>
<polygon fill="none" stroke="#6e6963" points="42,-674.38 42,-697.12 331,-697.12 331,-674.38 42,-674.38"/>
<text xml:space="preserve" text-anchor="start" x="51.5" y="-682.38" font-family="Helvetica,sans-Serif" font-size="10.00" fill="#ece1d7">walsender wire — &#39;w&#39; XLogData @ record cadence (ms)</text>
<polygon fill="none" stroke="#6e6963" points="8,-651.62 8,-674.38 42,-674.38 42,-651.62 8,-651.62"/>
<text xml:space="preserve" text-anchor="start" x="13" y="-660.88" font-family="Helvetica,sans-Serif" font-weight="bold" font-size="10.00" fill="#6e6963">③ ━━</text>
<polygon fill="none" stroke="#6e6963" points="42,-651.62 42,-674.38 331,-674.38 331,-651.62 42,-651.62"/>
<text xml:space="preserve" text-anchor="start" x="47" y="-659.62" font-family="Helvetica,sans-Serif" font-size="10.00" fill="#ece1d7">restore_command — archive fallback (segment cadence)</text>
<polygon fill="none" stroke="#6e6963" points="8,-628.88 8,-651.62 42,-651.62 42,-628.88 8,-628.88"/>
<text xml:space="preserve" text-anchor="start" x="13" y="-638.12" font-family="Helvetica,sans-Serif" font-weight="bold" font-size="10.00" fill="#bf8c5f">④ ┄┄</text>
<polygon fill="none" stroke="#6e6963" points="42,-628.88 42,-651.62 331,-651.62 331,-628.88 42,-628.88"/>
<text xml:space="preserve" text-anchor="start" x="85.25" y="-636.88" font-family="Helvetica,sans-Serif" font-size="10.00" fill="#ece1d7">BASE_BACKUP land (one&#45;shot, greenfield)</text>
<polygon fill="none" stroke="#6e6963" points="8,-606.12 8,-628.88 42,-628.88 42,-606.12 8,-606.12"/>
<text xml:space="preserve" text-anchor="start" x="19.38" y="-615.38" font-family="Helvetica,sans-Serif" font-weight="bold" font-size="10.00" fill="#a1a9cc">···</text>
<polygon fill="none" stroke="#6e6963" points="42,-606.12 42,-628.88 331,-628.88 331,-606.12 42,-606.12"/>
<text xml:space="preserve" text-anchor="start" x="63.12" y="-614.12" font-family="Helvetica,sans-Serif" font-size="10.00" fill="#ece1d7">catalog gate dependency (apply_lsn → relation_at)</text>
<polygon fill="#34302c" stroke="none" points="8,-583.38 8,-606.12 331,-606.12 331,-583.38 8,-583.38"/>
<polygon fill="none" stroke="#6e6963" points="8,-583.38 8,-606.12 331,-606.12 331,-583.38 8,-583.38"/>
<text xml:space="preserve" text-anchor="start" x="146.25" y="-592.62" font-family="Helvetica,sans-Serif" font-weight="bold" font-size="10.00" fill="#ece1d7">node fill</text>
<polygon fill="#3d3d54" stroke="none" points="8,-560.62 8,-583.38 42,-583.38 42,-560.62 8,-560.62"/>
<polygon fill="none" stroke="#6e6963" points="8,-560.62 8,-583.38 42,-583.38 42,-560.62 8,-560.62"/>
<polygon fill="none" stroke="#6e6963" points="42,-560.62 42,-583.38 331,-583.38 331,-560.62 42,-560.62"/>
<text xml:space="preserve" text-anchor="start" x="81.12" y="-568.62" font-family="Helvetica,sans-Serif" font-size="10.00" fill="#ece1d7">walshadow — ShadowCatalog (libpq client)</text>
<polygon fill="#4d3340" stroke="none" points="8,-537.88 8,-560.62 42,-560.62 42,-537.88 8,-537.88"/>
<polygon fill="none" stroke="#6e6963" points="8,-537.88 8,-560.62 42,-560.62 42,-537.88 8,-537.88"/>
<polygon fill="none" stroke="#6e6963" points="42,-537.88 42,-560.62 331,-560.62 331,-537.88 42,-537.88"/>
<text xml:space="preserve" text-anchor="start" x="93.5" y="-545.88" font-family="Helvetica,sans-Serif" font-size="10.00" fill="#ece1d7">walshadow — walsender / sender side</text>
<polygon fill="#4d3850" stroke="none" points="8,-515.12 8,-537.88 42,-537.88 42,-515.12 8,-515.12"/>
<polygon fill="none" stroke="#6e6963" points="8,-515.12 8,-537.88 42,-537.88 42,-515.12 8,-515.12"/>
<polygon fill="none" stroke="#6e6963" points="42,-515.12 42,-537.88 331,-537.88 331,-515.12 42,-515.12"/>
<text xml:space="preserve" text-anchor="start" x="64.25" y="-523.12" font-family="Helvetica,sans-Serif" font-size="10.00" fill="#ece1d7">walshadow — on&#45;disk segments / shadow data dir</text>
<polygon fill="#4d4128" stroke="none" points="8,-492.38 8,-515.12 42,-515.12 42,-492.38 8,-492.38"/>
<polygon fill="none" stroke="#6e6963" points="8,-492.38 8,-515.12 42,-515.12 42,-492.38 8,-492.38"/>
<polygon fill="none" stroke="#6e6963" points="42,-492.38 42,-515.12 331,-515.12 331,-492.38 42,-492.38"/>
<text xml:space="preserve" text-anchor="start" x="96.88" y="-500.38" font-family="Helvetica,sans-Serif" font-size="10.00" fill="#ece1d7">walshadow — bootstrap orchestrator</text>
<polygon fill="#3d4128" stroke="none" points="8,-469.62 8,-492.38 42,-492.38 42,-469.62 8,-469.62"/>
<polygon fill="none" stroke="#6e6963" points="8,-469.62 8,-492.38 42,-492.38 42,-469.62 8,-469.62"/>
<polygon fill="none" stroke="#6e6963" points="42,-469.62 42,-492.38 331,-492.38 331,-469.62 42,-469.62"/>
<text xml:space="preserve" text-anchor="start" x="98.75" y="-477.62" font-family="Helvetica,sans-Serif" font-size="10.00" fill="#ece1d7">shadow Postgres receivers / catalog</text>
</g>
</g>
</svg>
