<?xml version="1.0" encoding="UTF-8" standalone="no"?>
<!DOCTYPE svg PUBLIC "-//W3C//DTD SVG 1.1//EN"
 "http://www.w3.org/Graphics/SVG/1.1/DTD/svg11.dtd">
<!-- Generated by graphviz version 14.1.5 (0)
 -->
<!-- Title: shadow_catalog Pages: 1 -->
<svg width="1429pt" height="1647pt"
 viewBox="0.00 0.00 1429.00 1647.00" xmlns="http://www.w3.org/2000/svg" xmlns:xlink="http://www.w3.org/1999/xlink">
<g id="graph0" class="graph" transform="scale(1 1) rotate(0) translate(4 1643.16)">
<title>shadow_catalog</title>
<polygon fill="#272623" stroke="none" points="-4,4 -4,-1643.16 1424.81,-1643.16 1424.81,4 -4,4"/>
<text xml:space="preserve" text-anchor="middle" x="710.4" y="-1621.86" font-family="Helvetica,sans-Serif" font-size="14.00" fill="#ece1d7">ShadowCatalog — LRU + generation invalidation + SchemaEvent emission (plans/shadow.md)</text>
<g id="clust2" class="cluster">
<title>cluster_cat</title>
<path fill="#34302c" stroke="#4c4641" d="M64.81,-544.88C64.81,-544.88 474.81,-544.88 474.81,-544.88 480.81,-544.88 486.81,-550.88 486.81,-556.88 486.81,-556.88 486.81,-1369.75 486.81,-1369.75 486.81,-1375.75 480.81,-1381.75 474.81,-1381.75 474.81,-1381.75 64.81,-1381.75 64.81,-1381.75 58.81,-1381.75 52.81,-1375.75 52.81,-1369.75 52.81,-1369.75 52.81,-556.88 52.81,-556.88 52.81,-550.88 58.81,-544.88 64.81,-544.88"/>
<text xml:space="preserve" text-anchor="middle" x="269.81" y="-1364.45" font-family="Helvetica,sans-Serif" font-size="14.00" fill="#ece1d7">ShadowCatalog (src/shadow_catalog.rs)</text>
</g>
<!-- tracker -->
<g id="node1" class="node">
<title>tracker</title>
<path fill="#4d3a28" stroke="#6e6963" d="M224.81,-1613.91C224.81,-1613.91 94.81,-1613.91 94.81,-1613.91 88.81,-1613.91 82.81,-1607.91 82.81,-1601.91 82.81,-1601.91 82.81,-1566.91 82.81,-1566.91 82.81,-1560.91 88.81,-1554.91 94.81,-1554.91 94.81,-1554.91 224.81,-1554.91 224.81,-1554.91 230.81,-1554.91 236.81,-1560.91 236.81,-1566.91 236.81,-1566.91 236.81,-1601.91 236.81,-1601.91 236.81,-1607.91 230.81,-1613.91 224.81,-1613.91"/>
<text xml:space="preserve" text-anchor="middle" x="159.81" y="-1600.41" font-family="Helvetica,sans-Serif" font-size="10.00" fill="#ece1d7">CatalogTracker</text>
<text xml:space="preserve" text-anchor="middle" x="159.81" y="-1587.66" font-family="Helvetica,sans-Serif" font-size="10.00" fill="#ece1d7">(filter pipeline, sync)</text>
<text xml:space="preserve" text-anchor="middle" x="159.81" y="-1574.91" font-family="Helvetica,sans-Serif" font-size="10.00" fill="#ece1d7">catalog WAL writes →</text>
<text xml:space="preserve" text-anchor="middle" x="159.81" y="-1562.16" font-family="Helvetica,sans-Serif" font-size="10.00" fill="#ece1d7">epoch bump (Release&#45;store)</text>
</g>
<!-- atomics -->
<g id="node3" class="node">
<title>atomics</title>
<ellipse fill="#4d4d28" stroke="#6e6963" cx="159.81" cy="-1466.95" rx="159.81" ry="32.7"/>
<text xml:space="preserve" text-anchor="middle" x="159.81" y="-1476.58" font-family="Helvetica,sans-Serif" font-size="10.00" fill="#ece1d7">Arc&lt;AtomicU64&gt;</text>
<text xml:space="preserve" text-anchor="middle" x="159.81" y="-1463.83" font-family="Helvetica,sans-Serif" font-size="10.00" fill="#ece1d7">invalidation_epoch &#160;(any catalog WAL)</text>
<text xml:space="preserve" text-anchor="middle" x="159.81" y="-1451.08" font-family="Helvetica,sans-Serif" font-size="10.00" fill="#ece1d7">pg_class_delete_epoch &#160;(heap_delete only)</text>
</g>
<!-- tracker&#45;&gt;atomics -->
<g id="edge1" class="edge">
<title>tracker&#45;&gt;atomics</title>
<path fill="none" stroke="#cba85e" stroke-dasharray="5,2" d="M159.81,-1554.57C159.81,-1541.5 159.81,-1525.77 159.81,-1511.32"/>
<polygon fill="#cba85e" stroke="#cba85e" points="163.31,-1511.59 159.81,-1501.6 156.31,-1511.6 163.31,-1511.59"/>
<text xml:space="preserve" text-anchor="middle" x="187.18" y="-1524.36" font-family="Helvetica,sans-Serif" font-size="9.00" fill="#ece1d7">set_*_epoch</text>
</g>
<!-- caller -->
<g id="node2" class="node">
<title>caller</title>
<path fill="#4d4128" stroke="#6e6963" d="M429.18,-1607.53C429.18,-1607.53 328.43,-1607.53 328.43,-1607.53 322.43,-1607.53 316.43,-1601.53 316.43,-1595.53 316.43,-1595.53 316.43,-1573.28 316.43,-1573.28 316.43,-1567.28 322.43,-1561.28 328.43,-1561.28 328.43,-1561.28 429.18,-1561.28 429.18,-1561.28 435.18,-1561.28 441.18,-1567.28 441.18,-1573.28 441.18,-1573.28 441.18,-1595.53 441.18,-1595.53 441.18,-1601.53 435.18,-1607.53 429.18,-1607.53"/>
<text xml:space="preserve" text-anchor="middle" x="378.81" y="-1594.03" font-family="Helvetica,sans-Serif" font-size="10.00" fill="#ece1d7">BufferingDecoderSink</text>
<text xml:space="preserve" text-anchor="middle" x="378.81" y="-1581.28" font-family="Helvetica,sans-Serif" font-size="10.00" fill="#ece1d7">relation_at(rfn, at_lsn)</text>
<text xml:space="preserve" text-anchor="middle" x="378.81" y="-1568.53" font-family="Helvetica,sans-Serif" font-size="10.00" fill="#ece1d7">(decoder worker task)</text>
</g>
<!-- gate -->
<g id="node4" class="node">
<title>gate</title>
<path fill="#4d4d28" stroke="#6e6963" d="M467.06,-1348.5C467.06,-1348.5 290.56,-1348.5 290.56,-1348.5 284.56,-1348.5 278.56,-1342.5 278.56,-1336.5 278.56,-1336.5 278.56,-1288.75 278.56,-1288.75 278.56,-1282.75 284.56,-1276.75 290.56,-1276.75 290.56,-1276.75 467.06,-1276.75 467.06,-1276.75 473.06,-1276.75 479.06,-1282.75 479.06,-1288.75 479.06,-1288.75 479.06,-1336.5 479.06,-1336.5 479.06,-1342.5 473.06,-1348.5 467.06,-1348.5"/>
<text xml:space="preserve" text-anchor="middle" x="378.81" y="-1335" font-family="Helvetica,sans-Serif" font-size="10.00" fill="#ece1d7">relation_at orchestration</text>
<text xml:space="preserve" text-anchor="middle" x="378.81" y="-1322.25" font-family="Helvetica,sans-Serif" font-size="10.00" fill="#ece1d7">① drain_invalidations (Acquire epoch)</text>
<text xml:space="preserve" text-anchor="middle" x="378.81" y="-1309.5" font-family="Helvetica,sans-Serif" font-size="10.00" fill="#ece1d7">② wait_for_replay(at_lsn)</text>
<text xml:space="preserve" text-anchor="middle" x="378.81" y="-1296.75" font-family="Helvetica,sans-Serif" font-size="10.00" fill="#ece1d7">③ drain_invalidations</text>
<text xml:space="preserve" text-anchor="middle" x="378.81" y="-1284" font-family="Helvetica,sans-Serif" font-size="10.00" fill="#ece1d7">④ cache lookup</text>
</g>
<!-- caller&#45;&gt;gate -->
<g id="edge2" class="edge">
<title>caller&#45;&gt;gate</title>
<path fill="none" stroke="#cba85e" d="M378.81,-1560.87C378.81,-1516.92 378.81,-1418.93 378.81,-1360.37"/>
<polygon fill="#cba85e" stroke="#cba85e" points="382.31,-1360.38 378.81,-1350.38 375.31,-1360.38 382.31,-1360.38"/>
<text xml:space="preserve" text-anchor="middle" x="401.31" y="-1464.03" font-family="Helvetica,sans-Serif" font-size="9.00" fill="#ece1d7">rfn, at_lsn</text>
</g>
<!-- atomics&#45;&gt;gate -->
<g id="edge11" class="edge">
<title>atomics&#45;&gt;gate</title>
<path fill="none" stroke="#cba85e" stroke-dasharray="5,2" d="M224.05,-1436.64C238.18,-1429.31 252.81,-1421.02 265.81,-1412.25 289.99,-1395.95 314.64,-1375.03 334.72,-1356.66"/>
<polygon fill="#cba85e" stroke="#cba85e" points="336.96,-1359.35 341.92,-1349.99 332.21,-1354.22 336.96,-1359.35"/>
<text xml:space="preserve" text-anchor="middle" x="323.66" y="-1403.7" font-family="Helvetica,sans-Serif" font-size="9.00" fill="#ece1d7">Acquire&#45;load</text>
<text xml:space="preserve" text-anchor="middle" x="323.66" y="-1392.45" font-family="Helvetica,sans-Serif" font-size="9.00" fill="#ece1d7">per lookup</text>
</g>
<!-- sweep -->
<g id="node11" class="node">
<title>sweep</title>
<path fill="#4d4d28" stroke="#6e6963" d="M237.06,-1342.13C237.06,-1342.13 72.56,-1342.13 72.56,-1342.13 66.56,-1342.13 60.56,-1336.13 60.56,-1330.13 60.56,-1330.13 60.56,-1295.13 60.56,-1295.13 60.56,-1289.13 66.56,-1283.13 72.56,-1283.13 72.56,-1283.13 237.06,-1283.13 237.06,-1283.13 243.06,-1283.13 249.06,-1289.13 249.06,-1295.13 249.06,-1295.13 249.06,-1330.13 249.06,-1330.13 249.06,-1336.13 243.06,-1342.13 237.06,-1342.13"/>
<text xml:space="preserve" text-anchor="middle" x="154.81" y="-1328.63" font-family="Helvetica,sans-Serif" font-size="10.00" fill="#ece1d7">sweep_dropped</text>
<text xml:space="preserve" text-anchor="middle" x="154.81" y="-1315.88" font-family="Helvetica,sans-Serif" font-size="10.00" fill="#ece1d7">poll pg_class for known oids;</text>
<text xml:space="preserve" text-anchor="middle" x="154.81" y="-1303.13" font-family="Helvetica,sans-Serif" font-size="10.00" fill="#ece1d7">missing → emit Dropped</text>
<text xml:space="preserve" text-anchor="middle" x="154.81" y="-1290.38" font-family="Helvetica,sans-Serif" font-size="10.00" fill="#ece1d7">throttled by pg_class_delete_epoch</text>
</g>
<!-- atomics&#45;&gt;sweep -->
<g id="edge14" class="edge">
<title>atomics&#45;&gt;sweep</title>
<path fill="none" stroke="#cba85e" stroke-dasharray="5,2" d="M158.76,-1434.02C157.99,-1410.67 156.95,-1378.84 156.12,-1353.77"/>
<polygon fill="#cba85e" stroke="#cba85e" points="159.63,-1353.82 155.8,-1343.94 152.63,-1354.05 159.63,-1353.82"/>
<text xml:space="preserve" text-anchor="middle" x="209.28" y="-1403.7" font-family="Helvetica,sans-Serif" font-size="9.00" fill="#ece1d7">gate by</text>
<text xml:space="preserve" text-anchor="middle" x="209.28" y="-1392.45" font-family="Helvetica,sans-Serif" font-size="9.00" fill="#ece1d7">pg_class_delete_epoch</text>
</g>
<!-- gencnt -->
<g id="node5" class="node">
<title>gencnt</title>
<ellipse fill="#4d4d28" stroke="#6e6963" cx="253.81" cy="-1161.75" rx="107.3" ry="59.75"/>
<text xml:space="preserve" text-anchor="middle" x="253.81" y="-1190.5" font-family="Helvetica,sans-Serif" font-size="10.00" fill="#ece1d7">generation: u64</text>
<text xml:space="preserve" text-anchor="middle" x="253.81" y="-1177.75" font-family="Helvetica,sans-Serif" font-size="10.00" fill="#ece1d7">entry hit iff gen == self.gen</text>
<text xml:space="preserve" text-anchor="middle" x="253.81" y="-1165" font-family="Helvetica,sans-Serif" font-size="10.00" fill="#ece1d7">bumped by:</text>
<text xml:space="preserve" text-anchor="middle" x="253.81" y="-1152.25" font-family="Helvetica,sans-Serif" font-size="10.00" fill="#ece1d7"> &#160;• epoch advance (drain)</text>
<text xml:space="preserve" text-anchor="middle" x="253.81" y="-1139.5" font-family="Helvetica,sans-Serif" font-size="10.00" fill="#ece1d7"> &#160;• reconnect</text>
<text xml:space="preserve" text-anchor="middle" x="253.81" y="-1126.75" font-family="Helvetica,sans-Serif" font-size="10.00" fill="#ece1d7"> &#160;• DROP sweep</text>
</g>
<!-- gate&#45;&gt;gencnt -->
<g id="edge12" class="edge">
<title>gate&#45;&gt;gencnt</title>
<path fill="none" stroke="#cba85e" stroke-dasharray="5,2" d="M347.04,-1276.35C340.77,-1269.25 334.28,-1261.8 328.31,-1254.75 320.29,-1245.29 311.91,-1235.19 303.79,-1225.26"/>
<polygon fill="#cba85e" stroke="#cba85e" points="306.72,-1223.31 297.69,-1217.77 301.29,-1227.74 306.72,-1223.31"/>
<text xml:space="preserve" text-anchor="middle" x="369.56" y="-1246.2" font-family="Helvetica,sans-Serif" font-size="9.00" fill="#ece1d7">bump on advance</text>
</g>
<!-- lru -->
<g id="node6" class="node">
<title>lru</title>
<path fill="#4d4d28" stroke="#6e6963" d="M461.31,-1046.75C461.31,-1046.75 310.31,-1046.75 310.31,-1046.75 304.31,-1046.75 298.31,-1040.75 298.31,-1034.75 298.31,-1034.75 298.31,-1012.5 298.31,-1012.5 298.31,-1006.5 304.31,-1000.5 310.31,-1000.5 310.31,-1000.5 461.31,-1000.5 461.31,-1000.5 467.31,-1000.5 473.31,-1006.5 473.31,-1012.5 473.31,-1012.5 473.31,-1034.75 473.31,-1034.75 473.31,-1040.75 467.31,-1046.75 461.31,-1046.75"/>
<text xml:space="preserve" text-anchor="middle" x="385.81" y="-1033.25" font-family="Helvetica,sans-Serif" font-size="10.00" fill="#ece1d7">by_filenode + by_oid</text>
<text xml:space="preserve" text-anchor="middle" x="385.81" y="-1020.5" font-family="Helvetica,sans-Serif" font-size="10.00" fill="#ece1d7">HashMap + EvictionIndex (FIFO)</text>
<text xml:space="preserve" text-anchor="middle" x="385.81" y="-1007.75" font-family="Helvetica,sans-Serif" font-size="10.00" fill="#ece1d7">cap = 4096</text>
</g>
<!-- gate&#45;&gt;lru -->
<g id="edge3" class="edge">
<title>gate&#45;&gt;lru</title>
<path fill="none" stroke="#cba85e" d="M404.58,-1276.31C408.39,-1269.46 411.72,-1262.11 413.81,-1254.75 436.32,-1175.21 436.87,-1148.14 413.81,-1068.75 412.65,-1064.77 411.01,-1060.8 409.11,-1056.98"/>
<polygon fill="#cba85e" stroke="#cba85e" points="412.31,-1055.52 404.32,-1048.56 406.22,-1058.98 412.31,-1055.52"/>
<text xml:space="preserve" text-anchor="middle" x="460.9" y="-1164.45" font-family="Helvetica,sans-Serif" font-size="9.00" fill="#ece1d7">check</text>
<text xml:space="preserve" text-anchor="middle" x="460.9" y="-1153.2" font-family="Helvetica,sans-Serif" font-size="9.00" fill="#ece1d7">(gen, rfn|oid)</text>
</g>
<!-- gencnt&#45;&gt;lru -->
<g id="edge13" class="edge">
<title>gencnt&#45;&gt;lru</title>
<path fill="none" stroke="#cba85e" stroke-dasharray="5,2" d="M283.64,-1104.08C291.76,-1091.59 301.26,-1079.03 311.81,-1068.75 317.55,-1063.15 324.13,-1057.96 330.95,-1053.25"/>
<polygon fill="#cba85e" stroke="#cba85e" points="332.6,-1056.35 339.07,-1047.97 328.78,-1050.49 332.6,-1056.35"/>
<text xml:space="preserve" text-anchor="middle" x="361.31" y="-1071.45" font-family="Helvetica,sans-Serif" font-size="9.00" fill="#ece1d7">gen mismatch ⇒ miss</text>
</g>
<!-- fetch -->
<g id="node7" class="node">
<title>fetch</title>
<path fill="#4d4d28" stroke="#6e6963" d="M442.81,-922.75C442.81,-922.75 270.81,-922.75 270.81,-922.75 264.81,-922.75 258.81,-916.75 258.81,-910.75 258.81,-910.75 258.81,-863 258.81,-863 258.81,-857 264.81,-851 270.81,-851 270.81,-851 442.81,-851 442.81,-851 448.81,-851 454.81,-857 454.81,-863 454.81,-863 454.81,-910.75 454.81,-910.75 454.81,-916.75 448.81,-922.75 442.81,-922.75"/>
<text xml:space="preserve" text-anchor="middle" x="356.81" y="-909.25" font-family="Helvetica,sans-Serif" font-size="10.00" fill="#ece1d7">fetch_by_filenode / fetch_by_oid</text>
<text xml:space="preserve" text-anchor="middle" x="356.81" y="-896.5" font-family="Helvetica,sans-Serif" font-size="10.00" fill="#ece1d7">SELECT pg_class + pg_namespace +</text>
<text xml:space="preserve" text-anchor="middle" x="356.81" y="-883.75" font-family="Helvetica,sans-Serif" font-size="10.00" fill="#ece1d7">pg_index (replident) +</text>
<text xml:space="preserve" text-anchor="middle" x="356.81" y="-871" font-family="Helvetica,sans-Serif" font-size="10.00" fill="#ece1d7">pg_attribute + pg_type</text>
<text xml:space="preserve" text-anchor="middle" x="356.81" y="-858.25" font-family="Helvetica,sans-Serif" font-size="10.00" fill="#ece1d7">(one SQL fan&#45;out per miss)</text>
</g>
<!-- lru&#45;&gt;fetch -->
<g id="edge4" class="edge">
<title>lru&#45;&gt;fetch</title>
<path fill="none" stroke="#cba85e" stroke-dasharray="5,2" d="M356.54,-1000.1C350.45,-993.83 344.88,-986.52 341.56,-978.5 335.76,-964.53 336.35,-948.47 339.39,-933.79"/>
<polygon fill="#cba85e" stroke="#cba85e" points="342.71,-934.91 341.76,-924.36 335.93,-933.21 342.71,-934.91"/>
<text xml:space="preserve" text-anchor="middle" x="351.68" y="-958.7" font-family="Helvetica,sans-Serif" font-size="9.00" fill="#ece1d7">miss</text>
</g>
<!-- fetch&#45;&gt;lru -->
<g id="edge7" class="edge">
<title>fetch&#45;&gt;lru</title>
<path fill="none" stroke="#cba85e" stroke-dasharray="5,2" d="M364.41,-923.19C368.78,-943.51 374.25,-968.92 378.56,-988.97"/>
<polygon fill="#cba85e" stroke="#cba85e" points="375.11,-989.55 380.63,-998.59 381.95,-988.08 375.11,-989.55"/>
<text xml:space="preserve" text-anchor="middle" x="407.47" y="-969.95" font-family="Helvetica,sans-Serif" font-size="9.00" fill="#ece1d7">insert</text>
<text xml:space="preserve" text-anchor="middle" x="407.47" y="-958.7" font-family="Helvetica,sans-Serif" font-size="9.00" fill="#ece1d7">EvictionIndex</text>
<text xml:space="preserve" text-anchor="middle" x="407.47" y="-947.45" font-family="Helvetica,sans-Serif" font-size="9.00" fill="#ece1d7">evict over cap</text>
</g>
<!-- libpq -->
<g id="node8" class="node">
<title>libpq</title>
<path fill="#4d4d28" stroke="#6e6963" d="M290.18,-795.75C290.18,-795.75 123.43,-795.75 123.43,-795.75 117.43,-795.75 111.43,-789.75 111.43,-783.75 111.43,-783.75 111.43,-723.25 111.43,-723.25 111.43,-717.25 117.43,-711.25 123.43,-711.25 123.43,-711.25 290.18,-711.25 290.18,-711.25 296.18,-711.25 302.18,-717.25 302.18,-723.25 302.18,-723.25 302.18,-783.75 302.18,-783.75 302.18,-789.75 296.18,-795.75 290.18,-795.75"/>
<text xml:space="preserve" text-anchor="middle" x="206.81" y="-782.25" font-family="Helvetica,sans-Serif" font-size="10.00" fill="#ece1d7">tokio_postgres::Client</text>
<text xml:space="preserve" text-anchor="middle" x="206.81" y="-769.5" font-family="Helvetica,sans-Serif" font-size="10.00" fill="#ece1d7">unix socket, long&#45;lived</text>
<text xml:space="preserve" text-anchor="middle" x="206.81" y="-756.75" font-family="Helvetica,sans-Serif" font-size="10.00" fill="#ece1d7">ensure_open → with_transient_retry</text>
<text xml:space="preserve" text-anchor="middle" x="206.81" y="-744" font-family="Helvetica,sans-Serif" font-size="10.00" fill="#ece1d7">→ reconnect on is_closed:</text>
<text xml:space="preserve" text-anchor="middle" x="206.81" y="-731.25" font-family="Helvetica,sans-Serif" font-size="10.00" fill="#ece1d7"> &#160;rebuild Client (conninfo stashed),</text>
<text xml:space="preserve" text-anchor="middle" x="206.81" y="-718.5" font-family="Helvetica,sans-Serif" font-size="10.00" fill="#ece1d7"> &#160;bump gen, reset last_replay_lsn</text>
</g>
<!-- fetch&#45;&gt;libpq -->
<g id="edge5" class="edge">
<title>fetch&#45;&gt;libpq</title>
<path fill="none" stroke="#c1a78e" d="M316.61,-850.67C300.13,-836.23 280.76,-819.28 262.93,-803.65"/>
<polygon fill="#c1a78e" stroke="#c1a78e" points="265.28,-801.06 255.45,-797.1 260.67,-806.32 265.28,-801.06"/>
</g>
<!-- rec -->
<g id="node9" class="node">
<title>rec</title>
<path fill="#4d4d28" stroke="#6e6963" d="M466.43,-783C466.43,-783 343.18,-783 343.18,-783 337.18,-783 331.18,-777 331.18,-771 331.18,-771 331.18,-736 331.18,-736 331.18,-730 337.18,-724 343.18,-724 343.18,-724 466.43,-724 466.43,-724 472.43,-724 478.43,-730 478.43,-736 478.43,-736 478.43,-771 478.43,-771 478.43,-777 472.43,-783 466.43,-783"/>
<text xml:space="preserve" text-anchor="middle" x="404.81" y="-769.5" font-family="Helvetica,sans-Serif" font-size="10.00" fill="#ece1d7">record_descriptor</text>
<text xml:space="preserve" text-anchor="middle" x="404.81" y="-756.75" font-family="Helvetica,sans-Serif" font-size="10.00" fill="#ece1d7">diff(new, prev_known[oid])</text>
<text xml:space="preserve" text-anchor="middle" x="404.81" y="-744" font-family="Helvetica,sans-Serif" font-size="10.00" fill="#ece1d7">→ Added | Changed{diff} |</text>
<text xml:space="preserve" text-anchor="middle" x="404.81" y="-731.25" font-family="Helvetica,sans-Serif" font-size="10.00" fill="#ece1d7">no&#45;op (Arc::ptr_eq)</text>
</g>
<!-- fetch&#45;&gt;rec -->
<g id="edge6" class="edge">
<title>fetch&#45;&gt;rec</title>
<path fill="none" stroke="#c1a78e" d="M369.67,-850.67C376.06,-833.17 383.81,-811.97 390.4,-793.92"/>
<polygon fill="#c1a78e" stroke="#c1a78e" points="393.67,-795.18 393.81,-784.58 387.1,-792.77 393.67,-795.18"/>
<text xml:space="preserve" text-anchor="middle" x="425.81" y="-820.45" font-family="Helvetica,sans-Serif" font-size="9.00" fill="#ece1d7">Arc&lt;RelDescriptor&gt;</text>
</g>
<!-- shd -->
<g id="node12" class="node">
<title>shd</title>
<path fill="#3d4128" stroke="#6e6963" d="M631.18,-609.19C631.18,-613.26 600.53,-616.56 562.81,-616.56 525.08,-616.56 494.43,-613.26 494.43,-609.19 494.43,-609.19 494.43,-542.81 494.43,-542.81 494.43,-538.74 525.08,-535.44 562.81,-535.44 600.53,-535.44 631.18,-538.74 631.18,-542.81 631.18,-542.81 631.18,-609.19 631.18,-609.19"/>
<path fill="none" stroke="#6e6963" d="M631.18,-609.19C631.18,-605.12 600.53,-601.81 562.81,-601.81 525.08,-601.81 494.43,-605.12 494.43,-609.19"/>
<text xml:space="preserve" text-anchor="middle" x="562.81" y="-592" font-family="Helvetica,sans-Serif" font-size="10.00" fill="#ece1d7">shadow PG</text>
<text xml:space="preserve" text-anchor="middle" x="562.81" y="-579.25" font-family="Helvetica,sans-Serif" font-size="10.00" fill="#ece1d7">pg_class / pg_attribute /</text>
<text xml:space="preserve" text-anchor="middle" x="562.81" y="-566.5" font-family="Helvetica,sans-Serif" font-size="10.00" fill="#ece1d7">pg_type / pg_index /</text>
<text xml:space="preserve" text-anchor="middle" x="562.81" y="-553.75" font-family="Helvetica,sans-Serif" font-size="10.00" fill="#ece1d7">pg_last_wal_replay_lsn()</text>
</g>
<!-- libpq&#45;&gt;shd -->
<g id="edge10" class="edge">
<title>libpq&#45;&gt;shd</title>
<path fill="none" stroke="#cba85e" stroke-width="2" d="M313.69,-712.33C314.73,-711.96 315.77,-711.61 316.81,-711.25 347.64,-700.63 357.25,-703.03 386.81,-689.25 398.34,-683.88 450.17,-650.62 494.63,-621.69"/>
<polygon fill="#cba85e" stroke="#cba85e" stroke-width="2" points="304.68,-715.49 312.63,-707.93 306.94,-714.17 313.95,-711.71 314.12,-712.18 314.28,-712.65 307.27,-715.12 315.61,-716.42 304.68,-715.49"/>
<polygon fill="#cba85e" stroke="#cba85e" stroke-width="2" points="496.44,-624.69 502.91,-616.3 492.62,-618.82 496.44,-624.69"/>
<text xml:space="preserve" text-anchor="middle" x="531.34" y="-680.7" font-family="Helvetica,sans-Serif" font-size="9.00" fill="#ece1d7">SELECT pg_class / pg_attribute /</text>
<text xml:space="preserve" text-anchor="middle" x="531.34" y="-669.45" font-family="Helvetica,sans-Serif" font-size="9.00" fill="#ece1d7">pg_type / pg_index +</text>
<text xml:space="preserve" text-anchor="middle" x="531.34" y="-658.2" font-family="Helvetica,sans-Serif" font-size="9.00" fill="#ece1d7">pg_last_wal_replay_lsn()</text>
<text xml:space="preserve" text-anchor="middle" x="531.34" y="-646.95" font-family="Helvetica,sans-Serif" font-size="9.00" fill="#ece1d7">port=55434, unix sock</text>
</g>
<!-- prev -->
<g id="node10" class="node">
<title>prev</title>
<polygon fill="#4d4d28" stroke="#6e6963" points="362.31,-599.12 359.31,-603.12 338.31,-603.12 335.31,-599.12 163.31,-599.12 163.31,-552.88 362.31,-552.88 362.31,-599.12"/>
<text xml:space="preserve" text-anchor="middle" x="262.81" y="-585.62" font-family="Helvetica,sans-Serif" font-size="10.00" fill="#ece1d7">prev_known</text>
<text xml:space="preserve" text-anchor="middle" x="262.81" y="-572.88" font-family="Helvetica,sans-Serif" font-size="10.00" fill="#ece1d7">HashMap&lt;Oid, Arc&lt;RelDescriptor&gt;&gt;</text>
<text xml:space="preserve" text-anchor="middle" x="262.81" y="-560.12" font-family="Helvetica,sans-Serif" font-size="10.00" fill="#ece1d7">last&#45;seen shape per oid</text>
</g>
<!-- rec&#45;&gt;prev -->
<g id="edge8" class="edge">
<title>rec&#45;&gt;prev</title>
<path fill="none" stroke="#cba85e" stroke-dasharray="5,2" d="M381.36,-723.52C355.65,-691.75 314.56,-640.96 288.13,-608.3"/>
<polygon fill="#cba85e" stroke="#cba85e" points="291.05,-606.35 282.04,-600.77 285.61,-610.75 291.05,-606.35"/>
<text xml:space="preserve" text-anchor="middle" x="365.33" y="-663.83" font-family="Helvetica,sans-Serif" font-size="9.00" fill="#ece1d7">upsert</text>
</g>
<!-- evtx -->
<g id="node13" class="node">
<title>evtx</title>
<path fill="#4d4d28" stroke="#6e6963" d="M867.7,-622.25C867.7,-622.25 716.88,-622.25 716.88,-622.25 710.88,-622.25 702.26,-616.85 699.64,-611.46 699.64,-611.46 665.16,-540.54 665.16,-540.54 662.53,-535.15 665.91,-529.75 671.91,-529.75 671.91,-529.75 822.73,-529.75 822.73,-529.75 828.73,-529.75 837.35,-535.15 839.98,-540.54 839.98,-540.54 874.46,-611.46 874.46,-611.46 877.08,-616.85 873.7,-622.25 867.7,-622.25"/>
<text xml:space="preserve" text-anchor="middle" x="769.81" y="-585.62" font-family="Helvetica,sans-Serif" font-size="10.00" fill="#ece1d7">schema_event_tx</text>
<text xml:space="preserve" text-anchor="middle" x="769.81" y="-572.88" font-family="Helvetica,sans-Serif" font-size="10.00" fill="#ece1d7">mpsc::unbounded</text>
<text xml:space="preserve" text-anchor="middle" x="769.81" y="-560.12" font-family="Helvetica,sans-Serif" font-size="10.00" fill="#ece1d7">(single subscriber)</text>
</g>
<!-- rec&#45;&gt;evtx -->
<g id="edge9" class="edge">
<title>rec&#45;&gt;evtx</title>
<path fill="none" stroke="#cba85e" stroke-width="2" d="M478.71,-742.29C520.84,-733.6 572.85,-717.78 611.81,-689.25 631.4,-674.9 624.66,-660.4 642.81,-644.25 655.7,-632.77 670.91,-622.58 686.23,-613.83"/>
<polygon fill="#cba85e" stroke="#cba85e" stroke-width="2" points="687.64,-617.05 694.72,-609.17 684.27,-610.91 687.64,-617.05"/>
<text xml:space="preserve" text-anchor="middle" x="695.31" y="-663.83" font-family="Helvetica,sans-Serif" font-size="9.00" fill="#ece1d7">Added | Changed{diff}</text>
</g>
<!-- sweep&#45;&gt;gencnt -->
<g id="edge18" class="edge">
<title>sweep&#45;&gt;gencnt</title>
<path fill="none" stroke="#cba85e" stroke-dasharray="5,2" d="M173.89,-1282.92C184.37,-1267.16 197.82,-1246.94 210.68,-1227.6"/>
<polygon fill="#cba85e" stroke="#cba85e" points="213.47,-1229.72 216.1,-1219.46 207.64,-1225.85 213.47,-1229.72"/>
<text xml:space="preserve" text-anchor="middle" x="232.88" y="-1246.2" font-family="Helvetica,sans-Serif" font-size="9.00" fill="#ece1d7">bump on DROP</text>
</g>
<!-- sweep&#45;&gt;libpq -->
<g id="edge15" class="edge">
<title>sweep&#45;&gt;libpq</title>
<path fill="none" stroke="#cba85e" stroke-dasharray="5,2" d="M145.48,-1282.76C140.31,-1265.25 134.42,-1242.33 131.81,-1221.5 125.19,-1168.8 125.49,-1154.74 131.81,-1102 138.52,-1045.92 149.57,-1033.64 161.81,-978.5 174.79,-919.95 188.14,-852.43 196.88,-806.96"/>
<polygon fill="#cba85e" stroke="#cba85e" points="200.28,-807.86 198.72,-797.38 193.4,-806.54 200.28,-807.86"/>
<text xml:space="preserve" text-anchor="middle" x="207.29" y="-1026.33" font-family="Helvetica,sans-Serif" font-size="9.00" fill="#ece1d7">SELECT oid = ANY($1)</text>
<text xml:space="preserve" text-anchor="middle" x="207.29" y="-1015.08" font-family="Helvetica,sans-Serif" font-size="9.00" fill="#ece1d7">FROM pg_class</text>
</g>
<!-- sweep&#45;&gt;prev -->
<g id="edge16" class="edge">
<title>sweep&#45;&gt;prev</title>
<path fill="none" stroke="#cba85e" stroke-dasharray="5,2" d="M140.51,-1282.78C136.42,-1273.92 132.16,-1264.04 128.81,-1254.75 123.61,-1240.35 122.94,-1236.49 119.81,-1221.5 73.33,-999.3 -6.75,-913.26 96.81,-711.25 120.89,-664.27 169.56,-628.01 208,-605.09"/>
<polygon fill="#cba85e" stroke="#cba85e" points="209.34,-608.36 216.22,-600.31 205.82,-602.3 209.34,-608.36"/>
<text xml:space="preserve" text-anchor="middle" x="91.37" y="-958.7" font-family="Helvetica,sans-Serif" font-size="9.00" fill="#ece1d7">remove missing</text>
</g>
<!-- sweep&#45;&gt;evtx -->
<g id="edge17" class="edge">
<title>sweep&#45;&gt;evtx</title>
<path fill="none" stroke="#cba85e" d="M240.71,-1282.67C248.47,-1280.5 256.25,-1278.49 263.81,-1276.75 376.14,-1250.95 769.81,-1278.01 769.81,-1162.75 769.81,-1162.75 769.81,-1162.75 769.81,-752.5 769.81,-712.81 769.81,-668.06 769.81,-633.69"/>
<polygon fill="#cba85e" stroke="#cba85e" points="773.31,-633.97 769.81,-623.97 766.31,-633.97 773.31,-633.97"/>
<text xml:space="preserve" text-anchor="middle" x="825.31" y="-958.7" font-family="Helvetica,sans-Serif" font-size="9.00" fill="#ece1d7">Dropped { oid, qname }</text>
</g>
<!-- xbuf -->
<g id="node14" class="node">
<title>xbuf</title>
<path fill="#4d4128" stroke="#6e6963" d="M768.06,-463.25C768.06,-463.25 615.56,-463.25 615.56,-463.25 609.56,-463.25 603.56,-457.25 603.56,-451.25 603.56,-451.25 603.56,-429 603.56,-429 603.56,-423 609.56,-417 615.56,-417 615.56,-417 768.06,-417 768.06,-417 774.06,-417 780.06,-423 780.06,-429 780.06,-429 780.06,-451.25 780.06,-451.25 780.06,-457.25 774.06,-463.25 768.06,-463.25"/>
<text xml:space="preserve" text-anchor="middle" x="691.81" y="-449.75" font-family="Helvetica,sans-Serif" font-size="10.00" fill="#ece1d7">XactBuffer</text>
<text xml:space="preserve" text-anchor="middle" x="691.81" y="-437" font-family="Helvetica,sans-Serif" font-size="10.00" fill="#ece1d7">stamps SchemaEvent on xid;</text>
<text xml:space="preserve" text-anchor="middle" x="691.81" y="-424.25" font-family="Helvetica,sans-Serif" font-size="10.00" fill="#ece1d7">drain&#45;time interleave with tuples</text>
</g>
<!-- evtx&#45;&gt;xbuf -->
<g id="edge19" class="edge">
<title>evtx&#45;&gt;xbuf</title>
<path fill="none" stroke="#cba85e" stroke-dasharray="5,2" d="M738.67,-529.52C734.04,-522.32 729.45,-514.9 725.31,-507.75 719.01,-496.88 712.67,-484.69 707.23,-473.73"/>
<polygon fill="#cba85e" stroke="#cba85e" points="710.53,-472.49 702.99,-465.04 704.24,-475.56 710.53,-472.49"/>
<text xml:space="preserve" text-anchor="middle" x="768.06" y="-499.2" font-family="Helvetica,sans-Serif" font-size="9.00" fill="#ece1d7">stamp on xid</text>
<text xml:space="preserve" text-anchor="middle" x="768.06" y="-487.95" font-family="Helvetica,sans-Serif" font-size="9.00" fill="#ece1d7">(lsn&#45;ordered drain)</text>
</g>
<!-- ddlapp -->
<g id="node15" class="node">
<title>ddlapp</title>
<path fill="#5d4628" stroke="#6e6963" d="M944.81,-463.25C944.81,-463.25 820.81,-463.25 820.81,-463.25 814.81,-463.25 808.81,-457.25 808.81,-451.25 808.81,-451.25 808.81,-429 808.81,-429 808.81,-423 814.81,-417 820.81,-417 820.81,-417 944.81,-417 944.81,-417 950.81,-417 956.81,-423 956.81,-429 956.81,-429 956.81,-451.25 956.81,-451.25 956.81,-457.25 950.81,-463.25 944.81,-463.25"/>
<text xml:space="preserve" text-anchor="middle" x="882.81" y="-449.75" font-family="Helvetica,sans-Serif" font-size="10.00" fill="#ece1d7">DdlApplicator</text>
<text xml:space="preserve" text-anchor="middle" x="882.81" y="-437" font-family="Helvetica,sans-Serif" font-size="10.00" fill="#ece1d7">ch_ddl.rs (own CH TCP)</text>
<text xml:space="preserve" text-anchor="middle" x="882.81" y="-424.25" font-family="Helvetica,sans-Serif" font-size="10.00" fill="#ece1d7">drains at commit boundary</text>
</g>
<!-- evtx&#45;&gt;ddlapp -->
<g id="edge20" class="edge">
<title>evtx&#45;&gt;ddlapp</title>
<path fill="none" stroke="#bf8c5f" stroke-width="2" d="M808.38,-529.3C823.84,-510.99 841.3,-490.3 855.42,-473.57"/>
<polygon fill="#bf8c5f" stroke="#bf8c5f" stroke-width="2" points="858,-475.94 861.78,-466.04 852.65,-471.42 858,-475.94"/>
<text xml:space="preserve" text-anchor="middle" x="879.41" y="-493.57" font-family="Helvetica,sans-Serif" font-size="9.00" fill="#ece1d7">drain at commit</text>
</g>
<!-- legend -->
<g id="node16" class="node">
<title>legend</title>
<path fill="#6e6963" stroke="none" d="M1408.81,-372C1408.81,-372 356.81,-372 356.81,-372 350.81,-372 344.81,-366 344.81,-360 344.81,-360 344.81,-12 344.81,-12 344.81,-6 350.81,0 356.81,0 356.81,0 1408.81,0 1408.81,0 1414.81,0 1420.81,-6 1420.81,-12 1420.81,-12 1420.81,-360 1420.81,-360 1420.81,-366 1414.81,-372 1408.81,-372"/>
<polygon fill="#34302c" stroke="none" points="352.81,-345.25 352.81,-368 1412.81,-368 1412.81,-345.25 352.81,-345.25"/>
<polygon fill="none" stroke="#6e6963" points="352.81,-345.25 352.81,-368 1412.81,-368 1412.81,-345.25 352.81,-345.25"/>
<text xml:space="preserve" text-anchor="start" x="839.68" y="-354.5" font-family="Helvetica,sans-Serif" font-weight="bold" font-size="10.00" fill="#ece1d7">node fill — role</text>
<polygon fill="#4d4d28" stroke="none" points="352.81,-322.5 352.81,-345.25 681.43,-345.25 681.43,-322.5 352.81,-322.5"/>
<polygon fill="none" stroke="#6e6963" points="352.81,-322.5 352.81,-345.25 681.43,-345.25 681.43,-322.5 352.81,-322.5"/>
<polygon fill="none" stroke="#6e6963" points="681.43,-322.5 681.43,-345.25 1412.81,-345.25 1412.81,-322.5 681.43,-322.5"/>
<text xml:space="preserve" text-anchor="start" x="932.74" y="-330.5" font-family="Helvetica,sans-Serif" font-size="10.00" fill="#ece1d7">ShadowCatalog internal (cache, gates, epochs)</text>
<polygon fill="#4d4128" stroke="none" points="352.81,-299.75 352.81,-322.5 681.43,-322.5 681.43,-299.75 352.81,-299.75"/>
<polygon fill="none" stroke="#6e6963" points="352.81,-299.75 352.81,-322.5 681.43,-322.5 681.43,-299.75 352.81,-299.75"/>
<polygon fill="none" stroke="#6e6963" points="681.43,-299.75 681.43,-322.5 1412.81,-322.5 1412.81,-299.75 681.43,-299.75"/>
<text xml:space="preserve" text-anchor="start" x="968.37" y="-307.75" font-family="Helvetica,sans-Serif" font-size="10.00" fill="#ece1d7">decoder / XactBuffer (consumer)</text>
<polygon fill="#4d3a28" stroke="none" points="352.81,-277 352.81,-299.75 681.43,-299.75 681.43,-277 352.81,-277"/>
<polygon fill="none" stroke="#6e6963" points="352.81,-277 352.81,-299.75 681.43,-299.75 681.43,-277 352.81,-277"/>
<polygon fill="none" stroke="#6e6963" points="681.43,-277 681.43,-299.75 1412.81,-299.75 1412.81,-277 681.43,-277"/>
<text xml:space="preserve" text-anchor="start" x="945.87" y="-285" font-family="Helvetica,sans-Serif" font-size="10.00" fill="#ece1d7">CatalogTracker (filter, producer of bumps)</text>
<polygon fill="#5d4628" stroke="none" points="352.81,-254.25 352.81,-277 681.43,-277 681.43,-254.25 352.81,-254.25"/>
<polygon fill="none" stroke="#6e6963" points="352.81,-254.25 352.81,-277 681.43,-277 681.43,-254.25 352.81,-254.25"/>
<polygon fill="none" stroke="#6e6963" points="681.43,-254.25 681.43,-277 1412.81,-277 1412.81,-254.25 681.43,-254.25"/>
<text xml:space="preserve" text-anchor="start" x="966.49" y="-262.25" font-family="Helvetica,sans-Serif" font-size="10.00" fill="#ece1d7">DdlApplicator (CH DDL, own TCP)</text>
<polygon fill="#3d4128" stroke="none" points="352.81,-231.5 352.81,-254.25 681.43,-254.25 681.43,-231.5 352.81,-231.5"/>
<polygon fill="none" stroke="#6e6963" points="352.81,-231.5 352.81,-254.25 681.43,-254.25 681.43,-231.5 352.81,-231.5"/>
<polygon fill="none" stroke="#6e6963" points="681.43,-231.5 681.43,-254.25 1412.81,-254.25 1412.81,-231.5 681.43,-231.5"/>
<text xml:space="preserve" text-anchor="start" x="1005.87" y="-239.5" font-family="Helvetica,sans-Serif" font-size="10.00" fill="#ece1d7">shadow Postgres</text>
<polygon fill="#34302c" stroke="none" points="352.81,-208.75 352.81,-231.5 1412.81,-231.5 1412.81,-208.75 352.81,-208.75"/>
<polygon fill="none" stroke="#6e6963" points="352.81,-208.75 352.81,-231.5 1412.81,-231.5 1412.81,-208.75 352.81,-208.75"/>
<text xml:space="preserve" text-anchor="start" x="852.81" y="-218" font-family="Helvetica,sans-Serif" font-weight="bold" font-size="10.00" fill="#ece1d7">edge style</text>
<polygon fill="none" stroke="#6e6963" points="352.81,-186 352.81,-208.75 681.43,-208.75 681.43,-186 352.81,-186"/>
<text xml:space="preserve" text-anchor="start" x="511.12" y="-195.25" font-family="Helvetica,sans-Serif" font-weight="bold" font-size="10.00" fill="#cba85e">━━</text>
<polygon fill="none" stroke="#6e6963" points="681.43,-186 681.43,-208.75 1412.81,-208.75 1412.81,-186 681.43,-186"/>
<text xml:space="preserve" text-anchor="start" x="915.12" y="-194" font-family="Helvetica,sans-Serif" font-size="10.00" fill="#ece1d7">libpq query / SchemaEvent flow (solid = forward path)</text>
<polygon fill="none" stroke="#6e6963" points="352.81,-163.25 352.81,-186 681.43,-186 681.43,-163.25 352.81,-163.25"/>
<text xml:space="preserve" text-anchor="start" x="511.12" y="-172.5" font-family="Helvetica,sans-Serif" font-weight="bold" font-size="10.00" fill="#cba85e">┄┄</text>
<polygon fill="none" stroke="#6e6963" points="681.43,-163.25 681.43,-186 1412.81,-186 1412.81,-163.25 681.43,-163.25"/>
<text xml:space="preserve" text-anchor="start" x="952.62" y="-171.25" font-family="Helvetica,sans-Serif" font-size="10.00" fill="#ece1d7">invalidation / cache feedback (dashed)</text>
<polygon fill="none" stroke="#6e6963" points="352.81,-140.5 352.81,-163.25 681.43,-163.25 681.43,-140.5 352.81,-140.5"/>
<text xml:space="preserve" text-anchor="start" x="511.12" y="-149.75" font-family="Helvetica,sans-Serif" font-weight="bold" font-size="10.00" fill="#bf8c5f">━━</text>
<polygon fill="none" stroke="#6e6963" points="681.43,-140.5 681.43,-163.25 1412.81,-163.25 1412.81,-140.5 681.43,-140.5"/>
<text xml:space="preserve" text-anchor="start" x="942.49" y="-148.5" font-family="Helvetica,sans-Serif" font-size="10.00" fill="#ece1d7">CH Native DDL (off hot path, separate TCP)</text>
<polygon fill="#34302c" stroke="none" points="352.81,-117.75 352.81,-140.5 1412.81,-140.5 1412.81,-117.75 352.81,-117.75"/>
<polygon fill="none" stroke="#6e6963" points="352.81,-117.75 352.81,-140.5 1412.81,-140.5 1412.81,-117.75 352.81,-117.75"/>
<text xml:space="preserve" text-anchor="start" x="819.81" y="-127" font-family="Helvetica,sans-Serif" font-weight="bold" font-size="10.00" fill="#ece1d7">SchemaEvent variants</text>
<polygon fill="none" stroke="#6e6963" points="352.81,-95 352.81,-117.75 681.43,-117.75 681.43,-95 352.81,-95"/>
<text xml:space="preserve" text-anchor="start" x="498.74" y="-104.25" font-family="Helvetica,sans-Serif" font-weight="bold" font-size="10.00" fill="#ece1d7">Added</text>
<polygon fill="none" stroke="#6e6963" points="681.43,-95 681.43,-117.75 1412.81,-117.75 1412.81,-95 681.43,-95"/>
<text xml:space="preserve" text-anchor="start" x="863.74" y="-103" font-family="Helvetica,sans-Serif" font-size="10.00" fill="#ece1d7">first sight of oid → CREATE TABLE (post&#45;DROP re&#45;create, seed_from_source)</text>
<polygon fill="none" stroke="#6e6963" points="352.81,-72.25 352.81,-95 681.43,-95 681.43,-72.25 352.81,-72.25"/>
<text xml:space="preserve" text-anchor="start" x="492.37" y="-81.5" font-family="Helvetica,sans-Serif" font-weight="bold" font-size="10.00" fill="#ece1d7">Changed</text>
<polygon fill="none" stroke="#6e6963" points="681.43,-72.25 681.43,-95 1412.81,-95 1412.81,-72.25 681.43,-72.25"/>
<text xml:space="preserve" text-anchor="start" x="820.99" y="-80.25" font-family="Helvetica,sans-Serif" font-size="10.00" fill="#ece1d7">refetched shape ≠ prev_known: ADD/DROP/RENAME COLUMN, type widen (rejected for now)</text>
<polygon fill="none" stroke="#6e6963" points="352.81,-49.5 352.81,-72.25 681.43,-72.25 681.43,-49.5 352.81,-49.5"/>
<text xml:space="preserve" text-anchor="start" x="492.37" y="-58.75" font-family="Helvetica,sans-Serif" font-weight="bold" font-size="10.00" fill="#ece1d7">Dropped</text>
<polygon fill="none" stroke="#6e6963" points="681.43,-49.5 681.43,-72.25 1412.81,-72.25 1412.81,-49.5 681.43,-49.5"/>
<text xml:space="preserve" text-anchor="start" x="861.49" y="-57.5" font-family="Helvetica,sans-Serif" font-size="10.00" fill="#ece1d7">emit_dropped (pg_class heap_delete) or sweep_dropped poll → DROP TABLE</text>
<polygon fill="#34302c" stroke="none" points="352.81,-26.75 352.81,-49.5 1412.81,-49.5 1412.81,-26.75 352.81,-26.75"/>
<polygon fill="none" stroke="#6e6963" points="352.81,-26.75 352.81,-49.5 1412.81,-49.5 1412.81,-26.75 352.81,-26.75"/>
<text xml:space="preserve" text-anchor="start" x="824.68" y="-36" font-family="Helvetica,sans-Serif" font-weight="bold" font-size="10.00" fill="#ece1d7">generation invariant</text>
<polygon fill="none" stroke="#6e6963" points="352.81,-4 352.81,-26.75 1412.81,-26.75 1412.81,-4 352.81,-4"/>
<text xml:space="preserve" text-anchor="start" x="357.81" y="-12" font-family="Helvetica,sans-Serif" font-size="10.00" fill="#ece1d7">one DDL → one bump → every cache entry stale on next access. Coarse&#45;fire over&#45;invalidates (hint&#45;bit / autovac noise count) but never under&#45;invalidates — schema correctness is the floor, refetch cost the negotiable.</text>
</g>
<!-- ddlapp&#45;&gt;legend -->
</g>
</svg>
