<?xml version="1.0" encoding="UTF-8" standalone="no"?>
<!DOCTYPE svg PUBLIC "-//W3C//DTD SVG 1.1//EN"
 "http://www.w3.org/Graphics/SVG/1.1/DTD/svg11.dtd">
<!-- Generated by graphviz version 15.1.0 (20260618.0150)
 -->
<!-- Title: shadow_comm Pages: 1 -->
<svg width="1059pt" height="972pt"
 viewBox="0.00 0.00 1059.00 972.00" xmlns="http://www.w3.org/2000/svg" xmlns:xlink="http://www.w3.org/1999/xlink">
<g id="graph0" class="graph" transform="scale(1 1) rotate(0) translate(4 968)">
<title>shadow_comm</title>
<polygon fill="#272623" stroke="none" points="-4,4 -4,-968 1055.12,-968 1055.12,4 -4,4"/>
<text xml:space="preserve" text-anchor="middle" x="525.56" y="-946.7" font-family="Helvetica,sans-Serif" font-size="14.00" fill="#ece1d7">walshadow ↔ shadow PG — three communication channels</text>
<g id="clust1" class="cluster">
<title>cluster_w</title>
<polygon fill="#34302c" stroke="#a1a9cc" points="135.5,-686.75 135.5,-930.75 913.5,-930.75 913.5,-686.75 135.5,-686.75"/>
<text xml:space="preserve" text-anchor="middle" x="524.5" y="-913.45" font-family="Helvetica,sans-Serif" font-size="14.00" fill="#ece1d7">walshadow&#45;stream daemon</text>
</g>
<g id="clust2" class="cluster">
<title>cluster_s</title>
<polygon fill="#34302c" stroke="#869461" points="172.5,-391.5 172.5,-612.5 680.5,-612.5 680.5,-391.5 172.5,-391.5"/>
<text xml:space="preserve" text-anchor="middle" x="426.5" y="-595.2" font-family="Helvetica,sans-Serif" font-size="14.00" fill="#ece1d7">shadow PG (continuous recovery)</text>
</g>
<!-- catalog -->
<g id="node1" class="node">
<title>catalog</title>
<path fill="#3d3d54" stroke="#6e6963" d="M449.12,-753.75C449.12,-753.75 343.88,-753.75 343.88,-753.75 337.88,-753.75 331.88,-747.75 331.88,-741.75 331.88,-741.75 331.88,-706.75 331.88,-706.75 331.88,-700.75 337.88,-694.75 343.88,-694.75 343.88,-694.75 449.12,-694.75 449.12,-694.75 455.12,-694.75 461.12,-700.75 461.12,-706.75 461.12,-706.75 461.12,-741.75 461.12,-741.75 461.12,-747.75 455.12,-753.75 449.12,-753.75"/>
<text xml:space="preserve" text-anchor="middle" x="396.5" y="-740.25" font-family="Helvetica,sans-Serif" font-size="10.00" fill="#ece1d7">ShadowCatalog</text>
<text xml:space="preserve" text-anchor="middle" x="396.5" y="-727.5" font-family="Helvetica,sans-Serif" font-size="10.00" fill="#ece1d7">RelDescriptor LRU</text>
<text xml:space="preserve" text-anchor="middle" x="396.5" y="-714.75" font-family="Helvetica,sans-Serif" font-size="10.00" fill="#ece1d7">+ tokio_postgres client</text>
<text xml:space="preserve" text-anchor="middle" x="396.5" y="-702" font-family="Helvetica,sans-Serif" font-size="10.00" fill="#ece1d7">+ schema_event_tx</text>
</g>
<!-- shadcat -->
<g id="node10" class="node">
<title>shadcat</title>
<path fill="#3d4128" stroke="#6e6963" d="M453.25,-579.25C453.25,-579.25 339.75,-579.25 339.75,-579.25 333.75,-579.25 327.75,-573.25 327.75,-567.25 327.75,-567.25 327.75,-545 327.75,-545 327.75,-539 333.75,-533 339.75,-533 339.75,-533 453.25,-533 453.25,-533 459.25,-533 465.25,-539 465.25,-545 465.25,-545 465.25,-567.25 465.25,-567.25 465.25,-573.25 459.25,-579.25 453.25,-579.25"/>
<text xml:space="preserve" text-anchor="middle" x="396.5" y="-565.75" font-family="Helvetica,sans-Serif" font-size="10.00" fill="#ece1d7">pg_class /</text>
<text xml:space="preserve" text-anchor="middle" x="396.5" y="-553" font-family="Helvetica,sans-Serif" font-size="10.00" fill="#ece1d7">pg_attribute /</text>
<text xml:space="preserve" text-anchor="middle" x="396.5" y="-540.25" font-family="Helvetica,sans-Serif" font-size="10.00" fill="#ece1d7">pg_type / pg_namespace</text>
</g>
<!-- catalog&#45;&gt;shadcat -->
<g id="edge1" class="edge">
<title>catalog&#45;&gt;shadcat</title>
<path fill="none" stroke="#cba85e" stroke-width="2" d="M396.5,-682.1C396.5,-654.53 396.5,-618.61 396.5,-592.36"/>
<polygon fill="#cba85e" stroke="#cba85e" stroke-width="2" points="396.5,-691.88 392,-681.88 396,-689.31 396,-681.88 396.5,-681.88 397,-681.88 397,-689.31 401,-681.88 396.5,-691.88"/>
<polygon fill="#cba85e" stroke="#cba85e" stroke-width="2" points="400,-592.64 396.5,-582.64 393,-592.64 400,-592.64"/>
<text xml:space="preserve" text-anchor="middle" x="442.62" y="-649.25" font-family="Helvetica,sans-Serif" font-size="10.00" fill="#ece1d7">① libpq SELECT</text>
<text xml:space="preserve" text-anchor="middle" x="442.62" y="-636.5" font-family="Helvetica,sans-Serif" font-size="10.00" fill="#ece1d7">(cache fill on miss)</text>
<text xml:space="preserve" text-anchor="middle" x="442.62" y="-623.75" font-family="Helvetica,sans-Serif" font-size="10.00" fill="#ece1d7">port=55434</text>
</g>
<!-- inval -->
<g id="node2" class="node">
<title>inval</title>
<path fill="#3d3d54" stroke="#6e6963" d="M462.38,-892.38C462.38,-892.38 358.62,-892.38 358.62,-892.38 352.62,-892.38 346.62,-886.38 346.62,-880.38 346.62,-880.38 346.62,-868.38 346.62,-868.38 346.62,-862.38 352.62,-856.38 358.62,-856.38 358.62,-856.38 462.38,-856.38 462.38,-856.38 468.38,-856.38 474.38,-862.38 474.38,-868.38 474.38,-868.38 474.38,-880.38 474.38,-880.38 474.38,-886.38 468.38,-892.38 462.38,-892.38"/>
<text xml:space="preserve" text-anchor="middle" x="410.5" y="-877.62" font-family="Helvetica,sans-Serif" font-size="10.00" fill="#ece1d7">invalidation_drain task</text>
<text xml:space="preserve" text-anchor="middle" x="410.5" y="-864.88" font-family="Helvetica,sans-Serif" font-size="10.00" fill="#ece1d7">generation counter</text>
</g>
<!-- inval&#45;&gt;catalog -->
<g id="edge11" class="edge">
<title>inval&#45;&gt;catalog</title>
<path fill="none" stroke="#cba85e" stroke-dasharray="5,2" d="M408.87,-856.09C406.78,-834 403.1,-795.04 400.29,-765.37"/>
<polygon fill="#cba85e" stroke="#cba85e" points="403.79,-765.23 399.37,-755.61 396.83,-765.89 403.79,-765.23"/>
<text xml:space="preserve" text-anchor="middle" x="449.75" y="-805.75" font-family="Helvetica,sans-Serif" font-size="10.00" fill="#ece1d7">bump generation</text>
<text xml:space="preserve" text-anchor="middle" x="449.75" y="-793" font-family="Helvetica,sans-Serif" font-size="10.00" fill="#ece1d7">(force cache miss)</text>
</g>
<!-- sender -->
<g id="node3" class="node">
<title>sender</title>
<path fill="#4d3340" stroke="#6e6963" d="M680,-897.5C680,-897.5 529,-897.5 529,-897.5 523,-897.5 517,-891.5 517,-885.5 517,-885.5 517,-863.25 517,-863.25 517,-857.25 523,-851.25 529,-851.25 529,-851.25 680,-851.25 680,-851.25 686,-851.25 692,-857.25 692,-863.25 692,-863.25 692,-885.5 692,-885.5 692,-891.5 686,-897.5 680,-897.5"/>
<text xml:space="preserve" text-anchor="middle" x="604.5" y="-884" font-family="Helvetica,sans-Serif" font-size="10.00" fill="#ece1d7">ShadowStreamSink + walsender</text>
<text xml:space="preserve" text-anchor="middle" x="604.5" y="-871.25" font-family="Helvetica,sans-Serif" font-size="10.00" fill="#ece1d7">listener (unix / TCP)</text>
<text xml:space="preserve" text-anchor="middle" x="604.5" y="-858.5" font-family="Helvetica,sans-Serif" font-size="10.00" fill="#ece1d7">frame encoder</text>
</g>
<!-- walrecv -->
<g id="node8" class="node">
<title>walrecv</title>
<path fill="#3d4128" stroke="#6e6963" d="M660.75,-579.25C660.75,-579.25 520.25,-579.25 520.25,-579.25 514.25,-579.25 508.25,-573.25 508.25,-567.25 508.25,-567.25 508.25,-545 508.25,-545 508.25,-539 514.25,-533 520.25,-533 520.25,-533 660.75,-533 660.75,-533 666.75,-533 672.75,-539 672.75,-545 672.75,-545 672.75,-567.25 672.75,-567.25 672.75,-573.25 666.75,-579.25 660.75,-579.25"/>
<text xml:space="preserve" text-anchor="middle" x="590.5" y="-565.75" font-family="Helvetica,sans-Serif" font-size="10.00" fill="#ece1d7">walreceiver</text>
<text xml:space="preserve" text-anchor="middle" x="590.5" y="-553" font-family="Helvetica,sans-Serif" font-size="10.00" fill="#ece1d7">primary_conninfo=walshadow</text>
<text xml:space="preserve" text-anchor="middle" x="590.5" y="-540.25" font-family="Helvetica,sans-Serif" font-size="10.00" fill="#ece1d7">flush/apply LSN</text>
</g>
<!-- sender&#45;&gt;walrecv -->
<g id="edge2" class="edge">
<title>sender&#45;&gt;walrecv</title>
<path fill="none" stroke="#bd8183" stroke-width="3" d="M617.35,-850.89C629.93,-827.5 648.23,-789.36 655.5,-753.75 661.46,-724.57 662.36,-715.73 655.5,-686.75 647.4,-652.54 628.8,-617.08 613.56,-591.91"/>
<polygon fill="#bd8183" stroke="#bd8183" stroke-width="3" points="616.63,-590.23 608.37,-583.6 610.7,-593.94 616.63,-590.23"/>
<text xml:space="preserve" text-anchor="middle" x="734.19" y="-733.88" font-family="Helvetica,sans-Serif" font-size="10.00" fill="#ece1d7">② &#39;w&#39; XLogData frames</text>
<text xml:space="preserve" text-anchor="middle" x="734.19" y="-721.12" font-family="Helvetica,sans-Serif" font-size="10.00" fill="#ece1d7">record cadence (ms)</text>
<text xml:space="preserve" text-anchor="middle" x="734.19" y="-708.38" font-family="Helvetica,sans-Serif" font-size="10.00" fill="#ece1d7">streaming&#45;replication protocol</text>
</g>
<!-- segwrt -->
<g id="node4" class="node">
<title>segwrt</title>
<path fill="#4d3850" stroke="#6e6963" d="M291.12,-892.38C291.12,-892.38 155.88,-892.38 155.88,-892.38 149.88,-892.38 143.88,-886.38 143.88,-880.38 143.88,-880.38 143.88,-868.38 143.88,-868.38 143.88,-862.38 149.88,-856.38 155.88,-856.38 155.88,-856.38 291.12,-856.38 291.12,-856.38 297.12,-856.38 303.12,-862.38 303.12,-868.38 303.12,-868.38 303.12,-880.38 303.12,-880.38 303.12,-886.38 297.12,-892.38 291.12,-892.38"/>
<text xml:space="preserve" text-anchor="middle" x="223.5" y="-877.62" font-family="Helvetica,sans-Serif" font-size="10.00" fill="#ece1d7">DirSegmentSink</text>
<text xml:space="preserve" text-anchor="middle" x="223.5" y="-864.88" font-family="Helvetica,sans-Serif" font-size="10.00" fill="#ece1d7">filtered segments + manifest</text>
</g>
<!-- outdir -->
<g id="node6" class="node">
<title>outdir</title>
<polygon fill="#5a3d5a" stroke="#6e6963" points="121,-747.38 0,-747.38 0,-701.12 127,-701.12 127,-741.38 121,-747.38"/>
<polyline fill="none" stroke="#6e6963" points="121,-747.38 121,-741.38"/>
<polyline fill="none" stroke="#6e6963" points="127,-741.38 121,-741.38"/>
<text xml:space="preserve" text-anchor="middle" x="63.5" y="-733.88" font-family="Helvetica,sans-Serif" font-size="10.00" fill="#ece1d7">out/&lt;seg&gt;</text>
<text xml:space="preserve" text-anchor="middle" x="63.5" y="-721.12" font-family="Helvetica,sans-Serif" font-size="10.00" fill="#ece1d7">16 MiB filtered</text>
<text xml:space="preserve" text-anchor="middle" x="63.5" y="-708.38" font-family="Helvetica,sans-Serif" font-size="10.00" fill="#ece1d7">segments + manifests</text>
</g>
<!-- segwrt&#45;&gt;outdir -->
<g id="edge4" class="edge">
<title>segwrt&#45;&gt;outdir</title>
<path fill="none" stroke="#6e6963" d="M204.83,-856.09C178.2,-831.43 128.89,-785.79 96.14,-755.46"/>
<polygon fill="#6e6963" stroke="#6e6963" points="98.61,-752.98 88.89,-748.76 93.85,-758.12 98.61,-752.98"/>
<text xml:space="preserve" text-anchor="middle" x="222.71" y="-799.38" font-family="Helvetica,sans-Serif" font-size="10.00" fill="#ece1d7">fsync segment + manifest</text>
</g>
<!-- bootstrap -->
<g id="node5" class="node">
<title>bootstrap</title>
<path fill="#4d4128" stroke="#6e6963" d="M893.75,-897.5C893.75,-897.5 747.25,-897.5 747.25,-897.5 741.25,-897.5 735.25,-891.5 735.25,-885.5 735.25,-885.5 735.25,-863.25 735.25,-863.25 735.25,-857.25 741.25,-851.25 747.25,-851.25 747.25,-851.25 893.75,-851.25 893.75,-851.25 899.75,-851.25 905.75,-857.25 905.75,-863.25 905.75,-863.25 905.75,-885.5 905.75,-885.5 905.75,-891.5 899.75,-897.5 893.75,-897.5"/>
<text xml:space="preserve" text-anchor="middle" x="820.5" y="-884" font-family="Helvetica,sans-Serif" font-size="10.00" fill="#ece1d7">Bootstrap orchestrator</text>
<text xml:space="preserve" text-anchor="middle" x="820.5" y="-871.25" font-family="Helvetica,sans-Serif" font-size="10.00" fill="#ece1d7">spawn_greenfield_bootstrap</text>
<text xml:space="preserve" text-anchor="middle" x="820.5" y="-858.5" font-family="Helvetica,sans-Serif" font-size="10.00" fill="#ece1d7">(catalog seed + BASE_BACKUP)</text>
</g>
<!-- dataok -->
<g id="node7" class="node">
<title>dataok</title>
<polygon fill="#5a3d5a" stroke="#6e6963" points="1045.12,-747.38 921.88,-747.38 921.88,-701.12 1051.12,-701.12 1051.12,-741.38 1045.12,-747.38"/>
<polyline fill="none" stroke="#6e6963" points="1045.12,-747.38 1045.12,-741.38"/>
<polyline fill="none" stroke="#6e6963" points="1051.12,-741.38 1045.12,-741.38"/>
<text xml:space="preserve" text-anchor="middle" x="986.5" y="-733.88" font-family="Helvetica,sans-Serif" font-size="10.00" fill="#ece1d7">shadow data dir</text>
<text xml:space="preserve" text-anchor="middle" x="986.5" y="-721.12" font-family="Helvetica,sans-Serif" font-size="10.00" fill="#ece1d7">populated by bootstrap</text>
<text xml:space="preserve" text-anchor="middle" x="986.5" y="-708.38" font-family="Helvetica,sans-Serif" font-size="10.00" fill="#ece1d7">(catalog files landed)</text>
</g>
<!-- bootstrap&#45;&gt;dataok -->
<g id="edge8" class="edge">
<title>bootstrap&#45;&gt;dataok</title>
<path fill="none" stroke="#bf8c5f" stroke-width="2" stroke-dasharray="5,2" d="M845.71,-850.88C874.07,-825.57 920.29,-784.33 951.99,-756.04"/>
<polygon fill="#bf8c5f" stroke="#bf8c5f" stroke-width="2" points="953.93,-759 959.06,-749.73 949.27,-753.78 953.93,-759"/>
<text xml:space="preserve" text-anchor="middle" x="970.44" y="-805.75" font-family="Helvetica,sans-Serif" font-size="10.00" fill="#ece1d7">④ catalog files</text>
<text xml:space="preserve" text-anchor="middle" x="970.44" y="-793" font-family="Helvetica,sans-Serif" font-size="10.00" fill="#ece1d7">(BASE_BACKUP landed)</text>
</g>
<!-- restorer -->
<g id="node9" class="node">
<title>restorer</title>
<path fill="#3d4128" stroke="#6e6963" d="M272.75,-574.12C272.75,-574.12 192.25,-574.12 192.25,-574.12 186.25,-574.12 180.25,-568.12 180.25,-562.12 180.25,-562.12 180.25,-550.12 180.25,-550.12 180.25,-544.12 186.25,-538.12 192.25,-538.12 192.25,-538.12 272.75,-538.12 272.75,-538.12 278.75,-538.12 284.75,-544.12 284.75,-550.12 284.75,-550.12 284.75,-562.12 284.75,-562.12 284.75,-568.12 278.75,-574.12 272.75,-574.12"/>
<text xml:space="preserve" text-anchor="middle" x="232.5" y="-559.38" font-family="Helvetica,sans-Serif" font-size="10.00" fill="#ece1d7">restore_command</text>
<text xml:space="preserve" text-anchor="middle" x="232.5" y="-546.62" font-family="Helvetica,sans-Serif" font-size="10.00" fill="#ece1d7">cp out/%f %p</text>
</g>
<!-- outdir&#45;&gt;restorer -->
<g id="edge5" class="edge">
<title>outdir&#45;&gt;restorer</title>
<path fill="none" stroke="#6e6963" stroke-width="2" d="M58.78,-700.88C55.36,-678.35 53.92,-643.69 71,-620.5 93.59,-589.83 133.28,-574 167.65,-565.82"/>
<polygon fill="#6e6963" stroke="#6e6963" stroke-width="2" points="168.04,-569.32 177.08,-563.79 166.56,-562.48 168.04,-569.32"/>
<text xml:space="preserve" text-anchor="middle" x="134.75" y="-649.25" font-family="Helvetica,sans-Serif" font-size="10.00" fill="#ece1d7">③ filesystem read</text>
<text xml:space="preserve" text-anchor="middle" x="134.75" y="-636.5" font-family="Helvetica,sans-Serif" font-size="10.00" fill="#ece1d7">on walreceiver disconnect</text>
<text xml:space="preserve" text-anchor="middle" x="134.75" y="-623.75" font-family="Helvetica,sans-Serif" font-size="10.00" fill="#ece1d7">or end&#45;of&#45;WAL</text>
</g>
<!-- pglog -->
<g id="node11" class="node">
<title>pglog</title>
<path fill="#3d4128" stroke="#6e6963" d="M565.88,-435.5C565.88,-435.5 453.12,-435.5 453.12,-435.5 447.12,-435.5 441.12,-429.5 441.12,-423.5 441.12,-423.5 441.12,-411.5 441.12,-411.5 441.12,-405.5 447.12,-399.5 453.12,-399.5 453.12,-399.5 565.88,-399.5 565.88,-399.5 571.88,-399.5 577.88,-405.5 577.88,-411.5 577.88,-411.5 577.88,-423.5 577.88,-423.5 577.88,-429.5 571.88,-435.5 565.88,-435.5"/>
<text xml:space="preserve" text-anchor="middle" x="509.5" y="-420.75" font-family="Helvetica,sans-Serif" font-size="10.00" fill="#ece1d7">redo apply</text>
<text xml:space="preserve" text-anchor="middle" x="509.5" y="-408" font-family="Helvetica,sans-Serif" font-size="10.00" fill="#ece1d7">pg_last_wal_replay_lsn()</text>
</g>
<!-- dataok&#45;&gt;pglog -->
<g id="edge9" class="edge">
<title>dataok&#45;&gt;pglog</title>
<path fill="none" stroke="#bf8c5f" stroke-dasharray="5,2" d="M961.56,-700.69C907.87,-653.04 775.96,-540.87 649.5,-471.5 626.78,-459.03 600.51,-448.24 576.91,-439.7"/>
<polygon fill="#bf8c5f" stroke="#bf8c5f" points="578.3,-436.48 567.71,-436.45 575.97,-443.08 578.3,-436.48"/>
<text xml:space="preserve" text-anchor="middle" x="880.67" y="-553" font-family="Helvetica,sans-Serif" font-size="10.00" fill="#ece1d7">initial state</text>
</g>
<!-- walrecv&#45;&gt;catalog -->
<g id="edge12" class="edge">
<title>walrecv&#45;&gt;catalog</title>
<path fill="none" stroke="#a1a9cc" stroke-dasharray="1,5" d="M557.45,-579.66C537.77,-591.79 511.77,-605.63 486.5,-612.5 465.79,-618.13 308.36,-605.01 293.5,-620.5 271.47,-643.46 296.06,-668.7 326.73,-688.42"/>
<polygon fill="#a1a9cc" stroke="#a1a9cc" points="324.75,-691.32 335.1,-693.56 328.41,-685.35 324.75,-691.32"/>
<text xml:space="preserve" text-anchor="middle" x="340" y="-649.25" font-family="Helvetica,sans-Serif" font-size="10.00" fill="#ece1d7">apply_lsn drives</text>
<text xml:space="preserve" text-anchor="middle" x="340" y="-636.5" font-family="Helvetica,sans-Serif" font-size="10.00" fill="#ece1d7">relation_at gate</text>
<text xml:space="preserve" text-anchor="middle" x="340" y="-623.75" font-family="Helvetica,sans-Serif" font-size="10.00" fill="#ece1d7">(unblocks decoder)</text>
</g>
<!-- walrecv&#45;&gt;sender -->
<g id="edge3" class="edge">
<title>walrecv&#45;&gt;sender</title>
<path fill="none" stroke="#bd8183" stroke-dasharray="5,2" d="M579.06,-579.56C561.9,-616.09 532.94,-690.69 547.25,-753.75 554.4,-785.24 570.9,-818.13 584.35,-841.43"/>
<polygon fill="#bd8183" stroke="#bd8183" points="581.21,-842.99 589.32,-849.81 587.23,-839.43 581.21,-842.99"/>
<text xml:space="preserve" text-anchor="middle" x="596.38" y="-727.5" font-family="Helvetica,sans-Serif" font-size="10.00" fill="#ece1d7">② &#39;r&#39; standby status</text>
<text xml:space="preserve" text-anchor="middle" x="596.38" y="-714.75" font-family="Helvetica,sans-Serif" font-size="10.00" fill="#ece1d7">flush_lsn / apply_lsn</text>
</g>
<!-- walrecv&#45;&gt;pglog -->
<g id="edge7" class="edge">
<title>walrecv&#45;&gt;pglog</title>
<path fill="none" stroke="#bd8183" d="M578.28,-532.56C569,-515.61 555.77,-491.91 543.5,-471.5 538.29,-462.84 532.42,-453.53 527.03,-445.16"/>
<polygon fill="#bd8183" stroke="#bd8183" points="529.98,-443.28 521.6,-436.8 524.11,-447.09 529.98,-443.28"/>
<text xml:space="preserve" text-anchor="middle" x="599.02" y="-481.12" font-family="Helvetica,sans-Serif" font-size="10.00" fill="#ece1d7">apply &#39;w&#39; frames</text>
</g>
<!-- restorer&#45;&gt;pglog -->
<g id="edge6" class="edge">
<title>restorer&#45;&gt;pglog</title>
<path fill="none" stroke="#6e6963" d="M249.01,-537.65C267.69,-518.83 299.81,-489.21 332.75,-471.5 362.79,-455.35 398.4,-443.47 429.77,-435.1"/>
<polygon fill="#6e6963" stroke="#6e6963" points="430.4,-438.55 439.2,-432.66 428.65,-431.77 430.4,-438.55"/>
<text xml:space="preserve" text-anchor="middle" x="369.12" y="-481.12" font-family="Helvetica,sans-Serif" font-size="10.00" fill="#ece1d7">apply segment</text>
</g>
<!-- pglog&#45;&gt;walrecv -->
<g id="edge10" class="edge">
<title>pglog&#45;&gt;walrecv</title>
<path fill="none" stroke="#c1a78e" stroke-dasharray="5,2" d="M464.52,-435.95C434.22,-450.41 402.72,-472.5 420.25,-497 430.25,-510.99 463.15,-523.69 497.39,-533.64"/>
<polygon fill="#c1a78e" stroke="#c1a78e" points="496.01,-536.88 506.58,-536.22 497.9,-530.14 496.01,-536.88"/>
<text xml:space="preserve" text-anchor="middle" x="476.88" y="-487.5" font-family="Helvetica,sans-Serif" font-size="10.00" fill="#ece1d7">advance</text>
<text xml:space="preserve" text-anchor="middle" x="476.88" y="-474.75" font-family="Helvetica,sans-Serif" font-size="10.00" fill="#ece1d7">pg_last_wal_replay_lsn</text>
</g>
<!-- legend -->
<g id="node12" class="node">
<title>legend</title>
<path fill="#6e6963" stroke="none" d="M879.88,-326.5C879.88,-326.5 139.12,-326.5 139.12,-326.5 133.12,-326.5 127.12,-320.5 127.12,-314.5 127.12,-314.5 127.12,-12 127.12,-12 127.12,-6 133.12,0 139.12,0 139.12,0 879.88,0 879.88,0 885.88,0 891.88,-6 891.88,-12 891.88,-12 891.88,-314.5 891.88,-314.5 891.88,-320.5 885.88,-326.5 879.88,-326.5"/>
<polygon fill="#34302c" stroke="none" points="135.12,-299.75 135.12,-322.5 883.88,-322.5 883.88,-299.75 135.12,-299.75"/>
<polygon fill="none" stroke="#6e6963" points="135.12,-299.75 135.12,-322.5 883.88,-322.5 883.88,-299.75 135.12,-299.75"/>
<text xml:space="preserve" text-anchor="start" x="448" y="-309" font-family="Helvetica,sans-Serif" font-weight="bold" font-size="10.00" fill="#ece1d7">channels (edge color)</text>
<polygon fill="none" stroke="#6e6963" points="135.12,-277 135.12,-299.75 382,-299.75 382,-277 135.12,-277"/>
<text xml:space="preserve" text-anchor="start" x="246.56" y="-286.25" font-family="Helvetica,sans-Serif" font-weight="bold" font-size="10.00" fill="#cba85e">① ━━</text>
<polygon fill="none" stroke="#6e6963" points="382,-277 382,-299.75 883.88,-299.75 883.88,-277 382,-277"/>
<text xml:space="preserve" text-anchor="start" x="532.81" y="-285" font-family="Helvetica,sans-Serif" font-size="10.00" fill="#ece1d7">libpq queries (catalog cache fill, on miss)</text>
<polygon fill="none" stroke="#6e6963" points="135.12,-254.25 135.12,-277 382,-277 382,-254.25 135.12,-254.25"/>
<text xml:space="preserve" text-anchor="start" x="246.56" y="-263.5" font-family="Helvetica,sans-Serif" font-weight="bold" font-size="10.00" fill="#bd8183">② ━━</text>
<polygon fill="none" stroke="#6e6963" points="382,-254.25 382,-277 883.88,-277 883.88,-254.25 382,-254.25"/>
<text xml:space="preserve" text-anchor="start" x="497.94" y="-262.25" font-family="Helvetica,sans-Serif" font-size="10.00" fill="#ece1d7">walsender wire — &#39;w&#39; XLogData @ record cadence (ms)</text>
<polygon fill="none" stroke="#6e6963" points="135.12,-231.5 135.12,-254.25 382,-254.25 382,-231.5 135.12,-231.5"/>
<text xml:space="preserve" text-anchor="start" x="246.56" y="-240.75" font-family="Helvetica,sans-Serif" font-weight="bold" font-size="10.00" fill="#6e6963">③ ━━</text>
<polygon fill="none" stroke="#6e6963" points="382,-231.5 382,-254.25 883.88,-254.25 883.88,-231.5 382,-231.5"/>
<text xml:space="preserve" text-anchor="start" x="493.44" y="-239.5" font-family="Helvetica,sans-Serif" font-size="10.00" fill="#ece1d7">restore_command — archive fallback (segment cadence)</text>
<polygon fill="none" stroke="#6e6963" points="135.12,-208.75 135.12,-231.5 382,-231.5 382,-208.75 135.12,-208.75"/>
<text xml:space="preserve" text-anchor="start" x="246.56" y="-218" font-family="Helvetica,sans-Serif" font-weight="bold" font-size="10.00" fill="#bf8c5f">④ ┄┄</text>
<polygon fill="none" stroke="#6e6963" points="382,-208.75 382,-231.5 883.88,-231.5 883.88,-208.75 382,-208.75"/>
<text xml:space="preserve" text-anchor="start" x="531.69" y="-216.75" font-family="Helvetica,sans-Serif" font-size="10.00" fill="#ece1d7">BASE_BACKUP land (one&#45;shot, greenfield)</text>
<polygon fill="none" stroke="#6e6963" points="135.12,-186 135.12,-208.75 382,-208.75 382,-186 135.12,-186"/>
<text xml:space="preserve" text-anchor="start" x="252.94" y="-195.25" font-family="Helvetica,sans-Serif" font-weight="bold" font-size="10.00" fill="#a1a9cc">···</text>
<polygon fill="none" stroke="#6e6963" points="382,-186 382,-208.75 883.88,-208.75 883.88,-186 382,-186"/>
<text xml:space="preserve" text-anchor="start" x="509.56" y="-194" font-family="Helvetica,sans-Serif" font-size="10.00" fill="#ece1d7">catalog gate dependency (apply_lsn → relation_at)</text>
<polygon fill="#34302c" stroke="none" points="135.12,-163.25 135.12,-186 883.88,-186 883.88,-163.25 135.12,-163.25"/>
<polygon fill="none" stroke="#6e6963" points="135.12,-163.25 135.12,-186 883.88,-186 883.88,-163.25 135.12,-163.25"/>
<text xml:space="preserve" text-anchor="start" x="454" y="-172.5" font-family="Helvetica,sans-Serif" font-weight="bold" font-size="10.00" fill="#ece1d7">derived flow (off ①)</text>
<polygon fill="none" stroke="#6e6963" points="135.12,-140.5 135.12,-163.25 883.88,-163.25 883.88,-140.5 135.12,-140.5"/>
<text xml:space="preserve" text-anchor="start" x="140.12" y="-148.5" font-family="Helvetica,sans-Serif" font-size="10.00" fill="#ece1d7">Schema event flow: cache miss → schema diff → SchemaEvent → DdlApplicator → CH ALTER/CREATE/DROP. Stays inside walshadow; CH wire not drawn.</text>
<polygon fill="#34302c" stroke="none" points="135.12,-117.75 135.12,-140.5 883.88,-140.5 883.88,-117.75 135.12,-117.75"/>
<polygon fill="none" stroke="#6e6963" points="135.12,-117.75 135.12,-140.5 883.88,-140.5 883.88,-117.75 135.12,-117.75"/>
<text xml:space="preserve" text-anchor="start" x="486.25" y="-127" font-family="Helvetica,sans-Serif" font-weight="bold" font-size="10.00" fill="#ece1d7">node fill</text>
<polygon fill="#3d3d54" stroke="none" points="135.12,-95 135.12,-117.75 382,-117.75 382,-95 135.12,-95"/>
<polygon fill="none" stroke="#6e6963" points="135.12,-95 135.12,-117.75 382,-117.75 382,-95 135.12,-95"/>
<polygon fill="none" stroke="#6e6963" points="382,-95 382,-117.75 883.88,-117.75 883.88,-95 382,-95"/>
<text xml:space="preserve" text-anchor="start" x="527.56" y="-103" font-family="Helvetica,sans-Serif" font-size="10.00" fill="#ece1d7">walshadow — ShadowCatalog (libpq client)</text>
<polygon fill="#4d3340" stroke="none" points="135.12,-72.25 135.12,-95 382,-95 382,-72.25 135.12,-72.25"/>
<polygon fill="none" stroke="#6e6963" points="135.12,-72.25 135.12,-95 382,-95 382,-72.25 135.12,-72.25"/>
<polygon fill="none" stroke="#6e6963" points="382,-72.25 382,-95 883.88,-95 883.88,-72.25 382,-72.25"/>
<text xml:space="preserve" text-anchor="start" x="539.94" y="-80.25" font-family="Helvetica,sans-Serif" font-size="10.00" fill="#ece1d7">walshadow — walsender / sender side</text>
<polygon fill="#4d3850" stroke="none" points="135.12,-49.5 135.12,-72.25 382,-72.25 382,-49.5 135.12,-49.5"/>
<polygon fill="none" stroke="#6e6963" points="135.12,-49.5 135.12,-72.25 382,-72.25 382,-49.5 135.12,-49.5"/>
<polygon fill="none" stroke="#6e6963" points="382,-49.5 382,-72.25 883.88,-72.25 883.88,-49.5 382,-49.5"/>
<text xml:space="preserve" text-anchor="start" x="510.69" y="-57.5" font-family="Helvetica,sans-Serif" font-size="10.00" fill="#ece1d7">walshadow — on&#45;disk segments / shadow data dir</text>
<polygon fill="#4d4128" stroke="none" points="135.12,-26.75 135.12,-49.5 382,-49.5 382,-26.75 135.12,-26.75"/>
<polygon fill="none" stroke="#6e6963" points="135.12,-26.75 135.12,-49.5 382,-49.5 382,-26.75 135.12,-26.75"/>
<polygon fill="none" stroke="#6e6963" points="382,-26.75 382,-49.5 883.88,-49.5 883.88,-26.75 382,-26.75"/>
<text xml:space="preserve" text-anchor="start" x="543.31" y="-34.75" font-family="Helvetica,sans-Serif" font-size="10.00" fill="#ece1d7">walshadow — bootstrap orchestrator</text>
<polygon fill="#3d4128" stroke="none" points="135.12,-4 135.12,-26.75 382,-26.75 382,-4 135.12,-4"/>
<polygon fill="none" stroke="#6e6963" points="135.12,-4 135.12,-26.75 382,-26.75 382,-4 135.12,-4"/>
<polygon fill="none" stroke="#6e6963" points="382,-4 382,-26.75 883.88,-26.75 883.88,-4 382,-4"/>
<text xml:space="preserve" text-anchor="start" x="545.19" y="-12" font-family="Helvetica,sans-Serif" font-size="10.00" fill="#ece1d7">shadow Postgres receivers / catalog</text>
</g>
<!-- pglog&#45;&gt;legend -->
</g>
</svg>
