<?xml version="1.0" encoding="UTF-8" standalone="no"?>
<!DOCTYPE svg PUBLIC "-//W3C//DTD SVG 1.1//EN"
 "http://www.w3.org/Graphics/SVG/1.1/DTD/svg11.dtd">
<!-- Generated by graphviz version 15.1.0 (20260618.0150)
 -->
<!-- Title: source Pages: 1 -->
<svg width="1186pt" height="1946pt"
 viewBox="0.00 0.00 1186.00 1946.00" xmlns="http://www.w3.org/2000/svg" xmlns:xlink="http://www.w3.org/1999/xlink">
<g id="graph0" class="graph" transform="scale(1 1) rotate(0) translate(4 1941.69)">
<title>source</title>
<polygon fill="#272623" stroke="none" points="-4,4 -4,-1941.69 1181.89,-1941.69 1181.89,4 -4,4"/>
<text xml:space="preserve" text-anchor="middle" x="588.95" y="-1920.39" font-family="Helvetica,sans-Serif" font-size="14.00" fill="#ece1d7">source pipeline — SourceFeed → StreamingWalker → CompositeRecordSink fan&#45;out</text>
<g id="clust1" class="cluster">
<title>cluster_ingress</title>
<path fill="#34302c" stroke="#4c4641" d="M154,-1457.12C154,-1457.12 462,-1457.12 462,-1457.12 468,-1457.12 474,-1463.12 474,-1469.12 474,-1469.12 474,-1798.88 474,-1798.88 474,-1804.88 468,-1810.88 462,-1810.88 462,-1810.88 154,-1810.88 154,-1810.88 148,-1810.88 142,-1804.88 142,-1798.88 142,-1798.88 142,-1469.12 142,-1469.12 142,-1463.12 148,-1457.12 154,-1457.12"/>
<text xml:space="preserve" text-anchor="middle" x="308" y="-1793.58" font-family="Helvetica,sans-Serif" font-size="14.00" fill="#ece1d7">① ingress (pump task, tokio)</text>
</g>
<g id="clust2" class="cluster">
<title>cluster_walker</title>
<path fill="#34302c" stroke="#4c4641" d="M138,-1220.88C138,-1220.88 525,-1220.88 525,-1220.88 531,-1220.88 537,-1226.88 537,-1232.88 537,-1232.88 537,-1419.12 537,-1419.12 537,-1425.12 531,-1431.12 525,-1431.12 525,-1431.12 138,-1431.12 138,-1431.12 132,-1431.12 126,-1425.12 126,-1419.12 126,-1419.12 126,-1232.88 126,-1232.88 126,-1226.88 132,-1220.88 138,-1220.88"/>
<text xml:space="preserve" text-anchor="middle" x="331.5" y="-1413.83" font-family="Helvetica,sans-Serif" font-size="14.00" fill="#ece1d7">② WalStream::push (pump task, sync — record cadence)</text>
</g>
<g id="clust3" class="cluster">
<title>cluster_fanout</title>
<path fill="#34302c" stroke="#4c4641" d="M20,-1078C20,-1078 596,-1078 596,-1078 602,-1078 608,-1084 608,-1090 608,-1090 608,-1166.25 608,-1166.25 608,-1172.25 602,-1178.25 596,-1178.25 596,-1178.25 20,-1178.25 20,-1178.25 14,-1178.25 8,-1172.25 8,-1166.25 8,-1166.25 8,-1090 8,-1090 8,-1084 14,-1078 20,-1078"/>
<text xml:space="preserve" text-anchor="middle" x="308" y="-1160.95" font-family="Helvetica,sans-Serif" font-size="14.00" fill="#ece1d7">③ CompositeRecordSink fan&#45;out (pump task — bytes before record before segment)</text>
</g>
<g id="clust4" class="cluster">
<title>cluster_queue</title>
<path fill="#34302c" stroke="#4c4641" d="M29,-480.69C29,-480.69 454,-480.69 454,-480.69 460,-480.69 466,-486.69 466,-492.69 466,-492.69 466,-1012.12 466,-1012.12 466,-1018.12 460,-1024.12 454,-1024.12 454,-1024.12 29,-1024.12 29,-1024.12 23,-1024.12 17,-1018.12 17,-1012.12 17,-1012.12 17,-492.69 17,-492.69 17,-486.69 23,-480.69 29,-480.69"/>
<text xml:space="preserve" text-anchor="middle" x="241.5" y="-1006.83" font-family="Helvetica,sans-Serif" font-size="14.00" fill="#ece1d7">④ QueueingRecordSink — pump&#45;task ↔ worker&#45;task boundary</text>
</g>
<g id="clust5" class="cluster">
<title>cluster_walsender</title>
<path fill="#34302c" stroke="#4c4641" d="M634,-907.12C634,-907.12 1018,-907.12 1018,-907.12 1024,-907.12 1030,-913.12 1030,-919.12 1030,-919.12 1030,-1172.62 1030,-1172.62 1030,-1178.62 1024,-1184.62 1018,-1184.62 1018,-1184.62 634,-1184.62 634,-1184.62 628,-1184.62 622,-1178.62 622,-1172.62 622,-1172.62 622,-919.12 622,-919.12 622,-913.12 628,-907.12 634,-907.12"/>
<text xml:space="preserve" text-anchor="middle" x="826" y="-1167.33" font-family="Helvetica,sans-Serif" font-size="14.00" fill="#ece1d7">⑤ walsender server (wal&#45;rus server.rs — own tokio task)</text>
</g>
<!-- src -->
<g id="node1" class="node">
<title>src</title>
<path fill="#3d3d54" stroke="#6e6963" d="M359.5,-1908.25C359.5,-1910.56 336.42,-1912.44 308,-1912.44 279.58,-1912.44 256.5,-1910.56 256.5,-1908.25 256.5,-1908.25 256.5,-1870.56 256.5,-1870.56 256.5,-1868.25 279.58,-1866.38 308,-1866.38 336.42,-1866.38 359.5,-1868.25 359.5,-1870.56 359.5,-1870.56 359.5,-1908.25 359.5,-1908.25"/>
<path fill="none" stroke="#6e6963" d="M359.5,-1908.25C359.5,-1905.94 336.42,-1904.06 308,-1904.06 279.58,-1904.06 256.5,-1905.94 256.5,-1908.25"/>
<text xml:space="preserve" text-anchor="middle" x="308" y="-1892.66" font-family="Helvetica,sans-Serif" font-size="10.00" fill="#ece1d7">source PG</text>
<text xml:space="preserve" text-anchor="middle" x="308" y="-1879.91" font-family="Helvetica,sans-Serif" font-size="10.00" fill="#ece1d7">wal_level=logical</text>
</g>
<!-- repconn -->
<g id="node4" class="node">
<title>repconn</title>
<path fill="#3d3d54" stroke="#6e6963" d="M378.62,-1777.62C378.62,-1777.62 237.38,-1777.62 237.38,-1777.62 231.38,-1777.62 225.38,-1771.62 225.38,-1765.62 225.38,-1765.62 225.38,-1730.62 225.38,-1730.62 225.38,-1724.62 231.38,-1718.62 237.38,-1718.62 237.38,-1718.62 378.62,-1718.62 378.62,-1718.62 384.62,-1718.62 390.62,-1724.62 390.62,-1730.62 390.62,-1730.62 390.62,-1765.62 390.62,-1765.62 390.62,-1771.62 384.62,-1777.62 378.62,-1777.62"/>
<text xml:space="preserve" text-anchor="middle" x="308" y="-1764.12" font-family="Helvetica,sans-Serif" font-size="10.00" fill="#ece1d7">ReplicationConn (wal&#45;rus)</text>
<text xml:space="preserve" text-anchor="middle" x="308" y="-1751.38" font-family="Helvetica,sans-Serif" font-size="10.00" fill="#ece1d7">IDENTIFY_SYSTEM +</text>
<text xml:space="preserve" text-anchor="middle" x="308" y="-1738.62" font-family="Helvetica,sans-Serif" font-size="10.00" fill="#ece1d7">START_REPLICATION PHYSICAL</text>
<text xml:space="preserve" text-anchor="middle" x="308" y="-1725.88" font-family="Helvetica,sans-Serif" font-size="10.00" fill="#ece1d7">+ TLS / SCRAM&#45;SHA&#45;256</text>
</g>
<!-- src&#45;&gt;repconn -->
<g id="edge17" class="edge">
<title>src&#45;&gt;repconn</title>
<path fill="none" stroke="#a1a9cc" stroke-width="2" d="M308,-1866.03C308,-1845.85 308,-1815.65 308,-1791"/>
<polygon fill="#a1a9cc" stroke="#a1a9cc" stroke-width="2" points="311.5,-1791 308,-1781 304.5,-1791 311.5,-1791"/>
<text xml:space="preserve" text-anchor="middle" x="356" y="-1832.83" font-family="Helvetica,sans-Serif" font-size="9.00" fill="#ece1d7">CopyData &#39;w&#39;</text>
<text xml:space="preserve" text-anchor="middle" x="356" y="-1821.58" font-family="Helvetica,sans-Serif" font-size="9.00" fill="#ece1d7">streaming replication</text>
</g>
<!-- shd -->
<g id="node2" class="node">
<title>shd</title>
<path fill="#3d4128" stroke="#6e6963" d="M776.62,-794.39C776.62,-797.58 747.66,-800.17 712,-800.17 676.34,-800.17 647.38,-797.58 647.38,-794.39 647.38,-794.39 647.38,-742.36 647.38,-742.36 647.38,-739.17 676.34,-736.58 712,-736.58 747.66,-736.58 776.62,-739.17 776.62,-742.36 776.62,-742.36 776.62,-794.39 776.62,-794.39"/>
<path fill="none" stroke="#6e6963" d="M776.62,-794.39C776.62,-791.2 747.66,-788.61 712,-788.61 676.34,-788.61 647.38,-791.2 647.38,-794.39"/>
<text xml:space="preserve" text-anchor="middle" x="712" y="-778" font-family="Helvetica,sans-Serif" font-size="10.00" fill="#ece1d7">shadow PG</text>
<text xml:space="preserve" text-anchor="middle" x="712" y="-765.25" font-family="Helvetica,sans-Serif" font-size="10.00" fill="#ece1d7">walreceiver</text>
<text xml:space="preserve" text-anchor="middle" x="712" y="-752.5" font-family="Helvetica,sans-Serif" font-size="10.00" fill="#ece1d7">pg_last_wal_replay_lsn</text>
</g>
<!-- stat -->
<g id="node19" class="node">
<title>stat</title>
<path fill="#5d3f40" stroke="#6e6963" d="M1004.75,-1138.62C1004.75,-1138.62 861.25,-1138.62 861.25,-1138.62 855.25,-1138.62 849.25,-1132.62 849.25,-1126.62 849.25,-1126.62 849.25,-1104.38 849.25,-1104.38 849.25,-1098.38 855.25,-1092.38 861.25,-1092.38 861.25,-1092.38 1004.75,-1092.38 1004.75,-1092.38 1010.75,-1092.38 1016.75,-1098.38 1016.75,-1104.38 1016.75,-1104.38 1016.75,-1126.62 1016.75,-1126.62 1016.75,-1132.62 1010.75,-1138.62 1004.75,-1138.62"/>
<text xml:space="preserve" text-anchor="middle" x="933" y="-1125.12" font-family="Helvetica,sans-Serif" font-size="10.00" fill="#ece1d7">decode_standby_status</text>
<text xml:space="preserve" text-anchor="middle" x="933" y="-1112.38" font-family="Helvetica,sans-Serif" font-size="10.00" fill="#ece1d7">rx &#39;r&#39; write/flush/apply</text>
<text xml:space="preserve" text-anchor="middle" x="933" y="-1099.62" font-family="Helvetica,sans-Serif" font-size="10.00" fill="#ece1d7">ShadowStreamState aggregate</text>
</g>
<!-- shd&#45;&gt;stat -->
<g id="edge19" class="edge">
<title>shd&#45;&gt;stat</title>
<path fill="none" stroke="#bd8183" stroke-dasharray="5,2" d="M776.8,-776.77C816.65,-785.04 864.77,-802.54 890,-839.62 944.18,-919.25 822.71,-967.15 863,-1054.62 868.28,-1066.08 876.94,-1076.16 886.41,-1084.62"/>
<polygon fill="#bd8183" stroke="#bd8183" points="884.16,-1087.3 894.09,-1090.97 888.62,-1081.9 884.16,-1087.3"/>
<text xml:space="preserve" text-anchor="middle" x="941.1" y="-941.7" font-family="Helvetica,sans-Serif" font-size="9.00" fill="#ece1d7">&#39;r&#39; standby status</text>
</g>
<!-- dec -->
<g id="node3" class="node">
<title>dec</title>
<path fill="#4d4128" stroke="#6e6963" d="M595.88,-545C595.88,-549.07 568.59,-552.38 535,-552.38 501.41,-552.38 474.12,-549.07 474.12,-545 474.12,-545 474.12,-478.62 474.12,-478.62 474.12,-474.56 501.41,-471.25 535,-471.25 568.59,-471.25 595.88,-474.56 595.88,-478.62 595.88,-478.62 595.88,-545 595.88,-545"/>
<path fill="none" stroke="#6e6963" d="M595.88,-545C595.88,-540.93 568.59,-537.62 535,-537.62 501.41,-537.62 474.12,-540.93 474.12,-545"/>
<text xml:space="preserve" text-anchor="middle" x="535" y="-527.81" font-family="Helvetica,sans-Serif" font-size="10.00" fill="#ece1d7">downstream</text>
<text xml:space="preserve" text-anchor="middle" x="535" y="-515.06" font-family="Helvetica,sans-Serif" font-size="10.00" fill="#ece1d7">BufferingDecoderSink</text>
<text xml:space="preserve" text-anchor="middle" x="535" y="-502.31" font-family="Helvetica,sans-Serif" font-size="10.00" fill="#ece1d7">+ ReorderSink</text>
<text xml:space="preserve" text-anchor="middle" x="535" y="-489.56" font-family="Helvetica,sans-Serif" font-size="10.00" fill="#ece1d7">→ CH pipeline</text>
</g>
<!-- legend -->
<g id="node21" class="node">
<title>legend</title>
<path fill="#6e6963" stroke="none" d="M695,-420.25C695,-420.25 375,-420.25 375,-420.25 369,-420.25 363,-414.25 363,-408.25 363,-408.25 363,-12 363,-12 363,-6 369,0 375,0 375,0 695,0 695,0 701,0 707,-6 707,-12 707,-12 707,-408.25 707,-408.25 707,-414.25 701,-420.25 695,-420.25"/>
<polygon fill="#34302c" stroke="none" points="371,-393.5 371,-416.25 699,-416.25 699,-393.5 371,-393.5"/>
<polygon fill="none" stroke="#6e6963" points="371,-393.5 371,-416.25 699,-416.25 699,-393.5 371,-393.5"/>
<text xml:space="preserve" text-anchor="start" x="491.88" y="-402.75" font-family="Helvetica,sans-Serif" font-weight="bold" font-size="10.00" fill="#ece1d7">node fill — role</text>
<polygon fill="#3d3d54" stroke="none" points="371,-370.75 371,-393.5 419.88,-393.5 419.88,-370.75 371,-370.75"/>
<polygon fill="none" stroke="#6e6963" points="371,-370.75 371,-393.5 419.88,-393.5 419.88,-370.75 371,-370.75"/>
<polygon fill="none" stroke="#6e6963" points="419.88,-370.75 419.88,-393.5 699,-393.5 699,-370.75 419.88,-370.75"/>
<text xml:space="preserve" text-anchor="start" x="436.81" y="-378.75" font-family="Helvetica,sans-Serif" font-size="10.00" fill="#ece1d7">source PG / ingress (SourceFeed, ReplicationConn)</text>
<polygon fill="#4d3a28" stroke="none" points="371,-348 371,-370.75 419.88,-370.75 419.88,-348 371,-348"/>
<polygon fill="none" stroke="#6e6963" points="371,-348 371,-370.75 419.88,-370.75 419.88,-348 371,-348"/>
<polygon fill="none" stroke="#6e6963" points="419.88,-348 419.88,-370.75 699,-370.75 699,-348 419.88,-348"/>
<text xml:space="preserve" text-anchor="start" x="435.31" y="-356" font-family="Helvetica,sans-Serif" font-size="10.00" fill="#ece1d7">walshadow filter / walker / queue (pump&#45;side sync)</text>
<polygon fill="#4d3340" stroke="none" points="371,-325.25 371,-348 419.88,-348 419.88,-325.25 371,-325.25"/>
<polygon fill="none" stroke="#6e6963" points="371,-325.25 371,-348 419.88,-348 419.88,-325.25 371,-325.25"/>
<polygon fill="none" stroke="#6e6963" points="419.88,-325.25 419.88,-348 699,-348 699,-325.25 419.88,-325.25"/>
<text xml:space="preserve" text-anchor="start" x="472.44" y="-333.25" font-family="Helvetica,sans-Serif" font-size="10.00" fill="#ece1d7">CompositeRecordSink fan&#45;out sinks</text>
<polygon fill="#5d3f40" stroke="none" points="371,-302.5 371,-325.25 419.88,-325.25 419.88,-302.5 371,-302.5"/>
<polygon fill="none" stroke="#6e6963" points="371,-302.5 371,-325.25 419.88,-325.25 419.88,-302.5 371,-302.5"/>
<polygon fill="none" stroke="#6e6963" points="419.88,-302.5 419.88,-325.25 699,-325.25 699,-302.5 419.88,-302.5"/>
<text xml:space="preserve" text-anchor="start" x="440.56" y="-310.5" font-family="Helvetica,sans-Serif" font-size="10.00" fill="#ece1d7">walsender server (accept, send queue, status rx)</text>
<polygon fill="#4d3850" stroke="none" points="371,-279.75 371,-302.5 419.88,-302.5 419.88,-279.75 371,-279.75"/>
<polygon fill="none" stroke="#6e6963" points="371,-279.75 371,-302.5 419.88,-302.5 419.88,-279.75 371,-279.75"/>
<polygon fill="none" stroke="#6e6963" points="419.88,-279.75 419.88,-302.5 699,-302.5 699,-279.75 419.88,-279.75"/>
<text xml:space="preserve" text-anchor="start" x="448.06" y="-287.75" font-family="Helvetica,sans-Serif" font-size="10.00" fill="#ece1d7">on&#45;disk artifact (filtered segment + manifest)</text>
<polygon fill="#3d4128" stroke="none" points="371,-257 371,-279.75 419.88,-279.75 419.88,-257 371,-257"/>
<polygon fill="none" stroke="#6e6963" points="371,-257 371,-279.75 419.88,-279.75 419.88,-257 371,-257"/>
<polygon fill="none" stroke="#6e6963" points="419.88,-257 419.88,-279.75 699,-279.75 699,-257 419.88,-257"/>
<text xml:space="preserve" text-anchor="start" x="484.44" y="-265" font-family="Helvetica,sans-Serif" font-size="10.00" fill="#ece1d7">shadow Postgres (walreceiver)</text>
<polygon fill="#4d4128" stroke="none" points="371,-234.25 371,-257 419.88,-257 419.88,-234.25 371,-234.25"/>
<polygon fill="none" stroke="#6e6963" points="371,-234.25 371,-257 419.88,-257 419.88,-234.25 371,-234.25"/>
<polygon fill="none" stroke="#6e6963" points="419.88,-234.25 419.88,-257 699,-257 699,-234.25 419.88,-234.25"/>
<text xml:space="preserve" text-anchor="start" x="474.31" y="-242.25" font-family="Helvetica,sans-Serif" font-size="10.00" fill="#ece1d7">downstream decoder + CH emitter</text>
<polygon fill="#34302c" stroke="none" points="371,-211.5 371,-234.25 699,-234.25 699,-211.5 371,-211.5"/>
<polygon fill="none" stroke="#6e6963" points="371,-211.5 371,-234.25 699,-234.25 699,-211.5 371,-211.5"/>
<text xml:space="preserve" text-anchor="start" x="470.88" y="-220.75" font-family="Helvetica,sans-Serif" font-weight="bold" font-size="10.00" fill="#ece1d7">edge colour — channel</text>
<polygon fill="none" stroke="#6e6963" points="371,-188.75 371,-211.5 419.88,-211.5 419.88,-188.75 371,-188.75"/>
<text xml:space="preserve" text-anchor="start" x="389.44" y="-198" font-family="Helvetica,sans-Serif" font-weight="bold" font-size="10.00" fill="#a1a9cc">━━</text>
<polygon fill="none" stroke="#6e6963" points="419.88,-188.75 419.88,-211.5 699,-211.5 699,-188.75 419.88,-188.75"/>
<text xml:space="preserve" text-anchor="start" x="461.94" y="-196.75" font-family="Helvetica,sans-Serif" font-size="10.00" fill="#ece1d7">source replication frame (CopyData &#39;w&#39;)</text>
<polygon fill="none" stroke="#6e6963" points="371,-166 371,-188.75 419.88,-188.75 419.88,-166 371,-166"/>
<text xml:space="preserve" text-anchor="start" x="389.44" y="-175.25" font-family="Helvetica,sans-Serif" font-weight="bold" font-size="10.00" fill="#bd8183">━━</text>
<polygon fill="none" stroke="#6e6963" points="419.88,-166 419.88,-188.75 699,-188.75 699,-166 419.88,-166"/>
<text xml:space="preserve" text-anchor="start" x="456.69" y="-174" font-family="Helvetica,sans-Serif" font-size="10.00" fill="#ece1d7">walsender wire (hot path, record cadence)</text>
<polygon fill="none" stroke="#6e6963" points="371,-143.25 371,-166 419.88,-166 419.88,-143.25 371,-143.25"/>
<text xml:space="preserve" text-anchor="start" x="389.44" y="-152.5" font-family="Helvetica,sans-Serif" font-weight="bold" font-size="10.00" fill="#bf8c5f">━━</text>
<polygon fill="none" stroke="#6e6963" points="419.88,-143.25 419.88,-166 699,-166 699,-143.25 419.88,-143.25"/>
<text xml:space="preserve" text-anchor="start" x="462.69" y="-151.25" font-family="Helvetica,sans-Serif" font-size="10.00" fill="#ece1d7">batched records → decoder / CH emitter</text>
<polygon fill="none" stroke="#6e6963" points="371,-120.5 371,-143.25 419.88,-143.25 419.88,-120.5 371,-120.5"/>
<text xml:space="preserve" text-anchor="start" x="389.44" y="-129.75" font-family="Helvetica,sans-Serif" font-weight="bold" font-size="10.00" fill="#6e6963">┄┄</text>
<polygon fill="none" stroke="#6e6963" points="419.88,-120.5 419.88,-143.25 699,-143.25 699,-120.5 419.88,-120.5"/>
<text xml:space="preserve" text-anchor="start" x="443.94" y="-128.5" font-family="Helvetica,sans-Serif" font-size="10.00" fill="#ece1d7">filesystem (restore_command archive fallback)</text>
<polygon fill="none" stroke="#6e6963" points="371,-97.75 371,-120.5 419.88,-120.5 419.88,-97.75 371,-97.75"/>
<text xml:space="preserve" text-anchor="start" x="389.81" y="-107" font-family="Helvetica,sans-Serif" font-weight="bold" font-size="10.00" fill="#a1a9cc">···</text>
<polygon fill="none" stroke="#6e6963" points="419.88,-97.75 419.88,-120.5 699,-120.5 699,-97.75 419.88,-97.75"/>
<text xml:space="preserve" text-anchor="start" x="455.94" y="-105.75" font-family="Helvetica,sans-Serif" font-size="10.00" fill="#ece1d7">apply_lsn feedback (catalog gate unblock)</text>
<polygon fill="none" stroke="#6e6963" points="371,-75 371,-97.75 419.88,-97.75 419.88,-75 371,-75"/>
<text xml:space="preserve" text-anchor="start" x="389.44" y="-84.25" font-family="Helvetica,sans-Serif" font-weight="bold" font-size="10.00" fill="#b58b86">┄┄</text>
<polygon fill="none" stroke="#6e6963" points="419.88,-75 419.88,-97.75 699,-97.75 699,-75 419.88,-75"/>
<text xml:space="preserve" text-anchor="start" x="460.44" y="-83" font-family="Helvetica,sans-Serif" font-size="10.00" fill="#ece1d7">worker error surfaced back to pump task</text>
<polygon fill="#34302c" stroke="none" points="371,-52.25 371,-75 699,-75 699,-52.25 371,-52.25"/>
<polygon fill="none" stroke="#6e6963" points="371,-52.25 371,-75 699,-75 699,-52.25 371,-52.25"/>
<text xml:space="preserve" text-anchor="start" x="452.12" y="-61.5" font-family="Helvetica,sans-Serif" font-weight="bold" font-size="10.00" fill="#ece1d7">fan&#45;out order (③, mandatory)</text>
<polygon fill="none" stroke="#6e6963" points="371,-4 371,-52.25 699,-52.25 699,-4 371,-4"/>
<text xml:space="preserve" text-anchor="start" x="409.75" y="-37.5" font-family="Helvetica,sans-Serif" font-size="10.00" fill="#ece1d7">❶ bytes → walsender (advances shadow apply_lsn)</text>
<text xml:space="preserve" text-anchor="start" x="376" y="-24.75" font-family="Helvetica,sans-Serif" font-size="10.00" fill="#ece1d7">❷ record → queue → decoder (waits on apply_lsn at catalog gate)</text>
<text xml:space="preserve" text-anchor="start" x="434.5" y="-12" font-family="Helvetica,sans-Serif" font-size="10.00" fill="#ece1d7">❸ segment fires only at 16 MiB boundary</text>
</g>
<!-- dec&#45;&gt;legend -->
<!-- feed -->
<g id="node5" class="node">
<title>feed</title>
<path fill="#3d3d54" stroke="#6e6963" d="M362.88,-1667.62C362.88,-1667.62 253.12,-1667.62 253.12,-1667.62 247.12,-1667.62 241.12,-1661.62 241.12,-1655.62 241.12,-1655.62 241.12,-1620.62 241.12,-1620.62 241.12,-1614.62 247.12,-1608.62 253.12,-1608.62 253.12,-1608.62 362.88,-1608.62 362.88,-1608.62 368.88,-1608.62 374.88,-1614.62 374.88,-1620.62 374.88,-1620.62 374.88,-1655.62 374.88,-1655.62 374.88,-1661.62 368.88,-1667.62 362.88,-1667.62"/>
<text xml:space="preserve" text-anchor="middle" x="308" y="-1654.12" font-family="Helvetica,sans-Serif" font-size="10.00" fill="#ece1d7">SourceFeed::pump</text>
<text xml:space="preserve" text-anchor="middle" x="308" y="-1641.38" font-family="Helvetica,sans-Serif" font-size="10.00" fill="#ece1d7">next_chunk frame loop,</text>
<text xml:space="preserve" text-anchor="middle" x="308" y="-1628.62" font-family="Helvetica,sans-Serif" font-size="10.00" fill="#ece1d7">&#39;k&#39; keepalive absorb,</text>
<text xml:space="preserve" text-anchor="middle" x="308" y="-1615.88" font-family="Helvetica,sans-Serif" font-size="10.00" fill="#ece1d7">&#39;r&#39; standby status @ 10s</text>
</g>
<!-- repconn&#45;&gt;feed -->
<g id="edge1" class="edge">
<title>repconn&#45;&gt;feed</title>
<path fill="none" stroke="#c1a78e" d="M308,-1718.18C308,-1706.22 308,-1692.16 308,-1679.23"/>
<polygon fill="#c1a78e" stroke="#c1a78e" points="311.5,-1679.29 308,-1669.29 304.5,-1679.29 311.5,-1679.29"/>
</g>
<!-- chunks -->
<g id="node6" class="node">
<title>chunks</title>
<path fill="#3d3d54" stroke="#6e6963" d="M454.1,-1557.62C454.1,-1557.62 226.6,-1557.62 226.6,-1557.62 220.6,-1557.62 211.16,-1552.71 207.72,-1547.79 207.72,-1547.79 156.77,-1474.96 156.77,-1474.96 153.33,-1470.04 155.9,-1465.12 161.9,-1465.12 161.9,-1465.12 389.4,-1465.12 389.4,-1465.12 395.4,-1465.12 404.84,-1470.04 408.28,-1474.96 408.28,-1474.96 459.23,-1547.79 459.23,-1547.79 462.67,-1552.71 460.1,-1557.62 454.1,-1557.62"/>
<text xml:space="preserve" text-anchor="middle" x="308" y="-1521" font-family="Helvetica,sans-Serif" font-size="10.00" fill="#ece1d7">WalChunk</text>
<text xml:space="preserve" text-anchor="middle" x="308" y="-1508.25" font-family="Helvetica,sans-Serif" font-size="10.00" fill="#ece1d7">{ start_lsn, server_wal_end,</text>
<text xml:space="preserve" text-anchor="middle" x="308" y="-1495.5" font-family="Helvetica,sans-Serif" font-size="10.00" fill="#ece1d7"> &#160;data: &amp;[u8] }</text>
</g>
<!-- feed&#45;&gt;chunks -->
<g id="edge2" class="edge">
<title>feed&#45;&gt;chunks</title>
<path fill="none" stroke="#c1a78e" d="M308,-1608.19C308,-1596.49 308,-1582.57 308,-1569.01"/>
<polygon fill="#c1a78e" stroke="#c1a78e" points="311.5,-1569.28 308,-1559.28 304.5,-1569.28 311.5,-1569.28"/>
</g>
<!-- walker -->
<g id="node7" class="node">
<title>walker</title>
<path fill="#4d3a28" stroke="#6e6963" d="M369.25,-1397.88C369.25,-1397.88 246.75,-1397.88 246.75,-1397.88 240.75,-1397.88 234.75,-1391.88 234.75,-1385.88 234.75,-1385.88 234.75,-1350.88 234.75,-1350.88 234.75,-1344.88 240.75,-1338.88 246.75,-1338.88 246.75,-1338.88 369.25,-1338.88 369.25,-1338.88 375.25,-1338.88 381.25,-1344.88 381.25,-1350.88 381.25,-1350.88 381.25,-1385.88 381.25,-1385.88 381.25,-1391.88 375.25,-1397.88 369.25,-1397.88"/>
<text xml:space="preserve" text-anchor="middle" x="308" y="-1384.38" font-family="Helvetica,sans-Serif" font-size="10.00" fill="#ece1d7">StreamingWalker</text>
<text xml:space="preserve" text-anchor="middle" x="308" y="-1371.62" font-family="Helvetica,sans-Serif" font-size="10.00" fill="#ece1d7">page&#45;state machine,</text>
<text xml:space="preserve" text-anchor="middle" x="308" y="-1358.88" font-family="Helvetica,sans-Serif" font-size="10.00" fill="#ece1d7">record stitch across pages,</text>
<text xml:space="preserve" text-anchor="middle" x="308" y="-1346.12" font-family="Helvetica,sans-Serif" font-size="10.00" fill="#ece1d7">16 MiB buffer (one alloc)</text>
</g>
<!-- chunks&#45;&gt;walker -->
<g id="edge4" class="edge">
<title>chunks&#45;&gt;walker</title>
<path fill="none" stroke="#a1a9cc" stroke-width="2" d="M308,-1464.99C308,-1447.71 308,-1428.11 308,-1411.18"/>
<polygon fill="#a1a9cc" stroke="#a1a9cc" stroke-width="2" points="311.5,-1411.3 308,-1401.3 304.5,-1411.3 311.5,-1411.3"/>
</g>
<!-- drain -->
<g id="node8" class="node">
<title>drain</title>
<path fill="#4d3a28" stroke="#6e6963" d="M373.38,-1287.88C373.38,-1287.88 242.62,-1287.88 242.62,-1287.88 236.62,-1287.88 230.62,-1281.88 230.62,-1275.88 230.62,-1275.88 230.62,-1240.88 230.62,-1240.88 230.62,-1234.88 236.62,-1228.88 242.62,-1228.88 242.62,-1228.88 373.38,-1228.88 373.38,-1228.88 379.38,-1228.88 385.38,-1234.88 385.38,-1240.88 385.38,-1240.88 385.38,-1275.88 385.38,-1275.88 385.38,-1281.88 379.38,-1287.88 373.38,-1287.88"/>
<text xml:space="preserve" text-anchor="middle" x="308" y="-1274.38" font-family="Helvetica,sans-Serif" font-size="10.00" fill="#ece1d7">WalStream::drain_records</text>
<text xml:space="preserve" text-anchor="middle" x="308" y="-1261.62" font-family="Helvetica,sans-Serif" font-size="10.00" fill="#ece1d7">Filter::decide (keep / drop) +</text>
<text xml:space="preserve" text-anchor="middle" x="308" y="-1248.88" font-family="Helvetica,sans-Serif" font-size="10.00" fill="#ece1d7">noop_replace + CRC32C +</text>
<text xml:space="preserve" text-anchor="middle" x="308" y="-1236.12" font-family="Helvetica,sans-Serif" font-size="10.00" fill="#ece1d7">parsed.into_owned()</text>
</g>
<!-- walker&#45;&gt;drain -->
<g id="edge3" class="edge">
<title>walker&#45;&gt;drain</title>
<path fill="none" stroke="#c1a78e" d="M308,-1338.43C308,-1326.47 308,-1312.41 308,-1299.48"/>
<polygon fill="#c1a78e" stroke="#c1a78e" points="311.5,-1299.54 308,-1289.54 304.5,-1299.54 311.5,-1299.54"/>
</g>
<!-- bytesink -->
<g id="node9" class="node">
<title>bytesink</title>
<path fill="#4d3340" stroke="#6e6963" d="M129.25,-1138.62C129.25,-1138.62 30.75,-1138.62 30.75,-1138.62 24.75,-1138.62 18.75,-1132.62 18.75,-1126.62 18.75,-1126.62 18.75,-1104.38 18.75,-1104.38 18.75,-1098.38 24.75,-1092.38 30.75,-1092.38 30.75,-1092.38 129.25,-1092.38 129.25,-1092.38 135.25,-1092.38 141.25,-1098.38 141.25,-1104.38 141.25,-1104.38 141.25,-1126.62 141.25,-1126.62 141.25,-1132.62 135.25,-1138.62 129.25,-1138.62"/>
<text xml:space="preserve" text-anchor="middle" x="80" y="-1125.12" font-family="Helvetica,sans-Serif" font-size="10.00" fill="#ece1d7">❶ ShadowStreamSink</text>
<text xml:space="preserve" text-anchor="middle" x="80" y="-1112.38" font-family="Helvetica,sans-Serif" font-size="10.00" fill="#ece1d7">on_wire_chunk</text>
<text xml:space="preserve" text-anchor="middle" x="80" y="-1099.62" font-family="Helvetica,sans-Serif" font-size="10.00" fill="#ece1d7">(stays on pump task)</text>
</g>
<!-- drain&#45;&gt;bytesink -->
<g id="edge5" class="edge">
<title>drain&#45;&gt;bytesink</title>
<path fill="none" stroke="#bd8183" stroke-width="2" d="M240.5,-1228.53C214.54,-1216.33 185.13,-1201.13 160,-1184.62 143.56,-1173.83 126.77,-1160.04 112.85,-1147.7"/>
<polygon fill="#bd8183" stroke="#bd8183" stroke-width="2" points="115.28,-1145.17 105.51,-1141.06 110.58,-1150.36 115.28,-1145.17"/>
<text xml:space="preserve" text-anchor="middle" x="195.03" y="-1195.33" font-family="Helvetica,sans-Serif" font-size="9.00" fill="#ece1d7">❶</text>
</g>
<!-- metric -->
<g id="node10" class="node">
<title>metric</title>
<path fill="#4d3340" stroke="#6e6963" d="M272.38,-1133.5C272.38,-1133.5 189.62,-1133.5 189.62,-1133.5 183.62,-1133.5 177.62,-1127.5 177.62,-1121.5 177.62,-1121.5 177.62,-1109.5 177.62,-1109.5 177.62,-1103.5 183.62,-1097.5 189.62,-1097.5 189.62,-1097.5 272.38,-1097.5 272.38,-1097.5 278.38,-1097.5 284.38,-1103.5 284.38,-1109.5 284.38,-1109.5 284.38,-1121.5 284.38,-1121.5 284.38,-1127.5 278.38,-1133.5 272.38,-1133.5"/>
<text xml:space="preserve" text-anchor="middle" x="231" y="-1118.75" font-family="Helvetica,sans-Serif" font-size="10.00" fill="#ece1d7">MetricsRecordSink</text>
<text xml:space="preserve" text-anchor="middle" x="231" y="-1106" font-family="Helvetica,sans-Serif" font-size="10.00" fill="#ece1d7">sync counters</text>
</g>
<!-- drain&#45;&gt;metric -->
<g id="edge6" class="edge">
<title>drain&#45;&gt;metric</title>
<path fill="none" stroke="#c1a78e" stroke-dasharray="5,2" d="M292.23,-1228.53C278.66,-1203.7 259.23,-1168.15 245.91,-1143.79"/>
<polygon fill="#c1a78e" stroke="#c1a78e" points="249.04,-1142.2 241.17,-1135.11 242.9,-1145.56 249.04,-1142.2"/>
</g>
<!-- qsink -->
<g id="node11" class="node">
<title>qsink</title>
<path fill="#4d3340" stroke="#6e6963" d="M437.62,-1145C437.62,-1145 332.38,-1145 332.38,-1145 326.38,-1145 320.38,-1139 320.38,-1133 320.38,-1133 320.38,-1098 320.38,-1098 320.38,-1092 326.38,-1086 332.38,-1086 332.38,-1086 437.62,-1086 437.62,-1086 443.62,-1086 449.62,-1092 449.62,-1098 449.62,-1098 449.62,-1133 449.62,-1133 449.62,-1139 443.62,-1145 437.62,-1145"/>
<text xml:space="preserve" text-anchor="middle" x="385" y="-1131.5" font-family="Helvetica,sans-Serif" font-size="10.00" fill="#ece1d7">❷ QueueingRecordSink</text>
<text xml:space="preserve" text-anchor="middle" x="385" y="-1118.75" font-family="Helvetica,sans-Serif" font-size="10.00" fill="#ece1d7">on_record</text>
<text xml:space="preserve" text-anchor="middle" x="385" y="-1106" font-family="Helvetica,sans-Serif" font-size="10.00" fill="#ece1d7">(clones to &#39;static,</text>
<text xml:space="preserve" text-anchor="middle" x="385" y="-1093.25" font-family="Helvetica,sans-Serif" font-size="10.00" fill="#ece1d7"> enqueues, returns)</text>
</g>
<!-- drain&#45;&gt;qsink -->
<g id="edge7" class="edge">
<title>drain&#45;&gt;qsink</title>
<path fill="none" stroke="#c1a78e" d="M323.77,-1228.53C335.34,-1207.35 351.19,-1178.36 363.86,-1155.18"/>
<polygon fill="#c1a78e" stroke="#c1a78e" points="366.8,-1157.09 368.53,-1146.64 360.66,-1153.73 366.8,-1157.09"/>
<text xml:space="preserve" text-anchor="middle" x="346.01" y="-1195.33" font-family="Helvetica,sans-Serif" font-size="9.00" fill="#ece1d7">❷</text>
</g>
<!-- segsink -->
<g id="node12" class="node">
<title>segsink</title>
<path fill="#4d3340" stroke="#6e6963" d="M584.62,-1138.62C584.62,-1138.62 497.38,-1138.62 497.38,-1138.62 491.38,-1138.62 485.38,-1132.62 485.38,-1126.62 485.38,-1126.62 485.38,-1104.38 485.38,-1104.38 485.38,-1098.38 491.38,-1092.38 497.38,-1092.38 497.38,-1092.38 584.62,-1092.38 584.62,-1092.38 590.62,-1092.38 596.62,-1098.38 596.62,-1104.38 596.62,-1104.38 596.62,-1126.62 596.62,-1126.62 596.62,-1132.62 590.62,-1138.62 584.62,-1138.62"/>
<text xml:space="preserve" text-anchor="middle" x="541" y="-1125.12" font-family="Helvetica,sans-Serif" font-size="10.00" fill="#ece1d7">❸ DirSegmentSink</text>
<text xml:space="preserve" text-anchor="middle" x="541" y="-1112.38" font-family="Helvetica,sans-Serif" font-size="10.00" fill="#ece1d7">on_segment</text>
<text xml:space="preserve" text-anchor="middle" x="541" y="-1099.62" font-family="Helvetica,sans-Serif" font-size="10.00" fill="#ece1d7">@ 16 MiB boundary</text>
</g>
<!-- drain&#45;&gt;segsink -->
<g id="edge8" class="edge">
<title>drain&#45;&gt;segsink</title>
<path fill="none" stroke="#c1a78e" stroke-dasharray="5,2" d="M384.75,-1228.49C412.06,-1216.68 442.37,-1201.74 468,-1184.62 483.96,-1173.96 499.78,-1159.78 512.58,-1147.11"/>
<polygon fill="#c1a78e" stroke="#c1a78e" points="514.93,-1149.71 519.47,-1140.14 509.95,-1144.79 514.93,-1149.71"/>
<text xml:space="preserve" text-anchor="middle" x="456.02" y="-1195.33" font-family="Helvetica,sans-Serif" font-size="9.00" fill="#ece1d7">❸</text>
</g>
<!-- sendq -->
<g id="node18" class="node">
<title>sendq</title>
<path fill="#5d3f40" stroke="#6e6963" d="M778.5,-974.12C778.5,-974.12 645.5,-974.12 645.5,-974.12 639.5,-974.12 633.5,-968.12 633.5,-962.12 633.5,-962.12 633.5,-927.12 633.5,-927.12 633.5,-921.12 639.5,-915.12 645.5,-915.12 645.5,-915.12 778.5,-915.12 778.5,-915.12 784.5,-915.12 790.5,-921.12 790.5,-927.12 790.5,-927.12 790.5,-962.12 790.5,-962.12 790.5,-968.12 784.5,-974.12 778.5,-974.12"/>
<text xml:space="preserve" text-anchor="middle" x="712" y="-960.62" font-family="Helvetica,sans-Serif" font-size="10.00" fill="#ece1d7">WalSenderConn send queue</text>
<text xml:space="preserve" text-anchor="middle" x="712" y="-947.88" font-family="Helvetica,sans-Serif" font-size="10.00" fill="#ece1d7">per&#45;conn Vec&lt;u8&gt;</text>
<text xml:space="preserve" text-anchor="middle" x="712" y="-935.12" font-family="Helvetica,sans-Serif" font-size="10.00" fill="#ece1d7">&#39;w&#39; XLogData + &#39;k&#39; keepalive</text>
<text xml:space="preserve" text-anchor="middle" x="712" y="-922.38" font-family="Helvetica,sans-Serif" font-size="10.00" fill="#ece1d7">slow&#45;client cutoff</text>
</g>
<!-- bytesink&#45;&gt;sendq -->
<g id="edge15" class="edge">
<title>bytesink&#45;&gt;sendq</title>
<path fill="none" stroke="#bd8183" stroke-width="2" d="M123.58,-1091.96C135.17,-1086.71 147.85,-1081.61 160,-1078 291.62,-1038.93 328.91,-1046.03 465.5,-1032.12 498.38,-1028.78 583.12,-1035.91 614,-1024.12 637.37,-1015.21 659.48,-998.51 676.76,-982.8"/>
<polygon fill="#bd8183" stroke="#bd8183" stroke-width="2" points="678.77,-985.72 683.64,-976.31 673.97,-980.63 678.77,-985.72"/>
<text xml:space="preserve" text-anchor="middle" x="514.25" y="-1046.08" font-family="Helvetica,sans-Serif" font-size="9.00" fill="#ece1d7">enqueue_framed</text>
<text xml:space="preserve" text-anchor="middle" x="514.25" y="-1034.83" font-family="Helvetica,sans-Serif" font-size="9.00" fill="#ece1d7">(record cadence, ms)</text>
</g>
<!-- qbuf -->
<g id="node13" class="node">
<title>qbuf</title>
<path fill="#4d3a28" stroke="#6e6963" d="M445.78,-990.88C445.78,-990.88 255.38,-990.88 255.38,-990.88 249.38,-990.88 240.3,-985.72 237.23,-980.57 237.23,-980.57 194.37,-908.68 194.37,-908.68 191.29,-903.53 194.22,-898.38 200.22,-898.38 200.22,-898.38 390.62,-898.38 390.62,-898.38 396.62,-898.38 405.7,-903.53 408.77,-908.68 408.77,-908.68 451.63,-980.57 451.63,-980.57 454.71,-985.72 451.78,-990.88 445.78,-990.88"/>
<text xml:space="preserve" text-anchor="middle" x="323" y="-954.25" font-family="Helvetica,sans-Serif" font-size="10.00" fill="#ece1d7">pump&#45;side batch</text>
<text xml:space="preserve" text-anchor="middle" x="323" y="-941.5" font-family="Helvetica,sans-Serif" font-size="10.00" fill="#ece1d7">Vec&lt;Record&lt;&#39;static&gt;&gt;</text>
<text xml:space="preserve" text-anchor="middle" x="323" y="-928.75" font-family="Helvetica,sans-Serif" font-size="10.00" fill="#ece1d7">batch_size = 64</text>
</g>
<!-- qsink&#45;&gt;qbuf -->
<g id="edge12" class="edge">
<title>qsink&#45;&gt;qbuf</title>
<path fill="none" stroke="#c1a78e" d="M374.48,-1085.85C369.22,-1071.51 362.52,-1053.27 355.72,-1034.74"/>
<polygon fill="#c1a78e" stroke="#c1a78e" points="359.07,-1033.73 352.34,-1025.55 352.5,-1036.14 359.07,-1033.73"/>
</g>
<!-- outdir -->
<g id="node20" class="node">
<title>outdir</title>
<polygon fill="#4d3850" stroke="#6e6963" points="590.12,-967.75 493.88,-967.75 493.88,-921.5 596.12,-921.5 596.12,-961.75 590.12,-967.75"/>
<polyline fill="none" stroke="#6e6963" points="590.12,-967.75 590.12,-961.75"/>
<polyline fill="none" stroke="#6e6963" points="596.12,-961.75 590.12,-961.75"/>
<text xml:space="preserve" text-anchor="middle" x="545" y="-954.25" font-family="Helvetica,sans-Serif" font-size="10.00" fill="#ece1d7">out/&lt;seg&gt;</text>
<text xml:space="preserve" text-anchor="middle" x="545" y="-941.5" font-family="Helvetica,sans-Serif" font-size="10.00" fill="#ece1d7">fsynced 16 MiB +</text>
<text xml:space="preserve" text-anchor="middle" x="545" y="-928.75" font-family="Helvetica,sans-Serif" font-size="10.00" fill="#ece1d7">manifest.json</text>
</g>
<!-- segsink&#45;&gt;outdir -->
<g id="edge16" class="edge">
<title>segsink&#45;&gt;outdir</title>
<path fill="none" stroke="#c1a78e" d="M541.53,-1092.07C542.22,-1063.18 543.41,-1012.7 544.2,-979.21"/>
<polygon fill="#c1a78e" stroke="#c1a78e" points="547.69,-979.74 544.43,-969.66 540.69,-979.57 547.69,-979.74"/>
</g>
<!-- qchan -->
<g id="node14" class="node">
<title>qchan</title>
<path fill="#4d3a28" stroke="#6e6963" d="M442.67,-814.62C442.67,-814.62 268.35,-814.62 268.35,-814.62 262.35,-814.62 253.45,-809.37 250.55,-804.12 250.55,-804.12 211.13,-732.63 211.13,-732.63 208.23,-727.38 211.33,-722.12 217.33,-722.12 217.33,-722.12 391.65,-722.12 391.65,-722.12 397.65,-722.12 406.55,-727.38 409.45,-732.63 409.45,-732.63 448.87,-804.12 448.87,-804.12 451.77,-809.37 448.67,-814.62 442.67,-814.62"/>
<text xml:space="preserve" text-anchor="middle" x="330" y="-778" font-family="Helvetica,sans-Serif" font-size="10.00" fill="#ece1d7">unbounded mpsc</text>
<text xml:space="preserve" text-anchor="middle" x="330" y="-765.25" font-family="Helvetica,sans-Serif" font-size="10.00" fill="#ece1d7">in_flight AtomicU64,</text>
<text xml:space="preserve" text-anchor="middle" x="330" y="-752.5" font-family="Helvetica,sans-Serif" font-size="10.00" fill="#ece1d7">soft_cap → yield_now</text>
</g>
<!-- qbuf&#45;&gt;qchan -->
<g id="edge9" class="edge">
<title>qbuf&#45;&gt;qchan</title>
<path fill="none" stroke="#c1a78e" d="M324.82,-898.3C325.7,-876.39 326.77,-849.85 327.7,-826.57"/>
<polygon fill="#c1a78e" stroke="#c1a78e" points="331.2,-826.73 328.1,-816.59 324.2,-826.44 331.2,-826.73"/>
</g>
<!-- qwrk -->
<g id="node15" class="node">
<title>qwrk</title>
<path fill="#4d3a28" stroke="#6e6963" d="M408.75,-671.12C408.75,-671.12 313.25,-671.12 313.25,-671.12 307.25,-671.12 301.25,-665.12 301.25,-659.12 301.25,-659.12 301.25,-636.88 301.25,-636.88 301.25,-630.88 307.25,-624.88 313.25,-624.88 313.25,-624.88 408.75,-624.88 408.75,-624.88 414.75,-624.88 420.75,-630.88 420.75,-636.88 420.75,-636.88 420.75,-659.12 420.75,-659.12 420.75,-665.12 414.75,-671.12 408.75,-671.12"/>
<text xml:space="preserve" text-anchor="middle" x="361" y="-657.62" font-family="Helvetica,sans-Serif" font-size="10.00" fill="#ece1d7">worker task</text>
<text xml:space="preserve" text-anchor="middle" x="361" y="-644.88" font-family="Helvetica,sans-Serif" font-size="10.00" fill="#ece1d7">drain, on_idle ticks,</text>
<text xml:space="preserve" text-anchor="middle" x="361" y="-632.12" font-family="Helvetica,sans-Serif" font-size="10.00" fill="#ece1d7">on_idle_advance(lsn)</text>
</g>
<!-- qchan&#45;&gt;qwrk -->
<g id="edge10" class="edge">
<title>qchan&#45;&gt;qwrk</title>
<path fill="none" stroke="#c1a78e" d="M341.9,-721.95C345.34,-708.8 349.03,-694.7 352.24,-682.44"/>
<polygon fill="#c1a78e" stroke="#c1a78e" points="355.62,-683.35 354.77,-672.79 348.85,-681.58 355.62,-683.35"/>
</g>
<!-- qwrk&#45;&gt;dec -->
<g id="edge21" class="edge">
<title>qwrk&#45;&gt;dec</title>
<path fill="none" stroke="#bf8c5f" stroke-width="2" d="M390.12,-624.54C413.4,-606.59 446.8,-580.83 475.66,-558.57"/>
<polygon fill="#bf8c5f" stroke="#bf8c5f" stroke-width="2" points="477.48,-561.59 483.26,-552.71 473.21,-556.05 477.48,-561.59"/>
<text xml:space="preserve" text-anchor="middle" x="488.88" y="-591.33" font-family="Helvetica,sans-Serif" font-size="9.00" fill="#ece1d7">DecoderXactPair</text>
<text xml:space="preserve" text-anchor="middle" x="488.88" y="-580.08" font-family="Helvetica,sans-Serif" font-size="9.00" fill="#ece1d7">(batched records)</text>
</g>
<!-- qerr -->
<g id="node16" class="node">
<title>qerr</title>
<polygon fill="#4d3a28" stroke="#6e6963" points="423.38,-534.94 292.62,-534.94 292.62,-488.69 429.38,-488.69 429.38,-528.94 423.38,-534.94"/>
<polyline fill="none" stroke="#6e6963" points="423.38,-534.94 423.38,-528.94"/>
<polyline fill="none" stroke="#6e6963" points="429.38,-528.94 423.38,-528.94"/>
<text xml:space="preserve" text-anchor="middle" x="361" y="-521.44" font-family="Helvetica,sans-Serif" font-size="10.00" fill="#ece1d7">shared err slot</text>
<text xml:space="preserve" text-anchor="middle" x="361" y="-508.69" font-family="Helvetica,sans-Serif" font-size="10.00" fill="#ece1d7">(wait_for_replay timeout</text>
<text xml:space="preserve" text-anchor="middle" x="361" y="-495.94" font-family="Helvetica,sans-Serif" font-size="10.00" fill="#ece1d7"> surfaces back to pump)</text>
</g>
<!-- qwrk&#45;&gt;qerr -->
<g id="edge11" class="edge">
<title>qwrk&#45;&gt;qerr</title>
<path fill="none" stroke="#b58b86" stroke-dasharray="5,2" d="M361,-624.54C361,-603.25 361,-571 361,-546.61"/>
<polygon fill="#b58b86" stroke="#b58b86" points="364.5,-546.86 361,-536.86 357.5,-546.86 364.5,-546.86"/>
</g>
<!-- qerr&#45;&gt;qsink -->
<g id="edge13" class="edge">
<title>qerr&#45;&gt;qsink</title>
<path fill="none" stroke="#b58b86" stroke-dasharray="5,2" d="M412.4,-535.34C426.42,-541.18 441.7,-547.26 456,-552.38 492.27,-565.35 503.57,-562.25 539,-577.38 780.14,-680.35 915.79,-664.32 1034,-898.38 1059.2,-948.26 1073.14,-984.23 1034,-1024.12 1025.83,-1032.45 625.34,-1029.39 614,-1032.12 591.88,-1037.47 589.45,-1047.01 568,-1054.62 524.58,-1070.04 510.69,-1063.37 467,-1078 463.78,-1079.08 460.51,-1080.24 457.23,-1081.46"/>
<polygon fill="#b58b86" stroke="#b58b86" points="456.21,-1078.1 448.15,-1084.98 458.74,-1084.63 456.21,-1078.1"/>
<text xml:space="preserve" text-anchor="middle" x="1029.89" y="-776.7" font-family="Helvetica,sans-Serif" font-size="9.00" fill="#ece1d7">next on_record →</text>
<text xml:space="preserve" text-anchor="middle" x="1029.89" y="-765.45" font-family="Helvetica,sans-Serif" font-size="9.00" fill="#ece1d7">Err (real root cause,</text>
<text xml:space="preserve" text-anchor="middle" x="1029.89" y="-754.2" font-family="Helvetica,sans-Serif" font-size="9.00" fill="#ece1d7"> daemon exits clean)</text>
</g>
<!-- listener -->
<g id="node17" class="node">
<title>listener</title>
<path fill="#5d3f40" stroke="#6e6963" d="M797.62,-1151.38C797.62,-1151.38 644.38,-1151.38 644.38,-1151.38 638.38,-1151.38 632.38,-1145.38 632.38,-1139.38 632.38,-1139.38 632.38,-1091.62 632.38,-1091.62 632.38,-1085.62 638.38,-1079.62 644.38,-1079.62 644.38,-1079.62 797.62,-1079.62 797.62,-1079.62 803.62,-1079.62 809.62,-1085.62 809.62,-1091.62 809.62,-1091.62 809.62,-1139.38 809.62,-1139.38 809.62,-1145.38 803.62,-1151.38 797.62,-1151.38"/>
<text xml:space="preserve" text-anchor="middle" x="721" y="-1137.88" font-family="Helvetica,sans-Serif" font-size="10.00" fill="#ece1d7">accept loop</text>
<text xml:space="preserve" text-anchor="middle" x="721" y="-1125.12" font-family="Helvetica,sans-Serif" font-size="10.00" fill="#ece1d7">127.0.0.1 TCP +</text>
<text xml:space="preserve" text-anchor="middle" x="721" y="-1112.38" font-family="Helvetica,sans-Serif" font-size="10.00" fill="#ece1d7">SO_REUSEADDR / unix</text>
<text xml:space="preserve" text-anchor="middle" x="721" y="-1099.62" font-family="Helvetica,sans-Serif" font-size="10.00" fill="#ece1d7">StartupMessage replication=true</text>
<text xml:space="preserve" text-anchor="middle" x="721" y="-1086.88" font-family="Helvetica,sans-Serif" font-size="10.00" fill="#ece1d7">IDENTIFY_SYSTEM cached</text>
</g>
<!-- listener&#45;&gt;sendq -->
<g id="edge14" class="edge">
<title>listener&#45;&gt;sendq</title>
<path fill="none" stroke="#c1a78e" stroke-dasharray="5,2" d="M719.14,-1079.51C717.68,-1052.17 715.65,-1014.15 714.13,-985.61"/>
<polygon fill="#c1a78e" stroke="#c1a78e" points="717.64,-985.71 713.61,-975.91 710.65,-986.08 717.64,-985.71"/>
</g>
<!-- sendq&#45;&gt;shd -->
<g id="edge18" class="edge">
<title>sendq&#45;&gt;shd</title>
<path fill="none" stroke="#bd8183" stroke-width="2" d="M712,-914.85C712,-887.28 712,-845.27 712,-813.48"/>
<polygon fill="#bd8183" stroke="#bd8183" stroke-width="2" points="715.5,-813.57 712,-803.57 708.5,-813.57 715.5,-813.57"/>
<text xml:space="preserve" text-anchor="middle" x="747.25" y="-859.2" font-family="Helvetica,sans-Serif" font-size="9.00" fill="#ece1d7">&#39;w&#39; XLogData</text>
<text xml:space="preserve" text-anchor="middle" x="747.25" y="-847.95" font-family="Helvetica,sans-Serif" font-size="9.00" fill="#ece1d7">record cadence</text>
</g>
<!-- stat&#45;&gt;qwrk -->
<g id="edge22" class="edge">
<title>stat&#45;&gt;qwrk</title>
<path fill="none" stroke="#a1a9cc" stroke-dasharray="1,5" d="M951.08,-1092.18C1001.91,-1026.66 1136.1,-832.52 1037,-722.12 997.09,-677.66 597.44,-657.79 432.07,-651.42"/>
<polygon fill="#a1a9cc" stroke="#a1a9cc" points="432.68,-647.94 422.56,-651.06 432.42,-654.94 432.68,-647.94"/>
<text xml:space="preserve" text-anchor="middle" x="1124.64" y="-864.83" font-family="Helvetica,sans-Serif" font-size="9.00" fill="#ece1d7">apply_lsn →</text>
<text xml:space="preserve" text-anchor="middle" x="1124.64" y="-853.58" font-family="Helvetica,sans-Serif" font-size="9.00" fill="#ece1d7">unblock wait_for_replay</text>
<text xml:space="preserve" text-anchor="middle" x="1124.64" y="-842.33" font-family="Helvetica,sans-Serif" font-size="9.00" fill="#ece1d7">(catalog gate)</text>
</g>
<!-- outdir&#45;&gt;shd -->
<g id="edge20" class="edge">
<title>outdir&#45;&gt;shd</title>
<path fill="none" stroke="#6e6963" stroke-dasharray="5,2" d="M572.55,-921.19C584.34,-912.72 598.68,-903.81 613,-898.38 650.55,-884.12 765.64,-903.68 792,-873.38 810.58,-852.02 792.28,-826.9 768.52,-806.7"/>
<polygon fill="#6e6963" stroke="#6e6963" points="770.74,-803.99 760.76,-800.44 766.35,-809.44 770.74,-803.99"/>
<text xml:space="preserve" text-anchor="middle" x="840.5" y="-859.2" font-family="Helvetica,sans-Serif" font-size="9.00" fill="#ece1d7">restore_command</text>
<text xml:space="preserve" text-anchor="middle" x="840.5" y="-847.95" font-family="Helvetica,sans-Serif" font-size="9.00" fill="#ece1d7">(archive fallback)</text>
</g>
</g>
</svg>
