<?xml version="1.0" encoding="UTF-8" standalone="no"?>
<!DOCTYPE svg PUBLIC "-//W3C//DTD SVG 1.1//EN"
 "http://www.w3.org/Graphics/SVG/1.1/DTD/svg11.dtd">
<!-- Generated by graphviz version 15.1.0 (20260618.0150)
 -->
<!-- Title: timeline_restart Pages: 1 -->
<svg width="1242pt" height="1221pt"
 viewBox="0.00 0.00 1242.00 1221.00" xmlns="http://www.w3.org/2000/svg" xmlns:xlink="http://www.w3.org/1999/xlink">
<g id="graph0" class="graph" transform="scale(1 1) rotate(0) translate(4 1217.4)">
<title>timeline_restart</title>
<polygon fill="#272623" stroke="none" points="-4,4 -4,-1217.4 1238.43,-1217.4 1238.43,4 -4,4"/>
<text xml:space="preserve" text-anchor="middle" x="617.22" y="-1196.8" font-family="Helvetica,sans-Serif" font-size="14.00" fill="#ece1d7">walshadow restart timelines — 3 scenarios, time flows top → bottom within each column</text>
<g id="clust1" class="cluster">
<title>cluster_a</title>
<path fill="#34302c" stroke="#a1a9cc" d="M20,-330C20,-330 393,-330 393,-330 399,-330 405,-336 405,-342 405,-342 405,-1168.6 405,-1168.6 405,-1174.6 399,-1180.6 393,-1180.6 393,-1180.6 20,-1180.6 20,-1180.6 14,-1180.6 8,-1174.6 8,-1168.6 8,-1168.6 8,-342 8,-342 8,-336 14,-330 20,-330"/>
<text xml:space="preserve" text-anchor="middle" x="206.5" y="-1164" font-family="Helvetica,sans-Serif" font-size="14.00" fill="#ece1d7">A. clean restart &#160;(SIGTERM, saved restart point still available)</text>
</g>
<g id="clust2" class="cluster">
<title>cluster_b</title>
<path fill="#34302c" stroke="#cba85e" d="M425,-330C425,-330 758,-330 758,-330 764,-330 770,-336 770,-342 770,-342 770,-1074.8 770,-1074.8 770,-1080.8 764,-1086.8 758,-1086.8 758,-1086.8 425,-1086.8 425,-1086.8 419,-1086.8 413,-1080.8 413,-1074.8 413,-1074.8 413,-342 413,-342 413,-336 419,-330 425,-330"/>
<text xml:space="preserve" text-anchor="middle" x="591.5" y="-1070.2" font-family="Helvetica,sans-Serif" font-size="14.00" fill="#ece1d7">B. kill &#45;9 mid&#45;stream &#160;(last saved manifest authoritative)</text>
</g>
<g id="clust3" class="cluster">
<title>cluster_c</title>
<path fill="#34302c" stroke="#bd8183" d="M790,-403C790,-403 1197,-403 1197,-403 1203,-403 1209,-409 1209,-415 1209,-415 1209,-981 1209,-981 1209,-987 1203,-993 1197,-993 1197,-993 790,-993 790,-993 784,-993 778,-987 778,-981 778,-981 778,-415 778,-415 778,-409 784,-403 790,-403"/>
<text xml:space="preserve" text-anchor="middle" x="993.5" y="-976.4" font-family="Helvetica,sans-Serif" font-size="14.00" fill="#ece1d7">C. restart recovery &#160;(source → archive → source)</text>
</g>
<!-- a0 -->
<g id="node1" class="node">
<title>a0</title>
<path fill="#403a36" stroke="#6e6963" d="M385.4,-1147.8C385.4,-1147.8 236.6,-1147.8 236.6,-1147.8 230.6,-1147.8 224.6,-1141.8 224.6,-1135.8 224.6,-1135.8 224.6,-1123.8 224.6,-1123.8 224.6,-1117.8 230.6,-1111.8 236.6,-1111.8 236.6,-1111.8 385.4,-1111.8 385.4,-1111.8 391.4,-1111.8 397.4,-1117.8 397.4,-1123.8 397.4,-1123.8 397.4,-1135.8 397.4,-1135.8 397.4,-1141.8 391.4,-1147.8 385.4,-1147.8"/>
<text xml:space="preserve" text-anchor="middle" x="311" y="-1126.8" font-family="Helvetica,sans-Serif" font-size="10.00" fill="#ece1d7">① SIGTERM</text>
</g>
<!-- a1 -->
<g id="node2" class="node">
<title>a1</title>
<path fill="#4d3340" stroke="#6e6963" d="M384.4,-1054C384.4,-1054 235.6,-1054 235.6,-1054 229.6,-1054 223.6,-1048 223.6,-1042 223.6,-1042 223.6,-1030 223.6,-1030 223.6,-1024 229.6,-1018 235.6,-1018 235.6,-1018 384.4,-1018 384.4,-1018 390.4,-1018 396.4,-1024 396.4,-1030 396.4,-1030 396.4,-1042 396.4,-1042 396.4,-1048 390.4,-1054 384.4,-1054"/>
<text xml:space="preserve" text-anchor="middle" x="310" y="-1033" font-family="Helvetica,sans-Serif" font-size="10.00" fill="#ece1d7">② save partial WAL segment</text>
</g>
<!-- a0&#45;&gt;a1 -->
<g id="edge1" class="edge">
<title>a0&#45;&gt;a1</title>
<path fill="none" stroke="#c1a78e" d="M310.81,-1111.53C310.66,-1097.94 310.46,-1078.77 310.29,-1063.28"/>
<polygon fill="#c1a78e" stroke="#c1a78e" points="313.09,-1063.67 310.2,-1055.7 307.49,-1063.73 313.09,-1063.67"/>
</g>
<!-- b0 -->
<g id="node11" class="node">
<title>b0</title>
<path fill="#403a36" stroke="#6e6963" d="M665.4,-1054C665.4,-1054 516.6,-1054 516.6,-1054 510.6,-1054 504.6,-1048 504.6,-1042 504.6,-1042 504.6,-1030 504.6,-1030 504.6,-1024 510.6,-1018 516.6,-1018 516.6,-1018 665.4,-1018 665.4,-1018 671.4,-1018 677.4,-1024 677.4,-1030 677.4,-1030 677.4,-1042 677.4,-1042 677.4,-1048 671.4,-1054 665.4,-1054"/>
<text xml:space="preserve" text-anchor="middle" x="591" y="-1033" font-family="Helvetica,sans-Serif" font-size="10.00" fill="#ece1d7">① kill &#45;9 (no drain)</text>
</g>
<!-- a0&#45;&gt;b0 -->
<!-- a2 -->
<g id="node3" class="node">
<title>a2</title>
<path fill="#4d3a28" stroke="#6e6963" d="M380.4,-950.2C380.4,-950.2 231.6,-950.2 231.6,-950.2 225.6,-950.2 219.6,-944.2 219.6,-938.2 219.6,-938.2 219.6,-926.2 219.6,-926.2 219.6,-920.2 225.6,-914.2 231.6,-914.2 231.6,-914.2 380.4,-914.2 380.4,-914.2 386.4,-914.2 392.4,-920.2 392.4,-926.2 392.4,-926.2 392.4,-938.2 392.4,-938.2 392.4,-944.2 386.4,-950.2 380.4,-950.2"/>
<text xml:space="preserve" text-anchor="middle" x="306" y="-935.2" font-family="Helvetica,sans-Serif" font-size="10.00" fill="#ece1d7">③ drain queued work</text>
<text xml:space="preserve" text-anchor="middle" x="306" y="-923.2" font-family="Helvetica,sans-Serif" font-size="10.00" fill="#ece1d7">and finish ClickHouse writes</text>
</g>
<!-- a1&#45;&gt;a2 -->
<g id="edge2" class="edge">
<title>a1&#45;&gt;a2</title>
<path fill="none" stroke="#c1a78e" d="M309.32,-1017.73C308.7,-1001.86 307.76,-978.1 307.05,-959.81"/>
<polygon fill="#c1a78e" stroke="#c1a78e" points="309.85,-959.95 306.74,-952.07 304.26,-960.17 309.85,-959.95"/>
</g>
<!-- a3 -->
<g id="node4" class="node">
<title>a3</title>
<path fill="#4d3a28" stroke="#6e6963" d="M378.4,-867.2C378.4,-867.2 229.6,-867.2 229.6,-867.2 223.6,-867.2 217.6,-861.2 217.6,-855.2 217.6,-855.2 217.6,-843.2 217.6,-843.2 217.6,-837.2 223.6,-831.2 229.6,-831.2 229.6,-831.2 378.4,-831.2 378.4,-831.2 384.4,-831.2 390.4,-837.2 390.4,-843.2 390.4,-843.2 390.4,-855.2 390.4,-855.2 390.4,-861.2 384.4,-867.2 378.4,-867.2"/>
<text xml:space="preserve" text-anchor="middle" x="304" y="-852.2" font-family="Helvetica,sans-Serif" font-size="10.00" fill="#ece1d7">④ latest manifest remains</text>
<text xml:space="preserve" text-anchor="middle" x="304" y="-840.2" font-family="Helvetica,sans-Serif" font-size="10.00" fill="#ece1d7">conservative restart point</text>
</g>
<!-- a2&#45;&gt;a3 -->
<g id="edge3" class="edge">
<title>a2&#45;&gt;a3</title>
<path fill="none" stroke="#c1a78e" d="M305.58,-914.02C305.31,-903.25 304.96,-889.14 304.66,-876.92"/>
<polygon fill="#c1a78e" stroke="#c1a78e" points="307.46,-877.07 304.47,-869.15 301.87,-877.21 307.46,-877.07"/>
</g>
<!-- a4 -->
<g id="node5" class="node">
<title>a4</title>
<path fill="#403a36" stroke="#6e6963" d="M377.4,-780.4C377.4,-780.4 228.6,-780.4 228.6,-780.4 222.6,-780.4 216.6,-774.4 216.6,-768.4 216.6,-768.4 216.6,-756.4 216.6,-756.4 216.6,-750.4 222.6,-744.4 228.6,-744.4 228.6,-744.4 377.4,-744.4 377.4,-744.4 383.4,-744.4 389.4,-750.4 389.4,-756.4 389.4,-756.4 389.4,-768.4 389.4,-768.4 389.4,-774.4 383.4,-780.4 377.4,-780.4"/>
<text xml:space="preserve" text-anchor="middle" x="303" y="-759.4" font-family="Helvetica,sans-Serif" font-size="10.00" fill="#ece1d7">⑤ process exit</text>
</g>
<!-- a3&#45;&gt;a4 -->
<g id="edge4" class="edge">
<title>a3&#45;&gt;a4</title>
<path fill="none" stroke="#c1a78e" d="M303.8,-831.04C303.66,-819.28 303.47,-803.44 303.31,-790.05"/>
<polygon fill="#c1a78e" stroke="#c1a78e" points="306.12,-790.31 303.22,-782.34 300.52,-790.37 306.12,-790.31"/>
</g>
<!-- a5 -->
<g id="node6" class="node">
<title>a5</title>
<path fill="#4d3a28" stroke="#6e6963" d="M383.62,-697.6C383.62,-697.6 222.38,-697.6 222.38,-697.6 216.38,-697.6 210.38,-691.6 210.38,-685.6 210.38,-685.6 210.38,-653.6 210.38,-653.6 210.38,-647.6 216.38,-641.6 222.38,-641.6 222.38,-641.6 383.62,-641.6 383.62,-641.6 389.62,-641.6 395.62,-647.6 395.62,-653.6 395.62,-653.6 395.62,-685.6 395.62,-685.6 395.62,-691.6 389.62,-697.6 383.62,-697.6"/>
<text xml:space="preserve" text-anchor="middle" x="303" y="-684.6" font-family="Helvetica,sans-Serif" font-size="10.00" fill="#ece1d7">⑥ restart:</text>
<text xml:space="preserve" text-anchor="middle" x="303" y="-672.6" font-family="Helvetica,sans-Serif" font-size="10.00" fill="#ece1d7">check source identity</text>
<text xml:space="preserve" text-anchor="middle" x="303" y="-660.6" font-family="Helvetica,sans-Serif" font-size="10.00" fill="#ece1d7">load manifest.toml + toast_retires.toml</text>
<text xml:space="preserve" text-anchor="middle" x="303" y="-648.6" font-family="Helvetica,sans-Serif" font-size="10.00" fill="#ece1d7">resume from saved point</text>
</g>
<!-- a4&#45;&gt;a5 -->
<g id="edge5" class="edge">
<title>a4&#45;&gt;a5</title>
<path fill="none" stroke="#c1a78e" d="M303,-744.32C303,-733.92 303,-720.23 303,-707.46"/>
<polygon fill="#c1a78e" stroke="#c1a78e" points="305.8,-707.47 303,-699.47 300.2,-707.47 305.8,-707.47"/>
</g>
<!-- a6 -->
<g id="node7" class="node">
<title>a6</title>
<path fill="#3d4128" stroke="#6e6963" d="M377.4,-598.8C377.4,-598.8 228.6,-598.8 228.6,-598.8 222.6,-598.8 216.6,-592.8 216.6,-586.8 216.6,-586.8 216.6,-574.8 216.6,-574.8 216.6,-568.8 222.6,-562.8 228.6,-562.8 228.6,-562.8 377.4,-562.8 377.4,-562.8 383.4,-562.8 389.4,-568.8 389.4,-574.8 389.4,-574.8 389.4,-586.8 389.4,-586.8 389.4,-592.8 383.4,-598.8 377.4,-598.8"/>
<text xml:space="preserve" text-anchor="middle" x="303" y="-583.8" font-family="Helvetica,sans-Serif" font-size="10.00" fill="#ece1d7">⑦ Shadow::start in recovery mode</text>
<text xml:space="preserve" text-anchor="middle" x="303" y="-571.8" font-family="Helvetica,sans-Serif" font-size="10.00" fill="#ece1d7">(if not already running)</text>
</g>
<!-- a5&#45;&gt;a6 -->
<g id="edge6" class="edge">
<title>a5&#45;&gt;a6</title>
<path fill="none" stroke="#c1a78e" d="M303,-641.14C303,-630.75 303,-618.94 303,-608.62"/>
<polygon fill="#c1a78e" stroke="#c1a78e" points="305.8,-608.77 303,-600.77 300.2,-608.77 305.8,-608.77"/>
</g>
<!-- a7 -->
<g id="node8" class="node">
<title>a7</title>
<path fill="#4d3340" stroke="#6e6963" d="M377.4,-520C377.4,-520 228.6,-520 228.6,-520 222.6,-520 216.6,-514 216.6,-508 216.6,-508 216.6,-496 216.6,-496 216.6,-490 222.6,-484 228.6,-484 228.6,-484 377.4,-484 377.4,-484 383.4,-484 389.4,-490 389.4,-496 389.4,-496 389.4,-508 389.4,-508 389.4,-514 383.4,-520 377.4,-520"/>
<text xml:space="preserve" text-anchor="middle" x="303" y="-505" font-family="Helvetica,sans-Serif" font-size="10.00" fill="#ece1d7">⑧ walsender listener up</text>
<text xml:space="preserve" text-anchor="middle" x="303" y="-493" font-family="Helvetica,sans-Serif" font-size="10.00" fill="#ece1d7">before walreceiver connects</text>
</g>
<!-- a6&#45;&gt;a7 -->
<g id="edge7" class="edge">
<title>a6&#45;&gt;a7</title>
<path fill="none" stroke="#c1a78e" d="M303,-562.37C303,-552.75 303,-540.59 303,-529.79"/>
<polygon fill="#c1a78e" stroke="#c1a78e" points="305.8,-529.87 303,-521.87 300.2,-529.87 305.8,-529.87"/>
</g>
<!-- a8 -->
<g id="node9" class="node">
<title>a8</title>
<path fill="#4d3a28" stroke="#6e6963" d="M377.4,-447C377.4,-447 228.6,-447 228.6,-447 222.6,-447 216.6,-441 216.6,-435 216.6,-435 216.6,-423 216.6,-423 216.6,-417 222.6,-411 228.6,-411 228.6,-411 377.4,-411 377.4,-411 383.4,-411 389.4,-417 389.4,-423 389.4,-423 389.4,-435 389.4,-435 389.4,-441 383.4,-447 377.4,-447"/>
<text xml:space="preserve" text-anchor="middle" x="303" y="-432" font-family="Helvetica,sans-Serif" font-size="10.00" fill="#ece1d7">⑨ resume source WAL stream</text>
<text xml:space="preserve" text-anchor="middle" x="303" y="-420" font-family="Helvetica,sans-Serif" font-size="10.00" fill="#ece1d7">from saved point</text>
</g>
<!-- a7&#45;&gt;a8 -->
<g id="edge8" class="edge">
<title>a7&#45;&gt;a8</title>
<path fill="none" stroke="#c1a78e" d="M303,-483.81C303,-475.62 303,-465.62 303,-456.48"/>
<polygon fill="#c1a78e" stroke="#c1a78e" points="305.8,-456.54 303,-448.54 300.2,-456.54 305.8,-456.54"/>
</g>
<!-- a9 -->
<g id="node10" class="node">
<title>a9</title>
<path fill="#4d4128" stroke="#6e6963" d="M384.6,-374C384.6,-374 221.4,-374 221.4,-374 215.4,-374 209.4,-368 209.4,-362 209.4,-362 209.4,-350 209.4,-350 209.4,-344 215.4,-338 221.4,-338 221.4,-338 384.6,-338 384.6,-338 390.6,-338 396.6,-344 396.6,-350 396.6,-350 396.6,-362 396.6,-362 396.6,-368 390.6,-374 384.6,-374"/>
<text xml:space="preserve" text-anchor="middle" x="303" y="-359" font-family="Helvetica,sans-Serif" font-size="10.00" fill="#ece1d7">⑩ records re&#45;flow</text>
<text xml:space="preserve" text-anchor="middle" x="303" y="-347" font-family="Helvetica,sans-Serif" font-size="10.00" fill="#ece1d7">CH ReplacingMergeTree(_lsn) dedups</text>
</g>
<!-- a8&#45;&gt;a9 -->
<g id="edge9" class="edge">
<title>a8&#45;&gt;a9</title>
<path fill="none" stroke="#c1a78e" d="M303,-410.81C303,-402.62 303,-392.62 303,-383.48"/>
<polygon fill="#c1a78e" stroke="#c1a78e" points="305.8,-383.54 303,-375.54 300.2,-383.54 305.8,-383.54"/>
</g>
<!-- manifest -->
<g id="node28" class="node">
<title>manifest</title>
<polygon fill="#4d3850" stroke="#6e6963" points="672.07,-305 503.93,-305 503.93,-261 678.07,-261 678.07,-299 672.07,-305"/>
<polyline fill="none" stroke="#6e6963" points="672.07,-305 672.07,-299"/>
<polyline fill="none" stroke="#6e6963" points="678.07,-299 672.07,-299"/>
<text xml:space="preserve" text-anchor="middle" x="591" y="-292" font-family="Helvetica,sans-Serif" font-size="10.00" fill="#ece1d7">manifest.toml</text>
<text xml:space="preserve" text-anchor="middle" x="591" y="-280" font-family="Helvetica,sans-Serif" font-size="10.00" fill="#ece1d7">source identity + saved restart point</text>
<text xml:space="preserve" text-anchor="middle" x="591" y="-268" font-family="Helvetica,sans-Serif" font-size="10.00" fill="#ece1d7">recent pipeline progress</text>
</g>
<!-- a9&#45;&gt;manifest -->
<!-- b1 -->
<g id="node12" class="node">
<title>b1</title>
<path fill="#4d3a28" stroke="#6e6963" d="M686.48,-954.2C686.48,-954.2 495.52,-954.2 495.52,-954.2 489.52,-954.2 483.52,-948.2 483.52,-942.2 483.52,-942.2 483.52,-922.2 483.52,-922.2 483.52,-916.2 489.52,-910.2 495.52,-910.2 495.52,-910.2 686.48,-910.2 686.48,-910.2 692.48,-910.2 698.48,-916.2 698.48,-922.2 698.48,-922.2 698.48,-942.2 698.48,-942.2 698.48,-948.2 692.48,-954.2 686.48,-954.2"/>
<text xml:space="preserve" text-anchor="middle" x="591" y="-941.2" font-family="Helvetica,sans-Serif" font-size="10.00" fill="#ece1d7">② OS reaps process</text>
<text xml:space="preserve" text-anchor="middle" x="591" y="-929.2" font-family="Helvetica,sans-Serif" font-size="10.00" fill="#ece1d7">memory lost; last complete manifest survives</text>
<text xml:space="preserve" text-anchor="middle" x="591" y="-917.2" font-family="Helvetica,sans-Serif" font-size="10.00" fill="#ece1d7">partial manifest write ignored</text>
</g>
<!-- b0&#45;&gt;b1 -->
<g id="edge10" class="edge">
<title>b0&#45;&gt;b1</title>
<path fill="none" stroke="#c1a78e" d="M591,-1017.73C591,-1002.99 591,-981.43 591,-963.78"/>
<polygon fill="#c1a78e" stroke="#c1a78e" points="593.8,-963.96 591,-955.96 588.2,-963.96 593.8,-963.96"/>
</g>
<!-- c0 -->
<g id="node20" class="node">
<title>c0</title>
<path fill="#403a36" stroke="#6e6963" d="M1018.49,-960.2C1018.49,-960.2 797.51,-960.2 797.51,-960.2 791.51,-960.2 785.51,-954.2 785.51,-948.2 785.51,-948.2 785.51,-916.2 785.51,-916.2 785.51,-910.2 791.51,-904.2 797.51,-904.2 797.51,-904.2 1018.49,-904.2 1018.49,-904.2 1024.49,-904.2 1030.49,-910.2 1030.49,-916.2 1030.49,-916.2 1030.49,-948.2 1030.49,-948.2 1030.49,-954.2 1024.49,-960.2 1018.49,-960.2"/>
<text xml:space="preserve" text-anchor="middle" x="908" y="-947.2" font-family="Helvetica,sans-Serif" font-size="10.00" fill="#ece1d7">① restart: initialized shadow (no incomplete marker)</text>
<text xml:space="preserve" text-anchor="middle" x="908" y="-935.2" font-family="Helvetica,sans-Serif" font-size="10.00" fill="#ece1d7">→ resume in place, never base backup</text>
<text xml:space="preserve" text-anchor="middle" x="908" y="-923.2" font-family="Helvetica,sans-Serif" font-size="10.00" fill="#ece1d7">resume_lsn = manifest end_lsn (after bootstrap)</text>
<text xml:space="preserve" text-anchor="middle" x="908" y="-911.2" font-family="Helvetica,sans-Serif" font-size="10.00" fill="#ece1d7">or &#45;&#45;start&#45;lsn</text>
</g>
<!-- b0&#45;&gt;c0 -->
<!-- b2 -->
<g id="node13" class="node">
<title>b2</title>
<path fill="#4d3a28" stroke="#6e6963" d="M665.4,-871.2C665.4,-871.2 516.6,-871.2 516.6,-871.2 510.6,-871.2 504.6,-865.2 504.6,-859.2 504.6,-859.2 504.6,-839.2 504.6,-839.2 504.6,-833.2 510.6,-827.2 516.6,-827.2 516.6,-827.2 665.4,-827.2 665.4,-827.2 671.4,-827.2 677.4,-833.2 677.4,-839.2 677.4,-839.2 677.4,-859.2 677.4,-859.2 677.4,-865.2 671.4,-871.2 665.4,-871.2"/>
<text xml:space="preserve" text-anchor="middle" x="591" y="-858.2" font-family="Helvetica,sans-Serif" font-size="10.00" fill="#ece1d7">③ restart:</text>
<text xml:space="preserve" text-anchor="middle" x="591" y="-846.2" font-family="Helvetica,sans-Serif" font-size="10.00" fill="#ece1d7">clear transaction spill files</text>
<text xml:space="preserve" text-anchor="middle" x="591" y="-834.2" font-family="Helvetica,sans-Serif" font-size="10.00" fill="#ece1d7">keep toast_retires.toml</text>
</g>
<!-- b1&#45;&gt;b2 -->
<g id="edge11" class="edge">
<title>b1&#45;&gt;b2</title>
<path fill="none" stroke="#c1a78e" d="M591,-909.92C591,-901.06 591,-890.6 591,-880.94"/>
<polygon fill="#c1a78e" stroke="#c1a78e" points="593.8,-881.13 591,-873.13 588.2,-881.13 593.8,-881.13"/>
</g>
<!-- b3 -->
<g id="node14" class="node">
<title>b3</title>
<path fill="#4d3a28" stroke="#6e6963" d="M665.4,-784.4C665.4,-784.4 516.6,-784.4 516.6,-784.4 510.6,-784.4 504.6,-778.4 504.6,-772.4 504.6,-772.4 504.6,-752.4 504.6,-752.4 504.6,-746.4 510.6,-740.4 516.6,-740.4 516.6,-740.4 665.4,-740.4 665.4,-740.4 671.4,-740.4 677.4,-746.4 677.4,-752.4 677.4,-752.4 677.4,-772.4 677.4,-772.4 677.4,-778.4 671.4,-784.4 665.4,-784.4"/>
<text xml:space="preserve" text-anchor="middle" x="591" y="-771.4" font-family="Helvetica,sans-Serif" font-size="10.00" fill="#ece1d7">④ check source identity</text>
<text xml:space="preserve" text-anchor="middle" x="591" y="-759.4" font-family="Helvetica,sans-Serif" font-size="10.00" fill="#ece1d7">resume from saved restart point</text>
<text xml:space="preserve" text-anchor="middle" x="591" y="-747.4" font-family="Helvetica,sans-Serif" font-size="10.00" fill="#ece1d7">flush safe mirror retirements</text>
</g>
<!-- b2&#45;&gt;b3 -->
<g id="edge12" class="edge">
<title>b2&#45;&gt;b3</title>
<path fill="none" stroke="#c1a78e" d="M591,-826.8C591,-816.86 591,-804.85 591,-793.98"/>
<polygon fill="#c1a78e" stroke="#c1a78e" points="593.8,-794.31 591,-786.31 588.2,-794.31 593.8,-794.31"/>
</g>
<!-- b4 -->
<g id="node15" class="node">
<title>b4</title>
<path fill="#3d4128" stroke="#6e6963" d="M665.4,-687.6C665.4,-687.6 516.6,-687.6 516.6,-687.6 510.6,-687.6 504.6,-681.6 504.6,-675.6 504.6,-675.6 504.6,-663.6 504.6,-663.6 504.6,-657.6 510.6,-651.6 516.6,-651.6 516.6,-651.6 665.4,-651.6 665.4,-651.6 671.4,-651.6 677.4,-657.6 677.4,-663.6 677.4,-663.6 677.4,-675.6 677.4,-675.6 677.4,-681.6 671.4,-687.6 665.4,-687.6"/>
<text xml:space="preserve" text-anchor="middle" x="591" y="-672.6" font-family="Helvetica,sans-Serif" font-size="10.00" fill="#ece1d7">⑤ shadow PG recovers on its own</text>
<text xml:space="preserve" text-anchor="middle" x="591" y="-660.6" font-family="Helvetica,sans-Serif" font-size="10.00" fill="#ece1d7">walreceiver retry timer</text>
</g>
<!-- b3&#45;&gt;b4 -->
<g id="edge13" class="edge">
<title>b3&#45;&gt;b4</title>
<path fill="none" stroke="#c1a78e" d="M591,-740.34C591,-727.52 591,-711.04 591,-697.31"/>
<polygon fill="#c1a78e" stroke="#c1a78e" points="593.8,-697.41 591,-689.41 588.2,-697.41 593.8,-697.41"/>
</g>
<!-- b5 -->
<g id="node16" class="node">
<title>b5</title>
<path fill="#3d4128" stroke="#6e6963" d="M675.36,-598.8C675.36,-598.8 506.64,-598.8 506.64,-598.8 500.64,-598.8 494.64,-592.8 494.64,-586.8 494.64,-586.8 494.64,-574.8 494.64,-574.8 494.64,-568.8 500.64,-562.8 506.64,-562.8 506.64,-562.8 675.36,-562.8 675.36,-562.8 681.36,-562.8 687.36,-568.8 687.36,-574.8 687.36,-574.8 687.36,-586.8 687.36,-586.8 687.36,-592.8 681.36,-598.8 675.36,-598.8"/>
<text xml:space="preserve" text-anchor="middle" x="591" y="-583.8" font-family="Helvetica,sans-Serif" font-size="10.00" fill="#ece1d7">⑥ shadow asks START_REPLICATION</text>
<text xml:space="preserve" text-anchor="middle" x="591" y="-571.8" font-family="Helvetica,sans-Serif" font-size="10.00" fill="#ece1d7">PHYSICAL &lt;its flush_lsn&gt;</text>
</g>
<!-- b4&#45;&gt;b5 -->
<g id="edge14" class="edge">
<title>b4&#45;&gt;b5</title>
<path fill="none" stroke="#c1a78e" d="M591,-651.45C591,-639.17 591,-622.39 591,-608.38"/>
<polygon fill="#c1a78e" stroke="#c1a78e" points="593.8,-608.72 591,-600.72 588.2,-608.72 593.8,-608.72"/>
</g>
<!-- b6 -->
<g id="node17" class="node">
<title>b6</title>
<path fill="#4d3a28" stroke="#6e6963" d="M671.48,-520C671.48,-520 510.52,-520 510.52,-520 504.52,-520 498.52,-514 498.52,-508 498.52,-508 498.52,-496 498.52,-496 498.52,-490 504.52,-484 510.52,-484 510.52,-484 671.48,-484 671.48,-484 677.48,-484 683.48,-490 683.48,-496 683.48,-496 683.48,-508 683.48,-508 683.48,-514 677.48,-520 671.48,-520"/>
<text xml:space="preserve" text-anchor="middle" x="591" y="-505" font-family="Helvetica,sans-Serif" font-size="10.00" fill="#ece1d7">⑦ resume source from saved point</text>
<text xml:space="preserve" text-anchor="middle" x="591" y="-493" font-family="Helvetica,sans-Serif" font-size="10.00" fill="#ece1d7">resume shadow from its own progress</text>
</g>
<!-- b5&#45;&gt;b6 -->
<g id="edge15" class="edge">
<title>b5&#45;&gt;b6</title>
<path fill="none" stroke="#c1a78e" d="M591,-562.37C591,-552.75 591,-540.59 591,-529.79"/>
<polygon fill="#c1a78e" stroke="#c1a78e" points="593.8,-529.87 591,-521.87 588.2,-529.87 593.8,-529.87"/>
</g>
<!-- b7 -->
<g id="node18" class="node">
<title>b7</title>
<path fill="#4d4128" stroke="#6e6963" d="M665.4,-451C665.4,-451 516.6,-451 516.6,-451 510.6,-451 504.6,-445 504.6,-439 504.6,-439 504.6,-419 504.6,-419 504.6,-413 510.6,-407 516.6,-407 516.6,-407 665.4,-407 665.4,-407 671.4,-407 677.4,-413 677.4,-419 677.4,-419 677.4,-439 677.4,-439 677.4,-445 671.4,-451 665.4,-451"/>
<text xml:space="preserve" text-anchor="middle" x="591" y="-438" font-family="Helvetica,sans-Serif" font-size="10.00" fill="#ece1d7">⑧ overlap records replayed</text>
<text xml:space="preserve" text-anchor="middle" x="591" y="-426" font-family="Helvetica,sans-Serif" font-size="10.00" fill="#ece1d7">CH dedups on _lsn</text>
<text xml:space="preserve" text-anchor="middle" x="591" y="-414" font-family="Helvetica,sans-Serif" font-size="10.00" fill="#ece1d7">shadow apply monotonic</text>
</g>
<!-- b6&#45;&gt;b7 -->
<g id="edge16" class="edge">
<title>b6&#45;&gt;b7</title>
<path fill="none" stroke="#c1a78e" d="M591,-483.81C591,-476.87 591,-468.64 591,-460.73"/>
<polygon fill="#c1a78e" stroke="#c1a78e" points="593.8,-460.86 591,-452.86 588.2,-460.86 593.8,-460.86"/>
</g>
<!-- b8 -->
<g id="node19" class="node">
<title>b8</title>
<path fill="#4d3a28" stroke="#6e6963" d="M665.4,-374C665.4,-374 516.6,-374 516.6,-374 510.6,-374 504.6,-368 504.6,-362 504.6,-362 504.6,-350 504.6,-350 504.6,-344 510.6,-338 516.6,-338 516.6,-338 665.4,-338 665.4,-338 671.4,-338 677.4,-344 677.4,-350 677.4,-350 677.4,-362 677.4,-362 677.4,-368 671.4,-374 665.4,-374"/>
<text xml:space="preserve" text-anchor="middle" x="591" y="-353" font-family="Helvetica,sans-Serif" font-size="10.00" fill="#ece1d7">⑨ steady&#45;state reached</text>
</g>
<!-- b7&#45;&gt;b8 -->
<g id="edge17" class="edge">
<title>b7&#45;&gt;b8</title>
<path fill="none" stroke="#c1a78e" d="M591,-406.7C591,-399.54 591,-391.46 591,-383.93"/>
<polygon fill="#c1a78e" stroke="#c1a78e" points="593.8,-383.98 591,-375.98 588.2,-383.98 593.8,-383.98"/>
</g>
<!-- b8&#45;&gt;manifest -->
<!-- c1 -->
<g id="node21" class="node">
<title>c1</title>
<path fill="#4d3a28" stroke="#6e6963" d="M1057.86,-867.2C1057.86,-867.2 884.14,-867.2 884.14,-867.2 878.14,-867.2 872.14,-861.2 872.14,-855.2 872.14,-855.2 872.14,-843.2 872.14,-843.2 872.14,-837.2 878.14,-831.2 884.14,-831.2 884.14,-831.2 1057.86,-831.2 1057.86,-831.2 1063.86,-831.2 1069.86,-837.2 1069.86,-843.2 1069.86,-843.2 1069.86,-855.2 1069.86,-855.2 1069.86,-861.2 1063.86,-867.2 1057.86,-867.2"/>
<text xml:space="preserve" text-anchor="middle" x="971" y="-852.2" font-family="Helvetica,sans-Serif" font-size="10.00" fill="#ece1d7">② START_REPLICATION at resume_lsn</text>
<text xml:space="preserve" text-anchor="middle" x="971" y="-840.2" font-family="Helvetica,sans-Serif" font-size="10.00" fill="#ece1d7">(stream.next_lsn)</text>
</g>
<!-- c0&#45;&gt;c1 -->
<g id="edge18" class="edge">
<title>c0&#45;&gt;c1</title>
<path fill="none" stroke="#c1a78e" d="M929.33,-903.78C936.58,-894.45 944.64,-884.1 951.72,-874.99"/>
<polygon fill="#c1a78e" stroke="#c1a78e" points="953.77,-876.92 956.47,-868.88 949.35,-873.48 953.77,-876.92"/>
</g>
<!-- c2 -->
<g id="node22" class="node">
<title>c2</title>
<path fill="#4d3a28" stroke="#6e6963" d="M953.7,-780.4C953.7,-780.4 798.3,-780.4 798.3,-780.4 792.3,-780.4 786.3,-774.4 786.3,-768.4 786.3,-768.4 786.3,-756.4 786.3,-756.4 786.3,-750.4 792.3,-744.4 798.3,-744.4 798.3,-744.4 953.7,-744.4 953.7,-744.4 959.7,-744.4 965.7,-750.4 965.7,-756.4 965.7,-756.4 965.7,-768.4 965.7,-768.4 965.7,-774.4 959.7,-780.4 953.7,-780.4"/>
<text xml:space="preserve" text-anchor="middle" x="876" y="-765.4" font-family="Helvetica,sans-Serif" font-size="10.00" fill="#ece1d7">③ transient drop → retry source once</text>
<text xml:space="preserve" text-anchor="middle" x="876" y="-753.4" font-family="Helvetica,sans-Serif" font-size="10.00" fill="#ece1d7">(primary_conninfo first)</text>
</g>
<!-- c1&#45;&gt;c2 -->
<g id="edge20" class="edge">
<title>c1&#45;&gt;c2</title>
<path fill="none" stroke="#cba85e" d="M951.78,-831.04C937.58,-818.36 918.08,-800.96 902.42,-786.98"/>
<polygon fill="#cba85e" stroke="#cba85e" points="904.48,-785.07 896.65,-781.83 900.75,-789.25 904.48,-785.07"/>
<text xml:space="preserve" text-anchor="middle" x="938.19" y="-803.1" font-family="Helvetica,sans-Serif" font-size="9.00" fill="#cba85e">drop</text>
</g>
<!-- c3 -->
<g id="node23" class="node">
<title>c3</title>
<path fill="#4d3340" stroke="#6e6963" d="M1094.78,-691.6C1094.78,-691.6 893.22,-691.6 893.22,-691.6 887.22,-691.6 881.22,-685.6 881.22,-679.6 881.22,-679.6 881.22,-659.6 881.22,-659.6 881.22,-653.6 887.22,-647.6 893.22,-647.6 893.22,-647.6 1094.78,-647.6 1094.78,-647.6 1100.78,-647.6 1106.78,-653.6 1106.78,-659.6 1106.78,-659.6 1106.78,-679.6 1106.78,-679.6 1106.78,-685.6 1100.78,-691.6 1094.78,-691.6"/>
<text xml:space="preserve" text-anchor="middle" x="994" y="-678.6" font-family="Helvetica,sans-Serif" font-size="10.00" fill="#ece1d7">④ fetch [backup] segment covering resume_lsn</text>
<text xml:space="preserve" text-anchor="middle" x="994" y="-666.6" font-family="Helvetica,sans-Serif" font-size="10.00" fill="#ece1d7">(full segment sliced from resume_lsn);</text>
<text xml:space="preserve" text-anchor="middle" x="994" y="-654.6" font-family="Helvetica,sans-Serif" font-size="10.00" fill="#ece1d7">replay through live filter + decode sinks</text>
</g>
<!-- c1&#45;&gt;c3 -->
<g id="edge21" class="edge">
<title>c1&#45;&gt;c3</title>
<path fill="none" stroke="#bd8183" d="M973.25,-830.85C977.14,-800.8 985.18,-738.72 990.03,-701.26"/>
<polygon fill="#bd8183" stroke="#bd8183" points="992.8,-701.64 991.05,-693.35 987.25,-700.92 992.8,-701.64"/>
<text xml:space="preserve" text-anchor="middle" x="997.8" y="-759.7" font-family="Helvetica,sans-Serif" font-size="9.00" fill="#bd8183">58P01</text>
</g>
<!-- c7 -->
<g id="node27" class="node">
<title>c7</title>
<path fill="#4d4128" stroke="#6e6963" d="M969.6,-447C969.6,-447 806.4,-447 806.4,-447 800.4,-447 794.4,-441 794.4,-435 794.4,-435 794.4,-423 794.4,-423 794.4,-417 800.4,-411 806.4,-411 806.4,-411 969.6,-411 969.6,-411 975.6,-411 981.6,-417 981.6,-423 981.6,-423 981.6,-435 981.6,-435 981.6,-441 975.6,-447 969.6,-447"/>
<text xml:space="preserve" text-anchor="middle" x="888" y="-432" font-family="Helvetica,sans-Serif" font-size="10.00" fill="#ece1d7">⑦ steady&#45;state reached</text>
<text xml:space="preserve" text-anchor="middle" x="888" y="-420" font-family="Helvetica,sans-Serif" font-size="10.00" fill="#ece1d7">CH ReplacingMergeTree(_lsn) dedups</text>
</g>
<!-- c1&#45;&gt;c7 -->
<g id="edge19" class="edge">
<title>c1&#45;&gt;c7</title>
<path fill="none" stroke="#8fa875" d="M996.09,-830.81C1072.07,-776.13 1288.44,-604.13 1188,-484 1163.05,-454.15 1067.81,-440.78 991.24,-434.8"/>
<polygon fill="#8fa875" stroke="#8fa875" points="991.7,-432.03 983.51,-434.22 991.28,-437.61 991.7,-432.03"/>
<text xml:space="preserve" text-anchor="middle" x="1216.67" y="-617.5" font-family="Helvetica,sans-Serif" font-size="9.00" fill="#8fa875">available</text>
</g>
<!-- c2&#45;&gt;c3 -->
<g id="edge23" class="edge">
<title>c2&#45;&gt;c3</title>
<path fill="none" stroke="#bd8183" d="M898.47,-744.11C915.47,-731.03 939.15,-712.81 958.67,-697.78"/>
<polygon fill="#bd8183" stroke="#bd8183" points="960.37,-700.01 965,-692.91 956.96,-695.57 960.37,-700.01"/>
<text xml:space="preserve" text-anchor="middle" x="953.51" y="-716.3" font-family="Helvetica,sans-Serif" font-size="9.00" fill="#bd8183">still down</text>
</g>
<!-- c2&#45;&gt;c7 -->
<g id="edge22" class="edge">
<title>c2&#45;&gt;c7</title>
<path fill="none" stroke="#8fa875" d="M862.56,-744.06C829.13,-698.67 748.49,-573.72 799,-484 806.56,-470.57 818.97,-460.09 832.14,-452.09"/>
<polygon fill="#8fa875" stroke="#8fa875" points="833.5,-454.54 839.1,-448.17 830.75,-449.66 833.5,-454.54"/>
<text xml:space="preserve" text-anchor="middle" x="813.24" y="-578.1" font-family="Helvetica,sans-Serif" font-size="9.00" fill="#8fa875">source back</text>
</g>
<!-- c4 -->
<g id="node24" class="node">
<title>c4</title>
<path fill="#4d3a28" stroke="#6e6963" d="M1086.16,-598.8C1086.16,-598.8 901.84,-598.8 901.84,-598.8 895.84,-598.8 889.84,-592.8 889.84,-586.8 889.84,-586.8 889.84,-574.8 889.84,-574.8 889.84,-568.8 895.84,-562.8 901.84,-562.8 901.84,-562.8 1086.16,-562.8 1086.16,-562.8 1092.16,-562.8 1098.16,-568.8 1098.16,-574.8 1098.16,-574.8 1098.16,-586.8 1098.16,-586.8 1098.16,-592.8 1092.16,-598.8 1086.16,-598.8"/>
<text xml:space="preserve" text-anchor="middle" x="994" y="-583.8" font-family="Helvetica,sans-Serif" font-size="10.00" fill="#ece1d7">⑤ archive lacks next segment</text>
<text xml:space="preserve" text-anchor="middle" x="994" y="-571.8" font-family="Helvetica,sans-Serif" font-size="10.00" fill="#ece1d7">reconnect source at exact handoff (backoff)</text>
</g>
<!-- c3&#45;&gt;c4 -->
<g id="edge24" class="edge">
<title>c3&#45;&gt;c4</title>
<path fill="none" stroke="#c1a78e" d="M994,-647.14C994,-635.5 994,-620.99 994,-608.61"/>
<polygon fill="#c1a78e" stroke="#c1a78e" points="996.8,-608.74 994,-600.74 991.2,-608.74 996.8,-608.74"/>
</g>
<!-- c5 -->
<g id="node25" class="node">
<title>c5</title>
<path fill="#4d3a28" stroke="#6e6963" d="M970.4,-520C970.4,-520 821.6,-520 821.6,-520 815.6,-520 809.6,-514 809.6,-508 809.6,-508 809.6,-496 809.6,-496 809.6,-490 815.6,-484 821.6,-484 821.6,-484 970.4,-484 970.4,-484 976.4,-484 982.4,-490 982.4,-496 982.4,-496 982.4,-508 982.4,-508 982.4,-514 976.4,-520 970.4,-520"/>
<text xml:space="preserve" text-anchor="middle" x="896" y="-505" font-family="Helvetica,sans-Serif" font-size="10.00" fill="#ece1d7">⑥ source has handoff WAL</text>
<text xml:space="preserve" text-anchor="middle" x="896" y="-493" font-family="Helvetica,sans-Serif" font-size="10.00" fill="#ece1d7">resume live stream</text>
</g>
<!-- c4&#45;&gt;c5 -->
<g id="edge25" class="edge">
<title>c4&#45;&gt;c5</title>
<path fill="none" stroke="#8fa875" d="M971.76,-562.37C958.1,-551.67 940.45,-537.83 925.61,-526.21"/>
<polygon fill="#8fa875" stroke="#8fa875" points="927.36,-524.02 919.34,-521.29 923.91,-528.43 927.36,-524.02"/>
<text xml:space="preserve" text-anchor="middle" x="968.63" y="-538.7" font-family="Helvetica,sans-Serif" font-size="9.00" fill="#8fa875">available</text>
</g>
<!-- c6 -->
<g id="node26" class="node">
<title>c6</title>
<path fill="#403a36" stroke="#6e6963" d="M1165.4,-520C1165.4,-520 1016.6,-520 1016.6,-520 1010.6,-520 1004.6,-514 1004.6,-508 1004.6,-508 1004.6,-496 1004.6,-496 1004.6,-490 1010.6,-484 1016.6,-484 1016.6,-484 1165.4,-484 1165.4,-484 1171.4,-484 1177.4,-490 1177.4,-496 1177.4,-496 1177.4,-508 1177.4,-508 1177.4,-514 1171.4,-520 1165.4,-520"/>
<text xml:space="preserve" text-anchor="middle" x="1091" y="-505" font-family="Helvetica,sans-Serif" font-size="10.00" fill="#ece1d7">⑥ 58P01 + archive can&#39;t cover</text>
<text xml:space="preserve" text-anchor="middle" x="1091" y="-493" font-family="Helvetica,sans-Serif" font-size="10.00" fill="#ece1d7">exit; operator decides base refresh</text>
</g>
<!-- c4&#45;&gt;c6 -->
<g id="edge26" class="edge">
<title>c4&#45;&gt;c6</title>
<path fill="none" stroke="#bd8183" d="M1016.01,-562.37C1029.53,-551.67 1047.01,-537.83 1061.69,-526.21"/>
<polygon fill="#bd8183" stroke="#bd8183" points="1063.36,-528.46 1067.89,-521.3 1059.88,-524.07 1063.36,-528.46"/>
<text xml:space="preserve" text-anchor="middle" x="1061.32" y="-538.7" font-family="Helvetica,sans-Serif" font-size="9.00" fill="#bd8183">58P01</text>
</g>
<!-- c5&#45;&gt;c7 -->
<g id="edge27" class="edge">
<title>c5&#45;&gt;c7</title>
<path fill="none" stroke="#c1a78e" d="M894.06,-483.81C893.13,-475.53 891.99,-465.41 890.95,-456.19"/>
<polygon fill="#c1a78e" stroke="#c1a78e" points="893.77,-456.17 890.09,-448.53 888.2,-456.8 893.77,-456.17"/>
</g>
<!-- c7&#45;&gt;manifest -->
<!-- legend -->
<g id="node29" class="node">
<title>legend</title>
<path fill="#6e6963" stroke="none" d="M694.38,-228C694.38,-228 487.62,-228 487.62,-228 481.62,-228 475.62,-222 475.62,-216 475.62,-216 475.62,-12 475.62,-12 475.62,-6 481.62,0 487.62,0 487.62,0 694.38,0 694.38,0 700.38,0 706.38,-6 706.38,-12 706.38,-12 706.38,-216 706.38,-216 706.38,-222 700.38,-228 694.38,-228"/>
<polygon fill="#34302c" stroke="none" points="483.62,-202 483.62,-224 698.38,-224 698.38,-202 483.62,-202"/>
<polygon fill="none" stroke="#6e6963" points="483.62,-202 483.62,-224 698.38,-224 698.38,-202 483.62,-202"/>
<text xml:space="preserve" text-anchor="start" x="571.83" y="-211" font-family="Helvetica,sans-Serif" font-weight="bold" font-size="10.00" fill="#ece1d7">node fill</text>
<polygon fill="#403a36" stroke="none" points="483.62,-180 483.62,-202 511.62,-202 511.62,-180 483.62,-180"/>
<polygon fill="none" stroke="#6e6963" points="483.62,-180 483.62,-202 511.62,-202 511.62,-180 483.62,-180"/>
<polygon fill="none" stroke="#6e6963" points="511.62,-180 511.62,-202 698.38,-202 698.38,-180 511.62,-180"/>
<text xml:space="preserve" text-anchor="start" x="561.36" y="-187" font-family="Helvetica,sans-Serif" font-size="10.00" fill="#ece1d7">operator / OS event</text>
<polygon fill="#4d3a28" stroke="none" points="483.62,-158 483.62,-180 511.62,-180 511.62,-158 483.62,-158"/>
<polygon fill="none" stroke="#6e6963" points="483.62,-158 483.62,-180 511.62,-180 511.62,-158 483.62,-158"/>
<polygon fill="none" stroke="#6e6963" points="511.62,-158 511.62,-180 698.38,-180 698.38,-158 511.62,-158"/>
<text xml:space="preserve" text-anchor="start" x="563.32" y="-165" font-family="Helvetica,sans-Serif" font-size="10.00" fill="#ece1d7">walshadow&#45;stream</text>
<polygon fill="#4d3340" stroke="none" points="483.62,-136 483.62,-158 511.62,-158 511.62,-136 483.62,-136"/>
<polygon fill="none" stroke="#6e6963" points="483.62,-136 483.62,-158 511.62,-158 511.62,-136 483.62,-136"/>
<polygon fill="none" stroke="#6e6963" points="511.62,-136 511.62,-158 698.38,-158 698.38,-136 511.62,-136"/>
<text xml:space="preserve" text-anchor="start" x="516.62" y="-143" font-family="Helvetica,sans-Serif" font-size="10.00" fill="#ece1d7">walshadow — segment / walsender side</text>
<polygon fill="#3d4128" stroke="none" points="483.62,-114 483.62,-136 511.62,-136 511.62,-114 483.62,-114"/>
<polygon fill="none" stroke="#6e6963" points="483.62,-114 483.62,-136 511.62,-136 511.62,-114 483.62,-114"/>
<polygon fill="none" stroke="#6e6963" points="511.62,-114 511.62,-136 698.38,-136 698.38,-114 511.62,-114"/>
<text xml:space="preserve" text-anchor="start" x="566.65" y="-121" font-family="Helvetica,sans-Serif" font-size="10.00" fill="#ece1d7">shadow Postgres</text>
<polygon fill="#4d4128" stroke="none" points="483.62,-92 483.62,-114 511.62,-114 511.62,-92 483.62,-92"/>
<polygon fill="none" stroke="#6e6963" points="483.62,-92 483.62,-114 511.62,-114 511.62,-92 483.62,-92"/>
<polygon fill="none" stroke="#6e6963" points="511.62,-92 511.62,-114 698.38,-114 698.38,-92 511.62,-92"/>
<text xml:space="preserve" text-anchor="start" x="540.52" y="-99" font-family="Helvetica,sans-Serif" font-size="10.00" fill="#ece1d7">ClickHouse (dedup endpoint)</text>
<polygon fill="#34302c" stroke="none" points="483.62,-70 483.62,-92 698.38,-92 698.38,-70 483.62,-70"/>
<polygon fill="none" stroke="#6e6963" points="483.62,-70 483.62,-92 698.38,-92 698.38,-70 483.62,-70"/>
<text xml:space="preserve" text-anchor="start" x="535.42" y="-79" font-family="Helvetica,sans-Serif" font-weight="bold" font-size="10.00" fill="#ece1d7">scenario cluster border</text>
<polygon fill="none" stroke="#6e6963" points="483.62,-48 483.62,-70 511.62,-70 511.62,-48 483.62,-48"/>
<text xml:space="preserve" text-anchor="start" x="493.45" y="-57" font-family="Helvetica,sans-Serif" font-weight="bold" font-size="10.00" fill="#a1a9cc">━</text>
<polygon fill="none" stroke="#6e6963" points="511.62,-48 511.62,-70 698.38,-70 698.38,-48 511.62,-48"/>
<text xml:space="preserve" text-anchor="start" x="543.88" y="-55" font-family="Helvetica,sans-Serif" font-size="10.00" fill="#ece1d7">A. clean restart (SIGTERM)</text>
<polygon fill="none" stroke="#6e6963" points="483.62,-26 483.62,-48 511.62,-48 511.62,-26 483.62,-26"/>
<text xml:space="preserve" text-anchor="start" x="493.45" y="-35" font-family="Helvetica,sans-Serif" font-weight="bold" font-size="10.00" fill="#cba85e">━</text>
<polygon fill="none" stroke="#6e6963" points="511.62,-26 511.62,-48 698.38,-48 698.38,-26 511.62,-26"/>
<text xml:space="preserve" text-anchor="start" x="560.83" y="-33" font-family="Helvetica,sans-Serif" font-size="10.00" fill="#ece1d7">B. kill &#45;9 mid&#45;stream</text>
<polygon fill="none" stroke="#6e6963" points="483.62,-4 483.62,-26 511.62,-26 511.62,-4 483.62,-4"/>
<text xml:space="preserve" text-anchor="start" x="493.45" y="-13" font-family="Helvetica,sans-Serif" font-weight="bold" font-size="10.00" fill="#bd8183">━</text>
<polygon fill="none" stroke="#6e6963" points="511.62,-4 511.62,-26 698.38,-26 698.38,-4 511.62,-4"/>
<text xml:space="preserve" text-anchor="start" x="538.59" y="-11" font-family="Helvetica,sans-Serif" font-size="10.00" fill="#ece1d7">C. source → archive → source</text>
</g>
<!-- manifest&#45;&gt;legend -->
</g>
</svg>
