<?xml version="1.0" encoding="UTF-8" standalone="no"?>
<!DOCTYPE svg PUBLIC "-//W3C//DTD SVG 1.1//EN"
 "http://www.w3.org/Graphics/SVG/1.1/DTD/svg11.dtd">
<!-- Generated by graphviz version 15.1.0 (20260618.0150)
 -->
<!-- Title: timeline_bootstrap Pages: 1 -->
<svg width="1207pt" height="1586pt"
 viewBox="0.00 0.00 1207.00 1586.00" xmlns="http://www.w3.org/2000/svg" xmlns:xlink="http://www.w3.org/1999/xlink">
<g id="graph0" class="graph" transform="scale(1 1) rotate(0) translate(4 1582.25)">
<title>timeline_bootstrap</title>
<polygon fill="#272623" stroke="none" points="-4,4 -4,-1582.25 1203,-1582.25 1203,4 -4,4"/>
<text xml:space="preserve" text-anchor="middle" x="599.5" y="-1560.95" font-family="Helvetica,sans-Serif" font-size="14.00" fill="#ece1d7">walshadow greenfield bootstrap — 5 phases</text>
<g id="clust1" class="cluster">
<title>cluster_p1</title>
<path fill="#34302c" stroke="#4c4641" d="M130,-1257.5C130,-1257.5 308,-1257.5 308,-1257.5 314,-1257.5 320,-1263.5 320,-1269.5 320,-1269.5 320,-1533 320,-1533 320,-1539 314,-1545 308,-1545 308,-1545 130,-1545 130,-1545 124,-1545 118,-1539 118,-1533 118,-1533 118,-1269.5 118,-1269.5 118,-1263.5 124,-1257.5 130,-1257.5"/>
<text xml:space="preserve" text-anchor="middle" x="219" y="-1527.7" font-family="Helvetica,sans-Serif" font-size="14.00" fill="#ece1d7">① catalog seed</text>
</g>
<g id="clust2" class="cluster">
<title>cluster_p2</title>
<path fill="#34302c" stroke="#4c4641" d="M340,-992.62C340,-992.62 822,-992.62 822,-992.62 828,-992.62 834,-998.62 834,-1004.62 834,-1004.62 834,-1333 834,-1333 834,-1339 828,-1345 822,-1345 822,-1345 340,-1345 340,-1345 334,-1345 328,-1339 328,-1333 328,-1333 328,-1004.62 328,-1004.62 328,-998.62 334,-992.62 340,-992.62"/>
<text xml:space="preserve" text-anchor="middle" x="581" y="-1327.7" font-family="Helvetica,sans-Serif" font-size="14.00" fill="#ece1d7">② BASE_BACKUP pump — MultiplexSink fan&#45;out</text>
</g>
<g id="clust3" class="cluster">
<title>cluster_p3</title>
<path fill="#34302c" stroke="#4c4641" d="M20,-855.75C20,-855.75 308,-855.75 308,-855.75 314,-855.75 320,-861.75 320,-867.75 320,-867.75 320,-1075.75 320,-1075.75 320,-1081.75 314,-1087.75 308,-1087.75 308,-1087.75 20,-1087.75 20,-1087.75 14,-1087.75 8,-1081.75 8,-1075.75 8,-1075.75 8,-867.75 8,-867.75 8,-861.75 14,-855.75 20,-855.75"/>
<text xml:space="preserve" text-anchor="middle" x="164" y="-1070.45" font-family="Helvetica,sans-Serif" font-size="14.00" fill="#ece1d7">③ drain → ClickHouse &#160;(concurrent with ②)</text>
</g>
<g id="clust4" class="cluster">
<title>cluster_p4</title>
<path fill="#34302c" stroke="#4c4641" d="M854,-606C854,-606 1179,-606 1179,-606 1185,-606 1191,-612 1191,-618 1191,-618 1191,-1216.25 1191,-1216.25 1191,-1222.25 1185,-1228.25 1179,-1228.25 1179,-1228.25 854,-1228.25 854,-1228.25 848,-1228.25 842,-1222.25 842,-1216.25 842,-1216.25 842,-618 842,-618 842,-612 848,-606 854,-606"/>
<text xml:space="preserve" text-anchor="middle" x="1016.5" y="-1210.95" font-family="Helvetica,sans-Serif" font-size="14.00" fill="#ece1d7">④ shadow handoff</text>
</g>
<g id="clust5" class="cluster">
<title>cluster_p5</title>
<path fill="#34302c" stroke="#4c4641" d="M694,-310C694,-310 1122,-310 1122,-310 1128,-310 1134,-316 1134,-322 1134,-322 1134,-564.75 1134,-564.75 1134,-570.75 1128,-576.75 1122,-576.75 1122,-576.75 694,-576.75 694,-576.75 688,-576.75 682,-570.75 682,-564.75 682,-564.75 682,-322 682,-322 682,-316 688,-310 694,-310"/>
<text xml:space="preserve" text-anchor="middle" x="908" y="-559.45" font-family="Helvetica,sans-Serif" font-size="14.00" fill="#ece1d7">⑤ WAL streaming start &#160;(→ steady&#45;state)</text>
</g>
<!-- op1 -->
<g id="node1" class="node">
<title>op1</title>
<path fill="#403a36" stroke="#6e6963" d="M275.75,-1511.75C275.75,-1511.75 162.25,-1511.75 162.25,-1511.75 156.25,-1511.75 150.25,-1505.75 150.25,-1499.75 150.25,-1499.75 150.25,-1477.5 150.25,-1477.5 150.25,-1471.5 156.25,-1465.5 162.25,-1465.5 162.25,-1465.5 275.75,-1465.5 275.75,-1465.5 281.75,-1465.5 287.75,-1471.5 287.75,-1477.5 287.75,-1477.5 287.75,-1499.75 287.75,-1499.75 287.75,-1505.75 281.75,-1511.75 275.75,-1511.75"/>
<text xml:space="preserve" text-anchor="middle" x="219" y="-1498.25" font-family="Helvetica,sans-Serif" font-size="10.00" fill="#ece1d7">walshadow&#45;stream</text>
<text xml:space="preserve" text-anchor="middle" x="219" y="-1485.5" font-family="Helvetica,sans-Serif" font-size="10.00" fill="#ece1d7">&#45;&#45;bootstrap&#45;mode=direct</text>
<text xml:space="preserve" text-anchor="middle" x="219" y="-1472.75" font-family="Helvetica,sans-Serif" font-size="10.00" fill="#ece1d7">&#45;&#45;ch&#45;config=…</text>
</g>
<!-- map1 -->
<g id="node3" class="node">
<title>map1</title>
<path fill="#4d3a28" stroke="#6e6963" d="M298.62,-1418.25C298.62,-1418.25 139.38,-1418.25 139.38,-1418.25 133.38,-1418.25 127.38,-1412.25 127.38,-1406.25 127.38,-1406.25 127.38,-1394.25 127.38,-1394.25 127.38,-1388.25 133.38,-1382.25 139.38,-1382.25 139.38,-1382.25 298.62,-1382.25 298.62,-1382.25 304.62,-1382.25 310.62,-1388.25 310.62,-1394.25 310.62,-1394.25 310.62,-1406.25 310.62,-1406.25 310.62,-1412.25 304.62,-1418.25 298.62,-1418.25"/>
<text xml:space="preserve" text-anchor="middle" x="219" y="-1403.5" font-family="Helvetica,sans-Serif" font-size="10.00" fill="#ece1d7">CatalogTracker::seed_from_source</text>
<text xml:space="preserve" text-anchor="middle" x="219" y="-1390.75" font-family="Helvetica,sans-Serif" font-size="10.00" fill="#ece1d7">builds CatalogMap</text>
</g>
<!-- op1&#45;&gt;map1 -->
<g id="edge1" class="edge">
<title>op1&#45;&gt;map1</title>
<path fill="none" stroke="#c1a78e" d="M219,-1465.38C219,-1453.98 219,-1440.01 219,-1428.02"/>
<polygon fill="#c1a78e" stroke="#c1a78e" points="221.8,-1428.03 219,-1420.03 216.2,-1428.03 221.8,-1428.03"/>
<text xml:space="preserve" text-anchor="middle" x="233.62" y="-1438.95" font-family="Helvetica,sans-Serif" font-size="9.00" fill="#ece1d7">spawn</text>
</g>
<!-- sql1 -->
<g id="node2" class="node">
<title>sql1</title>
<path fill="#3d3d54" stroke="#6e6963" d="M299.75,-1311.75C299.75,-1311.75 138.25,-1311.75 138.25,-1311.75 132.25,-1311.75 126.25,-1305.75 126.25,-1299.75 126.25,-1299.75 126.25,-1277.5 126.25,-1277.5 126.25,-1271.5 132.25,-1265.5 138.25,-1265.5 138.25,-1265.5 299.75,-1265.5 299.75,-1265.5 305.75,-1265.5 311.75,-1271.5 311.75,-1277.5 311.75,-1277.5 311.75,-1299.75 311.75,-1299.75 311.75,-1305.75 305.75,-1311.75 299.75,-1311.75"/>
<text xml:space="preserve" text-anchor="middle" x="219" y="-1298.25" font-family="Helvetica,sans-Serif" font-size="10.00" fill="#ece1d7">sidecar SQL on source</text>
<text xml:space="preserve" text-anchor="middle" x="219" y="-1285.5" font-family="Helvetica,sans-Serif" font-size="10.00" fill="#ece1d7">SELECT oid, relfilenode</text>
<text xml:space="preserve" text-anchor="middle" x="219" y="-1272.75" font-family="Helvetica,sans-Serif" font-size="10.00" fill="#ece1d7">FROM pg_class WHERE oid≥16384</text>
</g>
<!-- map1&#45;&gt;sql1 -->
<g id="edge2" class="edge">
<title>map1&#45;&gt;sql1</title>
<path fill="none" stroke="#cba85e" d="M219,-1373C219,-1357.43 219,-1337.58 219,-1321.16"/>
<polygon fill="#cba85e" stroke="#cba85e" points="219,-1380.9 215.4,-1372.9 219,-1378.12 219,-1372.9 219,-1372.9 219,-1372.9 219,-1378.12 222.6,-1372.9 219,-1380.9"/>
<polygon fill="#cba85e" stroke="#cba85e" points="221.8,-1321.45 219,-1313.45 216.2,-1321.45 221.8,-1321.45"/>
<text xml:space="preserve" text-anchor="middle" x="230.25" y="-1355.7" font-family="Helvetica,sans-Serif" font-size="9.00" fill="#ece1d7">libpq</text>
</g>
<!-- bs2 -->
<g id="node4" class="node">
<title>bs2</title>
<path fill="#4d3a28" stroke="#6e6963" d="M617.38,-1311.75C617.38,-1311.75 522.62,-1311.75 522.62,-1311.75 516.62,-1311.75 510.62,-1305.75 510.62,-1299.75 510.62,-1299.75 510.62,-1277.5 510.62,-1277.5 510.62,-1271.5 516.62,-1265.5 522.62,-1265.5 522.62,-1265.5 617.38,-1265.5 617.38,-1265.5 623.38,-1265.5 629.38,-1271.5 629.38,-1277.5 629.38,-1277.5 629.38,-1299.75 629.38,-1299.75 629.38,-1305.75 623.38,-1311.75 617.38,-1311.75"/>
<text xml:space="preserve" text-anchor="middle" x="570" y="-1298.25" font-family="Helvetica,sans-Serif" font-size="10.00" fill="#ece1d7">BackupSource</text>
<text xml:space="preserve" text-anchor="middle" x="570" y="-1285.5" font-family="Helvetica,sans-Serif" font-size="10.00" fill="#ece1d7">(Direct | ObjectStore)</text>
<text xml:space="preserve" text-anchor="middle" x="570" y="-1272.75" font-family="Helvetica,sans-Serif" font-size="10.00" fill="#ece1d7">begin pump</text>
</g>
<!-- map1&#45;&gt;bs2 -->
<g id="edge7" class="edge">
<title>map1&#45;&gt;bs2</title>
<path fill="none" stroke="#a1a9cc" d="M275.01,-1381.76C305.05,-1372.37 344,-1360.21 383.69,-1347.81"/>
<polygon fill="#a1a9cc" stroke="#a1a9cc" points="384.46,-1350.51 391.26,-1345.45 382.79,-1345.16 384.46,-1350.51"/>
<text xml:space="preserve" text-anchor="middle" x="408.06" y="-1355.7" font-family="Helvetica,sans-Serif" font-size="9.00" fill="#ece1d7">open BASE_BACKUP</text>
</g>
<!-- src2 -->
<g id="node5" class="node">
<title>src2</title>
<path fill="#3d3d54" stroke="#6e6963" d="M445.88,-1200.12C445.88,-1200.12 348.12,-1200.12 348.12,-1200.12 342.12,-1200.12 336.12,-1194.12 336.12,-1188.12 336.12,-1188.12 336.12,-1165.88 336.12,-1165.88 336.12,-1159.88 342.12,-1153.88 348.12,-1153.88 348.12,-1153.88 445.88,-1153.88 445.88,-1153.88 451.88,-1153.88 457.88,-1159.88 457.88,-1165.88 457.88,-1165.88 457.88,-1188.12 457.88,-1188.12 457.88,-1194.12 451.88,-1200.12 445.88,-1200.12"/>
<text xml:space="preserve" text-anchor="middle" x="397" y="-1186.62" font-family="Helvetica,sans-Serif" font-size="10.00" fill="#ece1d7">BASE_BACKUP open</text>
<text xml:space="preserve" text-anchor="middle" x="397" y="-1173.88" font-family="Helvetica,sans-Serif" font-size="10.00" fill="#ece1d7">pg_export_snapshot()</text>
<text xml:space="preserve" text-anchor="middle" x="397" y="-1161.12" font-family="Helvetica,sans-Serif" font-size="10.00" fill="#ece1d7">start_lsn = X</text>
</g>
<!-- bs2&#45;&gt;src2 -->
<g id="edge3" class="edge">
<title>bs2&#45;&gt;src2</title>
<path fill="none" stroke="#a1a9cc" d="M502.48,-1261.45C493.69,-1257.19 484.98,-1252.52 477,-1247.5 458.66,-1235.97 440.27,-1220.35 425.75,-1206.83"/>
<polygon fill="#a1a9cc" stroke="#a1a9cc" points="509.46,-1264.72 500.69,-1264.58 506.94,-1263.54 502.21,-1261.32 502.21,-1261.32 502.21,-1261.32 506.94,-1263.54 503.74,-1258.06 509.46,-1264.72"/>
<polygon fill="#a1a9cc" stroke="#a1a9cc" points="427.79,-1204.9 420.06,-1201.43 423.94,-1208.97 427.79,-1204.9"/>
<text xml:space="preserve" text-anchor="middle" x="520.5" y="-1238.95" font-family="Helvetica,sans-Serif" font-size="9.00" fill="#ece1d7">replication protocol</text>
</g>
<!-- lan2 -->
<g id="node6" class="node">
<title>lan2</title>
<path fill="#4d3a28" stroke="#6e6963" d="M814.12,-1200.12C814.12,-1200.12 693.88,-1200.12 693.88,-1200.12 687.88,-1200.12 681.88,-1194.12 681.88,-1188.12 681.88,-1188.12 681.88,-1165.88 681.88,-1165.88 681.88,-1159.88 687.88,-1153.88 693.88,-1153.88 693.88,-1153.88 814.12,-1153.88 814.12,-1153.88 820.12,-1153.88 826.12,-1159.88 826.12,-1165.88 826.12,-1165.88 826.12,-1188.12 826.12,-1188.12 826.12,-1194.12 820.12,-1200.12 814.12,-1200.12"/>
<text xml:space="preserve" text-anchor="middle" x="754" y="-1186.62" font-family="Helvetica,sans-Serif" font-size="10.00" fill="#ece1d7">DiskLanderSink</text>
<text xml:space="preserve" text-anchor="middle" x="754" y="-1173.88" font-family="Helvetica,sans-Serif" font-size="10.00" fill="#ece1d7">catalog → shadow data dir</text>
<text xml:space="preserve" text-anchor="middle" x="754" y="-1161.12" font-family="Helvetica,sans-Serif" font-size="10.00" fill="#ece1d7">user&#45;heap filenode Skip</text>
</g>
<!-- bs2&#45;&gt;lan2 -->
<g id="edge4" class="edge">
<title>bs2&#45;&gt;lan2</title>
<path fill="none" stroke="#c1a78e" d="M607.68,-1265.18C636.73,-1247.87 677.04,-1223.85 708,-1205.41"/>
<polygon fill="#c1a78e" stroke="#c1a78e" points="709.32,-1207.88 714.76,-1201.38 706.45,-1203.07 709.32,-1207.88"/>
<text xml:space="preserve" text-anchor="middle" x="680.98" y="-1238.95" font-family="Helvetica,sans-Serif" font-size="9.00" fill="#ece1d7">MultiplexSink</text>
</g>
<!-- walk2 -->
<g id="node7" class="node">
<title>walk2</title>
<path fill="#4d3a28" stroke="#6e6963" d="M644.75,-1206.5C644.75,-1206.5 495.25,-1206.5 495.25,-1206.5 489.25,-1206.5 483.25,-1200.5 483.25,-1194.5 483.25,-1194.5 483.25,-1159.5 483.25,-1159.5 483.25,-1153.5 489.25,-1147.5 495.25,-1147.5 495.25,-1147.5 644.75,-1147.5 644.75,-1147.5 650.75,-1147.5 656.75,-1153.5 656.75,-1159.5 656.75,-1159.5 656.75,-1194.5 656.75,-1194.5 656.75,-1200.5 650.75,-1206.5 644.75,-1206.5"/>
<text xml:space="preserve" text-anchor="middle" x="570" y="-1193" font-family="Helvetica,sans-Serif" font-size="10.00" fill="#ece1d7">PageWalkSink</text>
<text xml:space="preserve" text-anchor="middle" x="570" y="-1180.25" font-family="Helvetica,sans-Serif" font-size="10.00" fill="#ece1d7">decode 8 KiB heap pages</text>
<text xml:space="preserve" text-anchor="middle" x="570" y="-1167.5" font-family="Helvetica,sans-Serif" font-size="10.00" fill="#ece1d7">main + pg_toast tuples with TID</text>
<text xml:space="preserve" text-anchor="middle" x="570" y="-1154.75" font-family="Helvetica,sans-Serif" font-size="10.00" fill="#ece1d7">→ BackfillTuple (mpsc)</text>
</g>
<!-- bs2&#45;&gt;walk2 -->
<g id="edge5" class="edge">
<title>bs2&#45;&gt;walk2</title>
<path fill="none" stroke="#c1a78e" d="M570,-1265.18C570,-1251.04 570,-1232.42 570,-1216.03"/>
<polygon fill="#c1a78e" stroke="#c1a78e" points="572.8,-1216.19 570,-1208.19 567.2,-1216.19 572.8,-1216.19"/>
<text xml:space="preserve" text-anchor="middle" x="600" y="-1238.95" font-family="Helvetica,sans-Serif" font-size="9.00" fill="#ece1d7">MultiplexSink</text>
</g>
<!-- end4 -->
<g id="node11" class="node">
<title>end4</title>
<path fill="#3d3d54" stroke="#6e6963" d="M947.75,-1195C947.75,-1195 864.25,-1195 864.25,-1195 858.25,-1195 852.25,-1189 852.25,-1183 852.25,-1183 852.25,-1171 852.25,-1171 852.25,-1165 858.25,-1159 864.25,-1159 864.25,-1159 947.75,-1159 947.75,-1159 953.75,-1159 959.75,-1165 959.75,-1171 959.75,-1171 959.75,-1183 959.75,-1183 959.75,-1189 953.75,-1195 947.75,-1195"/>
<text xml:space="preserve" text-anchor="middle" x="906" y="-1180.25" font-family="Helvetica,sans-Serif" font-size="10.00" fill="#ece1d7">BASE_BACKUP end</text>
<text xml:space="preserve" text-anchor="middle" x="906" y="-1167.5" font-family="Helvetica,sans-Serif" font-size="10.00" fill="#ece1d7">end_lsn = Y</text>
</g>
<!-- bs2&#45;&gt;end4 -->
<g id="edge17" class="edge">
<title>bs2&#45;&gt;end4</title>
<path fill="none" stroke="#a1a9cc" d="M629.77,-1281.99C683.91,-1275.25 765.19,-1260.98 833.71,-1231.03"/>
<polygon fill="#a1a9cc" stroke="#a1a9cc" points="834.47,-1233.76 840.62,-1227.92 832.18,-1228.65 834.47,-1233.76"/>
<text xml:space="preserve" text-anchor="middle" x="831.84" y="-1238.95" font-family="Helvetica,sans-Serif" font-size="9.00" fill="#ece1d7">finish</text>
</g>
<!-- dsk2 -->
<g id="node8" class="node">
<title>dsk2</title>
<polygon fill="#4d3850" stroke="#6e6963" points="803.62,-1036.62 698.38,-1036.62 698.38,-1000.62 809.62,-1000.62 809.62,-1030.62 803.62,-1036.62"/>
<polyline fill="none" stroke="#6e6963" points="803.62,-1036.62 803.62,-1030.62"/>
<polyline fill="none" stroke="#6e6963" points="809.62,-1030.62 803.62,-1030.62"/>
<text xml:space="preserve" text-anchor="middle" x="754" y="-1021.88" font-family="Helvetica,sans-Serif" font-size="10.00" fill="#ece1d7">shadow data dir</text>
<text xml:space="preserve" text-anchor="middle" x="754" y="-1009.12" font-family="Helvetica,sans-Serif" font-size="10.00" fill="#ece1d7">catalog files landed</text>
</g>
<!-- lan2&#45;&gt;dsk2 -->
<g id="edge6" class="edge">
<title>lan2&#45;&gt;dsk2</title>
<path fill="none" stroke="#c1a78e" d="M754,-1153.6C754,-1125.22 754,-1076.39 754,-1046.17"/>
<polygon fill="#c1a78e" stroke="#c1a78e" points="756.8,-1046.21 754,-1038.21 751.2,-1046.21 756.8,-1046.21"/>
<text xml:space="preserve" text-anchor="middle" x="772" y="-1109.7" font-family="Helvetica,sans-Serif" font-size="9.00" fill="#ece1d7">land file</text>
</g>
<!-- drain3 -->
<g id="node9" class="node">
<title>drain3</title>
<path fill="#4d3a28" stroke="#6e6963" d="M296.62,-1054.5C296.62,-1054.5 131.38,-1054.5 131.38,-1054.5 125.38,-1054.5 119.38,-1048.5 119.38,-1042.5 119.38,-1042.5 119.38,-994.75 119.38,-994.75 119.38,-988.75 125.38,-982.75 131.38,-982.75 131.38,-982.75 296.62,-982.75 296.62,-982.75 302.62,-982.75 308.62,-988.75 308.62,-994.75 308.62,-994.75 308.62,-1042.5 308.62,-1042.5 308.62,-1048.5 302.62,-1054.5 296.62,-1054.5"/>
<text xml:space="preserve" text-anchor="middle" x="214" y="-1041" font-family="Helvetica,sans-Serif" font-size="10.00" fill="#ece1d7">pipeline::bootstrap::drain</text>
<text xml:space="preserve" text-anchor="middle" x="214" y="-1028.25" font-family="Helvetica,sans-Serif" font-size="10.00" fill="#ece1d7">ToastRows → mirror batch</text>
<text xml:space="preserve" text-anchor="middle" x="214" y="-1015.5" font-family="Helvetica,sans-Serif" font-size="10.00" fill="#ece1d7">ExternalToast → deferred</text>
<text xml:space="preserve" text-anchor="middle" x="214" y="-1002.75" font-family="Helvetica,sans-Serif" font-size="10.00" fill="#ece1d7">flush chunks, fetch + resolve</text>
<text xml:space="preserve" text-anchor="middle" x="214" y="-990" font-family="Helvetica,sans-Serif" font-size="10.00" fill="#ece1d7">map main rows; one seq per rfn flip</text>
</g>
<!-- walk2&#45;&gt;drain3 -->
<g id="edge9" class="edge">
<title>walk2&#45;&gt;drain3</title>
<path fill="none" stroke="#c1a78e" d="M482.87,-1150.22C436.99,-1135.42 380.06,-1115.14 328.55,-1090.86"/>
<polygon fill="#c1a78e" stroke="#c1a78e" points="329.79,-1088.35 321.36,-1087.42 327.37,-1093.4 329.79,-1088.35"/>
<text xml:space="preserve" text-anchor="middle" x="471.47" y="-1120.95" font-family="Helvetica,sans-Serif" font-size="9.00" fill="#ece1d7">BackfillTuple</text>
<text xml:space="preserve" text-anchor="middle" x="471.47" y="-1109.7" font-family="Helvetica,sans-Serif" font-size="9.00" fill="#ece1d7">(bounded mpsc 256,</text>
<text xml:space="preserve" text-anchor="middle" x="471.47" y="-1098.45" font-family="Helvetica,sans-Serif" font-size="9.00" fill="#ece1d7">backpressures pump)</text>
</g>
<!-- ch3 -->
<g id="node10" class="node">
<title>ch3</title>
<path fill="#4d4128" stroke="#6e6963" d="M300.38,-935.5C300.38,-935.5 109.62,-935.5 109.62,-935.5 103.62,-935.5 97.62,-929.5 97.62,-923.5 97.62,-923.5 97.62,-875.75 97.62,-875.75 97.62,-869.75 103.62,-863.75 109.62,-863.75 109.62,-863.75 300.38,-863.75 300.38,-863.75 306.38,-863.75 312.38,-869.75 312.38,-875.75 312.38,-875.75 312.38,-923.5 312.38,-923.5 312.38,-929.5 306.38,-935.5 300.38,-935.5"/>
<text xml:space="preserve" text-anchor="middle" x="205" y="-922" font-family="Helvetica,sans-Serif" font-size="10.00" fill="#ece1d7">ClickHouse</text>
<text xml:space="preserve" text-anchor="middle" x="205" y="-909.25" font-family="Helvetica,sans-Serif" font-size="10.00" fill="#ece1d7">TOAST mirrors: put before deferred fetch</text>
<text xml:space="preserve" text-anchor="middle" x="205" y="-896.5" font-family="Helvetica,sans-Serif" font-size="10.00" fill="#ece1d7">main tables: shared insert tail</text>
<text xml:space="preserve" text-anchor="middle" x="205" y="-883.75" font-family="Helvetica,sans-Serif" font-size="10.00" fill="#ece1d7">batcher + inserter ×N + ack collector</text>
<text xml:space="preserve" text-anchor="middle" x="205" y="-871" font-family="Helvetica,sans-Serif" font-size="10.00" fill="#ece1d7">tail.finish → all seqs durable</text>
</g>
<!-- drain3&#45;&gt;ch3 -->
<g id="edge8" class="edge">
<title>drain3&#45;&gt;ch3</title>
<path fill="none" stroke="#bf8c5f" d="M211.3,-982.52C210.39,-970.72 209.37,-957.4 208.41,-944.98"/>
<polygon fill="#bf8c5f" stroke="#bf8c5f" points="211.22,-944.97 207.81,-937.21 205.64,-945.4 211.22,-944.97"/>
<text xml:space="preserve" text-anchor="middle" x="248.77" y="-956.2" font-family="Helvetica,sans-Serif" font-size="9.00" fill="#ece1d7">BatcherMsg::Row</text>
</g>
<!-- out4 -->
<g id="node12" class="node">
<title>out4</title>
<path fill="#4d3a28" stroke="#6e6963" d="M953.75,-1036.62C953.75,-1036.62 864.25,-1036.62 864.25,-1036.62 858.25,-1036.62 852.25,-1030.62 852.25,-1024.62 852.25,-1024.62 852.25,-1012.62 852.25,-1012.62 852.25,-1006.62 858.25,-1000.62 864.25,-1000.62 864.25,-1000.62 953.75,-1000.62 953.75,-1000.62 959.75,-1000.62 965.75,-1006.62 965.75,-1012.62 965.75,-1012.62 965.75,-1024.62 965.75,-1024.62 965.75,-1030.62 959.75,-1036.62 953.75,-1036.62"/>
<text xml:space="preserve" text-anchor="middle" x="909" y="-1021.88" font-family="Helvetica,sans-Serif" font-size="10.00" fill="#ece1d7">BootstrapOutcome</text>
<text xml:space="preserve" text-anchor="middle" x="909" y="-1009.12" font-family="Helvetica,sans-Serif" font-size="10.00" fill="#ece1d7">{start_lsn, end_lsn}</text>
</g>
<!-- end4&#45;&gt;out4 -->
<g id="edge10" class="edge">
<title>end4&#45;&gt;out4</title>
<path fill="none" stroke="#a1a9cc" d="M906.51,-1149.44C907.12,-1117.36 908.14,-1064.32 908.67,-1037.03"/>
<polygon fill="#a1a9cc" stroke="#a1a9cc" points="903.72,-1149.1 906.36,-1157.15 909.31,-1149.21 903.72,-1149.1"/>
<text xml:space="preserve" text-anchor="middle" x="924.75" y="-1109.7" font-family="Helvetica,sans-Serif" font-size="9.00" fill="#ece1d7">end_lsn</text>
</g>
<!-- ctrl4 -->
<g id="node13" class="node">
<title>ctrl4</title>
<polygon fill="#4d3850" stroke="#6e6963" points="968,-917.62 850,-917.62 850,-881.62 974,-881.62 974,-911.62 968,-917.62"/>
<polyline fill="none" stroke="#6e6963" points="968,-917.62 968,-911.62"/>
<polyline fill="none" stroke="#6e6963" points="974,-911.62 968,-911.62"/>
<text xml:space="preserve" text-anchor="middle" x="912" y="-902.88" font-family="Helvetica,sans-Serif" font-size="10.00" fill="#ece1d7">pg_control landed last</text>
<text xml:space="preserve" text-anchor="middle" x="912" y="-890.12" font-family="Helvetica,sans-Serif" font-size="10.00" fill="#ece1d7">(barrier)</text>
</g>
<!-- out4&#45;&gt;ctrl4 -->
<!-- conf4 -->
<g id="node14" class="node">
<title>conf4</title>
<path fill="#4d3a28" stroke="#6e6963" d="M1171.38,-929.12C1171.38,-929.12 1010.62,-929.12 1010.62,-929.12 1004.62,-929.12 998.62,-923.12 998.62,-917.12 998.62,-917.12 998.62,-882.12 998.62,-882.12 998.62,-876.12 1004.62,-870.12 1010.62,-870.12 1010.62,-870.12 1171.38,-870.12 1171.38,-870.12 1177.38,-870.12 1183.38,-876.12 1183.38,-882.12 1183.38,-882.12 1183.38,-917.12 1183.38,-917.12 1183.38,-923.12 1177.38,-929.12 1171.38,-929.12"/>
<text xml:space="preserve" text-anchor="middle" x="1091" y="-915.62" font-family="Helvetica,sans-Serif" font-size="10.00" fill="#ece1d7">Shadow::enable_standby_recovery</text>
<text xml:space="preserve" text-anchor="middle" x="1091" y="-902.88" font-family="Helvetica,sans-Serif" font-size="10.00" fill="#ece1d7">append standby.signal +</text>
<text xml:space="preserve" text-anchor="middle" x="1091" y="-890.12" font-family="Helvetica,sans-Serif" font-size="10.00" fill="#ece1d7">restore_command +</text>
<text xml:space="preserve" text-anchor="middle" x="1091" y="-877.38" font-family="Helvetica,sans-Serif" font-size="10.00" fill="#ece1d7">primary_conninfo</text>
</g>
<!-- out4&#45;&gt;conf4 -->
<g id="edge12" class="edge">
<title>out4&#45;&gt;conf4</title>
<path fill="none" stroke="#c1a78e" d="M935.85,-1000.36C962.68,-983.12 1004.62,-956.15 1038.14,-934.6"/>
<polygon fill="#c1a78e" stroke="#c1a78e" points="1039.54,-937.03 1044.76,-930.35 1036.51,-932.32 1039.54,-937.03"/>
</g>
<!-- seed5 -->
<g id="node19" class="node">
<title>seed5</title>
<path fill="#4d3a28" stroke="#6e6963" d="M853,-543.5C853,-543.5 771,-543.5 771,-543.5 765,-543.5 759,-537.5 759,-531.5 759,-531.5 759,-519.5 759,-519.5 759,-513.5 765,-507.5 771,-507.5 771,-507.5 853,-507.5 853,-507.5 859,-507.5 865,-513.5 865,-519.5 865,-519.5 865,-531.5 865,-531.5 865,-537.5 859,-543.5 853,-543.5"/>
<text xml:space="preserve" text-anchor="middle" x="812" y="-528.75" font-family="Helvetica,sans-Serif" font-size="10.00" fill="#ece1d7">use backup end as</text>
<text xml:space="preserve" text-anchor="middle" x="812" y="-516" font-family="Helvetica,sans-Serif" font-size="10.00" fill="#ece1d7">new restart point</text>
</g>
<!-- out4&#45;&gt;seed5 -->
<g id="edge22" class="edge">
<title>out4&#45;&gt;seed5</title>
<path fill="none" stroke="#c1a78e" d="M880.94,-1000.29C852.3,-980.18 812,-944.16 812,-900.62 812,-900.62 812,-900.62 812,-631 812,-616.49 812,-600.86 812,-586.21"/>
<polygon fill="#c1a78e" stroke="#c1a78e" points="814.8,-586.26 812,-578.26 809.2,-586.26 814.8,-586.26"/>
<text xml:space="preserve" text-anchor="middle" x="837.12" y="-753.95" font-family="Helvetica,sans-Serif" font-size="9.00" fill="#ece1d7">next phase</text>
</g>
<!-- files4 -->
<g id="node15" class="node">
<title>files4</title>
<polygon fill="#4d3850" stroke="#6e6963" points="982.12,-816.5 885.88,-816.5 885.88,-780.5 988.12,-780.5 988.12,-810.5 982.12,-816.5"/>
<polyline fill="none" stroke="#6e6963" points="982.12,-816.5 982.12,-810.5"/>
<polyline fill="none" stroke="#6e6963" points="988.12,-810.5 982.12,-810.5"/>
<text xml:space="preserve" text-anchor="middle" x="937" y="-801.75" font-family="Helvetica,sans-Serif" font-size="10.00" fill="#ece1d7">postgresql.conf +</text>
<text xml:space="preserve" text-anchor="middle" x="937" y="-789" font-family="Helvetica,sans-Serif" font-size="10.00" fill="#ece1d7">standby.signal</text>
</g>
<!-- conf4&#45;&gt;files4 -->
<g id="edge13" class="edge">
<title>conf4&#45;&gt;files4</title>
<path fill="none" stroke="#c1a78e" d="M1046.04,-869.69C1022.32,-854.42 993.66,-835.97 971.68,-821.82"/>
<polygon fill="#c1a78e" stroke="#c1a78e" points="973.42,-819.61 965.18,-817.64 970.39,-824.32 973.42,-819.61"/>
<text xml:space="preserve" text-anchor="middle" x="1016.03" y="-837.2" font-family="Helvetica,sans-Serif" font-size="9.00" fill="#ece1d7">write</text>
</g>
<!-- listen4 -->
<g id="node16" class="node">
<title>listen4</title>
<path fill="#4d3a28" stroke="#6e6963" d="M1157.12,-816.5C1157.12,-816.5 1024.88,-816.5 1024.88,-816.5 1018.88,-816.5 1012.88,-810.5 1012.88,-804.5 1012.88,-804.5 1012.88,-792.5 1012.88,-792.5 1012.88,-786.5 1018.88,-780.5 1024.88,-780.5 1024.88,-780.5 1157.12,-780.5 1157.12,-780.5 1163.12,-780.5 1169.12,-786.5 1169.12,-792.5 1169.12,-792.5 1169.12,-804.5 1169.12,-804.5 1169.12,-810.5 1163.12,-816.5 1157.12,-816.5"/>
<text xml:space="preserve" text-anchor="middle" x="1091" y="-801.75" font-family="Helvetica,sans-Serif" font-size="10.00" fill="#ece1d7">walsender listener up</text>
<text xml:space="preserve" text-anchor="middle" x="1091" y="-789" font-family="Helvetica,sans-Serif" font-size="10.00" fill="#ece1d7">(barrier before shadow start)</text>
</g>
<!-- conf4&#45;&gt;listen4 -->
<g id="edge14" class="edge">
<title>conf4&#45;&gt;listen4</title>
<path fill="none" stroke="#c1a78e" d="M1091,-869.69C1091,-855.89 1091,-839.5 1091,-826.03"/>
<polygon fill="#c1a78e" stroke="#c1a78e" points="1093.8,-826.33 1091,-818.33 1088.2,-826.33 1093.8,-826.33"/>
</g>
<!-- start4 -->
<g id="node17" class="node">
<title>start4</title>
<path fill="#4d3a28" stroke="#6e6963" d="M1135,-733.25C1135,-733.25 993,-733.25 993,-733.25 987,-733.25 981,-727.25 981,-721.25 981,-721.25 981,-709.25 981,-709.25 981,-703.25 987,-697.25 993,-697.25 993,-697.25 1135,-697.25 1135,-697.25 1141,-697.25 1147,-703.25 1147,-709.25 1147,-709.25 1147,-721.25 1147,-721.25 1147,-727.25 1141,-733.25 1135,-733.25"/>
<text xml:space="preserve" text-anchor="middle" x="1064" y="-718.5" font-family="Helvetica,sans-Serif" font-size="10.00" fill="#ece1d7">Shadow::start (recovery mode)</text>
<text xml:space="preserve" text-anchor="middle" x="1064" y="-705.75" font-family="Helvetica,sans-Serif" font-size="10.00" fill="#ece1d7">block_in_place pg_ctl</text>
</g>
<!-- listen4&#45;&gt;start4 -->
<g id="edge15" class="edge">
<title>listen4&#45;&gt;start4</title>
<path fill="none" stroke="#c1a78e" d="M1085.27,-780.27C1081.65,-769.36 1076.89,-755.03 1072.79,-742.69"/>
<polygon fill="#c1a78e" stroke="#c1a78e" points="1075.47,-741.88 1070.29,-735.17 1070.15,-743.65 1075.47,-741.88"/>
<text xml:space="preserve" text-anchor="middle" x="1094.12" y="-753.95" font-family="Helvetica,sans-Serif" font-size="9.00" fill="#ece1d7">barrier</text>
</g>
<!-- shd4 -->
<g id="node18" class="node">
<title>shd4</title>
<path fill="#3d4128" stroke="#6e6963" d="M1106.38,-650C1106.38,-650 987.62,-650 987.62,-650 981.62,-650 975.62,-644 975.62,-638 975.62,-638 975.62,-626 975.62,-626 975.62,-620 981.62,-614 987.62,-614 987.62,-614 1106.38,-614 1106.38,-614 1112.38,-614 1118.38,-620 1118.38,-626 1118.38,-626 1118.38,-638 1118.38,-638 1118.38,-644 1112.38,-650 1106.38,-650"/>
<text xml:space="preserve" text-anchor="middle" x="1047" y="-635.25" font-family="Helvetica,sans-Serif" font-size="10.00" fill="#ece1d7">postmaster + walreceiver</text>
<text xml:space="preserve" text-anchor="middle" x="1047" y="-622.5" font-family="Helvetica,sans-Serif" font-size="10.00" fill="#ece1d7">begin replay</text>
</g>
<!-- start4&#45;&gt;shd4 -->
<g id="edge16" class="edge">
<title>start4&#45;&gt;shd4</title>
<path fill="none" stroke="#c1a78e" d="M1060.39,-697.02C1058.11,-686.11 1055.11,-671.78 1052.53,-659.44"/>
<polygon fill="#c1a78e" stroke="#c1a78e" points="1055.35,-659.22 1050.97,-651.97 1049.87,-660.37 1055.35,-659.22"/>
<text xml:space="preserve" text-anchor="middle" x="1082.39" y="-670.7" font-family="Helvetica,sans-Serif" font-size="9.00" fill="#ece1d7">pg_ctl start</text>
</g>
<!-- apply5 -->
<g id="node23" class="node">
<title>apply5</title>
<path fill="#3d4128" stroke="#6e6963" d="M1113.5,-543.5C1113.5,-543.5 956.5,-543.5 956.5,-543.5 950.5,-543.5 944.5,-537.5 944.5,-531.5 944.5,-531.5 944.5,-519.5 944.5,-519.5 944.5,-513.5 950.5,-507.5 956.5,-507.5 956.5,-507.5 1113.5,-507.5 1113.5,-507.5 1119.5,-507.5 1125.5,-513.5 1125.5,-519.5 1125.5,-519.5 1125.5,-531.5 1125.5,-531.5 1125.5,-537.5 1119.5,-543.5 1113.5,-543.5"/>
<text xml:space="preserve" text-anchor="middle" x="1035" y="-528.75" font-family="Helvetica,sans-Serif" font-size="10.00" fill="#ece1d7">pg_last_wal_replay_lsn ≥ end_lsn</text>
<text xml:space="preserve" text-anchor="middle" x="1035" y="-516" font-family="Helvetica,sans-Serif" font-size="10.00" fill="#ece1d7">ready for relation_at gate</text>
</g>
<!-- shd4&#45;&gt;apply5 -->
<g id="edge23" class="edge">
<title>shd4&#45;&gt;apply5</title>
<path fill="none" stroke="#869461" stroke-dasharray="5,2" d="M1045.02,-613.74C1043.13,-597.26 1040.24,-572.16 1038.06,-553.11"/>
<polygon fill="#869461" stroke="#869461" points="1040.85,-552.91 1037.16,-545.29 1035.29,-553.55 1040.85,-552.91"/>
<text xml:space="preserve" text-anchor="middle" x="1083.28" y="-587.45" font-family="Helvetica,sans-Serif" font-size="9.00" fill="#ece1d7">replay catches up</text>
</g>
<!-- feed5 -->
<g id="node21" class="node">
<title>feed5</title>
<path fill="#4d3a28" stroke="#6e6963" d="M919.12,-470.5C919.12,-470.5 822.88,-470.5 822.88,-470.5 816.88,-470.5 810.88,-464.5 810.88,-458.5 810.88,-458.5 810.88,-436.25 810.88,-436.25 810.88,-430.25 816.88,-424.25 822.88,-424.25 822.88,-424.25 919.12,-424.25 919.12,-424.25 925.12,-424.25 931.12,-430.25 931.12,-436.25 931.12,-436.25 931.12,-458.5 931.12,-458.5 931.12,-464.5 925.12,-470.5 919.12,-470.5"/>
<text xml:space="preserve" text-anchor="middle" x="871" y="-457" font-family="Helvetica,sans-Serif" font-size="10.00" fill="#ece1d7">SourceFeed open</text>
<text xml:space="preserve" text-anchor="middle" x="871" y="-444.25" font-family="Helvetica,sans-Serif" font-size="10.00" fill="#ece1d7">START_REPLICATION</text>
<text xml:space="preserve" text-anchor="middle" x="871" y="-431.5" font-family="Helvetica,sans-Serif" font-size="10.00" fill="#ece1d7">PHYSICAL &lt;end_lsn&gt;</text>
</g>
<!-- seed5&#45;&gt;feed5 -->
<g id="edge18" class="edge">
<title>seed5&#45;&gt;feed5</title>
<path fill="none" stroke="#c1a78e" d="M825.39,-507.23C832.05,-498.63 840.3,-487.99 847.94,-478.13"/>
<polygon fill="#c1a78e" stroke="#c1a78e" points="850.02,-480.02 852.7,-471.98 845.59,-476.59 850.02,-480.02"/>
</g>
<!-- manifest5 -->
<g id="node20" class="node">
<title>manifest5</title>
<polygon fill="#4d3850" stroke="#6e6963" points="792.12,-365.5 689.88,-365.5 689.88,-329.5 798.12,-329.5 798.12,-359.5 792.12,-365.5"/>
<polyline fill="none" stroke="#6e6963" points="792.12,-365.5 792.12,-359.5"/>
<polyline fill="none" stroke="#6e6963" points="798.12,-359.5 792.12,-359.5"/>
<text xml:space="preserve" text-anchor="middle" x="744" y="-350.75" font-family="Helvetica,sans-Serif" font-size="10.00" fill="#ece1d7">manifest.toml</text>
<text xml:space="preserve" text-anchor="middle" x="744" y="-338" font-family="Helvetica,sans-Serif" font-size="10.00" fill="#ece1d7">saved restart state</text>
</g>
<!-- feed5&#45;&gt;manifest5 -->
<g id="edge19" class="edge">
<title>feed5&#45;&gt;manifest5</title>
<path fill="none" stroke="#b380b0" stroke-dasharray="1,5" d="M810.59,-424.23C800.8,-419.17 791.2,-413.19 783,-406.25 772.48,-397.34 763.59,-384.92 756.98,-373.88"/>
<polygon fill="#b380b0" stroke="#b380b0" points="759.51,-372.67 753.12,-367.11 754.64,-375.44 759.51,-372.67"/>
<text xml:space="preserve" text-anchor="middle" x="825" y="-397.7" font-family="Helvetica,sans-Serif" font-size="9.00" fill="#ece1d7">first status update</text>
</g>
<!-- repl5 -->
<g id="node22" class="node">
<title>repl5</title>
<path fill="#3d3d54" stroke="#6e6963" d="M919.12,-365.5C919.12,-365.5 834.88,-365.5 834.88,-365.5 828.88,-365.5 822.88,-359.5 822.88,-353.5 822.88,-353.5 822.88,-341.5 822.88,-341.5 822.88,-335.5 828.88,-329.5 834.88,-329.5 834.88,-329.5 919.12,-329.5 919.12,-329.5 925.12,-329.5 931.12,-335.5 931.12,-341.5 931.12,-341.5 931.12,-353.5 931.12,-353.5 931.12,-359.5 925.12,-365.5 919.12,-365.5"/>
<text xml:space="preserve" text-anchor="middle" x="877" y="-350.75" font-family="Helvetica,sans-Serif" font-size="10.00" fill="#ece1d7">streaming protocol</text>
<text xml:space="preserve" text-anchor="middle" x="877" y="-338" font-family="Helvetica,sans-Serif" font-size="10.00" fill="#ece1d7">opens at end_lsn</text>
</g>
<!-- feed5&#45;&gt;repl5 -->
<g id="edge20" class="edge">
<title>feed5&#45;&gt;repl5</title>
<path fill="none" stroke="#a1a9cc" d="M872.93,-414.97C873.71,-402.1 874.62,-387.36 875.37,-375.03"/>
<polygon fill="#a1a9cc" stroke="#a1a9cc" points="872.44,-422.95 869.33,-414.74 872.61,-420.17 872.93,-414.96 872.93,-414.96 872.93,-414.96 872.61,-420.17 876.52,-415.18 872.44,-422.95"/>
<polygon fill="#a1a9cc" stroke="#a1a9cc" points="878.16,-375.42 875.85,-367.26 872.57,-375.07 878.16,-375.42"/>
<text xml:space="preserve" text-anchor="middle" x="919" y="-397.7" font-family="Helvetica,sans-Serif" font-size="9.00" fill="#ece1d7">START_REPLICATION</text>
</g>
<!-- hot5 -->
<g id="node24" class="node">
<title>hot5</title>
<polygon fill="#4d3a28" stroke="#6e6963" points="1113.88,-371 956.12,-371 956.12,-324 1113.88,-324 1125.88,-347.5 1113.88,-371"/>
<text xml:space="preserve" text-anchor="middle" x="1041" y="-363.5" font-family="Helvetica,sans-Serif" font-size="10.00" fill="#ece1d7">hot streaming</text>
<text xml:space="preserve" text-anchor="middle" x="1041" y="-350.75" font-family="Helvetica,sans-Serif" font-size="10.00" fill="#ece1d7">(pipeline: reorder → decode ×M</text>
<text xml:space="preserve" text-anchor="middle" x="1041" y="-338" font-family="Helvetica,sans-Serif" font-size="10.00" fill="#ece1d7">→ same tail + DdlApplicator)</text>
<text xml:space="preserve" text-anchor="middle" x="1041" y="-325.25" font-family="Helvetica,sans-Serif" font-size="10.00" fill="#ece1d7">→ timeline_streaming</text>
</g>
<!-- feed5&#45;&gt;hot5 -->
<g id="edge21" class="edge">
<title>feed5&#45;&gt;hot5</title>
<path fill="none" stroke="#c1a78e" d="M931.53,-425.18C944.57,-419.7 958.03,-413.33 970,-406.25 981.12,-399.68 992.33,-391.46 1002.46,-383.3"/>
<polygon fill="#c1a78e" stroke="#c1a78e" points="1004.06,-385.6 1008.46,-378.36 1000.5,-381.28 1004.06,-385.6"/>
</g>
<!-- legend -->
<g id="node25" class="node">
<title>legend</title>
<path fill="#6e6963" stroke="none" d="M1125,-281C1125,-281 957,-281 957,-281 951,-281 945,-275 945,-269 945,-269 945,-12 945,-12 945,-6 951,0 957,0 957,0 1125,0 1125,0 1131,0 1137,-6 1137,-12 1137,-12 1137,-269 1137,-269 1137,-275 1131,-281 1125,-281"/>
<polygon fill="#34302c" stroke="none" points="953,-254.25 953,-277 1129,-277 1129,-254.25 953,-254.25"/>
<polygon fill="none" stroke="#6e6963" points="953,-254.25 953,-277 1129,-277 1129,-254.25 953,-254.25"/>
<text xml:space="preserve" text-anchor="start" x="994.5" y="-263.5" font-family="Helvetica,sans-Serif" font-weight="bold" font-size="10.00" fill="#ece1d7">node fill — actor</text>
<polygon fill="#403a36" stroke="none" points="953,-231.5 953,-254.25 981,-254.25 981,-231.5 953,-231.5"/>
<polygon fill="none" stroke="#6e6963" points="953,-231.5 953,-254.25 981,-254.25 981,-231.5 953,-231.5"/>
<polygon fill="none" stroke="#6e6963" points="981,-231.5 981,-254.25 1129,-254.25 1129,-231.5 981,-231.5"/>
<text xml:space="preserve" text-anchor="start" x="1022.38" y="-239.5" font-family="Helvetica,sans-Serif" font-size="10.00" fill="#ece1d7">operator / CLI</text>
<polygon fill="#3d3d54" stroke="none" points="953,-208.75 953,-231.5 981,-231.5 981,-208.75 953,-208.75"/>
<polygon fill="none" stroke="#6e6963" points="953,-208.75 953,-231.5 981,-231.5 981,-208.75 953,-208.75"/>
<polygon fill="none" stroke="#6e6963" points="981,-208.75 981,-231.5 1129,-231.5 1129,-208.75 981,-208.75"/>
<text xml:space="preserve" text-anchor="start" x="1016.38" y="-216.75" font-family="Helvetica,sans-Serif" font-size="10.00" fill="#ece1d7">source Postgres</text>
<polygon fill="#4d3a28" stroke="none" points="953,-186 953,-208.75 981,-208.75 981,-186 953,-186"/>
<polygon fill="none" stroke="#6e6963" points="953,-186 953,-208.75 981,-208.75 981,-186 953,-186"/>
<polygon fill="none" stroke="#6e6963" points="981,-186 981,-208.75 1129,-208.75 1129,-186 981,-186"/>
<text xml:space="preserve" text-anchor="start" x="1008.5" y="-194" font-family="Helvetica,sans-Serif" font-size="10.00" fill="#ece1d7">walshadow&#45;stream</text>
<polygon fill="#4d3850" stroke="none" points="953,-163.25 953,-186 981,-186 981,-163.25 953,-163.25"/>
<polygon fill="none" stroke="#6e6963" points="953,-163.25 953,-186 981,-186 981,-163.25 953,-163.25"/>
<polygon fill="none" stroke="#6e6963" points="981,-163.25 981,-186 1129,-186 1129,-163.25 981,-163.25"/>
<text xml:space="preserve" text-anchor="start" x="1017.88" y="-171.25" font-family="Helvetica,sans-Serif" font-size="10.00" fill="#ece1d7">on&#45;disk artifact</text>
<polygon fill="#3d4128" stroke="none" points="953,-140.5 953,-163.25 981,-163.25 981,-140.5 953,-140.5"/>
<polygon fill="none" stroke="#6e6963" points="953,-140.5 953,-163.25 981,-163.25 981,-140.5 953,-140.5"/>
<polygon fill="none" stroke="#6e6963" points="981,-140.5 981,-163.25 1129,-163.25 1129,-140.5 981,-140.5"/>
<text xml:space="preserve" text-anchor="start" x="1013.75" y="-148.5" font-family="Helvetica,sans-Serif" font-size="10.00" fill="#ece1d7">shadow Postgres</text>
<polygon fill="#4d4128" stroke="none" points="953,-117.75 953,-140.5 981,-140.5 981,-117.75 953,-117.75"/>
<polygon fill="none" stroke="#6e6963" points="953,-117.75 953,-140.5 981,-140.5 981,-117.75 953,-117.75"/>
<polygon fill="none" stroke="#6e6963" points="981,-117.75 981,-140.5 1129,-140.5 1129,-117.75 981,-117.75"/>
<text xml:space="preserve" text-anchor="start" x="1027.62" y="-125.75" font-family="Helvetica,sans-Serif" font-size="10.00" fill="#ece1d7">ClickHouse</text>
<polygon fill="#34302c" stroke="none" points="953,-95 953,-117.75 1129,-117.75 1129,-95 953,-95"/>
<polygon fill="none" stroke="#6e6963" points="953,-95 953,-117.75 1129,-117.75 1129,-95 953,-95"/>
<text xml:space="preserve" text-anchor="start" x="1007.25" y="-104.25" font-family="Helvetica,sans-Serif" font-weight="bold" font-size="10.00" fill="#ece1d7">edge colour</text>
<polygon fill="none" stroke="#6e6963" points="953,-72.25 953,-95 981,-95 981,-72.25 953,-72.25"/>
<text xml:space="preserve" text-anchor="start" x="961" y="-81.5" font-family="Helvetica,sans-Serif" font-weight="bold" font-size="10.00" fill="#a1a9cc">━━</text>
<polygon fill="none" stroke="#6e6963" points="981,-72.25 981,-95 1129,-95 1129,-72.25 981,-72.25"/>
<text xml:space="preserve" text-anchor="start" x="986" y="-80.25" font-family="Helvetica,sans-Serif" font-size="10.00" fill="#ece1d7">physical replication protocol</text>
<polygon fill="none" stroke="#6e6963" points="953,-49.5 953,-72.25 981,-72.25 981,-49.5 953,-49.5"/>
<text xml:space="preserve" text-anchor="start" x="961" y="-58.75" font-family="Helvetica,sans-Serif" font-weight="bold" font-size="10.00" fill="#cba85e">━━</text>
<polygon fill="none" stroke="#6e6963" points="981,-49.5 981,-72.25 1129,-72.25 1129,-49.5 981,-49.5"/>
<text xml:space="preserve" text-anchor="start" x="1008.12" y="-57.5" font-family="Helvetica,sans-Serif" font-size="10.00" fill="#ece1d7">libpq catalog query</text>
<polygon fill="none" stroke="#6e6963" points="953,-26.75 953,-49.5 981,-49.5 981,-26.75 953,-26.75"/>
<text xml:space="preserve" text-anchor="start" x="961" y="-36" font-family="Helvetica,sans-Serif" font-weight="bold" font-size="10.00" fill="#bf8c5f">━━</text>
<polygon fill="none" stroke="#6e6963" points="981,-26.75 981,-49.5 1129,-49.5 1129,-26.75 981,-26.75"/>
<text xml:space="preserve" text-anchor="start" x="992.75" y="-34.75" font-family="Helvetica,sans-Serif" font-size="10.00" fill="#ece1d7">ClickHouse Native blocks</text>
<polygon fill="none" stroke="#6e6963" points="953,-4 953,-26.75 981,-26.75 981,-4 953,-4"/>
<text xml:space="preserve" text-anchor="start" x="961" y="-13.25" font-family="Helvetica,sans-Serif" font-weight="bold" font-size="10.00" fill="#869461">┄┄</text>
<polygon fill="none" stroke="#6e6963" points="981,-4 981,-26.75 1129,-26.75 1129,-4 981,-4"/>
<text xml:space="preserve" text-anchor="start" x="996.88" y="-12" font-family="Helvetica,sans-Serif" font-size="10.00" fill="#ece1d7">shadow replay progress</text>
</g>
<!-- hot5&#45;&gt;legend -->
</g>
</svg>
