<?xml version="1.0" encoding="UTF-8" standalone="no"?>
<!DOCTYPE svg PUBLIC "-//W3C//DTD SVG 1.1//EN"
 "http://www.w3.org/Graphics/SVG/1.1/DTD/svg11.dtd">
<!-- Generated by graphviz version 14.1.5 (0)
 -->
<!-- Title: timeline_streaming Pages: 1 -->
<svg width="4818pt" height="720pt"
 viewBox="0.00 0.00 4818.00 720.00" xmlns="http://www.w3.org/2000/svg" xmlns:xlink="http://www.w3.org/1999/xlink">
<g id="graph0" class="graph" transform="scale(1 1) rotate(0) translate(4 716.38)">
<title>timeline_streaming</title>
<polygon fill="#272623" stroke="none" points="-4,4 -4,-716.38 4813.54,-716.38 4813.54,4 -4,4"/>
<text xml:space="preserve" text-anchor="middle" x="2404.77" y="-695.08" font-family="Helvetica,sans-Serif" font-size="14.00" fill="#ece1d7">walshadow steady&#45;state streaming — one record&#39;s journey through hot path (post&#45;PHASE15)</text>
<g id="clust1" class="cluster">
<title>cluster_p1</title>
<path fill="#34302c" stroke="#4c4641" d="M20,-139C20,-139 484.5,-139 484.5,-139 490.5,-139 496.5,-145 496.5,-151 496.5,-151 496.5,-204 496.5,-204 496.5,-210 490.5,-216 484.5,-216 484.5,-216 20,-216 20,-216 14,-216 8,-210 8,-204 8,-204 8,-151 8,-151 8,-145 14,-139 20,-139"/>
<text xml:space="preserve" text-anchor="middle" x="252.25" y="-198.7" font-family="Helvetica,sans-Serif" font-size="14.00" fill="#ece1d7">① ingress</text>
</g>
<g id="clust2" class="cluster">
<title>cluster_p2</title>
<path fill="#34302c" stroke="#4c4641" d="M537.5,-123C537.5,-123 1238,-123 1238,-123 1244,-123 1250,-129 1250,-135 1250,-135 1250,-220 1250,-220 1250,-226 1244,-232 1238,-232 1238,-232 537.5,-232 537.5,-232 531.5,-232 525.5,-226 525.5,-220 525.5,-220 525.5,-135 525.5,-135 525.5,-129 531.5,-123 537.5,-123"/>
<text xml:space="preserve" text-anchor="middle" x="887.75" y="-214.7" font-family="Helvetica,sans-Serif" font-size="14.00" fill="#ece1d7">② filter + rewrite</text>
</g>
<g id="clust3" class="cluster">
<title>cluster_p3</title>
<path fill="#34302c" stroke="#4c4641" d="M1291,-69C1291,-69 1621.25,-69 1621.25,-69 1627.25,-69 1633.25,-75 1633.25,-81 1633.25,-81 1633.25,-298 1633.25,-298 1633.25,-304 1627.25,-310 1621.25,-310 1621.25,-310 1291,-310 1291,-310 1285,-310 1279,-304 1279,-298 1279,-298 1279,-81 1279,-81 1279,-75 1285,-69 1291,-69"/>
<text xml:space="preserve" text-anchor="middle" x="1456.13" y="-292.7" font-family="Helvetica,sans-Serif" font-size="14.00" fill="#ece1d7">③ fan&#45;out (pump task, sync — ordering matters)</text>
</g>
<g id="clust4" class="cluster">
<title>cluster_p4</title>
<path fill="#34302c" stroke="#4c4641" d="M1961.37,-134C1961.37,-134 2342.54,-134 2342.54,-134 2348.54,-134 2354.54,-140 2354.54,-146 2354.54,-146 2354.54,-204 2354.54,-204 2354.54,-210 2348.54,-216 2342.54,-216 2342.54,-216 1961.37,-216 1961.37,-216 1955.37,-216 1949.37,-210 1949.37,-204 1949.37,-204 1949.37,-146 1949.37,-146 1949.37,-140 1955.37,-134 1961.37,-134"/>
<text xml:space="preserve" text-anchor="middle" x="2151.95" y="-198.7" font-family="Helvetica,sans-Serif" font-size="14.00" fill="#ece1d7">④ shadow apply &#160;(record cadence, ms — pump task)</text>
</g>
<g id="clust5" class="cluster">
<title>cluster_pQ</title>
<path fill="#34302c" stroke="#4c4641" d="M1674.25,-224C1674.25,-224 2330.54,-224 2330.54,-224 2336.54,-224 2342.54,-230 2342.54,-236 2342.54,-236 2342.54,-321 2342.54,-321 2342.54,-327 2336.54,-333 2330.54,-333 2330.54,-333 1674.25,-333 1674.25,-333 1668.25,-333 1662.25,-327 1662.25,-321 1662.25,-321 1662.25,-236 1662.25,-236 1662.25,-230 1668.25,-224 1674.25,-224"/>
<text xml:space="preserve" text-anchor="middle" x="2002.4" y="-315.7" font-family="Helvetica,sans-Serif" font-size="14.00" fill="#ece1d7">④&#39; QueueingRecordSink hand&#45;off &#160;(pump → worker, decouples ④ from ⑤)</text>
</g>
<g id="clust6" class="cluster">
<title>cluster_p5</title>
<path fill="#34302c" stroke="#4c4641" d="M2465.79,-235C2465.79,-235 2916.04,-235 2916.04,-235 2922.04,-235 2928.04,-241 2928.04,-247 2928.04,-247 2928.04,-310 2928.04,-310 2928.04,-316 2922.04,-322 2916.04,-322 2916.04,-322 2465.79,-322 2465.79,-322 2459.79,-322 2453.79,-316 2453.79,-310 2453.79,-310 2453.79,-247 2453.79,-247 2453.79,-241 2459.79,-235 2465.79,-235"/>
<text xml:space="preserve" text-anchor="middle" x="2690.92" y="-304.7" font-family="Helvetica,sans-Serif" font-size="14.00" fill="#ece1d7">⑤ decoder gate clears + xact buffer &#160;(worker task — gated on ④)</text>
</g>
<g id="clust7" class="cluster">
<title>cluster_p6</title>
<path fill="#34302c" stroke="#4c4641" d="M3045.29,-247C3045.29,-247 4388.92,-247 4388.92,-247 4394.92,-247 4400.92,-253 4400.92,-259 4400.92,-259 4400.92,-367 4400.92,-367 4400.92,-373 4394.92,-379 4388.92,-379 4388.92,-379 3045.29,-379 3045.29,-379 3039.29,-379 3033.29,-373 3033.29,-367 3033.29,-367 3033.29,-259 3033.29,-259 3033.29,-253 3039.29,-247 3045.29,-247"/>
<text xml:space="preserve" text-anchor="middle" x="3717.1" y="-361.7" font-family="Helvetica,sans-Serif" font-size="14.00" fill="#ece1d7">⑥ XLOG_XACT_COMMIT &#160;→ drain → CH (held&#45;open INSERT, PHASE14 §02)</text>
</g>
<g id="clust8" class="cluster">
<title>cluster_p7</title>
<path fill="#34302c" stroke="#4c4641" d="M4245.54,-8C4245.54,-8 4681.17,-8 4681.17,-8 4687.17,-8 4693.17,-14 4693.17,-20 4693.17,-20 4693.17,-227 4693.17,-227 4693.17,-233 4687.17,-239 4681.17,-239 4681.17,-239 4245.54,-239 4245.54,-239 4239.54,-239 4233.54,-233 4233.54,-227 4233.54,-227 4233.54,-20 4233.54,-20 4233.54,-14 4239.54,-8 4245.54,-8"/>
<text xml:space="preserve" text-anchor="middle" x="4463.35" y="-221.7" font-family="Helvetica,sans-Serif" font-size="14.00" fill="#ece1d7">⑦ async durability &#160;(off hot path, segment / cursor cadence)</text>
</g>
<!-- commit -->
<g id="node1" class="node">
<title>commit</title>
<path fill="#3d3d54" stroke="#6e6963" d="M143.75,-183C143.75,-183 28,-183 28,-183 22,-183 16,-177 16,-171 16,-171 16,-159 16,-159 16,-153 22,-147 28,-147 28,-147 143.75,-147 143.75,-147 149.75,-147 155.75,-153 155.75,-159 155.75,-159 155.75,-171 155.75,-171 155.75,-177 149.75,-183 143.75,-183"/>
<text xml:space="preserve" text-anchor="middle" x="85.88" y="-168.25" font-family="Helvetica,sans-Serif" font-size="10.00" fill="#ece1d7">COMMIT on demo.users</text>
<text xml:space="preserve" text-anchor="middle" x="85.88" y="-155.5" font-family="Helvetica,sans-Serif" font-size="10.00" fill="#ece1d7">UPDATE → WAL @ LSN=X</text>
</g>
<!-- wsend -->
<g id="node2" class="node">
<title>wsend</title>
<path fill="#3d3d54" stroke="#6e6963" d="M302.25,-183C302.25,-183 212.75,-183 212.75,-183 206.75,-183 200.75,-177 200.75,-171 200.75,-171 200.75,-159 200.75,-159 200.75,-153 206.75,-147 212.75,-147 212.75,-147 302.25,-147 302.25,-147 308.25,-147 314.25,-153 314.25,-159 314.25,-159 314.25,-171 314.25,-171 314.25,-177 308.25,-183 302.25,-183"/>
<text xml:space="preserve" text-anchor="middle" x="257.5" y="-168.25" font-family="Helvetica,sans-Serif" font-size="10.00" fill="#ece1d7">source walsender</text>
<text xml:space="preserve" text-anchor="middle" x="257.5" y="-155.5" font-family="Helvetica,sans-Serif" font-size="10.00" fill="#ece1d7">CopyData &#39;w&#39; frame</text>
</g>
<!-- commit&#45;&gt;wsend -->
<g id="edge1" class="edge">
<title>commit&#45;&gt;wsend</title>
<path fill="none" stroke="#a1a9cc" d="M155.87,-165C167.4,-165 179.35,-165 190.8,-165"/>
<polygon fill="#a1a9cc" stroke="#a1a9cc" points="190.77,-167.8 198.77,-165 190.77,-162.2 190.77,-167.8"/>
</g>
<!-- feed -->
<g id="node3" class="node">
<title>feed</title>
<path fill="#4d3a28" stroke="#6e6963" d="M476.5,-183C476.5,-183 371.25,-183 371.25,-183 365.25,-183 359.25,-177 359.25,-171 359.25,-171 359.25,-159 359.25,-159 359.25,-153 365.25,-147 371.25,-147 371.25,-147 476.5,-147 476.5,-147 482.5,-147 488.5,-153 488.5,-159 488.5,-159 488.5,-171 488.5,-171 488.5,-177 482.5,-183 476.5,-183"/>
<text xml:space="preserve" text-anchor="middle" x="423.88" y="-168.25" font-family="Helvetica,sans-Serif" font-size="10.00" fill="#ece1d7">SourceFeed::pump</text>
<text xml:space="preserve" text-anchor="middle" x="423.88" y="-155.5" font-family="Helvetica,sans-Serif" font-size="10.00" fill="#ece1d7">WalChunk(start_lsn=X)</text>
</g>
<!-- wsend&#45;&gt;feed -->
<g id="edge2" class="edge">
<title>wsend&#45;&gt;feed</title>
<path fill="none" stroke="#a1a9cc" d="M314.61,-165C325.84,-165 337.79,-165 349.5,-165"/>
<polygon fill="#a1a9cc" stroke="#a1a9cc" points="349.31,-167.8 357.31,-165 349.31,-162.2 349.31,-167.8"/>
</g>
<!-- push -->
<g id="node4" class="node">
<title>push</title>
<path fill="#4d3a28" stroke="#6e6963" d="M620.75,-188.12C620.75,-188.12 545.5,-188.12 545.5,-188.12 539.5,-188.12 533.5,-182.12 533.5,-176.12 533.5,-176.12 533.5,-153.88 533.5,-153.88 533.5,-147.88 539.5,-141.88 545.5,-141.88 545.5,-141.88 620.75,-141.88 620.75,-141.88 626.75,-141.88 632.75,-147.88 632.75,-153.88 632.75,-153.88 632.75,-176.12 632.75,-176.12 632.75,-182.12 626.75,-188.12 620.75,-188.12"/>
<text xml:space="preserve" text-anchor="middle" x="583.12" y="-174.62" font-family="Helvetica,sans-Serif" font-size="10.00" fill="#ece1d7">WalStream::push</text>
<text xml:space="preserve" text-anchor="middle" x="583.12" y="-161.88" font-family="Helvetica,sans-Serif" font-size="10.00" fill="#ece1d7">StreamingWalker</text>
<text xml:space="preserve" text-anchor="middle" x="583.12" y="-149.12" font-family="Helvetica,sans-Serif" font-size="10.00" fill="#ece1d7">extend / try_next</text>
</g>
<!-- feed&#45;&gt;push -->
<g id="edge6" class="edge">
<title>feed&#45;&gt;push</title>
<path fill="none" stroke="#c1a78e" d="M488.83,-165C500.39,-165 512.39,-165 523.78,-165"/>
<polygon fill="#c1a78e" stroke="#c1a78e" points="515.99,-167.8 523.99,-165 515.99,-162.2 515.99,-167.8"/>
</g>
<!-- rec -->
<g id="node5" class="node">
<title>rec</title>
<path fill="#4d3a28" stroke="#6e6963" d="M919.75,-198.5C919.75,-198.5 741.72,-198.5 741.72,-198.5 735.72,-198.5 726.04,-193.76 722.37,-189.02 722.37,-189.02 685.11,-140.98 685.11,-140.98 681.43,-136.24 683.75,-131.5 689.75,-131.5 689.75,-131.5 867.78,-131.5 867.78,-131.5 873.78,-131.5 883.46,-136.24 887.14,-140.98 887.14,-140.98 924.4,-189.02 924.4,-189.02 928.08,-193.76 925.75,-198.5 919.75,-198.5"/>
<text xml:space="preserve" text-anchor="middle" x="804.75" y="-168.25" font-family="Helvetica,sans-Serif" font-size="10.00" fill="#ece1d7">CompletedRecord</text>
<text xml:space="preserve" text-anchor="middle" x="804.75" y="-155.5" font-family="Helvetica,sans-Serif" font-size="10.00" fill="#ece1d7">(parsed, byte_ranges)</text>
</g>
<!-- push&#45;&gt;rec -->
<g id="edge3" class="edge">
<title>push&#45;&gt;rec</title>
<path fill="none" stroke="#c1a78e" d="M633.14,-165C651.2,-165 672.47,-165 693.74,-165"/>
<polygon fill="#c1a78e" stroke="#c1a78e" points="693.66,-167.8 701.66,-165 693.66,-162.2 693.66,-167.8"/>
</g>
<!-- decide -->
<g id="node6" class="node">
<title>decide</title>
<path fill="#4d3a28" stroke="#6e6963" d="M1063.25,-188.12C1063.25,-188.12 988.75,-188.12 988.75,-188.12 982.75,-188.12 976.75,-182.12 976.75,-176.12 976.75,-176.12 976.75,-153.88 976.75,-153.88 976.75,-147.88 982.75,-141.88 988.75,-141.88 988.75,-141.88 1063.25,-141.88 1063.25,-141.88 1069.25,-141.88 1075.25,-147.88 1075.25,-153.88 1075.25,-153.88 1075.25,-176.12 1075.25,-176.12 1075.25,-182.12 1069.25,-188.12 1063.25,-188.12"/>
<text xml:space="preserve" text-anchor="middle" x="1026" y="-174.62" font-family="Helvetica,sans-Serif" font-size="10.00" fill="#ece1d7">Filter::decide</text>
<text xml:space="preserve" text-anchor="middle" x="1026" y="-161.88" font-family="Helvetica,sans-Serif" font-size="10.00" fill="#ece1d7">→ Decision::Drop</text>
<text xml:space="preserve" text-anchor="middle" x="1026" y="-149.12" font-family="Helvetica,sans-Serif" font-size="10.00" fill="#ece1d7">(user heap)</text>
</g>
<!-- rec&#45;&gt;decide -->
<g id="edge4" class="edge">
<title>rec&#45;&gt;decide</title>
<path fill="none" stroke="#c1a78e" d="M906.39,-165C927.1,-165 948.24,-165 966.82,-165"/>
<polygon fill="#c1a78e" stroke="#c1a78e" points="966.78,-167.8 974.78,-165 966.78,-162.2 966.78,-167.8"/>
</g>
<!-- rewr -->
<g id="node7" class="node">
<title>rewr</title>
<path fill="#4d3a28" stroke="#6e6963" d="M1230,-183C1230,-183 1132.25,-183 1132.25,-183 1126.25,-183 1120.25,-177 1120.25,-171 1120.25,-171 1120.25,-159 1120.25,-159 1120.25,-153 1126.25,-147 1132.25,-147 1132.25,-147 1230,-147 1230,-147 1236,-147 1242,-153 1242,-159 1242,-159 1242,-171 1242,-171 1242,-177 1236,-183 1230,-183"/>
<text xml:space="preserve" text-anchor="middle" x="1181.13" y="-168.25" font-family="Helvetica,sans-Serif" font-size="10.00" fill="#ece1d7">rewrite::noop_replace</text>
<text xml:space="preserve" text-anchor="middle" x="1181.13" y="-155.5" font-family="Helvetica,sans-Serif" font-size="10.00" fill="#ece1d7">in&#45;place + CRC32C</text>
</g>
<!-- decide&#45;&gt;rewr -->
<g id="edge5" class="edge">
<title>decide&#45;&gt;rewr</title>
<path fill="none" stroke="#c1a78e" d="M1075.45,-165C1086.59,-165 1098.64,-165 1110.47,-165"/>
<polygon fill="#c1a78e" stroke="#c1a78e" points="1110.37,-167.8 1118.37,-165 1110.37,-162.2 1110.37,-167.8"/>
</g>
<!-- fbytes -->
<g id="node8" class="node">
<title>fbytes</title>
<path fill="#4d3340" stroke="#6e6963" d="M1504.5,-188.12C1504.5,-188.12 1406.75,-188.12 1406.75,-188.12 1400.75,-188.12 1394.75,-182.12 1394.75,-176.12 1394.75,-176.12 1394.75,-153.88 1394.75,-153.88 1394.75,-147.88 1400.75,-141.88 1406.75,-141.88 1406.75,-141.88 1504.5,-141.88 1504.5,-141.88 1510.5,-141.88 1516.5,-147.88 1516.5,-153.88 1516.5,-153.88 1516.5,-176.12 1516.5,-176.12 1516.5,-182.12 1510.5,-188.12 1504.5,-188.12"/>
<text xml:space="preserve" text-anchor="middle" x="1455.63" y="-174.62" font-family="Helvetica,sans-Serif" font-size="10.00" fill="#ece1d7">❶ on_record_bytes</text>
<text xml:space="preserve" text-anchor="middle" x="1455.63" y="-161.88" font-family="Helvetica,sans-Serif" font-size="10.00" fill="#ece1d7">→ ShadowStreamSink</text>
<text xml:space="preserve" text-anchor="middle" x="1455.63" y="-149.12" font-family="Helvetica,sans-Serif" font-size="10.00" fill="#ece1d7">(stays on pump)</text>
</g>
<!-- rewr&#45;&gt;fbytes -->
<g id="edge7" class="edge">
<title>rewr&#45;&gt;fbytes</title>
<path fill="none" stroke="#c1a78e" d="M1242.27,-165C1250.89,-165 1260.11,-165 1269.7,-165"/>
<polygon fill="#c1a78e" stroke="#c1a78e" points="1269.49,-167.8 1277.49,-165 1269.49,-162.2 1269.49,-167.8"/>
</g>
<!-- frec -->
<g id="node9" class="node">
<title>frec</title>
<path fill="#4d3340" stroke="#6e6963" d="M1504.88,-276.5C1504.88,-276.5 1406.38,-276.5 1406.38,-276.5 1400.38,-276.5 1394.38,-270.5 1394.38,-264.5 1394.38,-264.5 1394.38,-229.5 1394.38,-229.5 1394.38,-223.5 1400.38,-217.5 1406.38,-217.5 1406.38,-217.5 1504.88,-217.5 1504.88,-217.5 1510.88,-217.5 1516.88,-223.5 1516.88,-229.5 1516.88,-229.5 1516.88,-264.5 1516.88,-264.5 1516.88,-270.5 1510.88,-276.5 1504.88,-276.5"/>
<text xml:space="preserve" text-anchor="middle" x="1455.63" y="-263" font-family="Helvetica,sans-Serif" font-size="10.00" fill="#ece1d7">❷ on_record →</text>
<text xml:space="preserve" text-anchor="middle" x="1455.63" y="-250.25" font-family="Helvetica,sans-Serif" font-size="10.00" fill="#ece1d7">QueueingRecordSink</text>
<text xml:space="preserve" text-anchor="middle" x="1455.63" y="-237.5" font-family="Helvetica,sans-Serif" font-size="10.00" fill="#ece1d7">(clone + enqueue,</text>
<text xml:space="preserve" text-anchor="middle" x="1455.63" y="-224.75" font-family="Helvetica,sans-Serif" font-size="10.00" fill="#ece1d7"> returns immediately)</text>
</g>
<!-- rewr&#45;&gt;frec -->
<g id="edge8" class="edge">
<title>rewr&#45;&gt;frec</title>
<path fill="none" stroke="#c1a78e" d="M1225.59,-183.42C1242.14,-190.07 1261.28,-197.33 1279,-203 1313.48,-214.03 1352.49,-224.04 1384.96,-231.72"/>
<polygon fill="#c1a78e" stroke="#c1a78e" points="1384.04,-234.38 1392.47,-233.48 1385.32,-228.93 1384.04,-234.38"/>
</g>
<!-- fseg -->
<g id="node10" class="node">
<title>fseg</title>
<path fill="#4d3340" stroke="#6e6963" d="M1505.25,-113C1505.25,-113 1406,-113 1406,-113 1400,-113 1394,-107 1394,-101 1394,-101 1394,-89 1394,-89 1394,-83 1400,-77 1406,-77 1406,-77 1505.25,-77 1505.25,-77 1511.25,-77 1517.25,-83 1517.25,-89 1517.25,-89 1517.25,-101 1517.25,-101 1517.25,-107 1511.25,-113 1505.25,-113"/>
<text xml:space="preserve" text-anchor="middle" x="1455.63" y="-98.25" font-family="Helvetica,sans-Serif" font-size="10.00" fill="#ece1d7">❸ on_segment defers</text>
<text xml:space="preserve" text-anchor="middle" x="1455.63" y="-85.5" font-family="Helvetica,sans-Serif" font-size="10.00" fill="#ece1d7">until 16 MiB boundary</text>
</g>
<!-- rewr&#45;&gt;fseg -->
<g id="edge9" class="edge">
<title>rewr&#45;&gt;fseg</title>
<path fill="none" stroke="#c1a78e" stroke-dasharray="5,2" d="M1223.96,-146.54C1240.81,-139.65 1260.58,-132.24 1279,-127 1313.34,-117.24 1352.33,-109.78 1384.83,-104.53"/>
<polygon fill="#c1a78e" stroke="#c1a78e" points="1384.86,-107.37 1392.32,-103.35 1383.98,-101.83 1384.86,-107.37"/>
</g>
<!-- frame4 -->
<g id="node11" class="node">
<title>frame4</title>
<path fill="#4d3340" stroke="#6e6963" d="M2073.87,-183C2073.87,-183 1969.37,-183 1969.37,-183 1963.37,-183 1957.37,-177 1957.37,-171 1957.37,-171 1957.37,-159 1957.37,-159 1957.37,-153 1963.37,-147 1969.37,-147 1969.37,-147 2073.87,-147 2073.87,-147 2079.87,-147 2085.87,-153 2085.87,-159 2085.87,-159 2085.87,-171 2085.87,-171 2085.87,-177 2079.87,-183 2073.87,-183"/>
<text xml:space="preserve" text-anchor="middle" x="2021.62" y="-168.25" font-family="Helvetica,sans-Serif" font-size="10.00" fill="#ece1d7">frame &#39;w&#39; XLogData</text>
<text xml:space="preserve" text-anchor="middle" x="2021.62" y="-155.5" font-family="Helvetica,sans-Serif" font-size="10.00" fill="#ece1d7">enqueue to send buffer</text>
</g>
<!-- fbytes&#45;&gt;frame4 -->
<g id="edge11" class="edge">
<title>fbytes&#45;&gt;frame4</title>
<path fill="none" stroke="#bd8183" stroke-width="2" d="M1516.99,-165C1620.94,-165 1833.45,-165 1946.32,-165"/>
<polygon fill="#bd8183" stroke="#bd8183" stroke-width="2" points="1938.34,-167.8 1946.34,-165 1938.34,-162.2 1938.34,-167.8"/>
</g>
<!-- qbuf -->
<g id="node13" class="node">
<title>qbuf</title>
<path fill="#4d3a28" stroke="#6e6963" d="M1860.94,-299.5C1860.94,-299.5 1723.73,-299.5 1723.73,-299.5 1717.73,-299.5 1708.57,-294.4 1705.41,-289.3 1705.41,-289.3 1676.57,-242.7 1676.57,-242.7 1673.41,-237.6 1676.25,-232.5 1682.25,-232.5 1682.25,-232.5 1819.47,-232.5 1819.47,-232.5 1825.47,-232.5 1834.63,-237.6 1837.78,-242.7 1837.78,-242.7 1866.62,-289.3 1866.62,-289.3 1869.78,-294.4 1866.94,-299.5 1860.94,-299.5"/>
<text xml:space="preserve" text-anchor="middle" x="1771.6" y="-269.25" font-family="Helvetica,sans-Serif" font-size="10.00" fill="#ece1d7">pump&#45;side batch</text>
<text xml:space="preserve" text-anchor="middle" x="1771.6" y="-256.5" font-family="Helvetica,sans-Serif" font-size="10.00" fill="#ece1d7">batch_size = 64</text>
</g>
<!-- frec&#45;&gt;qbuf -->
<g id="edge14" class="edge">
<title>frec&#45;&gt;qbuf</title>
<path fill="none" stroke="#c1a78e" d="M1517.17,-250.66C1555.59,-252.99 1606.61,-256.08 1652.79,-258.87"/>
<polygon fill="#c1a78e" stroke="#c1a78e" points="1652.59,-261.66 1660.75,-259.35 1652.93,-256.07 1652.59,-261.66"/>
</g>
<!-- seg7 -->
<g id="node26" class="node">
<title>seg7</title>
<path fill="#4d3340" stroke="#6e6963" d="M4390.29,-79.12C4390.29,-79.12 4253.54,-79.12 4253.54,-79.12 4247.54,-79.12 4241.54,-73.12 4241.54,-67.12 4241.54,-67.12 4241.54,-44.88 4241.54,-44.88 4241.54,-38.88 4247.54,-32.88 4253.54,-32.88 4253.54,-32.88 4390.29,-32.88 4390.29,-32.88 4396.29,-32.88 4402.29,-38.88 4402.29,-44.88 4402.29,-44.88 4402.29,-67.12 4402.29,-67.12 4402.29,-73.12 4396.29,-79.12 4390.29,-79.12"/>
<text xml:space="preserve" text-anchor="middle" x="4321.92" y="-65.62" font-family="Helvetica,sans-Serif" font-size="10.00" fill="#ece1d7">DirSegmentSink::on_segment</text>
<text xml:space="preserve" text-anchor="middle" x="4321.92" y="-52.88" font-family="Helvetica,sans-Serif" font-size="10.00" fill="#ece1d7">fsync segment + manifest</text>
<text xml:space="preserve" text-anchor="middle" x="4321.92" y="-40.12" font-family="Helvetica,sans-Serif" font-size="10.00" fill="#ece1d7">fsync parent dir</text>
</g>
<!-- fseg&#45;&gt;seg7 -->
<g id="edge30" class="edge">
<title>fseg&#45;&gt;seg7</title>
<path fill="none" stroke="#c1a78e" stroke-dasharray="5,2" d="M1517.69,-92.52C1580.95,-90.17 1682.67,-87 1770.6,-87 1770.6,-87 1770.6,-87 4066.04,-87 4121.42,-87 4183.08,-79.7 4231.88,-72.18"/>
<polygon fill="#c1a78e" stroke="#c1a78e" points="4225.1,-76.94 4232.08,-72.13 4223.63,-71.53 4225.1,-76.94"/>
<text xml:space="preserve" text-anchor="middle" x="2980.67" y="-89.7" font-family="Helvetica,sans-Serif" font-size="9.00" fill="#ece1d7">16 MiB boundary</text>
</g>
<!-- recv4 -->
<g id="node12" class="node">
<title>recv4</title>
<path fill="#3d4128" stroke="#6e6963" d="M2334.54,-183C2334.54,-183 2218.04,-183 2218.04,-183 2212.04,-183 2206.04,-177 2206.04,-171 2206.04,-171 2206.04,-159 2206.04,-159 2206.04,-153 2212.04,-147 2218.04,-147 2218.04,-147 2334.54,-147 2334.54,-147 2340.54,-147 2346.54,-153 2346.54,-159 2346.54,-159 2346.54,-171 2346.54,-171 2346.54,-177 2340.54,-183 2334.54,-183"/>
<text xml:space="preserve" text-anchor="middle" x="2276.29" y="-168.25" font-family="Helvetica,sans-Serif" font-size="10.00" fill="#ece1d7">walreceiver applies redo</text>
<text xml:space="preserve" text-anchor="middle" x="2276.29" y="-155.5" font-family="Helvetica,sans-Serif" font-size="10.00" fill="#ece1d7">pg_last_wal_replay_lsn ↑</text>
</g>
<!-- frame4&#45;&gt;recv4 -->
<g id="edge10" class="edge">
<title>frame4&#45;&gt;recv4</title>
<path fill="none" stroke="#bd8183" stroke-width="2" d="M2086.05,-165C2119.04,-165 2159.71,-165 2194.88,-165"/>
<polygon fill="#bd8183" stroke="#bd8183" stroke-width="2" points="2194.58,-167.8 2202.58,-165 2194.58,-162.2 2194.58,-167.8"/>
<text xml:space="preserve" text-anchor="middle" x="2165.67" y="-167.7" font-family="Helvetica,sans-Serif" font-size="9.00" fill="#ece1d7">hot wire</text>
</g>
<!-- gate5 -->
<g id="node16" class="node">
<title>gate5</title>
<path fill="#4d4128" stroke="#6e6963" d="M2571.54,-289.12C2571.54,-289.12 2473.79,-289.12 2473.79,-289.12 2467.79,-289.12 2461.79,-283.12 2461.79,-277.12 2461.79,-277.12 2461.79,-254.88 2461.79,-254.88 2461.79,-248.88 2467.79,-242.88 2473.79,-242.88 2473.79,-242.88 2571.54,-242.88 2571.54,-242.88 2577.54,-242.88 2583.54,-248.88 2583.54,-254.88 2583.54,-254.88 2583.54,-277.12 2583.54,-277.12 2583.54,-283.12 2577.54,-289.12 2571.54,-289.12"/>
<text xml:space="preserve" text-anchor="middle" x="2522.67" y="-275.62" font-family="Helvetica,sans-Serif" font-size="10.00" fill="#ece1d7">BufferingDecoderSink</text>
<text xml:space="preserve" text-anchor="middle" x="2522.67" y="-262.88" font-family="Helvetica,sans-Serif" font-size="10.00" fill="#ece1d7">relation_at(rfn, X)</text>
<text xml:space="preserve" text-anchor="middle" x="2522.67" y="-250.12" font-family="Helvetica,sans-Serif" font-size="10.00" fill="#ece1d7">wait_for_replay(X)</text>
</g>
<!-- recv4&#45;&gt;gate5 -->
<g id="edge18" class="edge">
<title>recv4&#45;&gt;gate5</title>
<path fill="none" stroke="#bd8183" stroke-dasharray="5,2" d="M2321.83,-183.41C2359.44,-198.95 2413.8,-221.42 2456.34,-239"/>
<polygon fill="#bd8183" stroke="#bd8183" points="2455.09,-241.51 2463.55,-241.98 2457.23,-236.34 2455.09,-241.51"/>
<text xml:space="preserve" text-anchor="middle" x="2404.17" y="-244.4" font-family="Helvetica,sans-Serif" font-size="9.00" fill="#ece1d7">apply_lsn ≥ X</text>
<text xml:space="preserve" text-anchor="middle" x="2404.17" y="-233.15" font-family="Helvetica,sans-Serif" font-size="9.00" fill="#ece1d7">(unblocks gate)</text>
</g>
<!-- qchn -->
<g id="node14" class="node">
<title>qchn</title>
<path fill="#4d3a28" stroke="#6e6963" d="M2113.29,-299.5C2113.29,-299.5 1972.37,-299.5 1972.37,-299.5 1966.37,-299.5 1957.16,-294.43 1953.95,-289.36 1953.95,-289.36 1924.36,-242.64 1924.36,-242.64 1921.15,-237.57 1923.94,-232.5 1929.94,-232.5 1929.94,-232.5 2070.86,-232.5 2070.86,-232.5 2076.86,-232.5 2086.07,-237.57 2089.28,-242.64 2089.28,-242.64 2118.87,-289.36 2118.87,-289.36 2122.08,-294.43 2119.29,-299.5 2113.29,-299.5"/>
<text xml:space="preserve" text-anchor="middle" x="2021.62" y="-269.25" font-family="Helvetica,sans-Serif" font-size="10.00" fill="#ece1d7">mpsc batch send</text>
<text xml:space="preserve" text-anchor="middle" x="2021.62" y="-256.5" font-family="Helvetica,sans-Serif" font-size="10.00" fill="#ece1d7">(soft cap → yield)</text>
</g>
<!-- qbuf&#45;&gt;qchn -->
<g id="edge12" class="edge">
<title>qbuf&#45;&gt;qchn</title>
<path fill="none" stroke="#c1a78e" d="M1852.78,-266C1877.12,-266 1904.06,-266 1929.09,-266"/>
<polygon fill="#c1a78e" stroke="#c1a78e" points="1929.07,-268.8 1937.07,-266 1929.07,-263.2 1929.07,-268.8"/>
</g>
<!-- qwrk -->
<g id="node15" class="node">
<title>qwrk</title>
<path fill="#4d3a28" stroke="#6e6963" d="M2322.54,-289.12C2322.54,-289.12 2230.04,-289.12 2230.04,-289.12 2224.04,-289.12 2218.04,-283.12 2218.04,-277.12 2218.04,-277.12 2218.04,-254.88 2218.04,-254.88 2218.04,-248.88 2224.04,-242.88 2230.04,-242.88 2230.04,-242.88 2322.54,-242.88 2322.54,-242.88 2328.54,-242.88 2334.54,-248.88 2334.54,-254.88 2334.54,-254.88 2334.54,-277.12 2334.54,-277.12 2334.54,-283.12 2328.54,-289.12 2322.54,-289.12"/>
<text xml:space="preserve" text-anchor="middle" x="2276.29" y="-275.62" font-family="Helvetica,sans-Serif" font-size="10.00" fill="#ece1d7">worker task picks up</text>
<text xml:space="preserve" text-anchor="middle" x="2276.29" y="-262.88" font-family="Helvetica,sans-Serif" font-size="10.00" fill="#ece1d7">on_record / on_idle</text>
<text xml:space="preserve" text-anchor="middle" x="2276.29" y="-250.12" font-family="Helvetica,sans-Serif" font-size="10.00" fill="#ece1d7">ticks</text>
</g>
<!-- qchn&#45;&gt;qwrk -->
<g id="edge13" class="edge">
<title>qchn&#45;&gt;qwrk</title>
<path fill="none" stroke="#c1a78e" d="M2104.65,-266C2138.23,-266 2176.58,-266 2208.41,-266"/>
<polygon fill="#c1a78e" stroke="#c1a78e" points="2208.12,-268.8 2216.12,-266 2208.12,-263.2 2208.12,-268.8"/>
</g>
<!-- qwrk&#45;&gt;gate5 -->
<g id="edge17" class="edge">
<title>qwrk&#45;&gt;gate5</title>
<path fill="none" stroke="#c1a78e" d="M2334.89,-266C2370.02,-266 2415.13,-266 2452.22,-266"/>
<polygon fill="#c1a78e" stroke="#c1a78e" points="2444.28,-268.8 2452.28,-266 2444.28,-263.2 2444.28,-268.8"/>
</g>
<!-- dec5 -->
<g id="node17" class="node">
<title>dec5</title>
<path fill="#4d4128" stroke="#6e6963" d="M2712.04,-284C2712.04,-284 2640.54,-284 2640.54,-284 2634.54,-284 2628.54,-278 2628.54,-272 2628.54,-272 2628.54,-260 2628.54,-260 2628.54,-254 2634.54,-248 2640.54,-248 2640.54,-248 2712.04,-248 2712.04,-248 2718.04,-248 2724.04,-254 2724.04,-260 2724.04,-260 2724.04,-272 2724.04,-272 2724.04,-278 2718.04,-284 2712.04,-284"/>
<text xml:space="preserve" text-anchor="middle" x="2676.29" y="-269.25" font-family="Helvetica,sans-Serif" font-size="10.00" fill="#ece1d7">heap_decoder</text>
<text xml:space="preserve" text-anchor="middle" x="2676.29" y="-256.5" font-family="Helvetica,sans-Serif" font-size="10.00" fill="#ece1d7">→ DecodedHeap</text>
</g>
<!-- gate5&#45;&gt;dec5 -->
<g id="edge15" class="edge">
<title>gate5&#45;&gt;dec5</title>
<path fill="none" stroke="#c1a78e" d="M2584.03,-266C2595.51,-266 2607.49,-266 2618.85,-266"/>
<polygon fill="#c1a78e" stroke="#c1a78e" points="2618.7,-268.8 2626.7,-266 2618.7,-263.2 2618.7,-268.8"/>
</g>
<!-- buf5 -->
<g id="node18" class="node">
<title>buf5</title>
<path fill="#4d4128" stroke="#6e6963" d="M2908.04,-289.12C2908.04,-289.12 2781.04,-289.12 2781.04,-289.12 2775.04,-289.12 2769.04,-283.12 2769.04,-277.12 2769.04,-277.12 2769.04,-254.88 2769.04,-254.88 2769.04,-248.88 2775.04,-242.88 2781.04,-242.88 2781.04,-242.88 2908.04,-242.88 2908.04,-242.88 2914.04,-242.88 2920.04,-248.88 2920.04,-254.88 2920.04,-254.88 2920.04,-277.12 2920.04,-277.12 2920.04,-283.12 2914.04,-289.12 2908.04,-289.12"/>
<text xml:space="preserve" text-anchor="middle" x="2844.54" y="-275.62" font-family="Helvetica,sans-Serif" font-size="10.00" fill="#ece1d7">XactBuffer::insert(xid)</text>
<text xml:space="preserve" text-anchor="middle" x="2844.54" y="-262.88" font-family="Helvetica,sans-Serif" font-size="10.00" fill="#ece1d7">(per&#45;xid mem + spill,</text>
<text xml:space="preserve" text-anchor="middle" x="2844.54" y="-250.12" font-family="Helvetica,sans-Serif" font-size="10.00" fill="#ece1d7"> SubxactTracker on subtree)</text>
</g>
<!-- dec5&#45;&gt;buf5 -->
<g id="edge16" class="edge">
<title>dec5&#45;&gt;buf5</title>
<path fill="none" stroke="#c1a78e" d="M2724.49,-266C2735.43,-266 2747.39,-266 2759.39,-266"/>
<polygon fill="#c1a78e" stroke="#c1a78e" points="2759.04,-268.8 2767.04,-266 2759.04,-263.2 2759.04,-268.8"/>
</g>
<!-- cmt6 -->
<g id="node19" class="node">
<title>cmt6</title>
<path fill="#3d3d54" stroke="#6e6963" d="M3150.29,-293C3150.29,-293 3053.29,-293 3053.29,-293 3047.29,-293 3041.29,-287 3041.29,-281 3041.29,-281 3041.29,-269 3041.29,-269 3041.29,-263 3047.29,-257 3053.29,-257 3053.29,-257 3150.29,-257 3150.29,-257 3156.29,-257 3162.29,-263 3162.29,-269 3162.29,-269 3162.29,-281 3162.29,-281 3162.29,-287 3156.29,-293 3150.29,-293"/>
<text xml:space="preserve" text-anchor="middle" x="3101.79" y="-278.25" font-family="Helvetica,sans-Serif" font-size="10.00" fill="#ece1d7">XLOG_XACT_COMMIT</text>
<text xml:space="preserve" text-anchor="middle" x="3101.79" y="-265.5" font-family="Helvetica,sans-Serif" font-size="10.00" fill="#ece1d7">LSN = X&#39;</text>
</g>
<!-- buf5&#45;&gt;cmt6 -->
<g id="edge26" class="edge">
<title>buf5&#45;&gt;cmt6</title>
<path fill="none" stroke="#c1a78e" stroke-dasharray="5,2" d="M2920.4,-268.64C2955.49,-269.88 2997.05,-271.34 3031.42,-272.55"/>
<polygon fill="#c1a78e" stroke="#c1a78e" points="3031.31,-275.35 3039.41,-272.84 3031.51,-269.76 3031.31,-275.35"/>
<text xml:space="preserve" text-anchor="middle" x="2980.67" y="-274.79" font-family="Helvetica,sans-Serif" font-size="9.00" fill="#ece1d7">next record</text>
</g>
<!-- drain6 -->
<g id="node20" class="node">
<title>drain6</title>
<path fill="#4d4128" stroke="#6e6963" d="M3341.79,-304.12C3341.79,-304.12 3219.29,-304.12 3219.29,-304.12 3213.29,-304.12 3207.29,-298.12 3207.29,-292.12 3207.29,-292.12 3207.29,-269.88 3207.29,-269.88 3207.29,-263.88 3213.29,-257.88 3219.29,-257.88 3219.29,-257.88 3341.79,-257.88 3341.79,-257.88 3347.79,-257.88 3353.79,-263.88 3353.79,-269.88 3353.79,-269.88 3353.79,-292.12 3353.79,-292.12 3353.79,-298.12 3347.79,-304.12 3341.79,-304.12"/>
<text xml:space="preserve" text-anchor="middle" x="3280.54" y="-290.62" font-family="Helvetica,sans-Serif" font-size="10.00" fill="#ece1d7">XactRecordSink::on_record</text>
<text xml:space="preserve" text-anchor="middle" x="3280.54" y="-277.88" font-family="Helvetica,sans-Serif" font-size="10.00" fill="#ece1d7">drain spill + memory</text>
<text xml:space="preserve" text-anchor="middle" x="3280.54" y="-265.12" font-family="Helvetica,sans-Serif" font-size="10.00" fill="#ece1d7">in WAL order</text>
</g>
<!-- cmt6&#45;&gt;drain6 -->
<g id="edge19" class="edge">
<title>cmt6&#45;&gt;drain6</title>
<path fill="none" stroke="#c1a78e" d="M3162.63,-277.03C3173.85,-277.41 3185.76,-277.82 3197.52,-278.22"/>
<polygon fill="#c1a78e" stroke="#c1a78e" points="3197.3,-281.01 3205.39,-278.48 3197.49,-275.41 3197.3,-281.01"/>
</g>
<!-- enc6 -->
<g id="node21" class="node">
<title>enc6</title>
<path fill="#4d4128" stroke="#6e6963" d="M3543.79,-301C3543.79,-301 3410.79,-301 3410.79,-301 3404.79,-301 3398.79,-295 3398.79,-289 3398.79,-289 3398.79,-277 3398.79,-277 3398.79,-271 3404.79,-265 3410.79,-265 3410.79,-265 3543.79,-265 3543.79,-265 3549.79,-265 3555.79,-271 3555.79,-277 3555.79,-277 3555.79,-289 3555.79,-289 3555.79,-295 3549.79,-301 3543.79,-301"/>
<text xml:space="preserve" text-anchor="middle" x="3477.29" y="-286.25" font-family="Helvetica,sans-Serif" font-size="10.00" fill="#ece1d7">TableEncoder::append_row</text>
<text xml:space="preserve" text-anchor="middle" x="3477.29" y="-273.5" font-family="Helvetica,sans-Serif" font-size="10.00" fill="#ece1d7">_lsn / _xid / _op / _commit_ts</text>
</g>
<!-- drain6&#45;&gt;enc6 -->
<g id="edge20" class="edge">
<title>drain6&#45;&gt;enc6</title>
<path fill="none" stroke="#c1a78e" stroke-dasharray="5,2" d="M3354.06,-281.74C3365.49,-281.86 3377.42,-281.98 3389.14,-282.11"/>
<polygon fill="#c1a78e" stroke="#c1a78e" points="3388.95,-284.9 3396.98,-282.19 3389,-279.3 3388.95,-284.9"/>
</g>
<!-- sndp6 -->
<g id="node22" class="node">
<title>sndp6</title>
<path fill="#4d4128" stroke="#6e6963" d="M3739.04,-314.5C3739.04,-314.5 3612.79,-314.5 3612.79,-314.5 3606.79,-314.5 3600.79,-308.5 3600.79,-302.5 3600.79,-302.5 3600.79,-267.5 3600.79,-267.5 3600.79,-261.5 3606.79,-255.5 3612.79,-255.5 3612.79,-255.5 3739.04,-255.5 3739.04,-255.5 3745.04,-255.5 3751.04,-261.5 3751.04,-267.5 3751.04,-267.5 3751.04,-302.5 3751.04,-302.5 3751.04,-308.5 3745.04,-314.5 3739.04,-314.5"/>
<text xml:space="preserve" text-anchor="middle" x="3675.92" y="-301" font-family="Helvetica,sans-Serif" font-size="10.00" fill="#ece1d7">if INSERT not open:</text>
<text xml:space="preserve" text-anchor="middle" x="3675.92" y="-288.25" font-family="Helvetica,sans-Serif" font-size="10.00" fill="#ece1d7"> send_query INSERT…</text>
<text xml:space="preserve" text-anchor="middle" x="3675.92" y="-275.5" font-family="Helvetica,sans-Serif" font-size="10.00" fill="#ece1d7">send_data(Some(block))</text>
<text xml:space="preserve" text-anchor="middle" x="3675.92" y="-262.75" font-family="Helvetica,sans-Serif" font-size="10.00" fill="#ece1d7">(deadline starts on 1st row)</text>
</g>
<!-- enc6&#45;&gt;sndp6 -->
<g id="edge21" class="edge">
<title>enc6&#45;&gt;sndp6</title>
<path fill="none" stroke="#c1a78e" stroke-dasharray="5,2" d="M3556.28,-283.79C3567.79,-283.91 3579.68,-284.03 3591.3,-284.15"/>
<polygon fill="#c1a78e" stroke="#c1a78e" points="3591,-286.95 3599.03,-284.23 3591.06,-281.35 3591,-286.95"/>
</g>
<!-- hold6 -->
<g id="node23" class="node">
<title>hold6</title>
<polygon fill="#4d4128" stroke="#6e6963" points="3891.54,-304.12 3796.04,-304.12 3796.04,-257.88 3897.54,-257.88 3897.54,-298.12 3891.54,-304.12"/>
<polyline fill="none" stroke="#6e6963" points="3891.54,-304.12 3891.54,-298.12"/>
<polyline fill="none" stroke="#6e6963" points="3897.54,-298.12 3891.54,-298.12"/>
<text xml:space="preserve" text-anchor="middle" x="3846.79" y="-290.62" font-family="Helvetica,sans-Serif" font-size="10.00" fill="#ece1d7">hold INSERT open</text>
<text xml:space="preserve" text-anchor="middle" x="3846.79" y="-277.88" font-family="Helvetica,sans-Serif" font-size="10.00" fill="#ece1d7">across xacts</text>
<text xml:space="preserve" text-anchor="middle" x="3846.79" y="-265.12" font-family="Helvetica,sans-Serif" font-size="10.00" fill="#ece1d7">(flush_timeout)</text>
</g>
<!-- sndp6&#45;&gt;hold6 -->
<g id="edge22" class="edge">
<title>sndp6&#45;&gt;hold6</title>
<path fill="none" stroke="#c1a78e" stroke-dasharray="5,2" d="M3751.48,-283.23C3763.21,-282.96 3775.21,-282.67 3786.53,-282.4"/>
<polygon fill="#c1a78e" stroke="#c1a78e" points="3786.43,-285.21 3794.36,-282.22 3786.29,-279.61 3786.43,-285.21"/>
</g>
<!-- ch6 -->
<g id="node25" class="node">
<title>ch6</title>
<path fill="#4d4128" stroke="#6e6963" d="M4380.92,-346C4380.92,-346 4262.92,-346 4262.92,-346 4256.92,-346 4250.92,-340 4250.92,-334 4250.92,-334 4250.92,-322 4250.92,-322 4250.92,-316 4256.92,-310 4262.92,-310 4262.92,-310 4380.92,-310 4380.92,-310 4386.92,-310 4392.92,-316 4392.92,-322 4392.92,-322 4392.92,-334 4392.92,-334 4392.92,-340 4386.92,-346 4380.92,-346"/>
<text xml:space="preserve" text-anchor="middle" x="4321.92" y="-331.25" font-family="Helvetica,sans-Serif" font-size="10.00" fill="#ece1d7">ReplacingMergeTree(_lsn)</text>
<text xml:space="preserve" text-anchor="middle" x="4321.92" y="-318.5" font-family="Helvetica,sans-Serif" font-size="10.00" fill="#ece1d7">merged in CH</text>
</g>
<!-- sndp6&#45;&gt;ch6 -->
<g id="edge24" class="edge">
<title>sndp6&#45;&gt;ch6</title>
<path fill="none" stroke="#bf8c5f" d="M3751.3,-309.06C3765.99,-313.01 3781.4,-316.59 3796.04,-319 3952.14,-344.7 4137.86,-339.68 4241.27,-333.79"/>
<polygon fill="#bf8c5f" stroke="#bf8c5f" points="4241.38,-336.59 4249.2,-333.33 4241.05,-331 4241.38,-336.59"/>
<text xml:space="preserve" text-anchor="middle" x="3950.29" y="-339.21" font-family="Helvetica,sans-Serif" font-size="9.00" fill="#ece1d7">Native block</text>
</g>
<!-- sndn6 -->
<g id="node24" class="node">
<title>sndn6</title>
<path fill="#4d4128" stroke="#6e6963" d="M4115.04,-314.5C4115.04,-314.5 4015.04,-314.5 4015.04,-314.5 4009.04,-314.5 4003.04,-308.5 4003.04,-302.5 4003.04,-302.5 4003.04,-267.5 4003.04,-267.5 4003.04,-261.5 4009.04,-255.5 4015.04,-255.5 4015.04,-255.5 4115.04,-255.5 4115.04,-255.5 4121.04,-255.5 4127.04,-261.5 4127.04,-267.5 4127.04,-267.5 4127.04,-302.5 4127.04,-302.5 4127.04,-308.5 4121.04,-314.5 4115.04,-314.5"/>
<text xml:space="preserve" text-anchor="middle" x="4065.04" y="-301" font-family="Helvetica,sans-Serif" font-size="10.00" fill="#ece1d7">on deadline or close:</text>
<text xml:space="preserve" text-anchor="middle" x="4065.04" y="-288.25" font-family="Helvetica,sans-Serif" font-size="10.00" fill="#ece1d7"> send_data(None)</text>
<text xml:space="preserve" text-anchor="middle" x="4065.04" y="-275.5" font-family="Helvetica,sans-Serif" font-size="10.00" fill="#ece1d7"> drain → EndOfStream</text>
<text xml:space="preserve" text-anchor="middle" x="4065.04" y="-262.75" font-family="Helvetica,sans-Serif" font-size="10.00" fill="#ece1d7"> emitter_ack_lsn := X&#39;</text>
</g>
<!-- hold6&#45;&gt;sndn6 -->
<g id="edge23" class="edge">
<title>hold6&#45;&gt;sndn6</title>
<path fill="none" stroke="#c1a78e" stroke-dasharray="5,2" d="M3897.95,-281.93C3926.21,-282.45 3961.99,-283.11 3993.09,-283.69"/>
<polygon fill="#c1a78e" stroke="#c1a78e" points="3993.01,-286.49 4001.06,-283.84 3993.12,-280.89 3993.01,-286.49"/>
<text xml:space="preserve" text-anchor="middle" x="3950.29" y="-286.06" font-family="Helvetica,sans-Serif" font-size="9.00" fill="#ece1d7">deadline trips</text>
</g>
<!-- sndn6&#45;&gt;ch6 -->
<g id="edge25" class="edge">
<title>sndn6&#45;&gt;ch6</title>
<path fill="none" stroke="#c1a78e" stroke-dasharray="5,2" d="M4127.41,-295.35C4161.63,-301.13 4204.64,-308.38 4241.41,-314.59"/>
<polygon fill="#c1a78e" stroke="#c1a78e" points="4240.77,-317.32 4249.12,-315.89 4241.7,-311.8 4240.77,-317.32"/>
</g>
<!-- cur7 -->
<g id="node28" class="node">
<title>cur7</title>
<path fill="#4d3a28" stroke="#6e6963" d="M4378.29,-205.5C4378.29,-205.5 4265.54,-205.5 4265.54,-205.5 4259.54,-205.5 4253.54,-199.5 4253.54,-193.5 4253.54,-193.5 4253.54,-158.5 4253.54,-158.5 4253.54,-152.5 4259.54,-146.5 4265.54,-146.5 4265.54,-146.5 4378.29,-146.5 4378.29,-146.5 4384.29,-146.5 4390.29,-152.5 4390.29,-158.5 4390.29,-158.5 4390.29,-193.5 4390.29,-193.5 4390.29,-199.5 4384.29,-205.5 4378.29,-205.5"/>
<text xml:space="preserve" text-anchor="middle" x="4321.92" y="-192" font-family="Helvetica,sans-Serif" font-size="10.00" fill="#ece1d7">status loop (10 s)</text>
<text xml:space="preserve" text-anchor="middle" x="4321.92" y="-179.25" font-family="Helvetica,sans-Serif" font-size="10.00" fill="#ece1d7">cursor::write</text>
<text xml:space="preserve" text-anchor="middle" x="4321.92" y="-166.5" font-family="Helvetica,sans-Serif" font-size="10.00" fill="#ece1d7">SourceFeed::send_status</text>
<text xml:space="preserve" text-anchor="middle" x="4321.92" y="-153.75" font-family="Helvetica,sans-Serif" font-size="10.00" fill="#ece1d7">apply&#45;lag metric</text>
</g>
<!-- sndn6&#45;&gt;cur7 -->
<g id="edge31" class="edge">
<title>sndn6&#45;&gt;cur7</title>
<path fill="none" stroke="#b380b0" stroke-dasharray="1,5" d="M4127.41,-258.75C4162.74,-243.64 4207.44,-224.53 4244.97,-208.48"/>
<polygon fill="#b380b0" stroke="#b380b0" points="4245.71,-211.21 4251.97,-205.49 4243.51,-206.06 4245.71,-211.21"/>
<text xml:space="preserve" text-anchor="middle" x="4184.29" y="-249.33" font-family="Helvetica,sans-Serif" font-size="9.00" fill="#ece1d7">emitter_ack_lsn</text>
</g>
<!-- legend -->
<g id="node31" class="node">
<title>legend</title>
<path fill="#6e6963" stroke="none" d="M4797.54,-687.12C4797.54,-687.12 4459.29,-687.12 4459.29,-687.12 4453.29,-687.12 4447.29,-681.12 4447.29,-675.12 4447.29,-675.12 4447.29,-258.88 4447.29,-258.88 4447.29,-252.88 4453.29,-246.88 4459.29,-246.88 4459.29,-246.88 4797.54,-246.88 4797.54,-246.88 4803.54,-246.88 4809.54,-252.88 4809.54,-258.88 4809.54,-258.88 4809.54,-675.12 4809.54,-675.12 4809.54,-681.12 4803.54,-687.12 4797.54,-687.12"/>
<polygon fill="#34302c" stroke="none" points="4455.29,-660.38 4455.29,-683.12 4801.54,-683.12 4801.54,-660.38 4455.29,-660.38"/>
<polygon fill="none" stroke="#6e6963" points="4455.29,-660.38 4455.29,-683.12 4801.54,-683.12 4801.54,-660.38 4455.29,-660.38"/>
<text xml:space="preserve" text-anchor="start" x="4581.92" y="-669.62" font-family="Helvetica,sans-Serif" font-weight="bold" font-size="10.00" fill="#ece1d7">node fill — actor</text>
<polygon fill="#3d3d54" stroke="none" points="4455.29,-637.62 4455.29,-660.38 4564.29,-660.38 4564.29,-637.62 4455.29,-637.62"/>
<polygon fill="none" stroke="#6e6963" points="4455.29,-637.62 4455.29,-660.38 4564.29,-660.38 4564.29,-637.62 4455.29,-637.62"/>
<polygon fill="none" stroke="#6e6963" points="4564.29,-637.62 4564.29,-660.38 4801.54,-660.38 4801.54,-637.62 4564.29,-637.62"/>
<text xml:space="preserve" text-anchor="start" x="4644.29" y="-645.62" font-family="Helvetica,sans-Serif" font-size="10.00" fill="#ece1d7">source Postgres</text>
<polygon fill="#4d3a28" stroke="none" points="4455.29,-614.88 4455.29,-637.62 4564.29,-637.62 4564.29,-614.88 4455.29,-614.88"/>
<polygon fill="none" stroke="#6e6963" points="4455.29,-614.88 4455.29,-637.62 4564.29,-637.62 4564.29,-614.88 4455.29,-614.88"/>
<polygon fill="none" stroke="#6e6963" points="4564.29,-614.88 4564.29,-637.62 4801.54,-637.62 4801.54,-614.88 4564.29,-614.88"/>
<text xml:space="preserve" text-anchor="start" x="4582.79" y="-622.88" font-family="Helvetica,sans-Serif" font-size="10.00" fill="#ece1d7">walshadow ingress / queue / orchestrator</text>
<polygon fill="#4d4128" stroke="none" points="4455.29,-592.12 4455.29,-614.88 4564.29,-614.88 4564.29,-592.12 4455.29,-592.12"/>
<polygon fill="none" stroke="#6e6963" points="4455.29,-592.12 4455.29,-614.88 4564.29,-614.88 4564.29,-592.12 4455.29,-592.12"/>
<polygon fill="none" stroke="#6e6963" points="4564.29,-592.12 4564.29,-614.88 4801.54,-614.88 4801.54,-592.12 4564.29,-592.12"/>
<text xml:space="preserve" text-anchor="start" x="4580.17" y="-600.12" font-family="Helvetica,sans-Serif" font-size="10.00" fill="#ece1d7">walshadow decoder + xact + emitter / CH</text>
<polygon fill="#4d3340" stroke="none" points="4455.29,-569.38 4455.29,-592.12 4564.29,-592.12 4564.29,-569.38 4455.29,-569.38"/>
<polygon fill="none" stroke="#6e6963" points="4455.29,-569.38 4455.29,-592.12 4564.29,-592.12 4564.29,-569.38 4455.29,-569.38"/>
<polygon fill="none" stroke="#6e6963" points="4564.29,-569.38 4564.29,-592.12 4801.54,-592.12 4801.54,-569.38 4564.29,-569.38"/>
<text xml:space="preserve" text-anchor="start" x="4569.29" y="-577.38" font-family="Helvetica,sans-Serif" font-size="10.00" fill="#ece1d7">walshadow output sinks (walsender, segment)</text>
<polygon fill="#3d4128" stroke="none" points="4455.29,-546.62 4455.29,-569.38 4564.29,-569.38 4564.29,-546.62 4455.29,-546.62"/>
<polygon fill="none" stroke="#6e6963" points="4455.29,-546.62 4455.29,-569.38 4564.29,-569.38 4564.29,-546.62 4455.29,-546.62"/>
<polygon fill="none" stroke="#6e6963" points="4564.29,-546.62 4564.29,-569.38 4801.54,-569.38 4801.54,-546.62 4564.29,-546.62"/>
<text xml:space="preserve" text-anchor="start" x="4641.67" y="-554.62" font-family="Helvetica,sans-Serif" font-size="10.00" fill="#ece1d7">shadow Postgres</text>
<polygon fill="#4d3850" stroke="none" points="4455.29,-523.88 4455.29,-546.62 4564.29,-546.62 4564.29,-523.88 4455.29,-523.88"/>
<polygon fill="none" stroke="#6e6963" points="4455.29,-523.88 4455.29,-546.62 4564.29,-546.62 4564.29,-523.88 4455.29,-523.88"/>
<polygon fill="none" stroke="#6e6963" points="4564.29,-523.88 4564.29,-546.62 4801.54,-546.62 4801.54,-523.88 4564.29,-523.88"/>
<text xml:space="preserve" text-anchor="start" x="4645.79" y="-531.88" font-family="Helvetica,sans-Serif" font-size="10.00" fill="#ece1d7">on&#45;disk artifact</text>
<polygon fill="#34302c" stroke="none" points="4455.29,-501.12 4455.29,-523.88 4801.54,-523.88 4801.54,-501.12 4455.29,-501.12"/>
<polygon fill="none" stroke="#6e6963" points="4455.29,-501.12 4455.29,-523.88 4801.54,-523.88 4801.54,-501.12 4455.29,-501.12"/>
<text xml:space="preserve" text-anchor="start" x="4594.67" y="-510.38" font-family="Helvetica,sans-Serif" font-weight="bold" font-size="10.00" fill="#ece1d7">edge colour</text>
<polygon fill="none" stroke="#6e6963" points="4455.29,-478.38 4455.29,-501.12 4564.29,-501.12 4564.29,-478.38 4455.29,-478.38"/>
<text xml:space="preserve" text-anchor="start" x="4503.79" y="-487.62" font-family="Helvetica,sans-Serif" font-weight="bold" font-size="10.00" fill="#a1a9cc">━━</text>
<polygon fill="none" stroke="#6e6963" points="4564.29,-478.38 4564.29,-501.12 4801.54,-501.12 4801.54,-478.38 4564.29,-478.38"/>
<text xml:space="preserve" text-anchor="start" x="4604.92" y="-486.38" font-family="Helvetica,sans-Serif" font-size="10.00" fill="#ece1d7">source → walshadow replication</text>
<polygon fill="none" stroke="#6e6963" points="4455.29,-455.62 4455.29,-478.38 4564.29,-478.38 4564.29,-455.62 4455.29,-455.62"/>
<text xml:space="preserve" text-anchor="start" x="4503.79" y="-464.88" font-family="Helvetica,sans-Serif" font-weight="bold" font-size="10.00" fill="#bd8183">━━</text>
<polygon fill="none" stroke="#6e6963" points="4564.29,-455.62 4564.29,-478.38 4801.54,-478.38 4801.54,-455.62 4564.29,-455.62"/>
<text xml:space="preserve" text-anchor="start" x="4594.42" y="-463.62" font-family="Helvetica,sans-Serif" font-size="10.00" fill="#ece1d7">walsender wire → shadow (hot path)</text>
<polygon fill="none" stroke="#6e6963" points="4455.29,-432.88 4455.29,-455.62 4564.29,-455.62 4564.29,-432.88 4455.29,-432.88"/>
<text xml:space="preserve" text-anchor="start" x="4503.79" y="-442.12" font-family="Helvetica,sans-Serif" font-weight="bold" font-size="10.00" fill="#bf8c5f">━━</text>
<polygon fill="none" stroke="#6e6963" points="4564.29,-432.88 4564.29,-455.62 4801.54,-455.62 4801.54,-432.88 4564.29,-432.88"/>
<text xml:space="preserve" text-anchor="start" x="4623.29" y="-440.88" font-family="Helvetica,sans-Serif" font-size="10.00" fill="#ece1d7">ClickHouse Native block</text>
<polygon fill="none" stroke="#6e6963" points="4455.29,-410.12 4455.29,-432.88 4564.29,-432.88 4564.29,-410.12 4455.29,-410.12"/>
<text xml:space="preserve" text-anchor="start" x="4503.79" y="-419.38" font-family="Helvetica,sans-Serif" font-weight="bold" font-size="10.00" fill="#b58b86">┄┄</text>
<polygon fill="none" stroke="#6e6963" points="4564.29,-410.12 4564.29,-432.88 4801.54,-432.88 4801.54,-410.12 4564.29,-410.12"/>
<text xml:space="preserve" text-anchor="start" x="4612.42" y="-418.12" font-family="Helvetica,sans-Serif" font-size="10.00" fill="#ece1d7">standby status to source slot</text>
<polygon fill="none" stroke="#6e6963" points="4455.29,-387.38 4455.29,-410.12 4564.29,-410.12 4564.29,-387.38 4455.29,-387.38"/>
<text xml:space="preserve" text-anchor="start" x="4504.17" y="-396.62" font-family="Helvetica,sans-Serif" font-weight="bold" font-size="10.00" fill="#b380b0">···</text>
<polygon fill="none" stroke="#6e6963" points="4564.29,-387.38 4564.29,-410.12 4801.54,-410.12 4801.54,-387.38 4564.29,-387.38"/>
<text xml:space="preserve" text-anchor="start" x="4629.29" y="-395.38" font-family="Helvetica,sans-Serif" font-size="10.00" fill="#ece1d7">cursor durability write</text>
<polygon fill="#34302c" stroke="none" points="4455.29,-364.62 4455.29,-387.38 4801.54,-387.38 4801.54,-364.62 4455.29,-364.62"/>
<polygon fill="none" stroke="#6e6963" points="4455.29,-364.62 4455.29,-387.38 4801.54,-387.38 4801.54,-364.62 4455.29,-364.62"/>
<text xml:space="preserve" text-anchor="start" x="4582.29" y="-373.88" font-family="Helvetica,sans-Serif" font-weight="bold" font-size="10.00" fill="#ece1d7">hot&#45;path budget</text>
<polygon fill="none" stroke="#6e6963" points="4455.29,-341.88 4455.29,-364.62 4564.29,-364.62 4564.29,-341.88 4455.29,-341.88"/>
<text xml:space="preserve" text-anchor="start" x="4470.04" y="-349.88" font-family="Helvetica,sans-Serif" font-size="10.00" fill="#ece1d7">④ shadow apply</text>
<polygon fill="none" stroke="#6e6963" points="4564.29,-341.88 4564.29,-364.62 4801.54,-364.62 4801.54,-341.88 4564.29,-341.88"/>
<text xml:space="preserve" text-anchor="start" x="4582.42" y="-349.88" font-family="Helvetica,sans-Serif" font-size="10.00" fill="#ece1d7">ms — walsender wire (independent of ⑤)</text>
<polygon fill="none" stroke="#6e6963" points="4455.29,-319.12 4455.29,-341.88 4564.29,-341.88 4564.29,-319.12 4455.29,-319.12"/>
<text xml:space="preserve" text-anchor="start" x="4465.54" y="-327.12" font-family="Helvetica,sans-Serif" font-size="10.00" fill="#ece1d7">④&#39; queue hand&#45;off</text>
<polygon fill="none" stroke="#6e6963" points="4564.29,-319.12 4564.29,-341.88 4801.54,-341.88 4801.54,-319.12 4564.29,-319.12"/>
<text xml:space="preserve" text-anchor="start" x="4611.67" y="-327.12" font-family="Helvetica,sans-Serif" font-size="10.00" fill="#ece1d7">~ns enqueue, batch_size=64</text>
<polygon fill="none" stroke="#6e6963" points="4455.29,-296.38 4455.29,-319.12 4564.29,-319.12 4564.29,-296.38 4455.29,-296.38"/>
<text xml:space="preserve" text-anchor="start" x="4479.42" y="-304.38" font-family="Helvetica,sans-Serif" font-size="10.00" fill="#ece1d7">⑤ gate clear</text>
<polygon fill="none" stroke="#6e6963" points="4564.29,-296.38 4564.29,-319.12 4801.54,-319.12 4801.54,-296.38 4564.29,-296.38"/>
<text xml:space="preserve" text-anchor="start" x="4613.92" y="-304.38" font-family="Helvetica,sans-Serif" font-size="10.00" fill="#ece1d7">ms — driven by ④ apply_lsn</text>
<polygon fill="none" stroke="#6e6963" points="4455.29,-273.62 4455.29,-296.38 4564.29,-296.38 4564.29,-273.62 4455.29,-273.62"/>
<text xml:space="preserve" text-anchor="start" x="4468.92" y="-281.62" font-family="Helvetica,sans-Serif" font-size="10.00" fill="#ece1d7">⑥ CH block send</text>
<polygon fill="none" stroke="#6e6963" points="4564.29,-273.62 4564.29,-296.38 4801.54,-296.38 4801.54,-273.62 4564.29,-273.62"/>
<text xml:space="preserve" text-anchor="start" x="4571.17" y="-281.62" font-family="Helvetica,sans-Serif" font-size="10.00" fill="#ece1d7">per block; INSERT held open, deadline&#45;flushed</text>
<polygon fill="none" stroke="#6e6963" points="4455.29,-250.88 4455.29,-273.62 4564.29,-273.62 4564.29,-250.88 4455.29,-250.88"/>
<text xml:space="preserve" text-anchor="start" x="4460.29" y="-258.88" font-family="Helvetica,sans-Serif" font-size="10.00" fill="#ece1d7">⑦ segment + cursor</text>
<polygon fill="none" stroke="#6e6963" points="4564.29,-250.88 4564.29,-273.62 4801.54,-273.62 4801.54,-250.88 4564.29,-250.88"/>
<text xml:space="preserve" text-anchor="start" x="4609.79" y="-258.88" font-family="Helvetica,sans-Serif" font-size="10.00" fill="#ece1d7">seconds — async, off hot path</text>
</g>
<!-- ch6&#45;&gt;legend -->
<!-- out7 -->
<g id="node27" class="node">
<title>out7</title>
<polygon fill="#4d3850" stroke="#6e6963" points="4669.42,-52 4581.42,-52 4581.42,-16 4675.42,-16 4675.42,-46 4669.42,-52"/>
<polyline fill="none" stroke="#6e6963" points="4669.42,-52 4669.42,-46"/>
<polyline fill="none" stroke="#6e6963" points="4675.42,-46 4669.42,-46"/>
<text xml:space="preserve" text-anchor="middle" x="4628.42" y="-37.25" font-family="Helvetica,sans-Serif" font-size="10.00" fill="#ece1d7">out/&lt;seg&gt;</text>
<text xml:space="preserve" text-anchor="middle" x="4628.42" y="-24.5" font-family="Helvetica,sans-Serif" font-size="10.00" fill="#ece1d7">+ manifest.json</text>
</g>
<!-- seg7&#45;&gt;out7 -->
<g id="edge27" class="edge">
<title>seg7&#45;&gt;out7</title>
<path fill="none" stroke="#c1a78e" d="M4402.52,-50.25C4455.6,-46.41 4524.08,-41.47 4571.45,-38.04"/>
<polygon fill="#c1a78e" stroke="#c1a78e" points="4571.64,-40.84 4579.42,-37.47 4571.24,-35.25 4571.64,-40.84"/>
</g>
<!-- curd7 -->
<g id="node29" class="node">
<title>curd7</title>
<polygon fill="#4d3850" stroke="#6e6963" points="4667.54,-117 4583.29,-117 4583.29,-81 4673.54,-81 4673.54,-111 4667.54,-117"/>
<polyline fill="none" stroke="#6e6963" points="4667.54,-117 4667.54,-111"/>
<polyline fill="none" stroke="#6e6963" points="4673.54,-111 4667.54,-111"/>
<text xml:space="preserve" text-anchor="middle" x="4628.42" y="-102.25" font-family="Helvetica,sans-Serif" font-size="10.00" fill="#ece1d7">cursor.bin</text>
<text xml:space="preserve" text-anchor="middle" x="4628.42" y="-89.5" font-family="Helvetica,sans-Serif" font-size="10.00" fill="#ece1d7">atomic rename</text>
</g>
<!-- cur7&#45;&gt;curd7 -->
<g id="edge28" class="edge">
<title>cur7&#45;&gt;curd7</title>
<path fill="none" stroke="#c1a78e" d="M4390.73,-149.82C4408.92,-143.4 4428.7,-136.96 4447.29,-132 4489.17,-120.83 4537.52,-112.2 4573.58,-106.57"/>
<polygon fill="#c1a78e" stroke="#c1a78e" points="4573.96,-109.35 4581.44,-105.36 4573.11,-103.81 4573.96,-109.35"/>
</g>
<!-- slot7 -->
<g id="node30" class="node">
<title>slot7</title>
<path fill="#3d3d54" stroke="#6e6963" d="M4673.17,-205.5C4673.17,-205.5 4583.67,-205.5 4583.67,-205.5 4577.67,-205.5 4571.67,-199.5 4571.67,-193.5 4571.67,-193.5 4571.67,-158.5 4571.67,-158.5 4571.67,-152.5 4577.67,-146.5 4583.67,-146.5 4583.67,-146.5 4673.17,-146.5 4673.17,-146.5 4679.17,-146.5 4685.17,-152.5 4685.17,-158.5 4685.17,-158.5 4685.17,-193.5 4685.17,-193.5 4685.17,-199.5 4679.17,-205.5 4673.17,-205.5"/>
<text xml:space="preserve" text-anchor="middle" x="4628.42" y="-192" font-family="Helvetica,sans-Serif" font-size="10.00" fill="#ece1d7">source slot advance</text>
<text xml:space="preserve" text-anchor="middle" x="4628.42" y="-179.25" font-family="Helvetica,sans-Serif" font-size="10.00" fill="#ece1d7">apply = min(</text>
<text xml:space="preserve" text-anchor="middle" x="4628.42" y="-166.5" font-family="Helvetica,sans-Serif" font-size="10.00" fill="#ece1d7"> shadow_replay,</text>
<text xml:space="preserve" text-anchor="middle" x="4628.42" y="-153.75" font-family="Helvetica,sans-Serif" font-size="10.00" fill="#ece1d7"> emitter_ack)</text>
</g>
<!-- cur7&#45;&gt;slot7 -->
<g id="edge29" class="edge">
<title>cur7&#45;&gt;slot7</title>
<path fill="none" stroke="#b58b86" stroke-dasharray="5,2" d="M4390.49,-176C4441.63,-176 4511.44,-176 4562.03,-176"/>
<polygon fill="#b58b86" stroke="#b58b86" points="4561.73,-178.8 4569.73,-176 4561.73,-173.2 4561.73,-178.8"/>
</g>
</g>
</svg>
