<?xml version="1.0" encoding="UTF-8" standalone="no"?>
<!DOCTYPE svg PUBLIC "-//W3C//DTD SVG 1.1//EN"
 "http://www.w3.org/Graphics/SVG/1.1/DTD/svg11.dtd">
<!-- Generated by graphviz version 2.42.4 (0)
 -->
<!-- Title: timeline_restart Pages: 1 -->
<svg width="1374pt" height="1254pt"
 viewBox="0.00 0.00 1374.00 1253.50" xmlns="http://www.w3.org/2000/svg" xmlns:xlink="http://www.w3.org/1999/xlink">
<g id="graph0" class="graph" transform="scale(1 1) rotate(0) translate(4 1249.5)">
<title>timeline_restart</title>
<polygon fill="#272623" stroke="transparent" points="-4,4 -4,-1249.5 1370,-1249.5 1370,4 -4,4"/>
<text text-anchor="middle" x="683" y="-1230.3" font-family="Helvetica,sans-Serif" font-size="14.00" fill="#ece1d7">walshadow restart timelines — 3 scenarios, time flows top → bottom within each column</text>
<g id="clust1" class="cluster">
<title>cluster_a</title>
<path fill="#34302c" stroke="#a1a9cc" d="M20,-466C20,-466 490,-466 490,-466 496,-466 502,-472 502,-478 502,-478 502,-1202.5 502,-1202.5 502,-1208.5 496,-1214.5 490,-1214.5 490,-1214.5 20,-1214.5 20,-1214.5 14,-1214.5 8,-1208.5 8,-1202.5 8,-1202.5 8,-478 8,-478 8,-472 14,-466 20,-466"/>
<text text-anchor="middle" x="255" y="-1199.3" font-family="Helvetica,sans-Serif" font-size="14.00" fill="#ece1d7">A. clean restart &#160;(SIGTERM, cursor flushed, slot inside wal_keep_size)</text>
</g>
<g id="clust2" class="cluster">
<title>cluster_b</title>
<path fill="#34302c" stroke="#cba85e" d="M522,-466C522,-466 901,-466 901,-466 907,-466 913,-472 913,-478 913,-478 913,-1127.5 913,-1127.5 913,-1133.5 907,-1139.5 901,-1139.5 901,-1139.5 522,-1139.5 522,-1139.5 516,-1139.5 510,-1133.5 510,-1127.5 510,-1127.5 510,-478 510,-478 510,-472 516,-466 522,-466"/>
<text text-anchor="middle" x="711.5" y="-1124.3" font-family="Helvetica,sans-Serif" font-size="14.00" fill="#ece1d7">B. kill &#45;9 mid&#45;stream &#160;(last fsynced cursor authoritative)</text>
</g>
<g id="clust3" class="cluster">
<title>cluster_c</title>
<path fill="#34302c" stroke="#bd8183" d="M933,-466C933,-466 1346,-466 1346,-466 1352,-466 1358,-472 1358,-478 1358,-478 1358,-1049 1358,-1049 1358,-1055 1352,-1061 1346,-1061 1346,-1061 933,-1061 933,-1061 927,-1061 921,-1055 921,-1049 921,-1049 921,-478 921,-478 921,-472 927,-466 933,-466"/>
<text text-anchor="middle" x="1139.5" y="-1045.8" font-family="Helvetica,sans-Serif" font-size="14.00" fill="#ece1d7">C. extended outage &#160;(slot LSN beyond source wal_keep_size)</text>
</g>
<!-- a0 -->
<g id="node1" class="node">
<title>a0</title>
<path fill="#403a36" stroke="#6e6963" d="M481.5,-1183.5C481.5,-1183.5 332.5,-1183.5 332.5,-1183.5 326.5,-1183.5 320.5,-1177.5 320.5,-1171.5 320.5,-1171.5 320.5,-1159.5 320.5,-1159.5 320.5,-1153.5 326.5,-1147.5 332.5,-1147.5 332.5,-1147.5 481.5,-1147.5 481.5,-1147.5 487.5,-1147.5 493.5,-1153.5 493.5,-1159.5 493.5,-1159.5 493.5,-1171.5 493.5,-1171.5 493.5,-1177.5 487.5,-1183.5 481.5,-1183.5"/>
<text text-anchor="middle" x="407" y="-1163" font-family="Helvetica,sans-Serif" font-size="10.00" fill="#ece1d7">① SIGTERM</text>
</g>
<!-- a1 -->
<g id="node2" class="node">
<title>a1</title>
<path fill="#4d3a28" stroke="#6e6963" d="M470.5,-1111C470.5,-1111 313.5,-1111 313.5,-1111 307.5,-1111 301.5,-1105 301.5,-1099 301.5,-1099 301.5,-1082 301.5,-1082 301.5,-1076 307.5,-1070 313.5,-1070 313.5,-1070 470.5,-1070 470.5,-1070 476.5,-1070 482.5,-1076 482.5,-1082 482.5,-1082 482.5,-1099 482.5,-1099 482.5,-1105 476.5,-1111 470.5,-1111"/>
<text text-anchor="middle" x="392" y="-1099" font-family="Helvetica,sans-Serif" font-size="10.00" fill="#ece1d7">② drain in&#45;flight work</text>
<text text-anchor="middle" x="392" y="-1088" font-family="Helvetica,sans-Serif" font-size="10.00" fill="#ece1d7">pipeline join: batcher final flush →</text>
<text text-anchor="middle" x="392" y="-1077" font-family="Helvetica,sans-Serif" font-size="10.00" fill="#ece1d7">inserters EndOfStream → ack</text>
</g>
<!-- a0&#45;&gt;a1 -->
<g id="edge1" class="edge">
<title>a0&#45;&gt;a1</title>
<path fill="none" stroke="#c1a78e" d="M403.45,-1147.2C401.73,-1138.85 399.63,-1128.63 397.7,-1119.23"/>
<polygon fill="#c1a78e" stroke="#c1a78e" points="400.41,-1118.53 396.06,-1111.25 394.93,-1119.65 400.41,-1118.53"/>
</g>
<!-- b0 -->
<g id="node11" class="node">
<title>b0</title>
<path fill="#403a36" stroke="#6e6963" d="M785.5,-1108.5C785.5,-1108.5 636.5,-1108.5 636.5,-1108.5 630.5,-1108.5 624.5,-1102.5 624.5,-1096.5 624.5,-1096.5 624.5,-1084.5 624.5,-1084.5 624.5,-1078.5 630.5,-1072.5 636.5,-1072.5 636.5,-1072.5 785.5,-1072.5 785.5,-1072.5 791.5,-1072.5 797.5,-1078.5 797.5,-1084.5 797.5,-1084.5 797.5,-1096.5 797.5,-1096.5 797.5,-1102.5 791.5,-1108.5 785.5,-1108.5"/>
<text text-anchor="middle" x="711" y="-1088" font-family="Helvetica,sans-Serif" font-size="10.00" fill="#ece1d7">① kill &#45;9 (no drain)</text>
</g>
<!-- a0&#45;&gt;b0 -->
<!-- a2 -->
<g id="node3" class="node">
<title>a2</title>
<path fill="#4d3340" stroke="#6e6963" d="M474,-1030C474,-1030 288,-1030 288,-1030 282,-1030 276,-1024 276,-1018 276,-1018 276,-1006 276,-1006 276,-1000 282,-994 288,-994 288,-994 474,-994 474,-994 480,-994 486,-1000 486,-1006 486,-1006 486,-1018 486,-1018 486,-1024 480,-1030 474,-1030"/>
<text text-anchor="middle" x="381" y="-1015" font-family="Helvetica,sans-Serif" font-size="10.00" fill="#ece1d7">③ DirSegmentSink::on_partial_segment</text>
<text text-anchor="middle" x="381" y="-1004" font-family="Helvetica,sans-Serif" font-size="10.00" fill="#ece1d7">&lt;seg&gt;.partial</text>
</g>
<!-- a1&#45;&gt;a2 -->
<g id="edge2" class="edge">
<title>a1&#45;&gt;a2</title>
<path fill="none" stroke="#c1a78e" d="M389.17,-1069.8C387.78,-1060.18 386.11,-1048.51 384.63,-1038.25"/>
<polygon fill="#c1a78e" stroke="#c1a78e" points="387.36,-1037.56 383.45,-1030.04 381.82,-1038.35 387.36,-1037.56"/>
</g>
<!-- a3 -->
<g id="node4" class="node">
<title>a3</title>
<path fill="#4d3a28" stroke="#6e6963" d="M454.5,-951.5C454.5,-951.5 305.5,-951.5 305.5,-951.5 299.5,-951.5 293.5,-945.5 293.5,-939.5 293.5,-939.5 293.5,-927.5 293.5,-927.5 293.5,-921.5 299.5,-915.5 305.5,-915.5 305.5,-915.5 454.5,-915.5 454.5,-915.5 460.5,-915.5 466.5,-921.5 466.5,-927.5 466.5,-927.5 466.5,-939.5 466.5,-939.5 466.5,-945.5 460.5,-951.5 454.5,-951.5"/>
<text text-anchor="middle" x="380" y="-936.5" font-family="Helvetica,sans-Serif" font-size="10.00" fill="#ece1d7">④ cursor::write final state</text>
<text text-anchor="middle" x="380" y="-925.5" font-family="Helvetica,sans-Serif" font-size="10.00" fill="#ece1d7">(emitter_ack_lsn, drain_lsn, …)</text>
</g>
<!-- a2&#45;&gt;a3 -->
<g id="edge3" class="edge">
<title>a2&#45;&gt;a3</title>
<path fill="none" stroke="#c1a78e" d="M380.77,-993.64C380.64,-983.59 380.47,-970.77 380.33,-959.64"/>
<polygon fill="#c1a78e" stroke="#c1a78e" points="383.13,-959.49 380.22,-951.53 377.53,-959.56 383.13,-959.49"/>
</g>
<!-- a4 -->
<g id="node5" class="node">
<title>a4</title>
<path fill="#403a36" stroke="#6e6963" d="M453.5,-878.5C453.5,-878.5 304.5,-878.5 304.5,-878.5 298.5,-878.5 292.5,-872.5 292.5,-866.5 292.5,-866.5 292.5,-854.5 292.5,-854.5 292.5,-848.5 298.5,-842.5 304.5,-842.5 304.5,-842.5 453.5,-842.5 453.5,-842.5 459.5,-842.5 465.5,-848.5 465.5,-854.5 465.5,-854.5 465.5,-866.5 465.5,-866.5 465.5,-872.5 459.5,-878.5 453.5,-878.5"/>
<text text-anchor="middle" x="379" y="-858" font-family="Helvetica,sans-Serif" font-size="10.00" fill="#ece1d7">⑤ process exit</text>
</g>
<!-- a3&#45;&gt;a4 -->
<g id="edge4" class="edge">
<title>a3&#45;&gt;a4</title>
<path fill="none" stroke="#c1a78e" d="M379.76,-915.31C379.64,-906.68 379.49,-896.06 379.35,-886.53"/>
<polygon fill="#c1a78e" stroke="#c1a78e" points="382.15,-886.49 379.24,-878.53 376.55,-886.57 382.15,-886.49"/>
</g>
<!-- a5 -->
<g id="node6" class="node">
<title>a5</title>
<path fill="#4d3a28" stroke="#6e6963" d="M481,-808C481,-808 275,-808 275,-808 269,-808 263,-802 263,-796 263,-796 263,-768 263,-768 263,-762 269,-756 275,-756 275,-756 481,-756 481,-756 487,-756 493,-762 493,-768 493,-768 493,-796 493,-796 493,-802 487,-808 481,-808"/>
<text text-anchor="middle" x="378" y="-796" font-family="Helvetica,sans-Serif" font-size="10.00" fill="#ece1d7">⑥ restart:</text>
<text text-anchor="middle" x="378" y="-785" font-family="Helvetica,sans-Serif" font-size="10.00" fill="#ece1d7">cursor::read → segment&#45;aligned resume_lsn</text>
<text text-anchor="middle" x="378" y="-774" font-family="Helvetica,sans-Serif" font-size="10.00" fill="#ece1d7">load toast_retires.bin</text>
<text text-anchor="middle" x="378" y="-763" font-family="Helvetica,sans-Serif" font-size="10.00" fill="#ece1d7">flush entries below resume floor</text>
</g>
<!-- a4&#45;&gt;a5 -->
<g id="edge5" class="edge">
<title>a4&#45;&gt;a5</title>
<path fill="none" stroke="#c1a78e" d="M378.77,-842.14C378.67,-834.45 378.55,-825.12 378.43,-816.18"/>
<polygon fill="#c1a78e" stroke="#c1a78e" points="381.23,-816.09 378.33,-808.13 375.63,-816.16 381.23,-816.09"/>
</g>
<!-- a6 -->
<g id="node7" class="node">
<title>a6</title>
<path fill="#3d4128" stroke="#6e6963" d="M454.5,-724C454.5,-724 295.5,-724 295.5,-724 289.5,-724 283.5,-718 283.5,-712 283.5,-712 283.5,-700 283.5,-700 283.5,-694 289.5,-688 295.5,-688 295.5,-688 454.5,-688 454.5,-688 460.5,-688 466.5,-694 466.5,-700 466.5,-700 466.5,-712 466.5,-712 466.5,-718 460.5,-724 454.5,-724"/>
<text text-anchor="middle" x="375" y="-709" font-family="Helvetica,sans-Serif" font-size="10.00" fill="#ece1d7">⑦ Shadow::start in recovery mode</text>
<text text-anchor="middle" x="375" y="-698" font-family="Helvetica,sans-Serif" font-size="10.00" fill="#ece1d7">(if not already running)</text>
</g>
<!-- a5&#45;&gt;a6 -->
<g id="edge6" class="edge">
<title>a5&#45;&gt;a6</title>
<path fill="none" stroke="#c1a78e" d="M376.98,-755.95C376.68,-748.47 376.35,-740.27 376.04,-732.75"/>
<polygon fill="#c1a78e" stroke="#c1a78e" points="378.82,-732.21 375.7,-724.33 373.23,-732.43 378.82,-732.21"/>
</g>
<!-- a7 -->
<g id="node8" class="node">
<title>a7</title>
<path fill="#4d3340" stroke="#6e6963" d="M448.5,-653.5C448.5,-653.5 299.5,-653.5 299.5,-653.5 293.5,-653.5 287.5,-647.5 287.5,-641.5 287.5,-641.5 287.5,-629.5 287.5,-629.5 287.5,-623.5 293.5,-617.5 299.5,-617.5 299.5,-617.5 448.5,-617.5 448.5,-617.5 454.5,-617.5 460.5,-623.5 460.5,-629.5 460.5,-629.5 460.5,-641.5 460.5,-641.5 460.5,-647.5 454.5,-653.5 448.5,-653.5"/>
<text text-anchor="middle" x="374" y="-638.5" font-family="Helvetica,sans-Serif" font-size="10.00" fill="#ece1d7">⑧ walsender listener up</text>
<text text-anchor="middle" x="374" y="-627.5" font-family="Helvetica,sans-Serif" font-size="10.00" fill="#ece1d7">before walreceiver connects</text>
</g>
<!-- a6&#45;&gt;a7 -->
<g id="edge7" class="edge">
<title>a6&#45;&gt;a7</title>
<path fill="none" stroke="#c1a78e" d="M374.75,-687.71C374.63,-679.87 374.5,-670.43 374.37,-661.81"/>
<polygon fill="#c1a78e" stroke="#c1a78e" points="377.17,-661.5 374.25,-653.54 371.57,-661.58 377.17,-661.5"/>
</g>
<!-- a8 -->
<g id="node9" class="node">
<title>a8</title>
<path fill="#4d3a28" stroke="#6e6963" d="M482,-580.5C482,-580.5 264,-580.5 264,-580.5 258,-580.5 252,-574.5 252,-568.5 252,-568.5 252,-556.5 252,-556.5 252,-550.5 258,-544.5 264,-544.5 264,-544.5 482,-544.5 482,-544.5 488,-544.5 494,-550.5 494,-556.5 494,-556.5 494,-568.5 494,-568.5 494,-574.5 488,-580.5 482,-580.5"/>
<text text-anchor="middle" x="373" y="-565.5" font-family="Helvetica,sans-Serif" font-size="10.00" fill="#ece1d7">⑨ SourceFeed open</text>
<text text-anchor="middle" x="373" y="-554.5" font-family="Helvetica,sans-Serif" font-size="10.00" fill="#ece1d7">START_REPLICATION PHYSICAL &lt;resume_lsn&gt;</text>
</g>
<!-- a7&#45;&gt;a8 -->
<g id="edge8" class="edge">
<title>a7&#45;&gt;a8</title>
<path fill="none" stroke="#c1a78e" d="M373.76,-617.31C373.64,-608.68 373.49,-598.06 373.35,-588.53"/>
<polygon fill="#c1a78e" stroke="#c1a78e" points="376.15,-588.49 373.24,-580.53 370.55,-588.57 376.15,-588.49"/>
</g>
<!-- a9 -->
<g id="node10" class="node">
<title>a9</title>
<path fill="#4d4128" stroke="#6e6963" d="M471,-510C471,-510 297,-510 297,-510 291,-510 285,-504 285,-498 285,-498 285,-486 285,-486 285,-480 291,-474 297,-474 297,-474 471,-474 471,-474 477,-474 483,-480 483,-486 483,-486 483,-498 483,-498 483,-504 477,-510 471,-510"/>
<text text-anchor="middle" x="384" y="-495" font-family="Helvetica,sans-Serif" font-size="10.00" fill="#ece1d7">⑩ records re&#45;flow</text>
<text text-anchor="middle" x="384" y="-484" font-family="Helvetica,sans-Serif" font-size="10.00" fill="#ece1d7">CH ReplacingMergeTree(_lsn) dedups</text>
</g>
<!-- a8&#45;&gt;a9 -->
<g id="edge9" class="edge">
<title>a8&#45;&gt;a9</title>
<path fill="none" stroke="#c1a78e" d="M375.78,-544.21C377.05,-536.29 378.58,-526.73 379.98,-518.04"/>
<polygon fill="#c1a78e" stroke="#c1a78e" points="382.76,-518.39 381.26,-510.04 377.23,-517.5 382.76,-518.39"/>
</g>
<!-- cursor_table -->
<g id="node28" class="node">
<title>cursor_table</title>
<path fill="#6e6963" stroke="transparent" d="M1025.5,-442C1025.5,-442 396.5,-442 396.5,-442 390.5,-442 384.5,-436 384.5,-430 384.5,-430 384.5,-262 384.5,-262 384.5,-256 390.5,-250 396.5,-250 396.5,-250 1025.5,-250 1025.5,-250 1031.5,-250 1037.5,-256 1037.5,-262 1037.5,-262 1037.5,-430 1037.5,-430 1037.5,-436 1031.5,-442 1025.5,-442"/>
<polygon fill="#4d3850" stroke="transparent" points="393,-415 393,-438 1030,-438 1030,-415 393,-415"/>
<polygon fill="none" stroke="#6e6963" points="393,-415 393,-438 1030,-438 1030,-415 393,-415"/>
<text text-anchor="start" x="604.5" y="-425" font-family="Helvetica,sans-Serif" font-weight="bold" font-size="10.00" fill="#ece1d7">cursor.bin — 6 LSN fields (schema v2)</text>
<polygon fill="none" stroke="#6e6963" points="393,-392 393,-415 505,-415 505,-392 393,-392"/>
<text text-anchor="start" x="436" y="-402" font-family="Helvetica,sans-Serif" font-weight="bold" font-size="10.00" fill="#ece1d7">field</text>
<polygon fill="none" stroke="#6e6963" points="505,-392 505,-415 713,-415 713,-392 505,-392"/>
<text text-anchor="start" x="591.5" y="-402" font-family="Helvetica,sans-Serif" font-weight="bold" font-size="10.00" fill="#ece1d7">writer</text>
<polygon fill="none" stroke="#6e6963" points="713,-392 713,-415 905,-415 905,-392 713,-392"/>
<text text-anchor="start" x="767.5" y="-402" font-family="Helvetica,sans-Serif" font-weight="bold" font-size="10.00" fill="#ece1d7">role on restart</text>
<polygon fill="none" stroke="#6e6963" points="905,-392 905,-415 1030,-415 1030,-392 905,-392"/>
<text text-anchor="start" x="911" y="-402" font-family="Helvetica,sans-Serif" font-weight="bold" font-size="10.00" fill="#ece1d7">role in slot advance</text>
<polygon fill="none" stroke="#6e6963" points="393,-369 393,-392 505,-392 505,-369 393,-369"/>
<text text-anchor="start" x="399" y="-378" font-family="Helvetica,sans-Serif" font-size="10.00" fill="#ece1d7">source_received_lsn</text>
<polygon fill="none" stroke="#6e6963" points="505,-369 505,-392 713,-392 713,-369 505,-369"/>
<text text-anchor="start" x="563.5" y="-378" font-family="Helvetica,sans-Serif" font-size="10.00" fill="#ece1d7">SourceFeed::pump</text>
<polygon fill="none" stroke="#6e6963" points="713,-369 713,-392 905,-392 905,-369 713,-369"/>
<text text-anchor="start" x="775.5" y="-378" font-family="Helvetica,sans-Serif" font-size="10.00" fill="#ece1d7">observational</text>
<polygon fill="none" stroke="#6e6963" points="905,-369 905,-392 1030,-392 1030,-369 905,-369"/>
<text text-anchor="start" x="944" y="-378" font-family="Helvetica,sans-Serif" font-size="10.00" fill="#ece1d7">write LSN</text>
<polygon fill="none" stroke="#6e6963" points="393,-346 393,-369 505,-369 505,-346 393,-346"/>
<text text-anchor="start" x="406.5" y="-355" font-family="Helvetica,sans-Serif" font-size="10.00" fill="#ece1d7">filter_durable_lsn</text>
<polygon fill="none" stroke="#6e6963" points="505,-346 505,-369 713,-369 713,-346 505,-346"/>
<text text-anchor="start" x="536.5" y="-355" font-family="Helvetica,sans-Serif" font-size="10.00" fill="#ece1d7">DirSegmentSink::on_segment</text>
<polygon fill="none" stroke="#6e6963" points="713,-346 713,-369 905,-369 905,-346 713,-346"/>
<text text-anchor="start" x="766.5" y="-355" font-family="Helvetica,sans-Serif" font-size="10.00" fill="#ece1d7">archive coverage</text>
<polygon fill="none" stroke="#6e6963" points="905,-346 905,-369 1030,-369 1030,-346 905,-346"/>
<text text-anchor="start" x="944.5" y="-355" font-family="Helvetica,sans-Serif" font-size="10.00" fill="#ece1d7">flush LSN</text>
<polygon fill="none" stroke="#6e6963" points="393,-323 393,-346 505,-346 505,-323 393,-323"/>
<text text-anchor="start" x="402" y="-332" font-family="Helvetica,sans-Serif" font-size="10.00" fill="#ece1d7">shadow_replay_lsn</text>
<polygon fill="none" stroke="#6e6963" points="505,-323 505,-346 713,-346 713,-323 505,-323"/>
<text text-anchor="start" x="563.5" y="-332" font-family="Helvetica,sans-Serif" font-size="10.00" fill="#ece1d7">retention_sweeper</text>
<polygon fill="none" stroke="#6e6963" points="713,-323 713,-346 905,-346 905,-323 713,-323"/>
<text text-anchor="start" x="756.5" y="-332" font-family="Helvetica,sans-Serif" font-size="10.00" fill="#ece1d7">bounds segment trim</text>
<polygon fill="none" stroke="#6e6963" points="905,-323 905,-346 1030,-346 1030,-323 905,-323"/>
<text text-anchor="start" x="930" y="-332" font-family="Helvetica,sans-Serif" font-size="10.00" fill="#ece1d7">caps apply LSN</text>
<polygon fill="none" stroke="#6e6963" points="393,-300 393,-323 505,-323 505,-300 393,-300"/>
<text text-anchor="start" x="426.5" y="-309" font-family="Helvetica,sans-Serif" font-size="10.00" fill="#ece1d7">drain_lsn</text>
<polygon fill="none" stroke="#6e6963" points="505,-300 505,-323 713,-323 713,-300 505,-300"/>
<text text-anchor="start" x="561.5" y="-309" font-family="Helvetica,sans-Serif" font-size="10.00" fill="#ece1d7">XactBuffer::commit</text>
<polygon fill="none" stroke="#6e6963" points="713,-300 713,-323 905,-323 905,-300 713,-300"/>
<text text-anchor="start" x="775.5" y="-309" font-family="Helvetica,sans-Serif" font-size="10.00" fill="#ece1d7">observational</text>
<polygon fill="none" stroke="#6e6963" points="905,-300 905,-323 1030,-323 1030,-300 905,-300"/>
<text text-anchor="start" x="962.5" y="-309" font-family="Helvetica,sans-Serif" font-size="10.00" fill="#ece1d7">—</text>
<polygon fill="none" stroke="#6e6963" points="393,-277 393,-300 505,-300 505,-277 393,-277"/>
<text text-anchor="start" x="404.5" y="-287" font-family="Helvetica,sans-Serif" font-weight="bold" font-size="10.00" fill="#ece1d7">emitter_ack_lsn</text>
<polygon fill="none" stroke="#6e6963" points="505,-277 505,-300 713,-300 713,-277 505,-277"/>
<text text-anchor="start" x="511" y="-286" font-family="Helvetica,sans-Serif" font-size="10.00" fill="#ece1d7">pipeline ack collector (contiguous&#45;done)</text>
<polygon fill="none" stroke="#6e6963" points="713,-277 713,-300 905,-300 905,-277 713,-277"/>
<text text-anchor="start" x="756" y="-287" font-family="Helvetica,sans-Serif" font-weight="bold" font-size="10.00" fill="#ece1d7">resume_lsn source</text>
<polygon fill="none" stroke="#6e6963" points="905,-277 905,-300 1030,-300 1030,-277 905,-277"/>
<text text-anchor="start" x="923.5" y="-287" font-family="Helvetica,sans-Serif" font-weight="bold" font-size="10.00" fill="#ece1d7">caps apply LSN</text>
<polygon fill="none" stroke="#6e6963" points="393,-254 393,-277 505,-277 505,-254 393,-254"/>
<text text-anchor="start" x="406" y="-263" font-family="Helvetica,sans-Serif" font-size="10.00" fill="#ece1d7">shadow_flush_lsn</text>
<polygon fill="none" stroke="#6e6963" points="505,-254 505,-277 713,-277 713,-254 505,-254"/>
<text text-anchor="start" x="544.5" y="-263" font-family="Helvetica,sans-Serif" font-size="10.00" fill="#ece1d7">walsender rx &#39;r&#39; aggregate</text>
<polygon fill="none" stroke="#6e6963" points="713,-254 713,-277 905,-277 905,-254 713,-254"/>
<text text-anchor="start" x="719" y="-263" font-family="Helvetica,sans-Serif" font-size="10.00" fill="#ece1d7">streaming&#45;fed shadow resumes here</text>
<polygon fill="none" stroke="#6e6963" points="905,-254 905,-277 1030,-277 1030,-254 905,-254"/>
<text text-anchor="start" x="962.5" y="-263" font-family="Helvetica,sans-Serif" font-size="10.00" fill="#ece1d7">—</text>
</g>
<!-- a9&#45;&gt;cursor_table -->
<!-- b1 -->
<g id="node12" class="node">
<title>b1</title>
<path fill="#4d3a28" stroke="#6e6963" d="M792,-1038C792,-1038 630,-1038 630,-1038 624,-1038 618,-1032 618,-1026 618,-1026 618,-998 618,-998 618,-992 624,-986 630,-986 630,-986 792,-986 792,-986 798,-986 804,-992 804,-998 804,-998 804,-1026 804,-1026 804,-1032 798,-1038 792,-1038"/>
<text text-anchor="middle" x="711" y="-1026" font-family="Helvetica,sans-Serif" font-size="10.00" fill="#ece1d7">② OS reaps process</text>
<text text-anchor="middle" x="711" y="-1015" font-family="Helvetica,sans-Serif" font-size="10.00" fill="#ece1d7">buffers lost; cursor.bin = last fsync</text>
<text text-anchor="middle" x="711" y="-1004" font-family="Helvetica,sans-Serif" font-size="10.00" fill="#ece1d7">spill files on disk</text>
<text text-anchor="middle" x="711" y="-993" font-family="Helvetica,sans-Serif" font-size="10.00" fill="#ece1d7">partial segment write rolled back</text>
</g>
<!-- b0&#45;&gt;b1 -->
<g id="edge10" class="edge">
<title>b0&#45;&gt;b1</title>
<path fill="none" stroke="#c1a78e" d="M711,-1072.14C711,-1064.45 711,-1055.12 711,-1046.18"/>
<polygon fill="#c1a78e" stroke="#c1a78e" points="713.8,-1046.13 711,-1038.13 708.2,-1046.13 713.8,-1046.13"/>
</g>
<!-- c0 -->
<g id="node20" class="node">
<title>c0</title>
<path fill="#403a36" stroke="#6e6963" d="M1090.5,-1030C1090.5,-1030 941.5,-1030 941.5,-1030 935.5,-1030 929.5,-1024 929.5,-1018 929.5,-1018 929.5,-1006 929.5,-1006 929.5,-1000 935.5,-994 941.5,-994 941.5,-994 1090.5,-994 1090.5,-994 1096.5,-994 1102.5,-1000 1102.5,-1006 1102.5,-1006 1102.5,-1018 1102.5,-1018 1102.5,-1024 1096.5,-1030 1090.5,-1030"/>
<text text-anchor="middle" x="1016" y="-1009.5" font-family="Helvetica,sans-Serif" font-size="10.00" fill="#ece1d7">① extended downtime</text>
</g>
<!-- b0&#45;&gt;c0 -->
<!-- b2 -->
<g id="node13" class="node">
<title>b2</title>
<path fill="#4d3a28" stroke="#6e6963" d="M785.5,-954C785.5,-954 636.5,-954 636.5,-954 630.5,-954 624.5,-948 624.5,-942 624.5,-942 624.5,-925 624.5,-925 624.5,-919 630.5,-913 636.5,-913 636.5,-913 785.5,-913 785.5,-913 791.5,-913 797.5,-919 797.5,-925 797.5,-925 797.5,-942 797.5,-942 797.5,-948 791.5,-954 785.5,-954"/>
<text text-anchor="middle" x="711" y="-942" font-family="Helvetica,sans-Serif" font-size="10.00" fill="#ece1d7">③ restart:</text>
<text text-anchor="middle" x="711" y="-931" font-family="Helvetica,sans-Serif" font-size="10.00" fill="#ece1d7">spill::clear() wipes xid&#45;*.bin</text>
<text text-anchor="middle" x="711" y="-920" font-family="Helvetica,sans-Serif" font-size="10.00" fill="#ece1d7">toast_retires.bin survives</text>
</g>
<!-- b1&#45;&gt;b2 -->
<g id="edge11" class="edge">
<title>b1&#45;&gt;b2</title>
<path fill="none" stroke="#c1a78e" d="M711,-985.95C711,-978.4 711,-970.06 711,-962.34"/>
<polygon fill="#c1a78e" stroke="#c1a78e" points="713.8,-962.27 711,-954.27 708.2,-962.27 713.8,-962.27"/>
</g>
<!-- b3 -->
<g id="node14" class="node">
<title>b3</title>
<path fill="#4d3a28" stroke="#6e6963" d="M814.5,-881C814.5,-881 607.5,-881 607.5,-881 601.5,-881 595.5,-875 595.5,-869 595.5,-869 595.5,-852 595.5,-852 595.5,-846 601.5,-840 607.5,-840 607.5,-840 814.5,-840 814.5,-840 820.5,-840 826.5,-846 826.5,-852 826.5,-852 826.5,-869 826.5,-869 826.5,-875 820.5,-881 814.5,-881"/>
<text text-anchor="middle" x="711" y="-869" font-family="Helvetica,sans-Serif" font-size="10.00" fill="#ece1d7">④ cursor::read</text>
<text text-anchor="middle" x="711" y="-858" font-family="Helvetica,sans-Serif" font-size="10.00" fill="#ece1d7">resume_lsn = segment&#45;aligned emitter_ack</text>
<text text-anchor="middle" x="711" y="-847" font-family="Helvetica,sans-Serif" font-size="10.00" fill="#ece1d7">flush due toast mirror retires</text>
</g>
<!-- b2&#45;&gt;b3 -->
<g id="edge12" class="edge">
<title>b2&#45;&gt;b3</title>
<path fill="none" stroke="#c1a78e" d="M711,-912.72C711,-905.49 711,-897.17 711,-889.36"/>
<polygon fill="#c1a78e" stroke="#c1a78e" points="713.8,-889.17 711,-881.17 708.2,-889.17 713.8,-889.17"/>
</g>
<!-- b4 -->
<g id="node15" class="node">
<title>b4</title>
<path fill="#3d4128" stroke="#6e6963" d="M789.5,-800C789.5,-800 632.5,-800 632.5,-800 626.5,-800 620.5,-794 620.5,-788 620.5,-788 620.5,-776 620.5,-776 620.5,-770 626.5,-764 632.5,-764 632.5,-764 789.5,-764 789.5,-764 795.5,-764 801.5,-770 801.5,-776 801.5,-776 801.5,-788 801.5,-788 801.5,-794 795.5,-800 789.5,-800"/>
<text text-anchor="middle" x="711" y="-785" font-family="Helvetica,sans-Serif" font-size="10.00" fill="#ece1d7">⑤ shadow PG recovers on its own</text>
<text text-anchor="middle" x="711" y="-774" font-family="Helvetica,sans-Serif" font-size="10.00" fill="#ece1d7">walreceiver retry timer</text>
</g>
<!-- b3&#45;&gt;b4 -->
<g id="edge13" class="edge">
<title>b3&#45;&gt;b4</title>
<path fill="none" stroke="#c1a78e" d="M711,-839.8C711,-830.18 711,-818.51 711,-808.25"/>
<polygon fill="#c1a78e" stroke="#c1a78e" points="713.8,-808.04 711,-800.04 708.2,-808.04 713.8,-808.04"/>
</g>
<!-- b5 -->
<g id="node16" class="node">
<title>b5</title>
<path fill="#3d4128" stroke="#6e6963" d="M796,-724C796,-724 626,-724 626,-724 620,-724 614,-718 614,-712 614,-712 614,-700 614,-700 614,-694 620,-688 626,-688 626,-688 796,-688 796,-688 802,-688 808,-694 808,-700 808,-700 808,-712 808,-712 808,-718 802,-724 796,-724"/>
<text text-anchor="middle" x="711" y="-709" font-family="Helvetica,sans-Serif" font-size="10.00" fill="#ece1d7">⑥ shadow asks START_REPLICATION</text>
<text text-anchor="middle" x="711" y="-698" font-family="Helvetica,sans-Serif" font-size="10.00" fill="#ece1d7">PHYSICAL &lt;its flush_lsn&gt;</text>
</g>
<!-- b4&#45;&gt;b5 -->
<g id="edge14" class="edge">
<title>b4&#45;&gt;b5</title>
<path fill="none" stroke="#c1a78e" d="M711,-763.84C711,-754.4 711,-742.53 711,-732.07"/>
<polygon fill="#c1a78e" stroke="#c1a78e" points="713.8,-732.07 711,-724.07 708.2,-732.07 713.8,-732.07"/>
</g>
<!-- b6 -->
<g id="node17" class="node">
<title>b6</title>
<path fill="#4d3a28" stroke="#6e6963" d="M796.5,-656C796.5,-656 625.5,-656 625.5,-656 619.5,-656 613.5,-650 613.5,-644 613.5,-644 613.5,-627 613.5,-627 613.5,-621 619.5,-615 625.5,-615 625.5,-615 796.5,-615 796.5,-615 802.5,-615 808.5,-621 808.5,-627 808.5,-627 808.5,-644 808.5,-644 808.5,-650 802.5,-656 796.5,-656"/>
<text text-anchor="middle" x="711" y="-644" font-family="Helvetica,sans-Serif" font-size="10.00" fill="#ece1d7">⑦ walshadow honours both:</text>
<text text-anchor="middle" x="711" y="-633" font-family="Helvetica,sans-Serif" font-size="10.00" fill="#ece1d7">• upstream feed at resume_lsn</text>
<text text-anchor="middle" x="711" y="-622" font-family="Helvetica,sans-Serif" font-size="10.00" fill="#ece1d7">• shadow feed at shadow&#39;s flush_lsn</text>
</g>
<!-- b5&#45;&gt;b6 -->
<g id="edge15" class="edge">
<title>b5&#45;&gt;b6</title>
<path fill="none" stroke="#c1a78e" d="M711,-687.71C711,-680.73 711,-672.48 711,-664.67"/>
<polygon fill="#c1a78e" stroke="#c1a78e" points="713.8,-664.45 711,-656.45 708.2,-664.45 713.8,-664.45"/>
</g>
<!-- b7 -->
<g id="node18" class="node">
<title>b7</title>
<path fill="#4d4128" stroke="#6e6963" d="M785.5,-583C785.5,-583 636.5,-583 636.5,-583 630.5,-583 624.5,-577 624.5,-571 624.5,-571 624.5,-554 624.5,-554 624.5,-548 630.5,-542 636.5,-542 636.5,-542 785.5,-542 785.5,-542 791.5,-542 797.5,-548 797.5,-554 797.5,-554 797.5,-571 797.5,-571 797.5,-577 791.5,-583 785.5,-583"/>
<text text-anchor="middle" x="711" y="-571" font-family="Helvetica,sans-Serif" font-size="10.00" fill="#ece1d7">⑧ overlap records replayed</text>
<text text-anchor="middle" x="711" y="-560" font-family="Helvetica,sans-Serif" font-size="10.00" fill="#ece1d7">CH dedups on _lsn</text>
<text text-anchor="middle" x="711" y="-549" font-family="Helvetica,sans-Serif" font-size="10.00" fill="#ece1d7">shadow apply monotonic</text>
</g>
<!-- b6&#45;&gt;b7 -->
<g id="edge16" class="edge">
<title>b6&#45;&gt;b7</title>
<path fill="none" stroke="#c1a78e" d="M711,-614.72C711,-607.49 711,-599.17 711,-591.36"/>
<polygon fill="#c1a78e" stroke="#c1a78e" points="713.8,-591.17 711,-583.17 708.2,-591.17 713.8,-591.17"/>
</g>
<!-- b8 -->
<g id="node19" class="node">
<title>b8</title>
<path fill="#4d3a28" stroke="#6e6963" d="M785.5,-510C785.5,-510 636.5,-510 636.5,-510 630.5,-510 624.5,-504 624.5,-498 624.5,-498 624.5,-486 624.5,-486 624.5,-480 630.5,-474 636.5,-474 636.5,-474 785.5,-474 785.5,-474 791.5,-474 797.5,-480 797.5,-486 797.5,-486 797.5,-498 797.5,-498 797.5,-504 791.5,-510 785.5,-510"/>
<text text-anchor="middle" x="711" y="-489.5" font-family="Helvetica,sans-Serif" font-size="10.00" fill="#ece1d7">⑨ steady&#45;state reached</text>
</g>
<!-- b7&#45;&gt;b8 -->
<g id="edge17" class="edge">
<title>b7&#45;&gt;b8</title>
<path fill="none" stroke="#c1a78e" d="M711,-541.69C711,-534.37 711,-525.99 711,-518.26"/>
<polygon fill="#c1a78e" stroke="#c1a78e" points="713.8,-518.21 711,-510.21 708.2,-518.21 713.8,-518.21"/>
</g>
<!-- b8&#45;&gt;cursor_table -->
<!-- c1 -->
<g id="node21" class="node">
<title>c1</title>
<path fill="#4d3a28" stroke="#6e6963" d="M1135,-954C1135,-954 941,-954 941,-954 935,-954 929,-948 929,-942 929,-942 929,-925 929,-925 929,-919 935,-913 941,-913 941,-913 1135,-913 1135,-913 1141,-913 1147,-919 1147,-925 1147,-925 1147,-942 1147,-942 1147,-948 1141,-954 1135,-954"/>
<text text-anchor="middle" x="1038" y="-942" font-family="Helvetica,sans-Serif" font-size="10.00" fill="#ece1d7">② restart:</text>
<text text-anchor="middle" x="1038" y="-931" font-family="Helvetica,sans-Serif" font-size="10.00" fill="#ece1d7">SourceFeed::START_REPLICATION →</text>
<text text-anchor="middle" x="1038" y="-920" font-family="Helvetica,sans-Serif" font-size="10.00" fill="#ece1d7">ERROR requested WAL segment removed</text>
</g>
<!-- c0&#45;&gt;c1 -->
<g id="edge18" class="edge">
<title>c0&#45;&gt;c1</title>
<path fill="none" stroke="#c1a78e" d="M1020.99,-993.64C1023.68,-984.3 1027.06,-972.55 1030.09,-962"/>
<polygon fill="#c1a78e" stroke="#c1a78e" points="1032.81,-962.68 1032.33,-954.22 1027.43,-961.13 1032.81,-962.68"/>
</g>
<!-- c2 -->
<g id="node22" class="node">
<title>c2</title>
<path fill="#4d3a28" stroke="#6e6963" d="M1111.5,-881C1111.5,-881 962.5,-881 962.5,-881 956.5,-881 950.5,-875 950.5,-869 950.5,-869 950.5,-852 950.5,-852 950.5,-846 956.5,-840 962.5,-840 962.5,-840 1111.5,-840 1111.5,-840 1117.5,-840 1123.5,-846 1123.5,-852 1123.5,-852 1123.5,-869 1123.5,-869 1123.5,-875 1117.5,-881 1111.5,-881"/>
<text text-anchor="middle" x="1037" y="-869" font-family="Helvetica,sans-Serif" font-size="10.00" fill="#ece1d7">③ daemon poisons</text>
<text text-anchor="middle" x="1037" y="-858" font-family="Helvetica,sans-Serif" font-size="10.00" fill="#ece1d7">log ReplayTimeout / WAL gap</text>
<text text-anchor="middle" x="1037" y="-847" font-family="Helvetica,sans-Serif" font-size="10.00" fill="#ece1d7">exit non&#45;zero</text>
</g>
<!-- c1&#45;&gt;c2 -->
<g id="edge19" class="edge">
<title>c1&#45;&gt;c2</title>
<path fill="none" stroke="#c1a78e" d="M1037.72,-912.72C1037.62,-905.49 1037.5,-897.17 1037.39,-889.36"/>
<polygon fill="#c1a78e" stroke="#c1a78e" points="1040.19,-889.13 1037.28,-881.17 1034.59,-889.21 1040.19,-889.13"/>
</g>
<!-- c3 -->
<g id="node23" class="node">
<title>c3</title>
<path fill="#403a36" stroke="#6e6963" d="M1111.5,-802.5C1111.5,-802.5 962.5,-802.5 962.5,-802.5 956.5,-802.5 950.5,-796.5 950.5,-790.5 950.5,-790.5 950.5,-773.5 950.5,-773.5 950.5,-767.5 956.5,-761.5 962.5,-761.5 962.5,-761.5 1111.5,-761.5 1111.5,-761.5 1117.5,-761.5 1123.5,-767.5 1123.5,-773.5 1123.5,-773.5 1123.5,-790.5 1123.5,-790.5 1123.5,-796.5 1117.5,-802.5 1111.5,-802.5"/>
<text text-anchor="middle" x="1037" y="-790.5" font-family="Helvetica,sans-Serif" font-size="10.00" fill="#ece1d7">④ operator re&#45;invokes</text>
<text text-anchor="middle" x="1037" y="-779.5" font-family="Helvetica,sans-Serif" font-size="10.00" fill="#ece1d7">&#45;&#45;bootstrap&#45;mode=direct</text>
<text text-anchor="middle" x="1037" y="-768.5" font-family="Helvetica,sans-Serif" font-size="10.00" fill="#ece1d7">(or object_store)</text>
</g>
<!-- c2&#45;&gt;c3 -->
<g id="edge20" class="edge">
<title>c2&#45;&gt;c3</title>
<path fill="none" stroke="#c1a78e" d="M1037,-839.8C1037,-830.97 1037,-820.39 1037,-810.77"/>
<polygon fill="#c1a78e" stroke="#c1a78e" points="1039.8,-810.63 1037,-802.63 1034.2,-810.63 1039.8,-810.63"/>
</g>
<!-- c4 -->
<g id="node24" class="node">
<title>c4</title>
<path fill="#4d3a28" stroke="#6e6963" d="M1110.5,-724C1110.5,-724 961.5,-724 961.5,-724 955.5,-724 949.5,-718 949.5,-712 949.5,-712 949.5,-700 949.5,-700 949.5,-694 955.5,-688 961.5,-688 961.5,-688 1110.5,-688 1110.5,-688 1116.5,-688 1122.5,-694 1122.5,-700 1122.5,-700 1122.5,-712 1122.5,-712 1122.5,-718 1116.5,-724 1110.5,-724"/>
<text text-anchor="middle" x="1036" y="-709" font-family="Helvetica,sans-Serif" font-size="10.00" fill="#ece1d7">⑤ greenfield bootstrap path</text>
<text text-anchor="middle" x="1036" y="-698" font-family="Helvetica,sans-Serif" font-size="10.00" fill="#ece1d7">(→ timeline_bootstrap)</text>
</g>
<!-- c3&#45;&gt;c4 -->
<g id="edge21" class="edge">
<title>c3&#45;&gt;c4</title>
<path fill="none" stroke="#c1a78e" d="M1036.73,-761.17C1036.61,-752.38 1036.47,-741.94 1036.35,-732.58"/>
<polygon fill="#c1a78e" stroke="#c1a78e" points="1039.14,-732.33 1036.23,-724.36 1033.54,-732.4 1039.14,-732.33"/>
</g>
<!-- c5 -->
<g id="node25" class="node">
<title>c5</title>
<path fill="#3d4128" stroke="#6e6963" d="M1109.5,-653.5C1109.5,-653.5 960.5,-653.5 960.5,-653.5 954.5,-653.5 948.5,-647.5 948.5,-641.5 948.5,-641.5 948.5,-629.5 948.5,-629.5 948.5,-623.5 954.5,-617.5 960.5,-617.5 960.5,-617.5 1109.5,-617.5 1109.5,-617.5 1115.5,-617.5 1121.5,-623.5 1121.5,-629.5 1121.5,-629.5 1121.5,-641.5 1121.5,-641.5 1121.5,-647.5 1115.5,-653.5 1109.5,-653.5"/>
<text text-anchor="middle" x="1035" y="-638.5" font-family="Helvetica,sans-Serif" font-size="10.00" fill="#ece1d7">⑥ shadow data dir wiped</text>
<text text-anchor="middle" x="1035" y="-627.5" font-family="Helvetica,sans-Serif" font-size="10.00" fill="#ece1d7">or diverted to fresh dir</text>
</g>
<!-- c4&#45;&gt;c5 -->
<g id="edge22" class="edge">
<title>c4&#45;&gt;c5</title>
<path fill="none" stroke="#c1a78e" d="M1035.75,-687.71C1035.63,-679.87 1035.5,-670.43 1035.37,-661.81"/>
<polygon fill="#c1a78e" stroke="#c1a78e" points="1038.17,-661.5 1035.25,-653.54 1032.57,-661.58 1038.17,-661.5"/>
</g>
<!-- c6 -->
<g id="node26" class="node">
<title>c6</title>
<path fill="#4d3a28" stroke="#6e6963" d="M1106.5,-580.5C1106.5,-580.5 957.5,-580.5 957.5,-580.5 951.5,-580.5 945.5,-574.5 945.5,-568.5 945.5,-568.5 945.5,-556.5 945.5,-556.5 945.5,-550.5 951.5,-544.5 957.5,-544.5 957.5,-544.5 1106.5,-544.5 1106.5,-544.5 1112.5,-544.5 1118.5,-550.5 1118.5,-556.5 1118.5,-556.5 1118.5,-568.5 1118.5,-568.5 1118.5,-574.5 1112.5,-580.5 1106.5,-580.5"/>
<text text-anchor="middle" x="1032" y="-565.5" font-family="Helvetica,sans-Serif" font-size="10.00" fill="#ece1d7">⑦ new cursor.bin written</text>
<text text-anchor="middle" x="1032" y="-554.5" font-family="Helvetica,sans-Serif" font-size="10.00" fill="#ece1d7">at end_lsn</text>
</g>
<!-- c5&#45;&gt;c6 -->
<g id="edge23" class="edge">
<title>c5&#45;&gt;c6</title>
<path fill="none" stroke="#c1a78e" d="M1034.27,-617.31C1033.91,-608.68 1033.46,-598.06 1033.06,-588.53"/>
<polygon fill="#c1a78e" stroke="#c1a78e" points="1035.85,-588.4 1032.72,-580.53 1030.26,-588.64 1035.85,-588.4"/>
</g>
<!-- c7 -->
<g id="node27" class="node">
<title>c7</title>
<path fill="#4d4128" stroke="#6e6963" d="M1101.5,-510C1101.5,-510 952.5,-510 952.5,-510 946.5,-510 940.5,-504 940.5,-498 940.5,-498 940.5,-486 940.5,-486 940.5,-480 946.5,-474 952.5,-474 952.5,-474 1101.5,-474 1101.5,-474 1107.5,-474 1113.5,-480 1113.5,-486 1113.5,-486 1113.5,-498 1113.5,-498 1113.5,-504 1107.5,-510 1101.5,-510"/>
<text text-anchor="middle" x="1027" y="-489.5" font-family="Helvetica,sans-Serif" font-size="10.00" fill="#ece1d7">⑧ steady&#45;state reached</text>
</g>
<!-- c6&#45;&gt;c7 -->
<g id="edge24" class="edge">
<title>c6&#45;&gt;c7</title>
<path fill="none" stroke="#c1a78e" d="M1030.74,-544.21C1030.16,-536.29 1029.46,-526.73 1028.83,-518.04"/>
<polygon fill="#c1a78e" stroke="#c1a78e" points="1031.62,-517.82 1028.24,-510.04 1026.03,-518.23 1031.62,-517.82"/>
</g>
<!-- c7&#45;&gt;cursor_table -->
<!-- legend -->
<g id="node29" class="node">
<title>legend</title>
<path fill="#6e6963" stroke="transparent" d="M824,-218C824,-218 598,-218 598,-218 592,-218 586,-212 586,-206 586,-206 586,-12 586,-12 586,-6 592,0 598,0 598,0 824,0 824,0 830,0 836,-6 836,-12 836,-12 836,-206 836,-206 836,-212 830,-218 824,-218"/>
<polygon fill="#34302c" stroke="transparent" points="594,-193 594,-214 828,-214 828,-193 594,-193"/>
<polygon fill="none" stroke="#6e6963" points="594,-193 594,-214 828,-214 828,-193 594,-193"/>
<text text-anchor="start" x="687.5" y="-202" font-family="Helvetica,sans-Serif" font-weight="bold" font-size="10.00" fill="#ece1d7">node fill</text>
<polygon fill="#403a36" stroke="transparent" points="594,-172 594,-193 622,-193 622,-172 594,-172"/>
<polygon fill="none" stroke="#6e6963" points="594,-172 594,-193 622,-193 622,-172 594,-172"/>
<polygon fill="none" stroke="#6e6963" points="622,-172 622,-193 828,-193 828,-172 622,-172"/>
<text text-anchor="start" x="677.5" y="-180" font-family="Helvetica,sans-Serif" font-size="10.00" fill="#ece1d7">operator / OS event</text>
<polygon fill="#4d3a28" stroke="transparent" points="594,-151 594,-172 622,-172 622,-151 594,-151"/>
<polygon fill="none" stroke="#6e6963" points="594,-151 594,-172 622,-172 622,-151 594,-151"/>
<polygon fill="none" stroke="#6e6963" points="622,-151 622,-172 828,-172 828,-151 622,-151"/>
<text text-anchor="start" x="678" y="-159" font-family="Helvetica,sans-Serif" font-size="10.00" fill="#ece1d7">walshadow&#45;stream</text>
<polygon fill="#4d3340" stroke="transparent" points="594,-130 594,-151 622,-151 622,-130 594,-130"/>
<polygon fill="none" stroke="#6e6963" points="594,-130 594,-151 622,-151 622,-130 594,-130"/>
<polygon fill="none" stroke="#6e6963" points="622,-130 622,-151 828,-151 828,-130 622,-130"/>
<text text-anchor="start" x="627" y="-138" font-family="Helvetica,sans-Serif" font-size="10.00" fill="#ece1d7">walshadow — segment / walsender side</text>
<polygon fill="#3d4128" stroke="transparent" points="594,-109 594,-130 622,-130 622,-109 594,-109"/>
<polygon fill="none" stroke="#6e6963" points="594,-109 594,-130 622,-130 622,-109 594,-109"/>
<polygon fill="none" stroke="#6e6963" points="622,-109 622,-130 828,-130 828,-109 622,-109"/>
<text text-anchor="start" x="683.5" y="-117" font-family="Helvetica,sans-Serif" font-size="10.00" fill="#ece1d7">shadow Postgres</text>
<polygon fill="#4d4128" stroke="transparent" points="594,-88 594,-109 622,-109 622,-88 594,-88"/>
<polygon fill="none" stroke="#6e6963" points="594,-88 594,-109 622,-109 622,-88 594,-88"/>
<polygon fill="none" stroke="#6e6963" points="622,-88 622,-109 828,-109 828,-88 622,-88"/>
<text text-anchor="start" x="654" y="-96" font-family="Helvetica,sans-Serif" font-size="10.00" fill="#ece1d7">ClickHouse (dedup endpoint)</text>
<polygon fill="#34302c" stroke="transparent" points="594,-67 594,-88 828,-88 828,-67 594,-67"/>
<polygon fill="none" stroke="#6e6963" points="594,-67 594,-88 828,-88 828,-67 594,-67"/>
<text text-anchor="start" x="644" y="-76" font-family="Helvetica,sans-Serif" font-weight="bold" font-size="10.00" fill="#ece1d7">scenario cluster border</text>
<polygon fill="none" stroke="#6e6963" points="594,-46 594,-67 622,-67 622,-46 594,-46"/>
<text text-anchor="start" x="604.5" y="-55" font-family="Helvetica,sans-Serif" font-weight="bold" font-size="10.00" fill="#a1a9cc">━</text>
<polygon fill="none" stroke="#6e6963" points="622,-46 622,-67 828,-67 828,-46 622,-46"/>
<text text-anchor="start" x="660" y="-54" font-family="Helvetica,sans-Serif" font-size="10.00" fill="#ece1d7">A. clean restart (SIGTERM)</text>
<polygon fill="none" stroke="#6e6963" points="594,-25 594,-46 622,-46 622,-25 594,-25"/>
<text text-anchor="start" x="604.5" y="-34" font-family="Helvetica,sans-Serif" font-weight="bold" font-size="10.00" fill="#cba85e">━</text>
<polygon fill="none" stroke="#6e6963" points="622,-25 622,-46 828,-46 828,-25 622,-25"/>
<text text-anchor="start" x="674.5" y="-33" font-family="Helvetica,sans-Serif" font-size="10.00" fill="#ece1d7">B. kill &#45;9 mid&#45;stream</text>
<polygon fill="none" stroke="#6e6963" points="594,-4 594,-25 622,-25 622,-4 594,-4"/>
<text text-anchor="start" x="604.5" y="-13" font-family="Helvetica,sans-Serif" font-weight="bold" font-size="10.00" fill="#bd8183">━</text>
<polygon fill="none" stroke="#6e6963" points="622,-4 622,-25 828,-25 828,-4 622,-4"/>
<text text-anchor="start" x="648" y="-12" font-family="Helvetica,sans-Serif" font-size="10.00" fill="#ece1d7">C. WAL overflow → re&#45;bootstrap</text>
</g>
<!-- cursor_table&#45;&gt;legend -->
</g>
</svg>
