<?xml version="1.0" encoding="UTF-8" standalone="no"?>
<!DOCTYPE svg PUBLIC "-//W3C//DTD SVG 1.1//EN"
 "http://www.w3.org/Graphics/SVG/1.1/DTD/svg11.dtd">
<!-- Generated by graphviz version 2.42.4 (0)
 -->
<!-- Title: timeline_bootstrap Pages: 1 -->
<svg width="1211pt" height="1502pt"
 viewBox="0.00 0.00 1211.00 1502.00" xmlns="http://www.w3.org/2000/svg" xmlns:xlink="http://www.w3.org/1999/xlink">
<g id="graph0" class="graph" transform="scale(1 1) rotate(0) translate(4 1498)">
<title>timeline_bootstrap</title>
<polygon fill="#272623" stroke="transparent" points="-4,4 -4,-1498 1207,-1498 1207,4 -4,4"/>
<text text-anchor="middle" x="601.5" y="-1478.8" font-family="Helvetica,sans-Serif" font-size="14.00" fill="#ece1d7">walshadow greenfield bootstrap — 5 phases</text>
<g id="clust1" class="cluster">
<title>cluster_p1</title>
<path fill="#34302c" stroke="#4c4641" d="M130,-1193C130,-1193 308,-1193 308,-1193 314,-1193 320,-1199 320,-1205 320,-1205 320,-1451 320,-1451 320,-1457 314,-1463 308,-1463 308,-1463 130,-1463 130,-1463 124,-1463 118,-1457 118,-1451 118,-1451 118,-1205 118,-1205 118,-1199 124,-1193 130,-1193"/>
<text text-anchor="middle" x="219" y="-1447.8" font-family="Helvetica,sans-Serif" font-size="14.00" fill="#ece1d7">① catalog seed</text>
</g>
<g id="clust2" class="cluster">
<title>cluster_p2</title>
<path fill="#34302c" stroke="#4c4641" d="M340,-945.5C340,-945.5 824,-945.5 824,-945.5 830,-945.5 836,-951.5 836,-957.5 836,-957.5 836,-1261 836,-1261 836,-1267 830,-1273 824,-1273 824,-1273 340,-1273 340,-1273 334,-1273 328,-1267 328,-1261 328,-1261 328,-957.5 328,-957.5 328,-951.5 334,-945.5 340,-945.5"/>
<text text-anchor="middle" x="582" y="-1257.8" font-family="Helvetica,sans-Serif" font-size="14.00" fill="#ece1d7">② BASE_BACKUP pump — MultiplexSink fan&#45;out</text>
</g>
<g id="clust3" class="cluster">
<title>cluster_p3</title>
<path fill="#34302c" stroke="#4c4641" d="M20,-823C20,-823 308,-823 308,-823 314,-823 320,-829 320,-835 320,-835 320,-1022 320,-1022 320,-1028 314,-1034 308,-1034 308,-1034 20,-1034 20,-1034 14,-1034 8,-1028 8,-1022 8,-1022 8,-835 8,-835 8,-829 14,-823 20,-823"/>
<text text-anchor="middle" x="164" y="-1018.8" font-family="Helvetica,sans-Serif" font-size="14.00" fill="#ece1d7">③ drain → ClickHouse &#160;(concurrent with ②)</text>
</g>
<g id="clust4" class="cluster">
<title>cluster_p4</title>
<path fill="#34302c" stroke="#4c4641" d="M856,-577C856,-577 1183,-577 1183,-577 1189,-577 1195,-583 1195,-589 1195,-589 1195,-1153 1195,-1153 1195,-1159 1189,-1165 1183,-1165 1183,-1165 856,-1165 856,-1165 850,-1165 844,-1159 844,-1153 844,-1153 844,-589 844,-589 844,-583 850,-577 856,-577"/>
<text text-anchor="middle" x="1019.5" y="-1149.8" font-family="Helvetica,sans-Serif" font-size="14.00" fill="#ece1d7">④ shadow handoff</text>
</g>
<g id="clust5" class="cluster">
<title>cluster_p5</title>
<path fill="#34302c" stroke="#4c4641" d="M748,-289C748,-289 1093,-289 1093,-289 1099,-289 1105,-295 1105,-301 1105,-301 1105,-537 1105,-537 1105,-543 1099,-549 1093,-549 1093,-549 748,-549 748,-549 742,-549 736,-543 736,-537 736,-537 736,-301 736,-301 736,-295 742,-289 748,-289"/>
<text text-anchor="middle" x="920.5" y="-533.8" font-family="Helvetica,sans-Serif" font-size="14.00" fill="#ece1d7">⑤ cursor + WAL pump start &#160;(→ steady&#45;state)</text>
</g>
<!-- op1 -->
<g id="node1" class="node">
<title>op1</title>
<path fill="#403a36" stroke="#6e6963" d="M276,-1432C276,-1432 162,-1432 162,-1432 156,-1432 150,-1426 150,-1420 150,-1420 150,-1403 150,-1403 150,-1397 156,-1391 162,-1391 162,-1391 276,-1391 276,-1391 282,-1391 288,-1397 288,-1403 288,-1403 288,-1420 288,-1420 288,-1426 282,-1432 276,-1432"/>
<text text-anchor="middle" x="219" y="-1420" font-family="Helvetica,sans-Serif" font-size="10.00" fill="#ece1d7">walshadow&#45;stream</text>
<text text-anchor="middle" x="219" y="-1409" font-family="Helvetica,sans-Serif" font-size="10.00" fill="#ece1d7">&#45;&#45;bootstrap&#45;mode=direct</text>
<text text-anchor="middle" x="219" y="-1398" font-family="Helvetica,sans-Serif" font-size="10.00" fill="#ece1d7">&#45;&#45;ch&#45;config=…</text>
</g>
<!-- map1 -->
<g id="node3" class="node">
<title>map1</title>
<path fill="#4d3a28" stroke="#6e6963" d="M299,-1345C299,-1345 139,-1345 139,-1345 133,-1345 127,-1339 127,-1333 127,-1333 127,-1321 127,-1321 127,-1315 133,-1309 139,-1309 139,-1309 299,-1309 299,-1309 305,-1309 311,-1315 311,-1321 311,-1321 311,-1333 311,-1333 311,-1339 305,-1345 299,-1345"/>
<text text-anchor="middle" x="219" y="-1330" font-family="Helvetica,sans-Serif" font-size="10.00" fill="#ece1d7">CatalogTracker::seed_from_source</text>
<text text-anchor="middle" x="219" y="-1319" font-family="Helvetica,sans-Serif" font-size="10.00" fill="#ece1d7">builds CatalogMap</text>
</g>
<!-- op1&#45;&gt;map1 -->
<g id="edge1" class="edge">
<title>op1&#45;&gt;map1</title>
<path fill="none" stroke="#c1a78e" d="M219,-1390.95C219,-1379.75 219,-1365.58 219,-1353.51"/>
<polygon fill="#c1a78e" stroke="#c1a78e" points="221.8,-1353.17 219,-1345.17 216.2,-1353.17 221.8,-1353.17"/>
<text text-anchor="middle" x="234" y="-1365.8" font-family="Helvetica,sans-Serif" font-size="9.00" fill="#ece1d7">spawn</text>
</g>
<!-- sql1 -->
<g id="node2" class="node">
<title>sql1</title>
<path fill="#3d3d54" stroke="#6e6963" d="M300,-1242C300,-1242 138,-1242 138,-1242 132,-1242 126,-1236 126,-1230 126,-1230 126,-1213 126,-1213 126,-1207 132,-1201 138,-1201 138,-1201 300,-1201 300,-1201 306,-1201 312,-1207 312,-1213 312,-1213 312,-1230 312,-1230 312,-1236 306,-1242 300,-1242"/>
<text text-anchor="middle" x="219" y="-1230" font-family="Helvetica,sans-Serif" font-size="10.00" fill="#ece1d7">sidecar SQL on source</text>
<text text-anchor="middle" x="219" y="-1219" font-family="Helvetica,sans-Serif" font-size="10.00" fill="#ece1d7">SELECT oid, relfilenode</text>
<text text-anchor="middle" x="219" y="-1208" font-family="Helvetica,sans-Serif" font-size="10.00" fill="#ece1d7">FROM pg_class WHERE oid≥16384</text>
</g>
<!-- map1&#45;&gt;sql1 -->
<g id="edge2" class="edge">
<title>map1&#45;&gt;sql1</title>
<path fill="none" stroke="#cba85e" d="M219,-1300.58C219,-1285.35 219,-1265.98 219,-1250.34"/>
<polygon fill="#cba85e" stroke="#cba85e" points="219,-1308.91 215.4,-1300.91 219,-1304.91 219,-1300.91 219,-1300.91 219,-1300.91 219,-1304.91 222.6,-1300.91 219,-1308.91 219,-1308.91"/>
<polygon fill="#cba85e" stroke="#cba85e" points="221.8,-1250.09 219,-1242.09 216.2,-1250.09 221.8,-1250.09"/>
<text text-anchor="middle" x="230.5" y="-1283.8" font-family="Helvetica,sans-Serif" font-size="9.00" fill="#ece1d7">libpq</text>
</g>
<!-- bs2 -->
<g id="node4" class="node">
<title>bs2</title>
<path fill="#4d3a28" stroke="#6e6963" d="M617.5,-1242C617.5,-1242 522.5,-1242 522.5,-1242 516.5,-1242 510.5,-1236 510.5,-1230 510.5,-1230 510.5,-1213 510.5,-1213 510.5,-1207 516.5,-1201 522.5,-1201 522.5,-1201 617.5,-1201 617.5,-1201 623.5,-1201 629.5,-1207 629.5,-1213 629.5,-1213 629.5,-1230 629.5,-1230 629.5,-1236 623.5,-1242 617.5,-1242"/>
<text text-anchor="middle" x="570" y="-1230" font-family="Helvetica,sans-Serif" font-size="10.00" fill="#ece1d7">BackupSource</text>
<text text-anchor="middle" x="570" y="-1219" font-family="Helvetica,sans-Serif" font-size="10.00" fill="#ece1d7">(Direct | ObjectStore)</text>
<text text-anchor="middle" x="570" y="-1208" font-family="Helvetica,sans-Serif" font-size="10.00" fill="#ece1d7">begin pump</text>
</g>
<!-- map1&#45;&gt;bs2 -->
<g id="edge7" class="edge">
<title>map1&#45;&gt;bs2</title>
<path fill="none" stroke="#a1a9cc" d="M276.96,-1308.91C308.61,-1299.58 349.69,-1287.46 391.02,-1275.28"/>
<polygon fill="#a1a9cc" stroke="#a1a9cc" points="391.86,-1277.95 398.74,-1273 390.28,-1272.58 391.86,-1277.95"/>
<text text-anchor="middle" x="408.5" y="-1283.8" font-family="Helvetica,sans-Serif" font-size="9.00" fill="#ece1d7">open BASE_BACKUP</text>
</g>
<!-- src2 -->
<g id="node5" class="node">
<title>src2</title>
<path fill="#3d3d54" stroke="#6e6963" d="M446,-1136.5C446,-1136.5 348,-1136.5 348,-1136.5 342,-1136.5 336,-1130.5 336,-1124.5 336,-1124.5 336,-1107.5 336,-1107.5 336,-1101.5 342,-1095.5 348,-1095.5 348,-1095.5 446,-1095.5 446,-1095.5 452,-1095.5 458,-1101.5 458,-1107.5 458,-1107.5 458,-1124.5 458,-1124.5 458,-1130.5 452,-1136.5 446,-1136.5"/>
<text text-anchor="middle" x="397" y="-1124.5" font-family="Helvetica,sans-Serif" font-size="10.00" fill="#ece1d7">BASE_BACKUP open</text>
<text text-anchor="middle" x="397" y="-1113.5" font-family="Helvetica,sans-Serif" font-size="10.00" fill="#ece1d7">pg_export_snapshot()</text>
<text text-anchor="middle" x="397" y="-1102.5" font-family="Helvetica,sans-Serif" font-size="10.00" fill="#ece1d7">start_lsn = X</text>
</g>
<!-- bs2&#45;&gt;src2 -->
<g id="edge3" class="edge">
<title>bs2&#45;&gt;src2</title>
<path fill="none" stroke="#a1a9cc" d="M504.88,-1197.66C494.95,-1193.29 485.02,-1188.38 476,-1183 456.79,-1171.55 437.49,-1155.52 422.77,-1142.13"/>
<polygon fill="#a1a9cc" stroke="#a1a9cc" points="512.45,-1200.89 503.68,-1201.06 508.77,-1199.32 505.09,-1197.75 505.09,-1197.75 505.09,-1197.75 508.77,-1199.32 506.51,-1194.44 512.45,-1200.89 512.45,-1200.89"/>
<polygon fill="#a1a9cc" stroke="#a1a9cc" points="424.53,-1139.95 416.76,-1136.57 420.73,-1144.06 424.53,-1139.95"/>
<text text-anchor="middle" x="520" y="-1175.8" font-family="Helvetica,sans-Serif" font-size="9.00" fill="#ece1d7">replication protocol</text>
</g>
<!-- lan2 -->
<g id="node6" class="node">
<title>lan2</title>
<path fill="#4d3a28" stroke="#6e6963" d="M815.5,-1136.5C815.5,-1136.5 694.5,-1136.5 694.5,-1136.5 688.5,-1136.5 682.5,-1130.5 682.5,-1124.5 682.5,-1124.5 682.5,-1107.5 682.5,-1107.5 682.5,-1101.5 688.5,-1095.5 694.5,-1095.5 694.5,-1095.5 815.5,-1095.5 815.5,-1095.5 821.5,-1095.5 827.5,-1101.5 827.5,-1107.5 827.5,-1107.5 827.5,-1124.5 827.5,-1124.5 827.5,-1130.5 821.5,-1136.5 815.5,-1136.5"/>
<text text-anchor="middle" x="755" y="-1124.5" font-family="Helvetica,sans-Serif" font-size="10.00" fill="#ece1d7">DiskLanderSink</text>
<text text-anchor="middle" x="755" y="-1113.5" font-family="Helvetica,sans-Serif" font-size="10.00" fill="#ece1d7">catalog → shadow data dir</text>
<text text-anchor="middle" x="755" y="-1102.5" font-family="Helvetica,sans-Serif" font-size="10.00" fill="#ece1d7">user&#45;heap filenode Skip</text>
</g>
<!-- bs2&#45;&gt;lan2 -->
<g id="edge4" class="edge">
<title>bs2&#45;&gt;lan2</title>
<path fill="none" stroke="#c1a78e" d="M605.67,-1200.79C624.77,-1190.21 648.69,-1176.93 670,-1165 684.1,-1157.1 699.5,-1148.43 713.26,-1140.65"/>
<polygon fill="#c1a78e" stroke="#c1a78e" points="714.71,-1143.05 720.29,-1136.68 711.95,-1138.17 714.71,-1143.05"/>
<text text-anchor="middle" x="683.5" y="-1175.8" font-family="Helvetica,sans-Serif" font-size="9.00" fill="#ece1d7">MultiplexSink</text>
</g>
<!-- walk2 -->
<g id="node7" class="node">
<title>walk2</title>
<path fill="#4d3a28" stroke="#6e6963" d="M645,-1142C645,-1142 495,-1142 495,-1142 489,-1142 483,-1136 483,-1130 483,-1130 483,-1102 483,-1102 483,-1096 489,-1090 495,-1090 495,-1090 645,-1090 645,-1090 651,-1090 657,-1096 657,-1102 657,-1102 657,-1130 657,-1130 657,-1136 651,-1142 645,-1142"/>
<text text-anchor="middle" x="570" y="-1130" font-family="Helvetica,sans-Serif" font-size="10.00" fill="#ece1d7">PageWalkSink</text>
<text text-anchor="middle" x="570" y="-1119" font-family="Helvetica,sans-Serif" font-size="10.00" fill="#ece1d7">decode 8 KiB heap pages</text>
<text text-anchor="middle" x="570" y="-1108" font-family="Helvetica,sans-Serif" font-size="10.00" fill="#ece1d7">main + pg_toast tuples with TID</text>
<text text-anchor="middle" x="570" y="-1097" font-family="Helvetica,sans-Serif" font-size="10.00" fill="#ece1d7">→ BackfillTuple (mpsc)</text>
</g>
<!-- bs2&#45;&gt;walk2 -->
<g id="edge5" class="edge">
<title>bs2&#45;&gt;walk2</title>
<path fill="none" stroke="#c1a78e" d="M570,-1200.54C570,-1186.34 570,-1166.91 570,-1150.37"/>
<polygon fill="#c1a78e" stroke="#c1a78e" points="572.8,-1150.02 570,-1142.02 567.2,-1150.02 572.8,-1150.02"/>
<text text-anchor="middle" x="600.5" y="-1175.8" font-family="Helvetica,sans-Serif" font-size="9.00" fill="#ece1d7">MultiplexSink</text>
</g>
<!-- end4 -->
<g id="node11" class="node">
<title>end4</title>
<path fill="#3d3d54" stroke="#6e6963" d="M950,-1134C950,-1134 866,-1134 866,-1134 860,-1134 854,-1128 854,-1122 854,-1122 854,-1110 854,-1110 854,-1104 860,-1098 866,-1098 866,-1098 950,-1098 950,-1098 956,-1098 962,-1104 962,-1110 962,-1110 962,-1122 962,-1122 962,-1128 956,-1134 950,-1134"/>
<text text-anchor="middle" x="908" y="-1119" font-family="Helvetica,sans-Serif" font-size="10.00" fill="#ece1d7">BASE_BACKUP end</text>
<text text-anchor="middle" x="908" y="-1108" font-family="Helvetica,sans-Serif" font-size="10.00" fill="#ece1d7">end_lsn = Y</text>
</g>
<!-- bs2&#45;&gt;end4 -->
<g id="edge17" class="edge">
<title>bs2&#45;&gt;end4</title>
<path fill="none" stroke="#a1a9cc" d="M629.51,-1215.71C684.15,-1209.69 766.7,-1196.48 836.44,-1167.34"/>
<polygon fill="#a1a9cc" stroke="#a1a9cc" points="837.76,-1169.82 844,-1164.09 835.55,-1164.68 837.76,-1169.82"/>
<text text-anchor="middle" x="833.5" y="-1175.8" font-family="Helvetica,sans-Serif" font-size="9.00" fill="#ece1d7">finish</text>
</g>
<!-- dsk2 -->
<g id="node8" class="node">
<title>dsk2</title>
<polygon fill="#4d3850" stroke="#6e6963" points="805,-989.5 699,-989.5 699,-953.5 811,-953.5 811,-983.5 805,-989.5"/>
<polyline fill="none" stroke="#6e6963" points="805,-989.5 805,-983.5 "/>
<polyline fill="none" stroke="#6e6963" points="811,-983.5 805,-983.5 "/>
<text text-anchor="middle" x="755" y="-974.5" font-family="Helvetica,sans-Serif" font-size="10.00" fill="#ece1d7">shadow data dir</text>
<text text-anchor="middle" x="755" y="-963.5" font-family="Helvetica,sans-Serif" font-size="10.00" fill="#ece1d7">catalog files landed</text>
</g>
<!-- lan2&#45;&gt;dsk2 -->
<g id="edge6" class="edge">
<title>lan2&#45;&gt;dsk2</title>
<path fill="none" stroke="#c1a78e" d="M755,-1095.48C755,-1070.06 755,-1025.58 755,-997.65"/>
<polygon fill="#c1a78e" stroke="#c1a78e" points="757.8,-997.56 755,-989.56 752.2,-997.56 757.8,-997.56"/>
<text text-anchor="middle" x="773.5" y="-1054.8" font-family="Helvetica,sans-Serif" font-size="9.00" fill="#ece1d7">land file</text>
</g>
<!-- drain3 -->
<g id="node9" class="node">
<title>drain3</title>
<path fill="#4d3a28" stroke="#6e6963" d="M296,-1003C296,-1003 130,-1003 130,-1003 124,-1003 118,-997 118,-991 118,-991 118,-952 118,-952 118,-946 124,-940 130,-940 130,-940 296,-940 296,-940 302,-940 308,-946 308,-952 308,-952 308,-991 308,-991 308,-997 302,-1003 296,-1003"/>
<text text-anchor="middle" x="213" y="-991" font-family="Helvetica,sans-Serif" font-size="10.00" fill="#ece1d7">pipeline::bootstrap::drain</text>
<text text-anchor="middle" x="213" y="-980" font-family="Helvetica,sans-Serif" font-size="10.00" fill="#ece1d7">ToastRows → mirror batch</text>
<text text-anchor="middle" x="213" y="-969" font-family="Helvetica,sans-Serif" font-size="10.00" fill="#ece1d7">ExternalToast → deferred</text>
<text text-anchor="middle" x="213" y="-958" font-family="Helvetica,sans-Serif" font-size="10.00" fill="#ece1d7">flush chunks, fetch + resolve</text>
<text text-anchor="middle" x="213" y="-947" font-family="Helvetica,sans-Serif" font-size="10.00" fill="#ece1d7">map main rows; one seq per rfn flip</text>
</g>
<!-- walk2&#45;&gt;drain3 -->
<g id="edge9" class="edge">
<title>walk2&#45;&gt;drain3</title>
<path fill="none" stroke="#c1a78e" d="M482.93,-1091.17C436.91,-1077.49 379.68,-1058.76 327.64,-1036.43"/>
<polygon fill="#c1a78e" stroke="#c1a78e" points="328.45,-1033.73 320,-1033.11 326.22,-1038.87 328.45,-1033.73"/>
<text text-anchor="middle" x="465" y="-1064.8" font-family="Helvetica,sans-Serif" font-size="9.00" fill="#ece1d7">BackfillTuple</text>
<text text-anchor="middle" x="465" y="-1054.8" font-family="Helvetica,sans-Serif" font-size="9.00" fill="#ece1d7">(bounded mpsc 256,</text>
<text text-anchor="middle" x="465" y="-1044.8" font-family="Helvetica,sans-Serif" font-size="9.00" fill="#ece1d7">backpressures pump)</text>
</g>
<!-- ch3 -->
<g id="node10" class="node">
<title>ch3</title>
<path fill="#4d4128" stroke="#6e6963" d="M299.5,-894C299.5,-894 108.5,-894 108.5,-894 102.5,-894 96.5,-888 96.5,-882 96.5,-882 96.5,-843 96.5,-843 96.5,-837 102.5,-831 108.5,-831 108.5,-831 299.5,-831 299.5,-831 305.5,-831 311.5,-837 311.5,-843 311.5,-843 311.5,-882 311.5,-882 311.5,-888 305.5,-894 299.5,-894"/>
<text text-anchor="middle" x="204" y="-882" font-family="Helvetica,sans-Serif" font-size="10.00" fill="#ece1d7">ClickHouse</text>
<text text-anchor="middle" x="204" y="-871" font-family="Helvetica,sans-Serif" font-size="10.00" fill="#ece1d7">TOAST mirrors: put before deferred fetch</text>
<text text-anchor="middle" x="204" y="-860" font-family="Helvetica,sans-Serif" font-size="10.00" fill="#ece1d7">main tables: shared insert tail</text>
<text text-anchor="middle" x="204" y="-849" font-family="Helvetica,sans-Serif" font-size="10.00" fill="#ece1d7">batcher + inserter ×N + ack collector</text>
<text text-anchor="middle" x="204" y="-838" font-family="Helvetica,sans-Serif" font-size="10.00" fill="#ece1d7">tail.finish → all seqs durable</text>
</g>
<!-- drain3&#45;&gt;ch3 -->
<g id="edge8" class="edge">
<title>drain3&#45;&gt;ch3</title>
<path fill="none" stroke="#bf8c5f" d="M210.42,-939.84C209.44,-928.2 208.31,-914.78 207.28,-902.47"/>
<polygon fill="#bf8c5f" stroke="#bf8c5f" points="210.04,-901.9 206.58,-894.17 204.46,-902.37 210.04,-901.9"/>
<text text-anchor="middle" x="248.5" y="-914.8" font-family="Helvetica,sans-Serif" font-size="9.00" fill="#ece1d7">BatcherMsg::Row</text>
</g>
<!-- out4 -->
<g id="node12" class="node">
<title>out4</title>
<path fill="#4d3a28" stroke="#6e6963" d="M957,-989.5C957,-989.5 867,-989.5 867,-989.5 861,-989.5 855,-983.5 855,-977.5 855,-977.5 855,-965.5 855,-965.5 855,-959.5 861,-953.5 867,-953.5 867,-953.5 957,-953.5 957,-953.5 963,-953.5 969,-959.5 969,-965.5 969,-965.5 969,-977.5 969,-977.5 969,-983.5 963,-989.5 957,-989.5"/>
<text text-anchor="middle" x="912" y="-974.5" font-family="Helvetica,sans-Serif" font-size="10.00" fill="#ece1d7">BootstrapOutcome</text>
<text text-anchor="middle" x="912" y="-963.5" font-family="Helvetica,sans-Serif" font-size="10.00" fill="#ece1d7">{start_lsn, end_lsn}</text>
</g>
<!-- end4&#45;&gt;out4 -->
<g id="edge10" class="edge">
<title>end4&#45;&gt;out4</title>
<path fill="none" stroke="#a1a9cc" d="M908.72,-1089.47C909.53,-1060.67 910.82,-1014.61 911.52,-989.75"/>
<polygon fill="#a1a9cc" stroke="#a1a9cc" points="905.91,-1089.74 908.48,-1097.81 911.51,-1089.89 905.91,-1089.74"/>
<text text-anchor="middle" x="927.5" y="-1054.8" font-family="Helvetica,sans-Serif" font-size="9.00" fill="#ece1d7">end_lsn</text>
</g>
<!-- ctrl4 -->
<g id="node13" class="node">
<title>ctrl4</title>
<polygon fill="#4d3850" stroke="#6e6963" points="971.5,-880.5 852.5,-880.5 852.5,-844.5 977.5,-844.5 977.5,-874.5 971.5,-880.5"/>
<polyline fill="none" stroke="#6e6963" points="971.5,-880.5 971.5,-874.5 "/>
<polyline fill="none" stroke="#6e6963" points="977.5,-874.5 971.5,-874.5 "/>
<text text-anchor="middle" x="915" y="-865.5" font-family="Helvetica,sans-Serif" font-size="10.00" fill="#ece1d7">pg_control landed last</text>
<text text-anchor="middle" x="915" y="-854.5" font-family="Helvetica,sans-Serif" font-size="10.00" fill="#ece1d7">(barrier)</text>
</g>
<!-- out4&#45;&gt;ctrl4 -->
<!-- conf4 -->
<g id="node14" class="node">
<title>conf4</title>
<path fill="#4d3a28" stroke="#6e6963" d="M1175.5,-888.5C1175.5,-888.5 1014.5,-888.5 1014.5,-888.5 1008.5,-888.5 1002.5,-882.5 1002.5,-876.5 1002.5,-876.5 1002.5,-848.5 1002.5,-848.5 1002.5,-842.5 1008.5,-836.5 1014.5,-836.5 1014.5,-836.5 1175.5,-836.5 1175.5,-836.5 1181.5,-836.5 1187.5,-842.5 1187.5,-848.5 1187.5,-848.5 1187.5,-876.5 1187.5,-876.5 1187.5,-882.5 1181.5,-888.5 1175.5,-888.5"/>
<text text-anchor="middle" x="1095" y="-876.5" font-family="Helvetica,sans-Serif" font-size="10.00" fill="#ece1d7">Shadow::enable_standby_recovery</text>
<text text-anchor="middle" x="1095" y="-865.5" font-family="Helvetica,sans-Serif" font-size="10.00" fill="#ece1d7">append standby.signal +</text>
<text text-anchor="middle" x="1095" y="-854.5" font-family="Helvetica,sans-Serif" font-size="10.00" fill="#ece1d7">restore_command +</text>
<text text-anchor="middle" x="1095" y="-843.5" font-family="Helvetica,sans-Serif" font-size="10.00" fill="#ece1d7">primary_conninfo</text>
</g>
<!-- out4&#45;&gt;conf4 -->
<g id="edge12" class="edge">
<title>out4&#45;&gt;conf4</title>
<path fill="none" stroke="#c1a78e" d="M941.4,-953.31C969.32,-936.98 1011.85,-912.12 1045.08,-892.69"/>
<polygon fill="#c1a78e" stroke="#c1a78e" points="1046.53,-895.08 1052.02,-888.63 1043.7,-890.25 1046.53,-895.08"/>
</g>
<!-- cur5 -->
<g id="node19" class="node">
<title>cur5</title>
<path fill="#4d3a28" stroke="#6e6963" d="M878,-518C878,-518 756,-518 756,-518 750,-518 744,-512 744,-506 744,-506 744,-494 744,-494 744,-488 750,-482 756,-482 756,-482 878,-482 878,-482 884,-482 890,-488 890,-494 890,-494 890,-506 890,-506 890,-512 884,-518 878,-518"/>
<text text-anchor="middle" x="817" y="-503" font-family="Helvetica,sans-Serif" font-size="10.00" fill="#ece1d7">cursor::write</text>
<text text-anchor="middle" x="817" y="-492" font-family="Helvetica,sans-Serif" font-size="10.00" fill="#ece1d7">emitter_ack_lsn = end_lsn</text>
</g>
<!-- out4&#45;&gt;cur5 -->
<g id="edge22" class="edge">
<title>out4&#45;&gt;cur5</title>
<path fill="none" stroke="#c1a78e" d="M880.72,-953.48C852.04,-935.33 814,-903.68 814,-863.5 814,-863.5 814,-863.5 814,-602 814,-587.41 814.32,-571.64 814.74,-557"/>
<polygon fill="#c1a78e" stroke="#c1a78e" points="817.54,-557.08 814.99,-549 811.95,-556.91 817.54,-557.08"/>
<text text-anchor="middle" x="839.5" y="-723.8" font-family="Helvetica,sans-Serif" font-size="9.00" fill="#ece1d7">next phase</text>
</g>
<!-- files4 -->
<g id="node15" class="node">
<title>files4</title>
<polygon fill="#4d3850" stroke="#6e6963" points="985.5,-785 888.5,-785 888.5,-749 991.5,-749 991.5,-779 985.5,-785"/>
<polyline fill="none" stroke="#6e6963" points="985.5,-785 985.5,-779 "/>
<polyline fill="none" stroke="#6e6963" points="991.5,-779 985.5,-779 "/>
<text text-anchor="middle" x="940" y="-770" font-family="Helvetica,sans-Serif" font-size="10.00" fill="#ece1d7">postgresql.conf +</text>
<text text-anchor="middle" x="940" y="-759" font-family="Helvetica,sans-Serif" font-size="10.00" fill="#ece1d7">standby.signal</text>
</g>
<!-- conf4&#45;&gt;files4 -->
<g id="edge13" class="edge">
<title>conf4&#45;&gt;files4</title>
<path fill="none" stroke="#c1a78e" d="M1053.46,-836.44C1029.08,-821.74 998.6,-803.35 975.37,-789.34"/>
<polygon fill="#c1a78e" stroke="#c1a78e" points="976.71,-786.87 968.41,-785.14 973.82,-791.67 976.71,-786.87"/>
<text text-anchor="middle" x="1023.5" y="-805.8" font-family="Helvetica,sans-Serif" font-size="9.00" fill="#ece1d7">write</text>
</g>
<!-- listen4 -->
<g id="node16" class="node">
<title>listen4</title>
<path fill="#4d3a28" stroke="#6e6963" d="M1161.5,-785C1161.5,-785 1028.5,-785 1028.5,-785 1022.5,-785 1016.5,-779 1016.5,-773 1016.5,-773 1016.5,-761 1016.5,-761 1016.5,-755 1022.5,-749 1028.5,-749 1028.5,-749 1161.5,-749 1161.5,-749 1167.5,-749 1173.5,-755 1173.5,-761 1173.5,-761 1173.5,-773 1173.5,-773 1173.5,-779 1167.5,-785 1161.5,-785"/>
<text text-anchor="middle" x="1095" y="-770" font-family="Helvetica,sans-Serif" font-size="10.00" fill="#ece1d7">walsender listener up</text>
<text text-anchor="middle" x="1095" y="-759" font-family="Helvetica,sans-Serif" font-size="10.00" fill="#ece1d7">(barrier before shadow start)</text>
</g>
<!-- conf4&#45;&gt;listen4 -->
<g id="edge14" class="edge">
<title>conf4&#45;&gt;listen4</title>
<path fill="none" stroke="#c1a78e" d="M1095,-836.44C1095,-823.13 1095,-806.8 1095,-793.44"/>
<polygon fill="#c1a78e" stroke="#c1a78e" points="1097.8,-793.14 1095,-785.14 1092.2,-793.14 1097.8,-793.14"/>
</g>
<!-- start4 -->
<g id="node17" class="node">
<title>start4</title>
<path fill="#4d3a28" stroke="#6e6963" d="M1158.5,-703C1158.5,-703 1015.5,-703 1015.5,-703 1009.5,-703 1003.5,-697 1003.5,-691 1003.5,-691 1003.5,-679 1003.5,-679 1003.5,-673 1009.5,-667 1015.5,-667 1015.5,-667 1158.5,-667 1158.5,-667 1164.5,-667 1170.5,-673 1170.5,-679 1170.5,-679 1170.5,-691 1170.5,-691 1170.5,-697 1164.5,-703 1158.5,-703"/>
<text text-anchor="middle" x="1087" y="-688" font-family="Helvetica,sans-Serif" font-size="10.00" fill="#ece1d7">Shadow::start (recovery mode)</text>
<text text-anchor="middle" x="1087" y="-677" font-family="Helvetica,sans-Serif" font-size="10.00" fill="#ece1d7">block_in_place pg_ctl</text>
</g>
<!-- listen4&#45;&gt;start4 -->
<g id="edge15" class="edge">
<title>listen4&#45;&gt;start4</title>
<path fill="none" stroke="#c1a78e" d="M1093.26,-748.64C1092.17,-737.66 1090.73,-723.29 1089.51,-711.09"/>
<polygon fill="#c1a78e" stroke="#c1a78e" points="1092.29,-710.73 1088.71,-703.05 1086.72,-711.29 1092.29,-710.73"/>
<text text-anchor="middle" x="1106.5" y="-723.8" font-family="Helvetica,sans-Serif" font-size="9.00" fill="#ece1d7">barrier</text>
</g>
<!-- shd4 -->
<g id="node18" class="node">
<title>shd4</title>
<path fill="#3d4128" stroke="#6e6963" d="M1089.5,-621C1089.5,-621 970.5,-621 970.5,-621 964.5,-621 958.5,-615 958.5,-609 958.5,-609 958.5,-597 958.5,-597 958.5,-591 964.5,-585 970.5,-585 970.5,-585 1089.5,-585 1089.5,-585 1095.5,-585 1101.5,-591 1101.5,-597 1101.5,-597 1101.5,-609 1101.5,-609 1101.5,-615 1095.5,-621 1089.5,-621"/>
<text text-anchor="middle" x="1030" y="-606" font-family="Helvetica,sans-Serif" font-size="10.00" fill="#ece1d7">postmaster + walreceiver</text>
<text text-anchor="middle" x="1030" y="-595" font-family="Helvetica,sans-Serif" font-size="10.00" fill="#ece1d7">begin replay</text>
</g>
<!-- start4&#45;&gt;shd4 -->
<g id="edge16" class="edge">
<title>start4&#45;&gt;shd4</title>
<path fill="none" stroke="#c1a78e" d="M1074.63,-666.64C1066.51,-655.24 1055.78,-640.18 1046.88,-627.69"/>
<polygon fill="#c1a78e" stroke="#c1a78e" points="1049.07,-625.94 1042.15,-621.05 1044.51,-629.19 1049.07,-625.94"/>
<text text-anchor="middle" x="1087" y="-641.8" font-family="Helvetica,sans-Serif" font-size="9.00" fill="#ece1d7">pg_ctl start</text>
</g>
<!-- apply5 -->
<g id="node23" class="node">
<title>apply5</title>
<path fill="#3d4128" stroke="#6e6963" d="M1085,-518C1085,-518 927,-518 927,-518 921,-518 915,-512 915,-506 915,-506 915,-494 915,-494 915,-488 921,-482 927,-482 927,-482 1085,-482 1085,-482 1091,-482 1097,-488 1097,-494 1097,-494 1097,-506 1097,-506 1097,-512 1091,-518 1085,-518"/>
<text text-anchor="middle" x="1006" y="-503" font-family="Helvetica,sans-Serif" font-size="10.00" fill="#ece1d7">pg_last_wal_replay_lsn ≥ end_lsn</text>
<text text-anchor="middle" x="1006" y="-492" font-family="Helvetica,sans-Serif" font-size="10.00" fill="#ece1d7">ready for relation_at gate</text>
</g>
<!-- shd4&#45;&gt;apply5 -->
<g id="edge23" class="edge">
<title>shd4&#45;&gt;apply5</title>
<path fill="none" stroke="#869461" stroke-dasharray="5,2" d="M1025.93,-584.87C1022.1,-568.76 1016.33,-544.46 1011.98,-526.15"/>
<polygon fill="#869461" stroke="#869461" points="1014.66,-525.35 1010.09,-518.22 1009.22,-526.65 1014.66,-525.35"/>
<text text-anchor="middle" x="1062" y="-559.8" font-family="Helvetica,sans-Serif" font-size="9.00" fill="#ece1d7">replay catches up</text>
</g>
<!-- curd5 -->
<g id="node20" class="node">
<title>curd5</title>
<polygon fill="#4d3850" stroke="#6e6963" points="870.5,-433.5 745.5,-433.5 745.5,-397.5 876.5,-397.5 876.5,-427.5 870.5,-433.5"/>
<polyline fill="none" stroke="#6e6963" points="870.5,-433.5 870.5,-427.5 "/>
<polyline fill="none" stroke="#6e6963" points="876.5,-427.5 870.5,-427.5 "/>
<text text-anchor="middle" x="811" y="-418.5" font-family="Helvetica,sans-Serif" font-size="10.00" fill="#ece1d7">cursor.bin</text>
<text text-anchor="middle" x="811" y="-407.5" font-family="Helvetica,sans-Serif" font-size="10.00" fill="#ece1d7">atomic rename + fsync</text>
</g>
<!-- cur5&#45;&gt;curd5 -->
<g id="edge18" class="edge">
<title>cur5&#45;&gt;curd5</title>
<path fill="none" stroke="#c1a78e" d="M815.76,-481.91C814.91,-470.29 813.78,-454.73 812.83,-441.7"/>
<polygon fill="#c1a78e" stroke="#c1a78e" points="815.61,-441.35 812.24,-433.57 810.03,-441.75 815.61,-441.35"/>
<text text-anchor="middle" x="826.5" y="-456.8" font-family="Helvetica,sans-Serif" font-size="9.00" fill="#ece1d7">fsync</text>
</g>
<!-- feed5 -->
<g id="node21" class="node">
<title>feed5</title>
<path fill="#4d3a28" stroke="#6e6963" d="M1010.5,-436C1010.5,-436 913.5,-436 913.5,-436 907.5,-436 901.5,-430 901.5,-424 901.5,-424 901.5,-407 901.5,-407 901.5,-401 907.5,-395 913.5,-395 913.5,-395 1010.5,-395 1010.5,-395 1016.5,-395 1022.5,-401 1022.5,-407 1022.5,-407 1022.5,-424 1022.5,-424 1022.5,-430 1016.5,-436 1010.5,-436"/>
<text text-anchor="middle" x="962" y="-424" font-family="Helvetica,sans-Serif" font-size="10.00" fill="#ece1d7">SourceFeed open</text>
<text text-anchor="middle" x="962" y="-413" font-family="Helvetica,sans-Serif" font-size="10.00" fill="#ece1d7">START_REPLICATION</text>
<text text-anchor="middle" x="962" y="-402" font-family="Helvetica,sans-Serif" font-size="10.00" fill="#ece1d7">PHYSICAL &lt;end_lsn&gt;</text>
</g>
<!-- cur5&#45;&gt;feed5 -->
<g id="edge19" class="edge">
<title>cur5&#45;&gt;feed5</title>
<path fill="none" stroke="#c1a78e" d="M847.04,-481.91C868.32,-469.8 897.12,-453.41 920.58,-440.07"/>
<polygon fill="#c1a78e" stroke="#c1a78e" points="922.1,-442.42 927.67,-436.03 919.33,-437.56 922.1,-442.42"/>
</g>
<!-- repl5 -->
<g id="node22" class="node">
<title>repl5</title>
<path fill="#3d3d54" stroke="#6e6963" d="M865.5,-341C865.5,-341 780.5,-341 780.5,-341 774.5,-341 768.5,-335 768.5,-329 768.5,-329 768.5,-317 768.5,-317 768.5,-311 774.5,-305 780.5,-305 780.5,-305 865.5,-305 865.5,-305 871.5,-305 877.5,-311 877.5,-317 877.5,-317 877.5,-329 877.5,-329 877.5,-335 871.5,-341 865.5,-341"/>
<text text-anchor="middle" x="823" y="-326" font-family="Helvetica,sans-Serif" font-size="10.00" fill="#ece1d7">streaming protocol</text>
<text text-anchor="middle" x="823" y="-315" font-family="Helvetica,sans-Serif" font-size="10.00" fill="#ece1d7">opens at end_lsn</text>
</g>
<!-- feed5&#45;&gt;repl5 -->
<g id="edge20" class="edge">
<title>feed5&#45;&gt;repl5</title>
<path fill="none" stroke="#a1a9cc" d="M901.17,-391.41C892.43,-387.12 883.78,-382.3 876,-377 863.89,-368.75 852.18,-357.5 842.86,-347.48"/>
<polygon fill="#a1a9cc" stroke="#a1a9cc" points="908.51,-394.88 899.73,-394.71 904.89,-393.17 901.27,-391.46 901.27,-391.46 901.27,-391.46 904.89,-393.17 902.81,-388.21 908.51,-394.88 908.51,-394.88"/>
<polygon fill="#a1a9cc" stroke="#a1a9cc" points="844.83,-345.49 837.38,-341.45 840.68,-349.25 844.83,-345.49"/>
<text text-anchor="middle" x="921.5" y="-369.8" font-family="Helvetica,sans-Serif" font-size="9.00" fill="#ece1d7">START_REPLICATION</text>
</g>
<!-- hot5 -->
<g id="node24" class="node">
<title>hot5</title>
<polygon fill="#4d3a28" stroke="#6e6963" points="1061,-343 903,-343 903,-303 1061,-303 1073,-323 1061,-343"/>
<text text-anchor="middle" x="988" y="-337" font-family="Helvetica,sans-Serif" font-size="10.00" fill="#ece1d7">hot streaming</text>
<text text-anchor="middle" x="988" y="-326" font-family="Helvetica,sans-Serif" font-size="10.00" fill="#ece1d7">(pipeline: reorder → decode ×M</text>
<text text-anchor="middle" x="988" y="-315" font-family="Helvetica,sans-Serif" font-size="10.00" fill="#ece1d7">→ same tail + DdlApplicator)</text>
<text text-anchor="middle" x="988" y="-304" font-family="Helvetica,sans-Serif" font-size="10.00" fill="#ece1d7">→ timeline_streaming</text>
</g>
<!-- feed5&#45;&gt;hot5 -->
<g id="edge21" class="edge">
<title>feed5&#45;&gt;hot5</title>
<path fill="none" stroke="#c1a78e" d="M967.64,-394.86C970.83,-383.76 974.91,-369.58 978.57,-356.83"/>
<polygon fill="#c1a78e" stroke="#c1a78e" points="981.27,-357.58 980.79,-349.11 975.88,-356.03 981.27,-357.58"/>
</g>
<!-- legend -->
<g id="node25" class="node">
<title>legend</title>
<path fill="#6e6963" stroke="transparent" d="M1072.5,-260C1072.5,-260 903.5,-260 903.5,-260 897.5,-260 891.5,-254 891.5,-248 891.5,-248 891.5,-12 891.5,-12 891.5,-6 897.5,0 903.5,0 903.5,0 1072.5,0 1072.5,0 1078.5,0 1084.5,-6 1084.5,-12 1084.5,-12 1084.5,-248 1084.5,-248 1084.5,-254 1078.5,-260 1072.5,-260"/>
<polygon fill="#34302c" stroke="transparent" points="900,-235 900,-256 1077,-256 1077,-235 900,-235"/>
<polygon fill="none" stroke="#6e6963" points="900,-235 900,-256 1077,-256 1077,-235 900,-235"/>
<text text-anchor="start" x="941.5" y="-244" font-family="Helvetica,sans-Serif" font-weight="bold" font-size="10.00" fill="#ece1d7">node fill — actor</text>
<polygon fill="#403a36" stroke="transparent" points="900,-214 900,-235 928,-235 928,-214 900,-214"/>
<polygon fill="none" stroke="#6e6963" points="900,-214 900,-235 928,-235 928,-214 900,-214"/>
<polygon fill="none" stroke="#6e6963" points="928,-214 928,-235 1077,-235 1077,-214 928,-214"/>
<text text-anchor="start" x="969.5" y="-222" font-family="Helvetica,sans-Serif" font-size="10.00" fill="#ece1d7">operator / CLI</text>
<polygon fill="#3d3d54" stroke="transparent" points="900,-193 900,-214 928,-214 928,-193 900,-193"/>
<polygon fill="none" stroke="#6e6963" points="900,-193 900,-214 928,-214 928,-193 900,-193"/>
<polygon fill="none" stroke="#6e6963" points="928,-193 928,-214 1077,-214 1077,-193 928,-193"/>
<text text-anchor="start" x="963.5" y="-201" font-family="Helvetica,sans-Serif" font-size="10.00" fill="#ece1d7">source Postgres</text>
<polygon fill="#4d3a28" stroke="transparent" points="900,-172 900,-193 928,-193 928,-172 900,-172"/>
<polygon fill="none" stroke="#6e6963" points="900,-172 900,-193 928,-193 928,-172 900,-172"/>
<polygon fill="none" stroke="#6e6963" points="928,-172 928,-193 1077,-193 1077,-172 928,-172"/>
<text text-anchor="start" x="955.5" y="-180" font-family="Helvetica,sans-Serif" font-size="10.00" fill="#ece1d7">walshadow&#45;stream</text>
<polygon fill="#4d3850" stroke="transparent" points="900,-151 900,-172 928,-172 928,-151 900,-151"/>
<polygon fill="none" stroke="#6e6963" points="900,-151 900,-172 928,-172 928,-151 900,-151"/>
<polygon fill="none" stroke="#6e6963" points="928,-151 928,-172 1077,-172 1077,-151 928,-151"/>
<text text-anchor="start" x="965" y="-159" font-family="Helvetica,sans-Serif" font-size="10.00" fill="#ece1d7">on&#45;disk artifact</text>
<polygon fill="#3d4128" stroke="transparent" points="900,-130 900,-151 928,-151 928,-130 900,-130"/>
<polygon fill="none" stroke="#6e6963" points="900,-130 900,-151 928,-151 928,-130 900,-130"/>
<polygon fill="none" stroke="#6e6963" points="928,-130 928,-151 1077,-151 1077,-130 928,-130"/>
<text text-anchor="start" x="961" y="-138" font-family="Helvetica,sans-Serif" font-size="10.00" fill="#ece1d7">shadow Postgres</text>
<polygon fill="#4d4128" stroke="transparent" points="900,-109 900,-130 928,-130 928,-109 900,-109"/>
<polygon fill="none" stroke="#6e6963" points="900,-109 900,-130 928,-130 928,-109 900,-109"/>
<polygon fill="none" stroke="#6e6963" points="928,-109 928,-130 1077,-130 1077,-109 928,-109"/>
<text text-anchor="start" x="975" y="-117" font-family="Helvetica,sans-Serif" font-size="10.00" fill="#ece1d7">ClickHouse</text>
<polygon fill="#34302c" stroke="transparent" points="900,-88 900,-109 1077,-109 1077,-88 900,-88"/>
<polygon fill="none" stroke="#6e6963" points="900,-88 900,-109 1077,-109 1077,-88 900,-88"/>
<text text-anchor="start" x="954.5" y="-97" font-family="Helvetica,sans-Serif" font-weight="bold" font-size="10.00" fill="#ece1d7">edge colour</text>
<polygon fill="none" stroke="#6e6963" points="900,-67 900,-88 928,-88 928,-67 900,-67"/>
<text text-anchor="start" x="907.5" y="-76" font-family="Helvetica,sans-Serif" font-weight="bold" font-size="10.00" fill="#a1a9cc">━━</text>
<polygon fill="none" stroke="#6e6963" points="928,-67 928,-88 1077,-88 1077,-67 928,-67"/>
<text text-anchor="start" x="933" y="-75" font-family="Helvetica,sans-Serif" font-size="10.00" fill="#ece1d7">physical replication protocol</text>
<polygon fill="none" stroke="#6e6963" points="900,-46 900,-67 928,-67 928,-46 900,-46"/>
<text text-anchor="start" x="907.5" y="-55" font-family="Helvetica,sans-Serif" font-weight="bold" font-size="10.00" fill="#cba85e">━━</text>
<polygon fill="none" stroke="#6e6963" points="928,-46 928,-67 1077,-67 1077,-46 928,-46"/>
<text text-anchor="start" x="955.5" y="-54" font-family="Helvetica,sans-Serif" font-size="10.00" fill="#ece1d7">libpq catalog query</text>
<polygon fill="none" stroke="#6e6963" points="900,-25 900,-46 928,-46 928,-25 900,-25"/>
<text text-anchor="start" x="907.5" y="-34" font-family="Helvetica,sans-Serif" font-weight="bold" font-size="10.00" fill="#bf8c5f">━━</text>
<polygon fill="none" stroke="#6e6963" points="928,-25 928,-46 1077,-46 1077,-25 928,-25"/>
<text text-anchor="start" x="940" y="-33" font-family="Helvetica,sans-Serif" font-size="10.00" fill="#ece1d7">ClickHouse Native blocks</text>
<polygon fill="none" stroke="#6e6963" points="900,-4 900,-25 928,-25 928,-4 900,-4"/>
<text text-anchor="start" x="907.5" y="-13" font-family="Helvetica,sans-Serif" font-weight="bold" font-size="10.00" fill="#869461">┄┄</text>
<polygon fill="none" stroke="#6e6963" points="928,-4 928,-25 1077,-25 1077,-4 928,-4"/>
<text text-anchor="start" x="944" y="-12" font-family="Helvetica,sans-Serif" font-size="10.00" fill="#ece1d7">shadow replay progress</text>
</g>
<!-- hot5&#45;&gt;legend -->
</g>
</svg>
