<?xml version="1.0" encoding="UTF-8" standalone="no"?>
<!DOCTYPE svg PUBLIC "-//W3C//DTD SVG 1.1//EN"
 "http://www.w3.org/Graphics/SVG/1.1/DTD/svg11.dtd">
<!-- Generated by graphviz version 14.1.5 (0)
 -->
<!-- Title: timeline_bootstrap Pages: 1 -->
<svg width="1172pt" height="1565pt"
 viewBox="0.00 0.00 1172.00 1565.00" xmlns="http://www.w3.org/2000/svg" xmlns:xlink="http://www.w3.org/1999/xlink">
<g id="graph0" class="graph" transform="scale(1 1) rotate(0) translate(4 1560.62)">
<title>timeline_bootstrap</title>
<polygon fill="#272623" stroke="none" points="-4,4 -4,-1560.62 1168,-1560.62 1168,4 -4,4"/>
<text xml:space="preserve" text-anchor="middle" x="582" y="-1539.33" font-family="Helvetica,sans-Serif" font-size="14.00" fill="#ece1d7">walshadow greenfield bootstrap — 5 phases</text>
<g id="clust1" class="cluster">
<title>cluster_p1</title>
<path fill="#34302c" stroke="#4c4641" d="M130,-1235.88C130,-1235.88 308,-1235.88 308,-1235.88 314,-1235.88 320,-1241.88 320,-1247.88 320,-1247.88 320,-1511.38 320,-1511.38 320,-1517.38 314,-1523.38 308,-1523.38 308,-1523.38 130,-1523.38 130,-1523.38 124,-1523.38 118,-1517.38 118,-1511.38 118,-1511.38 118,-1247.88 118,-1247.88 118,-1241.88 124,-1235.88 130,-1235.88"/>
<text xml:space="preserve" text-anchor="middle" x="219" y="-1506.08" font-family="Helvetica,sans-Serif" font-size="14.00" fill="#ece1d7">① catalog seed</text>
</g>
<g id="clust2" class="cluster">
<title>cluster_p2</title>
<path fill="#34302c" stroke="#4c4641" d="M340,-983.75C340,-983.75 787,-983.75 787,-983.75 793,-983.75 799,-989.75 799,-995.75 799,-995.75 799,-1311.38 799,-1311.38 799,-1317.38 793,-1323.38 787,-1323.38 787,-1323.38 340,-1323.38 340,-1323.38 334,-1323.38 328,-1317.38 328,-1311.38 328,-1311.38 328,-995.75 328,-995.75 328,-989.75 334,-983.75 340,-983.75"/>
<text xml:space="preserve" text-anchor="middle" x="563.5" y="-1306.08" font-family="Helvetica,sans-Serif" font-size="14.00" fill="#ece1d7">② BASE_BACKUP pump — MultiplexSink fan&#45;out</text>
</g>
<g id="clust3" class="cluster">
<title>cluster_p3</title>
<path fill="#34302c" stroke="#4c4641" d="M20,-866C20,-866 308,-866 308,-866 314,-866 320,-872 320,-878 320,-878 320,-1060.5 320,-1060.5 320,-1066.5 314,-1072.5 308,-1072.5 308,-1072.5 20,-1072.5 20,-1072.5 14,-1072.5 8,-1066.5 8,-1060.5 8,-1060.5 8,-878 8,-878 8,-872 14,-866 20,-866"/>
<text xml:space="preserve" text-anchor="middle" x="164" y="-1055.2" font-family="Helvetica,sans-Serif" font-size="14.00" fill="#ece1d7">③ drain → ClickHouse &#160;(concurrent with ②)</text>
</g>
<g id="clust4" class="cluster">
<title>cluster_p4</title>
<path fill="#34302c" stroke="#4c4641" d="M819,-616.25C819,-616.25 1144,-616.25 1144,-616.25 1150,-616.25 1156,-622.25 1156,-628.25 1156,-628.25 1156,-1194.62 1156,-1194.62 1156,-1200.62 1150,-1206.62 1144,-1206.62 1144,-1206.62 819,-1206.62 819,-1206.62 813,-1206.62 807,-1200.62 807,-1194.62 807,-1194.62 807,-628.25 807,-628.25 807,-622.25 813,-616.25 819,-616.25"/>
<text xml:space="preserve" text-anchor="middle" x="981.5" y="-1189.33" font-family="Helvetica,sans-Serif" font-size="14.00" fill="#ece1d7">④ shadow handoff</text>
</g>
<g id="clust5" class="cluster">
<title>cluster_p5</title>
<path fill="#34302c" stroke="#4c4641" d="M709,-310C709,-310 1053,-310 1053,-310 1059,-310 1065,-316 1065,-322 1065,-322 1065,-575 1065,-575 1065,-581 1059,-587 1053,-587 1053,-587 709,-587 709,-587 703,-587 697,-581 697,-575 697,-575 697,-322 697,-322 697,-316 703,-310 709,-310"/>
<text xml:space="preserve" text-anchor="middle" x="881" y="-569.7" font-family="Helvetica,sans-Serif" font-size="14.00" fill="#ece1d7">⑤ cursor + WAL pump start &#160;(→ steady&#45;state)</text>
</g>
<!-- op1 -->
<g id="node1" class="node">
<title>op1</title>
<path fill="#403a36" stroke="#6e6963" d="M275.75,-1490.12C275.75,-1490.12 162.25,-1490.12 162.25,-1490.12 156.25,-1490.12 150.25,-1484.12 150.25,-1478.12 150.25,-1478.12 150.25,-1455.88 150.25,-1455.88 150.25,-1449.88 156.25,-1443.88 162.25,-1443.88 162.25,-1443.88 275.75,-1443.88 275.75,-1443.88 281.75,-1443.88 287.75,-1449.88 287.75,-1455.88 287.75,-1455.88 287.75,-1478.12 287.75,-1478.12 287.75,-1484.12 281.75,-1490.12 275.75,-1490.12"/>
<text xml:space="preserve" text-anchor="middle" x="219" y="-1476.62" font-family="Helvetica,sans-Serif" font-size="10.00" fill="#ece1d7">walshadow&#45;stream</text>
<text xml:space="preserve" text-anchor="middle" x="219" y="-1463.88" font-family="Helvetica,sans-Serif" font-size="10.00" fill="#ece1d7">&#45;&#45;bootstrap&#45;mode=direct</text>
<text xml:space="preserve" text-anchor="middle" x="219" y="-1451.12" font-family="Helvetica,sans-Serif" font-size="10.00" fill="#ece1d7">&#45;&#45;ch&#45;config=…</text>
</g>
<!-- map1 -->
<g id="node3" class="node">
<title>map1</title>
<path fill="#4d3a28" stroke="#6e6963" d="M298.62,-1396.62C298.62,-1396.62 139.38,-1396.62 139.38,-1396.62 133.38,-1396.62 127.38,-1390.62 127.38,-1384.62 127.38,-1384.62 127.38,-1372.62 127.38,-1372.62 127.38,-1366.62 133.38,-1360.62 139.38,-1360.62 139.38,-1360.62 298.62,-1360.62 298.62,-1360.62 304.62,-1360.62 310.62,-1366.62 310.62,-1372.62 310.62,-1372.62 310.62,-1384.62 310.62,-1384.62 310.62,-1390.62 304.62,-1396.62 298.62,-1396.62"/>
<text xml:space="preserve" text-anchor="middle" x="219" y="-1381.88" font-family="Helvetica,sans-Serif" font-size="10.00" fill="#ece1d7">CatalogTracker::seed_from_source</text>
<text xml:space="preserve" text-anchor="middle" x="219" y="-1369.12" font-family="Helvetica,sans-Serif" font-size="10.00" fill="#ece1d7">builds CatalogMap</text>
</g>
<!-- op1&#45;&gt;map1 -->
<g id="edge1" class="edge">
<title>op1&#45;&gt;map1</title>
<path fill="none" stroke="#c1a78e" d="M219,-1443.76C219,-1432.35 219,-1418.38 219,-1406.39"/>
<polygon fill="#c1a78e" stroke="#c1a78e" points="221.8,-1406.4 219,-1398.4 216.2,-1406.4 221.8,-1406.4"/>
<text xml:space="preserve" text-anchor="middle" x="233.62" y="-1417.33" font-family="Helvetica,sans-Serif" font-size="9.00" fill="#ece1d7">spawn</text>
</g>
<!-- sql1 -->
<g id="node2" class="node">
<title>sql1</title>
<path fill="#3d3d54" stroke="#6e6963" d="M299.75,-1290.12C299.75,-1290.12 138.25,-1290.12 138.25,-1290.12 132.25,-1290.12 126.25,-1284.12 126.25,-1278.12 126.25,-1278.12 126.25,-1255.88 126.25,-1255.88 126.25,-1249.88 132.25,-1243.88 138.25,-1243.88 138.25,-1243.88 299.75,-1243.88 299.75,-1243.88 305.75,-1243.88 311.75,-1249.88 311.75,-1255.88 311.75,-1255.88 311.75,-1278.12 311.75,-1278.12 311.75,-1284.12 305.75,-1290.12 299.75,-1290.12"/>
<text xml:space="preserve" text-anchor="middle" x="219" y="-1276.62" font-family="Helvetica,sans-Serif" font-size="10.00" fill="#ece1d7">sidecar SQL on source</text>
<text xml:space="preserve" text-anchor="middle" x="219" y="-1263.88" font-family="Helvetica,sans-Serif" font-size="10.00" fill="#ece1d7">SELECT oid, relfilenode</text>
<text xml:space="preserve" text-anchor="middle" x="219" y="-1251.12" font-family="Helvetica,sans-Serif" font-size="10.00" fill="#ece1d7">FROM pg_class WHERE oid≥16384</text>
</g>
<!-- map1&#45;&gt;sql1 -->
<g id="edge2" class="edge">
<title>map1&#45;&gt;sql1</title>
<path fill="none" stroke="#cba85e" d="M219,-1351.38C219,-1335.8 219,-1315.96 219,-1299.53"/>
<polygon fill="#cba85e" stroke="#cba85e" points="219,-1359.28 215.4,-1351.28 219,-1356.5 219,-1351.28 219,-1351.28 219,-1351.28 219,-1356.5 222.6,-1351.28 219,-1359.28"/>
<polygon fill="#cba85e" stroke="#cba85e" points="221.8,-1299.83 219,-1291.83 216.2,-1299.83 221.8,-1299.83"/>
<text xml:space="preserve" text-anchor="middle" x="230.25" y="-1334.08" font-family="Helvetica,sans-Serif" font-size="9.00" fill="#ece1d7">libpq</text>
</g>
<!-- bs2 -->
<g id="node4" class="node">
<title>bs2</title>
<path fill="#4d3a28" stroke="#6e6963" d="M599.38,-1290.12C599.38,-1290.12 504.62,-1290.12 504.62,-1290.12 498.62,-1290.12 492.62,-1284.12 492.62,-1278.12 492.62,-1278.12 492.62,-1255.88 492.62,-1255.88 492.62,-1249.88 498.62,-1243.88 504.62,-1243.88 504.62,-1243.88 599.38,-1243.88 599.38,-1243.88 605.38,-1243.88 611.38,-1249.88 611.38,-1255.88 611.38,-1255.88 611.38,-1278.12 611.38,-1278.12 611.38,-1284.12 605.38,-1290.12 599.38,-1290.12"/>
<text xml:space="preserve" text-anchor="middle" x="552" y="-1276.62" font-family="Helvetica,sans-Serif" font-size="10.00" fill="#ece1d7">BackupSource</text>
<text xml:space="preserve" text-anchor="middle" x="552" y="-1263.88" font-family="Helvetica,sans-Serif" font-size="10.00" fill="#ece1d7">(Direct | ObjectStore)</text>
<text xml:space="preserve" text-anchor="middle" x="552" y="-1251.12" font-family="Helvetica,sans-Serif" font-size="10.00" fill="#ece1d7">begin pump</text>
</g>
<!-- map1&#45;&gt;bs2 -->
<g id="edge7" class="edge">
<title>map1&#45;&gt;bs2</title>
<path fill="none" stroke="#a1a9cc" d="M272.13,-1360.13C300.52,-1350.79 337.29,-1338.68 374.78,-1326.34"/>
<polygon fill="#a1a9cc" stroke="#a1a9cc" points="375.64,-1329.01 382.37,-1323.84 373.89,-1323.69 375.64,-1329.01"/>
<text xml:space="preserve" text-anchor="middle" x="400.67" y="-1334.08" font-family="Helvetica,sans-Serif" font-size="9.00" fill="#ece1d7">open BASE_BACKUP</text>
</g>
<!-- src2 -->
<g id="node5" class="node">
<title>src2</title>
<path fill="#3d3d54" stroke="#6e6963" d="M445.88,-1178.5C445.88,-1178.5 348.12,-1178.5 348.12,-1178.5 342.12,-1178.5 336.12,-1172.5 336.12,-1166.5 336.12,-1166.5 336.12,-1144.25 336.12,-1144.25 336.12,-1138.25 342.12,-1132.25 348.12,-1132.25 348.12,-1132.25 445.88,-1132.25 445.88,-1132.25 451.88,-1132.25 457.88,-1138.25 457.88,-1144.25 457.88,-1144.25 457.88,-1166.5 457.88,-1166.5 457.88,-1172.5 451.88,-1178.5 445.88,-1178.5"/>
<text xml:space="preserve" text-anchor="middle" x="397" y="-1165" font-family="Helvetica,sans-Serif" font-size="10.00" fill="#ece1d7">BASE_BACKUP open</text>
<text xml:space="preserve" text-anchor="middle" x="397" y="-1152.25" font-family="Helvetica,sans-Serif" font-size="10.00" fill="#ece1d7">pg_export_snapshot()</text>
<text xml:space="preserve" text-anchor="middle" x="397" y="-1139.5" font-family="Helvetica,sans-Serif" font-size="10.00" fill="#ece1d7">start_lsn = X</text>
</g>
<!-- bs2&#45;&gt;src2 -->
<g id="edge3" class="edge">
<title>bs2&#45;&gt;src2</title>
<path fill="none" stroke="#a1a9cc" d="M484.23,-1240.94C475.41,-1236.49 466.75,-1231.47 459,-1225.88 443.73,-1214.86 429.52,-1199.49 418.57,-1186"/>
<polygon fill="#a1a9cc" stroke="#a1a9cc" points="491.26,-1244.33 482.49,-1244.1 488.75,-1243.13 484.05,-1240.86 484.05,-1240.86 484.05,-1240.86 488.75,-1243.13 485.62,-1237.62 491.26,-1244.33"/>
<polygon fill="#a1a9cc" stroke="#a1a9cc" points="420.93,-1184.47 413.78,-1179.93 416.54,-1187.94 420.93,-1184.47"/>
<text xml:space="preserve" text-anchor="middle" x="502.5" y="-1217.33" font-family="Helvetica,sans-Serif" font-size="9.00" fill="#ece1d7">replication protocol</text>
</g>
<!-- lan2 -->
<g id="node6" class="node">
<title>lan2</title>
<path fill="#4d3a28" stroke="#6e6963" d="M779.12,-1178.5C779.12,-1178.5 658.88,-1178.5 658.88,-1178.5 652.88,-1178.5 646.88,-1172.5 646.88,-1166.5 646.88,-1166.5 646.88,-1144.25 646.88,-1144.25 646.88,-1138.25 652.88,-1132.25 658.88,-1132.25 658.88,-1132.25 779.12,-1132.25 779.12,-1132.25 785.12,-1132.25 791.12,-1138.25 791.12,-1144.25 791.12,-1144.25 791.12,-1166.5 791.12,-1166.5 791.12,-1172.5 785.12,-1178.5 779.12,-1178.5"/>
<text xml:space="preserve" text-anchor="middle" x="719" y="-1165" font-family="Helvetica,sans-Serif" font-size="10.00" fill="#ece1d7">DiskLanderSink</text>
<text xml:space="preserve" text-anchor="middle" x="719" y="-1152.25" font-family="Helvetica,sans-Serif" font-size="10.00" fill="#ece1d7">catalog → shadow data dir</text>
<text xml:space="preserve" text-anchor="middle" x="719" y="-1139.5" font-family="Helvetica,sans-Serif" font-size="10.00" fill="#ece1d7">user&#45;heap filenode Skip</text>
</g>
<!-- bs2&#45;&gt;lan2 -->
<g id="edge4" class="edge">
<title>bs2&#45;&gt;lan2</title>
<path fill="none" stroke="#c1a78e" d="M589.92,-1243.45C599.17,-1237.81 608.99,-1231.7 618,-1225.88 638.64,-1212.52 661.21,-1197.06 679.78,-1184.13"/>
<polygon fill="#c1a78e" stroke="#c1a78e" points="681.27,-1186.5 686.23,-1179.62 678.07,-1181.91 681.27,-1186.5"/>
<text xml:space="preserve" text-anchor="middle" x="664.77" y="-1217.33" font-family="Helvetica,sans-Serif" font-size="9.00" fill="#ece1d7">MultiplexSink</text>
</g>
<!-- walk2 -->
<g id="node7" class="node">
<title>walk2</title>
<path fill="#4d3a28" stroke="#6e6963" d="M609.5,-1178.5C609.5,-1178.5 494.5,-1178.5 494.5,-1178.5 488.5,-1178.5 482.5,-1172.5 482.5,-1166.5 482.5,-1166.5 482.5,-1144.25 482.5,-1144.25 482.5,-1138.25 488.5,-1132.25 494.5,-1132.25 494.5,-1132.25 609.5,-1132.25 609.5,-1132.25 615.5,-1132.25 621.5,-1138.25 621.5,-1144.25 621.5,-1144.25 621.5,-1166.5 621.5,-1166.5 621.5,-1172.5 615.5,-1178.5 609.5,-1178.5"/>
<text xml:space="preserve" text-anchor="middle" x="552" y="-1165" font-family="Helvetica,sans-Serif" font-size="10.00" fill="#ece1d7">PageWalkSink</text>
<text xml:space="preserve" text-anchor="middle" x="552" y="-1152.25" font-family="Helvetica,sans-Serif" font-size="10.00" fill="#ece1d7">decode 8 KiB heap pages</text>
<text xml:space="preserve" text-anchor="middle" x="552" y="-1139.5" font-family="Helvetica,sans-Serif" font-size="10.00" fill="#ece1d7">→ BackfillTuple (mpsc)</text>
</g>
<!-- bs2&#45;&gt;walk2 -->
<g id="edge5" class="edge">
<title>bs2&#45;&gt;walk2</title>
<path fill="none" stroke="#c1a78e" d="M552,-1243.55C552,-1227.59 552,-1205.92 552,-1188.18"/>
<polygon fill="#c1a78e" stroke="#c1a78e" points="554.8,-1188.31 552,-1180.31 549.2,-1188.31 554.8,-1188.31"/>
<text xml:space="preserve" text-anchor="middle" x="582" y="-1217.33" font-family="Helvetica,sans-Serif" font-size="9.00" fill="#ece1d7">MultiplexSink</text>
</g>
<!-- end4 -->
<g id="node11" class="node">
<title>end4</title>
<path fill="#3d3d54" stroke="#6e6963" d="M912.75,-1173.38C912.75,-1173.38 829.25,-1173.38 829.25,-1173.38 823.25,-1173.38 817.25,-1167.38 817.25,-1161.38 817.25,-1161.38 817.25,-1149.38 817.25,-1149.38 817.25,-1143.38 823.25,-1137.38 829.25,-1137.38 829.25,-1137.38 912.75,-1137.38 912.75,-1137.38 918.75,-1137.38 924.75,-1143.38 924.75,-1149.38 924.75,-1149.38 924.75,-1161.38 924.75,-1161.38 924.75,-1167.38 918.75,-1173.38 912.75,-1173.38"/>
<text xml:space="preserve" text-anchor="middle" x="871" y="-1158.62" font-family="Helvetica,sans-Serif" font-size="10.00" fill="#ece1d7">BASE_BACKUP end</text>
<text xml:space="preserve" text-anchor="middle" x="871" y="-1145.88" font-family="Helvetica,sans-Serif" font-size="10.00" fill="#ece1d7">end_lsn = Y</text>
</g>
<!-- bs2&#45;&gt;end4 -->
<g id="edge17" class="edge">
<title>bs2&#45;&gt;end4</title>
<path fill="none" stroke="#a1a9cc" d="M611.85,-1259.16C662.38,-1251.8 736.01,-1237.33 798.64,-1209.49"/>
<polygon fill="#a1a9cc" stroke="#a1a9cc" points="799.52,-1212.17 805.63,-1206.29 797.19,-1207.07 799.52,-1212.17"/>
<text xml:space="preserve" text-anchor="middle" x="798.14" y="-1217.33" font-family="Helvetica,sans-Serif" font-size="9.00" fill="#ece1d7">finish</text>
</g>
<!-- dsk2 -->
<g id="node8" class="node">
<title>dsk2</title>
<polygon fill="#4d3850" stroke="#6e6963" points="768.62,-1027.75 663.38,-1027.75 663.38,-991.75 774.62,-991.75 774.62,-1021.75 768.62,-1027.75"/>
<polyline fill="none" stroke="#6e6963" points="768.62,-1027.75 768.62,-1021.75"/>
<polyline fill="none" stroke="#6e6963" points="774.62,-1021.75 768.62,-1021.75"/>
<text xml:space="preserve" text-anchor="middle" x="719" y="-1013" font-family="Helvetica,sans-Serif" font-size="10.00" fill="#ece1d7">shadow data dir</text>
<text xml:space="preserve" text-anchor="middle" x="719" y="-1000.25" font-family="Helvetica,sans-Serif" font-size="10.00" fill="#ece1d7">catalog files landed</text>
</g>
<!-- lan2&#45;&gt;dsk2 -->
<g id="edge6" class="edge">
<title>lan2&#45;&gt;dsk2</title>
<path fill="none" stroke="#c1a78e" d="M719,-1131.93C719,-1106.36 719,-1064.58 719,-1037.38"/>
<polygon fill="#c1a78e" stroke="#c1a78e" points="721.8,-1037.59 719,-1029.59 716.2,-1037.59 721.8,-1037.59"/>
<text xml:space="preserve" text-anchor="middle" x="737" y="-1094.45" font-family="Helvetica,sans-Serif" font-size="9.00" fill="#ece1d7">land file</text>
</g>
<!-- drain3 -->
<g id="node9" class="node">
<title>drain3</title>
<path fill="#4d3a28" stroke="#6e6963" d="M299.12,-1039.25C299.12,-1039.25 94.88,-1039.25 94.88,-1039.25 88.88,-1039.25 82.87,-1033.25 82.87,-1027.25 82.87,-1027.25 82.87,-992.25 82.87,-992.25 82.87,-986.25 88.87,-980.25 94.87,-980.25 94.87,-980.25 299.12,-980.25 299.12,-980.25 305.12,-980.25 311.12,-986.25 311.12,-992.25 311.12,-992.25 311.12,-1027.25 311.12,-1027.25 311.12,-1033.25 305.12,-1039.25 299.12,-1039.25"/>
<text xml:space="preserve" text-anchor="middle" x="197" y="-1025.75" font-family="Helvetica,sans-Serif" font-size="10.00" fill="#ece1d7">pipeline::bootstrap::drain</text>
<text xml:space="preserve" text-anchor="middle" x="197" y="-1013" font-family="Helvetica,sans-Serif" font-size="10.00" fill="#ece1d7">synthesize row {op=Insert, _lsn=start_lsn}</text>
<text xml:space="preserve" text-anchor="middle" x="197" y="-1000.25" font-family="Helvetica,sans-Serif" font-size="10.00" fill="#ece1d7">resolve via CatalogMap</text>
<text xml:space="preserve" text-anchor="middle" x="197" y="-987.5" font-family="Helvetica,sans-Serif" font-size="10.00" fill="#ece1d7">one ack seq per rfn flip</text>
</g>
<!-- walk2&#45;&gt;drain3 -->
<g id="edge9" class="edge">
<title>walk2&#45;&gt;drain3</title>
<path fill="none" stroke="#c1a78e" d="M482.25,-1131.91C438.65,-1117.32 381.32,-1097.15 328.73,-1075.31"/>
<polygon fill="#c1a78e" stroke="#c1a78e" points="329.85,-1072.74 321.39,-1072.23 327.69,-1077.91 329.85,-1072.74"/>
<text xml:space="preserve" text-anchor="middle" x="477.58" y="-1105.7" font-family="Helvetica,sans-Serif" font-size="9.00" fill="#ece1d7">BackfillTuple</text>
<text xml:space="preserve" text-anchor="middle" x="477.58" y="-1094.45" font-family="Helvetica,sans-Serif" font-size="9.00" fill="#ece1d7">(bounded mpsc 256,</text>
<text xml:space="preserve" text-anchor="middle" x="477.58" y="-1083.2" font-family="Helvetica,sans-Serif" font-size="9.00" fill="#ece1d7">backpressures pump)</text>
</g>
<!-- ch3 -->
<g id="node10" class="node">
<title>ch3</title>
<path fill="#4d4128" stroke="#6e6963" d="M299.62,-933C299.62,-933 92.38,-933 92.38,-933 86.38,-933 80.38,-927 80.38,-921 80.38,-921 80.38,-886 80.38,-886 80.38,-880 86.38,-874 92.38,-874 92.38,-874 299.62,-874 299.62,-874 305.62,-874 311.62,-880 311.62,-886 311.62,-886 311.62,-921 311.62,-921 311.62,-927 305.62,-933 299.62,-933"/>
<text xml:space="preserve" text-anchor="middle" x="196" y="-919.5" font-family="Helvetica,sans-Serif" font-size="10.00" fill="#ece1d7">shared insert tail (pipeline/tail.rs)</text>
<text xml:space="preserve" text-anchor="middle" x="196" y="-906.75" font-family="Helvetica,sans-Serif" font-size="10.00" fill="#ece1d7">batcher + inserter pool ×N + ack collector</text>
<text xml:space="preserve" text-anchor="middle" x="196" y="-894" font-family="Helvetica,sans-Serif" font-size="10.00" fill="#ece1d7">same unit as streaming (no DdlApplicator)</text>
<text xml:space="preserve" text-anchor="middle" x="196" y="-881.25" font-family="Helvetica,sans-Serif" font-size="10.00" fill="#ece1d7">tail.finish at end: FlushAll → all seqs durable</text>
</g>
<!-- drain3&#45;&gt;ch3 -->
<g id="edge8" class="edge">
<title>drain3&#45;&gt;ch3</title>
<path fill="none" stroke="#bf8c5f" d="M196.72,-979.99C196.61,-968.36 196.48,-954.79 196.36,-942.38"/>
<polygon fill="#bf8c5f" stroke="#bf8c5f" points="199.17,-942.66 196.29,-934.68 193.57,-942.71 199.17,-942.66"/>
<text xml:space="preserve" text-anchor="middle" x="235.53" y="-953.7" font-family="Helvetica,sans-Serif" font-size="9.00" fill="#ece1d7">BatcherMsg::Row</text>
</g>
<!-- out4 -->
<g id="node12" class="node">
<title>out4</title>
<path fill="#4d3a28" stroke="#6e6963" d="M918.75,-1027.75C918.75,-1027.75 829.25,-1027.75 829.25,-1027.75 823.25,-1027.75 817.25,-1021.75 817.25,-1015.75 817.25,-1015.75 817.25,-1003.75 817.25,-1003.75 817.25,-997.75 823.25,-991.75 829.25,-991.75 829.25,-991.75 918.75,-991.75 918.75,-991.75 924.75,-991.75 930.75,-997.75 930.75,-1003.75 930.75,-1003.75 930.75,-1015.75 930.75,-1015.75 930.75,-1021.75 924.75,-1027.75 918.75,-1027.75"/>
<text xml:space="preserve" text-anchor="middle" x="874" y="-1013" font-family="Helvetica,sans-Serif" font-size="10.00" fill="#ece1d7">BootstrapOutcome</text>
<text xml:space="preserve" text-anchor="middle" x="874" y="-1000.25" font-family="Helvetica,sans-Serif" font-size="10.00" fill="#ece1d7">{start_lsn, end_lsn}</text>
</g>
<!-- end4&#45;&gt;out4 -->
<g id="edge10" class="edge">
<title>end4&#45;&gt;out4</title>
<path fill="none" stroke="#a1a9cc" d="M871.55,-1127.89C872.16,-1098.81 873.12,-1052.97 873.64,-1028.14"/>
<polygon fill="#a1a9cc" stroke="#a1a9cc" points="868.76,-1127.48 871.39,-1135.54 874.36,-1127.6 868.76,-1127.48"/>
<text xml:space="preserve" text-anchor="middle" x="889.75" y="-1094.45" font-family="Helvetica,sans-Serif" font-size="9.00" fill="#ece1d7">end_lsn</text>
</g>
<!-- ctrl4 -->
<g id="node13" class="node">
<title>ctrl4</title>
<polygon fill="#4d3850" stroke="#6e6963" points="933,-921.5 815,-921.5 815,-885.5 939,-885.5 939,-915.5 933,-921.5"/>
<polyline fill="none" stroke="#6e6963" points="933,-921.5 933,-915.5"/>
<polyline fill="none" stroke="#6e6963" points="939,-915.5 933,-915.5"/>
<text xml:space="preserve" text-anchor="middle" x="877" y="-906.75" font-family="Helvetica,sans-Serif" font-size="10.00" fill="#ece1d7">pg_control landed last</text>
<text xml:space="preserve" text-anchor="middle" x="877" y="-894" font-family="Helvetica,sans-Serif" font-size="10.00" fill="#ece1d7">(barrier)</text>
</g>
<!-- out4&#45;&gt;ctrl4 -->
<!-- conf4 -->
<g id="node14" class="node">
<title>conf4</title>
<path fill="#4d3a28" stroke="#6e6963" d="M1136.38,-933C1136.38,-933 975.62,-933 975.62,-933 969.62,-933 963.62,-927 963.62,-921 963.62,-921 963.62,-886 963.62,-886 963.62,-880 969.62,-874 975.62,-874 975.62,-874 1136.38,-874 1136.38,-874 1142.38,-874 1148.38,-880 1148.38,-886 1148.38,-886 1148.38,-921 1148.38,-921 1148.38,-927 1142.38,-933 1136.38,-933"/>
<text xml:space="preserve" text-anchor="middle" x="1056" y="-919.5" font-family="Helvetica,sans-Serif" font-size="10.00" fill="#ece1d7">Shadow::enable_standby_recovery</text>
<text xml:space="preserve" text-anchor="middle" x="1056" y="-906.75" font-family="Helvetica,sans-Serif" font-size="10.00" fill="#ece1d7">append standby.signal +</text>
<text xml:space="preserve" text-anchor="middle" x="1056" y="-894" font-family="Helvetica,sans-Serif" font-size="10.00" fill="#ece1d7">restore_command +</text>
<text xml:space="preserve" text-anchor="middle" x="1056" y="-881.25" font-family="Helvetica,sans-Serif" font-size="10.00" fill="#ece1d7">primary_conninfo</text>
</g>
<!-- out4&#45;&gt;conf4 -->
<g id="edge12" class="edge">
<title>out4&#45;&gt;conf4</title>
<path fill="none" stroke="#c1a78e" d="M904.46,-991.3C929.73,-976.83 966.39,-955.83 997.33,-938.11"/>
<polygon fill="#c1a78e" stroke="#c1a78e" points="998.61,-940.6 1004.16,-934.2 995.82,-935.74 998.61,-940.6"/>
</g>
<!-- cur5 -->
<g id="node19" class="node">
<title>cur5</title>
<path fill="#4d3a28" stroke="#6e6963" d="M838.88,-553.75C838.88,-553.75 717.12,-553.75 717.12,-553.75 711.12,-553.75 705.12,-547.75 705.12,-541.75 705.12,-541.75 705.12,-529.75 705.12,-529.75 705.12,-523.75 711.12,-517.75 717.12,-517.75 717.12,-517.75 838.88,-517.75 838.88,-517.75 844.88,-517.75 850.88,-523.75 850.88,-529.75 850.88,-529.75 850.88,-541.75 850.88,-541.75 850.88,-547.75 844.88,-553.75 838.88,-553.75"/>
<text xml:space="preserve" text-anchor="middle" x="778" y="-539" font-family="Helvetica,sans-Serif" font-size="10.00" fill="#ece1d7">cursor::write</text>
<text xml:space="preserve" text-anchor="middle" x="778" y="-526.25" font-family="Helvetica,sans-Serif" font-size="10.00" fill="#ece1d7">emitter_ack_lsn = end_lsn</text>
</g>
<!-- out4&#45;&gt;cur5 -->
<g id="edge22" class="edge">
<title>out4&#45;&gt;cur5</title>
<path fill="none" stroke="#c1a78e" d="M841.43,-991.28C813.25,-973.54 777,-943.19 777,-904.5 777,-904.5 777,-904.5 777,-641.25 777,-626.74 777.1,-611.11 777.23,-596.46"/>
<polygon fill="#c1a78e" stroke="#c1a78e" points="780.03,-596.54 777.31,-588.51 774.43,-596.48 780.03,-596.54"/>
<text xml:space="preserve" text-anchor="middle" x="802.12" y="-764.2" font-family="Helvetica,sans-Serif" font-size="9.00" fill="#ece1d7">next phase</text>
</g>
<!-- files4 -->
<g id="node15" class="node">
<title>files4</title>
<polygon fill="#4d3850" stroke="#6e6963" points="947.12,-826.75 850.88,-826.75 850.88,-790.75 953.12,-790.75 953.12,-820.75 947.12,-826.75"/>
<polyline fill="none" stroke="#6e6963" points="947.12,-826.75 947.12,-820.75"/>
<polyline fill="none" stroke="#6e6963" points="953.12,-820.75 947.12,-820.75"/>
<text xml:space="preserve" text-anchor="middle" x="902" y="-812" font-family="Helvetica,sans-Serif" font-size="10.00" fill="#ece1d7">postgresql.conf +</text>
<text xml:space="preserve" text-anchor="middle" x="902" y="-799.25" font-family="Helvetica,sans-Serif" font-size="10.00" fill="#ece1d7">standby.signal</text>
</g>
<!-- conf4&#45;&gt;files4 -->
<g id="edge13" class="edge">
<title>conf4&#45;&gt;files4</title>
<path fill="none" stroke="#c1a78e" d="M1008.12,-873.66C985.82,-860.24 959.71,-844.51 938.97,-832.02"/>
<polygon fill="#c1a78e" stroke="#c1a78e" points="940.61,-829.73 932.31,-828.01 937.72,-834.53 940.61,-829.73"/>
<text xml:space="preserve" text-anchor="middle" x="985.63" y="-847.45" font-family="Helvetica,sans-Serif" font-size="9.00" fill="#ece1d7">write</text>
</g>
<!-- listen4 -->
<g id="node16" class="node">
<title>listen4</title>
<path fill="#4d3a28" stroke="#6e6963" d="M1122.12,-826.75C1122.12,-826.75 989.88,-826.75 989.88,-826.75 983.88,-826.75 977.88,-820.75 977.88,-814.75 977.88,-814.75 977.88,-802.75 977.88,-802.75 977.88,-796.75 983.88,-790.75 989.88,-790.75 989.88,-790.75 1122.12,-790.75 1122.12,-790.75 1128.12,-790.75 1134.12,-796.75 1134.12,-802.75 1134.12,-802.75 1134.12,-814.75 1134.12,-814.75 1134.12,-820.75 1128.12,-826.75 1122.12,-826.75"/>
<text xml:space="preserve" text-anchor="middle" x="1056" y="-812" font-family="Helvetica,sans-Serif" font-size="10.00" fill="#ece1d7">walsender listener up</text>
<text xml:space="preserve" text-anchor="middle" x="1056" y="-799.25" font-family="Helvetica,sans-Serif" font-size="10.00" fill="#ece1d7">(barrier before shadow start)</text>
</g>
<!-- conf4&#45;&gt;listen4 -->
<g id="edge14" class="edge">
<title>conf4&#45;&gt;listen4</title>
<path fill="none" stroke="#c1a78e" d="M1056,-873.66C1056,-861.78 1056,-848.1 1056,-836.45"/>
<polygon fill="#c1a78e" stroke="#c1a78e" points="1058.8,-836.74 1056,-828.74 1053.2,-836.74 1058.8,-836.74"/>
</g>
<!-- start4 -->
<g id="node17" class="node">
<title>start4</title>
<path fill="#4d3a28" stroke="#6e6963" d="M1119,-743.5C1119,-743.5 977,-743.5 977,-743.5 971,-743.5 965,-737.5 965,-731.5 965,-731.5 965,-719.5 965,-719.5 965,-713.5 971,-707.5 977,-707.5 977,-707.5 1119,-707.5 1119,-707.5 1125,-707.5 1131,-713.5 1131,-719.5 1131,-719.5 1131,-731.5 1131,-731.5 1131,-737.5 1125,-743.5 1119,-743.5"/>
<text xml:space="preserve" text-anchor="middle" x="1048" y="-728.75" font-family="Helvetica,sans-Serif" font-size="10.00" fill="#ece1d7">Shadow::start (recovery mode)</text>
<text xml:space="preserve" text-anchor="middle" x="1048" y="-716" font-family="Helvetica,sans-Serif" font-size="10.00" fill="#ece1d7">block_in_place pg_ctl</text>
</g>
<!-- listen4&#45;&gt;start4 -->
<g id="edge15" class="edge">
<title>listen4&#45;&gt;start4</title>
<path fill="none" stroke="#c1a78e" d="M1054.3,-790.52C1053.24,-779.71 1051.85,-765.56 1050.64,-753.3"/>
<polygon fill="#c1a78e" stroke="#c1a78e" points="1053.44,-753.18 1049.87,-745.49 1047.87,-753.73 1053.44,-753.18"/>
<text xml:space="preserve" text-anchor="middle" x="1067.48" y="-764.2" font-family="Helvetica,sans-Serif" font-size="9.00" fill="#ece1d7">barrier</text>
</g>
<!-- shd4 -->
<g id="node18" class="node">
<title>shd4</title>
<path fill="#3d4128" stroke="#6e6963" d="M1051.38,-660.25C1051.38,-660.25 932.62,-660.25 932.62,-660.25 926.62,-660.25 920.62,-654.25 920.62,-648.25 920.62,-648.25 920.62,-636.25 920.62,-636.25 920.62,-630.25 926.62,-624.25 932.62,-624.25 932.62,-624.25 1051.38,-624.25 1051.38,-624.25 1057.38,-624.25 1063.38,-630.25 1063.38,-636.25 1063.38,-636.25 1063.38,-648.25 1063.38,-648.25 1063.38,-654.25 1057.38,-660.25 1051.38,-660.25"/>
<text xml:space="preserve" text-anchor="middle" x="992" y="-645.5" font-family="Helvetica,sans-Serif" font-size="10.00" fill="#ece1d7">postmaster + walreceiver</text>
<text xml:space="preserve" text-anchor="middle" x="992" y="-632.75" font-family="Helvetica,sans-Serif" font-size="10.00" fill="#ece1d7">begin replay</text>
</g>
<!-- start4&#45;&gt;shd4 -->
<g id="edge16" class="edge">
<title>start4&#45;&gt;shd4</title>
<path fill="none" stroke="#c1a78e" d="M1036.12,-707.27C1028.31,-695.93 1017.95,-680.9 1009.23,-668.25"/>
<polygon fill="#c1a78e" stroke="#c1a78e" points="1011.76,-666.98 1004.91,-661.98 1007.15,-670.16 1011.76,-666.98"/>
<text xml:space="preserve" text-anchor="middle" x="1049.23" y="-680.95" font-family="Helvetica,sans-Serif" font-size="9.00" fill="#ece1d7">pg_ctl start</text>
</g>
<!-- apply5 -->
<g id="node23" class="node">
<title>apply5</title>
<path fill="#3d4128" stroke="#6e6963" d="M1044.5,-553.75C1044.5,-553.75 887.5,-553.75 887.5,-553.75 881.5,-553.75 875.5,-547.75 875.5,-541.75 875.5,-541.75 875.5,-529.75 875.5,-529.75 875.5,-523.75 881.5,-517.75 887.5,-517.75 887.5,-517.75 1044.5,-517.75 1044.5,-517.75 1050.5,-517.75 1056.5,-523.75 1056.5,-529.75 1056.5,-529.75 1056.5,-541.75 1056.5,-541.75 1056.5,-547.75 1050.5,-553.75 1044.5,-553.75"/>
<text xml:space="preserve" text-anchor="middle" x="966" y="-539" font-family="Helvetica,sans-Serif" font-size="10.00" fill="#ece1d7">pg_last_wal_replay_lsn ≥ end_lsn</text>
<text xml:space="preserve" text-anchor="middle" x="966" y="-526.25" font-family="Helvetica,sans-Serif" font-size="10.00" fill="#ece1d7">ready for relation_at gate</text>
</g>
<!-- shd4&#45;&gt;apply5 -->
<g id="edge23" class="edge">
<title>shd4&#45;&gt;apply5</title>
<path fill="none" stroke="#869461" stroke-dasharray="5,2" d="M987.71,-623.99C983.59,-607.43 977.3,-582.18 972.56,-563.1"/>
<polygon fill="#869461" stroke="#869461" points="975.31,-562.59 970.67,-555.5 969.88,-563.94 975.31,-562.59"/>
<text xml:space="preserve" text-anchor="middle" x="1023.35" y="-597.7" font-family="Helvetica,sans-Serif" font-size="9.00" fill="#ece1d7">replay catches up</text>
</g>
<!-- curd5 -->
<g id="node20" class="node">
<title>curd5</title>
<polygon fill="#4d3850" stroke="#6e6963" points="830.38,-465.38 705.62,-465.38 705.62,-429.38 836.38,-429.38 836.38,-459.38 830.38,-465.38"/>
<polyline fill="none" stroke="#6e6963" points="830.38,-465.38 830.38,-459.38"/>
<polyline fill="none" stroke="#6e6963" points="836.38,-459.38 830.38,-459.38"/>
<text xml:space="preserve" text-anchor="middle" x="771" y="-450.62" font-family="Helvetica,sans-Serif" font-size="10.00" fill="#ece1d7">cursor.bin</text>
<text xml:space="preserve" text-anchor="middle" x="771" y="-437.88" font-family="Helvetica,sans-Serif" font-size="10.00" fill="#ece1d7">atomic rename + fsync</text>
</g>
<!-- cur5&#45;&gt;curd5 -->
<g id="edge18" class="edge">
<title>cur5&#45;&gt;curd5</title>
<path fill="none" stroke="#c1a78e" d="M776.58,-517.27C775.61,-505.21 774.29,-488.95 773.18,-475.25"/>
<polygon fill="#c1a78e" stroke="#c1a78e" points="775.97,-475.08 772.54,-467.34 770.39,-475.54 775.97,-475.08"/>
<text xml:space="preserve" text-anchor="middle" x="787.13" y="-491.2" font-family="Helvetica,sans-Serif" font-size="9.00" fill="#ece1d7">fsync</text>
</g>
<!-- feed5 -->
<g id="node21" class="node">
<title>feed5</title>
<path fill="#4d3a28" stroke="#6e6963" d="M970.12,-470.5C970.12,-470.5 873.88,-470.5 873.88,-470.5 867.88,-470.5 861.88,-464.5 861.88,-458.5 861.88,-458.5 861.88,-436.25 861.88,-436.25 861.88,-430.25 867.88,-424.25 873.88,-424.25 873.88,-424.25 970.12,-424.25 970.12,-424.25 976.12,-424.25 982.12,-430.25 982.12,-436.25 982.12,-436.25 982.12,-458.5 982.12,-458.5 982.12,-464.5 976.12,-470.5 970.12,-470.5"/>
<text xml:space="preserve" text-anchor="middle" x="922" y="-457" font-family="Helvetica,sans-Serif" font-size="10.00" fill="#ece1d7">SourceFeed open</text>
<text xml:space="preserve" text-anchor="middle" x="922" y="-444.25" font-family="Helvetica,sans-Serif" font-size="10.00" fill="#ece1d7">START_REPLICATION</text>
<text xml:space="preserve" text-anchor="middle" x="922" y="-431.5" font-family="Helvetica,sans-Serif" font-size="10.00" fill="#ece1d7">PHYSICAL &lt;end_lsn&gt;</text>
</g>
<!-- cur5&#45;&gt;feed5 -->
<g id="edge19" class="edge">
<title>cur5&#45;&gt;feed5</title>
<path fill="none" stroke="#c1a78e" d="M807.14,-517.27C826.98,-505.37 853.63,-489.38 876.28,-475.8"/>
<polygon fill="#c1a78e" stroke="#c1a78e" points="877.7,-478.21 883.12,-471.7 874.82,-473.41 877.7,-478.21"/>
</g>
<!-- repl5 -->
<g id="node22" class="node">
<title>repl5</title>
<path fill="#3d3d54" stroke="#6e6963" d="M825.12,-365.5C825.12,-365.5 740.88,-365.5 740.88,-365.5 734.88,-365.5 728.88,-359.5 728.88,-353.5 728.88,-353.5 728.88,-341.5 728.88,-341.5 728.88,-335.5 734.88,-329.5 740.88,-329.5 740.88,-329.5 825.12,-329.5 825.12,-329.5 831.12,-329.5 837.12,-335.5 837.12,-341.5 837.12,-341.5 837.12,-353.5 837.12,-353.5 837.12,-359.5 831.12,-365.5 825.12,-365.5"/>
<text xml:space="preserve" text-anchor="middle" x="783" y="-350.75" font-family="Helvetica,sans-Serif" font-size="10.00" fill="#ece1d7">streaming protocol</text>
<text xml:space="preserve" text-anchor="middle" x="783" y="-338" font-family="Helvetica,sans-Serif" font-size="10.00" fill="#ece1d7">opens at end_lsn</text>
</g>
<!-- feed5&#45;&gt;repl5 -->
<g id="edge20" class="edge">
<title>feed5&#45;&gt;repl5</title>
<path fill="none" stroke="#a1a9cc" d="M857.44,-419.69C849.96,-415.61 842.64,-411.11 836,-406.25 823.21,-396.88 811.09,-384.08 801.67,-372.91"/>
<polygon fill="#a1a9cc" stroke="#a1a9cc" points="864.52,-423.39 855.76,-422.87 862.06,-422.1 857.43,-419.68 857.43,-419.68 857.43,-419.68 862.06,-422.1 859.1,-416.49 864.52,-423.39"/>
<polygon fill="#a1a9cc" stroke="#a1a9cc" points="804.09,-371.45 796.86,-367.03 799.76,-375 804.09,-371.45"/>
<text xml:space="preserve" text-anchor="middle" x="881" y="-397.7" font-family="Helvetica,sans-Serif" font-size="9.00" fill="#ece1d7">START_REPLICATION</text>
</g>
<!-- hot5 -->
<g id="node24" class="node">
<title>hot5</title>
<polygon fill="#4d3a28" stroke="#6e6963" points="1019.88,-371 862.12,-371 862.12,-324 1019.88,-324 1031.88,-347.5 1019.88,-371"/>
<text xml:space="preserve" text-anchor="middle" x="947" y="-363.5" font-family="Helvetica,sans-Serif" font-size="10.00" fill="#ece1d7">hot streaming</text>
<text xml:space="preserve" text-anchor="middle" x="947" y="-350.75" font-family="Helvetica,sans-Serif" font-size="10.00" fill="#ece1d7">(pipeline: reorder → decode ×M</text>
<text xml:space="preserve" text-anchor="middle" x="947" y="-338" font-family="Helvetica,sans-Serif" font-size="10.00" fill="#ece1d7">→ same tail + DdlApplicator)</text>
<text xml:space="preserve" text-anchor="middle" x="947" y="-325.25" font-family="Helvetica,sans-Serif" font-size="10.00" fill="#ece1d7">→ timeline_streaming</text>
</g>
<!-- feed5&#45;&gt;hot5 -->
<g id="edge21" class="edge">
<title>feed5&#45;&gt;hot5</title>
<path fill="none" stroke="#c1a78e" d="M927.67,-424.17C930.52,-413 934.06,-399.16 937.32,-386.38"/>
<polygon fill="#c1a78e" stroke="#c1a78e" points="940,-387.22 939.27,-378.78 934.57,-385.84 940,-387.22"/>
</g>
<!-- legend -->
<g id="node25" class="node">
<title>legend</title>
<path fill="#6e6963" stroke="none" d="M1031,-281C1031,-281 863,-281 863,-281 857,-281 851,-275 851,-269 851,-269 851,-12 851,-12 851,-6 857,0 863,0 863,0 1031,0 1031,0 1037,0 1043,-6 1043,-12 1043,-12 1043,-269 1043,-269 1043,-275 1037,-281 1031,-281"/>
<polygon fill="#34302c" stroke="none" points="859,-254.25 859,-277 1035,-277 1035,-254.25 859,-254.25"/>
<polygon fill="none" stroke="#6e6963" points="859,-254.25 859,-277 1035,-277 1035,-254.25 859,-254.25"/>
<text xml:space="preserve" text-anchor="start" x="900.5" y="-263.5" font-family="Helvetica,sans-Serif" font-weight="bold" font-size="10.00" fill="#ece1d7">node fill — actor</text>
<polygon fill="#403a36" stroke="none" points="859,-231.5 859,-254.25 887,-254.25 887,-231.5 859,-231.5"/>
<polygon fill="none" stroke="#6e6963" points="859,-231.5 859,-254.25 887,-254.25 887,-231.5 859,-231.5"/>
<polygon fill="none" stroke="#6e6963" points="887,-231.5 887,-254.25 1035,-254.25 1035,-231.5 887,-231.5"/>
<text xml:space="preserve" text-anchor="start" x="928.38" y="-239.5" font-family="Helvetica,sans-Serif" font-size="10.00" fill="#ece1d7">operator / CLI</text>
<polygon fill="#3d3d54" stroke="none" points="859,-208.75 859,-231.5 887,-231.5 887,-208.75 859,-208.75"/>
<polygon fill="none" stroke="#6e6963" points="859,-208.75 859,-231.5 887,-231.5 887,-208.75 859,-208.75"/>
<polygon fill="none" stroke="#6e6963" points="887,-208.75 887,-231.5 1035,-231.5 1035,-208.75 887,-208.75"/>
<text xml:space="preserve" text-anchor="start" x="922.38" y="-216.75" font-family="Helvetica,sans-Serif" font-size="10.00" fill="#ece1d7">source Postgres</text>
<polygon fill="#4d3a28" stroke="none" points="859,-186 859,-208.75 887,-208.75 887,-186 859,-186"/>
<polygon fill="none" stroke="#6e6963" points="859,-186 859,-208.75 887,-208.75 887,-186 859,-186"/>
<polygon fill="none" stroke="#6e6963" points="887,-186 887,-208.75 1035,-208.75 1035,-186 887,-186"/>
<text xml:space="preserve" text-anchor="start" x="914.5" y="-194" font-family="Helvetica,sans-Serif" font-size="10.00" fill="#ece1d7">walshadow&#45;stream</text>
<polygon fill="#4d3850" stroke="none" points="859,-163.25 859,-186 887,-186 887,-163.25 859,-163.25"/>
<polygon fill="none" stroke="#6e6963" points="859,-163.25 859,-186 887,-186 887,-163.25 859,-163.25"/>
<polygon fill="none" stroke="#6e6963" points="887,-163.25 887,-186 1035,-186 1035,-163.25 887,-163.25"/>
<text xml:space="preserve" text-anchor="start" x="923.88" y="-171.25" font-family="Helvetica,sans-Serif" font-size="10.00" fill="#ece1d7">on&#45;disk artifact</text>
<polygon fill="#3d4128" stroke="none" points="859,-140.5 859,-163.25 887,-163.25 887,-140.5 859,-140.5"/>
<polygon fill="none" stroke="#6e6963" points="859,-140.5 859,-163.25 887,-163.25 887,-140.5 859,-140.5"/>
<polygon fill="none" stroke="#6e6963" points="887,-140.5 887,-163.25 1035,-163.25 1035,-140.5 887,-140.5"/>
<text xml:space="preserve" text-anchor="start" x="919.75" y="-148.5" font-family="Helvetica,sans-Serif" font-size="10.00" fill="#ece1d7">shadow Postgres</text>
<polygon fill="#4d4128" stroke="none" points="859,-117.75 859,-140.5 887,-140.5 887,-117.75 859,-117.75"/>
<polygon fill="none" stroke="#6e6963" points="859,-117.75 859,-140.5 887,-140.5 887,-117.75 859,-117.75"/>
<polygon fill="none" stroke="#6e6963" points="887,-117.75 887,-140.5 1035,-140.5 1035,-117.75 887,-117.75"/>
<text xml:space="preserve" text-anchor="start" x="933.62" y="-125.75" font-family="Helvetica,sans-Serif" font-size="10.00" fill="#ece1d7">ClickHouse</text>
<polygon fill="#34302c" stroke="none" points="859,-95 859,-117.75 1035,-117.75 1035,-95 859,-95"/>
<polygon fill="none" stroke="#6e6963" points="859,-95 859,-117.75 1035,-117.75 1035,-95 859,-95"/>
<text xml:space="preserve" text-anchor="start" x="913.25" y="-104.25" font-family="Helvetica,sans-Serif" font-weight="bold" font-size="10.00" fill="#ece1d7">edge colour</text>
<polygon fill="none" stroke="#6e6963" points="859,-72.25 859,-95 887,-95 887,-72.25 859,-72.25"/>
<text xml:space="preserve" text-anchor="start" x="867" y="-81.5" font-family="Helvetica,sans-Serif" font-weight="bold" font-size="10.00" fill="#a1a9cc">━━</text>
<polygon fill="none" stroke="#6e6963" points="887,-72.25 887,-95 1035,-95 1035,-72.25 887,-72.25"/>
<text xml:space="preserve" text-anchor="start" x="892" y="-80.25" font-family="Helvetica,sans-Serif" font-size="10.00" fill="#ece1d7">physical replication protocol</text>
<polygon fill="none" stroke="#6e6963" points="859,-49.5 859,-72.25 887,-72.25 887,-49.5 859,-49.5"/>
<text xml:space="preserve" text-anchor="start" x="867" y="-58.75" font-family="Helvetica,sans-Serif" font-weight="bold" font-size="10.00" fill="#cba85e">━━</text>
<polygon fill="none" stroke="#6e6963" points="887,-49.5 887,-72.25 1035,-72.25 1035,-49.5 887,-49.5"/>
<text xml:space="preserve" text-anchor="start" x="914.12" y="-57.5" font-family="Helvetica,sans-Serif" font-size="10.00" fill="#ece1d7">libpq catalog query</text>
<polygon fill="none" stroke="#6e6963" points="859,-26.75 859,-49.5 887,-49.5 887,-26.75 859,-26.75"/>
<text xml:space="preserve" text-anchor="start" x="867" y="-36" font-family="Helvetica,sans-Serif" font-weight="bold" font-size="10.00" fill="#bf8c5f">━━</text>
<polygon fill="none" stroke="#6e6963" points="887,-26.75 887,-49.5 1035,-49.5 1035,-26.75 887,-26.75"/>
<text xml:space="preserve" text-anchor="start" x="898.75" y="-34.75" font-family="Helvetica,sans-Serif" font-size="10.00" fill="#ece1d7">ClickHouse Native blocks</text>
<polygon fill="none" stroke="#6e6963" points="859,-4 859,-26.75 887,-26.75 887,-4 859,-4"/>
<text xml:space="preserve" text-anchor="start" x="867" y="-13.25" font-family="Helvetica,sans-Serif" font-weight="bold" font-size="10.00" fill="#869461">┄┄</text>
<polygon fill="none" stroke="#6e6963" points="887,-4 887,-26.75 1035,-26.75 1035,-4 887,-4"/>
<text xml:space="preserve" text-anchor="start" x="902.88" y="-12" font-family="Helvetica,sans-Serif" font-size="10.00" fill="#ece1d7">shadow replay progress</text>
</g>
<!-- hot5&#45;&gt;legend -->
</g>
</svg>
