<?xml version="1.0" encoding="UTF-8" standalone="no"?>
<!DOCTYPE svg PUBLIC "-//W3C//DTD SVG 1.1//EN"
 "http://www.w3.org/Graphics/SVG/1.1/DTD/svg11.dtd">
<!-- Generated by graphviz version 15.1.0 (20260618.0150)
 -->
<!-- Title: timeline_restart Pages: 1 -->
<svg width="1372pt" height="1329pt"
 viewBox="0.00 0.00 1372.00 1329.00" xmlns="http://www.w3.org/2000/svg" xmlns:xlink="http://www.w3.org/1999/xlink">
<g id="graph0" class="graph" transform="scale(1 1) rotate(0) translate(4 1325.38)">
<title>timeline_restart</title>
<polygon fill="#272623" stroke="none" points="-4,4 -4,-1325.38 1368,-1325.38 1368,4 -4,4"/>
<text xml:space="preserve" text-anchor="middle" x="682" y="-1304.08" font-family="Helvetica,sans-Serif" font-size="14.00" fill="#ece1d7">walshadow restart timelines — 3 scenarios, time flows top → bottom within each column</text>
<g id="clust1" class="cluster">
<title>cluster_a</title>
<path fill="#34302c" stroke="#a1a9cc" d="M20,-497.5C20,-497.5 490,-497.5 490,-497.5 496,-497.5 502,-503.5 502,-509.5 502,-509.5 502,-1276.12 502,-1276.12 502,-1282.12 496,-1288.12 490,-1288.12 490,-1288.12 20,-1288.12 20,-1288.12 14,-1288.12 8,-1282.12 8,-1276.12 8,-1276.12 8,-509.5 8,-509.5 8,-503.5 14,-497.5 20,-497.5"/>
<text xml:space="preserve" text-anchor="middle" x="255" y="-1270.83" font-family="Helvetica,sans-Serif" font-size="14.00" fill="#ece1d7">A. clean restart &#160;(SIGTERM, cursor flushed, slot inside wal_keep_size)</text>
</g>
<g id="clust2" class="cluster">
<title>cluster_b</title>
<path fill="#34302c" stroke="#cba85e" d="M522,-497.5C522,-497.5 900,-497.5 900,-497.5 906,-497.5 912,-503.5 912,-509.5 912,-509.5 912,-1198.88 912,-1198.88 912,-1204.88 906,-1210.88 900,-1210.88 900,-1210.88 522,-1210.88 522,-1210.88 516,-1210.88 510,-1204.88 510,-1198.88 510,-1198.88 510,-509.5 510,-509.5 510,-503.5 516,-497.5 522,-497.5"/>
<text xml:space="preserve" text-anchor="middle" x="711" y="-1193.58" font-family="Helvetica,sans-Serif" font-size="14.00" fill="#ece1d7">B. kill &#45;9 mid&#45;stream &#160;(last fsynced cursor authoritative)</text>
</g>
<g id="clust3" class="cluster">
<title>cluster_c</title>
<path fill="#34302c" stroke="#bd8183" d="M932,-497.5C932,-497.5 1344,-497.5 1344,-497.5 1350,-497.5 1356,-503.5 1356,-509.5 1356,-509.5 1356,-1114.25 1356,-1114.25 1356,-1120.25 1350,-1126.25 1344,-1126.25 1344,-1126.25 932,-1126.25 932,-1126.25 926,-1126.25 920,-1120.25 920,-1114.25 920,-1114.25 920,-509.5 920,-509.5 920,-503.5 926,-497.5 932,-497.5"/>
<text xml:space="preserve" text-anchor="middle" x="1138" y="-1108.95" font-family="Helvetica,sans-Serif" font-size="14.00" fill="#ece1d7">C. extended outage &#160;(slot LSN beyond source wal_keep_size)</text>
</g>
<!-- a0 -->
<g id="node1" class="node">
<title>a0</title>
<path fill="#403a36" stroke="#6e6963" d="M482.4,-1254.88C482.4,-1254.88 333.6,-1254.88 333.6,-1254.88 327.6,-1254.88 321.6,-1248.88 321.6,-1242.88 321.6,-1242.88 321.6,-1230.88 321.6,-1230.88 321.6,-1224.88 327.6,-1218.88 333.6,-1218.88 333.6,-1218.88 482.4,-1218.88 482.4,-1218.88 488.4,-1218.88 494.4,-1224.88 494.4,-1230.88 494.4,-1230.88 494.4,-1242.88 494.4,-1242.88 494.4,-1248.88 488.4,-1254.88 482.4,-1254.88"/>
<text xml:space="preserve" text-anchor="middle" x="408" y="-1233.75" font-family="Helvetica,sans-Serif" font-size="10.00" fill="#ece1d7">① SIGTERM</text>
</g>
<!-- a1 -->
<g id="node2" class="node">
<title>a1</title>
<path fill="#4d3a28" stroke="#6e6963" d="M470.12,-1182.75C470.12,-1182.75 313.88,-1182.75 313.88,-1182.75 307.88,-1182.75 301.88,-1176.75 301.88,-1170.75 301.88,-1170.75 301.88,-1148.5 301.88,-1148.5 301.88,-1142.5 307.88,-1136.5 313.88,-1136.5 313.88,-1136.5 470.12,-1136.5 470.12,-1136.5 476.12,-1136.5 482.12,-1142.5 482.12,-1148.5 482.12,-1148.5 482.12,-1170.75 482.12,-1170.75 482.12,-1176.75 476.12,-1182.75 470.12,-1182.75"/>
<text xml:space="preserve" text-anchor="middle" x="392" y="-1169.25" font-family="Helvetica,sans-Serif" font-size="10.00" fill="#ece1d7">② drain in&#45;flight work</text>
<text xml:space="preserve" text-anchor="middle" x="392" y="-1156.5" font-family="Helvetica,sans-Serif" font-size="10.00" fill="#ece1d7">pipeline join: batcher final flush →</text>
<text xml:space="preserve" text-anchor="middle" x="392" y="-1143.75" font-family="Helvetica,sans-Serif" font-size="10.00" fill="#ece1d7">inserters EndOfStream → ack</text>
</g>
<!-- a0&#45;&gt;a1 -->
<g id="edge1" class="edge">
<title>a0&#45;&gt;a1</title>
<path fill="none" stroke="#c1a78e" d="M404.29,-1218.42C402.63,-1210.62 400.62,-1201.18 398.72,-1192.21"/>
<polygon fill="#c1a78e" stroke="#c1a78e" points="401.5,-1191.85 397.1,-1184.61 396.02,-1193.01 401.5,-1191.85"/>
</g>
<!-- b0 -->
<g id="node11" class="node">
<title>b0</title>
<path fill="#403a36" stroke="#6e6963" d="M785.4,-1177.62C785.4,-1177.62 636.6,-1177.62 636.6,-1177.62 630.6,-1177.62 624.6,-1171.62 624.6,-1165.62 624.6,-1165.62 624.6,-1153.62 624.6,-1153.62 624.6,-1147.62 630.6,-1141.62 636.6,-1141.62 636.6,-1141.62 785.4,-1141.62 785.4,-1141.62 791.4,-1141.62 797.4,-1147.62 797.4,-1153.62 797.4,-1153.62 797.4,-1165.62 797.4,-1165.62 797.4,-1171.62 791.4,-1177.62 785.4,-1177.62"/>
<text xml:space="preserve" text-anchor="middle" x="711" y="-1156.5" font-family="Helvetica,sans-Serif" font-size="10.00" fill="#ece1d7">① kill &#45;9 (no drain)</text>
</g>
<!-- a0&#45;&gt;b0 -->
<!-- a2 -->
<g id="node3" class="node">
<title>a2</title>
<path fill="#4d3340" stroke="#6e6963" d="M473.75,-1093C473.75,-1093 288.25,-1093 288.25,-1093 282.25,-1093 276.25,-1087 276.25,-1081 276.25,-1081 276.25,-1069 276.25,-1069 276.25,-1063 282.25,-1057 288.25,-1057 288.25,-1057 473.75,-1057 473.75,-1057 479.75,-1057 485.75,-1063 485.75,-1069 485.75,-1069 485.75,-1081 485.75,-1081 485.75,-1087 479.75,-1093 473.75,-1093"/>
<text xml:space="preserve" text-anchor="middle" x="381" y="-1078.25" font-family="Helvetica,sans-Serif" font-size="10.00" fill="#ece1d7">③ DirSegmentSink::on_partial_segment</text>
<text xml:space="preserve" text-anchor="middle" x="381" y="-1065.5" font-family="Helvetica,sans-Serif" font-size="10.00" fill="#ece1d7">&lt;seg&gt;.partial</text>
</g>
<!-- a1&#45;&gt;a2 -->
<g id="edge2" class="edge">
<title>a1&#45;&gt;a2</title>
<path fill="none" stroke="#c1a78e" d="M388.99,-1136.05C387.62,-1125.73 385.98,-1113.44 384.55,-1102.67"/>
<polygon fill="#c1a78e" stroke="#c1a78e" points="387.34,-1102.37 383.5,-1094.81 381.78,-1103.11 387.34,-1102.37"/>
</g>
<!-- a3 -->
<g id="node4" class="node">
<title>a3</title>
<path fill="#4d3a28" stroke="#6e6963" d="M454.4,-1008.38C454.4,-1008.38 305.6,-1008.38 305.6,-1008.38 299.6,-1008.38 293.6,-1002.38 293.6,-996.38 293.6,-996.38 293.6,-984.38 293.6,-984.38 293.6,-978.38 299.6,-972.38 305.6,-972.38 305.6,-972.38 454.4,-972.38 454.4,-972.38 460.4,-972.38 466.4,-978.38 466.4,-984.38 466.4,-984.38 466.4,-996.38 466.4,-996.38 466.4,-1002.38 460.4,-1008.38 454.4,-1008.38"/>
<text xml:space="preserve" text-anchor="middle" x="380" y="-993.62" font-family="Helvetica,sans-Serif" font-size="10.00" fill="#ece1d7">④ cursor::write final state</text>
<text xml:space="preserve" text-anchor="middle" x="380" y="-980.88" font-family="Helvetica,sans-Serif" font-size="10.00" fill="#ece1d7">(emitter_ack_lsn, drain_lsn, …)</text>
</g>
<!-- a2&#45;&gt;a3 -->
<g id="edge3" class="edge">
<title>a2&#45;&gt;a3</title>
<path fill="none" stroke="#c1a78e" d="M380.79,-1056.88C380.66,-1045.66 380.48,-1030.75 380.32,-1018"/>
<polygon fill="#c1a78e" stroke="#c1a78e" points="383.13,-1018.24 380.23,-1010.27 377.53,-1018.3 383.13,-1018.24"/>
</g>
<!-- a4 -->
<g id="node5" class="node">
<title>a4</title>
<path fill="#403a36" stroke="#6e6963" d="M454.4,-930.12C454.4,-930.12 305.6,-930.12 305.6,-930.12 299.6,-930.12 293.6,-924.12 293.6,-918.12 293.6,-918.12 293.6,-906.12 293.6,-906.12 293.6,-900.12 299.6,-894.12 305.6,-894.12 305.6,-894.12 454.4,-894.12 454.4,-894.12 460.4,-894.12 466.4,-900.12 466.4,-906.12 466.4,-906.12 466.4,-918.12 466.4,-918.12 466.4,-924.12 460.4,-930.12 454.4,-930.12"/>
<text xml:space="preserve" text-anchor="middle" x="380" y="-909" font-family="Helvetica,sans-Serif" font-size="10.00" fill="#ece1d7">⑤ process exit</text>
</g>
<!-- a3&#45;&gt;a4 -->
<g id="edge4" class="edge">
<title>a3&#45;&gt;a4</title>
<path fill="none" stroke="#c1a78e" d="M380,-972.07C380,-962.59 380,-950.62 380,-939.95"/>
<polygon fill="#c1a78e" stroke="#c1a78e" points="382.8,-940.14 380,-932.14 377.2,-940.14 382.8,-940.14"/>
</g>
<!-- a5 -->
<g id="node6" class="node">
<title>a5</title>
<path fill="#4d3a28" stroke="#6e6963" d="M480.88,-857C480.88,-857 275.12,-857 275.12,-857 269.12,-857 263.12,-851 263.12,-845 263.12,-845 263.12,-810 263.12,-810 263.12,-804 269.12,-798 275.12,-798 275.12,-798 480.88,-798 480.88,-798 486.88,-798 492.88,-804 492.88,-810 492.88,-810 492.88,-845 492.88,-845 492.88,-851 486.88,-857 480.88,-857"/>
<text xml:space="preserve" text-anchor="middle" x="378" y="-843.5" font-family="Helvetica,sans-Serif" font-size="10.00" fill="#ece1d7">⑥ restart:</text>
<text xml:space="preserve" text-anchor="middle" x="378" y="-830.75" font-family="Helvetica,sans-Serif" font-size="10.00" fill="#ece1d7">cursor::read → segment&#45;aligned resume_lsn</text>
<text xml:space="preserve" text-anchor="middle" x="378" y="-818" font-family="Helvetica,sans-Serif" font-size="10.00" fill="#ece1d7">load toast_retires.bin</text>
<text xml:space="preserve" text-anchor="middle" x="378" y="-805.25" font-family="Helvetica,sans-Serif" font-size="10.00" fill="#ece1d7">flush entries below resume floor</text>
</g>
<!-- a4&#45;&gt;a5 -->
<g id="edge5" class="edge">
<title>a4&#45;&gt;a5</title>
<path fill="none" stroke="#c1a78e" d="M379.59,-894.01C379.39,-886.06 379.16,-876.28 378.93,-866.72"/>
<polygon fill="#c1a78e" stroke="#c1a78e" points="381.73,-866.75 378.73,-858.82 376.13,-866.89 381.73,-866.75"/>
</g>
<!-- a6 -->
<g id="node7" class="node">
<title>a6</title>
<path fill="#3d4128" stroke="#6e6963" d="M454.25,-766C454.25,-766 295.75,-766 295.75,-766 289.75,-766 283.75,-760 283.75,-754 283.75,-754 283.75,-742 283.75,-742 283.75,-736 289.75,-730 295.75,-730 295.75,-730 454.25,-730 454.25,-730 460.25,-730 466.25,-736 466.25,-742 466.25,-742 466.25,-754 466.25,-754 466.25,-760 460.25,-766 454.25,-766"/>
<text xml:space="preserve" text-anchor="middle" x="375" y="-751.25" font-family="Helvetica,sans-Serif" font-size="10.00" fill="#ece1d7">⑦ Shadow::start in recovery mode</text>
<text xml:space="preserve" text-anchor="middle" x="375" y="-738.5" font-family="Helvetica,sans-Serif" font-size="10.00" fill="#ece1d7">(if not already running)</text>
</g>
<!-- a5&#45;&gt;a6 -->
<g id="edge6" class="edge">
<title>a5&#45;&gt;a6</title>
<path fill="none" stroke="#c1a78e" d="M376.88,-797.64C376.6,-790.42 376.3,-782.71 376.03,-775.61"/>
<polygon fill="#c1a78e" stroke="#c1a78e" points="378.84,-775.8 375.73,-767.91 373.24,-776.01 378.84,-775.8"/>
</g>
<!-- a7 -->
<g id="node8" class="node">
<title>a7</title>
<path fill="#4d3340" stroke="#6e6963" d="M448.4,-692.88C448.4,-692.88 299.6,-692.88 299.6,-692.88 293.6,-692.88 287.6,-686.88 287.6,-680.88 287.6,-680.88 287.6,-668.88 287.6,-668.88 287.6,-662.88 293.6,-656.88 299.6,-656.88 299.6,-656.88 448.4,-656.88 448.4,-656.88 454.4,-656.88 460.4,-662.88 460.4,-668.88 460.4,-668.88 460.4,-680.88 460.4,-680.88 460.4,-686.88 454.4,-692.88 448.4,-692.88"/>
<text xml:space="preserve" text-anchor="middle" x="374" y="-678.12" font-family="Helvetica,sans-Serif" font-size="10.00" fill="#ece1d7">⑧ walsender listener up</text>
<text xml:space="preserve" text-anchor="middle" x="374" y="-665.38" font-family="Helvetica,sans-Serif" font-size="10.00" fill="#ece1d7">before walreceiver connects</text>
</g>
<!-- a6&#45;&gt;a7 -->
<g id="edge7" class="edge">
<title>a6&#45;&gt;a7</title>
<path fill="none" stroke="#c1a78e" d="M374.76,-729.78C374.64,-721.57 374.5,-711.56 374.37,-702.41"/>
<polygon fill="#c1a78e" stroke="#c1a78e" points="377.17,-702.41 374.26,-694.45 371.57,-702.49 377.17,-702.41"/>
</g>
<!-- a8 -->
<g id="node9" class="node">
<title>a8</title>
<path fill="#4d3a28" stroke="#6e6963" d="M481.5,-614.62C481.5,-614.62 264.5,-614.62 264.5,-614.62 258.5,-614.62 252.5,-608.62 252.5,-602.62 252.5,-602.62 252.5,-590.62 252.5,-590.62 252.5,-584.62 258.5,-578.62 264.5,-578.62 264.5,-578.62 481.5,-578.62 481.5,-578.62 487.5,-578.62 493.5,-584.62 493.5,-590.62 493.5,-590.62 493.5,-602.62 493.5,-602.62 493.5,-608.62 487.5,-614.62 481.5,-614.62"/>
<text xml:space="preserve" text-anchor="middle" x="373" y="-599.88" font-family="Helvetica,sans-Serif" font-size="10.00" fill="#ece1d7">⑨ SourceFeed open</text>
<text xml:space="preserve" text-anchor="middle" x="373" y="-587.12" font-family="Helvetica,sans-Serif" font-size="10.00" fill="#ece1d7">START_REPLICATION PHYSICAL &lt;resume_lsn&gt;</text>
</g>
<!-- a7&#45;&gt;a8 -->
<g id="edge8" class="edge">
<title>a7&#45;&gt;a8</title>
<path fill="none" stroke="#c1a78e" d="M373.77,-656.57C373.65,-647.09 373.49,-635.12 373.35,-624.45"/>
<polygon fill="#c1a78e" stroke="#c1a78e" points="376.15,-624.6 373.25,-616.64 370.55,-624.67 376.15,-624.6"/>
</g>
<!-- a9 -->
<g id="node10" class="node">
<title>a9</title>
<path fill="#4d4128" stroke="#6e6963" d="M470.75,-541.5C470.75,-541.5 297.25,-541.5 297.25,-541.5 291.25,-541.5 285.25,-535.5 285.25,-529.5 285.25,-529.5 285.25,-517.5 285.25,-517.5 285.25,-511.5 291.25,-505.5 297.25,-505.5 297.25,-505.5 470.75,-505.5 470.75,-505.5 476.75,-505.5 482.75,-511.5 482.75,-517.5 482.75,-517.5 482.75,-529.5 482.75,-529.5 482.75,-535.5 476.75,-541.5 470.75,-541.5"/>
<text xml:space="preserve" text-anchor="middle" x="384" y="-526.75" font-family="Helvetica,sans-Serif" font-size="10.00" fill="#ece1d7">⑩ records re&#45;flow</text>
<text xml:space="preserve" text-anchor="middle" x="384" y="-514" font-family="Helvetica,sans-Serif" font-size="10.00" fill="#ece1d7">CH ReplacingMergeTree(_lsn) dedups</text>
</g>
<!-- a8&#45;&gt;a9 -->
<g id="edge9" class="edge">
<title>a8&#45;&gt;a9</title>
<path fill="none" stroke="#c1a78e" d="M375.66,-578.41C376.95,-570.11 378.51,-559.97 379.94,-550.74"/>
<polygon fill="#c1a78e" stroke="#c1a78e" points="382.67,-551.39 381.13,-543.05 377.14,-550.53 382.67,-551.39"/>
</g>
<!-- cursor_table -->
<g id="node28" class="node">
<title>cursor_table</title>
<path fill="#6e6963" stroke="none" d="M1024.25,-473.5C1024.25,-473.5 397.75,-473.5 397.75,-473.5 391.75,-473.5 385.75,-467.5 385.75,-461.5 385.75,-461.5 385.75,-279.5 385.75,-279.5 385.75,-273.5 391.75,-267.5 397.75,-267.5 397.75,-267.5 1024.25,-267.5 1024.25,-267.5 1030.25,-267.5 1036.25,-273.5 1036.25,-279.5 1036.25,-279.5 1036.25,-461.5 1036.25,-461.5 1036.25,-467.5 1030.25,-473.5 1024.25,-473.5"/>
<polygon fill="#4d3850" stroke="none" points="393.75,-444.75 393.75,-469.5 1028.25,-469.5 1028.25,-444.75 393.75,-444.75"/>
<polygon fill="none" stroke="#6e6963" points="393.75,-444.75 393.75,-469.5 1028.25,-469.5 1028.25,-444.75 393.75,-444.75"/>
<text xml:space="preserve" text-anchor="start" x="604.12" y="-455" font-family="Helvetica,sans-Serif" font-weight="bold" font-size="10.00" fill="#ece1d7">cursor.bin — 6 LSN fields (schema v2)</text>
<polygon fill="none" stroke="#6e6963" points="393.75,-420 393.75,-444.75 504.75,-444.75 504.75,-420 393.75,-420"/>
<text xml:space="preserve" text-anchor="start" x="436.5" y="-430.25" font-family="Helvetica,sans-Serif" font-weight="bold" font-size="10.00" fill="#ece1d7">field</text>
<polygon fill="none" stroke="#6e6963" points="504.75,-420 504.75,-444.75 712.5,-444.75 712.5,-420 504.75,-420"/>
<text xml:space="preserve" text-anchor="start" x="591.38" y="-430.25" font-family="Helvetica,sans-Serif" font-weight="bold" font-size="10.00" fill="#ece1d7">writer</text>
<polygon fill="none" stroke="#6e6963" points="712.5,-420 712.5,-444.75 903.75,-444.75 903.75,-420 712.5,-420"/>
<text xml:space="preserve" text-anchor="start" x="766.88" y="-430.25" font-family="Helvetica,sans-Serif" font-weight="bold" font-size="10.00" fill="#ece1d7">role on restart</text>
<polygon fill="none" stroke="#6e6963" points="903.75,-420 903.75,-444.75 1028.25,-444.75 1028.25,-420 903.75,-420"/>
<text xml:space="preserve" text-anchor="start" x="909.75" y="-430.25" font-family="Helvetica,sans-Serif" font-weight="bold" font-size="10.00" fill="#ece1d7">role in slot advance</text>
<polygon fill="none" stroke="#6e6963" points="393.75,-395.25 393.75,-420 504.75,-420 504.75,-395.25 393.75,-395.25"/>
<text xml:space="preserve" text-anchor="start" x="399.75" y="-404.25" font-family="Helvetica,sans-Serif" font-size="10.00" fill="#ece1d7">source_received_lsn</text>
<polygon fill="none" stroke="#6e6963" points="504.75,-395.25 504.75,-420 712.5,-420 712.5,-395.25 504.75,-395.25"/>
<text xml:space="preserve" text-anchor="start" x="563.62" y="-404.25" font-family="Helvetica,sans-Serif" font-size="10.00" fill="#ece1d7">SourceFeed::pump</text>
<polygon fill="none" stroke="#6e6963" points="712.5,-395.25 712.5,-420 903.75,-420 903.75,-395.25 712.5,-395.25"/>
<text xml:space="preserve" text-anchor="start" x="774.75" y="-404.25" font-family="Helvetica,sans-Serif" font-size="10.00" fill="#ece1d7">observational</text>
<polygon fill="none" stroke="#6e6963" points="903.75,-395.25 903.75,-420 1028.25,-420 1028.25,-395.25 903.75,-395.25"/>
<text xml:space="preserve" text-anchor="start" x="942.75" y="-404.25" font-family="Helvetica,sans-Serif" font-size="10.00" fill="#ece1d7">write LSN</text>
<polygon fill="none" stroke="#6e6963" points="393.75,-370.5 393.75,-395.25 504.75,-395.25 504.75,-370.5 393.75,-370.5"/>
<text xml:space="preserve" text-anchor="start" x="407.25" y="-379.5" font-family="Helvetica,sans-Serif" font-size="10.00" fill="#ece1d7">filter_durable_lsn</text>
<polygon fill="none" stroke="#6e6963" points="504.75,-370.5 504.75,-395.25 712.5,-395.25 712.5,-370.5 504.75,-370.5"/>
<text xml:space="preserve" text-anchor="start" x="536.25" y="-379.5" font-family="Helvetica,sans-Serif" font-size="10.00" fill="#ece1d7">DirSegmentSink::on_segment</text>
<polygon fill="none" stroke="#6e6963" points="712.5,-370.5 712.5,-395.25 903.75,-395.25 903.75,-370.5 712.5,-370.5"/>
<text xml:space="preserve" text-anchor="start" x="766.12" y="-379.5" font-family="Helvetica,sans-Serif" font-size="10.00" fill="#ece1d7">archive coverage</text>
<polygon fill="none" stroke="#6e6963" points="903.75,-370.5 903.75,-395.25 1028.25,-395.25 1028.25,-370.5 903.75,-370.5"/>
<text xml:space="preserve" text-anchor="start" x="943.5" y="-379.5" font-family="Helvetica,sans-Serif" font-size="10.00" fill="#ece1d7">flush LSN</text>
<polygon fill="none" stroke="#6e6963" points="393.75,-345.75 393.75,-370.5 504.75,-370.5 504.75,-345.75 393.75,-345.75"/>
<text xml:space="preserve" text-anchor="start" x="402.75" y="-354.75" font-family="Helvetica,sans-Serif" font-size="10.00" fill="#ece1d7">shadow_replay_lsn</text>
<polygon fill="none" stroke="#6e6963" points="504.75,-345.75 504.75,-370.5 712.5,-370.5 712.5,-345.75 504.75,-345.75"/>
<text xml:space="preserve" text-anchor="start" x="563.25" y="-354.75" font-family="Helvetica,sans-Serif" font-size="10.00" fill="#ece1d7">retention_sweeper</text>
<polygon fill="none" stroke="#6e6963" points="712.5,-345.75 712.5,-370.5 903.75,-370.5 903.75,-345.75 712.5,-345.75"/>
<text xml:space="preserve" text-anchor="start" x="756" y="-354.75" font-family="Helvetica,sans-Serif" font-size="10.00" fill="#ece1d7">bounds segment trim</text>
<polygon fill="none" stroke="#6e6963" points="903.75,-345.75 903.75,-370.5 1028.25,-370.5 1028.25,-345.75 903.75,-345.75"/>
<text xml:space="preserve" text-anchor="start" x="928.88" y="-354.75" font-family="Helvetica,sans-Serif" font-size="10.00" fill="#ece1d7">caps apply LSN</text>
<polygon fill="none" stroke="#6e6963" points="393.75,-321 393.75,-345.75 504.75,-345.75 504.75,-321 393.75,-321"/>
<text xml:space="preserve" text-anchor="start" x="427.12" y="-330" font-family="Helvetica,sans-Serif" font-size="10.00" fill="#ece1d7">drain_lsn</text>
<polygon fill="none" stroke="#6e6963" points="504.75,-321 504.75,-345.75 712.5,-345.75 712.5,-321 504.75,-321"/>
<text xml:space="preserve" text-anchor="start" x="561.38" y="-330" font-family="Helvetica,sans-Serif" font-size="10.00" fill="#ece1d7">XactBuffer::commit</text>
<polygon fill="none" stroke="#6e6963" points="712.5,-321 712.5,-345.75 903.75,-345.75 903.75,-321 712.5,-321"/>
<text xml:space="preserve" text-anchor="start" x="774.75" y="-330" font-family="Helvetica,sans-Serif" font-size="10.00" fill="#ece1d7">observational</text>
<polygon fill="none" stroke="#6e6963" points="903.75,-321 903.75,-345.75 1028.25,-345.75 1028.25,-321 903.75,-321"/>
<text xml:space="preserve" text-anchor="start" x="961.12" y="-330" font-family="Helvetica,sans-Serif" font-size="10.00" fill="#ece1d7">—</text>
<polygon fill="none" stroke="#6e6963" points="393.75,-296.25 393.75,-321 504.75,-321 504.75,-296.25 393.75,-296.25"/>
<text xml:space="preserve" text-anchor="start" x="405" y="-306.5" font-family="Helvetica,sans-Serif" font-weight="bold" font-size="10.00" fill="#ece1d7">emitter_ack_lsn</text>
<polygon fill="none" stroke="#6e6963" points="504.75,-296.25 504.75,-321 712.5,-321 712.5,-296.25 504.75,-296.25"/>
<text xml:space="preserve" text-anchor="start" x="510.75" y="-305.25" font-family="Helvetica,sans-Serif" font-size="10.00" fill="#ece1d7">pipeline ack collector (contiguous&#45;done)</text>
<polygon fill="none" stroke="#6e6963" points="712.5,-296.25 712.5,-321 903.75,-321 903.75,-296.25 712.5,-296.25"/>
<text xml:space="preserve" text-anchor="start" x="755.62" y="-306.5" font-family="Helvetica,sans-Serif" font-weight="bold" font-size="10.00" fill="#ece1d7">resume_lsn source</text>
<polygon fill="none" stroke="#6e6963" points="903.75,-296.25 903.75,-321 1028.25,-321 1028.25,-296.25 903.75,-296.25"/>
<text xml:space="preserve" text-anchor="start" x="922.12" y="-306.5" font-family="Helvetica,sans-Serif" font-weight="bold" font-size="10.00" fill="#ece1d7">caps apply LSN</text>
<polygon fill="none" stroke="#6e6963" points="393.75,-271.5 393.75,-296.25 504.75,-296.25 504.75,-271.5 393.75,-271.5"/>
<text xml:space="preserve" text-anchor="start" x="406.5" y="-280.5" font-family="Helvetica,sans-Serif" font-size="10.00" fill="#ece1d7">shadow_flush_lsn</text>
<polygon fill="none" stroke="#6e6963" points="504.75,-271.5 504.75,-296.25 712.5,-296.25 712.5,-271.5 504.75,-271.5"/>
<text xml:space="preserve" text-anchor="start" x="544.5" y="-280.5" font-family="Helvetica,sans-Serif" font-size="10.00" fill="#ece1d7">walsender rx &#39;r&#39; aggregate</text>
<polygon fill="none" stroke="#6e6963" points="712.5,-271.5 712.5,-296.25 903.75,-296.25 903.75,-271.5 712.5,-271.5"/>
<text xml:space="preserve" text-anchor="start" x="718.5" y="-280.5" font-family="Helvetica,sans-Serif" font-size="10.00" fill="#ece1d7">streaming&#45;fed shadow resumes here</text>
<polygon fill="none" stroke="#6e6963" points="903.75,-271.5 903.75,-296.25 1028.25,-296.25 1028.25,-271.5 903.75,-271.5"/>
<text xml:space="preserve" text-anchor="start" x="961.12" y="-280.5" font-family="Helvetica,sans-Serif" font-size="10.00" fill="#ece1d7">—</text>
</g>
<!-- a9&#45;&gt;cursor_table -->
<!-- b1 -->
<g id="node12" class="node">
<title>b1</title>
<path fill="#4d3a28" stroke="#6e6963" d="M791.75,-1104.5C791.75,-1104.5 630.25,-1104.5 630.25,-1104.5 624.25,-1104.5 618.25,-1098.5 618.25,-1092.5 618.25,-1092.5 618.25,-1057.5 618.25,-1057.5 618.25,-1051.5 624.25,-1045.5 630.25,-1045.5 630.25,-1045.5 791.75,-1045.5 791.75,-1045.5 797.75,-1045.5 803.75,-1051.5 803.75,-1057.5 803.75,-1057.5 803.75,-1092.5 803.75,-1092.5 803.75,-1098.5 797.75,-1104.5 791.75,-1104.5"/>
<text xml:space="preserve" text-anchor="middle" x="711" y="-1091" font-family="Helvetica,sans-Serif" font-size="10.00" fill="#ece1d7">② OS reaps process</text>
<text xml:space="preserve" text-anchor="middle" x="711" y="-1078.25" font-family="Helvetica,sans-Serif" font-size="10.00" fill="#ece1d7">buffers lost; cursor.bin = last fsync</text>
<text xml:space="preserve" text-anchor="middle" x="711" y="-1065.5" font-family="Helvetica,sans-Serif" font-size="10.00" fill="#ece1d7">spill files on disk</text>
<text xml:space="preserve" text-anchor="middle" x="711" y="-1052.75" font-family="Helvetica,sans-Serif" font-size="10.00" fill="#ece1d7">partial segment write rolled back</text>
</g>
<!-- b0&#45;&gt;b1 -->
<g id="edge10" class="edge">
<title>b0&#45;&gt;b1</title>
<path fill="none" stroke="#c1a78e" d="M711,-1141.51C711,-1133.56 711,-1123.78 711,-1114.22"/>
<polygon fill="#c1a78e" stroke="#c1a78e" points="713.8,-1114.32 711,-1106.32 708.2,-1114.32 713.8,-1114.32"/>
</g>
<!-- c0 -->
<g id="node20" class="node">
<title>c0</title>
<path fill="#403a36" stroke="#6e6963" d="M1088.4,-1093C1088.4,-1093 939.6,-1093 939.6,-1093 933.6,-1093 927.6,-1087 927.6,-1081 927.6,-1081 927.6,-1069 927.6,-1069 927.6,-1063 933.6,-1057 939.6,-1057 939.6,-1057 1088.4,-1057 1088.4,-1057 1094.4,-1057 1100.4,-1063 1100.4,-1069 1100.4,-1069 1100.4,-1081 1100.4,-1081 1100.4,-1087 1094.4,-1093 1088.4,-1093"/>
<text xml:space="preserve" text-anchor="middle" x="1014" y="-1071.88" font-family="Helvetica,sans-Serif" font-size="10.00" fill="#ece1d7">① extended downtime</text>
</g>
<!-- b0&#45;&gt;c0 -->
<!-- b2 -->
<g id="node13" class="node">
<title>b2</title>
<path fill="#4d3a28" stroke="#6e6963" d="M785.4,-1013.5C785.4,-1013.5 636.6,-1013.5 636.6,-1013.5 630.6,-1013.5 624.6,-1007.5 624.6,-1001.5 624.6,-1001.5 624.6,-979.25 624.6,-979.25 624.6,-973.25 630.6,-967.25 636.6,-967.25 636.6,-967.25 785.4,-967.25 785.4,-967.25 791.4,-967.25 797.4,-973.25 797.4,-979.25 797.4,-979.25 797.4,-1001.5 797.4,-1001.5 797.4,-1007.5 791.4,-1013.5 785.4,-1013.5"/>
<text xml:space="preserve" text-anchor="middle" x="711" y="-1000" font-family="Helvetica,sans-Serif" font-size="10.00" fill="#ece1d7">③ restart:</text>
<text xml:space="preserve" text-anchor="middle" x="711" y="-987.25" font-family="Helvetica,sans-Serif" font-size="10.00" fill="#ece1d7">spill::clear() wipes xid&#45;*.bin</text>
<text xml:space="preserve" text-anchor="middle" x="711" y="-974.5" font-family="Helvetica,sans-Serif" font-size="10.00" fill="#ece1d7">toast_retires.bin survives</text>
</g>
<!-- b1&#45;&gt;b2 -->
<g id="edge11" class="edge">
<title>b1&#45;&gt;b2</title>
<path fill="none" stroke="#c1a78e" d="M711,-1045.1C711,-1038.06 711,-1030.49 711,-1023.32"/>
<polygon fill="#c1a78e" stroke="#c1a78e" points="713.8,-1023.39 711,-1015.39 708.2,-1023.39 713.8,-1023.39"/>
</g>
<!-- b3 -->
<g id="node14" class="node">
<title>b3</title>
<path fill="#4d3a28" stroke="#6e6963" d="M814.25,-935.25C814.25,-935.25 607.75,-935.25 607.75,-935.25 601.75,-935.25 595.75,-929.25 595.75,-923.25 595.75,-923.25 595.75,-901 595.75,-901 595.75,-895 601.75,-889 607.75,-889 607.75,-889 814.25,-889 814.25,-889 820.25,-889 826.25,-895 826.25,-901 826.25,-901 826.25,-923.25 826.25,-923.25 826.25,-929.25 820.25,-935.25 814.25,-935.25"/>
<text xml:space="preserve" text-anchor="middle" x="711" y="-921.75" font-family="Helvetica,sans-Serif" font-size="10.00" fill="#ece1d7">④ cursor::read</text>
<text xml:space="preserve" text-anchor="middle" x="711" y="-909" font-family="Helvetica,sans-Serif" font-size="10.00" fill="#ece1d7">resume_lsn = segment&#45;aligned emitter_ack</text>
<text xml:space="preserve" text-anchor="middle" x="711" y="-896.25" font-family="Helvetica,sans-Serif" font-size="10.00" fill="#ece1d7">flush due toast mirror retires</text>
</g>
<!-- b2&#45;&gt;b3 -->
<g id="edge12" class="edge">
<title>b2&#45;&gt;b3</title>
<path fill="none" stroke="#c1a78e" d="M711,-966.91C711,-959.99 711,-952.24 711,-944.82"/>
<polygon fill="#c1a78e" stroke="#c1a78e" points="713.8,-945.21 711,-937.21 708.2,-945.21 713.8,-945.21"/>
</g>
<!-- b4 -->
<g id="node15" class="node">
<title>b4</title>
<path fill="#3d4128" stroke="#6e6963" d="M789.12,-845.5C789.12,-845.5 632.88,-845.5 632.88,-845.5 626.88,-845.5 620.88,-839.5 620.88,-833.5 620.88,-833.5 620.88,-821.5 620.88,-821.5 620.88,-815.5 626.88,-809.5 632.88,-809.5 632.88,-809.5 789.12,-809.5 789.12,-809.5 795.12,-809.5 801.12,-815.5 801.12,-821.5 801.12,-821.5 801.12,-833.5 801.12,-833.5 801.12,-839.5 795.12,-845.5 789.12,-845.5"/>
<text xml:space="preserve" text-anchor="middle" x="711" y="-830.75" font-family="Helvetica,sans-Serif" font-size="10.00" fill="#ece1d7">⑤ shadow PG recovers on its own</text>
<text xml:space="preserve" text-anchor="middle" x="711" y="-818" font-family="Helvetica,sans-Serif" font-size="10.00" fill="#ece1d7">walreceiver retry timer</text>
</g>
<!-- b3&#45;&gt;b4 -->
<g id="edge13" class="edge">
<title>b3&#45;&gt;b4</title>
<path fill="none" stroke="#c1a78e" d="M711,-888.55C711,-878.23 711,-865.94 711,-855.17"/>
<polygon fill="#c1a78e" stroke="#c1a78e" points="713.8,-855.32 711,-847.32 708.2,-855.32 713.8,-855.32"/>
</g>
<!-- b5 -->
<g id="node16" class="node">
<title>b5</title>
<path fill="#3d4128" stroke="#6e6963" d="M795.5,-766C795.5,-766 626.5,-766 626.5,-766 620.5,-766 614.5,-760 614.5,-754 614.5,-754 614.5,-742 614.5,-742 614.5,-736 620.5,-730 626.5,-730 626.5,-730 795.5,-730 795.5,-730 801.5,-730 807.5,-736 807.5,-742 807.5,-742 807.5,-754 807.5,-754 807.5,-760 801.5,-766 795.5,-766"/>
<text xml:space="preserve" text-anchor="middle" x="711" y="-751.25" font-family="Helvetica,sans-Serif" font-size="10.00" fill="#ece1d7">⑥ shadow asks START_REPLICATION</text>
<text xml:space="preserve" text-anchor="middle" x="711" y="-738.5" font-family="Helvetica,sans-Serif" font-size="10.00" fill="#ece1d7">PHYSICAL &lt;its flush_lsn&gt;</text>
</g>
<!-- b4&#45;&gt;b5 -->
<g id="edge14" class="edge">
<title>b4&#45;&gt;b5</title>
<path fill="none" stroke="#c1a78e" d="M711,-809.3C711,-799.44 711,-786.84 711,-775.71"/>
<polygon fill="#c1a78e" stroke="#c1a78e" points="713.8,-775.93 711,-767.93 708.2,-775.93 713.8,-775.93"/>
</g>
<!-- b6 -->
<g id="node17" class="node">
<title>b6</title>
<path fill="#4d3a28" stroke="#6e6963" d="M796.25,-698C796.25,-698 625.75,-698 625.75,-698 619.75,-698 613.75,-692 613.75,-686 613.75,-686 613.75,-663.75 613.75,-663.75 613.75,-657.75 619.75,-651.75 625.75,-651.75 625.75,-651.75 796.25,-651.75 796.25,-651.75 802.25,-651.75 808.25,-657.75 808.25,-663.75 808.25,-663.75 808.25,-686 808.25,-686 808.25,-692 802.25,-698 796.25,-698"/>
<text xml:space="preserve" text-anchor="middle" x="711" y="-684.5" font-family="Helvetica,sans-Serif" font-size="10.00" fill="#ece1d7">⑦ walshadow honours both:</text>
<text xml:space="preserve" text-anchor="middle" x="711" y="-671.75" font-family="Helvetica,sans-Serif" font-size="10.00" fill="#ece1d7">• upstream feed at resume_lsn</text>
<text xml:space="preserve" text-anchor="middle" x="711" y="-659" font-family="Helvetica,sans-Serif" font-size="10.00" fill="#ece1d7">• shadow feed at shadow&#39;s flush_lsn</text>
</g>
<!-- b5&#45;&gt;b6 -->
<g id="edge15" class="edge">
<title>b5&#45;&gt;b6</title>
<path fill="none" stroke="#c1a78e" d="M711,-729.78C711,-723.13 711,-715.31 711,-707.71"/>
<polygon fill="#c1a78e" stroke="#c1a78e" points="713.8,-707.83 711,-699.83 708.2,-707.83 713.8,-707.83"/>
</g>
<!-- b7 -->
<g id="node18" class="node">
<title>b7</title>
<path fill="#4d4128" stroke="#6e6963" d="M785.4,-619.75C785.4,-619.75 636.6,-619.75 636.6,-619.75 630.6,-619.75 624.6,-613.75 624.6,-607.75 624.6,-607.75 624.6,-585.5 624.6,-585.5 624.6,-579.5 630.6,-573.5 636.6,-573.5 636.6,-573.5 785.4,-573.5 785.4,-573.5 791.4,-573.5 797.4,-579.5 797.4,-585.5 797.4,-585.5 797.4,-607.75 797.4,-607.75 797.4,-613.75 791.4,-619.75 785.4,-619.75"/>
<text xml:space="preserve" text-anchor="middle" x="711" y="-606.25" font-family="Helvetica,sans-Serif" font-size="10.00" fill="#ece1d7">⑧ overlap records replayed</text>
<text xml:space="preserve" text-anchor="middle" x="711" y="-593.5" font-family="Helvetica,sans-Serif" font-size="10.00" fill="#ece1d7">CH dedups on _lsn</text>
<text xml:space="preserve" text-anchor="middle" x="711" y="-580.75" font-family="Helvetica,sans-Serif" font-size="10.00" fill="#ece1d7">shadow apply monotonic</text>
</g>
<!-- b6&#45;&gt;b7 -->
<g id="edge16" class="edge">
<title>b6&#45;&gt;b7</title>
<path fill="none" stroke="#c1a78e" d="M711,-651.41C711,-644.49 711,-636.74 711,-629.32"/>
<polygon fill="#c1a78e" stroke="#c1a78e" points="713.8,-629.71 711,-621.71 708.2,-629.71 713.8,-629.71"/>
</g>
<!-- b8 -->
<g id="node19" class="node">
<title>b8</title>
<path fill="#4d3a28" stroke="#6e6963" d="M785.4,-541.5C785.4,-541.5 636.6,-541.5 636.6,-541.5 630.6,-541.5 624.6,-535.5 624.6,-529.5 624.6,-529.5 624.6,-517.5 624.6,-517.5 624.6,-511.5 630.6,-505.5 636.6,-505.5 636.6,-505.5 785.4,-505.5 785.4,-505.5 791.4,-505.5 797.4,-511.5 797.4,-517.5 797.4,-517.5 797.4,-529.5 797.4,-529.5 797.4,-535.5 791.4,-541.5 785.4,-541.5"/>
<text xml:space="preserve" text-anchor="middle" x="711" y="-520.38" font-family="Helvetica,sans-Serif" font-size="10.00" fill="#ece1d7">⑨ steady&#45;state reached</text>
</g>
<!-- b7&#45;&gt;b8 -->
<g id="edge17" class="edge">
<title>b7&#45;&gt;b8</title>
<path fill="none" stroke="#c1a78e" d="M711,-573.12C711,-566.18 711,-558.47 711,-551.28"/>
<polygon fill="#c1a78e" stroke="#c1a78e" points="713.8,-551.41 711,-543.41 708.2,-551.41 713.8,-551.41"/>
</g>
<!-- b8&#45;&gt;cursor_table -->
<!-- c1 -->
<g id="node21" class="node">
<title>c1</title>
<path fill="#4d3a28" stroke="#6e6963" d="M1133.88,-1013.5C1133.88,-1013.5 940.12,-1013.5 940.12,-1013.5 934.12,-1013.5 928.12,-1007.5 928.12,-1001.5 928.12,-1001.5 928.12,-979.25 928.12,-979.25 928.12,-973.25 934.12,-967.25 940.12,-967.25 940.12,-967.25 1133.88,-967.25 1133.88,-967.25 1139.88,-967.25 1145.88,-973.25 1145.88,-979.25 1145.88,-979.25 1145.88,-1001.5 1145.88,-1001.5 1145.88,-1007.5 1139.88,-1013.5 1133.88,-1013.5"/>
<text xml:space="preserve" text-anchor="middle" x="1037" y="-1000" font-family="Helvetica,sans-Serif" font-size="10.00" fill="#ece1d7">② restart:</text>
<text xml:space="preserve" text-anchor="middle" x="1037" y="-987.25" font-family="Helvetica,sans-Serif" font-size="10.00" fill="#ece1d7">SourceFeed::START_REPLICATION →</text>
<text xml:space="preserve" text-anchor="middle" x="1037" y="-974.5" font-family="Helvetica,sans-Serif" font-size="10.00" fill="#ece1d7">ERROR requested WAL segment removed</text>
</g>
<!-- c0&#45;&gt;c1 -->
<g id="edge18" class="edge">
<title>c0&#45;&gt;c1</title>
<path fill="none" stroke="#c1a78e" d="M1018.77,-1056.88C1021.51,-1047.03 1025.04,-1034.36 1028.26,-1022.78"/>
<polygon fill="#c1a78e" stroke="#c1a78e" points="1030.9,-1023.73 1030.35,-1015.27 1025.51,-1022.22 1030.9,-1023.73"/>
</g>
<!-- c2 -->
<g id="node22" class="node">
<title>c2</title>
<path fill="#4d3a28" stroke="#6e6963" d="M1110.4,-935.25C1110.4,-935.25 961.6,-935.25 961.6,-935.25 955.6,-935.25 949.6,-929.25 949.6,-923.25 949.6,-923.25 949.6,-901 949.6,-901 949.6,-895 955.6,-889 961.6,-889 961.6,-889 1110.4,-889 1110.4,-889 1116.4,-889 1122.4,-895 1122.4,-901 1122.4,-901 1122.4,-923.25 1122.4,-923.25 1122.4,-929.25 1116.4,-935.25 1110.4,-935.25"/>
<text xml:space="preserve" text-anchor="middle" x="1036" y="-921.75" font-family="Helvetica,sans-Serif" font-size="10.00" fill="#ece1d7">③ daemon poisons</text>
<text xml:space="preserve" text-anchor="middle" x="1036" y="-909" font-family="Helvetica,sans-Serif" font-size="10.00" fill="#ece1d7">log ReplayTimeout / WAL gap</text>
<text xml:space="preserve" text-anchor="middle" x="1036" y="-896.25" font-family="Helvetica,sans-Serif" font-size="10.00" fill="#ece1d7">exit non&#45;zero</text>
</g>
<!-- c1&#45;&gt;c2 -->
<g id="edge19" class="edge">
<title>c1&#45;&gt;c2</title>
<path fill="none" stroke="#c1a78e" d="M1036.71,-966.91C1036.61,-959.99 1036.51,-952.24 1036.42,-944.82"/>
<polygon fill="#c1a78e" stroke="#c1a78e" points="1039.22,-945.17 1036.32,-937.21 1033.62,-945.24 1039.22,-945.17"/>
</g>
<!-- c3 -->
<g id="node23" class="node">
<title>c3</title>
<path fill="#403a36" stroke="#6e6963" d="M1110.4,-850.62C1110.4,-850.62 961.6,-850.62 961.6,-850.62 955.6,-850.62 949.6,-844.62 949.6,-838.62 949.6,-838.62 949.6,-816.38 949.6,-816.38 949.6,-810.38 955.6,-804.38 961.6,-804.38 961.6,-804.38 1110.4,-804.38 1110.4,-804.38 1116.4,-804.38 1122.4,-810.38 1122.4,-816.38 1122.4,-816.38 1122.4,-838.62 1122.4,-838.62 1122.4,-844.62 1116.4,-850.62 1110.4,-850.62"/>
<text xml:space="preserve" text-anchor="middle" x="1036" y="-837.12" font-family="Helvetica,sans-Serif" font-size="10.00" fill="#ece1d7">④ operator re&#45;invokes</text>
<text xml:space="preserve" text-anchor="middle" x="1036" y="-824.38" font-family="Helvetica,sans-Serif" font-size="10.00" fill="#ece1d7">&#45;&#45;bootstrap&#45;mode=direct</text>
<text xml:space="preserve" text-anchor="middle" x="1036" y="-811.62" font-family="Helvetica,sans-Serif" font-size="10.00" fill="#ece1d7">(or object_store)</text>
</g>
<!-- c2&#45;&gt;c3 -->
<g id="edge20" class="edge">
<title>c2&#45;&gt;c3</title>
<path fill="none" stroke="#c1a78e" d="M1036,-888.55C1036,-879.89 1036,-869.85 1036,-860.48"/>
<polygon fill="#c1a78e" stroke="#c1a78e" points="1038.8,-860.56 1036,-852.56 1033.2,-860.56 1038.8,-860.56"/>
</g>
<!-- c4 -->
<g id="node24" class="node">
<title>c4</title>
<path fill="#4d3a28" stroke="#6e6963" d="M1109.4,-766C1109.4,-766 960.6,-766 960.6,-766 954.6,-766 948.6,-760 948.6,-754 948.6,-754 948.6,-742 948.6,-742 948.6,-736 954.6,-730 960.6,-730 960.6,-730 1109.4,-730 1109.4,-730 1115.4,-730 1121.4,-736 1121.4,-742 1121.4,-742 1121.4,-754 1121.4,-754 1121.4,-760 1115.4,-766 1109.4,-766"/>
<text xml:space="preserve" text-anchor="middle" x="1035" y="-751.25" font-family="Helvetica,sans-Serif" font-size="10.00" fill="#ece1d7">⑤ greenfield bootstrap path</text>
<text xml:space="preserve" text-anchor="middle" x="1035" y="-738.5" font-family="Helvetica,sans-Serif" font-size="10.00" fill="#ece1d7">(→ timeline_bootstrap)</text>
</g>
<!-- c3&#45;&gt;c4 -->
<g id="edge21" class="edge">
<title>c3&#45;&gt;c4</title>
<path fill="none" stroke="#c1a78e" d="M1035.71,-804.08C1035.6,-795.29 1035.47,-785.11 1035.35,-775.92"/>
<polygon fill="#c1a78e" stroke="#c1a78e" points="1038.15,-775.92 1035.24,-767.96 1032.55,-775.99 1038.15,-775.92"/>
</g>
<!-- c5 -->
<g id="node25" class="node">
<title>c5</title>
<path fill="#3d4128" stroke="#6e6963" d="M1108.4,-692.88C1108.4,-692.88 959.6,-692.88 959.6,-692.88 953.6,-692.88 947.6,-686.88 947.6,-680.88 947.6,-680.88 947.6,-668.88 947.6,-668.88 947.6,-662.88 953.6,-656.88 959.6,-656.88 959.6,-656.88 1108.4,-656.88 1108.4,-656.88 1114.4,-656.88 1120.4,-662.88 1120.4,-668.88 1120.4,-668.88 1120.4,-680.88 1120.4,-680.88 1120.4,-686.88 1114.4,-692.88 1108.4,-692.88"/>
<text xml:space="preserve" text-anchor="middle" x="1034" y="-678.12" font-family="Helvetica,sans-Serif" font-size="10.00" fill="#ece1d7">⑥ shadow data dir wiped</text>
<text xml:space="preserve" text-anchor="middle" x="1034" y="-665.38" font-family="Helvetica,sans-Serif" font-size="10.00" fill="#ece1d7">or diverted to fresh dir</text>
</g>
<!-- c4&#45;&gt;c5 -->
<g id="edge22" class="edge">
<title>c4&#45;&gt;c5</title>
<path fill="none" stroke="#c1a78e" d="M1034.76,-729.78C1034.64,-721.57 1034.5,-711.56 1034.37,-702.41"/>
<polygon fill="#c1a78e" stroke="#c1a78e" points="1037.17,-702.41 1034.26,-694.45 1031.57,-702.49 1037.17,-702.41"/>
</g>
<!-- c6 -->
<g id="node26" class="node">
<title>c6</title>
<path fill="#4d3a28" stroke="#6e6963" d="M1105.4,-614.62C1105.4,-614.62 956.6,-614.62 956.6,-614.62 950.6,-614.62 944.6,-608.62 944.6,-602.62 944.6,-602.62 944.6,-590.62 944.6,-590.62 944.6,-584.62 950.6,-578.62 956.6,-578.62 956.6,-578.62 1105.4,-578.62 1105.4,-578.62 1111.4,-578.62 1117.4,-584.62 1117.4,-590.62 1117.4,-590.62 1117.4,-602.62 1117.4,-602.62 1117.4,-608.62 1111.4,-614.62 1105.4,-614.62"/>
<text xml:space="preserve" text-anchor="middle" x="1031" y="-599.88" font-family="Helvetica,sans-Serif" font-size="10.00" fill="#ece1d7">⑦ new cursor.bin written</text>
<text xml:space="preserve" text-anchor="middle" x="1031" y="-587.12" font-family="Helvetica,sans-Serif" font-size="10.00" fill="#ece1d7">at end_lsn</text>
</g>
<!-- c5&#45;&gt;c6 -->
<g id="edge23" class="edge">
<title>c5&#45;&gt;c6</title>
<path fill="none" stroke="#c1a78e" d="M1033.32,-656.57C1032.95,-647.09 1032.48,-635.12 1032.06,-624.45"/>
<polygon fill="#c1a78e" stroke="#c1a78e" points="1034.86,-624.52 1031.75,-616.64 1029.26,-624.74 1034.86,-624.52"/>
</g>
<!-- c7 -->
<g id="node27" class="node">
<title>c7</title>
<path fill="#4d4128" stroke="#6e6963" d="M1099.4,-541.5C1099.4,-541.5 950.6,-541.5 950.6,-541.5 944.6,-541.5 938.6,-535.5 938.6,-529.5 938.6,-529.5 938.6,-517.5 938.6,-517.5 938.6,-511.5 944.6,-505.5 950.6,-505.5 950.6,-505.5 1099.4,-505.5 1099.4,-505.5 1105.4,-505.5 1111.4,-511.5 1111.4,-517.5 1111.4,-517.5 1111.4,-529.5 1111.4,-529.5 1111.4,-535.5 1105.4,-541.5 1099.4,-541.5"/>
<text xml:space="preserve" text-anchor="middle" x="1025" y="-520.38" font-family="Helvetica,sans-Serif" font-size="10.00" fill="#ece1d7">⑧ steady&#45;state reached</text>
</g>
<!-- c6&#45;&gt;c7 -->
<g id="edge24" class="edge">
<title>c6&#45;&gt;c7</title>
<path fill="none" stroke="#c1a78e" d="M1029.55,-578.41C1028.85,-570.2 1028.01,-560.19 1027.24,-551.03"/>
<polygon fill="#c1a78e" stroke="#c1a78e" points="1030.03,-550.8 1026.57,-543.07 1024.45,-551.27 1030.03,-550.8"/>
</g>
<!-- c7&#45;&gt;cursor_table -->
<!-- legend -->
<g id="node29" class="node">
<title>legend</title>
<path fill="#6e6963" stroke="none" d="M823.88,-235.5C823.88,-235.5 598.12,-235.5 598.12,-235.5 592.12,-235.5 586.12,-229.5 586.12,-223.5 586.12,-223.5 586.12,-12 586.12,-12 586.12,-6 592.12,0 598.12,0 598.12,0 823.88,0 823.88,0 829.88,0 835.88,-6 835.88,-12 835.88,-12 835.88,-223.5 835.88,-223.5 835.88,-229.5 829.88,-235.5 823.88,-235.5"/>
<polygon fill="#34302c" stroke="none" points="594.12,-208.75 594.12,-231.5 827.88,-231.5 827.88,-208.75 594.12,-208.75"/>
<polygon fill="none" stroke="#6e6963" points="594.12,-208.75 594.12,-231.5 827.88,-231.5 827.88,-208.75 594.12,-208.75"/>
<text xml:space="preserve" text-anchor="start" x="687.75" y="-218" font-family="Helvetica,sans-Serif" font-weight="bold" font-size="10.00" fill="#ece1d7">node fill</text>
<polygon fill="#403a36" stroke="none" points="594.12,-186 594.12,-208.75 622.12,-208.75 622.12,-186 594.12,-186"/>
<polygon fill="none" stroke="#6e6963" points="594.12,-186 594.12,-208.75 622.12,-208.75 622.12,-186 594.12,-186"/>
<polygon fill="none" stroke="#6e6963" points="622.12,-186 622.12,-208.75 827.88,-208.75 827.88,-186 622.12,-186"/>
<text xml:space="preserve" text-anchor="start" x="677.75" y="-194" font-family="Helvetica,sans-Serif" font-size="10.00" fill="#ece1d7">operator / OS event</text>
<polygon fill="#4d3a28" stroke="none" points="594.12,-163.25 594.12,-186 622.12,-186 622.12,-163.25 594.12,-163.25"/>
<polygon fill="none" stroke="#6e6963" points="594.12,-163.25 594.12,-186 622.12,-186 622.12,-163.25 594.12,-163.25"/>
<polygon fill="none" stroke="#6e6963" points="622.12,-163.25 622.12,-186 827.88,-186 827.88,-163.25 622.12,-163.25"/>
<text xml:space="preserve" text-anchor="start" x="678.5" y="-171.25" font-family="Helvetica,sans-Serif" font-size="10.00" fill="#ece1d7">walshadow&#45;stream</text>
<polygon fill="#4d3340" stroke="none" points="594.12,-140.5 594.12,-163.25 622.12,-163.25 622.12,-140.5 594.12,-140.5"/>
<polygon fill="none" stroke="#6e6963" points="594.12,-140.5 594.12,-163.25 622.12,-163.25 622.12,-140.5 594.12,-140.5"/>
<polygon fill="none" stroke="#6e6963" points="622.12,-140.5 622.12,-163.25 827.88,-163.25 827.88,-140.5 622.12,-140.5"/>
<text xml:space="preserve" text-anchor="start" x="627.12" y="-148.5" font-family="Helvetica,sans-Serif" font-size="10.00" fill="#ece1d7">walshadow — segment / walsender side</text>
<polygon fill="#3d4128" stroke="none" points="594.12,-117.75 594.12,-140.5 622.12,-140.5 622.12,-117.75 594.12,-117.75"/>
<polygon fill="none" stroke="#6e6963" points="594.12,-117.75 594.12,-140.5 622.12,-140.5 622.12,-117.75 594.12,-117.75"/>
<polygon fill="none" stroke="#6e6963" points="622.12,-117.75 622.12,-140.5 827.88,-140.5 827.88,-117.75 622.12,-117.75"/>
<text xml:space="preserve" text-anchor="start" x="683.75" y="-125.75" font-family="Helvetica,sans-Serif" font-size="10.00" fill="#ece1d7">shadow Postgres</text>
<polygon fill="#4d4128" stroke="none" points="594.12,-95 594.12,-117.75 622.12,-117.75 622.12,-95 594.12,-95"/>
<polygon fill="none" stroke="#6e6963" points="594.12,-95 594.12,-117.75 622.12,-117.75 622.12,-95 594.12,-95"/>
<polygon fill="none" stroke="#6e6963" points="622.12,-95 622.12,-117.75 827.88,-117.75 827.88,-95 622.12,-95"/>
<text xml:space="preserve" text-anchor="start" x="654.5" y="-103" font-family="Helvetica,sans-Serif" font-size="10.00" fill="#ece1d7">ClickHouse (dedup endpoint)</text>
<polygon fill="#34302c" stroke="none" points="594.12,-72.25 594.12,-95 827.88,-95 827.88,-72.25 594.12,-72.25"/>
<polygon fill="none" stroke="#6e6963" points="594.12,-72.25 594.12,-95 827.88,-95 827.88,-72.25 594.12,-72.25"/>
<text xml:space="preserve" text-anchor="start" x="644.25" y="-81.5" font-family="Helvetica,sans-Serif" font-weight="bold" font-size="10.00" fill="#ece1d7">scenario cluster border</text>
<polygon fill="none" stroke="#6e6963" points="594.12,-49.5 594.12,-72.25 622.12,-72.25 622.12,-49.5 594.12,-49.5"/>
<text xml:space="preserve" text-anchor="start" x="605.12" y="-58.75" font-family="Helvetica,sans-Serif" font-weight="bold" font-size="10.00" fill="#a1a9cc">━</text>
<polygon fill="none" stroke="#6e6963" points="622.12,-49.5 622.12,-72.25 827.88,-72.25 827.88,-49.5 622.12,-49.5"/>
<text xml:space="preserve" text-anchor="start" x="660.5" y="-57.5" font-family="Helvetica,sans-Serif" font-size="10.00" fill="#ece1d7">A. clean restart (SIGTERM)</text>
<polygon fill="none" stroke="#6e6963" points="594.12,-26.75 594.12,-49.5 622.12,-49.5 622.12,-26.75 594.12,-26.75"/>
<text xml:space="preserve" text-anchor="start" x="605.12" y="-36" font-family="Helvetica,sans-Serif" font-weight="bold" font-size="10.00" fill="#cba85e">━</text>
<polygon fill="none" stroke="#6e6963" points="622.12,-26.75 622.12,-49.5 827.88,-49.5 827.88,-26.75 622.12,-26.75"/>
<text xml:space="preserve" text-anchor="start" x="674.75" y="-34.75" font-family="Helvetica,sans-Serif" font-size="10.00" fill="#ece1d7">B. kill &#45;9 mid&#45;stream</text>
<polygon fill="none" stroke="#6e6963" points="594.12,-4 594.12,-26.75 622.12,-26.75 622.12,-4 594.12,-4"/>
<text xml:space="preserve" text-anchor="start" x="605.12" y="-13.25" font-family="Helvetica,sans-Serif" font-weight="bold" font-size="10.00" fill="#bd8183">━</text>
<polygon fill="none" stroke="#6e6963" points="622.12,-4 622.12,-26.75 827.88,-26.75 827.88,-4 622.12,-4"/>
<text xml:space="preserve" text-anchor="start" x="648.5" y="-12" font-family="Helvetica,sans-Serif" font-size="10.00" fill="#ece1d7">C. WAL overflow → re&#45;bootstrap</text>
</g>
<!-- cursor_table&#45;&gt;legend -->
</g>
</svg>
