<?xml version="1.0" encoding="UTF-8" standalone="no"?>
<!DOCTYPE svg PUBLIC "-//W3C//DTD SVG 1.1//EN"
 "http://www.w3.org/Graphics/SVG/1.1/DTD/svg11.dtd">
<!-- Generated by graphviz version 14.1.2 (0)
 -->
<!-- Title: timeline_restart Pages: 1 -->
<svg width="1589pt" height="1487pt"
 viewBox="0.00 0.00 1589.00 1487.00" xmlns="http://www.w3.org/2000/svg" xmlns:xlink="http://www.w3.org/1999/xlink">
<g id="graph0" class="graph" transform="scale(1 1) rotate(0) translate(4 1483.12)">
<title>timeline_restart</title>
<polygon fill="#272623" stroke="none" points="-4,4 -4,-1483.12 1585,-1483.12 1585,4 -4,4"/>
<text xml:space="preserve" text-anchor="middle" x="790.5" y="-1461.83" font-family="Helvetica,sans-Serif" font-size="14.00" fill="#ece1d7">walshadow restart timelines — 3 scenarios, time flows top → bottom within each column</text>
<g id="clust1" class="cluster">
<title>cluster_a</title>
<path fill="#34302c" stroke="#a1a9cc" d="M20,-499.5C20,-499.5 490,-499.5 490,-499.5 496,-499.5 502,-505.5 502,-511.5 502,-511.5 502,-1433.88 502,-1433.88 502,-1439.88 496,-1445.88 490,-1445.88 490,-1445.88 20,-1445.88 20,-1445.88 14,-1445.88 8,-1439.88 8,-1433.88 8,-1433.88 8,-511.5 8,-511.5 8,-505.5 14,-499.5 20,-499.5"/>
<text xml:space="preserve" text-anchor="middle" x="255" y="-1428.58" font-family="Helvetica,sans-Serif" font-size="14.00" fill="#ece1d7">A. clean restart &#160;(SIGTERM, cursor flushed, slot inside wal_keep_size)</text>
</g>
<g id="clust2" class="cluster">
<title>cluster_b</title>
<path fill="#34302c" stroke="#cba85e" d="M522,-499.5C522,-499.5 900,-499.5 900,-499.5 906,-499.5 912,-505.5 912,-511.5 912,-511.5 912,-1339.62 912,-1339.62 912,-1345.62 906,-1351.62 900,-1351.62 900,-1351.62 522,-1351.62 522,-1351.62 516,-1351.62 510,-1345.62 510,-1339.62 510,-1339.62 510,-511.5 510,-511.5 510,-505.5 516,-499.5 522,-499.5"/>
<text xml:space="preserve" text-anchor="middle" x="711" y="-1334.33" font-family="Helvetica,sans-Serif" font-size="14.00" fill="#ece1d7">B. kill &#45;9 mid&#45;stream &#160;(last fsynced cursor authoritative)</text>
</g>
<g id="clust3" class="cluster">
<title>cluster_c</title>
<path fill="#34302c" stroke="#bd8183" d="M932,-573.62C932,-573.62 1561,-573.62 1561,-573.62 1567,-573.62 1573,-579.62 1573,-585.62 1573,-585.62 1573,-1240.25 1573,-1240.25 1573,-1246.25 1567,-1252.25 1561,-1252.25 1561,-1252.25 932,-1252.25 932,-1252.25 926,-1252.25 920,-1246.25 920,-1240.25 920,-1240.25 920,-585.62 920,-585.62 920,-579.62 926,-573.62 932,-573.62"/>
<text xml:space="preserve" text-anchor="middle" x="1246.5" y="-1234.95" font-family="Helvetica,sans-Serif" font-size="14.00" fill="#ece1d7">C. extended outage &#160;(slot restart_lsn advanced past resume_lsn — source recycled the gap)</text>
</g>
<!-- a0 -->
<g id="node1" class="node">
<title>a0</title>
<path fill="#403a36" stroke="#6e6963" d="M482.4,-1412.62C482.4,-1412.62 333.6,-1412.62 333.6,-1412.62 327.6,-1412.62 321.6,-1406.62 321.6,-1400.62 321.6,-1400.62 321.6,-1388.62 321.6,-1388.62 321.6,-1382.62 327.6,-1376.62 333.6,-1376.62 333.6,-1376.62 482.4,-1376.62 482.4,-1376.62 488.4,-1376.62 494.4,-1382.62 494.4,-1388.62 494.4,-1388.62 494.4,-1400.62 494.4,-1400.62 494.4,-1406.62 488.4,-1412.62 482.4,-1412.62"/>
<text xml:space="preserve" text-anchor="middle" x="408" y="-1391.5" font-family="Helvetica,sans-Serif" font-size="10.00" fill="#ece1d7">① SIGTERM</text>
</g>
<!-- a1 -->
<g id="node2" class="node">
<title>a1</title>
<path fill="#4d3a28" stroke="#6e6963" d="M459.12,-1323.5C459.12,-1323.5 302.88,-1323.5 302.88,-1323.5 296.88,-1323.5 290.88,-1317.5 290.88,-1311.5 290.88,-1311.5 290.88,-1289.25 290.88,-1289.25 290.88,-1283.25 296.88,-1277.25 302.88,-1277.25 302.88,-1277.25 459.12,-1277.25 459.12,-1277.25 465.12,-1277.25 471.12,-1283.25 471.12,-1289.25 471.12,-1289.25 471.12,-1311.5 471.12,-1311.5 471.12,-1317.5 465.12,-1323.5 459.12,-1323.5"/>
<text xml:space="preserve" text-anchor="middle" x="381" y="-1310" font-family="Helvetica,sans-Serif" font-size="10.00" fill="#ece1d7">② drain in&#45;flight work</text>
<text xml:space="preserve" text-anchor="middle" x="381" y="-1297.25" font-family="Helvetica,sans-Serif" font-size="10.00" fill="#ece1d7">pipeline join: batcher final flush →</text>
<text xml:space="preserve" text-anchor="middle" x="381" y="-1284.5" font-family="Helvetica,sans-Serif" font-size="10.00" fill="#ece1d7">inserters EndOfStream → ack</text>
</g>
<!-- a0&#45;&gt;a1 -->
<g id="edge1" class="edge">
<title>a0&#45;&gt;a1</title>
<path fill="none" stroke="#c1a78e" d="M402.92,-1376.27C399.33,-1364 394.41,-1347.2 390.14,-1332.62"/>
<polygon fill="#c1a78e" stroke="#c1a78e" points="392.95,-1332.23 388.01,-1325.34 387.57,-1333.8 392.95,-1332.23"/>
</g>
<!-- b0 -->
<g id="node11" class="node">
<title>b0</title>
<path fill="#403a36" stroke="#6e6963" d="M785.4,-1318.38C785.4,-1318.38 636.6,-1318.38 636.6,-1318.38 630.6,-1318.38 624.6,-1312.38 624.6,-1306.38 624.6,-1306.38 624.6,-1294.38 624.6,-1294.38 624.6,-1288.38 630.6,-1282.38 636.6,-1282.38 636.6,-1282.38 785.4,-1282.38 785.4,-1282.38 791.4,-1282.38 797.4,-1288.38 797.4,-1294.38 797.4,-1294.38 797.4,-1306.38 797.4,-1306.38 797.4,-1312.38 791.4,-1318.38 785.4,-1318.38"/>
<text xml:space="preserve" text-anchor="middle" x="711" y="-1297.25" font-family="Helvetica,sans-Serif" font-size="10.00" fill="#ece1d7">① kill &#45;9 (no drain)</text>
</g>
<!-- a0&#45;&gt;b0 -->
<!-- a2 -->
<g id="node3" class="node">
<title>a2</title>
<path fill="#4d3340" stroke="#6e6963" d="M469.75,-1219C469.75,-1219 284.25,-1219 284.25,-1219 278.25,-1219 272.25,-1213 272.25,-1207 272.25,-1207 272.25,-1195 272.25,-1195 272.25,-1189 278.25,-1183 284.25,-1183 284.25,-1183 469.75,-1183 469.75,-1183 475.75,-1183 481.75,-1189 481.75,-1195 481.75,-1195 481.75,-1207 481.75,-1207 481.75,-1213 475.75,-1219 469.75,-1219"/>
<text xml:space="preserve" text-anchor="middle" x="377" y="-1204.25" font-family="Helvetica,sans-Serif" font-size="10.00" fill="#ece1d7">③ DirSegmentSink::on_partial_segment</text>
<text xml:space="preserve" text-anchor="middle" x="377" y="-1191.5" font-family="Helvetica,sans-Serif" font-size="10.00" fill="#ece1d7">&lt;seg&gt;.partial</text>
</g>
<!-- a1&#45;&gt;a2 -->
<g id="edge2" class="edge">
<title>a1&#45;&gt;a2</title>
<path fill="none" stroke="#c1a78e" d="M380.07,-1276.79C379.48,-1262.41 378.71,-1243.72 378.09,-1228.62"/>
<polygon fill="#c1a78e" stroke="#c1a78e" points="380.9,-1228.69 377.77,-1220.81 375.3,-1228.92 380.9,-1228.69"/>
</g>
<!-- a3 -->
<g id="node4" class="node">
<title>a3</title>
<path fill="#4d3a28" stroke="#6e6963" d="M450.4,-1107.88C450.4,-1107.88 301.6,-1107.88 301.6,-1107.88 295.6,-1107.88 289.6,-1101.88 289.6,-1095.88 289.6,-1095.88 289.6,-1083.88 289.6,-1083.88 289.6,-1077.88 295.6,-1071.88 301.6,-1071.88 301.6,-1071.88 450.4,-1071.88 450.4,-1071.88 456.4,-1071.88 462.4,-1077.88 462.4,-1083.88 462.4,-1083.88 462.4,-1095.88 462.4,-1095.88 462.4,-1101.88 456.4,-1107.88 450.4,-1107.88"/>
<text xml:space="preserve" text-anchor="middle" x="376" y="-1093.12" font-family="Helvetica,sans-Serif" font-size="10.00" fill="#ece1d7">④ cursor::write final state</text>
<text xml:space="preserve" text-anchor="middle" x="376" y="-1080.38" font-family="Helvetica,sans-Serif" font-size="10.00" fill="#ece1d7">(emitter_ack_lsn, drain_lsn, …)</text>
</g>
<!-- a2&#45;&gt;a3 -->
<g id="edge3" class="edge">
<title>a2&#45;&gt;a3</title>
<path fill="none" stroke="#c1a78e" d="M376.84,-1182.95C376.68,-1165.43 376.43,-1137.92 376.24,-1117.53"/>
<polygon fill="#c1a78e" stroke="#c1a78e" points="379.05,-1117.65 376.17,-1109.68 373.45,-1117.71 379.05,-1117.65"/>
</g>
<!-- a4 -->
<g id="node5" class="node">
<title>a4</title>
<path fill="#403a36" stroke="#6e6963" d="M448.4,-992.75C448.4,-992.75 299.6,-992.75 299.6,-992.75 293.6,-992.75 287.6,-986.75 287.6,-980.75 287.6,-980.75 287.6,-968.75 287.6,-968.75 287.6,-962.75 293.6,-956.75 299.6,-956.75 299.6,-956.75 448.4,-956.75 448.4,-956.75 454.4,-956.75 460.4,-962.75 460.4,-968.75 460.4,-968.75 460.4,-980.75 460.4,-980.75 460.4,-986.75 454.4,-992.75 448.4,-992.75"/>
<text xml:space="preserve" text-anchor="middle" x="374" y="-971.62" font-family="Helvetica,sans-Serif" font-size="10.00" fill="#ece1d7">⑤ process exit</text>
</g>
<!-- a3&#45;&gt;a4 -->
<g id="edge4" class="edge">
<title>a3&#45;&gt;a4</title>
<path fill="none" stroke="#c1a78e" d="M375.7,-1071.69C375.37,-1053.34 374.85,-1024 374.47,-1002.59"/>
<polygon fill="#c1a78e" stroke="#c1a78e" points="377.27,-1002.56 374.33,-994.61 371.68,-1002.65 377.27,-1002.56"/>
</g>
<!-- a5 -->
<g id="node6" class="node">
<title>a5</title>
<path fill="#4d3a28" stroke="#6e6963" d="M475.88,-898C475.88,-898 270.12,-898 270.12,-898 264.12,-898 258.12,-892 258.12,-886 258.12,-886 258.12,-851 258.12,-851 258.12,-845 264.12,-839 270.12,-839 270.12,-839 475.88,-839 475.88,-839 481.88,-839 487.88,-845 487.88,-851 487.88,-851 487.88,-886 487.88,-886 487.88,-892 481.88,-898 475.88,-898"/>
<text xml:space="preserve" text-anchor="middle" x="373" y="-884.5" font-family="Helvetica,sans-Serif" font-size="10.00" fill="#ece1d7">⑥ restart:</text>
<text xml:space="preserve" text-anchor="middle" x="373" y="-871.75" font-family="Helvetica,sans-Serif" font-size="10.00" fill="#ece1d7">cursor::read → segment&#45;aligned resume_lsn</text>
<text xml:space="preserve" text-anchor="middle" x="373" y="-859" font-family="Helvetica,sans-Serif" font-size="10.00" fill="#ece1d7">load toast_retires.bin</text>
<text xml:space="preserve" text-anchor="middle" x="373" y="-846.25" font-family="Helvetica,sans-Serif" font-size="10.00" fill="#ece1d7">flush entries below resume floor</text>
</g>
<!-- a4&#45;&gt;a5 -->
<g id="edge5" class="edge">
<title>a4&#45;&gt;a5</title>
<path fill="none" stroke="#c1a78e" d="M373.83,-956.54C373.71,-943.17 373.52,-924.12 373.36,-907.26"/>
<polygon fill="#c1a78e" stroke="#c1a78e" points="376.17,-907.65 373.29,-899.68 370.57,-907.7 376.17,-907.65"/>
</g>
<!-- a6 -->
<g id="node7" class="node">
<title>a6</title>
<path fill="#3d4128" stroke="#6e6963" d="M452.25,-806C452.25,-806 293.75,-806 293.75,-806 287.75,-806 281.75,-800 281.75,-794 281.75,-794 281.75,-782 281.75,-782 281.75,-776 287.75,-770 293.75,-770 293.75,-770 452.25,-770 452.25,-770 458.25,-770 464.25,-776 464.25,-782 464.25,-782 464.25,-794 464.25,-794 464.25,-800 458.25,-806 452.25,-806"/>
<text xml:space="preserve" text-anchor="middle" x="373" y="-791.25" font-family="Helvetica,sans-Serif" font-size="10.00" fill="#ece1d7">⑦ Shadow::start in recovery mode</text>
<text xml:space="preserve" text-anchor="middle" x="373" y="-778.5" font-family="Helvetica,sans-Serif" font-size="10.00" fill="#ece1d7">(if not already running)</text>
</g>
<!-- a5&#45;&gt;a6 -->
<g id="edge6" class="edge">
<title>a5&#45;&gt;a6</title>
<path fill="none" stroke="#c1a78e" d="M373,-838.72C373,-831.09 373,-822.89 373,-815.39"/>
<polygon fill="#c1a78e" stroke="#c1a78e" points="375.8,-815.88 373,-807.88 370.2,-815.88 375.8,-815.88"/>
</g>
<!-- a7 -->
<g id="node8" class="node">
<title>a7</title>
<path fill="#4d3340" stroke="#6e6963" d="M447.4,-696.88C447.4,-696.88 298.6,-696.88 298.6,-696.88 292.6,-696.88 286.6,-690.88 286.6,-684.88 286.6,-684.88 286.6,-672.88 286.6,-672.88 286.6,-666.88 292.6,-660.88 298.6,-660.88 298.6,-660.88 447.4,-660.88 447.4,-660.88 453.4,-660.88 459.4,-666.88 459.4,-672.88 459.4,-672.88 459.4,-684.88 459.4,-684.88 459.4,-690.88 453.4,-696.88 447.4,-696.88"/>
<text xml:space="preserve" text-anchor="middle" x="373" y="-682.12" font-family="Helvetica,sans-Serif" font-size="10.00" fill="#ece1d7">⑧ walsender listener up</text>
<text xml:space="preserve" text-anchor="middle" x="373" y="-669.38" font-family="Helvetica,sans-Serif" font-size="10.00" fill="#ece1d7">before walreceiver connects</text>
</g>
<!-- a6&#45;&gt;a7 -->
<g id="edge7" class="edge">
<title>a6&#45;&gt;a7</title>
<path fill="none" stroke="#c1a78e" d="M373,-769.79C373,-752.69 373,-726.22 373,-706.43"/>
<polygon fill="#c1a78e" stroke="#c1a78e" points="375.8,-706.56 373,-698.56 370.2,-706.56 375.8,-706.56"/>
</g>
<!-- a8 -->
<g id="node9" class="node">
<title>a8</title>
<path fill="#4d3a28" stroke="#6e6963" d="M481.5,-617.62C481.5,-617.62 264.5,-617.62 264.5,-617.62 258.5,-617.62 252.5,-611.62 252.5,-605.62 252.5,-605.62 252.5,-593.62 252.5,-593.62 252.5,-587.62 258.5,-581.62 264.5,-581.62 264.5,-581.62 481.5,-581.62 481.5,-581.62 487.5,-581.62 493.5,-587.62 493.5,-593.62 493.5,-593.62 493.5,-605.62 493.5,-605.62 493.5,-611.62 487.5,-617.62 481.5,-617.62"/>
<text xml:space="preserve" text-anchor="middle" x="373" y="-602.88" font-family="Helvetica,sans-Serif" font-size="10.00" fill="#ece1d7">⑨ SourceFeed open</text>
<text xml:space="preserve" text-anchor="middle" x="373" y="-590.12" font-family="Helvetica,sans-Serif" font-size="10.00" fill="#ece1d7">START_REPLICATION PHYSICAL &lt;resume_lsn&gt;</text>
</g>
<!-- a7&#45;&gt;a8 -->
<g id="edge8" class="edge">
<title>a7&#45;&gt;a8</title>
<path fill="none" stroke="#c1a78e" d="M373,-660.73C373,-650.9 373,-638.34 373,-627.25"/>
<polygon fill="#c1a78e" stroke="#c1a78e" points="375.8,-627.5 373,-619.5 370.2,-627.5 375.8,-627.5"/>
</g>
<!-- a9 -->
<g id="node10" class="node">
<title>a9</title>
<path fill="#4d4128" stroke="#6e6963" d="M470.75,-543.5C470.75,-543.5 297.25,-543.5 297.25,-543.5 291.25,-543.5 285.25,-537.5 285.25,-531.5 285.25,-531.5 285.25,-519.5 285.25,-519.5 285.25,-513.5 291.25,-507.5 297.25,-507.5 297.25,-507.5 470.75,-507.5 470.75,-507.5 476.75,-507.5 482.75,-513.5 482.75,-519.5 482.75,-519.5 482.75,-531.5 482.75,-531.5 482.75,-537.5 476.75,-543.5 470.75,-543.5"/>
<text xml:space="preserve" text-anchor="middle" x="384" y="-528.75" font-family="Helvetica,sans-Serif" font-size="10.00" fill="#ece1d7">⑩ records re&#45;flow</text>
<text xml:space="preserve" text-anchor="middle" x="384" y="-516" font-family="Helvetica,sans-Serif" font-size="10.00" fill="#ece1d7">CH ReplacingMergeTree(_lsn) dedups</text>
</g>
<!-- a8&#45;&gt;a9 -->
<g id="edge9" class="edge">
<title>a8&#45;&gt;a9</title>
<path fill="none" stroke="#c1a78e" d="M375.66,-581.17C376.95,-572.75 378.51,-562.47 379.94,-553.11"/>
<polygon fill="#c1a78e" stroke="#c1a78e" points="382.7,-553.63 381.13,-545.29 377.16,-552.78 382.7,-553.63"/>
</g>
<!-- cursor_table -->
<g id="node29" class="node">
<title>cursor_table</title>
<path fill="#6e6963" stroke="none" d="M1024.25,-474.5C1024.25,-474.5 397.75,-474.5 397.75,-474.5 391.75,-474.5 385.75,-468.5 385.75,-462.5 385.75,-462.5 385.75,-280.5 385.75,-280.5 385.75,-274.5 391.75,-268.5 397.75,-268.5 397.75,-268.5 1024.25,-268.5 1024.25,-268.5 1030.25,-268.5 1036.25,-274.5 1036.25,-280.5 1036.25,-280.5 1036.25,-462.5 1036.25,-462.5 1036.25,-468.5 1030.25,-474.5 1024.25,-474.5"/>
<polygon fill="#4d3850" stroke="none" points="393.75,-445.75 393.75,-470.5 1028.25,-470.5 1028.25,-445.75 393.75,-445.75"/>
<polygon fill="none" stroke="#6e6963" points="393.75,-445.75 393.75,-470.5 1028.25,-470.5 1028.25,-445.75 393.75,-445.75"/>
<text xml:space="preserve" text-anchor="start" x="604.12" y="-456" font-family="Helvetica,sans-Serif" font-weight="bold" font-size="10.00" fill="#ece1d7">cursor.bin — 6 LSN fields (schema v2)</text>
<polygon fill="none" stroke="#6e6963" points="393.75,-421 393.75,-445.75 504.75,-445.75 504.75,-421 393.75,-421"/>
<text xml:space="preserve" text-anchor="start" x="436.5" y="-431.25" font-family="Helvetica,sans-Serif" font-weight="bold" font-size="10.00" fill="#ece1d7">field</text>
<polygon fill="none" stroke="#6e6963" points="504.75,-421 504.75,-445.75 712.5,-445.75 712.5,-421 504.75,-421"/>
<text xml:space="preserve" text-anchor="start" x="591.38" y="-431.25" font-family="Helvetica,sans-Serif" font-weight="bold" font-size="10.00" fill="#ece1d7">writer</text>
<polygon fill="none" stroke="#6e6963" points="712.5,-421 712.5,-445.75 903.75,-445.75 903.75,-421 712.5,-421"/>
<text xml:space="preserve" text-anchor="start" x="766.88" y="-431.25" font-family="Helvetica,sans-Serif" font-weight="bold" font-size="10.00" fill="#ece1d7">role on restart</text>
<polygon fill="none" stroke="#6e6963" points="903.75,-421 903.75,-445.75 1028.25,-445.75 1028.25,-421 903.75,-421"/>
<text xml:space="preserve" text-anchor="start" x="909.75" y="-431.25" font-family="Helvetica,sans-Serif" font-weight="bold" font-size="10.00" fill="#ece1d7">role in slot advance</text>
<polygon fill="none" stroke="#6e6963" points="393.75,-396.25 393.75,-421 504.75,-421 504.75,-396.25 393.75,-396.25"/>
<text xml:space="preserve" text-anchor="start" x="399.75" y="-405.5" font-family="Helvetica,sans-Serif" font-size="10.00" fill="#ece1d7">source_received_lsn</text>
<polygon fill="none" stroke="#6e6963" points="504.75,-396.25 504.75,-421 712.5,-421 712.5,-396.25 504.75,-396.25"/>
<text xml:space="preserve" text-anchor="start" x="563.62" y="-405.5" font-family="Helvetica,sans-Serif" font-size="10.00" fill="#ece1d7">SourceFeed::pump</text>
<polygon fill="none" stroke="#6e6963" points="712.5,-396.25 712.5,-421 903.75,-421 903.75,-396.25 712.5,-396.25"/>
<text xml:space="preserve" text-anchor="start" x="774.75" y="-405.5" font-family="Helvetica,sans-Serif" font-size="10.00" fill="#ece1d7">observational</text>
<polygon fill="none" stroke="#6e6963" points="903.75,-396.25 903.75,-421 1028.25,-421 1028.25,-396.25 903.75,-396.25"/>
<text xml:space="preserve" text-anchor="start" x="942.75" y="-405.5" font-family="Helvetica,sans-Serif" font-size="10.00" fill="#ece1d7">write LSN</text>
<polygon fill="none" stroke="#6e6963" points="393.75,-371.5 393.75,-396.25 504.75,-396.25 504.75,-371.5 393.75,-371.5"/>
<text xml:space="preserve" text-anchor="start" x="407.25" y="-380.75" font-family="Helvetica,sans-Serif" font-size="10.00" fill="#ece1d7">filter_durable_lsn</text>
<polygon fill="none" stroke="#6e6963" points="504.75,-371.5 504.75,-396.25 712.5,-396.25 712.5,-371.5 504.75,-371.5"/>
<text xml:space="preserve" text-anchor="start" x="536.25" y="-380.75" font-family="Helvetica,sans-Serif" font-size="10.00" fill="#ece1d7">DirSegmentSink::on_segment</text>
<polygon fill="none" stroke="#6e6963" points="712.5,-371.5 712.5,-396.25 903.75,-396.25 903.75,-371.5 712.5,-371.5"/>
<text xml:space="preserve" text-anchor="start" x="766.12" y="-380.75" font-family="Helvetica,sans-Serif" font-size="10.00" fill="#ece1d7">archive coverage</text>
<polygon fill="none" stroke="#6e6963" points="903.75,-371.5 903.75,-396.25 1028.25,-396.25 1028.25,-371.5 903.75,-371.5"/>
<text xml:space="preserve" text-anchor="start" x="943.5" y="-380.75" font-family="Helvetica,sans-Serif" font-size="10.00" fill="#ece1d7">flush LSN</text>
<polygon fill="none" stroke="#6e6963" points="393.75,-346.75 393.75,-371.5 504.75,-371.5 504.75,-346.75 393.75,-346.75"/>
<text xml:space="preserve" text-anchor="start" x="402.75" y="-356" font-family="Helvetica,sans-Serif" font-size="10.00" fill="#ece1d7">shadow_replay_lsn</text>
<polygon fill="none" stroke="#6e6963" points="504.75,-346.75 504.75,-371.5 712.5,-371.5 712.5,-346.75 504.75,-346.75"/>
<text xml:space="preserve" text-anchor="start" x="563.25" y="-356" font-family="Helvetica,sans-Serif" font-size="10.00" fill="#ece1d7">retention_sweeper</text>
<polygon fill="none" stroke="#6e6963" points="712.5,-346.75 712.5,-371.5 903.75,-371.5 903.75,-346.75 712.5,-346.75"/>
<text xml:space="preserve" text-anchor="start" x="756" y="-356" font-family="Helvetica,sans-Serif" font-size="10.00" fill="#ece1d7">bounds segment trim</text>
<polygon fill="none" stroke="#6e6963" points="903.75,-346.75 903.75,-371.5 1028.25,-371.5 1028.25,-346.75 903.75,-346.75"/>
<text xml:space="preserve" text-anchor="start" x="928.88" y="-356" font-family="Helvetica,sans-Serif" font-size="10.00" fill="#ece1d7">caps apply LSN</text>
<polygon fill="none" stroke="#6e6963" points="393.75,-322 393.75,-346.75 504.75,-346.75 504.75,-322 393.75,-322"/>
<text xml:space="preserve" text-anchor="start" x="427.12" y="-331.25" font-family="Helvetica,sans-Serif" font-size="10.00" fill="#ece1d7">drain_lsn</text>
<polygon fill="none" stroke="#6e6963" points="504.75,-322 504.75,-346.75 712.5,-346.75 712.5,-322 504.75,-322"/>
<text xml:space="preserve" text-anchor="start" x="561.38" y="-331.25" font-family="Helvetica,sans-Serif" font-size="10.00" fill="#ece1d7">XactBuffer::commit</text>
<polygon fill="none" stroke="#6e6963" points="712.5,-322 712.5,-346.75 903.75,-346.75 903.75,-322 712.5,-322"/>
<text xml:space="preserve" text-anchor="start" x="774.75" y="-331.25" font-family="Helvetica,sans-Serif" font-size="10.00" fill="#ece1d7">observational</text>
<polygon fill="none" stroke="#6e6963" points="903.75,-322 903.75,-346.75 1028.25,-346.75 1028.25,-322 903.75,-322"/>
<text xml:space="preserve" text-anchor="start" x="961.12" y="-331.25" font-family="Helvetica,sans-Serif" font-size="10.00" fill="#ece1d7">—</text>
<polygon fill="none" stroke="#6e6963" points="393.75,-297.25 393.75,-322 504.75,-322 504.75,-297.25 393.75,-297.25"/>
<text xml:space="preserve" text-anchor="start" x="405" y="-307.5" font-family="Helvetica,sans-Serif" font-weight="bold" font-size="10.00" fill="#ece1d7">emitter_ack_lsn</text>
<polygon fill="none" stroke="#6e6963" points="504.75,-297.25 504.75,-322 712.5,-322 712.5,-297.25 504.75,-297.25"/>
<text xml:space="preserve" text-anchor="start" x="510.75" y="-306.5" font-family="Helvetica,sans-Serif" font-size="10.00" fill="#ece1d7">pipeline ack collector (contiguous&#45;done)</text>
<polygon fill="none" stroke="#6e6963" points="712.5,-297.25 712.5,-322 903.75,-322 903.75,-297.25 712.5,-297.25"/>
<text xml:space="preserve" text-anchor="start" x="755.62" y="-307.5" font-family="Helvetica,sans-Serif" font-weight="bold" font-size="10.00" fill="#ece1d7">resume_lsn source</text>
<polygon fill="none" stroke="#6e6963" points="903.75,-297.25 903.75,-322 1028.25,-322 1028.25,-297.25 903.75,-297.25"/>
<text xml:space="preserve" text-anchor="start" x="922.12" y="-307.5" font-family="Helvetica,sans-Serif" font-weight="bold" font-size="10.00" fill="#ece1d7">caps apply LSN</text>
<polygon fill="none" stroke="#6e6963" points="393.75,-272.5 393.75,-297.25 504.75,-297.25 504.75,-272.5 393.75,-272.5"/>
<text xml:space="preserve" text-anchor="start" x="406.5" y="-281.75" font-family="Helvetica,sans-Serif" font-size="10.00" fill="#ece1d7">shadow_flush_lsn</text>
<polygon fill="none" stroke="#6e6963" points="504.75,-272.5 504.75,-297.25 712.5,-297.25 712.5,-272.5 504.75,-272.5"/>
<text xml:space="preserve" text-anchor="start" x="544.5" y="-281.75" font-family="Helvetica,sans-Serif" font-size="10.00" fill="#ece1d7">walsender rx &#39;r&#39; aggregate</text>
<polygon fill="none" stroke="#6e6963" points="712.5,-272.5 712.5,-297.25 903.75,-297.25 903.75,-272.5 712.5,-272.5"/>
<text xml:space="preserve" text-anchor="start" x="718.5" y="-281.75" font-family="Helvetica,sans-Serif" font-size="10.00" fill="#ece1d7">streaming&#45;fed shadow resumes here</text>
<polygon fill="none" stroke="#6e6963" points="903.75,-272.5 903.75,-297.25 1028.25,-297.25 1028.25,-272.5 903.75,-272.5"/>
<text xml:space="preserve" text-anchor="start" x="961.12" y="-281.75" font-family="Helvetica,sans-Serif" font-size="10.00" fill="#ece1d7">—</text>
</g>
<!-- a9&#45;&gt;cursor_table -->
<!-- b1 -->
<g id="node12" class="node">
<title>b1</title>
<path fill="#4d3a28" stroke="#6e6963" d="M791.75,-1230.5C791.75,-1230.5 630.25,-1230.5 630.25,-1230.5 624.25,-1230.5 618.25,-1224.5 618.25,-1218.5 618.25,-1218.5 618.25,-1183.5 618.25,-1183.5 618.25,-1177.5 624.25,-1171.5 630.25,-1171.5 630.25,-1171.5 791.75,-1171.5 791.75,-1171.5 797.75,-1171.5 803.75,-1177.5 803.75,-1183.5 803.75,-1183.5 803.75,-1218.5 803.75,-1218.5 803.75,-1224.5 797.75,-1230.5 791.75,-1230.5"/>
<text xml:space="preserve" text-anchor="middle" x="711" y="-1217" font-family="Helvetica,sans-Serif" font-size="10.00" fill="#ece1d7">② OS reaps process</text>
<text xml:space="preserve" text-anchor="middle" x="711" y="-1204.25" font-family="Helvetica,sans-Serif" font-size="10.00" fill="#ece1d7">buffers lost; cursor.bin = last fsync</text>
<text xml:space="preserve" text-anchor="middle" x="711" y="-1191.5" font-family="Helvetica,sans-Serif" font-size="10.00" fill="#ece1d7">spill files on disk</text>
<text xml:space="preserve" text-anchor="middle" x="711" y="-1178.75" font-family="Helvetica,sans-Serif" font-size="10.00" fill="#ece1d7">partial segment write rolled back</text>
</g>
<!-- b0&#45;&gt;b1 -->
<g id="edge10" class="edge">
<title>b0&#45;&gt;b1</title>
<path fill="none" stroke="#c1a78e" d="M711,-1281.97C711,-1270.3 711,-1254.48 711,-1239.98"/>
<polygon fill="#c1a78e" stroke="#c1a78e" points="713.8,-1240.22 711,-1232.22 708.2,-1240.22 713.8,-1240.22"/>
</g>
<!-- c0 -->
<g id="node20" class="node">
<title>c0</title>
<path fill="#403a36" stroke="#6e6963" d="M1124,-1219C1124,-1219 940,-1219 940,-1219 934,-1219 928,-1213 928,-1207 928,-1207 928,-1195 928,-1195 928,-1189 934,-1183 940,-1183 940,-1183 1124,-1183 1124,-1183 1130,-1183 1136,-1189 1136,-1195 1136,-1195 1136,-1207 1136,-1207 1136,-1213 1130,-1219 1124,-1219"/>
<text xml:space="preserve" text-anchor="middle" x="1032" y="-1204.25" font-family="Helvetica,sans-Serif" font-size="10.00" fill="#ece1d7">① extended downtime</text>
<text xml:space="preserve" text-anchor="middle" x="1032" y="-1191.5" font-family="Helvetica,sans-Serif" font-size="10.00" fill="#ece1d7">resume_lsn falls behind slot restart_lsn</text>
</g>
<!-- b0&#45;&gt;c0 -->
<!-- b2 -->
<g id="node13" class="node">
<title>b2</title>
<path fill="#4d3a28" stroke="#6e6963" d="M785.4,-1113C785.4,-1113 636.6,-1113 636.6,-1113 630.6,-1113 624.6,-1107 624.6,-1101 624.6,-1101 624.6,-1078.75 624.6,-1078.75 624.6,-1072.75 630.6,-1066.75 636.6,-1066.75 636.6,-1066.75 785.4,-1066.75 785.4,-1066.75 791.4,-1066.75 797.4,-1072.75 797.4,-1078.75 797.4,-1078.75 797.4,-1101 797.4,-1101 797.4,-1107 791.4,-1113 785.4,-1113"/>
<text xml:space="preserve" text-anchor="middle" x="711" y="-1099.5" font-family="Helvetica,sans-Serif" font-size="10.00" fill="#ece1d7">③ restart:</text>
<text xml:space="preserve" text-anchor="middle" x="711" y="-1086.75" font-family="Helvetica,sans-Serif" font-size="10.00" fill="#ece1d7">spill::clear() wipes xid&#45;*.bin</text>
<text xml:space="preserve" text-anchor="middle" x="711" y="-1074" font-family="Helvetica,sans-Serif" font-size="10.00" fill="#ece1d7">toast_retires.bin survives</text>
</g>
<!-- b1&#45;&gt;b2 -->
<g id="edge11" class="edge">
<title>b1&#45;&gt;b2</title>
<path fill="none" stroke="#c1a78e" d="M711,-1171.04C711,-1156.09 711,-1137.81 711,-1122.49"/>
<polygon fill="#c1a78e" stroke="#c1a78e" points="713.8,-1122.9 711,-1114.9 708.2,-1122.9 713.8,-1122.9"/>
</g>
<!-- b3 -->
<g id="node14" class="node">
<title>b3</title>
<path fill="#4d3a28" stroke="#6e6963" d="M814.25,-997.88C814.25,-997.88 607.75,-997.88 607.75,-997.88 601.75,-997.88 595.75,-991.88 595.75,-985.88 595.75,-985.88 595.75,-963.62 595.75,-963.62 595.75,-957.62 601.75,-951.62 607.75,-951.62 607.75,-951.62 814.25,-951.62 814.25,-951.62 820.25,-951.62 826.25,-957.62 826.25,-963.62 826.25,-963.62 826.25,-985.88 826.25,-985.88 826.25,-991.88 820.25,-997.88 814.25,-997.88"/>
<text xml:space="preserve" text-anchor="middle" x="711" y="-984.38" font-family="Helvetica,sans-Serif" font-size="10.00" fill="#ece1d7">④ cursor::read</text>
<text xml:space="preserve" text-anchor="middle" x="711" y="-971.62" font-family="Helvetica,sans-Serif" font-size="10.00" fill="#ece1d7">resume_lsn = segment&#45;aligned emitter_ack</text>
<text xml:space="preserve" text-anchor="middle" x="711" y="-958.88" font-family="Helvetica,sans-Serif" font-size="10.00" fill="#ece1d7">flush due toast mirror retires</text>
</g>
<!-- b2&#45;&gt;b3 -->
<g id="edge12" class="edge">
<title>b2&#45;&gt;b3</title>
<path fill="none" stroke="#c1a78e" d="M711,-1066.25C711,-1049.45 711,-1026.31 711,-1007.63"/>
<polygon fill="#c1a78e" stroke="#c1a78e" points="713.8,-1007.84 711,-999.84 708.2,-1007.85 713.8,-1007.84"/>
</g>
<!-- b4 -->
<g id="node15" class="node">
<title>b4</title>
<path fill="#3d4128" stroke="#6e6963" d="M789.12,-886.5C789.12,-886.5 632.88,-886.5 632.88,-886.5 626.88,-886.5 620.88,-880.5 620.88,-874.5 620.88,-874.5 620.88,-862.5 620.88,-862.5 620.88,-856.5 626.88,-850.5 632.88,-850.5 632.88,-850.5 789.12,-850.5 789.12,-850.5 795.12,-850.5 801.12,-856.5 801.12,-862.5 801.12,-862.5 801.12,-874.5 801.12,-874.5 801.12,-880.5 795.12,-886.5 789.12,-886.5"/>
<text xml:space="preserve" text-anchor="middle" x="711" y="-871.75" font-family="Helvetica,sans-Serif" font-size="10.00" fill="#ece1d7">⑤ shadow PG recovers on its own</text>
<text xml:space="preserve" text-anchor="middle" x="711" y="-859" font-family="Helvetica,sans-Serif" font-size="10.00" fill="#ece1d7">walreceiver retry timer</text>
</g>
<!-- b3&#45;&gt;b4 -->
<g id="edge13" class="edge">
<title>b3&#45;&gt;b4</title>
<path fill="none" stroke="#c1a78e" d="M711,-951.13C711,-935.01 711,-913.28 711,-896.29"/>
<polygon fill="#c1a78e" stroke="#c1a78e" points="713.8,-896.43 711,-888.43 708.2,-896.43 713.8,-896.43"/>
</g>
<!-- b5 -->
<g id="node16" class="node">
<title>b5</title>
<path fill="#3d4128" stroke="#6e6963" d="M795.5,-806C795.5,-806 626.5,-806 626.5,-806 620.5,-806 614.5,-800 614.5,-794 614.5,-794 614.5,-782 614.5,-782 614.5,-776 620.5,-770 626.5,-770 626.5,-770 795.5,-770 795.5,-770 801.5,-770 807.5,-776 807.5,-782 807.5,-782 807.5,-794 807.5,-794 807.5,-800 801.5,-806 795.5,-806"/>
<text xml:space="preserve" text-anchor="middle" x="711" y="-791.25" font-family="Helvetica,sans-Serif" font-size="10.00" fill="#ece1d7">⑥ shadow asks START_REPLICATION</text>
<text xml:space="preserve" text-anchor="middle" x="711" y="-778.5" font-family="Helvetica,sans-Serif" font-size="10.00" fill="#ece1d7">PHYSICAL &lt;its flush_lsn&gt;</text>
</g>
<!-- b4&#45;&gt;b5 -->
<g id="edge14" class="edge">
<title>b4&#45;&gt;b5</title>
<path fill="none" stroke="#c1a78e" d="M711,-850.08C711,-840.02 711,-827.15 711,-815.82"/>
<polygon fill="#c1a78e" stroke="#c1a78e" points="713.8,-815.89 711,-807.89 708.2,-815.89 713.8,-815.89"/>
</g>
<!-- b6 -->
<g id="node17" class="node">
<title>b6</title>
<path fill="#4d3a28" stroke="#6e6963" d="M796.25,-702C796.25,-702 625.75,-702 625.75,-702 619.75,-702 613.75,-696 613.75,-690 613.75,-690 613.75,-667.75 613.75,-667.75 613.75,-661.75 619.75,-655.75 625.75,-655.75 625.75,-655.75 796.25,-655.75 796.25,-655.75 802.25,-655.75 808.25,-661.75 808.25,-667.75 808.25,-667.75 808.25,-690 808.25,-690 808.25,-696 802.25,-702 796.25,-702"/>
<text xml:space="preserve" text-anchor="middle" x="711" y="-688.5" font-family="Helvetica,sans-Serif" font-size="10.00" fill="#ece1d7">⑦ walshadow honours both:</text>
<text xml:space="preserve" text-anchor="middle" x="711" y="-675.75" font-family="Helvetica,sans-Serif" font-size="10.00" fill="#ece1d7">• upstream feed at resume_lsn</text>
<text xml:space="preserve" text-anchor="middle" x="711" y="-663" font-family="Helvetica,sans-Serif" font-size="10.00" fill="#ece1d7">• shadow feed at shadow&#39;s flush_lsn</text>
</g>
<!-- b5&#45;&gt;b6 -->
<g id="edge15" class="edge">
<title>b5&#45;&gt;b6</title>
<path fill="none" stroke="#c1a78e" d="M711,-769.79C711,-754.18 711,-730.76 711,-711.74"/>
<polygon fill="#c1a78e" stroke="#c1a78e" points="713.8,-711.77 711,-703.77 708.2,-711.77 713.8,-711.77"/>
</g>
<!-- b7 -->
<g id="node18" class="node">
<title>b7</title>
<path fill="#4d4128" stroke="#6e6963" d="M785.4,-622.75C785.4,-622.75 636.6,-622.75 636.6,-622.75 630.6,-622.75 624.6,-616.75 624.6,-610.75 624.6,-610.75 624.6,-588.5 624.6,-588.5 624.6,-582.5 630.6,-576.5 636.6,-576.5 636.6,-576.5 785.4,-576.5 785.4,-576.5 791.4,-576.5 797.4,-582.5 797.4,-588.5 797.4,-588.5 797.4,-610.75 797.4,-610.75 797.4,-616.75 791.4,-622.75 785.4,-622.75"/>
<text xml:space="preserve" text-anchor="middle" x="711" y="-609.25" font-family="Helvetica,sans-Serif" font-size="10.00" fill="#ece1d7">⑧ overlap records replayed</text>
<text xml:space="preserve" text-anchor="middle" x="711" y="-596.5" font-family="Helvetica,sans-Serif" font-size="10.00" fill="#ece1d7">CH dedups on _lsn</text>
<text xml:space="preserve" text-anchor="middle" x="711" y="-583.75" font-family="Helvetica,sans-Serif" font-size="10.00" fill="#ece1d7">shadow apply monotonic</text>
</g>
<!-- b6&#45;&gt;b7 -->
<g id="edge16" class="edge">
<title>b6&#45;&gt;b7</title>
<path fill="none" stroke="#c1a78e" d="M711,-655.53C711,-648.39 711,-640.33 711,-632.64"/>
<polygon fill="#c1a78e" stroke="#c1a78e" points="713.8,-632.7 711,-624.7 708.2,-632.7 713.8,-632.7"/>
</g>
<!-- b8 -->
<g id="node19" class="node">
<title>b8</title>
<path fill="#4d3a28" stroke="#6e6963" d="M785.4,-543.5C785.4,-543.5 636.6,-543.5 636.6,-543.5 630.6,-543.5 624.6,-537.5 624.6,-531.5 624.6,-531.5 624.6,-519.5 624.6,-519.5 624.6,-513.5 630.6,-507.5 636.6,-507.5 636.6,-507.5 785.4,-507.5 785.4,-507.5 791.4,-507.5 797.4,-513.5 797.4,-519.5 797.4,-519.5 797.4,-531.5 797.4,-531.5 797.4,-537.5 791.4,-543.5 785.4,-543.5"/>
<text xml:space="preserve" text-anchor="middle" x="711" y="-522.38" font-family="Helvetica,sans-Serif" font-size="10.00" fill="#ece1d7">⑨ steady&#45;state reached</text>
</g>
<!-- b7&#45;&gt;b8 -->
<g id="edge17" class="edge">
<title>b7&#45;&gt;b8</title>
<path fill="none" stroke="#c1a78e" d="M711,-576.2C711,-568.95 711,-560.85 711,-553.32"/>
<polygon fill="#c1a78e" stroke="#c1a78e" points="713.8,-553.38 711,-545.38 708.2,-553.38 713.8,-553.38"/>
</g>
<!-- b8&#45;&gt;cursor_table -->
<!-- c1 -->
<g id="node21" class="node">
<title>c1</title>
<path fill="#4d3a28" stroke="#6e6963" d="M1138.12,-1138.5C1138.12,-1138.5 939.88,-1138.5 939.88,-1138.5 933.88,-1138.5 927.88,-1132.5 927.88,-1126.5 927.88,-1126.5 927.88,-1053.25 927.88,-1053.25 927.88,-1047.25 933.88,-1041.25 939.88,-1041.25 939.88,-1041.25 1138.12,-1041.25 1138.12,-1041.25 1144.12,-1041.25 1150.12,-1047.25 1150.12,-1053.25 1150.12,-1053.25 1150.12,-1126.5 1150.12,-1126.5 1150.12,-1132.5 1144.12,-1138.5 1138.12,-1138.5"/>
<text xml:space="preserve" text-anchor="middle" x="1039" y="-1125" font-family="Helvetica,sans-Serif" font-size="10.00" fill="#ece1d7">② restart: resume_plan::resolve (boot)</text>
<text xml:space="preserve" text-anchor="middle" x="1039" y="-1112.25" font-family="Helvetica,sans-Serif" font-size="10.00" fill="#ece1d7">slot_restart_lsn &gt; resume_lsn →</text>
<text xml:space="preserve" text-anchor="middle" x="1039" y="-1099.5" font-family="Helvetica,sans-Serif" font-size="10.00" fill="#ece1d7">source recycled [resume_lsn, head]</text>
<text xml:space="preserve" text-anchor="middle" x="1039" y="-1086.75" font-family="Helvetica,sans-Serif" font-size="10.00" fill="#ece1d7">(mid&#45;stream the same recycle surfaces as</text>
<text xml:space="preserve" text-anchor="middle" x="1039" y="-1074" font-family="Helvetica,sans-Serif" font-size="10.00" fill="#ece1d7">START_REPLICATION 58P01 → typed</text>
<text xml:space="preserve" text-anchor="middle" x="1039" y="-1061.25" font-family="Helvetica,sans-Serif" font-size="10.00" fill="#ece1d7">WalSegmentRemoved → fatal exit,</text>
<text xml:space="preserve" text-anchor="middle" x="1039" y="-1048.5" font-family="Helvetica,sans-Serif" font-size="10.00" fill="#ece1d7">recovered on next boot)</text>
</g>
<!-- c0&#45;&gt;c1 -->
<g id="edge18" class="edge">
<title>c0&#45;&gt;c1</title>
<path fill="none" stroke="#c1a78e" d="M1033.09,-1182.95C1033.71,-1173.4 1034.51,-1160.88 1035.33,-1148.16"/>
<polygon fill="#c1a78e" stroke="#c1a78e" points="1038.1,-1148.57 1035.82,-1140.41 1032.52,-1148.21 1038.1,-1148.57"/>
</g>
<!-- c2 -->
<g id="node22" class="node">
<title>c2</title>
<polygon fill="#4d3340" stroke="#6e6963" points="1039,-1008.25 930,-974.75 1039,-941.25 1148,-974.75 1039,-1008.25"/>
<text xml:space="preserve" text-anchor="middle" x="1039" y="-978" font-family="Helvetica,sans-Serif" font-size="10.00" fill="#ece1d7">③ [backup] archive</text>
<text xml:space="preserve" text-anchor="middle" x="1039" y="-965.25" font-family="Helvetica,sans-Serif" font-size="10.00" fill="#ece1d7">configured?</text>
</g>
<!-- c1&#45;&gt;c2 -->
<g id="edge19" class="edge">
<title>c1&#45;&gt;c2</title>
<path fill="none" stroke="#c1a78e" d="M1039,-1040.9C1039,-1033.28 1039,-1025.44 1039,-1017.97"/>
<polygon fill="#c1a78e" stroke="#c1a78e" points="1041.8,-1018.25 1039,-1010.25 1036.2,-1018.25 1041.8,-1018.25"/>
</g>
<!-- c3 -->
<g id="node23" class="node">
<title>c3</title>
<path fill="#4d3a28" stroke="#6e6963" d="M1137.75,-891.62C1137.75,-891.62 940.25,-891.62 940.25,-891.62 934.25,-891.62 928.25,-885.62 928.25,-879.62 928.25,-879.62 928.25,-857.38 928.25,-857.38 928.25,-851.38 934.25,-845.38 940.25,-845.38 940.25,-845.38 1137.75,-845.38 1137.75,-845.38 1143.75,-845.38 1149.75,-851.38 1149.75,-857.38 1149.75,-857.38 1149.75,-879.62 1149.75,-879.62 1149.75,-885.62 1143.75,-891.62 1137.75,-891.62"/>
<text xml:space="preserve" text-anchor="middle" x="1039" y="-878.12" font-family="Helvetica,sans-Serif" font-size="10.00" fill="#ece1d7">④a Refill</text>
<text xml:space="preserve" text-anchor="middle" x="1039" y="-865.38" font-family="Helvetica,sans-Serif" font-size="10.00" fill="#ece1d7">replay [resume_lsn, handoff) from archive</text>
<text xml:space="preserve" text-anchor="middle" x="1039" y="-852.62" font-family="Helvetica,sans-Serif" font-size="10.00" fill="#ece1d7">through the live pump + sinks</text>
</g>
<!-- c2&#45;&gt;c3 -->
<g id="edge20" class="edge">
<title>c2&#45;&gt;c3</title>
<path fill="none" stroke="#8fa875" d="M1039,-940.76C1039,-928.12 1039,-913.73 1039,-901.21"/>
<polygon fill="#8fa875" stroke="#8fa875" points="1041.8,-901.57 1039,-893.57 1036.2,-901.57 1041.8,-901.57"/>
<text xml:space="preserve" text-anchor="middle" x="1046.5" y="-916.7" font-family="Helvetica,sans-Serif" font-size="9.00" fill="#8fa875">yes</text>
</g>
<!-- c4 -->
<g id="node24" class="node">
<title>c4</title>
<path fill="#4d3a28" stroke="#6e6963" d="M1383.88,-891.62C1383.88,-891.62 1184.12,-891.62 1184.12,-891.62 1178.12,-891.62 1172.12,-885.62 1172.12,-879.62 1172.12,-879.62 1172.12,-857.38 1172.12,-857.38 1172.12,-851.38 1178.12,-845.38 1184.12,-845.38 1184.12,-845.38 1383.88,-845.38 1383.88,-845.38 1389.88,-845.38 1395.88,-851.38 1395.88,-857.38 1395.88,-857.38 1395.88,-879.62 1395.88,-879.62 1395.88,-885.62 1389.88,-891.62 1383.88,-891.62"/>
<text xml:space="preserve" text-anchor="middle" x="1284" y="-878.12" font-family="Helvetica,sans-Serif" font-size="10.00" fill="#ece1d7">④b Fresh</text>
<text xml:space="preserve" text-anchor="middle" x="1284" y="-865.38" font-family="Helvetica,sans-Serif" font-size="10.00" fill="#ece1d7">greenfield re&#45;seed, in&#45;process (no operator</text>
<text xml:space="preserve" text-anchor="middle" x="1284" y="-852.62" font-family="Helvetica,sans-Serif" font-size="10.00" fill="#ece1d7">re&#45;invoke) → timeline_bootstrap</text>
</g>
<!-- c2&#45;&gt;c4 -->
<g id="edge21" class="edge">
<title>c2&#45;&gt;c4</title>
<path fill="none" stroke="#bd8183" d="M1083.94,-954.63C1122.84,-938.08 1179.47,-913.98 1222.56,-895.65"/>
<polygon fill="#bd8183" stroke="#bd8183" points="1223.6,-898.24 1229.87,-892.53 1221.41,-893.09 1223.6,-898.24"/>
<text xml:space="preserve" text-anchor="middle" x="1181.79" y="-916.7" font-family="Helvetica,sans-Serif" font-size="9.00" fill="#bd8183">no</text>
</g>
<!-- c5 -->
<g id="node25" class="node">
<title>c5</title>
<path fill="#4d3a28" stroke="#6e6963" d="M1135.12,-754C1135.12,-754 942.88,-754 942.88,-754 936.88,-754 930.88,-748 930.88,-742 930.88,-742 930.88,-730 930.88,-730 930.88,-724 936.88,-718 942.88,-718 942.88,-718 1135.12,-718 1135.12,-718 1141.12,-718 1147.12,-724 1147.12,-730 1147.12,-730 1147.12,-742 1147.12,-742 1147.12,-748 1141.12,-754 1135.12,-754"/>
<text xml:space="preserve" text-anchor="middle" x="1039" y="-739.25" font-family="Helvetica,sans-Serif" font-size="10.00" fill="#ece1d7">⑤a Refill: START_REPLICATION at handoff</text>
<text xml:space="preserve" text-anchor="middle" x="1039" y="-726.5" font-family="Helvetica,sans-Serif" font-size="10.00" fill="#ece1d7">rejoin live</text>
</g>
<!-- c3&#45;&gt;c5 -->
<g id="edge22" class="edge">
<title>c3&#45;&gt;c5</title>
<path fill="none" stroke="#c1a78e" d="M1039,-845.07C1039,-822.39 1039,-787.37 1039,-763.38"/>
<polygon fill="#c1a78e" stroke="#c1a78e" points="1041.8,-763.67 1039,-755.67 1036.2,-763.67 1041.8,-763.67"/>
</g>
<!-- c6 -->
<g id="node26" class="node">
<title>c6</title>
<path fill="#3d4128" stroke="#6e6963" d="M1327.25,-806C1327.25,-806 1174.75,-806 1174.75,-806 1168.75,-806 1162.75,-800 1162.75,-794 1162.75,-794 1162.75,-782 1162.75,-782 1162.75,-776 1168.75,-770 1174.75,-770 1174.75,-770 1327.25,-770 1327.25,-770 1333.25,-770 1339.25,-776 1339.25,-782 1339.25,-782 1339.25,-794 1339.25,-794 1339.25,-800 1333.25,-806 1327.25,-806"/>
<text xml:space="preserve" text-anchor="middle" x="1251" y="-791.25" font-family="Helvetica,sans-Serif" font-size="10.00" fill="#ece1d7">⑤b Fresh: shadow data dir wiped</text>
<text xml:space="preserve" text-anchor="middle" x="1251" y="-778.5" font-family="Helvetica,sans-Serif" font-size="10.00" fill="#ece1d7">or diverted to fresh dir</text>
</g>
<!-- c4&#45;&gt;c6 -->
<g id="edge24" class="edge">
<title>c4&#45;&gt;c6</title>
<path fill="none" stroke="#c1a78e" d="M1274.63,-845.22C1270.66,-835.78 1266.01,-824.71 1261.89,-814.91"/>
<polygon fill="#c1a78e" stroke="#c1a78e" points="1264.56,-814.03 1258.88,-807.74 1259.4,-816.2 1264.56,-814.03"/>
</g>
<!-- c8 -->
<g id="node28" class="node">
<title>c8</title>
<path fill="#4d4128" stroke="#6e6963" d="M1125.75,-617.62C1125.75,-617.62 952.25,-617.62 952.25,-617.62 946.25,-617.62 940.25,-611.62 940.25,-605.62 940.25,-605.62 940.25,-593.62 940.25,-593.62 940.25,-587.62 946.25,-581.62 952.25,-581.62 952.25,-581.62 1125.75,-581.62 1125.75,-581.62 1131.75,-581.62 1137.75,-587.62 1137.75,-593.62 1137.75,-593.62 1137.75,-605.62 1137.75,-605.62 1137.75,-611.62 1131.75,-617.62 1125.75,-617.62"/>
<text xml:space="preserve" text-anchor="middle" x="1039" y="-602.88" font-family="Helvetica,sans-Serif" font-size="10.00" fill="#ece1d7">⑦ steady&#45;state reached</text>
<text xml:space="preserve" text-anchor="middle" x="1039" y="-590.12" font-family="Helvetica,sans-Serif" font-size="10.00" fill="#ece1d7">CH ReplacingMergeTree(_lsn) dedups</text>
</g>
<!-- c5&#45;&gt;c8 -->
<g id="edge23" class="edge">
<title>c5&#45;&gt;c8</title>
<path fill="none" stroke="#c1a78e" d="M1039,-717.71C1039,-694.73 1039,-653.91 1039,-627.05"/>
<polygon fill="#c1a78e" stroke="#c1a78e" points="1041.8,-627.36 1039,-619.36 1036.2,-627.36 1041.8,-627.36"/>
</g>
<!-- c7 -->
<g id="node27" class="node">
<title>c7</title>
<path fill="#4d3a28" stroke="#6e6963" d="M1258.12,-696.88C1258.12,-696.88 1107.88,-696.88 1107.88,-696.88 1101.88,-696.88 1095.88,-690.88 1095.88,-684.88 1095.88,-684.88 1095.88,-672.88 1095.88,-672.88 1095.88,-666.88 1101.88,-660.88 1107.88,-660.88 1107.88,-660.88 1258.12,-660.88 1258.12,-660.88 1264.12,-660.88 1270.12,-666.88 1270.12,-672.88 1270.12,-672.88 1270.12,-684.88 1270.12,-684.88 1270.12,-690.88 1264.12,-696.88 1258.12,-696.88"/>
<text xml:space="preserve" text-anchor="middle" x="1183" y="-682.12" font-family="Helvetica,sans-Serif" font-size="10.00" fill="#ece1d7">⑥b Fresh: new cursor.bin written</text>
<text xml:space="preserve" text-anchor="middle" x="1183" y="-669.38" font-family="Helvetica,sans-Serif" font-size="10.00" fill="#ece1d7">at end_lsn</text>
</g>
<!-- c6&#45;&gt;c7 -->
<g id="edge25" class="edge">
<title>c6&#45;&gt;c7</title>
<path fill="none" stroke="#c1a78e" d="M1240.07,-769.79C1228.92,-752.22 1211.5,-724.77 1198.83,-704.82"/>
<polygon fill="#c1a78e" stroke="#c1a78e" points="1201.36,-703.58 1194.71,-698.32 1196.63,-706.58 1201.36,-703.58"/>
</g>
<!-- c7&#45;&gt;c8 -->
<g id="edge26" class="edge">
<title>c7&#45;&gt;c8</title>
<path fill="none" stroke="#c1a78e" d="M1150.68,-660.54C1129.65,-649.26 1102.06,-634.45 1079.56,-622.38"/>
<polygon fill="#c1a78e" stroke="#c1a78e" points="1080.92,-619.93 1072.54,-618.62 1078.27,-624.87 1080.92,-619.93"/>
</g>
<!-- c8&#45;&gt;cursor_table -->
<!-- legend -->
<g id="node30" class="node">
<title>legend</title>
<path fill="#6e6963" stroke="none" d="M823.88,-235.5C823.88,-235.5 598.12,-235.5 598.12,-235.5 592.12,-235.5 586.12,-229.5 586.12,-223.5 586.12,-223.5 586.12,-12 586.12,-12 586.12,-6 592.12,0 598.12,0 598.12,0 823.88,0 823.88,0 829.88,0 835.88,-6 835.88,-12 835.88,-12 835.88,-223.5 835.88,-223.5 835.88,-229.5 829.88,-235.5 823.88,-235.5"/>
<polygon fill="#34302c" stroke="none" points="594.12,-208.75 594.12,-231.5 827.88,-231.5 827.88,-208.75 594.12,-208.75"/>
<polygon fill="none" stroke="#6e6963" points="594.12,-208.75 594.12,-231.5 827.88,-231.5 827.88,-208.75 594.12,-208.75"/>
<text xml:space="preserve" text-anchor="start" x="687.75" y="-218" font-family="Helvetica,sans-Serif" font-weight="bold" font-size="10.00" fill="#ece1d7">node fill</text>
<polygon fill="#403a36" stroke="none" points="594.12,-186 594.12,-208.75 622.12,-208.75 622.12,-186 594.12,-186"/>
<polygon fill="none" stroke="#6e6963" points="594.12,-186 594.12,-208.75 622.12,-208.75 622.12,-186 594.12,-186"/>
<polygon fill="none" stroke="#6e6963" points="622.12,-186 622.12,-208.75 827.88,-208.75 827.88,-186 622.12,-186"/>
<text xml:space="preserve" text-anchor="start" x="677.75" y="-194.25" font-family="Helvetica,sans-Serif" font-size="10.00" fill="#ece1d7">operator / OS event</text>
<polygon fill="#4d3a28" stroke="none" points="594.12,-163.25 594.12,-186 622.12,-186 622.12,-163.25 594.12,-163.25"/>
<polygon fill="none" stroke="#6e6963" points="594.12,-163.25 594.12,-186 622.12,-186 622.12,-163.25 594.12,-163.25"/>
<polygon fill="none" stroke="#6e6963" points="622.12,-163.25 622.12,-186 827.88,-186 827.88,-163.25 622.12,-163.25"/>
<text xml:space="preserve" text-anchor="start" x="678.5" y="-171.5" font-family="Helvetica,sans-Serif" font-size="10.00" fill="#ece1d7">walshadow&#45;stream</text>
<polygon fill="#4d3340" stroke="none" points="594.12,-140.5 594.12,-163.25 622.12,-163.25 622.12,-140.5 594.12,-140.5"/>
<polygon fill="none" stroke="#6e6963" points="594.12,-140.5 594.12,-163.25 622.12,-163.25 622.12,-140.5 594.12,-140.5"/>
<polygon fill="none" stroke="#6e6963" points="622.12,-140.5 622.12,-163.25 827.88,-163.25 827.88,-140.5 622.12,-140.5"/>
<text xml:space="preserve" text-anchor="start" x="627.12" y="-148.75" font-family="Helvetica,sans-Serif" font-size="10.00" fill="#ece1d7">walshadow — segment / walsender side</text>
<polygon fill="#3d4128" stroke="none" points="594.12,-117.75 594.12,-140.5 622.12,-140.5 622.12,-117.75 594.12,-117.75"/>
<polygon fill="none" stroke="#6e6963" points="594.12,-117.75 594.12,-140.5 622.12,-140.5 622.12,-117.75 594.12,-117.75"/>
<polygon fill="none" stroke="#6e6963" points="622.12,-117.75 622.12,-140.5 827.88,-140.5 827.88,-117.75 622.12,-117.75"/>
<text xml:space="preserve" text-anchor="start" x="683.75" y="-126" font-family="Helvetica,sans-Serif" font-size="10.00" fill="#ece1d7">shadow Postgres</text>
<polygon fill="#4d4128" stroke="none" points="594.12,-95 594.12,-117.75 622.12,-117.75 622.12,-95 594.12,-95"/>
<polygon fill="none" stroke="#6e6963" points="594.12,-95 594.12,-117.75 622.12,-117.75 622.12,-95 594.12,-95"/>
<polygon fill="none" stroke="#6e6963" points="622.12,-95 622.12,-117.75 827.88,-117.75 827.88,-95 622.12,-95"/>
<text xml:space="preserve" text-anchor="start" x="654.5" y="-103.25" font-family="Helvetica,sans-Serif" font-size="10.00" fill="#ece1d7">ClickHouse (dedup endpoint)</text>
<polygon fill="#34302c" stroke="none" points="594.12,-72.25 594.12,-95 827.88,-95 827.88,-72.25 594.12,-72.25"/>
<polygon fill="none" stroke="#6e6963" points="594.12,-72.25 594.12,-95 827.88,-95 827.88,-72.25 594.12,-72.25"/>
<text xml:space="preserve" text-anchor="start" x="644.25" y="-81.5" font-family="Helvetica,sans-Serif" font-weight="bold" font-size="10.00" fill="#ece1d7">scenario cluster border</text>
<polygon fill="none" stroke="#6e6963" points="594.12,-49.5 594.12,-72.25 622.12,-72.25 622.12,-49.5 594.12,-49.5"/>
<text xml:space="preserve" text-anchor="start" x="605.12" y="-58.75" font-family="Helvetica,sans-Serif" font-weight="bold" font-size="10.00" fill="#a1a9cc">━</text>
<polygon fill="none" stroke="#6e6963" points="622.12,-49.5 622.12,-72.25 827.88,-72.25 827.88,-49.5 622.12,-49.5"/>
<text xml:space="preserve" text-anchor="start" x="660.5" y="-57.75" font-family="Helvetica,sans-Serif" font-size="10.00" fill="#ece1d7">A. clean restart (SIGTERM)</text>
<polygon fill="none" stroke="#6e6963" points="594.12,-26.75 594.12,-49.5 622.12,-49.5 622.12,-26.75 594.12,-26.75"/>
<text xml:space="preserve" text-anchor="start" x="605.12" y="-36" font-family="Helvetica,sans-Serif" font-weight="bold" font-size="10.00" fill="#cba85e">━</text>
<polygon fill="none" stroke="#6e6963" points="622.12,-26.75 622.12,-49.5 827.88,-49.5 827.88,-26.75 622.12,-26.75"/>
<text xml:space="preserve" text-anchor="start" x="674.75" y="-35" font-family="Helvetica,sans-Serif" font-size="10.00" fill="#ece1d7">B. kill &#45;9 mid&#45;stream</text>
<polygon fill="none" stroke="#6e6963" points="594.12,-4 594.12,-26.75 622.12,-26.75 622.12,-4 594.12,-4"/>
<text xml:space="preserve" text-anchor="start" x="605.12" y="-13.25" font-family="Helvetica,sans-Serif" font-weight="bold" font-size="10.00" fill="#bd8183">━</text>
<polygon fill="none" stroke="#6e6963" points="622.12,-4 622.12,-26.75 827.88,-26.75 827.88,-4 622.12,-4"/>
<text xml:space="preserve" text-anchor="start" x="643.25" y="-12.25" font-family="Helvetica,sans-Serif" font-size="10.00" fill="#ece1d7">C. source recycled → Refill / Fresh</text>
</g>
<!-- cursor_table&#45;&gt;legend -->
</g>
</svg>
