<?xml version="1.0" encoding="UTF-8" standalone="no"?>
<!DOCTYPE svg PUBLIC "-//W3C//DTD SVG 1.1//EN"
 "http://www.w3.org/Graphics/SVG/1.1/DTD/svg11.dtd">
<!-- Generated by graphviz version 15.1.0 (20260618.0150)
 -->
<!-- Title: timeline_bootstrap Pages: 1 -->
<svg width="1207pt" height="1597pt"
 viewBox="0.00 0.00 1207.00 1597.00" xmlns="http://www.w3.org/2000/svg" xmlns:xlink="http://www.w3.org/1999/xlink">
<g id="graph0" class="graph" transform="scale(1 1) rotate(0) translate(4 1592.5)">
<title>timeline_bootstrap</title>
<polygon fill="#272623" stroke="none" points="-4,4 -4,-1592.5 1203,-1592.5 1203,4 -4,4"/>
<text xml:space="preserve" text-anchor="middle" x="599.5" y="-1571.2" font-family="Helvetica,sans-Serif" font-size="14.00" fill="#ece1d7">walshadow greenfield bootstrap — 5 phases</text>
<g id="clust1" class="cluster">
<title>cluster_p1</title>
<path fill="#34302c" stroke="#4c4641" d="M130,-1267.75C130,-1267.75 308,-1267.75 308,-1267.75 314,-1267.75 320,-1273.75 320,-1279.75 320,-1279.75 320,-1543.25 320,-1543.25 320,-1549.25 314,-1555.25 308,-1555.25 308,-1555.25 130,-1555.25 130,-1555.25 124,-1555.25 118,-1549.25 118,-1543.25 118,-1543.25 118,-1279.75 118,-1279.75 118,-1273.75 124,-1267.75 130,-1267.75"/>
<text xml:space="preserve" text-anchor="middle" x="219" y="-1537.95" font-family="Helvetica,sans-Serif" font-size="14.00" fill="#ece1d7">① catalog seed</text>
</g>
<g id="clust2" class="cluster">
<title>cluster_p2</title>
<path fill="#34302c" stroke="#4c4641" d="M340,-1002.88C340,-1002.88 822,-1002.88 822,-1002.88 828,-1002.88 834,-1008.88 834,-1014.88 834,-1014.88 834,-1343.25 834,-1343.25 834,-1349.25 828,-1355.25 822,-1355.25 822,-1355.25 340,-1355.25 340,-1355.25 334,-1355.25 328,-1349.25 328,-1343.25 328,-1343.25 328,-1014.88 328,-1014.88 328,-1008.88 334,-1002.88 340,-1002.88"/>
<text xml:space="preserve" text-anchor="middle" x="581" y="-1337.95" font-family="Helvetica,sans-Serif" font-size="14.00" fill="#ece1d7">② BASE_BACKUP pump — MultiplexSink fan&#45;out</text>
</g>
<g id="clust3" class="cluster">
<title>cluster_p3</title>
<path fill="#34302c" stroke="#4c4641" d="M20,-866C20,-866 308,-866 308,-866 314,-866 320,-872 320,-878 320,-878 320,-1086 320,-1086 320,-1092 314,-1098 308,-1098 308,-1098 20,-1098 20,-1098 14,-1098 8,-1092 8,-1086 8,-1086 8,-878 8,-878 8,-872 14,-866 20,-866"/>
<text xml:space="preserve" text-anchor="middle" x="164" y="-1080.7" font-family="Helvetica,sans-Serif" font-size="14.00" fill="#ece1d7">③ drain → ClickHouse &#160;(concurrent with ②)</text>
</g>
<g id="clust4" class="cluster">
<title>cluster_p4</title>
<path fill="#34302c" stroke="#4c4641" d="M854,-616.25C854,-616.25 1179,-616.25 1179,-616.25 1185,-616.25 1191,-622.25 1191,-628.25 1191,-628.25 1191,-1226.5 1191,-1226.5 1191,-1232.5 1185,-1238.5 1179,-1238.5 1179,-1238.5 854,-1238.5 854,-1238.5 848,-1238.5 842,-1232.5 842,-1226.5 842,-1226.5 842,-628.25 842,-628.25 842,-622.25 848,-616.25 854,-616.25"/>
<text xml:space="preserve" text-anchor="middle" x="1016.5" y="-1221.2" font-family="Helvetica,sans-Serif" font-size="14.00" fill="#ece1d7">④ shadow handoff</text>
</g>
<g id="clust5" class="cluster">
<title>cluster_p5</title>
<path fill="#34302c" stroke="#4c4641" d="M744,-310C744,-310 1088,-310 1088,-310 1094,-310 1100,-316 1100,-322 1100,-322 1100,-575 1100,-575 1100,-581 1094,-587 1088,-587 1088,-587 744,-587 744,-587 738,-587 732,-581 732,-575 732,-575 732,-322 732,-322 732,-316 738,-310 744,-310"/>
<text xml:space="preserve" text-anchor="middle" x="916" y="-569.7" font-family="Helvetica,sans-Serif" font-size="14.00" fill="#ece1d7">⑤ cursor + WAL pump start &#160;(→ steady&#45;state)</text>
</g>
<!-- op1 -->
<g id="node1" class="node">
<title>op1</title>
<path fill="#403a36" stroke="#6e6963" d="M275.75,-1522C275.75,-1522 162.25,-1522 162.25,-1522 156.25,-1522 150.25,-1516 150.25,-1510 150.25,-1510 150.25,-1487.75 150.25,-1487.75 150.25,-1481.75 156.25,-1475.75 162.25,-1475.75 162.25,-1475.75 275.75,-1475.75 275.75,-1475.75 281.75,-1475.75 287.75,-1481.75 287.75,-1487.75 287.75,-1487.75 287.75,-1510 287.75,-1510 287.75,-1516 281.75,-1522 275.75,-1522"/>
<text xml:space="preserve" text-anchor="middle" x="219" y="-1508.5" font-family="Helvetica,sans-Serif" font-size="10.00" fill="#ece1d7">walshadow&#45;stream</text>
<text xml:space="preserve" text-anchor="middle" x="219" y="-1495.75" font-family="Helvetica,sans-Serif" font-size="10.00" fill="#ece1d7">&#45;&#45;bootstrap&#45;mode=direct</text>
<text xml:space="preserve" text-anchor="middle" x="219" y="-1483" font-family="Helvetica,sans-Serif" font-size="10.00" fill="#ece1d7">&#45;&#45;ch&#45;config=…</text>
</g>
<!-- map1 -->
<g id="node3" class="node">
<title>map1</title>
<path fill="#4d3a28" stroke="#6e6963" d="M298.62,-1428.5C298.62,-1428.5 139.38,-1428.5 139.38,-1428.5 133.38,-1428.5 127.38,-1422.5 127.38,-1416.5 127.38,-1416.5 127.38,-1404.5 127.38,-1404.5 127.38,-1398.5 133.38,-1392.5 139.38,-1392.5 139.38,-1392.5 298.62,-1392.5 298.62,-1392.5 304.62,-1392.5 310.62,-1398.5 310.62,-1404.5 310.62,-1404.5 310.62,-1416.5 310.62,-1416.5 310.62,-1422.5 304.62,-1428.5 298.62,-1428.5"/>
<text xml:space="preserve" text-anchor="middle" x="219" y="-1413.75" font-family="Helvetica,sans-Serif" font-size="10.00" fill="#ece1d7">CatalogTracker::seed_from_source</text>
<text xml:space="preserve" text-anchor="middle" x="219" y="-1401" font-family="Helvetica,sans-Serif" font-size="10.00" fill="#ece1d7">builds CatalogMap</text>
</g>
<!-- op1&#45;&gt;map1 -->
<g id="edge1" class="edge">
<title>op1&#45;&gt;map1</title>
<path fill="none" stroke="#c1a78e" d="M219,-1475.63C219,-1464.23 219,-1450.26 219,-1438.27"/>
<polygon fill="#c1a78e" stroke="#c1a78e" points="221.8,-1438.28 219,-1430.28 216.2,-1438.28 221.8,-1438.28"/>
<text xml:space="preserve" text-anchor="middle" x="233.62" y="-1449.2" font-family="Helvetica,sans-Serif" font-size="9.00" fill="#ece1d7">spawn</text>
</g>
<!-- sql1 -->
<g id="node2" class="node">
<title>sql1</title>
<path fill="#3d3d54" stroke="#6e6963" d="M299.75,-1322C299.75,-1322 138.25,-1322 138.25,-1322 132.25,-1322 126.25,-1316 126.25,-1310 126.25,-1310 126.25,-1287.75 126.25,-1287.75 126.25,-1281.75 132.25,-1275.75 138.25,-1275.75 138.25,-1275.75 299.75,-1275.75 299.75,-1275.75 305.75,-1275.75 311.75,-1281.75 311.75,-1287.75 311.75,-1287.75 311.75,-1310 311.75,-1310 311.75,-1316 305.75,-1322 299.75,-1322"/>
<text xml:space="preserve" text-anchor="middle" x="219" y="-1308.5" font-family="Helvetica,sans-Serif" font-size="10.00" fill="#ece1d7">sidecar SQL on source</text>
<text xml:space="preserve" text-anchor="middle" x="219" y="-1295.75" font-family="Helvetica,sans-Serif" font-size="10.00" fill="#ece1d7">SELECT oid, relfilenode</text>
<text xml:space="preserve" text-anchor="middle" x="219" y="-1283" font-family="Helvetica,sans-Serif" font-size="10.00" fill="#ece1d7">FROM pg_class WHERE oid≥16384</text>
</g>
<!-- map1&#45;&gt;sql1 -->
<g id="edge2" class="edge">
<title>map1&#45;&gt;sql1</title>
<path fill="none" stroke="#cba85e" d="M219,-1383.25C219,-1367.68 219,-1347.83 219,-1331.41"/>
<polygon fill="#cba85e" stroke="#cba85e" points="219,-1391.15 215.4,-1383.15 219,-1388.37 219,-1383.15 219,-1383.15 219,-1383.15 219,-1388.37 222.6,-1383.15 219,-1391.15"/>
<polygon fill="#cba85e" stroke="#cba85e" points="221.8,-1331.7 219,-1323.7 216.2,-1331.7 221.8,-1331.7"/>
<text xml:space="preserve" text-anchor="middle" x="230.25" y="-1365.95" font-family="Helvetica,sans-Serif" font-size="9.00" fill="#ece1d7">libpq</text>
</g>
<!-- bs2 -->
<g id="node4" class="node">
<title>bs2</title>
<path fill="#4d3a28" stroke="#6e6963" d="M617.38,-1322C617.38,-1322 522.62,-1322 522.62,-1322 516.62,-1322 510.62,-1316 510.62,-1310 510.62,-1310 510.62,-1287.75 510.62,-1287.75 510.62,-1281.75 516.62,-1275.75 522.62,-1275.75 522.62,-1275.75 617.38,-1275.75 617.38,-1275.75 623.38,-1275.75 629.38,-1281.75 629.38,-1287.75 629.38,-1287.75 629.38,-1310 629.38,-1310 629.38,-1316 623.38,-1322 617.38,-1322"/>
<text xml:space="preserve" text-anchor="middle" x="570" y="-1308.5" font-family="Helvetica,sans-Serif" font-size="10.00" fill="#ece1d7">BackupSource</text>
<text xml:space="preserve" text-anchor="middle" x="570" y="-1295.75" font-family="Helvetica,sans-Serif" font-size="10.00" fill="#ece1d7">(Direct | ObjectStore)</text>
<text xml:space="preserve" text-anchor="middle" x="570" y="-1283" font-family="Helvetica,sans-Serif" font-size="10.00" fill="#ece1d7">begin pump</text>
</g>
<!-- map1&#45;&gt;bs2 -->
<g id="edge7" class="edge">
<title>map1&#45;&gt;bs2</title>
<path fill="none" stroke="#a1a9cc" d="M275.01,-1392.01C305.05,-1382.62 344,-1370.46 383.69,-1358.06"/>
<polygon fill="#a1a9cc" stroke="#a1a9cc" points="384.46,-1360.76 391.26,-1355.7 382.79,-1355.41 384.46,-1360.76"/>
<text xml:space="preserve" text-anchor="middle" x="408.06" y="-1365.95" font-family="Helvetica,sans-Serif" font-size="9.00" fill="#ece1d7">open BASE_BACKUP</text>
</g>
<!-- src2 -->
<g id="node5" class="node">
<title>src2</title>
<path fill="#3d3d54" stroke="#6e6963" d="M445.88,-1210.38C445.88,-1210.38 348.12,-1210.38 348.12,-1210.38 342.12,-1210.38 336.12,-1204.38 336.12,-1198.38 336.12,-1198.38 336.12,-1176.12 336.12,-1176.12 336.12,-1170.12 342.12,-1164.12 348.12,-1164.12 348.12,-1164.12 445.88,-1164.12 445.88,-1164.12 451.88,-1164.12 457.88,-1170.12 457.88,-1176.12 457.88,-1176.12 457.88,-1198.38 457.88,-1198.38 457.88,-1204.38 451.88,-1210.38 445.88,-1210.38"/>
<text xml:space="preserve" text-anchor="middle" x="397" y="-1196.88" font-family="Helvetica,sans-Serif" font-size="10.00" fill="#ece1d7">BASE_BACKUP open</text>
<text xml:space="preserve" text-anchor="middle" x="397" y="-1184.12" font-family="Helvetica,sans-Serif" font-size="10.00" fill="#ece1d7">pg_export_snapshot()</text>
<text xml:space="preserve" text-anchor="middle" x="397" y="-1171.38" font-family="Helvetica,sans-Serif" font-size="10.00" fill="#ece1d7">start_lsn = X</text>
</g>
<!-- bs2&#45;&gt;src2 -->
<g id="edge3" class="edge">
<title>bs2&#45;&gt;src2</title>
<path fill="none" stroke="#a1a9cc" d="M502.48,-1271.7C493.69,-1267.44 484.98,-1262.77 477,-1257.75 458.66,-1246.22 440.27,-1230.6 425.75,-1217.08"/>
<polygon fill="#a1a9cc" stroke="#a1a9cc" points="509.46,-1274.97 500.69,-1274.83 506.94,-1273.79 502.21,-1271.57 502.21,-1271.57 502.21,-1271.57 506.94,-1273.79 503.74,-1268.31 509.46,-1274.97"/>
<polygon fill="#a1a9cc" stroke="#a1a9cc" points="427.79,-1215.15 420.06,-1211.68 423.94,-1219.22 427.79,-1215.15"/>
<text xml:space="preserve" text-anchor="middle" x="520.5" y="-1249.2" font-family="Helvetica,sans-Serif" font-size="9.00" fill="#ece1d7">replication protocol</text>
</g>
<!-- lan2 -->
<g id="node6" class="node">
<title>lan2</title>
<path fill="#4d3a28" stroke="#6e6963" d="M814.12,-1210.38C814.12,-1210.38 693.88,-1210.38 693.88,-1210.38 687.88,-1210.38 681.88,-1204.38 681.88,-1198.38 681.88,-1198.38 681.88,-1176.12 681.88,-1176.12 681.88,-1170.12 687.88,-1164.12 693.88,-1164.12 693.88,-1164.12 814.12,-1164.12 814.12,-1164.12 820.12,-1164.12 826.12,-1170.12 826.12,-1176.12 826.12,-1176.12 826.12,-1198.38 826.12,-1198.38 826.12,-1204.38 820.12,-1210.38 814.12,-1210.38"/>
<text xml:space="preserve" text-anchor="middle" x="754" y="-1196.88" font-family="Helvetica,sans-Serif" font-size="10.00" fill="#ece1d7">DiskLanderSink</text>
<text xml:space="preserve" text-anchor="middle" x="754" y="-1184.12" font-family="Helvetica,sans-Serif" font-size="10.00" fill="#ece1d7">catalog → shadow data dir</text>
<text xml:space="preserve" text-anchor="middle" x="754" y="-1171.38" font-family="Helvetica,sans-Serif" font-size="10.00" fill="#ece1d7">user&#45;heap filenode Skip</text>
</g>
<!-- bs2&#45;&gt;lan2 -->
<g id="edge4" class="edge">
<title>bs2&#45;&gt;lan2</title>
<path fill="none" stroke="#c1a78e" d="M607.68,-1275.43C636.73,-1258.12 677.04,-1234.1 708,-1215.66"/>
<polygon fill="#c1a78e" stroke="#c1a78e" points="709.32,-1218.13 714.76,-1211.63 706.45,-1213.32 709.32,-1218.13"/>
<text xml:space="preserve" text-anchor="middle" x="680.98" y="-1249.2" font-family="Helvetica,sans-Serif" font-size="9.00" fill="#ece1d7">MultiplexSink</text>
</g>
<!-- walk2 -->
<g id="node7" class="node">
<title>walk2</title>
<path fill="#4d3a28" stroke="#6e6963" d="M644.75,-1216.75C644.75,-1216.75 495.25,-1216.75 495.25,-1216.75 489.25,-1216.75 483.25,-1210.75 483.25,-1204.75 483.25,-1204.75 483.25,-1169.75 483.25,-1169.75 483.25,-1163.75 489.25,-1157.75 495.25,-1157.75 495.25,-1157.75 644.75,-1157.75 644.75,-1157.75 650.75,-1157.75 656.75,-1163.75 656.75,-1169.75 656.75,-1169.75 656.75,-1204.75 656.75,-1204.75 656.75,-1210.75 650.75,-1216.75 644.75,-1216.75"/>
<text xml:space="preserve" text-anchor="middle" x="570" y="-1203.25" font-family="Helvetica,sans-Serif" font-size="10.00" fill="#ece1d7">PageWalkSink</text>
<text xml:space="preserve" text-anchor="middle" x="570" y="-1190.5" font-family="Helvetica,sans-Serif" font-size="10.00" fill="#ece1d7">decode 8 KiB heap pages</text>
<text xml:space="preserve" text-anchor="middle" x="570" y="-1177.75" font-family="Helvetica,sans-Serif" font-size="10.00" fill="#ece1d7">main + pg_toast tuples with TID</text>
<text xml:space="preserve" text-anchor="middle" x="570" y="-1165" font-family="Helvetica,sans-Serif" font-size="10.00" fill="#ece1d7">→ BackfillTuple (mpsc)</text>
</g>
<!-- bs2&#45;&gt;walk2 -->
<g id="edge5" class="edge">
<title>bs2&#45;&gt;walk2</title>
<path fill="none" stroke="#c1a78e" d="M570,-1275.43C570,-1261.29 570,-1242.67 570,-1226.28"/>
<polygon fill="#c1a78e" stroke="#c1a78e" points="572.8,-1226.44 570,-1218.44 567.2,-1226.44 572.8,-1226.44"/>
<text xml:space="preserve" text-anchor="middle" x="600" y="-1249.2" font-family="Helvetica,sans-Serif" font-size="9.00" fill="#ece1d7">MultiplexSink</text>
</g>
<!-- end4 -->
<g id="node11" class="node">
<title>end4</title>
<path fill="#3d3d54" stroke="#6e6963" d="M947.75,-1205.25C947.75,-1205.25 864.25,-1205.25 864.25,-1205.25 858.25,-1205.25 852.25,-1199.25 852.25,-1193.25 852.25,-1193.25 852.25,-1181.25 852.25,-1181.25 852.25,-1175.25 858.25,-1169.25 864.25,-1169.25 864.25,-1169.25 947.75,-1169.25 947.75,-1169.25 953.75,-1169.25 959.75,-1175.25 959.75,-1181.25 959.75,-1181.25 959.75,-1193.25 959.75,-1193.25 959.75,-1199.25 953.75,-1205.25 947.75,-1205.25"/>
<text xml:space="preserve" text-anchor="middle" x="906" y="-1190.5" font-family="Helvetica,sans-Serif" font-size="10.00" fill="#ece1d7">BASE_BACKUP end</text>
<text xml:space="preserve" text-anchor="middle" x="906" y="-1177.75" font-family="Helvetica,sans-Serif" font-size="10.00" fill="#ece1d7">end_lsn = Y</text>
</g>
<!-- bs2&#45;&gt;end4 -->
<g id="edge17" class="edge">
<title>bs2&#45;&gt;end4</title>
<path fill="none" stroke="#a1a9cc" d="M629.77,-1292.24C683.91,-1285.5 765.19,-1271.23 833.71,-1241.28"/>
<polygon fill="#a1a9cc" stroke="#a1a9cc" points="834.47,-1244.01 840.62,-1238.17 832.18,-1238.9 834.47,-1244.01"/>
<text xml:space="preserve" text-anchor="middle" x="831.84" y="-1249.2" font-family="Helvetica,sans-Serif" font-size="9.00" fill="#ece1d7">finish</text>
</g>
<!-- dsk2 -->
<g id="node8" class="node">
<title>dsk2</title>
<polygon fill="#4d3850" stroke="#6e6963" points="803.62,-1046.88 698.38,-1046.88 698.38,-1010.88 809.62,-1010.88 809.62,-1040.88 803.62,-1046.88"/>
<polyline fill="none" stroke="#6e6963" points="803.62,-1046.88 803.62,-1040.88"/>
<polyline fill="none" stroke="#6e6963" points="809.62,-1040.88 803.62,-1040.88"/>
<text xml:space="preserve" text-anchor="middle" x="754" y="-1032.12" font-family="Helvetica,sans-Serif" font-size="10.00" fill="#ece1d7">shadow data dir</text>
<text xml:space="preserve" text-anchor="middle" x="754" y="-1019.38" font-family="Helvetica,sans-Serif" font-size="10.00" fill="#ece1d7">catalog files landed</text>
</g>
<!-- lan2&#45;&gt;dsk2 -->
<g id="edge6" class="edge">
<title>lan2&#45;&gt;dsk2</title>
<path fill="none" stroke="#c1a78e" d="M754,-1163.85C754,-1135.47 754,-1086.64 754,-1056.42"/>
<polygon fill="#c1a78e" stroke="#c1a78e" points="756.8,-1056.46 754,-1048.46 751.2,-1056.46 756.8,-1056.46"/>
<text xml:space="preserve" text-anchor="middle" x="772" y="-1119.95" font-family="Helvetica,sans-Serif" font-size="9.00" fill="#ece1d7">land file</text>
</g>
<!-- drain3 -->
<g id="node9" class="node">
<title>drain3</title>
<path fill="#4d3a28" stroke="#6e6963" d="M296.62,-1064.75C296.62,-1064.75 131.38,-1064.75 131.38,-1064.75 125.38,-1064.75 119.38,-1058.75 119.38,-1052.75 119.38,-1052.75 119.38,-1005 119.38,-1005 119.38,-999 125.38,-993 131.38,-993 131.38,-993 296.62,-993 296.62,-993 302.62,-993 308.62,-999 308.62,-1005 308.62,-1005 308.62,-1052.75 308.62,-1052.75 308.62,-1058.75 302.62,-1064.75 296.62,-1064.75"/>
<text xml:space="preserve" text-anchor="middle" x="214" y="-1051.25" font-family="Helvetica,sans-Serif" font-size="10.00" fill="#ece1d7">pipeline::bootstrap::drain</text>
<text xml:space="preserve" text-anchor="middle" x="214" y="-1038.5" font-family="Helvetica,sans-Serif" font-size="10.00" fill="#ece1d7">ToastRows → mirror batch</text>
<text xml:space="preserve" text-anchor="middle" x="214" y="-1025.75" font-family="Helvetica,sans-Serif" font-size="10.00" fill="#ece1d7">ExternalToast → deferred</text>
<text xml:space="preserve" text-anchor="middle" x="214" y="-1013" font-family="Helvetica,sans-Serif" font-size="10.00" fill="#ece1d7">flush chunks, fetch + resolve</text>
<text xml:space="preserve" text-anchor="middle" x="214" y="-1000.25" font-family="Helvetica,sans-Serif" font-size="10.00" fill="#ece1d7">map main rows; one seq per rfn flip</text>
</g>
<!-- walk2&#45;&gt;drain3 -->
<g id="edge9" class="edge">
<title>walk2&#45;&gt;drain3</title>
<path fill="none" stroke="#c1a78e" d="M482.87,-1160.47C436.99,-1145.67 380.06,-1125.39 328.55,-1101.11"/>
<polygon fill="#c1a78e" stroke="#c1a78e" points="329.79,-1098.6 321.36,-1097.67 327.37,-1103.65 329.79,-1098.6"/>
<text xml:space="preserve" text-anchor="middle" x="471.47" y="-1131.2" font-family="Helvetica,sans-Serif" font-size="9.00" fill="#ece1d7">BackfillTuple</text>
<text xml:space="preserve" text-anchor="middle" x="471.47" y="-1119.95" font-family="Helvetica,sans-Serif" font-size="9.00" fill="#ece1d7">(bounded mpsc 256,</text>
<text xml:space="preserve" text-anchor="middle" x="471.47" y="-1108.7" font-family="Helvetica,sans-Serif" font-size="9.00" fill="#ece1d7">backpressures pump)</text>
</g>
<!-- ch3 -->
<g id="node10" class="node">
<title>ch3</title>
<path fill="#4d4128" stroke="#6e6963" d="M300.38,-945.75C300.38,-945.75 109.62,-945.75 109.62,-945.75 103.62,-945.75 97.62,-939.75 97.62,-933.75 97.62,-933.75 97.62,-886 97.62,-886 97.62,-880 103.62,-874 109.62,-874 109.62,-874 300.38,-874 300.38,-874 306.38,-874 312.38,-880 312.38,-886 312.38,-886 312.38,-933.75 312.38,-933.75 312.38,-939.75 306.38,-945.75 300.38,-945.75"/>
<text xml:space="preserve" text-anchor="middle" x="205" y="-932.25" font-family="Helvetica,sans-Serif" font-size="10.00" fill="#ece1d7">ClickHouse</text>
<text xml:space="preserve" text-anchor="middle" x="205" y="-919.5" font-family="Helvetica,sans-Serif" font-size="10.00" fill="#ece1d7">TOAST mirrors: put before deferred fetch</text>
<text xml:space="preserve" text-anchor="middle" x="205" y="-906.75" font-family="Helvetica,sans-Serif" font-size="10.00" fill="#ece1d7">main tables: shared insert tail</text>
<text xml:space="preserve" text-anchor="middle" x="205" y="-894" font-family="Helvetica,sans-Serif" font-size="10.00" fill="#ece1d7">batcher + inserter ×N + ack collector</text>
<text xml:space="preserve" text-anchor="middle" x="205" y="-881.25" font-family="Helvetica,sans-Serif" font-size="10.00" fill="#ece1d7">tail.finish → all seqs durable</text>
</g>
<!-- drain3&#45;&gt;ch3 -->
<g id="edge8" class="edge">
<title>drain3&#45;&gt;ch3</title>
<path fill="none" stroke="#bf8c5f" d="M211.3,-992.77C210.39,-980.97 209.37,-967.65 208.41,-955.23"/>
<polygon fill="#bf8c5f" stroke="#bf8c5f" points="211.22,-955.22 207.81,-947.46 205.64,-955.65 211.22,-955.22"/>
<text xml:space="preserve" text-anchor="middle" x="248.77" y="-966.45" font-family="Helvetica,sans-Serif" font-size="9.00" fill="#ece1d7">BatcherMsg::Row</text>
</g>
<!-- out4 -->
<g id="node12" class="node">
<title>out4</title>
<path fill="#4d3a28" stroke="#6e6963" d="M953.75,-1046.88C953.75,-1046.88 864.25,-1046.88 864.25,-1046.88 858.25,-1046.88 852.25,-1040.88 852.25,-1034.88 852.25,-1034.88 852.25,-1022.88 852.25,-1022.88 852.25,-1016.88 858.25,-1010.88 864.25,-1010.88 864.25,-1010.88 953.75,-1010.88 953.75,-1010.88 959.75,-1010.88 965.75,-1016.88 965.75,-1022.88 965.75,-1022.88 965.75,-1034.88 965.75,-1034.88 965.75,-1040.88 959.75,-1046.88 953.75,-1046.88"/>
<text xml:space="preserve" text-anchor="middle" x="909" y="-1032.12" font-family="Helvetica,sans-Serif" font-size="10.00" fill="#ece1d7">BootstrapOutcome</text>
<text xml:space="preserve" text-anchor="middle" x="909" y="-1019.38" font-family="Helvetica,sans-Serif" font-size="10.00" fill="#ece1d7">{start_lsn, end_lsn}</text>
</g>
<!-- end4&#45;&gt;out4 -->
<g id="edge10" class="edge">
<title>end4&#45;&gt;out4</title>
<path fill="none" stroke="#a1a9cc" d="M906.51,-1159.69C907.12,-1127.61 908.14,-1074.57 908.67,-1047.28"/>
<polygon fill="#a1a9cc" stroke="#a1a9cc" points="903.72,-1159.35 906.36,-1167.4 909.31,-1159.46 903.72,-1159.35"/>
<text xml:space="preserve" text-anchor="middle" x="924.75" y="-1119.95" font-family="Helvetica,sans-Serif" font-size="9.00" fill="#ece1d7">end_lsn</text>
</g>
<!-- ctrl4 -->
<g id="node13" class="node">
<title>ctrl4</title>
<polygon fill="#4d3850" stroke="#6e6963" points="968,-927.88 850,-927.88 850,-891.88 974,-891.88 974,-921.88 968,-927.88"/>
<polyline fill="none" stroke="#6e6963" points="968,-927.88 968,-921.88"/>
<polyline fill="none" stroke="#6e6963" points="974,-921.88 968,-921.88"/>
<text xml:space="preserve" text-anchor="middle" x="912" y="-913.12" font-family="Helvetica,sans-Serif" font-size="10.00" fill="#ece1d7">pg_control landed last</text>
<text xml:space="preserve" text-anchor="middle" x="912" y="-900.38" font-family="Helvetica,sans-Serif" font-size="10.00" fill="#ece1d7">(barrier)</text>
</g>
<!-- out4&#45;&gt;ctrl4 -->
<!-- conf4 -->
<g id="node14" class="node">
<title>conf4</title>
<path fill="#4d3a28" stroke="#6e6963" d="M1171.38,-939.38C1171.38,-939.38 1010.62,-939.38 1010.62,-939.38 1004.62,-939.38 998.62,-933.38 998.62,-927.38 998.62,-927.38 998.62,-892.38 998.62,-892.38 998.62,-886.38 1004.62,-880.38 1010.62,-880.38 1010.62,-880.38 1171.38,-880.38 1171.38,-880.38 1177.38,-880.38 1183.38,-886.38 1183.38,-892.38 1183.38,-892.38 1183.38,-927.38 1183.38,-927.38 1183.38,-933.38 1177.38,-939.38 1171.38,-939.38"/>
<text xml:space="preserve" text-anchor="middle" x="1091" y="-925.88" font-family="Helvetica,sans-Serif" font-size="10.00" fill="#ece1d7">Shadow::enable_standby_recovery</text>
<text xml:space="preserve" text-anchor="middle" x="1091" y="-913.12" font-family="Helvetica,sans-Serif" font-size="10.00" fill="#ece1d7">append standby.signal +</text>
<text xml:space="preserve" text-anchor="middle" x="1091" y="-900.38" font-family="Helvetica,sans-Serif" font-size="10.00" fill="#ece1d7">restore_command +</text>
<text xml:space="preserve" text-anchor="middle" x="1091" y="-887.62" font-family="Helvetica,sans-Serif" font-size="10.00" fill="#ece1d7">primary_conninfo</text>
</g>
<!-- out4&#45;&gt;conf4 -->
<g id="edge12" class="edge">
<title>out4&#45;&gt;conf4</title>
<path fill="none" stroke="#c1a78e" d="M935.85,-1010.61C962.68,-993.37 1004.62,-966.4 1038.14,-944.85"/>
<polygon fill="#c1a78e" stroke="#c1a78e" points="1039.54,-947.28 1044.76,-940.6 1036.51,-942.57 1039.54,-947.28"/>
</g>
<!-- cur5 -->
<g id="node19" class="node">
<title>cur5</title>
<path fill="#4d3a28" stroke="#6e6963" d="M873.88,-553.75C873.88,-553.75 752.12,-553.75 752.12,-553.75 746.12,-553.75 740.12,-547.75 740.12,-541.75 740.12,-541.75 740.12,-529.75 740.12,-529.75 740.12,-523.75 746.12,-517.75 752.12,-517.75 752.12,-517.75 873.88,-517.75 873.88,-517.75 879.88,-517.75 885.88,-523.75 885.88,-529.75 885.88,-529.75 885.88,-541.75 885.88,-541.75 885.88,-547.75 879.88,-553.75 873.88,-553.75"/>
<text xml:space="preserve" text-anchor="middle" x="813" y="-539" font-family="Helvetica,sans-Serif" font-size="10.00" fill="#ece1d7">cursor::write</text>
<text xml:space="preserve" text-anchor="middle" x="813" y="-526.25" font-family="Helvetica,sans-Serif" font-size="10.00" fill="#ece1d7">emitter_ack_lsn = end_lsn</text>
</g>
<!-- out4&#45;&gt;cur5 -->
<g id="edge22" class="edge">
<title>out4&#45;&gt;cur5</title>
<path fill="none" stroke="#c1a78e" d="M880.94,-1010.54C852.3,-990.43 812,-954.41 812,-910.88 812,-910.88 812,-910.88 812,-641.25 812,-626.74 812.1,-611.11 812.23,-596.46"/>
<polygon fill="#c1a78e" stroke="#c1a78e" points="815.03,-596.54 812.31,-588.51 809.43,-596.48 815.03,-596.54"/>
<text xml:space="preserve" text-anchor="middle" x="837.12" y="-764.2" font-family="Helvetica,sans-Serif" font-size="9.00" fill="#ece1d7">next phase</text>
</g>
<!-- files4 -->
<g id="node15" class="node">
<title>files4</title>
<polygon fill="#4d3850" stroke="#6e6963" points="982.12,-826.75 885.88,-826.75 885.88,-790.75 988.12,-790.75 988.12,-820.75 982.12,-826.75"/>
<polyline fill="none" stroke="#6e6963" points="982.12,-826.75 982.12,-820.75"/>
<polyline fill="none" stroke="#6e6963" points="988.12,-820.75 982.12,-820.75"/>
<text xml:space="preserve" text-anchor="middle" x="937" y="-812" font-family="Helvetica,sans-Serif" font-size="10.00" fill="#ece1d7">postgresql.conf +</text>
<text xml:space="preserve" text-anchor="middle" x="937" y="-799.25" font-family="Helvetica,sans-Serif" font-size="10.00" fill="#ece1d7">standby.signal</text>
</g>
<!-- conf4&#45;&gt;files4 -->
<g id="edge13" class="edge">
<title>conf4&#45;&gt;files4</title>
<path fill="none" stroke="#c1a78e" d="M1046.04,-879.94C1022.32,-864.67 993.66,-846.22 971.68,-832.07"/>
<polygon fill="#c1a78e" stroke="#c1a78e" points="973.42,-829.86 965.18,-827.89 970.39,-834.57 973.42,-829.86"/>
<text xml:space="preserve" text-anchor="middle" x="1016.03" y="-847.45" font-family="Helvetica,sans-Serif" font-size="9.00" fill="#ece1d7">write</text>
</g>
<!-- listen4 -->
<g id="node16" class="node">
<title>listen4</title>
<path fill="#4d3a28" stroke="#6e6963" d="M1157.12,-826.75C1157.12,-826.75 1024.88,-826.75 1024.88,-826.75 1018.88,-826.75 1012.88,-820.75 1012.88,-814.75 1012.88,-814.75 1012.88,-802.75 1012.88,-802.75 1012.88,-796.75 1018.88,-790.75 1024.88,-790.75 1024.88,-790.75 1157.12,-790.75 1157.12,-790.75 1163.12,-790.75 1169.12,-796.75 1169.12,-802.75 1169.12,-802.75 1169.12,-814.75 1169.12,-814.75 1169.12,-820.75 1163.12,-826.75 1157.12,-826.75"/>
<text xml:space="preserve" text-anchor="middle" x="1091" y="-812" font-family="Helvetica,sans-Serif" font-size="10.00" fill="#ece1d7">walsender listener up</text>
<text xml:space="preserve" text-anchor="middle" x="1091" y="-799.25" font-family="Helvetica,sans-Serif" font-size="10.00" fill="#ece1d7">(barrier before shadow start)</text>
</g>
<!-- conf4&#45;&gt;listen4 -->
<g id="edge14" class="edge">
<title>conf4&#45;&gt;listen4</title>
<path fill="none" stroke="#c1a78e" d="M1091,-879.94C1091,-866.14 1091,-849.75 1091,-836.28"/>
<polygon fill="#c1a78e" stroke="#c1a78e" points="1093.8,-836.58 1091,-828.58 1088.2,-836.58 1093.8,-836.58"/>
</g>
<!-- start4 -->
<g id="node17" class="node">
<title>start4</title>
<path fill="#4d3a28" stroke="#6e6963" d="M1154,-743.5C1154,-743.5 1012,-743.5 1012,-743.5 1006,-743.5 1000,-737.5 1000,-731.5 1000,-731.5 1000,-719.5 1000,-719.5 1000,-713.5 1006,-707.5 1012,-707.5 1012,-707.5 1154,-707.5 1154,-707.5 1160,-707.5 1166,-713.5 1166,-719.5 1166,-719.5 1166,-731.5 1166,-731.5 1166,-737.5 1160,-743.5 1154,-743.5"/>
<text xml:space="preserve" text-anchor="middle" x="1083" y="-728.75" font-family="Helvetica,sans-Serif" font-size="10.00" fill="#ece1d7">Shadow::start (recovery mode)</text>
<text xml:space="preserve" text-anchor="middle" x="1083" y="-716" font-family="Helvetica,sans-Serif" font-size="10.00" fill="#ece1d7">block_in_place pg_ctl</text>
</g>
<!-- listen4&#45;&gt;start4 -->
<g id="edge15" class="edge">
<title>listen4&#45;&gt;start4</title>
<path fill="none" stroke="#c1a78e" d="M1089.3,-790.52C1088.24,-779.71 1086.85,-765.56 1085.64,-753.3"/>
<polygon fill="#c1a78e" stroke="#c1a78e" points="1088.44,-753.18 1084.87,-745.49 1082.87,-753.73 1088.44,-753.18"/>
<text xml:space="preserve" text-anchor="middle" x="1102.48" y="-764.2" font-family="Helvetica,sans-Serif" font-size="9.00" fill="#ece1d7">barrier</text>
</g>
<!-- shd4 -->
<g id="node18" class="node">
<title>shd4</title>
<path fill="#3d4128" stroke="#6e6963" d="M1086.38,-660.25C1086.38,-660.25 967.62,-660.25 967.62,-660.25 961.62,-660.25 955.62,-654.25 955.62,-648.25 955.62,-648.25 955.62,-636.25 955.62,-636.25 955.62,-630.25 961.62,-624.25 967.62,-624.25 967.62,-624.25 1086.38,-624.25 1086.38,-624.25 1092.38,-624.25 1098.38,-630.25 1098.38,-636.25 1098.38,-636.25 1098.38,-648.25 1098.38,-648.25 1098.38,-654.25 1092.38,-660.25 1086.38,-660.25"/>
<text xml:space="preserve" text-anchor="middle" x="1027" y="-645.5" font-family="Helvetica,sans-Serif" font-size="10.00" fill="#ece1d7">postmaster + walreceiver</text>
<text xml:space="preserve" text-anchor="middle" x="1027" y="-632.75" font-family="Helvetica,sans-Serif" font-size="10.00" fill="#ece1d7">begin replay</text>
</g>
<!-- start4&#45;&gt;shd4 -->
<g id="edge16" class="edge">
<title>start4&#45;&gt;shd4</title>
<path fill="none" stroke="#c1a78e" d="M1071.12,-707.27C1063.31,-695.93 1052.95,-680.9 1044.23,-668.25"/>
<polygon fill="#c1a78e" stroke="#c1a78e" points="1046.76,-666.98 1039.91,-661.98 1042.15,-670.16 1046.76,-666.98"/>
<text xml:space="preserve" text-anchor="middle" x="1084.23" y="-680.95" font-family="Helvetica,sans-Serif" font-size="9.00" fill="#ece1d7">pg_ctl start</text>
</g>
<!-- apply5 -->
<g id="node23" class="node">
<title>apply5</title>
<path fill="#3d4128" stroke="#6e6963" d="M1079.5,-553.75C1079.5,-553.75 922.5,-553.75 922.5,-553.75 916.5,-553.75 910.5,-547.75 910.5,-541.75 910.5,-541.75 910.5,-529.75 910.5,-529.75 910.5,-523.75 916.5,-517.75 922.5,-517.75 922.5,-517.75 1079.5,-517.75 1079.5,-517.75 1085.5,-517.75 1091.5,-523.75 1091.5,-529.75 1091.5,-529.75 1091.5,-541.75 1091.5,-541.75 1091.5,-547.75 1085.5,-553.75 1079.5,-553.75"/>
<text xml:space="preserve" text-anchor="middle" x="1001" y="-539" font-family="Helvetica,sans-Serif" font-size="10.00" fill="#ece1d7">pg_last_wal_replay_lsn ≥ end_lsn</text>
<text xml:space="preserve" text-anchor="middle" x="1001" y="-526.25" font-family="Helvetica,sans-Serif" font-size="10.00" fill="#ece1d7">ready for relation_at gate</text>
</g>
<!-- shd4&#45;&gt;apply5 -->
<g id="edge23" class="edge">
<title>shd4&#45;&gt;apply5</title>
<path fill="none" stroke="#869461" stroke-dasharray="5,2" d="M1022.71,-623.99C1018.59,-607.43 1012.3,-582.18 1007.56,-563.1"/>
<polygon fill="#869461" stroke="#869461" points="1010.31,-562.59 1005.67,-555.5 1004.88,-563.94 1010.31,-562.59"/>
<text xml:space="preserve" text-anchor="middle" x="1058.35" y="-597.7" font-family="Helvetica,sans-Serif" font-size="9.00" fill="#ece1d7">replay catches up</text>
</g>
<!-- curd5 -->
<g id="node20" class="node">
<title>curd5</title>
<polygon fill="#4d3850" stroke="#6e6963" points="865.38,-465.38 740.62,-465.38 740.62,-429.38 871.38,-429.38 871.38,-459.38 865.38,-465.38"/>
<polyline fill="none" stroke="#6e6963" points="865.38,-465.38 865.38,-459.38"/>
<polyline fill="none" stroke="#6e6963" points="871.38,-459.38 865.38,-459.38"/>
<text xml:space="preserve" text-anchor="middle" x="806" y="-450.62" font-family="Helvetica,sans-Serif" font-size="10.00" fill="#ece1d7">cursor.bin</text>
<text xml:space="preserve" text-anchor="middle" x="806" y="-437.88" font-family="Helvetica,sans-Serif" font-size="10.00" fill="#ece1d7">atomic rename + fsync</text>
</g>
<!-- cur5&#45;&gt;curd5 -->
<g id="edge18" class="edge">
<title>cur5&#45;&gt;curd5</title>
<path fill="none" stroke="#c1a78e" d="M811.58,-517.27C810.61,-505.21 809.29,-488.95 808.18,-475.25"/>
<polygon fill="#c1a78e" stroke="#c1a78e" points="810.97,-475.08 807.54,-467.34 805.39,-475.54 810.97,-475.08"/>
<text xml:space="preserve" text-anchor="middle" x="822.13" y="-491.2" font-family="Helvetica,sans-Serif" font-size="9.00" fill="#ece1d7">fsync</text>
</g>
<!-- feed5 -->
<g id="node21" class="node">
<title>feed5</title>
<path fill="#4d3a28" stroke="#6e6963" d="M1005.12,-470.5C1005.12,-470.5 908.88,-470.5 908.88,-470.5 902.88,-470.5 896.88,-464.5 896.88,-458.5 896.88,-458.5 896.88,-436.25 896.88,-436.25 896.88,-430.25 902.88,-424.25 908.88,-424.25 908.88,-424.25 1005.12,-424.25 1005.12,-424.25 1011.12,-424.25 1017.12,-430.25 1017.12,-436.25 1017.12,-436.25 1017.12,-458.5 1017.12,-458.5 1017.12,-464.5 1011.12,-470.5 1005.12,-470.5"/>
<text xml:space="preserve" text-anchor="middle" x="957" y="-457" font-family="Helvetica,sans-Serif" font-size="10.00" fill="#ece1d7">SourceFeed open</text>
<text xml:space="preserve" text-anchor="middle" x="957" y="-444.25" font-family="Helvetica,sans-Serif" font-size="10.00" fill="#ece1d7">START_REPLICATION</text>
<text xml:space="preserve" text-anchor="middle" x="957" y="-431.5" font-family="Helvetica,sans-Serif" font-size="10.00" fill="#ece1d7">PHYSICAL &lt;end_lsn&gt;</text>
</g>
<!-- cur5&#45;&gt;feed5 -->
<g id="edge19" class="edge">
<title>cur5&#45;&gt;feed5</title>
<path fill="none" stroke="#c1a78e" d="M842.14,-517.27C861.98,-505.37 888.63,-489.38 911.28,-475.8"/>
<polygon fill="#c1a78e" stroke="#c1a78e" points="912.7,-478.21 918.12,-471.7 909.82,-473.41 912.7,-478.21"/>
</g>
<!-- repl5 -->
<g id="node22" class="node">
<title>repl5</title>
<path fill="#3d3d54" stroke="#6e6963" d="M860.12,-365.5C860.12,-365.5 775.88,-365.5 775.88,-365.5 769.88,-365.5 763.88,-359.5 763.88,-353.5 763.88,-353.5 763.88,-341.5 763.88,-341.5 763.88,-335.5 769.88,-329.5 775.88,-329.5 775.88,-329.5 860.12,-329.5 860.12,-329.5 866.12,-329.5 872.12,-335.5 872.12,-341.5 872.12,-341.5 872.12,-353.5 872.12,-353.5 872.12,-359.5 866.12,-365.5 860.12,-365.5"/>
<text xml:space="preserve" text-anchor="middle" x="818" y="-350.75" font-family="Helvetica,sans-Serif" font-size="10.00" fill="#ece1d7">streaming protocol</text>
<text xml:space="preserve" text-anchor="middle" x="818" y="-338" font-family="Helvetica,sans-Serif" font-size="10.00" fill="#ece1d7">opens at end_lsn</text>
</g>
<!-- feed5&#45;&gt;repl5 -->
<g id="edge20" class="edge">
<title>feed5&#45;&gt;repl5</title>
<path fill="none" stroke="#a1a9cc" d="M892.44,-419.69C884.96,-415.61 877.64,-411.11 871,-406.25 858.21,-396.88 846.09,-384.08 836.67,-372.91"/>
<polygon fill="#a1a9cc" stroke="#a1a9cc" points="899.52,-423.39 890.76,-422.87 897.06,-422.1 892.43,-419.68 892.43,-419.68 892.43,-419.68 897.06,-422.1 894.1,-416.49 899.52,-423.39"/>
<polygon fill="#a1a9cc" stroke="#a1a9cc" points="839.09,-371.45 831.86,-367.03 834.76,-375 839.09,-371.45"/>
<text xml:space="preserve" text-anchor="middle" x="916" y="-397.7" font-family="Helvetica,sans-Serif" font-size="9.00" fill="#ece1d7">START_REPLICATION</text>
</g>
<!-- hot5 -->
<g id="node24" class="node">
<title>hot5</title>
<polygon fill="#4d3a28" stroke="#6e6963" points="1054.88,-371 897.12,-371 897.12,-324 1054.88,-324 1066.88,-347.5 1054.88,-371"/>
<text xml:space="preserve" text-anchor="middle" x="982" y="-363.5" font-family="Helvetica,sans-Serif" font-size="10.00" fill="#ece1d7">hot streaming</text>
<text xml:space="preserve" text-anchor="middle" x="982" y="-350.75" font-family="Helvetica,sans-Serif" font-size="10.00" fill="#ece1d7">(pipeline: reorder → decode ×M</text>
<text xml:space="preserve" text-anchor="middle" x="982" y="-338" font-family="Helvetica,sans-Serif" font-size="10.00" fill="#ece1d7">→ same tail + DdlApplicator)</text>
<text xml:space="preserve" text-anchor="middle" x="982" y="-325.25" font-family="Helvetica,sans-Serif" font-size="10.00" fill="#ece1d7">→ timeline_streaming</text>
</g>
<!-- feed5&#45;&gt;hot5 -->
<g id="edge21" class="edge">
<title>feed5&#45;&gt;hot5</title>
<path fill="none" stroke="#c1a78e" d="M962.67,-424.17C965.52,-413 969.06,-399.16 972.32,-386.38"/>
<polygon fill="#c1a78e" stroke="#c1a78e" points="975,-387.22 974.27,-378.78 969.57,-385.84 975,-387.22"/>
</g>
<!-- legend -->
<g id="node25" class="node">
<title>legend</title>
<path fill="#6e6963" stroke="none" d="M1066,-281C1066,-281 898,-281 898,-281 892,-281 886,-275 886,-269 886,-269 886,-12 886,-12 886,-6 892,0 898,0 898,0 1066,0 1066,0 1072,0 1078,-6 1078,-12 1078,-12 1078,-269 1078,-269 1078,-275 1072,-281 1066,-281"/>
<polygon fill="#34302c" stroke="none" points="894,-254.25 894,-277 1070,-277 1070,-254.25 894,-254.25"/>
<polygon fill="none" stroke="#6e6963" points="894,-254.25 894,-277 1070,-277 1070,-254.25 894,-254.25"/>
<text xml:space="preserve" text-anchor="start" x="935.5" y="-263.5" font-family="Helvetica,sans-Serif" font-weight="bold" font-size="10.00" fill="#ece1d7">node fill — actor</text>
<polygon fill="#403a36" stroke="none" points="894,-231.5 894,-254.25 922,-254.25 922,-231.5 894,-231.5"/>
<polygon fill="none" stroke="#6e6963" points="894,-231.5 894,-254.25 922,-254.25 922,-231.5 894,-231.5"/>
<polygon fill="none" stroke="#6e6963" points="922,-231.5 922,-254.25 1070,-254.25 1070,-231.5 922,-231.5"/>
<text xml:space="preserve" text-anchor="start" x="963.38" y="-239.5" font-family="Helvetica,sans-Serif" font-size="10.00" fill="#ece1d7">operator / CLI</text>
<polygon fill="#3d3d54" stroke="none" points="894,-208.75 894,-231.5 922,-231.5 922,-208.75 894,-208.75"/>
<polygon fill="none" stroke="#6e6963" points="894,-208.75 894,-231.5 922,-231.5 922,-208.75 894,-208.75"/>
<polygon fill="none" stroke="#6e6963" points="922,-208.75 922,-231.5 1070,-231.5 1070,-208.75 922,-208.75"/>
<text xml:space="preserve" text-anchor="start" x="957.38" y="-216.75" font-family="Helvetica,sans-Serif" font-size="10.00" fill="#ece1d7">source Postgres</text>
<polygon fill="#4d3a28" stroke="none" points="894,-186 894,-208.75 922,-208.75 922,-186 894,-186"/>
<polygon fill="none" stroke="#6e6963" points="894,-186 894,-208.75 922,-208.75 922,-186 894,-186"/>
<polygon fill="none" stroke="#6e6963" points="922,-186 922,-208.75 1070,-208.75 1070,-186 922,-186"/>
<text xml:space="preserve" text-anchor="start" x="949.5" y="-194" font-family="Helvetica,sans-Serif" font-size="10.00" fill="#ece1d7">walshadow&#45;stream</text>
<polygon fill="#4d3850" stroke="none" points="894,-163.25 894,-186 922,-186 922,-163.25 894,-163.25"/>
<polygon fill="none" stroke="#6e6963" points="894,-163.25 894,-186 922,-186 922,-163.25 894,-163.25"/>
<polygon fill="none" stroke="#6e6963" points="922,-163.25 922,-186 1070,-186 1070,-163.25 922,-163.25"/>
<text xml:space="preserve" text-anchor="start" x="958.88" y="-171.25" font-family="Helvetica,sans-Serif" font-size="10.00" fill="#ece1d7">on&#45;disk artifact</text>
<polygon fill="#3d4128" stroke="none" points="894,-140.5 894,-163.25 922,-163.25 922,-140.5 894,-140.5"/>
<polygon fill="none" stroke="#6e6963" points="894,-140.5 894,-163.25 922,-163.25 922,-140.5 894,-140.5"/>
<polygon fill="none" stroke="#6e6963" points="922,-140.5 922,-163.25 1070,-163.25 1070,-140.5 922,-140.5"/>
<text xml:space="preserve" text-anchor="start" x="954.75" y="-148.5" font-family="Helvetica,sans-Serif" font-size="10.00" fill="#ece1d7">shadow Postgres</text>
<polygon fill="#4d4128" stroke="none" points="894,-117.75 894,-140.5 922,-140.5 922,-117.75 894,-117.75"/>
<polygon fill="none" stroke="#6e6963" points="894,-117.75 894,-140.5 922,-140.5 922,-117.75 894,-117.75"/>
<polygon fill="none" stroke="#6e6963" points="922,-117.75 922,-140.5 1070,-140.5 1070,-117.75 922,-117.75"/>
<text xml:space="preserve" text-anchor="start" x="968.62" y="-125.75" font-family="Helvetica,sans-Serif" font-size="10.00" fill="#ece1d7">ClickHouse</text>
<polygon fill="#34302c" stroke="none" points="894,-95 894,-117.75 1070,-117.75 1070,-95 894,-95"/>
<polygon fill="none" stroke="#6e6963" points="894,-95 894,-117.75 1070,-117.75 1070,-95 894,-95"/>
<text xml:space="preserve" text-anchor="start" x="948.25" y="-104.25" font-family="Helvetica,sans-Serif" font-weight="bold" font-size="10.00" fill="#ece1d7">edge colour</text>
<polygon fill="none" stroke="#6e6963" points="894,-72.25 894,-95 922,-95 922,-72.25 894,-72.25"/>
<text xml:space="preserve" text-anchor="start" x="902" y="-81.5" font-family="Helvetica,sans-Serif" font-weight="bold" font-size="10.00" fill="#a1a9cc">━━</text>
<polygon fill="none" stroke="#6e6963" points="922,-72.25 922,-95 1070,-95 1070,-72.25 922,-72.25"/>
<text xml:space="preserve" text-anchor="start" x="927" y="-80.25" font-family="Helvetica,sans-Serif" font-size="10.00" fill="#ece1d7">physical replication protocol</text>
<polygon fill="none" stroke="#6e6963" points="894,-49.5 894,-72.25 922,-72.25 922,-49.5 894,-49.5"/>
<text xml:space="preserve" text-anchor="start" x="902" y="-58.75" font-family="Helvetica,sans-Serif" font-weight="bold" font-size="10.00" fill="#cba85e">━━</text>
<polygon fill="none" stroke="#6e6963" points="922,-49.5 922,-72.25 1070,-72.25 1070,-49.5 922,-49.5"/>
<text xml:space="preserve" text-anchor="start" x="949.12" y="-57.5" font-family="Helvetica,sans-Serif" font-size="10.00" fill="#ece1d7">libpq catalog query</text>
<polygon fill="none" stroke="#6e6963" points="894,-26.75 894,-49.5 922,-49.5 922,-26.75 894,-26.75"/>
<text xml:space="preserve" text-anchor="start" x="902" y="-36" font-family="Helvetica,sans-Serif" font-weight="bold" font-size="10.00" fill="#bf8c5f">━━</text>
<polygon fill="none" stroke="#6e6963" points="922,-26.75 922,-49.5 1070,-49.5 1070,-26.75 922,-26.75"/>
<text xml:space="preserve" text-anchor="start" x="933.75" y="-34.75" font-family="Helvetica,sans-Serif" font-size="10.00" fill="#ece1d7">ClickHouse Native blocks</text>
<polygon fill="none" stroke="#6e6963" points="894,-4 894,-26.75 922,-26.75 922,-4 894,-4"/>
<text xml:space="preserve" text-anchor="start" x="902" y="-13.25" font-family="Helvetica,sans-Serif" font-weight="bold" font-size="10.00" fill="#869461">┄┄</text>
<polygon fill="none" stroke="#6e6963" points="922,-4 922,-26.75 1070,-26.75 1070,-4 922,-4"/>
<text xml:space="preserve" text-anchor="start" x="937.88" y="-12" font-family="Helvetica,sans-Serif" font-size="10.00" fill="#ece1d7">shadow replay progress</text>
</g>
<!-- hot5&#45;&gt;legend -->
</g>
</svg>
