<?xml version="1.0" encoding="UTF-8" standalone="no"?>
<!DOCTYPE svg PUBLIC "-//W3C//DTD SVG 1.1//EN"
 "http://www.w3.org/Graphics/SVG/1.1/DTD/svg11.dtd">
<!-- Generated by graphviz version 15.1.0 (20260618.0150)
 -->
<!-- Title: timeline_restart Pages: 1 -->
<svg width="1319pt" height="1146pt"
 viewBox="0.00 0.00 1319.00 1146.00" xmlns="http://www.w3.org/2000/svg" xmlns:xlink="http://www.w3.org/1999/xlink">
<g id="graph0" class="graph" transform="scale(1 1) rotate(0) translate(4 1141.62)">
<title>timeline_restart</title>
<polygon fill="#272623" stroke="none" points="-4,4 -4,-1141.62 1315,-1141.62 1315,4 -4,4"/>
<text xml:space="preserve" text-anchor="middle" x="655.5" y="-1120.33" font-family="Helvetica,sans-Serif" font-size="14.00" fill="#ece1d7">walshadow restart timelines — 3 scenarios, time flows top → bottom within each column</text>
<g id="clust1" class="cluster">
<title>cluster_a</title>
<path fill="#34302c" stroke="#a1a9cc" d="M20,-337.75C20,-337.75 434,-337.75 434,-337.75 440,-337.75 446,-343.75 446,-349.75 446,-349.75 446,-1092.38 446,-1092.38 446,-1098.38 440,-1104.38 434,-1104.38 434,-1104.38 20,-1104.38 20,-1104.38 14,-1104.38 8,-1098.38 8,-1092.38 8,-1092.38 8,-349.75 8,-349.75 8,-343.75 14,-337.75 20,-337.75"/>
<text xml:space="preserve" text-anchor="middle" x="227" y="-1087.08" font-family="Helvetica,sans-Serif" font-size="14.00" fill="#ece1d7">A. clean restart &#160;(SIGTERM, saved restart point still available)</text>
</g>
<g id="clust2" class="cluster">
<title>cluster_b</title>
<path fill="#34302c" stroke="#cba85e" d="M466,-337.75C466,-337.75 847,-337.75 847,-337.75 853,-337.75 859,-343.75 859,-349.75 859,-349.75 859,-1015.12 859,-1015.12 859,-1021.12 853,-1027.12 847,-1027.12 847,-1027.12 466,-1027.12 466,-1027.12 460,-1027.12 454,-1021.12 454,-1015.12 454,-1015.12 454,-349.75 454,-349.75 454,-343.75 460,-337.75 466,-337.75"/>
<text xml:space="preserve" text-anchor="middle" x="656.5" y="-1009.83" font-family="Helvetica,sans-Serif" font-size="14.00" fill="#ece1d7">B. kill &#45;9 mid&#45;stream &#160;(last saved manifest authoritative)</text>
</g>
<g id="clust3" class="cluster">
<title>cluster_c</title>
<path fill="#34302c" stroke="#bd8183" d="M879,-337.75C879,-337.75 1291,-337.75 1291,-337.75 1297,-337.75 1303,-343.75 1303,-349.75 1303,-349.75 1303,-937.88 1303,-937.88 1303,-943.88 1297,-949.88 1291,-949.88 1291,-949.88 879,-949.88 879,-949.88 873,-949.88 867,-943.88 867,-937.88 867,-937.88 867,-349.75 867,-349.75 867,-343.75 873,-337.75 879,-337.75"/>
<text xml:space="preserve" text-anchor="middle" x="1085" y="-932.58" font-family="Helvetica,sans-Serif" font-size="14.00" fill="#ece1d7">C. extended outage &#160;(slot LSN beyond source wal_keep_size)</text>
</g>
<!-- a0 -->
<g id="node1" class="node">
<title>a0</title>
<path fill="#403a36" stroke="#6e6963" d="M426.4,-1071.12C426.4,-1071.12 277.6,-1071.12 277.6,-1071.12 271.6,-1071.12 265.6,-1065.12 265.6,-1059.12 265.6,-1059.12 265.6,-1047.12 265.6,-1047.12 265.6,-1041.12 271.6,-1035.12 277.6,-1035.12 277.6,-1035.12 426.4,-1035.12 426.4,-1035.12 432.4,-1035.12 438.4,-1041.12 438.4,-1047.12 438.4,-1047.12 438.4,-1059.12 438.4,-1059.12 438.4,-1065.12 432.4,-1071.12 426.4,-1071.12"/>
<text xml:space="preserve" text-anchor="middle" x="352" y="-1050" font-family="Helvetica,sans-Serif" font-size="10.00" fill="#ece1d7">① SIGTERM</text>
</g>
<!-- a1 -->
<g id="node2" class="node">
<title>a1</title>
<path fill="#4d3340" stroke="#6e6963" d="M424.4,-993.88C424.4,-993.88 275.6,-993.88 275.6,-993.88 269.6,-993.88 263.6,-987.88 263.6,-981.88 263.6,-981.88 263.6,-969.88 263.6,-969.88 263.6,-963.88 269.6,-957.88 275.6,-957.88 275.6,-957.88 424.4,-957.88 424.4,-957.88 430.4,-957.88 436.4,-963.88 436.4,-969.88 436.4,-969.88 436.4,-981.88 436.4,-981.88 436.4,-987.88 430.4,-993.88 424.4,-993.88"/>
<text xml:space="preserve" text-anchor="middle" x="350" y="-972.75" font-family="Helvetica,sans-Serif" font-size="10.00" fill="#ece1d7">② save partial WAL segment</text>
</g>
<!-- a0&#45;&gt;a1 -->
<g id="edge1" class="edge">
<title>a0&#45;&gt;a1</title>
<path fill="none" stroke="#c1a78e" d="M351.54,-1034.67C351.29,-1025.46 350.99,-1013.96 350.71,-1003.64"/>
<polygon fill="#c1a78e" stroke="#c1a78e" points="353.51,-1003.67 350.5,-995.75 347.92,-1003.82 353.51,-1003.67"/>
</g>
<!-- b0 -->
<g id="node11" class="node">
<title>b0</title>
<path fill="#403a36" stroke="#6e6963" d="M730.4,-993.88C730.4,-993.88 581.6,-993.88 581.6,-993.88 575.6,-993.88 569.6,-987.88 569.6,-981.88 569.6,-981.88 569.6,-969.88 569.6,-969.88 569.6,-963.88 575.6,-957.88 581.6,-957.88 581.6,-957.88 730.4,-957.88 730.4,-957.88 736.4,-957.88 742.4,-963.88 742.4,-969.88 742.4,-969.88 742.4,-981.88 742.4,-981.88 742.4,-987.88 736.4,-993.88 730.4,-993.88"/>
<text xml:space="preserve" text-anchor="middle" x="656" y="-972.75" font-family="Helvetica,sans-Serif" font-size="10.00" fill="#ece1d7">① kill &#45;9 (no drain)</text>
</g>
<!-- a0&#45;&gt;b0 -->
<!-- a2 -->
<g id="node3" class="node">
<title>a2</title>
<path fill="#4d3a28" stroke="#6e6963" d="M423.4,-916.62C423.4,-916.62 274.6,-916.62 274.6,-916.62 268.6,-916.62 262.6,-910.62 262.6,-904.62 262.6,-904.62 262.6,-892.62 262.6,-892.62 262.6,-886.62 268.6,-880.62 274.6,-880.62 274.6,-880.62 423.4,-880.62 423.4,-880.62 429.4,-880.62 435.4,-886.62 435.4,-892.62 435.4,-892.62 435.4,-904.62 435.4,-904.62 435.4,-910.62 429.4,-916.62 423.4,-916.62"/>
<text xml:space="preserve" text-anchor="middle" x="349" y="-901.88" font-family="Helvetica,sans-Serif" font-size="10.00" fill="#ece1d7">③ drain queued work</text>
<text xml:space="preserve" text-anchor="middle" x="349" y="-889.12" font-family="Helvetica,sans-Serif" font-size="10.00" fill="#ece1d7">and finish ClickHouse writes</text>
</g>
<!-- a1&#45;&gt;a2 -->
<g id="edge2" class="edge">
<title>a1&#45;&gt;a2</title>
<path fill="none" stroke="#c1a78e" d="M349.77,-957.42C349.65,-948.21 349.49,-936.71 349.36,-926.39"/>
<polygon fill="#c1a78e" stroke="#c1a78e" points="352.16,-926.46 349.25,-918.5 346.56,-926.53 352.16,-926.46"/>
</g>
<!-- a3 -->
<g id="node4" class="node">
<title>a3</title>
<path fill="#4d3a28" stroke="#6e6963" d="M421.4,-838.38C421.4,-838.38 272.6,-838.38 272.6,-838.38 266.6,-838.38 260.6,-832.38 260.6,-826.38 260.6,-826.38 260.6,-814.38 260.6,-814.38 260.6,-808.38 266.6,-802.38 272.6,-802.38 272.6,-802.38 421.4,-802.38 421.4,-802.38 427.4,-802.38 433.4,-808.38 433.4,-814.38 433.4,-814.38 433.4,-826.38 433.4,-826.38 433.4,-832.38 427.4,-838.38 421.4,-838.38"/>
<text xml:space="preserve" text-anchor="middle" x="347" y="-823.62" font-family="Helvetica,sans-Serif" font-size="10.00" fill="#ece1d7">④ latest manifest remains</text>
<text xml:space="preserve" text-anchor="middle" x="347" y="-810.88" font-family="Helvetica,sans-Serif" font-size="10.00" fill="#ece1d7">conservative restart point</text>
</g>
<!-- a2&#45;&gt;a3 -->
<g id="edge3" class="edge">
<title>a2&#45;&gt;a3</title>
<path fill="none" stroke="#c1a78e" d="M348.55,-880.32C348.3,-870.84 347.98,-858.87 347.7,-848.2"/>
<polygon fill="#c1a78e" stroke="#c1a78e" points="350.51,-848.31 347.5,-840.39 344.91,-848.46 350.51,-848.31"/>
</g>
<!-- a4 -->
<g id="node5" class="node">
<title>a4</title>
<path fill="#403a36" stroke="#6e6963" d="M416.4,-760.12C416.4,-760.12 267.6,-760.12 267.6,-760.12 261.6,-760.12 255.6,-754.12 255.6,-748.12 255.6,-748.12 255.6,-736.12 255.6,-736.12 255.6,-730.12 261.6,-724.12 267.6,-724.12 267.6,-724.12 416.4,-724.12 416.4,-724.12 422.4,-724.12 428.4,-730.12 428.4,-736.12 428.4,-736.12 428.4,-748.12 428.4,-748.12 428.4,-754.12 422.4,-760.12 416.4,-760.12"/>
<text xml:space="preserve" text-anchor="middle" x="342" y="-739" font-family="Helvetica,sans-Serif" font-size="10.00" fill="#ece1d7">⑤ process exit</text>
</g>
<!-- a3&#45;&gt;a4 -->
<g id="edge4" class="edge">
<title>a3&#45;&gt;a4</title>
<path fill="none" stroke="#c1a78e" d="M345.87,-802.07C345.24,-792.59 344.46,-780.62 343.76,-769.95"/>
<polygon fill="#c1a78e" stroke="#c1a78e" points="346.56,-769.93 343.25,-762.13 340.98,-770.3 346.56,-769.93"/>
</g>
<!-- a5 -->
<g id="node6" class="node">
<title>a5</title>
<path fill="#4d3a28" stroke="#6e6963" d="M426.12,-687C426.12,-687 239.88,-687 239.88,-687 233.88,-687 227.88,-681 227.88,-675 227.88,-675 227.88,-640 227.88,-640 227.88,-634 233.88,-628 239.88,-628 239.88,-628 426.12,-628 426.12,-628 432.12,-628 438.12,-634 438.12,-640 438.12,-640 438.12,-675 438.12,-675 438.12,-681 432.12,-687 426.12,-687"/>
<text xml:space="preserve" text-anchor="middle" x="333" y="-673.5" font-family="Helvetica,sans-Serif" font-size="10.00" fill="#ece1d7">⑥ restart:</text>
<text xml:space="preserve" text-anchor="middle" x="333" y="-660.75" font-family="Helvetica,sans-Serif" font-size="10.00" fill="#ece1d7">check source identity</text>
<text xml:space="preserve" text-anchor="middle" x="333" y="-648" font-family="Helvetica,sans-Serif" font-size="10.00" fill="#ece1d7">load manifest.toml + toast_retires.toml</text>
<text xml:space="preserve" text-anchor="middle" x="333" y="-635.25" font-family="Helvetica,sans-Serif" font-size="10.00" fill="#ece1d7">resume from saved point</text>
</g>
<!-- a4&#45;&gt;a5 -->
<g id="edge5" class="edge">
<title>a4&#45;&gt;a5</title>
<path fill="none" stroke="#c1a78e" d="M340.14,-724.01C339.27,-716.06 338.2,-706.28 337.16,-696.72"/>
<polygon fill="#c1a78e" stroke="#c1a78e" points="339.95,-696.47 336.3,-688.82 334.39,-697.07 339.95,-696.47"/>
</g>
<!-- a6 -->
<g id="node7" class="node">
<title>a6</title>
<path fill="#3d4128" stroke="#6e6963" d="M412.25,-596C412.25,-596 253.75,-596 253.75,-596 247.75,-596 241.75,-590 241.75,-584 241.75,-584 241.75,-572 241.75,-572 241.75,-566 247.75,-560 253.75,-560 253.75,-560 412.25,-560 412.25,-560 418.25,-560 424.25,-566 424.25,-572 424.25,-572 424.25,-584 424.25,-584 424.25,-590 418.25,-596 412.25,-596"/>
<text xml:space="preserve" text-anchor="middle" x="333" y="-581.25" font-family="Helvetica,sans-Serif" font-size="10.00" fill="#ece1d7">⑦ Shadow::start in recovery mode</text>
<text xml:space="preserve" text-anchor="middle" x="333" y="-568.5" font-family="Helvetica,sans-Serif" font-size="10.00" fill="#ece1d7">(if not already running)</text>
</g>
<!-- a5&#45;&gt;a6 -->
<g id="edge6" class="edge">
<title>a5&#45;&gt;a6</title>
<path fill="none" stroke="#c1a78e" d="M333,-627.64C333,-620.42 333,-612.71 333,-605.61"/>
<polygon fill="#c1a78e" stroke="#c1a78e" points="335.8,-605.91 333,-597.91 330.2,-605.91 335.8,-605.91"/>
</g>
<!-- a7 -->
<g id="node8" class="node">
<title>a7</title>
<path fill="#4d3340" stroke="#6e6963" d="M408.4,-528C408.4,-528 259.6,-528 259.6,-528 253.6,-528 247.6,-522 247.6,-516 247.6,-516 247.6,-504 247.6,-504 247.6,-498 253.6,-492 259.6,-492 259.6,-492 408.4,-492 408.4,-492 414.4,-492 420.4,-498 420.4,-504 420.4,-504 420.4,-516 420.4,-516 420.4,-522 414.4,-528 408.4,-528"/>
<text xml:space="preserve" text-anchor="middle" x="334" y="-513.25" font-family="Helvetica,sans-Serif" font-size="10.00" fill="#ece1d7">⑧ walsender listener up</text>
<text xml:space="preserve" text-anchor="middle" x="334" y="-500.5" font-family="Helvetica,sans-Serif" font-size="10.00" fill="#ece1d7">before walreceiver connects</text>
</g>
<!-- a6&#45;&gt;a7 -->
<g id="edge7" class="edge">
<title>a6&#45;&gt;a7</title>
<path fill="none" stroke="#c1a78e" d="M333.26,-559.66C333.37,-552.89 333.49,-544.98 333.6,-537.53"/>
<polygon fill="#c1a78e" stroke="#c1a78e" points="336.39,-538.01 333.71,-529.97 330.79,-537.92 336.39,-538.01"/>
</g>
<!-- a8 -->
<g id="node9" class="node">
<title>a8</title>
<path fill="#4d3a28" stroke="#6e6963" d="M409.4,-454.88C409.4,-454.88 260.6,-454.88 260.6,-454.88 254.6,-454.88 248.6,-448.88 248.6,-442.88 248.6,-442.88 248.6,-430.88 248.6,-430.88 248.6,-424.88 254.6,-418.88 260.6,-418.88 260.6,-418.88 409.4,-418.88 409.4,-418.88 415.4,-418.88 421.4,-424.88 421.4,-430.88 421.4,-430.88 421.4,-442.88 421.4,-442.88 421.4,-448.88 415.4,-454.88 409.4,-454.88"/>
<text xml:space="preserve" text-anchor="middle" x="335" y="-440.12" font-family="Helvetica,sans-Serif" font-size="10.00" fill="#ece1d7">⑨ resume source WAL stream</text>
<text xml:space="preserve" text-anchor="middle" x="335" y="-427.38" font-family="Helvetica,sans-Serif" font-size="10.00" fill="#ece1d7">from saved point</text>
</g>
<!-- a7&#45;&gt;a8 -->
<g id="edge8" class="edge">
<title>a7&#45;&gt;a8</title>
<path fill="none" stroke="#c1a78e" d="M334.24,-491.78C334.36,-483.57 334.5,-473.56 334.63,-464.41"/>
<polygon fill="#c1a78e" stroke="#c1a78e" points="337.43,-464.49 334.74,-456.45 331.83,-464.41 337.43,-464.49"/>
</g>
<!-- a9 -->
<g id="node10" class="node">
<title>a9</title>
<path fill="#4d4128" stroke="#6e6963" d="M422.75,-381.75C422.75,-381.75 249.25,-381.75 249.25,-381.75 243.25,-381.75 237.25,-375.75 237.25,-369.75 237.25,-369.75 237.25,-357.75 237.25,-357.75 237.25,-351.75 243.25,-345.75 249.25,-345.75 249.25,-345.75 422.75,-345.75 422.75,-345.75 428.75,-345.75 434.75,-351.75 434.75,-357.75 434.75,-357.75 434.75,-369.75 434.75,-369.75 434.75,-375.75 428.75,-381.75 422.75,-381.75"/>
<text xml:space="preserve" text-anchor="middle" x="336" y="-367" font-family="Helvetica,sans-Serif" font-size="10.00" fill="#ece1d7">⑩ records re&#45;flow</text>
<text xml:space="preserve" text-anchor="middle" x="336" y="-354.25" font-family="Helvetica,sans-Serif" font-size="10.00" fill="#ece1d7">CH ReplacingMergeTree(_lsn) dedups</text>
</g>
<!-- a8&#45;&gt;a9 -->
<g id="edge9" class="edge">
<title>a8&#45;&gt;a9</title>
<path fill="none" stroke="#c1a78e" d="M335.24,-418.66C335.36,-410.45 335.5,-400.44 335.63,-391.28"/>
<polygon fill="#c1a78e" stroke="#c1a78e" points="338.43,-391.36 335.74,-383.32 332.83,-391.28 338.43,-391.36"/>
</g>
<!-- manifest -->
<g id="node28" class="node">
<title>manifest</title>
<polygon fill="#4d3850" stroke="#6e6963" points="747.62,-313.75 558.38,-313.75 558.38,-267.5 753.62,-267.5 753.62,-307.75 747.62,-313.75"/>
<polyline fill="none" stroke="#6e6963" points="747.62,-313.75 747.62,-307.75"/>
<polyline fill="none" stroke="#6e6963" points="753.62,-307.75 747.62,-307.75"/>
<text xml:space="preserve" text-anchor="middle" x="656" y="-300.25" font-family="Helvetica,sans-Serif" font-size="10.00" fill="#ece1d7">manifest.toml</text>
<text xml:space="preserve" text-anchor="middle" x="656" y="-287.5" font-family="Helvetica,sans-Serif" font-size="10.00" fill="#ece1d7">source identity + saved restart point</text>
<text xml:space="preserve" text-anchor="middle" x="656" y="-274.75" font-family="Helvetica,sans-Serif" font-size="10.00" fill="#ece1d7">recent pipeline progress</text>
</g>
<!-- a9&#45;&gt;manifest -->
<!-- b1 -->
<g id="node12" class="node">
<title>b1</title>
<path fill="#4d3a28" stroke="#6e6963" d="M764.88,-921.75C764.88,-921.75 547.12,-921.75 547.12,-921.75 541.12,-921.75 535.12,-915.75 535.12,-909.75 535.12,-909.75 535.12,-887.5 535.12,-887.5 535.12,-881.5 541.12,-875.5 547.12,-875.5 547.12,-875.5 764.88,-875.5 764.88,-875.5 770.88,-875.5 776.88,-881.5 776.88,-887.5 776.88,-887.5 776.88,-909.75 776.88,-909.75 776.88,-915.75 770.88,-921.75 764.88,-921.75"/>
<text xml:space="preserve" text-anchor="middle" x="656" y="-908.25" font-family="Helvetica,sans-Serif" font-size="10.00" fill="#ece1d7">② OS reaps process</text>
<text xml:space="preserve" text-anchor="middle" x="656" y="-895.5" font-family="Helvetica,sans-Serif" font-size="10.00" fill="#ece1d7">memory lost; last complete manifest survives</text>
<text xml:space="preserve" text-anchor="middle" x="656" y="-882.75" font-family="Helvetica,sans-Serif" font-size="10.00" fill="#ece1d7">partial manifest write ignored</text>
</g>
<!-- b0&#45;&gt;b1 -->
<g id="edge10" class="edge">
<title>b0&#45;&gt;b1</title>
<path fill="none" stroke="#c1a78e" d="M656,-957.42C656,-949.71 656,-940.38 656,-931.5"/>
<polygon fill="#c1a78e" stroke="#c1a78e" points="658.8,-931.64 656,-923.64 653.2,-931.64 658.8,-931.64"/>
</g>
<!-- c0 -->
<g id="node20" class="node">
<title>c0</title>
<path fill="#403a36" stroke="#6e6963" d="M1035.4,-916.62C1035.4,-916.62 886.6,-916.62 886.6,-916.62 880.6,-916.62 874.6,-910.62 874.6,-904.62 874.6,-904.62 874.6,-892.62 874.6,-892.62 874.6,-886.62 880.6,-880.62 886.6,-880.62 886.6,-880.62 1035.4,-880.62 1035.4,-880.62 1041.4,-880.62 1047.4,-886.62 1047.4,-892.62 1047.4,-892.62 1047.4,-904.62 1047.4,-904.62 1047.4,-910.62 1041.4,-916.62 1035.4,-916.62"/>
<text xml:space="preserve" text-anchor="middle" x="961" y="-895.5" font-family="Helvetica,sans-Serif" font-size="10.00" fill="#ece1d7">① extended downtime</text>
</g>
<!-- b0&#45;&gt;c0 -->
<!-- b2 -->
<g id="node13" class="node">
<title>b2</title>
<path fill="#4d3a28" stroke="#6e6963" d="M730.4,-843.5C730.4,-843.5 581.6,-843.5 581.6,-843.5 575.6,-843.5 569.6,-837.5 569.6,-831.5 569.6,-831.5 569.6,-809.25 569.6,-809.25 569.6,-803.25 575.6,-797.25 581.6,-797.25 581.6,-797.25 730.4,-797.25 730.4,-797.25 736.4,-797.25 742.4,-803.25 742.4,-809.25 742.4,-809.25 742.4,-831.5 742.4,-831.5 742.4,-837.5 736.4,-843.5 730.4,-843.5"/>
<text xml:space="preserve" text-anchor="middle" x="656" y="-830" font-family="Helvetica,sans-Serif" font-size="10.00" fill="#ece1d7">③ restart:</text>
<text xml:space="preserve" text-anchor="middle" x="656" y="-817.25" font-family="Helvetica,sans-Serif" font-size="10.00" fill="#ece1d7">clear transaction spill files</text>
<text xml:space="preserve" text-anchor="middle" x="656" y="-804.5" font-family="Helvetica,sans-Serif" font-size="10.00" fill="#ece1d7">keep toast_retires.toml</text>
</g>
<!-- b1&#45;&gt;b2 -->
<g id="edge11" class="edge">
<title>b1&#45;&gt;b2</title>
<path fill="none" stroke="#c1a78e" d="M656,-875.16C656,-868.24 656,-860.49 656,-853.07"/>
<polygon fill="#c1a78e" stroke="#c1a78e" points="658.8,-853.46 656,-845.46 653.2,-853.46 658.8,-853.46"/>
</g>
<!-- b3 -->
<g id="node14" class="node">
<title>b3</title>
<path fill="#4d3a28" stroke="#6e6963" d="M731.12,-765.25C731.12,-765.25 580.88,-765.25 580.88,-765.25 574.88,-765.25 568.88,-759.25 568.88,-753.25 568.88,-753.25 568.88,-731 568.88,-731 568.88,-725 574.88,-719 580.88,-719 580.88,-719 731.12,-719 731.12,-719 737.12,-719 743.12,-725 743.12,-731 743.12,-731 743.12,-753.25 743.12,-753.25 743.12,-759.25 737.12,-765.25 731.12,-765.25"/>
<text xml:space="preserve" text-anchor="middle" x="656" y="-751.75" font-family="Helvetica,sans-Serif" font-size="10.00" fill="#ece1d7">④ check source identity</text>
<text xml:space="preserve" text-anchor="middle" x="656" y="-739" font-family="Helvetica,sans-Serif" font-size="10.00" fill="#ece1d7">resume from saved restart point</text>
<text xml:space="preserve" text-anchor="middle" x="656" y="-726.25" font-family="Helvetica,sans-Serif" font-size="10.00" fill="#ece1d7">flush safe mirror retirements</text>
</g>
<!-- b2&#45;&gt;b3 -->
<g id="edge12" class="edge">
<title>b2&#45;&gt;b3</title>
<path fill="none" stroke="#c1a78e" d="M656,-796.91C656,-789.99 656,-782.24 656,-774.82"/>
<polygon fill="#c1a78e" stroke="#c1a78e" points="658.8,-775.21 656,-767.21 653.2,-775.21 658.8,-775.21"/>
</g>
<!-- b4 -->
<g id="node15" class="node">
<title>b4</title>
<path fill="#3d4128" stroke="#6e6963" d="M734.12,-675.5C734.12,-675.5 577.88,-675.5 577.88,-675.5 571.88,-675.5 565.88,-669.5 565.88,-663.5 565.88,-663.5 565.88,-651.5 565.88,-651.5 565.88,-645.5 571.88,-639.5 577.88,-639.5 577.88,-639.5 734.12,-639.5 734.12,-639.5 740.12,-639.5 746.12,-645.5 746.12,-651.5 746.12,-651.5 746.12,-663.5 746.12,-663.5 746.12,-669.5 740.12,-675.5 734.12,-675.5"/>
<text xml:space="preserve" text-anchor="middle" x="656" y="-660.75" font-family="Helvetica,sans-Serif" font-size="10.00" fill="#ece1d7">⑤ shadow PG recovers on its own</text>
<text xml:space="preserve" text-anchor="middle" x="656" y="-648" font-family="Helvetica,sans-Serif" font-size="10.00" fill="#ece1d7">walreceiver retry timer</text>
</g>
<!-- b3&#45;&gt;b4 -->
<g id="edge13" class="edge">
<title>b3&#45;&gt;b4</title>
<path fill="none" stroke="#c1a78e" d="M656,-718.55C656,-708.23 656,-695.94 656,-685.17"/>
<polygon fill="#c1a78e" stroke="#c1a78e" points="658.8,-685.32 656,-677.32 653.2,-685.32 658.8,-685.32"/>
</g>
<!-- b5 -->
<g id="node16" class="node">
<title>b5</title>
<path fill="#3d4128" stroke="#6e6963" d="M740.5,-596C740.5,-596 571.5,-596 571.5,-596 565.5,-596 559.5,-590 559.5,-584 559.5,-584 559.5,-572 559.5,-572 559.5,-566 565.5,-560 571.5,-560 571.5,-560 740.5,-560 740.5,-560 746.5,-560 752.5,-566 752.5,-572 752.5,-572 752.5,-584 752.5,-584 752.5,-590 746.5,-596 740.5,-596"/>
<text xml:space="preserve" text-anchor="middle" x="656" y="-581.25" font-family="Helvetica,sans-Serif" font-size="10.00" fill="#ece1d7">⑥ shadow asks START_REPLICATION</text>
<text xml:space="preserve" text-anchor="middle" x="656" y="-568.5" font-family="Helvetica,sans-Serif" font-size="10.00" fill="#ece1d7">PHYSICAL &lt;its flush_lsn&gt;</text>
</g>
<!-- b4&#45;&gt;b5 -->
<g id="edge14" class="edge">
<title>b4&#45;&gt;b5</title>
<path fill="none" stroke="#c1a78e" d="M656,-639.3C656,-629.44 656,-616.84 656,-605.71"/>
<polygon fill="#c1a78e" stroke="#c1a78e" points="658.8,-605.93 656,-597.93 653.2,-605.93 658.8,-605.93"/>
</g>
<!-- b6 -->
<g id="node17" class="node">
<title>b6</title>
<path fill="#4d3a28" stroke="#6e6963" d="M745.38,-528C745.38,-528 566.62,-528 566.62,-528 560.62,-528 554.62,-522 554.62,-516 554.62,-516 554.62,-504 554.62,-504 554.62,-498 560.62,-492 566.62,-492 566.62,-492 745.38,-492 745.38,-492 751.38,-492 757.38,-498 757.38,-504 757.38,-504 757.38,-516 757.38,-516 757.38,-522 751.38,-528 745.38,-528"/>
<text xml:space="preserve" text-anchor="middle" x="656" y="-513.25" font-family="Helvetica,sans-Serif" font-size="10.00" fill="#ece1d7">⑦ resume source from saved point</text>
<text xml:space="preserve" text-anchor="middle" x="656" y="-500.5" font-family="Helvetica,sans-Serif" font-size="10.00" fill="#ece1d7">resume shadow from its own progress</text>
</g>
<!-- b5&#45;&gt;b6 -->
<g id="edge15" class="edge">
<title>b5&#45;&gt;b6</title>
<path fill="none" stroke="#c1a78e" d="M656,-559.66C656,-552.89 656,-544.98 656,-537.53"/>
<polygon fill="#c1a78e" stroke="#c1a78e" points="658.8,-537.97 656,-529.97 653.2,-537.97 658.8,-537.97"/>
</g>
<!-- b7 -->
<g id="node18" class="node">
<title>b7</title>
<path fill="#4d4128" stroke="#6e6963" d="M730.4,-460C730.4,-460 581.6,-460 581.6,-460 575.6,-460 569.6,-454 569.6,-448 569.6,-448 569.6,-425.75 569.6,-425.75 569.6,-419.75 575.6,-413.75 581.6,-413.75 581.6,-413.75 730.4,-413.75 730.4,-413.75 736.4,-413.75 742.4,-419.75 742.4,-425.75 742.4,-425.75 742.4,-448 742.4,-448 742.4,-454 736.4,-460 730.4,-460"/>
<text xml:space="preserve" text-anchor="middle" x="656" y="-446.5" font-family="Helvetica,sans-Serif" font-size="10.00" fill="#ece1d7">⑧ overlap records replayed</text>
<text xml:space="preserve" text-anchor="middle" x="656" y="-433.75" font-family="Helvetica,sans-Serif" font-size="10.00" fill="#ece1d7">CH dedups on _lsn</text>
<text xml:space="preserve" text-anchor="middle" x="656" y="-421" font-family="Helvetica,sans-Serif" font-size="10.00" fill="#ece1d7">shadow apply monotonic</text>
</g>
<!-- b6&#45;&gt;b7 -->
<g id="edge16" class="edge">
<title>b6&#45;&gt;b7</title>
<path fill="none" stroke="#c1a78e" d="M656,-491.78C656,-485.13 656,-477.31 656,-469.71"/>
<polygon fill="#c1a78e" stroke="#c1a78e" points="658.8,-469.83 656,-461.83 653.2,-469.83 658.8,-469.83"/>
</g>
<!-- b8 -->
<g id="node19" class="node">
<title>b8</title>
<path fill="#4d3a28" stroke="#6e6963" d="M730.4,-381.75C730.4,-381.75 581.6,-381.75 581.6,-381.75 575.6,-381.75 569.6,-375.75 569.6,-369.75 569.6,-369.75 569.6,-357.75 569.6,-357.75 569.6,-351.75 575.6,-345.75 581.6,-345.75 581.6,-345.75 730.4,-345.75 730.4,-345.75 736.4,-345.75 742.4,-351.75 742.4,-357.75 742.4,-357.75 742.4,-369.75 742.4,-369.75 742.4,-375.75 736.4,-381.75 730.4,-381.75"/>
<text xml:space="preserve" text-anchor="middle" x="656" y="-360.62" font-family="Helvetica,sans-Serif" font-size="10.00" fill="#ece1d7">⑨ steady&#45;state reached</text>
</g>
<!-- b7&#45;&gt;b8 -->
<g id="edge17" class="edge">
<title>b7&#45;&gt;b8</title>
<path fill="none" stroke="#c1a78e" d="M656,-413.37C656,-406.43 656,-398.72 656,-391.53"/>
<polygon fill="#c1a78e" stroke="#c1a78e" points="658.8,-391.66 656,-383.66 653.2,-391.66 658.8,-391.66"/>
</g>
<!-- b8&#45;&gt;manifest -->
<!-- c1 -->
<g id="node21" class="node">
<title>c1</title>
<path fill="#4d3a28" stroke="#6e6963" d="M1080.88,-843.5C1080.88,-843.5 887.12,-843.5 887.12,-843.5 881.12,-843.5 875.12,-837.5 875.12,-831.5 875.12,-831.5 875.12,-809.25 875.12,-809.25 875.12,-803.25 881.12,-797.25 887.12,-797.25 887.12,-797.25 1080.88,-797.25 1080.88,-797.25 1086.88,-797.25 1092.88,-803.25 1092.88,-809.25 1092.88,-809.25 1092.88,-831.5 1092.88,-831.5 1092.88,-837.5 1086.88,-843.5 1080.88,-843.5"/>
<text xml:space="preserve" text-anchor="middle" x="984" y="-830" font-family="Helvetica,sans-Serif" font-size="10.00" fill="#ece1d7">② restart:</text>
<text xml:space="preserve" text-anchor="middle" x="984" y="-817.25" font-family="Helvetica,sans-Serif" font-size="10.00" fill="#ece1d7">SourceFeed::START_REPLICATION →</text>
<text xml:space="preserve" text-anchor="middle" x="984" y="-804.5" font-family="Helvetica,sans-Serif" font-size="10.00" fill="#ece1d7">ERROR requested WAL segment removed</text>
</g>
<!-- c0&#45;&gt;c1 -->
<g id="edge18" class="edge">
<title>c0&#45;&gt;c1</title>
<path fill="none" stroke="#c1a78e" d="M966.22,-880.32C968.66,-872.22 971.66,-862.3 974.48,-852.92"/>
<polygon fill="#c1a78e" stroke="#c1a78e" points="977.16,-853.74 976.79,-845.27 971.8,-852.12 977.16,-853.74"/>
</g>
<!-- c2 -->
<g id="node22" class="node">
<title>c2</title>
<path fill="#4d3a28" stroke="#6e6963" d="M1057.4,-765.25C1057.4,-765.25 908.6,-765.25 908.6,-765.25 902.6,-765.25 896.6,-759.25 896.6,-753.25 896.6,-753.25 896.6,-731 896.6,-731 896.6,-725 902.6,-719 908.6,-719 908.6,-719 1057.4,-719 1057.4,-719 1063.4,-719 1069.4,-725 1069.4,-731 1069.4,-731 1069.4,-753.25 1069.4,-753.25 1069.4,-759.25 1063.4,-765.25 1057.4,-765.25"/>
<text xml:space="preserve" text-anchor="middle" x="983" y="-751.75" font-family="Helvetica,sans-Serif" font-size="10.00" fill="#ece1d7">③ daemon poisons</text>
<text xml:space="preserve" text-anchor="middle" x="983" y="-739" font-family="Helvetica,sans-Serif" font-size="10.00" fill="#ece1d7">log ReplayTimeout / WAL gap</text>
<text xml:space="preserve" text-anchor="middle" x="983" y="-726.25" font-family="Helvetica,sans-Serif" font-size="10.00" fill="#ece1d7">exit non&#45;zero</text>
</g>
<!-- c1&#45;&gt;c2 -->
<g id="edge19" class="edge">
<title>c1&#45;&gt;c2</title>
<path fill="none" stroke="#c1a78e" d="M983.71,-796.91C983.61,-789.99 983.51,-782.24 983.42,-774.82"/>
<polygon fill="#c1a78e" stroke="#c1a78e" points="986.22,-775.17 983.32,-767.21 980.62,-775.24 986.22,-775.17"/>
</g>
<!-- c3 -->
<g id="node23" class="node">
<title>c3</title>
<path fill="#403a36" stroke="#6e6963" d="M1057.4,-680.62C1057.4,-680.62 908.6,-680.62 908.6,-680.62 902.6,-680.62 896.6,-674.62 896.6,-668.62 896.6,-668.62 896.6,-646.38 896.6,-646.38 896.6,-640.38 902.6,-634.38 908.6,-634.38 908.6,-634.38 1057.4,-634.38 1057.4,-634.38 1063.4,-634.38 1069.4,-640.38 1069.4,-646.38 1069.4,-646.38 1069.4,-668.62 1069.4,-668.62 1069.4,-674.62 1063.4,-680.62 1057.4,-680.62"/>
<text xml:space="preserve" text-anchor="middle" x="983" y="-667.12" font-family="Helvetica,sans-Serif" font-size="10.00" fill="#ece1d7">④ operator re&#45;invokes</text>
<text xml:space="preserve" text-anchor="middle" x="983" y="-654.38" font-family="Helvetica,sans-Serif" font-size="10.00" fill="#ece1d7">&#45;&#45;bootstrap&#45;mode=direct</text>
<text xml:space="preserve" text-anchor="middle" x="983" y="-641.62" font-family="Helvetica,sans-Serif" font-size="10.00" fill="#ece1d7">(or object_store)</text>
</g>
<!-- c2&#45;&gt;c3 -->
<g id="edge20" class="edge">
<title>c2&#45;&gt;c3</title>
<path fill="none" stroke="#c1a78e" d="M983,-718.55C983,-709.89 983,-699.85 983,-690.48"/>
<polygon fill="#c1a78e" stroke="#c1a78e" points="985.8,-690.56 983,-682.56 980.2,-690.56 985.8,-690.56"/>
</g>
<!-- c4 -->
<g id="node24" class="node">
<title>c4</title>
<path fill="#4d3a28" stroke="#6e6963" d="M1056.4,-596C1056.4,-596 907.6,-596 907.6,-596 901.6,-596 895.6,-590 895.6,-584 895.6,-584 895.6,-572 895.6,-572 895.6,-566 901.6,-560 907.6,-560 907.6,-560 1056.4,-560 1056.4,-560 1062.4,-560 1068.4,-566 1068.4,-572 1068.4,-572 1068.4,-584 1068.4,-584 1068.4,-590 1062.4,-596 1056.4,-596"/>
<text xml:space="preserve" text-anchor="middle" x="982" y="-581.25" font-family="Helvetica,sans-Serif" font-size="10.00" fill="#ece1d7">⑤ greenfield bootstrap path</text>
<text xml:space="preserve" text-anchor="middle" x="982" y="-568.5" font-family="Helvetica,sans-Serif" font-size="10.00" fill="#ece1d7">(→ timeline_bootstrap)</text>
</g>
<!-- c3&#45;&gt;c4 -->
<g id="edge21" class="edge">
<title>c3&#45;&gt;c4</title>
<path fill="none" stroke="#c1a78e" d="M982.71,-634.08C982.6,-625.29 982.47,-615.11 982.35,-605.92"/>
<polygon fill="#c1a78e" stroke="#c1a78e" points="985.15,-605.92 982.24,-597.96 979.55,-605.99 985.15,-605.92"/>
</g>
<!-- c5 -->
<g id="node25" class="node">
<title>c5</title>
<path fill="#3d4128" stroke="#6e6963" d="M1055.4,-528C1055.4,-528 906.6,-528 906.6,-528 900.6,-528 894.6,-522 894.6,-516 894.6,-516 894.6,-504 894.6,-504 894.6,-498 900.6,-492 906.6,-492 906.6,-492 1055.4,-492 1055.4,-492 1061.4,-492 1067.4,-498 1067.4,-504 1067.4,-504 1067.4,-516 1067.4,-516 1067.4,-522 1061.4,-528 1055.4,-528"/>
<text xml:space="preserve" text-anchor="middle" x="981" y="-513.25" font-family="Helvetica,sans-Serif" font-size="10.00" fill="#ece1d7">⑥ shadow data dir wiped</text>
<text xml:space="preserve" text-anchor="middle" x="981" y="-500.5" font-family="Helvetica,sans-Serif" font-size="10.00" fill="#ece1d7">or diverted to fresh dir</text>
</g>
<!-- c4&#45;&gt;c5 -->
<g id="edge22" class="edge">
<title>c4&#45;&gt;c5</title>
<path fill="none" stroke="#c1a78e" d="M981.74,-559.66C981.63,-552.89 981.51,-544.98 981.4,-537.53"/>
<polygon fill="#c1a78e" stroke="#c1a78e" points="984.21,-537.92 981.29,-529.97 978.61,-538.01 984.21,-537.92"/>
</g>
<!-- c6 -->
<g id="node26" class="node">
<title>c6</title>
<path fill="#4d3a28" stroke="#6e6963" d="M1052.4,-454.88C1052.4,-454.88 903.6,-454.88 903.6,-454.88 897.6,-454.88 891.6,-448.88 891.6,-442.88 891.6,-442.88 891.6,-430.88 891.6,-430.88 891.6,-424.88 897.6,-418.88 903.6,-418.88 903.6,-418.88 1052.4,-418.88 1052.4,-418.88 1058.4,-418.88 1064.4,-424.88 1064.4,-430.88 1064.4,-430.88 1064.4,-442.88 1064.4,-442.88 1064.4,-448.88 1058.4,-454.88 1052.4,-454.88"/>
<text xml:space="preserve" text-anchor="middle" x="978" y="-440.12" font-family="Helvetica,sans-Serif" font-size="10.00" fill="#ece1d7">⑦ first status update saves</text>
<text xml:space="preserve" text-anchor="middle" x="978" y="-427.38" font-family="Helvetica,sans-Serif" font-size="10.00" fill="#ece1d7">new manifest.toml</text>
</g>
<!-- c5&#45;&gt;c6 -->
<g id="edge23" class="edge">
<title>c5&#45;&gt;c6</title>
<path fill="none" stroke="#c1a78e" d="M980.27,-491.78C979.93,-483.57 979.51,-473.56 979.12,-464.41"/>
<polygon fill="#c1a78e" stroke="#c1a78e" points="981.92,-464.32 978.78,-456.45 976.32,-464.56 981.92,-464.32"/>
</g>
<!-- c7 -->
<g id="node27" class="node">
<title>c7</title>
<path fill="#4d4128" stroke="#6e6963" d="M1046.4,-381.75C1046.4,-381.75 897.6,-381.75 897.6,-381.75 891.6,-381.75 885.6,-375.75 885.6,-369.75 885.6,-369.75 885.6,-357.75 885.6,-357.75 885.6,-351.75 891.6,-345.75 897.6,-345.75 897.6,-345.75 1046.4,-345.75 1046.4,-345.75 1052.4,-345.75 1058.4,-351.75 1058.4,-357.75 1058.4,-357.75 1058.4,-369.75 1058.4,-369.75 1058.4,-375.75 1052.4,-381.75 1046.4,-381.75"/>
<text xml:space="preserve" text-anchor="middle" x="972" y="-360.62" font-family="Helvetica,sans-Serif" font-size="10.00" fill="#ece1d7">⑧ steady&#45;state reached</text>
</g>
<!-- c6&#45;&gt;c7 -->
<g id="edge24" class="edge">
<title>c6&#45;&gt;c7</title>
<path fill="none" stroke="#c1a78e" d="M976.55,-418.66C975.85,-410.45 975.01,-400.44 974.24,-391.28"/>
<polygon fill="#c1a78e" stroke="#c1a78e" points="977.03,-391.05 973.57,-383.32 971.45,-391.52 977.03,-391.05"/>
</g>
<!-- c7&#45;&gt;manifest -->
<!-- legend -->
<g id="node29" class="node">
<title>legend</title>
<path fill="#6e6963" stroke="none" d="M768.88,-235.5C768.88,-235.5 543.12,-235.5 543.12,-235.5 537.12,-235.5 531.12,-229.5 531.12,-223.5 531.12,-223.5 531.12,-12 531.12,-12 531.12,-6 537.12,0 543.12,0 543.12,0 768.88,0 768.88,0 774.88,0 780.88,-6 780.88,-12 780.88,-12 780.88,-223.5 780.88,-223.5 780.88,-229.5 774.88,-235.5 768.88,-235.5"/>
<polygon fill="#34302c" stroke="none" points="539.12,-208.75 539.12,-231.5 772.88,-231.5 772.88,-208.75 539.12,-208.75"/>
<polygon fill="none" stroke="#6e6963" points="539.12,-208.75 539.12,-231.5 772.88,-231.5 772.88,-208.75 539.12,-208.75"/>
<text xml:space="preserve" text-anchor="start" x="632.75" y="-218" font-family="Helvetica,sans-Serif" font-weight="bold" font-size="10.00" fill="#ece1d7">node fill</text>
<polygon fill="#403a36" stroke="none" points="539.12,-186 539.12,-208.75 567.12,-208.75 567.12,-186 539.12,-186"/>
<polygon fill="none" stroke="#6e6963" points="539.12,-186 539.12,-208.75 567.12,-208.75 567.12,-186 539.12,-186"/>
<polygon fill="none" stroke="#6e6963" points="567.12,-186 567.12,-208.75 772.88,-208.75 772.88,-186 567.12,-186"/>
<text xml:space="preserve" text-anchor="start" x="622.75" y="-194" font-family="Helvetica,sans-Serif" font-size="10.00" fill="#ece1d7">operator / OS event</text>
<polygon fill="#4d3a28" stroke="none" points="539.12,-163.25 539.12,-186 567.12,-186 567.12,-163.25 539.12,-163.25"/>
<polygon fill="none" stroke="#6e6963" points="539.12,-163.25 539.12,-186 567.12,-186 567.12,-163.25 539.12,-163.25"/>
<polygon fill="none" stroke="#6e6963" points="567.12,-163.25 567.12,-186 772.88,-186 772.88,-163.25 567.12,-163.25"/>
<text xml:space="preserve" text-anchor="start" x="623.5" y="-171.25" font-family="Helvetica,sans-Serif" font-size="10.00" fill="#ece1d7">walshadow&#45;stream</text>
<polygon fill="#4d3340" stroke="none" points="539.12,-140.5 539.12,-163.25 567.12,-163.25 567.12,-140.5 539.12,-140.5"/>
<polygon fill="none" stroke="#6e6963" points="539.12,-140.5 539.12,-163.25 567.12,-163.25 567.12,-140.5 539.12,-140.5"/>
<polygon fill="none" stroke="#6e6963" points="567.12,-140.5 567.12,-163.25 772.88,-163.25 772.88,-140.5 567.12,-140.5"/>
<text xml:space="preserve" text-anchor="start" x="572.12" y="-148.5" font-family="Helvetica,sans-Serif" font-size="10.00" fill="#ece1d7">walshadow — segment / walsender side</text>
<polygon fill="#3d4128" stroke="none" points="539.12,-117.75 539.12,-140.5 567.12,-140.5 567.12,-117.75 539.12,-117.75"/>
<polygon fill="none" stroke="#6e6963" points="539.12,-117.75 539.12,-140.5 567.12,-140.5 567.12,-117.75 539.12,-117.75"/>
<polygon fill="none" stroke="#6e6963" points="567.12,-117.75 567.12,-140.5 772.88,-140.5 772.88,-117.75 567.12,-117.75"/>
<text xml:space="preserve" text-anchor="start" x="628.75" y="-125.75" font-family="Helvetica,sans-Serif" font-size="10.00" fill="#ece1d7">shadow Postgres</text>
<polygon fill="#4d4128" stroke="none" points="539.12,-95 539.12,-117.75 567.12,-117.75 567.12,-95 539.12,-95"/>
<polygon fill="none" stroke="#6e6963" points="539.12,-95 539.12,-117.75 567.12,-117.75 567.12,-95 539.12,-95"/>
<polygon fill="none" stroke="#6e6963" points="567.12,-95 567.12,-117.75 772.88,-117.75 772.88,-95 567.12,-95"/>
<text xml:space="preserve" text-anchor="start" x="599.5" y="-103" font-family="Helvetica,sans-Serif" font-size="10.00" fill="#ece1d7">ClickHouse (dedup endpoint)</text>
<polygon fill="#34302c" stroke="none" points="539.12,-72.25 539.12,-95 772.88,-95 772.88,-72.25 539.12,-72.25"/>
<polygon fill="none" stroke="#6e6963" points="539.12,-72.25 539.12,-95 772.88,-95 772.88,-72.25 539.12,-72.25"/>
<text xml:space="preserve" text-anchor="start" x="589.25" y="-81.5" font-family="Helvetica,sans-Serif" font-weight="bold" font-size="10.00" fill="#ece1d7">scenario cluster border</text>
<polygon fill="none" stroke="#6e6963" points="539.12,-49.5 539.12,-72.25 567.12,-72.25 567.12,-49.5 539.12,-49.5"/>
<text xml:space="preserve" text-anchor="start" x="550.12" y="-58.75" font-family="Helvetica,sans-Serif" font-weight="bold" font-size="10.00" fill="#a1a9cc">━</text>
<polygon fill="none" stroke="#6e6963" points="567.12,-49.5 567.12,-72.25 772.88,-72.25 772.88,-49.5 567.12,-49.5"/>
<text xml:space="preserve" text-anchor="start" x="605.5" y="-57.5" font-family="Helvetica,sans-Serif" font-size="10.00" fill="#ece1d7">A. clean restart (SIGTERM)</text>
<polygon fill="none" stroke="#6e6963" points="539.12,-26.75 539.12,-49.5 567.12,-49.5 567.12,-26.75 539.12,-26.75"/>
<text xml:space="preserve" text-anchor="start" x="550.12" y="-36" font-family="Helvetica,sans-Serif" font-weight="bold" font-size="10.00" fill="#cba85e">━</text>
<polygon fill="none" stroke="#6e6963" points="567.12,-26.75 567.12,-49.5 772.88,-49.5 772.88,-26.75 567.12,-26.75"/>
<text xml:space="preserve" text-anchor="start" x="619.75" y="-34.75" font-family="Helvetica,sans-Serif" font-size="10.00" fill="#ece1d7">B. kill &#45;9 mid&#45;stream</text>
<polygon fill="none" stroke="#6e6963" points="539.12,-4 539.12,-26.75 567.12,-26.75 567.12,-4 539.12,-4"/>
<text xml:space="preserve" text-anchor="start" x="550.12" y="-13.25" font-family="Helvetica,sans-Serif" font-weight="bold" font-size="10.00" fill="#bd8183">━</text>
<polygon fill="none" stroke="#6e6963" points="567.12,-4 567.12,-26.75 772.88,-26.75 772.88,-4 567.12,-4"/>
<text xml:space="preserve" text-anchor="start" x="593.5" y="-12" font-family="Helvetica,sans-Serif" font-size="10.00" fill="#ece1d7">C. WAL overflow → re&#45;bootstrap</text>
</g>
<!-- manifest&#45;&gt;legend -->
</g>
</svg>
