<?xml version="1.0" encoding="UTF-8" standalone="no"?>
<!DOCTYPE svg PUBLIC "-//W3C//DTD SVG 1.1//EN"
 "http://www.w3.org/Graphics/SVG/1.1/DTD/svg11.dtd">
<!-- Generated by graphviz version 14.1.5 (0)
 -->
<!-- Title: timeline_restart Pages: 1 -->
<svg width="1372pt" height="1300pt"
 viewBox="0.00 0.00 1372.00 1300.00" xmlns="http://www.w3.org/2000/svg" xmlns:xlink="http://www.w3.org/1999/xlink">
<g id="graph0" class="graph" transform="scale(1 1) rotate(0) translate(4 1295.5)">
<title>timeline_restart</title>
<polygon fill="#272623" stroke="none" points="-4,4 -4,-1295.5 1368,-1295.5 1368,4 -4,4"/>
<text xml:space="preserve" text-anchor="middle" x="682" y="-1274.2" font-family="Helvetica,sans-Serif" font-size="14.00" fill="#ece1d7">walshadow restart timelines — 3 scenarios, time flows top → bottom within each column</text>
<g id="clust1" class="cluster">
<title>cluster_a</title>
<path fill="#34302c" stroke="#a1a9cc" d="M20,-472.75C20,-472.75 490,-472.75 490,-472.75 496,-472.75 502,-478.75 502,-484.75 502,-484.75 502,-1246.25 502,-1246.25 502,-1252.25 496,-1258.25 490,-1258.25 490,-1258.25 20,-1258.25 20,-1258.25 14,-1258.25 8,-1252.25 8,-1246.25 8,-1246.25 8,-484.75 8,-484.75 8,-478.75 14,-472.75 20,-472.75"/>
<text xml:space="preserve" text-anchor="middle" x="255" y="-1240.95" font-family="Helvetica,sans-Serif" font-size="14.00" fill="#ece1d7">A. clean restart &#160;(SIGTERM, cursor flushed, slot inside wal_keep_size)</text>
</g>
<g id="clust2" class="cluster">
<title>cluster_b</title>
<path fill="#34302c" stroke="#cba85e" d="M522,-472.75C522,-472.75 900,-472.75 900,-472.75 906,-472.75 912,-478.75 912,-484.75 912,-484.75 912,-1169 912,-1169 912,-1175 906,-1181 900,-1181 900,-1181 522,-1181 522,-1181 516,-1181 510,-1175 510,-1169 510,-1169 510,-484.75 510,-484.75 510,-478.75 516,-472.75 522,-472.75"/>
<text xml:space="preserve" text-anchor="middle" x="711" y="-1163.7" font-family="Helvetica,sans-Serif" font-size="14.00" fill="#ece1d7">B. kill &#45;9 mid&#45;stream &#160;(last fsynced cursor authoritative)</text>
</g>
<g id="clust3" class="cluster">
<title>cluster_c</title>
<path fill="#34302c" stroke="#bd8183" d="M932,-472.75C932,-472.75 1344,-472.75 1344,-472.75 1350,-472.75 1356,-478.75 1356,-484.75 1356,-484.75 1356,-1089.5 1356,-1089.5 1356,-1095.5 1350,-1101.5 1344,-1101.5 1344,-1101.5 932,-1101.5 932,-1101.5 926,-1101.5 920,-1095.5 920,-1089.5 920,-1089.5 920,-484.75 920,-484.75 920,-478.75 926,-472.75 932,-472.75"/>
<text xml:space="preserve" text-anchor="middle" x="1138" y="-1084.2" font-family="Helvetica,sans-Serif" font-size="14.00" fill="#ece1d7">C. extended outage &#160;(slot LSN beyond source wal_keep_size)</text>
</g>
<!-- a0 -->
<g id="node1" class="node">
<title>a0</title>
<path fill="#403a36" stroke="#6e6963" d="M482.4,-1225C482.4,-1225 333.6,-1225 333.6,-1225 327.6,-1225 321.6,-1219 321.6,-1213 321.6,-1213 321.6,-1201 321.6,-1201 321.6,-1195 327.6,-1189 333.6,-1189 333.6,-1189 482.4,-1189 482.4,-1189 488.4,-1189 494.4,-1195 494.4,-1201 494.4,-1201 494.4,-1213 494.4,-1213 494.4,-1219 488.4,-1225 482.4,-1225"/>
<text xml:space="preserve" text-anchor="middle" x="408" y="-1203.88" font-family="Helvetica,sans-Serif" font-size="10.00" fill="#ece1d7">① SIGTERM</text>
</g>
<!-- a1 -->
<g id="node2" class="node">
<title>a1</title>
<path fill="#4d3a28" stroke="#6e6963" d="M468.4,-1147.75C468.4,-1147.75 319.6,-1147.75 319.6,-1147.75 313.6,-1147.75 307.6,-1141.75 307.6,-1135.75 307.6,-1135.75 307.6,-1123.75 307.6,-1123.75 307.6,-1117.75 313.6,-1111.75 319.6,-1111.75 319.6,-1111.75 468.4,-1111.75 468.4,-1111.75 474.4,-1111.75 480.4,-1117.75 480.4,-1123.75 480.4,-1123.75 480.4,-1135.75 480.4,-1135.75 480.4,-1141.75 474.4,-1147.75 468.4,-1147.75"/>
<text xml:space="preserve" text-anchor="middle" x="394" y="-1133" font-family="Helvetica,sans-Serif" font-size="10.00" fill="#ece1d7">② drain in&#45;flight xact</text>
<text xml:space="preserve" text-anchor="middle" x="394" y="-1120.25" font-family="Helvetica,sans-Serif" font-size="10.00" fill="#ece1d7">on_xact_end → ack</text>
</g>
<!-- a0&#45;&gt;a1 -->
<g id="edge1" class="edge">
<title>a0&#45;&gt;a1</title>
<path fill="none" stroke="#c1a78e" d="M404.75,-1188.55C403.02,-1179.24 400.85,-1167.59 398.92,-1157.2"/>
<polygon fill="#c1a78e" stroke="#c1a78e" points="401.72,-1156.95 397.51,-1149.6 396.22,-1157.97 401.72,-1156.95"/>
</g>
<!-- b0 -->
<g id="node11" class="node">
<title>b0</title>
<path fill="#403a36" stroke="#6e6963" d="M785.4,-1147.75C785.4,-1147.75 636.6,-1147.75 636.6,-1147.75 630.6,-1147.75 624.6,-1141.75 624.6,-1135.75 624.6,-1135.75 624.6,-1123.75 624.6,-1123.75 624.6,-1117.75 630.6,-1111.75 636.6,-1111.75 636.6,-1111.75 785.4,-1111.75 785.4,-1111.75 791.4,-1111.75 797.4,-1117.75 797.4,-1123.75 797.4,-1123.75 797.4,-1135.75 797.4,-1135.75 797.4,-1141.75 791.4,-1147.75 785.4,-1147.75"/>
<text xml:space="preserve" text-anchor="middle" x="711" y="-1126.62" font-family="Helvetica,sans-Serif" font-size="10.00" fill="#ece1d7">① kill &#45;9 (no drain)</text>
</g>
<!-- a0&#45;&gt;b0 -->
<!-- a2 -->
<g id="node3" class="node">
<title>a2</title>
<path fill="#4d3340" stroke="#6e6963" d="M473.75,-1068.25C473.75,-1068.25 288.25,-1068.25 288.25,-1068.25 282.25,-1068.25 276.25,-1062.25 276.25,-1056.25 276.25,-1056.25 276.25,-1044.25 276.25,-1044.25 276.25,-1038.25 282.25,-1032.25 288.25,-1032.25 288.25,-1032.25 473.75,-1032.25 473.75,-1032.25 479.75,-1032.25 485.75,-1038.25 485.75,-1044.25 485.75,-1044.25 485.75,-1056.25 485.75,-1056.25 485.75,-1062.25 479.75,-1068.25 473.75,-1068.25"/>
<text xml:space="preserve" text-anchor="middle" x="381" y="-1053.5" font-family="Helvetica,sans-Serif" font-size="10.00" fill="#ece1d7">③ DirSegmentSink::on_partial_segment</text>
<text xml:space="preserve" text-anchor="middle" x="381" y="-1040.75" font-family="Helvetica,sans-Serif" font-size="10.00" fill="#ece1d7">&lt;seg&gt;.partial</text>
</g>
<!-- a1&#45;&gt;a2 -->
<g id="edge2" class="edge">
<title>a1&#45;&gt;a2</title>
<path fill="none" stroke="#c1a78e" d="M391.11,-1111.55C389.46,-1101.69 387.35,-1089.09 385.48,-1077.96"/>
<polygon fill="#c1a78e" stroke="#c1a78e" points="388.26,-1077.59 384.17,-1070.16 382.73,-1078.52 388.26,-1077.59"/>
</g>
<!-- a3 -->
<g id="node4" class="node">
<title>a3</title>
<path fill="#4d3a28" stroke="#6e6963" d="M454.4,-983.62C454.4,-983.62 305.6,-983.62 305.6,-983.62 299.6,-983.62 293.6,-977.62 293.6,-971.62 293.6,-971.62 293.6,-959.62 293.6,-959.62 293.6,-953.62 299.6,-947.62 305.6,-947.62 305.6,-947.62 454.4,-947.62 454.4,-947.62 460.4,-947.62 466.4,-953.62 466.4,-959.62 466.4,-959.62 466.4,-971.62 466.4,-971.62 466.4,-977.62 460.4,-983.62 454.4,-983.62"/>
<text xml:space="preserve" text-anchor="middle" x="380" y="-968.88" font-family="Helvetica,sans-Serif" font-size="10.00" fill="#ece1d7">④ cursor::write final state</text>
<text xml:space="preserve" text-anchor="middle" x="380" y="-956.12" font-family="Helvetica,sans-Serif" font-size="10.00" fill="#ece1d7">(emitter_ack_lsn, drain_lsn, …)</text>
</g>
<!-- a2&#45;&gt;a3 -->
<g id="edge3" class="edge">
<title>a2&#45;&gt;a3</title>
<path fill="none" stroke="#c1a78e" d="M380.79,-1032.13C380.66,-1020.91 380.48,-1006 380.32,-993.25"/>
<polygon fill="#c1a78e" stroke="#c1a78e" points="383.13,-993.49 380.23,-985.52 377.53,-993.55 383.13,-993.49"/>
</g>
<!-- a4 -->
<g id="node5" class="node">
<title>a4</title>
<path fill="#403a36" stroke="#6e6963" d="M454.4,-905.38C454.4,-905.38 305.6,-905.38 305.6,-905.38 299.6,-905.38 293.6,-899.38 293.6,-893.38 293.6,-893.38 293.6,-881.38 293.6,-881.38 293.6,-875.38 299.6,-869.38 305.6,-869.38 305.6,-869.38 454.4,-869.38 454.4,-869.38 460.4,-869.38 466.4,-875.38 466.4,-881.38 466.4,-881.38 466.4,-893.38 466.4,-893.38 466.4,-899.38 460.4,-905.38 454.4,-905.38"/>
<text xml:space="preserve" text-anchor="middle" x="380" y="-884.25" font-family="Helvetica,sans-Serif" font-size="10.00" fill="#ece1d7">⑤ process exit</text>
</g>
<!-- a3&#45;&gt;a4 -->
<g id="edge4" class="edge">
<title>a3&#45;&gt;a4</title>
<path fill="none" stroke="#c1a78e" d="M380,-947.32C380,-937.84 380,-925.87 380,-915.2"/>
<polygon fill="#c1a78e" stroke="#c1a78e" points="382.8,-915.39 380,-907.39 377.2,-915.39 382.8,-915.39"/>
</g>
<!-- a5 -->
<g id="node6" class="node">
<title>a5</title>
<path fill="#4d3a28" stroke="#6e6963" d="M452.4,-832.25C452.4,-832.25 303.6,-832.25 303.6,-832.25 297.6,-832.25 291.6,-826.25 291.6,-820.25 291.6,-820.25 291.6,-785.25 291.6,-785.25 291.6,-779.25 297.6,-773.25 303.6,-773.25 303.6,-773.25 452.4,-773.25 452.4,-773.25 458.4,-773.25 464.4,-779.25 464.4,-785.25 464.4,-785.25 464.4,-820.25 464.4,-820.25 464.4,-826.25 458.4,-832.25 452.4,-832.25"/>
<text xml:space="preserve" text-anchor="middle" x="378" y="-818.75" font-family="Helvetica,sans-Serif" font-size="10.00" fill="#ece1d7">⑥ restart:</text>
<text xml:space="preserve" text-anchor="middle" x="378" y="-806" font-family="Helvetica,sans-Serif" font-size="10.00" fill="#ece1d7">cursor::read → Cursor{…}</text>
<text xml:space="preserve" text-anchor="middle" x="378" y="-793.25" font-family="Helvetica,sans-Serif" font-size="10.00" fill="#ece1d7">resume_lsn = segment&#45;aligned</text>
<text xml:space="preserve" text-anchor="middle" x="378" y="-780.5" font-family="Helvetica,sans-Serif" font-size="10.00" fill="#ece1d7">down to emitter_ack_lsn</text>
</g>
<!-- a4&#45;&gt;a5 -->
<g id="edge5" class="edge">
<title>a4&#45;&gt;a5</title>
<path fill="none" stroke="#c1a78e" d="M379.59,-869.26C379.39,-861.31 379.16,-851.53 378.93,-841.97"/>
<polygon fill="#c1a78e" stroke="#c1a78e" points="381.73,-842 378.73,-834.07 376.13,-842.14 381.73,-842"/>
</g>
<!-- a6 -->
<g id="node7" class="node">
<title>a6</title>
<path fill="#3d4128" stroke="#6e6963" d="M457.25,-741.25C457.25,-741.25 298.75,-741.25 298.75,-741.25 292.75,-741.25 286.75,-735.25 286.75,-729.25 286.75,-729.25 286.75,-717.25 286.75,-717.25 286.75,-711.25 292.75,-705.25 298.75,-705.25 298.75,-705.25 457.25,-705.25 457.25,-705.25 463.25,-705.25 469.25,-711.25 469.25,-717.25 469.25,-717.25 469.25,-729.25 469.25,-729.25 469.25,-735.25 463.25,-741.25 457.25,-741.25"/>
<text xml:space="preserve" text-anchor="middle" x="378" y="-726.5" font-family="Helvetica,sans-Serif" font-size="10.00" fill="#ece1d7">⑦ Shadow::start in recovery mode</text>
<text xml:space="preserve" text-anchor="middle" x="378" y="-713.75" font-family="Helvetica,sans-Serif" font-size="10.00" fill="#ece1d7">(if not already running)</text>
</g>
<!-- a5&#45;&gt;a6 -->
<g id="edge6" class="edge">
<title>a5&#45;&gt;a6</title>
<path fill="none" stroke="#c1a78e" d="M378,-772.89C378,-765.67 378,-757.96 378,-750.86"/>
<polygon fill="#c1a78e" stroke="#c1a78e" points="380.8,-751.16 378,-743.16 375.2,-751.16 380.8,-751.16"/>
</g>
<!-- a7 -->
<g id="node8" class="node">
<title>a7</title>
<path fill="#4d3340" stroke="#6e6963" d="M448.4,-668.12C448.4,-668.12 299.6,-668.12 299.6,-668.12 293.6,-668.12 287.6,-662.12 287.6,-656.12 287.6,-656.12 287.6,-644.12 287.6,-644.12 287.6,-638.12 293.6,-632.12 299.6,-632.12 299.6,-632.12 448.4,-632.12 448.4,-632.12 454.4,-632.12 460.4,-638.12 460.4,-644.12 460.4,-644.12 460.4,-656.12 460.4,-656.12 460.4,-662.12 454.4,-668.12 448.4,-668.12"/>
<text xml:space="preserve" text-anchor="middle" x="374" y="-653.38" font-family="Helvetica,sans-Serif" font-size="10.00" fill="#ece1d7">⑧ walsender listener up</text>
<text xml:space="preserve" text-anchor="middle" x="374" y="-640.62" font-family="Helvetica,sans-Serif" font-size="10.00" fill="#ece1d7">before walreceiver connects</text>
</g>
<!-- a6&#45;&gt;a7 -->
<g id="edge7" class="edge">
<title>a6&#45;&gt;a7</title>
<path fill="none" stroke="#c1a78e" d="M377.03,-705.03C376.57,-696.82 376.01,-686.81 375.49,-677.66"/>
<polygon fill="#c1a78e" stroke="#c1a78e" points="378.29,-677.53 375.04,-669.69 372.7,-677.84 378.29,-677.53"/>
</g>
<!-- a8 -->
<g id="node9" class="node">
<title>a8</title>
<path fill="#4d3a28" stroke="#6e6963" d="M481.5,-589.88C481.5,-589.88 264.5,-589.88 264.5,-589.88 258.5,-589.88 252.5,-583.88 252.5,-577.88 252.5,-577.88 252.5,-565.88 252.5,-565.88 252.5,-559.88 258.5,-553.88 264.5,-553.88 264.5,-553.88 481.5,-553.88 481.5,-553.88 487.5,-553.88 493.5,-559.88 493.5,-565.88 493.5,-565.88 493.5,-577.88 493.5,-577.88 493.5,-583.88 487.5,-589.88 481.5,-589.88"/>
<text xml:space="preserve" text-anchor="middle" x="373" y="-575.12" font-family="Helvetica,sans-Serif" font-size="10.00" fill="#ece1d7">⑨ SourceFeed open</text>
<text xml:space="preserve" text-anchor="middle" x="373" y="-562.38" font-family="Helvetica,sans-Serif" font-size="10.00" fill="#ece1d7">START_REPLICATION PHYSICAL &lt;resume_lsn&gt;</text>
</g>
<!-- a7&#45;&gt;a8 -->
<g id="edge8" class="edge">
<title>a7&#45;&gt;a8</title>
<path fill="none" stroke="#c1a78e" d="M373.77,-631.82C373.65,-622.34 373.49,-610.37 373.35,-599.7"/>
<polygon fill="#c1a78e" stroke="#c1a78e" points="376.15,-599.85 373.25,-591.89 370.55,-599.92 376.15,-599.85"/>
</g>
<!-- a9 -->
<g id="node10" class="node">
<title>a9</title>
<path fill="#4d4128" stroke="#6e6963" d="M470.75,-516.75C470.75,-516.75 297.25,-516.75 297.25,-516.75 291.25,-516.75 285.25,-510.75 285.25,-504.75 285.25,-504.75 285.25,-492.75 285.25,-492.75 285.25,-486.75 291.25,-480.75 297.25,-480.75 297.25,-480.75 470.75,-480.75 470.75,-480.75 476.75,-480.75 482.75,-486.75 482.75,-492.75 482.75,-492.75 482.75,-504.75 482.75,-504.75 482.75,-510.75 476.75,-516.75 470.75,-516.75"/>
<text xml:space="preserve" text-anchor="middle" x="384" y="-502" font-family="Helvetica,sans-Serif" font-size="10.00" fill="#ece1d7">⑩ records re&#45;flow</text>
<text xml:space="preserve" text-anchor="middle" x="384" y="-489.25" font-family="Helvetica,sans-Serif" font-size="10.00" fill="#ece1d7">CH ReplacingMergeTree(_lsn) dedups</text>
</g>
<!-- a8&#45;&gt;a9 -->
<g id="edge9" class="edge">
<title>a8&#45;&gt;a9</title>
<path fill="none" stroke="#c1a78e" d="M375.66,-553.66C376.95,-545.36 378.51,-535.22 379.94,-525.99"/>
<polygon fill="#c1a78e" stroke="#c1a78e" points="382.67,-526.64 381.13,-518.3 377.14,-525.78 382.67,-526.64"/>
</g>
<!-- cursor_table -->
<g id="node28" class="node">
<title>cursor_table</title>
<path fill="#6e6963" stroke="none" d="M961.62,-448.75C961.62,-448.75 460.38,-448.75 460.38,-448.75 454.38,-448.75 448.38,-442.75 448.38,-436.75 448.38,-436.75 448.38,-279.5 448.38,-279.5 448.38,-273.5 454.38,-267.5 460.38,-267.5 460.38,-267.5 961.62,-267.5 961.62,-267.5 967.62,-267.5 973.62,-273.5 973.62,-279.5 973.62,-279.5 973.62,-436.75 973.62,-436.75 973.62,-442.75 967.62,-448.75 961.62,-448.75"/>
<polygon fill="#4d3850" stroke="none" points="456.38,-420 456.38,-444.75 965.62,-444.75 965.62,-420 456.38,-420"/>
<polygon fill="none" stroke="#6e6963" points="456.38,-420 456.38,-444.75 965.62,-444.75 965.62,-420 456.38,-420"/>
<text xml:space="preserve" text-anchor="start" x="640.5" y="-430.25" font-family="Helvetica,sans-Serif" font-weight="bold" font-size="10.00" fill="#ece1d7">cursor.bin — 5 LSN fields</text>
<polygon fill="none" stroke="#6e6963" points="456.38,-395.25 456.38,-420 567.38,-420 567.38,-395.25 456.38,-395.25"/>
<text xml:space="preserve" text-anchor="start" x="499.12" y="-405.5" font-family="Helvetica,sans-Serif" font-weight="bold" font-size="10.00" fill="#ece1d7">field</text>
<polygon fill="none" stroke="#6e6963" points="567.38,-395.25 567.38,-420 724.12,-420 724.12,-395.25 567.38,-395.25"/>
<text xml:space="preserve" text-anchor="start" x="628.5" y="-405.5" font-family="Helvetica,sans-Serif" font-weight="bold" font-size="10.00" fill="#ece1d7">writer</text>
<polygon fill="none" stroke="#6e6963" points="724.12,-395.25 724.12,-420 841.12,-420 841.12,-395.25 724.12,-395.25"/>
<text xml:space="preserve" text-anchor="start" x="741.38" y="-405.5" font-family="Helvetica,sans-Serif" font-weight="bold" font-size="10.00" fill="#ece1d7">role on restart</text>
<polygon fill="none" stroke="#6e6963" points="841.12,-395.25 841.12,-420 965.62,-420 965.62,-395.25 841.12,-395.25"/>
<text xml:space="preserve" text-anchor="start" x="847.12" y="-405.5" font-family="Helvetica,sans-Serif" font-weight="bold" font-size="10.00" fill="#ece1d7">role in slot advance</text>
<polygon fill="none" stroke="#6e6963" points="456.38,-370.5 456.38,-395.25 567.38,-395.25 567.38,-370.5 456.38,-370.5"/>
<text xml:space="preserve" text-anchor="start" x="462.38" y="-379.5" font-family="Helvetica,sans-Serif" font-size="10.00" fill="#ece1d7">source_received_lsn</text>
<polygon fill="none" stroke="#6e6963" points="567.38,-370.5 567.38,-395.25 724.12,-395.25 724.12,-370.5 567.38,-370.5"/>
<text xml:space="preserve" text-anchor="start" x="600.75" y="-379.5" font-family="Helvetica,sans-Serif" font-size="10.00" fill="#ece1d7">SourceFeed::pump</text>
<polygon fill="none" stroke="#6e6963" points="724.12,-370.5 724.12,-395.25 841.12,-395.25 841.12,-370.5 724.12,-370.5"/>
<text xml:space="preserve" text-anchor="start" x="749.25" y="-379.5" font-family="Helvetica,sans-Serif" font-size="10.00" fill="#ece1d7">observational</text>
<polygon fill="none" stroke="#6e6963" points="841.12,-370.5 841.12,-395.25 965.62,-395.25 965.62,-370.5 841.12,-370.5"/>
<text xml:space="preserve" text-anchor="start" x="880.12" y="-379.5" font-family="Helvetica,sans-Serif" font-size="10.00" fill="#ece1d7">write LSN</text>
<polygon fill="none" stroke="#6e6963" points="456.38,-345.75 456.38,-370.5 567.38,-370.5 567.38,-345.75 456.38,-345.75"/>
<text xml:space="preserve" text-anchor="start" x="469.88" y="-354.75" font-family="Helvetica,sans-Serif" font-size="10.00" fill="#ece1d7">filter_durable_lsn</text>
<polygon fill="none" stroke="#6e6963" points="567.38,-345.75 567.38,-370.5 724.12,-370.5 724.12,-345.75 567.38,-345.75"/>
<text xml:space="preserve" text-anchor="start" x="573.38" y="-354.75" font-family="Helvetica,sans-Serif" font-size="10.00" fill="#ece1d7">DirSegmentSink::on_segment</text>
<polygon fill="none" stroke="#6e6963" points="724.12,-345.75 724.12,-370.5 841.12,-370.5 841.12,-345.75 724.12,-345.75"/>
<text xml:space="preserve" text-anchor="start" x="740.62" y="-354.75" font-family="Helvetica,sans-Serif" font-size="10.00" fill="#ece1d7">archive coverage</text>
<polygon fill="none" stroke="#6e6963" points="841.12,-345.75 841.12,-370.5 965.62,-370.5 965.62,-345.75 841.12,-345.75"/>
<text xml:space="preserve" text-anchor="start" x="880.88" y="-354.75" font-family="Helvetica,sans-Serif" font-size="10.00" fill="#ece1d7">flush LSN</text>
<polygon fill="none" stroke="#6e6963" points="456.38,-321 456.38,-345.75 567.38,-345.75 567.38,-321 456.38,-321"/>
<text xml:space="preserve" text-anchor="start" x="465.38" y="-330" font-family="Helvetica,sans-Serif" font-size="10.00" fill="#ece1d7">shadow_replay_lsn</text>
<polygon fill="none" stroke="#6e6963" points="567.38,-321 567.38,-345.75 724.12,-345.75 724.12,-321 567.38,-321"/>
<text xml:space="preserve" text-anchor="start" x="600.38" y="-330" font-family="Helvetica,sans-Serif" font-size="10.00" fill="#ece1d7">retention_sweeper</text>
<polygon fill="none" stroke="#6e6963" points="724.12,-321 724.12,-345.75 841.12,-345.75 841.12,-321 724.12,-321"/>
<text xml:space="preserve" text-anchor="start" x="730.5" y="-330" font-family="Helvetica,sans-Serif" font-size="10.00" fill="#ece1d7">bounds segment trim</text>
<polygon fill="none" stroke="#6e6963" points="841.12,-321 841.12,-345.75 965.62,-345.75 965.62,-321 841.12,-321"/>
<text xml:space="preserve" text-anchor="start" x="866.25" y="-330" font-family="Helvetica,sans-Serif" font-size="10.00" fill="#ece1d7">caps apply LSN</text>
<polygon fill="none" stroke="#6e6963" points="456.38,-296.25 456.38,-321 567.38,-321 567.38,-296.25 456.38,-296.25"/>
<text xml:space="preserve" text-anchor="start" x="489.75" y="-305.25" font-family="Helvetica,sans-Serif" font-size="10.00" fill="#ece1d7">drain_lsn</text>
<polygon fill="none" stroke="#6e6963" points="567.38,-296.25 567.38,-321 724.12,-321 724.12,-296.25 567.38,-296.25"/>
<text xml:space="preserve" text-anchor="start" x="598.5" y="-305.25" font-family="Helvetica,sans-Serif" font-size="10.00" fill="#ece1d7">XactBuffer::commit</text>
<polygon fill="none" stroke="#6e6963" points="724.12,-296.25 724.12,-321 841.12,-321 841.12,-296.25 724.12,-296.25"/>
<text xml:space="preserve" text-anchor="start" x="749.25" y="-305.25" font-family="Helvetica,sans-Serif" font-size="10.00" fill="#ece1d7">observational</text>
<polygon fill="none" stroke="#6e6963" points="841.12,-296.25 841.12,-321 965.62,-321 965.62,-296.25 841.12,-296.25"/>
<text xml:space="preserve" text-anchor="start" x="898.5" y="-305.25" font-family="Helvetica,sans-Serif" font-size="10.00" fill="#ece1d7">—</text>
<polygon fill="none" stroke="#6e6963" points="456.38,-271.5 456.38,-296.25 567.38,-296.25 567.38,-271.5 456.38,-271.5"/>
<text xml:space="preserve" text-anchor="start" x="467.62" y="-281.75" font-family="Helvetica,sans-Serif" font-weight="bold" font-size="10.00" fill="#ece1d7">emitter_ack_lsn</text>
<polygon fill="none" stroke="#6e6963" points="567.38,-271.5 567.38,-296.25 724.12,-296.25 724.12,-271.5 567.38,-271.5"/>
<text xml:space="preserve" text-anchor="start" x="574.12" y="-280.5" font-family="Helvetica,sans-Serif" font-size="10.00" fill="#ece1d7">XactBuffer::commit (post&#45;Ok)</text>
<polygon fill="none" stroke="#6e6963" points="724.12,-271.5 724.12,-296.25 841.12,-296.25 841.12,-271.5 724.12,-271.5"/>
<text xml:space="preserve" text-anchor="start" x="730.12" y="-281.75" font-family="Helvetica,sans-Serif" font-weight="bold" font-size="10.00" fill="#ece1d7">resume_lsn source</text>
<polygon fill="none" stroke="#6e6963" points="841.12,-271.5 841.12,-296.25 965.62,-296.25 965.62,-271.5 841.12,-271.5"/>
<text xml:space="preserve" text-anchor="start" x="859.5" y="-281.75" font-family="Helvetica,sans-Serif" font-weight="bold" font-size="10.00" fill="#ece1d7">caps apply LSN</text>
</g>
<!-- a9&#45;&gt;cursor_table -->
<!-- b1 -->
<g id="node12" class="node">
<title>b1</title>
<path fill="#4d3a28" stroke="#6e6963" d="M791.75,-1079.75C791.75,-1079.75 630.25,-1079.75 630.25,-1079.75 624.25,-1079.75 618.25,-1073.75 618.25,-1067.75 618.25,-1067.75 618.25,-1032.75 618.25,-1032.75 618.25,-1026.75 624.25,-1020.75 630.25,-1020.75 630.25,-1020.75 791.75,-1020.75 791.75,-1020.75 797.75,-1020.75 803.75,-1026.75 803.75,-1032.75 803.75,-1032.75 803.75,-1067.75 803.75,-1067.75 803.75,-1073.75 797.75,-1079.75 791.75,-1079.75"/>
<text xml:space="preserve" text-anchor="middle" x="711" y="-1066.25" font-family="Helvetica,sans-Serif" font-size="10.00" fill="#ece1d7">② OS reaps process</text>
<text xml:space="preserve" text-anchor="middle" x="711" y="-1053.5" font-family="Helvetica,sans-Serif" font-size="10.00" fill="#ece1d7">buffers lost; cursor.bin = last fsync</text>
<text xml:space="preserve" text-anchor="middle" x="711" y="-1040.75" font-family="Helvetica,sans-Serif" font-size="10.00" fill="#ece1d7">spill files on disk</text>
<text xml:space="preserve" text-anchor="middle" x="711" y="-1028" font-family="Helvetica,sans-Serif" font-size="10.00" fill="#ece1d7">partial segment write rolled back</text>
</g>
<!-- b0&#45;&gt;b1 -->
<g id="edge10" class="edge">
<title>b0&#45;&gt;b1</title>
<path fill="none" stroke="#c1a78e" d="M711,-1111.55C711,-1104.96 711,-1097.14 711,-1089.36"/>
<polygon fill="#c1a78e" stroke="#c1a78e" points="713.8,-1089.48 711,-1081.48 708.2,-1089.48 713.8,-1089.48"/>
</g>
<!-- c0 -->
<g id="node20" class="node">
<title>c0</title>
<path fill="#403a36" stroke="#6e6963" d="M1088.4,-1068.25C1088.4,-1068.25 939.6,-1068.25 939.6,-1068.25 933.6,-1068.25 927.6,-1062.25 927.6,-1056.25 927.6,-1056.25 927.6,-1044.25 927.6,-1044.25 927.6,-1038.25 933.6,-1032.25 939.6,-1032.25 939.6,-1032.25 1088.4,-1032.25 1088.4,-1032.25 1094.4,-1032.25 1100.4,-1038.25 1100.4,-1044.25 1100.4,-1044.25 1100.4,-1056.25 1100.4,-1056.25 1100.4,-1062.25 1094.4,-1068.25 1088.4,-1068.25"/>
<text xml:space="preserve" text-anchor="middle" x="1014" y="-1047.12" font-family="Helvetica,sans-Serif" font-size="10.00" fill="#ece1d7">① extended downtime</text>
</g>
<!-- b0&#45;&gt;c0 -->
<!-- b2 -->
<g id="node13" class="node">
<title>b2</title>
<path fill="#4d3a28" stroke="#6e6963" d="M785.4,-988.75C785.4,-988.75 636.6,-988.75 636.6,-988.75 630.6,-988.75 624.6,-982.75 624.6,-976.75 624.6,-976.75 624.6,-954.5 624.6,-954.5 624.6,-948.5 630.6,-942.5 636.6,-942.5 636.6,-942.5 785.4,-942.5 785.4,-942.5 791.4,-942.5 797.4,-948.5 797.4,-954.5 797.4,-954.5 797.4,-976.75 797.4,-976.75 797.4,-982.75 791.4,-988.75 785.4,-988.75"/>
<text xml:space="preserve" text-anchor="middle" x="711" y="-975.25" font-family="Helvetica,sans-Serif" font-size="10.00" fill="#ece1d7">③ restart:</text>
<text xml:space="preserve" text-anchor="middle" x="711" y="-962.5" font-family="Helvetica,sans-Serif" font-size="10.00" fill="#ece1d7">spill::clear() wipes xid&#45;*.bin</text>
<text xml:space="preserve" text-anchor="middle" x="711" y="-949.75" font-family="Helvetica,sans-Serif" font-size="10.00" fill="#ece1d7">(PHASE6disk policy)</text>
</g>
<!-- b1&#45;&gt;b2 -->
<g id="edge11" class="edge">
<title>b1&#45;&gt;b2</title>
<path fill="none" stroke="#c1a78e" d="M711,-1020.35C711,-1013.31 711,-1005.74 711,-998.57"/>
<polygon fill="#c1a78e" stroke="#c1a78e" points="713.8,-998.64 711,-990.64 708.2,-998.64 713.8,-998.64"/>
</g>
<!-- b3 -->
<g id="node14" class="node">
<title>b3</title>
<path fill="#4d3a28" stroke="#6e6963" d="M785.4,-910.5C785.4,-910.5 636.6,-910.5 636.6,-910.5 630.6,-910.5 624.6,-904.5 624.6,-898.5 624.6,-898.5 624.6,-876.25 624.6,-876.25 624.6,-870.25 630.6,-864.25 636.6,-864.25 636.6,-864.25 785.4,-864.25 785.4,-864.25 791.4,-864.25 797.4,-870.25 797.4,-876.25 797.4,-876.25 797.4,-898.5 797.4,-898.5 797.4,-904.5 791.4,-910.5 785.4,-910.5"/>
<text xml:space="preserve" text-anchor="middle" x="711" y="-897" font-family="Helvetica,sans-Serif" font-size="10.00" fill="#ece1d7">④ cursor::read</text>
<text xml:space="preserve" text-anchor="middle" x="711" y="-884.25" font-family="Helvetica,sans-Serif" font-size="10.00" fill="#ece1d7">resume_lsn = emitter_ack_lsn</text>
<text xml:space="preserve" text-anchor="middle" x="711" y="-871.5" font-family="Helvetica,sans-Serif" font-size="10.00" fill="#ece1d7">(slot&#45;safe)</text>
</g>
<!-- b2&#45;&gt;b3 -->
<g id="edge12" class="edge">
<title>b2&#45;&gt;b3</title>
<path fill="none" stroke="#c1a78e" d="M711,-942.16C711,-935.24 711,-927.49 711,-920.07"/>
<polygon fill="#c1a78e" stroke="#c1a78e" points="713.8,-920.46 711,-912.46 708.2,-920.46 713.8,-920.46"/>
</g>
<!-- b4 -->
<g id="node15" class="node">
<title>b4</title>
<path fill="#3d4128" stroke="#6e6963" d="M789.12,-820.75C789.12,-820.75 632.88,-820.75 632.88,-820.75 626.88,-820.75 620.88,-814.75 620.88,-808.75 620.88,-808.75 620.88,-796.75 620.88,-796.75 620.88,-790.75 626.88,-784.75 632.88,-784.75 632.88,-784.75 789.12,-784.75 789.12,-784.75 795.12,-784.75 801.12,-790.75 801.12,-796.75 801.12,-796.75 801.12,-808.75 801.12,-808.75 801.12,-814.75 795.12,-820.75 789.12,-820.75"/>
<text xml:space="preserve" text-anchor="middle" x="711" y="-806" font-family="Helvetica,sans-Serif" font-size="10.00" fill="#ece1d7">⑤ shadow PG recovers on its own</text>
<text xml:space="preserve" text-anchor="middle" x="711" y="-793.25" font-family="Helvetica,sans-Serif" font-size="10.00" fill="#ece1d7">walreceiver retry timer</text>
</g>
<!-- b3&#45;&gt;b4 -->
<g id="edge13" class="edge">
<title>b3&#45;&gt;b4</title>
<path fill="none" stroke="#c1a78e" d="M711,-863.8C711,-853.48 711,-841.19 711,-830.42"/>
<polygon fill="#c1a78e" stroke="#c1a78e" points="713.8,-830.57 711,-822.57 708.2,-830.57 713.8,-830.57"/>
</g>
<!-- b5 -->
<g id="node16" class="node">
<title>b5</title>
<path fill="#3d4128" stroke="#6e6963" d="M795.5,-741.25C795.5,-741.25 626.5,-741.25 626.5,-741.25 620.5,-741.25 614.5,-735.25 614.5,-729.25 614.5,-729.25 614.5,-717.25 614.5,-717.25 614.5,-711.25 620.5,-705.25 626.5,-705.25 626.5,-705.25 795.5,-705.25 795.5,-705.25 801.5,-705.25 807.5,-711.25 807.5,-717.25 807.5,-717.25 807.5,-729.25 807.5,-729.25 807.5,-735.25 801.5,-741.25 795.5,-741.25"/>
<text xml:space="preserve" text-anchor="middle" x="711" y="-726.5" font-family="Helvetica,sans-Serif" font-size="10.00" fill="#ece1d7">⑥ shadow asks START_REPLICATION</text>
<text xml:space="preserve" text-anchor="middle" x="711" y="-713.75" font-family="Helvetica,sans-Serif" font-size="10.00" fill="#ece1d7">PHYSICAL &lt;its flush_lsn&gt;</text>
</g>
<!-- b4&#45;&gt;b5 -->
<g id="edge14" class="edge">
<title>b4&#45;&gt;b5</title>
<path fill="none" stroke="#c1a78e" d="M711,-784.55C711,-774.69 711,-762.09 711,-750.96"/>
<polygon fill="#c1a78e" stroke="#c1a78e" points="713.8,-751.18 711,-743.18 708.2,-751.18 713.8,-751.18"/>
</g>
<!-- b6 -->
<g id="node17" class="node">
<title>b6</title>
<path fill="#4d3a28" stroke="#6e6963" d="M796.25,-673.25C796.25,-673.25 625.75,-673.25 625.75,-673.25 619.75,-673.25 613.75,-667.25 613.75,-661.25 613.75,-661.25 613.75,-639 613.75,-639 613.75,-633 619.75,-627 625.75,-627 625.75,-627 796.25,-627 796.25,-627 802.25,-627 808.25,-633 808.25,-639 808.25,-639 808.25,-661.25 808.25,-661.25 808.25,-667.25 802.25,-673.25 796.25,-673.25"/>
<text xml:space="preserve" text-anchor="middle" x="711" y="-659.75" font-family="Helvetica,sans-Serif" font-size="10.00" fill="#ece1d7">⑦ walshadow honours both:</text>
<text xml:space="preserve" text-anchor="middle" x="711" y="-647" font-family="Helvetica,sans-Serif" font-size="10.00" fill="#ece1d7">• upstream feed at resume_lsn</text>
<text xml:space="preserve" text-anchor="middle" x="711" y="-634.25" font-family="Helvetica,sans-Serif" font-size="10.00" fill="#ece1d7">• shadow feed at shadow&#39;s flush_lsn</text>
</g>
<!-- b5&#45;&gt;b6 -->
<g id="edge15" class="edge">
<title>b5&#45;&gt;b6</title>
<path fill="none" stroke="#c1a78e" d="M711,-705.03C711,-698.38 711,-690.56 711,-682.96"/>
<polygon fill="#c1a78e" stroke="#c1a78e" points="713.8,-683.08 711,-675.08 708.2,-683.08 713.8,-683.08"/>
</g>
<!-- b7 -->
<g id="node18" class="node">
<title>b7</title>
<path fill="#4d4128" stroke="#6e6963" d="M785.4,-595C785.4,-595 636.6,-595 636.6,-595 630.6,-595 624.6,-589 624.6,-583 624.6,-583 624.6,-560.75 624.6,-560.75 624.6,-554.75 630.6,-548.75 636.6,-548.75 636.6,-548.75 785.4,-548.75 785.4,-548.75 791.4,-548.75 797.4,-554.75 797.4,-560.75 797.4,-560.75 797.4,-583 797.4,-583 797.4,-589 791.4,-595 785.4,-595"/>
<text xml:space="preserve" text-anchor="middle" x="711" y="-581.5" font-family="Helvetica,sans-Serif" font-size="10.00" fill="#ece1d7">⑧ overlap records replayed</text>
<text xml:space="preserve" text-anchor="middle" x="711" y="-568.75" font-family="Helvetica,sans-Serif" font-size="10.00" fill="#ece1d7">CH dedups on _lsn</text>
<text xml:space="preserve" text-anchor="middle" x="711" y="-556" font-family="Helvetica,sans-Serif" font-size="10.00" fill="#ece1d7">shadow apply monotonic</text>
</g>
<!-- b6&#45;&gt;b7 -->
<g id="edge16" class="edge">
<title>b6&#45;&gt;b7</title>
<path fill="none" stroke="#c1a78e" d="M711,-626.66C711,-619.74 711,-611.99 711,-604.57"/>
<polygon fill="#c1a78e" stroke="#c1a78e" points="713.8,-604.96 711,-596.96 708.2,-604.96 713.8,-604.96"/>
</g>
<!-- b8 -->
<g id="node19" class="node">
<title>b8</title>
<path fill="#4d3a28" stroke="#6e6963" d="M785.4,-516.75C785.4,-516.75 636.6,-516.75 636.6,-516.75 630.6,-516.75 624.6,-510.75 624.6,-504.75 624.6,-504.75 624.6,-492.75 624.6,-492.75 624.6,-486.75 630.6,-480.75 636.6,-480.75 636.6,-480.75 785.4,-480.75 785.4,-480.75 791.4,-480.75 797.4,-486.75 797.4,-492.75 797.4,-492.75 797.4,-504.75 797.4,-504.75 797.4,-510.75 791.4,-516.75 785.4,-516.75"/>
<text xml:space="preserve" text-anchor="middle" x="711" y="-495.62" font-family="Helvetica,sans-Serif" font-size="10.00" fill="#ece1d7">⑨ steady&#45;state reached</text>
</g>
<!-- b7&#45;&gt;b8 -->
<g id="edge17" class="edge">
<title>b7&#45;&gt;b8</title>
<path fill="none" stroke="#c1a78e" d="M711,-548.37C711,-541.43 711,-533.72 711,-526.53"/>
<polygon fill="#c1a78e" stroke="#c1a78e" points="713.8,-526.66 711,-518.66 708.2,-526.66 713.8,-526.66"/>
</g>
<!-- b8&#45;&gt;cursor_table -->
<!-- c1 -->
<g id="node21" class="node">
<title>c1</title>
<path fill="#4d3a28" stroke="#6e6963" d="M1133.88,-988.75C1133.88,-988.75 940.12,-988.75 940.12,-988.75 934.12,-988.75 928.12,-982.75 928.12,-976.75 928.12,-976.75 928.12,-954.5 928.12,-954.5 928.12,-948.5 934.12,-942.5 940.12,-942.5 940.12,-942.5 1133.88,-942.5 1133.88,-942.5 1139.88,-942.5 1145.88,-948.5 1145.88,-954.5 1145.88,-954.5 1145.88,-976.75 1145.88,-976.75 1145.88,-982.75 1139.88,-988.75 1133.88,-988.75"/>
<text xml:space="preserve" text-anchor="middle" x="1037" y="-975.25" font-family="Helvetica,sans-Serif" font-size="10.00" fill="#ece1d7">② restart:</text>
<text xml:space="preserve" text-anchor="middle" x="1037" y="-962.5" font-family="Helvetica,sans-Serif" font-size="10.00" fill="#ece1d7">SourceFeed::START_REPLICATION →</text>
<text xml:space="preserve" text-anchor="middle" x="1037" y="-949.75" font-family="Helvetica,sans-Serif" font-size="10.00" fill="#ece1d7">ERROR requested WAL segment removed</text>
</g>
<!-- c0&#45;&gt;c1 -->
<g id="edge18" class="edge">
<title>c0&#45;&gt;c1</title>
<path fill="none" stroke="#c1a78e" d="M1018.77,-1032.13C1021.51,-1022.28 1025.04,-1009.61 1028.26,-998.03"/>
<polygon fill="#c1a78e" stroke="#c1a78e" points="1030.9,-998.98 1030.35,-990.52 1025.51,-997.47 1030.9,-998.98"/>
</g>
<!-- c2 -->
<g id="node22" class="node">
<title>c2</title>
<path fill="#4d3a28" stroke="#6e6963" d="M1110.4,-910.5C1110.4,-910.5 961.6,-910.5 961.6,-910.5 955.6,-910.5 949.6,-904.5 949.6,-898.5 949.6,-898.5 949.6,-876.25 949.6,-876.25 949.6,-870.25 955.6,-864.25 961.6,-864.25 961.6,-864.25 1110.4,-864.25 1110.4,-864.25 1116.4,-864.25 1122.4,-870.25 1122.4,-876.25 1122.4,-876.25 1122.4,-898.5 1122.4,-898.5 1122.4,-904.5 1116.4,-910.5 1110.4,-910.5"/>
<text xml:space="preserve" text-anchor="middle" x="1036" y="-897" font-family="Helvetica,sans-Serif" font-size="10.00" fill="#ece1d7">③ daemon poisons</text>
<text xml:space="preserve" text-anchor="middle" x="1036" y="-884.25" font-family="Helvetica,sans-Serif" font-size="10.00" fill="#ece1d7">log ReplayTimeout / WAL gap</text>
<text xml:space="preserve" text-anchor="middle" x="1036" y="-871.5" font-family="Helvetica,sans-Serif" font-size="10.00" fill="#ece1d7">exit non&#45;zero</text>
</g>
<!-- c1&#45;&gt;c2 -->
<g id="edge19" class="edge">
<title>c1&#45;&gt;c2</title>
<path fill="none" stroke="#c1a78e" d="M1036.71,-942.16C1036.61,-935.24 1036.51,-927.49 1036.42,-920.07"/>
<polygon fill="#c1a78e" stroke="#c1a78e" points="1039.22,-920.42 1036.32,-912.46 1033.62,-920.49 1039.22,-920.42"/>
</g>
<!-- c3 -->
<g id="node23" class="node">
<title>c3</title>
<path fill="#403a36" stroke="#6e6963" d="M1110.4,-825.88C1110.4,-825.88 961.6,-825.88 961.6,-825.88 955.6,-825.88 949.6,-819.88 949.6,-813.88 949.6,-813.88 949.6,-791.62 949.6,-791.62 949.6,-785.62 955.6,-779.62 961.6,-779.62 961.6,-779.62 1110.4,-779.62 1110.4,-779.62 1116.4,-779.62 1122.4,-785.62 1122.4,-791.62 1122.4,-791.62 1122.4,-813.88 1122.4,-813.88 1122.4,-819.88 1116.4,-825.88 1110.4,-825.88"/>
<text xml:space="preserve" text-anchor="middle" x="1036" y="-812.38" font-family="Helvetica,sans-Serif" font-size="10.00" fill="#ece1d7">④ operator re&#45;invokes</text>
<text xml:space="preserve" text-anchor="middle" x="1036" y="-799.62" font-family="Helvetica,sans-Serif" font-size="10.00" fill="#ece1d7">&#45;&#45;bootstrap&#45;mode=direct</text>
<text xml:space="preserve" text-anchor="middle" x="1036" y="-786.88" font-family="Helvetica,sans-Serif" font-size="10.00" fill="#ece1d7">(or object_store)</text>
</g>
<!-- c2&#45;&gt;c3 -->
<g id="edge20" class="edge">
<title>c2&#45;&gt;c3</title>
<path fill="none" stroke="#c1a78e" d="M1036,-863.8C1036,-855.14 1036,-845.1 1036,-835.73"/>
<polygon fill="#c1a78e" stroke="#c1a78e" points="1038.8,-835.81 1036,-827.81 1033.2,-835.81 1038.8,-835.81"/>
</g>
<!-- c4 -->
<g id="node24" class="node">
<title>c4</title>
<path fill="#4d3a28" stroke="#6e6963" d="M1109.4,-741.25C1109.4,-741.25 960.6,-741.25 960.6,-741.25 954.6,-741.25 948.6,-735.25 948.6,-729.25 948.6,-729.25 948.6,-717.25 948.6,-717.25 948.6,-711.25 954.6,-705.25 960.6,-705.25 960.6,-705.25 1109.4,-705.25 1109.4,-705.25 1115.4,-705.25 1121.4,-711.25 1121.4,-717.25 1121.4,-717.25 1121.4,-729.25 1121.4,-729.25 1121.4,-735.25 1115.4,-741.25 1109.4,-741.25"/>
<text xml:space="preserve" text-anchor="middle" x="1035" y="-726.5" font-family="Helvetica,sans-Serif" font-size="10.00" fill="#ece1d7">⑤ greenfield bootstrap path</text>
<text xml:space="preserve" text-anchor="middle" x="1035" y="-713.75" font-family="Helvetica,sans-Serif" font-size="10.00" fill="#ece1d7">(→ timeline_bootstrap)</text>
</g>
<!-- c3&#45;&gt;c4 -->
<g id="edge21" class="edge">
<title>c3&#45;&gt;c4</title>
<path fill="none" stroke="#c1a78e" d="M1035.71,-779.33C1035.6,-770.54 1035.47,-760.36 1035.35,-751.17"/>
<polygon fill="#c1a78e" stroke="#c1a78e" points="1038.15,-751.17 1035.24,-743.21 1032.55,-751.24 1038.15,-751.17"/>
</g>
<!-- c5 -->
<g id="node25" class="node">
<title>c5</title>
<path fill="#3d4128" stroke="#6e6963" d="M1108.4,-668.12C1108.4,-668.12 959.6,-668.12 959.6,-668.12 953.6,-668.12 947.6,-662.12 947.6,-656.12 947.6,-656.12 947.6,-644.12 947.6,-644.12 947.6,-638.12 953.6,-632.12 959.6,-632.12 959.6,-632.12 1108.4,-632.12 1108.4,-632.12 1114.4,-632.12 1120.4,-638.12 1120.4,-644.12 1120.4,-644.12 1120.4,-656.12 1120.4,-656.12 1120.4,-662.12 1114.4,-668.12 1108.4,-668.12"/>
<text xml:space="preserve" text-anchor="middle" x="1034" y="-653.38" font-family="Helvetica,sans-Serif" font-size="10.00" fill="#ece1d7">⑥ shadow data dir wiped</text>
<text xml:space="preserve" text-anchor="middle" x="1034" y="-640.62" font-family="Helvetica,sans-Serif" font-size="10.00" fill="#ece1d7">or diverted to fresh dir</text>
</g>
<!-- c4&#45;&gt;c5 -->
<g id="edge22" class="edge">
<title>c4&#45;&gt;c5</title>
<path fill="none" stroke="#c1a78e" d="M1034.76,-705.03C1034.64,-696.82 1034.5,-686.81 1034.37,-677.66"/>
<polygon fill="#c1a78e" stroke="#c1a78e" points="1037.17,-677.66 1034.26,-669.7 1031.57,-677.74 1037.17,-677.66"/>
</g>
<!-- c6 -->
<g id="node26" class="node">
<title>c6</title>
<path fill="#4d3a28" stroke="#6e6963" d="M1105.4,-589.88C1105.4,-589.88 956.6,-589.88 956.6,-589.88 950.6,-589.88 944.6,-583.88 944.6,-577.88 944.6,-577.88 944.6,-565.88 944.6,-565.88 944.6,-559.88 950.6,-553.88 956.6,-553.88 956.6,-553.88 1105.4,-553.88 1105.4,-553.88 1111.4,-553.88 1117.4,-559.88 1117.4,-565.88 1117.4,-565.88 1117.4,-577.88 1117.4,-577.88 1117.4,-583.88 1111.4,-589.88 1105.4,-589.88"/>
<text xml:space="preserve" text-anchor="middle" x="1031" y="-575.12" font-family="Helvetica,sans-Serif" font-size="10.00" fill="#ece1d7">⑦ new cursor.bin written</text>
<text xml:space="preserve" text-anchor="middle" x="1031" y="-562.38" font-family="Helvetica,sans-Serif" font-size="10.00" fill="#ece1d7">at end_lsn</text>
</g>
<!-- c5&#45;&gt;c6 -->
<g id="edge23" class="edge">
<title>c5&#45;&gt;c6</title>
<path fill="none" stroke="#c1a78e" d="M1033.32,-631.82C1032.95,-622.34 1032.48,-610.37 1032.06,-599.7"/>
<polygon fill="#c1a78e" stroke="#c1a78e" points="1034.86,-599.77 1031.75,-591.89 1029.26,-599.99 1034.86,-599.77"/>
</g>
<!-- c7 -->
<g id="node27" class="node">
<title>c7</title>
<path fill="#4d4128" stroke="#6e6963" d="M1099.4,-516.75C1099.4,-516.75 950.6,-516.75 950.6,-516.75 944.6,-516.75 938.6,-510.75 938.6,-504.75 938.6,-504.75 938.6,-492.75 938.6,-492.75 938.6,-486.75 944.6,-480.75 950.6,-480.75 950.6,-480.75 1099.4,-480.75 1099.4,-480.75 1105.4,-480.75 1111.4,-486.75 1111.4,-492.75 1111.4,-492.75 1111.4,-504.75 1111.4,-504.75 1111.4,-510.75 1105.4,-516.75 1099.4,-516.75"/>
<text xml:space="preserve" text-anchor="middle" x="1025" y="-495.62" font-family="Helvetica,sans-Serif" font-size="10.00" fill="#ece1d7">⑧ steady&#45;state reached</text>
</g>
<!-- c6&#45;&gt;c7 -->
<g id="edge24" class="edge">
<title>c6&#45;&gt;c7</title>
<path fill="none" stroke="#c1a78e" d="M1029.55,-553.66C1028.85,-545.45 1028.01,-535.44 1027.24,-526.28"/>
<polygon fill="#c1a78e" stroke="#c1a78e" points="1030.03,-526.05 1026.57,-518.32 1024.45,-526.52 1030.03,-526.05"/>
</g>
<!-- c7&#45;&gt;cursor_table -->
<!-- legend -->
<g id="node29" class="node">
<title>legend</title>
<path fill="#6e6963" stroke="none" d="M823.88,-235.5C823.88,-235.5 598.12,-235.5 598.12,-235.5 592.12,-235.5 586.12,-229.5 586.12,-223.5 586.12,-223.5 586.12,-12 586.12,-12 586.12,-6 592.12,0 598.12,0 598.12,0 823.88,0 823.88,0 829.88,0 835.88,-6 835.88,-12 835.88,-12 835.88,-223.5 835.88,-223.5 835.88,-229.5 829.88,-235.5 823.88,-235.5"/>
<polygon fill="#34302c" stroke="none" points="594.12,-208.75 594.12,-231.5 827.88,-231.5 827.88,-208.75 594.12,-208.75"/>
<polygon fill="none" stroke="#6e6963" points="594.12,-208.75 594.12,-231.5 827.88,-231.5 827.88,-208.75 594.12,-208.75"/>
<text xml:space="preserve" text-anchor="start" x="687.75" y="-218" font-family="Helvetica,sans-Serif" font-weight="bold" font-size="10.00" fill="#ece1d7">node fill</text>
<polygon fill="#403a36" stroke="none" points="594.12,-186 594.12,-208.75 622.12,-208.75 622.12,-186 594.12,-186"/>
<polygon fill="none" stroke="#6e6963" points="594.12,-186 594.12,-208.75 622.12,-208.75 622.12,-186 594.12,-186"/>
<polygon fill="none" stroke="#6e6963" points="622.12,-186 622.12,-208.75 827.88,-208.75 827.88,-186 622.12,-186"/>
<text xml:space="preserve" text-anchor="start" x="677.75" y="-194" font-family="Helvetica,sans-Serif" font-size="10.00" fill="#ece1d7">operator / OS event</text>
<polygon fill="#4d3a28" stroke="none" points="594.12,-163.25 594.12,-186 622.12,-186 622.12,-163.25 594.12,-163.25"/>
<polygon fill="none" stroke="#6e6963" points="594.12,-163.25 594.12,-186 622.12,-186 622.12,-163.25 594.12,-163.25"/>
<polygon fill="none" stroke="#6e6963" points="622.12,-163.25 622.12,-186 827.88,-186 827.88,-163.25 622.12,-163.25"/>
<text xml:space="preserve" text-anchor="start" x="678.5" y="-171.25" font-family="Helvetica,sans-Serif" font-size="10.00" fill="#ece1d7">walshadow&#45;stream</text>
<polygon fill="#4d3340" stroke="none" points="594.12,-140.5 594.12,-163.25 622.12,-163.25 622.12,-140.5 594.12,-140.5"/>
<polygon fill="none" stroke="#6e6963" points="594.12,-140.5 594.12,-163.25 622.12,-163.25 622.12,-140.5 594.12,-140.5"/>
<polygon fill="none" stroke="#6e6963" points="622.12,-140.5 622.12,-163.25 827.88,-163.25 827.88,-140.5 622.12,-140.5"/>
<text xml:space="preserve" text-anchor="start" x="627.12" y="-148.5" font-family="Helvetica,sans-Serif" font-size="10.00" fill="#ece1d7">walshadow — segment / walsender side</text>
<polygon fill="#3d4128" stroke="none" points="594.12,-117.75 594.12,-140.5 622.12,-140.5 622.12,-117.75 594.12,-117.75"/>
<polygon fill="none" stroke="#6e6963" points="594.12,-117.75 594.12,-140.5 622.12,-140.5 622.12,-117.75 594.12,-117.75"/>
<polygon fill="none" stroke="#6e6963" points="622.12,-117.75 622.12,-140.5 827.88,-140.5 827.88,-117.75 622.12,-117.75"/>
<text xml:space="preserve" text-anchor="start" x="683.75" y="-125.75" font-family="Helvetica,sans-Serif" font-size="10.00" fill="#ece1d7">shadow Postgres</text>
<polygon fill="#4d4128" stroke="none" points="594.12,-95 594.12,-117.75 622.12,-117.75 622.12,-95 594.12,-95"/>
<polygon fill="none" stroke="#6e6963" points="594.12,-95 594.12,-117.75 622.12,-117.75 622.12,-95 594.12,-95"/>
<polygon fill="none" stroke="#6e6963" points="622.12,-95 622.12,-117.75 827.88,-117.75 827.88,-95 622.12,-95"/>
<text xml:space="preserve" text-anchor="start" x="654.5" y="-103" font-family="Helvetica,sans-Serif" font-size="10.00" fill="#ece1d7">ClickHouse (dedup endpoint)</text>
<polygon fill="#34302c" stroke="none" points="594.12,-72.25 594.12,-95 827.88,-95 827.88,-72.25 594.12,-72.25"/>
<polygon fill="none" stroke="#6e6963" points="594.12,-72.25 594.12,-95 827.88,-95 827.88,-72.25 594.12,-72.25"/>
<text xml:space="preserve" text-anchor="start" x="644.25" y="-81.5" font-family="Helvetica,sans-Serif" font-weight="bold" font-size="10.00" fill="#ece1d7">scenario cluster border</text>
<polygon fill="none" stroke="#6e6963" points="594.12,-49.5 594.12,-72.25 622.12,-72.25 622.12,-49.5 594.12,-49.5"/>
<text xml:space="preserve" text-anchor="start" x="605.12" y="-58.75" font-family="Helvetica,sans-Serif" font-weight="bold" font-size="10.00" fill="#a1a9cc">━</text>
<polygon fill="none" stroke="#6e6963" points="622.12,-49.5 622.12,-72.25 827.88,-72.25 827.88,-49.5 622.12,-49.5"/>
<text xml:space="preserve" text-anchor="start" x="660.5" y="-57.5" font-family="Helvetica,sans-Serif" font-size="10.00" fill="#ece1d7">A. clean restart (SIGTERM)</text>
<polygon fill="none" stroke="#6e6963" points="594.12,-26.75 594.12,-49.5 622.12,-49.5 622.12,-26.75 594.12,-26.75"/>
<text xml:space="preserve" text-anchor="start" x="605.12" y="-36" font-family="Helvetica,sans-Serif" font-weight="bold" font-size="10.00" fill="#cba85e">━</text>
<polygon fill="none" stroke="#6e6963" points="622.12,-26.75 622.12,-49.5 827.88,-49.5 827.88,-26.75 622.12,-26.75"/>
<text xml:space="preserve" text-anchor="start" x="674.75" y="-34.75" font-family="Helvetica,sans-Serif" font-size="10.00" fill="#ece1d7">B. kill &#45;9 mid&#45;stream</text>
<polygon fill="none" stroke="#6e6963" points="594.12,-4 594.12,-26.75 622.12,-26.75 622.12,-4 594.12,-4"/>
<text xml:space="preserve" text-anchor="start" x="605.12" y="-13.25" font-family="Helvetica,sans-Serif" font-weight="bold" font-size="10.00" fill="#bd8183">━</text>
<polygon fill="none" stroke="#6e6963" points="622.12,-4 622.12,-26.75 827.88,-26.75 827.88,-4 622.12,-4"/>
<text xml:space="preserve" text-anchor="start" x="648.5" y="-12" font-family="Helvetica,sans-Serif" font-size="10.00" fill="#ece1d7">C. WAL overflow → re&#45;bootstrap</text>
</g>
<!-- cursor_table&#45;&gt;legend -->
</g>
</svg>
