<?xml version="1.0" encoding="UTF-8" standalone="no"?>
<!DOCTYPE svg PUBLIC "-//W3C//DTD SVG 1.1//EN"
 "http://www.w3.org/Graphics/SVG/1.1/DTD/svg11.dtd">
<!-- Generated by graphviz version 14.1.5 (0)
 -->
<!-- Title: timeline_bootstrap Pages: 1 -->
<svg width="1172pt" height="1553pt"
 viewBox="0.00 0.00 1172.00 1553.00" xmlns="http://www.w3.org/2000/svg" xmlns:xlink="http://www.w3.org/1999/xlink">
<g id="graph0" class="graph" transform="scale(1 1) rotate(0) translate(4 1549.38)">
<title>timeline_bootstrap</title>
<polygon fill="#272623" stroke="none" points="-4,4 -4,-1549.38 1168,-1549.38 1168,4 -4,4"/>
<text xml:space="preserve" text-anchor="middle" x="582" y="-1528.08" font-family="Helvetica,sans-Serif" font-size="14.00" fill="#ece1d7">walshadow greenfield bootstrap — 5 phases</text>
<g id="clust1" class="cluster">
<title>cluster_p1</title>
<path fill="#34302c" stroke="#4c4641" d="M130,-1224.62C130,-1224.62 308,-1224.62 308,-1224.62 314,-1224.62 320,-1230.62 320,-1236.62 320,-1236.62 320,-1500.12 320,-1500.12 320,-1506.12 314,-1512.12 308,-1512.12 308,-1512.12 130,-1512.12 130,-1512.12 124,-1512.12 118,-1506.12 118,-1500.12 118,-1500.12 118,-1236.62 118,-1236.62 118,-1230.62 124,-1224.62 130,-1224.62"/>
<text xml:space="preserve" text-anchor="middle" x="219" y="-1494.83" font-family="Helvetica,sans-Serif" font-size="14.00" fill="#ece1d7">① catalog seed</text>
</g>
<g id="clust2" class="cluster">
<title>cluster_p2</title>
<path fill="#34302c" stroke="#4c4641" d="M340,-990.12C340,-990.12 787,-990.12 787,-990.12 793,-990.12 799,-996.12 799,-1002.12 799,-1002.12 799,-1300.12 799,-1300.12 799,-1306.12 793,-1312.12 787,-1312.12 787,-1312.12 340,-1312.12 340,-1312.12 334,-1312.12 328,-1306.12 328,-1300.12 328,-1300.12 328,-1002.12 328,-1002.12 328,-996.12 334,-990.12 340,-990.12"/>
<text xml:space="preserve" text-anchor="middle" x="563.5" y="-1294.83" font-family="Helvetica,sans-Serif" font-size="14.00" fill="#ece1d7">② BASE_BACKUP pump — MultiplexSink fan&#45;out</text>
</g>
<g id="clust3" class="cluster">
<title>cluster_p3</title>
<path fill="#34302c" stroke="#4c4641" d="M20,-866C20,-866 308,-866 308,-866 314,-866 320,-872 320,-878 320,-878 320,-1060.5 320,-1060.5 320,-1066.5 314,-1072.5 308,-1072.5 308,-1072.5 20,-1072.5 20,-1072.5 14,-1072.5 8,-1066.5 8,-1060.5 8,-1060.5 8,-878 8,-878 8,-872 14,-866 20,-866"/>
<text xml:space="preserve" text-anchor="middle" x="164" y="-1055.2" font-family="Helvetica,sans-Serif" font-size="14.00" fill="#ece1d7">③ drain → ClickHouse &#160;(concurrent with ②)</text>
</g>
<g id="clust4" class="cluster">
<title>cluster_p4</title>
<path fill="#34302c" stroke="#4c4641" d="M819,-616.25C819,-616.25 1144,-616.25 1144,-616.25 1150,-616.25 1156,-622.25 1156,-628.25 1156,-628.25 1156,-1183.38 1156,-1183.38 1156,-1189.38 1150,-1195.38 1144,-1195.38 1144,-1195.38 819,-1195.38 819,-1195.38 813,-1195.38 807,-1189.38 807,-1183.38 807,-1183.38 807,-628.25 807,-628.25 807,-622.25 813,-616.25 819,-616.25"/>
<text xml:space="preserve" text-anchor="middle" x="981.5" y="-1178.08" font-family="Helvetica,sans-Serif" font-size="14.00" fill="#ece1d7">④ shadow handoff</text>
</g>
<g id="clust5" class="cluster">
<title>cluster_p5</title>
<path fill="#34302c" stroke="#4c4641" d="M709,-310C709,-310 1053,-310 1053,-310 1059,-310 1065,-316 1065,-322 1065,-322 1065,-575 1065,-575 1065,-581 1059,-587 1053,-587 1053,-587 709,-587 709,-587 703,-587 697,-581 697,-575 697,-575 697,-322 697,-322 697,-316 703,-310 709,-310"/>
<text xml:space="preserve" text-anchor="middle" x="881" y="-569.7" font-family="Helvetica,sans-Serif" font-size="14.00" fill="#ece1d7">⑤ cursor + WAL pump start &#160;(→ steady&#45;state)</text>
</g>
<!-- op1 -->
<g id="node1" class="node">
<title>op1</title>
<path fill="#403a36" stroke="#6e6963" d="M275.75,-1478.88C275.75,-1478.88 162.25,-1478.88 162.25,-1478.88 156.25,-1478.88 150.25,-1472.88 150.25,-1466.88 150.25,-1466.88 150.25,-1444.62 150.25,-1444.62 150.25,-1438.62 156.25,-1432.62 162.25,-1432.62 162.25,-1432.62 275.75,-1432.62 275.75,-1432.62 281.75,-1432.62 287.75,-1438.62 287.75,-1444.62 287.75,-1444.62 287.75,-1466.88 287.75,-1466.88 287.75,-1472.88 281.75,-1478.88 275.75,-1478.88"/>
<text xml:space="preserve" text-anchor="middle" x="219" y="-1465.38" font-family="Helvetica,sans-Serif" font-size="10.00" fill="#ece1d7">walshadow&#45;stream</text>
<text xml:space="preserve" text-anchor="middle" x="219" y="-1452.62" font-family="Helvetica,sans-Serif" font-size="10.00" fill="#ece1d7">&#45;&#45;bootstrap&#45;mode=direct</text>
<text xml:space="preserve" text-anchor="middle" x="219" y="-1439.88" font-family="Helvetica,sans-Serif" font-size="10.00" fill="#ece1d7">&#45;&#45;ch&#45;config=…</text>
</g>
<!-- map1 -->
<g id="node3" class="node">
<title>map1</title>
<path fill="#4d3a28" stroke="#6e6963" d="M298.62,-1385.38C298.62,-1385.38 139.38,-1385.38 139.38,-1385.38 133.38,-1385.38 127.38,-1379.38 127.38,-1373.38 127.38,-1373.38 127.38,-1361.38 127.38,-1361.38 127.38,-1355.38 133.38,-1349.38 139.38,-1349.38 139.38,-1349.38 298.62,-1349.38 298.62,-1349.38 304.62,-1349.38 310.62,-1355.38 310.62,-1361.38 310.62,-1361.38 310.62,-1373.38 310.62,-1373.38 310.62,-1379.38 304.62,-1385.38 298.62,-1385.38"/>
<text xml:space="preserve" text-anchor="middle" x="219" y="-1370.62" font-family="Helvetica,sans-Serif" font-size="10.00" fill="#ece1d7">CatalogTracker::seed_from_source</text>
<text xml:space="preserve" text-anchor="middle" x="219" y="-1357.88" font-family="Helvetica,sans-Serif" font-size="10.00" fill="#ece1d7">builds CatalogMap</text>
</g>
<!-- op1&#45;&gt;map1 -->
<g id="edge1" class="edge">
<title>op1&#45;&gt;map1</title>
<path fill="none" stroke="#c1a78e" d="M219,-1432.51C219,-1421.1 219,-1407.13 219,-1395.14"/>
<polygon fill="#c1a78e" stroke="#c1a78e" points="221.8,-1395.15 219,-1387.15 216.2,-1395.15 221.8,-1395.15"/>
<text xml:space="preserve" text-anchor="middle" x="233.62" y="-1406.08" font-family="Helvetica,sans-Serif" font-size="9.00" fill="#ece1d7">spawn</text>
</g>
<!-- sql1 -->
<g id="node2" class="node">
<title>sql1</title>
<path fill="#3d3d54" stroke="#6e6963" d="M299.75,-1278.88C299.75,-1278.88 138.25,-1278.88 138.25,-1278.88 132.25,-1278.88 126.25,-1272.88 126.25,-1266.88 126.25,-1266.88 126.25,-1244.62 126.25,-1244.62 126.25,-1238.62 132.25,-1232.62 138.25,-1232.62 138.25,-1232.62 299.75,-1232.62 299.75,-1232.62 305.75,-1232.62 311.75,-1238.62 311.75,-1244.62 311.75,-1244.62 311.75,-1266.88 311.75,-1266.88 311.75,-1272.88 305.75,-1278.88 299.75,-1278.88"/>
<text xml:space="preserve" text-anchor="middle" x="219" y="-1265.38" font-family="Helvetica,sans-Serif" font-size="10.00" fill="#ece1d7">sidecar SQL on source</text>
<text xml:space="preserve" text-anchor="middle" x="219" y="-1252.62" font-family="Helvetica,sans-Serif" font-size="10.00" fill="#ece1d7">SELECT oid, relfilenode</text>
<text xml:space="preserve" text-anchor="middle" x="219" y="-1239.88" font-family="Helvetica,sans-Serif" font-size="10.00" fill="#ece1d7">FROM pg_class WHERE oid≥16384</text>
</g>
<!-- map1&#45;&gt;sql1 -->
<g id="edge2" class="edge">
<title>map1&#45;&gt;sql1</title>
<path fill="none" stroke="#cba85e" d="M219,-1340.13C219,-1324.55 219,-1304.71 219,-1288.28"/>
<polygon fill="#cba85e" stroke="#cba85e" points="219,-1348.03 215.4,-1340.03 219,-1345.25 219,-1340.03 219,-1340.03 219,-1340.03 219,-1345.25 222.6,-1340.03 219,-1348.03"/>
<polygon fill="#cba85e" stroke="#cba85e" points="221.8,-1288.58 219,-1280.58 216.2,-1288.58 221.8,-1288.58"/>
<text xml:space="preserve" text-anchor="middle" x="230.25" y="-1322.83" font-family="Helvetica,sans-Serif" font-size="9.00" fill="#ece1d7">libpq</text>
</g>
<!-- bs2 -->
<g id="node4" class="node">
<title>bs2</title>
<path fill="#4d3a28" stroke="#6e6963" d="M599.38,-1278.88C599.38,-1278.88 504.62,-1278.88 504.62,-1278.88 498.62,-1278.88 492.62,-1272.88 492.62,-1266.88 492.62,-1266.88 492.62,-1244.62 492.62,-1244.62 492.62,-1238.62 498.62,-1232.62 504.62,-1232.62 504.62,-1232.62 599.38,-1232.62 599.38,-1232.62 605.38,-1232.62 611.38,-1238.62 611.38,-1244.62 611.38,-1244.62 611.38,-1266.88 611.38,-1266.88 611.38,-1272.88 605.38,-1278.88 599.38,-1278.88"/>
<text xml:space="preserve" text-anchor="middle" x="552" y="-1265.38" font-family="Helvetica,sans-Serif" font-size="10.00" fill="#ece1d7">BackupSource</text>
<text xml:space="preserve" text-anchor="middle" x="552" y="-1252.62" font-family="Helvetica,sans-Serif" font-size="10.00" fill="#ece1d7">(Direct | ObjectStore)</text>
<text xml:space="preserve" text-anchor="middle" x="552" y="-1239.88" font-family="Helvetica,sans-Serif" font-size="10.00" fill="#ece1d7">begin pump</text>
</g>
<!-- map1&#45;&gt;bs2 -->
<g id="edge7" class="edge">
<title>map1&#45;&gt;bs2</title>
<path fill="none" stroke="#a1a9cc" d="M272.13,-1348.88C300.52,-1339.54 337.29,-1327.43 374.78,-1315.09"/>
<polygon fill="#a1a9cc" stroke="#a1a9cc" points="375.64,-1317.76 382.37,-1312.59 373.89,-1312.44 375.64,-1317.76"/>
<text xml:space="preserve" text-anchor="middle" x="400.67" y="-1322.83" font-family="Helvetica,sans-Serif" font-size="9.00" fill="#ece1d7">open BASE_BACKUP</text>
</g>
<!-- src2 -->
<g id="node5" class="node">
<title>src2</title>
<path fill="#3d3d54" stroke="#6e6963" d="M445.88,-1167.25C445.88,-1167.25 348.12,-1167.25 348.12,-1167.25 342.12,-1167.25 336.12,-1161.25 336.12,-1155.25 336.12,-1155.25 336.12,-1133 336.12,-1133 336.12,-1127 342.12,-1121 348.12,-1121 348.12,-1121 445.88,-1121 445.88,-1121 451.88,-1121 457.88,-1127 457.88,-1133 457.88,-1133 457.88,-1155.25 457.88,-1155.25 457.88,-1161.25 451.88,-1167.25 445.88,-1167.25"/>
<text xml:space="preserve" text-anchor="middle" x="397" y="-1153.75" font-family="Helvetica,sans-Serif" font-size="10.00" fill="#ece1d7">BASE_BACKUP open</text>
<text xml:space="preserve" text-anchor="middle" x="397" y="-1141" font-family="Helvetica,sans-Serif" font-size="10.00" fill="#ece1d7">pg_export_snapshot()</text>
<text xml:space="preserve" text-anchor="middle" x="397" y="-1128.25" font-family="Helvetica,sans-Serif" font-size="10.00" fill="#ece1d7">start_lsn = X</text>
</g>
<!-- bs2&#45;&gt;src2 -->
<g id="edge3" class="edge">
<title>bs2&#45;&gt;src2</title>
<path fill="none" stroke="#a1a9cc" d="M484.23,-1229.69C475.41,-1225.24 466.75,-1220.22 459,-1214.62 443.73,-1203.61 429.52,-1188.24 418.57,-1174.75"/>
<polygon fill="#a1a9cc" stroke="#a1a9cc" points="491.26,-1233.08 482.49,-1232.85 488.75,-1231.88 484.05,-1229.61 484.05,-1229.61 484.05,-1229.61 488.75,-1231.88 485.62,-1226.37 491.26,-1233.08"/>
<polygon fill="#a1a9cc" stroke="#a1a9cc" points="420.93,-1173.22 413.78,-1168.68 416.54,-1176.69 420.93,-1173.22"/>
<text xml:space="preserve" text-anchor="middle" x="502.5" y="-1206.08" font-family="Helvetica,sans-Serif" font-size="9.00" fill="#ece1d7">replication protocol</text>
</g>
<!-- lan2 -->
<g id="node6" class="node">
<title>lan2</title>
<path fill="#4d3a28" stroke="#6e6963" d="M779.12,-1167.25C779.12,-1167.25 658.88,-1167.25 658.88,-1167.25 652.88,-1167.25 646.88,-1161.25 646.88,-1155.25 646.88,-1155.25 646.88,-1133 646.88,-1133 646.88,-1127 652.88,-1121 658.88,-1121 658.88,-1121 779.12,-1121 779.12,-1121 785.12,-1121 791.12,-1127 791.12,-1133 791.12,-1133 791.12,-1155.25 791.12,-1155.25 791.12,-1161.25 785.12,-1167.25 779.12,-1167.25"/>
<text xml:space="preserve" text-anchor="middle" x="719" y="-1153.75" font-family="Helvetica,sans-Serif" font-size="10.00" fill="#ece1d7">DiskLanderSink</text>
<text xml:space="preserve" text-anchor="middle" x="719" y="-1141" font-family="Helvetica,sans-Serif" font-size="10.00" fill="#ece1d7">catalog → shadow data dir</text>
<text xml:space="preserve" text-anchor="middle" x="719" y="-1128.25" font-family="Helvetica,sans-Serif" font-size="10.00" fill="#ece1d7">user&#45;heap filenode Skip</text>
</g>
<!-- bs2&#45;&gt;lan2 -->
<g id="edge4" class="edge">
<title>bs2&#45;&gt;lan2</title>
<path fill="none" stroke="#c1a78e" d="M589.92,-1232.2C599.17,-1226.56 608.99,-1220.45 618,-1214.62 638.64,-1201.27 661.21,-1185.81 679.78,-1172.88"/>
<polygon fill="#c1a78e" stroke="#c1a78e" points="681.27,-1175.25 686.23,-1168.37 678.07,-1170.66 681.27,-1175.25"/>
<text xml:space="preserve" text-anchor="middle" x="664.77" y="-1206.08" font-family="Helvetica,sans-Serif" font-size="9.00" fill="#ece1d7">MultiplexSink</text>
</g>
<!-- walk2 -->
<g id="node7" class="node">
<title>walk2</title>
<path fill="#4d3a28" stroke="#6e6963" d="M609.5,-1167.25C609.5,-1167.25 494.5,-1167.25 494.5,-1167.25 488.5,-1167.25 482.5,-1161.25 482.5,-1155.25 482.5,-1155.25 482.5,-1133 482.5,-1133 482.5,-1127 488.5,-1121 494.5,-1121 494.5,-1121 609.5,-1121 609.5,-1121 615.5,-1121 621.5,-1127 621.5,-1133 621.5,-1133 621.5,-1155.25 621.5,-1155.25 621.5,-1161.25 615.5,-1167.25 609.5,-1167.25"/>
<text xml:space="preserve" text-anchor="middle" x="552" y="-1153.75" font-family="Helvetica,sans-Serif" font-size="10.00" fill="#ece1d7">PageWalkSink</text>
<text xml:space="preserve" text-anchor="middle" x="552" y="-1141" font-family="Helvetica,sans-Serif" font-size="10.00" fill="#ece1d7">decode 8 KiB heap pages</text>
<text xml:space="preserve" text-anchor="middle" x="552" y="-1128.25" font-family="Helvetica,sans-Serif" font-size="10.00" fill="#ece1d7">→ BackfillTuple (mpsc)</text>
</g>
<!-- bs2&#45;&gt;walk2 -->
<g id="edge5" class="edge">
<title>bs2&#45;&gt;walk2</title>
<path fill="none" stroke="#c1a78e" d="M552,-1232.3C552,-1216.34 552,-1194.67 552,-1176.93"/>
<polygon fill="#c1a78e" stroke="#c1a78e" points="554.8,-1177.06 552,-1169.06 549.2,-1177.06 554.8,-1177.06"/>
<text xml:space="preserve" text-anchor="middle" x="582" y="-1206.08" font-family="Helvetica,sans-Serif" font-size="9.00" fill="#ece1d7">MultiplexSink</text>
</g>
<!-- end4 -->
<g id="node11" class="node">
<title>end4</title>
<path fill="#3d3d54" stroke="#6e6963" d="M912.75,-1162.12C912.75,-1162.12 829.25,-1162.12 829.25,-1162.12 823.25,-1162.12 817.25,-1156.12 817.25,-1150.12 817.25,-1150.12 817.25,-1138.12 817.25,-1138.12 817.25,-1132.12 823.25,-1126.12 829.25,-1126.12 829.25,-1126.12 912.75,-1126.12 912.75,-1126.12 918.75,-1126.12 924.75,-1132.12 924.75,-1138.12 924.75,-1138.12 924.75,-1150.12 924.75,-1150.12 924.75,-1156.12 918.75,-1162.12 912.75,-1162.12"/>
<text xml:space="preserve" text-anchor="middle" x="871" y="-1147.38" font-family="Helvetica,sans-Serif" font-size="10.00" fill="#ece1d7">BASE_BACKUP end</text>
<text xml:space="preserve" text-anchor="middle" x="871" y="-1134.62" font-family="Helvetica,sans-Serif" font-size="10.00" fill="#ece1d7">end_lsn = Y</text>
</g>
<!-- bs2&#45;&gt;end4 -->
<g id="edge17" class="edge">
<title>bs2&#45;&gt;end4</title>
<path fill="none" stroke="#a1a9cc" d="M611.85,-1247.91C662.38,-1240.55 736.01,-1226.08 798.64,-1198.24"/>
<polygon fill="#a1a9cc" stroke="#a1a9cc" points="799.52,-1200.92 805.63,-1195.04 797.19,-1195.82 799.52,-1200.92"/>
<text xml:space="preserve" text-anchor="middle" x="798.14" y="-1206.08" font-family="Helvetica,sans-Serif" font-size="9.00" fill="#ece1d7">finish</text>
</g>
<!-- dsk2 -->
<g id="node8" class="node">
<title>dsk2</title>
<polygon fill="#4d3850" stroke="#6e6963" points="768.62,-1034.12 663.38,-1034.12 663.38,-998.12 774.62,-998.12 774.62,-1028.12 768.62,-1034.12"/>
<polyline fill="none" stroke="#6e6963" points="768.62,-1034.12 768.62,-1028.12"/>
<polyline fill="none" stroke="#6e6963" points="774.62,-1028.12 768.62,-1028.12"/>
<text xml:space="preserve" text-anchor="middle" x="719" y="-1019.38" font-family="Helvetica,sans-Serif" font-size="10.00" fill="#ece1d7">shadow data dir</text>
<text xml:space="preserve" text-anchor="middle" x="719" y="-1006.62" font-family="Helvetica,sans-Serif" font-size="10.00" fill="#ece1d7">catalog files landed</text>
</g>
<!-- lan2&#45;&gt;dsk2 -->
<g id="edge6" class="edge">
<title>lan2&#45;&gt;dsk2</title>
<path fill="none" stroke="#c1a78e" d="M719,-1120.6C719,-1099.14 719,-1066.82 719,-1044.02"/>
<polygon fill="#c1a78e" stroke="#c1a78e" points="721.8,-1044.1 719,-1036.1 716.2,-1044.1 721.8,-1044.1"/>
<text xml:space="preserve" text-anchor="middle" x="737" y="-1088.83" font-family="Helvetica,sans-Serif" font-size="9.00" fill="#ece1d7">land file</text>
</g>
<!-- drain3 -->
<g id="node9" class="node">
<title>drain3</title>
<path fill="#4d3a28" stroke="#6e6963" d="M298.88,-1039.25C298.88,-1039.25 171.12,-1039.25 171.12,-1039.25 165.12,-1039.25 159.12,-1033.25 159.12,-1027.25 159.12,-1027.25 159.12,-1005 159.12,-1005 159.12,-999 165.12,-993 171.12,-993 171.12,-993 298.88,-993 298.88,-993 304.88,-993 310.88,-999 310.88,-1005 310.88,-1005 310.88,-1027.25 310.88,-1027.25 310.88,-1033.25 304.88,-1039.25 298.88,-1039.25"/>
<text xml:space="preserve" text-anchor="middle" x="235" y="-1025.75" font-family="Helvetica,sans-Serif" font-size="10.00" fill="#ece1d7">drain_backfill task</text>
<text xml:space="preserve" text-anchor="middle" x="235" y="-1013" font-family="Helvetica,sans-Serif" font-size="10.00" fill="#ece1d7">synthesize CommittedTuple</text>
<text xml:space="preserve" text-anchor="middle" x="235" y="-1000.25" font-family="Helvetica,sans-Serif" font-size="10.00" fill="#ece1d7">{op=Insert, _lsn=start_lsn}</text>
</g>
<!-- walk2&#45;&gt;drain3 -->
<g id="edge9" class="edge">
<title>walk2&#45;&gt;drain3</title>
<path fill="none" stroke="#c1a78e" d="M482.11,-1123.9C430.15,-1109.22 362.8,-1089.31 328.4,-1075.2"/>
<polygon fill="#c1a78e" stroke="#c1a78e" points="329.84,-1072.78 321.39,-1072.17 327.61,-1077.91 329.84,-1072.78"/>
<text xml:space="preserve" text-anchor="middle" x="449.13" y="-1094.45" font-family="Helvetica,sans-Serif" font-size="9.00" fill="#ece1d7">BackfillTuple</text>
<text xml:space="preserve" text-anchor="middle" x="449.13" y="-1083.2" font-family="Helvetica,sans-Serif" font-size="9.00" fill="#ece1d7">(unbounded mpsc)</text>
</g>
<!-- ch3 -->
<g id="node10" class="node">
<title>ch3</title>
<path fill="#4d4128" stroke="#6e6963" d="M299.62,-945.75C299.62,-945.75 164.38,-945.75 164.38,-945.75 158.38,-945.75 152.38,-939.75 152.38,-933.75 152.38,-933.75 152.38,-886 152.38,-886 152.38,-880 158.38,-874 164.38,-874 164.38,-874 299.62,-874 299.62,-874 305.62,-874 311.62,-880 311.62,-886 311.62,-886 311.62,-933.75 311.62,-933.75 311.62,-939.75 305.62,-945.75 299.62,-945.75"/>
<text xml:space="preserve" text-anchor="middle" x="232" y="-932.25" font-family="Helvetica,sans-Serif" font-size="10.00" fill="#ece1d7">transitional Emitter</text>
<text xml:space="preserve" text-anchor="middle" x="232" y="-919.5" font-family="Helvetica,sans-Serif" font-size="10.00" fill="#ece1d7">vs CatalogMapResolver</text>
<text xml:space="preserve" text-anchor="middle" x="232" y="-906.75" font-family="Helvetica,sans-Serif" font-size="10.00" fill="#ece1d7">held&#45;open INSERT,</text>
<text xml:space="preserve" text-anchor="middle" x="232" y="-894" font-family="Helvetica,sans-Serif" font-size="10.00" fill="#ece1d7">force&#45;closed at bootstrap end</text>
<text xml:space="preserve" text-anchor="middle" x="232" y="-881.25" font-family="Helvetica,sans-Serif" font-size="10.00" fill="#ece1d7">(no DdlApplicator)</text>
</g>
<!-- drain3&#45;&gt;ch3 -->
<g id="edge8" class="edge">
<title>drain3&#45;&gt;ch3</title>
<path fill="none" stroke="#bf8c5f" d="M234.35,-992.5C234.04,-981.61 233.65,-968.16 233.28,-955.34"/>
<polygon fill="#bf8c5f" stroke="#bf8c5f" points="236.09,-955.59 233.06,-947.68 230.49,-955.75 236.09,-955.59"/>
<text xml:space="preserve" text-anchor="middle" x="272.77" y="-966.45" font-family="Helvetica,sans-Serif" font-size="9.00" fill="#ece1d7">per&#45;relation block</text>
</g>
<!-- out4 -->
<g id="node12" class="node">
<title>out4</title>
<path fill="#4d3a28" stroke="#6e6963" d="M918.75,-1034.12C918.75,-1034.12 829.25,-1034.12 829.25,-1034.12 823.25,-1034.12 817.25,-1028.12 817.25,-1022.12 817.25,-1022.12 817.25,-1010.12 817.25,-1010.12 817.25,-1004.12 823.25,-998.12 829.25,-998.12 829.25,-998.12 918.75,-998.12 918.75,-998.12 924.75,-998.12 930.75,-1004.12 930.75,-1010.12 930.75,-1010.12 930.75,-1022.12 930.75,-1022.12 930.75,-1028.12 924.75,-1034.12 918.75,-1034.12"/>
<text xml:space="preserve" text-anchor="middle" x="874" y="-1019.38" font-family="Helvetica,sans-Serif" font-size="10.00" fill="#ece1d7">BootstrapOutcome</text>
<text xml:space="preserve" text-anchor="middle" x="874" y="-1006.62" font-family="Helvetica,sans-Serif" font-size="10.00" fill="#ece1d7">{start_lsn, end_lsn}</text>
</g>
<!-- end4&#45;&gt;out4 -->
<g id="edge10" class="edge">
<title>end4&#45;&gt;out4</title>
<path fill="none" stroke="#a1a9cc" d="M871.64,-1116.38C872.22,-1091.69 873.08,-1055.76 873.58,-1034.58"/>
<polygon fill="#a1a9cc" stroke="#a1a9cc" points="868.84,-1116.29 871.45,-1124.36 874.44,-1116.43 868.84,-1116.29"/>
<text xml:space="preserve" text-anchor="middle" x="889.66" y="-1088.83" font-family="Helvetica,sans-Serif" font-size="9.00" fill="#ece1d7">end_lsn</text>
</g>
<!-- ctrl4 -->
<g id="node13" class="node">
<title>ctrl4</title>
<polygon fill="#4d3850" stroke="#6e6963" points="933,-927.88 815,-927.88 815,-891.88 939,-891.88 939,-921.88 933,-927.88"/>
<polyline fill="none" stroke="#6e6963" points="933,-927.88 933,-921.88"/>
<polyline fill="none" stroke="#6e6963" points="939,-921.88 933,-921.88"/>
<text xml:space="preserve" text-anchor="middle" x="877" y="-913.12" font-family="Helvetica,sans-Serif" font-size="10.00" fill="#ece1d7">pg_control landed last</text>
<text xml:space="preserve" text-anchor="middle" x="877" y="-900.38" font-family="Helvetica,sans-Serif" font-size="10.00" fill="#ece1d7">(barrier)</text>
</g>
<!-- out4&#45;&gt;ctrl4 -->
<!-- conf4 -->
<g id="node14" class="node">
<title>conf4</title>
<path fill="#4d3a28" stroke="#6e6963" d="M1136.38,-939.38C1136.38,-939.38 975.62,-939.38 975.62,-939.38 969.62,-939.38 963.62,-933.38 963.62,-927.38 963.62,-927.38 963.62,-892.38 963.62,-892.38 963.62,-886.38 969.62,-880.38 975.62,-880.38 975.62,-880.38 1136.38,-880.38 1136.38,-880.38 1142.38,-880.38 1148.38,-886.38 1148.38,-892.38 1148.38,-892.38 1148.38,-927.38 1148.38,-927.38 1148.38,-933.38 1142.38,-939.38 1136.38,-939.38"/>
<text xml:space="preserve" text-anchor="middle" x="1056" y="-925.88" font-family="Helvetica,sans-Serif" font-size="10.00" fill="#ece1d7">Shadow::enable_standby_recovery</text>
<text xml:space="preserve" text-anchor="middle" x="1056" y="-913.12" font-family="Helvetica,sans-Serif" font-size="10.00" fill="#ece1d7">append standby.signal +</text>
<text xml:space="preserve" text-anchor="middle" x="1056" y="-900.38" font-family="Helvetica,sans-Serif" font-size="10.00" fill="#ece1d7">restore_command +</text>
<text xml:space="preserve" text-anchor="middle" x="1056" y="-887.62" font-family="Helvetica,sans-Serif" font-size="10.00" fill="#ece1d7">primary_conninfo</text>
</g>
<!-- out4&#45;&gt;conf4 -->
<g id="edge12" class="edge">
<title>out4&#45;&gt;conf4</title>
<path fill="none" stroke="#c1a78e" d="M904.46,-997.68C929.73,-983.2 966.39,-962.2 997.33,-944.48"/>
<polygon fill="#c1a78e" stroke="#c1a78e" points="998.61,-946.98 1004.16,-940.57 995.82,-942.12 998.61,-946.98"/>
</g>
<!-- cur5 -->
<g id="node19" class="node">
<title>cur5</title>
<path fill="#4d3a28" stroke="#6e6963" d="M838.88,-553.75C838.88,-553.75 717.12,-553.75 717.12,-553.75 711.12,-553.75 705.12,-547.75 705.12,-541.75 705.12,-541.75 705.12,-529.75 705.12,-529.75 705.12,-523.75 711.12,-517.75 717.12,-517.75 717.12,-517.75 838.88,-517.75 838.88,-517.75 844.88,-517.75 850.88,-523.75 850.88,-529.75 850.88,-529.75 850.88,-541.75 850.88,-541.75 850.88,-547.75 844.88,-553.75 838.88,-553.75"/>
<text xml:space="preserve" text-anchor="middle" x="778" y="-539" font-family="Helvetica,sans-Serif" font-size="10.00" fill="#ece1d7">cursor::write</text>
<text xml:space="preserve" text-anchor="middle" x="778" y="-526.25" font-family="Helvetica,sans-Serif" font-size="10.00" fill="#ece1d7">emitter_ack_lsn = end_lsn</text>
</g>
<!-- out4&#45;&gt;cur5 -->
<g id="edge22" class="edge">
<title>out4&#45;&gt;cur5</title>
<path fill="none" stroke="#c1a78e" d="M841.43,-997.66C813.25,-979.91 777,-949.56 777,-910.88 777,-910.88 777,-910.88 777,-641.25 777,-626.74 777.1,-611.11 777.23,-596.46"/>
<polygon fill="#c1a78e" stroke="#c1a78e" points="780.03,-596.54 777.31,-588.51 774.43,-596.48 780.03,-596.54"/>
<text xml:space="preserve" text-anchor="middle" x="802.12" y="-764.2" font-family="Helvetica,sans-Serif" font-size="9.00" fill="#ece1d7">next phase</text>
</g>
<!-- files4 -->
<g id="node15" class="node">
<title>files4</title>
<polygon fill="#4d3850" stroke="#6e6963" points="947.12,-826.75 850.88,-826.75 850.88,-790.75 953.12,-790.75 953.12,-820.75 947.12,-826.75"/>
<polyline fill="none" stroke="#6e6963" points="947.12,-826.75 947.12,-820.75"/>
<polyline fill="none" stroke="#6e6963" points="953.12,-820.75 947.12,-820.75"/>
<text xml:space="preserve" text-anchor="middle" x="902" y="-812" font-family="Helvetica,sans-Serif" font-size="10.00" fill="#ece1d7">postgresql.conf +</text>
<text xml:space="preserve" text-anchor="middle" x="902" y="-799.25" font-family="Helvetica,sans-Serif" font-size="10.00" fill="#ece1d7">standby.signal</text>
</g>
<!-- conf4&#45;&gt;files4 -->
<g id="edge13" class="edge">
<title>conf4&#45;&gt;files4</title>
<path fill="none" stroke="#c1a78e" d="M1011.04,-879.94C987.32,-864.67 958.66,-846.22 936.68,-832.07"/>
<polygon fill="#c1a78e" stroke="#c1a78e" points="938.42,-829.86 930.18,-827.89 935.39,-834.57 938.42,-829.86"/>
<text xml:space="preserve" text-anchor="middle" x="981.03" y="-847.45" font-family="Helvetica,sans-Serif" font-size="9.00" fill="#ece1d7">write</text>
</g>
<!-- listen4 -->
<g id="node16" class="node">
<title>listen4</title>
<path fill="#4d3a28" stroke="#6e6963" d="M1122.12,-826.75C1122.12,-826.75 989.88,-826.75 989.88,-826.75 983.88,-826.75 977.88,-820.75 977.88,-814.75 977.88,-814.75 977.88,-802.75 977.88,-802.75 977.88,-796.75 983.88,-790.75 989.88,-790.75 989.88,-790.75 1122.12,-790.75 1122.12,-790.75 1128.12,-790.75 1134.12,-796.75 1134.12,-802.75 1134.12,-802.75 1134.12,-814.75 1134.12,-814.75 1134.12,-820.75 1128.12,-826.75 1122.12,-826.75"/>
<text xml:space="preserve" text-anchor="middle" x="1056" y="-812" font-family="Helvetica,sans-Serif" font-size="10.00" fill="#ece1d7">walsender listener up</text>
<text xml:space="preserve" text-anchor="middle" x="1056" y="-799.25" font-family="Helvetica,sans-Serif" font-size="10.00" fill="#ece1d7">(barrier before shadow start)</text>
</g>
<!-- conf4&#45;&gt;listen4 -->
<g id="edge14" class="edge">
<title>conf4&#45;&gt;listen4</title>
<path fill="none" stroke="#c1a78e" d="M1056,-879.94C1056,-866.14 1056,-849.75 1056,-836.28"/>
<polygon fill="#c1a78e" stroke="#c1a78e" points="1058.8,-836.58 1056,-828.58 1053.2,-836.58 1058.8,-836.58"/>
</g>
<!-- start4 -->
<g id="node17" class="node">
<title>start4</title>
<path fill="#4d3a28" stroke="#6e6963" d="M1119,-743.5C1119,-743.5 977,-743.5 977,-743.5 971,-743.5 965,-737.5 965,-731.5 965,-731.5 965,-719.5 965,-719.5 965,-713.5 971,-707.5 977,-707.5 977,-707.5 1119,-707.5 1119,-707.5 1125,-707.5 1131,-713.5 1131,-719.5 1131,-719.5 1131,-731.5 1131,-731.5 1131,-737.5 1125,-743.5 1119,-743.5"/>
<text xml:space="preserve" text-anchor="middle" x="1048" y="-728.75" font-family="Helvetica,sans-Serif" font-size="10.00" fill="#ece1d7">Shadow::start (recovery mode)</text>
<text xml:space="preserve" text-anchor="middle" x="1048" y="-716" font-family="Helvetica,sans-Serif" font-size="10.00" fill="#ece1d7">block_in_place pg_ctl</text>
</g>
<!-- listen4&#45;&gt;start4 -->
<g id="edge15" class="edge">
<title>listen4&#45;&gt;start4</title>
<path fill="none" stroke="#c1a78e" d="M1054.3,-790.52C1053.24,-779.71 1051.85,-765.56 1050.64,-753.3"/>
<polygon fill="#c1a78e" stroke="#c1a78e" points="1053.44,-753.18 1049.87,-745.49 1047.87,-753.73 1053.44,-753.18"/>
<text xml:space="preserve" text-anchor="middle" x="1067.48" y="-764.2" font-family="Helvetica,sans-Serif" font-size="9.00" fill="#ece1d7">barrier</text>
</g>
<!-- shd4 -->
<g id="node18" class="node">
<title>shd4</title>
<path fill="#3d4128" stroke="#6e6963" d="M1051.38,-660.25C1051.38,-660.25 932.62,-660.25 932.62,-660.25 926.62,-660.25 920.62,-654.25 920.62,-648.25 920.62,-648.25 920.62,-636.25 920.62,-636.25 920.62,-630.25 926.62,-624.25 932.62,-624.25 932.62,-624.25 1051.38,-624.25 1051.38,-624.25 1057.38,-624.25 1063.38,-630.25 1063.38,-636.25 1063.38,-636.25 1063.38,-648.25 1063.38,-648.25 1063.38,-654.25 1057.38,-660.25 1051.38,-660.25"/>
<text xml:space="preserve" text-anchor="middle" x="992" y="-645.5" font-family="Helvetica,sans-Serif" font-size="10.00" fill="#ece1d7">postmaster + walreceiver</text>
<text xml:space="preserve" text-anchor="middle" x="992" y="-632.75" font-family="Helvetica,sans-Serif" font-size="10.00" fill="#ece1d7">begin replay</text>
</g>
<!-- start4&#45;&gt;shd4 -->
<g id="edge16" class="edge">
<title>start4&#45;&gt;shd4</title>
<path fill="none" stroke="#c1a78e" d="M1036.12,-707.27C1028.31,-695.93 1017.95,-680.9 1009.23,-668.25"/>
<polygon fill="#c1a78e" stroke="#c1a78e" points="1011.76,-666.98 1004.91,-661.98 1007.15,-670.16 1011.76,-666.98"/>
<text xml:space="preserve" text-anchor="middle" x="1049.23" y="-680.95" font-family="Helvetica,sans-Serif" font-size="9.00" fill="#ece1d7">pg_ctl start</text>
</g>
<!-- apply5 -->
<g id="node23" class="node">
<title>apply5</title>
<path fill="#3d4128" stroke="#6e6963" d="M1044.5,-553.75C1044.5,-553.75 887.5,-553.75 887.5,-553.75 881.5,-553.75 875.5,-547.75 875.5,-541.75 875.5,-541.75 875.5,-529.75 875.5,-529.75 875.5,-523.75 881.5,-517.75 887.5,-517.75 887.5,-517.75 1044.5,-517.75 1044.5,-517.75 1050.5,-517.75 1056.5,-523.75 1056.5,-529.75 1056.5,-529.75 1056.5,-541.75 1056.5,-541.75 1056.5,-547.75 1050.5,-553.75 1044.5,-553.75"/>
<text xml:space="preserve" text-anchor="middle" x="966" y="-539" font-family="Helvetica,sans-Serif" font-size="10.00" fill="#ece1d7">pg_last_wal_replay_lsn ≥ end_lsn</text>
<text xml:space="preserve" text-anchor="middle" x="966" y="-526.25" font-family="Helvetica,sans-Serif" font-size="10.00" fill="#ece1d7">ready for relation_at gate</text>
</g>
<!-- shd4&#45;&gt;apply5 -->
<g id="edge23" class="edge">
<title>shd4&#45;&gt;apply5</title>
<path fill="none" stroke="#869461" stroke-dasharray="5,2" d="M987.71,-623.99C983.59,-607.43 977.3,-582.18 972.56,-563.1"/>
<polygon fill="#869461" stroke="#869461" points="975.31,-562.59 970.67,-555.5 969.88,-563.94 975.31,-562.59"/>
<text xml:space="preserve" text-anchor="middle" x="1023.35" y="-597.7" font-family="Helvetica,sans-Serif" font-size="9.00" fill="#ece1d7">replay catches up</text>
</g>
<!-- curd5 -->
<g id="node20" class="node">
<title>curd5</title>
<polygon fill="#4d3850" stroke="#6e6963" points="833.38,-465.38 708.62,-465.38 708.62,-429.38 839.38,-429.38 839.38,-459.38 833.38,-465.38"/>
<polyline fill="none" stroke="#6e6963" points="833.38,-465.38 833.38,-459.38"/>
<polyline fill="none" stroke="#6e6963" points="839.38,-459.38 833.38,-459.38"/>
<text xml:space="preserve" text-anchor="middle" x="774" y="-450.62" font-family="Helvetica,sans-Serif" font-size="10.00" fill="#ece1d7">cursor.bin</text>
<text xml:space="preserve" text-anchor="middle" x="774" y="-437.88" font-family="Helvetica,sans-Serif" font-size="10.00" fill="#ece1d7">atomic rename + fsync</text>
</g>
<!-- cur5&#45;&gt;curd5 -->
<g id="edge18" class="edge">
<title>cur5&#45;&gt;curd5</title>
<path fill="none" stroke="#c1a78e" d="M777.19,-517.27C776.63,-505.21 775.88,-488.95 775.24,-475.25"/>
<polygon fill="#c1a78e" stroke="#c1a78e" points="778.05,-475.2 774.88,-467.34 772.45,-475.46 778.05,-475.2"/>
<text xml:space="preserve" text-anchor="middle" x="788.36" y="-491.2" font-family="Helvetica,sans-Serif" font-size="9.00" fill="#ece1d7">fsync</text>
</g>
<!-- feed5 -->
<g id="node21" class="node">
<title>feed5</title>
<path fill="#4d3a28" stroke="#6e6963" d="M973.12,-470.5C973.12,-470.5 876.88,-470.5 876.88,-470.5 870.88,-470.5 864.88,-464.5 864.88,-458.5 864.88,-458.5 864.88,-436.25 864.88,-436.25 864.88,-430.25 870.88,-424.25 876.88,-424.25 876.88,-424.25 973.12,-424.25 973.12,-424.25 979.12,-424.25 985.12,-430.25 985.12,-436.25 985.12,-436.25 985.12,-458.5 985.12,-458.5 985.12,-464.5 979.12,-470.5 973.12,-470.5"/>
<text xml:space="preserve" text-anchor="middle" x="925" y="-457" font-family="Helvetica,sans-Serif" font-size="10.00" fill="#ece1d7">SourceFeed open</text>
<text xml:space="preserve" text-anchor="middle" x="925" y="-444.25" font-family="Helvetica,sans-Serif" font-size="10.00" fill="#ece1d7">START_REPLICATION</text>
<text xml:space="preserve" text-anchor="middle" x="925" y="-431.5" font-family="Helvetica,sans-Serif" font-size="10.00" fill="#ece1d7">PHYSICAL &lt;end_lsn&gt;</text>
</g>
<!-- cur5&#45;&gt;feed5 -->
<g id="edge19" class="edge">
<title>cur5&#45;&gt;feed5</title>
<path fill="none" stroke="#c1a78e" d="M807.75,-517.27C828.09,-505.32 855.45,-489.24 878.63,-475.62"/>
<polygon fill="#c1a78e" stroke="#c1a78e" points="879.85,-478.15 885.33,-471.69 877.01,-473.32 879.85,-478.15"/>
</g>
<!-- repl5 -->
<g id="node22" class="node">
<title>repl5</title>
<path fill="#3d3d54" stroke="#6e6963" d="M873.12,-365.5C873.12,-365.5 788.88,-365.5 788.88,-365.5 782.88,-365.5 776.88,-359.5 776.88,-353.5 776.88,-353.5 776.88,-341.5 776.88,-341.5 776.88,-335.5 782.88,-329.5 788.88,-329.5 788.88,-329.5 873.12,-329.5 873.12,-329.5 879.12,-329.5 885.12,-335.5 885.12,-341.5 885.12,-341.5 885.12,-353.5 885.12,-353.5 885.12,-359.5 879.12,-365.5 873.12,-365.5"/>
<text xml:space="preserve" text-anchor="middle" x="831" y="-350.75" font-family="Helvetica,sans-Serif" font-size="10.00" fill="#ece1d7">streaming protocol</text>
<text xml:space="preserve" text-anchor="middle" x="831" y="-338" font-family="Helvetica,sans-Serif" font-size="10.00" fill="#ece1d7">opens at end_lsn</text>
</g>
<!-- feed5&#45;&gt;repl5 -->
<g id="edge20" class="edge">
<title>feed5&#45;&gt;repl5</title>
<path fill="none" stroke="#a1a9cc" d="M861.1,-418.73C856.26,-415.01 851.8,-410.86 848,-406.25 840.78,-397.47 836.63,-385.74 834.24,-375.14"/>
<polygon fill="#a1a9cc" stroke="#a1a9cc" points="867.42,-423.16 858.81,-421.52 865.15,-421.57 860.88,-418.57 860.88,-418.57 860.88,-418.57 865.15,-421.57 862.94,-415.62 867.42,-423.16"/>
<polygon fill="#a1a9cc" stroke="#a1a9cc" points="837,-374.68 832.78,-367.33 831.5,-375.7 837,-374.68"/>
<text xml:space="preserve" text-anchor="middle" x="893" y="-397.7" font-family="Helvetica,sans-Serif" font-size="9.00" fill="#ece1d7">START_REPLICATION</text>
</g>
<!-- hot5 -->
<g id="node24" class="node">
<title>hot5</title>
<polygon fill="#4d3a28" stroke="#6e6963" points="1020.25,-371 909.75,-371 909.75,-324 1020.25,-324 1032.25,-347.5 1020.25,-371"/>
<text xml:space="preserve" text-anchor="middle" x="971" y="-363.5" font-family="Helvetica,sans-Serif" font-size="10.00" fill="#ece1d7">hot streaming</text>
<text xml:space="preserve" text-anchor="middle" x="971" y="-350.75" font-family="Helvetica,sans-Serif" font-size="10.00" fill="#ece1d7">(steady&#45;state emitter</text>
<text xml:space="preserve" text-anchor="middle" x="971" y="-338" font-family="Helvetica,sans-Serif" font-size="10.00" fill="#ece1d7">+ DdlApplicator)</text>
<text xml:space="preserve" text-anchor="middle" x="971" y="-325.25" font-family="Helvetica,sans-Serif" font-size="10.00" fill="#ece1d7">→ timeline_streaming</text>
</g>
<!-- feed5&#45;&gt;hot5 -->
<g id="edge21" class="edge">
<title>feed5&#45;&gt;hot5</title>
<path fill="none" stroke="#c1a78e" d="M935.44,-424.17C940.79,-412.78 947.44,-398.62 953.55,-385.64"/>
<polygon fill="#c1a78e" stroke="#c1a78e" points="955.95,-387.11 956.81,-378.68 950.88,-384.73 955.95,-387.11"/>
</g>
<!-- legend -->
<g id="node25" class="node">
<title>legend</title>
<path fill="#6e6963" stroke="none" d="M1055,-281C1055,-281 887,-281 887,-281 881,-281 875,-275 875,-269 875,-269 875,-12 875,-12 875,-6 881,0 887,0 887,0 1055,0 1055,0 1061,0 1067,-6 1067,-12 1067,-12 1067,-269 1067,-269 1067,-275 1061,-281 1055,-281"/>
<polygon fill="#34302c" stroke="none" points="883,-254.25 883,-277 1059,-277 1059,-254.25 883,-254.25"/>
<polygon fill="none" stroke="#6e6963" points="883,-254.25 883,-277 1059,-277 1059,-254.25 883,-254.25"/>
<text xml:space="preserve" text-anchor="start" x="924.5" y="-263.5" font-family="Helvetica,sans-Serif" font-weight="bold" font-size="10.00" fill="#ece1d7">node fill — actor</text>
<polygon fill="#403a36" stroke="none" points="883,-231.5 883,-254.25 911,-254.25 911,-231.5 883,-231.5"/>
<polygon fill="none" stroke="#6e6963" points="883,-231.5 883,-254.25 911,-254.25 911,-231.5 883,-231.5"/>
<polygon fill="none" stroke="#6e6963" points="911,-231.5 911,-254.25 1059,-254.25 1059,-231.5 911,-231.5"/>
<text xml:space="preserve" text-anchor="start" x="952.38" y="-239.5" font-family="Helvetica,sans-Serif" font-size="10.00" fill="#ece1d7">operator / CLI</text>
<polygon fill="#3d3d54" stroke="none" points="883,-208.75 883,-231.5 911,-231.5 911,-208.75 883,-208.75"/>
<polygon fill="none" stroke="#6e6963" points="883,-208.75 883,-231.5 911,-231.5 911,-208.75 883,-208.75"/>
<polygon fill="none" stroke="#6e6963" points="911,-208.75 911,-231.5 1059,-231.5 1059,-208.75 911,-208.75"/>
<text xml:space="preserve" text-anchor="start" x="946.38" y="-216.75" font-family="Helvetica,sans-Serif" font-size="10.00" fill="#ece1d7">source Postgres</text>
<polygon fill="#4d3a28" stroke="none" points="883,-186 883,-208.75 911,-208.75 911,-186 883,-186"/>
<polygon fill="none" stroke="#6e6963" points="883,-186 883,-208.75 911,-208.75 911,-186 883,-186"/>
<polygon fill="none" stroke="#6e6963" points="911,-186 911,-208.75 1059,-208.75 1059,-186 911,-186"/>
<text xml:space="preserve" text-anchor="start" x="938.5" y="-194" font-family="Helvetica,sans-Serif" font-size="10.00" fill="#ece1d7">walshadow&#45;stream</text>
<polygon fill="#4d3850" stroke="none" points="883,-163.25 883,-186 911,-186 911,-163.25 883,-163.25"/>
<polygon fill="none" stroke="#6e6963" points="883,-163.25 883,-186 911,-186 911,-163.25 883,-163.25"/>
<polygon fill="none" stroke="#6e6963" points="911,-163.25 911,-186 1059,-186 1059,-163.25 911,-163.25"/>
<text xml:space="preserve" text-anchor="start" x="947.88" y="-171.25" font-family="Helvetica,sans-Serif" font-size="10.00" fill="#ece1d7">on&#45;disk artifact</text>
<polygon fill="#3d4128" stroke="none" points="883,-140.5 883,-163.25 911,-163.25 911,-140.5 883,-140.5"/>
<polygon fill="none" stroke="#6e6963" points="883,-140.5 883,-163.25 911,-163.25 911,-140.5 883,-140.5"/>
<polygon fill="none" stroke="#6e6963" points="911,-140.5 911,-163.25 1059,-163.25 1059,-140.5 911,-140.5"/>
<text xml:space="preserve" text-anchor="start" x="943.75" y="-148.5" font-family="Helvetica,sans-Serif" font-size="10.00" fill="#ece1d7">shadow Postgres</text>
<polygon fill="#4d4128" stroke="none" points="883,-117.75 883,-140.5 911,-140.5 911,-117.75 883,-117.75"/>
<polygon fill="none" stroke="#6e6963" points="883,-117.75 883,-140.5 911,-140.5 911,-117.75 883,-117.75"/>
<polygon fill="none" stroke="#6e6963" points="911,-117.75 911,-140.5 1059,-140.5 1059,-117.75 911,-117.75"/>
<text xml:space="preserve" text-anchor="start" x="957.62" y="-125.75" font-family="Helvetica,sans-Serif" font-size="10.00" fill="#ece1d7">ClickHouse</text>
<polygon fill="#34302c" stroke="none" points="883,-95 883,-117.75 1059,-117.75 1059,-95 883,-95"/>
<polygon fill="none" stroke="#6e6963" points="883,-95 883,-117.75 1059,-117.75 1059,-95 883,-95"/>
<text xml:space="preserve" text-anchor="start" x="937.25" y="-104.25" font-family="Helvetica,sans-Serif" font-weight="bold" font-size="10.00" fill="#ece1d7">edge colour</text>
<polygon fill="none" stroke="#6e6963" points="883,-72.25 883,-95 911,-95 911,-72.25 883,-72.25"/>
<text xml:space="preserve" text-anchor="start" x="891" y="-81.5" font-family="Helvetica,sans-Serif" font-weight="bold" font-size="10.00" fill="#a1a9cc">━━</text>
<polygon fill="none" stroke="#6e6963" points="911,-72.25 911,-95 1059,-95 1059,-72.25 911,-72.25"/>
<text xml:space="preserve" text-anchor="start" x="916" y="-80.25" font-family="Helvetica,sans-Serif" font-size="10.00" fill="#ece1d7">physical replication protocol</text>
<polygon fill="none" stroke="#6e6963" points="883,-49.5 883,-72.25 911,-72.25 911,-49.5 883,-49.5"/>
<text xml:space="preserve" text-anchor="start" x="891" y="-58.75" font-family="Helvetica,sans-Serif" font-weight="bold" font-size="10.00" fill="#cba85e">━━</text>
<polygon fill="none" stroke="#6e6963" points="911,-49.5 911,-72.25 1059,-72.25 1059,-49.5 911,-49.5"/>
<text xml:space="preserve" text-anchor="start" x="938.12" y="-57.5" font-family="Helvetica,sans-Serif" font-size="10.00" fill="#ece1d7">libpq catalog query</text>
<polygon fill="none" stroke="#6e6963" points="883,-26.75 883,-49.5 911,-49.5 911,-26.75 883,-26.75"/>
<text xml:space="preserve" text-anchor="start" x="891" y="-36" font-family="Helvetica,sans-Serif" font-weight="bold" font-size="10.00" fill="#bf8c5f">━━</text>
<polygon fill="none" stroke="#6e6963" points="911,-26.75 911,-49.5 1059,-49.5 1059,-26.75 911,-26.75"/>
<text xml:space="preserve" text-anchor="start" x="922.75" y="-34.75" font-family="Helvetica,sans-Serif" font-size="10.00" fill="#ece1d7">ClickHouse Native blocks</text>
<polygon fill="none" stroke="#6e6963" points="883,-4 883,-26.75 911,-26.75 911,-4 883,-4"/>
<text xml:space="preserve" text-anchor="start" x="891" y="-13.25" font-family="Helvetica,sans-Serif" font-weight="bold" font-size="10.00" fill="#869461">┄┄</text>
<polygon fill="none" stroke="#6e6963" points="911,-4 911,-26.75 1059,-26.75 1059,-4 911,-4"/>
<text xml:space="preserve" text-anchor="start" x="926.88" y="-12" font-family="Helvetica,sans-Serif" font-size="10.00" fill="#ece1d7">shadow replay progress</text>
</g>
<!-- hot5&#45;&gt;legend -->
</g>
</svg>
