<?xml version="1.0" encoding="UTF-8" standalone="no"?>
<!DOCTYPE svg PUBLIC "-//W3C//DTD SVG 1.1//EN"
 "http://www.w3.org/Graphics/SVG/1.1/DTD/svg11.dtd">
<!-- Generated by graphviz version 15.1.0 (20260618.0150)
 -->
<!-- Title: timeline_restart Pages: 1 -->
<svg width="1398pt" height="1411pt"
 viewBox="0.00 0.00 1398.00 1411.00" xmlns="http://www.w3.org/2000/svg" xmlns:xlink="http://www.w3.org/1999/xlink">
<g id="graph0" class="graph" transform="scale(1 1) rotate(0) translate(4 1407.12)">
<title>timeline_restart</title>
<polygon fill="#272623" stroke="none" points="-4,4 -4,-1407.12 1394.44,-1407.12 1394.44,4 -4,4"/>
<text xml:space="preserve" text-anchor="middle" x="695.22" y="-1385.83" font-family="Helvetica,sans-Serif" font-size="14.00" fill="#ece1d7">walshadow restart timelines — 3 scenarios, time flows top → bottom within each column</text>
<g id="clust1" class="cluster">
<title>cluster_a</title>
<path fill="#34302c" stroke="#a1a9cc" d="M20,-499.5C20,-499.5 490,-499.5 490,-499.5 496,-499.5 502,-505.5 502,-511.5 502,-511.5 502,-1357.88 502,-1357.88 502,-1363.88 496,-1369.88 490,-1369.88 490,-1369.88 20,-1369.88 20,-1369.88 14,-1369.88 8,-1363.88 8,-1357.88 8,-1357.88 8,-511.5 8,-511.5 8,-505.5 14,-499.5 20,-499.5"/>
<text xml:space="preserve" text-anchor="middle" x="255" y="-1352.58" font-family="Helvetica,sans-Serif" font-size="14.00" fill="#ece1d7">A. clean restart &#160;(SIGTERM, cursor flushed, slot inside wal_keep_size)</text>
</g>
<g id="clust2" class="cluster">
<title>cluster_b</title>
<path fill="#34302c" stroke="#cba85e" d="M522,-499.5C522,-499.5 900,-499.5 900,-499.5 906,-499.5 912,-505.5 912,-511.5 912,-511.5 912,-1263.62 912,-1263.62 912,-1269.62 906,-1275.62 900,-1275.62 900,-1275.62 522,-1275.62 522,-1275.62 516,-1275.62 510,-1269.62 510,-1263.62 510,-1263.62 510,-511.5 510,-511.5 510,-505.5 516,-499.5 522,-499.5"/>
<text xml:space="preserve" text-anchor="middle" x="711" y="-1258.33" font-family="Helvetica,sans-Serif" font-size="14.00" fill="#ece1d7">B. kill &#45;9 mid&#45;stream &#160;(last fsynced cursor authoritative)</text>
</g>
<g id="clust3" class="cluster">
<title>cluster_c</title>
<path fill="#34302c" stroke="#bd8183" d="M932,-573.62C932,-573.62 1329,-573.62 1329,-573.62 1335,-573.62 1341,-579.62 1341,-585.62 1341,-585.62 1341,-1164.25 1341,-1164.25 1341,-1170.25 1335,-1176.25 1329,-1176.25 1329,-1176.25 932,-1176.25 932,-1176.25 926,-1176.25 920,-1170.25 920,-1164.25 920,-1164.25 920,-585.62 920,-585.62 920,-579.62 926,-573.62 932,-573.62"/>
<text xml:space="preserve" text-anchor="middle" x="1130.5" y="-1158.95" font-family="Helvetica,sans-Serif" font-size="14.00" fill="#ece1d7">C. extended outage &#160;(source recycled resume WAL)</text>
</g>
<!-- a0 -->
<g id="node1" class="node">
<title>a0</title>
<path fill="#403a36" stroke="#6e6963" d="M482.4,-1336.62C482.4,-1336.62 333.6,-1336.62 333.6,-1336.62 327.6,-1336.62 321.6,-1330.62 321.6,-1324.62 321.6,-1324.62 321.6,-1312.62 321.6,-1312.62 321.6,-1306.62 327.6,-1300.62 333.6,-1300.62 333.6,-1300.62 482.4,-1300.62 482.4,-1300.62 488.4,-1300.62 494.4,-1306.62 494.4,-1312.62 494.4,-1312.62 494.4,-1324.62 494.4,-1324.62 494.4,-1330.62 488.4,-1336.62 482.4,-1336.62"/>
<text xml:space="preserve" text-anchor="middle" x="408" y="-1315.5" font-family="Helvetica,sans-Serif" font-size="10.00" fill="#ece1d7">① SIGTERM</text>
</g>
<!-- a1 -->
<g id="node2" class="node">
<title>a1</title>
<path fill="#4d3a28" stroke="#6e6963" d="M459.12,-1247.5C459.12,-1247.5 302.88,-1247.5 302.88,-1247.5 296.88,-1247.5 290.88,-1241.5 290.88,-1235.5 290.88,-1235.5 290.88,-1213.25 290.88,-1213.25 290.88,-1207.25 296.88,-1201.25 302.88,-1201.25 302.88,-1201.25 459.12,-1201.25 459.12,-1201.25 465.12,-1201.25 471.12,-1207.25 471.12,-1213.25 471.12,-1213.25 471.12,-1235.5 471.12,-1235.5 471.12,-1241.5 465.12,-1247.5 459.12,-1247.5"/>
<text xml:space="preserve" text-anchor="middle" x="381" y="-1234" font-family="Helvetica,sans-Serif" font-size="10.00" fill="#ece1d7">② drain in&#45;flight work</text>
<text xml:space="preserve" text-anchor="middle" x="381" y="-1221.25" font-family="Helvetica,sans-Serif" font-size="10.00" fill="#ece1d7">pipeline join: batcher final flush →</text>
<text xml:space="preserve" text-anchor="middle" x="381" y="-1208.5" font-family="Helvetica,sans-Serif" font-size="10.00" fill="#ece1d7">inserters EndOfStream → ack</text>
</g>
<!-- a0&#45;&gt;a1 -->
<g id="edge1" class="edge">
<title>a0&#45;&gt;a1</title>
<path fill="none" stroke="#c1a78e" d="M402.92,-1300.27C399.33,-1288 394.41,-1271.2 390.14,-1256.62"/>
<polygon fill="#c1a78e" stroke="#c1a78e" points="392.95,-1256.23 388.01,-1249.34 387.57,-1257.8 392.95,-1256.23"/>
</g>
<!-- b0 -->
<g id="node11" class="node">
<title>b0</title>
<path fill="#403a36" stroke="#6e6963" d="M785.4,-1242.38C785.4,-1242.38 636.6,-1242.38 636.6,-1242.38 630.6,-1242.38 624.6,-1236.38 624.6,-1230.38 624.6,-1230.38 624.6,-1218.38 624.6,-1218.38 624.6,-1212.38 630.6,-1206.38 636.6,-1206.38 636.6,-1206.38 785.4,-1206.38 785.4,-1206.38 791.4,-1206.38 797.4,-1212.38 797.4,-1218.38 797.4,-1218.38 797.4,-1230.38 797.4,-1230.38 797.4,-1236.38 791.4,-1242.38 785.4,-1242.38"/>
<text xml:space="preserve" text-anchor="middle" x="711" y="-1221.25" font-family="Helvetica,sans-Serif" font-size="10.00" fill="#ece1d7">① kill &#45;9 (no drain)</text>
</g>
<!-- a0&#45;&gt;b0 -->
<!-- a2 -->
<g id="node3" class="node">
<title>a2</title>
<path fill="#4d3340" stroke="#6e6963" d="M469.75,-1143C469.75,-1143 284.25,-1143 284.25,-1143 278.25,-1143 272.25,-1137 272.25,-1131 272.25,-1131 272.25,-1119 272.25,-1119 272.25,-1113 278.25,-1107 284.25,-1107 284.25,-1107 469.75,-1107 469.75,-1107 475.75,-1107 481.75,-1113 481.75,-1119 481.75,-1119 481.75,-1131 481.75,-1131 481.75,-1137 475.75,-1143 469.75,-1143"/>
<text xml:space="preserve" text-anchor="middle" x="377" y="-1128.25" font-family="Helvetica,sans-Serif" font-size="10.00" fill="#ece1d7">③ DirSegmentSink::on_partial_segment</text>
<text xml:space="preserve" text-anchor="middle" x="377" y="-1115.5" font-family="Helvetica,sans-Serif" font-size="10.00" fill="#ece1d7">&lt;seg&gt;.partial</text>
</g>
<!-- a1&#45;&gt;a2 -->
<g id="edge2" class="edge">
<title>a1&#45;&gt;a2</title>
<path fill="none" stroke="#c1a78e" d="M380.07,-1200.79C379.48,-1186.41 378.71,-1167.72 378.09,-1152.62"/>
<polygon fill="#c1a78e" stroke="#c1a78e" points="380.9,-1152.69 377.77,-1144.81 375.3,-1152.92 380.9,-1152.69"/>
</g>
<!-- a3 -->
<g id="node4" class="node">
<title>a3</title>
<path fill="#4d3a28" stroke="#6e6963" d="M450.4,-1057.38C450.4,-1057.38 301.6,-1057.38 301.6,-1057.38 295.6,-1057.38 289.6,-1051.38 289.6,-1045.38 289.6,-1045.38 289.6,-1033.38 289.6,-1033.38 289.6,-1027.38 295.6,-1021.38 301.6,-1021.38 301.6,-1021.38 450.4,-1021.38 450.4,-1021.38 456.4,-1021.38 462.4,-1027.38 462.4,-1033.38 462.4,-1033.38 462.4,-1045.38 462.4,-1045.38 462.4,-1051.38 456.4,-1057.38 450.4,-1057.38"/>
<text xml:space="preserve" text-anchor="middle" x="376" y="-1042.62" font-family="Helvetica,sans-Serif" font-size="10.00" fill="#ece1d7">④ cursor::write final state</text>
<text xml:space="preserve" text-anchor="middle" x="376" y="-1029.88" font-family="Helvetica,sans-Serif" font-size="10.00" fill="#ece1d7">(emitter_ack_lsn, drain_lsn, …)</text>
</g>
<!-- a2&#45;&gt;a3 -->
<g id="edge3" class="edge">
<title>a2&#45;&gt;a3</title>
<path fill="none" stroke="#c1a78e" d="M376.79,-1106.67C376.66,-1095.24 376.47,-1080.03 376.32,-1067.06"/>
<polygon fill="#c1a78e" stroke="#c1a78e" points="379.12,-1067.16 376.23,-1059.19 373.52,-1067.23 379.12,-1067.16"/>
</g>
<!-- a4 -->
<g id="node5" class="node">
<title>a4</title>
<path fill="#403a36" stroke="#6e6963" d="M448.4,-967.88C448.4,-967.88 299.6,-967.88 299.6,-967.88 293.6,-967.88 287.6,-961.88 287.6,-955.88 287.6,-955.88 287.6,-943.88 287.6,-943.88 287.6,-937.88 293.6,-931.88 299.6,-931.88 299.6,-931.88 448.4,-931.88 448.4,-931.88 454.4,-931.88 460.4,-937.88 460.4,-943.88 460.4,-943.88 460.4,-955.88 460.4,-955.88 460.4,-961.88 454.4,-967.88 448.4,-967.88"/>
<text xml:space="preserve" text-anchor="middle" x="374" y="-946.75" font-family="Helvetica,sans-Serif" font-size="10.00" fill="#ece1d7">⑤ process exit</text>
</g>
<!-- a3&#45;&gt;a4 -->
<g id="edge4" class="edge">
<title>a3&#45;&gt;a4</title>
<path fill="none" stroke="#c1a78e" d="M375.6,-1021.09C375.32,-1008.62 374.93,-991.57 374.61,-977.39"/>
<polygon fill="#c1a78e" stroke="#c1a78e" points="377.41,-977.57 374.43,-969.64 371.81,-977.7 377.41,-977.57"/>
</g>
<!-- a5 -->
<g id="node6" class="node">
<title>a5</title>
<path fill="#4d3a28" stroke="#6e6963" d="M475.88,-883.5C475.88,-883.5 270.12,-883.5 270.12,-883.5 264.12,-883.5 258.12,-877.5 258.12,-871.5 258.12,-871.5 258.12,-836.5 258.12,-836.5 258.12,-830.5 264.12,-824.5 270.12,-824.5 270.12,-824.5 475.88,-824.5 475.88,-824.5 481.88,-824.5 487.88,-830.5 487.88,-836.5 487.88,-836.5 487.88,-871.5 487.88,-871.5 487.88,-877.5 481.88,-883.5 475.88,-883.5"/>
<text xml:space="preserve" text-anchor="middle" x="373" y="-870" font-family="Helvetica,sans-Serif" font-size="10.00" fill="#ece1d7">⑥ restart:</text>
<text xml:space="preserve" text-anchor="middle" x="373" y="-857.25" font-family="Helvetica,sans-Serif" font-size="10.00" fill="#ece1d7">cursor::read → segment&#45;aligned resume_lsn</text>
<text xml:space="preserve" text-anchor="middle" x="373" y="-844.5" font-family="Helvetica,sans-Serif" font-size="10.00" fill="#ece1d7">load toast_retires.bin</text>
<text xml:space="preserve" text-anchor="middle" x="373" y="-831.75" font-family="Helvetica,sans-Serif" font-size="10.00" fill="#ece1d7">flush entries below resume floor</text>
</g>
<!-- a4&#45;&gt;a5 -->
<g id="edge5" class="edge">
<title>a4&#45;&gt;a5</title>
<path fill="none" stroke="#c1a78e" d="M373.82,-931.66C373.7,-920.92 373.55,-906.67 373.41,-893.36"/>
<polygon fill="#c1a78e" stroke="#c1a78e" points="376.21,-893.39 373.32,-885.42 370.61,-893.45 376.21,-893.39"/>
</g>
<!-- a6 -->
<g id="node7" class="node">
<title>a6</title>
<path fill="#3d4128" stroke="#6e6963" d="M452.25,-781.25C452.25,-781.25 293.75,-781.25 293.75,-781.25 287.75,-781.25 281.75,-775.25 281.75,-769.25 281.75,-769.25 281.75,-757.25 281.75,-757.25 281.75,-751.25 287.75,-745.25 293.75,-745.25 293.75,-745.25 452.25,-745.25 452.25,-745.25 458.25,-745.25 464.25,-751.25 464.25,-757.25 464.25,-757.25 464.25,-769.25 464.25,-769.25 464.25,-775.25 458.25,-781.25 452.25,-781.25"/>
<text xml:space="preserve" text-anchor="middle" x="373" y="-766.5" font-family="Helvetica,sans-Serif" font-size="10.00" fill="#ece1d7">⑦ Shadow::start in recovery mode</text>
<text xml:space="preserve" text-anchor="middle" x="373" y="-753.75" font-family="Helvetica,sans-Serif" font-size="10.00" fill="#ece1d7">(if not already running)</text>
</g>
<!-- a5&#45;&gt;a6 -->
<g id="edge6" class="edge">
<title>a5&#45;&gt;a6</title>
<path fill="none" stroke="#c1a78e" d="M373,-824.43C373,-813.76 373,-801.68 373,-791.16"/>
<polygon fill="#c1a78e" stroke="#c1a78e" points="375.8,-791.16 373,-783.16 370.2,-791.16 375.8,-791.16"/>
</g>
<!-- a7 -->
<g id="node8" class="node">
<title>a7</title>
<path fill="#4d3340" stroke="#6e6963" d="M447.4,-696.88C447.4,-696.88 298.6,-696.88 298.6,-696.88 292.6,-696.88 286.6,-690.88 286.6,-684.88 286.6,-684.88 286.6,-672.88 286.6,-672.88 286.6,-666.88 292.6,-660.88 298.6,-660.88 298.6,-660.88 447.4,-660.88 447.4,-660.88 453.4,-660.88 459.4,-666.88 459.4,-672.88 459.4,-672.88 459.4,-684.88 459.4,-684.88 459.4,-690.88 453.4,-696.88 447.4,-696.88"/>
<text xml:space="preserve" text-anchor="middle" x="373" y="-682.12" font-family="Helvetica,sans-Serif" font-size="10.00" fill="#ece1d7">⑧ walsender listener up</text>
<text xml:space="preserve" text-anchor="middle" x="373" y="-669.38" font-family="Helvetica,sans-Serif" font-size="10.00" fill="#ece1d7">before walreceiver connects</text>
</g>
<!-- a6&#45;&gt;a7 -->
<g id="edge7" class="edge">
<title>a6&#45;&gt;a7</title>
<path fill="none" stroke="#c1a78e" d="M373,-744.78C373,-733.75 373,-719.28 373,-706.8"/>
<polygon fill="#c1a78e" stroke="#c1a78e" points="375.8,-706.83 373,-698.83 370.2,-706.83 375.8,-706.83"/>
</g>
<!-- a8 -->
<g id="node9" class="node">
<title>a8</title>
<path fill="#4d3a28" stroke="#6e6963" d="M481.5,-617.62C481.5,-617.62 264.5,-617.62 264.5,-617.62 258.5,-617.62 252.5,-611.62 252.5,-605.62 252.5,-605.62 252.5,-593.62 252.5,-593.62 252.5,-587.62 258.5,-581.62 264.5,-581.62 264.5,-581.62 481.5,-581.62 481.5,-581.62 487.5,-581.62 493.5,-587.62 493.5,-593.62 493.5,-593.62 493.5,-605.62 493.5,-605.62 493.5,-611.62 487.5,-617.62 481.5,-617.62"/>
<text xml:space="preserve" text-anchor="middle" x="373" y="-602.88" font-family="Helvetica,sans-Serif" font-size="10.00" fill="#ece1d7">⑨ SourceFeed open</text>
<text xml:space="preserve" text-anchor="middle" x="373" y="-590.12" font-family="Helvetica,sans-Serif" font-size="10.00" fill="#ece1d7">START_REPLICATION PHYSICAL &lt;resume_lsn&gt;</text>
</g>
<!-- a7&#45;&gt;a8 -->
<g id="edge8" class="edge">
<title>a7&#45;&gt;a8</title>
<path fill="none" stroke="#c1a78e" d="M373,-660.73C373,-650.9 373,-638.34 373,-627.25"/>
<polygon fill="#c1a78e" stroke="#c1a78e" points="375.8,-627.5 373,-619.5 370.2,-627.5 375.8,-627.5"/>
</g>
<!-- a9 -->
<g id="node10" class="node">
<title>a9</title>
<path fill="#4d4128" stroke="#6e6963" d="M470.75,-543.5C470.75,-543.5 297.25,-543.5 297.25,-543.5 291.25,-543.5 285.25,-537.5 285.25,-531.5 285.25,-531.5 285.25,-519.5 285.25,-519.5 285.25,-513.5 291.25,-507.5 297.25,-507.5 297.25,-507.5 470.75,-507.5 470.75,-507.5 476.75,-507.5 482.75,-513.5 482.75,-519.5 482.75,-519.5 482.75,-531.5 482.75,-531.5 482.75,-537.5 476.75,-543.5 470.75,-543.5"/>
<text xml:space="preserve" text-anchor="middle" x="384" y="-528.75" font-family="Helvetica,sans-Serif" font-size="10.00" fill="#ece1d7">⑩ records re&#45;flow</text>
<text xml:space="preserve" text-anchor="middle" x="384" y="-516" font-family="Helvetica,sans-Serif" font-size="10.00" fill="#ece1d7">CH ReplacingMergeTree(_lsn) dedups</text>
</g>
<!-- a8&#45;&gt;a9 -->
<g id="edge9" class="edge">
<title>a8&#45;&gt;a9</title>
<path fill="none" stroke="#c1a78e" d="M375.66,-581.17C376.95,-572.75 378.51,-562.47 379.94,-553.11"/>
<polygon fill="#c1a78e" stroke="#c1a78e" points="382.7,-553.63 381.13,-545.29 377.16,-552.78 382.7,-553.63"/>
</g>
<!-- cursor_table -->
<g id="node28" class="node">
<title>cursor_table</title>
<path fill="#6e6963" stroke="none" d="M1024.25,-474.5C1024.25,-474.5 397.75,-474.5 397.75,-474.5 391.75,-474.5 385.75,-468.5 385.75,-462.5 385.75,-462.5 385.75,-280.5 385.75,-280.5 385.75,-274.5 391.75,-268.5 397.75,-268.5 397.75,-268.5 1024.25,-268.5 1024.25,-268.5 1030.25,-268.5 1036.25,-274.5 1036.25,-280.5 1036.25,-280.5 1036.25,-462.5 1036.25,-462.5 1036.25,-468.5 1030.25,-474.5 1024.25,-474.5"/>
<polygon fill="#4d3850" stroke="none" points="393.75,-445.75 393.75,-470.5 1028.25,-470.5 1028.25,-445.75 393.75,-445.75"/>
<polygon fill="none" stroke="#6e6963" points="393.75,-445.75 393.75,-470.5 1028.25,-470.5 1028.25,-445.75 393.75,-445.75"/>
<text xml:space="preserve" text-anchor="start" x="604.12" y="-456" font-family="Helvetica,sans-Serif" font-weight="bold" font-size="10.00" fill="#ece1d7">cursor.bin — 6 LSN fields (schema v2)</text>
<polygon fill="none" stroke="#6e6963" points="393.75,-421 393.75,-445.75 504.75,-445.75 504.75,-421 393.75,-421"/>
<text xml:space="preserve" text-anchor="start" x="436.5" y="-431.25" font-family="Helvetica,sans-Serif" font-weight="bold" font-size="10.00" fill="#ece1d7">field</text>
<polygon fill="none" stroke="#6e6963" points="504.75,-421 504.75,-445.75 712.5,-445.75 712.5,-421 504.75,-421"/>
<text xml:space="preserve" text-anchor="start" x="591.38" y="-431.25" font-family="Helvetica,sans-Serif" font-weight="bold" font-size="10.00" fill="#ece1d7">writer</text>
<polygon fill="none" stroke="#6e6963" points="712.5,-421 712.5,-445.75 903.75,-445.75 903.75,-421 712.5,-421"/>
<text xml:space="preserve" text-anchor="start" x="766.88" y="-431.25" font-family="Helvetica,sans-Serif" font-weight="bold" font-size="10.00" fill="#ece1d7">role on restart</text>
<polygon fill="none" stroke="#6e6963" points="903.75,-421 903.75,-445.75 1028.25,-445.75 1028.25,-421 903.75,-421"/>
<text xml:space="preserve" text-anchor="start" x="909.75" y="-431.25" font-family="Helvetica,sans-Serif" font-weight="bold" font-size="10.00" fill="#ece1d7">role in slot advance</text>
<polygon fill="none" stroke="#6e6963" points="393.75,-396.25 393.75,-421 504.75,-421 504.75,-396.25 393.75,-396.25"/>
<text xml:space="preserve" text-anchor="start" x="399.75" y="-405.25" font-family="Helvetica,sans-Serif" font-size="10.00" fill="#ece1d7">source_received_lsn</text>
<polygon fill="none" stroke="#6e6963" points="504.75,-396.25 504.75,-421 712.5,-421 712.5,-396.25 504.75,-396.25"/>
<text xml:space="preserve" text-anchor="start" x="563.62" y="-405.25" font-family="Helvetica,sans-Serif" font-size="10.00" fill="#ece1d7">SourceFeed::pump</text>
<polygon fill="none" stroke="#6e6963" points="712.5,-396.25 712.5,-421 903.75,-421 903.75,-396.25 712.5,-396.25"/>
<text xml:space="preserve" text-anchor="start" x="774.75" y="-405.25" font-family="Helvetica,sans-Serif" font-size="10.00" fill="#ece1d7">observational</text>
<polygon fill="none" stroke="#6e6963" points="903.75,-396.25 903.75,-421 1028.25,-421 1028.25,-396.25 903.75,-396.25"/>
<text xml:space="preserve" text-anchor="start" x="942.75" y="-405.25" font-family="Helvetica,sans-Serif" font-size="10.00" fill="#ece1d7">write LSN</text>
<polygon fill="none" stroke="#6e6963" points="393.75,-371.5 393.75,-396.25 504.75,-396.25 504.75,-371.5 393.75,-371.5"/>
<text xml:space="preserve" text-anchor="start" x="407.25" y="-380.5" font-family="Helvetica,sans-Serif" font-size="10.00" fill="#ece1d7">filter_durable_lsn</text>
<polygon fill="none" stroke="#6e6963" points="504.75,-371.5 504.75,-396.25 712.5,-396.25 712.5,-371.5 504.75,-371.5"/>
<text xml:space="preserve" text-anchor="start" x="536.25" y="-380.5" font-family="Helvetica,sans-Serif" font-size="10.00" fill="#ece1d7">DirSegmentSink::on_segment</text>
<polygon fill="none" stroke="#6e6963" points="712.5,-371.5 712.5,-396.25 903.75,-396.25 903.75,-371.5 712.5,-371.5"/>
<text xml:space="preserve" text-anchor="start" x="766.12" y="-380.5" font-family="Helvetica,sans-Serif" font-size="10.00" fill="#ece1d7">archive coverage</text>
<polygon fill="none" stroke="#6e6963" points="903.75,-371.5 903.75,-396.25 1028.25,-396.25 1028.25,-371.5 903.75,-371.5"/>
<text xml:space="preserve" text-anchor="start" x="943.5" y="-380.5" font-family="Helvetica,sans-Serif" font-size="10.00" fill="#ece1d7">flush LSN</text>
<polygon fill="none" stroke="#6e6963" points="393.75,-346.75 393.75,-371.5 504.75,-371.5 504.75,-346.75 393.75,-346.75"/>
<text xml:space="preserve" text-anchor="start" x="402.75" y="-355.75" font-family="Helvetica,sans-Serif" font-size="10.00" fill="#ece1d7">shadow_replay_lsn</text>
<polygon fill="none" stroke="#6e6963" points="504.75,-346.75 504.75,-371.5 712.5,-371.5 712.5,-346.75 504.75,-346.75"/>
<text xml:space="preserve" text-anchor="start" x="563.25" y="-355.75" font-family="Helvetica,sans-Serif" font-size="10.00" fill="#ece1d7">retention_sweeper</text>
<polygon fill="none" stroke="#6e6963" points="712.5,-346.75 712.5,-371.5 903.75,-371.5 903.75,-346.75 712.5,-346.75"/>
<text xml:space="preserve" text-anchor="start" x="756" y="-355.75" font-family="Helvetica,sans-Serif" font-size="10.00" fill="#ece1d7">bounds segment trim</text>
<polygon fill="none" stroke="#6e6963" points="903.75,-346.75 903.75,-371.5 1028.25,-371.5 1028.25,-346.75 903.75,-346.75"/>
<text xml:space="preserve" text-anchor="start" x="928.88" y="-355.75" font-family="Helvetica,sans-Serif" font-size="10.00" fill="#ece1d7">caps apply LSN</text>
<polygon fill="none" stroke="#6e6963" points="393.75,-322 393.75,-346.75 504.75,-346.75 504.75,-322 393.75,-322"/>
<text xml:space="preserve" text-anchor="start" x="427.12" y="-331" font-family="Helvetica,sans-Serif" font-size="10.00" fill="#ece1d7">drain_lsn</text>
<polygon fill="none" stroke="#6e6963" points="504.75,-322 504.75,-346.75 712.5,-346.75 712.5,-322 504.75,-322"/>
<text xml:space="preserve" text-anchor="start" x="561.38" y="-331" font-family="Helvetica,sans-Serif" font-size="10.00" fill="#ece1d7">XactBuffer::commit</text>
<polygon fill="none" stroke="#6e6963" points="712.5,-322 712.5,-346.75 903.75,-346.75 903.75,-322 712.5,-322"/>
<text xml:space="preserve" text-anchor="start" x="774.75" y="-331" font-family="Helvetica,sans-Serif" font-size="10.00" fill="#ece1d7">observational</text>
<polygon fill="none" stroke="#6e6963" points="903.75,-322 903.75,-346.75 1028.25,-346.75 1028.25,-322 903.75,-322"/>
<text xml:space="preserve" text-anchor="start" x="961.12" y="-331" font-family="Helvetica,sans-Serif" font-size="10.00" fill="#ece1d7">—</text>
<polygon fill="none" stroke="#6e6963" points="393.75,-297.25 393.75,-322 504.75,-322 504.75,-297.25 393.75,-297.25"/>
<text xml:space="preserve" text-anchor="start" x="405" y="-307.5" font-family="Helvetica,sans-Serif" font-weight="bold" font-size="10.00" fill="#ece1d7">emitter_ack_lsn</text>
<polygon fill="none" stroke="#6e6963" points="504.75,-297.25 504.75,-322 712.5,-322 712.5,-297.25 504.75,-297.25"/>
<text xml:space="preserve" text-anchor="start" x="510.75" y="-306.25" font-family="Helvetica,sans-Serif" font-size="10.00" fill="#ece1d7">pipeline ack collector (contiguous&#45;done)</text>
<polygon fill="none" stroke="#6e6963" points="712.5,-297.25 712.5,-322 903.75,-322 903.75,-297.25 712.5,-297.25"/>
<text xml:space="preserve" text-anchor="start" x="755.62" y="-307.5" font-family="Helvetica,sans-Serif" font-weight="bold" font-size="10.00" fill="#ece1d7">resume_lsn source</text>
<polygon fill="none" stroke="#6e6963" points="903.75,-297.25 903.75,-322 1028.25,-322 1028.25,-297.25 903.75,-297.25"/>
<text xml:space="preserve" text-anchor="start" x="922.12" y="-307.5" font-family="Helvetica,sans-Serif" font-weight="bold" font-size="10.00" fill="#ece1d7">caps apply LSN</text>
<polygon fill="none" stroke="#6e6963" points="393.75,-272.5 393.75,-297.25 504.75,-297.25 504.75,-272.5 393.75,-272.5"/>
<text xml:space="preserve" text-anchor="start" x="406.5" y="-281.5" font-family="Helvetica,sans-Serif" font-size="10.00" fill="#ece1d7">shadow_flush_lsn</text>
<polygon fill="none" stroke="#6e6963" points="504.75,-272.5 504.75,-297.25 712.5,-297.25 712.5,-272.5 504.75,-272.5"/>
<text xml:space="preserve" text-anchor="start" x="544.5" y="-281.5" font-family="Helvetica,sans-Serif" font-size="10.00" fill="#ece1d7">walsender rx &#39;r&#39; aggregate</text>
<polygon fill="none" stroke="#6e6963" points="712.5,-272.5 712.5,-297.25 903.75,-297.25 903.75,-272.5 712.5,-272.5"/>
<text xml:space="preserve" text-anchor="start" x="718.5" y="-281.5" font-family="Helvetica,sans-Serif" font-size="10.00" fill="#ece1d7">streaming&#45;fed shadow resumes here</text>
<polygon fill="none" stroke="#6e6963" points="903.75,-272.5 903.75,-297.25 1028.25,-297.25 1028.25,-272.5 903.75,-272.5"/>
<text xml:space="preserve" text-anchor="start" x="961.12" y="-281.5" font-family="Helvetica,sans-Serif" font-size="10.00" fill="#ece1d7">—</text>
</g>
<!-- a9&#45;&gt;cursor_table -->
<!-- b1 -->
<g id="node12" class="node">
<title>b1</title>
<path fill="#4d3a28" stroke="#6e6963" d="M791.75,-1154.5C791.75,-1154.5 630.25,-1154.5 630.25,-1154.5 624.25,-1154.5 618.25,-1148.5 618.25,-1142.5 618.25,-1142.5 618.25,-1107.5 618.25,-1107.5 618.25,-1101.5 624.25,-1095.5 630.25,-1095.5 630.25,-1095.5 791.75,-1095.5 791.75,-1095.5 797.75,-1095.5 803.75,-1101.5 803.75,-1107.5 803.75,-1107.5 803.75,-1142.5 803.75,-1142.5 803.75,-1148.5 797.75,-1154.5 791.75,-1154.5"/>
<text xml:space="preserve" text-anchor="middle" x="711" y="-1141" font-family="Helvetica,sans-Serif" font-size="10.00" fill="#ece1d7">② OS reaps process</text>
<text xml:space="preserve" text-anchor="middle" x="711" y="-1128.25" font-family="Helvetica,sans-Serif" font-size="10.00" fill="#ece1d7">buffers lost; cursor.bin = last fsync</text>
<text xml:space="preserve" text-anchor="middle" x="711" y="-1115.5" font-family="Helvetica,sans-Serif" font-size="10.00" fill="#ece1d7">spill files on disk</text>
<text xml:space="preserve" text-anchor="middle" x="711" y="-1102.75" font-family="Helvetica,sans-Serif" font-size="10.00" fill="#ece1d7">partial segment write rolled back</text>
</g>
<!-- b0&#45;&gt;b1 -->
<g id="edge10" class="edge">
<title>b0&#45;&gt;b1</title>
<path fill="none" stroke="#c1a78e" d="M711,-1205.97C711,-1194.3 711,-1178.48 711,-1163.98"/>
<polygon fill="#c1a78e" stroke="#c1a78e" points="713.8,-1164.22 711,-1156.22 708.2,-1164.22 713.8,-1164.22"/>
</g>
<!-- c0 -->
<g id="node20" class="node">
<title>c0</title>
<path fill="#403a36" stroke="#6e6963" d="M1091.88,-1143C1091.88,-1143 940.12,-1143 940.12,-1143 934.12,-1143 928.12,-1137 928.12,-1131 928.12,-1131 928.12,-1119 928.12,-1119 928.12,-1113 934.12,-1107 940.12,-1107 940.12,-1107 1091.88,-1107 1091.88,-1107 1097.88,-1107 1103.88,-1113 1103.88,-1119 1103.88,-1119 1103.88,-1131 1103.88,-1131 1103.88,-1137 1097.88,-1143 1091.88,-1143"/>
<text xml:space="preserve" text-anchor="middle" x="1016" y="-1128.25" font-family="Helvetica,sans-Serif" font-size="10.00" fill="#ece1d7">① restart with initialized shadow</text>
<text xml:space="preserve" text-anchor="middle" x="1016" y="-1115.5" font-family="Helvetica,sans-Serif" font-size="10.00" fill="#ece1d7">+ durable cursor</text>
</g>
<!-- b0&#45;&gt;c0 -->
<!-- b2 -->
<g id="node13" class="node">
<title>b2</title>
<path fill="#4d3a28" stroke="#6e6963" d="M785.4,-1062.5C785.4,-1062.5 636.6,-1062.5 636.6,-1062.5 630.6,-1062.5 624.6,-1056.5 624.6,-1050.5 624.6,-1050.5 624.6,-1028.25 624.6,-1028.25 624.6,-1022.25 630.6,-1016.25 636.6,-1016.25 636.6,-1016.25 785.4,-1016.25 785.4,-1016.25 791.4,-1016.25 797.4,-1022.25 797.4,-1028.25 797.4,-1028.25 797.4,-1050.5 797.4,-1050.5 797.4,-1056.5 791.4,-1062.5 785.4,-1062.5"/>
<text xml:space="preserve" text-anchor="middle" x="711" y="-1049" font-family="Helvetica,sans-Serif" font-size="10.00" fill="#ece1d7">③ restart:</text>
<text xml:space="preserve" text-anchor="middle" x="711" y="-1036.25" font-family="Helvetica,sans-Serif" font-size="10.00" fill="#ece1d7">spill::clear() wipes xid&#45;*.bin</text>
<text xml:space="preserve" text-anchor="middle" x="711" y="-1023.5" font-family="Helvetica,sans-Serif" font-size="10.00" fill="#ece1d7">toast_retires.bin survives</text>
</g>
<!-- b1&#45;&gt;b2 -->
<g id="edge11" class="edge">
<title>b1&#45;&gt;b2</title>
<path fill="none" stroke="#c1a78e" d="M711,-1095.22C711,-1087.78 711,-1079.73 711,-1072.14"/>
<polygon fill="#c1a78e" stroke="#c1a78e" points="713.8,-1072.38 711,-1064.38 708.2,-1072.38 713.8,-1072.38"/>
</g>
<!-- b3 -->
<g id="node14" class="node">
<title>b3</title>
<path fill="#4d3a28" stroke="#6e6963" d="M814.25,-973C814.25,-973 607.75,-973 607.75,-973 601.75,-973 595.75,-967 595.75,-961 595.75,-961 595.75,-938.75 595.75,-938.75 595.75,-932.75 601.75,-926.75 607.75,-926.75 607.75,-926.75 814.25,-926.75 814.25,-926.75 820.25,-926.75 826.25,-932.75 826.25,-938.75 826.25,-938.75 826.25,-961 826.25,-961 826.25,-967 820.25,-973 814.25,-973"/>
<text xml:space="preserve" text-anchor="middle" x="711" y="-959.5" font-family="Helvetica,sans-Serif" font-size="10.00" fill="#ece1d7">④ cursor::read</text>
<text xml:space="preserve" text-anchor="middle" x="711" y="-946.75" font-family="Helvetica,sans-Serif" font-size="10.00" fill="#ece1d7">resume_lsn = segment&#45;aligned emitter_ack</text>
<text xml:space="preserve" text-anchor="middle" x="711" y="-934" font-family="Helvetica,sans-Serif" font-size="10.00" fill="#ece1d7">flush due toast mirror retires</text>
</g>
<!-- b2&#45;&gt;b3 -->
<g id="edge12" class="edge">
<title>b2&#45;&gt;b3</title>
<path fill="none" stroke="#c1a78e" d="M711,-1015.84C711,-1005.74 711,-993.64 711,-982.64"/>
<polygon fill="#c1a78e" stroke="#c1a78e" points="713.8,-982.85 711,-974.85 708.2,-982.85 713.8,-982.85"/>
</g>
<!-- b4 -->
<g id="node15" class="node">
<title>b4</title>
<path fill="#3d4128" stroke="#6e6963" d="M789.12,-872C789.12,-872 632.88,-872 632.88,-872 626.88,-872 620.88,-866 620.88,-860 620.88,-860 620.88,-848 620.88,-848 620.88,-842 626.88,-836 632.88,-836 632.88,-836 789.12,-836 789.12,-836 795.12,-836 801.12,-842 801.12,-848 801.12,-848 801.12,-860 801.12,-860 801.12,-866 795.12,-872 789.12,-872"/>
<text xml:space="preserve" text-anchor="middle" x="711" y="-857.25" font-family="Helvetica,sans-Serif" font-size="10.00" fill="#ece1d7">⑤ shadow PG recovers on its own</text>
<text xml:space="preserve" text-anchor="middle" x="711" y="-844.5" font-family="Helvetica,sans-Serif" font-size="10.00" fill="#ece1d7">walreceiver retry timer</text>
</g>
<!-- b3&#45;&gt;b4 -->
<g id="edge13" class="edge">
<title>b3&#45;&gt;b4</title>
<path fill="none" stroke="#c1a78e" d="M711,-926.63C711,-913.15 711,-895.87 711,-881.66"/>
<polygon fill="#c1a78e" stroke="#c1a78e" points="713.8,-881.91 711,-873.91 708.2,-881.91 713.8,-881.91"/>
</g>
<!-- b5 -->
<g id="node16" class="node">
<title>b5</title>
<path fill="#3d4128" stroke="#6e6963" d="M795.5,-781.25C795.5,-781.25 626.5,-781.25 626.5,-781.25 620.5,-781.25 614.5,-775.25 614.5,-769.25 614.5,-769.25 614.5,-757.25 614.5,-757.25 614.5,-751.25 620.5,-745.25 626.5,-745.25 626.5,-745.25 795.5,-745.25 795.5,-745.25 801.5,-745.25 807.5,-751.25 807.5,-757.25 807.5,-757.25 807.5,-769.25 807.5,-769.25 807.5,-775.25 801.5,-781.25 795.5,-781.25"/>
<text xml:space="preserve" text-anchor="middle" x="711" y="-766.5" font-family="Helvetica,sans-Serif" font-size="10.00" fill="#ece1d7">⑥ shadow asks START_REPLICATION</text>
<text xml:space="preserve" text-anchor="middle" x="711" y="-753.75" font-family="Helvetica,sans-Serif" font-size="10.00" fill="#ece1d7">PHYSICAL &lt;its flush_lsn&gt;</text>
</g>
<!-- b4&#45;&gt;b5 -->
<g id="edge14" class="edge">
<title>b4&#45;&gt;b5</title>
<path fill="none" stroke="#c1a78e" d="M711,-835.89C711,-823.2 711,-805.66 711,-791.11"/>
<polygon fill="#c1a78e" stroke="#c1a78e" points="713.8,-791.13 711,-783.13 708.2,-791.13 713.8,-791.13"/>
</g>
<!-- b6 -->
<g id="node17" class="node">
<title>b6</title>
<path fill="#4d3a28" stroke="#6e6963" d="M796.25,-702C796.25,-702 625.75,-702 625.75,-702 619.75,-702 613.75,-696 613.75,-690 613.75,-690 613.75,-667.75 613.75,-667.75 613.75,-661.75 619.75,-655.75 625.75,-655.75 625.75,-655.75 796.25,-655.75 796.25,-655.75 802.25,-655.75 808.25,-661.75 808.25,-667.75 808.25,-667.75 808.25,-690 808.25,-690 808.25,-696 802.25,-702 796.25,-702"/>
<text xml:space="preserve" text-anchor="middle" x="711" y="-688.5" font-family="Helvetica,sans-Serif" font-size="10.00" fill="#ece1d7">⑦ walshadow honours both:</text>
<text xml:space="preserve" text-anchor="middle" x="711" y="-675.75" font-family="Helvetica,sans-Serif" font-size="10.00" fill="#ece1d7">• upstream feed at resume_lsn</text>
<text xml:space="preserve" text-anchor="middle" x="711" y="-663" font-family="Helvetica,sans-Serif" font-size="10.00" fill="#ece1d7">• shadow feed at shadow&#39;s flush_lsn</text>
</g>
<!-- b5&#45;&gt;b6 -->
<g id="edge15" class="edge">
<title>b5&#45;&gt;b6</title>
<path fill="none" stroke="#c1a78e" d="M711,-744.78C711,-735.21 711,-723.05 711,-711.85"/>
<polygon fill="#c1a78e" stroke="#c1a78e" points="713.8,-711.85 711,-703.85 708.2,-711.85 713.8,-711.85"/>
</g>
<!-- b7 -->
<g id="node18" class="node">
<title>b7</title>
<path fill="#4d4128" stroke="#6e6963" d="M785.4,-622.75C785.4,-622.75 636.6,-622.75 636.6,-622.75 630.6,-622.75 624.6,-616.75 624.6,-610.75 624.6,-610.75 624.6,-588.5 624.6,-588.5 624.6,-582.5 630.6,-576.5 636.6,-576.5 636.6,-576.5 785.4,-576.5 785.4,-576.5 791.4,-576.5 797.4,-582.5 797.4,-588.5 797.4,-588.5 797.4,-610.75 797.4,-610.75 797.4,-616.75 791.4,-622.75 785.4,-622.75"/>
<text xml:space="preserve" text-anchor="middle" x="711" y="-609.25" font-family="Helvetica,sans-Serif" font-size="10.00" fill="#ece1d7">⑧ overlap records replayed</text>
<text xml:space="preserve" text-anchor="middle" x="711" y="-596.5" font-family="Helvetica,sans-Serif" font-size="10.00" fill="#ece1d7">CH dedups on _lsn</text>
<text xml:space="preserve" text-anchor="middle" x="711" y="-583.75" font-family="Helvetica,sans-Serif" font-size="10.00" fill="#ece1d7">shadow apply monotonic</text>
</g>
<!-- b6&#45;&gt;b7 -->
<g id="edge16" class="edge">
<title>b6&#45;&gt;b7</title>
<path fill="none" stroke="#c1a78e" d="M711,-655.53C711,-648.39 711,-640.33 711,-632.64"/>
<polygon fill="#c1a78e" stroke="#c1a78e" points="713.8,-632.7 711,-624.7 708.2,-632.7 713.8,-632.7"/>
</g>
<!-- b8 -->
<g id="node19" class="node">
<title>b8</title>
<path fill="#4d3a28" stroke="#6e6963" d="M785.4,-543.5C785.4,-543.5 636.6,-543.5 636.6,-543.5 630.6,-543.5 624.6,-537.5 624.6,-531.5 624.6,-531.5 624.6,-519.5 624.6,-519.5 624.6,-513.5 630.6,-507.5 636.6,-507.5 636.6,-507.5 785.4,-507.5 785.4,-507.5 791.4,-507.5 797.4,-513.5 797.4,-519.5 797.4,-519.5 797.4,-531.5 797.4,-531.5 797.4,-537.5 791.4,-543.5 785.4,-543.5"/>
<text xml:space="preserve" text-anchor="middle" x="711" y="-522.38" font-family="Helvetica,sans-Serif" font-size="10.00" fill="#ece1d7">⑨ steady&#45;state reached</text>
</g>
<!-- b7&#45;&gt;b8 -->
<g id="edge17" class="edge">
<title>b7&#45;&gt;b8</title>
<path fill="none" stroke="#c1a78e" d="M711,-576.2C711,-568.95 711,-560.85 711,-553.32"/>
<polygon fill="#c1a78e" stroke="#c1a78e" points="713.8,-553.38 711,-545.38 708.2,-553.38 713.8,-553.38"/>
</g>
<!-- b8&#45;&gt;cursor_table -->
<!-- c1 -->
<g id="node21" class="node">
<title>c1</title>
<path fill="#4d3a28" stroke="#6e6963" d="M1221.5,-1057.38C1221.5,-1057.38 1058.5,-1057.38 1058.5,-1057.38 1052.5,-1057.38 1046.5,-1051.38 1046.5,-1045.38 1046.5,-1045.38 1046.5,-1033.38 1046.5,-1033.38 1046.5,-1027.38 1052.5,-1021.38 1058.5,-1021.38 1058.5,-1021.38 1221.5,-1021.38 1221.5,-1021.38 1227.5,-1021.38 1233.5,-1027.38 1233.5,-1033.38 1233.5,-1033.38 1233.5,-1045.38 1233.5,-1045.38 1233.5,-1051.38 1227.5,-1057.38 1221.5,-1057.38"/>
<text xml:space="preserve" text-anchor="middle" x="1140" y="-1042.62" font-family="Helvetica,sans-Serif" font-size="10.00" fill="#ece1d7">② skip base backup</text>
<text xml:space="preserve" text-anchor="middle" x="1140" y="-1029.88" font-family="Helvetica,sans-Serif" font-size="10.00" fill="#ece1d7">START_REPLICATION at resume_lsn</text>
</g>
<!-- c0&#45;&gt;c1 -->
<g id="edge18" class="edge">
<title>c0&#45;&gt;c1</title>
<path fill="none" stroke="#c1a78e" d="M1041.69,-1106.67C1060.48,-1094 1086.14,-1076.7 1106.53,-1062.95"/>
<polygon fill="#c1a78e" stroke="#c1a78e" points="1108.02,-1065.32 1113.09,-1058.53 1104.89,-1060.68 1108.02,-1065.32"/>
</g>
<!-- c2 -->
<g id="node22" class="node">
<title>c2</title>
<path fill="#4d3a28" stroke="#6e6963" d="M1214.4,-967.88C1214.4,-967.88 1065.6,-967.88 1065.6,-967.88 1059.6,-967.88 1053.6,-961.88 1053.6,-955.88 1053.6,-955.88 1053.6,-943.88 1053.6,-943.88 1053.6,-937.88 1059.6,-931.88 1065.6,-931.88 1065.6,-931.88 1214.4,-931.88 1214.4,-931.88 1220.4,-931.88 1226.4,-937.88 1226.4,-943.88 1226.4,-943.88 1226.4,-955.88 1226.4,-955.88 1226.4,-961.88 1220.4,-967.88 1214.4,-967.88"/>
<text xml:space="preserve" text-anchor="middle" x="1140" y="-953.12" font-family="Helvetica,sans-Serif" font-size="10.00" fill="#ece1d7">③ source reports 58P01</text>
<text xml:space="preserve" text-anchor="middle" x="1140" y="-940.38" font-family="Helvetica,sans-Serif" font-size="10.00" fill="#ece1d7">requested WAL removed</text>
</g>
<!-- c1&#45;&gt;c2 -->
<g id="edge20" class="edge">
<title>c1&#45;&gt;c2</title>
<path fill="none" stroke="#bd8183" d="M1140,-1021.09C1140,-1008.62 1140,-991.57 1140,-977.39"/>
<polygon fill="#bd8183" stroke="#bd8183" points="1142.8,-977.64 1140,-969.64 1137.2,-977.64 1142.8,-977.64"/>
<text xml:space="preserve" text-anchor="middle" x="1154.62" y="-991.7" font-family="Helvetica,sans-Serif" font-size="9.00" fill="#bd8183">58P01</text>
</g>
<!-- c7 -->
<g id="node27" class="node">
<title>c7</title>
<path fill="#4d4128" stroke="#6e6963" d="M1113.75,-617.62C1113.75,-617.62 940.25,-617.62 940.25,-617.62 934.25,-617.62 928.25,-611.62 928.25,-605.62 928.25,-605.62 928.25,-593.62 928.25,-593.62 928.25,-587.62 934.25,-581.62 940.25,-581.62 940.25,-581.62 1113.75,-581.62 1113.75,-581.62 1119.75,-581.62 1125.75,-587.62 1125.75,-593.62 1125.75,-593.62 1125.75,-605.62 1125.75,-605.62 1125.75,-611.62 1119.75,-617.62 1113.75,-617.62"/>
<text xml:space="preserve" text-anchor="middle" x="1027" y="-602.88" font-family="Helvetica,sans-Serif" font-size="10.00" fill="#ece1d7">⑦ steady&#45;state reached</text>
<text xml:space="preserve" text-anchor="middle" x="1027" y="-590.12" font-family="Helvetica,sans-Serif" font-size="10.00" fill="#ece1d7">CH ReplacingMergeTree(_lsn) dedups</text>
</g>
<!-- c1&#45;&gt;c7 -->
<g id="edge19" class="edge">
<title>c1&#45;&gt;c7</title>
<path fill="none" stroke="#8fa875" d="M1177.38,-1021.09C1197.66,-1009.98 1221.65,-993.73 1237,-973 1323.74,-855.88 1413.04,-767.93 1320,-655.75 1296.51,-627.43 1208.75,-613.56 1135.34,-606.83"/>
<polygon fill="#8fa875" stroke="#8fa875" points="1135.73,-604.06 1127.51,-606.14 1135.24,-609.63 1135.73,-604.06"/>
<text xml:space="preserve" text-anchor="middle" x="1370.94" y="-799.95" font-family="Helvetica,sans-Serif" font-size="9.00" fill="#8fa875">available</text>
</g>
<!-- c3 -->
<g id="node23" class="node">
<title>c3</title>
<path fill="#4d3340" stroke="#6e6963" d="M1177.4,-877.12C1177.4,-877.12 1028.6,-877.12 1028.6,-877.12 1022.6,-877.12 1016.6,-871.12 1016.6,-865.12 1016.6,-865.12 1016.6,-842.88 1016.6,-842.88 1016.6,-836.88 1022.6,-830.88 1028.6,-830.88 1028.6,-830.88 1177.4,-830.88 1177.4,-830.88 1183.4,-830.88 1189.4,-836.88 1189.4,-842.88 1189.4,-842.88 1189.4,-865.12 1189.4,-865.12 1189.4,-871.12 1183.4,-877.12 1177.4,-877.12"/>
<text xml:space="preserve" text-anchor="middle" x="1103" y="-863.62" font-family="Helvetica,sans-Serif" font-size="10.00" fill="#ece1d7">④ fetch consecutive [backup]</text>
<text xml:space="preserve" text-anchor="middle" x="1103" y="-850.88" font-family="Helvetica,sans-Serif" font-size="10.00" fill="#ece1d7">segments; replay through live</text>
<text xml:space="preserve" text-anchor="middle" x="1103" y="-838.12" font-family="Helvetica,sans-Serif" font-size="10.00" fill="#ece1d7">filter + decode sinks</text>
</g>
<!-- c2&#45;&gt;c3 -->
<g id="edge21" class="edge">
<title>c2&#45;&gt;c3</title>
<path fill="none" stroke="#8fa875" d="M1132.83,-931.44C1130.19,-924.95 1127.18,-917.53 1124.5,-910.75 1121.36,-902.83 1118.03,-894.26 1114.94,-886.26"/>
<polygon fill="#8fa875" stroke="#8fa875" points="1117.62,-885.42 1112.13,-878.96 1112.39,-887.44 1117.62,-885.42"/>
<text xml:space="preserve" text-anchor="middle" x="1167.25" y="-902.2" font-family="Helvetica,sans-Serif" font-size="9.00" fill="#8fa875">archive configured</text>
</g>
<!-- c6 -->
<g id="node26" class="node">
<title>c6</title>
<path fill="#403a36" stroke="#6e6963" d="M1297.12,-696.88C1297.12,-696.88 1134.88,-696.88 1134.88,-696.88 1128.88,-696.88 1122.88,-690.88 1122.88,-684.88 1122.88,-684.88 1122.88,-672.88 1122.88,-672.88 1122.88,-666.88 1128.88,-660.88 1134.88,-660.88 1134.88,-660.88 1297.12,-660.88 1297.12,-660.88 1303.12,-660.88 1309.12,-666.88 1309.12,-672.88 1309.12,-672.88 1309.12,-684.88 1309.12,-684.88 1309.12,-690.88 1303.12,-696.88 1297.12,-696.88"/>
<text xml:space="preserve" text-anchor="middle" x="1216" y="-682.12" font-family="Helvetica,sans-Serif" font-size="10.00" fill="#ece1d7">⑥ neither source has WAL</text>
<text xml:space="preserve" text-anchor="middle" x="1216" y="-669.38" font-family="Helvetica,sans-Serif" font-size="10.00" fill="#ece1d7">exit; operator decides base refresh</text>
</g>
<!-- c2&#45;&gt;c6 -->
<g id="edge22" class="edge">
<title>c2&#45;&gt;c6</title>
<path fill="none" stroke="#bd8183" d="M1189.15,-931.41C1197.82,-926.11 1205.74,-919.34 1211,-910.75 1221.43,-893.74 1218.66,-763.6 1216.92,-706.54"/>
<polygon fill="#bd8183" stroke="#bd8183" points="1219.72,-706.52 1216.66,-698.61 1214.12,-706.69 1219.72,-706.52"/>
<text xml:space="preserve" text-anchor="middle" x="1242.23" y="-799.95" font-family="Helvetica,sans-Serif" font-size="9.00" fill="#bd8183">no archive</text>
</g>
<!-- c4 -->
<g id="node24" class="node">
<title>c4</title>
<path fill="#4d3a28" stroke="#6e6963" d="M1180.75,-781.25C1180.75,-781.25 1007.25,-781.25 1007.25,-781.25 1001.25,-781.25 995.25,-775.25 995.25,-769.25 995.25,-769.25 995.25,-757.25 995.25,-757.25 995.25,-751.25 1001.25,-745.25 1007.25,-745.25 1007.25,-745.25 1180.75,-745.25 1180.75,-745.25 1186.75,-745.25 1192.75,-751.25 1192.75,-757.25 1192.75,-757.25 1192.75,-769.25 1192.75,-769.25 1192.75,-775.25 1186.75,-781.25 1180.75,-781.25"/>
<text xml:space="preserve" text-anchor="middle" x="1094" y="-766.5" font-family="Helvetica,sans-Serif" font-size="10.00" fill="#ece1d7">⑤ archive lacks next segment</text>
<text xml:space="preserve" text-anchor="middle" x="1094" y="-753.75" font-family="Helvetica,sans-Serif" font-size="10.00" fill="#ece1d7">START_REPLICATION at exact handoff</text>
</g>
<!-- c3&#45;&gt;c4 -->
<g id="edge23" class="edge">
<title>c3&#45;&gt;c4</title>
<path fill="none" stroke="#c1a78e" d="M1100.73,-830.6C1099.5,-818.49 1097.98,-803.46 1096.69,-790.76"/>
<polygon fill="#c1a78e" stroke="#c1a78e" points="1099.5,-790.78 1095.91,-783.1 1093.93,-791.35 1099.5,-790.78"/>
</g>
<!-- c5 -->
<g id="node25" class="node">
<title>c5</title>
<path fill="#4d3a28" stroke="#6e6963" d="M1088.4,-696.88C1088.4,-696.88 939.6,-696.88 939.6,-696.88 933.6,-696.88 927.6,-690.88 927.6,-684.88 927.6,-684.88 927.6,-672.88 927.6,-672.88 927.6,-666.88 933.6,-660.88 939.6,-660.88 939.6,-660.88 1088.4,-660.88 1088.4,-660.88 1094.4,-660.88 1100.4,-666.88 1100.4,-672.88 1100.4,-672.88 1100.4,-684.88 1100.4,-684.88 1100.4,-690.88 1094.4,-696.88 1088.4,-696.88"/>
<text xml:space="preserve" text-anchor="middle" x="1014" y="-682.12" font-family="Helvetica,sans-Serif" font-size="10.00" fill="#ece1d7">⑥ source has handoff WAL</text>
<text xml:space="preserve" text-anchor="middle" x="1014" y="-669.38" font-family="Helvetica,sans-Serif" font-size="10.00" fill="#ece1d7">resume live stream</text>
</g>
<!-- c4&#45;&gt;c5 -->
<g id="edge24" class="edge">
<title>c4&#45;&gt;c5</title>
<path fill="none" stroke="#8fa875" d="M1077.03,-744.78C1065.47,-732.88 1050.02,-716.96 1037.3,-703.87"/>
<polygon fill="#8fa875" stroke="#8fa875" points="1039.58,-702.19 1032,-698.41 1035.56,-706.09 1039.58,-702.19"/>
<text xml:space="preserve" text-anchor="middle" x="1080.67" y="-720.7" font-family="Helvetica,sans-Serif" font-size="9.00" fill="#8fa875">available</text>
</g>
<!-- c4&#45;&gt;c6 -->
<g id="edge25" class="edge">
<title>c4&#45;&gt;c6</title>
<path fill="none" stroke="#bd8183" d="M1119.87,-744.78C1138.07,-732.49 1162.59,-715.94 1182.31,-702.62"/>
<polygon fill="#bd8183" stroke="#bd8183" points="1183.85,-704.96 1188.91,-698.17 1180.71,-700.32 1183.85,-704.96"/>
<text xml:space="preserve" text-anchor="middle" x="1173.28" y="-720.7" font-family="Helvetica,sans-Serif" font-size="9.00" fill="#bd8183">58P01</text>
</g>
<!-- c5&#45;&gt;c7 -->
<g id="edge26" class="edge">
<title>c5&#45;&gt;c7</title>
<path fill="none" stroke="#c1a78e" d="M1016.89,-660.73C1018.54,-650.9 1020.65,-638.34 1022.52,-627.25"/>
<polygon fill="#c1a78e" stroke="#c1a78e" points="1025.26,-627.83 1023.83,-619.48 1019.74,-626.91 1025.26,-627.83"/>
</g>
<!-- c7&#45;&gt;cursor_table -->
<!-- legend -->
<g id="node29" class="node">
<title>legend</title>
<path fill="#6e6963" stroke="none" d="M823.88,-235.5C823.88,-235.5 598.12,-235.5 598.12,-235.5 592.12,-235.5 586.12,-229.5 586.12,-223.5 586.12,-223.5 586.12,-12 586.12,-12 586.12,-6 592.12,0 598.12,0 598.12,0 823.88,0 823.88,0 829.88,0 835.88,-6 835.88,-12 835.88,-12 835.88,-223.5 835.88,-223.5 835.88,-229.5 829.88,-235.5 823.88,-235.5"/>
<polygon fill="#34302c" stroke="none" points="594.12,-208.75 594.12,-231.5 827.88,-231.5 827.88,-208.75 594.12,-208.75"/>
<polygon fill="none" stroke="#6e6963" points="594.12,-208.75 594.12,-231.5 827.88,-231.5 827.88,-208.75 594.12,-208.75"/>
<text xml:space="preserve" text-anchor="start" x="687.75" y="-218" font-family="Helvetica,sans-Serif" font-weight="bold" font-size="10.00" fill="#ece1d7">node fill</text>
<polygon fill="#403a36" stroke="none" points="594.12,-186 594.12,-208.75 622.12,-208.75 622.12,-186 594.12,-186"/>
<polygon fill="none" stroke="#6e6963" points="594.12,-186 594.12,-208.75 622.12,-208.75 622.12,-186 594.12,-186"/>
<polygon fill="none" stroke="#6e6963" points="622.12,-186 622.12,-208.75 827.88,-208.75 827.88,-186 622.12,-186"/>
<text xml:space="preserve" text-anchor="start" x="677.75" y="-194" font-family="Helvetica,sans-Serif" font-size="10.00" fill="#ece1d7">operator / OS event</text>
<polygon fill="#4d3a28" stroke="none" points="594.12,-163.25 594.12,-186 622.12,-186 622.12,-163.25 594.12,-163.25"/>
<polygon fill="none" stroke="#6e6963" points="594.12,-163.25 594.12,-186 622.12,-186 622.12,-163.25 594.12,-163.25"/>
<polygon fill="none" stroke="#6e6963" points="622.12,-163.25 622.12,-186 827.88,-186 827.88,-163.25 622.12,-163.25"/>
<text xml:space="preserve" text-anchor="start" x="678.5" y="-171.25" font-family="Helvetica,sans-Serif" font-size="10.00" fill="#ece1d7">walshadow&#45;stream</text>
<polygon fill="#4d3340" stroke="none" points="594.12,-140.5 594.12,-163.25 622.12,-163.25 622.12,-140.5 594.12,-140.5"/>
<polygon fill="none" stroke="#6e6963" points="594.12,-140.5 594.12,-163.25 622.12,-163.25 622.12,-140.5 594.12,-140.5"/>
<polygon fill="none" stroke="#6e6963" points="622.12,-140.5 622.12,-163.25 827.88,-163.25 827.88,-140.5 622.12,-140.5"/>
<text xml:space="preserve" text-anchor="start" x="627.12" y="-148.5" font-family="Helvetica,sans-Serif" font-size="10.00" fill="#ece1d7">walshadow — segment / walsender side</text>
<polygon fill="#3d4128" stroke="none" points="594.12,-117.75 594.12,-140.5 622.12,-140.5 622.12,-117.75 594.12,-117.75"/>
<polygon fill="none" stroke="#6e6963" points="594.12,-117.75 594.12,-140.5 622.12,-140.5 622.12,-117.75 594.12,-117.75"/>
<polygon fill="none" stroke="#6e6963" points="622.12,-117.75 622.12,-140.5 827.88,-140.5 827.88,-117.75 622.12,-117.75"/>
<text xml:space="preserve" text-anchor="start" x="683.75" y="-125.75" font-family="Helvetica,sans-Serif" font-size="10.00" fill="#ece1d7">shadow Postgres</text>
<polygon fill="#4d4128" stroke="none" points="594.12,-95 594.12,-117.75 622.12,-117.75 622.12,-95 594.12,-95"/>
<polygon fill="none" stroke="#6e6963" points="594.12,-95 594.12,-117.75 622.12,-117.75 622.12,-95 594.12,-95"/>
<polygon fill="none" stroke="#6e6963" points="622.12,-95 622.12,-117.75 827.88,-117.75 827.88,-95 622.12,-95"/>
<text xml:space="preserve" text-anchor="start" x="654.5" y="-103" font-family="Helvetica,sans-Serif" font-size="10.00" fill="#ece1d7">ClickHouse (dedup endpoint)</text>
<polygon fill="#34302c" stroke="none" points="594.12,-72.25 594.12,-95 827.88,-95 827.88,-72.25 594.12,-72.25"/>
<polygon fill="none" stroke="#6e6963" points="594.12,-72.25 594.12,-95 827.88,-95 827.88,-72.25 594.12,-72.25"/>
<text xml:space="preserve" text-anchor="start" x="644.25" y="-81.5" font-family="Helvetica,sans-Serif" font-weight="bold" font-size="10.00" fill="#ece1d7">scenario cluster border</text>
<polygon fill="none" stroke="#6e6963" points="594.12,-49.5 594.12,-72.25 622.12,-72.25 622.12,-49.5 594.12,-49.5"/>
<text xml:space="preserve" text-anchor="start" x="605.12" y="-58.75" font-family="Helvetica,sans-Serif" font-weight="bold" font-size="10.00" fill="#a1a9cc">━</text>
<polygon fill="none" stroke="#6e6963" points="622.12,-49.5 622.12,-72.25 827.88,-72.25 827.88,-49.5 622.12,-49.5"/>
<text xml:space="preserve" text-anchor="start" x="660.5" y="-57.5" font-family="Helvetica,sans-Serif" font-size="10.00" fill="#ece1d7">A. clean restart (SIGTERM)</text>
<polygon fill="none" stroke="#6e6963" points="594.12,-26.75 594.12,-49.5 622.12,-49.5 622.12,-26.75 594.12,-26.75"/>
<text xml:space="preserve" text-anchor="start" x="605.12" y="-36" font-family="Helvetica,sans-Serif" font-weight="bold" font-size="10.00" fill="#cba85e">━</text>
<polygon fill="none" stroke="#6e6963" points="622.12,-26.75 622.12,-49.5 827.88,-49.5 827.88,-26.75 622.12,-26.75"/>
<text xml:space="preserve" text-anchor="start" x="674.75" y="-34.75" font-family="Helvetica,sans-Serif" font-size="10.00" fill="#ece1d7">B. kill &#45;9 mid&#45;stream</text>
<polygon fill="none" stroke="#6e6963" points="594.12,-4 594.12,-26.75 622.12,-26.75 622.12,-4 594.12,-4"/>
<text xml:space="preserve" text-anchor="start" x="605.12" y="-13.25" font-family="Helvetica,sans-Serif" font-weight="bold" font-size="10.00" fill="#bd8183">━</text>
<polygon fill="none" stroke="#6e6963" points="622.12,-4 622.12,-26.75 827.88,-26.75 827.88,-4 622.12,-4"/>
<text xml:space="preserve" text-anchor="start" x="654.12" y="-12" font-family="Helvetica,sans-Serif" font-size="10.00" fill="#ece1d7">C. source → archive → source</text>
</g>
<!-- cursor_table&#45;&gt;legend -->
</g>
</svg>
