<?xml version="1.0" encoding="UTF-8" standalone="no"?>
<!DOCTYPE svg PUBLIC "-//W3C//DTD SVG 1.1//EN"
 "http://www.w3.org/Graphics/SVG/1.1/DTD/svg11.dtd">
<!-- Generated by graphviz version 14.1.5 (0)
 -->
<!-- Title: timeline_streaming Pages: 1 -->
<svg width="4205pt" height="698pt"
 viewBox="0.00 0.00 4205.00 698.00" xmlns="http://www.w3.org/2000/svg" xmlns:xlink="http://www.w3.org/1999/xlink">
<g id="graph0" class="graph" transform="scale(1 1) rotate(0) translate(4 694)">
<title>timeline_streaming</title>
<polygon fill="#272623" stroke="none" points="-4,4 -4,-694 4201.25,-694 4201.25,4 -4,4"/>
<text xml:space="preserve" text-anchor="middle" x="2098.63" y="-672.7" font-family="Helvetica,sans-Serif" font-size="14.00" fill="#ece1d7">walshadow steady&#45;state streaming — one record&#39;s journey through hot path</text>
<g id="clust1" class="cluster">
<title>cluster_p1</title>
<path fill="#34302c" stroke="#4c4641" d="M20,-153C20,-153 484.5,-153 484.5,-153 490.5,-153 496.5,-159 496.5,-165 496.5,-165 496.5,-218 496.5,-218 496.5,-224 490.5,-230 484.5,-230 484.5,-230 20,-230 20,-230 14,-230 8,-224 8,-218 8,-218 8,-165 8,-165 8,-159 14,-153 20,-153"/>
<text xml:space="preserve" text-anchor="middle" x="252.25" y="-212.7" font-family="Helvetica,sans-Serif" font-size="14.00" fill="#ece1d7">① ingress</text>
</g>
<g id="clust2" class="cluster">
<title>cluster_p2</title>
<path fill="#34302c" stroke="#4c4641" d="M537.5,-137C537.5,-137 1238,-137 1238,-137 1244,-137 1250,-143 1250,-149 1250,-149 1250,-234 1250,-234 1250,-240 1244,-246 1238,-246 1238,-246 537.5,-246 537.5,-246 531.5,-246 525.5,-240 525.5,-234 525.5,-234 525.5,-149 525.5,-149 525.5,-143 531.5,-137 537.5,-137"/>
<text xml:space="preserve" text-anchor="middle" x="887.75" y="-228.7" font-family="Helvetica,sans-Serif" font-size="14.00" fill="#ece1d7">② filter + rewrite</text>
</g>
<g id="clust3" class="cluster">
<title>cluster_p3</title>
<path fill="#34302c" stroke="#4c4641" d="M1291,-88C1291,-88 1601.75,-88 1601.75,-88 1607.75,-88 1613.75,-94 1613.75,-100 1613.75,-100 1613.75,-283 1613.75,-283 1613.75,-289 1607.75,-295 1601.75,-295 1601.75,-295 1291,-295 1291,-295 1285,-295 1279,-289 1279,-283 1279,-283 1279,-100 1279,-100 1279,-94 1285,-88 1291,-88"/>
<text xml:space="preserve" text-anchor="middle" x="1446.38" y="-277.7" font-family="Helvetica,sans-Serif" font-size="14.00" fill="#ece1d7">③ fan&#45;out (sync dispatch — ordering matters)</text>
</g>
<g id="clust4" class="cluster">
<title>cluster_p4</title>
<path fill="#34302c" stroke="#4c4641" d="M1654.75,-213C1654.75,-213 1996.5,-213 1996.5,-213 2002.5,-213 2008.5,-219 2008.5,-225 2008.5,-225 2008.5,-283 2008.5,-283 2008.5,-289 2002.5,-295 1996.5,-295 1996.5,-295 1654.75,-295 1654.75,-295 1648.75,-295 1642.75,-289 1642.75,-283 1642.75,-283 1642.75,-225 1642.75,-225 1642.75,-219 1648.75,-213 1654.75,-213"/>
<text xml:space="preserve" text-anchor="middle" x="1825.63" y="-277.7" font-family="Helvetica,sans-Serif" font-size="14.00" fill="#ece1d7">④ shadow apply &#160;(record cadence, ms)</text>
</g>
<g id="clust5" class="cluster">
<title>cluster_p5</title>
<path fill="#34302c" stroke="#4c4641" d="M2119.75,-213C2119.75,-213 2526.5,-213 2526.5,-213 2532.5,-213 2538.5,-219 2538.5,-225 2538.5,-225 2538.5,-288 2538.5,-288 2538.5,-294 2532.5,-300 2526.5,-300 2526.5,-300 2119.75,-300 2119.75,-300 2113.75,-300 2107.75,-294 2107.75,-288 2107.75,-288 2107.75,-225 2107.75,-225 2107.75,-219 2113.75,-213 2119.75,-213"/>
<text xml:space="preserve" text-anchor="middle" x="2323.13" y="-282.7" font-family="Helvetica,sans-Serif" font-size="14.00" fill="#ece1d7">⑤ decoder gate clears + xact buffer &#160;(gated on ④)</text>
</g>
<g id="clust6" class="cluster">
<title>cluster_p6</title>
<path fill="#34302c" stroke="#4c4641" d="M2655.75,-247C2655.75,-247 3776.63,-247 3776.63,-247 3782.63,-247 3788.63,-253 3788.63,-259 3788.63,-259 3788.63,-392 3788.63,-392 3788.63,-398 3782.63,-404 3776.63,-404 3776.63,-404 2655.75,-404 2655.75,-404 2649.75,-404 2643.75,-398 2643.75,-392 2643.75,-392 2643.75,-259 2643.75,-259 2643.75,-253 2649.75,-247 2655.75,-247"/>
<text xml:space="preserve" text-anchor="middle" x="3216.19" y="-386.7" font-family="Helvetica,sans-Serif" font-size="14.00" fill="#ece1d7">⑥ XLOG_XACT_COMMIT &#160;→ drain → CH</text>
</g>
<g id="clust7" class="cluster">
<title>cluster_p7</title>
<path fill="#34302c" stroke="#4c4641" d="M3633.25,-8C3633.25,-8 4068.88,-8 4068.88,-8 4074.88,-8 4080.88,-14 4080.88,-20 4080.88,-20 4080.88,-227 4080.88,-227 4080.88,-233 4074.88,-239 4068.88,-239 4068.88,-239 3633.25,-239 3633.25,-239 3627.25,-239 3621.25,-233 3621.25,-227 3621.25,-227 3621.25,-20 3621.25,-20 3621.25,-14 3627.25,-8 3633.25,-8"/>
<text xml:space="preserve" text-anchor="middle" x="3851.07" y="-221.7" font-family="Helvetica,sans-Serif" font-size="14.00" fill="#ece1d7">⑦ async durability &#160;(off hot path, segment / cursor cadence)</text>
</g>
<!-- commit -->
<g id="node1" class="node">
<title>commit</title>
<path fill="#3d3d54" stroke="#6e6963" d="M143.75,-197C143.75,-197 28,-197 28,-197 22,-197 16,-191 16,-185 16,-185 16,-173 16,-173 16,-167 22,-161 28,-161 28,-161 143.75,-161 143.75,-161 149.75,-161 155.75,-167 155.75,-173 155.75,-173 155.75,-185 155.75,-185 155.75,-191 149.75,-197 143.75,-197"/>
<text xml:space="preserve" text-anchor="middle" x="85.88" y="-182.25" font-family="Helvetica,sans-Serif" font-size="10.00" fill="#ece1d7">COMMIT on demo.users</text>
<text xml:space="preserve" text-anchor="middle" x="85.88" y="-169.5" font-family="Helvetica,sans-Serif" font-size="10.00" fill="#ece1d7">UPDATE → WAL @ LSN=X</text>
</g>
<!-- wsend -->
<g id="node2" class="node">
<title>wsend</title>
<path fill="#3d3d54" stroke="#6e6963" d="M302.25,-197C302.25,-197 212.75,-197 212.75,-197 206.75,-197 200.75,-191 200.75,-185 200.75,-185 200.75,-173 200.75,-173 200.75,-167 206.75,-161 212.75,-161 212.75,-161 302.25,-161 302.25,-161 308.25,-161 314.25,-167 314.25,-173 314.25,-173 314.25,-185 314.25,-185 314.25,-191 308.25,-197 302.25,-197"/>
<text xml:space="preserve" text-anchor="middle" x="257.5" y="-182.25" font-family="Helvetica,sans-Serif" font-size="10.00" fill="#ece1d7">source walsender</text>
<text xml:space="preserve" text-anchor="middle" x="257.5" y="-169.5" font-family="Helvetica,sans-Serif" font-size="10.00" fill="#ece1d7">CopyData &#39;w&#39; frame</text>
</g>
<!-- commit&#45;&gt;wsend -->
<g id="edge1" class="edge">
<title>commit&#45;&gt;wsend</title>
<path fill="none" stroke="#a1a9cc" d="M155.87,-179C167.4,-179 179.35,-179 190.8,-179"/>
<polygon fill="#a1a9cc" stroke="#a1a9cc" points="190.77,-181.8 198.77,-179 190.77,-176.2 190.77,-181.8"/>
</g>
<!-- feed -->
<g id="node3" class="node">
<title>feed</title>
<path fill="#4d3a28" stroke="#6e6963" d="M476.5,-197C476.5,-197 371.25,-197 371.25,-197 365.25,-197 359.25,-191 359.25,-185 359.25,-185 359.25,-173 359.25,-173 359.25,-167 365.25,-161 371.25,-161 371.25,-161 476.5,-161 476.5,-161 482.5,-161 488.5,-167 488.5,-173 488.5,-173 488.5,-185 488.5,-185 488.5,-191 482.5,-197 476.5,-197"/>
<text xml:space="preserve" text-anchor="middle" x="423.88" y="-182.25" font-family="Helvetica,sans-Serif" font-size="10.00" fill="#ece1d7">SourceFeed::pump</text>
<text xml:space="preserve" text-anchor="middle" x="423.88" y="-169.5" font-family="Helvetica,sans-Serif" font-size="10.00" fill="#ece1d7">WalChunk(start_lsn=X)</text>
</g>
<!-- wsend&#45;&gt;feed -->
<g id="edge2" class="edge">
<title>wsend&#45;&gt;feed</title>
<path fill="none" stroke="#a1a9cc" d="M314.61,-179C325.84,-179 337.79,-179 349.5,-179"/>
<polygon fill="#a1a9cc" stroke="#a1a9cc" points="349.31,-181.8 357.31,-179 349.31,-176.2 349.31,-181.8"/>
</g>
<!-- push -->
<g id="node4" class="node">
<title>push</title>
<path fill="#4d3a28" stroke="#6e6963" d="M620.75,-202.12C620.75,-202.12 545.5,-202.12 545.5,-202.12 539.5,-202.12 533.5,-196.12 533.5,-190.12 533.5,-190.12 533.5,-167.88 533.5,-167.88 533.5,-161.88 539.5,-155.88 545.5,-155.88 545.5,-155.88 620.75,-155.88 620.75,-155.88 626.75,-155.88 632.75,-161.88 632.75,-167.88 632.75,-167.88 632.75,-190.12 632.75,-190.12 632.75,-196.12 626.75,-202.12 620.75,-202.12"/>
<text xml:space="preserve" text-anchor="middle" x="583.12" y="-188.62" font-family="Helvetica,sans-Serif" font-size="10.00" fill="#ece1d7">WalStream::push</text>
<text xml:space="preserve" text-anchor="middle" x="583.12" y="-175.88" font-family="Helvetica,sans-Serif" font-size="10.00" fill="#ece1d7">StreamingWalker</text>
<text xml:space="preserve" text-anchor="middle" x="583.12" y="-163.12" font-family="Helvetica,sans-Serif" font-size="10.00" fill="#ece1d7">extend / try_next</text>
</g>
<!-- feed&#45;&gt;push -->
<g id="edge6" class="edge">
<title>feed&#45;&gt;push</title>
<path fill="none" stroke="#c1a78e" d="M488.83,-179C500.39,-179 512.39,-179 523.78,-179"/>
<polygon fill="#c1a78e" stroke="#c1a78e" points="515.99,-181.8 523.99,-179 515.99,-176.2 515.99,-181.8"/>
</g>
<!-- rec -->
<g id="node5" class="node">
<title>rec</title>
<path fill="#4d3a28" stroke="#6e6963" d="M919.75,-212.5C919.75,-212.5 741.72,-212.5 741.72,-212.5 735.72,-212.5 726.04,-207.76 722.37,-203.02 722.37,-203.02 685.11,-154.98 685.11,-154.98 681.43,-150.24 683.75,-145.5 689.75,-145.5 689.75,-145.5 867.78,-145.5 867.78,-145.5 873.78,-145.5 883.46,-150.24 887.14,-154.98 887.14,-154.98 924.4,-203.02 924.4,-203.02 928.08,-207.76 925.75,-212.5 919.75,-212.5"/>
<text xml:space="preserve" text-anchor="middle" x="804.75" y="-182.25" font-family="Helvetica,sans-Serif" font-size="10.00" fill="#ece1d7">CompletedRecord</text>
<text xml:space="preserve" text-anchor="middle" x="804.75" y="-169.5" font-family="Helvetica,sans-Serif" font-size="10.00" fill="#ece1d7">(parsed, byte_ranges)</text>
</g>
<!-- push&#45;&gt;rec -->
<g id="edge3" class="edge">
<title>push&#45;&gt;rec</title>
<path fill="none" stroke="#c1a78e" d="M633.14,-179C651.2,-179 672.47,-179 693.74,-179"/>
<polygon fill="#c1a78e" stroke="#c1a78e" points="693.66,-181.8 701.66,-179 693.66,-176.2 693.66,-181.8"/>
</g>
<!-- decide -->
<g id="node6" class="node">
<title>decide</title>
<path fill="#4d3a28" stroke="#6e6963" d="M1063.25,-202.12C1063.25,-202.12 988.75,-202.12 988.75,-202.12 982.75,-202.12 976.75,-196.12 976.75,-190.12 976.75,-190.12 976.75,-167.88 976.75,-167.88 976.75,-161.88 982.75,-155.88 988.75,-155.88 988.75,-155.88 1063.25,-155.88 1063.25,-155.88 1069.25,-155.88 1075.25,-161.88 1075.25,-167.88 1075.25,-167.88 1075.25,-190.12 1075.25,-190.12 1075.25,-196.12 1069.25,-202.12 1063.25,-202.12"/>
<text xml:space="preserve" text-anchor="middle" x="1026" y="-188.62" font-family="Helvetica,sans-Serif" font-size="10.00" fill="#ece1d7">Filter::decide</text>
<text xml:space="preserve" text-anchor="middle" x="1026" y="-175.88" font-family="Helvetica,sans-Serif" font-size="10.00" fill="#ece1d7">→ Decision::Drop</text>
<text xml:space="preserve" text-anchor="middle" x="1026" y="-163.12" font-family="Helvetica,sans-Serif" font-size="10.00" fill="#ece1d7">(user heap)</text>
</g>
<!-- rec&#45;&gt;decide -->
<g id="edge4" class="edge">
<title>rec&#45;&gt;decide</title>
<path fill="none" stroke="#c1a78e" d="M906.39,-179C927.1,-179 948.24,-179 966.82,-179"/>
<polygon fill="#c1a78e" stroke="#c1a78e" points="966.78,-181.8 974.78,-179 966.78,-176.2 966.78,-181.8"/>
</g>
<!-- rewr -->
<g id="node7" class="node">
<title>rewr</title>
<path fill="#4d3a28" stroke="#6e6963" d="M1230,-197C1230,-197 1132.25,-197 1132.25,-197 1126.25,-197 1120.25,-191 1120.25,-185 1120.25,-185 1120.25,-173 1120.25,-173 1120.25,-167 1126.25,-161 1132.25,-161 1132.25,-161 1230,-161 1230,-161 1236,-161 1242,-167 1242,-173 1242,-173 1242,-185 1242,-185 1242,-191 1236,-197 1230,-197"/>
<text xml:space="preserve" text-anchor="middle" x="1181.13" y="-182.25" font-family="Helvetica,sans-Serif" font-size="10.00" fill="#ece1d7">rewrite::noop_replace</text>
<text xml:space="preserve" text-anchor="middle" x="1181.13" y="-169.5" font-family="Helvetica,sans-Serif" font-size="10.00" fill="#ece1d7">in&#45;place + CRC32C</text>
</g>
<!-- decide&#45;&gt;rewr -->
<g id="edge5" class="edge">
<title>decide&#45;&gt;rewr</title>
<path fill="none" stroke="#c1a78e" d="M1075.45,-179C1086.59,-179 1098.64,-179 1110.47,-179"/>
<polygon fill="#c1a78e" stroke="#c1a78e" points="1110.37,-181.8 1118.37,-179 1110.37,-176.2 1110.37,-181.8"/>
</g>
<!-- fbytes -->
<g id="node8" class="node">
<title>fbytes</title>
<path fill="#4d3340" stroke="#6e6963" d="M1494.75,-262C1494.75,-262 1397,-262 1397,-262 1391,-262 1385,-256 1385,-250 1385,-250 1385,-238 1385,-238 1385,-232 1391,-226 1397,-226 1397,-226 1494.75,-226 1494.75,-226 1500.75,-226 1506.75,-232 1506.75,-238 1506.75,-238 1506.75,-250 1506.75,-250 1506.75,-256 1500.75,-262 1494.75,-262"/>
<text xml:space="preserve" text-anchor="middle" x="1445.88" y="-247.25" font-family="Helvetica,sans-Serif" font-size="10.00" fill="#ece1d7">❶ RecordBytesSink</text>
<text xml:space="preserve" text-anchor="middle" x="1445.88" y="-234.5" font-family="Helvetica,sans-Serif" font-size="10.00" fill="#ece1d7">→ ShadowStreamSink</text>
</g>
<!-- rewr&#45;&gt;fbytes -->
<g id="edge7" class="edge">
<title>rewr&#45;&gt;fbytes</title>
<path fill="none" stroke="#c1a78e" d="M1232.01,-197.46C1244.06,-201.6 1257.14,-205.83 1269.84,-209.47"/>
<polygon fill="#c1a78e" stroke="#c1a78e" points="1269.09,-212.17 1277.55,-211.6 1270.58,-206.77 1269.09,-212.17"/>
</g>
<!-- frec -->
<g id="node9" class="node">
<title>frec</title>
<path fill="#4d4128" stroke="#6e6963" d="M1478.25,-197C1478.25,-197 1413.5,-197 1413.5,-197 1407.5,-197 1401.5,-191 1401.5,-185 1401.5,-185 1401.5,-173 1401.5,-173 1401.5,-167 1407.5,-161 1413.5,-161 1413.5,-161 1478.25,-161 1478.25,-161 1484.25,-161 1490.25,-167 1490.25,-173 1490.25,-173 1490.25,-185 1490.25,-185 1490.25,-191 1484.25,-197 1478.25,-197"/>
<text xml:space="preserve" text-anchor="middle" x="1445.88" y="-182.25" font-family="Helvetica,sans-Serif" font-size="10.00" fill="#ece1d7">❷ RecordSink</text>
<text xml:space="preserve" text-anchor="middle" x="1445.88" y="-169.5" font-family="Helvetica,sans-Serif" font-size="10.00" fill="#ece1d7">→ DecoderSink</text>
</g>
<!-- rewr&#45;&gt;frec -->
<g id="edge8" class="edge">
<title>rewr&#45;&gt;frec</title>
<path fill="none" stroke="#c1a78e" d="M1242.41,-179C1287.48,-179 1348.54,-179 1391.78,-179"/>
<polygon fill="#c1a78e" stroke="#c1a78e" points="1391.76,-181.8 1399.76,-179 1391.76,-176.2 1391.76,-181.8"/>
</g>
<!-- fseg -->
<g id="node10" class="node">
<title>fseg</title>
<path fill="#4d3340" stroke="#6e6963" d="M1497,-132C1497,-132 1394.75,-132 1394.75,-132 1388.75,-132 1382.75,-126 1382.75,-120 1382.75,-120 1382.75,-108 1382.75,-108 1382.75,-102 1388.75,-96 1394.75,-96 1394.75,-96 1497,-96 1497,-96 1503,-96 1509,-102 1509,-108 1509,-108 1509,-120 1509,-120 1509,-126 1503,-132 1497,-132"/>
<text xml:space="preserve" text-anchor="middle" x="1445.88" y="-117.25" font-family="Helvetica,sans-Serif" font-size="10.00" fill="#ece1d7">❸ SegmentSink defers</text>
<text xml:space="preserve" text-anchor="middle" x="1445.88" y="-104.5" font-family="Helvetica,sans-Serif" font-size="10.00" fill="#ece1d7">until 16 MiB boundary</text>
</g>
<!-- rewr&#45;&gt;fseg -->
<g id="edge9" class="edge">
<title>rewr&#45;&gt;fseg</title>
<path fill="none" stroke="#c1a78e" stroke-dasharray="5,2" d="M1234.07,-160.54C1248.51,-155.77 1264.27,-150.88 1279,-147 1309.75,-138.9 1344.17,-131.74 1373.65,-126.19"/>
<polygon fill="#c1a78e" stroke="#c1a78e" points="1373.79,-129.01 1381.14,-124.79 1372.77,-123.5 1373.79,-129.01"/>
</g>
<!-- frame4 -->
<g id="node11" class="node">
<title>frame4</title>
<path fill="#4d3340" stroke="#6e6963" d="M1767.25,-262C1767.25,-262 1662.75,-262 1662.75,-262 1656.75,-262 1650.75,-256 1650.75,-250 1650.75,-250 1650.75,-238 1650.75,-238 1650.75,-232 1656.75,-226 1662.75,-226 1662.75,-226 1767.25,-226 1767.25,-226 1773.25,-226 1779.25,-232 1779.25,-238 1779.25,-238 1779.25,-250 1779.25,-250 1779.25,-256 1773.25,-262 1767.25,-262"/>
<text xml:space="preserve" text-anchor="middle" x="1715" y="-247.25" font-family="Helvetica,sans-Serif" font-size="10.00" fill="#ece1d7">frame &#39;w&#39; XLogData</text>
<text xml:space="preserve" text-anchor="middle" x="1715" y="-234.5" font-family="Helvetica,sans-Serif" font-size="10.00" fill="#ece1d7">enqueue to send buffer</text>
</g>
<!-- fbytes&#45;&gt;frame4 -->
<g id="edge11" class="edge">
<title>fbytes&#45;&gt;frame4</title>
<path fill="none" stroke="#bd8183" stroke-width="2" d="M1507.16,-244C1546.43,-244 1597.94,-244 1639.73,-244"/>
<polygon fill="#bd8183" stroke="#bd8183" stroke-width="2" points="1631.73,-246.8 1639.73,-244 1631.73,-241.2 1631.73,-246.8"/>
</g>
<!-- gate5 -->
<g id="node13" class="node">
<title>gate5</title>
<path fill="#4d4128" stroke="#6e6963" d="M2209.75,-267.12C2209.75,-267.12 2127.75,-267.12 2127.75,-267.12 2121.75,-267.12 2115.75,-261.12 2115.75,-255.12 2115.75,-255.12 2115.75,-232.88 2115.75,-232.88 2115.75,-226.88 2121.75,-220.88 2127.75,-220.88 2127.75,-220.88 2209.75,-220.88 2209.75,-220.88 2215.75,-220.88 2221.75,-226.88 2221.75,-232.88 2221.75,-232.88 2221.75,-255.12 2221.75,-255.12 2221.75,-261.12 2215.75,-267.12 2209.75,-267.12"/>
<text xml:space="preserve" text-anchor="middle" x="2168.75" y="-253.62" font-family="Helvetica,sans-Serif" font-size="10.00" fill="#ece1d7">DecoderSink:</text>
<text xml:space="preserve" text-anchor="middle" x="2168.75" y="-240.88" font-family="Helvetica,sans-Serif" font-size="10.00" fill="#ece1d7">relation_at(rfn, X)</text>
<text xml:space="preserve" text-anchor="middle" x="2168.75" y="-228.12" font-family="Helvetica,sans-Serif" font-size="10.00" fill="#ece1d7">wait_for_replay(X)</text>
</g>
<!-- frec&#45;&gt;gate5 -->
<g id="edge14" class="edge">
<title>frec&#45;&gt;gate5</title>
<path fill="none" stroke="#c1a78e" d="M1490.48,-178.35C1585.24,-177.53 1816.9,-178.78 2008.5,-206 2041.28,-210.66 2077.19,-218.94 2106.6,-226.59"/>
<polygon fill="#c1a78e" stroke="#c1a78e" points="2097.84,-226.88 2106.31,-226.5 2099.45,-221.51 2097.84,-226.88"/>
</g>
<!-- seg7 -->
<g id="node23" class="node">
<title>seg7</title>
<path fill="#4d3340" stroke="#6e6963" d="M3778,-84.12C3778,-84.12 3641.25,-84.12 3641.25,-84.12 3635.25,-84.12 3629.25,-78.12 3629.25,-72.12 3629.25,-72.12 3629.25,-49.88 3629.25,-49.88 3629.25,-43.88 3635.25,-37.88 3641.25,-37.88 3641.25,-37.88 3778,-37.88 3778,-37.88 3784,-37.88 3790,-43.88 3790,-49.88 3790,-49.88 3790,-72.12 3790,-72.12 3790,-78.12 3784,-84.12 3778,-84.12"/>
<text xml:space="preserve" text-anchor="middle" x="3709.63" y="-70.62" font-family="Helvetica,sans-Serif" font-size="10.00" fill="#ece1d7">DirSegmentSink::on_segment</text>
<text xml:space="preserve" text-anchor="middle" x="3709.63" y="-57.88" font-family="Helvetica,sans-Serif" font-size="10.00" fill="#ece1d7">fsync segment + manifest</text>
<text xml:space="preserve" text-anchor="middle" x="3709.63" y="-45.12" font-family="Helvetica,sans-Serif" font-size="10.00" fill="#ece1d7">fsync parent dir</text>
</g>
<!-- fseg&#45;&gt;seg7 -->
<g id="edge26" class="edge">
<title>fseg&#45;&gt;seg7</title>
<path fill="none" stroke="#c1a78e" stroke-dasharray="5,2" d="M1509.47,-110.7C1563.59,-108.13 1643.94,-105 1714,-105 1714,-105 1714,-105 3455.25,-105 3510.41,-105 3571.34,-94.75 3619.62,-84.15"/>
<polygon fill="#c1a78e" stroke="#c1a78e" points="3611.84,-87.2 3619.74,-84.15 3611.66,-81.6 3611.84,-87.2"/>
<text xml:space="preserve" text-anchor="middle" x="2591.13" y="-107.7" font-family="Helvetica,sans-Serif" font-size="9.00" fill="#ece1d7">16 MiB boundary</text>
</g>
<!-- recv4 -->
<g id="node12" class="node">
<title>recv4</title>
<path fill="#3d4128" stroke="#6e6963" d="M1988.5,-262C1988.5,-262 1872,-262 1872,-262 1866,-262 1860,-256 1860,-250 1860,-250 1860,-238 1860,-238 1860,-232 1866,-226 1872,-226 1872,-226 1988.5,-226 1988.5,-226 1994.5,-226 2000.5,-232 2000.5,-238 2000.5,-238 2000.5,-250 2000.5,-250 2000.5,-256 1994.5,-262 1988.5,-262"/>
<text xml:space="preserve" text-anchor="middle" x="1930.25" y="-247.25" font-family="Helvetica,sans-Serif" font-size="10.00" fill="#ece1d7">walreceiver applies redo</text>
<text xml:space="preserve" text-anchor="middle" x="1930.25" y="-234.5" font-family="Helvetica,sans-Serif" font-size="10.00" fill="#ece1d7">pg_last_wal_replay_lsn ↑</text>
</g>
<!-- frame4&#45;&gt;recv4 -->
<g id="edge10" class="edge">
<title>frame4&#45;&gt;recv4</title>
<path fill="none" stroke="#bd8183" stroke-width="2" d="M1779.7,-244C1801.32,-244 1825.77,-244 1848.54,-244"/>
<polygon fill="#bd8183" stroke="#bd8183" stroke-width="2" points="1848.54,-246.8 1856.54,-244 1848.54,-241.2 1848.54,-246.8"/>
<text xml:space="preserve" text-anchor="middle" x="1819.63" y="-246.7" font-family="Helvetica,sans-Serif" font-size="9.00" fill="#ece1d7">hot wire</text>
</g>
<!-- recv4&#45;&gt;gate5 -->
<g id="edge15" class="edge">
<title>recv4&#45;&gt;gate5</title>
<path fill="none" stroke="#bd8183" stroke-dasharray="5,2" d="M2000.93,-244C2034.29,-244 2073.89,-244 2106.14,-244"/>
<polygon fill="#bd8183" stroke="#bd8183" points="2105.95,-246.8 2113.95,-244 2105.95,-241.2 2105.95,-246.8"/>
<text xml:space="preserve" text-anchor="middle" x="2058.13" y="-257.95" font-family="Helvetica,sans-Serif" font-size="9.00" fill="#ece1d7">apply_lsn ≥ X</text>
<text xml:space="preserve" text-anchor="middle" x="2058.13" y="-246.7" font-family="Helvetica,sans-Serif" font-size="9.00" fill="#ece1d7">(unblocks gate)</text>
</g>
<!-- dec5 -->
<g id="node14" class="node">
<title>dec5</title>
<path fill="#4d4128" stroke="#6e6963" d="M2350.25,-263C2350.25,-263 2278.75,-263 2278.75,-263 2272.75,-263 2266.75,-257 2266.75,-251 2266.75,-251 2266.75,-239 2266.75,-239 2266.75,-233 2272.75,-227 2278.75,-227 2278.75,-227 2350.25,-227 2350.25,-227 2356.25,-227 2362.25,-233 2362.25,-239 2362.25,-239 2362.25,-251 2362.25,-251 2362.25,-257 2356.25,-263 2350.25,-263"/>
<text xml:space="preserve" text-anchor="middle" x="2314.5" y="-248.25" font-family="Helvetica,sans-Serif" font-size="10.00" fill="#ece1d7">heap_decoder</text>
<text xml:space="preserve" text-anchor="middle" x="2314.5" y="-235.5" font-family="Helvetica,sans-Serif" font-size="10.00" fill="#ece1d7">→ DecodedHeap</text>
</g>
<!-- gate5&#45;&gt;dec5 -->
<g id="edge12" class="edge">
<title>gate5&#45;&gt;dec5</title>
<path fill="none" stroke="#c1a78e" d="M2222.06,-244.36C2233.59,-244.44 2245.84,-244.53 2257.51,-244.61"/>
<polygon fill="#c1a78e" stroke="#c1a78e" points="2257.18,-247.41 2265.2,-244.66 2257.22,-241.81 2257.18,-247.41"/>
</g>
<!-- buf5 -->
<g id="node15" class="node">
<title>buf5</title>
<path fill="#4d4128" stroke="#6e6963" d="M2518.5,-266C2518.5,-266 2419.25,-266 2419.25,-266 2413.25,-266 2407.25,-260 2407.25,-254 2407.25,-254 2407.25,-242 2407.25,-242 2407.25,-236 2413.25,-230 2419.25,-230 2419.25,-230 2518.5,-230 2518.5,-230 2524.5,-230 2530.5,-236 2530.5,-242 2530.5,-242 2530.5,-254 2530.5,-254 2530.5,-260 2524.5,-266 2518.5,-266"/>
<text xml:space="preserve" text-anchor="middle" x="2468.88" y="-251.25" font-family="Helvetica,sans-Serif" font-size="10.00" fill="#ece1d7">XactBuffer::insert(xid)</text>
<text xml:space="preserve" text-anchor="middle" x="2468.88" y="-238.5" font-family="Helvetica,sans-Serif" font-size="10.00" fill="#ece1d7">(per&#45;xid mem + spill)</text>
</g>
<!-- dec5&#45;&gt;buf5 -->
<g id="edge13" class="edge">
<title>dec5&#45;&gt;buf5</title>
<path fill="none" stroke="#c1a78e" d="M2362.47,-245.92C2373.57,-246.14 2385.66,-246.38 2397.55,-246.62"/>
<polygon fill="#c1a78e" stroke="#c1a78e" points="2397.46,-249.41 2405.52,-246.77 2397.57,-243.82 2397.46,-249.41"/>
</g>
<!-- cmt6 -->
<g id="node16" class="node">
<title>cmt6</title>
<path fill="#3d3d54" stroke="#6e6963" d="M2760.75,-293C2760.75,-293 2663.75,-293 2663.75,-293 2657.75,-293 2651.75,-287 2651.75,-281 2651.75,-281 2651.75,-269 2651.75,-269 2651.75,-263 2657.75,-257 2663.75,-257 2663.75,-257 2760.75,-257 2760.75,-257 2766.75,-257 2772.75,-263 2772.75,-269 2772.75,-269 2772.75,-281 2772.75,-281 2772.75,-287 2766.75,-293 2760.75,-293"/>
<text xml:space="preserve" text-anchor="middle" x="2712.25" y="-278.25" font-family="Helvetica,sans-Serif" font-size="10.00" fill="#ece1d7">XLOG_XACT_COMMIT</text>
<text xml:space="preserve" text-anchor="middle" x="2712.25" y="-265.5" font-family="Helvetica,sans-Serif" font-size="10.00" fill="#ece1d7">LSN = X&#39;</text>
</g>
<!-- buf5&#45;&gt;cmt6 -->
<g id="edge22" class="edge">
<title>buf5&#45;&gt;cmt6</title>
<path fill="none" stroke="#c1a78e" stroke-dasharray="5,2" d="M2530.79,-254.81C2564.76,-258.61 2607.19,-263.36 2642.37,-267.29"/>
<polygon fill="#c1a78e" stroke="#c1a78e" points="2641.85,-270.05 2650.11,-268.16 2642.47,-264.49 2641.85,-270.05"/>
<text xml:space="preserve" text-anchor="middle" x="2591.13" y="-268.2" font-family="Helvetica,sans-Serif" font-size="9.00" fill="#ece1d7">next record</text>
</g>
<!-- drain6 -->
<g id="node17" class="node">
<title>drain6</title>
<path fill="#4d4128" stroke="#6e6963" d="M2954.5,-301.12C2954.5,-301.12 2829.75,-301.12 2829.75,-301.12 2823.75,-301.12 2817.75,-295.12 2817.75,-289.12 2817.75,-289.12 2817.75,-266.88 2817.75,-266.88 2817.75,-260.88 2823.75,-254.88 2829.75,-254.88 2829.75,-254.88 2954.5,-254.88 2954.5,-254.88 2960.5,-254.88 2966.5,-260.88 2966.5,-266.88 2966.5,-266.88 2966.5,-289.12 2966.5,-289.12 2966.5,-295.12 2960.5,-301.12 2954.5,-301.12"/>
<text xml:space="preserve" text-anchor="middle" x="2892.13" y="-287.62" font-family="Helvetica,sans-Serif" font-size="10.00" fill="#ece1d7">XactBuffer::commit(xid, X&#39;)</text>
<text xml:space="preserve" text-anchor="middle" x="2892.13" y="-274.88" font-family="Helvetica,sans-Serif" font-size="10.00" fill="#ece1d7">drain spill + memory</text>
<text xml:space="preserve" text-anchor="middle" x="2892.13" y="-262.12" font-family="Helvetica,sans-Serif" font-size="10.00" fill="#ece1d7">in WAL order</text>
</g>
<!-- cmt6&#45;&gt;drain6 -->
<g id="edge16" class="edge">
<title>cmt6&#45;&gt;drain6</title>
<path fill="none" stroke="#c1a78e" d="M2772.98,-276.01C2784.21,-276.2 2796.14,-276.4 2807.93,-276.6"/>
<polygon fill="#c1a78e" stroke="#c1a78e" points="2807.78,-279.39 2815.83,-276.73 2807.88,-273.8 2807.78,-279.39"/>
</g>
<!-- enc6 -->
<g id="node18" class="node">
<title>enc6</title>
<path fill="#4d4128" stroke="#6e6963" d="M3156.5,-301.12C3156.5,-301.12 3023.5,-301.12 3023.5,-301.12 3017.5,-301.12 3011.5,-295.12 3011.5,-289.12 3011.5,-289.12 3011.5,-266.88 3011.5,-266.88 3011.5,-260.88 3017.5,-254.88 3023.5,-254.88 3023.5,-254.88 3156.5,-254.88 3156.5,-254.88 3162.5,-254.88 3168.5,-260.88 3168.5,-266.88 3168.5,-266.88 3168.5,-289.12 3168.5,-289.12 3168.5,-295.12 3162.5,-301.12 3156.5,-301.12"/>
<text xml:space="preserve" text-anchor="middle" x="3090" y="-287.62" font-family="Helvetica,sans-Serif" font-size="10.00" fill="#ece1d7">TableEncoder</text>
<text xml:space="preserve" text-anchor="middle" x="3090" y="-274.88" font-family="Helvetica,sans-Serif" font-size="10.00" fill="#ece1d7">BlockBuilder</text>
<text xml:space="preserve" text-anchor="middle" x="3090" y="-262.12" font-family="Helvetica,sans-Serif" font-size="10.00" fill="#ece1d7">_lsn / _xid / _op / _commit_ts</text>
</g>
<!-- drain6&#45;&gt;enc6 -->
<g id="edge17" class="edge">
<title>drain6&#45;&gt;enc6</title>
<path fill="none" stroke="#c1a78e" d="M2966.9,-278C2978.28,-278 2990.13,-278 3001.77,-278"/>
<polygon fill="#c1a78e" stroke="#c1a78e" points="3001.54,-280.8 3009.54,-278 3001.54,-275.2 3001.54,-280.8"/>
</g>
<!-- sndp6 -->
<g id="node19" class="node">
<title>sndp6</title>
<path fill="#4d4128" stroke="#6e6963" d="M3336.75,-296C3336.75,-296 3225.5,-296 3225.5,-296 3219.5,-296 3213.5,-290 3213.5,-284 3213.5,-284 3213.5,-272 3213.5,-272 3213.5,-266 3219.5,-260 3225.5,-260 3225.5,-260 3336.75,-260 3336.75,-260 3342.75,-260 3348.75,-266 3348.75,-272 3348.75,-272 3348.75,-284 3348.75,-284 3348.75,-290 3342.75,-296 3336.75,-296"/>
<text xml:space="preserve" text-anchor="middle" x="3281.13" y="-281.25" font-family="Helvetica,sans-Serif" font-size="10.00" fill="#ece1d7">send_query INSERT…</text>
<text xml:space="preserve" text-anchor="middle" x="3281.13" y="-268.5" font-family="Helvetica,sans-Serif" font-size="10.00" fill="#ece1d7">send_data(Some(block))</text>
</g>
<!-- enc6&#45;&gt;sndp6 -->
<g id="edge18" class="edge">
<title>enc6&#45;&gt;sndp6</title>
<path fill="none" stroke="#c1a78e" d="M3168.75,-278C3180.4,-278 3192.41,-278 3204.04,-278"/>
<polygon fill="#c1a78e" stroke="#c1a78e" points="3203.74,-280.8 3211.74,-278 3203.74,-275.2 3203.74,-280.8"/>
</g>
<!-- sndn6 -->
<g id="node20" class="node">
<title>sndn6</title>
<path fill="#4d4128" stroke="#6e6963" d="M3502.75,-301.12C3502.75,-301.12 3405.75,-301.12 3405.75,-301.12 3399.75,-301.12 3393.75,-295.12 3393.75,-289.12 3393.75,-289.12 3393.75,-266.88 3393.75,-266.88 3393.75,-260.88 3399.75,-254.88 3405.75,-254.88 3405.75,-254.88 3502.75,-254.88 3502.75,-254.88 3508.75,-254.88 3514.75,-260.88 3514.75,-266.88 3514.75,-266.88 3514.75,-289.12 3514.75,-289.12 3514.75,-295.12 3508.75,-301.12 3502.75,-301.12"/>
<text xml:space="preserve" text-anchor="middle" x="3454.25" y="-287.62" font-family="Helvetica,sans-Serif" font-size="10.00" fill="#ece1d7">send_data(None)</text>
<text xml:space="preserve" text-anchor="middle" x="3454.25" y="-274.88" font-family="Helvetica,sans-Serif" font-size="10.00" fill="#ece1d7">drain responses</text>
<text xml:space="preserve" text-anchor="middle" x="3454.25" y="-262.12" font-family="Helvetica,sans-Serif" font-size="10.00" fill="#ece1d7">emitter_ack_lsn := X&#39;</text>
</g>
<!-- sndp6&#45;&gt;sndn6 -->
<g id="edge19" class="edge">
<title>sndp6&#45;&gt;sndn6</title>
<path fill="none" stroke="#c1a78e" d="M3348.78,-278C3360.41,-278 3372.52,-278 3384.21,-278"/>
<polygon fill="#c1a78e" stroke="#c1a78e" points="3383.96,-280.8 3391.96,-278 3383.96,-275.2 3383.96,-280.8"/>
</g>
<!-- ch6 -->
<g id="node21" class="node">
<title>ch6</title>
<path fill="#4d4128" stroke="#6e6963" d="M3768.63,-371C3768.63,-371 3650.63,-371 3650.63,-371 3644.63,-371 3638.63,-365 3638.63,-359 3638.63,-359 3638.63,-347 3638.63,-347 3638.63,-341 3644.63,-335 3650.63,-335 3650.63,-335 3768.63,-335 3768.63,-335 3774.63,-335 3780.63,-341 3780.63,-347 3780.63,-347 3780.63,-359 3780.63,-359 3780.63,-365 3774.63,-371 3768.63,-371"/>
<text xml:space="preserve" text-anchor="middle" x="3709.63" y="-356.25" font-family="Helvetica,sans-Serif" font-size="10.00" fill="#ece1d7">ReplacingMergeTree(_lsn)</text>
<text xml:space="preserve" text-anchor="middle" x="3709.63" y="-343.5" font-family="Helvetica,sans-Serif" font-size="10.00" fill="#ece1d7">merged in CH</text>
</g>
<!-- sndp6&#45;&gt;ch6 -->
<g id="edge20" class="edge">
<title>sndp6&#45;&gt;ch6</title>
<path fill="none" stroke="#bf8c5f" d="M3329.02,-296.43C3348.74,-303.52 3372.09,-311.1 3393.75,-316 3472.68,-333.86 3564.8,-343.41 3628.93,-348.3"/>
<polygon fill="#bf8c5f" stroke="#bf8c5f" points="3628.49,-351.08 3636.68,-348.88 3628.91,-345.49 3628.49,-351.08"/>
<text xml:space="preserve" text-anchor="middle" x="3454.25" y="-339.2" font-family="Helvetica,sans-Serif" font-size="9.00" fill="#ece1d7">Native block</text>
</g>
<!-- sndn6&#45;&gt;ch6 -->
<g id="edge21" class="edge">
<title>sndn6&#45;&gt;ch6</title>
<path fill="none" stroke="#c1a78e" stroke-dasharray="5,2" d="M3514.98,-295.68C3551.55,-306.5 3598.57,-320.42 3637.12,-331.83"/>
<polygon fill="#c1a78e" stroke="#c1a78e" points="3636.3,-334.51 3644.76,-334.1 3637.89,-329.14 3636.3,-334.51"/>
</g>
<!-- cur7 -->
<g id="node25" class="node">
<title>cur7</title>
<path fill="#4d3a28" stroke="#6e6963" d="M3766,-199.12C3766,-199.12 3653.25,-199.12 3653.25,-199.12 3647.25,-199.12 3641.25,-193.12 3641.25,-187.12 3641.25,-187.12 3641.25,-164.88 3641.25,-164.88 3641.25,-158.88 3647.25,-152.88 3653.25,-152.88 3653.25,-152.88 3766,-152.88 3766,-152.88 3772,-152.88 3778,-158.88 3778,-164.88 3778,-164.88 3778,-187.12 3778,-187.12 3778,-193.12 3772,-199.12 3766,-199.12"/>
<text xml:space="preserve" text-anchor="middle" x="3709.63" y="-185.62" font-family="Helvetica,sans-Serif" font-size="10.00" fill="#ece1d7">status loop (10 s)</text>
<text xml:space="preserve" text-anchor="middle" x="3709.63" y="-172.88" font-family="Helvetica,sans-Serif" font-size="10.00" fill="#ece1d7">cursor::write</text>
<text xml:space="preserve" text-anchor="middle" x="3709.63" y="-160.12" font-family="Helvetica,sans-Serif" font-size="10.00" fill="#ece1d7">SourceFeed::send_status</text>
</g>
<!-- sndn6&#45;&gt;cur7 -->
<g id="edge27" class="edge">
<title>sndn6&#45;&gt;cur7</title>
<path fill="none" stroke="#b380b0" stroke-dasharray="1,5" d="M3513.7,-254.47C3551.83,-239.12 3601.7,-219.05 3641.46,-203.04"/>
<polygon fill="#b380b0" stroke="#b380b0" points="3642.26,-205.74 3648.63,-200.15 3640.17,-200.54 3642.26,-205.74"/>
<text xml:space="preserve" text-anchor="middle" x="3572" y="-247.71" font-family="Helvetica,sans-Serif" font-size="9.00" fill="#ece1d7">emitter_ack_lsn</text>
</g>
<!-- legend -->
<g id="node28" class="node">
<title>legend</title>
<path fill="#6e6963" stroke="none" d="M4185.25,-664.75C4185.25,-664.75 3847,-664.75 3847,-664.75 3841,-664.75 3835,-658.75 3835,-652.75 3835,-652.75 3835,-259.25 3835,-259.25 3835,-253.25 3841,-247.25 3847,-247.25 3847,-247.25 4185.25,-247.25 4185.25,-247.25 4191.25,-247.25 4197.25,-253.25 4197.25,-259.25 4197.25,-259.25 4197.25,-652.75 4197.25,-652.75 4197.25,-658.75 4191.25,-664.75 4185.25,-664.75"/>
<polygon fill="#34302c" stroke="none" points="3843,-638 3843,-660.75 4189.25,-660.75 4189.25,-638 3843,-638"/>
<polygon fill="none" stroke="#6e6963" points="3843,-638 3843,-660.75 4189.25,-660.75 4189.25,-638 3843,-638"/>
<text xml:space="preserve" text-anchor="start" x="3969.63" y="-647.25" font-family="Helvetica,sans-Serif" font-weight="bold" font-size="10.00" fill="#ece1d7">node fill — actor</text>
<polygon fill="#3d3d54" stroke="none" points="3843,-615.25 3843,-638 3952,-638 3952,-615.25 3843,-615.25"/>
<polygon fill="none" stroke="#6e6963" points="3843,-615.25 3843,-638 3952,-638 3952,-615.25 3843,-615.25"/>
<polygon fill="none" stroke="#6e6963" points="3952,-615.25 3952,-638 4189.25,-638 4189.25,-615.25 3952,-615.25"/>
<text xml:space="preserve" text-anchor="start" x="4032" y="-623.25" font-family="Helvetica,sans-Serif" font-size="10.00" fill="#ece1d7">source Postgres</text>
<polygon fill="#4d3a28" stroke="none" points="3843,-592.5 3843,-615.25 3952,-615.25 3952,-592.5 3843,-592.5"/>
<polygon fill="none" stroke="#6e6963" points="3843,-592.5 3843,-615.25 3952,-615.25 3952,-592.5 3843,-592.5"/>
<polygon fill="none" stroke="#6e6963" points="3952,-592.5 3952,-615.25 4189.25,-615.25 4189.25,-592.5 3952,-592.5"/>
<text xml:space="preserve" text-anchor="start" x="3990" y="-600.5" font-family="Helvetica,sans-Serif" font-size="10.00" fill="#ece1d7">walshadow ingress / orchestrator</text>
<polygon fill="#4d4128" stroke="none" points="3843,-569.75 3843,-592.5 3952,-592.5 3952,-569.75 3843,-569.75"/>
<polygon fill="none" stroke="#6e6963" points="3843,-569.75 3843,-592.5 3952,-592.5 3952,-569.75 3843,-569.75"/>
<polygon fill="none" stroke="#6e6963" points="3952,-569.75 3952,-592.5 4189.25,-592.5 4189.25,-569.75 3952,-569.75"/>
<text xml:space="preserve" text-anchor="start" x="3967.88" y="-577.75" font-family="Helvetica,sans-Serif" font-size="10.00" fill="#ece1d7">walshadow decoder + xact + emitter / CH</text>
<polygon fill="#4d3340" stroke="none" points="3843,-547 3843,-569.75 3952,-569.75 3952,-547 3843,-547"/>
<polygon fill="none" stroke="#6e6963" points="3843,-547 3843,-569.75 3952,-569.75 3952,-547 3843,-547"/>
<polygon fill="none" stroke="#6e6963" points="3952,-547 3952,-569.75 4189.25,-569.75 4189.25,-547 3952,-547"/>
<text xml:space="preserve" text-anchor="start" x="3957" y="-555" font-family="Helvetica,sans-Serif" font-size="10.00" fill="#ece1d7">walshadow output sinks (walsender, segment)</text>
<polygon fill="#3d4128" stroke="none" points="3843,-524.25 3843,-547 3952,-547 3952,-524.25 3843,-524.25"/>
<polygon fill="none" stroke="#6e6963" points="3843,-524.25 3843,-547 3952,-547 3952,-524.25 3843,-524.25"/>
<polygon fill="none" stroke="#6e6963" points="3952,-524.25 3952,-547 4189.25,-547 4189.25,-524.25 3952,-524.25"/>
<text xml:space="preserve" text-anchor="start" x="4029.38" y="-532.25" font-family="Helvetica,sans-Serif" font-size="10.00" fill="#ece1d7">shadow Postgres</text>
<polygon fill="#4d3850" stroke="none" points="3843,-501.5 3843,-524.25 3952,-524.25 3952,-501.5 3843,-501.5"/>
<polygon fill="none" stroke="#6e6963" points="3843,-501.5 3843,-524.25 3952,-524.25 3952,-501.5 3843,-501.5"/>
<polygon fill="none" stroke="#6e6963" points="3952,-501.5 3952,-524.25 4189.25,-524.25 4189.25,-501.5 3952,-501.5"/>
<text xml:space="preserve" text-anchor="start" x="4033.5" y="-509.5" font-family="Helvetica,sans-Serif" font-size="10.00" fill="#ece1d7">on&#45;disk artifact</text>
<polygon fill="#34302c" stroke="none" points="3843,-478.75 3843,-501.5 4189.25,-501.5 4189.25,-478.75 3843,-478.75"/>
<polygon fill="none" stroke="#6e6963" points="3843,-478.75 3843,-501.5 4189.25,-501.5 4189.25,-478.75 3843,-478.75"/>
<text xml:space="preserve" text-anchor="start" x="3982.38" y="-488" font-family="Helvetica,sans-Serif" font-weight="bold" font-size="10.00" fill="#ece1d7">edge colour</text>
<polygon fill="none" stroke="#6e6963" points="3843,-456 3843,-478.75 3952,-478.75 3952,-456 3843,-456"/>
<text xml:space="preserve" text-anchor="start" x="3891.5" y="-465.25" font-family="Helvetica,sans-Serif" font-weight="bold" font-size="10.00" fill="#a1a9cc">━━</text>
<polygon fill="none" stroke="#6e6963" points="3952,-456 3952,-478.75 4189.25,-478.75 4189.25,-456 3952,-456"/>
<text xml:space="preserve" text-anchor="start" x="3992.63" y="-464" font-family="Helvetica,sans-Serif" font-size="10.00" fill="#ece1d7">source → walshadow replication</text>
<polygon fill="none" stroke="#6e6963" points="3843,-433.25 3843,-456 3952,-456 3952,-433.25 3843,-433.25"/>
<text xml:space="preserve" text-anchor="start" x="3891.5" y="-442.5" font-family="Helvetica,sans-Serif" font-weight="bold" font-size="10.00" fill="#bd8183">━━</text>
<polygon fill="none" stroke="#6e6963" points="3952,-433.25 3952,-456 4189.25,-456 4189.25,-433.25 3952,-433.25"/>
<text xml:space="preserve" text-anchor="start" x="3982.13" y="-441.25" font-family="Helvetica,sans-Serif" font-size="10.00" fill="#ece1d7">walsender wire → shadow (hot path)</text>
<polygon fill="none" stroke="#6e6963" points="3843,-410.5 3843,-433.25 3952,-433.25 3952,-410.5 3843,-410.5"/>
<text xml:space="preserve" text-anchor="start" x="3891.5" y="-419.75" font-family="Helvetica,sans-Serif" font-weight="bold" font-size="10.00" fill="#bf8c5f">━━</text>
<polygon fill="none" stroke="#6e6963" points="3952,-410.5 3952,-433.25 4189.25,-433.25 4189.25,-410.5 3952,-410.5"/>
<text xml:space="preserve" text-anchor="start" x="4011" y="-418.5" font-family="Helvetica,sans-Serif" font-size="10.00" fill="#ece1d7">ClickHouse Native block</text>
<polygon fill="none" stroke="#6e6963" points="3843,-387.75 3843,-410.5 3952,-410.5 3952,-387.75 3843,-387.75"/>
<text xml:space="preserve" text-anchor="start" x="3891.5" y="-397" font-family="Helvetica,sans-Serif" font-weight="bold" font-size="10.00" fill="#b58b86">┄┄</text>
<polygon fill="none" stroke="#6e6963" points="3952,-387.75 3952,-410.5 4189.25,-410.5 4189.25,-387.75 3952,-387.75"/>
<text xml:space="preserve" text-anchor="start" x="4000.13" y="-395.75" font-family="Helvetica,sans-Serif" font-size="10.00" fill="#ece1d7">standby status to source slot</text>
<polygon fill="none" stroke="#6e6963" points="3843,-365 3843,-387.75 3952,-387.75 3952,-365 3843,-365"/>
<text xml:space="preserve" text-anchor="start" x="3891.88" y="-374.25" font-family="Helvetica,sans-Serif" font-weight="bold" font-size="10.00" fill="#b380b0">···</text>
<polygon fill="none" stroke="#6e6963" points="3952,-365 3952,-387.75 4189.25,-387.75 4189.25,-365 3952,-365"/>
<text xml:space="preserve" text-anchor="start" x="4017" y="-373" font-family="Helvetica,sans-Serif" font-size="10.00" fill="#ece1d7">cursor durability write</text>
<polygon fill="#34302c" stroke="none" points="3843,-342.25 3843,-365 4189.25,-365 4189.25,-342.25 3843,-342.25"/>
<polygon fill="none" stroke="#6e6963" points="3843,-342.25 3843,-365 4189.25,-365 4189.25,-342.25 3843,-342.25"/>
<text xml:space="preserve" text-anchor="start" x="3907.75" y="-351.5" font-family="Helvetica,sans-Serif" font-weight="bold" font-size="10.00" fill="#ece1d7">hot&#45;path budget (PHASE13: ≤ 1 s p99)</text>
<polygon fill="none" stroke="#6e6963" points="3843,-319.5 3843,-342.25 3952,-342.25 3952,-319.5 3843,-319.5"/>
<text xml:space="preserve" text-anchor="start" x="3857.75" y="-327.5" font-family="Helvetica,sans-Serif" font-size="10.00" fill="#ece1d7">④ shadow apply</text>
<polygon fill="none" stroke="#6e6963" points="3952,-319.5 3952,-342.25 4189.25,-342.25 4189.25,-319.5 3952,-319.5"/>
<text xml:space="preserve" text-anchor="start" x="4018.13" y="-327.5" font-family="Helvetica,sans-Serif" font-size="10.00" fill="#ece1d7">ms — walsender wire</text>
<polygon fill="none" stroke="#6e6963" points="3843,-296.75 3843,-319.5 3952,-319.5 3952,-296.75 3843,-296.75"/>
<text xml:space="preserve" text-anchor="start" x="3867.13" y="-304.75" font-family="Helvetica,sans-Serif" font-size="10.00" fill="#ece1d7">⑤ gate clear</text>
<polygon fill="none" stroke="#6e6963" points="3952,-296.75 3952,-319.5 4189.25,-319.5 4189.25,-296.75 3952,-296.75"/>
<text xml:space="preserve" text-anchor="start" x="4026.38" y="-304.75" font-family="Helvetica,sans-Serif" font-size="10.00" fill="#ece1d7">ms — driven by ④</text>
<polygon fill="none" stroke="#6e6963" points="3843,-274 3843,-296.75 3952,-296.75 3952,-274 3843,-274"/>
<text xml:space="preserve" text-anchor="start" x="3856.63" y="-282" font-family="Helvetica,sans-Serif" font-size="10.00" fill="#ece1d7">⑥ CH block send</text>
<polygon fill="none" stroke="#6e6963" points="3952,-274 3952,-296.75 4189.25,-296.75 4189.25,-274 3952,-274"/>
<text xml:space="preserve" text-anchor="start" x="3993.38" y="-282" font-family="Helvetica,sans-Serif" font-size="10.00" fill="#ece1d7">ms — single Native block / xact</text>
<polygon fill="none" stroke="#6e6963" points="3843,-251.25 3843,-274 3952,-274 3952,-251.25 3843,-251.25"/>
<text xml:space="preserve" text-anchor="start" x="3848" y="-259.25" font-family="Helvetica,sans-Serif" font-size="10.00" fill="#ece1d7">⑦ segment + cursor</text>
<polygon fill="none" stroke="#6e6963" points="3952,-251.25 3952,-274 4189.25,-274 4189.25,-251.25 3952,-251.25"/>
<text xml:space="preserve" text-anchor="start" x="3997.5" y="-259.25" font-family="Helvetica,sans-Serif" font-size="10.00" fill="#ece1d7">seconds — async, off hot path</text>
</g>
<!-- ch6&#45;&gt;legend -->
<!-- buf6_anchor -->
<!-- out7 -->
<g id="node24" class="node">
<title>out7</title>
<polygon fill="#4d3850" stroke="#6e6963" points="4057.13,-52 3969.13,-52 3969.13,-16 4063.13,-16 4063.13,-46 4057.13,-52"/>
<polyline fill="none" stroke="#6e6963" points="4057.13,-52 4057.13,-46"/>
<polyline fill="none" stroke="#6e6963" points="4063.13,-46 4057.13,-46"/>
<text xml:space="preserve" text-anchor="middle" x="4016.13" y="-37.25" font-family="Helvetica,sans-Serif" font-size="10.00" fill="#ece1d7">out/&lt;seg&gt;</text>
<text xml:space="preserve" text-anchor="middle" x="4016.13" y="-24.5" font-family="Helvetica,sans-Serif" font-size="10.00" fill="#ece1d7">+ manifest.json</text>
</g>
<!-- seg7&#45;&gt;out7 -->
<g id="edge23" class="edge">
<title>seg7&#45;&gt;out7</title>
<path fill="none" stroke="#c1a78e" d="M3790.24,-53.94C3843.43,-49.22 3912.08,-43.14 3959.46,-38.94"/>
<polygon fill="#c1a78e" stroke="#c1a78e" points="3959.42,-41.75 3967.14,-38.26 3958.92,-36.17 3959.42,-41.75"/>
</g>
<!-- curd7 -->
<g id="node26" class="node">
<title>curd7</title>
<polygon fill="#4d3850" stroke="#6e6963" points="4055.25,-117 3971,-117 3971,-81 4061.25,-81 4061.25,-111 4055.25,-117"/>
<polyline fill="none" stroke="#6e6963" points="4055.25,-117 4055.25,-111"/>
<polyline fill="none" stroke="#6e6963" points="4061.25,-111 4055.25,-111"/>
<text xml:space="preserve" text-anchor="middle" x="4016.13" y="-102.25" font-family="Helvetica,sans-Serif" font-size="10.00" fill="#ece1d7">cursor.bin</text>
<text xml:space="preserve" text-anchor="middle" x="4016.13" y="-89.5" font-family="Helvetica,sans-Serif" font-size="10.00" fill="#ece1d7">atomic rename</text>
</g>
<!-- cur7&#45;&gt;curd7 -->
<g id="edge24" class="edge">
<title>cur7&#45;&gt;curd7</title>
<path fill="none" stroke="#c1a78e" d="M3771.07,-152.45C3791.19,-145.19 3813.87,-137.64 3835,-132 3876.88,-120.83 3925.23,-112.2 3961.29,-106.57"/>
<polygon fill="#c1a78e" stroke="#c1a78e" points="3961.67,-109.35 3969.15,-105.36 3960.82,-103.81 3961.67,-109.35"/>
</g>
<!-- slot7 -->
<g id="node27" class="node">
<title>slot7</title>
<path fill="#3d3d54" stroke="#6e6963" d="M4060.88,-205.5C4060.88,-205.5 3971.38,-205.5 3971.38,-205.5 3965.38,-205.5 3959.38,-199.5 3959.38,-193.5 3959.38,-193.5 3959.38,-158.5 3959.38,-158.5 3959.38,-152.5 3965.38,-146.5 3971.38,-146.5 3971.38,-146.5 4060.88,-146.5 4060.88,-146.5 4066.88,-146.5 4072.88,-152.5 4072.88,-158.5 4072.88,-158.5 4072.88,-193.5 4072.88,-193.5 4072.88,-199.5 4066.88,-205.5 4060.88,-205.5"/>
<text xml:space="preserve" text-anchor="middle" x="4016.13" y="-192" font-family="Helvetica,sans-Serif" font-size="10.00" fill="#ece1d7">source slot advance</text>
<text xml:space="preserve" text-anchor="middle" x="4016.13" y="-179.25" font-family="Helvetica,sans-Serif" font-size="10.00" fill="#ece1d7">apply = min(</text>
<text xml:space="preserve" text-anchor="middle" x="4016.13" y="-166.5" font-family="Helvetica,sans-Serif" font-size="10.00" fill="#ece1d7"> shadow_replay,</text>
<text xml:space="preserve" text-anchor="middle" x="4016.13" y="-153.75" font-family="Helvetica,sans-Serif" font-size="10.00" fill="#ece1d7"> emitter_ack)</text>
</g>
<!-- cur7&#45;&gt;slot7 -->
<g id="edge25" class="edge">
<title>cur7&#45;&gt;slot7</title>
<path fill="none" stroke="#b58b86" stroke-dasharray="5,2" d="M3778.21,-176C3829.34,-176 3899.16,-176 3949.74,-176"/>
<polygon fill="#b58b86" stroke="#b58b86" points="3949.44,-178.8 3957.44,-176 3949.44,-173.2 3949.44,-178.8"/>
</g>
</g>
</svg>
