<?xml version="1.0" encoding="UTF-8" standalone="no"?>
<!DOCTYPE svg PUBLIC "-//W3C//DTD SVG 1.1//EN"
 "http://www.w3.org/Graphics/SVG/1.1/DTD/svg11.dtd">
<!-- Generated by graphviz version 14.1.5 (0)
 -->
<!-- Title: timeline_bootstrap Pages: 1 -->
<svg width="1172pt" height="1518pt"
 viewBox="0.00 0.00 1172.00 1518.00" xmlns="http://www.w3.org/2000/svg" xmlns:xlink="http://www.w3.org/1999/xlink">
<g id="graph0" class="graph" transform="scale(1 1) rotate(0) translate(4 1513.62)">
<title>timeline_bootstrap</title>
<polygon fill="#272623" stroke="none" points="-4,4 -4,-1513.62 1168,-1513.62 1168,4 -4,4"/>
<text xml:space="preserve" text-anchor="middle" x="582" y="-1492.33" font-family="Helvetica,sans-Serif" font-size="14.00" fill="#ece1d7">walshadow greenfield bootstrap — 5 phases</text>
<g id="clust1" class="cluster">
<title>cluster_p1</title>
<path fill="#34302c" stroke="#4c4641" d="M130,-1188.88C130,-1188.88 308,-1188.88 308,-1188.88 314,-1188.88 320,-1194.88 320,-1200.88 320,-1200.88 320,-1464.38 320,-1464.38 320,-1470.38 314,-1476.38 308,-1476.38 308,-1476.38 130,-1476.38 130,-1476.38 124,-1476.38 118,-1470.38 118,-1464.38 118,-1464.38 118,-1200.88 118,-1200.88 118,-1194.88 124,-1188.88 130,-1188.88"/>
<text xml:space="preserve" text-anchor="middle" x="219" y="-1459.08" font-family="Helvetica,sans-Serif" font-size="14.00" fill="#ece1d7">① catalog seed</text>
</g>
<g id="clust2" class="cluster">
<title>cluster_p2</title>
<path fill="#34302c" stroke="#4c4641" d="M340,-954.38C340,-954.38 787,-954.38 787,-954.38 793,-954.38 799,-960.38 799,-966.38 799,-966.38 799,-1264.38 799,-1264.38 799,-1270.38 793,-1276.38 787,-1276.38 787,-1276.38 340,-1276.38 340,-1276.38 334,-1276.38 328,-1270.38 328,-1264.38 328,-1264.38 328,-966.38 328,-966.38 328,-960.38 334,-954.38 340,-954.38"/>
<text xml:space="preserve" text-anchor="middle" x="563.5" y="-1259.08" font-family="Helvetica,sans-Serif" font-size="14.00" fill="#ece1d7">② BASE_BACKUP pump — MultiplexSink fan&#45;out</text>
</g>
<g id="clust3" class="cluster">
<title>cluster_p3</title>
<path fill="#34302c" stroke="#4c4641" d="M20,-849.38C20,-849.38 308,-849.38 308,-849.38 314,-849.38 320,-855.38 320,-861.38 320,-861.38 320,-1024.75 320,-1024.75 320,-1030.75 314,-1036.75 308,-1036.75 308,-1036.75 20,-1036.75 20,-1036.75 14,-1036.75 8,-1030.75 8,-1024.75 8,-1024.75 8,-861.38 8,-861.38 8,-855.38 14,-849.38 20,-849.38"/>
<text xml:space="preserve" text-anchor="middle" x="164" y="-1019.45" font-family="Helvetica,sans-Serif" font-size="14.00" fill="#ece1d7">③ drain → ClickHouse &#160;(concurrent with ②)</text>
</g>
<g id="clust4" class="cluster">
<title>cluster_p4</title>
<path fill="#34302c" stroke="#4c4641" d="M819,-593.25C819,-593.25 1144,-593.25 1144,-593.25 1150,-593.25 1156,-599.25 1156,-605.25 1156,-605.25 1156,-1147.62 1156,-1147.62 1156,-1153.62 1150,-1159.62 1144,-1159.62 1144,-1159.62 819,-1159.62 819,-1159.62 813,-1159.62 807,-1153.62 807,-1147.62 807,-1147.62 807,-605.25 807,-605.25 807,-599.25 813,-593.25 819,-593.25"/>
<text xml:space="preserve" text-anchor="middle" x="981.5" y="-1142.33" font-family="Helvetica,sans-Serif" font-size="14.00" fill="#ece1d7">④ shadow handoff</text>
</g>
<g id="clust5" class="cluster">
<title>cluster_p5</title>
<path fill="#34302c" stroke="#4c4641" d="M709,-310C709,-310 1053,-310 1053,-310 1059,-310 1065,-316 1065,-322 1065,-322 1065,-552 1065,-552 1065,-558 1059,-564 1053,-564 1053,-564 709,-564 709,-564 703,-564 697,-558 697,-552 697,-552 697,-322 697,-322 697,-316 703,-310 709,-310"/>
<text xml:space="preserve" text-anchor="middle" x="881" y="-546.7" font-family="Helvetica,sans-Serif" font-size="14.00" fill="#ece1d7">⑤ cursor + WAL pump start &#160;(→ steady&#45;state)</text>
</g>
<!-- op1 -->
<g id="node1" class="node">
<title>op1</title>
<path fill="#403a36" stroke="#6e6963" d="M275.75,-1443.12C275.75,-1443.12 162.25,-1443.12 162.25,-1443.12 156.25,-1443.12 150.25,-1437.12 150.25,-1431.12 150.25,-1431.12 150.25,-1408.88 150.25,-1408.88 150.25,-1402.88 156.25,-1396.88 162.25,-1396.88 162.25,-1396.88 275.75,-1396.88 275.75,-1396.88 281.75,-1396.88 287.75,-1402.88 287.75,-1408.88 287.75,-1408.88 287.75,-1431.12 287.75,-1431.12 287.75,-1437.12 281.75,-1443.12 275.75,-1443.12"/>
<text xml:space="preserve" text-anchor="middle" x="219" y="-1429.62" font-family="Helvetica,sans-Serif" font-size="10.00" fill="#ece1d7">walshadow&#45;stream</text>
<text xml:space="preserve" text-anchor="middle" x="219" y="-1416.88" font-family="Helvetica,sans-Serif" font-size="10.00" fill="#ece1d7">&#45;&#45;bootstrap&#45;mode=direct</text>
<text xml:space="preserve" text-anchor="middle" x="219" y="-1404.12" font-family="Helvetica,sans-Serif" font-size="10.00" fill="#ece1d7">&#45;&#45;ch&#45;config=…</text>
</g>
<!-- map1 -->
<g id="node3" class="node">
<title>map1</title>
<path fill="#4d3a28" stroke="#6e6963" d="M298.62,-1349.62C298.62,-1349.62 139.38,-1349.62 139.38,-1349.62 133.38,-1349.62 127.38,-1343.62 127.38,-1337.62 127.38,-1337.62 127.38,-1325.62 127.38,-1325.62 127.38,-1319.62 133.38,-1313.62 139.38,-1313.62 139.38,-1313.62 298.62,-1313.62 298.62,-1313.62 304.62,-1313.62 310.62,-1319.62 310.62,-1325.62 310.62,-1325.62 310.62,-1337.62 310.62,-1337.62 310.62,-1343.62 304.62,-1349.62 298.62,-1349.62"/>
<text xml:space="preserve" text-anchor="middle" x="219" y="-1334.88" font-family="Helvetica,sans-Serif" font-size="10.00" fill="#ece1d7">CatalogTracker::seed_from_source</text>
<text xml:space="preserve" text-anchor="middle" x="219" y="-1322.12" font-family="Helvetica,sans-Serif" font-size="10.00" fill="#ece1d7">builds CatalogMap</text>
</g>
<!-- op1&#45;&gt;map1 -->
<g id="edge1" class="edge">
<title>op1&#45;&gt;map1</title>
<path fill="none" stroke="#c1a78e" d="M219,-1396.76C219,-1385.35 219,-1371.38 219,-1359.39"/>
<polygon fill="#c1a78e" stroke="#c1a78e" points="221.8,-1359.4 219,-1351.4 216.2,-1359.4 221.8,-1359.4"/>
<text xml:space="preserve" text-anchor="middle" x="233.62" y="-1370.33" font-family="Helvetica,sans-Serif" font-size="9.00" fill="#ece1d7">spawn</text>
</g>
<!-- sql1 -->
<g id="node2" class="node">
<title>sql1</title>
<path fill="#3d3d54" stroke="#6e6963" d="M299.75,-1243.12C299.75,-1243.12 138.25,-1243.12 138.25,-1243.12 132.25,-1243.12 126.25,-1237.12 126.25,-1231.12 126.25,-1231.12 126.25,-1208.88 126.25,-1208.88 126.25,-1202.88 132.25,-1196.88 138.25,-1196.88 138.25,-1196.88 299.75,-1196.88 299.75,-1196.88 305.75,-1196.88 311.75,-1202.88 311.75,-1208.88 311.75,-1208.88 311.75,-1231.12 311.75,-1231.12 311.75,-1237.12 305.75,-1243.12 299.75,-1243.12"/>
<text xml:space="preserve" text-anchor="middle" x="219" y="-1229.62" font-family="Helvetica,sans-Serif" font-size="10.00" fill="#ece1d7">sidecar SQL on source</text>
<text xml:space="preserve" text-anchor="middle" x="219" y="-1216.88" font-family="Helvetica,sans-Serif" font-size="10.00" fill="#ece1d7">SELECT oid, relfilenode</text>
<text xml:space="preserve" text-anchor="middle" x="219" y="-1204.12" font-family="Helvetica,sans-Serif" font-size="10.00" fill="#ece1d7">FROM pg_class WHERE oid≥16384</text>
</g>
<!-- map1&#45;&gt;sql1 -->
<g id="edge2" class="edge">
<title>map1&#45;&gt;sql1</title>
<path fill="none" stroke="#cba85e" d="M219,-1304.38C219,-1288.8 219,-1268.96 219,-1252.53"/>
<polygon fill="#cba85e" stroke="#cba85e" points="219,-1312.28 215.4,-1304.28 219,-1309.5 219,-1304.28 219,-1304.28 219,-1304.28 219,-1309.5 222.6,-1304.28 219,-1312.28"/>
<polygon fill="#cba85e" stroke="#cba85e" points="221.8,-1252.83 219,-1244.83 216.2,-1252.83 221.8,-1252.83"/>
<text xml:space="preserve" text-anchor="middle" x="230.25" y="-1287.08" font-family="Helvetica,sans-Serif" font-size="9.00" fill="#ece1d7">libpq</text>
</g>
<!-- bs2 -->
<g id="node4" class="node">
<title>bs2</title>
<path fill="#4d3a28" stroke="#6e6963" d="M599.38,-1243.12C599.38,-1243.12 504.62,-1243.12 504.62,-1243.12 498.62,-1243.12 492.62,-1237.12 492.62,-1231.12 492.62,-1231.12 492.62,-1208.88 492.62,-1208.88 492.62,-1202.88 498.62,-1196.88 504.62,-1196.88 504.62,-1196.88 599.38,-1196.88 599.38,-1196.88 605.38,-1196.88 611.38,-1202.88 611.38,-1208.88 611.38,-1208.88 611.38,-1231.12 611.38,-1231.12 611.38,-1237.12 605.38,-1243.12 599.38,-1243.12"/>
<text xml:space="preserve" text-anchor="middle" x="552" y="-1229.62" font-family="Helvetica,sans-Serif" font-size="10.00" fill="#ece1d7">BackupSource</text>
<text xml:space="preserve" text-anchor="middle" x="552" y="-1216.88" font-family="Helvetica,sans-Serif" font-size="10.00" fill="#ece1d7">(Direct | ObjectStore)</text>
<text xml:space="preserve" text-anchor="middle" x="552" y="-1204.12" font-family="Helvetica,sans-Serif" font-size="10.00" fill="#ece1d7">begin pump</text>
</g>
<!-- map1&#45;&gt;bs2 -->
<g id="edge7" class="edge">
<title>map1&#45;&gt;bs2</title>
<path fill="none" stroke="#a1a9cc" d="M272.13,-1313.13C300.52,-1303.79 337.29,-1291.68 374.78,-1279.34"/>
<polygon fill="#a1a9cc" stroke="#a1a9cc" points="375.64,-1282.01 382.37,-1276.84 373.89,-1276.69 375.64,-1282.01"/>
<text xml:space="preserve" text-anchor="middle" x="400.67" y="-1287.08" font-family="Helvetica,sans-Serif" font-size="9.00" fill="#ece1d7">open BASE_BACKUP</text>
</g>
<!-- src2 -->
<g id="node5" class="node">
<title>src2</title>
<path fill="#3d3d54" stroke="#6e6963" d="M445.88,-1131.5C445.88,-1131.5 348.12,-1131.5 348.12,-1131.5 342.12,-1131.5 336.12,-1125.5 336.12,-1119.5 336.12,-1119.5 336.12,-1097.25 336.12,-1097.25 336.12,-1091.25 342.12,-1085.25 348.12,-1085.25 348.12,-1085.25 445.88,-1085.25 445.88,-1085.25 451.88,-1085.25 457.88,-1091.25 457.88,-1097.25 457.88,-1097.25 457.88,-1119.5 457.88,-1119.5 457.88,-1125.5 451.88,-1131.5 445.88,-1131.5"/>
<text xml:space="preserve" text-anchor="middle" x="397" y="-1118" font-family="Helvetica,sans-Serif" font-size="10.00" fill="#ece1d7">BASE_BACKUP open</text>
<text xml:space="preserve" text-anchor="middle" x="397" y="-1105.25" font-family="Helvetica,sans-Serif" font-size="10.00" fill="#ece1d7">pg_export_snapshot()</text>
<text xml:space="preserve" text-anchor="middle" x="397" y="-1092.5" font-family="Helvetica,sans-Serif" font-size="10.00" fill="#ece1d7">start_lsn = X</text>
</g>
<!-- bs2&#45;&gt;src2 -->
<g id="edge3" class="edge">
<title>bs2&#45;&gt;src2</title>
<path fill="none" stroke="#a1a9cc" d="M484.23,-1193.94C475.41,-1189.49 466.75,-1184.47 459,-1178.88 443.73,-1167.86 429.52,-1152.49 418.57,-1139"/>
<polygon fill="#a1a9cc" stroke="#a1a9cc" points="491.26,-1197.33 482.49,-1197.1 488.75,-1196.13 484.05,-1193.86 484.05,-1193.86 484.05,-1193.86 488.75,-1196.13 485.62,-1190.62 491.26,-1197.33"/>
<polygon fill="#a1a9cc" stroke="#a1a9cc" points="420.93,-1137.47 413.78,-1132.93 416.54,-1140.94 420.93,-1137.47"/>
<text xml:space="preserve" text-anchor="middle" x="502.5" y="-1170.33" font-family="Helvetica,sans-Serif" font-size="9.00" fill="#ece1d7">replication protocol</text>
</g>
<!-- lan2 -->
<g id="node6" class="node">
<title>lan2</title>
<path fill="#4d3a28" stroke="#6e6963" d="M779.12,-1131.5C779.12,-1131.5 658.88,-1131.5 658.88,-1131.5 652.88,-1131.5 646.88,-1125.5 646.88,-1119.5 646.88,-1119.5 646.88,-1097.25 646.88,-1097.25 646.88,-1091.25 652.88,-1085.25 658.88,-1085.25 658.88,-1085.25 779.12,-1085.25 779.12,-1085.25 785.12,-1085.25 791.12,-1091.25 791.12,-1097.25 791.12,-1097.25 791.12,-1119.5 791.12,-1119.5 791.12,-1125.5 785.12,-1131.5 779.12,-1131.5"/>
<text xml:space="preserve" text-anchor="middle" x="719" y="-1118" font-family="Helvetica,sans-Serif" font-size="10.00" fill="#ece1d7">DiskLanderSink</text>
<text xml:space="preserve" text-anchor="middle" x="719" y="-1105.25" font-family="Helvetica,sans-Serif" font-size="10.00" fill="#ece1d7">catalog → shadow data dir</text>
<text xml:space="preserve" text-anchor="middle" x="719" y="-1092.5" font-family="Helvetica,sans-Serif" font-size="10.00" fill="#ece1d7">user&#45;heap filenode Skip</text>
</g>
<!-- bs2&#45;&gt;lan2 -->
<g id="edge4" class="edge">
<title>bs2&#45;&gt;lan2</title>
<path fill="none" stroke="#c1a78e" d="M589.92,-1196.45C599.17,-1190.81 608.99,-1184.7 618,-1178.88 638.64,-1165.52 661.21,-1150.06 679.78,-1137.13"/>
<polygon fill="#c1a78e" stroke="#c1a78e" points="681.27,-1139.5 686.23,-1132.62 678.07,-1134.91 681.27,-1139.5"/>
<text xml:space="preserve" text-anchor="middle" x="664.77" y="-1170.33" font-family="Helvetica,sans-Serif" font-size="9.00" fill="#ece1d7">MultiplexSink</text>
</g>
<!-- walk2 -->
<g id="node7" class="node">
<title>walk2</title>
<path fill="#4d3a28" stroke="#6e6963" d="M609.5,-1131.5C609.5,-1131.5 494.5,-1131.5 494.5,-1131.5 488.5,-1131.5 482.5,-1125.5 482.5,-1119.5 482.5,-1119.5 482.5,-1097.25 482.5,-1097.25 482.5,-1091.25 488.5,-1085.25 494.5,-1085.25 494.5,-1085.25 609.5,-1085.25 609.5,-1085.25 615.5,-1085.25 621.5,-1091.25 621.5,-1097.25 621.5,-1097.25 621.5,-1119.5 621.5,-1119.5 621.5,-1125.5 615.5,-1131.5 609.5,-1131.5"/>
<text xml:space="preserve" text-anchor="middle" x="552" y="-1118" font-family="Helvetica,sans-Serif" font-size="10.00" fill="#ece1d7">PageWalkSink</text>
<text xml:space="preserve" text-anchor="middle" x="552" y="-1105.25" font-family="Helvetica,sans-Serif" font-size="10.00" fill="#ece1d7">decode 8 KiB heap pages</text>
<text xml:space="preserve" text-anchor="middle" x="552" y="-1092.5" font-family="Helvetica,sans-Serif" font-size="10.00" fill="#ece1d7">→ BackfillTuple (mpsc)</text>
</g>
<!-- bs2&#45;&gt;walk2 -->
<g id="edge5" class="edge">
<title>bs2&#45;&gt;walk2</title>
<path fill="none" stroke="#c1a78e" d="M552,-1196.55C552,-1180.59 552,-1158.92 552,-1141.18"/>
<polygon fill="#c1a78e" stroke="#c1a78e" points="554.8,-1141.31 552,-1133.31 549.2,-1141.31 554.8,-1141.31"/>
<text xml:space="preserve" text-anchor="middle" x="582" y="-1170.33" font-family="Helvetica,sans-Serif" font-size="9.00" fill="#ece1d7">MultiplexSink</text>
</g>
<!-- end4 -->
<g id="node11" class="node">
<title>end4</title>
<path fill="#3d3d54" stroke="#6e6963" d="M912.75,-1126.38C912.75,-1126.38 829.25,-1126.38 829.25,-1126.38 823.25,-1126.38 817.25,-1120.38 817.25,-1114.38 817.25,-1114.38 817.25,-1102.38 817.25,-1102.38 817.25,-1096.38 823.25,-1090.38 829.25,-1090.38 829.25,-1090.38 912.75,-1090.38 912.75,-1090.38 918.75,-1090.38 924.75,-1096.38 924.75,-1102.38 924.75,-1102.38 924.75,-1114.38 924.75,-1114.38 924.75,-1120.38 918.75,-1126.38 912.75,-1126.38"/>
<text xml:space="preserve" text-anchor="middle" x="871" y="-1111.62" font-family="Helvetica,sans-Serif" font-size="10.00" fill="#ece1d7">BASE_BACKUP end</text>
<text xml:space="preserve" text-anchor="middle" x="871" y="-1098.88" font-family="Helvetica,sans-Serif" font-size="10.00" fill="#ece1d7">end_lsn = Y</text>
</g>
<!-- bs2&#45;&gt;end4 -->
<g id="edge17" class="edge">
<title>bs2&#45;&gt;end4</title>
<path fill="none" stroke="#a1a9cc" d="M611.85,-1212.16C662.38,-1204.8 736.01,-1190.33 798.64,-1162.49"/>
<polygon fill="#a1a9cc" stroke="#a1a9cc" points="799.52,-1165.17 805.63,-1159.29 797.19,-1160.07 799.52,-1165.17"/>
<text xml:space="preserve" text-anchor="middle" x="798.14" y="-1170.33" font-family="Helvetica,sans-Serif" font-size="9.00" fill="#ece1d7">finish</text>
</g>
<!-- dsk2 -->
<g id="node8" class="node">
<title>dsk2</title>
<polygon fill="#4d3850" stroke="#6e6963" points="768.62,-998.38 663.38,-998.38 663.38,-962.38 774.62,-962.38 774.62,-992.38 768.62,-998.38"/>
<polyline fill="none" stroke="#6e6963" points="768.62,-998.38 768.62,-992.38"/>
<polyline fill="none" stroke="#6e6963" points="774.62,-992.38 768.62,-992.38"/>
<text xml:space="preserve" text-anchor="middle" x="719" y="-983.62" font-family="Helvetica,sans-Serif" font-size="10.00" fill="#ece1d7">shadow data dir</text>
<text xml:space="preserve" text-anchor="middle" x="719" y="-970.88" font-family="Helvetica,sans-Serif" font-size="10.00" fill="#ece1d7">catalog files landed</text>
</g>
<!-- lan2&#45;&gt;dsk2 -->
<g id="edge6" class="edge">
<title>lan2&#45;&gt;dsk2</title>
<path fill="none" stroke="#c1a78e" d="M719,-1084.85C719,-1063.39 719,-1031.07 719,-1008.27"/>
<polygon fill="#c1a78e" stroke="#c1a78e" points="721.8,-1008.35 719,-1000.35 716.2,-1008.35 721.8,-1008.35"/>
<text xml:space="preserve" text-anchor="middle" x="737" y="-1053.08" font-family="Helvetica,sans-Serif" font-size="9.00" fill="#ece1d7">land file</text>
</g>
<!-- drain3 -->
<g id="node9" class="node">
<title>drain3</title>
<path fill="#4d3a28" stroke="#6e6963" d="M298.88,-1003.5C298.88,-1003.5 171.12,-1003.5 171.12,-1003.5 165.12,-1003.5 159.12,-997.5 159.12,-991.5 159.12,-991.5 159.12,-969.25 159.12,-969.25 159.12,-963.25 165.12,-957.25 171.12,-957.25 171.12,-957.25 298.88,-957.25 298.88,-957.25 304.88,-957.25 310.88,-963.25 310.88,-969.25 310.88,-969.25 310.88,-991.5 310.88,-991.5 310.88,-997.5 304.88,-1003.5 298.88,-1003.5"/>
<text xml:space="preserve" text-anchor="middle" x="235" y="-990" font-family="Helvetica,sans-Serif" font-size="10.00" fill="#ece1d7">drain_backfill task</text>
<text xml:space="preserve" text-anchor="middle" x="235" y="-977.25" font-family="Helvetica,sans-Serif" font-size="10.00" fill="#ece1d7">synthesize CommittedTuple</text>
<text xml:space="preserve" text-anchor="middle" x="235" y="-964.5" font-family="Helvetica,sans-Serif" font-size="10.00" fill="#ece1d7">{op=Insert, _lsn=start_lsn}</text>
</g>
<!-- walk2&#45;&gt;drain3 -->
<g id="edge9" class="edge">
<title>walk2&#45;&gt;drain3</title>
<path fill="none" stroke="#c1a78e" d="M482.11,-1088.15C430.15,-1073.47 362.8,-1053.56 328.4,-1039.45"/>
<polygon fill="#c1a78e" stroke="#c1a78e" points="329.84,-1037.03 321.39,-1036.42 327.61,-1042.16 329.84,-1037.03"/>
<text xml:space="preserve" text-anchor="middle" x="449.13" y="-1058.7" font-family="Helvetica,sans-Serif" font-size="9.00" fill="#ece1d7">BackfillTuple</text>
<text xml:space="preserve" text-anchor="middle" x="449.13" y="-1047.45" font-family="Helvetica,sans-Serif" font-size="9.00" fill="#ece1d7">(unbounded mpsc)</text>
</g>
<!-- ch3 -->
<g id="node10" class="node">
<title>ch3</title>
<path fill="#4d4128" stroke="#6e6963" d="M287,-903.62C287,-903.62 181,-903.62 181,-903.62 175,-903.62 169,-897.62 169,-891.62 169,-891.62 169,-869.38 169,-869.38 169,-863.38 175,-857.38 181,-857.38 181,-857.38 287,-857.38 287,-857.38 293,-857.38 299,-863.38 299,-869.38 299,-869.38 299,-891.62 299,-891.62 299,-897.62 293,-903.62 287,-903.62"/>
<text xml:space="preserve" text-anchor="middle" x="234" y="-890.12" font-family="Helvetica,sans-Serif" font-size="10.00" fill="#ece1d7">Emitter against</text>
<text xml:space="preserve" text-anchor="middle" x="234" y="-877.38" font-family="Helvetica,sans-Serif" font-size="10.00" fill="#ece1d7">CatalogMapResolver</text>
<text xml:space="preserve" text-anchor="middle" x="234" y="-864.62" font-family="Helvetica,sans-Serif" font-size="10.00" fill="#ece1d7">INSERT FORMAT Native</text>
</g>
<!-- drain3&#45;&gt;ch3 -->
<g id="edge8" class="edge">
<title>drain3&#45;&gt;ch3</title>
<path fill="none" stroke="#bf8c5f" d="M234.77,-957.17C234.64,-944.24 234.47,-927.73 234.33,-913.43"/>
<polygon fill="#bf8c5f" stroke="#bf8c5f" points="237.13,-913.44 234.24,-905.47 231.53,-913.5 237.13,-913.44"/>
<text xml:space="preserve" text-anchor="middle" x="273.59" y="-930.7" font-family="Helvetica,sans-Serif" font-size="9.00" fill="#ece1d7">per&#45;relation block</text>
</g>
<!-- out4 -->
<g id="node12" class="node">
<title>out4</title>
<path fill="#4d3a28" stroke="#6e6963" d="M918.75,-998.38C918.75,-998.38 829.25,-998.38 829.25,-998.38 823.25,-998.38 817.25,-992.38 817.25,-986.38 817.25,-986.38 817.25,-974.38 817.25,-974.38 817.25,-968.38 823.25,-962.38 829.25,-962.38 829.25,-962.38 918.75,-962.38 918.75,-962.38 924.75,-962.38 930.75,-968.38 930.75,-974.38 930.75,-974.38 930.75,-986.38 930.75,-986.38 930.75,-992.38 924.75,-998.38 918.75,-998.38"/>
<text xml:space="preserve" text-anchor="middle" x="874" y="-983.62" font-family="Helvetica,sans-Serif" font-size="10.00" fill="#ece1d7">BootstrapOutcome</text>
<text xml:space="preserve" text-anchor="middle" x="874" y="-970.88" font-family="Helvetica,sans-Serif" font-size="10.00" fill="#ece1d7">{start_lsn, end_lsn}</text>
</g>
<!-- end4&#45;&gt;out4 -->
<g id="edge10" class="edge">
<title>end4&#45;&gt;out4</title>
<path fill="none" stroke="#a1a9cc" d="M871.64,-1080.63C872.22,-1055.94 873.08,-1020.01 873.58,-998.83"/>
<polygon fill="#a1a9cc" stroke="#a1a9cc" points="868.84,-1080.54 871.45,-1088.61 874.44,-1080.68 868.84,-1080.54"/>
<text xml:space="preserve" text-anchor="middle" x="889.66" y="-1053.08" font-family="Helvetica,sans-Serif" font-size="9.00" fill="#ece1d7">end_lsn</text>
</g>
<!-- ctrl4 -->
<g id="node13" class="node">
<title>ctrl4</title>
<polygon fill="#4d3850" stroke="#6e6963" points="933,-898.5 815,-898.5 815,-862.5 939,-862.5 939,-892.5 933,-898.5"/>
<polyline fill="none" stroke="#6e6963" points="933,-898.5 933,-892.5"/>
<polyline fill="none" stroke="#6e6963" points="939,-892.5 933,-892.5"/>
<text xml:space="preserve" text-anchor="middle" x="877" y="-883.75" font-family="Helvetica,sans-Serif" font-size="10.00" fill="#ece1d7">pg_control landed last</text>
<text xml:space="preserve" text-anchor="middle" x="877" y="-871" font-family="Helvetica,sans-Serif" font-size="10.00" fill="#ece1d7">(barrier)</text>
</g>
<!-- out4&#45;&gt;ctrl4 -->
<!-- conf4 -->
<g id="node14" class="node">
<title>conf4</title>
<path fill="#4d3a28" stroke="#6e6963" d="M1136.38,-910C1136.38,-910 975.62,-910 975.62,-910 969.62,-910 963.62,-904 963.62,-898 963.62,-898 963.62,-863 963.62,-863 963.62,-857 969.62,-851 975.62,-851 975.62,-851 1136.38,-851 1136.38,-851 1142.38,-851 1148.38,-857 1148.38,-863 1148.38,-863 1148.38,-898 1148.38,-898 1148.38,-904 1142.38,-910 1136.38,-910"/>
<text xml:space="preserve" text-anchor="middle" x="1056" y="-896.5" font-family="Helvetica,sans-Serif" font-size="10.00" fill="#ece1d7">Shadow::enable_standby_recovery</text>
<text xml:space="preserve" text-anchor="middle" x="1056" y="-883.75" font-family="Helvetica,sans-Serif" font-size="10.00" fill="#ece1d7">append standby.signal +</text>
<text xml:space="preserve" text-anchor="middle" x="1056" y="-871" font-family="Helvetica,sans-Serif" font-size="10.00" fill="#ece1d7">restore_command +</text>
<text xml:space="preserve" text-anchor="middle" x="1056" y="-858.25" font-family="Helvetica,sans-Serif" font-size="10.00" fill="#ece1d7">primary_conninfo</text>
</g>
<!-- out4&#45;&gt;conf4 -->
<g id="edge12" class="edge">
<title>out4&#45;&gt;conf4</title>
<path fill="none" stroke="#c1a78e" d="M906.54,-961.88C930.84,-948.81 964.78,-930.56 994.18,-914.75"/>
<polygon fill="#c1a78e" stroke="#c1a78e" points="995.29,-917.33 1001.01,-911.07 992.64,-912.4 995.29,-917.33"/>
</g>
<!-- cur5 -->
<g id="node19" class="node">
<title>cur5</title>
<path fill="#4d3a28" stroke="#6e6963" d="M838.88,-530.75C838.88,-530.75 717.12,-530.75 717.12,-530.75 711.12,-530.75 705.12,-524.75 705.12,-518.75 705.12,-518.75 705.12,-506.75 705.12,-506.75 705.12,-500.75 711.12,-494.75 717.12,-494.75 717.12,-494.75 838.88,-494.75 838.88,-494.75 844.88,-494.75 850.88,-500.75 850.88,-506.75 850.88,-506.75 850.88,-518.75 850.88,-518.75 850.88,-524.75 844.88,-530.75 838.88,-530.75"/>
<text xml:space="preserve" text-anchor="middle" x="778" y="-516" font-family="Helvetica,sans-Serif" font-size="10.00" fill="#ece1d7">cursor::write</text>
<text xml:space="preserve" text-anchor="middle" x="778" y="-503.25" font-family="Helvetica,sans-Serif" font-size="10.00" fill="#ece1d7">emitter_ack_lsn = end_lsn</text>
</g>
<!-- out4&#45;&gt;cur5 -->
<g id="edge22" class="edge">
<title>out4&#45;&gt;cur5</title>
<path fill="none" stroke="#c1a78e" d="M838.71,-961.88C810.97,-945.37 777,-917.74 777,-881.5 777,-881.5 777,-881.5 777,-618.25 777,-603.74 777.1,-588.11 777.23,-573.46"/>
<polygon fill="#c1a78e" stroke="#c1a78e" points="780.03,-573.54 777.31,-565.51 774.43,-573.48 780.03,-573.54"/>
<text xml:space="preserve" text-anchor="middle" x="802.12" y="-741.2" font-family="Helvetica,sans-Serif" font-size="9.00" fill="#ece1d7">next phase</text>
</g>
<!-- files4 -->
<g id="node15" class="node">
<title>files4</title>
<polygon fill="#4d3850" stroke="#6e6963" points="947.12,-803.75 850.88,-803.75 850.88,-767.75 953.12,-767.75 953.12,-797.75 947.12,-803.75"/>
<polyline fill="none" stroke="#6e6963" points="947.12,-803.75 947.12,-797.75"/>
<polyline fill="none" stroke="#6e6963" points="953.12,-797.75 947.12,-797.75"/>
<text xml:space="preserve" text-anchor="middle" x="902" y="-789" font-family="Helvetica,sans-Serif" font-size="10.00" fill="#ece1d7">postgresql.conf +</text>
<text xml:space="preserve" text-anchor="middle" x="902" y="-776.25" font-family="Helvetica,sans-Serif" font-size="10.00" fill="#ece1d7">standby.signal</text>
</g>
<!-- conf4&#45;&gt;files4 -->
<g id="edge13" class="edge">
<title>conf4&#45;&gt;files4</title>
<path fill="none" stroke="#c1a78e" d="M1008.12,-850.66C985.82,-837.24 959.71,-821.51 938.97,-809.02"/>
<polygon fill="#c1a78e" stroke="#c1a78e" points="940.61,-806.73 932.31,-805.01 937.72,-811.53 940.61,-806.73"/>
<text xml:space="preserve" text-anchor="middle" x="985.63" y="-824.45" font-family="Helvetica,sans-Serif" font-size="9.00" fill="#ece1d7">write</text>
</g>
<!-- listen4 -->
<g id="node16" class="node">
<title>listen4</title>
<path fill="#4d3a28" stroke="#6e6963" d="M1122.12,-803.75C1122.12,-803.75 989.88,-803.75 989.88,-803.75 983.88,-803.75 977.88,-797.75 977.88,-791.75 977.88,-791.75 977.88,-779.75 977.88,-779.75 977.88,-773.75 983.88,-767.75 989.88,-767.75 989.88,-767.75 1122.12,-767.75 1122.12,-767.75 1128.12,-767.75 1134.12,-773.75 1134.12,-779.75 1134.12,-779.75 1134.12,-791.75 1134.12,-791.75 1134.12,-797.75 1128.12,-803.75 1122.12,-803.75"/>
<text xml:space="preserve" text-anchor="middle" x="1056" y="-789" font-family="Helvetica,sans-Serif" font-size="10.00" fill="#ece1d7">walsender listener up</text>
<text xml:space="preserve" text-anchor="middle" x="1056" y="-776.25" font-family="Helvetica,sans-Serif" font-size="10.00" fill="#ece1d7">(barrier before shadow start)</text>
</g>
<!-- conf4&#45;&gt;listen4 -->
<g id="edge14" class="edge">
<title>conf4&#45;&gt;listen4</title>
<path fill="none" stroke="#c1a78e" d="M1056,-850.66C1056,-838.78 1056,-825.1 1056,-813.45"/>
<polygon fill="#c1a78e" stroke="#c1a78e" points="1058.8,-813.74 1056,-805.74 1053.2,-813.74 1058.8,-813.74"/>
</g>
<!-- start4 -->
<g id="node17" class="node">
<title>start4</title>
<path fill="#4d3a28" stroke="#6e6963" d="M1119,-720.5C1119,-720.5 977,-720.5 977,-720.5 971,-720.5 965,-714.5 965,-708.5 965,-708.5 965,-696.5 965,-696.5 965,-690.5 971,-684.5 977,-684.5 977,-684.5 1119,-684.5 1119,-684.5 1125,-684.5 1131,-690.5 1131,-696.5 1131,-696.5 1131,-708.5 1131,-708.5 1131,-714.5 1125,-720.5 1119,-720.5"/>
<text xml:space="preserve" text-anchor="middle" x="1048" y="-705.75" font-family="Helvetica,sans-Serif" font-size="10.00" fill="#ece1d7">Shadow::start (recovery mode)</text>
<text xml:space="preserve" text-anchor="middle" x="1048" y="-693" font-family="Helvetica,sans-Serif" font-size="10.00" fill="#ece1d7">block_in_place pg_ctl</text>
</g>
<!-- listen4&#45;&gt;start4 -->
<g id="edge15" class="edge">
<title>listen4&#45;&gt;start4</title>
<path fill="none" stroke="#c1a78e" d="M1054.3,-767.52C1053.24,-756.71 1051.85,-742.56 1050.64,-730.3"/>
<polygon fill="#c1a78e" stroke="#c1a78e" points="1053.44,-730.18 1049.87,-722.49 1047.87,-730.73 1053.44,-730.18"/>
<text xml:space="preserve" text-anchor="middle" x="1067.48" y="-741.2" font-family="Helvetica,sans-Serif" font-size="9.00" fill="#ece1d7">barrier</text>
</g>
<!-- shd4 -->
<g id="node18" class="node">
<title>shd4</title>
<path fill="#3d4128" stroke="#6e6963" d="M1051.38,-637.25C1051.38,-637.25 932.62,-637.25 932.62,-637.25 926.62,-637.25 920.62,-631.25 920.62,-625.25 920.62,-625.25 920.62,-613.25 920.62,-613.25 920.62,-607.25 926.62,-601.25 932.62,-601.25 932.62,-601.25 1051.38,-601.25 1051.38,-601.25 1057.38,-601.25 1063.38,-607.25 1063.38,-613.25 1063.38,-613.25 1063.38,-625.25 1063.38,-625.25 1063.38,-631.25 1057.38,-637.25 1051.38,-637.25"/>
<text xml:space="preserve" text-anchor="middle" x="992" y="-622.5" font-family="Helvetica,sans-Serif" font-size="10.00" fill="#ece1d7">postmaster + walreceiver</text>
<text xml:space="preserve" text-anchor="middle" x="992" y="-609.75" font-family="Helvetica,sans-Serif" font-size="10.00" fill="#ece1d7">begin replay</text>
</g>
<!-- start4&#45;&gt;shd4 -->
<g id="edge16" class="edge">
<title>start4&#45;&gt;shd4</title>
<path fill="none" stroke="#c1a78e" d="M1036.12,-684.27C1028.31,-672.93 1017.95,-657.9 1009.23,-645.25"/>
<polygon fill="#c1a78e" stroke="#c1a78e" points="1011.76,-643.98 1004.91,-638.98 1007.15,-647.16 1011.76,-643.98"/>
<text xml:space="preserve" text-anchor="middle" x="1049.23" y="-657.95" font-family="Helvetica,sans-Serif" font-size="9.00" fill="#ece1d7">pg_ctl start</text>
</g>
<!-- apply5 -->
<g id="node23" class="node">
<title>apply5</title>
<path fill="#3d4128" stroke="#6e6963" d="M1044.5,-530.75C1044.5,-530.75 887.5,-530.75 887.5,-530.75 881.5,-530.75 875.5,-524.75 875.5,-518.75 875.5,-518.75 875.5,-506.75 875.5,-506.75 875.5,-500.75 881.5,-494.75 887.5,-494.75 887.5,-494.75 1044.5,-494.75 1044.5,-494.75 1050.5,-494.75 1056.5,-500.75 1056.5,-506.75 1056.5,-506.75 1056.5,-518.75 1056.5,-518.75 1056.5,-524.75 1050.5,-530.75 1044.5,-530.75"/>
<text xml:space="preserve" text-anchor="middle" x="966" y="-516" font-family="Helvetica,sans-Serif" font-size="10.00" fill="#ece1d7">pg_last_wal_replay_lsn ≥ end_lsn</text>
<text xml:space="preserve" text-anchor="middle" x="966" y="-503.25" font-family="Helvetica,sans-Serif" font-size="10.00" fill="#ece1d7">ready for relation_at gate</text>
</g>
<!-- shd4&#45;&gt;apply5 -->
<g id="edge23" class="edge">
<title>shd4&#45;&gt;apply5</title>
<path fill="none" stroke="#869461" stroke-dasharray="5,2" d="M987.71,-600.99C983.59,-584.43 977.3,-559.18 972.56,-540.1"/>
<polygon fill="#869461" stroke="#869461" points="975.31,-539.59 970.67,-532.5 969.88,-540.94 975.31,-539.59"/>
<text xml:space="preserve" text-anchor="middle" x="1023.35" y="-574.7" font-family="Helvetica,sans-Serif" font-size="9.00" fill="#ece1d7">replay catches up</text>
</g>
<!-- curd5 -->
<g id="node20" class="node">
<title>curd5</title>
<polygon fill="#4d3850" stroke="#6e6963" points="833.38,-442.38 708.62,-442.38 708.62,-406.38 839.38,-406.38 839.38,-436.38 833.38,-442.38"/>
<polyline fill="none" stroke="#6e6963" points="833.38,-442.38 833.38,-436.38"/>
<polyline fill="none" stroke="#6e6963" points="839.38,-436.38 833.38,-436.38"/>
<text xml:space="preserve" text-anchor="middle" x="774" y="-427.62" font-family="Helvetica,sans-Serif" font-size="10.00" fill="#ece1d7">cursor.bin</text>
<text xml:space="preserve" text-anchor="middle" x="774" y="-414.88" font-family="Helvetica,sans-Serif" font-size="10.00" fill="#ece1d7">atomic rename + fsync</text>
</g>
<!-- cur5&#45;&gt;curd5 -->
<g id="edge18" class="edge">
<title>cur5&#45;&gt;curd5</title>
<path fill="none" stroke="#c1a78e" d="M777.19,-494.27C776.63,-482.21 775.88,-465.95 775.24,-452.25"/>
<polygon fill="#c1a78e" stroke="#c1a78e" points="778.05,-452.2 774.88,-444.34 772.45,-452.46 778.05,-452.2"/>
<text xml:space="preserve" text-anchor="middle" x="788.36" y="-468.2" font-family="Helvetica,sans-Serif" font-size="9.00" fill="#ece1d7">fsync</text>
</g>
<!-- feed5 -->
<g id="node21" class="node">
<title>feed5</title>
<path fill="#4d3a28" stroke="#6e6963" d="M973.12,-447.5C973.12,-447.5 876.88,-447.5 876.88,-447.5 870.88,-447.5 864.88,-441.5 864.88,-435.5 864.88,-435.5 864.88,-413.25 864.88,-413.25 864.88,-407.25 870.88,-401.25 876.88,-401.25 876.88,-401.25 973.12,-401.25 973.12,-401.25 979.12,-401.25 985.12,-407.25 985.12,-413.25 985.12,-413.25 985.12,-435.5 985.12,-435.5 985.12,-441.5 979.12,-447.5 973.12,-447.5"/>
<text xml:space="preserve" text-anchor="middle" x="925" y="-434" font-family="Helvetica,sans-Serif" font-size="10.00" fill="#ece1d7">SourceFeed open</text>
<text xml:space="preserve" text-anchor="middle" x="925" y="-421.25" font-family="Helvetica,sans-Serif" font-size="10.00" fill="#ece1d7">START_REPLICATION</text>
<text xml:space="preserve" text-anchor="middle" x="925" y="-408.5" font-family="Helvetica,sans-Serif" font-size="10.00" fill="#ece1d7">PHYSICAL &lt;end_lsn&gt;</text>
</g>
<!-- cur5&#45;&gt;feed5 -->
<g id="edge19" class="edge">
<title>cur5&#45;&gt;feed5</title>
<path fill="none" stroke="#c1a78e" d="M807.75,-494.27C828.09,-482.32 855.45,-466.24 878.63,-452.62"/>
<polygon fill="#c1a78e" stroke="#c1a78e" points="879.85,-455.15 885.33,-448.69 877.01,-450.32 879.85,-455.15"/>
</g>
<!-- repl5 -->
<g id="node22" class="node">
<title>repl5</title>
<path fill="#3d3d54" stroke="#6e6963" d="M873.12,-354C873.12,-354 788.88,-354 788.88,-354 782.88,-354 776.88,-348 776.88,-342 776.88,-342 776.88,-330 776.88,-330 776.88,-324 782.88,-318 788.88,-318 788.88,-318 873.12,-318 873.12,-318 879.12,-318 885.12,-324 885.12,-330 885.12,-330 885.12,-342 885.12,-342 885.12,-348 879.12,-354 873.12,-354"/>
<text xml:space="preserve" text-anchor="middle" x="831" y="-339.25" font-family="Helvetica,sans-Serif" font-size="10.00" fill="#ece1d7">streaming protocol</text>
<text xml:space="preserve" text-anchor="middle" x="831" y="-326.5" font-family="Helvetica,sans-Serif" font-size="10.00" fill="#ece1d7">opens at end_lsn</text>
</g>
<!-- feed5&#45;&gt;repl5 -->
<g id="edge20" class="edge">
<title>feed5&#45;&gt;repl5</title>
<path fill="none" stroke="#a1a9cc" d="M865.49,-395.98C860.22,-392.16 855.27,-387.92 851,-383.25 845.77,-377.53 841.76,-370.23 838.76,-363.13"/>
<polygon fill="#a1a9cc" stroke="#a1a9cc" points="871.83,-400.25 863.18,-398.76 869.52,-398.69 865.19,-395.78 865.19,-395.78 865.19,-395.78 869.52,-398.69 867.2,-392.79 871.83,-400.25"/>
<polygon fill="#a1a9cc" stroke="#a1a9cc" points="841.44,-362.3 836.01,-355.79 836.2,-364.27 841.44,-362.3"/>
<text xml:space="preserve" text-anchor="middle" x="896" y="-374.7" font-family="Helvetica,sans-Serif" font-size="9.00" fill="#ece1d7">START_REPLICATION</text>
</g>
<!-- hot5 -->
<g id="node24" class="node">
<title>hot5</title>
<polygon fill="#4d3a28" stroke="#6e6963" points="1020.25,-348 909.75,-348 909.75,-324 1020.25,-324 1032.25,-336 1020.25,-348"/>
<text xml:space="preserve" text-anchor="middle" x="971" y="-339.25" font-family="Helvetica,sans-Serif" font-size="10.00" fill="#ece1d7">hot streaming</text>
<text xml:space="preserve" text-anchor="middle" x="971" y="-326.5" font-family="Helvetica,sans-Serif" font-size="10.00" fill="#ece1d7">→ timeline_streaming</text>
</g>
<!-- feed5&#45;&gt;hot5 -->
<g id="edge21" class="edge">
<title>feed5&#45;&gt;hot5</title>
<path fill="none" stroke="#c1a78e" d="M936.85,-401.13C943.16,-389.27 950.96,-374.63 957.51,-362.34"/>
<polygon fill="#c1a78e" stroke="#c1a78e" points="959.81,-363.98 961.1,-355.6 954.86,-361.34 959.81,-363.98"/>
</g>
<!-- legend -->
<g id="node25" class="node">
<title>legend</title>
<path fill="#6e6963" stroke="none" d="M1055,-281C1055,-281 887,-281 887,-281 881,-281 875,-275 875,-269 875,-269 875,-12 875,-12 875,-6 881,0 887,0 887,0 1055,0 1055,0 1061,0 1067,-6 1067,-12 1067,-12 1067,-269 1067,-269 1067,-275 1061,-281 1055,-281"/>
<polygon fill="#34302c" stroke="none" points="883,-254.25 883,-277 1059,-277 1059,-254.25 883,-254.25"/>
<polygon fill="none" stroke="#6e6963" points="883,-254.25 883,-277 1059,-277 1059,-254.25 883,-254.25"/>
<text xml:space="preserve" text-anchor="start" x="924.5" y="-263.5" font-family="Helvetica,sans-Serif" font-weight="bold" font-size="10.00" fill="#ece1d7">node fill — actor</text>
<polygon fill="#403a36" stroke="none" points="883,-231.5 883,-254.25 911,-254.25 911,-231.5 883,-231.5"/>
<polygon fill="none" stroke="#6e6963" points="883,-231.5 883,-254.25 911,-254.25 911,-231.5 883,-231.5"/>
<polygon fill="none" stroke="#6e6963" points="911,-231.5 911,-254.25 1059,-254.25 1059,-231.5 911,-231.5"/>
<text xml:space="preserve" text-anchor="start" x="952.38" y="-239.5" font-family="Helvetica,sans-Serif" font-size="10.00" fill="#ece1d7">operator / CLI</text>
<polygon fill="#3d3d54" stroke="none" points="883,-208.75 883,-231.5 911,-231.5 911,-208.75 883,-208.75"/>
<polygon fill="none" stroke="#6e6963" points="883,-208.75 883,-231.5 911,-231.5 911,-208.75 883,-208.75"/>
<polygon fill="none" stroke="#6e6963" points="911,-208.75 911,-231.5 1059,-231.5 1059,-208.75 911,-208.75"/>
<text xml:space="preserve" text-anchor="start" x="946.38" y="-216.75" font-family="Helvetica,sans-Serif" font-size="10.00" fill="#ece1d7">source Postgres</text>
<polygon fill="#4d3a28" stroke="none" points="883,-186 883,-208.75 911,-208.75 911,-186 883,-186"/>
<polygon fill="none" stroke="#6e6963" points="883,-186 883,-208.75 911,-208.75 911,-186 883,-186"/>
<polygon fill="none" stroke="#6e6963" points="911,-186 911,-208.75 1059,-208.75 1059,-186 911,-186"/>
<text xml:space="preserve" text-anchor="start" x="938.5" y="-194" font-family="Helvetica,sans-Serif" font-size="10.00" fill="#ece1d7">walshadow&#45;stream</text>
<polygon fill="#4d3850" stroke="none" points="883,-163.25 883,-186 911,-186 911,-163.25 883,-163.25"/>
<polygon fill="none" stroke="#6e6963" points="883,-163.25 883,-186 911,-186 911,-163.25 883,-163.25"/>
<polygon fill="none" stroke="#6e6963" points="911,-163.25 911,-186 1059,-186 1059,-163.25 911,-163.25"/>
<text xml:space="preserve" text-anchor="start" x="947.88" y="-171.25" font-family="Helvetica,sans-Serif" font-size="10.00" fill="#ece1d7">on&#45;disk artifact</text>
<polygon fill="#3d4128" stroke="none" points="883,-140.5 883,-163.25 911,-163.25 911,-140.5 883,-140.5"/>
<polygon fill="none" stroke="#6e6963" points="883,-140.5 883,-163.25 911,-163.25 911,-140.5 883,-140.5"/>
<polygon fill="none" stroke="#6e6963" points="911,-140.5 911,-163.25 1059,-163.25 1059,-140.5 911,-140.5"/>
<text xml:space="preserve" text-anchor="start" x="943.75" y="-148.5" font-family="Helvetica,sans-Serif" font-size="10.00" fill="#ece1d7">shadow Postgres</text>
<polygon fill="#4d4128" stroke="none" points="883,-117.75 883,-140.5 911,-140.5 911,-117.75 883,-117.75"/>
<polygon fill="none" stroke="#6e6963" points="883,-117.75 883,-140.5 911,-140.5 911,-117.75 883,-117.75"/>
<polygon fill="none" stroke="#6e6963" points="911,-117.75 911,-140.5 1059,-140.5 1059,-117.75 911,-117.75"/>
<text xml:space="preserve" text-anchor="start" x="957.62" y="-125.75" font-family="Helvetica,sans-Serif" font-size="10.00" fill="#ece1d7">ClickHouse</text>
<polygon fill="#34302c" stroke="none" points="883,-95 883,-117.75 1059,-117.75 1059,-95 883,-95"/>
<polygon fill="none" stroke="#6e6963" points="883,-95 883,-117.75 1059,-117.75 1059,-95 883,-95"/>
<text xml:space="preserve" text-anchor="start" x="937.25" y="-104.25" font-family="Helvetica,sans-Serif" font-weight="bold" font-size="10.00" fill="#ece1d7">edge colour</text>
<polygon fill="none" stroke="#6e6963" points="883,-72.25 883,-95 911,-95 911,-72.25 883,-72.25"/>
<text xml:space="preserve" text-anchor="start" x="891" y="-81.5" font-family="Helvetica,sans-Serif" font-weight="bold" font-size="10.00" fill="#a1a9cc">━━</text>
<polygon fill="none" stroke="#6e6963" points="911,-72.25 911,-95 1059,-95 1059,-72.25 911,-72.25"/>
<text xml:space="preserve" text-anchor="start" x="916" y="-80.25" font-family="Helvetica,sans-Serif" font-size="10.00" fill="#ece1d7">physical replication protocol</text>
<polygon fill="none" stroke="#6e6963" points="883,-49.5 883,-72.25 911,-72.25 911,-49.5 883,-49.5"/>
<text xml:space="preserve" text-anchor="start" x="891" y="-58.75" font-family="Helvetica,sans-Serif" font-weight="bold" font-size="10.00" fill="#cba85e">━━</text>
<polygon fill="none" stroke="#6e6963" points="911,-49.5 911,-72.25 1059,-72.25 1059,-49.5 911,-49.5"/>
<text xml:space="preserve" text-anchor="start" x="938.12" y="-57.5" font-family="Helvetica,sans-Serif" font-size="10.00" fill="#ece1d7">libpq catalog query</text>
<polygon fill="none" stroke="#6e6963" points="883,-26.75 883,-49.5 911,-49.5 911,-26.75 883,-26.75"/>
<text xml:space="preserve" text-anchor="start" x="891" y="-36" font-family="Helvetica,sans-Serif" font-weight="bold" font-size="10.00" fill="#bf8c5f">━━</text>
<polygon fill="none" stroke="#6e6963" points="911,-26.75 911,-49.5 1059,-49.5 1059,-26.75 911,-26.75"/>
<text xml:space="preserve" text-anchor="start" x="922.75" y="-34.75" font-family="Helvetica,sans-Serif" font-size="10.00" fill="#ece1d7">ClickHouse Native blocks</text>
<polygon fill="none" stroke="#6e6963" points="883,-4 883,-26.75 911,-26.75 911,-4 883,-4"/>
<text xml:space="preserve" text-anchor="start" x="891" y="-13.25" font-family="Helvetica,sans-Serif" font-weight="bold" font-size="10.00" fill="#869461">┄┄</text>
<polygon fill="none" stroke="#6e6963" points="911,-4 911,-26.75 1059,-26.75 1059,-4 911,-4"/>
<text xml:space="preserve" text-anchor="start" x="926.88" y="-12" font-family="Helvetica,sans-Serif" font-size="10.00" fill="#ece1d7">shadow replay progress</text>
</g>
<!-- hot5&#45;&gt;legend -->
</g>
</svg>
