<?xml version="1.0" encoding="UTF-8" standalone="no"?>
<!DOCTYPE svg PUBLIC "-//W3C//DTD SVG 1.1//EN"
 "http://www.w3.org/Graphics/SVG/1.1/DTD/svg11.dtd">
<!-- Generated by graphviz version 15.1.0 (20260618.0150)
 -->
<!-- Title: toast Pages: 1 -->
<svg width="1605pt" height="1231pt"
 viewBox="0.00 0.00 1605.00 1231.00" xmlns="http://www.w3.org/2000/svg" xmlns:xlink="http://www.w3.org/1999/xlink">
<g id="graph0" class="graph" transform="scale(1 1) rotate(0) translate(4 1227.38)">
<title>toast</title>
<polygon fill="#272623" stroke="none" points="-4,4 -4,-1227.38 1601,-1227.38 1601,4 -4,4"/>
<text xml:space="preserve" text-anchor="middle" x="798.5" y="-1206.08" font-family="Helvetica,sans-Serif" font-size="14.00" fill="#ece1d7">walshadow TOAST — in&#45;xact reassembly + TID&#45;keyed ClickHouse mirror + lifecycle</text>
<g id="clust1" class="cluster">
<title>cluster_stream</title>
<path fill="#34302c" stroke="#4c4641" d="M451,-460.88C451,-460.88 783,-460.88 783,-460.88 789,-460.88 795,-466.88 795,-472.88 795,-472.88 795,-1088.12 795,-1088.12 795,-1094.12 789,-1100.12 783,-1100.12 783,-1100.12 451,-1100.12 451,-1100.12 445,-1100.12 439,-1094.12 439,-1088.12 439,-1088.12 439,-472.88 439,-472.88 439,-466.88 445,-460.88 451,-460.88"/>
<text xml:space="preserve" text-anchor="middle" x="617" y="-1082.83" font-family="Helvetica,sans-Serif" font-size="14.00" fill="#ece1d7">streaming commit — WAL order, abort&#45;safe</text>
</g>
<g id="clust2" class="cluster">
<title>cluster_store</title>
<path fill="#34302c" stroke="#4c4641" d="M1212,-8C1212,-8 1577,-8 1577,-8 1583,-8 1589,-14 1589,-20 1589,-20 1589,-831.38 1589,-831.38 1589,-837.38 1583,-843.38 1577,-843.38 1577,-843.38 1212,-843.38 1212,-843.38 1206,-843.38 1200,-837.38 1200,-831.38 1200,-831.38 1200,-20 1200,-20 1200,-14 1206,-8 1212,-8"/>
<text xml:space="preserve" text-anchor="middle" x="1394.5" y="-826.08" font-family="Helvetica,sans-Serif" font-size="14.00" fill="#ece1d7">ToastResolver / ChunkStore — store&#45;backed slow path</text>
</g>
<g id="clust3" class="cluster">
<title>cluster_bootstrap</title>
<path fill="#34302c" stroke="#4c4641" d="M815,-623.25C815,-623.25 1180,-623.25 1180,-623.25 1186,-623.25 1192,-629.25 1192,-635.25 1192,-635.25 1192,-941.88 1192,-941.88 1192,-947.88 1186,-953.88 1180,-953.88 1180,-953.88 815,-953.88 815,-953.88 809,-953.88 803,-947.88 803,-941.88 803,-941.88 803,-635.25 803,-635.25 803,-629.25 809,-623.25 815,-623.25"/>
<text xml:space="preserve" text-anchor="middle" x="997.5" y="-936.58" font-family="Helvetica,sans-Serif" font-size="14.00" fill="#ece1d7">bootstrap — put all chunks before deferred resolution</text>
</g>
<g id="clust4" class="cluster">
<title>cluster_lifecycle</title>
<path fill="#34302c" stroke="#4c4641" d="M20,-198.62C20,-198.62 419,-198.62 419,-198.62 425,-198.62 431,-204.62 431,-210.62 431,-210.62 431,-941.88 431,-941.88 431,-947.88 425,-953.88 419,-953.88 419,-953.88 20,-953.88 20,-953.88 14,-953.88 8,-947.88 8,-941.88 8,-941.88 8,-210.62 8,-210.62 8,-204.62 14,-198.62 20,-198.62"/>
<text xml:space="preserve" text-anchor="middle" x="219.5" y="-936.58" font-family="Helvetica,sans-Serif" font-size="14.00" fill="#ece1d7">lifecycle barriers — TRUNCATE, DROP, rewrite stay distinct</text>
</g>
<!-- wal -->
<g id="node1" class="node">
<title>wal</title>
<path fill="#3d3d54" stroke="#6e6963" d="M657.22,-1198.12C657.22,-1198.12 458.16,-1198.12 458.16,-1198.12 452.16,-1198.12 442.26,-1193.57 438.36,-1189.01 438.36,-1189.01 396.58,-1140.24 396.58,-1140.24 392.68,-1135.68 394.78,-1131.12 400.78,-1131.12 400.78,-1131.12 599.84,-1131.12 599.84,-1131.12 605.84,-1131.12 615.74,-1135.68 619.64,-1140.24 619.64,-1140.24 661.42,-1189.01 661.42,-1189.01 665.32,-1193.57 663.22,-1198.12 657.22,-1198.12"/>
<text xml:space="preserve" text-anchor="middle" x="529" y="-1167.88" font-family="Helvetica,sans-Serif" font-size="10.00" fill="#ece1d7">source WAL</text>
<text xml:space="preserve" text-anchor="middle" x="529" y="-1155.12" font-family="Helvetica,sans-Serif" font-size="10.00" fill="#ece1d7">heap + pg_toast records</text>
</g>
<!-- decode -->
<g id="node2" class="node">
<title>decode</title>
<path fill="#4d4128" stroke="#6e6963" d="M593.25,-1066.88C593.25,-1066.88 464.75,-1066.88 464.75,-1066.88 458.75,-1066.88 452.75,-1060.88 452.75,-1054.88 452.75,-1054.88 452.75,-1007.12 452.75,-1007.12 452.75,-1001.12 458.75,-995.12 464.75,-995.12 464.75,-995.12 593.25,-995.12 593.25,-995.12 599.25,-995.12 605.25,-1001.12 605.25,-1007.12 605.25,-1007.12 605.25,-1054.88 605.25,-1054.88 605.25,-1060.88 599.25,-1066.88 593.25,-1066.88"/>
<text xml:space="preserve" text-anchor="middle" x="529" y="-1053.38" font-family="Helvetica,sans-Serif" font-size="10.00" fill="#ece1d7">BufferingDecoderSink</text>
<text xml:space="preserve" text-anchor="middle" x="529" y="-1040.62" font-family="Helvetica,sans-Serif" font-size="10.00" fill="#ece1d7">main heap → DecodedHeap</text>
<text xml:space="preserve" text-anchor="middle" x="529" y="-1027.88" font-family="Helvetica,sans-Serif" font-size="10.00" fill="#ece1d7">toast INSERT → ToastChunk</text>
<text xml:space="preserve" text-anchor="middle" x="529" y="-1015.12" font-family="Helvetica,sans-Serif" font-size="10.00" fill="#ece1d7">toast DELETE → ToastDelete</text>
<text xml:space="preserve" text-anchor="middle" x="529" y="-1002.38" font-family="Helvetica,sans-Serif" font-size="10.00" fill="#ece1d7">TID + record LSN</text>
</g>
<!-- wal&#45;&gt;decode -->
<g id="edge5" class="edge">
<title>wal&#45;&gt;decode</title>
<path fill="none" stroke="#c1a78e" d="M529,-1130.75C529,-1114.28 529,-1094.1 529,-1076.29"/>
<polygon fill="#c1a78e" stroke="#c1a78e" points="531.8,-1076.73 529,-1068.73 526.2,-1076.73 531.8,-1076.73"/>
</g>
<!-- spill -->
<g id="node3" class="node">
<title>spill</title>
<path fill="#4d4128" stroke="#6e6963" d="M619,-920.62C619,-920.62 465,-920.62 465,-920.62 459,-920.62 453,-914.62 453,-908.62 453,-908.62 453,-886.38 453,-886.38 453,-880.38 459,-874.38 465,-874.38 465,-874.38 619,-874.38 619,-874.38 625,-874.38 631,-880.38 631,-886.38 631,-886.38 631,-908.62 631,-908.62 631,-914.62 625,-920.62 619,-920.62"/>
<text xml:space="preserve" text-anchor="middle" x="542" y="-907.12" font-family="Helvetica,sans-Serif" font-size="10.00" fill="#ece1d7">XactBuffer / spill v4</text>
<text xml:space="preserve" text-anchor="middle" x="542" y="-894.38" font-family="Helvetica,sans-Serif" font-size="10.00" fill="#ece1d7">Heap | Chunk | ToastDelete | Raw</text>
<text xml:space="preserve" text-anchor="middle" x="542" y="-881.62" font-family="Helvetica,sans-Serif" font-size="10.00" fill="#ece1d7">abort discards</text>
</g>
<!-- decode&#45;&gt;spill -->
<g id="edge1" class="edge">
<title>decode&#45;&gt;spill</title>
<path fill="none" stroke="#c1a78e" d="M532.48,-994.76C534.47,-974.72 536.93,-949.81 538.85,-930.35"/>
<polygon fill="#c1a78e" stroke="#c1a78e" points="541.63,-930.75 539.63,-922.51 536.05,-930.2 541.63,-930.75"/>
</g>
<!-- marker -->
<g id="node20" class="node">
<title>marker</title>
<path fill="#5d4628" stroke="#6e6963" d="M367.88,-920.62C367.88,-920.62 234.12,-920.62 234.12,-920.62 228.12,-920.62 222.12,-914.62 222.12,-908.62 222.12,-908.62 222.12,-886.38 222.12,-886.38 222.12,-880.38 228.12,-874.38 234.12,-874.38 234.12,-874.38 367.88,-874.38 367.88,-874.38 373.88,-874.38 379.88,-880.38 379.88,-886.38 379.88,-886.38 379.88,-908.62 379.88,-908.62 379.88,-914.62 373.88,-920.62 367.88,-920.62"/>
<text xml:space="preserve" text-anchor="middle" x="301" y="-907.12" font-family="Helvetica,sans-Serif" font-size="10.00" fill="#ece1d7">XLOG_SMGR_CREATE marker</text>
<text xml:space="preserve" text-anchor="middle" x="301" y="-894.38" font-family="Helvetica,sans-Serif" font-size="10.00" fill="#ece1d7">+ SpillEntry::Raw stash</text>
<text xml:space="preserve" text-anchor="middle" x="301" y="-881.62" font-family="Helvetica,sans-Serif" font-size="10.00" fill="#ece1d7">resolve at commit</text>
</g>
<!-- decode&#45;&gt;marker -->
<g id="edge27" class="edge">
<title>decode&#45;&gt;marker</title>
<path fill="none" stroke="#c1a78e" stroke-dasharray="5,2" d="M467.9,-994.76C430.29,-973.07 382.8,-945.68 348.11,-925.67"/>
<polygon fill="#c1a78e" stroke="#c1a78e" points="349.66,-923.34 341.34,-921.76 346.87,-928.19 349.66,-923.34"/>
<text xml:space="preserve" text-anchor="middle" x="472.53" y="-964.58" font-family="Helvetica,sans-Serif" font-size="9.00" fill="#ece1d7">invisible generation</text>
</g>
<!-- drain -->
<g id="node4" class="node">
<title>drain</title>
<path fill="#4d4128" stroke="#6e6963" d="M636.62,-821.62C636.62,-821.62 459.38,-821.62 459.38,-821.62 453.38,-821.62 447.38,-815.62 447.38,-809.62 447.38,-809.62 447.38,-774.62 447.38,-774.62 447.38,-768.62 453.38,-762.62 459.38,-762.62 459.38,-762.62 636.62,-762.62 636.62,-762.62 642.62,-762.62 648.62,-768.62 648.62,-774.62 648.62,-774.62 648.62,-809.62 648.62,-809.62 648.62,-815.62 642.62,-821.62 636.62,-821.62"/>
<text xml:space="preserve" text-anchor="middle" x="548" y="-808.12" font-family="Helvetica,sans-Serif" font-size="10.00" fill="#ece1d7">CommittedDrain → DrainedBatch</text>
<text xml:space="preserve" text-anchor="middle" x="548" y="-795.38" font-family="Helvetica,sans-Serif" font-size="10.00" fill="#ece1d7">chunks: Arc&lt;ChunkMap&gt; generations</text>
<text xml:space="preserve" text-anchor="middle" x="548" y="-782.62" font-family="Helvetica,sans-Serif" font-size="10.00" fill="#ece1d7">new_rows: births + tombstones</text>
<text xml:space="preserve" text-anchor="middle" x="548" y="-769.88" font-family="Helvetica,sans-Serif" font-size="10.00" fill="#ece1d7">ordered row/event cursors</text>
</g>
<!-- spill&#45;&gt;drain -->
<g id="edge2" class="edge">
<title>spill&#45;&gt;drain</title>
<path fill="none" stroke="#c1a78e" d="M543.3,-874.07C544.03,-861.5 544.96,-845.49 545.8,-831.04"/>
<polygon fill="#c1a78e" stroke="#c1a78e" points="548.58,-831.47 546.25,-823.32 542.99,-831.15 548.58,-831.47"/>
</g>
<!-- detoast -->
<g id="node5" class="node">
<title>detoast</title>
<path fill="#5d4628" stroke="#6e6963" d="M676.38,-672.38C676.38,-672.38 557.62,-672.38 557.62,-672.38 551.62,-672.38 545.62,-666.38 545.62,-660.38 545.62,-660.38 545.62,-638.12 545.62,-638.12 545.62,-632.12 551.62,-626.12 557.62,-626.12 557.62,-626.12 676.38,-626.12 676.38,-626.12 682.38,-626.12 688.38,-632.12 688.38,-638.12 688.38,-638.12 688.38,-660.38 688.38,-660.38 688.38,-666.38 682.38,-672.38 676.38,-672.38"/>
<text xml:space="preserve" text-anchor="middle" x="617" y="-658.88" font-family="Helvetica,sans-Serif" font-size="10.00" fill="#ece1d7">decode pool</text>
<text xml:space="preserve" text-anchor="middle" x="617" y="-646.12" font-family="Helvetica,sans-Serif" font-size="10.00" fill="#ece1d7">detoast_heap</text>
<text xml:space="preserve" text-anchor="middle" x="617" y="-633.38" font-family="Helvetica,sans-Serif" font-size="10.00" fill="#ece1d7">try in&#45;xact ChunkMap first</text>
</g>
<!-- drain&#45;&gt;detoast -->
<g id="edge3" class="edge">
<title>drain&#45;&gt;detoast</title>
<path fill="none" stroke="#c1a78e" d="M558.93,-762.21C566.65,-742.69 577.65,-716.54 589.25,-694.38 591.61,-689.87 594.27,-685.21 596.99,-680.68"/>
<polygon fill="#c1a78e" stroke="#c1a78e" points="599.28,-682.31 601.1,-674.03 594.51,-679.37 599.28,-682.31"/>
<text xml:space="preserve" text-anchor="middle" x="637.62" y="-714.58" font-family="Helvetica,sans-Serif" font-size="9.00" fill="#ece1d7">heaps + chunk maps</text>
</g>
<!-- put -->
<g id="node8" class="node">
<title>put</title>
<path fill="#4d4d28" stroke="#6e6963" d="M1383.38,-667.25C1383.38,-667.25 1228.62,-667.25 1228.62,-667.25 1222.62,-667.25 1216.62,-661.25 1216.62,-655.25 1216.62,-655.25 1216.62,-643.25 1216.62,-643.25 1216.62,-637.25 1222.62,-631.25 1228.62,-631.25 1228.62,-631.25 1383.38,-631.25 1383.38,-631.25 1389.38,-631.25 1395.38,-637.25 1395.38,-643.25 1395.38,-643.25 1395.38,-655.25 1395.38,-655.25 1395.38,-661.25 1389.38,-667.25 1383.38,-667.25"/>
<text xml:space="preserve" text-anchor="middle" x="1306" y="-652.5" font-family="Helvetica,sans-Serif" font-size="10.00" fill="#ece1d7">put(new_rows)</text>
<text xml:space="preserve" text-anchor="middle" x="1306" y="-639.75" font-family="Helvetica,sans-Serif" font-size="10.00" fill="#ece1d7">before commit publishing marker</text>
</g>
<!-- drain&#45;&gt;put -->
<g id="edge11" class="edge">
<title>drain&#45;&gt;put</title>
<path fill="none" stroke="#bf8c5f" d="M649.07,-773.45C777.18,-750.87 1004.75,-710.17 1199,-672.38 1203.65,-671.47 1208.42,-670.53 1213.22,-669.57"/>
<polygon fill="#bf8c5f" stroke="#bf8c5f" points="1213.73,-672.33 1221.02,-668.01 1212.63,-666.84 1213.73,-672.33"/>
<text xml:space="preserve" text-anchor="middle" x="1103.49" y="-720.2" font-family="Helvetica,sans-Serif" font-size="9.00" fill="#ece1d7">new_rows</text>
<text xml:space="preserve" text-anchor="middle" x="1103.49" y="-708.95" font-family="Helvetica,sans-Serif" font-size="9.00" fill="#ece1d7">WAL ordered</text>
</g>
<!-- trunc -->
<g id="node15" class="node">
<title>trunc</title>
<path fill="#5d4628" stroke="#6e6963" d="M411.12,-604.12C411.12,-604.12 260.88,-604.12 260.88,-604.12 254.88,-604.12 248.88,-598.12 248.88,-592.12 248.88,-592.12 248.88,-569.88 248.88,-569.88 248.88,-563.88 254.88,-557.88 260.88,-557.88 260.88,-557.88 411.12,-557.88 411.12,-557.88 417.12,-557.88 423.12,-563.88 423.12,-569.88 423.12,-569.88 423.12,-592.12 423.12,-592.12 423.12,-598.12 417.12,-604.12 411.12,-604.12"/>
<text xml:space="preserve" text-anchor="middle" x="336" y="-590.62" font-family="Helvetica,sans-Serif" font-size="10.00" fill="#ece1d7">owner TRUNCATE</text>
<text xml:space="preserve" text-anchor="middle" x="336" y="-577.88" font-family="Helvetica,sans-Serif" font-size="10.00" fill="#ece1d7">fence main rows</text>
<text xml:space="preserve" text-anchor="middle" x="336" y="-565.12" font-family="Helvetica,sans-Serif" font-size="10.00" fill="#ece1d7">TRUNCATE dest + mirror in slice</text>
</g>
<!-- drain&#45;&gt;trunc -->
<g id="edge25" class="edge">
<title>drain&#45;&gt;trunc</title>
<path fill="none" stroke="#c1a78e" stroke-dasharray="5,2" d="M494.09,-762.33C484.21,-755.86 474.39,-748.54 466,-740.62 419.72,-696.95 426.69,-670.44 384,-623.25 380.13,-618.97 375.83,-614.71 371.44,-610.65"/>
<polygon fill="#c1a78e" stroke="#c1a78e" points="373.46,-608.7 365.63,-605.45 369.72,-612.87 373.46,-608.7"/>
<text xml:space="preserve" text-anchor="middle" x="514" y="-714.58" font-family="Helvetica,sans-Serif" font-size="9.00" fill="#ece1d7">truncate_rows cursor</text>
</g>
<!-- drop -->
<g id="node16" class="node">
<title>drop</title>
<path fill="#5d4628" stroke="#6e6963" d="M357.88,-667.25C357.88,-667.25 224.12,-667.25 224.12,-667.25 218.12,-667.25 212.12,-661.25 212.12,-655.25 212.12,-655.25 212.12,-643.25 212.12,-643.25 212.12,-637.25 218.12,-631.25 224.12,-631.25 224.12,-631.25 357.88,-631.25 357.88,-631.25 363.88,-631.25 369.88,-637.25 369.88,-643.25 369.88,-643.25 369.88,-655.25 369.88,-655.25 369.88,-661.25 363.88,-667.25 357.88,-667.25"/>
<text xml:space="preserve" text-anchor="middle" x="291" y="-652.5" font-family="Helvetica,sans-Serif" font-size="10.00" fill="#ece1d7">toast SchemaEvent::Dropped</text>
<text xml:space="preserve" text-anchor="middle" x="291" y="-639.75" font-family="Helvetica,sans-Serif" font-size="10.00" fill="#ece1d7">enqueue (relid, commit_lsn)</text>
</g>
<!-- drain&#45;&gt;drop -->
<g id="edge26" class="edge">
<title>drain&#45;&gt;drop</title>
<path fill="none" stroke="#c1a78e" stroke-dasharray="5,2" d="M447.07,-764.64C444.02,-763.95 440.99,-763.27 438,-762.62 382.77,-750.64 353.94,-779.33 312.75,-740.62 295.57,-724.48 290.91,-697.33 290.08,-676.99"/>
<polygon fill="#c1a78e" stroke="#c1a78e" points="292.89,-677.11 289.97,-669.15 287.29,-677.19 292.89,-677.11"/>
<text xml:space="preserve" text-anchor="middle" x="351.38" y="-714.58" font-family="Helvetica,sans-Serif" font-size="9.00" fill="#ece1d7">ordered Dropped</text>
</g>
<!-- rows -->
<g id="node6" class="node">
<title>rows</title>
<path fill="#5d4628" stroke="#6e6963" d="M774.77,-535.88C774.77,-535.88 528.7,-535.88 528.7,-535.88 522.7,-535.88 512.39,-531.71 508.07,-527.54 508.07,-527.54 455.87,-477.21 455.87,-477.21 451.55,-473.04 453.23,-468.88 459.23,-468.88 459.23,-468.88 705.3,-468.88 705.3,-468.88 711.3,-468.88 721.61,-473.04 725.93,-477.21 725.93,-477.21 778.13,-527.54 778.13,-527.54 782.45,-531.71 780.77,-535.88 774.77,-535.88"/>
<text xml:space="preserve" text-anchor="middle" x="617" y="-505.62" font-family="Helvetica,sans-Serif" font-size="10.00" fill="#ece1d7">main&#45;table rows</text>
<text xml:space="preserve" text-anchor="middle" x="617" y="-492.88" font-family="Helvetica,sans-Serif" font-size="10.00" fill="#ece1d7">inline Text / Bytea / PgPending</text>
</g>
<!-- detoast&#45;&gt;rows -->
<g id="edge4" class="edge">
<title>detoast&#45;&gt;rows</title>
<path fill="none" stroke="#c1a78e" d="M617,-625.93C617,-604.58 617,-571.84 617,-545.57"/>
<polygon fill="#c1a78e" stroke="#c1a78e" points="619.8,-545.73 617,-537.73 614.2,-545.73 619.8,-545.73"/>
</g>
<!-- fetch -->
<g id="node9" class="node">
<title>fetch</title>
<path fill="#4d4d28" stroke="#6e6963" d="M1360.25,-525.5C1360.25,-525.5 1219.75,-525.5 1219.75,-525.5 1213.75,-525.5 1207.75,-519.5 1207.75,-513.5 1207.75,-513.5 1207.75,-491.25 1207.75,-491.25 1207.75,-485.25 1213.75,-479.25 1219.75,-479.25 1219.75,-479.25 1360.25,-479.25 1360.25,-479.25 1366.25,-479.25 1372.25,-485.25 1372.25,-491.25 1372.25,-491.25 1372.25,-513.5 1372.25,-513.5 1372.25,-519.5 1366.25,-525.5 1360.25,-525.5"/>
<text xml:space="preserve" text-anchor="middle" x="1290" y="-512" font-family="Helvetica,sans-Serif" font-size="10.00" fill="#ece1d7">fetch(relid, value_id, max_lsn)</text>
<text xml:space="preserve" text-anchor="middle" x="1290" y="-499.25" font-family="Helvetica,sans-Serif" font-size="10.00" fill="#ece1d7">per&#45;TID latest ≤ max_lsn</text>
<text xml:space="preserve" text-anchor="middle" x="1290" y="-486.5" font-family="Helvetica,sans-Serif" font-size="10.00" fill="#ece1d7">live rows → newest per seq</text>
</g>
<!-- detoast&#45;&gt;fetch -->
<g id="edge12" class="edge">
<title>detoast&#45;&gt;fetch</title>
<path fill="none" stroke="#cba85e" stroke-dasharray="5,2" d="M640.09,-625.66C663.61,-604.18 702.19,-572.98 742,-557.88 823.02,-527.14 1064.07,-512.61 1197.89,-506.74"/>
<polygon fill="#cba85e" stroke="#cba85e" points="1197.96,-509.54 1205.83,-506.4 1197.71,-503.94 1197.96,-509.54"/>
<text xml:space="preserve" text-anchor="middle" x="787" y="-583.7" font-family="Helvetica,sans-Serif" font-size="9.00" fill="#ece1d7">pointer absent from</text>
<text xml:space="preserve" text-anchor="middle" x="787" y="-572.45" font-family="Helvetica,sans-Serif" font-size="9.00" fill="#ece1d7">in&#45;xact maps</text>
</g>
<!-- main -->
<g id="node22" class="node">
<title>main</title>
<path fill="#4d4128" stroke="#6e6963" d="M695,-396.59C695,-398.9 663.18,-400.78 624,-400.78 584.82,-400.78 553,-398.9 553,-396.59 553,-396.59 553,-358.91 553,-358.91 553,-356.6 584.82,-354.72 624,-354.72 663.18,-354.72 695,-356.6 695,-358.91 695,-358.91 695,-396.59 695,-396.59"/>
<path fill="none" stroke="#6e6963" d="M695,-396.59C695,-394.28 663.18,-392.41 624,-392.41 584.82,-392.41 553,-394.28 553,-396.59"/>
<text xml:space="preserve" text-anchor="middle" x="624" y="-381" font-family="Helvetica,sans-Serif" font-size="10.00" fill="#ece1d7">CH destination tables</text>
<text xml:space="preserve" text-anchor="middle" x="624" y="-368.25" font-family="Helvetica,sans-Serif" font-size="10.00" fill="#ece1d7">ReplacingMergeTree(_lsn)</text>
</g>
<!-- rows&#45;&gt;main -->
<g id="edge28" class="edge">
<title>rows&#45;&gt;main</title>
<path fill="none" stroke="#bf8c5f" stroke-width="2" d="M618.88,-468.51C619.87,-451.06 621.09,-429.64 622.1,-412.11"/>
<polygon fill="#bf8c5f" stroke="#bf8c5f" stroke-width="2" points="624.88,-412.4 622.54,-404.25 619.29,-412.08 624.88,-412.4"/>
</g>
<!-- resolver -->
<g id="node7" class="node">
<title>resolver</title>
<path fill="#4d4d28" stroke="#6e6963" d="M1443,-810.12C1443,-810.12 1349,-810.12 1349,-810.12 1343,-810.12 1337,-804.12 1337,-798.12 1337,-798.12 1337,-786.12 1337,-786.12 1337,-780.12 1343,-774.12 1349,-774.12 1349,-774.12 1443,-774.12 1443,-774.12 1449,-774.12 1455,-780.12 1455,-786.12 1455,-786.12 1455,-798.12 1455,-798.12 1455,-804.12 1449,-810.12 1443,-810.12"/>
<text xml:space="preserve" text-anchor="middle" x="1396" y="-795.38" font-family="Helvetica,sans-Serif" font-size="10.00" fill="#ece1d7">ToastResolver</text>
<text xml:space="preserve" text-anchor="middle" x="1396" y="-782.62" font-family="Helvetica,sans-Serif" font-size="10.00" fill="#ece1d7">disabled | clickhouse</text>
</g>
<!-- resolver&#45;&gt;put -->
<g id="edge6" class="edge">
<title>resolver&#45;&gt;put</title>
<path fill="none" stroke="#c1a78e" d="M1384.96,-773.85C1369.24,-749.24 1340.3,-703.94 1322.16,-675.54"/>
<polygon fill="#c1a78e" stroke="#c1a78e" points="1324.61,-674.17 1317.94,-668.94 1319.89,-677.19 1324.61,-674.17"/>
</g>
<!-- resolver&#45;&gt;fetch -->
<g id="edge7" class="edge">
<title>resolver&#45;&gt;fetch</title>
<path fill="none" stroke="#c1a78e" d="M1402.55,-773.64C1413.26,-742.19 1431.28,-674.58 1410,-623.25 1394.21,-585.17 1359.81,-552.89 1331.87,-531.45"/>
<polygon fill="#c1a78e" stroke="#c1a78e" points="1333.84,-529.44 1325.76,-526.88 1330.49,-533.92 1333.84,-529.44"/>
</g>
<!-- mirror -->
<g id="node10" class="node">
<title>mirror</title>
<path fill="#4d4128" stroke="#6e6963" d="M1411.75,-89.75C1411.75,-93.82 1366.14,-97.12 1310,-97.12 1253.86,-97.12 1208.25,-93.82 1208.25,-89.75 1208.25,-89.75 1208.25,-23.38 1208.25,-23.38 1208.25,-19.31 1253.86,-16 1310,-16 1366.14,-16 1411.75,-19.31 1411.75,-23.38 1411.75,-23.38 1411.75,-89.75 1411.75,-89.75"/>
<path fill="none" stroke="#6e6963" d="M1411.75,-89.75C1411.75,-85.68 1366.14,-82.38 1310,-82.38 1253.86,-82.38 1208.25,-85.68 1208.25,-89.75"/>
<text xml:space="preserve" text-anchor="middle" x="1310" y="-72.56" font-family="Helvetica,sans-Serif" font-size="10.00" fill="#ece1d7">CH pg_toast_&lt;relid&gt;</text>
<text xml:space="preserve" text-anchor="middle" x="1310" y="-59.81" font-family="Helvetica,sans-Serif" font-size="10.00" fill="#ece1d7">ReplacingMergeTree(_lsn, _is_deleted)</text>
<text xml:space="preserve" text-anchor="middle" x="1310" y="-47.06" font-family="Helvetica,sans-Serif" font-size="10.00" fill="#ece1d7">ORDER BY (blkno, offnum)</text>
<text xml:space="preserve" text-anchor="middle" x="1310" y="-34.31" font-family="Helvetica,sans-Serif" font-size="10.00" fill="#ece1d7">birth or tombstone per TID</text>
</g>
<!-- put&#45;&gt;mirror -->
<g id="edge8" class="edge">
<title>put&#45;&gt;mirror</title>
<path fill="none" stroke="#bf8c5f" stroke-width="2" d="M1333.25,-630.79C1367.26,-606.64 1421,-559.57 1421,-503.38 1421,-503.38 1421,-503.38 1421,-223.62 1421,-178.26 1392.02,-135.9 1363.67,-105.32"/>
<polygon fill="#bf8c5f" stroke="#bf8c5f" stroke-width="2" points="1365.75,-103.44 1358.2,-99.59 1361.71,-107.31 1365.75,-103.44"/>
</g>
<!-- fetch&#45;&gt;mirror -->
<g id="edge9" class="edge">
<title>fetch&#45;&gt;mirror</title>
<path fill="none" stroke="#cba85e" d="M1328.76,-473.05C1346.44,-457.69 1365.51,-437.05 1375,-413.62 1417.38,-308.96 1368.24,-175.8 1335.18,-105.71"/>
<polygon fill="#cba85e" stroke="#cba85e" points="1322.75,-478.1 1326.56,-470.2 1324.88,-476.31 1328.87,-472.95 1328.87,-472.95 1328.87,-472.95 1324.88,-476.31 1331.19,-475.71 1322.75,-478.1"/>
<polygon fill="#cba85e" stroke="#cba85e" points="1337.87,-104.85 1331.89,-98.85 1332.82,-107.27 1337.87,-104.85"/>
</g>
<!-- miss -->
<g id="node11" class="node">
<title>miss</title>
<polygon fill="#5d3f40" stroke="#6e6963" points="1354.25,-413.62 1207.75,-413.62 1207.75,-341.88 1360.25,-341.88 1360.25,-407.62 1354.25,-413.62"/>
<polyline fill="none" stroke="#6e6963" points="1354.25,-413.62 1354.25,-407.62"/>
<polyline fill="none" stroke="#6e6963" points="1360.25,-407.62 1354.25,-407.62"/>
<text xml:space="preserve" text-anchor="middle" x="1284" y="-400.12" font-family="Helvetica,sans-Serif" font-size="10.00" fill="#ece1d7">miss policy</text>
<text xml:space="preserve" text-anchor="middle" x="1284" y="-387.38" font-family="Helvetica,sans-Serif" font-size="10.00" fill="#ece1d7">disabled → default fill</text>
<text xml:space="preserve" text-anchor="middle" x="1284" y="-374.62" font-family="Helvetica,sans-Serif" font-size="10.00" fill="#ece1d7">store miss → superseded fill</text>
<text xml:space="preserve" text-anchor="middle" x="1284" y="-361.88" font-family="Helvetica,sans-Serif" font-size="10.00" fill="#ece1d7">short run → mismatch fill</text>
<text xml:space="preserve" text-anchor="middle" x="1284" y="-349.12" font-family="Helvetica,sans-Serif" font-size="10.00" fill="#ece1d7">missing mirror → fatal</text>
</g>
<!-- fetch&#45;&gt;miss -->
<g id="edge10" class="edge">
<title>fetch&#45;&gt;miss</title>
<path fill="none" stroke="#c1a78e" stroke-dasharray="5,2" d="M1288.9,-478.88C1288.14,-463.39 1287.11,-442.27 1286.19,-423.42"/>
<polygon fill="#c1a78e" stroke="#c1a78e" points="1288.99,-423.47 1285.8,-415.61 1283.4,-423.74 1288.99,-423.47"/>
</g>
<!-- walk -->
<g id="node12" class="node">
<title>walk</title>
<path fill="#4d3340" stroke="#6e6963" d="M1170.5,-920.62C1170.5,-920.62 1031.5,-920.62 1031.5,-920.62 1025.5,-920.62 1019.5,-914.62 1019.5,-908.62 1019.5,-908.62 1019.5,-886.38 1019.5,-886.38 1019.5,-880.38 1025.5,-874.38 1031.5,-874.38 1031.5,-874.38 1170.5,-874.38 1170.5,-874.38 1176.5,-874.38 1182.5,-880.38 1182.5,-886.38 1182.5,-886.38 1182.5,-908.62 1182.5,-908.62 1182.5,-914.62 1176.5,-920.62 1170.5,-920.62"/>
<text xml:space="preserve" text-anchor="middle" x="1101" y="-907.12" font-family="Helvetica,sans-Serif" font-size="10.00" fill="#ece1d7">PageWalkSink</text>
<text xml:space="preserve" text-anchor="middle" x="1101" y="-894.38" font-family="Helvetica,sans-Serif" font-size="10.00" fill="#ece1d7">main tuples + pg_toast tuples</text>
<text xml:space="preserve" text-anchor="middle" x="1101" y="-881.62" font-family="Helvetica,sans-Serif" font-size="10.00" fill="#ece1d7">on&#45;page TID, walk LSN</text>
</g>
<!-- defer -->
<g id="node13" class="node">
<title>defer</title>
<path fill="#4d3340" stroke="#6e6963" d="M1165.62,-815.25C1165.62,-815.25 1036.38,-815.25 1036.38,-815.25 1030.38,-815.25 1024.38,-809.25 1024.38,-803.25 1024.38,-803.25 1024.38,-781 1024.38,-781 1024.38,-775 1030.38,-769 1036.38,-769 1036.38,-769 1165.62,-769 1165.62,-769 1171.62,-769 1177.62,-775 1177.62,-781 1177.62,-781 1177.62,-803.25 1177.62,-803.25 1177.62,-809.25 1171.62,-815.25 1165.62,-815.25"/>
<text xml:space="preserve" text-anchor="middle" x="1101" y="-801.75" font-family="Helvetica,sans-Serif" font-size="10.00" fill="#ece1d7">pipeline::bootstrap::drain</text>
<text xml:space="preserve" text-anchor="middle" x="1101" y="-789" font-family="Helvetica,sans-Serif" font-size="10.00" fill="#ece1d7">batch ToastRows</text>
<text xml:space="preserve" text-anchor="middle" x="1101" y="-776.25" font-family="Helvetica,sans-Serif" font-size="10.00" fill="#ece1d7">defer mapped ExternalToast</text>
</g>
<!-- walk&#45;&gt;defer -->
<g id="edge13" class="edge">
<title>walk&#45;&gt;defer</title>
<path fill="none" stroke="#c1a78e" d="M1101,-874.07C1101,-859.71 1101,-840.86 1101,-824.96"/>
<polygon fill="#c1a78e" stroke="#c1a78e" points="1103.8,-825.03 1101,-817.03 1098.2,-825.03 1103.8,-825.03"/>
</g>
<!-- defer&#45;&gt;put -->
<g id="edge15" class="edge">
<title>defer&#45;&gt;put</title>
<path fill="none" stroke="#bf8c5f" d="M1133.48,-768.8C1171.64,-742.58 1234.59,-699.32 1272.98,-672.94"/>
<polygon fill="#bf8c5f" stroke="#bf8c5f" points="1274.52,-675.28 1279.53,-668.44 1271.35,-670.66 1274.52,-675.28"/>
<text xml:space="preserve" text-anchor="middle" x="1262.57" y="-714.58" font-family="Helvetica,sans-Serif" font-size="9.00" fill="#ece1d7">ToastRows</text>
</g>
<!-- resolve -->
<g id="node14" class="node">
<title>resolve</title>
<path fill="#4d3340" stroke="#6e6963" d="M1171.62,-667.25C1171.62,-667.25 1024.38,-667.25 1024.38,-667.25 1018.38,-667.25 1012.38,-661.25 1012.38,-655.25 1012.38,-655.25 1012.38,-643.25 1012.38,-643.25 1012.38,-637.25 1018.38,-631.25 1024.38,-631.25 1024.38,-631.25 1171.62,-631.25 1171.62,-631.25 1177.62,-631.25 1183.62,-637.25 1183.62,-643.25 1183.62,-643.25 1183.62,-655.25 1183.62,-655.25 1183.62,-661.25 1177.62,-667.25 1171.62,-667.25"/>
<text xml:space="preserve" text-anchor="middle" x="1098" y="-652.5" font-family="Helvetica,sans-Serif" font-size="10.00" fill="#ece1d7">flush chunks → resolve deferred</text>
<text xml:space="preserve" text-anchor="middle" x="1098" y="-639.75" font-family="Helvetica,sans-Serif" font-size="10.00" fill="#ece1d7">bootstrap miss = hard error</text>
</g>
<!-- defer&#45;&gt;resolve -->
<g id="edge14" class="edge">
<title>defer&#45;&gt;resolve</title>
<path fill="none" stroke="#c1a78e" d="M1100.52,-768.8C1099.99,-743.9 1099.14,-703.62 1098.57,-677.04"/>
<polygon fill="#c1a78e" stroke="#c1a78e" points="1101.37,-677.03 1098.4,-669.1 1095.77,-677.15 1101.37,-677.03"/>
</g>
<!-- resolve&#45;&gt;rows -->
<g id="edge17" class="edge">
<title>resolve&#45;&gt;rows</title>
<path fill="none" stroke="#bf8c5f" d="M1052.11,-630.75C1000.67,-611.49 914.57,-580.28 839,-557.88 816.48,-551.2 792.51,-544.7 768.95,-538.64"/>
<polygon fill="#bf8c5f" stroke="#bf8c5f" points="769.86,-535.98 761.42,-536.72 768.48,-541.41 769.86,-535.98"/>
<text xml:space="preserve" text-anchor="middle" x="1028" y="-578.08" font-family="Helvetica,sans-Serif" font-size="9.00" fill="#ece1d7">resolved bootstrap rows</text>
</g>
<!-- resolve&#45;&gt;fetch -->
<g id="edge16" class="edge">
<title>resolve&#45;&gt;fetch</title>
<path fill="none" stroke="#cba85e" stroke-dasharray="5,2" d="M1121.16,-630.77C1153.79,-606.15 1213.67,-560.97 1252.64,-531.56"/>
<polygon fill="#cba85e" stroke="#cba85e" points="1254.23,-533.87 1258.93,-526.82 1250.86,-529.4 1254.23,-533.87"/>
<text xml:space="preserve" text-anchor="middle" x="1240.09" y="-578.08" font-family="Helvetica,sans-Serif" font-size="9.00" fill="#ece1d7">after flush</text>
</g>
<!-- trunc&#45;&gt;mirror -->
<g id="edge22" class="edge">
<title>trunc&#45;&gt;mirror</title>
<path fill="none" stroke="#bf8c5f" stroke-dasharray="5,2" d="M354.66,-557.73C374.49,-531.75 403,-486.66 403,-442.25 403,-442.25 403,-442.25 403,-223.62 403,-189.27 405.44,-172.89 433,-152.38 493.25,-107.52 976.19,-75.73 1198.6,-63.33"/>
<polygon fill="#bf8c5f" stroke="#bf8c5f" points="1198.67,-66.13 1206.51,-62.89 1198.36,-60.53 1198.67,-66.13"/>
<text xml:space="preserve" text-anchor="middle" x="413.5" y="-374.82" font-family="Helvetica,sans-Serif" font-size="9.00" fill="#ece1d7">wipe</text>
</g>
<!-- ledger -->
<g id="node17" class="node">
<title>ledger</title>
<polygon fill="#4d3850" stroke="#6e6963" points="303.75,-520.38 190.25,-520.38 190.25,-484.38 309.75,-484.38 309.75,-514.38 303.75,-520.38"/>
<polyline fill="none" stroke="#6e6963" points="303.75,-520.38 303.75,-514.38"/>
<polyline fill="none" stroke="#6e6963" points="309.75,-514.38 303.75,-514.38"/>
<text xml:space="preserve" text-anchor="middle" x="250" y="-505.62" font-family="Helvetica,sans-Serif" font-size="10.00" fill="#ece1d7">toast_retires.bin</text>
<text xml:space="preserve" text-anchor="middle" x="250" y="-492.88" font-family="Helvetica,sans-Serif" font-size="10.00" fill="#ece1d7">fsynced RetireLedger</text>
</g>
<!-- drop&#45;&gt;ledger -->
<g id="edge18" class="edge">
<title>drop&#45;&gt;ledger</title>
<path fill="none" stroke="#6e6963" stroke-dasharray="5,2" d="M267.96,-630.95C260.07,-623.64 252.19,-614.43 248,-604.12 238.33,-580.34 240.4,-550.72 243.93,-529.76"/>
<polygon fill="#6e6963" stroke="#6e6963" points="246.67,-530.39 245.4,-522.01 241.16,-529.35 246.67,-530.39"/>
</g>
<!-- floor -->
<g id="node18" class="node">
<title>floor</title>
<path fill="#4d3a28" stroke="#6e6963" d="M333.38,-395.75C333.38,-395.75 196.62,-395.75 196.62,-395.75 190.62,-395.75 184.62,-389.75 184.62,-383.75 184.62,-383.75 184.62,-371.75 184.62,-371.75 184.62,-365.75 190.62,-359.75 196.62,-359.75 196.62,-359.75 333.38,-359.75 333.38,-359.75 339.38,-359.75 345.38,-365.75 345.38,-371.75 345.38,-371.75 345.38,-383.75 345.38,-383.75 345.38,-389.75 339.38,-395.75 333.38,-395.75"/>
<text xml:space="preserve" text-anchor="middle" x="265" y="-381" font-family="Helvetica,sans-Serif" font-size="10.00" fill="#ece1d7">persisted resume floor</text>
<text xml:space="preserve" text-anchor="middle" x="265" y="-368.25" font-family="Helvetica,sans-Serif" font-size="10.00" fill="#ece1d7">segment passes drop commit</text>
</g>
<!-- ledger&#45;&gt;floor -->
<g id="edge19" class="edge">
<title>ledger&#45;&gt;floor</title>
<path fill="none" stroke="#c1a78e" stroke-dasharray="5,2" d="M252.12,-484.07C254.63,-463.53 258.85,-429.06 261.77,-405.18"/>
<polygon fill="#c1a78e" stroke="#c1a78e" points="264.52,-405.75 262.71,-397.47 258.96,-405.07 264.52,-405.75"/>
</g>
<!-- retire -->
<g id="node19" class="node">
<title>retire</title>
<path fill="#5d4628" stroke="#6e6963" d="M340.38,-242.62C340.38,-242.62 203.62,-242.62 203.62,-242.62 197.62,-242.62 191.62,-236.62 191.62,-230.62 191.62,-230.62 191.62,-218.62 191.62,-218.62 191.62,-212.62 197.62,-206.62 203.62,-206.62 203.62,-206.62 340.38,-206.62 340.38,-206.62 346.38,-206.62 352.38,-212.62 352.38,-218.62 352.38,-218.62 352.38,-230.62 352.38,-230.62 352.38,-236.62 346.38,-242.62 340.38,-242.62"/>
<text xml:space="preserve" text-anchor="middle" x="272" y="-227.88" font-family="Helvetica,sans-Serif" font-size="10.00" fill="#ece1d7">retire_mirror</text>
<text xml:space="preserve" text-anchor="middle" x="272" y="-215.12" font-family="Helvetica,sans-Serif" font-size="10.00" fill="#ece1d7">TRUNCATE table, never DROP</text>
</g>
<!-- floor&#45;&gt;retire -->
<g id="edge20" class="edge">
<title>floor&#45;&gt;retire</title>
<path fill="none" stroke="#c1a78e" d="M265.8,-359.41C267.02,-333.11 269.35,-282.92 270.78,-252.05"/>
<polygon fill="#c1a78e" stroke="#c1a78e" points="273.56,-252.39 271.14,-244.27 267.97,-252.13 273.56,-252.39"/>
</g>
<!-- retire&#45;&gt;mirror -->
<g id="edge23" class="edge">
<title>retire&#45;&gt;mirror</title>
<path fill="none" stroke="#bf8c5f" stroke-dasharray="5,2" d="M267.35,-206.35C262.23,-182.99 257.48,-141.66 280.5,-119.12 312.91,-87.4 938.95,-67.33 1198.61,-60.34"/>
<polygon fill="#bf8c5f" stroke="#bf8c5f" points="1198.64,-63.14 1206.56,-60.13 1198.49,-57.54 1198.64,-63.14"/>
<text xml:space="preserve" text-anchor="middle" x="330.75" y="-121.83" font-family="Helvetica,sans-Serif" font-size="9.00" fill="#ece1d7">wipe when replay&#45;safe</text>
</g>
<!-- barrier -->
<g id="node21" class="node">
<title>barrier</title>
<path fill="#5d4628" stroke="#6e6963" d="M242.38,-740.62C242.38,-740.62 75.62,-740.62 75.62,-740.62 69.62,-740.62 63.62,-734.62 63.62,-728.62 63.62,-728.62 63.62,-706.38 63.62,-706.38 63.62,-700.38 69.62,-694.38 75.62,-694.38 75.62,-694.38 242.38,-694.38 242.38,-694.38 248.38,-694.38 254.38,-700.38 254.38,-706.38 254.38,-706.38 254.38,-728.62 254.38,-728.62 254.38,-734.62 248.38,-740.62 242.38,-740.62"/>
<text xml:space="preserve" text-anchor="middle" x="159" y="-727.12" font-family="Helvetica,sans-Serif" font-size="10.00" fill="#ece1d7">rewrite_barrier O − B</text>
<text xml:space="preserve" text-anchor="middle" x="159" y="-714.38" font-family="Helvetica,sans-Serif" font-size="10.00" fill="#ece1d7">residual tombstones @ commit LSN</text>
<text xml:space="preserve" text-anchor="middle" x="159" y="-701.62" font-family="Helvetica,sans-Serif" font-size="10.00" fill="#ece1d7">after generation births</text>
</g>
<!-- marker&#45;&gt;barrier -->
<g id="edge21" class="edge">
<title>marker&#45;&gt;barrier</title>
<path fill="none" stroke="#c1a78e" d="M283.02,-873.96C257.52,-841.99 210.82,-783.45 182.57,-748.05"/>
<polygon fill="#c1a78e" stroke="#c1a78e" points="184.96,-746.55 177.78,-742.04 180.58,-750.04 184.96,-746.55"/>
</g>
<!-- barrier&#45;&gt;mirror -->
<g id="edge24" class="edge">
<title>barrier&#45;&gt;mirror</title>
<path fill="none" stroke="#bf8c5f" stroke-dasharray="5,2" d="M154.18,-694.25C148.84,-667.68 141,-621.81 141,-582 141,-582 141,-582 141,-223.62 141,-151.55 194.51,-134.15 265,-119.12 440.42,-81.73 966.6,-65.4 1198.34,-59.88"/>
<polygon fill="#bf8c5f" stroke="#bf8c5f" points="1198.36,-62.68 1206.29,-59.7 1198.23,-57.09 1198.36,-62.68"/>
<text xml:space="preserve" text-anchor="middle" x="189.75" y="-438.32" font-family="Helvetica,sans-Serif" font-size="9.00" fill="#ece1d7">insert residual deaths</text>
</g>
<!-- legend -->
<g id="node23" class="node">
<title>legend</title>
<path fill="#6e6963" stroke="none" d="M792.88,-296.88C792.88,-296.88 459.12,-296.88 459.12,-296.88 453.12,-296.88 447.12,-290.88 447.12,-284.88 447.12,-284.88 447.12,-164.38 447.12,-164.38 447.12,-158.38 453.12,-152.38 459.12,-152.38 459.12,-152.38 792.88,-152.38 792.88,-152.38 798.88,-152.38 804.88,-158.38 804.88,-164.38 804.88,-164.38 804.88,-284.88 804.88,-284.88 804.88,-290.88 798.88,-296.88 792.88,-296.88"/>
<polygon fill="#34302c" stroke="none" points="455.12,-270.12 455.12,-292.88 796.88,-292.88 796.88,-270.12 455.12,-270.12"/>
<polygon fill="none" stroke="#6e6963" points="455.12,-270.12 455.12,-292.88 796.88,-292.88 796.88,-270.12 455.12,-270.12"/>
<text xml:space="preserve" text-anchor="start" x="597.5" y="-279.38" font-family="Helvetica,sans-Serif" font-weight="bold" font-size="10.00" fill="#ece1d7">invariants</text>
<polygon fill="none" stroke="#6e6963" points="455.12,-247.38 455.12,-270.12 517.62,-270.12 517.62,-247.38 455.12,-247.38"/>
<text xml:space="preserve" text-anchor="start" x="460.5" y="-255.38" font-family="Helvetica,sans-Serif" font-size="10.00" fill="#ece1d7">same&#45;xact</text>
<polygon fill="none" stroke="#6e6963" points="517.62,-247.38 517.62,-270.12 796.88,-270.12 796.88,-247.38 517.62,-247.38"/>
<text xml:space="preserve" text-anchor="start" x="583.38" y="-255.38" font-family="Helvetica,sans-Serif" font-size="10.00" fill="#ece1d7">ChunkMap wins, no store read</text>
<polygon fill="none" stroke="#6e6963" points="455.12,-224.62 455.12,-247.38 517.62,-247.38 517.62,-224.62 455.12,-224.62"/>
<text xml:space="preserve" text-anchor="start" x="460.12" y="-232.62" font-family="Helvetica,sans-Serif" font-size="10.00" fill="#ece1d7">store write</text>
<polygon fill="none" stroke="#6e6963" points="517.62,-224.62 517.62,-247.38 796.88,-247.38 796.88,-224.62 517.62,-224.62"/>
<text xml:space="preserve" text-anchor="start" x="527.12" y="-232.62" font-family="Helvetica,sans-Serif" font-size="10.00" fill="#ece1d7">births/tombstones durable before commit publication</text>
<polygon fill="none" stroke="#6e6963" points="455.12,-201.88 455.12,-224.62 517.62,-224.62 517.62,-201.88 455.12,-201.88"/>
<text xml:space="preserve" text-anchor="start" x="461.62" y="-209.88" font-family="Helvetica,sans-Serif" font-size="10.00" fill="#ece1d7">as&#45;of read</text>
<polygon fill="none" stroke="#6e6963" points="517.62,-201.88 517.62,-224.62 796.88,-224.62 796.88,-201.88 517.62,-201.88"/>
<text xml:space="preserve" text-anchor="start" x="540.62" y="-209.88" font-family="Helvetica,sans-Serif" font-size="10.00" fill="#ece1d7">future TID generations invisible at referring LSN</text>
<polygon fill="none" stroke="#6e6963" points="455.12,-179.12 455.12,-201.88 517.62,-201.88 517.62,-179.12 455.12,-179.12"/>
<text xml:space="preserve" text-anchor="start" x="472.5" y="-187.12" font-family="Helvetica,sans-Serif" font-size="10.00" fill="#ece1d7">DROP</text>
<polygon fill="none" stroke="#6e6963" points="517.62,-179.12 517.62,-201.88 796.88,-201.88 796.88,-179.12 517.62,-179.12"/>
<text xml:space="preserve" text-anchor="start" x="522.62" y="-187.12" font-family="Helvetica,sans-Serif" font-size="10.00" fill="#ece1d7">persist intent before ack, wipe after replay floor passes</text>
<polygon fill="none" stroke="#6e6963" points="455.12,-156.38 455.12,-179.12 517.62,-179.12 517.62,-156.38 455.12,-156.38"/>
<text xml:space="preserve" text-anchor="start" x="469.12" y="-164.38" font-family="Helvetica,sans-Serif" font-size="10.00" fill="#ece1d7">rewrite</text>
<polygon fill="none" stroke="#6e6963" points="517.62,-156.38 517.62,-179.12 796.88,-179.12 796.88,-156.38 517.62,-156.38"/>
<text xml:space="preserve" text-anchor="start" x="523" y="-164.38" font-family="Helvetica,sans-Serif" font-size="10.00" fill="#ece1d7">preserve old as&#45;of windows, close residuals with O − B</text>
</g>
<!-- main&#45;&gt;legend -->
</g>
</svg>
