<?xml version="1.0" encoding="UTF-8" standalone="no"?>
<!DOCTYPE svg PUBLIC "-//W3C//DTD SVG 1.1//EN"
 "http://www.w3.org/Graphics/SVG/1.1/DTD/svg11.dtd">
<!-- Generated by graphviz version 2.42.4 (0)
 -->
<!-- Title: toast Pages: 1 -->
<svg width="1606pt" height="1143pt"
 viewBox="0.00 0.00 1606.00 1142.50" xmlns="http://www.w3.org/2000/svg" xmlns:xlink="http://www.w3.org/1999/xlink">
<g id="graph0" class="graph" transform="scale(1 1) rotate(0) translate(4 1138.5)">
<title>toast</title>
<polygon fill="#272623" stroke="transparent" points="-4,4 -4,-1138.5 1602,-1138.5 1602,4 -4,4"/>
<text text-anchor="middle" x="799" y="-1119.3" font-family="Helvetica,sans-Serif" font-size="14.00" fill="#ece1d7">walshadow TOAST — in&#45;xact reassembly + TID&#45;keyed ClickHouse mirror + lifecycle</text>
<g id="clust1" class="cluster">
<title>cluster_stream</title>
<path fill="#34302c" stroke="#4c4641" d="M452,-429.5C452,-429.5 784,-429.5 784,-429.5 790,-429.5 796,-435.5 796,-441.5 796,-441.5 796,-1008.5 796,-1008.5 796,-1014.5 790,-1020.5 784,-1020.5 784,-1020.5 452,-1020.5 452,-1020.5 446,-1020.5 440,-1014.5 440,-1008.5 440,-1008.5 440,-441.5 440,-441.5 440,-435.5 446,-429.5 452,-429.5"/>
<text text-anchor="middle" x="618" y="-1005.3" font-family="Helvetica,sans-Serif" font-size="14.00" fill="#ece1d7">streaming commit — WAL order, abort&#45;safe</text>
</g>
<g id="clust2" class="cluster">
<title>cluster_store</title>
<path fill="#34302c" stroke="#4c4641" d="M1213,-8C1213,-8 1578,-8 1578,-8 1584,-8 1590,-14 1590,-20 1590,-20 1590,-771.5 1590,-771.5 1590,-777.5 1584,-783.5 1578,-783.5 1578,-783.5 1213,-783.5 1213,-783.5 1207,-783.5 1201,-777.5 1201,-771.5 1201,-771.5 1201,-20 1201,-20 1201,-14 1207,-8 1213,-8"/>
<text text-anchor="middle" x="1395.5" y="-768.3" font-family="Helvetica,sans-Serif" font-size="14.00" fill="#ece1d7">ToastResolver / ChunkStore — store&#45;backed slow path</text>
</g>
<g id="clust3" class="cluster">
<title>cluster_bootstrap</title>
<path fill="#34302c" stroke="#4c4641" d="M816,-577C816,-577 1181,-577 1181,-577 1187,-577 1193,-583 1193,-589 1193,-589 1193,-874.5 1193,-874.5 1193,-880.5 1187,-886.5 1181,-886.5 1181,-886.5 816,-886.5 816,-886.5 810,-886.5 804,-880.5 804,-874.5 804,-874.5 804,-589 804,-589 804,-583 810,-577 816,-577"/>
<text text-anchor="middle" x="998.5" y="-871.3" font-family="Helvetica,sans-Serif" font-size="14.00" fill="#ece1d7">bootstrap — put all chunks before deferred resolution</text>
</g>
<g id="clust4" class="cluster">
<title>cluster_lifecycle</title>
<path fill="#34302c" stroke="#4c4641" d="M20,-182.5C20,-182.5 420,-182.5 420,-182.5 426,-182.5 432,-188.5 432,-194.5 432,-194.5 432,-874.5 432,-874.5 432,-880.5 426,-886.5 420,-886.5 420,-886.5 20,-886.5 20,-886.5 14,-886.5 8,-880.5 8,-874.5 8,-874.5 8,-194.5 8,-194.5 8,-188.5 14,-182.5 20,-182.5"/>
<text text-anchor="middle" x="220" y="-871.3" font-family="Helvetica,sans-Serif" font-size="14.00" fill="#ece1d7">lifecycle barriers — TRUNCATE, DROP, rewrite stay distinct</text>
</g>
<!-- wal -->
<g id="node1" class="node">
<title>wal</title>
<path fill="#3d3d54" stroke="#6e6963" d="M660,-1111.5C660,-1111.5 459.7,-1111.5 459.7,-1111.5 453.7,-1111.5 443.54,-1107.18 439.38,-1102.85 439.38,-1102.85 398.32,-1060.15 398.32,-1060.15 394.16,-1055.82 396,-1051.5 402,-1051.5 402,-1051.5 602.3,-1051.5 602.3,-1051.5 608.3,-1051.5 618.46,-1055.82 622.62,-1060.15 622.62,-1060.15 663.68,-1102.85 663.68,-1102.85 667.84,-1107.18 666,-1111.5 660,-1111.5"/>
<text text-anchor="middle" x="531" y="-1084.5" font-family="Helvetica,sans-Serif" font-size="10.00" fill="#ece1d7">source WAL</text>
<text text-anchor="middle" x="531" y="-1073.5" font-family="Helvetica,sans-Serif" font-size="10.00" fill="#ece1d7">heap + pg_toast records</text>
</g>
<!-- decode -->
<g id="node2" class="node">
<title>decode</title>
<path fill="#4d4128" stroke="#6e6963" d="M595.5,-989.5C595.5,-989.5 466.5,-989.5 466.5,-989.5 460.5,-989.5 454.5,-983.5 454.5,-977.5 454.5,-977.5 454.5,-938.5 454.5,-938.5 454.5,-932.5 460.5,-926.5 466.5,-926.5 466.5,-926.5 595.5,-926.5 595.5,-926.5 601.5,-926.5 607.5,-932.5 607.5,-938.5 607.5,-938.5 607.5,-977.5 607.5,-977.5 607.5,-983.5 601.5,-989.5 595.5,-989.5"/>
<text text-anchor="middle" x="531" y="-977.5" font-family="Helvetica,sans-Serif" font-size="10.00" fill="#ece1d7">BufferingDecoderSink</text>
<text text-anchor="middle" x="531" y="-966.5" font-family="Helvetica,sans-Serif" font-size="10.00" fill="#ece1d7">main heap → DecodedHeap</text>
<text text-anchor="middle" x="531" y="-955.5" font-family="Helvetica,sans-Serif" font-size="10.00" fill="#ece1d7">toast INSERT → ToastChunk</text>
<text text-anchor="middle" x="531" y="-944.5" font-family="Helvetica,sans-Serif" font-size="10.00" fill="#ece1d7">toast DELETE → ToastDelete</text>
<text text-anchor="middle" x="531" y="-933.5" font-family="Helvetica,sans-Serif" font-size="10.00" fill="#ece1d7">TID + record LSN</text>
</g>
<!-- wal&#45;&gt;decode -->
<g id="edge5" class="edge">
<title>wal&#45;&gt;decode</title>
<path fill="none" stroke="#c1a78e" d="M531,-1051.4C531,-1035.35 531,-1015.21 531,-997.84"/>
<polygon fill="#c1a78e" stroke="#c1a78e" points="533.8,-997.56 531,-989.56 528.2,-997.56 533.8,-997.56"/>
</g>
<!-- spill -->
<g id="node3" class="node">
<title>spill</title>
<path fill="#4d4128" stroke="#6e6963" d="M620.5,-855.5C620.5,-855.5 465.5,-855.5 465.5,-855.5 459.5,-855.5 453.5,-849.5 453.5,-843.5 453.5,-843.5 453.5,-826.5 453.5,-826.5 453.5,-820.5 459.5,-814.5 465.5,-814.5 465.5,-814.5 620.5,-814.5 620.5,-814.5 626.5,-814.5 632.5,-820.5 632.5,-826.5 632.5,-826.5 632.5,-843.5 632.5,-843.5 632.5,-849.5 626.5,-855.5 620.5,-855.5"/>
<text text-anchor="middle" x="543" y="-843.5" font-family="Helvetica,sans-Serif" font-size="10.00" fill="#ece1d7">XactBuffer / spill v4</text>
<text text-anchor="middle" x="543" y="-832.5" font-family="Helvetica,sans-Serif" font-size="10.00" fill="#ece1d7">Heap | Chunk | ToastDelete | Raw</text>
<text text-anchor="middle" x="543" y="-821.5" font-family="Helvetica,sans-Serif" font-size="10.00" fill="#ece1d7">abort discards</text>
</g>
<!-- decode&#45;&gt;spill -->
<g id="edge1" class="edge">
<title>decode&#45;&gt;spill</title>
<path fill="none" stroke="#c1a78e" d="M534.03,-926.47C535.94,-907.16 538.4,-882.41 540.26,-863.67"/>
<polygon fill="#c1a78e" stroke="#c1a78e" points="543.06,-863.77 541.06,-855.53 537.49,-863.22 543.06,-863.77"/>
</g>
<!-- marker -->
<g id="node20" class="node">
<title>marker</title>
<path fill="#5d4628" stroke="#6e6963" d="M361,-855.5C361,-855.5 227,-855.5 227,-855.5 221,-855.5 215,-849.5 215,-843.5 215,-843.5 215,-826.5 215,-826.5 215,-820.5 221,-814.5 227,-814.5 227,-814.5 361,-814.5 361,-814.5 367,-814.5 373,-820.5 373,-826.5 373,-826.5 373,-843.5 373,-843.5 373,-849.5 367,-855.5 361,-855.5"/>
<text text-anchor="middle" x="294" y="-843.5" font-family="Helvetica,sans-Serif" font-size="10.00" fill="#ece1d7">XLOG_SMGR_CREATE marker</text>
<text text-anchor="middle" x="294" y="-832.5" font-family="Helvetica,sans-Serif" font-size="10.00" fill="#ece1d7">+ SpillEntry::Raw stash</text>
<text text-anchor="middle" x="294" y="-821.5" font-family="Helvetica,sans-Serif" font-size="10.00" fill="#ece1d7">resolve at commit</text>
</g>
<!-- decode&#45;&gt;marker -->
<g id="edge27" class="edge">
<title>decode&#45;&gt;marker</title>
<path fill="none" stroke="#c1a78e" stroke-dasharray="5,2" d="M471.19,-926.47C430.31,-905.59 376.96,-878.36 339.53,-859.24"/>
<polygon fill="#c1a78e" stroke="#c1a78e" points="340.66,-856.68 332.26,-855.53 338.11,-861.66 340.66,-856.68"/>
<text text-anchor="middle" x="471" y="-897.3" font-family="Helvetica,sans-Serif" font-size="9.00" fill="#ece1d7">invisible generation</text>
</g>
<!-- drain -->
<g id="node4" class="node">
<title>drain</title>
<path fill="#4d4128" stroke="#6e6963" d="M638,-760.5C638,-760.5 460,-760.5 460,-760.5 454,-760.5 448,-754.5 448,-748.5 448,-748.5 448,-720.5 448,-720.5 448,-714.5 454,-708.5 460,-708.5 460,-708.5 638,-708.5 638,-708.5 644,-708.5 650,-714.5 650,-720.5 650,-720.5 650,-748.5 650,-748.5 650,-754.5 644,-760.5 638,-760.5"/>
<text text-anchor="middle" x="549" y="-748.5" font-family="Helvetica,sans-Serif" font-size="10.00" fill="#ece1d7">CommittedDrain → DrainedBatch</text>
<text text-anchor="middle" x="549" y="-737.5" font-family="Helvetica,sans-Serif" font-size="10.00" fill="#ece1d7">chunks: Arc&lt;ChunkMap&gt; generations</text>
<text text-anchor="middle" x="549" y="-726.5" font-family="Helvetica,sans-Serif" font-size="10.00" fill="#ece1d7">new_rows: births + tombstones</text>
<text text-anchor="middle" x="549" y="-715.5" font-family="Helvetica,sans-Serif" font-size="10.00" fill="#ece1d7">ordered row/event cursors</text>
</g>
<!-- spill&#45;&gt;drain -->
<g id="edge2" class="edge">
<title>spill&#45;&gt;drain</title>
<path fill="none" stroke="#c1a78e" d="M544.21,-814.07C545.01,-801.07 546.06,-783.79 546.97,-768.75"/>
<polygon fill="#c1a78e" stroke="#c1a78e" points="549.78,-768.82 547.47,-760.66 544.19,-768.48 549.78,-768.82"/>
</g>
<!-- detoast -->
<g id="node5" class="node">
<title>detoast</title>
<path fill="#5d4628" stroke="#6e6963" d="M677.5,-623.5C677.5,-623.5 558.5,-623.5 558.5,-623.5 552.5,-623.5 546.5,-617.5 546.5,-611.5 546.5,-611.5 546.5,-594.5 546.5,-594.5 546.5,-588.5 552.5,-582.5 558.5,-582.5 558.5,-582.5 677.5,-582.5 677.5,-582.5 683.5,-582.5 689.5,-588.5 689.5,-594.5 689.5,-594.5 689.5,-611.5 689.5,-611.5 689.5,-617.5 683.5,-623.5 677.5,-623.5"/>
<text text-anchor="middle" x="618" y="-611.5" font-family="Helvetica,sans-Serif" font-size="10.00" fill="#ece1d7">decode pool</text>
<text text-anchor="middle" x="618" y="-600.5" font-family="Helvetica,sans-Serif" font-size="10.00" fill="#ece1d7">detoast_heap</text>
<text text-anchor="middle" x="618" y="-589.5" font-family="Helvetica,sans-Serif" font-size="10.00" fill="#ece1d7">try in&#45;xact ChunkMap first</text>
</g>
<!-- drain&#45;&gt;detoast -->
<g id="edge3" class="edge">
<title>drain&#45;&gt;detoast</title>
<path fill="none" stroke="#c1a78e" d="M559.47,-708.32C567.21,-690.43 578.38,-666.04 590,-645.5 592.76,-640.62 595.91,-635.57 599.07,-630.73"/>
<polygon fill="#c1a78e" stroke="#c1a78e" points="601.55,-632.06 603.67,-623.86 596.9,-628.95 601.55,-632.06"/>
<text text-anchor="middle" x="638.5" y="-663.8" font-family="Helvetica,sans-Serif" font-size="9.00" fill="#ece1d7">heaps + chunk maps</text>
</g>
<!-- put -->
<g id="node8" class="node">
<title>put</title>
<path fill="#4d4d28" stroke="#6e6963" d="M1385.5,-621C1385.5,-621 1230.5,-621 1230.5,-621 1224.5,-621 1218.5,-615 1218.5,-609 1218.5,-609 1218.5,-597 1218.5,-597 1218.5,-591 1224.5,-585 1230.5,-585 1230.5,-585 1385.5,-585 1385.5,-585 1391.5,-585 1397.5,-591 1397.5,-597 1397.5,-597 1397.5,-609 1397.5,-609 1397.5,-615 1391.5,-621 1385.5,-621"/>
<text text-anchor="middle" x="1308" y="-606" font-family="Helvetica,sans-Serif" font-size="10.00" fill="#ece1d7">put(new_rows)</text>
<text text-anchor="middle" x="1308" y="-595" font-family="Helvetica,sans-Serif" font-size="10.00" fill="#ece1d7">before commit publishing marker</text>
</g>
<!-- drain&#45;&gt;put -->
<g id="edge11" class="edge">
<title>drain&#45;&gt;put</title>
<path fill="none" stroke="#bf8c5f" d="M650.27,-716.75C778.35,-695.48 1005.65,-657.46 1200,-623.5 1203.38,-622.91 1206.82,-622.31 1210.29,-621.69"/>
<polygon fill="#bf8c5f" stroke="#bf8c5f" points="1211.05,-624.4 1218.44,-620.25 1210.07,-618.89 1211.05,-624.4"/>
<text text-anchor="middle" x="1086" y="-668.8" font-family="Helvetica,sans-Serif" font-size="9.00" fill="#ece1d7">new_rows</text>
<text text-anchor="middle" x="1086" y="-658.8" font-family="Helvetica,sans-Serif" font-size="9.00" fill="#ece1d7">WAL ordered</text>
</g>
<!-- trunc -->
<g id="node15" class="node">
<title>trunc</title>
<path fill="#5d4628" stroke="#6e6963" d="M411.5,-560.5C411.5,-560.5 260.5,-560.5 260.5,-560.5 254.5,-560.5 248.5,-554.5 248.5,-548.5 248.5,-548.5 248.5,-531.5 248.5,-531.5 248.5,-525.5 254.5,-519.5 260.5,-519.5 260.5,-519.5 411.5,-519.5 411.5,-519.5 417.5,-519.5 423.5,-525.5 423.5,-531.5 423.5,-531.5 423.5,-548.5 423.5,-548.5 423.5,-554.5 417.5,-560.5 411.5,-560.5"/>
<text text-anchor="middle" x="336" y="-548.5" font-family="Helvetica,sans-Serif" font-size="10.00" fill="#ece1d7">owner TRUNCATE</text>
<text text-anchor="middle" x="336" y="-537.5" font-family="Helvetica,sans-Serif" font-size="10.00" fill="#ece1d7">fence main rows</text>
<text text-anchor="middle" x="336" y="-526.5" font-family="Helvetica,sans-Serif" font-size="10.00" fill="#ece1d7">TRUNCATE dest + mirror in slice</text>
</g>
<!-- drain&#45;&gt;trunc -->
<g id="edge25" class="edge">
<title>drain&#45;&gt;trunc</title>
<path fill="none" stroke="#c1a78e" stroke-dasharray="5,2" d="M497.45,-708.32C486.28,-701.88 474.87,-694.49 465,-686.5 414.7,-645.78 412.2,-625.19 369,-577 366.03,-573.69 362.89,-570.22 359.77,-566.8"/>
<polygon fill="#c1a78e" stroke="#c1a78e" points="361.7,-564.75 354.23,-560.73 357.56,-568.53 361.7,-564.75"/>
<text text-anchor="middle" x="513.5" y="-663.8" font-family="Helvetica,sans-Serif" font-size="9.00" fill="#ece1d7">truncate_rows cursor</text>
</g>
<!-- drop -->
<g id="node16" class="node">
<title>drop</title>
<path fill="#5d4628" stroke="#6e6963" d="M343,-621C343,-621 209,-621 209,-621 203,-621 197,-615 197,-609 197,-609 197,-597 197,-597 197,-591 203,-585 209,-585 209,-585 343,-585 343,-585 349,-585 355,-591 355,-597 355,-597 355,-609 355,-609 355,-615 349,-621 343,-621"/>
<text text-anchor="middle" x="276" y="-606" font-family="Helvetica,sans-Serif" font-size="10.00" fill="#ece1d7">toast SchemaEvent::Dropped</text>
<text text-anchor="middle" x="276" y="-595" font-family="Helvetica,sans-Serif" font-size="10.00" fill="#ece1d7">enqueue (relid, commit_lsn)</text>
</g>
<!-- drain&#45;&gt;drop -->
<g id="edge26" class="edge">
<title>drain&#45;&gt;drop</title>
<path fill="none" stroke="#c1a78e" stroke-dasharray="5,2" d="M447.74,-710.3C444.8,-709.68 441.88,-709.08 439,-708.5 384.14,-697.41 359.48,-720.48 315,-686.5 296.69,-672.51 286.59,-647.78 281.29,-629.03"/>
<polygon fill="#c1a78e" stroke="#c1a78e" points="283.97,-628.19 279.24,-621.16 278.55,-629.6 283.97,-628.19"/>
<text text-anchor="middle" x="354" y="-663.8" font-family="Helvetica,sans-Serif" font-size="9.00" fill="#ece1d7">ordered Dropped</text>
</g>
<!-- rows -->
<g id="node6" class="node">
<title>rows</title>
<path fill="#5d4628" stroke="#6e6963" d="M776.06,-497.5C776.06,-497.5 529.54,-497.5 529.54,-497.5 523.54,-497.5 512.99,-493.58 508.45,-489.66 508.45,-489.66 457.03,-445.34 457.03,-445.34 452.49,-441.42 453.94,-437.5 459.94,-437.5 459.94,-437.5 706.46,-437.5 706.46,-437.5 712.46,-437.5 723.01,-441.42 727.55,-445.34 727.55,-445.34 778.97,-489.66 778.97,-489.66 783.51,-493.58 782.06,-497.5 776.06,-497.5"/>
<text text-anchor="middle" x="618" y="-470.5" font-family="Helvetica,sans-Serif" font-size="10.00" fill="#ece1d7">main&#45;table rows</text>
<text text-anchor="middle" x="618" y="-459.5" font-family="Helvetica,sans-Serif" font-size="10.00" fill="#ece1d7">inline Text / Bytea / PgPending</text>
</g>
<!-- detoast&#45;&gt;rows -->
<g id="edge4" class="edge">
<title>detoast&#45;&gt;rows</title>
<path fill="none" stroke="#c1a78e" d="M618,-582.3C618,-562.23 618,-530.61 618,-505.79"/>
<polygon fill="#c1a78e" stroke="#c1a78e" points="620.8,-505.66 618,-497.66 615.2,-505.66 620.8,-505.66"/>
</g>
<!-- fetch -->
<g id="node9" class="node">
<title>fetch</title>
<path fill="#4d4d28" stroke="#6e6963" d="M1362.5,-488C1362.5,-488 1221.5,-488 1221.5,-488 1215.5,-488 1209.5,-482 1209.5,-476 1209.5,-476 1209.5,-459 1209.5,-459 1209.5,-453 1215.5,-447 1221.5,-447 1221.5,-447 1362.5,-447 1362.5,-447 1368.5,-447 1374.5,-453 1374.5,-459 1374.5,-459 1374.5,-476 1374.5,-476 1374.5,-482 1368.5,-488 1362.5,-488"/>
<text text-anchor="middle" x="1292" y="-476" font-family="Helvetica,sans-Serif" font-size="10.00" fill="#ece1d7">fetch(relid, value_id, max_lsn)</text>
<text text-anchor="middle" x="1292" y="-465" font-family="Helvetica,sans-Serif" font-size="10.00" fill="#ece1d7">per&#45;TID latest ≤ max_lsn</text>
<text text-anchor="middle" x="1292" y="-454" font-family="Helvetica,sans-Serif" font-size="10.00" fill="#ece1d7">live rows → newest per seq</text>
</g>
<!-- detoast&#45;&gt;fetch -->
<g id="edge12" class="edge">
<title>detoast&#45;&gt;fetch</title>
<path fill="none" stroke="#cba85e" stroke-dasharray="5,2" d="M639.9,-582.45C663.34,-562.79 702.51,-533.46 742,-519.5 824.25,-490.43 1067.4,-476.92 1201.19,-471.54"/>
<polygon fill="#cba85e" stroke="#cba85e" points="1201.57,-474.32 1209.45,-471.21 1201.35,-468.73 1201.57,-474.32"/>
<text text-anchor="middle" x="787.5" y="-542.8" font-family="Helvetica,sans-Serif" font-size="9.00" fill="#ece1d7">pointer absent from</text>
<text text-anchor="middle" x="787.5" y="-532.8" font-family="Helvetica,sans-Serif" font-size="9.00" fill="#ece1d7">in&#45;xact maps</text>
</g>
<!-- main -->
<g id="node22" class="node">
<title>main</title>
<path fill="#4d4128" stroke="#6e6963" d="M697.5,-368.98C697.5,-371.06 665.45,-372.75 626,-372.75 586.55,-372.75 554.5,-371.06 554.5,-368.98 554.5,-368.98 554.5,-335.02 554.5,-335.02 554.5,-332.94 586.55,-331.25 626,-331.25 665.45,-331.25 697.5,-332.94 697.5,-335.02 697.5,-335.02 697.5,-368.98 697.5,-368.98"/>
<path fill="none" stroke="#6e6963" d="M697.5,-368.98C697.5,-366.9 665.45,-365.21 626,-365.21 586.55,-365.21 554.5,-366.9 554.5,-368.98"/>
<text text-anchor="middle" x="626" y="-355" font-family="Helvetica,sans-Serif" font-size="10.00" fill="#ece1d7">CH destination tables</text>
<text text-anchor="middle" x="626" y="-344" font-family="Helvetica,sans-Serif" font-size="10.00" fill="#ece1d7">ReplacingMergeTree(_lsn)</text>
</g>
<!-- rows&#45;&gt;main -->
<g id="edge28" class="edge">
<title>rows&#45;&gt;main</title>
<path fill="none" stroke="#bf8c5f" stroke-width="2" d="M620.06,-437.27C621.29,-419.89 622.83,-397.95 624.04,-380.82"/>
<polygon fill="#bf8c5f" stroke="#bf8c5f" stroke-width="2" points="626.83,-381.02 624.6,-372.84 621.25,-380.62 626.83,-381.02"/>
</g>
<!-- resolver -->
<g id="node7" class="node">
<title>resolver</title>
<path fill="#4d4d28" stroke="#6e6963" d="M1446.5,-752.5C1446.5,-752.5 1351.5,-752.5 1351.5,-752.5 1345.5,-752.5 1339.5,-746.5 1339.5,-740.5 1339.5,-740.5 1339.5,-728.5 1339.5,-728.5 1339.5,-722.5 1345.5,-716.5 1351.5,-716.5 1351.5,-716.5 1446.5,-716.5 1446.5,-716.5 1452.5,-716.5 1458.5,-722.5 1458.5,-728.5 1458.5,-728.5 1458.5,-740.5 1458.5,-740.5 1458.5,-746.5 1452.5,-752.5 1446.5,-752.5"/>
<text text-anchor="middle" x="1399" y="-737.5" font-family="Helvetica,sans-Serif" font-size="10.00" fill="#ece1d7">ToastResolver</text>
<text text-anchor="middle" x="1399" y="-726.5" font-family="Helvetica,sans-Serif" font-size="10.00" fill="#ece1d7">disabled | clickhouse</text>
</g>
<!-- resolver&#45;&gt;put -->
<g id="edge6" class="edge">
<title>resolver&#45;&gt;put</title>
<path fill="none" stroke="#c1a78e" d="M1386.92,-716.3C1371.01,-693.66 1342.95,-653.74 1324.93,-628.09"/>
<polygon fill="#c1a78e" stroke="#c1a78e" points="1327.02,-626.2 1320.13,-621.27 1322.44,-629.42 1327.02,-626.2"/>
</g>
<!-- resolver&#45;&gt;fetch -->
<g id="edge7" class="edge">
<title>resolver&#45;&gt;fetch</title>
<path fill="none" stroke="#c1a78e" d="M1405.67,-716.16C1416.04,-686.29 1432.8,-623.85 1412,-577 1395.98,-540.91 1361.36,-511.74 1333.41,-492.77"/>
<polygon fill="#c1a78e" stroke="#c1a78e" points="1334.68,-490.25 1326.46,-488.17 1331.59,-494.92 1334.68,-490.25"/>
</g>
<!-- mirror -->
<g id="node10" class="node">
<title>mirror</title>
<path fill="#4d4128" stroke="#6e6963" d="M1413,-80.8C1413,-84.36 1367.28,-87.25 1311,-87.25 1254.72,-87.25 1209,-84.36 1209,-80.8 1209,-80.8 1209,-22.7 1209,-22.7 1209,-19.14 1254.72,-16.25 1311,-16.25 1367.28,-16.25 1413,-19.14 1413,-22.7 1413,-22.7 1413,-80.8 1413,-80.8"/>
<path fill="none" stroke="#6e6963" d="M1413,-80.8C1413,-77.24 1367.28,-74.34 1311,-74.34 1254.72,-74.34 1209,-77.24 1209,-80.8"/>
<text text-anchor="middle" x="1311" y="-65.75" font-family="Helvetica,sans-Serif" font-size="10.00" fill="#ece1d7">CH pg_toast_&lt;relid&gt;</text>
<text text-anchor="middle" x="1311" y="-54.75" font-family="Helvetica,sans-Serif" font-size="10.00" fill="#ece1d7">ReplacingMergeTree(_lsn, _is_deleted)</text>
<text text-anchor="middle" x="1311" y="-43.75" font-family="Helvetica,sans-Serif" font-size="10.00" fill="#ece1d7">ORDER BY (blkno, offnum)</text>
<text text-anchor="middle" x="1311" y="-32.75" font-family="Helvetica,sans-Serif" font-size="10.00" fill="#ece1d7">birth or tombstone per TID</text>
</g>
<!-- put&#45;&gt;mirror -->
<g id="edge8" class="edge">
<title>put&#45;&gt;mirror</title>
<path fill="none" stroke="#bf8c5f" stroke-width="2" d="M1337.87,-584.99C1372.24,-562.93 1424,-521 1424,-468.5 1424,-468.5 1424,-468.5 1424,-207.5 1424,-162.12 1391.92,-121.17 1361.94,-92.8"/>
<polygon fill="#bf8c5f" stroke="#bf8c5f" stroke-width="2" points="1363.76,-90.67 1355.99,-87.3 1359.96,-94.79 1363.76,-90.67"/>
</g>
<!-- fetch&#45;&gt;mirror -->
<g id="edge9" class="edge">
<title>fetch&#45;&gt;mirror</title>
<path fill="none" stroke="#cba85e" d="M1328.66,-441.78C1346.89,-427.21 1367.09,-407.03 1377,-383.5 1418.47,-285.04 1367.3,-158.9 1334.47,-94.57"/>
<polygon fill="#cba85e" stroke="#cba85e" points="1322.06,-446.89 1326.18,-439.15 1325.22,-444.44 1328.39,-442 1328.39,-442 1328.39,-442 1325.22,-444.44 1330.59,-444.84 1322.06,-446.89 1322.06,-446.89"/>
<polygon fill="#cba85e" stroke="#cba85e" points="1336.93,-93.23 1330.77,-87.41 1331.96,-95.8 1336.93,-93.23"/>
</g>
<!-- miss -->
<g id="node11" class="node">
<title>miss</title>
<polygon fill="#5d3f40" stroke="#6e6963" points="1356.5,-383.5 1209.5,-383.5 1209.5,-320.5 1362.5,-320.5 1362.5,-377.5 1356.5,-383.5"/>
<polyline fill="none" stroke="#6e6963" points="1356.5,-383.5 1356.5,-377.5 "/>
<polyline fill="none" stroke="#6e6963" points="1362.5,-377.5 1356.5,-377.5 "/>
<text text-anchor="middle" x="1286" y="-371.5" font-family="Helvetica,sans-Serif" font-size="10.00" fill="#ece1d7">miss policy</text>
<text text-anchor="middle" x="1286" y="-360.5" font-family="Helvetica,sans-Serif" font-size="10.00" fill="#ece1d7">disabled → default fill</text>
<text text-anchor="middle" x="1286" y="-349.5" font-family="Helvetica,sans-Serif" font-size="10.00" fill="#ece1d7">store miss → superseded fill</text>
<text text-anchor="middle" x="1286" y="-338.5" font-family="Helvetica,sans-Serif" font-size="10.00" fill="#ece1d7">short run → mismatch fill</text>
<text text-anchor="middle" x="1286" y="-327.5" font-family="Helvetica,sans-Serif" font-size="10.00" fill="#ece1d7">missing mirror → fatal</text>
</g>
<!-- fetch&#45;&gt;miss -->
<g id="edge10" class="edge">
<title>fetch&#45;&gt;miss</title>
<path fill="none" stroke="#c1a78e" stroke-dasharray="5,2" d="M1290.97,-446.99C1290.17,-431.86 1289.03,-410.41 1288.05,-391.82"/>
<polygon fill="#c1a78e" stroke="#c1a78e" points="1290.85,-391.63 1287.63,-383.79 1285.25,-391.93 1290.85,-391.63"/>
</g>
<!-- walk -->
<g id="node12" class="node">
<title>walk</title>
<path fill="#4d3340" stroke="#6e6963" d="M1172,-855.5C1172,-855.5 1032,-855.5 1032,-855.5 1026,-855.5 1020,-849.5 1020,-843.5 1020,-843.5 1020,-826.5 1020,-826.5 1020,-820.5 1026,-814.5 1032,-814.5 1032,-814.5 1172,-814.5 1172,-814.5 1178,-814.5 1184,-820.5 1184,-826.5 1184,-826.5 1184,-843.5 1184,-843.5 1184,-849.5 1178,-855.5 1172,-855.5"/>
<text text-anchor="middle" x="1102" y="-843.5" font-family="Helvetica,sans-Serif" font-size="10.00" fill="#ece1d7">PageWalkSink</text>
<text text-anchor="middle" x="1102" y="-832.5" font-family="Helvetica,sans-Serif" font-size="10.00" fill="#ece1d7">main tuples + pg_toast tuples</text>
<text text-anchor="middle" x="1102" y="-821.5" font-family="Helvetica,sans-Serif" font-size="10.00" fill="#ece1d7">on&#45;page TID, walk LSN</text>
</g>
<!-- defer -->
<g id="node13" class="node">
<title>defer</title>
<path fill="#4d3340" stroke="#6e6963" d="M1167,-755C1167,-755 1037,-755 1037,-755 1031,-755 1025,-749 1025,-743 1025,-743 1025,-726 1025,-726 1025,-720 1031,-714 1037,-714 1037,-714 1167,-714 1167,-714 1173,-714 1179,-720 1179,-726 1179,-726 1179,-743 1179,-743 1179,-749 1173,-755 1167,-755"/>
<text text-anchor="middle" x="1102" y="-743" font-family="Helvetica,sans-Serif" font-size="10.00" fill="#ece1d7">pipeline::bootstrap::drain</text>
<text text-anchor="middle" x="1102" y="-732" font-family="Helvetica,sans-Serif" font-size="10.00" fill="#ece1d7">batch ToastRows</text>
<text text-anchor="middle" x="1102" y="-721" font-family="Helvetica,sans-Serif" font-size="10.00" fill="#ece1d7">defer mapped ExternalToast</text>
</g>
<!-- walk&#45;&gt;defer -->
<g id="edge13" class="edge">
<title>walk&#45;&gt;defer</title>
<path fill="none" stroke="#c1a78e" d="M1102,-814.07C1102,-799.42 1102,-779.33 1102,-763.13"/>
<polygon fill="#c1a78e" stroke="#c1a78e" points="1104.8,-763.07 1102,-755.07 1099.2,-763.07 1104.8,-763.07"/>
</g>
<!-- defer&#45;&gt;put -->
<g id="edge15" class="edge">
<title>defer&#45;&gt;put</title>
<path fill="none" stroke="#bf8c5f" d="M1133.29,-713.83C1171.11,-690.05 1234.56,-650.17 1273.69,-625.57"/>
<polygon fill="#bf8c5f" stroke="#bf8c5f" points="1275.42,-627.79 1280.71,-621.16 1272.44,-623.05 1275.42,-627.79"/>
<text text-anchor="middle" x="1264" y="-663.8" font-family="Helvetica,sans-Serif" font-size="9.00" fill="#ece1d7">ToastRows</text>
</g>
<!-- resolve -->
<g id="node14" class="node">
<title>resolve</title>
<path fill="#4d3340" stroke="#6e6963" d="M1173,-621C1173,-621 1025,-621 1025,-621 1019,-621 1013,-615 1013,-609 1013,-609 1013,-597 1013,-597 1013,-591 1019,-585 1025,-585 1025,-585 1173,-585 1173,-585 1179,-585 1185,-591 1185,-597 1185,-597 1185,-609 1185,-609 1185,-615 1179,-621 1173,-621"/>
<text text-anchor="middle" x="1099" y="-606" font-family="Helvetica,sans-Serif" font-size="10.00" fill="#ece1d7">flush chunks → resolve deferred</text>
<text text-anchor="middle" x="1099" y="-595" font-family="Helvetica,sans-Serif" font-size="10.00" fill="#ece1d7">bootstrap miss = hard error</text>
</g>
<!-- defer&#45;&gt;resolve -->
<g id="edge14" class="edge">
<title>defer&#45;&gt;resolve</title>
<path fill="none" stroke="#c1a78e" d="M1101.54,-713.83C1101.02,-691.3 1100.17,-654.31 1099.59,-629.56"/>
<polygon fill="#c1a78e" stroke="#c1a78e" points="1102.39,-629.29 1099.4,-621.36 1096.79,-629.42 1102.39,-629.29"/>
</g>
<!-- resolve&#45;&gt;rows -->
<g id="edge17" class="edge">
<title>resolve&#45;&gt;rows</title>
<path fill="none" stroke="#bf8c5f" d="M1049.71,-584.96C997.87,-567.35 913.74,-539.68 840,-519.5 814.4,-512.49 786.96,-505.66 760.4,-499.38"/>
<polygon fill="#bf8c5f" stroke="#bf8c5f" points="761,-496.64 752.57,-497.54 759.72,-502.09 761,-496.64"/>
<text text-anchor="middle" x="1028.5" y="-537.8" font-family="Helvetica,sans-Serif" font-size="9.00" fill="#ece1d7">resolved bootstrap rows</text>
</g>
<!-- resolve&#45;&gt;fetch -->
<g id="edge16" class="edge">
<title>resolve&#45;&gt;fetch</title>
<path fill="none" stroke="#cba85e" stroke-dasharray="5,2" d="M1123.84,-584.82C1157.57,-561.48 1218.08,-519.63 1256.58,-493"/>
<polygon fill="#cba85e" stroke="#cba85e" points="1258.51,-495.07 1263.5,-488.22 1255.32,-490.46 1258.51,-495.07"/>
<text text-anchor="middle" x="1235.5" y="-537.8" font-family="Helvetica,sans-Serif" font-size="9.00" fill="#ece1d7">after flush</text>
</g>
<!-- trunc&#45;&gt;mirror -->
<g id="edge22" class="edge">
<title>trunc&#45;&gt;mirror</title>
<path fill="none" stroke="#bf8c5f" stroke-dasharray="5,2" d="M354.58,-519.1C374.71,-495.38 404,-453.65 404,-411.5 404,-411.5 404,-411.5 404,-207.5 404,-175.28 407.82,-160.29 434,-141.5 495.06,-97.68 978.84,-68.85 1200.62,-57.81"/>
<polygon fill="#bf8c5f" stroke="#bf8c5f" points="1200.86,-60.6 1208.72,-57.41 1200.59,-55.01 1200.86,-60.6"/>
<text text-anchor="middle" x="415" y="-349.8" font-family="Helvetica,sans-Serif" font-size="9.00" fill="#ece1d7">wipe</text>
</g>
<!-- ledger -->
<g id="node17" class="node">
<title>ledger</title>
<polygon fill="#4d3850" stroke="#6e6963" points="304,-485.5 190,-485.5 190,-449.5 310,-449.5 310,-479.5 304,-485.5"/>
<polyline fill="none" stroke="#6e6963" points="304,-485.5 304,-479.5 "/>
<polyline fill="none" stroke="#6e6963" points="310,-479.5 304,-479.5 "/>
<text text-anchor="middle" x="250" y="-470.5" font-family="Helvetica,sans-Serif" font-size="10.00" fill="#ece1d7">toast_retires.bin</text>
<text text-anchor="middle" x="250" y="-459.5" font-family="Helvetica,sans-Serif" font-size="10.00" fill="#ece1d7">fsynced RetireLedger</text>
</g>
<!-- drop&#45;&gt;ledger -->
<g id="edge18" class="edge">
<title>drop&#45;&gt;ledger</title>
<path fill="none" stroke="#6e6963" stroke-dasharray="5,2" d="M260.37,-584.7C255.05,-577.7 249.74,-569.22 247,-560.5 240.13,-538.69 241.88,-512.52 244.76,-493.68"/>
<polygon fill="#6e6963" stroke="#6e6963" points="247.55,-493.93 246.13,-485.58 242.03,-492.99 247.55,-493.93"/>
</g>
<!-- floor -->
<g id="node18" class="node">
<title>floor</title>
<path fill="#4d3a28" stroke="#6e6963" d="M333.5,-370C333.5,-370 196.5,-370 196.5,-370 190.5,-370 184.5,-364 184.5,-358 184.5,-358 184.5,-346 184.5,-346 184.5,-340 190.5,-334 196.5,-334 196.5,-334 333.5,-334 333.5,-334 339.5,-334 345.5,-340 345.5,-346 345.5,-346 345.5,-358 345.5,-358 345.5,-364 339.5,-370 333.5,-370"/>
<text text-anchor="middle" x="265" y="-355" font-family="Helvetica,sans-Serif" font-size="10.00" fill="#ece1d7">persisted resume floor</text>
<text text-anchor="middle" x="265" y="-344" font-family="Helvetica,sans-Serif" font-size="10.00" fill="#ece1d7">segment passes drop commit</text>
</g>
<!-- ledger&#45;&gt;floor -->
<g id="edge19" class="edge">
<title>ledger&#45;&gt;floor</title>
<path fill="none" stroke="#c1a78e" stroke-dasharray="5,2" d="M252.28,-449.26C254.78,-430.32 258.83,-399.72 261.68,-378.11"/>
<polygon fill="#c1a78e" stroke="#c1a78e" points="264.48,-378.33 262.75,-370.03 258.93,-377.59 264.48,-378.33"/>
</g>
<!-- retire -->
<g id="node19" class="node">
<title>retire</title>
<path fill="#5d4628" stroke="#6e6963" d="M340.5,-226.5C340.5,-226.5 203.5,-226.5 203.5,-226.5 197.5,-226.5 191.5,-220.5 191.5,-214.5 191.5,-214.5 191.5,-202.5 191.5,-202.5 191.5,-196.5 197.5,-190.5 203.5,-190.5 203.5,-190.5 340.5,-190.5 340.5,-190.5 346.5,-190.5 352.5,-196.5 352.5,-202.5 352.5,-202.5 352.5,-214.5 352.5,-214.5 352.5,-220.5 346.5,-226.5 340.5,-226.5"/>
<text text-anchor="middle" x="272" y="-211.5" font-family="Helvetica,sans-Serif" font-size="10.00" fill="#ece1d7">retire_mirror</text>
<text text-anchor="middle" x="272" y="-200.5" font-family="Helvetica,sans-Serif" font-size="10.00" fill="#ece1d7">TRUNCATE table, never DROP</text>
</g>
<!-- floor&#45;&gt;retire -->
<g id="edge20" class="edge">
<title>floor&#45;&gt;retire</title>
<path fill="none" stroke="#c1a78e" d="M265.84,-333.93C267.06,-309.28 269.33,-263.55 270.74,-234.92"/>
<polygon fill="#c1a78e" stroke="#c1a78e" points="273.55,-234.76 271.15,-226.63 267.96,-234.48 273.55,-234.76"/>
</g>
<!-- retire&#45;&gt;mirror -->
<g id="edge23" class="edge">
<title>retire&#45;&gt;mirror</title>
<path fill="none" stroke="#bf8c5f" stroke-dasharray="5,2" d="M267.59,-190.13C263.13,-167.99 259.6,-130.13 281,-109.5 313.68,-77.99 940.96,-60.79 1200.27,-55"/>
<polygon fill="#bf8c5f" stroke="#bf8c5f" points="1200.65,-57.79 1208.59,-54.82 1200.52,-52.2 1200.65,-57.79"/>
<text text-anchor="middle" x="331.5" y="-112.3" font-family="Helvetica,sans-Serif" font-size="9.00" fill="#ece1d7">wipe when replay&#45;safe</text>
</g>
<!-- barrier -->
<g id="node21" class="node">
<title>barrier</title>
<path fill="#5d4628" stroke="#6e6963" d="M229.5,-686.5C229.5,-686.5 62.5,-686.5 62.5,-686.5 56.5,-686.5 50.5,-680.5 50.5,-674.5 50.5,-674.5 50.5,-657.5 50.5,-657.5 50.5,-651.5 56.5,-645.5 62.5,-645.5 62.5,-645.5 229.5,-645.5 229.5,-645.5 235.5,-645.5 241.5,-651.5 241.5,-657.5 241.5,-657.5 241.5,-674.5 241.5,-674.5 241.5,-680.5 235.5,-686.5 229.5,-686.5"/>
<text text-anchor="middle" x="146" y="-674.5" font-family="Helvetica,sans-Serif" font-size="10.00" fill="#ece1d7">rewrite_barrier O − B</text>
<text text-anchor="middle" x="146" y="-663.5" font-family="Helvetica,sans-Serif" font-size="10.00" fill="#ece1d7">residual tombstones @ commit LSN</text>
<text text-anchor="middle" x="146" y="-652.5" font-family="Helvetica,sans-Serif" font-size="10.00" fill="#ece1d7">after generation births</text>
</g>
<!-- marker&#45;&gt;barrier -->
<g id="edge21" class="edge">
<title>marker&#45;&gt;barrier</title>
<path fill="none" stroke="#c1a78e" d="M276.44,-814.19C249.67,-783.97 198.62,-726.37 168.94,-692.89"/>
<polygon fill="#c1a78e" stroke="#c1a78e" points="170.71,-690.66 163.31,-686.53 166.52,-694.37 170.71,-690.66"/>
</g>
<!-- barrier&#45;&gt;mirror -->
<g id="edge24" class="edge">
<title>barrier&#45;&gt;mirror</title>
<path fill="none" stroke="#bf8c5f" stroke-dasharray="5,2" d="M144.45,-645.26C142.68,-620.8 140,-577.86 140,-541 140,-541 140,-541 140,-207.5 140,-135.85 197.73,-123.47 268,-109.5 443.78,-74.55 969.89,-59.74 1200.56,-54.8"/>
<polygon fill="#bf8c5f" stroke="#bf8c5f" points="1200.7,-57.6 1208.64,-54.63 1200.58,-52 1200.7,-57.6"/>
<text text-anchor="middle" x="189" y="-408.3" font-family="Helvetica,sans-Serif" font-size="9.00" fill="#ece1d7">insert residual deaths</text>
</g>
<!-- legend -->
<g id="node23" class="node">
<title>legend</title>
<path fill="#6e6963" stroke="transparent" d="M795.5,-275.5C795.5,-275.5 460.5,-275.5 460.5,-275.5 454.5,-275.5 448.5,-269.5 448.5,-263.5 448.5,-263.5 448.5,-153.5 448.5,-153.5 448.5,-147.5 454.5,-141.5 460.5,-141.5 460.5,-141.5 795.5,-141.5 795.5,-141.5 801.5,-141.5 807.5,-147.5 807.5,-153.5 807.5,-153.5 807.5,-263.5 807.5,-263.5 807.5,-269.5 801.5,-275.5 795.5,-275.5"/>
<polygon fill="#34302c" stroke="transparent" points="457,-250.5 457,-271.5 800,-271.5 800,-250.5 457,-250.5"/>
<polygon fill="none" stroke="#6e6963" points="457,-250.5 457,-271.5 800,-271.5 800,-250.5 457,-250.5"/>
<text text-anchor="start" x="599.5" y="-259.5" font-family="Helvetica,sans-Serif" font-weight="bold" font-size="10.00" fill="#ece1d7">invariants</text>
<polygon fill="none" stroke="#6e6963" points="457,-229.5 457,-250.5 520,-250.5 520,-229.5 457,-229.5"/>
<text text-anchor="start" x="462.5" y="-237.5" font-family="Helvetica,sans-Serif" font-size="10.00" fill="#ece1d7">same&#45;xact</text>
<polygon fill="none" stroke="#6e6963" points="520,-229.5 520,-250.5 800,-250.5 800,-229.5 520,-229.5"/>
<text text-anchor="start" x="586" y="-237.5" font-family="Helvetica,sans-Serif" font-size="10.00" fill="#ece1d7">ChunkMap wins, no store read</text>
<polygon fill="none" stroke="#6e6963" points="457,-208.5 457,-229.5 520,-229.5 520,-208.5 457,-208.5"/>
<text text-anchor="start" x="462" y="-216.5" font-family="Helvetica,sans-Serif" font-size="10.00" fill="#ece1d7">store write</text>
<polygon fill="none" stroke="#6e6963" points="520,-208.5 520,-229.5 800,-229.5 800,-208.5 520,-208.5"/>
<text text-anchor="start" x="529.5" y="-216.5" font-family="Helvetica,sans-Serif" font-size="10.00" fill="#ece1d7">births/tombstones durable before commit publication</text>
<polygon fill="none" stroke="#6e6963" points="457,-187.5 457,-208.5 520,-208.5 520,-187.5 457,-187.5"/>
<text text-anchor="start" x="463.5" y="-195.5" font-family="Helvetica,sans-Serif" font-size="10.00" fill="#ece1d7">as&#45;of read</text>
<polygon fill="none" stroke="#6e6963" points="520,-187.5 520,-208.5 800,-208.5 800,-187.5 520,-187.5"/>
<text text-anchor="start" x="543" y="-195.5" font-family="Helvetica,sans-Serif" font-size="10.00" fill="#ece1d7">future TID generations invisible at referring LSN</text>
<polygon fill="none" stroke="#6e6963" points="457,-166.5 457,-187.5 520,-187.5 520,-166.5 457,-166.5"/>
<text text-anchor="start" x="474.5" y="-174.5" font-family="Helvetica,sans-Serif" font-size="10.00" fill="#ece1d7">DROP</text>
<polygon fill="none" stroke="#6e6963" points="520,-166.5 520,-187.5 800,-187.5 800,-166.5 520,-166.5"/>
<text text-anchor="start" x="525" y="-174.5" font-family="Helvetica,sans-Serif" font-size="10.00" fill="#ece1d7">persist intent before ack, wipe after replay floor passes</text>
<polygon fill="none" stroke="#6e6963" points="457,-145.5 457,-166.5 520,-166.5 520,-145.5 457,-145.5"/>
<text text-anchor="start" x="471" y="-153.5" font-family="Helvetica,sans-Serif" font-size="10.00" fill="#ece1d7">rewrite</text>
<polygon fill="none" stroke="#6e6963" points="520,-145.5 520,-166.5 800,-166.5 800,-145.5 520,-145.5"/>
<text text-anchor="start" x="525.5" y="-153.5" font-family="Helvetica,sans-Serif" font-size="10.00" fill="#ece1d7">preserve old as&#45;of windows, close residuals with O − B</text>
</g>
<!-- main&#45;&gt;legend -->
</g>
</svg>
