<?xml version="1.0" encoding="UTF-8" standalone="no"?>
<!DOCTYPE svg PUBLIC "-//W3C//DTD SVG 1.1//EN"
 "http://www.w3.org/Graphics/SVG/1.1/DTD/svg11.dtd">
<!-- Generated by graphviz version 15.1.0 (20260618.0150)
 -->
<!-- Title: toast Pages: 1 -->
<svg width="1605pt" height="1225pt"
 viewBox="0.00 0.00 1605.00 1225.00" xmlns="http://www.w3.org/2000/svg" xmlns:xlink="http://www.w3.org/1999/xlink">
<g id="graph0" class="graph" transform="scale(1 1) rotate(0) translate(4 1221)">
<title>toast</title>
<polygon fill="#272623" stroke="none" points="-4,4 -4,-1221 1601,-1221 1601,4 -4,4"/>
<text xml:space="preserve" text-anchor="middle" x="798.5" y="-1199.7" font-family="Helvetica,sans-Serif" font-size="14.00" fill="#ece1d7">walshadow TOAST — in&#45;xact reassembly + TID&#45;keyed ClickHouse mirror + lifecycle</text>
<g id="clust1" class="cluster">
<title>cluster_stream</title>
<path fill="#34302c" stroke="#4c4641" d="M451,-460.88C451,-460.88 783,-460.88 783,-460.88 789,-460.88 795,-466.88 795,-472.88 795,-472.88 795,-1081.75 795,-1081.75 795,-1087.75 789,-1093.75 783,-1093.75 783,-1093.75 451,-1093.75 451,-1093.75 445,-1093.75 439,-1087.75 439,-1081.75 439,-1081.75 439,-472.88 439,-472.88 439,-466.88 445,-460.88 451,-460.88"/>
<text xml:space="preserve" text-anchor="middle" x="617" y="-1076.45" font-family="Helvetica,sans-Serif" font-size="14.00" fill="#ece1d7">streaming commit — WAL order, abort&#45;safe</text>
</g>
<g id="clust2" class="cluster">
<title>cluster_store</title>
<path fill="#34302c" stroke="#4c4641" d="M1212,-8C1212,-8 1577,-8 1577,-8 1583,-8 1589,-14 1589,-20 1589,-20 1589,-825 1589,-825 1589,-831 1583,-837 1577,-837 1577,-837 1212,-837 1212,-837 1206,-837 1200,-831 1200,-825 1200,-825 1200,-20 1200,-20 1200,-14 1206,-8 1212,-8"/>
<text xml:space="preserve" text-anchor="middle" x="1394.5" y="-819.7" font-family="Helvetica,sans-Serif" font-size="14.00" fill="#ece1d7">ToastResolver / ChunkStore — store&#45;backed slow path</text>
</g>
<g id="clust3" class="cluster">
<title>cluster_bootstrap</title>
<path fill="#34302c" stroke="#4c4641" d="M815,-623.25C815,-623.25 1180,-623.25 1180,-623.25 1186,-623.25 1192,-629.25 1192,-635.25 1192,-635.25 1192,-935.5 1192,-935.5 1192,-941.5 1186,-947.5 1180,-947.5 1180,-947.5 815,-947.5 815,-947.5 809,-947.5 803,-941.5 803,-935.5 803,-935.5 803,-635.25 803,-635.25 803,-629.25 809,-623.25 815,-623.25"/>
<text xml:space="preserve" text-anchor="middle" x="997.5" y="-930.2" font-family="Helvetica,sans-Serif" font-size="14.00" fill="#ece1d7">bootstrap — put all chunks before deferred resolution</text>
</g>
<g id="clust4" class="cluster">
<title>cluster_lifecycle</title>
<path fill="#34302c" stroke="#4c4641" d="M20,-198.62C20,-198.62 419,-198.62 419,-198.62 425,-198.62 431,-204.62 431,-210.62 431,-210.62 431,-935.5 431,-935.5 431,-941.5 425,-947.5 419,-947.5 419,-947.5 20,-947.5 20,-947.5 14,-947.5 8,-941.5 8,-935.5 8,-935.5 8,-210.62 8,-210.62 8,-204.62 14,-198.62 20,-198.62"/>
<text xml:space="preserve" text-anchor="middle" x="219.5" y="-930.2" font-family="Helvetica,sans-Serif" font-size="14.00" fill="#ece1d7">lifecycle barriers — TRUNCATE, DROP, rewrite stay distinct</text>
</g>
<!-- wal -->
<g id="node1" class="node">
<title>wal</title>
<path fill="#3d3d54" stroke="#6e6963" d="M657.22,-1191.75C657.22,-1191.75 458.16,-1191.75 458.16,-1191.75 452.16,-1191.75 442.26,-1187.19 438.36,-1182.64 438.36,-1182.64 396.58,-1133.86 396.58,-1133.86 392.68,-1129.31 394.78,-1124.75 400.78,-1124.75 400.78,-1124.75 599.84,-1124.75 599.84,-1124.75 605.84,-1124.75 615.74,-1129.31 619.64,-1133.86 619.64,-1133.86 661.42,-1182.64 661.42,-1182.64 665.32,-1187.19 663.22,-1191.75 657.22,-1191.75"/>
<text xml:space="preserve" text-anchor="middle" x="529" y="-1161.5" font-family="Helvetica,sans-Serif" font-size="10.00" fill="#ece1d7">source WAL</text>
<text xml:space="preserve" text-anchor="middle" x="529" y="-1148.75" font-family="Helvetica,sans-Serif" font-size="10.00" fill="#ece1d7">heap + pg_toast records</text>
</g>
<!-- decode -->
<g id="node2" class="node">
<title>decode</title>
<path fill="#4d4128" stroke="#6e6963" d="M593.25,-1060.5C593.25,-1060.5 464.75,-1060.5 464.75,-1060.5 458.75,-1060.5 452.75,-1054.5 452.75,-1048.5 452.75,-1048.5 452.75,-1000.75 452.75,-1000.75 452.75,-994.75 458.75,-988.75 464.75,-988.75 464.75,-988.75 593.25,-988.75 593.25,-988.75 599.25,-988.75 605.25,-994.75 605.25,-1000.75 605.25,-1000.75 605.25,-1048.5 605.25,-1048.5 605.25,-1054.5 599.25,-1060.5 593.25,-1060.5"/>
<text xml:space="preserve" text-anchor="middle" x="529" y="-1047" font-family="Helvetica,sans-Serif" font-size="10.00" fill="#ece1d7">BufferingDecoderSink</text>
<text xml:space="preserve" text-anchor="middle" x="529" y="-1034.25" font-family="Helvetica,sans-Serif" font-size="10.00" fill="#ece1d7">main heap → DecodedHeap</text>
<text xml:space="preserve" text-anchor="middle" x="529" y="-1021.5" font-family="Helvetica,sans-Serif" font-size="10.00" fill="#ece1d7">toast INSERT → ToastChunk</text>
<text xml:space="preserve" text-anchor="middle" x="529" y="-1008.75" font-family="Helvetica,sans-Serif" font-size="10.00" fill="#ece1d7">toast DELETE → ToastDelete</text>
<text xml:space="preserve" text-anchor="middle" x="529" y="-996" font-family="Helvetica,sans-Serif" font-size="10.00" fill="#ece1d7">TID + record LSN</text>
</g>
<!-- wal&#45;&gt;decode -->
<g id="edge5" class="edge">
<title>wal&#45;&gt;decode</title>
<path fill="none" stroke="#c1a78e" d="M529,-1124.37C529,-1107.9 529,-1087.73 529,-1069.91"/>
<polygon fill="#c1a78e" stroke="#c1a78e" points="531.8,-1070.36 529,-1062.36 526.2,-1070.36 531.8,-1070.36"/>
</g>
<!-- spill -->
<g id="node3" class="node">
<title>spill</title>
<path fill="#4d4128" stroke="#6e6963" d="M615,-914.25C615,-914.25 461,-914.25 461,-914.25 455,-914.25 449,-908.25 449,-902.25 449,-902.25 449,-880 449,-880 449,-874 455,-868 461,-868 461,-868 615,-868 615,-868 621,-868 627,-874 627,-880 627,-880 627,-902.25 627,-902.25 627,-908.25 621,-914.25 615,-914.25"/>
<text xml:space="preserve" text-anchor="middle" x="538" y="-900.75" font-family="Helvetica,sans-Serif" font-size="10.00" fill="#ece1d7">XactBuffer / spill v4</text>
<text xml:space="preserve" text-anchor="middle" x="538" y="-888" font-family="Helvetica,sans-Serif" font-size="10.00" fill="#ece1d7">Heap | Chunk | ToastDelete | Raw</text>
<text xml:space="preserve" text-anchor="middle" x="538" y="-875.25" font-family="Helvetica,sans-Serif" font-size="10.00" fill="#ece1d7">abort discards</text>
</g>
<!-- decode&#45;&gt;spill -->
<g id="edge1" class="edge">
<title>decode&#45;&gt;spill</title>
<path fill="none" stroke="#c1a78e" d="M531.41,-988.39C532.78,-968.34 534.49,-943.43 535.82,-923.98"/>
<polygon fill="#c1a78e" stroke="#c1a78e" points="538.6,-924.32 536.36,-916.14 533.02,-923.93 538.6,-924.32"/>
</g>
<!-- marker -->
<g id="node20" class="node">
<title>marker</title>
<path fill="#5d4628" stroke="#6e6963" d="M380.88,-914.25C380.88,-914.25 247.12,-914.25 247.12,-914.25 241.12,-914.25 235.12,-908.25 235.12,-902.25 235.12,-902.25 235.12,-880 235.12,-880 235.12,-874 241.12,-868 247.12,-868 247.12,-868 380.88,-868 380.88,-868 386.88,-868 392.88,-874 392.88,-880 392.88,-880 392.88,-902.25 392.88,-902.25 392.88,-908.25 386.88,-914.25 380.88,-914.25"/>
<text xml:space="preserve" text-anchor="middle" x="314" y="-900.75" font-family="Helvetica,sans-Serif" font-size="10.00" fill="#ece1d7">XLOG_SMGR_CREATE marker</text>
<text xml:space="preserve" text-anchor="middle" x="314" y="-888" font-family="Helvetica,sans-Serif" font-size="10.00" fill="#ece1d7">+ SpillEntry::Raw stash</text>
<text xml:space="preserve" text-anchor="middle" x="314" y="-875.25" font-family="Helvetica,sans-Serif" font-size="10.00" fill="#ece1d7">resolve at commit</text>
</g>
<!-- decode&#45;&gt;marker -->
<g id="edge27" class="edge">
<title>decode&#45;&gt;marker</title>
<path fill="none" stroke="#c1a78e" stroke-dasharray="5,2" d="M471.38,-988.39C436.07,-966.78 391.52,-939.54 358.84,-919.55"/>
<polygon fill="#c1a78e" stroke="#c1a78e" points="360.38,-917.21 352.09,-915.42 357.45,-921.99 360.38,-917.21"/>
<text xml:space="preserve" text-anchor="middle" x="478.25" y="-958.2" font-family="Helvetica,sans-Serif" font-size="9.00" fill="#ece1d7">invisible generation</text>
</g>
<!-- drain -->
<g id="node4" class="node">
<title>drain</title>
<path fill="#4d4128" stroke="#6e6963" d="M622.88,-808.88C622.88,-808.88 459.12,-808.88 459.12,-808.88 453.12,-808.88 447.12,-802.88 447.12,-796.88 447.12,-796.88 447.12,-774.62 447.12,-774.62 447.12,-768.62 453.12,-762.62 459.12,-762.62 459.12,-762.62 622.88,-762.62 622.88,-762.62 628.88,-762.62 634.88,-768.62 634.88,-774.62 634.88,-774.62 634.88,-796.88 634.88,-796.88 634.88,-802.88 628.88,-808.88 622.88,-808.88"/>
<text xml:space="preserve" text-anchor="middle" x="541" y="-795.38" font-family="Helvetica,sans-Serif" font-size="10.00" fill="#ece1d7">committed transaction</text>
<text xml:space="preserve" text-anchor="middle" x="541" y="-782.62" font-family="Helvetica,sans-Serif" font-size="10.00" fill="#ece1d7">shared ordered walk keeps chunks,</text>
<text xml:space="preserve" text-anchor="middle" x="541" y="-769.88" font-family="Helvetica,sans-Serif" font-size="10.00" fill="#ece1d7">rows, and table changes together</text>
</g>
<!-- spill&#45;&gt;drain -->
<g id="edge2" class="edge">
<title>spill&#45;&gt;drain</title>
<path fill="none" stroke="#c1a78e" d="M538.65,-867.69C539.07,-853.33 539.61,-834.48 540.08,-818.59"/>
<polygon fill="#c1a78e" stroke="#c1a78e" points="542.87,-818.73 540.31,-810.65 537.28,-818.57 542.87,-818.73"/>
</g>
<!-- detoast -->
<g id="node5" class="node">
<title>detoast</title>
<path fill="#5d4628" stroke="#6e6963" d="M676.38,-672.38C676.38,-672.38 557.62,-672.38 557.62,-672.38 551.62,-672.38 545.62,-666.38 545.62,-660.38 545.62,-660.38 545.62,-638.12 545.62,-638.12 545.62,-632.12 551.62,-626.12 557.62,-626.12 557.62,-626.12 676.38,-626.12 676.38,-626.12 682.38,-626.12 688.38,-632.12 688.38,-638.12 688.38,-638.12 688.38,-660.38 688.38,-660.38 688.38,-666.38 682.38,-672.38 676.38,-672.38"/>
<text xml:space="preserve" text-anchor="middle" x="617" y="-658.88" font-family="Helvetica,sans-Serif" font-size="10.00" fill="#ece1d7">decode pool</text>
<text xml:space="preserve" text-anchor="middle" x="617" y="-646.12" font-family="Helvetica,sans-Serif" font-size="10.00" fill="#ece1d7">detoast_heap</text>
<text xml:space="preserve" text-anchor="middle" x="617" y="-633.38" font-family="Helvetica,sans-Serif" font-size="10.00" fill="#ece1d7">try in&#45;xact ChunkMap first</text>
</g>
<!-- drain&#45;&gt;detoast -->
<g id="edge3" class="edge">
<title>drain&#45;&gt;detoast</title>
<path fill="none" stroke="#c1a78e" d="M551.49,-762.44C560.43,-743.9 573.9,-716.99 587.25,-694.38 589.96,-689.79 592.95,-685.03 595.97,-680.41"/>
<polygon fill="#c1a78e" stroke="#c1a78e" points="598.09,-682.29 600.19,-674.08 593.42,-679.18 598.09,-682.29"/>
<text xml:space="preserve" text-anchor="middle" x="635.62" y="-714.58" font-family="Helvetica,sans-Serif" font-size="9.00" fill="#ece1d7">heaps + chunk maps</text>
</g>
<!-- put -->
<g id="node8" class="node">
<title>put</title>
<path fill="#4d4d28" stroke="#6e6963" d="M1383.38,-667.25C1383.38,-667.25 1228.62,-667.25 1228.62,-667.25 1222.62,-667.25 1216.62,-661.25 1216.62,-655.25 1216.62,-655.25 1216.62,-643.25 1216.62,-643.25 1216.62,-637.25 1222.62,-631.25 1228.62,-631.25 1228.62,-631.25 1383.38,-631.25 1383.38,-631.25 1389.38,-631.25 1395.38,-637.25 1395.38,-643.25 1395.38,-643.25 1395.38,-655.25 1395.38,-655.25 1395.38,-661.25 1389.38,-667.25 1383.38,-667.25"/>
<text xml:space="preserve" text-anchor="middle" x="1306" y="-652.5" font-family="Helvetica,sans-Serif" font-size="10.00" fill="#ece1d7">put(new_rows)</text>
<text xml:space="preserve" text-anchor="middle" x="1306" y="-639.75" font-family="Helvetica,sans-Serif" font-size="10.00" fill="#ece1d7">before commit publishing marker</text>
</g>
<!-- drain&#45;&gt;put -->
<g id="edge11" class="edge">
<title>drain&#45;&gt;put</title>
<path fill="none" stroke="#bf8c5f" d="M635.17,-769.72C763.06,-749.08 998.71,-710.17 1199,-672.38 1203.83,-671.46 1208.79,-670.51 1213.79,-669.53"/>
<polygon fill="#bf8c5f" stroke="#bf8c5f" points="1214.03,-672.34 1221.33,-668.04 1212.94,-666.84 1214.03,-672.34"/>
<text xml:space="preserve" text-anchor="middle" x="1102.24" y="-720.2" font-family="Helvetica,sans-Serif" font-size="9.00" fill="#ece1d7">new_rows</text>
<text xml:space="preserve" text-anchor="middle" x="1102.24" y="-708.95" font-family="Helvetica,sans-Serif" font-size="9.00" fill="#ece1d7">WAL ordered</text>
</g>
<!-- trunc -->
<g id="node15" class="node">
<title>trunc</title>
<path fill="#5d4628" stroke="#6e6963" d="M411.12,-604.12C411.12,-604.12 260.88,-604.12 260.88,-604.12 254.88,-604.12 248.88,-598.12 248.88,-592.12 248.88,-592.12 248.88,-569.88 248.88,-569.88 248.88,-563.88 254.88,-557.88 260.88,-557.88 260.88,-557.88 411.12,-557.88 411.12,-557.88 417.12,-557.88 423.12,-563.88 423.12,-569.88 423.12,-569.88 423.12,-592.12 423.12,-592.12 423.12,-598.12 417.12,-604.12 411.12,-604.12"/>
<text xml:space="preserve" text-anchor="middle" x="336" y="-590.62" font-family="Helvetica,sans-Serif" font-size="10.00" fill="#ece1d7">owner TRUNCATE</text>
<text xml:space="preserve" text-anchor="middle" x="336" y="-577.88" font-family="Helvetica,sans-Serif" font-size="10.00" fill="#ece1d7">fence main rows</text>
<text xml:space="preserve" text-anchor="middle" x="336" y="-565.12" font-family="Helvetica,sans-Serif" font-size="10.00" fill="#ece1d7">TRUNCATE dest + mirror in slice</text>
</g>
<!-- drain&#45;&gt;trunc -->
<g id="edge25" class="edge">
<title>drain&#45;&gt;trunc</title>
<path fill="none" stroke="#c1a78e" stroke-dasharray="5,2" d="M516.17,-762.53C508.95,-755.72 501.21,-748.06 494.5,-740.62 450.37,-691.72 453.1,-667.16 404,-623.25 398.64,-618.46 392.66,-613.91 386.52,-609.71"/>
<polygon fill="#c1a78e" stroke="#c1a78e" points="388.18,-607.45 379.96,-605.41 385.11,-612.14 388.18,-607.45"/>
<text xml:space="preserve" text-anchor="middle" x="525.25" y="-714.58" font-family="Helvetica,sans-Serif" font-size="9.00" fill="#ece1d7">truncate step</text>
</g>
<!-- drop -->
<g id="node16" class="node">
<title>drop</title>
<path fill="#5d4628" stroke="#6e6963" d="M377.88,-667.25C377.88,-667.25 244.12,-667.25 244.12,-667.25 238.12,-667.25 232.12,-661.25 232.12,-655.25 232.12,-655.25 232.12,-643.25 232.12,-643.25 232.12,-637.25 238.12,-631.25 244.12,-631.25 244.12,-631.25 377.88,-631.25 377.88,-631.25 383.88,-631.25 389.88,-637.25 389.88,-643.25 389.88,-643.25 389.88,-655.25 389.88,-655.25 389.88,-661.25 383.88,-667.25 377.88,-667.25"/>
<text xml:space="preserve" text-anchor="middle" x="311" y="-652.5" font-family="Helvetica,sans-Serif" font-size="10.00" fill="#ece1d7">toast SchemaEvent::Dropped</text>
<text xml:space="preserve" text-anchor="middle" x="311" y="-639.75" font-family="Helvetica,sans-Serif" font-size="10.00" fill="#ece1d7">enqueue (relid, commit_lsn)</text>
</g>
<!-- drain&#45;&gt;drop -->
<g id="edge26" class="edge">
<title>drain&#45;&gt;drop</title>
<path fill="none" stroke="#c1a78e" stroke-dasharray="5,2" d="M447.03,-763.25C411.75,-754.62 378.44,-745.56 371.5,-740.62 348.71,-724.43 332.04,-696.73 322.04,-676.25"/>
<polygon fill="#c1a78e" stroke="#c1a78e" points="324.6,-675.13 318.68,-669.07 319.53,-677.5 324.6,-675.13"/>
<text xml:space="preserve" text-anchor="middle" x="393.25" y="-714.58" font-family="Helvetica,sans-Serif" font-size="9.00" fill="#ece1d7">drop step</text>
</g>
<!-- rows -->
<g id="node6" class="node">
<title>rows</title>
<path fill="#5d4628" stroke="#6e6963" d="M774.77,-535.88C774.77,-535.88 528.7,-535.88 528.7,-535.88 522.7,-535.88 512.39,-531.71 508.07,-527.54 508.07,-527.54 455.87,-477.21 455.87,-477.21 451.55,-473.04 453.23,-468.88 459.23,-468.88 459.23,-468.88 705.3,-468.88 705.3,-468.88 711.3,-468.88 721.61,-473.04 725.93,-477.21 725.93,-477.21 778.13,-527.54 778.13,-527.54 782.45,-531.71 780.77,-535.88 774.77,-535.88"/>
<text xml:space="preserve" text-anchor="middle" x="617" y="-505.62" font-family="Helvetica,sans-Serif" font-size="10.00" fill="#ece1d7">main&#45;table rows</text>
<text xml:space="preserve" text-anchor="middle" x="617" y="-492.88" font-family="Helvetica,sans-Serif" font-size="10.00" fill="#ece1d7">inline Text / Bytea / PgPending</text>
</g>
<!-- detoast&#45;&gt;rows -->
<g id="edge4" class="edge">
<title>detoast&#45;&gt;rows</title>
<path fill="none" stroke="#c1a78e" d="M617,-625.93C617,-604.58 617,-571.84 617,-545.57"/>
<polygon fill="#c1a78e" stroke="#c1a78e" points="619.8,-545.73 617,-537.73 614.2,-545.73 619.8,-545.73"/>
</g>
<!-- fetch -->
<g id="node9" class="node">
<title>fetch</title>
<path fill="#4d4d28" stroke="#6e6963" d="M1360.25,-525.5C1360.25,-525.5 1219.75,-525.5 1219.75,-525.5 1213.75,-525.5 1207.75,-519.5 1207.75,-513.5 1207.75,-513.5 1207.75,-491.25 1207.75,-491.25 1207.75,-485.25 1213.75,-479.25 1219.75,-479.25 1219.75,-479.25 1360.25,-479.25 1360.25,-479.25 1366.25,-479.25 1372.25,-485.25 1372.25,-491.25 1372.25,-491.25 1372.25,-513.5 1372.25,-513.5 1372.25,-519.5 1366.25,-525.5 1360.25,-525.5"/>
<text xml:space="preserve" text-anchor="middle" x="1290" y="-512" font-family="Helvetica,sans-Serif" font-size="10.00" fill="#ece1d7">fetch(relid, value_id, max_lsn)</text>
<text xml:space="preserve" text-anchor="middle" x="1290" y="-499.25" font-family="Helvetica,sans-Serif" font-size="10.00" fill="#ece1d7">per&#45;TID latest ≤ max_lsn</text>
<text xml:space="preserve" text-anchor="middle" x="1290" y="-486.5" font-family="Helvetica,sans-Serif" font-size="10.00" fill="#ece1d7">live rows → newest per seq</text>
</g>
<!-- detoast&#45;&gt;fetch -->
<g id="edge12" class="edge">
<title>detoast&#45;&gt;fetch</title>
<path fill="none" stroke="#cba85e" stroke-dasharray="5,2" d="M640.09,-625.66C663.61,-604.18 702.19,-572.98 742,-557.88 823.02,-527.14 1064.07,-512.61 1197.89,-506.74"/>
<polygon fill="#cba85e" stroke="#cba85e" points="1197.96,-509.54 1205.83,-506.4 1197.71,-503.94 1197.96,-509.54"/>
<text xml:space="preserve" text-anchor="middle" x="787" y="-583.7" font-family="Helvetica,sans-Serif" font-size="9.00" fill="#ece1d7">pointer absent from</text>
<text xml:space="preserve" text-anchor="middle" x="787" y="-572.45" font-family="Helvetica,sans-Serif" font-size="9.00" fill="#ece1d7">in&#45;xact maps</text>
</g>
<!-- main -->
<g id="node22" class="node">
<title>main</title>
<path fill="#4d4128" stroke="#6e6963" d="M695,-396.59C695,-398.9 663.18,-400.78 624,-400.78 584.82,-400.78 553,-398.9 553,-396.59 553,-396.59 553,-358.91 553,-358.91 553,-356.6 584.82,-354.72 624,-354.72 663.18,-354.72 695,-356.6 695,-358.91 695,-358.91 695,-396.59 695,-396.59"/>
<path fill="none" stroke="#6e6963" d="M695,-396.59C695,-394.28 663.18,-392.41 624,-392.41 584.82,-392.41 553,-394.28 553,-396.59"/>
<text xml:space="preserve" text-anchor="middle" x="624" y="-381" font-family="Helvetica,sans-Serif" font-size="10.00" fill="#ece1d7">CH destination tables</text>
<text xml:space="preserve" text-anchor="middle" x="624" y="-368.25" font-family="Helvetica,sans-Serif" font-size="10.00" fill="#ece1d7">ReplacingMergeTree(_lsn)</text>
</g>
<!-- rows&#45;&gt;main -->
<g id="edge28" class="edge">
<title>rows&#45;&gt;main</title>
<path fill="none" stroke="#bf8c5f" stroke-width="2" d="M618.88,-468.51C619.87,-451.06 621.09,-429.64 622.1,-412.11"/>
<polygon fill="#bf8c5f" stroke="#bf8c5f" stroke-width="2" points="624.88,-412.4 622.54,-404.25 619.29,-412.08 624.88,-412.4"/>
</g>
<!-- resolver -->
<g id="node7" class="node">
<title>resolver</title>
<path fill="#4d4d28" stroke="#6e6963" d="M1443,-803.75C1443,-803.75 1349,-803.75 1349,-803.75 1343,-803.75 1337,-797.75 1337,-791.75 1337,-791.75 1337,-779.75 1337,-779.75 1337,-773.75 1343,-767.75 1349,-767.75 1349,-767.75 1443,-767.75 1443,-767.75 1449,-767.75 1455,-773.75 1455,-779.75 1455,-779.75 1455,-791.75 1455,-791.75 1455,-797.75 1449,-803.75 1443,-803.75"/>
<text xml:space="preserve" text-anchor="middle" x="1396" y="-789" font-family="Helvetica,sans-Serif" font-size="10.00" fill="#ece1d7">ToastResolver</text>
<text xml:space="preserve" text-anchor="middle" x="1396" y="-776.25" font-family="Helvetica,sans-Serif" font-size="10.00" fill="#ece1d7">disabled | clickhouse</text>
</g>
<!-- resolver&#45;&gt;put -->
<g id="edge6" class="edge">
<title>resolver&#45;&gt;put</title>
<path fill="none" stroke="#c1a78e" d="M1384.42,-767.44C1368.76,-744.04 1340.72,-702.14 1322.76,-675.3"/>
<polygon fill="#c1a78e" stroke="#c1a78e" points="1325.16,-673.84 1318.38,-668.75 1320.5,-676.96 1325.16,-673.84"/>
</g>
<!-- resolver&#45;&gt;fetch -->
<g id="edge7" class="edge">
<title>resolver&#45;&gt;fetch</title>
<path fill="none" stroke="#c1a78e" d="M1402.56,-767.45C1413.03,-737 1430.37,-672.39 1410,-623.25 1394.21,-585.17 1359.81,-552.89 1331.87,-531.45"/>
<polygon fill="#c1a78e" stroke="#c1a78e" points="1333.84,-529.44 1325.76,-526.88 1330.49,-533.92 1333.84,-529.44"/>
</g>
<!-- mirror -->
<g id="node10" class="node">
<title>mirror</title>
<path fill="#4d4128" stroke="#6e6963" d="M1411.75,-89.75C1411.75,-93.82 1366.14,-97.12 1310,-97.12 1253.86,-97.12 1208.25,-93.82 1208.25,-89.75 1208.25,-89.75 1208.25,-23.38 1208.25,-23.38 1208.25,-19.31 1253.86,-16 1310,-16 1366.14,-16 1411.75,-19.31 1411.75,-23.38 1411.75,-23.38 1411.75,-89.75 1411.75,-89.75"/>
<path fill="none" stroke="#6e6963" d="M1411.75,-89.75C1411.75,-85.68 1366.14,-82.38 1310,-82.38 1253.86,-82.38 1208.25,-85.68 1208.25,-89.75"/>
<text xml:space="preserve" text-anchor="middle" x="1310" y="-72.56" font-family="Helvetica,sans-Serif" font-size="10.00" fill="#ece1d7">CH pg_toast_&lt;relid&gt;</text>
<text xml:space="preserve" text-anchor="middle" x="1310" y="-59.81" font-family="Helvetica,sans-Serif" font-size="10.00" fill="#ece1d7">ReplacingMergeTree(_lsn, _is_deleted)</text>
<text xml:space="preserve" text-anchor="middle" x="1310" y="-47.06" font-family="Helvetica,sans-Serif" font-size="10.00" fill="#ece1d7">ORDER BY (blkno, offnum)</text>
<text xml:space="preserve" text-anchor="middle" x="1310" y="-34.31" font-family="Helvetica,sans-Serif" font-size="10.00" fill="#ece1d7">birth or tombstone per TID</text>
</g>
<!-- put&#45;&gt;mirror -->
<g id="edge8" class="edge">
<title>put&#45;&gt;mirror</title>
<path fill="none" stroke="#bf8c5f" stroke-width="2" d="M1333.25,-630.79C1367.26,-606.64 1421,-559.57 1421,-503.38 1421,-503.38 1421,-503.38 1421,-223.62 1421,-178.26 1392.02,-135.9 1363.67,-105.32"/>
<polygon fill="#bf8c5f" stroke="#bf8c5f" stroke-width="2" points="1365.75,-103.44 1358.2,-99.59 1361.71,-107.31 1365.75,-103.44"/>
</g>
<!-- fetch&#45;&gt;mirror -->
<g id="edge9" class="edge">
<title>fetch&#45;&gt;mirror</title>
<path fill="none" stroke="#cba85e" d="M1328.76,-473.05C1346.44,-457.69 1365.51,-437.05 1375,-413.62 1417.38,-308.96 1368.24,-175.8 1335.18,-105.71"/>
<polygon fill="#cba85e" stroke="#cba85e" points="1322.75,-478.1 1326.56,-470.2 1324.88,-476.31 1328.87,-472.95 1328.87,-472.95 1328.87,-472.95 1324.88,-476.31 1331.19,-475.71 1322.75,-478.1"/>
<polygon fill="#cba85e" stroke="#cba85e" points="1337.87,-104.85 1331.89,-98.85 1332.82,-107.27 1337.87,-104.85"/>
</g>
<!-- miss -->
<g id="node11" class="node">
<title>miss</title>
<polygon fill="#5d3f40" stroke="#6e6963" points="1354.25,-413.62 1207.75,-413.62 1207.75,-341.88 1360.25,-341.88 1360.25,-407.62 1354.25,-413.62"/>
<polyline fill="none" stroke="#6e6963" points="1354.25,-413.62 1354.25,-407.62"/>
<polyline fill="none" stroke="#6e6963" points="1360.25,-407.62 1354.25,-407.62"/>
<text xml:space="preserve" text-anchor="middle" x="1284" y="-400.12" font-family="Helvetica,sans-Serif" font-size="10.00" fill="#ece1d7">miss policy</text>
<text xml:space="preserve" text-anchor="middle" x="1284" y="-387.38" font-family="Helvetica,sans-Serif" font-size="10.00" fill="#ece1d7">disabled → default fill</text>
<text xml:space="preserve" text-anchor="middle" x="1284" y="-374.62" font-family="Helvetica,sans-Serif" font-size="10.00" fill="#ece1d7">store miss → superseded fill</text>
<text xml:space="preserve" text-anchor="middle" x="1284" y="-361.88" font-family="Helvetica,sans-Serif" font-size="10.00" fill="#ece1d7">short run → mismatch fill</text>
<text xml:space="preserve" text-anchor="middle" x="1284" y="-349.12" font-family="Helvetica,sans-Serif" font-size="10.00" fill="#ece1d7">missing mirror → fatal</text>
</g>
<!-- fetch&#45;&gt;miss -->
<g id="edge10" class="edge">
<title>fetch&#45;&gt;miss</title>
<path fill="none" stroke="#c1a78e" stroke-dasharray="5,2" d="M1288.9,-478.88C1288.14,-463.39 1287.11,-442.27 1286.19,-423.42"/>
<polygon fill="#c1a78e" stroke="#c1a78e" points="1288.99,-423.47 1285.8,-415.61 1283.4,-423.74 1288.99,-423.47"/>
</g>
<!-- walk -->
<g id="node12" class="node">
<title>walk</title>
<path fill="#4d3340" stroke="#6e6963" d="M1170.5,-914.25C1170.5,-914.25 1031.5,-914.25 1031.5,-914.25 1025.5,-914.25 1019.5,-908.25 1019.5,-902.25 1019.5,-902.25 1019.5,-880 1019.5,-880 1019.5,-874 1025.5,-868 1031.5,-868 1031.5,-868 1170.5,-868 1170.5,-868 1176.5,-868 1182.5,-874 1182.5,-880 1182.5,-880 1182.5,-902.25 1182.5,-902.25 1182.5,-908.25 1176.5,-914.25 1170.5,-914.25"/>
<text xml:space="preserve" text-anchor="middle" x="1101" y="-900.75" font-family="Helvetica,sans-Serif" font-size="10.00" fill="#ece1d7">PageWalkSink</text>
<text xml:space="preserve" text-anchor="middle" x="1101" y="-888" font-family="Helvetica,sans-Serif" font-size="10.00" fill="#ece1d7">main tuples + pg_toast tuples</text>
<text xml:space="preserve" text-anchor="middle" x="1101" y="-875.25" font-family="Helvetica,sans-Serif" font-size="10.00" fill="#ece1d7">on&#45;page TID, walk LSN</text>
</g>
<!-- defer -->
<g id="node13" class="node">
<title>defer</title>
<path fill="#4d3340" stroke="#6e6963" d="M1165.62,-808.88C1165.62,-808.88 1036.38,-808.88 1036.38,-808.88 1030.38,-808.88 1024.38,-802.88 1024.38,-796.88 1024.38,-796.88 1024.38,-774.62 1024.38,-774.62 1024.38,-768.62 1030.38,-762.62 1036.38,-762.62 1036.38,-762.62 1165.62,-762.62 1165.62,-762.62 1171.62,-762.62 1177.62,-768.62 1177.62,-774.62 1177.62,-774.62 1177.62,-796.88 1177.62,-796.88 1177.62,-802.88 1171.62,-808.88 1165.62,-808.88"/>
<text xml:space="preserve" text-anchor="middle" x="1101" y="-795.38" font-family="Helvetica,sans-Serif" font-size="10.00" fill="#ece1d7">pipeline::bootstrap::drain</text>
<text xml:space="preserve" text-anchor="middle" x="1101" y="-782.62" font-family="Helvetica,sans-Serif" font-size="10.00" fill="#ece1d7">batch ToastRows</text>
<text xml:space="preserve" text-anchor="middle" x="1101" y="-769.88" font-family="Helvetica,sans-Serif" font-size="10.00" fill="#ece1d7">defer mapped ExternalToast</text>
</g>
<!-- walk&#45;&gt;defer -->
<g id="edge13" class="edge">
<title>walk&#45;&gt;defer</title>
<path fill="none" stroke="#c1a78e" d="M1101,-867.69C1101,-853.33 1101,-834.48 1101,-818.59"/>
<polygon fill="#c1a78e" stroke="#c1a78e" points="1103.8,-818.65 1101,-810.65 1098.2,-818.65 1103.8,-818.65"/>
</g>
<!-- defer&#45;&gt;put -->
<g id="edge15" class="edge">
<title>defer&#45;&gt;put</title>
<path fill="none" stroke="#bf8c5f" d="M1135.31,-762.24C1173.2,-737.38 1233.82,-697.61 1271.7,-672.76"/>
<polygon fill="#bf8c5f" stroke="#bf8c5f" points="1273,-675.25 1278.15,-668.52 1269.93,-670.57 1273,-675.25"/>
<text xml:space="preserve" text-anchor="middle" x="1256.71" y="-714.58" font-family="Helvetica,sans-Serif" font-size="9.00" fill="#ece1d7">ToastRows</text>
</g>
<!-- resolve -->
<g id="node14" class="node">
<title>resolve</title>
<path fill="#4d3340" stroke="#6e6963" d="M1171.62,-667.25C1171.62,-667.25 1024.38,-667.25 1024.38,-667.25 1018.38,-667.25 1012.38,-661.25 1012.38,-655.25 1012.38,-655.25 1012.38,-643.25 1012.38,-643.25 1012.38,-637.25 1018.38,-631.25 1024.38,-631.25 1024.38,-631.25 1171.62,-631.25 1171.62,-631.25 1177.62,-631.25 1183.62,-637.25 1183.62,-643.25 1183.62,-643.25 1183.62,-655.25 1183.62,-655.25 1183.62,-661.25 1177.62,-667.25 1171.62,-667.25"/>
<text xml:space="preserve" text-anchor="middle" x="1098" y="-652.5" font-family="Helvetica,sans-Serif" font-size="10.00" fill="#ece1d7">flush chunks → resolve deferred</text>
<text xml:space="preserve" text-anchor="middle" x="1098" y="-639.75" font-family="Helvetica,sans-Serif" font-size="10.00" fill="#ece1d7">bootstrap miss = hard error</text>
</g>
<!-- defer&#45;&gt;resolve -->
<g id="edge14" class="edge">
<title>defer&#45;&gt;resolve</title>
<path fill="none" stroke="#c1a78e" d="M1100.5,-762.24C1099.97,-738.73 1099.15,-701.89 1098.6,-676.94"/>
<polygon fill="#c1a78e" stroke="#c1a78e" points="1101.4,-677.14 1098.42,-669.2 1095.8,-677.26 1101.4,-677.14"/>
</g>
<!-- resolve&#45;&gt;rows -->
<g id="edge17" class="edge">
<title>resolve&#45;&gt;rows</title>
<path fill="none" stroke="#bf8c5f" d="M1052.11,-630.75C1000.67,-611.49 914.57,-580.28 839,-557.88 816.48,-551.2 792.51,-544.7 768.95,-538.64"/>
<polygon fill="#bf8c5f" stroke="#bf8c5f" points="769.86,-535.98 761.42,-536.72 768.48,-541.41 769.86,-535.98"/>
<text xml:space="preserve" text-anchor="middle" x="1028" y="-578.08" font-family="Helvetica,sans-Serif" font-size="9.00" fill="#ece1d7">resolved bootstrap rows</text>
</g>
<!-- resolve&#45;&gt;fetch -->
<g id="edge16" class="edge">
<title>resolve&#45;&gt;fetch</title>
<path fill="none" stroke="#cba85e" stroke-dasharray="5,2" d="M1121.16,-630.77C1153.79,-606.15 1213.67,-560.97 1252.64,-531.56"/>
<polygon fill="#cba85e" stroke="#cba85e" points="1254.23,-533.87 1258.93,-526.82 1250.86,-529.4 1254.23,-533.87"/>
<text xml:space="preserve" text-anchor="middle" x="1240.09" y="-578.08" font-family="Helvetica,sans-Serif" font-size="9.00" fill="#ece1d7">after flush</text>
</g>
<!-- trunc&#45;&gt;mirror -->
<g id="edge22" class="edge">
<title>trunc&#45;&gt;mirror</title>
<path fill="none" stroke="#bf8c5f" stroke-dasharray="5,2" d="M354.66,-557.73C374.49,-531.75 403,-486.66 403,-442.25 403,-442.25 403,-442.25 403,-223.62 403,-189.27 405.44,-172.89 433,-152.38 493.25,-107.52 976.19,-75.73 1198.6,-63.33"/>
<polygon fill="#bf8c5f" stroke="#bf8c5f" points="1198.67,-66.13 1206.51,-62.89 1198.36,-60.53 1198.67,-66.13"/>
<text xml:space="preserve" text-anchor="middle" x="413.5" y="-374.82" font-family="Helvetica,sans-Serif" font-size="9.00" fill="#ece1d7">wipe</text>
</g>
<!-- ledger -->
<g id="node17" class="node">
<title>ledger</title>
<polygon fill="#4d3850" stroke="#6e6963" points="300.62,-520.38 201.38,-520.38 201.38,-484.38 306.62,-484.38 306.62,-514.38 300.62,-520.38"/>
<polyline fill="none" stroke="#6e6963" points="300.62,-520.38 300.62,-514.38"/>
<polyline fill="none" stroke="#6e6963" points="306.62,-514.38 300.62,-514.38"/>
<text xml:space="preserve" text-anchor="middle" x="254" y="-505.62" font-family="Helvetica,sans-Serif" font-size="10.00" fill="#ece1d7">toast_retires.toml</text>
<text xml:space="preserve" text-anchor="middle" x="254" y="-492.88" font-family="Helvetica,sans-Serif" font-size="10.00" fill="#ece1d7">saved retirements</text>
</g>
<!-- drop&#45;&gt;ledger -->
<g id="edge18" class="edge">
<title>drop&#45;&gt;ledger</title>
<path fill="none" stroke="#6e6963" stroke-dasharray="5,2" d="M273.88,-630.76C263.62,-623.98 253.73,-615.14 248,-604.12 236,-581.08 239.92,-550.92 245.34,-529.63"/>
<polygon fill="#6e6963" stroke="#6e6963" points="248.02,-530.45 247.47,-521.99 242.62,-528.94 248.02,-530.45"/>
</g>
<!-- floor -->
<g id="node18" class="node">
<title>floor</title>
<path fill="#4d3a28" stroke="#6e6963" d="M311.12,-395.75C311.12,-395.75 226.88,-395.75 226.88,-395.75 220.88,-395.75 214.88,-389.75 214.88,-383.75 214.88,-383.75 214.88,-371.75 214.88,-371.75 214.88,-365.75 220.88,-359.75 226.88,-359.75 226.88,-359.75 311.12,-359.75 311.12,-359.75 317.12,-359.75 323.12,-365.75 323.12,-371.75 323.12,-371.75 323.12,-383.75 323.12,-383.75 323.12,-389.75 317.12,-395.75 311.12,-395.75"/>
<text xml:space="preserve" text-anchor="middle" x="269" y="-381" font-family="Helvetica,sans-Serif" font-size="10.00" fill="#ece1d7">saved restart point</text>
<text xml:space="preserve" text-anchor="middle" x="269" y="-368.25" font-family="Helvetica,sans-Serif" font-size="10.00" fill="#ece1d7">has passed drop</text>
</g>
<!-- ledger&#45;&gt;floor -->
<g id="edge19" class="edge">
<title>ledger&#45;&gt;floor</title>
<path fill="none" stroke="#c1a78e" stroke-dasharray="5,2" d="M256.12,-484.07C258.63,-463.53 262.85,-429.06 265.77,-405.18"/>
<polygon fill="#c1a78e" stroke="#c1a78e" points="268.52,-405.75 266.71,-397.47 262.96,-405.07 268.52,-405.75"/>
</g>
<!-- retire -->
<g id="node19" class="node">
<title>retire</title>
<path fill="#5d4628" stroke="#6e6963" d="M347.38,-242.62C347.38,-242.62 210.62,-242.62 210.62,-242.62 204.62,-242.62 198.62,-236.62 198.62,-230.62 198.62,-230.62 198.62,-218.62 198.62,-218.62 198.62,-212.62 204.62,-206.62 210.62,-206.62 210.62,-206.62 347.38,-206.62 347.38,-206.62 353.38,-206.62 359.38,-212.62 359.38,-218.62 359.38,-218.62 359.38,-230.62 359.38,-230.62 359.38,-236.62 353.38,-242.62 347.38,-242.62"/>
<text xml:space="preserve" text-anchor="middle" x="279" y="-227.88" font-family="Helvetica,sans-Serif" font-size="10.00" fill="#ece1d7">retire_mirror</text>
<text xml:space="preserve" text-anchor="middle" x="279" y="-215.12" font-family="Helvetica,sans-Serif" font-size="10.00" fill="#ece1d7">TRUNCATE table, never DROP</text>
</g>
<!-- floor&#45;&gt;retire -->
<g id="edge20" class="edge">
<title>floor&#45;&gt;retire</title>
<path fill="none" stroke="#c1a78e" d="M270.15,-359.41C271.89,-333.11 275.21,-282.92 277.25,-252.05"/>
<polygon fill="#c1a78e" stroke="#c1a78e" points="280.03,-252.44 277.77,-244.27 274.44,-252.07 280.03,-252.44"/>
</g>
<!-- retire&#45;&gt;mirror -->
<g id="edge23" class="edge">
<title>retire&#45;&gt;mirror</title>
<path fill="none" stroke="#bf8c5f" stroke-dasharray="5,2" d="M272.88,-206.15C266,-182.95 258.44,-142.21 280.5,-119.12 311.83,-86.34 938.5,-66.89 1198.47,-60.2"/>
<polygon fill="#bf8c5f" stroke="#bf8c5f" points="1198.5,-63 1206.43,-60 1198.36,-57.4 1198.5,-63"/>
<text xml:space="preserve" text-anchor="middle" x="330.75" y="-121.83" font-family="Helvetica,sans-Serif" font-size="9.00" fill="#ece1d7">wipe when replay&#45;safe</text>
</g>
<!-- barrier -->
<g id="node21" class="node">
<title>barrier</title>
<path fill="#5d4628" stroke="#6e6963" d="M279.38,-740.62C279.38,-740.62 112.62,-740.62 112.62,-740.62 106.62,-740.62 100.62,-734.62 100.62,-728.62 100.62,-728.62 100.62,-706.38 100.62,-706.38 100.62,-700.38 106.62,-694.38 112.62,-694.38 112.62,-694.38 279.38,-694.38 279.38,-694.38 285.38,-694.38 291.38,-700.38 291.38,-706.38 291.38,-706.38 291.38,-728.62 291.38,-728.62 291.38,-734.62 285.38,-740.62 279.38,-740.62"/>
<text xml:space="preserve" text-anchor="middle" x="196" y="-727.12" font-family="Helvetica,sans-Serif" font-size="10.00" fill="#ece1d7">rewrite_barrier O − B</text>
<text xml:space="preserve" text-anchor="middle" x="196" y="-714.38" font-family="Helvetica,sans-Serif" font-size="10.00" fill="#ece1d7">residual tombstones @ commit LSN</text>
<text xml:space="preserve" text-anchor="middle" x="196" y="-701.62" font-family="Helvetica,sans-Serif" font-size="10.00" fill="#ece1d7">after generation births</text>
</g>
<!-- marker&#45;&gt;barrier -->
<g id="edge21" class="edge">
<title>marker&#45;&gt;barrier</title>
<path fill="none" stroke="#c1a78e" d="M298.57,-867.69C277.64,-837.24 240.16,-782.73 216.77,-748.71"/>
<polygon fill="#c1a78e" stroke="#c1a78e" points="219.13,-747.2 212.29,-742.19 214.51,-750.37 219.13,-747.2"/>
</g>
<!-- barrier&#45;&gt;mirror -->
<g id="edge24" class="edge">
<title>barrier&#45;&gt;mirror</title>
<path fill="none" stroke="#bf8c5f" stroke-dasharray="5,2" d="M184.8,-694.29C172.66,-668.12 155,-623.01 155,-582 155,-582 155,-582 155,-223.62 155,-189.44 159.81,-176.53 184,-152.38 211.83,-124.59 227.64,-127.79 266,-119.12 440.79,-79.66 966.72,-64.45 1198.37,-59.56"/>
<polygon fill="#bf8c5f" stroke="#bf8c5f" points="1198.38,-62.36 1206.32,-59.39 1198.26,-56.76 1198.38,-62.36"/>
<text xml:space="preserve" text-anchor="middle" x="203.75" y="-438.32" font-family="Helvetica,sans-Serif" font-size="9.00" fill="#ece1d7">insert residual deaths</text>
</g>
<!-- legend -->
<g id="node23" class="node">
<title>legend</title>
<path fill="#6e6963" stroke="none" d="M792.88,-296.88C792.88,-296.88 459.12,-296.88 459.12,-296.88 453.12,-296.88 447.12,-290.88 447.12,-284.88 447.12,-284.88 447.12,-164.38 447.12,-164.38 447.12,-158.38 453.12,-152.38 459.12,-152.38 459.12,-152.38 792.88,-152.38 792.88,-152.38 798.88,-152.38 804.88,-158.38 804.88,-164.38 804.88,-164.38 804.88,-284.88 804.88,-284.88 804.88,-290.88 798.88,-296.88 792.88,-296.88"/>
<polygon fill="#34302c" stroke="none" points="455.12,-270.12 455.12,-292.88 796.88,-292.88 796.88,-270.12 455.12,-270.12"/>
<polygon fill="none" stroke="#6e6963" points="455.12,-270.12 455.12,-292.88 796.88,-292.88 796.88,-270.12 455.12,-270.12"/>
<text xml:space="preserve" text-anchor="start" x="597.5" y="-279.38" font-family="Helvetica,sans-Serif" font-weight="bold" font-size="10.00" fill="#ece1d7">invariants</text>
<polygon fill="none" stroke="#6e6963" points="455.12,-247.38 455.12,-270.12 517.62,-270.12 517.62,-247.38 455.12,-247.38"/>
<text xml:space="preserve" text-anchor="start" x="460.5" y="-255.38" font-family="Helvetica,sans-Serif" font-size="10.00" fill="#ece1d7">same&#45;xact</text>
<polygon fill="none" stroke="#6e6963" points="517.62,-247.38 517.62,-270.12 796.88,-270.12 796.88,-247.38 517.62,-247.38"/>
<text xml:space="preserve" text-anchor="start" x="583.38" y="-255.38" font-family="Helvetica,sans-Serif" font-size="10.00" fill="#ece1d7">ChunkMap wins, no store read</text>
<polygon fill="none" stroke="#6e6963" points="455.12,-224.62 455.12,-247.38 517.62,-247.38 517.62,-224.62 455.12,-224.62"/>
<text xml:space="preserve" text-anchor="start" x="460.12" y="-232.62" font-family="Helvetica,sans-Serif" font-size="10.00" fill="#ece1d7">store write</text>
<polygon fill="none" stroke="#6e6963" points="517.62,-224.62 517.62,-247.38 796.88,-247.38 796.88,-224.62 517.62,-224.62"/>
<text xml:space="preserve" text-anchor="start" x="527.12" y="-232.62" font-family="Helvetica,sans-Serif" font-size="10.00" fill="#ece1d7">births/tombstones durable before commit publication</text>
<polygon fill="none" stroke="#6e6963" points="455.12,-201.88 455.12,-224.62 517.62,-224.62 517.62,-201.88 455.12,-201.88"/>
<text xml:space="preserve" text-anchor="start" x="461.62" y="-209.88" font-family="Helvetica,sans-Serif" font-size="10.00" fill="#ece1d7">as&#45;of read</text>
<polygon fill="none" stroke="#6e6963" points="517.62,-201.88 517.62,-224.62 796.88,-224.62 796.88,-201.88 517.62,-201.88"/>
<text xml:space="preserve" text-anchor="start" x="540.62" y="-209.88" font-family="Helvetica,sans-Serif" font-size="10.00" fill="#ece1d7">future TID generations invisible at referring LSN</text>
<polygon fill="none" stroke="#6e6963" points="455.12,-179.12 455.12,-201.88 517.62,-201.88 517.62,-179.12 455.12,-179.12"/>
<text xml:space="preserve" text-anchor="start" x="472.5" y="-187.12" font-family="Helvetica,sans-Serif" font-size="10.00" fill="#ece1d7">DROP</text>
<polygon fill="none" stroke="#6e6963" points="517.62,-179.12 517.62,-201.88 796.88,-201.88 796.88,-179.12 517.62,-179.12"/>
<text xml:space="preserve" text-anchor="start" x="522.62" y="-187.12" font-family="Helvetica,sans-Serif" font-size="10.00" fill="#ece1d7">persist intent before ack, wipe after replay floor passes</text>
<polygon fill="none" stroke="#6e6963" points="455.12,-156.38 455.12,-179.12 517.62,-179.12 517.62,-156.38 455.12,-156.38"/>
<text xml:space="preserve" text-anchor="start" x="469.12" y="-164.38" font-family="Helvetica,sans-Serif" font-size="10.00" fill="#ece1d7">rewrite</text>
<polygon fill="none" stroke="#6e6963" points="517.62,-156.38 517.62,-179.12 796.88,-179.12 796.88,-156.38 517.62,-156.38"/>
<text xml:space="preserve" text-anchor="start" x="523" y="-164.38" font-family="Helvetica,sans-Serif" font-size="10.00" fill="#ece1d7">preserve old as&#45;of windows, close residuals with O − B</text>
</g>
<!-- main&#45;&gt;legend -->
</g>
</svg>
