<?xml version="1.0" encoding="UTF-8" standalone="no"?>
<!DOCTYPE svg PUBLIC "-//W3C//DTD SVG 1.1//EN"
 "http://www.w3.org/Graphics/SVG/1.1/DTD/svg11.dtd">
<!-- Generated by graphviz version 15.1.0 (20260618.0150)
 -->
<!-- Title: xact Pages: 1 -->
<svg width="1196pt" height="1604pt"
 viewBox="0.00 0.00 1196.00 1604.00" xmlns="http://www.w3.org/2000/svg" xmlns:xlink="http://www.w3.org/1999/xlink">
<g id="graph0" class="graph" transform="scale(1 1) rotate(0) translate(4 1600)">
<title>xact</title>
<polygon fill="#272623" stroke="none" points="-4,4 -4,-1600 1192,-1600 1192,4 -4,4"/>
<text xml:space="preserve" text-anchor="middle" x="594" y="-1578.7" font-family="Helvetica,sans-Serif" font-size="14.00" fill="#ece1d7">walshadow — XactBuffer + spill + commit drain</text>
<g id="clust4" class="cluster">
<title>cluster_drain</title>
<path fill="#34302c" stroke="#4c4641" d="M778,-829.25C778,-829.25 1168,-829.25 1168,-829.25 1174,-829.25 1180,-835.25 1180,-841.25 1180,-841.25 1180,-1055.75 1180,-1055.75 1180,-1061.75 1174,-1067.75 1168,-1067.75 1168,-1067.75 778,-1067.75 778,-1067.75 772,-1067.75 766,-1061.75 766,-1055.75 766,-1055.75 766,-841.25 766,-841.25 766,-835.25 772,-829.25 778,-829.25"/>
<text xml:space="preserve" text-anchor="middle" x="973" y="-1050.45" font-family="Helvetica,sans-Serif" font-size="14.00" fill="#ece1d7">commit(top_xid, ts, commit_lsn, subxids) — k&#45;way merge</text>
</g>
<!-- catevt -->
<g id="node1" class="node">
<title>catevt</title>
<path fill="#4d4d28" stroke="#6e6963" d="M363.38,-1564.38C363.38,-1564.38 238.62,-1564.38 238.62,-1564.38 232.62,-1564.38 226.62,-1558.38 226.62,-1552.38 226.62,-1552.38 226.62,-1530.12 226.62,-1530.12 226.62,-1524.12 232.62,-1518.12 238.62,-1518.12 238.62,-1518.12 363.38,-1518.12 363.38,-1518.12 369.38,-1518.12 375.38,-1524.12 375.38,-1530.12 375.38,-1530.12 375.38,-1552.38 375.38,-1552.38 375.38,-1558.38 369.38,-1564.38 363.38,-1564.38"/>
<text xml:space="preserve" text-anchor="middle" x="301" y="-1550.88" font-family="Helvetica,sans-Serif" font-size="10.00" fill="#ece1d7">ShadowCatalog</text>
<text xml:space="preserve" text-anchor="middle" x="301" y="-1538.12" font-family="Helvetica,sans-Serif" font-size="10.00" fill="#ece1d7">schema_event_tx</text>
<text xml:space="preserve" text-anchor="middle" x="301" y="-1525.38" font-family="Helvetica,sans-Serif" font-size="10.00" fill="#ece1d7">Added / Changed / Dropped</text>
</g>
<!-- buf -->
<g id="node4" class="node">
<title>buf</title>
<path fill="#4d4128" stroke="#6e6963" d="M318.38,-1449.25C318.38,-1449.25 83.62,-1449.25 83.62,-1449.25 77.62,-1449.25 71.62,-1443.25 71.62,-1437.25 71.62,-1437.25 71.62,-1290 71.62,-1290 71.62,-1284 77.62,-1278 83.62,-1278 83.62,-1278 318.38,-1278 318.38,-1278 324.38,-1278 330.38,-1284 330.38,-1290 330.38,-1290 330.38,-1437.25 330.38,-1437.25 330.38,-1443.25 324.38,-1449.25 318.38,-1449.25"/>
<text xml:space="preserve" text-anchor="start" x="83.62" y="-1432.75" font-family="Helvetica,sans-Serif" font-weight="bold" font-size="10.00" fill="#ece1d7">XactBuffer</text>
<text xml:space="preserve" text-anchor="start" x="83.62" y="-1412.75" font-family="Helvetica,sans-Serif" font-size="10.00" fill="#ece1d7">inflight: HashMap&lt;xid, XactState&gt;</text>
<text xml:space="preserve" text-anchor="start" x="83.62" y="-1394" font-family="Helvetica,sans-Serif" font-size="10.00" fill="#ece1d7">markers · pending_stash · pending_durable</text>
<text xml:space="preserve" text-anchor="start" x="83.62" y="-1375.25" font-family="Helvetica,sans-Serif" font-size="10.00" fill="#ece1d7">bytes_in_memory · drain_resident · SpillStore</text>
<text xml:space="preserve" text-anchor="start" x="83.62" y="-1358.7" font-family="Helvetica,sans-Serif" font-style="italic" font-size="9.00" fill="#ece1d7">XactState (per xid):</text>
<text xml:space="preserve" text-anchor="start" x="83.62" y="-1340" font-family="Helvetica,sans-Serif" font-size="9.00" fill="#ece1d7">first_lsn · in_mem: Vec&lt;SpillEntry&gt; · in_mem_bytes</text>
<text xml:space="preserve" text-anchor="start" x="83.62" y="-1322.75" font-family="Helvetica,sans-Serif" font-size="9.00" fill="#ece1d7">spill: Option&lt;SpillWriter&gt; · spill_bytes</text>
<text xml:space="preserve" text-anchor="start" x="83.62" y="-1305.5" font-family="Helvetica,sans-Serif" font-size="9.00" fill="#ece1d7">events: Vec&lt;(lsn, DrainEntry)&gt; · stash_rfns</text>
<text xml:space="preserve" text-anchor="start" x="83.62" y="-1288.25" font-family="Helvetica,sans-Serif" font-size="9.00" fill="#ece1d7">SpillEntry = Heap | Chunk | ToastDelete | Raw</text>
</g>
<!-- catevt&#45;&gt;buf -->
<g id="edge1" class="edge">
<title>catevt&#45;&gt;buf</title>
<path fill="none" stroke="#cba85e" stroke-dasharray="5,2" d="M288.13,-1517.65C279.45,-1502.4 267.34,-1481.13 254.91,-1459.3"/>
<polygon fill="#cba85e" stroke="#cba85e" points="258.11,-1457.86 250.12,-1450.9 252.03,-1461.32 258.11,-1457.86"/>
<text xml:space="preserve" text-anchor="middle" x="316.83" y="-1483.2" font-family="Helvetica,sans-Serif" font-size="9.00" fill="#ece1d7">on_schema_event</text>
<text xml:space="preserve" text-anchor="middle" x="316.83" y="-1471.95" font-family="Helvetica,sans-Serif" font-size="9.00" fill="#ece1d7">(xid, source_lsn, ev)</text>
</g>
<!-- decoder -->
<g id="node2" class="node">
<title>decoder</title>
<path fill="#4d4128" stroke="#6e6963" d="M190,-1570.75C190,-1570.75 12,-1570.75 12,-1570.75 6,-1570.75 0,-1564.75 0,-1558.75 0,-1558.75 0,-1523.75 0,-1523.75 0,-1517.75 6,-1511.75 12,-1511.75 12,-1511.75 190,-1511.75 190,-1511.75 196,-1511.75 202,-1517.75 202,-1523.75 202,-1523.75 202,-1558.75 202,-1558.75 202,-1564.75 196,-1570.75 190,-1570.75"/>
<text xml:space="preserve" text-anchor="middle" x="101" y="-1557.25" font-family="Helvetica,sans-Serif" font-size="10.00" fill="#ece1d7">BufferingDecoderSink</text>
<text xml:space="preserve" text-anchor="middle" x="101" y="-1544.5" font-family="Helvetica,sans-Serif" font-size="10.00" fill="#ece1d7">heap + TOAST birth/death reshape</text>
<text xml:space="preserve" text-anchor="middle" x="101" y="-1531.75" font-family="Helvetica,sans-Serif" font-size="10.00" fill="#ece1d7">SMGR marker + invisible&#45;record stash</text>
<text xml:space="preserve" text-anchor="middle" x="101" y="-1519" font-family="Helvetica,sans-Serif" font-size="10.00" fill="#ece1d7">stamps source_lsn, xid</text>
</g>
<!-- decoder&#45;&gt;buf -->
<g id="edge2" class="edge">
<title>decoder&#45;&gt;buf</title>
<path fill="none" stroke="#c1a78e" d="M117.29,-1511.64C125.54,-1497.16 136.08,-1478.65 146.87,-1459.69"/>
<polygon fill="#c1a78e" stroke="#c1a78e" points="149.87,-1461.49 151.78,-1451.06 143.79,-1458.02 149.87,-1461.49"/>
<text xml:space="preserve" text-anchor="middle" x="189.73" y="-1483.2" font-family="Helvetica,sans-Serif" font-size="9.00" fill="#ece1d7">absorb Heap / Chunk /</text>
<text xml:space="preserve" text-anchor="middle" x="189.73" y="-1471.95" font-family="Helvetica,sans-Serif" font-size="9.00" fill="#ece1d7">ToastDelete / Raw</text>
</g>
<!-- xaclog -->
<g id="node3" class="node">
<title>xaclog</title>
<path fill="#3d3d54" stroke="#6e6963" d="M985.25,-1570.75C985.25,-1570.75 832.75,-1570.75 832.75,-1570.75 826.75,-1570.75 820.75,-1564.75 820.75,-1558.75 820.75,-1558.75 820.75,-1523.75 820.75,-1523.75 820.75,-1517.75 826.75,-1511.75 832.75,-1511.75 832.75,-1511.75 985.25,-1511.75 985.25,-1511.75 991.25,-1511.75 997.25,-1517.75 997.25,-1523.75 997.25,-1523.75 997.25,-1558.75 997.25,-1558.75 997.25,-1564.75 991.25,-1570.75 985.25,-1570.75"/>
<text xml:space="preserve" text-anchor="middle" x="909" y="-1557.25" font-family="Helvetica,sans-Serif" font-size="10.00" fill="#ece1d7">XLOG_XACT_*</text>
<text xml:space="preserve" text-anchor="middle" x="909" y="-1544.5" font-family="Helvetica,sans-Serif" font-size="10.00" fill="#ece1d7">ASSIGNMENT 0x50 (hint)</text>
<text xml:space="preserve" text-anchor="middle" x="909" y="-1531.75" font-family="Helvetica,sans-Serif" font-size="10.00" fill="#ece1d7">COMMIT 0x00 / _PREPARED 0x30</text>
<text xml:space="preserve" text-anchor="middle" x="909" y="-1519" font-family="Helvetica,sans-Serif" font-size="10.00" fill="#ece1d7">ABORT &#160;0x20 / _PREPARED &#160;0x40</text>
</g>
<!-- subt -->
<g id="node5" class="node">
<title>subt</title>
<path fill="#4d4128" stroke="#6e6963" d="M993.88,-1386.75C993.88,-1386.75 824.12,-1386.75 824.12,-1386.75 818.12,-1386.75 812.12,-1380.75 812.12,-1374.75 812.12,-1374.75 812.12,-1352.5 812.12,-1352.5 812.12,-1346.5 818.12,-1340.5 824.12,-1340.5 824.12,-1340.5 993.88,-1340.5 993.88,-1340.5 999.88,-1340.5 1005.88,-1346.5 1005.88,-1352.5 1005.88,-1352.5 1005.88,-1374.75 1005.88,-1374.75 1005.88,-1380.75 999.88,-1386.75 993.88,-1386.75"/>
<text xml:space="preserve" text-anchor="middle" x="909" y="-1373.25" font-family="Helvetica,sans-Serif" font-size="10.00" fill="#ece1d7">SubxactTracker</text>
<text xml:space="preserve" text-anchor="middle" x="909" y="-1360.5" font-family="Helvetica,sans-Serif" font-size="10.00" fill="#ece1d7">parent: HashMap&lt;xid, top&gt;</text>
<text xml:space="preserve" text-anchor="middle" x="909" y="-1347.75" font-family="Helvetica,sans-Serif" font-size="10.00" fill="#ece1d7">children: HashMap&lt;top, Vec&lt;xid&gt;&gt;</text>
</g>
<!-- xaclog&#45;&gt;subt -->
<g id="edge3" class="edge">
<title>xaclog&#45;&gt;subt</title>
<path fill="none" stroke="#c1a78e" d="M909,-1511.64C909,-1480.65 909,-1431.24 909,-1398.38"/>
<polygon fill="#c1a78e" stroke="#c1a78e" points="912.5,-1398.59 909,-1388.59 905.5,-1398.59 912.5,-1398.59"/>
<text xml:space="preserve" text-anchor="middle" x="962.62" y="-1483.2" font-family="Helvetica,sans-Serif" font-size="9.00" fill="#ece1d7">ASSIGNMENT 0x50</text>
<text xml:space="preserve" text-anchor="middle" x="962.62" y="-1471.95" font-family="Helvetica,sans-Serif" font-size="9.00" fill="#ece1d7">add_subxact(top, subs)</text>
</g>
<!-- abort -->
<g id="node6" class="node">
<title>abort</title>
<path fill="#4d4128" stroke="#6e6963" d="M775.25,-1399.5C775.25,-1399.5 640.75,-1399.5 640.75,-1399.5 634.75,-1399.5 628.75,-1393.5 628.75,-1387.5 628.75,-1387.5 628.75,-1339.75 628.75,-1339.75 628.75,-1333.75 634.75,-1327.75 640.75,-1327.75 640.75,-1327.75 775.25,-1327.75 775.25,-1327.75 781.25,-1327.75 787.25,-1333.75 787.25,-1339.75 787.25,-1339.75 787.25,-1387.5 787.25,-1387.5 787.25,-1393.5 781.25,-1399.5 775.25,-1399.5"/>
<text xml:space="preserve" text-anchor="middle" x="708" y="-1386" font-family="Helvetica,sans-Serif" font-size="10.00" fill="#ece1d7">abort(xid, abort_lsn, subxids)</text>
<text xml:space="preserve" text-anchor="middle" x="708" y="-1373.25" font-family="Helvetica,sans-Serif" font-size="10.00" fill="#ece1d7">drop XactState (top + subs)</text>
<text xml:space="preserve" text-anchor="middle" x="708" y="-1360.5" font-family="Helvetica,sans-Serif" font-size="10.00" fill="#ece1d7">SpillWriter::unlink per xid</text>
<text xml:space="preserve" text-anchor="middle" x="708" y="-1347.75" font-family="Helvetica,sans-Serif" font-size="10.00" fill="#ece1d7">drain_lsn / emitter_ack_lsn ↑</text>
<text xml:space="preserve" text-anchor="middle" x="708" y="-1335" font-family="Helvetica,sans-Serif" font-size="10.00" fill="#ece1d7">forget_tree(top)</text>
</g>
<!-- xaclog&#45;&gt;abort -->
<g id="edge4" class="edge">
<title>xaclog&#45;&gt;abort</title>
<path fill="none" stroke="#c1a78e" d="M843.29,-1511.28C832.96,-1505.48 822.74,-1498.93 813.75,-1491.75 784.25,-1468.19 757.16,-1435.29 737.78,-1408.87"/>
<polygon fill="#c1a78e" stroke="#c1a78e" points="740.83,-1407.11 732.14,-1401.04 735.15,-1411.2 740.83,-1407.11"/>
<text xml:space="preserve" text-anchor="middle" x="858.38" y="-1477.58" font-family="Helvetica,sans-Serif" font-size="9.00" fill="#ece1d7">ABORT / _PREPARED</text>
</g>
<!-- merge -->
<g id="node10" class="node">
<title>merge</title>
<path fill="#4d4128" stroke="#6e6963" d="M987.25,-1034.5C987.25,-1034.5 798.75,-1034.5 798.75,-1034.5 792.75,-1034.5 786.75,-1028.5 786.75,-1022.5 786.75,-1022.5 786.75,-949.25 786.75,-949.25 786.75,-943.25 792.75,-937.25 798.75,-937.25 798.75,-937.25 987.25,-937.25 987.25,-937.25 993.25,-937.25 999.25,-943.25 999.25,-949.25 999.25,-949.25 999.25,-1022.5 999.25,-1022.5 999.25,-1028.5 993.25,-1034.5 987.25,-1034.5"/>
<text xml:space="preserve" text-anchor="middle" x="893" y="-1021" font-family="Helvetica,sans-Serif" font-size="10.00" fill="#ece1d7">pull (top + subxids) from inflight</text>
<text xml:space="preserve" text-anchor="middle" x="893" y="-1008.25" font-family="Helvetica,sans-Serif" font-size="10.00" fill="#ece1d7">per xid: SpillReader + in_mem + events</text>
<text xml:space="preserve" text-anchor="middle" x="893" y="-995.5" font-family="Helvetica,sans-Serif" font-size="10.00" fill="#ece1d7">→ source_lsn k&#45;way merge</text>
<text xml:space="preserve" text-anchor="middle" x="893" y="-982.75" font-family="Helvetica,sans-Serif" font-size="10.00" fill="#ece1d7">Chunk → ChunkMap + ToastRow birth</text>
<text xml:space="preserve" text-anchor="middle" x="893" y="-970" font-family="Helvetica,sans-Serif" font-size="10.00" fill="#ece1d7">ToastDelete → tombstone row</text>
<text xml:space="preserve" text-anchor="middle" x="893" y="-957.25" font-family="Helvetica,sans-Serif" font-size="10.00" fill="#ece1d7">Raw → commit&#45;resolved toast op</text>
<text xml:space="preserve" text-anchor="middle" x="893" y="-944.5" font-family="Helvetica,sans-Serif" font-size="10.00" fill="#ece1d7">TIE: control event BEFORE heap</text>
</g>
<!-- xaclog&#45;&gt;merge -->
<g id="edge10" class="edge">
<title>xaclog&#45;&gt;merge</title>
<path fill="none" stroke="#c1a78e" d="M997.73,-1514.95C1007.28,-1508.81 1015.77,-1501.2 1022,-1491.75 1031.81,-1476.87 1172.35,-1491.97 1020,-1118.25 1008.32,-1089.6 987.1,-1063.71 965.31,-1042.63"/>
<polygon fill="#c1a78e" stroke="#c1a78e" points="967.75,-1040.12 958.06,-1035.83 962.96,-1045.22 967.75,-1040.12"/>
<text xml:space="preserve" text-anchor="middle" x="1115.56" y="-1249.45" font-family="Helvetica,sans-Serif" font-size="9.00" fill="#ece1d7">COMMIT / _PREPARED</text>
<text xml:space="preserve" text-anchor="middle" x="1115.56" y="-1238.2" font-family="Helvetica,sans-Serif" font-size="9.00" fill="#ece1d7">parse_xact_payload</text>
</g>
<!-- idle -->
<g id="node7" class="node">
<title>idle</title>
<path fill="#4d4128" stroke="#6e6963" d="M585.62,-1386.75C585.62,-1386.75 450.38,-1386.75 450.38,-1386.75 444.38,-1386.75 438.38,-1380.75 438.38,-1374.75 438.38,-1374.75 438.38,-1352.5 438.38,-1352.5 438.38,-1346.5 444.38,-1340.5 450.38,-1340.5 450.38,-1340.5 585.62,-1340.5 585.62,-1340.5 591.62,-1340.5 597.62,-1346.5 597.62,-1352.5 597.62,-1352.5 597.62,-1374.75 597.62,-1374.75 597.62,-1380.75 591.62,-1386.75 585.62,-1386.75"/>
<text xml:space="preserve" text-anchor="middle" x="518" y="-1373.25" font-family="Helvetica,sans-Serif" font-size="10.00" fill="#ece1d7">advance_idle(lsn)</text>
<text xml:space="preserve" text-anchor="middle" x="518" y="-1360.5" font-family="Helvetica,sans-Serif" font-size="10.00" fill="#ece1d7">fires when xacts_active == 0</text>
<text xml:space="preserve" text-anchor="middle" x="518" y="-1347.75" font-family="Helvetica,sans-Serif" font-size="10.00" fill="#ece1d7">lifts drain_lsn / ack_lsn</text>
</g>
<!-- buf&#45;&gt;idle -->
<g id="edge5" class="edge">
<title>buf&#45;&gt;idle</title>
<path fill="none" stroke="#c1a78e" stroke-dasharray="5,2" d="M330.85,-1363.62C363.14,-1363.62 397.08,-1363.62 427.05,-1363.62"/>
<polygon fill="#c1a78e" stroke="#c1a78e" points="426.82,-1367.13 436.82,-1363.63 426.82,-1360.13 426.82,-1367.13"/>
<text xml:space="preserve" text-anchor="middle" x="384.38" y="-1369.33" font-family="Helvetica,sans-Serif" font-size="9.00" fill="#ece1d7">xacts_active == 0</text>
</g>
<!-- evict -->
<g id="node8" class="node">
<title>evict</title>
<path fill="#4d3a28" stroke="#6e6963" d="M311,-1215.5C311,-1215.5 91,-1215.5 91,-1215.5 85,-1215.5 79,-1209.5 79,-1203.5 79,-1203.5 79,-1130.25 79,-1130.25 79,-1124.25 85,-1118.25 91,-1118.25 91,-1118.25 311,-1118.25 311,-1118.25 317,-1118.25 323,-1124.25 323,-1130.25 323,-1130.25 323,-1203.5 323,-1203.5 323,-1209.5 317,-1215.5 311,-1215.5"/>
<text xml:space="preserve" text-anchor="middle" x="201" y="-1202" font-family="Helvetica,sans-Serif" font-size="10.00" fill="#ece1d7">maybe_evict</text>
<text xml:space="preserve" text-anchor="middle" x="201" y="-1189.25" font-family="Helvetica,sans-Serif" font-size="10.00" fill="#ece1d7">bytes_in_memory &gt; xact_buffer_max (64 MiB)</text>
<text xml:space="preserve" text-anchor="middle" x="201" y="-1176.5" font-family="Helvetica,sans-Serif" font-size="10.00" fill="#ece1d7">pick largest in&#45;mem xact</text>
<text xml:space="preserve" text-anchor="middle" x="201" y="-1163.75" font-family="Helvetica,sans-Serif" font-size="10.00" fill="#ece1d7">(mirrors PG ReorderBufferLargestTXN)</text>
<text xml:space="preserve" text-anchor="middle" x="201" y="-1151" font-family="Helvetica,sans-Serif" font-size="10.00" fill="#ece1d7">→ evict_xact: lazy&#45;open SpillWriter,</text>
<text xml:space="preserve" text-anchor="middle" x="201" y="-1138.25" font-family="Helvetica,sans-Serif" font-size="10.00" fill="#ece1d7">drain in_mem → write(entry), zero bytes</text>
<text xml:space="preserve" text-anchor="middle" x="201" y="-1125.5" font-family="Helvetica,sans-Serif" font-size="10.00" fill="#ece1d7">DrainEntry events stay in memory</text>
</g>
<!-- buf&#45;&gt;evict -->
<g id="edge6" class="edge">
<title>buf&#45;&gt;evict</title>
<path fill="none" stroke="#c1a78e" d="M201,-1277.77C201,-1260.7 201,-1243.1 201,-1227.13"/>
<polygon fill="#c1a78e" stroke="#c1a78e" points="204.5,-1227.33 201,-1217.33 197.5,-1227.33 204.5,-1227.33"/>
<text xml:space="preserve" text-anchor="middle" x="242.25" y="-1249.45" font-family="Helvetica,sans-Serif" font-size="9.00" fill="#ece1d7">after every absorb</text>
<text xml:space="preserve" text-anchor="middle" x="242.25" y="-1238.2" font-family="Helvetica,sans-Serif" font-size="9.00" fill="#ece1d7">while over budget</text>
</g>
<!-- subt&#45;&gt;merge -->
<g id="edge11" class="edge">
<title>subt&#45;&gt;merge</title>
<path fill="none" stroke="#c1a78e" stroke-dasharray="5,2" d="M908.05,-1340.25C905.62,-1283.22 899.14,-1131.01 895.52,-1046.13"/>
<polygon fill="#c1a78e" stroke="#c1a78e" points="899.03,-1046.23 895.11,-1036.38 892.04,-1046.52 899.03,-1046.23"/>
<text xml:space="preserve" text-anchor="middle" x="958.09" y="-1169.58" font-family="Helvetica,sans-Serif" font-size="9.00" fill="#ece1d7">(top + subxids)</text>
<text xml:space="preserve" text-anchor="middle" x="958.09" y="-1158.33" font-family="Helvetica,sans-Serif" font-size="9.00" fill="#ece1d7">authoritative on COMMIT</text>
</g>
<!-- spill -->
<g id="node9" class="node">
<title>spill</title>
<polygon fill="#4d3850" stroke="#6e6963" points="843.88,-1202.75 632.12,-1202.75 632.12,-1131 849.88,-1131 849.88,-1196.75 843.88,-1202.75"/>
<polyline fill="none" stroke="#6e6963" points="843.88,-1202.75 843.88,-1196.75"/>
<polyline fill="none" stroke="#6e6963" points="849.88,-1196.75 843.88,-1196.75"/>
<text xml:space="preserve" text-anchor="middle" x="741" y="-1189.25" font-family="Helvetica,sans-Serif" font-size="10.00" fill="#ece1d7">{spill}/xid&#45;{xid:010}&#45;{first_lsn:016X}.bin</text>
<text xml:space="preserve" text-anchor="middle" x="741" y="-1176.5" font-family="Helvetica,sans-Serif" font-size="10.00" fill="#ece1d7">[&quot;WS&quot; magic | u16 ver=4]</text>
<text xml:space="preserve" text-anchor="middle" x="741" y="-1163.75" font-family="Helvetica,sans-Serif" font-size="10.00" fill="#ece1d7">[tag u8 | u32 LE inner_len | body]*</text>
<text xml:space="preserve" text-anchor="middle" x="741" y="-1151" font-family="Helvetica,sans-Serif" font-size="10.00" fill="#ece1d7">0 Heap · 1 Chunk · 2 ToastDelete · 3 Raw</text>
<text xml:space="preserve" text-anchor="middle" x="741" y="-1138.25" font-family="Helvetica,sans-Serif" font-size="10.00" fill="#ece1d7">append&#45;only, fsync on finish</text>
</g>
<!-- abort&#45;&gt;spill -->
<g id="edge8" class="edge">
<title>abort&#45;&gt;spill</title>
<path fill="none" stroke="#6e6963" stroke-dasharray="5,2" d="M713.98,-1327.36C719.33,-1295.75 727.23,-1249.14 733.1,-1214.47"/>
<polygon fill="#6e6963" stroke="#6e6963" points="736.54,-1215.15 734.76,-1204.7 729.64,-1213.98 736.54,-1215.15"/>
<text xml:space="preserve" text-anchor="middle" x="743.26" y="-1243.83" font-family="Helvetica,sans-Serif" font-size="9.00" fill="#ece1d7">unlink</text>
</g>
<!-- cursor -->
<g id="node15" class="node">
<title>cursor</title>
<polygon fill="#4d3850" stroke="#6e6963" points="858,-504.75 602,-504.75 602,-458.5 864,-458.5 864,-498.75 858,-504.75"/>
<polyline fill="none" stroke="#6e6963" points="858,-504.75 858,-498.75"/>
<polyline fill="none" stroke="#6e6963" points="864,-498.75 858,-498.75"/>
<text xml:space="preserve" text-anchor="middle" x="733" y="-491.25" font-family="Helvetica,sans-Serif" font-size="10.00" fill="#ece1d7">cursor.bin</text>
<text xml:space="preserve" text-anchor="middle" x="733" y="-478.5" font-family="Helvetica,sans-Serif" font-size="10.00" fill="#ece1d7">drain_lsn &#160;&#160;&#160;&#160;&#160;= max commit_lsn &#160;(advances FIRST)</text>
<text xml:space="preserve" text-anchor="middle" x="733" y="-465.75" font-family="Helvetica,sans-Serif" font-size="10.00" fill="#ece1d7">emitter_ack_lsn = max ack_lsn &#160;&#160;(lags drain_lsn)</text>
</g>
<!-- abort&#45;&gt;cursor -->
<g id="edge18" class="edge">
<title>abort&#45;&gt;cursor</title>
<path fill="none" stroke="#b380b0" stroke-dasharray="1,5" d="M671.93,-1327.45C638.53,-1290.96 594,-1230.56 594,-1167.88 594,-1167.88 594,-1167.88 594,-597.25 594,-557.54 628.19,-529.02 662.66,-510.36"/>
<polygon fill="#b380b0" stroke="#b380b0" points="664.2,-513.5 671.5,-505.82 661,-507.28 664.2,-513.5"/>
<text xml:space="preserve" text-anchor="middle" x="619.88" y="-863.83" font-family="Helvetica,sans-Serif" font-size="9.00" fill="#ece1d7">abort_lsn ↑</text>
</g>
<!-- idle&#45;&gt;cursor -->
<g id="edge19" class="edge">
<title>idle&#45;&gt;cursor</title>
<path fill="none" stroke="#b380b0" stroke-dasharray="1,5" d="M518,-1340.13C518,-1303.88 518,-1230.26 518,-1167.88 518,-1167.88 518,-1167.88 518,-597.25 518,-553.09 553.75,-525.89 596.1,-509.15"/>
<polygon fill="#b380b0" stroke="#b380b0" points="597.11,-512.51 605.27,-505.75 594.68,-505.95 597.11,-512.51"/>
<text xml:space="preserve" text-anchor="middle" x="531.12" y="-863.83" font-family="Helvetica,sans-Serif" font-size="9.00" fill="#ece1d7">idle ↑</text>
</g>
<!-- evict&#45;&gt;spill -->
<g id="edge7" class="edge">
<title>evict&#45;&gt;spill</title>
<path fill="none" stroke="#6e6963" stroke-dasharray="5,2" d="M323.2,-1166.88C412.02,-1166.88 531.69,-1166.88 620.19,-1166.88"/>
<polygon fill="#6e6963" stroke="#6e6963" points="620.12,-1170.38 630.12,-1166.88 620.12,-1163.38 620.12,-1170.38"/>
<text xml:space="preserve" text-anchor="middle" x="477.56" y="-1172.58" font-family="Helvetica,sans-Serif" font-size="9.00" fill="#ece1d7">SpillWriter::write</text>
</g>
<!-- spill&#45;&gt;merge -->
<g id="edge12" class="edge">
<title>spill&#45;&gt;merge</title>
<path fill="none" stroke="#6e6963" stroke-dasharray="5,2" d="M763.8,-1130.62C775.35,-1113.55 789.98,-1093.05 804.5,-1075.75 813.76,-1064.72 824.15,-1053.46 834.45,-1042.82"/>
<polygon fill="#6e6963" stroke="#6e6963" points="836.74,-1045.49 841.24,-1035.9 831.74,-1040.59 836.74,-1045.49"/>
<text xml:space="preserve" text-anchor="middle" x="842.75" y="-1089.7" font-family="Helvetica,sans-Serif" font-size="9.00" fill="#ece1d7">SpillReader::next</text>
<text xml:space="preserve" text-anchor="middle" x="842.75" y="-1078.45" font-family="Helvetica,sans-Serif" font-size="9.00" fill="#ece1d7">then unlink</text>
</g>
<!-- dispatch -->
<g id="node11" class="node">
<title>dispatch</title>
<path fill="#4d4128" stroke="#6e6963" d="M971,-896.25C971,-896.25 787,-896.25 787,-896.25 781,-896.25 775,-890.25 775,-884.25 775,-884.25 775,-849.25 775,-849.25 775,-843.25 781,-837.25 787,-837.25 787,-837.25 971,-837.25 971,-837.25 977,-837.25 983,-843.25 983,-849.25 983,-849.25 983,-884.25 983,-884.25 983,-890.25 977,-896.25 971,-896.25"/>
<text xml:space="preserve" text-anchor="middle" x="879" y="-882.75" font-family="Helvetica,sans-Serif" font-size="10.00" fill="#ece1d7">CommittedDrain → DrainedBatch slices</text>
<text xml:space="preserve" text-anchor="middle" x="879" y="-870" font-family="Helvetica,sans-Serif" font-size="10.00" fill="#ece1d7">{heaps, chunks, ordered_events,</text>
<text xml:space="preserve" text-anchor="middle" x="879" y="-857.25" font-family="Helvetica,sans-Serif" font-size="10.00" fill="#ece1d7"> new_rows, truncate_rows, is_final}</text>
<text xml:space="preserve" text-anchor="middle" x="879" y="-844.5" font-family="Helvetica,sans-Serif" font-size="10.00" fill="#ece1d7">row/event cursors preserve WAL order</text>
</g>
<!-- merge&#45;&gt;dispatch -->
<g id="edge9" class="edge">
<title>merge&#45;&gt;dispatch</title>
<path fill="none" stroke="#c1a78e" d="M887.27,-936.9C886.12,-927.3 884.92,-917.32 883.81,-908.01"/>
<polygon fill="#c1a78e" stroke="#c1a78e" points="887.3,-907.7 882.64,-898.18 880.35,-908.53 887.3,-907.7"/>
</g>
<!-- detoast -->
<g id="node12" class="node">
<title>detoast</title>
<path fill="#4d4128" stroke="#6e6963" d="M1100.38,-774.75C1100.38,-774.75 921.62,-774.75 921.62,-774.75 915.62,-774.75 909.62,-768.75 909.62,-762.75 909.62,-762.75 909.62,-715 909.62,-715 909.62,-709 915.62,-703 921.62,-703 921.62,-703 1100.38,-703 1100.38,-703 1106.38,-703 1112.38,-709 1112.38,-715 1112.38,-715 1112.38,-762.75 1112.38,-762.75 1112.38,-768.75 1106.38,-774.75 1100.38,-774.75"/>
<text xml:space="preserve" text-anchor="middle" x="1011" y="-761.25" font-family="Helvetica,sans-Serif" font-size="10.00" fill="#ece1d7">detoast_heap</text>
<text xml:space="preserve" text-anchor="middle" x="1011" y="-748.5" font-family="Helvetica,sans-Serif" font-size="10.00" fill="#ece1d7">in&#45;xact ChunkMap fast path</text>
<text xml:space="preserve" text-anchor="middle" x="1011" y="-735.75" font-family="Helvetica,sans-Serif" font-size="10.00" fill="#ece1d7">store fetch(relid, value_id, source_lsn)</text>
<text xml:space="preserve" text-anchor="middle" x="1011" y="-723" font-family="Helvetica,sans-Serif" font-size="10.00" fill="#ece1d7">pglz / lz4 inline</text>
<text xml:space="preserve" text-anchor="middle" x="1011" y="-710.25" font-family="Helvetica,sans-Serif" font-size="10.00" fill="#ece1d7">pipeline: decode pool; serial: inline</text>
</g>
<!-- dispatch&#45;&gt;detoast -->
<g id="edge13" class="edge">
<title>dispatch&#45;&gt;detoast</title>
<path fill="none" stroke="#bf8c5f" stroke-width="2" d="M909.28,-836.87C925.75,-821.17 946.45,-801.43 964.88,-783.86"/>
<polygon fill="#bf8c5f" stroke="#bf8c5f" stroke-width="2" points="967.26,-786.42 972.08,-776.99 962.43,-781.35 967.26,-786.42"/>
<text xml:space="preserve" text-anchor="middle" x="979.9" y="-808.7" font-family="Helvetica,sans-Serif" font-size="9.00" fill="#ece1d7">DecodeJob /</text>
<text xml:space="preserve" text-anchor="middle" x="979.9" y="-797.45" font-family="Helvetica,sans-Serif" font-size="9.00" fill="#ece1d7">serial heap</text>
</g>
<!-- store -->
<g id="node14" class="node">
<title>store</title>
<path fill="#5d4628" stroke="#6e6963" d="M834,-764.89C834,-768.08 788.73,-770.67 733,-770.67 677.27,-770.67 632,-768.08 632,-764.89 632,-764.89 632,-712.86 632,-712.86 632,-709.67 677.27,-707.08 733,-707.08 788.73,-707.08 834,-709.67 834,-712.86 834,-712.86 834,-764.89 834,-764.89"/>
<path fill="none" stroke="#6e6963" d="M834,-764.89C834,-761.7 788.73,-759.11 733,-759.11 677.27,-759.11 632,-761.7 632,-764.89"/>
<text xml:space="preserve" text-anchor="middle" x="733" y="-748.5" font-family="Helvetica,sans-Serif" font-size="10.00" fill="#ece1d7">ToastResolver::put(new_rows)</text>
<text xml:space="preserve" text-anchor="middle" x="733" y="-735.75" font-family="Helvetica,sans-Serif" font-size="10.00" fill="#ece1d7">before publishing marker</text>
<text xml:space="preserve" text-anchor="middle" x="733" y="-723" font-family="Helvetica,sans-Serif" font-size="10.00" fill="#ece1d7">barrier cursors interleave wipes / O−B</text>
</g>
<!-- dispatch&#45;&gt;store -->
<g id="edge15" class="edge">
<title>dispatch&#45;&gt;store</title>
<path fill="none" stroke="#bf8c5f" stroke-dasharray="5,2" d="M785,-836.75C775.8,-831.3 767.22,-824.85 760,-817.25 750.75,-807.52 744.66,-794.45 740.64,-781.82"/>
<polygon fill="#bf8c5f" stroke="#bf8c5f" points="744.07,-781.1 738.03,-772.4 737.33,-782.97 744.07,-781.1"/>
<text xml:space="preserve" text-anchor="middle" x="806.5" y="-803.08" font-family="Helvetica,sans-Serif" font-size="9.00" fill="#ece1d7">births + tombstones</text>
</g>
<!-- dispatch&#45;&gt;cursor -->
<g id="edge16" class="edge">
<title>dispatch&#45;&gt;cursor</title>
<path fill="none" stroke="#b380b0" stroke-dasharray="1,5" d="M875.83,-836.88C871.64,-803.83 862.85,-748.4 847,-703 822.41,-632.55 778.91,-556.54 753.34,-514.75"/>
<polygon fill="#b380b0" stroke="#b380b0" points="756.43,-513.09 748.2,-506.42 750.47,-516.77 756.43,-513.09"/>
<text xml:space="preserve" text-anchor="middle" x="864.4" y="-674.45" font-family="Helvetica,sans-Serif" font-size="9.00" fill="#ece1d7">drain_lsn ↑</text>
<text xml:space="preserve" text-anchor="middle" x="864.4" y="-663.2" font-family="Helvetica,sans-Serif" font-size="9.00" fill="#ece1d7">(pre&#45;ack)</text>
</g>
<!-- observer -->
<g id="node13" class="node">
<title>observer</title>
<path fill="#5d4628" stroke="#6e6963" d="M1102.12,-640.5C1102.12,-640.5 921.88,-640.5 921.88,-640.5 915.88,-640.5 909.88,-634.5 909.88,-628.5 909.88,-628.5 909.88,-568 909.88,-568 909.88,-562 915.88,-556 921.88,-556 921.88,-556 1102.12,-556 1102.12,-556 1108.12,-556 1114.12,-562 1114.12,-568 1114.12,-568 1114.12,-628.5 1114.12,-628.5 1114.12,-634.5 1108.12,-640.5 1102.12,-640.5"/>
<text xml:space="preserve" text-anchor="middle" x="1012" y="-627" font-family="Helvetica,sans-Serif" font-size="10.00" fill="#ece1d7">consumer</text>
<text xml:space="preserve" text-anchor="middle" x="1012" y="-614.25" font-family="Helvetica,sans-Serif" font-size="10.00" fill="#ece1d7">pipeline (&#45;&#45;ch&#45;config): ReorderSink seq</text>
<text xml:space="preserve" text-anchor="middle" x="1012" y="-601.5" font-family="Helvetica,sans-Serif" font-size="10.00" fill="#ece1d7">→ decode ×M → batcher → inserter ×N</text>
<text xml:space="preserve" text-anchor="middle" x="1012" y="-588.75" font-family="Helvetica,sans-Serif" font-size="10.00" fill="#ece1d7">→ ack collector watermark</text>
<text xml:space="preserve" text-anchor="middle" x="1012" y="-576" font-family="Helvetica,sans-Serif" font-size="10.00" fill="#ece1d7">serial (metrics&#45;only): TupleObserver</text>
<text xml:space="preserve" text-anchor="middle" x="1012" y="-563.25" font-family="Helvetica,sans-Serif" font-size="10.00" fill="#ece1d7">on_tuple / on_xact_end</text>
</g>
<!-- detoast&#45;&gt;observer -->
<g id="edge14" class="edge">
<title>detoast&#45;&gt;observer</title>
<path fill="none" stroke="#bf8c5f" stroke-width="2" d="M1011.25,-702.54C1011.36,-687.72 1011.49,-670.16 1011.61,-653.76"/>
<polygon fill="#bf8c5f" stroke="#bf8c5f" stroke-width="2" points="1015.11,-653.98 1011.68,-643.96 1008.11,-653.93 1015.11,-653.98"/>
<text xml:space="preserve" text-anchor="middle" x="1048.28" y="-674.45" font-family="Helvetica,sans-Serif" font-size="9.00" fill="#ece1d7">decoded row /</text>
<text xml:space="preserve" text-anchor="middle" x="1048.28" y="-663.2" font-family="Helvetica,sans-Serif" font-size="9.00" fill="#ece1d7">on_tuple stream</text>
</g>
<!-- observer&#45;&gt;cursor -->
<g id="edge17" class="edge">
<title>observer&#45;&gt;cursor</title>
<path fill="none" stroke="#b380b0" stroke-dasharray="1,5" d="M950.02,-555.6C931.58,-544.46 910.96,-533.19 891,-524.75 876.55,-518.64 860.98,-513.2 845.45,-508.44"/>
<polygon fill="#b380b0" stroke="#b380b0" points="846.75,-505.17 836.16,-505.68 844.75,-511.88 846.75,-505.17"/>
<text xml:space="preserve" text-anchor="middle" x="952.41" y="-527.45" font-family="Helvetica,sans-Serif" font-size="9.00" fill="#ece1d7">emitter_ack_lsn ↑</text>
</g>
<!-- legend -->
<g id="node16" class="node">
<title>legend</title>
<path fill="#6e6963" stroke="none" d="M937.62,-417.5C937.62,-417.5 528.38,-417.5 528.38,-417.5 522.38,-417.5 516.38,-411.5 516.38,-405.5 516.38,-405.5 516.38,-12 516.38,-12 516.38,-6 522.38,0 528.38,0 528.38,0 937.62,0 937.62,0 943.62,0 949.62,-6 949.62,-12 949.62,-12 949.62,-405.5 949.62,-405.5 949.62,-411.5 943.62,-417.5 937.62,-417.5"/>
<polygon fill="#34302c" stroke="none" points="524.38,-390.75 524.38,-413.5 941.62,-413.5 941.62,-390.75 524.38,-390.75"/>
<polygon fill="none" stroke="#6e6963" points="524.38,-390.75 524.38,-413.5 941.62,-413.5 941.62,-390.75 524.38,-390.75"/>
<text xml:space="preserve" text-anchor="start" x="689.88" y="-400" font-family="Helvetica,sans-Serif" font-weight="bold" font-size="10.00" fill="#ece1d7">node fill — role</text>
<polygon fill="#3d3d54" stroke="none" points="524.38,-368 524.38,-390.75 626.12,-390.75 626.12,-368 524.38,-368"/>
<polygon fill="none" stroke="#6e6963" points="524.38,-368 524.38,-390.75 626.12,-390.75 626.12,-368 524.38,-368"/>
<polygon fill="none" stroke="#6e6963" points="626.12,-368 626.12,-390.75 941.62,-390.75 941.62,-368 626.12,-368"/>
<text xml:space="preserve" text-anchor="start" x="706.25" y="-376" font-family="Helvetica,sans-Serif" font-size="10.00" fill="#ece1d7">source PG / XLOG_XACT records</text>
<polygon fill="#4d3a28" stroke="none" points="524.38,-345.25 524.38,-368 626.12,-368 626.12,-345.25 524.38,-345.25"/>
<polygon fill="none" stroke="#6e6963" points="524.38,-345.25 524.38,-368 626.12,-368 626.12,-345.25 524.38,-345.25"/>
<polygon fill="none" stroke="#6e6963" points="626.12,-345.25 626.12,-368 941.62,-368 941.62,-345.25 626.12,-345.25"/>
<text xml:space="preserve" text-anchor="start" x="699.5" y="-353.25" font-family="Helvetica,sans-Serif" font-size="10.00" fill="#ece1d7">eviction policy (sync, after absorb)</text>
<polygon fill="#4d4128" stroke="none" points="524.38,-322.5 524.38,-345.25 626.12,-345.25 626.12,-322.5 524.38,-322.5"/>
<polygon fill="none" stroke="#6e6963" points="524.38,-322.5 524.38,-345.25 626.12,-345.25 626.12,-322.5 524.38,-322.5"/>
<polygon fill="none" stroke="#6e6963" points="626.12,-322.5 626.12,-345.25 941.62,-345.25 941.62,-322.5 626.12,-322.5"/>
<text xml:space="preserve" text-anchor="start" x="717.5" y="-330.5" font-family="Helvetica,sans-Serif" font-size="10.00" fill="#ece1d7">XactBuffer / decoder / drain</text>
<polygon fill="#4d4d28" stroke="none" points="524.38,-299.75 524.38,-322.5 626.12,-322.5 626.12,-299.75 524.38,-299.75"/>
<polygon fill="none" stroke="#6e6963" points="524.38,-299.75 524.38,-322.5 626.12,-322.5 626.12,-299.75 524.38,-299.75"/>
<polygon fill="none" stroke="#6e6963" points="626.12,-299.75 626.12,-322.5 941.62,-322.5 941.62,-299.75 626.12,-299.75"/>
<text xml:space="preserve" text-anchor="start" x="701.38" y="-307.75" font-family="Helvetica,sans-Serif" font-size="10.00" fill="#ece1d7">ShadowCatalog schema_event_tx</text>
<polygon fill="#5d4628" stroke="none" points="524.38,-277 524.38,-299.75 626.12,-299.75 626.12,-277 524.38,-277"/>
<polygon fill="none" stroke="#6e6963" points="524.38,-277 524.38,-299.75 626.12,-299.75 626.12,-277 524.38,-277"/>
<polygon fill="none" stroke="#6e6963" points="626.12,-277 626.12,-299.75 941.62,-299.75 941.62,-277 626.12,-277"/>
<text xml:space="preserve" text-anchor="start" x="668" y="-285" font-family="Helvetica,sans-Serif" font-size="10.00" fill="#ece1d7">downstream consumer (pipeline tail / observer)</text>
<polygon fill="#4d3850" stroke="none" points="524.38,-254.25 524.38,-277 626.12,-277 626.12,-254.25 524.38,-254.25"/>
<polygon fill="none" stroke="#6e6963" points="524.38,-254.25 524.38,-277 626.12,-277 626.12,-254.25 524.38,-254.25"/>
<polygon fill="none" stroke="#6e6963" points="626.12,-254.25 626.12,-277 941.62,-277 941.62,-254.25 626.12,-254.25"/>
<text xml:space="preserve" text-anchor="start" x="711.88" y="-262.25" font-family="Helvetica,sans-Serif" font-size="10.00" fill="#ece1d7">on&#45;disk artifact (spill / cursor)</text>
<polygon fill="#34302c" stroke="none" points="524.38,-231.5 524.38,-254.25 941.62,-254.25 941.62,-231.5 524.38,-231.5"/>
<polygon fill="none" stroke="#6e6963" points="524.38,-231.5 524.38,-254.25 941.62,-254.25 941.62,-231.5 524.38,-231.5"/>
<text xml:space="preserve" text-anchor="start" x="699.25" y="-240.75" font-family="Helvetica,sans-Serif" font-weight="bold" font-size="10.00" fill="#ece1d7">edge colour</text>
<polygon fill="none" stroke="#6e6963" points="524.38,-208.75 524.38,-231.5 626.12,-231.5 626.12,-208.75 524.38,-208.75"/>
<text xml:space="preserve" text-anchor="start" x="569.25" y="-218" font-family="Helvetica,sans-Serif" font-weight="bold" font-size="10.00" fill="#c1a78e">━━</text>
<polygon fill="none" stroke="#6e6963" points="626.12,-208.75 626.12,-231.5 941.62,-231.5 941.62,-208.75 626.12,-208.75"/>
<text xml:space="preserve" text-anchor="start" x="715.25" y="-216.75" font-family="Helvetica,sans-Serif" font-size="10.00" fill="#ece1d7">buffer&#45;internal control / data</text>
<polygon fill="none" stroke="#6e6963" points="524.38,-186 524.38,-208.75 626.12,-208.75 626.12,-186 524.38,-186"/>
<text xml:space="preserve" text-anchor="start" x="569.25" y="-195.25" font-family="Helvetica,sans-Serif" font-weight="bold" font-size="10.00" fill="#cba85e">┄┄</text>
<polygon fill="none" stroke="#6e6963" points="626.12,-186 626.12,-208.75 941.62,-208.75 941.62,-186 626.12,-186"/>
<text xml:space="preserve" text-anchor="start" x="713.75" y="-194" font-family="Helvetica,sans-Serif" font-size="10.00" fill="#ece1d7">schema event (lsn&#45;stamped)</text>
<polygon fill="none" stroke="#6e6963" points="524.38,-163.25 524.38,-186 626.12,-186 626.12,-163.25 524.38,-163.25"/>
<text xml:space="preserve" text-anchor="start" x="569.25" y="-172.5" font-family="Helvetica,sans-Serif" font-weight="bold" font-size="10.00" fill="#bf8c5f">━━</text>
<polygon fill="none" stroke="#6e6963" points="626.12,-163.25 626.12,-186 941.62,-186 941.62,-163.25 626.12,-163.25"/>
<text xml:space="preserve" text-anchor="start" x="696.88" y="-171.25" font-family="Helvetica,sans-Serif" font-size="10.00" fill="#ece1d7">CH Native rows + DDL via observer</text>
<polygon fill="none" stroke="#6e6963" points="524.38,-140.5 524.38,-163.25 626.12,-163.25 626.12,-140.5 524.38,-140.5"/>
<text xml:space="preserve" text-anchor="start" x="569.25" y="-149.75" font-family="Helvetica,sans-Serif" font-weight="bold" font-size="10.00" fill="#6e6963">┄┄</text>
<polygon fill="none" stroke="#6e6963" points="626.12,-140.5 626.12,-163.25 941.62,-163.25 941.62,-140.5 626.12,-140.5"/>
<text xml:space="preserve" text-anchor="start" x="705.5" y="-148.5" font-family="Helvetica,sans-Serif" font-size="10.00" fill="#ece1d7">spill file IO (write / read / unlink)</text>
<polygon fill="none" stroke="#6e6963" points="524.38,-117.75 524.38,-140.5 626.12,-140.5 626.12,-117.75 524.38,-117.75"/>
<text xml:space="preserve" text-anchor="start" x="569.62" y="-127" font-family="Helvetica,sans-Serif" font-weight="bold" font-size="10.00" fill="#b380b0">···</text>
<polygon fill="none" stroke="#6e6963" points="626.12,-117.75 626.12,-140.5 941.62,-140.5 941.62,-117.75 626.12,-117.75"/>
<text xml:space="preserve" text-anchor="start" x="673.25" y="-125.75" font-family="Helvetica,sans-Serif" font-size="10.00" fill="#ece1d7">cursor durability (drain_lsn / emitter_ack_lsn)</text>
<polygon fill="#34302c" stroke="none" points="524.38,-95 524.38,-117.75 941.62,-117.75 941.62,-95 524.38,-95"/>
<polygon fill="none" stroke="#6e6963" points="524.38,-95 524.38,-117.75 941.62,-117.75 941.62,-95 524.38,-95"/>
<text xml:space="preserve" text-anchor="start" x="646.38" y="-104.25" font-family="Helvetica,sans-Serif" font-weight="bold" font-size="10.00" fill="#ece1d7">k&#45;way merge — ordering rules</text>
<polygon fill="none" stroke="#6e6963" points="524.38,-72.25 524.38,-95 941.62,-95 941.62,-72.25 524.38,-72.25"/>
<text xml:space="preserve" text-anchor="start" x="655.38" y="-80.25" font-family="Helvetica,sans-Serif" font-size="10.00" fill="#ece1d7">heads sorted ASC by source_lsn</text>
<polygon fill="none" stroke="#6e6963" points="524.38,-49.5 524.38,-72.25 941.62,-72.25 941.62,-49.5 524.38,-49.5"/>
<text xml:space="preserve" text-anchor="start" x="593.5" y="-57.5" font-family="Helvetica,sans-Serif" font-size="10.00" fill="#ece1d7">tie: catalog event BEFORE tuple (PG writes pg_class first)</text>
<polygon fill="none" stroke="#6e6963" points="524.38,-26.75 524.38,-49.5 941.62,-49.5 941.62,-26.75 524.38,-26.75"/>
<text xml:space="preserve" text-anchor="start" x="529.38" y="-34.75" font-family="Helvetica,sans-Serif" font-size="10.00" fill="#ece1d7">heaps detoast post&#45;merge; chunk maps resolve rows; ToastRows persist separately</text>
<polygon fill="none" stroke="#6e6963" points="524.38,-4 524.38,-26.75 941.62,-26.75 941.62,-4 524.38,-4"/>
<text xml:space="preserve" text-anchor="start" x="557.88" y="-12" font-family="Helvetica,sans-Serif" font-size="10.00" fill="#ece1d7">drain_lsn advances BEFORE on_xact_end ack — cursor surfaces the gap</text>
</g>
<!-- cursor&#45;&gt;legend -->
</g>
</svg>
