<?xml version="1.0" encoding="UTF-8" standalone="no"?>
<!DOCTYPE svg PUBLIC "-//W3C//DTD SVG 1.1//EN"
 "http://www.w3.org/Graphics/SVG/1.1/DTD/svg11.dtd">
<!-- Generated by graphviz version 14.1.5 (0)
 -->
<!-- Title: xact Pages: 1 -->
<svg width="1157pt" height="1551pt"
 viewBox="0.00 0.00 1157.00 1551.00" xmlns="http://www.w3.org/2000/svg" xmlns:xlink="http://www.w3.org/1999/xlink">
<g id="graph0" class="graph" transform="scale(1 1) rotate(0) translate(4 1547)">
<title>xact</title>
<polygon fill="#272623" stroke="none" points="-4,4 -4,-1547 1152.79,-1547 1152.79,4 -4,4"/>
<text xml:space="preserve" text-anchor="middle" x="574.39" y="-1525.7" font-family="Helvetica,sans-Serif" font-size="14.00" fill="#ece1d7">walshadow — XactBuffer + spill + commit drain</text>
<g id="clust4" class="cluster">
<title>cluster_drain</title>
<path fill="#34302c" stroke="#4c4641" d="M675.38,-656.75C675.38,-656.75 1065.38,-656.75 1065.38,-656.75 1071.38,-656.75 1077.38,-662.75 1077.38,-668.75 1077.38,-668.75 1077.38,-1021.5 1077.38,-1021.5 1077.38,-1027.5 1071.38,-1033.5 1065.38,-1033.5 1065.38,-1033.5 675.38,-1033.5 675.38,-1033.5 669.38,-1033.5 663.38,-1027.5 663.38,-1021.5 663.38,-1021.5 663.38,-668.75 663.38,-668.75 663.38,-662.75 669.38,-656.75 675.38,-656.75"/>
<text xml:space="preserve" text-anchor="middle" x="870.38" y="-1016.2" font-family="Helvetica,sans-Serif" font-size="14.00" fill="#ece1d7">commit(top_xid, ts, commit_lsn, subxids) — k&#45;way merge</text>
</g>
<!-- catevt -->
<g id="node1" class="node">
<title>catevt</title>
<path fill="#4d4d28" stroke="#6e6963" d="M334.75,-1511.38C334.75,-1511.38 210,-1511.38 210,-1511.38 204,-1511.38 198,-1505.38 198,-1499.38 198,-1499.38 198,-1477.12 198,-1477.12 198,-1471.12 204,-1465.12 210,-1465.12 210,-1465.12 334.75,-1465.12 334.75,-1465.12 340.75,-1465.12 346.75,-1471.12 346.75,-1477.12 346.75,-1477.12 346.75,-1499.38 346.75,-1499.38 346.75,-1505.38 340.75,-1511.38 334.75,-1511.38"/>
<text xml:space="preserve" text-anchor="middle" x="272.38" y="-1497.88" font-family="Helvetica,sans-Serif" font-size="10.00" fill="#ece1d7">ShadowCatalog</text>
<text xml:space="preserve" text-anchor="middle" x="272.38" y="-1485.12" font-family="Helvetica,sans-Serif" font-size="10.00" fill="#ece1d7">schema_event_tx</text>
<text xml:space="preserve" text-anchor="middle" x="272.38" y="-1472.38" font-family="Helvetica,sans-Serif" font-size="10.00" fill="#ece1d7">Added / Changed / Dropped</text>
</g>
<!-- buf -->
<g id="node4" class="node">
<title>buf</title>
<path fill="#4d4128" stroke="#6e6963" d="M303.5,-1396.25C303.5,-1396.25 55.25,-1396.25 55.25,-1396.25 49.25,-1396.25 43.25,-1390.25 43.25,-1384.25 43.25,-1384.25 43.25,-1255.75 43.25,-1255.75 43.25,-1249.75 49.25,-1243.75 55.25,-1243.75 55.25,-1243.75 303.5,-1243.75 303.5,-1243.75 309.5,-1243.75 315.5,-1249.75 315.5,-1255.75 315.5,-1255.75 315.5,-1384.25 315.5,-1384.25 315.5,-1390.25 309.5,-1396.25 303.5,-1396.25"/>
<text xml:space="preserve" text-anchor="start" x="55.25" y="-1379.75" font-family="Helvetica,sans-Serif" font-weight="bold" font-size="10.00" fill="#ece1d7">XactBuffer</text>
<text xml:space="preserve" text-anchor="start" x="55.25" y="-1359.75" font-family="Helvetica,sans-Serif" font-size="10.00" fill="#ece1d7">inflight: HashMap&lt;xid, XactState&gt;</text>
<text xml:space="preserve" text-anchor="start" x="55.25" y="-1341" font-family="Helvetica,sans-Serif" font-size="10.00" fill="#ece1d7">bytes_in_memory · stats · store: SpillStore</text>
<text xml:space="preserve" text-anchor="start" x="55.25" y="-1324.45" font-family="Helvetica,sans-Serif" font-style="italic" font-size="9.00" fill="#ece1d7">XactState (per xid):</text>
<text xml:space="preserve" text-anchor="start" x="55.25" y="-1305.75" font-family="Helvetica,sans-Serif" font-size="9.00" fill="#ece1d7">first_lsn · in_mem: Vec&lt;SpillEntry&gt; · in_mem_bytes</text>
<text xml:space="preserve" text-anchor="start" x="55.25" y="-1288.5" font-family="Helvetica,sans-Serif" font-size="9.00" fill="#ece1d7">spill: Option&lt;SpillWriter&gt; · spill_bytes</text>
<text xml:space="preserve" text-anchor="start" x="55.25" y="-1271.25" font-family="Helvetica,sans-Serif" font-size="9.00" fill="#ece1d7">catalog_events: Vec&lt;(lsn, SchemaEvent)&gt;</text>
<text xml:space="preserve" text-anchor="start" x="55.25" y="-1254" font-family="Helvetica,sans-Serif" font-size="9.00" fill="#ece1d7">SpillEntry = Heap(DecodedHeap) | Chunk(ToastChunk)</text>
</g>
<!-- catevt&#45;&gt;buf -->
<g id="edge1" class="edge">
<title>catevt&#45;&gt;buf</title>
<path fill="none" stroke="#cba85e" stroke-dasharray="5,2" d="M259.83,-1464.83C251.23,-1449.46 239.23,-1428 227.11,-1406.33"/>
<polygon fill="#cba85e" stroke="#cba85e" points="230.22,-1404.73 222.29,-1397.71 224.11,-1408.14 230.22,-1404.73"/>
<text xml:space="preserve" text-anchor="middle" x="290.27" y="-1430.2" font-family="Helvetica,sans-Serif" font-size="9.00" fill="#ece1d7">on_schema_event</text>
<text xml:space="preserve" text-anchor="middle" x="290.27" y="-1418.95" font-family="Helvetica,sans-Serif" font-size="9.00" fill="#ece1d7">(xid, source_lsn, ev)</text>
</g>
<!-- decoder -->
<g id="node2" class="node">
<title>decoder</title>
<path fill="#4d4128" stroke="#6e6963" d="M160.75,-1511.38C160.75,-1511.38 12,-1511.38 12,-1511.38 6,-1511.38 0,-1505.38 0,-1499.38 0,-1499.38 0,-1477.12 0,-1477.12 0,-1471.12 6,-1465.12 12,-1465.12 12,-1465.12 160.75,-1465.12 160.75,-1465.12 166.75,-1465.12 172.75,-1471.12 172.75,-1477.12 172.75,-1477.12 172.75,-1499.38 172.75,-1499.38 172.75,-1505.38 166.75,-1511.38 160.75,-1511.38"/>
<text xml:space="preserve" text-anchor="middle" x="86.38" y="-1497.88" font-family="Helvetica,sans-Serif" font-size="10.00" fill="#ece1d7">BufferingDecoderSink</text>
<text xml:space="preserve" text-anchor="middle" x="86.38" y="-1485.12" font-family="Helvetica,sans-Serif" font-size="10.00" fill="#ece1d7">heap_decoder + TOAST reshape</text>
<text xml:space="preserve" text-anchor="middle" x="86.38" y="-1472.38" font-family="Helvetica,sans-Serif" font-size="10.00" fill="#ece1d7">stamps source_lsn, xid</text>
</g>
<!-- decoder&#45;&gt;buf -->
<g id="edge2" class="edge">
<title>decoder&#45;&gt;buf</title>
<path fill="none" stroke="#c1a78e" d="M98.92,-1464.83C107.52,-1449.46 119.52,-1428 131.64,-1406.33"/>
<polygon fill="#c1a78e" stroke="#c1a78e" points="134.64,-1408.14 136.46,-1397.71 128.53,-1404.73 134.64,-1408.14"/>
<text xml:space="preserve" text-anchor="middle" x="172.17" y="-1424.58" font-family="Helvetica,sans-Serif" font-size="9.00" fill="#ece1d7">absorb Heap / Chunk</text>
</g>
<!-- xaclog -->
<g id="node3" class="node">
<title>xaclog</title>
<path fill="#3d3d54" stroke="#6e6963" d="M969.62,-1517.75C969.62,-1517.75 817.12,-1517.75 817.12,-1517.75 811.12,-1517.75 805.12,-1511.75 805.12,-1505.75 805.12,-1505.75 805.12,-1470.75 805.12,-1470.75 805.12,-1464.75 811.12,-1458.75 817.12,-1458.75 817.12,-1458.75 969.62,-1458.75 969.62,-1458.75 975.62,-1458.75 981.62,-1464.75 981.62,-1470.75 981.62,-1470.75 981.62,-1505.75 981.62,-1505.75 981.62,-1511.75 975.62,-1517.75 969.62,-1517.75"/>
<text xml:space="preserve" text-anchor="middle" x="893.38" y="-1504.25" font-family="Helvetica,sans-Serif" font-size="10.00" fill="#ece1d7">XLOG_XACT_*</text>
<text xml:space="preserve" text-anchor="middle" x="893.38" y="-1491.5" font-family="Helvetica,sans-Serif" font-size="10.00" fill="#ece1d7">ASSIGNMENT 0x50 (hint)</text>
<text xml:space="preserve" text-anchor="middle" x="893.38" y="-1478.75" font-family="Helvetica,sans-Serif" font-size="10.00" fill="#ece1d7">COMMIT 0x00 / _PREPARED 0x30</text>
<text xml:space="preserve" text-anchor="middle" x="893.38" y="-1466" font-family="Helvetica,sans-Serif" font-size="10.00" fill="#ece1d7">ABORT &#160;0x20 / _PREPARED &#160;0x40</text>
</g>
<!-- subt -->
<g id="node5" class="node">
<title>subt</title>
<path fill="#4d4128" stroke="#6e6963" d="M978.25,-1343.12C978.25,-1343.12 808.5,-1343.12 808.5,-1343.12 802.5,-1343.12 796.5,-1337.12 796.5,-1331.12 796.5,-1331.12 796.5,-1308.88 796.5,-1308.88 796.5,-1302.88 802.5,-1296.88 808.5,-1296.88 808.5,-1296.88 978.25,-1296.88 978.25,-1296.88 984.25,-1296.88 990.25,-1302.88 990.25,-1308.88 990.25,-1308.88 990.25,-1331.12 990.25,-1331.12 990.25,-1337.12 984.25,-1343.12 978.25,-1343.12"/>
<text xml:space="preserve" text-anchor="middle" x="893.38" y="-1329.62" font-family="Helvetica,sans-Serif" font-size="10.00" fill="#ece1d7">SubxactTracker</text>
<text xml:space="preserve" text-anchor="middle" x="893.38" y="-1316.88" font-family="Helvetica,sans-Serif" font-size="10.00" fill="#ece1d7">parent: HashMap&lt;xid, top&gt;</text>
<text xml:space="preserve" text-anchor="middle" x="893.38" y="-1304.12" font-family="Helvetica,sans-Serif" font-size="10.00" fill="#ece1d7">children: HashMap&lt;top, Vec&lt;xid&gt;&gt;</text>
</g>
<!-- xaclog&#45;&gt;subt -->
<g id="edge3" class="edge">
<title>xaclog&#45;&gt;subt</title>
<path fill="none" stroke="#c1a78e" d="M893.38,-1458.29C893.38,-1429.46 893.38,-1385.24 893.38,-1354.82"/>
<polygon fill="#c1a78e" stroke="#c1a78e" points="896.88,-1355.02 893.38,-1345.02 889.88,-1355.02 896.88,-1355.02"/>
<text xml:space="preserve" text-anchor="middle" x="947" y="-1430.2" font-family="Helvetica,sans-Serif" font-size="9.00" fill="#ece1d7">ASSIGNMENT 0x50</text>
<text xml:space="preserve" text-anchor="middle" x="947" y="-1418.95" font-family="Helvetica,sans-Serif" font-size="9.00" fill="#ece1d7">add_subxact(top, subs)</text>
</g>
<!-- abort -->
<g id="node6" class="node">
<title>abort</title>
<path fill="#4d4128" stroke="#6e6963" d="M759.62,-1355.88C759.62,-1355.88 625.12,-1355.88 625.12,-1355.88 619.12,-1355.88 613.12,-1349.88 613.12,-1343.88 613.12,-1343.88 613.12,-1296.12 613.12,-1296.12 613.12,-1290.12 619.12,-1284.12 625.12,-1284.12 625.12,-1284.12 759.62,-1284.12 759.62,-1284.12 765.62,-1284.12 771.62,-1290.12 771.62,-1296.12 771.62,-1296.12 771.62,-1343.88 771.62,-1343.88 771.62,-1349.88 765.62,-1355.88 759.62,-1355.88"/>
<text xml:space="preserve" text-anchor="middle" x="692.38" y="-1342.38" font-family="Helvetica,sans-Serif" font-size="10.00" fill="#ece1d7">abort(xid, abort_lsn, subxids)</text>
<text xml:space="preserve" text-anchor="middle" x="692.38" y="-1329.62" font-family="Helvetica,sans-Serif" font-size="10.00" fill="#ece1d7">drop XactState (top + subs)</text>
<text xml:space="preserve" text-anchor="middle" x="692.38" y="-1316.88" font-family="Helvetica,sans-Serif" font-size="10.00" fill="#ece1d7">SpillWriter::unlink per xid</text>
<text xml:space="preserve" text-anchor="middle" x="692.38" y="-1304.12" font-family="Helvetica,sans-Serif" font-size="10.00" fill="#ece1d7">drain_lsn / emitter_ack_lsn ↑</text>
<text xml:space="preserve" text-anchor="middle" x="692.38" y="-1291.38" font-family="Helvetica,sans-Serif" font-size="10.00" fill="#ece1d7">forget_tree(top)</text>
</g>
<!-- xaclog&#45;&gt;abort -->
<g id="edge4" class="edge">
<title>xaclog&#45;&gt;abort</title>
<path fill="none" stroke="#c1a78e" d="M828.4,-1458.26C817.87,-1452.43 807.4,-1445.87 798.12,-1438.75 770.69,-1417.67 744.66,-1388.85 725.29,-1364.99"/>
<polygon fill="#c1a78e" stroke="#c1a78e" points="728.12,-1362.93 719.15,-1357.3 722.65,-1367.3 728.12,-1362.93"/>
<text xml:space="preserve" text-anchor="middle" x="842.75" y="-1424.58" font-family="Helvetica,sans-Serif" font-size="9.00" fill="#ece1d7">ABORT / _PREPARED</text>
</g>
<!-- merge -->
<g id="node10" class="node">
<title>merge</title>
<path fill="#4d4128" stroke="#6e6963" d="M946.62,-1000.25C946.62,-1000.25 722.12,-1000.25 722.12,-1000.25 716.12,-1000.25 710.12,-994.25 710.12,-988.25 710.12,-988.25 710.12,-902.25 710.12,-902.25 710.12,-896.25 716.12,-890.25 722.12,-890.25 722.12,-890.25 946.62,-890.25 946.62,-890.25 952.62,-890.25 958.62,-896.25 958.62,-902.25 958.62,-902.25 958.62,-988.25 958.62,-988.25 958.62,-994.25 952.62,-1000.25 946.62,-1000.25"/>
<text xml:space="preserve" text-anchor="middle" x="834.38" y="-986.75" font-family="Helvetica,sans-Serif" font-size="10.00" fill="#ece1d7">pull (top + subxids) from inflight</text>
<text xml:space="preserve" text-anchor="middle" x="834.38" y="-974" font-family="Helvetica,sans-Serif" font-size="10.00" fill="#ece1d7"> &#160;unknown xid → commits_unknown_xid;</text>
<text xml:space="preserve" text-anchor="middle" x="834.38" y="-961.25" font-family="Helvetica,sans-Serif" font-size="10.00" fill="#ece1d7"> &#160;on_xact_end fires anyway (ack ceiling)</text>
<text xml:space="preserve" text-anchor="middle" x="834.38" y="-948.5" font-family="Helvetica,sans-Serif" font-size="10.00" fill="#ece1d7">per xid: SpillReader → unlink + append in_mem</text>
<text xml:space="preserve" text-anchor="middle" x="834.38" y="-935.75" font-family="Helvetica,sans-Serif" font-size="10.00" fill="#ece1d7"> &#160;→ VecDeque ASC by source_lsn</text>
<text xml:space="preserve" text-anchor="middle" x="834.38" y="-923" font-family="Helvetica,sans-Serif" font-size="10.00" fill="#ece1d7">k&#45;way merge (k = 1+nsub, typically ≤ 4)</text>
<text xml:space="preserve" text-anchor="middle" x="834.38" y="-910.25" font-family="Helvetica,sans-Serif" font-size="10.00" fill="#ece1d7"> &#160;linear&#45;scan head pick</text>
<text xml:space="preserve" text-anchor="middle" x="834.38" y="-897.5" font-family="Helvetica,sans-Serif" font-size="10.00" fill="#ece1d7"> &#160;TIE: catalog event BEFORE tuple</text>
</g>
<!-- xaclog&#45;&gt;merge -->
<g id="edge11" class="edge">
<title>xaclog&#45;&gt;merge</title>
<path fill="none" stroke="#c1a78e" d="M982.11,-1461.95C991.66,-1455.81 1000.15,-1448.2 1006.38,-1438.75 1093.16,-1307.06 1066.01,-1226 997.38,-1084 983.02,-1054.31 958.95,-1028.61 933.65,-1007.72"/>
<polygon fill="#c1a78e" stroke="#c1a78e" points="935.84,-1004.99 925.84,-1001.48 931.46,-1010.46 935.84,-1004.99"/>
<text xml:space="preserve" text-anchor="middle" x="1100.79" y="-1215.2" font-family="Helvetica,sans-Serif" font-size="9.00" fill="#ece1d7">COMMIT / _PREPARED</text>
<text xml:space="preserve" text-anchor="middle" x="1100.79" y="-1203.95" font-family="Helvetica,sans-Serif" font-size="9.00" fill="#ece1d7">parse_xact_payload</text>
</g>
<!-- idle -->
<g id="node7" class="node">
<title>idle</title>
<path fill="#4d4128" stroke="#6e6963" d="M570,-1343.12C570,-1343.12 434.75,-1343.12 434.75,-1343.12 428.75,-1343.12 422.75,-1337.12 422.75,-1331.12 422.75,-1331.12 422.75,-1308.88 422.75,-1308.88 422.75,-1302.88 428.75,-1296.88 434.75,-1296.88 434.75,-1296.88 570,-1296.88 570,-1296.88 576,-1296.88 582,-1302.88 582,-1308.88 582,-1308.88 582,-1331.12 582,-1331.12 582,-1337.12 576,-1343.12 570,-1343.12"/>
<text xml:space="preserve" text-anchor="middle" x="502.38" y="-1329.62" font-family="Helvetica,sans-Serif" font-size="10.00" fill="#ece1d7">advance_idle(lsn)</text>
<text xml:space="preserve" text-anchor="middle" x="502.38" y="-1316.88" font-family="Helvetica,sans-Serif" font-size="10.00" fill="#ece1d7">fires when xacts_active == 0</text>
<text xml:space="preserve" text-anchor="middle" x="502.38" y="-1304.12" font-family="Helvetica,sans-Serif" font-size="10.00" fill="#ece1d7">lifts drain_lsn / ack_lsn</text>
</g>
<!-- buf&#45;&gt;idle -->
<g id="edge5" class="edge">
<title>buf&#45;&gt;idle</title>
<path fill="none" stroke="#c1a78e" stroke-dasharray="5,2" d="M315.89,-1320C348.1,-1320 381.67,-1320 411.31,-1320"/>
<polygon fill="#c1a78e" stroke="#c1a78e" points="410.95,-1323.5 420.95,-1320 410.95,-1316.5 410.95,-1323.5"/>
<text xml:space="preserve" text-anchor="middle" x="369.12" y="-1325.7" font-family="Helvetica,sans-Serif" font-size="9.00" fill="#ece1d7">xacts_active == 0</text>
</g>
<!-- evict -->
<g id="node8" class="node">
<title>evict</title>
<path fill="#4d3a28" stroke="#6e6963" d="M289.38,-1181.25C289.38,-1181.25 69.38,-1181.25 69.38,-1181.25 63.38,-1181.25 57.37,-1175.25 57.37,-1169.25 57.37,-1169.25 57.37,-1096 57.37,-1096 57.37,-1090 63.37,-1084 69.37,-1084 69.37,-1084 289.38,-1084 289.38,-1084 295.38,-1084 301.38,-1090 301.38,-1096 301.38,-1096 301.38,-1169.25 301.38,-1169.25 301.38,-1175.25 295.38,-1181.25 289.38,-1181.25"/>
<text xml:space="preserve" text-anchor="middle" x="179.38" y="-1167.75" font-family="Helvetica,sans-Serif" font-size="10.00" fill="#ece1d7">maybe_evict</text>
<text xml:space="preserve" text-anchor="middle" x="179.38" y="-1155" font-family="Helvetica,sans-Serif" font-size="10.00" fill="#ece1d7">bytes_in_memory &gt; xact_buffer_max (64 MiB)</text>
<text xml:space="preserve" text-anchor="middle" x="179.38" y="-1142.25" font-family="Helvetica,sans-Serif" font-size="10.00" fill="#ece1d7">pick largest in&#45;mem xact</text>
<text xml:space="preserve" text-anchor="middle" x="179.38" y="-1129.5" font-family="Helvetica,sans-Serif" font-size="10.00" fill="#ece1d7">(mirrors PG ReorderBufferLargestTXN)</text>
<text xml:space="preserve" text-anchor="middle" x="179.38" y="-1116.75" font-family="Helvetica,sans-Serif" font-size="10.00" fill="#ece1d7">→ evict_xact: lazy&#45;open SpillWriter,</text>
<text xml:space="preserve" text-anchor="middle" x="179.38" y="-1104" font-family="Helvetica,sans-Serif" font-size="10.00" fill="#ece1d7">drain in_mem → write(entry), zero bytes</text>
<text xml:space="preserve" text-anchor="middle" x="179.38" y="-1091.25" font-family="Helvetica,sans-Serif" font-size="10.00" fill="#ece1d7">(catalog_events stay in memory)</text>
</g>
<!-- buf&#45;&gt;evict -->
<g id="edge6" class="edge">
<title>buf&#45;&gt;evict</title>
<path fill="none" stroke="#c1a78e" d="M179.38,-1243.33C179.38,-1226.58 179.38,-1209.05 179.38,-1193.05"/>
<polygon fill="#c1a78e" stroke="#c1a78e" points="182.88,-1193.22 179.38,-1183.22 175.88,-1193.22 182.88,-1193.22"/>
<text xml:space="preserve" text-anchor="middle" x="220.62" y="-1215.2" font-family="Helvetica,sans-Serif" font-size="9.00" fill="#ece1d7">after every absorb</text>
<text xml:space="preserve" text-anchor="middle" x="220.62" y="-1203.95" font-family="Helvetica,sans-Serif" font-size="9.00" fill="#ece1d7">while over budget</text>
</g>
<!-- subt&#45;&gt;merge -->
<g id="edge12" class="edge">
<title>subt&#45;&gt;merge</title>
<path fill="none" stroke="#c1a78e" stroke-dasharray="5,2" d="M891.66,-1296.54C887.8,-1249.12 877.37,-1135.41 859.38,-1041.5 857.52,-1031.8 855.22,-1021.63 852.79,-1011.69"/>
<polygon fill="#c1a78e" stroke="#c1a78e" points="856.2,-1010.92 850.36,-1002.08 849.42,-1012.63 856.2,-1010.92"/>
<text xml:space="preserve" text-anchor="middle" x="935.55" y="-1135.33" font-family="Helvetica,sans-Serif" font-size="9.00" fill="#ece1d7">(top + subxids)</text>
<text xml:space="preserve" text-anchor="middle" x="935.55" y="-1124.08" font-family="Helvetica,sans-Serif" font-size="9.00" fill="#ece1d7">authoritative on COMMIT</text>
</g>
<!-- spill -->
<g id="node9" class="node">
<title>spill</title>
<polygon fill="#4d3850" stroke="#6e6963" points="828.25,-1168.5 616.5,-1168.5 616.5,-1096.75 834.25,-1096.75 834.25,-1162.5 828.25,-1168.5"/>
<polyline fill="none" stroke="#6e6963" points="828.25,-1168.5 828.25,-1162.5"/>
<polyline fill="none" stroke="#6e6963" points="834.25,-1162.5 828.25,-1162.5"/>
<text xml:space="preserve" text-anchor="middle" x="725.38" y="-1155" font-family="Helvetica,sans-Serif" font-size="10.00" fill="#ece1d7">{spill}/xid&#45;{xid:010}&#45;{first_lsn:016X}.bin</text>
<text xml:space="preserve" text-anchor="middle" x="725.38" y="-1142.25" font-family="Helvetica,sans-Serif" font-size="10.00" fill="#ece1d7">[&quot;WS&quot; magic | u16 ver=2]</text>
<text xml:space="preserve" text-anchor="middle" x="725.38" y="-1129.5" font-family="Helvetica,sans-Serif" font-size="10.00" fill="#ece1d7">[tag u8 | u32 LE inner_len | body]*</text>
<text xml:space="preserve" text-anchor="middle" x="725.38" y="-1116.75" font-family="Helvetica,sans-Serif" font-size="10.00" fill="#ece1d7"> &#160;tag=0 → Heap &#160;&#160;tag=1 → Chunk</text>
<text xml:space="preserve" text-anchor="middle" x="725.38" y="-1104" font-family="Helvetica,sans-Serif" font-size="10.00" fill="#ece1d7">append&#45;only, fsync on finish</text>
</g>
<!-- abort&#45;&gt;spill -->
<g id="edge8" class="edge">
<title>abort&#45;&gt;spill</title>
<path fill="none" stroke="#6e6963" stroke-dasharray="5,2" d="M698.66,-1283.7C703.91,-1254.19 711.44,-1211.89 717.17,-1179.72"/>
<polygon fill="#6e6963" stroke="#6e6963" points="720.54,-1180.75 718.85,-1170.29 713.65,-1179.52 720.54,-1180.75"/>
<text xml:space="preserve" text-anchor="middle" x="726.68" y="-1209.58" font-family="Helvetica,sans-Serif" font-size="9.00" fill="#ece1d7">unlink</text>
</g>
<!-- cursor -->
<g id="node14" class="node">
<title>cursor</title>
<polygon fill="#4d3850" stroke="#6e6963" points="734.38,-504.75 478.38,-504.75 478.38,-458.5 740.38,-458.5 740.38,-498.75 734.38,-504.75"/>
<polyline fill="none" stroke="#6e6963" points="734.38,-504.75 734.38,-498.75"/>
<polyline fill="none" stroke="#6e6963" points="740.38,-498.75 734.38,-498.75"/>
<text xml:space="preserve" text-anchor="middle" x="609.38" y="-491.25" font-family="Helvetica,sans-Serif" font-size="10.00" fill="#ece1d7">cursor.bin</text>
<text xml:space="preserve" text-anchor="middle" x="609.38" y="-478.5" font-family="Helvetica,sans-Serif" font-size="10.00" fill="#ece1d7">drain_lsn &#160;&#160;&#160;&#160;&#160;= max commit_lsn &#160;(advances FIRST)</text>
<text xml:space="preserve" text-anchor="middle" x="609.38" y="-465.75" font-family="Helvetica,sans-Serif" font-size="10.00" fill="#ece1d7">emitter_ack_lsn = max ack_lsn &#160;&#160;(lags drain_lsn)</text>
</g>
<!-- abort&#45;&gt;cursor -->
<g id="edge17" class="edge">
<title>abort&#45;&gt;cursor</title>
<path fill="none" stroke="#b380b0" stroke-dasharray="1,5" d="M654.41,-1283.89C621.25,-1249.23 578.38,-1192.94 578.38,-1133.62 578.38,-1133.62 578.38,-1133.62 578.38,-578.12 578.38,-556.62 585.58,-533.66 593.04,-515.64"/>
<polygon fill="#b380b0" stroke="#b380b0" points="596.23,-517.07 597.05,-506.5 589.82,-514.25 596.23,-517.07"/>
<text xml:space="preserve" text-anchor="middle" x="604.25" y="-810.45" font-family="Helvetica,sans-Serif" font-size="9.00" fill="#ece1d7">abort_lsn ↑</text>
</g>
<!-- idle&#45;&gt;cursor -->
<g id="edge18" class="edge">
<title>idle&#45;&gt;cursor</title>
<path fill="none" stroke="#b380b0" stroke-dasharray="1,5" d="M502.38,-1296.46C502.38,-1261.56 502.38,-1192.36 502.38,-1133.62 502.38,-1133.62 502.38,-1133.62 502.38,-578.12 502.38,-549.22 524.38,-526.89 548.43,-511.12"/>
<polygon fill="#b380b0" stroke="#b380b0" points="550.1,-514.2 556.78,-505.98 546.43,-508.24 550.1,-514.2"/>
<text xml:space="preserve" text-anchor="middle" x="515.5" y="-810.45" font-family="Helvetica,sans-Serif" font-size="9.00" fill="#ece1d7">idle ↑</text>
</g>
<!-- evict&#45;&gt;spill -->
<g id="edge7" class="edge">
<title>evict&#45;&gt;spill</title>
<path fill="none" stroke="#6e6963" stroke-dasharray="5,2" d="M301.57,-1132.62C392.01,-1132.62 514.62,-1132.62 604.7,-1132.62"/>
<polygon fill="#6e6963" stroke="#6e6963" points="604.56,-1136.13 614.56,-1132.63 604.56,-1129.13 604.56,-1136.13"/>
<text xml:space="preserve" text-anchor="middle" x="458.94" y="-1138.33" font-family="Helvetica,sans-Serif" font-size="9.00" fill="#ece1d7">SpillWriter::write</text>
</g>
<!-- spill&#45;&gt;merge -->
<g id="edge13" class="edge">
<title>spill&#45;&gt;merge</title>
<path fill="none" stroke="#6e6963" stroke-dasharray="5,2" d="M746.13,-1096.32C760.45,-1071.97 779.89,-1038.91 796.88,-1010.02"/>
<polygon fill="#6e6963" stroke="#6e6963" points="799.72,-1012.09 801.77,-1001.7 793.68,-1008.55 799.72,-1012.09"/>
<text xml:space="preserve" text-anchor="middle" x="814.86" y="-1055.45" font-family="Helvetica,sans-Serif" font-size="9.00" fill="#ece1d7">SpillReader::next</text>
<text xml:space="preserve" text-anchor="middle" x="814.86" y="-1044.2" font-family="Helvetica,sans-Serif" font-size="9.00" fill="#ece1d7">then unlink</text>
</g>
<!-- detoast -->
<g id="node11" class="node">
<title>detoast</title>
<path fill="#4d4128" stroke="#6e6963" d="M907.62,-849.25C907.62,-849.25 749.12,-849.25 749.12,-849.25 743.12,-849.25 737.12,-843.25 737.12,-837.25 737.12,-837.25 737.12,-789.5 737.12,-789.5 737.12,-783.5 743.12,-777.5 749.12,-777.5 749.12,-777.5 907.62,-777.5 907.62,-777.5 913.62,-777.5 919.62,-783.5 919.62,-789.5 919.62,-789.5 919.62,-837.25 919.62,-837.25 919.62,-843.25 913.62,-849.25 907.62,-849.25"/>
<text xml:space="preserve" text-anchor="middle" x="828.38" y="-835.75" font-family="Helvetica,sans-Serif" font-size="10.00" fill="#ece1d7">detoast_heap</text>
<text xml:space="preserve" text-anchor="middle" x="828.38" y="-823" font-family="Helvetica,sans-Serif" font-size="10.00" fill="#ece1d7">reassemble (toast_relid, value_id)</text>
<text xml:space="preserve" text-anchor="middle" x="828.38" y="-810.25" font-family="Helvetica,sans-Serif" font-size="10.00" fill="#ece1d7"> &#160;→ BTreeMap&lt;chunk_seq, bytes&gt;</text>
<text xml:space="preserve" text-anchor="middle" x="828.38" y="-797.5" font-family="Helvetica,sans-Serif" font-size="10.00" fill="#ece1d7">pglz / lz4 inline</text>
<text xml:space="preserve" text-anchor="middle" x="828.38" y="-784.75" font-family="Helvetica,sans-Serif" font-size="10.00" fill="#ece1d7">lazy ShadowCatalog::relation_at</text>
</g>
<!-- merge&#45;&gt;detoast -->
<g id="edge9" class="edge">
<title>merge&#45;&gt;detoast</title>
<path fill="none" stroke="#c1a78e" d="M831.87,-889.92C831.42,-880.34 830.97,-870.45 830.53,-861.1"/>
<polygon fill="#c1a78e" stroke="#c1a78e" points="834.03,-860.96 830.07,-851.13 827.04,-861.28 834.03,-860.96"/>
</g>
<!-- dispatch -->
<g id="node12" class="node">
<title>dispatch</title>
<path fill="#4d4128" stroke="#6e6963" d="M908,-736.5C908,-736.5 694.75,-736.5 694.75,-736.5 688.75,-736.5 682.75,-730.5 682.75,-724.5 682.75,-724.5 682.75,-676.75 682.75,-676.75 682.75,-670.75 688.75,-664.75 694.75,-664.75 694.75,-664.75 908,-664.75 908,-664.75 914,-664.75 920,-670.75 920,-676.75 920,-676.75 920,-724.5 920,-724.5 920,-730.5 914,-736.5 908,-736.5"/>
<text xml:space="preserve" text-anchor="middle" x="801.38" y="-723" font-family="Helvetica,sans-Serif" font-size="10.00" fill="#ece1d7">dispatch loop</text>
<text xml:space="preserve" text-anchor="middle" x="801.38" y="-710.25" font-family="Helvetica,sans-Serif" font-size="10.00" fill="#ece1d7">on_schema_event(ev) &#160;// pre&#45;dependent heap</text>
<text xml:space="preserve" text-anchor="middle" x="801.38" y="-697.5" font-family="Helvetica,sans-Serif" font-size="10.00" fill="#ece1d7">on_tuple(CommittedTuple{decoded, ts, lsn})</text>
<text xml:space="preserve" text-anchor="middle" x="801.38" y="-684.75" font-family="Helvetica,sans-Serif" font-size="10.00" fill="#ece1d7">on_xact_end(commit_lsn) → ack_lsn</text>
<text xml:space="preserve" text-anchor="middle" x="801.38" y="-672" font-family="Helvetica,sans-Serif" font-size="10.00" fill="#ece1d7">subxact_tracker.forget_tree(top)</text>
</g>
<!-- detoast&#45;&gt;dispatch -->
<g id="edge10" class="edge">
<title>detoast&#45;&gt;dispatch</title>
<path fill="none" stroke="#c1a78e" d="M819.76,-777.03C817.47,-767.65 814.97,-757.38 812.56,-747.52"/>
<polygon fill="#c1a78e" stroke="#c1a78e" points="816.04,-746.99 810.27,-738.11 809.24,-748.65 816.04,-746.99"/>
</g>
<!-- observer -->
<g id="node13" class="node">
<title>observer</title>
<path fill="#5d4628" stroke="#6e6963" d="M873.5,-602.25C873.5,-602.25 729.25,-602.25 729.25,-602.25 723.25,-602.25 717.25,-596.25 717.25,-590.25 717.25,-590.25 717.25,-568 717.25,-568 717.25,-562 723.25,-556 729.25,-556 729.25,-556 873.5,-556 873.5,-556 879.5,-556 885.5,-562 885.5,-568 885.5,-568 885.5,-590.25 885.5,-590.25 885.5,-596.25 879.5,-602.25 873.5,-602.25"/>
<text xml:space="preserve" text-anchor="middle" x="801.38" y="-588.75" font-family="Helvetica,sans-Serif" font-size="10.00" fill="#ece1d7">TupleObserver (CH emitter)</text>
<text xml:space="preserve" text-anchor="middle" x="801.38" y="-576" font-family="Helvetica,sans-Serif" font-size="10.00" fill="#ece1d7">on_tuple → BlockBuilder</text>
<text xml:space="preserve" text-anchor="middle" x="801.38" y="-563.25" font-family="Helvetica,sans-Serif" font-size="10.00" fill="#ece1d7">on_xact_end → durable ack_lsn</text>
</g>
<!-- dispatch&#45;&gt;observer -->
<g id="edge14" class="edge">
<title>dispatch&#45;&gt;observer</title>
<path fill="none" stroke="#bf8c5f" stroke-width="2" d="M801.38,-664.42C801.38,-648.98 801.38,-630.89 801.38,-615.43"/>
<polygon fill="#bf8c5f" stroke="#bf8c5f" stroke-width="2" points="804.88,-615.69 801.38,-605.69 797.88,-615.69 804.88,-615.69"/>
<text xml:space="preserve" text-anchor="middle" x="853.88" y="-636.2" font-family="Helvetica,sans-Serif" font-size="9.00" fill="#ece1d7">on_schema_event /</text>
<text xml:space="preserve" text-anchor="middle" x="853.88" y="-624.95" font-family="Helvetica,sans-Serif" font-size="9.00" fill="#ece1d7">on_tuple / on_xact_end</text>
</g>
<!-- dispatch&#45;&gt;cursor -->
<g id="edge15" class="edge">
<title>dispatch&#45;&gt;cursor</title>
<path fill="none" stroke="#b380b0" stroke-dasharray="1,5" d="M728.59,-664.36C701.95,-648.48 673.45,-627.55 653.38,-602.25 633.34,-576.99 621.86,-541.74 615.68,-516.05"/>
<polygon fill="#b380b0" stroke="#b380b0" points="619.14,-515.46 613.54,-506.47 612.31,-516.99 619.14,-515.46"/>
<text xml:space="preserve" text-anchor="middle" x="678.88" y="-581.83" font-family="Helvetica,sans-Serif" font-size="9.00" fill="#ece1d7">drain_lsn ↑</text>
<text xml:space="preserve" text-anchor="middle" x="678.88" y="-570.58" font-family="Helvetica,sans-Serif" font-size="9.00" fill="#ece1d7">(pre&#45;ack)</text>
</g>
<!-- observer&#45;&gt;cursor -->
<g id="edge16" class="edge">
<title>observer&#45;&gt;cursor</title>
<path fill="none" stroke="#b380b0" stroke-dasharray="1,5" d="M756.36,-555.73C728.99,-542.12 693.84,-524.64 664.78,-510.18"/>
<polygon fill="#b380b0" stroke="#b380b0" points="666.64,-507.2 656.13,-505.88 663.52,-513.47 666.64,-507.2"/>
<text xml:space="preserve" text-anchor="middle" x="751.63" y="-527.45" font-family="Helvetica,sans-Serif" font-size="9.00" fill="#ece1d7">emitter_ack_lsn ↑</text>
</g>
<!-- legend -->
<g id="node15" class="node">
<title>legend</title>
<path fill="#6e6963" stroke="none" d="M785.88,-417.5C785.88,-417.5 432.88,-417.5 432.88,-417.5 426.88,-417.5 420.88,-411.5 420.88,-405.5 420.88,-405.5 420.88,-12 420.88,-12 420.88,-6 426.88,0 432.88,0 432.88,0 785.88,0 785.88,0 791.88,0 797.88,-6 797.88,-12 797.88,-12 797.88,-405.5 797.88,-405.5 797.88,-411.5 791.88,-417.5 785.88,-417.5"/>
<polygon fill="#34302c" stroke="none" points="428.88,-390.75 428.88,-413.5 789.88,-413.5 789.88,-390.75 428.88,-390.75"/>
<polygon fill="none" stroke="#6e6963" points="428.88,-390.75 428.88,-413.5 789.88,-413.5 789.88,-390.75 428.88,-390.75"/>
<text xml:space="preserve" text-anchor="start" x="566.25" y="-400" font-family="Helvetica,sans-Serif" font-weight="bold" font-size="10.00" fill="#ece1d7">node fill — role</text>
<polygon fill="#3d3d54" stroke="none" points="428.88,-368 428.88,-390.75 507.75,-390.75 507.75,-368 428.88,-368"/>
<polygon fill="none" stroke="#6e6963" points="428.88,-368 428.88,-390.75 507.75,-390.75 507.75,-368 428.88,-368"/>
<polygon fill="none" stroke="#6e6963" points="507.75,-368 507.75,-390.75 789.88,-390.75 789.88,-368 507.75,-368"/>
<text xml:space="preserve" text-anchor="start" x="571.19" y="-376" font-family="Helvetica,sans-Serif" font-size="10.00" fill="#ece1d7">source PG / XLOG_XACT records</text>
<polygon fill="#4d3a28" stroke="none" points="428.88,-345.25 428.88,-368 507.75,-368 507.75,-345.25 428.88,-345.25"/>
<polygon fill="none" stroke="#6e6963" points="428.88,-345.25 428.88,-368 507.75,-368 507.75,-345.25 428.88,-345.25"/>
<polygon fill="none" stroke="#6e6963" points="507.75,-345.25 507.75,-368 789.88,-368 789.88,-345.25 507.75,-345.25"/>
<text xml:space="preserve" text-anchor="start" x="564.44" y="-353.25" font-family="Helvetica,sans-Serif" font-size="10.00" fill="#ece1d7">eviction policy (sync, after absorb)</text>
<polygon fill="#4d4128" stroke="none" points="428.88,-322.5 428.88,-345.25 507.75,-345.25 507.75,-322.5 428.88,-322.5"/>
<polygon fill="none" stroke="#6e6963" points="428.88,-322.5 428.88,-345.25 507.75,-345.25 507.75,-322.5 428.88,-322.5"/>
<polygon fill="none" stroke="#6e6963" points="507.75,-322.5 507.75,-345.25 789.88,-345.25 789.88,-322.5 507.75,-322.5"/>
<text xml:space="preserve" text-anchor="start" x="582.44" y="-330.5" font-family="Helvetica,sans-Serif" font-size="10.00" fill="#ece1d7">XactBuffer / decoder / drain</text>
<polygon fill="#4d4d28" stroke="none" points="428.88,-299.75 428.88,-322.5 507.75,-322.5 507.75,-299.75 428.88,-299.75"/>
<polygon fill="none" stroke="#6e6963" points="428.88,-299.75 428.88,-322.5 507.75,-322.5 507.75,-299.75 428.88,-299.75"/>
<polygon fill="none" stroke="#6e6963" points="507.75,-299.75 507.75,-322.5 789.88,-322.5 789.88,-299.75 507.75,-299.75"/>
<text xml:space="preserve" text-anchor="start" x="566.31" y="-307.75" font-family="Helvetica,sans-Serif" font-size="10.00" fill="#ece1d7">ShadowCatalog schema_event_tx</text>
<polygon fill="#5d4628" stroke="none" points="428.88,-277 428.88,-299.75 507.75,-299.75 507.75,-277 428.88,-277"/>
<polygon fill="none" stroke="#6e6963" points="428.88,-277 428.88,-299.75 507.75,-299.75 507.75,-277 428.88,-277"/>
<polygon fill="none" stroke="#6e6963" points="507.75,-277 507.75,-299.75 789.88,-299.75 789.88,-277 507.75,-277"/>
<text xml:space="preserve" text-anchor="start" x="563.69" y="-285" font-family="Helvetica,sans-Serif" font-size="10.00" fill="#ece1d7">downstream CH emitter (observer)</text>
<polygon fill="#4d3850" stroke="none" points="428.88,-254.25 428.88,-277 507.75,-277 507.75,-254.25 428.88,-254.25"/>
<polygon fill="none" stroke="#6e6963" points="428.88,-254.25 428.88,-277 507.75,-277 507.75,-254.25 428.88,-254.25"/>
<polygon fill="none" stroke="#6e6963" points="507.75,-254.25 507.75,-277 789.88,-277 789.88,-254.25 507.75,-254.25"/>
<text xml:space="preserve" text-anchor="start" x="576.81" y="-262.25" font-family="Helvetica,sans-Serif" font-size="10.00" fill="#ece1d7">on&#45;disk artifact (spill / cursor)</text>
<polygon fill="#34302c" stroke="none" points="428.88,-231.5 428.88,-254.25 789.88,-254.25 789.88,-231.5 428.88,-231.5"/>
<polygon fill="none" stroke="#6e6963" points="428.88,-231.5 428.88,-254.25 789.88,-254.25 789.88,-231.5 428.88,-231.5"/>
<text xml:space="preserve" text-anchor="start" x="575.62" y="-240.75" font-family="Helvetica,sans-Serif" font-weight="bold" font-size="10.00" fill="#ece1d7">edge colour</text>
<polygon fill="none" stroke="#6e6963" points="428.88,-208.75 428.88,-231.5 507.75,-231.5 507.75,-208.75 428.88,-208.75"/>
<text xml:space="preserve" text-anchor="start" x="462.31" y="-218" font-family="Helvetica,sans-Serif" font-weight="bold" font-size="10.00" fill="#c1a78e">━━</text>
<polygon fill="none" stroke="#6e6963" points="507.75,-208.75 507.75,-231.5 789.88,-231.5 789.88,-208.75 507.75,-208.75"/>
<text xml:space="preserve" text-anchor="start" x="580.19" y="-216.75" font-family="Helvetica,sans-Serif" font-size="10.00" fill="#ece1d7">buffer&#45;internal control / data</text>
<polygon fill="none" stroke="#6e6963" points="428.88,-186 428.88,-208.75 507.75,-208.75 507.75,-186 428.88,-186"/>
<text xml:space="preserve" text-anchor="start" x="462.31" y="-195.25" font-family="Helvetica,sans-Serif" font-weight="bold" font-size="10.00" fill="#cba85e">┄┄</text>
<polygon fill="none" stroke="#6e6963" points="507.75,-186 507.75,-208.75 789.88,-208.75 789.88,-186 507.75,-186"/>
<text xml:space="preserve" text-anchor="start" x="578.69" y="-194" font-family="Helvetica,sans-Serif" font-size="10.00" fill="#ece1d7">schema event (lsn&#45;stamped)</text>
<polygon fill="none" stroke="#6e6963" points="428.88,-163.25 428.88,-186 507.75,-186 507.75,-163.25 428.88,-163.25"/>
<text xml:space="preserve" text-anchor="start" x="462.31" y="-172.5" font-family="Helvetica,sans-Serif" font-weight="bold" font-size="10.00" fill="#bf8c5f">━━</text>
<polygon fill="none" stroke="#6e6963" points="507.75,-163.25 507.75,-186 789.88,-186 789.88,-163.25 507.75,-163.25"/>
<text xml:space="preserve" text-anchor="start" x="561.81" y="-171.25" font-family="Helvetica,sans-Serif" font-size="10.00" fill="#ece1d7">CH Native rows + DDL via observer</text>
<polygon fill="none" stroke="#6e6963" points="428.88,-140.5 428.88,-163.25 507.75,-163.25 507.75,-140.5 428.88,-140.5"/>
<text xml:space="preserve" text-anchor="start" x="462.31" y="-149.75" font-family="Helvetica,sans-Serif" font-weight="bold" font-size="10.00" fill="#6e6963">┄┄</text>
<polygon fill="none" stroke="#6e6963" points="507.75,-140.5 507.75,-163.25 789.88,-163.25 789.88,-140.5 507.75,-140.5"/>
<text xml:space="preserve" text-anchor="start" x="570.44" y="-148.5" font-family="Helvetica,sans-Serif" font-size="10.00" fill="#ece1d7">spill file IO (write / read / unlink)</text>
<polygon fill="none" stroke="#6e6963" points="428.88,-117.75 428.88,-140.5 507.75,-140.5 507.75,-117.75 428.88,-117.75"/>
<text xml:space="preserve" text-anchor="start" x="462.69" y="-127" font-family="Helvetica,sans-Serif" font-weight="bold" font-size="10.00" fill="#b380b0">···</text>
<polygon fill="none" stroke="#6e6963" points="507.75,-117.75 507.75,-140.5 789.88,-140.5 789.88,-117.75 507.75,-117.75"/>
<text xml:space="preserve" text-anchor="start" x="538.19" y="-125.75" font-family="Helvetica,sans-Serif" font-size="10.00" fill="#ece1d7">cursor durability (drain_lsn / emitter_ack_lsn)</text>
<polygon fill="#34302c" stroke="none" points="428.88,-95 428.88,-117.75 789.88,-117.75 789.88,-95 428.88,-95"/>
<polygon fill="none" stroke="#6e6963" points="428.88,-95 428.88,-117.75 789.88,-117.75 789.88,-95 428.88,-95"/>
<text xml:space="preserve" text-anchor="start" x="522.75" y="-104.25" font-family="Helvetica,sans-Serif" font-weight="bold" font-size="10.00" fill="#ece1d7">k&#45;way merge — ordering rules</text>
<polygon fill="none" stroke="#6e6963" points="428.88,-72.25 428.88,-95 789.88,-95 789.88,-72.25 428.88,-72.25"/>
<text xml:space="preserve" text-anchor="start" x="531.75" y="-80.25" font-family="Helvetica,sans-Serif" font-size="10.00" fill="#ece1d7">heads sorted ASC by source_lsn</text>
<polygon fill="none" stroke="#6e6963" points="428.88,-49.5 428.88,-72.25 789.88,-72.25 789.88,-49.5 428.88,-49.5"/>
<text xml:space="preserve" text-anchor="start" x="469.88" y="-57.5" font-family="Helvetica,sans-Serif" font-size="10.00" fill="#ece1d7">tie: catalog event BEFORE tuple (PG writes pg_class first)</text>
<polygon fill="none" stroke="#6e6963" points="428.88,-26.75 428.88,-49.5 789.88,-49.5 789.88,-26.75 428.88,-26.75"/>
<text xml:space="preserve" text-anchor="start" x="433.88" y="-34.75" font-family="Helvetica,sans-Serif" font-size="10.00" fill="#ece1d7">heaps run through detoast post&#45;merge; chunks fold into (relid, value_id)</text>
<polygon fill="none" stroke="#6e6963" points="428.88,-4 428.88,-26.75 789.88,-26.75 789.88,-4 428.88,-4"/>
<text xml:space="preserve" text-anchor="start" x="434.25" y="-12" font-family="Helvetica,sans-Serif" font-size="10.00" fill="#ece1d7">drain_lsn advances BEFORE on_xact_end ack — cursor surfaces the gap</text>
</g>
<!-- cursor&#45;&gt;legend -->
</g>
</svg>
