<?xml version="1.0" encoding="UTF-8" standalone="no"?>
<!DOCTYPE svg PUBLIC "-//W3C//DTD SVG 1.1//EN"
 "http://www.w3.org/Graphics/SVG/1.1/DTD/svg11.dtd">
<!-- Generated by graphviz version 15.1.0 (20260618.0150)
 -->
<!-- Title: xact Pages: 1 -->
<svg width="1098pt" height="1610pt"
 viewBox="0.00 0.00 1098.00 1610.00" xmlns="http://www.w3.org/2000/svg" xmlns:xlink="http://www.w3.org/1999/xlink">
<g id="graph0" class="graph" transform="scale(1 1) rotate(0) translate(4 1605.59)">
<title>xact</title>
<polygon fill="#272623" stroke="none" points="-4,4 -4,-1605.59 1093.88,-1605.59 1093.88,4 -4,4"/>
<text xml:space="preserve" text-anchor="middle" x="544.94" y="-1584.29" font-family="Helvetica,sans-Serif" font-size="14.00" fill="#ece1d7">walshadow — XactBuffer + spill + commit drain</text>
<g id="clust4" class="cluster">
<title>cluster_drain</title>
<path fill="#34302c" stroke="#4c4641" d="M630.38,-847.59C630.38,-847.59 1057.38,-847.59 1057.38,-847.59 1063.38,-847.59 1069.38,-853.59 1069.38,-859.59 1069.38,-859.59 1069.38,-1061.34 1069.38,-1061.34 1069.38,-1067.34 1063.38,-1073.34 1057.38,-1073.34 1057.38,-1073.34 630.38,-1073.34 630.38,-1073.34 624.38,-1073.34 618.38,-1067.34 618.38,-1061.34 618.38,-1061.34 618.38,-859.59 618.38,-859.59 618.38,-853.59 624.38,-847.59 630.38,-847.59"/>
<text xml:space="preserve" text-anchor="middle" x="843.88" y="-1056.04" font-family="Helvetica,sans-Serif" font-size="14.00" fill="#ece1d7">commit drain — merge transaction family, preserve WAL order</text>
</g>
<!-- catevt -->
<g id="node1" class="node">
<title>catevt</title>
<path fill="#4d4d28" stroke="#6e6963" d="M136.75,-1569.97C136.75,-1569.97 12,-1569.97 12,-1569.97 6,-1569.97 0,-1563.97 0,-1557.97 0,-1557.97 0,-1535.72 0,-1535.72 0,-1529.72 6,-1523.72 12,-1523.72 12,-1523.72 136.75,-1523.72 136.75,-1523.72 142.75,-1523.72 148.75,-1529.72 148.75,-1535.72 148.75,-1535.72 148.75,-1557.97 148.75,-1557.97 148.75,-1563.97 142.75,-1569.97 136.75,-1569.97"/>
<text xml:space="preserve" text-anchor="middle" x="74.38" y="-1556.47" font-family="Helvetica,sans-Serif" font-size="10.00" fill="#ece1d7">ShadowCatalog</text>
<text xml:space="preserve" text-anchor="middle" x="74.38" y="-1543.72" font-family="Helvetica,sans-Serif" font-size="10.00" fill="#ece1d7">schema_event_tx</text>
<text xml:space="preserve" text-anchor="middle" x="74.38" y="-1530.97" font-family="Helvetica,sans-Serif" font-size="10.00" fill="#ece1d7">Added / Changed / Dropped</text>
</g>
<!-- buf -->
<g id="node4" class="node">
<title>buf</title>
<path fill="#4d4128" stroke="#6e6963" d="M291.75,-1454.84C291.75,-1454.84 57,-1454.84 57,-1454.84 51,-1454.84 45,-1448.84 45,-1442.84 45,-1442.84 45,-1295.59 45,-1295.59 45,-1289.59 51,-1283.59 57,-1283.59 57,-1283.59 291.75,-1283.59 291.75,-1283.59 297.75,-1283.59 303.75,-1289.59 303.75,-1295.59 303.75,-1295.59 303.75,-1442.84 303.75,-1442.84 303.75,-1448.84 297.75,-1454.84 291.75,-1454.84"/>
<text xml:space="preserve" text-anchor="start" x="57" y="-1438.34" font-family="Helvetica,sans-Serif" font-weight="bold" font-size="10.00" fill="#ece1d7">XactBuffer</text>
<text xml:space="preserve" text-anchor="start" x="57" y="-1418.34" font-family="Helvetica,sans-Serif" font-size="10.00" fill="#ece1d7">inflight: HashMap&lt;xid, XactState&gt;</text>
<text xml:space="preserve" text-anchor="start" x="57" y="-1399.59" font-family="Helvetica,sans-Serif" font-size="10.00" fill="#ece1d7">markers · pending stash · unfinished commits</text>
<text xml:space="preserve" text-anchor="start" x="57" y="-1380.84" font-family="Helvetica,sans-Serif" font-size="10.00" fill="#ece1d7">bytes_in_memory · drain_resident · SpillStore</text>
<text xml:space="preserve" text-anchor="start" x="57" y="-1364.29" font-family="Helvetica,sans-Serif" font-style="italic" font-size="9.00" fill="#ece1d7">XactState (per xid):</text>
<text xml:space="preserve" text-anchor="start" x="57" y="-1345.59" font-family="Helvetica,sans-Serif" font-size="9.00" fill="#ece1d7">first_lsn · in_mem: Vec&lt;SpillEntry&gt; · in_mem_bytes</text>
<text xml:space="preserve" text-anchor="start" x="57" y="-1328.34" font-family="Helvetica,sans-Serif" font-size="9.00" fill="#ece1d7">spill: Option&lt;SpillWriter&gt; · spill_bytes</text>
<text xml:space="preserve" text-anchor="start" x="57" y="-1311.09" font-family="Helvetica,sans-Serif" font-size="9.00" fill="#ece1d7">events: Vec&lt;(lsn, DrainEntry)&gt; · stash_rfns</text>
<text xml:space="preserve" text-anchor="start" x="57" y="-1293.84" font-family="Helvetica,sans-Serif" font-size="9.00" fill="#ece1d7">SpillEntry = Heap | Chunk | ToastDelete | Raw</text>
</g>
<!-- catevt&#45;&gt;buf -->
<g id="edge1" class="edge">
<title>catevt&#45;&gt;buf</title>
<path fill="none" stroke="#cba85e" stroke-dasharray="5,2" d="M87.24,-1523.24C95.93,-1507.99 108.04,-1486.72 120.47,-1464.89"/>
<polygon fill="#cba85e" stroke="#cba85e" points="123.34,-1466.91 125.25,-1456.49 117.26,-1463.45 123.34,-1466.91"/>
<text xml:space="preserve" text-anchor="middle" x="157.85" y="-1488.79" font-family="Helvetica,sans-Serif" font-size="9.00" fill="#ece1d7">on_schema_event</text>
<text xml:space="preserve" text-anchor="middle" x="157.85" y="-1477.54" font-family="Helvetica,sans-Serif" font-size="9.00" fill="#ece1d7">(xid, source_lsn, ev)</text>
</g>
<!-- decoder -->
<g id="node2" class="node">
<title>decoder</title>
<path fill="#4d4128" stroke="#6e6963" d="M363.38,-1576.34C363.38,-1576.34 185.38,-1576.34 185.38,-1576.34 179.38,-1576.34 173.38,-1570.34 173.38,-1564.34 173.38,-1564.34 173.38,-1529.34 173.38,-1529.34 173.38,-1523.34 179.38,-1517.34 185.38,-1517.34 185.38,-1517.34 363.38,-1517.34 363.38,-1517.34 369.38,-1517.34 375.38,-1523.34 375.38,-1529.34 375.38,-1529.34 375.38,-1564.34 375.38,-1564.34 375.38,-1570.34 369.38,-1576.34 363.38,-1576.34"/>
<text xml:space="preserve" text-anchor="middle" x="274.38" y="-1562.84" font-family="Helvetica,sans-Serif" font-size="10.00" fill="#ece1d7">BufferingDecoderSink</text>
<text xml:space="preserve" text-anchor="middle" x="274.38" y="-1550.09" font-family="Helvetica,sans-Serif" font-size="10.00" fill="#ece1d7">heap + TOAST birth/death reshape</text>
<text xml:space="preserve" text-anchor="middle" x="274.38" y="-1537.34" font-family="Helvetica,sans-Serif" font-size="10.00" fill="#ece1d7">SMGR marker + invisible&#45;record stash</text>
<text xml:space="preserve" text-anchor="middle" x="274.38" y="-1524.59" font-family="Helvetica,sans-Serif" font-size="10.00" fill="#ece1d7">stamps source_lsn, xid</text>
</g>
<!-- decoder&#45;&gt;buf -->
<g id="edge2" class="edge">
<title>decoder&#45;&gt;buf</title>
<path fill="none" stroke="#c1a78e" d="M258.09,-1517.24C249.84,-1502.75 239.3,-1484.24 228.5,-1465.28"/>
<polygon fill="#c1a78e" stroke="#c1a78e" points="231.58,-1463.62 223.59,-1456.66 225.5,-1467.08 231.58,-1463.62"/>
<text xml:space="preserve" text-anchor="middle" x="295.45" y="-1488.79" font-family="Helvetica,sans-Serif" font-size="9.00" fill="#ece1d7">absorb Heap / Chunk /</text>
<text xml:space="preserve" text-anchor="middle" x="295.45" y="-1477.54" font-family="Helvetica,sans-Serif" font-size="9.00" fill="#ece1d7">ToastDelete / Raw</text>
</g>
<!-- xaclog -->
<g id="node3" class="node">
<title>xaclog</title>
<path fill="#3d3d54" stroke="#6e6963" d="M887.62,-1576.34C887.62,-1576.34 735.12,-1576.34 735.12,-1576.34 729.12,-1576.34 723.12,-1570.34 723.12,-1564.34 723.12,-1564.34 723.12,-1529.34 723.12,-1529.34 723.12,-1523.34 729.12,-1517.34 735.12,-1517.34 735.12,-1517.34 887.62,-1517.34 887.62,-1517.34 893.62,-1517.34 899.62,-1523.34 899.62,-1529.34 899.62,-1529.34 899.62,-1564.34 899.62,-1564.34 899.62,-1570.34 893.62,-1576.34 887.62,-1576.34"/>
<text xml:space="preserve" text-anchor="middle" x="811.38" y="-1562.84" font-family="Helvetica,sans-Serif" font-size="10.00" fill="#ece1d7">XLOG_XACT_*</text>
<text xml:space="preserve" text-anchor="middle" x="811.38" y="-1550.09" font-family="Helvetica,sans-Serif" font-size="10.00" fill="#ece1d7">ASSIGNMENT 0x50 (hint)</text>
<text xml:space="preserve" text-anchor="middle" x="811.38" y="-1537.34" font-family="Helvetica,sans-Serif" font-size="10.00" fill="#ece1d7">COMMIT 0x00 / _PREPARED 0x30</text>
<text xml:space="preserve" text-anchor="middle" x="811.38" y="-1524.59" font-family="Helvetica,sans-Serif" font-size="10.00" fill="#ece1d7">ABORT &#160;0x20 / _PREPARED &#160;0x40</text>
</g>
<!-- subt -->
<g id="node5" class="node">
<title>subt</title>
<path fill="#4d4128" stroke="#6e6963" d="M1031.25,-1392.34C1031.25,-1392.34 861.5,-1392.34 861.5,-1392.34 855.5,-1392.34 849.5,-1386.34 849.5,-1380.34 849.5,-1380.34 849.5,-1358.09 849.5,-1358.09 849.5,-1352.09 855.5,-1346.09 861.5,-1346.09 861.5,-1346.09 1031.25,-1346.09 1031.25,-1346.09 1037.25,-1346.09 1043.25,-1352.09 1043.25,-1358.09 1043.25,-1358.09 1043.25,-1380.34 1043.25,-1380.34 1043.25,-1386.34 1037.25,-1392.34 1031.25,-1392.34"/>
<text xml:space="preserve" text-anchor="middle" x="946.38" y="-1378.84" font-family="Helvetica,sans-Serif" font-size="10.00" fill="#ece1d7">SubxactTracker</text>
<text xml:space="preserve" text-anchor="middle" x="946.38" y="-1366.09" font-family="Helvetica,sans-Serif" font-size="10.00" fill="#ece1d7">parent: HashMap&lt;xid, top&gt;</text>
<text xml:space="preserve" text-anchor="middle" x="946.38" y="-1353.34" font-family="Helvetica,sans-Serif" font-size="10.00" fill="#ece1d7">children: HashMap&lt;top, Vec&lt;xid&gt;&gt;</text>
</g>
<!-- xaclog&#45;&gt;subt -->
<g id="edge3" class="edge">
<title>xaclog&#45;&gt;subt</title>
<path fill="none" stroke="#c1a78e" d="M833.37,-1517.24C857.81,-1485.43 897.17,-1434.23 922.4,-1401.41"/>
<polygon fill="#c1a78e" stroke="#c1a78e" points="924.87,-1403.94 928.19,-1393.88 919.32,-1399.67 924.87,-1403.94"/>
<text xml:space="preserve" text-anchor="middle" x="916.44" y="-1488.79" font-family="Helvetica,sans-Serif" font-size="9.00" fill="#ece1d7">ASSIGNMENT 0x50</text>
<text xml:space="preserve" text-anchor="middle" x="916.44" y="-1477.54" font-family="Helvetica,sans-Serif" font-size="9.00" fill="#ece1d7">add_subxact(top, subs)</text>
</g>
<!-- abort -->
<g id="node6" class="node">
<title>abort</title>
<path fill="#4d4128" stroke="#6e6963" d="M728.62,-1398.72C728.62,-1398.72 600.12,-1398.72 600.12,-1398.72 594.12,-1398.72 588.12,-1392.72 588.12,-1386.72 588.12,-1386.72 588.12,-1351.72 588.12,-1351.72 588.12,-1345.72 594.12,-1339.72 600.12,-1339.72 600.12,-1339.72 728.62,-1339.72 728.62,-1339.72 734.62,-1339.72 740.62,-1345.72 740.62,-1351.72 740.62,-1351.72 740.62,-1386.72 740.62,-1386.72 740.62,-1392.72 734.62,-1398.72 728.62,-1398.72"/>
<text xml:space="preserve" text-anchor="middle" x="664.38" y="-1385.22" font-family="Helvetica,sans-Serif" font-size="10.00" fill="#ece1d7">abort</text>
<text xml:space="preserve" text-anchor="middle" x="664.38" y="-1372.47" font-family="Helvetica,sans-Serif" font-size="10.00" fill="#ece1d7">drop transaction + children</text>
<text xml:space="preserve" text-anchor="middle" x="664.38" y="-1359.72" font-family="Helvetica,sans-Serif" font-size="10.00" fill="#ece1d7">unlink spill files</text>
<text xml:space="preserve" text-anchor="middle" x="664.38" y="-1346.97" font-family="Helvetica,sans-Serif" font-size="10.00" fill="#ece1d7">advance consumed position</text>
</g>
<!-- xaclog&#45;&gt;abort -->
<g id="edge4" class="edge">
<title>xaclog&#45;&gt;abort</title>
<path fill="none" stroke="#c1a78e" d="M726.86,-1517.01C718.05,-1511.49 709.87,-1504.99 703.12,-1497.34 681.83,-1473.19 672.23,-1437.59 667.91,-1410.2"/>
<polygon fill="#c1a78e" stroke="#c1a78e" points="671.41,-1409.95 666.57,-1400.52 664.48,-1410.91 671.41,-1409.95"/>
<text xml:space="preserve" text-anchor="middle" x="747.75" y="-1483.17" font-family="Helvetica,sans-Serif" font-size="9.00" fill="#ece1d7">ABORT / _PREPARED</text>
</g>
<!-- merge -->
<g id="node10" class="node">
<title>merge</title>
<path fill="#4d4128" stroke="#6e6963" d="M905.62,-1040.09C905.62,-1040.09 717.12,-1040.09 717.12,-1040.09 711.12,-1040.09 705.12,-1034.09 705.12,-1028.09 705.12,-1028.09 705.12,-954.84 705.12,-954.84 705.12,-948.84 711.12,-942.84 717.12,-942.84 717.12,-942.84 905.62,-942.84 905.62,-942.84 911.62,-942.84 917.62,-948.84 917.62,-954.84 917.62,-954.84 917.62,-1028.09 917.62,-1028.09 917.62,-1034.09 911.62,-1040.09 905.62,-1040.09"/>
<text xml:space="preserve" text-anchor="middle" x="811.38" y="-1026.59" font-family="Helvetica,sans-Serif" font-size="10.00" fill="#ece1d7">pull (top + subxids) from inflight</text>
<text xml:space="preserve" text-anchor="middle" x="811.38" y="-1013.84" font-family="Helvetica,sans-Serif" font-size="10.00" fill="#ece1d7">per xid: SpillReader + in_mem + events</text>
<text xml:space="preserve" text-anchor="middle" x="811.38" y="-1001.09" font-family="Helvetica,sans-Serif" font-size="10.00" fill="#ece1d7">→ source_lsn k&#45;way merge</text>
<text xml:space="preserve" text-anchor="middle" x="811.38" y="-988.34" font-family="Helvetica,sans-Serif" font-size="10.00" fill="#ece1d7">Chunk → ChunkMap + ToastRow birth</text>
<text xml:space="preserve" text-anchor="middle" x="811.38" y="-975.59" font-family="Helvetica,sans-Serif" font-size="10.00" fill="#ece1d7">ToastDelete → tombstone row</text>
<text xml:space="preserve" text-anchor="middle" x="811.38" y="-962.84" font-family="Helvetica,sans-Serif" font-size="10.00" fill="#ece1d7">Raw → commit&#45;resolved toast op</text>
<text xml:space="preserve" text-anchor="middle" x="811.38" y="-950.09" font-family="Helvetica,sans-Serif" font-size="10.00" fill="#ece1d7">TIE: control event BEFORE heap</text>
</g>
<!-- xaclog&#45;&gt;merge -->
<g id="edge10" class="edge">
<title>xaclog&#45;&gt;merge</title>
<path fill="none" stroke="#c1a78e" d="M811.38,-1516.87C811.38,-1429.82 811.38,-1169.33 811.38,-1051.5"/>
<polygon fill="#c1a78e" stroke="#c1a78e" points="814.88,-1051.73 811.38,-1041.73 807.88,-1051.73 814.88,-1051.73"/>
<text xml:space="preserve" text-anchor="middle" x="859.38" y="-1255.04" font-family="Helvetica,sans-Serif" font-size="9.00" fill="#ece1d7">COMMIT / _PREPARED</text>
<text xml:space="preserve" text-anchor="middle" x="859.38" y="-1243.79" font-family="Helvetica,sans-Serif" font-size="9.00" fill="#ece1d7">parse_xact_payload</text>
</g>
<!-- idle -->
<g id="node7" class="node">
<title>idle</title>
<path fill="#4d4128" stroke="#6e6963" d="M519.5,-1392.34C519.5,-1392.34 423.25,-1392.34 423.25,-1392.34 417.25,-1392.34 411.25,-1386.34 411.25,-1380.34 411.25,-1380.34 411.25,-1358.09 411.25,-1358.09 411.25,-1352.09 417.25,-1346.09 423.25,-1346.09 423.25,-1346.09 519.5,-1346.09 519.5,-1346.09 525.5,-1346.09 531.5,-1352.09 531.5,-1358.09 531.5,-1358.09 531.5,-1380.34 531.5,-1380.34 531.5,-1386.34 525.5,-1392.34 519.5,-1392.34"/>
<text xml:space="preserve" text-anchor="middle" x="471.38" y="-1378.84" font-family="Helvetica,sans-Serif" font-size="10.00" fill="#ece1d7">idle progress</text>
<text xml:space="preserve" text-anchor="middle" x="471.38" y="-1366.09" font-family="Helvetica,sans-Serif" font-size="10.00" fill="#ece1d7">advance only with no</text>
<text xml:space="preserve" text-anchor="middle" x="471.38" y="-1353.34" font-family="Helvetica,sans-Serif" font-size="10.00" fill="#ece1d7">open transaction</text>
</g>
<!-- buf&#45;&gt;idle -->
<g id="edge5" class="edge">
<title>buf&#45;&gt;idle</title>
<path fill="none" stroke="#c1a78e" stroke-dasharray="5,2" d="M304.21,-1369.22C337.01,-1369.22 371.04,-1369.22 399.77,-1369.22"/>
<polygon fill="#c1a78e" stroke="#c1a78e" points="399.4,-1372.72 409.4,-1369.22 399.4,-1365.72 399.4,-1372.72"/>
<text xml:space="preserve" text-anchor="middle" x="357.5" y="-1374.92" font-family="Helvetica,sans-Serif" font-size="9.00" fill="#ece1d7">xacts_active == 0</text>
</g>
<!-- evict -->
<g id="node8" class="node">
<title>evict</title>
<path fill="#4d3a28" stroke="#6e6963" d="M284.38,-1221.09C284.38,-1221.09 64.38,-1221.09 64.38,-1221.09 58.38,-1221.09 52.37,-1215.09 52.37,-1209.09 52.37,-1209.09 52.37,-1135.84 52.37,-1135.84 52.37,-1129.84 58.37,-1123.84 64.37,-1123.84 64.37,-1123.84 284.38,-1123.84 284.38,-1123.84 290.38,-1123.84 296.38,-1129.84 296.38,-1135.84 296.38,-1135.84 296.38,-1209.09 296.38,-1209.09 296.38,-1215.09 290.38,-1221.09 284.38,-1221.09"/>
<text xml:space="preserve" text-anchor="middle" x="174.38" y="-1207.59" font-family="Helvetica,sans-Serif" font-size="10.00" fill="#ece1d7">maybe_evict</text>
<text xml:space="preserve" text-anchor="middle" x="174.38" y="-1194.84" font-family="Helvetica,sans-Serif" font-size="10.00" fill="#ece1d7">bytes_in_memory &gt; xact_buffer_max (64 MiB)</text>
<text xml:space="preserve" text-anchor="middle" x="174.38" y="-1182.09" font-family="Helvetica,sans-Serif" font-size="10.00" fill="#ece1d7">pick largest in&#45;mem xact</text>
<text xml:space="preserve" text-anchor="middle" x="174.38" y="-1169.34" font-family="Helvetica,sans-Serif" font-size="10.00" fill="#ece1d7">(mirrors PG ReorderBufferLargestTXN)</text>
<text xml:space="preserve" text-anchor="middle" x="174.38" y="-1156.59" font-family="Helvetica,sans-Serif" font-size="10.00" fill="#ece1d7">→ evict_xact: lazy&#45;open SpillWriter,</text>
<text xml:space="preserve" text-anchor="middle" x="174.38" y="-1143.84" font-family="Helvetica,sans-Serif" font-size="10.00" fill="#ece1d7">drain in_mem → write(entry), zero bytes</text>
<text xml:space="preserve" text-anchor="middle" x="174.38" y="-1131.09" font-family="Helvetica,sans-Serif" font-size="10.00" fill="#ece1d7">DrainEntry events stay in memory</text>
</g>
<!-- buf&#45;&gt;evict -->
<g id="edge6" class="edge">
<title>buf&#45;&gt;evict</title>
<path fill="none" stroke="#c1a78e" d="M174.38,-1283.37C174.38,-1266.29 174.38,-1248.7 174.38,-1232.72"/>
<polygon fill="#c1a78e" stroke="#c1a78e" points="177.88,-1232.93 174.38,-1222.93 170.88,-1232.93 177.88,-1232.93"/>
<text xml:space="preserve" text-anchor="middle" x="215.62" y="-1255.04" font-family="Helvetica,sans-Serif" font-size="9.00" fill="#ece1d7">after every absorb</text>
<text xml:space="preserve" text-anchor="middle" x="215.62" y="-1243.79" font-family="Helvetica,sans-Serif" font-size="9.00" fill="#ece1d7">while over budget</text>
</g>
<!-- safe -->
<g id="node15" class="node">
<title>safe</title>
<path fill="#4d3a28" stroke="#6e6963" d="M601.88,-592C601.88,-592 432.88,-592 432.88,-592 426.88,-592 420.88,-586 420.88,-580 420.88,-580 420.88,-557.75 420.88,-557.75 420.88,-551.75 426.88,-545.75 432.88,-545.75 432.88,-545.75 601.88,-545.75 601.88,-545.75 607.88,-545.75 613.88,-551.75 613.88,-557.75 613.88,-557.75 613.88,-580 613.88,-580 613.88,-586 607.88,-592 601.88,-592"/>
<text xml:space="preserve" text-anchor="middle" x="517.38" y="-578.5" font-family="Helvetica,sans-Serif" font-size="10.00" fill="#ece1d7">ack collector + transaction state</text>
<text xml:space="preserve" text-anchor="middle" x="517.38" y="-565.75" font-family="Helvetica,sans-Serif" font-size="10.00" fill="#ece1d7">choose safe restart point</text>
<text xml:space="preserve" text-anchor="middle" x="517.38" y="-553" font-family="Helvetica,sans-Serif" font-size="10.00" fill="#ece1d7">stay behind open or unfinished work</text>
</g>
<!-- buf&#45;&gt;safe -->
<g id="edge18" class="edge">
<title>buf&#45;&gt;safe</title>
<path fill="none" stroke="#b380b0" stroke-dasharray="1,5" d="M287.83,-1283.36C316.03,-1252.71 338.38,-1215.24 338.38,-1173.47 338.38,-1173.47 338.38,-1173.47 338.38,-665.38 338.38,-626.42 371.79,-603.3 409.74,-589.6"/>
<polygon fill="#b380b0" stroke="#b380b0" points="410.74,-592.96 419.11,-586.46 408.51,-586.32 410.74,-592.96"/>
<text xml:space="preserve" text-anchor="middle" x="378.88" y="-875.79" font-family="Helvetica,sans-Serif" font-size="9.00" fill="#ece1d7">open transactions</text>
</g>
<!-- subt&#45;&gt;merge -->
<g id="edge11" class="edge">
<title>subt&#45;&gt;merge</title>
<path fill="none" stroke="#c1a78e" stroke-dasharray="5,2" d="M941.55,-1345.91C935.79,-1320.31 925.41,-1277.22 913.38,-1241.09 891.21,-1174.56 859.91,-1100.45 837.84,-1050.59"/>
<polygon fill="#c1a78e" stroke="#c1a78e" points="841.16,-1049.43 833.89,-1041.71 834.76,-1052.27 841.16,-1049.43"/>
<text xml:space="preserve" text-anchor="middle" x="961" y="-1175.17" font-family="Helvetica,sans-Serif" font-size="9.00" fill="#ece1d7">(top + subxids)</text>
<text xml:space="preserve" text-anchor="middle" x="961" y="-1163.92" font-family="Helvetica,sans-Serif" font-size="9.00" fill="#ece1d7">authoritative on COMMIT</text>
</g>
<!-- spill -->
<g id="node9" class="node">
<title>spill</title>
<polygon fill="#4d3850" stroke="#6e6963" points="767.25,-1208.34 555.5,-1208.34 555.5,-1136.59 773.25,-1136.59 773.25,-1202.34 767.25,-1208.34"/>
<polyline fill="none" stroke="#6e6963" points="767.25,-1208.34 767.25,-1202.34"/>
<polyline fill="none" stroke="#6e6963" points="773.25,-1202.34 767.25,-1202.34"/>
<text xml:space="preserve" text-anchor="middle" x="664.38" y="-1194.84" font-family="Helvetica,sans-Serif" font-size="10.00" fill="#ece1d7">{spill}/xid&#45;{xid:010}&#45;{first_lsn:016X}.bin</text>
<text xml:space="preserve" text-anchor="middle" x="664.38" y="-1182.09" font-family="Helvetica,sans-Serif" font-size="10.00" fill="#ece1d7">[&quot;WS&quot; magic | u16 ver=4]</text>
<text xml:space="preserve" text-anchor="middle" x="664.38" y="-1169.34" font-family="Helvetica,sans-Serif" font-size="10.00" fill="#ece1d7">[tag u8 | u32 LE inner_len | body]*</text>
<text xml:space="preserve" text-anchor="middle" x="664.38" y="-1156.59" font-family="Helvetica,sans-Serif" font-size="10.00" fill="#ece1d7">0 Heap · 1 Chunk · 2 ToastDelete · 3 Raw</text>
<text xml:space="preserve" text-anchor="middle" x="664.38" y="-1143.84" font-family="Helvetica,sans-Serif" font-size="10.00" fill="#ece1d7">append&#45;only, fsync on finish</text>
</g>
<!-- abort&#45;&gt;spill -->
<g id="edge8" class="edge">
<title>abort&#45;&gt;spill</title>
<path fill="none" stroke="#6e6963" stroke-dasharray="5,2" d="M664.38,-1339.48C664.38,-1307.94 664.38,-1256.83 664.38,-1219.65"/>
<polygon fill="#6e6963" stroke="#6e6963" points="667.88,-1220.11 664.38,-1210.11 660.88,-1220.11 667.88,-1220.11"/>
<text xml:space="preserve" text-anchor="middle" x="678.25" y="-1249.42" font-family="Helvetica,sans-Serif" font-size="9.00" fill="#ece1d7">unlink</text>
</g>
<!-- abort&#45;&gt;safe -->
<g id="edge20" class="edge">
<title>abort&#45;&gt;safe</title>
<path fill="none" stroke="#b380b0" stroke-dasharray="1,5" d="M623.04,-1339.31C579.56,-1305.17 517.38,-1244 517.38,-1173.47 517.38,-1173.47 517.38,-1173.47 517.38,-665.38 517.38,-644.84 517.38,-621.82 517.38,-603.52"/>
<polygon fill="#b380b0" stroke="#b380b0" points="520.88,-603.77 517.38,-593.77 513.88,-603.77 520.88,-603.77"/>
</g>
<!-- idle&#45;&gt;safe -->
<g id="edge21" class="edge">
<title>idle&#45;&gt;safe</title>
<path fill="none" stroke="#b380b0" stroke-dasharray="1,5" d="M470.42,-1345.73C468.97,-1309.48 466.38,-1235.87 466.38,-1173.47 466.38,-1173.47 466.38,-1173.47 466.38,-665.38 466.38,-642.22 478.18,-619.24 490.44,-601.62"/>
<polygon fill="#b380b0" stroke="#b380b0" points="493.21,-603.76 496.32,-593.64 487.57,-599.61 493.21,-603.76"/>
</g>
<!-- evict&#45;&gt;spill -->
<g id="edge7" class="edge">
<title>evict&#45;&gt;spill</title>
<path fill="none" stroke="#6e6963" stroke-dasharray="5,2" d="M296.76,-1172.47C372.25,-1172.47 468.68,-1172.47 543.83,-1172.47"/>
<polygon fill="#6e6963" stroke="#6e6963" points="543.72,-1175.97 553.72,-1172.47 543.72,-1168.97 543.72,-1175.97"/>
<text xml:space="preserve" text-anchor="middle" x="425.94" y="-1178.17" font-family="Helvetica,sans-Serif" font-size="9.00" fill="#ece1d7">SpillWriter::write</text>
</g>
<!-- spill&#45;&gt;merge -->
<g id="edge12" class="edge">
<title>spill&#45;&gt;merge</title>
<path fill="none" stroke="#6e6963" stroke-dasharray="5,2" d="M681.39,-1136.1C690.49,-1118.81 702.55,-1098.15 715.88,-1081.34 724.96,-1069.89 735.53,-1058.56 746.26,-1048.02"/>
<polygon fill="#6e6963" stroke="#6e6963" points="748.6,-1050.63 753.39,-1041.17 743.75,-1045.58 748.6,-1050.63"/>
<text xml:space="preserve" text-anchor="middle" x="754.12" y="-1095.29" font-family="Helvetica,sans-Serif" font-size="9.00" fill="#ece1d7">SpillReader::next</text>
<text xml:space="preserve" text-anchor="middle" x="754.12" y="-1084.04" font-family="Helvetica,sans-Serif" font-size="9.00" fill="#ece1d7">then unlink</text>
</g>
<!-- dispatch -->
<g id="node11" class="node">
<title>dispatch</title>
<path fill="#4d4128" stroke="#6e6963" d="M897,-901.84C897,-901.84 725.75,-901.84 725.75,-901.84 719.75,-901.84 713.75,-895.84 713.75,-889.84 713.75,-889.84 713.75,-867.59 713.75,-867.59 713.75,-861.59 719.75,-855.59 725.75,-855.59 725.75,-855.59 897,-855.59 897,-855.59 903,-855.59 909,-861.59 909,-867.59 909,-867.59 909,-889.84 909,-889.84 909,-895.84 903,-901.84 897,-901.84"/>
<text xml:space="preserve" text-anchor="middle" x="811.38" y="-888.34" font-family="Helvetica,sans-Serif" font-size="10.00" fill="#ece1d7">bounded committed batches</text>
<text xml:space="preserve" text-anchor="middle" x="811.38" y="-875.59" font-family="Helvetica,sans-Serif" font-size="10.00" fill="#ece1d7">one shared walk keeps rows, TOAST,</text>
<text xml:space="preserve" text-anchor="middle" x="811.38" y="-862.84" font-family="Helvetica,sans-Serif" font-size="10.00" fill="#ece1d7">and table changes in WAL order</text>
</g>
<!-- merge&#45;&gt;dispatch -->
<g id="edge9" class="edge">
<title>merge&#45;&gt;dispatch</title>
<path fill="none" stroke="#c1a78e" d="M811.38,-942.54C811.38,-932.78 811.38,-922.71 811.38,-913.57"/>
<polygon fill="#c1a78e" stroke="#c1a78e" points="814.88,-913.7 811.38,-903.7 807.88,-913.7 814.88,-913.7"/>
</g>
<!-- detoast -->
<g id="node12" class="node">
<title>detoast</title>
<path fill="#4d4128" stroke="#6e6963" d="M1077.88,-795.67C1077.88,-795.67 968.88,-795.67 968.88,-795.67 962.88,-795.67 956.88,-789.67 956.88,-783.67 956.88,-783.67 956.88,-761.42 956.88,-761.42 956.88,-755.42 962.88,-749.42 968.88,-749.42 968.88,-749.42 1077.88,-749.42 1077.88,-749.42 1083.88,-749.42 1089.88,-755.42 1089.88,-761.42 1089.88,-761.42 1089.88,-783.67 1089.88,-783.67 1089.88,-789.67 1083.88,-795.67 1077.88,-795.67"/>
<text xml:space="preserve" text-anchor="middle" x="1023.38" y="-782.17" font-family="Helvetica,sans-Serif" font-size="10.00" fill="#ece1d7">resolve large values</text>
<text xml:space="preserve" text-anchor="middle" x="1023.38" y="-769.42" font-family="Helvetica,sans-Serif" font-size="10.00" fill="#ece1d7">current transaction first,</text>
<text xml:space="preserve" text-anchor="middle" x="1023.38" y="-756.67" font-family="Helvetica,sans-Serif" font-size="10.00" fill="#ece1d7">mirror history second</text>
</g>
<!-- dispatch&#45;&gt;detoast -->
<g id="edge13" class="edge">
<title>dispatch&#45;&gt;detoast</title>
<path fill="none" stroke="#bf8c5f" stroke-width="2" d="M857.38,-855.12C889.18,-839.48 931.74,-818.57 965.8,-801.84"/>
<polygon fill="#bf8c5f" stroke="#bf8c5f" stroke-width="2" points="967.32,-804.99 974.75,-797.44 964.23,-798.71 967.32,-804.99"/>
<text xml:space="preserve" text-anchor="middle" x="927.88" y="-827.04" font-family="Helvetica,sans-Serif" font-size="9.00" fill="#ece1d7">rows</text>
</g>
<!-- consumer -->
<g id="node13" class="node">
<title>consumer</title>
<path fill="#5d4628" stroke="#6e6963" d="M1045,-689.5C1045,-689.5 855.75,-689.5 855.75,-689.5 849.75,-689.5 843.75,-683.5 843.75,-677.5 843.75,-677.5 843.75,-655.25 843.75,-655.25 843.75,-649.25 849.75,-643.25 855.75,-643.25 855.75,-643.25 1045,-643.25 1045,-643.25 1051,-643.25 1057,-649.25 1057,-655.25 1057,-655.25 1057,-677.5 1057,-677.5 1057,-683.5 1051,-689.5 1045,-689.5"/>
<text xml:space="preserve" text-anchor="middle" x="950.38" y="-676" font-family="Helvetica,sans-Serif" font-size="10.00" fill="#ece1d7">shared consumers</text>
<text xml:space="preserve" text-anchor="middle" x="950.38" y="-663.25" font-family="Helvetica,sans-Serif" font-size="10.00" fill="#ece1d7">live pipeline: ClickHouse or metrics only</text>
<text xml:space="preserve" text-anchor="middle" x="950.38" y="-650.5" font-family="Helvetica,sans-Serif" font-size="10.00" fill="#ece1d7">backup replay: same ordered walk</text>
</g>
<!-- dispatch&#45;&gt;consumer -->
<g id="edge15" class="edge">
<title>dispatch&#45;&gt;consumer</title>
<path fill="none" stroke="#bf8c5f" stroke-dasharray="5,2" d="M820.32,-855.25C832.03,-827.16 854.22,-778.21 880.62,-740.75 891.34,-725.55 905.12,-710.38 917.59,-697.81"/>
<polygon fill="#bf8c5f" stroke="#bf8c5f" points="919.82,-700.53 924.48,-691.01 914.9,-695.55 919.82,-700.53"/>
<text xml:space="preserve" text-anchor="middle" x="912.5" y="-769.62" font-family="Helvetica,sans-Serif" font-size="9.00" fill="#ece1d7">table changes</text>
</g>
<!-- store -->
<g id="node14" class="node">
<title>store</title>
<path fill="#5d4628" stroke="#6e6963" d="M766.88,-798.56C766.88,-801.75 719.59,-804.34 661.38,-804.34 603.16,-804.34 555.88,-801.75 555.88,-798.56 555.88,-798.56 555.88,-746.53 555.88,-746.53 555.88,-743.34 603.16,-740.75 661.38,-740.75 719.59,-740.75 766.88,-743.34 766.88,-746.53 766.88,-746.53 766.88,-798.56 766.88,-798.56"/>
<path fill="none" stroke="#6e6963" d="M766.88,-798.56C766.88,-795.37 719.59,-792.78 661.38,-792.78 603.16,-792.78 555.88,-795.37 555.88,-798.56"/>
<text xml:space="preserve" text-anchor="middle" x="661.38" y="-782.17" font-family="Helvetica,sans-Serif" font-size="10.00" fill="#ece1d7">TOAST mirror</text>
<text xml:space="preserve" text-anchor="middle" x="661.38" y="-769.42" font-family="Helvetica,sans-Serif" font-size="10.00" fill="#ece1d7">save changes before publishing commit</text>
<text xml:space="preserve" text-anchor="middle" x="661.38" y="-756.67" font-family="Helvetica,sans-Serif" font-size="10.00" fill="#ece1d7">interleave table wipes and rewrites</text>
</g>
<!-- dispatch&#45;&gt;store -->
<g id="edge16" class="edge">
<title>dispatch&#45;&gt;store</title>
<path fill="none" stroke="#bf8c5f" stroke-dasharray="5,2" d="M749.59,-855.2C737.88,-849.64 726.1,-843.1 715.88,-835.59 707.3,-829.31 699.12,-821.45 691.82,-813.47"/>
<polygon fill="#bf8c5f" stroke="#bf8c5f" points="694.48,-811.2 685.27,-805.96 689.21,-815.8 694.48,-811.2"/>
<text xml:space="preserve" text-anchor="middle" x="751.12" y="-827.04" font-family="Helvetica,sans-Serif" font-size="9.00" fill="#ece1d7">TOAST changes</text>
</g>
<!-- dispatch&#45;&gt;safe -->
<g id="edge19" class="edge">
<title>dispatch&#45;&gt;safe</title>
<path fill="none" stroke="#b380b0" stroke-dasharray="1,5" d="M811.13,-855.27C809.78,-826.32 803.76,-775.55 779.38,-740.75 731.36,-672.22 646.23,-624.28 586.05,-596.97"/>
<polygon fill="#b380b0" stroke="#b380b0" points="587.81,-593.93 577.26,-593.06 584.97,-600.32 587.81,-593.93"/>
<text xml:space="preserve" text-anchor="middle" x="780.8" y="-712.2" font-family="Helvetica,sans-Serif" font-size="9.00" fill="#ece1d7">drained</text>
</g>
<!-- detoast&#45;&gt;consumer -->
<g id="edge14" class="edge">
<title>detoast&#45;&gt;consumer</title>
<path fill="none" stroke="#bf8c5f" stroke-width="2" d="M1007.54,-748.94C997.59,-734.75 984.58,-716.19 973.49,-700.37"/>
<polygon fill="#bf8c5f" stroke="#bf8c5f" stroke-width="2" points="976.53,-698.59 967.92,-692.41 970.79,-702.61 976.53,-698.59"/>
<text xml:space="preserve" text-anchor="middle" x="1018.38" y="-712.2" font-family="Helvetica,sans-Serif" font-size="9.00" fill="#ece1d7">decoded rows</text>
</g>
<!-- consumer&#45;&gt;safe -->
<g id="edge17" class="edge">
<title>consumer&#45;&gt;safe</title>
<path fill="none" stroke="#b380b0" stroke-dasharray="1,5" d="M905.33,-642.86C881.76,-631.97 852.09,-619.63 824.38,-612 759.56,-594.17 684.89,-583.71 625.41,-577.67"/>
<polygon fill="#b380b0" stroke="#b380b0" points="625.91,-574.2 615.61,-576.71 625.22,-581.17 625.91,-574.2"/>
<text xml:space="preserve" text-anchor="middle" x="910.07" y="-614.7" font-family="Helvetica,sans-Serif" font-size="9.00" fill="#ece1d7">downstream completed</text>
</g>
<!-- manifest -->
<g id="node16" class="node">
<title>manifest</title>
<polygon fill="#4d3850" stroke="#6e6963" points="565.5,-494.5 463.25,-494.5 463.25,-458.5 571.5,-458.5 571.5,-488.5 565.5,-494.5"/>
<polyline fill="none" stroke="#6e6963" points="565.5,-494.5 565.5,-488.5"/>
<polyline fill="none" stroke="#6e6963" points="571.5,-488.5 565.5,-488.5"/>
<text xml:space="preserve" text-anchor="middle" x="517.38" y="-479.75" font-family="Helvetica,sans-Serif" font-size="10.00" fill="#ece1d7">manifest.toml</text>
<text xml:space="preserve" text-anchor="middle" x="517.38" y="-467" font-family="Helvetica,sans-Serif" font-size="10.00" fill="#ece1d7">saved restart state</text>
</g>
<!-- safe&#45;&gt;manifest -->
<g id="edge22" class="edge">
<title>safe&#45;&gt;manifest</title>
<path fill="none" stroke="#b380b0" stroke-width="2" stroke-dasharray="1,5" d="M517.38,-545.54C517.38,-534.14 517.38,-520.12 517.38,-507.77"/>
<polygon fill="#b380b0" stroke="#b380b0" stroke-width="2" points="520.88,-507.8 517.38,-497.8 513.88,-507.8 520.88,-507.8"/>
<text xml:space="preserve" text-anchor="middle" x="548.88" y="-517.2" font-family="Helvetica,sans-Serif" font-size="9.00" fill="#ece1d7">status update</text>
</g>
<!-- legend -->
<g id="node17" class="node">
<title>legend</title>
<path fill="#6e6963" stroke="none" d="M722,-417.5C722,-417.5 312.75,-417.5 312.75,-417.5 306.75,-417.5 300.75,-411.5 300.75,-405.5 300.75,-405.5 300.75,-12 300.75,-12 300.75,-6 306.75,0 312.75,0 312.75,0 722,0 722,0 728,0 734,-6 734,-12 734,-12 734,-405.5 734,-405.5 734,-411.5 728,-417.5 722,-417.5"/>
<polygon fill="#34302c" stroke="none" points="308.75,-390.75 308.75,-413.5 726,-413.5 726,-390.75 308.75,-390.75"/>
<polygon fill="none" stroke="#6e6963" points="308.75,-390.75 308.75,-413.5 726,-413.5 726,-390.75 308.75,-390.75"/>
<text xml:space="preserve" text-anchor="start" x="474.25" y="-400" font-family="Helvetica,sans-Serif" font-weight="bold" font-size="10.00" fill="#ece1d7">node fill — role</text>
<polygon fill="#3d3d54" stroke="none" points="308.75,-368 308.75,-390.75 415.38,-390.75 415.38,-368 308.75,-368"/>
<polygon fill="none" stroke="#6e6963" points="308.75,-368 308.75,-390.75 415.38,-390.75 415.38,-368 308.75,-368"/>
<polygon fill="none" stroke="#6e6963" points="415.38,-368 415.38,-390.75 726,-390.75 726,-368 415.38,-368"/>
<text xml:space="preserve" text-anchor="start" x="493.06" y="-376" font-family="Helvetica,sans-Serif" font-size="10.00" fill="#ece1d7">source PG / XLOG_XACT records</text>
<polygon fill="#4d3a28" stroke="none" points="308.75,-345.25 308.75,-368 415.38,-368 415.38,-345.25 308.75,-345.25"/>
<polygon fill="none" stroke="#6e6963" points="308.75,-345.25 308.75,-368 415.38,-368 415.38,-345.25 308.75,-345.25"/>
<polygon fill="none" stroke="#6e6963" points="415.38,-345.25 415.38,-368 726,-368 726,-345.25 415.38,-345.25"/>
<text xml:space="preserve" text-anchor="start" x="486.31" y="-353.25" font-family="Helvetica,sans-Serif" font-size="10.00" fill="#ece1d7">eviction policy (sync, after absorb)</text>
<polygon fill="#4d4128" stroke="none" points="308.75,-322.5 308.75,-345.25 415.38,-345.25 415.38,-322.5 308.75,-322.5"/>
<polygon fill="none" stroke="#6e6963" points="308.75,-322.5 308.75,-345.25 415.38,-345.25 415.38,-322.5 308.75,-322.5"/>
<polygon fill="none" stroke="#6e6963" points="415.38,-322.5 415.38,-345.25 726,-345.25 726,-322.5 415.38,-322.5"/>
<text xml:space="preserve" text-anchor="start" x="504.31" y="-330.5" font-family="Helvetica,sans-Serif" font-size="10.00" fill="#ece1d7">XactBuffer / decoder / drain</text>
<polygon fill="#4d4d28" stroke="none" points="308.75,-299.75 308.75,-322.5 415.38,-322.5 415.38,-299.75 308.75,-299.75"/>
<polygon fill="none" stroke="#6e6963" points="308.75,-299.75 308.75,-322.5 415.38,-322.5 415.38,-299.75 308.75,-299.75"/>
<polygon fill="none" stroke="#6e6963" points="415.38,-299.75 415.38,-322.5 726,-322.5 726,-299.75 415.38,-299.75"/>
<text xml:space="preserve" text-anchor="start" x="488.19" y="-307.75" font-family="Helvetica,sans-Serif" font-size="10.00" fill="#ece1d7">ShadowCatalog schema_event_tx</text>
<polygon fill="#5d4628" stroke="none" points="308.75,-277 308.75,-299.75 415.38,-299.75 415.38,-277 308.75,-277"/>
<polygon fill="none" stroke="#6e6963" points="308.75,-277 308.75,-299.75 415.38,-299.75 415.38,-277 308.75,-277"/>
<polygon fill="none" stroke="#6e6963" points="415.38,-277 415.38,-299.75 726,-299.75 726,-277 415.38,-277"/>
<text xml:space="preserve" text-anchor="start" x="459.69" y="-285" font-family="Helvetica,sans-Serif" font-size="10.00" fill="#ece1d7">downstream consumer (pipeline / gap replay)</text>
<polygon fill="#4d3850" stroke="none" points="308.75,-254.25 308.75,-277 415.38,-277 415.38,-254.25 308.75,-254.25"/>
<polygon fill="none" stroke="#6e6963" points="308.75,-254.25 308.75,-277 415.38,-277 415.38,-254.25 308.75,-254.25"/>
<polygon fill="none" stroke="#6e6963" points="415.38,-254.25 415.38,-277 726,-277 726,-254.25 415.38,-254.25"/>
<text xml:space="preserve" text-anchor="start" x="491.94" y="-262.25" font-family="Helvetica,sans-Serif" font-size="10.00" fill="#ece1d7">on&#45;disk artifact (spill / manifest)</text>
<polygon fill="#34302c" stroke="none" points="308.75,-231.5 308.75,-254.25 726,-254.25 726,-231.5 308.75,-231.5"/>
<polygon fill="none" stroke="#6e6963" points="308.75,-231.5 308.75,-254.25 726,-254.25 726,-231.5 308.75,-231.5"/>
<text xml:space="preserve" text-anchor="start" x="483.62" y="-240.75" font-family="Helvetica,sans-Serif" font-weight="bold" font-size="10.00" fill="#ece1d7">edge colour</text>
<polygon fill="none" stroke="#6e6963" points="308.75,-208.75 308.75,-231.5 415.38,-231.5 415.38,-208.75 308.75,-208.75"/>
<text xml:space="preserve" text-anchor="start" x="356.06" y="-218" font-family="Helvetica,sans-Serif" font-weight="bold" font-size="10.00" fill="#c1a78e">━━</text>
<polygon fill="none" stroke="#6e6963" points="415.38,-208.75 415.38,-231.5 726,-231.5 726,-208.75 415.38,-208.75"/>
<text xml:space="preserve" text-anchor="start" x="502.06" y="-216.75" font-family="Helvetica,sans-Serif" font-size="10.00" fill="#ece1d7">buffer&#45;internal control / data</text>
<polygon fill="none" stroke="#6e6963" points="308.75,-186 308.75,-208.75 415.38,-208.75 415.38,-186 308.75,-186"/>
<text xml:space="preserve" text-anchor="start" x="356.06" y="-195.25" font-family="Helvetica,sans-Serif" font-weight="bold" font-size="10.00" fill="#cba85e">┄┄</text>
<polygon fill="none" stroke="#6e6963" points="415.38,-186 415.38,-208.75 726,-208.75 726,-186 415.38,-186"/>
<text xml:space="preserve" text-anchor="start" x="500.56" y="-194" font-family="Helvetica,sans-Serif" font-size="10.00" fill="#ece1d7">schema event (lsn&#45;stamped)</text>
<polygon fill="none" stroke="#6e6963" points="308.75,-163.25 308.75,-186 415.38,-186 415.38,-163.25 308.75,-163.25"/>
<text xml:space="preserve" text-anchor="start" x="356.06" y="-172.5" font-family="Helvetica,sans-Serif" font-weight="bold" font-size="10.00" fill="#bf8c5f">━━</text>
<polygon fill="none" stroke="#6e6963" points="415.38,-163.25 415.38,-186 726,-186 726,-163.25 415.38,-163.25"/>
<text xml:space="preserve" text-anchor="start" x="469.06" y="-171.25" font-family="Helvetica,sans-Serif" font-size="10.00" fill="#ece1d7">walk steps to pipeline / replay consumers</text>
<polygon fill="none" stroke="#6e6963" points="308.75,-140.5 308.75,-163.25 415.38,-163.25 415.38,-140.5 308.75,-140.5"/>
<text xml:space="preserve" text-anchor="start" x="356.06" y="-149.75" font-family="Helvetica,sans-Serif" font-weight="bold" font-size="10.00" fill="#6e6963">┄┄</text>
<polygon fill="none" stroke="#6e6963" points="415.38,-140.5 415.38,-163.25 726,-163.25 726,-140.5 415.38,-140.5"/>
<text xml:space="preserve" text-anchor="start" x="492.31" y="-148.5" font-family="Helvetica,sans-Serif" font-size="10.00" fill="#ece1d7">spill file IO (write / read / unlink)</text>
<polygon fill="none" stroke="#6e6963" points="308.75,-117.75 308.75,-140.5 415.38,-140.5 415.38,-117.75 308.75,-117.75"/>
<text xml:space="preserve" text-anchor="start" x="356.44" y="-127" font-family="Helvetica,sans-Serif" font-weight="bold" font-size="10.00" fill="#b380b0">···</text>
<polygon fill="none" stroke="#6e6963" points="415.38,-117.75 415.38,-140.5 726,-140.5 726,-117.75 415.38,-117.75"/>
<text xml:space="preserve" text-anchor="start" x="508.44" y="-125.75" font-family="Helvetica,sans-Serif" font-size="10.00" fill="#ece1d7">ack + manifest durability</text>
<polygon fill="#34302c" stroke="none" points="308.75,-95 308.75,-117.75 726,-117.75 726,-95 308.75,-95"/>
<polygon fill="none" stroke="#6e6963" points="308.75,-95 308.75,-117.75 726,-117.75 726,-95 308.75,-95"/>
<text xml:space="preserve" text-anchor="start" x="430.75" y="-104.25" font-family="Helvetica,sans-Serif" font-weight="bold" font-size="10.00" fill="#ece1d7">k&#45;way merge — ordering rules</text>
<polygon fill="none" stroke="#6e6963" points="308.75,-72.25 308.75,-95 726,-95 726,-72.25 308.75,-72.25"/>
<text xml:space="preserve" text-anchor="start" x="439.75" y="-80.25" font-family="Helvetica,sans-Serif" font-size="10.00" fill="#ece1d7">heads sorted ASC by source_lsn</text>
<polygon fill="none" stroke="#6e6963" points="308.75,-49.5 308.75,-72.25 726,-72.25 726,-49.5 308.75,-49.5"/>
<text xml:space="preserve" text-anchor="start" x="377.88" y="-57.5" font-family="Helvetica,sans-Serif" font-size="10.00" fill="#ece1d7">tie: catalog event BEFORE tuple (PG writes pg_class first)</text>
<polygon fill="none" stroke="#6e6963" points="308.75,-26.75 308.75,-49.5 726,-49.5 726,-26.75 308.75,-26.75"/>
<text xml:space="preserve" text-anchor="start" x="313.75" y="-34.75" font-family="Helvetica,sans-Serif" font-size="10.00" fill="#ece1d7">heaps detoast post&#45;merge; chunk maps resolve rows; ToastRows persist separately</text>
<polygon fill="none" stroke="#6e6963" points="308.75,-4 308.75,-26.75 726,-26.75 726,-4 308.75,-4"/>
<text xml:space="preserve" text-anchor="start" x="362.12" y="-12" font-family="Helvetica,sans-Serif" font-size="10.00" fill="#ece1d7">saved restart point never passes open or unfinished transaction</text>
</g>
<!-- manifest&#45;&gt;legend -->
</g>
</svg>
