<?xml version="1.0" encoding="UTF-8" standalone="no"?>
<!DOCTYPE svg PUBLIC "-//W3C//DTD SVG 1.1//EN"
 "http://www.w3.org/Graphics/SVG/1.1/DTD/svg11.dtd">
<!-- Generated by graphviz version 14.1.5 (0)
 -->
<!-- Title: xact Pages: 1 -->
<svg width="1154pt" height="1589pt"
 viewBox="0.00 0.00 1154.00 1589.00" xmlns="http://www.w3.org/2000/svg" xmlns:xlink="http://www.w3.org/1999/xlink">
<g id="graph0" class="graph" transform="scale(1 1) rotate(0) translate(4 1585.25)">
<title>xact</title>
<polygon fill="#272623" stroke="none" points="-4,4 -4,-1585.25 1150.4,-1585.25 1150.4,4 -4,4"/>
<text xml:space="preserve" text-anchor="middle" x="573.2" y="-1563.95" font-family="Helvetica,sans-Serif" font-size="14.00" fill="#ece1d7">walshadow — XactBuffer + spill + commit drain</text>
<g id="clust4" class="cluster">
<title>cluster_drain</title>
<path fill="#34302c" stroke="#4c4641" d="M722.38,-695C722.38,-695 1112.38,-695 1112.38,-695 1118.38,-695 1124.38,-701 1124.38,-707 1124.38,-707 1124.38,-1059.75 1124.38,-1059.75 1124.38,-1065.75 1118.38,-1071.75 1112.38,-1071.75 1112.38,-1071.75 722.38,-1071.75 722.38,-1071.75 716.38,-1071.75 710.38,-1065.75 710.38,-1059.75 710.38,-1059.75 710.38,-707 710.38,-707 710.38,-701 716.38,-695 722.38,-695"/>
<text xml:space="preserve" text-anchor="middle" x="917.38" y="-1054.45" font-family="Helvetica,sans-Serif" font-size="14.00" fill="#ece1d7">commit(top_xid, ts, commit_lsn, subxids) — k&#45;way merge</text>
</g>
<!-- catevt -->
<g id="node1" class="node">
<title>catevt</title>
<path fill="#4d4d28" stroke="#6e6963" d="M334.75,-1549.62C334.75,-1549.62 210,-1549.62 210,-1549.62 204,-1549.62 198,-1543.62 198,-1537.62 198,-1537.62 198,-1515.38 198,-1515.38 198,-1509.38 204,-1503.38 210,-1503.38 210,-1503.38 334.75,-1503.38 334.75,-1503.38 340.75,-1503.38 346.75,-1509.38 346.75,-1515.38 346.75,-1515.38 346.75,-1537.62 346.75,-1537.62 346.75,-1543.62 340.75,-1549.62 334.75,-1549.62"/>
<text xml:space="preserve" text-anchor="middle" x="272.38" y="-1536.12" font-family="Helvetica,sans-Serif" font-size="10.00" fill="#ece1d7">ShadowCatalog</text>
<text xml:space="preserve" text-anchor="middle" x="272.38" y="-1523.38" font-family="Helvetica,sans-Serif" font-size="10.00" fill="#ece1d7">schema_event_tx</text>
<text xml:space="preserve" text-anchor="middle" x="272.38" y="-1510.62" font-family="Helvetica,sans-Serif" font-size="10.00" fill="#ece1d7">Added / Changed / Dropped</text>
</g>
<!-- buf -->
<g id="node4" class="node">
<title>buf</title>
<path fill="#4d4128" stroke="#6e6963" d="M303.5,-1434.5C303.5,-1434.5 55.25,-1434.5 55.25,-1434.5 49.25,-1434.5 43.25,-1428.5 43.25,-1422.5 43.25,-1422.5 43.25,-1294 43.25,-1294 43.25,-1288 49.25,-1282 55.25,-1282 55.25,-1282 303.5,-1282 303.5,-1282 309.5,-1282 315.5,-1288 315.5,-1294 315.5,-1294 315.5,-1422.5 315.5,-1422.5 315.5,-1428.5 309.5,-1434.5 303.5,-1434.5"/>
<text xml:space="preserve" text-anchor="start" x="55.25" y="-1418" font-family="Helvetica,sans-Serif" font-weight="bold" font-size="10.00" fill="#ece1d7">XactBuffer</text>
<text xml:space="preserve" text-anchor="start" x="55.25" y="-1398" font-family="Helvetica,sans-Serif" font-size="10.00" fill="#ece1d7">inflight: HashMap&lt;xid, XactState&gt;</text>
<text xml:space="preserve" text-anchor="start" x="55.25" y="-1379.25" font-family="Helvetica,sans-Serif" font-size="10.00" fill="#ece1d7">bytes_in_memory · stats · store: SpillStore</text>
<text xml:space="preserve" text-anchor="start" x="55.25" y="-1362.7" font-family="Helvetica,sans-Serif" font-style="italic" font-size="9.00" fill="#ece1d7">XactState (per xid):</text>
<text xml:space="preserve" text-anchor="start" x="55.25" y="-1344" font-family="Helvetica,sans-Serif" font-size="9.00" fill="#ece1d7">first_lsn · in_mem: Vec&lt;SpillEntry&gt; · in_mem_bytes</text>
<text xml:space="preserve" text-anchor="start" x="55.25" y="-1326.75" font-family="Helvetica,sans-Serif" font-size="9.00" fill="#ece1d7">spill: Option&lt;SpillWriter&gt; · spill_bytes</text>
<text xml:space="preserve" text-anchor="start" x="55.25" y="-1309.5" font-family="Helvetica,sans-Serif" font-size="9.00" fill="#ece1d7">catalog_events: Vec&lt;(lsn, SchemaEvent)&gt;</text>
<text xml:space="preserve" text-anchor="start" x="55.25" y="-1292.25" font-family="Helvetica,sans-Serif" font-size="9.00" fill="#ece1d7">SpillEntry = Heap(DecodedHeap) | Chunk(ToastChunk)</text>
</g>
<!-- catevt&#45;&gt;buf -->
<g id="edge1" class="edge">
<title>catevt&#45;&gt;buf</title>
<path fill="none" stroke="#cba85e" stroke-dasharray="5,2" d="M259.83,-1503.08C251.23,-1487.71 239.23,-1466.25 227.11,-1444.58"/>
<polygon fill="#cba85e" stroke="#cba85e" points="230.22,-1442.98 222.29,-1435.96 224.11,-1446.39 230.22,-1442.98"/>
<text xml:space="preserve" text-anchor="middle" x="290.27" y="-1468.45" font-family="Helvetica,sans-Serif" font-size="9.00" fill="#ece1d7">on_schema_event</text>
<text xml:space="preserve" text-anchor="middle" x="290.27" y="-1457.2" font-family="Helvetica,sans-Serif" font-size="9.00" fill="#ece1d7">(xid, source_lsn, ev)</text>
</g>
<!-- decoder -->
<g id="node2" class="node">
<title>decoder</title>
<path fill="#4d4128" stroke="#6e6963" d="M160.75,-1549.62C160.75,-1549.62 12,-1549.62 12,-1549.62 6,-1549.62 0,-1543.62 0,-1537.62 0,-1537.62 0,-1515.38 0,-1515.38 0,-1509.38 6,-1503.38 12,-1503.38 12,-1503.38 160.75,-1503.38 160.75,-1503.38 166.75,-1503.38 172.75,-1509.38 172.75,-1515.38 172.75,-1515.38 172.75,-1537.62 172.75,-1537.62 172.75,-1543.62 166.75,-1549.62 160.75,-1549.62"/>
<text xml:space="preserve" text-anchor="middle" x="86.38" y="-1536.12" font-family="Helvetica,sans-Serif" font-size="10.00" fill="#ece1d7">BufferingDecoderSink</text>
<text xml:space="preserve" text-anchor="middle" x="86.38" y="-1523.38" font-family="Helvetica,sans-Serif" font-size="10.00" fill="#ece1d7">heap_decoder + TOAST reshape</text>
<text xml:space="preserve" text-anchor="middle" x="86.38" y="-1510.62" font-family="Helvetica,sans-Serif" font-size="10.00" fill="#ece1d7">stamps source_lsn, xid</text>
</g>
<!-- decoder&#45;&gt;buf -->
<g id="edge2" class="edge">
<title>decoder&#45;&gt;buf</title>
<path fill="none" stroke="#c1a78e" d="M98.92,-1503.08C107.52,-1487.71 119.52,-1466.25 131.64,-1444.58"/>
<polygon fill="#c1a78e" stroke="#c1a78e" points="134.64,-1446.39 136.46,-1435.96 128.53,-1442.98 134.64,-1446.39"/>
<text xml:space="preserve" text-anchor="middle" x="172.17" y="-1462.83" font-family="Helvetica,sans-Serif" font-size="9.00" fill="#ece1d7">absorb Heap / Chunk</text>
</g>
<!-- xaclog -->
<g id="node3" class="node">
<title>xaclog</title>
<path fill="#3d3d54" stroke="#6e6963" d="M969.62,-1556C969.62,-1556 817.12,-1556 817.12,-1556 811.12,-1556 805.12,-1550 805.12,-1544 805.12,-1544 805.12,-1509 805.12,-1509 805.12,-1503 811.12,-1497 817.12,-1497 817.12,-1497 969.62,-1497 969.62,-1497 975.62,-1497 981.62,-1503 981.62,-1509 981.62,-1509 981.62,-1544 981.62,-1544 981.62,-1550 975.62,-1556 969.62,-1556"/>
<text xml:space="preserve" text-anchor="middle" x="893.38" y="-1542.5" font-family="Helvetica,sans-Serif" font-size="10.00" fill="#ece1d7">XLOG_XACT_*</text>
<text xml:space="preserve" text-anchor="middle" x="893.38" y="-1529.75" font-family="Helvetica,sans-Serif" font-size="10.00" fill="#ece1d7">ASSIGNMENT 0x50 (hint)</text>
<text xml:space="preserve" text-anchor="middle" x="893.38" y="-1517" font-family="Helvetica,sans-Serif" font-size="10.00" fill="#ece1d7">COMMIT 0x00 / _PREPARED 0x30</text>
<text xml:space="preserve" text-anchor="middle" x="893.38" y="-1504.25" font-family="Helvetica,sans-Serif" font-size="10.00" fill="#ece1d7">ABORT &#160;0x20 / _PREPARED &#160;0x40</text>
</g>
<!-- subt -->
<g id="node5" class="node">
<title>subt</title>
<path fill="#4d4128" stroke="#6e6963" d="M978.25,-1381.38C978.25,-1381.38 808.5,-1381.38 808.5,-1381.38 802.5,-1381.38 796.5,-1375.38 796.5,-1369.38 796.5,-1369.38 796.5,-1347.12 796.5,-1347.12 796.5,-1341.12 802.5,-1335.12 808.5,-1335.12 808.5,-1335.12 978.25,-1335.12 978.25,-1335.12 984.25,-1335.12 990.25,-1341.12 990.25,-1347.12 990.25,-1347.12 990.25,-1369.38 990.25,-1369.38 990.25,-1375.38 984.25,-1381.38 978.25,-1381.38"/>
<text xml:space="preserve" text-anchor="middle" x="893.38" y="-1367.88" font-family="Helvetica,sans-Serif" font-size="10.00" fill="#ece1d7">SubxactTracker</text>
<text xml:space="preserve" text-anchor="middle" x="893.38" y="-1355.12" font-family="Helvetica,sans-Serif" font-size="10.00" fill="#ece1d7">parent: HashMap&lt;xid, top&gt;</text>
<text xml:space="preserve" text-anchor="middle" x="893.38" y="-1342.38" font-family="Helvetica,sans-Serif" font-size="10.00" fill="#ece1d7">children: HashMap&lt;top, Vec&lt;xid&gt;&gt;</text>
</g>
<!-- xaclog&#45;&gt;subt -->
<g id="edge3" class="edge">
<title>xaclog&#45;&gt;subt</title>
<path fill="none" stroke="#c1a78e" d="M893.38,-1496.54C893.38,-1467.71 893.38,-1423.49 893.38,-1393.07"/>
<polygon fill="#c1a78e" stroke="#c1a78e" points="896.88,-1393.27 893.38,-1383.27 889.88,-1393.27 896.88,-1393.27"/>
<text xml:space="preserve" text-anchor="middle" x="947" y="-1468.45" font-family="Helvetica,sans-Serif" font-size="9.00" fill="#ece1d7">ASSIGNMENT 0x50</text>
<text xml:space="preserve" text-anchor="middle" x="947" y="-1457.2" font-family="Helvetica,sans-Serif" font-size="9.00" fill="#ece1d7">add_subxact(top, subs)</text>
</g>
<!-- abort -->
<g id="node6" class="node">
<title>abort</title>
<path fill="#4d4128" stroke="#6e6963" d="M759.62,-1394.12C759.62,-1394.12 625.12,-1394.12 625.12,-1394.12 619.12,-1394.12 613.12,-1388.12 613.12,-1382.12 613.12,-1382.12 613.12,-1334.38 613.12,-1334.38 613.12,-1328.38 619.12,-1322.38 625.12,-1322.38 625.12,-1322.38 759.62,-1322.38 759.62,-1322.38 765.62,-1322.38 771.62,-1328.38 771.62,-1334.38 771.62,-1334.38 771.62,-1382.12 771.62,-1382.12 771.62,-1388.12 765.62,-1394.12 759.62,-1394.12"/>
<text xml:space="preserve" text-anchor="middle" x="692.38" y="-1380.62" font-family="Helvetica,sans-Serif" font-size="10.00" fill="#ece1d7">abort(xid, abort_lsn, subxids)</text>
<text xml:space="preserve" text-anchor="middle" x="692.38" y="-1367.88" font-family="Helvetica,sans-Serif" font-size="10.00" fill="#ece1d7">drop XactState (top + subs)</text>
<text xml:space="preserve" text-anchor="middle" x="692.38" y="-1355.12" font-family="Helvetica,sans-Serif" font-size="10.00" fill="#ece1d7">SpillWriter::unlink per xid</text>
<text xml:space="preserve" text-anchor="middle" x="692.38" y="-1342.38" font-family="Helvetica,sans-Serif" font-size="10.00" fill="#ece1d7">drain_lsn / emitter_ack_lsn ↑</text>
<text xml:space="preserve" text-anchor="middle" x="692.38" y="-1329.62" font-family="Helvetica,sans-Serif" font-size="10.00" fill="#ece1d7">forget_tree(top)</text>
</g>
<!-- xaclog&#45;&gt;abort -->
<g id="edge4" class="edge">
<title>xaclog&#45;&gt;abort</title>
<path fill="none" stroke="#c1a78e" d="M828.4,-1496.51C817.87,-1490.68 807.4,-1484.12 798.12,-1477 770.69,-1455.92 744.66,-1427.1 725.29,-1403.24"/>
<polygon fill="#c1a78e" stroke="#c1a78e" points="728.12,-1401.18 719.15,-1395.55 722.65,-1405.55 728.12,-1401.18"/>
<text xml:space="preserve" text-anchor="middle" x="842.75" y="-1462.83" font-family="Helvetica,sans-Serif" font-size="9.00" fill="#ece1d7">ABORT / _PREPARED</text>
</g>
<!-- merge -->
<g id="node10" class="node">
<title>merge</title>
<path fill="#4d4128" stroke="#6e6963" d="M969.62,-1038.5C969.62,-1038.5 745.12,-1038.5 745.12,-1038.5 739.12,-1038.5 733.12,-1032.5 733.12,-1026.5 733.12,-1026.5 733.12,-940.5 733.12,-940.5 733.12,-934.5 739.12,-928.5 745.12,-928.5 745.12,-928.5 969.62,-928.5 969.62,-928.5 975.62,-928.5 981.62,-934.5 981.62,-940.5 981.62,-940.5 981.62,-1026.5 981.62,-1026.5 981.62,-1032.5 975.62,-1038.5 969.62,-1038.5"/>
<text xml:space="preserve" text-anchor="middle" x="857.38" y="-1025" font-family="Helvetica,sans-Serif" font-size="10.00" fill="#ece1d7">pull (top + subxids) from inflight</text>
<text xml:space="preserve" text-anchor="middle" x="857.38" y="-1012.25" font-family="Helvetica,sans-Serif" font-size="10.00" fill="#ece1d7"> &#160;unknown xid → commits_unknown_xid;</text>
<text xml:space="preserve" text-anchor="middle" x="857.38" y="-999.5" font-family="Helvetica,sans-Serif" font-size="10.00" fill="#ece1d7"> &#160;on_xact_end fires anyway (ack ceiling)</text>
<text xml:space="preserve" text-anchor="middle" x="857.38" y="-986.75" font-family="Helvetica,sans-Serif" font-size="10.00" fill="#ece1d7">per xid: SpillReader → unlink + append in_mem</text>
<text xml:space="preserve" text-anchor="middle" x="857.38" y="-974" font-family="Helvetica,sans-Serif" font-size="10.00" fill="#ece1d7"> &#160;→ VecDeque ASC by source_lsn</text>
<text xml:space="preserve" text-anchor="middle" x="857.38" y="-961.25" font-family="Helvetica,sans-Serif" font-size="10.00" fill="#ece1d7">k&#45;way merge (k = 1+nsub, typically ≤ 4)</text>
<text xml:space="preserve" text-anchor="middle" x="857.38" y="-948.5" font-family="Helvetica,sans-Serif" font-size="10.00" fill="#ece1d7"> &#160;linear&#45;scan head pick</text>
<text xml:space="preserve" text-anchor="middle" x="857.38" y="-935.75" font-family="Helvetica,sans-Serif" font-size="10.00" fill="#ece1d7"> &#160;TIE: catalog event BEFORE tuple</text>
</g>
<!-- xaclog&#45;&gt;merge -->
<g id="edge11" class="edge">
<title>xaclog&#45;&gt;merge</title>
<path fill="none" stroke="#c1a78e" d="M982.11,-1500.2C991.66,-1494.06 1000.15,-1486.45 1006.38,-1477 1093.16,-1345.31 1060.59,-1266.75 997.38,-1122.25 984.84,-1093.59 963.31,-1067.79 940.84,-1046.47"/>
<polygon fill="#c1a78e" stroke="#c1a78e" points="943.38,-1044.04 933.65,-1039.84 938.64,-1049.19 943.38,-1044.04"/>
<text xml:space="preserve" text-anchor="middle" x="1098.4" y="-1253.45" font-family="Helvetica,sans-Serif" font-size="9.00" fill="#ece1d7">COMMIT / _PREPARED</text>
<text xml:space="preserve" text-anchor="middle" x="1098.4" y="-1242.2" font-family="Helvetica,sans-Serif" font-size="9.00" fill="#ece1d7">parse_xact_payload</text>
</g>
<!-- idle -->
<g id="node7" class="node">
<title>idle</title>
<path fill="#4d4128" stroke="#6e6963" d="M570,-1381.38C570,-1381.38 434.75,-1381.38 434.75,-1381.38 428.75,-1381.38 422.75,-1375.38 422.75,-1369.38 422.75,-1369.38 422.75,-1347.12 422.75,-1347.12 422.75,-1341.12 428.75,-1335.12 434.75,-1335.12 434.75,-1335.12 570,-1335.12 570,-1335.12 576,-1335.12 582,-1341.12 582,-1347.12 582,-1347.12 582,-1369.38 582,-1369.38 582,-1375.38 576,-1381.38 570,-1381.38"/>
<text xml:space="preserve" text-anchor="middle" x="502.38" y="-1367.88" font-family="Helvetica,sans-Serif" font-size="10.00" fill="#ece1d7">advance_idle(lsn)</text>
<text xml:space="preserve" text-anchor="middle" x="502.38" y="-1355.12" font-family="Helvetica,sans-Serif" font-size="10.00" fill="#ece1d7">fires when xacts_active == 0</text>
<text xml:space="preserve" text-anchor="middle" x="502.38" y="-1342.38" font-family="Helvetica,sans-Serif" font-size="10.00" fill="#ece1d7">lifts drain_lsn / ack_lsn</text>
</g>
<!-- buf&#45;&gt;idle -->
<g id="edge5" class="edge">
<title>buf&#45;&gt;idle</title>
<path fill="none" stroke="#c1a78e" stroke-dasharray="5,2" d="M315.89,-1358.25C348.1,-1358.25 381.67,-1358.25 411.31,-1358.25"/>
<polygon fill="#c1a78e" stroke="#c1a78e" points="410.95,-1361.75 420.95,-1358.25 410.95,-1354.75 410.95,-1361.75"/>
<text xml:space="preserve" text-anchor="middle" x="369.12" y="-1363.95" font-family="Helvetica,sans-Serif" font-size="9.00" fill="#ece1d7">xacts_active == 0</text>
</g>
<!-- evict -->
<g id="node8" class="node">
<title>evict</title>
<path fill="#4d3a28" stroke="#6e6963" d="M289.38,-1219.5C289.38,-1219.5 69.38,-1219.5 69.38,-1219.5 63.38,-1219.5 57.37,-1213.5 57.37,-1207.5 57.37,-1207.5 57.37,-1134.25 57.37,-1134.25 57.37,-1128.25 63.37,-1122.25 69.37,-1122.25 69.37,-1122.25 289.38,-1122.25 289.38,-1122.25 295.38,-1122.25 301.38,-1128.25 301.38,-1134.25 301.38,-1134.25 301.38,-1207.5 301.38,-1207.5 301.38,-1213.5 295.38,-1219.5 289.38,-1219.5"/>
<text xml:space="preserve" text-anchor="middle" x="179.38" y="-1206" font-family="Helvetica,sans-Serif" font-size="10.00" fill="#ece1d7">maybe_evict</text>
<text xml:space="preserve" text-anchor="middle" x="179.38" y="-1193.25" font-family="Helvetica,sans-Serif" font-size="10.00" fill="#ece1d7">bytes_in_memory &gt; xact_buffer_max (64 MiB)</text>
<text xml:space="preserve" text-anchor="middle" x="179.38" y="-1180.5" font-family="Helvetica,sans-Serif" font-size="10.00" fill="#ece1d7">pick largest in&#45;mem xact</text>
<text xml:space="preserve" text-anchor="middle" x="179.38" y="-1167.75" font-family="Helvetica,sans-Serif" font-size="10.00" fill="#ece1d7">(mirrors PG ReorderBufferLargestTXN)</text>
<text xml:space="preserve" text-anchor="middle" x="179.38" y="-1155" font-family="Helvetica,sans-Serif" font-size="10.00" fill="#ece1d7">→ evict_xact: lazy&#45;open SpillWriter,</text>
<text xml:space="preserve" text-anchor="middle" x="179.38" y="-1142.25" font-family="Helvetica,sans-Serif" font-size="10.00" fill="#ece1d7">drain in_mem → write(entry), zero bytes</text>
<text xml:space="preserve" text-anchor="middle" x="179.38" y="-1129.5" font-family="Helvetica,sans-Serif" font-size="10.00" fill="#ece1d7">(catalog_events stay in memory)</text>
</g>
<!-- buf&#45;&gt;evict -->
<g id="edge6" class="edge">
<title>buf&#45;&gt;evict</title>
<path fill="none" stroke="#c1a78e" d="M179.38,-1281.58C179.38,-1264.83 179.38,-1247.3 179.38,-1231.3"/>
<polygon fill="#c1a78e" stroke="#c1a78e" points="182.88,-1231.47 179.38,-1221.47 175.88,-1231.47 182.88,-1231.47"/>
<text xml:space="preserve" text-anchor="middle" x="220.62" y="-1253.45" font-family="Helvetica,sans-Serif" font-size="9.00" fill="#ece1d7">after every absorb</text>
<text xml:space="preserve" text-anchor="middle" x="220.62" y="-1242.2" font-family="Helvetica,sans-Serif" font-size="9.00" fill="#ece1d7">while over budget</text>
</g>
<!-- subt&#45;&gt;merge -->
<g id="edge12" class="edge">
<title>subt&#45;&gt;merge</title>
<path fill="none" stroke="#c1a78e" stroke-dasharray="5,2" d="M891.37,-1334.94C887.11,-1287.8 876.8,-1174.61 867.38,-1079.75 866.43,-1070.24 865.4,-1060.19 864.38,-1050.33"/>
<polygon fill="#c1a78e" stroke="#c1a78e" points="867.87,-1049.98 863.35,-1040.39 860.9,-1050.7 867.87,-1049.98"/>
<text xml:space="preserve" text-anchor="middle" x="936.2" y="-1173.58" font-family="Helvetica,sans-Serif" font-size="9.00" fill="#ece1d7">(top + subxids)</text>
<text xml:space="preserve" text-anchor="middle" x="936.2" y="-1162.33" font-family="Helvetica,sans-Serif" font-size="9.00" fill="#ece1d7">authoritative on COMMIT</text>
</g>
<!-- spill -->
<g id="node9" class="node">
<title>spill</title>
<polygon fill="#4d3850" stroke="#6e6963" points="828.25,-1206.75 616.5,-1206.75 616.5,-1135 834.25,-1135 834.25,-1200.75 828.25,-1206.75"/>
<polyline fill="none" stroke="#6e6963" points="828.25,-1206.75 828.25,-1200.75"/>
<polyline fill="none" stroke="#6e6963" points="834.25,-1200.75 828.25,-1200.75"/>
<text xml:space="preserve" text-anchor="middle" x="725.38" y="-1193.25" font-family="Helvetica,sans-Serif" font-size="10.00" fill="#ece1d7">{spill}/xid&#45;{xid:010}&#45;{first_lsn:016X}.bin</text>
<text xml:space="preserve" text-anchor="middle" x="725.38" y="-1180.5" font-family="Helvetica,sans-Serif" font-size="10.00" fill="#ece1d7">[&quot;WS&quot; magic | u16 ver=2]</text>
<text xml:space="preserve" text-anchor="middle" x="725.38" y="-1167.75" font-family="Helvetica,sans-Serif" font-size="10.00" fill="#ece1d7">[tag u8 | u32 LE inner_len | body]*</text>
<text xml:space="preserve" text-anchor="middle" x="725.38" y="-1155" font-family="Helvetica,sans-Serif" font-size="10.00" fill="#ece1d7"> &#160;tag=0 → Heap &#160;&#160;tag=1 → Chunk</text>
<text xml:space="preserve" text-anchor="middle" x="725.38" y="-1142.25" font-family="Helvetica,sans-Serif" font-size="10.00" fill="#ece1d7">append&#45;only, fsync on finish</text>
</g>
<!-- abort&#45;&gt;spill -->
<g id="edge8" class="edge">
<title>abort&#45;&gt;spill</title>
<path fill="none" stroke="#6e6963" stroke-dasharray="5,2" d="M698.66,-1321.95C703.91,-1292.44 711.44,-1250.14 717.17,-1217.97"/>
<polygon fill="#6e6963" stroke="#6e6963" points="720.54,-1219 718.85,-1208.54 713.65,-1217.77 720.54,-1219"/>
<text xml:space="preserve" text-anchor="middle" x="726.68" y="-1247.83" font-family="Helvetica,sans-Serif" font-size="9.00" fill="#ece1d7">unlink</text>
</g>
<!-- cursor -->
<g id="node14" class="node">
<title>cursor</title>
<polygon fill="#4d3850" stroke="#6e6963" points="734.38,-504.75 478.38,-504.75 478.38,-458.5 740.38,-458.5 740.38,-498.75 734.38,-504.75"/>
<polyline fill="none" stroke="#6e6963" points="734.38,-504.75 734.38,-498.75"/>
<polyline fill="none" stroke="#6e6963" points="740.38,-498.75 734.38,-498.75"/>
<text xml:space="preserve" text-anchor="middle" x="609.38" y="-491.25" font-family="Helvetica,sans-Serif" font-size="10.00" fill="#ece1d7">cursor.bin</text>
<text xml:space="preserve" text-anchor="middle" x="609.38" y="-478.5" font-family="Helvetica,sans-Serif" font-size="10.00" fill="#ece1d7">drain_lsn &#160;&#160;&#160;&#160;&#160;= max commit_lsn &#160;(advances FIRST)</text>
<text xml:space="preserve" text-anchor="middle" x="609.38" y="-465.75" font-family="Helvetica,sans-Serif" font-size="10.00" fill="#ece1d7">emitter_ack_lsn = max ack_lsn &#160;&#160;(lags drain_lsn)</text>
</g>
<!-- abort&#45;&gt;cursor -->
<g id="edge17" class="edge">
<title>abort&#45;&gt;cursor</title>
<path fill="none" stroke="#b380b0" stroke-dasharray="1,5" d="M654.41,-1322.14C621.25,-1287.48 578.38,-1231.19 578.38,-1171.88 578.38,-1171.88 578.38,-1171.88 578.38,-597.25 578.38,-569.03 587.24,-538.22 595.48,-515.66"/>
<polygon fill="#b380b0" stroke="#b380b0" points="598.72,-516.98 599.03,-506.39 592.19,-514.48 598.72,-516.98"/>
<text xml:space="preserve" text-anchor="middle" x="604.25" y="-842.33" font-family="Helvetica,sans-Serif" font-size="9.00" fill="#ece1d7">abort_lsn ↑</text>
</g>
<!-- idle&#45;&gt;cursor -->
<g id="edge18" class="edge">
<title>idle&#45;&gt;cursor</title>
<path fill="none" stroke="#b380b0" stroke-dasharray="1,5" d="M502.38,-1334.71C502.38,-1299.81 502.38,-1230.61 502.38,-1171.88 502.38,-1171.88 502.38,-1171.88 502.38,-597.25 502.38,-561.05 531.24,-531.53 558.99,-511.52"/>
<polygon fill="#b380b0" stroke="#b380b0" points="560.81,-514.51 567.07,-505.96 556.84,-508.75 560.81,-514.51"/>
<text xml:space="preserve" text-anchor="middle" x="515.5" y="-842.33" font-family="Helvetica,sans-Serif" font-size="9.00" fill="#ece1d7">idle ↑</text>
</g>
<!-- evict&#45;&gt;spill -->
<g id="edge7" class="edge">
<title>evict&#45;&gt;spill</title>
<path fill="none" stroke="#6e6963" stroke-dasharray="5,2" d="M301.57,-1170.88C392.01,-1170.88 514.62,-1170.88 604.7,-1170.88"/>
<polygon fill="#6e6963" stroke="#6e6963" points="604.56,-1174.38 614.56,-1170.88 604.56,-1167.38 604.56,-1174.38"/>
<text xml:space="preserve" text-anchor="middle" x="458.94" y="-1176.58" font-family="Helvetica,sans-Serif" font-size="9.00" fill="#ece1d7">SpillWriter::write</text>
</g>
<!-- spill&#45;&gt;merge -->
<g id="edge13" class="edge">
<title>spill&#45;&gt;merge</title>
<path fill="none" stroke="#6e6963" stroke-dasharray="5,2" d="M750.02,-1134.72C761.75,-1118.04 776,-1097.84 788.88,-1079.75 796.18,-1069.48 803.96,-1058.61 811.55,-1048.03"/>
<polygon fill="#6e6963" stroke="#6e6963" points="814.29,-1050.23 817.28,-1040.06 808.6,-1046.14 814.29,-1050.23"/>
<text xml:space="preserve" text-anchor="middle" x="827.12" y="-1093.7" font-family="Helvetica,sans-Serif" font-size="9.00" fill="#ece1d7">SpillReader::next</text>
<text xml:space="preserve" text-anchor="middle" x="827.12" y="-1082.45" font-family="Helvetica,sans-Serif" font-size="9.00" fill="#ece1d7">then unlink</text>
</g>
<!-- detoast -->
<g id="node11" class="node">
<title>detoast</title>
<path fill="#4d4128" stroke="#6e6963" d="M918.62,-887.5C918.62,-887.5 742.12,-887.5 742.12,-887.5 736.12,-887.5 730.12,-881.5 730.12,-875.5 730.12,-875.5 730.12,-815 730.12,-815 730.12,-809 736.12,-803 742.12,-803 742.12,-803 918.62,-803 918.62,-803 924.62,-803 930.62,-809 930.62,-815 930.62,-815 930.62,-875.5 930.62,-875.5 930.62,-881.5 924.62,-887.5 918.62,-887.5"/>
<text xml:space="preserve" text-anchor="middle" x="830.38" y="-874" font-family="Helvetica,sans-Serif" font-size="10.00" fill="#ece1d7">detoast_heap</text>
<text xml:space="preserve" text-anchor="middle" x="830.38" y="-861.25" font-family="Helvetica,sans-Serif" font-size="10.00" fill="#ece1d7">reassemble (toast_relid, value_id)</text>
<text xml:space="preserve" text-anchor="middle" x="830.38" y="-848.5" font-family="Helvetica,sans-Serif" font-size="10.00" fill="#ece1d7"> &#160;→ BTreeMap&lt;chunk_seq, bytes&gt;</text>
<text xml:space="preserve" text-anchor="middle" x="830.38" y="-835.75" font-family="Helvetica,sans-Serif" font-size="10.00" fill="#ece1d7">pglz / lz4 inline</text>
<text xml:space="preserve" text-anchor="middle" x="830.38" y="-823" font-family="Helvetica,sans-Serif" font-size="10.00" fill="#ece1d7">lazy ShadowCatalog::relation_at</text>
<text xml:space="preserve" text-anchor="middle" x="830.38" y="-810.25" font-family="Helvetica,sans-Serif" font-size="10.00" fill="#ece1d7">(pipeline runs this in the decode pool)</text>
</g>
<!-- merge&#45;&gt;detoast -->
<g id="edge9" class="edge">
<title>merge&#45;&gt;detoast</title>
<path fill="none" stroke="#c1a78e" d="M846.63,-928.26C844.7,-918.55 842.7,-908.45 840.79,-898.79"/>
<polygon fill="#c1a78e" stroke="#c1a78e" points="844.26,-898.32 838.88,-889.19 837.4,-899.68 844.26,-898.32"/>
</g>
<!-- dispatch -->
<g id="node12" class="node">
<title>dispatch</title>
<path fill="#4d4128" stroke="#6e6963" d="M897.12,-762C897.12,-762 741.62,-762 741.62,-762 735.62,-762 729.62,-756 729.62,-750 729.62,-750 729.62,-715 729.62,-715 729.62,-709 735.62,-703 741.62,-703 741.62,-703 897.12,-703 897.12,-703 903.12,-703 909.12,-709 909.12,-715 909.12,-715 909.12,-750 909.12,-750 909.12,-756 903.12,-762 897.12,-762"/>
<text xml:space="preserve" text-anchor="middle" x="819.38" y="-748.5" font-family="Helvetica,sans-Serif" font-size="10.00" fill="#ece1d7">DrainedXact</text>
<text xml:space="preserve" text-anchor="middle" x="819.38" y="-735.75" font-family="Helvetica,sans-Serif" font-size="10.00" fill="#ece1d7">{heaps, chunks, ordered_events}</text>
<text xml:space="preserve" text-anchor="middle" x="819.38" y="-723" font-family="Helvetica,sans-Serif" font-size="10.00" fill="#ece1d7">catalog event sorts BEFORE tuple</text>
<text xml:space="preserve" text-anchor="middle" x="819.38" y="-710.25" font-family="Helvetica,sans-Serif" font-size="10.00" fill="#ece1d7">subxact_tracker.forget_tree(top)</text>
</g>
<!-- detoast&#45;&gt;dispatch -->
<g id="edge10" class="edge">
<title>detoast&#45;&gt;dispatch</title>
<path fill="none" stroke="#c1a78e" d="M826.25,-802.7C825.29,-793.1 824.28,-782.9 823.34,-773.38"/>
<polygon fill="#c1a78e" stroke="#c1a78e" points="826.84,-773.28 822.37,-763.68 819.88,-773.97 826.84,-773.28"/>
</g>
<!-- observer -->
<g id="node13" class="node">
<title>observer</title>
<path fill="#5d4628" stroke="#6e6963" d="M909.5,-640.5C909.5,-640.5 729.25,-640.5 729.25,-640.5 723.25,-640.5 717.25,-634.5 717.25,-628.5 717.25,-628.5 717.25,-568 717.25,-568 717.25,-562 723.25,-556 729.25,-556 729.25,-556 909.5,-556 909.5,-556 915.5,-556 921.5,-562 921.5,-568 921.5,-568 921.5,-628.5 921.5,-628.5 921.5,-634.5 915.5,-640.5 909.5,-640.5"/>
<text xml:space="preserve" text-anchor="middle" x="819.38" y="-627" font-family="Helvetica,sans-Serif" font-size="10.00" fill="#ece1d7">consumer</text>
<text xml:space="preserve" text-anchor="middle" x="819.38" y="-614.25" font-family="Helvetica,sans-Serif" font-size="10.00" fill="#ece1d7">pipeline (&#45;&#45;ch&#45;config): ReorderSink seq</text>
<text xml:space="preserve" text-anchor="middle" x="819.38" y="-601.5" font-family="Helvetica,sans-Serif" font-size="10.00" fill="#ece1d7">→ decode ×M → batcher → inserter ×N</text>
<text xml:space="preserve" text-anchor="middle" x="819.38" y="-588.75" font-family="Helvetica,sans-Serif" font-size="10.00" fill="#ece1d7">→ ack collector watermark</text>
<text xml:space="preserve" text-anchor="middle" x="819.38" y="-576" font-family="Helvetica,sans-Serif" font-size="10.00" fill="#ece1d7">serial (metrics&#45;only): TupleObserver</text>
<text xml:space="preserve" text-anchor="middle" x="819.38" y="-563.25" font-family="Helvetica,sans-Serif" font-size="10.00" fill="#ece1d7">on_tuple / on_xact_end</text>
</g>
<!-- dispatch&#45;&gt;observer -->
<g id="edge14" class="edge">
<title>dispatch&#45;&gt;observer</title>
<path fill="none" stroke="#bf8c5f" stroke-width="2" d="M819.38,-702.8C819.38,-688.4 819.38,-670.45 819.38,-653.57"/>
<polygon fill="#bf8c5f" stroke="#bf8c5f" stroke-width="2" points="822.88,-653.97 819.38,-643.97 815.88,-653.97 822.88,-653.97"/>
<text xml:space="preserve" text-anchor="middle" x="856.12" y="-674.45" font-family="Helvetica,sans-Serif" font-size="9.00" fill="#ece1d7">DecodeJob /</text>
<text xml:space="preserve" text-anchor="middle" x="856.12" y="-663.2" font-family="Helvetica,sans-Serif" font-size="9.00" fill="#ece1d7">on_tuple stream</text>
</g>
<!-- dispatch&#45;&gt;cursor -->
<g id="edge15" class="edge">
<title>dispatch&#45;&gt;cursor</title>
<path fill="none" stroke="#b380b0" stroke-dasharray="1,5" d="M737.91,-702.7C707.51,-688.28 675.13,-667.92 653.38,-640.5 624.83,-604.51 614.79,-551.11 611.26,-516.59"/>
<polygon fill="#b380b0" stroke="#b380b0" points="614.76,-516.39 610.4,-506.73 607.79,-517 614.76,-516.39"/>
<text xml:space="preserve" text-anchor="middle" x="678.88" y="-600.95" font-family="Helvetica,sans-Serif" font-size="9.00" fill="#ece1d7">drain_lsn ↑</text>
<text xml:space="preserve" text-anchor="middle" x="678.88" y="-589.7" font-family="Helvetica,sans-Serif" font-size="9.00" fill="#ece1d7">(pre&#45;ack)</text>
</g>
<!-- observer&#45;&gt;cursor -->
<g id="edge16" class="edge">
<title>observer&#45;&gt;cursor</title>
<path fill="none" stroke="#b380b0" stroke-dasharray="1,5" d="M742.97,-555.54C715.55,-540.58 685.32,-524.08 660.56,-510.56"/>
<polygon fill="#b380b0" stroke="#b380b0" points="662.44,-507.6 651.98,-505.88 659.08,-513.75 662.44,-507.6"/>
<text xml:space="preserve" text-anchor="middle" x="742.3" y="-527.45" font-family="Helvetica,sans-Serif" font-size="9.00" fill="#ece1d7">emitter_ack_lsn ↑</text>
</g>
<!-- legend -->
<g id="node15" class="node">
<title>legend</title>
<path fill="#6e6963" stroke="none" d="M785.88,-417.5C785.88,-417.5 432.88,-417.5 432.88,-417.5 426.88,-417.5 420.88,-411.5 420.88,-405.5 420.88,-405.5 420.88,-12 420.88,-12 420.88,-6 426.88,0 432.88,0 432.88,0 785.88,0 785.88,0 791.88,0 797.88,-6 797.88,-12 797.88,-12 797.88,-405.5 797.88,-405.5 797.88,-411.5 791.88,-417.5 785.88,-417.5"/>
<polygon fill="#34302c" stroke="none" points="428.88,-390.75 428.88,-413.5 789.88,-413.5 789.88,-390.75 428.88,-390.75"/>
<polygon fill="none" stroke="#6e6963" points="428.88,-390.75 428.88,-413.5 789.88,-413.5 789.88,-390.75 428.88,-390.75"/>
<text xml:space="preserve" text-anchor="start" x="566.25" y="-400" font-family="Helvetica,sans-Serif" font-weight="bold" font-size="10.00" fill="#ece1d7">node fill — role</text>
<polygon fill="#3d3d54" stroke="none" points="428.88,-368 428.88,-390.75 502.5,-390.75 502.5,-368 428.88,-368"/>
<polygon fill="none" stroke="#6e6963" points="428.88,-368 428.88,-390.75 502.5,-390.75 502.5,-368 428.88,-368"/>
<polygon fill="none" stroke="#6e6963" points="502.5,-368 502.5,-390.75 789.88,-390.75 789.88,-368 502.5,-368"/>
<text xml:space="preserve" text-anchor="start" x="568.56" y="-376" font-family="Helvetica,sans-Serif" font-size="10.00" fill="#ece1d7">source PG / XLOG_XACT records</text>
<polygon fill="#4d3a28" stroke="none" points="428.88,-345.25 428.88,-368 502.5,-368 502.5,-345.25 428.88,-345.25"/>
<polygon fill="none" stroke="#6e6963" points="428.88,-345.25 428.88,-368 502.5,-368 502.5,-345.25 428.88,-345.25"/>
<polygon fill="none" stroke="#6e6963" points="502.5,-345.25 502.5,-368 789.88,-368 789.88,-345.25 502.5,-345.25"/>
<text xml:space="preserve" text-anchor="start" x="561.81" y="-353.25" font-family="Helvetica,sans-Serif" font-size="10.00" fill="#ece1d7">eviction policy (sync, after absorb)</text>
<polygon fill="#4d4128" stroke="none" points="428.88,-322.5 428.88,-345.25 502.5,-345.25 502.5,-322.5 428.88,-322.5"/>
<polygon fill="none" stroke="#6e6963" points="428.88,-322.5 428.88,-345.25 502.5,-345.25 502.5,-322.5 428.88,-322.5"/>
<polygon fill="none" stroke="#6e6963" points="502.5,-322.5 502.5,-345.25 789.88,-345.25 789.88,-322.5 502.5,-322.5"/>
<text xml:space="preserve" text-anchor="start" x="579.81" y="-330.5" font-family="Helvetica,sans-Serif" font-size="10.00" fill="#ece1d7">XactBuffer / decoder / drain</text>
<polygon fill="#4d4d28" stroke="none" points="428.88,-299.75 428.88,-322.5 502.5,-322.5 502.5,-299.75 428.88,-299.75"/>
<polygon fill="none" stroke="#6e6963" points="428.88,-299.75 428.88,-322.5 502.5,-322.5 502.5,-299.75 428.88,-299.75"/>
<polygon fill="none" stroke="#6e6963" points="502.5,-299.75 502.5,-322.5 789.88,-322.5 789.88,-299.75 502.5,-299.75"/>
<text xml:space="preserve" text-anchor="start" x="563.69" y="-307.75" font-family="Helvetica,sans-Serif" font-size="10.00" fill="#ece1d7">ShadowCatalog schema_event_tx</text>
<polygon fill="#5d4628" stroke="none" points="428.88,-277 428.88,-299.75 502.5,-299.75 502.5,-277 428.88,-277"/>
<polygon fill="none" stroke="#6e6963" points="428.88,-277 428.88,-299.75 502.5,-299.75 502.5,-277 428.88,-277"/>
<polygon fill="none" stroke="#6e6963" points="502.5,-277 502.5,-299.75 789.88,-299.75 789.88,-277 502.5,-277"/>
<text xml:space="preserve" text-anchor="start" x="530.31" y="-285" font-family="Helvetica,sans-Serif" font-size="10.00" fill="#ece1d7">downstream consumer (pipeline tail / observer)</text>
<polygon fill="#4d3850" stroke="none" points="428.88,-254.25 428.88,-277 502.5,-277 502.5,-254.25 428.88,-254.25"/>
<polygon fill="none" stroke="#6e6963" points="428.88,-254.25 428.88,-277 502.5,-277 502.5,-254.25 428.88,-254.25"/>
<polygon fill="none" stroke="#6e6963" points="502.5,-254.25 502.5,-277 789.88,-277 789.88,-254.25 502.5,-254.25"/>
<text xml:space="preserve" text-anchor="start" x="574.19" y="-262.25" font-family="Helvetica,sans-Serif" font-size="10.00" fill="#ece1d7">on&#45;disk artifact (spill / cursor)</text>
<polygon fill="#34302c" stroke="none" points="428.88,-231.5 428.88,-254.25 789.88,-254.25 789.88,-231.5 428.88,-231.5"/>
<polygon fill="none" stroke="#6e6963" points="428.88,-231.5 428.88,-254.25 789.88,-254.25 789.88,-231.5 428.88,-231.5"/>
<text xml:space="preserve" text-anchor="start" x="575.62" y="-240.75" font-family="Helvetica,sans-Serif" font-weight="bold" font-size="10.00" fill="#ece1d7">edge colour</text>
<polygon fill="none" stroke="#6e6963" points="428.88,-208.75 428.88,-231.5 502.5,-231.5 502.5,-208.75 428.88,-208.75"/>
<text xml:space="preserve" text-anchor="start" x="459.69" y="-218" font-family="Helvetica,sans-Serif" font-weight="bold" font-size="10.00" fill="#c1a78e">━━</text>
<polygon fill="none" stroke="#6e6963" points="502.5,-208.75 502.5,-231.5 789.88,-231.5 789.88,-208.75 502.5,-208.75"/>
<text xml:space="preserve" text-anchor="start" x="577.56" y="-216.75" font-family="Helvetica,sans-Serif" font-size="10.00" fill="#ece1d7">buffer&#45;internal control / data</text>
<polygon fill="none" stroke="#6e6963" points="428.88,-186 428.88,-208.75 502.5,-208.75 502.5,-186 428.88,-186"/>
<text xml:space="preserve" text-anchor="start" x="459.69" y="-195.25" font-family="Helvetica,sans-Serif" font-weight="bold" font-size="10.00" fill="#cba85e">┄┄</text>
<polygon fill="none" stroke="#6e6963" points="502.5,-186 502.5,-208.75 789.88,-208.75 789.88,-186 502.5,-186"/>
<text xml:space="preserve" text-anchor="start" x="576.06" y="-194" font-family="Helvetica,sans-Serif" font-size="10.00" fill="#ece1d7">schema event (lsn&#45;stamped)</text>
<polygon fill="none" stroke="#6e6963" points="428.88,-163.25 428.88,-186 502.5,-186 502.5,-163.25 428.88,-163.25"/>
<text xml:space="preserve" text-anchor="start" x="459.69" y="-172.5" font-family="Helvetica,sans-Serif" font-weight="bold" font-size="10.00" fill="#bf8c5f">━━</text>
<polygon fill="none" stroke="#6e6963" points="502.5,-163.25 502.5,-186 789.88,-186 789.88,-163.25 502.5,-163.25"/>
<text xml:space="preserve" text-anchor="start" x="559.19" y="-171.25" font-family="Helvetica,sans-Serif" font-size="10.00" fill="#ece1d7">CH Native rows + DDL via observer</text>
<polygon fill="none" stroke="#6e6963" points="428.88,-140.5 428.88,-163.25 502.5,-163.25 502.5,-140.5 428.88,-140.5"/>
<text xml:space="preserve" text-anchor="start" x="459.69" y="-149.75" font-family="Helvetica,sans-Serif" font-weight="bold" font-size="10.00" fill="#6e6963">┄┄</text>
<polygon fill="none" stroke="#6e6963" points="502.5,-140.5 502.5,-163.25 789.88,-163.25 789.88,-140.5 502.5,-140.5"/>
<text xml:space="preserve" text-anchor="start" x="567.81" y="-148.5" font-family="Helvetica,sans-Serif" font-size="10.00" fill="#ece1d7">spill file IO (write / read / unlink)</text>
<polygon fill="none" stroke="#6e6963" points="428.88,-117.75 428.88,-140.5 502.5,-140.5 502.5,-117.75 428.88,-117.75"/>
<text xml:space="preserve" text-anchor="start" x="460.06" y="-127" font-family="Helvetica,sans-Serif" font-weight="bold" font-size="10.00" fill="#b380b0">···</text>
<polygon fill="none" stroke="#6e6963" points="502.5,-117.75 502.5,-140.5 789.88,-140.5 789.88,-117.75 502.5,-117.75"/>
<text xml:space="preserve" text-anchor="start" x="535.56" y="-125.75" font-family="Helvetica,sans-Serif" font-size="10.00" fill="#ece1d7">cursor durability (drain_lsn / emitter_ack_lsn)</text>
<polygon fill="#34302c" stroke="none" points="428.88,-95 428.88,-117.75 789.88,-117.75 789.88,-95 428.88,-95"/>
<polygon fill="none" stroke="#6e6963" points="428.88,-95 428.88,-117.75 789.88,-117.75 789.88,-95 428.88,-95"/>
<text xml:space="preserve" text-anchor="start" x="522.75" y="-104.25" font-family="Helvetica,sans-Serif" font-weight="bold" font-size="10.00" fill="#ece1d7">k&#45;way merge — ordering rules</text>
<polygon fill="none" stroke="#6e6963" points="428.88,-72.25 428.88,-95 789.88,-95 789.88,-72.25 428.88,-72.25"/>
<text xml:space="preserve" text-anchor="start" x="531.75" y="-80.25" font-family="Helvetica,sans-Serif" font-size="10.00" fill="#ece1d7">heads sorted ASC by source_lsn</text>
<polygon fill="none" stroke="#6e6963" points="428.88,-49.5 428.88,-72.25 789.88,-72.25 789.88,-49.5 428.88,-49.5"/>
<text xml:space="preserve" text-anchor="start" x="469.88" y="-57.5" font-family="Helvetica,sans-Serif" font-size="10.00" fill="#ece1d7">tie: catalog event BEFORE tuple (PG writes pg_class first)</text>
<polygon fill="none" stroke="#6e6963" points="428.88,-26.75 428.88,-49.5 789.88,-49.5 789.88,-26.75 428.88,-26.75"/>
<text xml:space="preserve" text-anchor="start" x="433.88" y="-34.75" font-family="Helvetica,sans-Serif" font-size="10.00" fill="#ece1d7">heaps run through detoast post&#45;merge; chunks fold into (relid, value_id)</text>
<polygon fill="none" stroke="#6e6963" points="428.88,-4 428.88,-26.75 789.88,-26.75 789.88,-4 428.88,-4"/>
<text xml:space="preserve" text-anchor="start" x="434.25" y="-12" font-family="Helvetica,sans-Serif" font-size="10.00" fill="#ece1d7">drain_lsn advances BEFORE on_xact_end ack — cursor surfaces the gap</text>
</g>
<!-- cursor&#45;&gt;legend -->
</g>
</svg>
