<?xml version="1.0" encoding="UTF-8" standalone="no"?>
<!DOCTYPE svg PUBLIC "-//W3C//DTD SVG 1.1//EN"
 "http://www.w3.org/Graphics/SVG/1.1/DTD/svg11.dtd">
<!-- Generated by graphviz version 15.1.0 (20260618.0150)
 -->
<!-- Title: xact Pages: 1 -->
<svg width="1096pt" height="1661pt"
 viewBox="0.00 0.00 1096.00 1661.00" xmlns="http://www.w3.org/2000/svg" xmlns:xlink="http://www.w3.org/1999/xlink">
<g id="graph0" class="graph" transform="scale(1 1) rotate(0) translate(4 1656.59)">
<title>xact</title>
<polygon fill="#272623" stroke="none" points="-4,4 -4,-1656.59 1091.88,-1656.59 1091.88,4 -4,4"/>
<text xml:space="preserve" text-anchor="middle" x="543.94" y="-1635.29" font-family="Helvetica,sans-Serif" font-size="14.00" fill="#ece1d7">walshadow — XactBuffer + spill + commit drain</text>
<g id="clust4" class="cluster">
<title>cluster_drain</title>
<path fill="#34302c" stroke="#4c4641" d="M610.38,-847.59C610.38,-847.59 1037.38,-847.59 1037.38,-847.59 1043.38,-847.59 1049.38,-853.59 1049.38,-859.59 1049.38,-859.59 1049.38,-1086.84 1049.38,-1086.84 1049.38,-1092.84 1043.38,-1098.84 1037.38,-1098.84 1037.38,-1098.84 610.38,-1098.84 610.38,-1098.84 604.38,-1098.84 598.38,-1092.84 598.38,-1086.84 598.38,-1086.84 598.38,-859.59 598.38,-859.59 598.38,-853.59 604.38,-847.59 610.38,-847.59"/>
<text xml:space="preserve" text-anchor="middle" x="823.88" y="-1081.54" font-family="Helvetica,sans-Serif" font-size="14.00" fill="#ece1d7">commit drain — merge transaction family, preserve WAL order</text>
</g>
<!-- catevt -->
<g id="node1" class="node">
<title>catevt</title>
<path fill="#4d4d28" stroke="#6e6963" d="M136.75,-1608.22C136.75,-1608.22 12,-1608.22 12,-1608.22 6,-1608.22 0,-1602.22 0,-1596.22 0,-1596.22 0,-1573.97 0,-1573.97 0,-1567.97 6,-1561.97 12,-1561.97 12,-1561.97 136.75,-1561.97 136.75,-1561.97 142.75,-1561.97 148.75,-1567.97 148.75,-1573.97 148.75,-1573.97 148.75,-1596.22 148.75,-1596.22 148.75,-1602.22 142.75,-1608.22 136.75,-1608.22"/>
<text xml:space="preserve" text-anchor="middle" x="74.38" y="-1594.72" font-family="Helvetica,sans-Serif" font-size="10.00" fill="#ece1d7">ShadowCatalog</text>
<text xml:space="preserve" text-anchor="middle" x="74.38" y="-1581.97" font-family="Helvetica,sans-Serif" font-size="10.00" fill="#ece1d7">schema_event_tx</text>
<text xml:space="preserve" text-anchor="middle" x="74.38" y="-1569.22" font-family="Helvetica,sans-Serif" font-size="10.00" fill="#ece1d7">Added / Changed / Dropped</text>
</g>
<!-- buf -->
<g id="node4" class="node">
<title>buf</title>
<path fill="#4d4128" stroke="#6e6963" d="M289.75,-1480.34C289.75,-1480.34 55,-1480.34 55,-1480.34 49,-1480.34 43,-1474.34 43,-1468.34 43,-1468.34 43,-1321.09 43,-1321.09 43,-1315.09 49,-1309.09 55,-1309.09 55,-1309.09 289.75,-1309.09 289.75,-1309.09 295.75,-1309.09 301.75,-1315.09 301.75,-1321.09 301.75,-1321.09 301.75,-1468.34 301.75,-1468.34 301.75,-1474.34 295.75,-1480.34 289.75,-1480.34"/>
<text xml:space="preserve" text-anchor="start" x="55" y="-1463.84" font-family="Helvetica,sans-Serif" font-weight="bold" font-size="10.00" fill="#ece1d7">XactBuffer</text>
<text xml:space="preserve" text-anchor="start" x="55" y="-1443.84" font-family="Helvetica,sans-Serif" font-size="10.00" fill="#ece1d7">inflight: HashMap&lt;xid, XactState&gt;</text>
<text xml:space="preserve" text-anchor="start" x="55" y="-1425.09" font-family="Helvetica,sans-Serif" font-size="10.00" fill="#ece1d7">markers · pending stash · unfinished commits</text>
<text xml:space="preserve" text-anchor="start" x="55" y="-1406.34" font-family="Helvetica,sans-Serif" font-size="10.00" fill="#ece1d7">bytes_in_memory · drain_resident · SpillStore</text>
<text xml:space="preserve" text-anchor="start" x="55" y="-1389.79" font-family="Helvetica,sans-Serif" font-style="italic" font-size="9.00" fill="#ece1d7">XactState (per xid):</text>
<text xml:space="preserve" text-anchor="start" x="55" y="-1371.09" font-family="Helvetica,sans-Serif" font-size="9.00" fill="#ece1d7">first_lsn · in_mem: Vec&lt;SpillEntry&gt; · in_mem_bytes</text>
<text xml:space="preserve" text-anchor="start" x="55" y="-1353.84" font-family="Helvetica,sans-Serif" font-size="9.00" fill="#ece1d7">spill: Option&lt;SpillWriter&gt; · spill_bytes</text>
<text xml:space="preserve" text-anchor="start" x="55" y="-1336.59" font-family="Helvetica,sans-Serif" font-size="9.00" fill="#ece1d7">events: Vec&lt;(lsn, DrainEntry)&gt; · stash_rfns</text>
<text xml:space="preserve" text-anchor="start" x="55" y="-1319.34" font-family="Helvetica,sans-Serif" font-size="9.00" fill="#ece1d7">SpillEntry = Heap | Chunk | ToastDelete | Raw</text>
</g>
<!-- catevt&#45;&gt;buf -->
<g id="edge1" class="edge">
<title>catevt&#45;&gt;buf</title>
<path fill="none" stroke="#cba85e" stroke-dasharray="5,2" d="M86,-1561.74C95.31,-1543.86 109.04,-1517.46 122.83,-1490.95"/>
<polygon fill="#cba85e" stroke="#cba85e" points="125.9,-1492.63 127.42,-1482.14 119.69,-1489.4 125.9,-1492.63"/>
<text xml:space="preserve" text-anchor="middle" x="162.88" y="-1514.29" font-family="Helvetica,sans-Serif" font-size="9.00" fill="#ece1d7">on_schema_event</text>
<text xml:space="preserve" text-anchor="middle" x="162.88" y="-1503.04" font-family="Helvetica,sans-Serif" font-size="9.00" fill="#ece1d7">(xid, source_lsn, ev)</text>
</g>
<!-- decoder -->
<g id="node2" class="node">
<title>decoder</title>
<path fill="#4d4128" stroke="#6e6963" d="M357.38,-1627.34C357.38,-1627.34 185.38,-1627.34 185.38,-1627.34 179.38,-1627.34 173.38,-1621.34 173.38,-1615.34 173.38,-1615.34 173.38,-1554.84 173.38,-1554.84 173.38,-1548.84 179.38,-1542.84 185.38,-1542.84 185.38,-1542.84 357.38,-1542.84 357.38,-1542.84 363.38,-1542.84 369.38,-1548.84 369.38,-1554.84 369.38,-1554.84 369.38,-1615.34 369.38,-1615.34 369.38,-1621.34 363.38,-1627.34 357.38,-1627.34"/>
<text xml:space="preserve" text-anchor="middle" x="271.38" y="-1613.84" font-family="Helvetica,sans-Serif" font-size="10.00" fill="#ece1d7">BufferingDecoderSink</text>
<text xml:space="preserve" text-anchor="middle" x="271.38" y="-1601.09" font-family="Helvetica,sans-Serif" font-size="10.00" fill="#ece1d7">heap + TOAST birth/death reshape</text>
<text xml:space="preserve" text-anchor="middle" x="271.38" y="-1588.34" font-family="Helvetica,sans-Serif" font-size="10.00" fill="#ece1d7">raw stash: dirty tree · SMGR marker ·</text>
<text xml:space="preserve" text-anchor="middle" x="271.38" y="-1575.59" font-family="Helvetica,sans-Serif" font-size="10.00" fill="#ece1d7">spanned&#45;lookup miss (NotCovered /</text>
<text xml:space="preserve" text-anchor="middle" x="271.38" y="-1562.84" font-family="Helvetica,sans-Serif" font-size="10.00" fill="#ece1d7">Dropped / Ambiguous)</text>
<text xml:space="preserve" text-anchor="middle" x="271.38" y="-1550.09" font-family="Helvetica,sans-Serif" font-size="10.00" fill="#ece1d7">stamps source_lsn, xid</text>
</g>
<!-- decoder&#45;&gt;buf -->
<g id="edge2" class="edge">
<title>decoder&#45;&gt;buf</title>
<path fill="none" stroke="#c1a78e" d="M249.65,-1542.75C241.53,-1527.31 231.94,-1509.06 222.33,-1490.78"/>
<polygon fill="#c1a78e" stroke="#c1a78e" points="225.45,-1489.19 217.7,-1481.97 219.26,-1492.45 225.45,-1489.19"/>
<text xml:space="preserve" text-anchor="middle" x="287.15" y="-1514.29" font-family="Helvetica,sans-Serif" font-size="9.00" fill="#ece1d7">absorb Heap / Chunk /</text>
<text xml:space="preserve" text-anchor="middle" x="287.15" y="-1503.04" font-family="Helvetica,sans-Serif" font-size="9.00" fill="#ece1d7">ToastDelete / Raw</text>
</g>
<!-- xaclog -->
<g id="node3" class="node">
<title>xaclog</title>
<path fill="#3d3d54" stroke="#6e6963" d="M885.62,-1614.59C885.62,-1614.59 733.12,-1614.59 733.12,-1614.59 727.12,-1614.59 721.12,-1608.59 721.12,-1602.59 721.12,-1602.59 721.12,-1567.59 721.12,-1567.59 721.12,-1561.59 727.12,-1555.59 733.12,-1555.59 733.12,-1555.59 885.62,-1555.59 885.62,-1555.59 891.62,-1555.59 897.62,-1561.59 897.62,-1567.59 897.62,-1567.59 897.62,-1602.59 897.62,-1602.59 897.62,-1608.59 891.62,-1614.59 885.62,-1614.59"/>
<text xml:space="preserve" text-anchor="middle" x="809.38" y="-1601.09" font-family="Helvetica,sans-Serif" font-size="10.00" fill="#ece1d7">XLOG_XACT_*</text>
<text xml:space="preserve" text-anchor="middle" x="809.38" y="-1588.34" font-family="Helvetica,sans-Serif" font-size="10.00" fill="#ece1d7">ASSIGNMENT 0x50 (hint)</text>
<text xml:space="preserve" text-anchor="middle" x="809.38" y="-1575.59" font-family="Helvetica,sans-Serif" font-size="10.00" fill="#ece1d7">COMMIT 0x00 / _PREPARED 0x30</text>
<text xml:space="preserve" text-anchor="middle" x="809.38" y="-1562.84" font-family="Helvetica,sans-Serif" font-size="10.00" fill="#ece1d7">ABORT &#160;0x20 / _PREPARED &#160;0x40</text>
</g>
<!-- subt -->
<g id="node5" class="node">
<title>subt</title>
<path fill="#4d4128" stroke="#6e6963" d="M1029.25,-1417.84C1029.25,-1417.84 859.5,-1417.84 859.5,-1417.84 853.5,-1417.84 847.5,-1411.84 847.5,-1405.84 847.5,-1405.84 847.5,-1383.59 847.5,-1383.59 847.5,-1377.59 853.5,-1371.59 859.5,-1371.59 859.5,-1371.59 1029.25,-1371.59 1029.25,-1371.59 1035.25,-1371.59 1041.25,-1377.59 1041.25,-1383.59 1041.25,-1383.59 1041.25,-1405.84 1041.25,-1405.84 1041.25,-1411.84 1035.25,-1417.84 1029.25,-1417.84"/>
<text xml:space="preserve" text-anchor="middle" x="944.38" y="-1404.34" font-family="Helvetica,sans-Serif" font-size="10.00" fill="#ece1d7">SubxactTracker</text>
<text xml:space="preserve" text-anchor="middle" x="944.38" y="-1391.59" font-family="Helvetica,sans-Serif" font-size="10.00" fill="#ece1d7">parent: HashMap&lt;xid, top&gt;</text>
<text xml:space="preserve" text-anchor="middle" x="944.38" y="-1378.84" font-family="Helvetica,sans-Serif" font-size="10.00" fill="#ece1d7">children: HashMap&lt;top, Vec&lt;xid&gt;&gt;</text>
</g>
<!-- xaclog&#45;&gt;subt -->
<g id="edge3" class="edge">
<title>xaclog&#45;&gt;subt</title>
<path fill="none" stroke="#c1a78e" d="M829.88,-1555.48C854.66,-1520.9 896.22,-1462.91 921.87,-1427.12"/>
<polygon fill="#c1a78e" stroke="#c1a78e" points="924.48,-1429.49 927.46,-1419.32 918.79,-1425.41 924.48,-1429.49"/>
<text xml:space="preserve" text-anchor="middle" x="922.42" y="-1514.29" font-family="Helvetica,sans-Serif" font-size="9.00" fill="#ece1d7">ASSIGNMENT 0x50</text>
<text xml:space="preserve" text-anchor="middle" x="922.42" y="-1503.04" font-family="Helvetica,sans-Serif" font-size="9.00" fill="#ece1d7">add_subxact(top, subs)</text>
</g>
<!-- abort -->
<g id="node6" class="node">
<title>abort</title>
<path fill="#4d4128" stroke="#6e6963" d="M726.62,-1424.22C726.62,-1424.22 598.12,-1424.22 598.12,-1424.22 592.12,-1424.22 586.12,-1418.22 586.12,-1412.22 586.12,-1412.22 586.12,-1377.22 586.12,-1377.22 586.12,-1371.22 592.12,-1365.22 598.12,-1365.22 598.12,-1365.22 726.62,-1365.22 726.62,-1365.22 732.62,-1365.22 738.62,-1371.22 738.62,-1377.22 738.62,-1377.22 738.62,-1412.22 738.62,-1412.22 738.62,-1418.22 732.62,-1424.22 726.62,-1424.22"/>
<text xml:space="preserve" text-anchor="middle" x="662.38" y="-1410.72" font-family="Helvetica,sans-Serif" font-size="10.00" fill="#ece1d7">abort</text>
<text xml:space="preserve" text-anchor="middle" x="662.38" y="-1397.97" font-family="Helvetica,sans-Serif" font-size="10.00" fill="#ece1d7">drop transaction + children</text>
<text xml:space="preserve" text-anchor="middle" x="662.38" y="-1385.22" font-family="Helvetica,sans-Serif" font-size="10.00" fill="#ece1d7">unlink spill files</text>
<text xml:space="preserve" text-anchor="middle" x="662.38" y="-1372.47" font-family="Helvetica,sans-Serif" font-size="10.00" fill="#ece1d7">advance consumed position</text>
</g>
<!-- xaclog&#45;&gt;abort -->
<g id="edge4" class="edge">
<title>xaclog&#45;&gt;abort</title>
<path fill="none" stroke="#c1a78e" d="M739.87,-1555.16C725.46,-1546.52 711.53,-1535.82 701.12,-1522.84 681.11,-1497.88 671.41,-1462.65 666.72,-1435.61"/>
<polygon fill="#c1a78e" stroke="#c1a78e" points="670.23,-1435.42 665.23,-1426.07 663.31,-1436.49 670.23,-1435.42"/>
<text xml:space="preserve" text-anchor="middle" x="745.75" y="-1508.67" font-family="Helvetica,sans-Serif" font-size="9.00" fill="#ece1d7">ABORT / _PREPARED</text>
</g>
<!-- merge -->
<g id="node10" class="node">
<title>merge</title>
<path fill="#4d4128" stroke="#6e6963" d="M939.62,-1065.59C939.62,-1065.59 679.12,-1065.59 679.12,-1065.59 673.12,-1065.59 667.12,-1059.59 667.12,-1053.59 667.12,-1053.59 667.12,-954.84 667.12,-954.84 667.12,-948.84 673.12,-942.84 679.12,-942.84 679.12,-942.84 939.62,-942.84 939.62,-942.84 945.62,-942.84 951.62,-948.84 951.62,-954.84 951.62,-954.84 951.62,-1053.59 951.62,-1053.59 951.62,-1059.59 945.62,-1065.59 939.62,-1065.59"/>
<text xml:space="preserve" text-anchor="middle" x="809.38" y="-1052.09" font-family="Helvetica,sans-Serif" font-size="10.00" fill="#ece1d7">pull (top + subxids) from inflight</text>
<text xml:space="preserve" text-anchor="middle" x="809.38" y="-1039.34" font-family="Helvetica,sans-Serif" font-size="10.00" fill="#ece1d7">per xid: SpillReader + in_mem + events</text>
<text xml:space="preserve" text-anchor="middle" x="809.38" y="-1026.59" font-family="Helvetica,sans-Serif" font-size="10.00" fill="#ece1d7">→ source_lsn k&#45;way merge</text>
<text xml:space="preserve" text-anchor="middle" x="809.38" y="-1013.84" font-family="Helvetica,sans-Serif" font-size="10.00" fill="#ece1d7">Chunk → ChunkMap + ToastRow birth</text>
<text xml:space="preserve" text-anchor="middle" x="809.38" y="-1001.09" font-family="Helvetica,sans-Serif" font-size="10.00" fill="#ece1d7">ToastDelete → tombstone row</text>
<text xml:space="preserve" text-anchor="middle" x="809.38" y="-988.34" font-family="Helvetica,sans-Serif" font-size="10.00" fill="#ece1d7">Raw → resolve_stash verdict at commit next_lsn:</text>
<text xml:space="preserve" text-anchor="middle" x="809.38" y="-975.59" font-family="Helvetica,sans-Serif" font-size="10.00" fill="#ece1d7"> &#160;Toast → chunk decode · Ordinary → row fanout</text>
<text xml:space="preserve" text-anchor="middle" x="809.38" y="-962.84" font-family="Helvetica,sans-Serif" font-size="10.00" fill="#ece1d7"> &#160;Ambiguous → fatal · tombstoned/uncovered → discard</text>
<text xml:space="preserve" text-anchor="middle" x="809.38" y="-950.09" font-family="Helvetica,sans-Serif" font-size="10.00" fill="#ece1d7">TIE: control event BEFORE heap</text>
</g>
<!-- xaclog&#45;&gt;merge -->
<g id="edge10" class="edge">
<title>xaclog&#45;&gt;merge</title>
<path fill="none" stroke="#c1a78e" d="M809.38,-1555.39C809.38,-1468.36 809.38,-1205.59 809.38,-1077.28"/>
<polygon fill="#c1a78e" stroke="#c1a78e" points="812.88,-1077.55 809.38,-1067.55 805.88,-1077.55 812.88,-1077.55"/>
<text xml:space="preserve" text-anchor="middle" x="857.38" y="-1280.54" font-family="Helvetica,sans-Serif" font-size="9.00" fill="#ece1d7">COMMIT / _PREPARED</text>
<text xml:space="preserve" text-anchor="middle" x="857.38" y="-1269.29" font-family="Helvetica,sans-Serif" font-size="9.00" fill="#ece1d7">parse_xact_payload</text>
</g>
<!-- idle -->
<g id="node7" class="node">
<title>idle</title>
<path fill="#4d4128" stroke="#6e6963" d="M517.5,-1417.84C517.5,-1417.84 421.25,-1417.84 421.25,-1417.84 415.25,-1417.84 409.25,-1411.84 409.25,-1405.84 409.25,-1405.84 409.25,-1383.59 409.25,-1383.59 409.25,-1377.59 415.25,-1371.59 421.25,-1371.59 421.25,-1371.59 517.5,-1371.59 517.5,-1371.59 523.5,-1371.59 529.5,-1377.59 529.5,-1383.59 529.5,-1383.59 529.5,-1405.84 529.5,-1405.84 529.5,-1411.84 523.5,-1417.84 517.5,-1417.84"/>
<text xml:space="preserve" text-anchor="middle" x="469.38" y="-1404.34" font-family="Helvetica,sans-Serif" font-size="10.00" fill="#ece1d7">idle progress</text>
<text xml:space="preserve" text-anchor="middle" x="469.38" y="-1391.59" font-family="Helvetica,sans-Serif" font-size="10.00" fill="#ece1d7">advance only with no</text>
<text xml:space="preserve" text-anchor="middle" x="469.38" y="-1378.84" font-family="Helvetica,sans-Serif" font-size="10.00" fill="#ece1d7">open transaction</text>
</g>
<!-- buf&#45;&gt;idle -->
<g id="edge5" class="edge">
<title>buf&#45;&gt;idle</title>
<path fill="none" stroke="#c1a78e" stroke-dasharray="5,2" d="M302.21,-1394.72C335.01,-1394.72 369.04,-1394.72 397.77,-1394.72"/>
<polygon fill="#c1a78e" stroke="#c1a78e" points="397.4,-1398.22 407.4,-1394.72 397.4,-1391.22 397.4,-1398.22"/>
<text xml:space="preserve" text-anchor="middle" x="355.5" y="-1400.42" font-family="Helvetica,sans-Serif" font-size="9.00" fill="#ece1d7">xacts_active == 0</text>
</g>
<!-- evict -->
<g id="node8" class="node">
<title>evict</title>
<path fill="#4d3a28" stroke="#6e6963" d="M282.38,-1246.59C282.38,-1246.59 62.38,-1246.59 62.38,-1246.59 56.38,-1246.59 50.37,-1240.59 50.37,-1234.59 50.37,-1234.59 50.37,-1161.34 50.37,-1161.34 50.37,-1155.34 56.37,-1149.34 62.37,-1149.34 62.37,-1149.34 282.38,-1149.34 282.38,-1149.34 288.38,-1149.34 294.38,-1155.34 294.38,-1161.34 294.38,-1161.34 294.38,-1234.59 294.38,-1234.59 294.38,-1240.59 288.38,-1246.59 282.38,-1246.59"/>
<text xml:space="preserve" text-anchor="middle" x="172.38" y="-1233.09" font-family="Helvetica,sans-Serif" font-size="10.00" fill="#ece1d7">maybe_evict</text>
<text xml:space="preserve" text-anchor="middle" x="172.38" y="-1220.34" font-family="Helvetica,sans-Serif" font-size="10.00" fill="#ece1d7">bytes_in_memory &gt; xact_buffer_max (64 MiB)</text>
<text xml:space="preserve" text-anchor="middle" x="172.38" y="-1207.59" font-family="Helvetica,sans-Serif" font-size="10.00" fill="#ece1d7">pick largest in&#45;mem xact</text>
<text xml:space="preserve" text-anchor="middle" x="172.38" y="-1194.84" font-family="Helvetica,sans-Serif" font-size="10.00" fill="#ece1d7">(mirrors PG ReorderBufferLargestTXN)</text>
<text xml:space="preserve" text-anchor="middle" x="172.38" y="-1182.09" font-family="Helvetica,sans-Serif" font-size="10.00" fill="#ece1d7">→ evict_xact: lazy&#45;open SpillWriter,</text>
<text xml:space="preserve" text-anchor="middle" x="172.38" y="-1169.34" font-family="Helvetica,sans-Serif" font-size="10.00" fill="#ece1d7">drain in_mem → write(entry), zero bytes</text>
<text xml:space="preserve" text-anchor="middle" x="172.38" y="-1156.59" font-family="Helvetica,sans-Serif" font-size="10.00" fill="#ece1d7">DrainEntry events stay in memory</text>
</g>
<!-- buf&#45;&gt;evict -->
<g id="edge6" class="edge">
<title>buf&#45;&gt;evict</title>
<path fill="none" stroke="#c1a78e" d="M172.38,-1308.87C172.38,-1291.79 172.38,-1274.2 172.38,-1258.22"/>
<polygon fill="#c1a78e" stroke="#c1a78e" points="175.88,-1258.43 172.38,-1248.43 168.88,-1258.43 175.88,-1258.43"/>
<text xml:space="preserve" text-anchor="middle" x="213.62" y="-1280.54" font-family="Helvetica,sans-Serif" font-size="9.00" fill="#ece1d7">after every absorb</text>
<text xml:space="preserve" text-anchor="middle" x="213.62" y="-1269.29" font-family="Helvetica,sans-Serif" font-size="9.00" fill="#ece1d7">while over budget</text>
</g>
<!-- safe -->
<g id="node15" class="node">
<title>safe</title>
<path fill="#4d3a28" stroke="#6e6963" d="M599.88,-592C599.88,-592 430.88,-592 430.88,-592 424.88,-592 418.88,-586 418.88,-580 418.88,-580 418.88,-557.75 418.88,-557.75 418.88,-551.75 424.88,-545.75 430.88,-545.75 430.88,-545.75 599.88,-545.75 599.88,-545.75 605.88,-545.75 611.88,-551.75 611.88,-557.75 611.88,-557.75 611.88,-580 611.88,-580 611.88,-586 605.88,-592 599.88,-592"/>
<text xml:space="preserve" text-anchor="middle" x="515.38" y="-578.5" font-family="Helvetica,sans-Serif" font-size="10.00" fill="#ece1d7">ack collector + transaction state</text>
<text xml:space="preserve" text-anchor="middle" x="515.38" y="-565.75" font-family="Helvetica,sans-Serif" font-size="10.00" fill="#ece1d7">choose safe restart point</text>
<text xml:space="preserve" text-anchor="middle" x="515.38" y="-553" font-family="Helvetica,sans-Serif" font-size="10.00" fill="#ece1d7">stay behind open or unfinished work</text>
</g>
<!-- buf&#45;&gt;safe -->
<g id="edge18" class="edge">
<title>buf&#45;&gt;safe</title>
<path fill="none" stroke="#b380b0" stroke-dasharray="1,5" d="M285.83,-1308.86C314.03,-1278.21 336.38,-1240.74 336.38,-1198.97 336.38,-1198.97 336.38,-1198.97 336.38,-665.38 336.38,-626.42 369.79,-603.3 407.74,-589.6"/>
<polygon fill="#b380b0" stroke="#b380b0" points="408.74,-592.96 417.11,-586.46 406.51,-586.32 408.74,-592.96"/>
<text xml:space="preserve" text-anchor="middle" x="376.88" y="-875.79" font-family="Helvetica,sans-Serif" font-size="9.00" fill="#ece1d7">open transactions</text>
</g>
<!-- subt&#45;&gt;merge -->
<g id="edge11" class="edge">
<title>subt&#45;&gt;merge</title>
<path fill="none" stroke="#c1a78e" stroke-dasharray="5,2" d="M939.43,-1371.44C933.57,-1345.88 923.1,-1302.82 911.38,-1266.59 890.22,-1201.23 861.42,-1128.56 839.81,-1076.47"/>
<polygon fill="#c1a78e" stroke="#c1a78e" points="843.11,-1075.29 836.04,-1067.4 836.65,-1077.98 843.11,-1075.29"/>
<text xml:space="preserve" text-anchor="middle" x="958.89" y="-1200.67" font-family="Helvetica,sans-Serif" font-size="9.00" fill="#ece1d7">(top + subxids)</text>
<text xml:space="preserve" text-anchor="middle" x="958.89" y="-1189.42" font-family="Helvetica,sans-Serif" font-size="9.00" fill="#ece1d7">authoritative on COMMIT</text>
</g>
<!-- spill -->
<g id="node9" class="node">
<title>spill</title>
<polygon fill="#4d3850" stroke="#6e6963" points="765.25,-1240.22 553.5,-1240.22 553.5,-1155.72 771.25,-1155.72 771.25,-1234.22 765.25,-1240.22"/>
<polyline fill="none" stroke="#6e6963" points="765.25,-1240.22 765.25,-1234.22"/>
<polyline fill="none" stroke="#6e6963" points="771.25,-1234.22 765.25,-1234.22"/>
<text xml:space="preserve" text-anchor="middle" x="662.38" y="-1226.72" font-family="Helvetica,sans-Serif" font-size="10.00" fill="#ece1d7">{spill}/xid&#45;{xid:010}&#45;{first_lsn:016X}.bin</text>
<text xml:space="preserve" text-anchor="middle" x="662.38" y="-1213.97" font-family="Helvetica,sans-Serif" font-size="10.00" fill="#ece1d7">[&quot;WS&quot; magic | u16 ver=6]</text>
<text xml:space="preserve" text-anchor="middle" x="662.38" y="-1201.22" font-family="Helvetica,sans-Serif" font-size="10.00" fill="#ece1d7">[tag u8 | u32 LE inner_len | body]*</text>
<text xml:space="preserve" text-anchor="middle" x="662.38" y="-1188.47" font-family="Helvetica,sans-Serif" font-size="10.00" fill="#ece1d7">0 Heap · 1 Chunk · 2 ToastDelete ·</text>
<text xml:space="preserve" text-anchor="middle" x="662.38" y="-1175.72" font-family="Helvetica,sans-Serif" font-size="10.00" fill="#ece1d7">3 Raw · 4 descriptor dict</text>
<text xml:space="preserve" text-anchor="middle" x="662.38" y="-1162.97" font-family="Helvetica,sans-Serif" font-size="10.00" fill="#ece1d7">append&#45;only, fsync on finish</text>
</g>
<!-- abort&#45;&gt;spill -->
<g id="edge8" class="edge">
<title>abort&#45;&gt;spill</title>
<path fill="none" stroke="#6e6963" stroke-dasharray="5,2" d="M662.38,-1364.98C662.38,-1335.29 662.38,-1288.27 662.38,-1251.84"/>
<polygon fill="#6e6963" stroke="#6e6963" points="665.88,-1251.94 662.38,-1241.94 658.88,-1251.94 665.88,-1251.94"/>
<text xml:space="preserve" text-anchor="middle" x="676.25" y="-1274.92" font-family="Helvetica,sans-Serif" font-size="9.00" fill="#ece1d7">unlink</text>
</g>
<!-- abort&#45;&gt;safe -->
<g id="edge20" class="edge">
<title>abort&#45;&gt;safe</title>
<path fill="none" stroke="#b380b0" stroke-dasharray="1,5" d="M621.04,-1364.81C577.56,-1330.67 515.38,-1269.5 515.38,-1198.97 515.38,-1198.97 515.38,-1198.97 515.38,-665.38 515.38,-644.84 515.38,-621.82 515.38,-603.52"/>
<polygon fill="#b380b0" stroke="#b380b0" points="518.88,-603.77 515.38,-593.77 511.88,-603.77 518.88,-603.77"/>
</g>
<!-- idle&#45;&gt;safe -->
<g id="edge21" class="edge">
<title>idle&#45;&gt;safe</title>
<path fill="none" stroke="#b380b0" stroke-dasharray="1,5" d="M468.42,-1371.23C466.97,-1334.98 464.38,-1261.37 464.38,-1198.97 464.38,-1198.97 464.38,-1198.97 464.38,-665.38 464.38,-642.22 476.18,-619.24 488.44,-601.62"/>
<polygon fill="#b380b0" stroke="#b380b0" points="491.21,-603.76 494.32,-593.64 485.57,-599.61 491.21,-603.76"/>
</g>
<!-- evict&#45;&gt;spill -->
<g id="edge7" class="edge">
<title>evict&#45;&gt;spill</title>
<path fill="none" stroke="#6e6963" stroke-dasharray="5,2" d="M294.76,-1197.97C370.25,-1197.97 466.68,-1197.97 541.83,-1197.97"/>
<polygon fill="#6e6963" stroke="#6e6963" points="541.72,-1201.47 551.72,-1197.97 541.72,-1194.47 541.72,-1201.47"/>
<text xml:space="preserve" text-anchor="middle" x="423.94" y="-1203.67" font-family="Helvetica,sans-Serif" font-size="9.00" fill="#ece1d7">SpillWriter::write</text>
</g>
<!-- spill&#45;&gt;merge -->
<g id="edge12" class="edge">
<title>spill&#45;&gt;merge</title>
<path fill="none" stroke="#6e6963" stroke-dasharray="5,2" d="M683.5,-1155.32C692.14,-1139.61 702.73,-1121.91 713.88,-1106.84 721.94,-1095.94 731.05,-1084.94 740.36,-1074.41"/>
<polygon fill="#6e6963" stroke="#6e6963" points="742.76,-1076.98 746.84,-1067.2 737.55,-1072.3 742.76,-1076.98"/>
<text xml:space="preserve" text-anchor="middle" x="752.12" y="-1120.79" font-family="Helvetica,sans-Serif" font-size="9.00" fill="#ece1d7">SpillReader::next</text>
<text xml:space="preserve" text-anchor="middle" x="752.12" y="-1109.54" font-family="Helvetica,sans-Serif" font-size="9.00" fill="#ece1d7">then unlink</text>
</g>
<!-- dispatch -->
<g id="node11" class="node">
<title>dispatch</title>
<path fill="#4d4128" stroke="#6e6963" d="M895,-901.84C895,-901.84 723.75,-901.84 723.75,-901.84 717.75,-901.84 711.75,-895.84 711.75,-889.84 711.75,-889.84 711.75,-867.59 711.75,-867.59 711.75,-861.59 717.75,-855.59 723.75,-855.59 723.75,-855.59 895,-855.59 895,-855.59 901,-855.59 907,-861.59 907,-867.59 907,-867.59 907,-889.84 907,-889.84 907,-895.84 901,-901.84 895,-901.84"/>
<text xml:space="preserve" text-anchor="middle" x="809.38" y="-888.34" font-family="Helvetica,sans-Serif" font-size="10.00" fill="#ece1d7">bounded committed batches</text>
<text xml:space="preserve" text-anchor="middle" x="809.38" y="-875.59" font-family="Helvetica,sans-Serif" font-size="10.00" fill="#ece1d7">one shared walk keeps rows, TOAST,</text>
<text xml:space="preserve" text-anchor="middle" x="809.38" y="-862.84" font-family="Helvetica,sans-Serif" font-size="10.00" fill="#ece1d7">and table changes in WAL order</text>
</g>
<!-- merge&#45;&gt;dispatch -->
<g id="edge9" class="edge">
<title>merge&#45;&gt;dispatch</title>
<path fill="none" stroke="#c1a78e" d="M809.38,-942.55C809.38,-932.66 809.38,-922.72 809.38,-913.77"/>
<polygon fill="#c1a78e" stroke="#c1a78e" points="812.88,-913.77 809.38,-903.77 805.88,-913.77 812.88,-913.77"/>
</g>
<!-- detoast -->
<g id="node12" class="node">
<title>detoast</title>
<path fill="#4d4128" stroke="#6e6963" d="M1075.88,-795.67C1075.88,-795.67 966.88,-795.67 966.88,-795.67 960.88,-795.67 954.88,-789.67 954.88,-783.67 954.88,-783.67 954.88,-761.42 954.88,-761.42 954.88,-755.42 960.88,-749.42 966.88,-749.42 966.88,-749.42 1075.88,-749.42 1075.88,-749.42 1081.88,-749.42 1087.88,-755.42 1087.88,-761.42 1087.88,-761.42 1087.88,-783.67 1087.88,-783.67 1087.88,-789.67 1081.88,-795.67 1075.88,-795.67"/>
<text xml:space="preserve" text-anchor="middle" x="1021.38" y="-782.17" font-family="Helvetica,sans-Serif" font-size="10.00" fill="#ece1d7">resolve large values</text>
<text xml:space="preserve" text-anchor="middle" x="1021.38" y="-769.42" font-family="Helvetica,sans-Serif" font-size="10.00" fill="#ece1d7">current transaction first,</text>
<text xml:space="preserve" text-anchor="middle" x="1021.38" y="-756.67" font-family="Helvetica,sans-Serif" font-size="10.00" fill="#ece1d7">mirror history second</text>
</g>
<!-- dispatch&#45;&gt;detoast -->
<g id="edge13" class="edge">
<title>dispatch&#45;&gt;detoast</title>
<path fill="none" stroke="#bf8c5f" stroke-width="2" d="M855.38,-855.12C887.18,-839.48 929.74,-818.57 963.8,-801.84"/>
<polygon fill="#bf8c5f" stroke="#bf8c5f" stroke-width="2" points="965.32,-804.99 972.75,-797.44 962.23,-798.71 965.32,-804.99"/>
<text xml:space="preserve" text-anchor="middle" x="925.88" y="-827.04" font-family="Helvetica,sans-Serif" font-size="9.00" fill="#ece1d7">rows</text>
</g>
<!-- consumer -->
<g id="node13" class="node">
<title>consumer</title>
<path fill="#5d4628" stroke="#6e6963" d="M1043,-689.5C1043,-689.5 853.75,-689.5 853.75,-689.5 847.75,-689.5 841.75,-683.5 841.75,-677.5 841.75,-677.5 841.75,-655.25 841.75,-655.25 841.75,-649.25 847.75,-643.25 853.75,-643.25 853.75,-643.25 1043,-643.25 1043,-643.25 1049,-643.25 1055,-649.25 1055,-655.25 1055,-655.25 1055,-677.5 1055,-677.5 1055,-683.5 1049,-689.5 1043,-689.5"/>
<text xml:space="preserve" text-anchor="middle" x="948.38" y="-676" font-family="Helvetica,sans-Serif" font-size="10.00" fill="#ece1d7">shared consumers</text>
<text xml:space="preserve" text-anchor="middle" x="948.38" y="-663.25" font-family="Helvetica,sans-Serif" font-size="10.00" fill="#ece1d7">live pipeline: ClickHouse or metrics only</text>
<text xml:space="preserve" text-anchor="middle" x="948.38" y="-650.5" font-family="Helvetica,sans-Serif" font-size="10.00" fill="#ece1d7">backup replay: same ordered walk</text>
</g>
<!-- dispatch&#45;&gt;consumer -->
<g id="edge15" class="edge">
<title>dispatch&#45;&gt;consumer</title>
<path fill="none" stroke="#bf8c5f" stroke-dasharray="5,2" d="M818.32,-855.25C830.03,-827.16 852.22,-778.21 878.62,-740.75 889.34,-725.55 903.12,-710.38 915.59,-697.81"/>
<polygon fill="#bf8c5f" stroke="#bf8c5f" points="917.82,-700.53 922.48,-691.01 912.9,-695.55 917.82,-700.53"/>
<text xml:space="preserve" text-anchor="middle" x="910.5" y="-769.62" font-family="Helvetica,sans-Serif" font-size="9.00" fill="#ece1d7">table changes</text>
</g>
<!-- store -->
<g id="node14" class="node">
<title>store</title>
<path fill="#5d4628" stroke="#6e6963" d="M764.88,-798.56C764.88,-801.75 717.59,-804.34 659.38,-804.34 601.16,-804.34 553.88,-801.75 553.88,-798.56 553.88,-798.56 553.88,-746.53 553.88,-746.53 553.88,-743.34 601.16,-740.75 659.38,-740.75 717.59,-740.75 764.88,-743.34 764.88,-746.53 764.88,-746.53 764.88,-798.56 764.88,-798.56"/>
<path fill="none" stroke="#6e6963" d="M764.88,-798.56C764.88,-795.37 717.59,-792.78 659.38,-792.78 601.16,-792.78 553.88,-795.37 553.88,-798.56"/>
<text xml:space="preserve" text-anchor="middle" x="659.38" y="-782.17" font-family="Helvetica,sans-Serif" font-size="10.00" fill="#ece1d7">TOAST mirror</text>
<text xml:space="preserve" text-anchor="middle" x="659.38" y="-769.42" font-family="Helvetica,sans-Serif" font-size="10.00" fill="#ece1d7">save changes before publishing commit</text>
<text xml:space="preserve" text-anchor="middle" x="659.38" y="-756.67" font-family="Helvetica,sans-Serif" font-size="10.00" fill="#ece1d7">interleave table wipes and rewrites</text>
</g>
<!-- dispatch&#45;&gt;store -->
<g id="edge16" class="edge">
<title>dispatch&#45;&gt;store</title>
<path fill="none" stroke="#bf8c5f" stroke-dasharray="5,2" d="M747.59,-855.2C735.88,-849.64 724.1,-843.1 713.88,-835.59 705.3,-829.31 697.12,-821.45 689.82,-813.47"/>
<polygon fill="#bf8c5f" stroke="#bf8c5f" points="692.48,-811.2 683.27,-805.96 687.21,-815.8 692.48,-811.2"/>
<text xml:space="preserve" text-anchor="middle" x="749.12" y="-827.04" font-family="Helvetica,sans-Serif" font-size="9.00" fill="#ece1d7">TOAST changes</text>
</g>
<!-- dispatch&#45;&gt;safe -->
<g id="edge19" class="edge">
<title>dispatch&#45;&gt;safe</title>
<path fill="none" stroke="#b380b0" stroke-dasharray="1,5" d="M809.13,-855.27C807.78,-826.32 801.76,-775.55 777.38,-740.75 729.36,-672.22 644.23,-624.28 584.05,-596.97"/>
<polygon fill="#b380b0" stroke="#b380b0" points="585.81,-593.93 575.26,-593.06 582.97,-600.32 585.81,-593.93"/>
<text xml:space="preserve" text-anchor="middle" x="778.8" y="-712.2" font-family="Helvetica,sans-Serif" font-size="9.00" fill="#ece1d7">drained</text>
</g>
<!-- detoast&#45;&gt;consumer -->
<g id="edge14" class="edge">
<title>detoast&#45;&gt;consumer</title>
<path fill="none" stroke="#bf8c5f" stroke-width="2" d="M1005.54,-748.94C995.59,-734.75 982.58,-716.19 971.49,-700.37"/>
<polygon fill="#bf8c5f" stroke="#bf8c5f" stroke-width="2" points="974.53,-698.59 965.92,-692.41 968.79,-702.61 974.53,-698.59"/>
<text xml:space="preserve" text-anchor="middle" x="1016.38" y="-712.2" font-family="Helvetica,sans-Serif" font-size="9.00" fill="#ece1d7">decoded rows</text>
</g>
<!-- consumer&#45;&gt;safe -->
<g id="edge17" class="edge">
<title>consumer&#45;&gt;safe</title>
<path fill="none" stroke="#b380b0" stroke-dasharray="1,5" d="M903.33,-642.86C879.76,-631.97 850.09,-619.63 822.38,-612 757.56,-594.17 682.89,-583.71 623.41,-577.67"/>
<polygon fill="#b380b0" stroke="#b380b0" points="623.91,-574.2 613.61,-576.71 623.22,-581.17 623.91,-574.2"/>
<text xml:space="preserve" text-anchor="middle" x="908.07" y="-614.7" font-family="Helvetica,sans-Serif" font-size="9.00" fill="#ece1d7">downstream completed</text>
</g>
<!-- manifest -->
<g id="node16" class="node">
<title>manifest</title>
<polygon fill="#4d3850" stroke="#6e6963" points="563.5,-494.5 461.25,-494.5 461.25,-458.5 569.5,-458.5 569.5,-488.5 563.5,-494.5"/>
<polyline fill="none" stroke="#6e6963" points="563.5,-494.5 563.5,-488.5"/>
<polyline fill="none" stroke="#6e6963" points="569.5,-488.5 563.5,-488.5"/>
<text xml:space="preserve" text-anchor="middle" x="515.38" y="-479.75" font-family="Helvetica,sans-Serif" font-size="10.00" fill="#ece1d7">manifest.toml</text>
<text xml:space="preserve" text-anchor="middle" x="515.38" y="-467" font-family="Helvetica,sans-Serif" font-size="10.00" fill="#ece1d7">saved restart state</text>
</g>
<!-- safe&#45;&gt;manifest -->
<g id="edge22" class="edge">
<title>safe&#45;&gt;manifest</title>
<path fill="none" stroke="#b380b0" stroke-width="2" stroke-dasharray="1,5" d="M515.38,-545.54C515.38,-534.14 515.38,-520.12 515.38,-507.77"/>
<polygon fill="#b380b0" stroke="#b380b0" stroke-width="2" points="518.88,-507.8 515.38,-497.8 511.88,-507.8 518.88,-507.8"/>
<text xml:space="preserve" text-anchor="middle" x="546.88" y="-517.2" font-family="Helvetica,sans-Serif" font-size="9.00" fill="#ece1d7">status update</text>
</g>
<!-- legend -->
<g id="node17" class="node">
<title>legend</title>
<path fill="#6e6963" stroke="none" d="M720,-417.5C720,-417.5 310.75,-417.5 310.75,-417.5 304.75,-417.5 298.75,-411.5 298.75,-405.5 298.75,-405.5 298.75,-12 298.75,-12 298.75,-6 304.75,0 310.75,0 310.75,0 720,0 720,0 726,0 732,-6 732,-12 732,-12 732,-405.5 732,-405.5 732,-411.5 726,-417.5 720,-417.5"/>
<polygon fill="#34302c" stroke="none" points="306.75,-390.75 306.75,-413.5 724,-413.5 724,-390.75 306.75,-390.75"/>
<polygon fill="none" stroke="#6e6963" points="306.75,-390.75 306.75,-413.5 724,-413.5 724,-390.75 306.75,-390.75"/>
<text xml:space="preserve" text-anchor="start" x="472.25" y="-400" font-family="Helvetica,sans-Serif" font-weight="bold" font-size="10.00" fill="#ece1d7">node fill — role</text>
<polygon fill="#3d3d54" stroke="none" points="306.75,-368 306.75,-390.75 413.38,-390.75 413.38,-368 306.75,-368"/>
<polygon fill="none" stroke="#6e6963" points="306.75,-368 306.75,-390.75 413.38,-390.75 413.38,-368 306.75,-368"/>
<polygon fill="none" stroke="#6e6963" points="413.38,-368 413.38,-390.75 724,-390.75 724,-368 413.38,-368"/>
<text xml:space="preserve" text-anchor="start" x="491.06" y="-376" font-family="Helvetica,sans-Serif" font-size="10.00" fill="#ece1d7">source PG / XLOG_XACT records</text>
<polygon fill="#4d3a28" stroke="none" points="306.75,-345.25 306.75,-368 413.38,-368 413.38,-345.25 306.75,-345.25"/>
<polygon fill="none" stroke="#6e6963" points="306.75,-345.25 306.75,-368 413.38,-368 413.38,-345.25 306.75,-345.25"/>
<polygon fill="none" stroke="#6e6963" points="413.38,-345.25 413.38,-368 724,-368 724,-345.25 413.38,-345.25"/>
<text xml:space="preserve" text-anchor="start" x="484.31" y="-353.25" font-family="Helvetica,sans-Serif" font-size="10.00" fill="#ece1d7">eviction policy (sync, after absorb)</text>
<polygon fill="#4d4128" stroke="none" points="306.75,-322.5 306.75,-345.25 413.38,-345.25 413.38,-322.5 306.75,-322.5"/>
<polygon fill="none" stroke="#6e6963" points="306.75,-322.5 306.75,-345.25 413.38,-345.25 413.38,-322.5 306.75,-322.5"/>
<polygon fill="none" stroke="#6e6963" points="413.38,-322.5 413.38,-345.25 724,-345.25 724,-322.5 413.38,-322.5"/>
<text xml:space="preserve" text-anchor="start" x="502.31" y="-330.5" font-family="Helvetica,sans-Serif" font-size="10.00" fill="#ece1d7">XactBuffer / decoder / drain</text>
<polygon fill="#4d4d28" stroke="none" points="306.75,-299.75 306.75,-322.5 413.38,-322.5 413.38,-299.75 306.75,-299.75"/>
<polygon fill="none" stroke="#6e6963" points="306.75,-299.75 306.75,-322.5 413.38,-322.5 413.38,-299.75 306.75,-299.75"/>
<polygon fill="none" stroke="#6e6963" points="413.38,-299.75 413.38,-322.5 724,-322.5 724,-299.75 413.38,-299.75"/>
<text xml:space="preserve" text-anchor="start" x="486.19" y="-307.75" font-family="Helvetica,sans-Serif" font-size="10.00" fill="#ece1d7">ShadowCatalog schema_event_tx</text>
<polygon fill="#5d4628" stroke="none" points="306.75,-277 306.75,-299.75 413.38,-299.75 413.38,-277 306.75,-277"/>
<polygon fill="none" stroke="#6e6963" points="306.75,-277 306.75,-299.75 413.38,-299.75 413.38,-277 306.75,-277"/>
<polygon fill="none" stroke="#6e6963" points="413.38,-277 413.38,-299.75 724,-299.75 724,-277 413.38,-277"/>
<text xml:space="preserve" text-anchor="start" x="457.69" y="-285" font-family="Helvetica,sans-Serif" font-size="10.00" fill="#ece1d7">downstream consumer (pipeline / gap replay)</text>
<polygon fill="#4d3850" stroke="none" points="306.75,-254.25 306.75,-277 413.38,-277 413.38,-254.25 306.75,-254.25"/>
<polygon fill="none" stroke="#6e6963" points="306.75,-254.25 306.75,-277 413.38,-277 413.38,-254.25 306.75,-254.25"/>
<polygon fill="none" stroke="#6e6963" points="413.38,-254.25 413.38,-277 724,-277 724,-254.25 413.38,-254.25"/>
<text xml:space="preserve" text-anchor="start" x="489.94" y="-262.25" font-family="Helvetica,sans-Serif" font-size="10.00" fill="#ece1d7">on&#45;disk artifact (spill / manifest)</text>
<polygon fill="#34302c" stroke="none" points="306.75,-231.5 306.75,-254.25 724,-254.25 724,-231.5 306.75,-231.5"/>
<polygon fill="none" stroke="#6e6963" points="306.75,-231.5 306.75,-254.25 724,-254.25 724,-231.5 306.75,-231.5"/>
<text xml:space="preserve" text-anchor="start" x="481.62" y="-240.75" font-family="Helvetica,sans-Serif" font-weight="bold" font-size="10.00" fill="#ece1d7">edge colour</text>
<polygon fill="none" stroke="#6e6963" points="306.75,-208.75 306.75,-231.5 413.38,-231.5 413.38,-208.75 306.75,-208.75"/>
<text xml:space="preserve" text-anchor="start" x="354.06" y="-218" font-family="Helvetica,sans-Serif" font-weight="bold" font-size="10.00" fill="#c1a78e">━━</text>
<polygon fill="none" stroke="#6e6963" points="413.38,-208.75 413.38,-231.5 724,-231.5 724,-208.75 413.38,-208.75"/>
<text xml:space="preserve" text-anchor="start" x="500.06" y="-216.75" font-family="Helvetica,sans-Serif" font-size="10.00" fill="#ece1d7">buffer&#45;internal control / data</text>
<polygon fill="none" stroke="#6e6963" points="306.75,-186 306.75,-208.75 413.38,-208.75 413.38,-186 306.75,-186"/>
<text xml:space="preserve" text-anchor="start" x="354.06" y="-195.25" font-family="Helvetica,sans-Serif" font-weight="bold" font-size="10.00" fill="#cba85e">┄┄</text>
<polygon fill="none" stroke="#6e6963" points="413.38,-186 413.38,-208.75 724,-208.75 724,-186 413.38,-186"/>
<text xml:space="preserve" text-anchor="start" x="498.56" y="-194" font-family="Helvetica,sans-Serif" font-size="10.00" fill="#ece1d7">schema event (lsn&#45;stamped)</text>
<polygon fill="none" stroke="#6e6963" points="306.75,-163.25 306.75,-186 413.38,-186 413.38,-163.25 306.75,-163.25"/>
<text xml:space="preserve" text-anchor="start" x="354.06" y="-172.5" font-family="Helvetica,sans-Serif" font-weight="bold" font-size="10.00" fill="#bf8c5f">━━</text>
<polygon fill="none" stroke="#6e6963" points="413.38,-163.25 413.38,-186 724,-186 724,-163.25 413.38,-163.25"/>
<text xml:space="preserve" text-anchor="start" x="467.06" y="-171.25" font-family="Helvetica,sans-Serif" font-size="10.00" fill="#ece1d7">walk steps to pipeline / replay consumers</text>
<polygon fill="none" stroke="#6e6963" points="306.75,-140.5 306.75,-163.25 413.38,-163.25 413.38,-140.5 306.75,-140.5"/>
<text xml:space="preserve" text-anchor="start" x="354.06" y="-149.75" font-family="Helvetica,sans-Serif" font-weight="bold" font-size="10.00" fill="#6e6963">┄┄</text>
<polygon fill="none" stroke="#6e6963" points="413.38,-140.5 413.38,-163.25 724,-163.25 724,-140.5 413.38,-140.5"/>
<text xml:space="preserve" text-anchor="start" x="490.31" y="-148.5" font-family="Helvetica,sans-Serif" font-size="10.00" fill="#ece1d7">spill file IO (write / read / unlink)</text>
<polygon fill="none" stroke="#6e6963" points="306.75,-117.75 306.75,-140.5 413.38,-140.5 413.38,-117.75 306.75,-117.75"/>
<text xml:space="preserve" text-anchor="start" x="354.44" y="-127" font-family="Helvetica,sans-Serif" font-weight="bold" font-size="10.00" fill="#b380b0">···</text>
<polygon fill="none" stroke="#6e6963" points="413.38,-117.75 413.38,-140.5 724,-140.5 724,-117.75 413.38,-117.75"/>
<text xml:space="preserve" text-anchor="start" x="506.44" y="-125.75" font-family="Helvetica,sans-Serif" font-size="10.00" fill="#ece1d7">ack + manifest durability</text>
<polygon fill="#34302c" stroke="none" points="306.75,-95 306.75,-117.75 724,-117.75 724,-95 306.75,-95"/>
<polygon fill="none" stroke="#6e6963" points="306.75,-95 306.75,-117.75 724,-117.75 724,-95 306.75,-95"/>
<text xml:space="preserve" text-anchor="start" x="428.75" y="-104.25" font-family="Helvetica,sans-Serif" font-weight="bold" font-size="10.00" fill="#ece1d7">k&#45;way merge — ordering rules</text>
<polygon fill="none" stroke="#6e6963" points="306.75,-72.25 306.75,-95 724,-95 724,-72.25 306.75,-72.25"/>
<text xml:space="preserve" text-anchor="start" x="437.75" y="-80.25" font-family="Helvetica,sans-Serif" font-size="10.00" fill="#ece1d7">heads sorted ASC by source_lsn</text>
<polygon fill="none" stroke="#6e6963" points="306.75,-49.5 306.75,-72.25 724,-72.25 724,-49.5 306.75,-49.5"/>
<text xml:space="preserve" text-anchor="start" x="375.88" y="-57.5" font-family="Helvetica,sans-Serif" font-size="10.00" fill="#ece1d7">tie: catalog event BEFORE tuple (PG writes pg_class first)</text>
<polygon fill="none" stroke="#6e6963" points="306.75,-26.75 306.75,-49.5 724,-49.5 724,-26.75 306.75,-26.75"/>
<text xml:space="preserve" text-anchor="start" x="311.75" y="-34.75" font-family="Helvetica,sans-Serif" font-size="10.00" fill="#ece1d7">heaps detoast post&#45;merge; chunk maps resolve rows; ToastRows persist separately</text>
<polygon fill="none" stroke="#6e6963" points="306.75,-4 306.75,-26.75 724,-26.75 724,-4 306.75,-4"/>
<text xml:space="preserve" text-anchor="start" x="360.12" y="-12" font-family="Helvetica,sans-Serif" font-size="10.00" fill="#ece1d7">saved restart point never passes open or unfinished transaction</text>
</g>
<!-- manifest&#45;&gt;legend -->
</g>
</svg>
