<?xml version="1.0" encoding="UTF-8" standalone="no"?>
<!DOCTYPE svg PUBLIC "-//W3C//DTD SVG 1.1//EN"
 "http://www.w3.org/Graphics/SVG/1.1/DTD/svg11.dtd">
<!-- Generated by graphviz version 2.42.4 (0)
 -->
<!-- Title: xact Pages: 1 -->
<svg width="1201pt" height="1478pt"
 viewBox="0.00 0.00 1200.50 1478.00" xmlns="http://www.w3.org/2000/svg" xmlns:xlink="http://www.w3.org/1999/xlink">
<g id="graph0" class="graph" transform="scale(1 1) rotate(0) translate(4 1474)">
<title>xact</title>
<polygon fill="#272623" stroke="transparent" points="-4,4 -4,-1474 1196.5,-1474 1196.5,4 -4,4"/>
<text text-anchor="middle" x="596.25" y="-1454.8" font-family="Helvetica,sans-Serif" font-size="14.00" fill="#ece1d7">walshadow — XactBuffer + spill + commit drain</text>
<g id="clust4" class="cluster">
<title>cluster_drain</title>
<path fill="#34302c" stroke="#4c4641" d="M781.5,-767C781.5,-767 1172.5,-767 1172.5,-767 1178.5,-767 1184.5,-773 1184.5,-779 1184.5,-779 1184.5,-972 1184.5,-972 1184.5,-978 1178.5,-984 1172.5,-984 1172.5,-984 781.5,-984 781.5,-984 775.5,-984 769.5,-978 769.5,-972 769.5,-972 769.5,-779 769.5,-779 769.5,-773 775.5,-767 781.5,-767"/>
<text text-anchor="middle" x="977" y="-968.8" font-family="Helvetica,sans-Serif" font-size="14.00" fill="#ece1d7">commit(top_xid, ts, commit_lsn, subxids) — k&#45;way merge</text>
</g>
<!-- catevt -->
<g id="node1" class="node">
<title>catevt</title>
<path fill="#4d4d28" stroke="#6e6963" d="M365,-1441.5C365,-1441.5 240,-1441.5 240,-1441.5 234,-1441.5 228,-1435.5 228,-1429.5 228,-1429.5 228,-1412.5 228,-1412.5 228,-1406.5 234,-1400.5 240,-1400.5 240,-1400.5 365,-1400.5 365,-1400.5 371,-1400.5 377,-1406.5 377,-1412.5 377,-1412.5 377,-1429.5 377,-1429.5 377,-1435.5 371,-1441.5 365,-1441.5"/>
<text text-anchor="middle" x="302.5" y="-1429.5" font-family="Helvetica,sans-Serif" font-size="10.00" fill="#ece1d7">ShadowCatalog</text>
<text text-anchor="middle" x="302.5" y="-1418.5" font-family="Helvetica,sans-Serif" font-size="10.00" fill="#ece1d7">schema_event_tx</text>
<text text-anchor="middle" x="302.5" y="-1407.5" font-family="Helvetica,sans-Serif" font-size="10.00" fill="#ece1d7">Added / Changed / Dropped</text>
</g>
<!-- buf -->
<g id="node4" class="node">
<title>buf</title>
<path fill="#4d4128" stroke="#6e6963" d="M319,-1335C319,-1335 84,-1335 84,-1335 78,-1335 72,-1329 72,-1323 72,-1323 72,-1189 72,-1189 72,-1183 78,-1177 84,-1177 84,-1177 319,-1177 319,-1177 325,-1177 331,-1183 331,-1189 331,-1189 331,-1323 331,-1323 331,-1329 325,-1335 319,-1335"/>
<text text-anchor="start" x="84.5" y="-1320" font-family="Helvetica,sans-Serif" font-weight="bold" font-size="10.00" fill="#ece1d7">XactBuffer</text>
<text text-anchor="start" x="84.5" y="-1302" font-family="Helvetica,sans-Serif" font-size="10.00" fill="#ece1d7">inflight: HashMap&lt;xid, XactState&gt;</text>
<text text-anchor="start" x="84.5" y="-1285" font-family="Helvetica,sans-Serif" font-size="10.00" fill="#ece1d7">markers · pending_stash · pending_durable</text>
<text text-anchor="start" x="84.5" y="-1268" font-family="Helvetica,sans-Serif" font-size="10.00" fill="#ece1d7">bytes_in_memory · drain_resident · SpillStore</text>
<text text-anchor="start" x="84.5" y="-1252.8" font-family="Helvetica,sans-Serif" font-style="italic" font-size="9.00" fill="#ece1d7">XactState (per xid):</text>
<text text-anchor="start" x="84.5" y="-1235.8" font-family="Helvetica,sans-Serif" font-size="9.00" fill="#ece1d7">first_lsn · in_mem: Vec&lt;SpillEntry&gt; · in_mem_bytes</text>
<text text-anchor="start" x="84.5" y="-1219.8" font-family="Helvetica,sans-Serif" font-size="9.00" fill="#ece1d7">spill: Option&lt;SpillWriter&gt; · spill_bytes</text>
<text text-anchor="start" x="84.5" y="-1203.8" font-family="Helvetica,sans-Serif" font-size="9.00" fill="#ece1d7">events: Vec&lt;(lsn, DrainEntry)&gt; · stash_rfns</text>
<text text-anchor="start" x="84.5" y="-1187.8" font-family="Helvetica,sans-Serif" font-size="9.00" fill="#ece1d7">SpillEntry = Heap | Chunk | ToastDelete | Raw</text>
</g>
<!-- catevt&#45;&gt;buf -->
<g id="edge1" class="edge">
<title>catevt&#45;&gt;buf</title>
<path fill="none" stroke="#cba85e" stroke-dasharray="5,2" d="M290.32,-1400.34C281.37,-1385.9 268.53,-1365.18 255.39,-1343.97"/>
<polygon fill="#cba85e" stroke="#cba85e" points="258.19,-1341.84 249.95,-1335.19 252.24,-1345.53 258.19,-1341.84"/>
<text text-anchor="middle" x="319" y="-1367.8" font-family="Helvetica,sans-Serif" font-size="9.00" fill="#ece1d7">on_schema_event</text>
<text text-anchor="middle" x="319" y="-1357.8" font-family="Helvetica,sans-Serif" font-size="9.00" fill="#ece1d7">(xid, source_lsn, ev)</text>
</g>
<!-- decoder -->
<g id="node2" class="node">
<title>decoder</title>
<path fill="#4d4128" stroke="#6e6963" d="M191,-1447C191,-1447 12,-1447 12,-1447 6,-1447 0,-1441 0,-1435 0,-1435 0,-1407 0,-1407 0,-1401 6,-1395 12,-1395 12,-1395 191,-1395 191,-1395 197,-1395 203,-1401 203,-1407 203,-1407 203,-1435 203,-1435 203,-1441 197,-1447 191,-1447"/>
<text text-anchor="middle" x="101.5" y="-1435" font-family="Helvetica,sans-Serif" font-size="10.00" fill="#ece1d7">BufferingDecoderSink</text>
<text text-anchor="middle" x="101.5" y="-1424" font-family="Helvetica,sans-Serif" font-size="10.00" fill="#ece1d7">heap + TOAST birth/death reshape</text>
<text text-anchor="middle" x="101.5" y="-1413" font-family="Helvetica,sans-Serif" font-size="10.00" fill="#ece1d7">SMGR marker + invisible&#45;record stash</text>
<text text-anchor="middle" x="101.5" y="-1402" font-family="Helvetica,sans-Serif" font-size="10.00" fill="#ece1d7">stamps source_lsn, xid</text>
</g>
<!-- decoder&#45;&gt;buf -->
<g id="edge2" class="edge">
<title>decoder&#45;&gt;buf</title>
<path fill="none" stroke="#c1a78e" d="M116.91,-1394.89C125.51,-1380.87 136.78,-1362.49 148.29,-1343.74"/>
<polygon fill="#c1a78e" stroke="#c1a78e" points="151.33,-1345.46 153.58,-1335.11 145.37,-1341.8 151.33,-1345.46"/>
<text text-anchor="middle" x="191.5" y="-1367.8" font-family="Helvetica,sans-Serif" font-size="9.00" fill="#ece1d7">absorb Heap / Chunk /</text>
<text text-anchor="middle" x="191.5" y="-1357.8" font-family="Helvetica,sans-Serif" font-size="9.00" fill="#ece1d7">ToastDelete / Raw</text>
</g>
<!-- xaclog -->
<g id="node3" class="node">
<title>xaclog</title>
<path fill="#3d3d54" stroke="#6e6963" d="M987,-1447C987,-1447 834,-1447 834,-1447 828,-1447 822,-1441 822,-1435 822,-1435 822,-1407 822,-1407 822,-1401 828,-1395 834,-1395 834,-1395 987,-1395 987,-1395 993,-1395 999,-1401 999,-1407 999,-1407 999,-1435 999,-1435 999,-1441 993,-1447 987,-1447"/>
<text text-anchor="middle" x="910.5" y="-1435" font-family="Helvetica,sans-Serif" font-size="10.00" fill="#ece1d7">XLOG_XACT_*</text>
<text text-anchor="middle" x="910.5" y="-1424" font-family="Helvetica,sans-Serif" font-size="10.00" fill="#ece1d7">ASSIGNMENT 0x50 (hint)</text>
<text text-anchor="middle" x="910.5" y="-1413" font-family="Helvetica,sans-Serif" font-size="10.00" fill="#ece1d7">COMMIT 0x00 / _PREPARED 0x30</text>
<text text-anchor="middle" x="910.5" y="-1402" font-family="Helvetica,sans-Serif" font-size="10.00" fill="#ece1d7">ABORT &#160;0x20 / _PREPARED &#160;0x40</text>
</g>
<!-- subt -->
<g id="node5" class="node">
<title>subt</title>
<path fill="#4d4128" stroke="#6e6963" d="M995.5,-1276.5C995.5,-1276.5 825.5,-1276.5 825.5,-1276.5 819.5,-1276.5 813.5,-1270.5 813.5,-1264.5 813.5,-1264.5 813.5,-1247.5 813.5,-1247.5 813.5,-1241.5 819.5,-1235.5 825.5,-1235.5 825.5,-1235.5 995.5,-1235.5 995.5,-1235.5 1001.5,-1235.5 1007.5,-1241.5 1007.5,-1247.5 1007.5,-1247.5 1007.5,-1264.5 1007.5,-1264.5 1007.5,-1270.5 1001.5,-1276.5 995.5,-1276.5"/>
<text text-anchor="middle" x="910.5" y="-1264.5" font-family="Helvetica,sans-Serif" font-size="10.00" fill="#ece1d7">SubxactTracker</text>
<text text-anchor="middle" x="910.5" y="-1253.5" font-family="Helvetica,sans-Serif" font-size="10.00" fill="#ece1d7">parent: HashMap&lt;xid, top&gt;</text>
<text text-anchor="middle" x="910.5" y="-1242.5" font-family="Helvetica,sans-Serif" font-size="10.00" fill="#ece1d7">children: HashMap&lt;top, Vec&lt;xid&gt;&gt;</text>
</g>
<!-- xaclog&#45;&gt;subt -->
<g id="edge3" class="edge">
<title>xaclog&#45;&gt;subt</title>
<path fill="none" stroke="#c1a78e" d="M910.5,-1394.89C910.5,-1365.81 910.5,-1317.95 910.5,-1286.96"/>
<polygon fill="#c1a78e" stroke="#c1a78e" points="914,-1286.76 910.5,-1276.76 907,-1286.76 914,-1286.76"/>
<text text-anchor="middle" x="964.5" y="-1367.8" font-family="Helvetica,sans-Serif" font-size="9.00" fill="#ece1d7">ASSIGNMENT 0x50</text>
<text text-anchor="middle" x="964.5" y="-1357.8" font-family="Helvetica,sans-Serif" font-size="9.00" fill="#ece1d7">add_subxact(top, subs)</text>
</g>
<!-- abort -->
<g id="node6" class="node">
<title>abort</title>
<path fill="#4d4128" stroke="#6e6963" d="M777,-1287.5C777,-1287.5 642,-1287.5 642,-1287.5 636,-1287.5 630,-1281.5 630,-1275.5 630,-1275.5 630,-1236.5 630,-1236.5 630,-1230.5 636,-1224.5 642,-1224.5 642,-1224.5 777,-1224.5 777,-1224.5 783,-1224.5 789,-1230.5 789,-1236.5 789,-1236.5 789,-1275.5 789,-1275.5 789,-1281.5 783,-1287.5 777,-1287.5"/>
<text text-anchor="middle" x="709.5" y="-1275.5" font-family="Helvetica,sans-Serif" font-size="10.00" fill="#ece1d7">abort(xid, abort_lsn, subxids)</text>
<text text-anchor="middle" x="709.5" y="-1264.5" font-family="Helvetica,sans-Serif" font-size="10.00" fill="#ece1d7">drop XactState (top + subs)</text>
<text text-anchor="middle" x="709.5" y="-1253.5" font-family="Helvetica,sans-Serif" font-size="10.00" fill="#ece1d7">SpillWriter::unlink per xid</text>
<text text-anchor="middle" x="709.5" y="-1242.5" font-family="Helvetica,sans-Serif" font-size="10.00" fill="#ece1d7">drain_lsn / emitter_ack_lsn ↑</text>
<text text-anchor="middle" x="709.5" y="-1231.5" font-family="Helvetica,sans-Serif" font-size="10.00" fill="#ece1d7">forget_tree(top)</text>
</g>
<!-- xaclog&#45;&gt;abort -->
<g id="edge4" class="edge">
<title>xaclog&#45;&gt;abort</title>
<path fill="none" stroke="#c1a78e" d="M847.45,-1394.95C836.01,-1389.17 824.53,-1382.48 814.5,-1375 784.58,-1352.68 756.8,-1320.74 737.33,-1295.71"/>
<polygon fill="#c1a78e" stroke="#c1a78e" points="739.92,-1293.33 731.06,-1287.52 734.36,-1297.58 739.92,-1293.33"/>
<text text-anchor="middle" x="859.5" y="-1362.8" font-family="Helvetica,sans-Serif" font-size="9.00" fill="#ece1d7">ABORT / _PREPARED</text>
</g>
<!-- merge -->
<g id="node10" class="node">
<title>merge</title>
<path fill="#4d4128" stroke="#6e6963" d="M990,-953C990,-953 801,-953 801,-953 795,-953 789,-947 789,-941 789,-941 789,-880 789,-880 789,-874 795,-868 801,-868 801,-868 990,-868 990,-868 996,-868 1002,-874 1002,-880 1002,-880 1002,-941 1002,-941 1002,-947 996,-953 990,-953"/>
<text text-anchor="middle" x="895.5" y="-941" font-family="Helvetica,sans-Serif" font-size="10.00" fill="#ece1d7">pull (top + subxids) from inflight</text>
<text text-anchor="middle" x="895.5" y="-930" font-family="Helvetica,sans-Serif" font-size="10.00" fill="#ece1d7">per xid: SpillReader + in_mem + events</text>
<text text-anchor="middle" x="895.5" y="-919" font-family="Helvetica,sans-Serif" font-size="10.00" fill="#ece1d7">→ source_lsn k&#45;way merge</text>
<text text-anchor="middle" x="895.5" y="-908" font-family="Helvetica,sans-Serif" font-size="10.00" fill="#ece1d7">Chunk → ChunkMap + ToastRow birth</text>
<text text-anchor="middle" x="895.5" y="-897" font-family="Helvetica,sans-Serif" font-size="10.00" fill="#ece1d7">ToastDelete → tombstone row</text>
<text text-anchor="middle" x="895.5" y="-886" font-family="Helvetica,sans-Serif" font-size="10.00" fill="#ece1d7">Raw → commit&#45;resolved toast op</text>
<text text-anchor="middle" x="895.5" y="-875" font-family="Helvetica,sans-Serif" font-size="10.00" fill="#ece1d7">TIE: control event BEFORE heap</text>
</g>
<!-- xaclog&#45;&gt;merge -->
<g id="edge10" class="edge">
<title>xaclog&#45;&gt;merge</title>
<path fill="none" stroke="#c1a78e" d="M999.08,-1398.07C1009.06,-1392.13 1017.98,-1384.59 1024.5,-1375 1034,-1361.04 1173.86,-1384 1021.5,-1032 1009.4,-1004.05 987.34,-979.45 965.03,-959.89"/>
<polygon fill="#c1a78e" stroke="#c1a78e" points="967.02,-956.99 957.14,-953.18 962.49,-962.33 967.02,-956.99"/>
<text text-anchor="middle" x="1115" y="-1149.8" font-family="Helvetica,sans-Serif" font-size="9.00" fill="#ece1d7">COMMIT / _PREPARED</text>
<text text-anchor="middle" x="1115" y="-1139.8" font-family="Helvetica,sans-Serif" font-size="9.00" fill="#ece1d7">parse_xact_payload</text>
</g>
<!-- idle -->
<g id="node7" class="node">
<title>idle</title>
<path fill="#4d4128" stroke="#6e6963" d="M586.5,-1276.5C586.5,-1276.5 450.5,-1276.5 450.5,-1276.5 444.5,-1276.5 438.5,-1270.5 438.5,-1264.5 438.5,-1264.5 438.5,-1247.5 438.5,-1247.5 438.5,-1241.5 444.5,-1235.5 450.5,-1235.5 450.5,-1235.5 586.5,-1235.5 586.5,-1235.5 592.5,-1235.5 598.5,-1241.5 598.5,-1247.5 598.5,-1247.5 598.5,-1264.5 598.5,-1264.5 598.5,-1270.5 592.5,-1276.5 586.5,-1276.5"/>
<text text-anchor="middle" x="518.5" y="-1264.5" font-family="Helvetica,sans-Serif" font-size="10.00" fill="#ece1d7">advance_idle(lsn)</text>
<text text-anchor="middle" x="518.5" y="-1253.5" font-family="Helvetica,sans-Serif" font-size="10.00" fill="#ece1d7">fires when xacts_active == 0</text>
<text text-anchor="middle" x="518.5" y="-1242.5" font-family="Helvetica,sans-Serif" font-size="10.00" fill="#ece1d7">lifts drain_lsn / ack_lsn</text>
</g>
<!-- buf&#45;&gt;idle -->
<g id="edge5" class="edge">
<title>buf&#45;&gt;idle</title>
<path fill="none" stroke="#c1a78e" stroke-dasharray="5,2" d="M331.35,-1256C363.92,-1256 398.15,-1256 428.31,-1256"/>
<polygon fill="#c1a78e" stroke="#c1a78e" points="428.37,-1259.5 438.37,-1256 428.37,-1252.5 428.37,-1259.5"/>
<text text-anchor="middle" x="384.75" y="-1261.8" font-family="Helvetica,sans-Serif" font-size="9.00" fill="#ece1d7">xacts_active == 0</text>
</g>
<!-- evict -->
<g id="node8" class="node">
<title>evict</title>
<path fill="#4d3a28" stroke="#6e6963" d="M312,-1117C312,-1117 91,-1117 91,-1117 85,-1117 79,-1111 79,-1105 79,-1105 79,-1044 79,-1044 79,-1038 85,-1032 91,-1032 91,-1032 312,-1032 312,-1032 318,-1032 324,-1038 324,-1044 324,-1044 324,-1105 324,-1105 324,-1111 318,-1117 312,-1117"/>
<text text-anchor="middle" x="201.5" y="-1105" font-family="Helvetica,sans-Serif" font-size="10.00" fill="#ece1d7">maybe_evict</text>
<text text-anchor="middle" x="201.5" y="-1094" font-family="Helvetica,sans-Serif" font-size="10.00" fill="#ece1d7">bytes_in_memory &gt; xact_buffer_max (64 MiB)</text>
<text text-anchor="middle" x="201.5" y="-1083" font-family="Helvetica,sans-Serif" font-size="10.00" fill="#ece1d7">pick largest in&#45;mem xact</text>
<text text-anchor="middle" x="201.5" y="-1072" font-family="Helvetica,sans-Serif" font-size="10.00" fill="#ece1d7">(mirrors PG ReorderBufferLargestTXN)</text>
<text text-anchor="middle" x="201.5" y="-1061" font-family="Helvetica,sans-Serif" font-size="10.00" fill="#ece1d7">→ evict_xact: lazy&#45;open SpillWriter,</text>
<text text-anchor="middle" x="201.5" y="-1050" font-family="Helvetica,sans-Serif" font-size="10.00" fill="#ece1d7">drain in_mem → write(entry), zero bytes</text>
<text text-anchor="middle" x="201.5" y="-1039" font-family="Helvetica,sans-Serif" font-size="10.00" fill="#ece1d7">DrainEntry events stay in memory</text>
</g>
<!-- buf&#45;&gt;evict -->
<g id="edge6" class="edge">
<title>buf&#45;&gt;evict</title>
<path fill="none" stroke="#c1a78e" d="M201.5,-1176.79C201.5,-1160.21 201.5,-1143.1 201.5,-1127.76"/>
<polygon fill="#c1a78e" stroke="#c1a78e" points="205,-1127.46 201.5,-1117.46 198,-1127.46 205,-1127.46"/>
<text text-anchor="middle" x="243" y="-1149.8" font-family="Helvetica,sans-Serif" font-size="9.00" fill="#ece1d7">after every absorb</text>
<text text-anchor="middle" x="243" y="-1139.8" font-family="Helvetica,sans-Serif" font-size="9.00" fill="#ece1d7">while over budget</text>
</g>
<!-- subt&#45;&gt;merge -->
<g id="edge11" class="edge">
<title>subt&#45;&gt;merge</title>
<path fill="none" stroke="#c1a78e" stroke-dasharray="5,2" d="M909.64,-1235.3C907.37,-1183.25 901.15,-1040.78 897.76,-963.31"/>
<polygon fill="#c1a78e" stroke="#c1a78e" points="901.26,-963.12 897.32,-953.28 894.26,-963.43 901.26,-963.12"/>
<text text-anchor="middle" x="959.5" y="-1077.3" font-family="Helvetica,sans-Serif" font-size="9.00" fill="#ece1d7">(top + subxids)</text>
<text text-anchor="middle" x="959.5" y="-1067.3" font-family="Helvetica,sans-Serif" font-size="9.00" fill="#ece1d7">authoritative on COMMIT</text>
</g>
<!-- spill -->
<g id="node9" class="node">
<title>spill</title>
<polygon fill="#4d3850" stroke="#6e6963" points="845.5,-1106 633.5,-1106 633.5,-1043 851.5,-1043 851.5,-1100 845.5,-1106"/>
<polyline fill="none" stroke="#6e6963" points="845.5,-1106 845.5,-1100 "/>
<polyline fill="none" stroke="#6e6963" points="851.5,-1100 845.5,-1100 "/>
<text text-anchor="middle" x="742.5" y="-1094" font-family="Helvetica,sans-Serif" font-size="10.00" fill="#ece1d7">{spill}/xid&#45;{xid:010}&#45;{first_lsn:016X}.bin</text>
<text text-anchor="middle" x="742.5" y="-1083" font-family="Helvetica,sans-Serif" font-size="10.00" fill="#ece1d7">[&quot;WS&quot; magic | u16 ver=4]</text>
<text text-anchor="middle" x="742.5" y="-1072" font-family="Helvetica,sans-Serif" font-size="10.00" fill="#ece1d7">[tag u8 | u32 LE inner_len | body]*</text>
<text text-anchor="middle" x="742.5" y="-1061" font-family="Helvetica,sans-Serif" font-size="10.00" fill="#ece1d7">0 Heap · 1 Chunk · 2 ToastDelete · 3 Raw</text>
<text text-anchor="middle" x="742.5" y="-1050" font-family="Helvetica,sans-Serif" font-size="10.00" fill="#ece1d7">append&#45;only, fsync on finish</text>
</g>
<!-- abort&#45;&gt;spill -->
<g id="edge8" class="edge">
<title>abort&#45;&gt;spill</title>
<path fill="none" stroke="#6e6963" stroke-dasharray="5,2" d="M715.17,-1224.14C720.64,-1194.39 728.96,-1149.16 734.98,-1116.41"/>
<polygon fill="#6e6963" stroke="#6e6963" points="738.48,-1116.72 736.85,-1106.25 731.6,-1115.46 738.48,-1116.72"/>
<text text-anchor="middle" x="745.5" y="-1144.8" font-family="Helvetica,sans-Serif" font-size="9.00" fill="#ece1d7">unlink</text>
</g>
<!-- cursor -->
<g id="node15" class="node">
<title>cursor</title>
<polygon fill="#4d3850" stroke="#6e6963" points="861,-468 604,-468 604,-427 867,-427 867,-462 861,-468"/>
<polyline fill="none" stroke="#6e6963" points="861,-468 861,-462 "/>
<polyline fill="none" stroke="#6e6963" points="867,-462 861,-462 "/>
<text text-anchor="middle" x="735.5" y="-456" font-family="Helvetica,sans-Serif" font-size="10.00" fill="#ece1d7">cursor.bin</text>
<text text-anchor="middle" x="735.5" y="-445" font-family="Helvetica,sans-Serif" font-size="10.00" fill="#ece1d7">drain_lsn &#160;&#160;&#160;&#160;&#160;= max commit_lsn &#160;(advances FIRST)</text>
<text text-anchor="middle" x="735.5" y="-434" font-family="Helvetica,sans-Serif" font-size="10.00" fill="#ece1d7">emitter_ack_lsn = max ack_lsn &#160;&#160;(lags drain_lsn)</text>
</g>
<!-- abort&#45;&gt;cursor -->
<g id="edge18" class="edge">
<title>abort&#45;&gt;cursor</title>
<path fill="none" stroke="#b380b0" stroke-dasharray="1,5" d="M674.68,-1224.36C641.15,-1191.3 595.5,-1135.31 595.5,-1075.5 595.5,-1075.5 595.5,-1075.5 595.5,-554 595.5,-515.31 630.03,-489.02 664.79,-472.37"/>
<polygon fill="#b380b0" stroke="#b380b0" points="666.44,-475.46 674.09,-468.13 663.54,-469.09 666.44,-475.46"/>
<text text-anchor="middle" x="621.5" y="-798.8" font-family="Helvetica,sans-Serif" font-size="9.00" fill="#ece1d7">abort_lsn ↑</text>
</g>
<!-- idle&#45;&gt;cursor -->
<g id="edge19" class="edge">
<title>idle&#45;&gt;cursor</title>
<path fill="none" stroke="#b380b0" stroke-dasharray="1,5" d="M518.5,-1235.34C518.5,-1202.32 518.5,-1133.62 518.5,-1075.5 518.5,-1075.5 518.5,-1075.5 518.5,-554 518.5,-511.26 552.97,-485.83 594.44,-470.7"/>
<polygon fill="#b380b0" stroke="#b380b0" points="595.63,-473.99 603.95,-467.44 593.36,-467.37 595.63,-473.99"/>
<text text-anchor="middle" x="532" y="-798.8" font-family="Helvetica,sans-Serif" font-size="9.00" fill="#ece1d7">idle ↑</text>
</g>
<!-- evict&#45;&gt;spill -->
<g id="edge7" class="edge">
<title>evict&#45;&gt;spill</title>
<path fill="none" stroke="#6e6963" stroke-dasharray="5,2" d="M324.26,-1074.5C413.72,-1074.5 534.27,-1074.5 622.96,-1074.5"/>
<polygon fill="#6e6963" stroke="#6e6963" points="623.07,-1078 633.07,-1074.5 623.07,-1071 623.07,-1078"/>
<text text-anchor="middle" x="478.75" y="-1080.3" font-family="Helvetica,sans-Serif" font-size="9.00" fill="#ece1d7">SpillWriter::write</text>
</g>
<!-- spill&#45;&gt;merge -->
<g id="edge12" class="edge">
<title>spill&#45;&gt;merge</title>
<path fill="none" stroke="#6e6963" stroke-dasharray="5,2" d="M764.28,-1042.63C775.88,-1026.91 790.76,-1007.84 805.5,-992 815.48,-981.28 826.72,-970.41 837.78,-960.28"/>
<polygon fill="#6e6963" stroke="#6e6963" points="840.33,-962.69 845.4,-953.39 835.63,-957.5 840.33,-962.69"/>
<text text-anchor="middle" x="844" y="-1004.8" font-family="Helvetica,sans-Serif" font-size="9.00" fill="#ece1d7">SpillReader::next</text>
<text text-anchor="middle" x="844" y="-994.8" font-family="Helvetica,sans-Serif" font-size="9.00" fill="#ece1d7">then unlink</text>
</g>
<!-- dispatch -->
<g id="node11" class="node">
<title>dispatch</title>
<path fill="#4d4128" stroke="#6e6963" d="M975,-827C975,-827 790,-827 790,-827 784,-827 778,-821 778,-815 778,-815 778,-787 778,-787 778,-781 784,-775 790,-775 790,-775 975,-775 975,-775 981,-775 987,-781 987,-787 987,-787 987,-815 987,-815 987,-821 981,-827 975,-827"/>
<text text-anchor="middle" x="882.5" y="-815" font-family="Helvetica,sans-Serif" font-size="10.00" fill="#ece1d7">CommittedDrain → DrainedBatch slices</text>
<text text-anchor="middle" x="882.5" y="-804" font-family="Helvetica,sans-Serif" font-size="10.00" fill="#ece1d7">{heaps, chunks, ordered_events,</text>
<text text-anchor="middle" x="882.5" y="-793" font-family="Helvetica,sans-Serif" font-size="10.00" fill="#ece1d7"> new_rows, truncate_rows, is_final}</text>
<text text-anchor="middle" x="882.5" y="-782" font-family="Helvetica,sans-Serif" font-size="10.00" fill="#ece1d7">row/event cursors preserve WAL order</text>
</g>
<!-- merge&#45;&gt;dispatch -->
<g id="edge9" class="edge">
<title>merge&#45;&gt;dispatch</title>
<path fill="none" stroke="#c1a78e" d="M890.47,-867.94C889.26,-857.87 887.97,-847.2 886.79,-837.45"/>
<polygon fill="#c1a78e" stroke="#c1a78e" points="890.23,-836.8 885.56,-827.29 883.28,-837.64 890.23,-836.8"/>
</g>
<!-- detoast -->
<g id="node12" class="node">
<title>detoast</title>
<path fill="#4d4128" stroke="#6e6963" d="M1105,-715C1105,-715 926,-715 926,-715 920,-715 914,-709 914,-703 914,-703 914,-664 914,-664 914,-658 920,-652 926,-652 926,-652 1105,-652 1105,-652 1111,-652 1117,-658 1117,-664 1117,-664 1117,-703 1117,-703 1117,-709 1111,-715 1105,-715"/>
<text text-anchor="middle" x="1015.5" y="-703" font-family="Helvetica,sans-Serif" font-size="10.00" fill="#ece1d7">detoast_heap</text>
<text text-anchor="middle" x="1015.5" y="-692" font-family="Helvetica,sans-Serif" font-size="10.00" fill="#ece1d7">in&#45;xact ChunkMap fast path</text>
<text text-anchor="middle" x="1015.5" y="-681" font-family="Helvetica,sans-Serif" font-size="10.00" fill="#ece1d7">store fetch(relid, value_id, source_lsn)</text>
<text text-anchor="middle" x="1015.5" y="-670" font-family="Helvetica,sans-Serif" font-size="10.00" fill="#ece1d7">pglz / lz4 inline</text>
<text text-anchor="middle" x="1015.5" y="-659" font-family="Helvetica,sans-Serif" font-size="10.00" fill="#ece1d7">pipeline: decode pool; serial: inline</text>
</g>
<!-- dispatch&#45;&gt;detoast -->
<g id="edge13" class="edge">
<title>dispatch&#45;&gt;detoast</title>
<path fill="none" stroke="#bf8c5f" stroke-width="2" d="M911.36,-774.94C929.16,-759.48 952.34,-739.35 972.3,-722.01"/>
<polygon fill="#bf8c5f" stroke="#bf8c5f" stroke-width="2" points="974.81,-724.47 980.07,-715.27 970.22,-719.19 974.81,-724.47"/>
<text text-anchor="middle" x="984" y="-747.8" font-family="Helvetica,sans-Serif" font-size="9.00" fill="#ece1d7">DecodeJob /</text>
<text text-anchor="middle" x="984" y="-737.8" font-family="Helvetica,sans-Serif" font-size="9.00" fill="#ece1d7">serial heap</text>
</g>
<!-- store -->
<g id="node14" class="node">
<title>store</title>
<path fill="#5d4628" stroke="#6e6963" d="M837,-706.72C837,-709.56 791.51,-711.88 735.5,-711.88 679.49,-711.88 634,-709.56 634,-706.72 634,-706.72 634,-660.28 634,-660.28 634,-657.44 679.49,-655.12 735.5,-655.12 791.51,-655.12 837,-657.44 837,-660.28 837,-660.28 837,-706.72 837,-706.72"/>
<path fill="none" stroke="#6e6963" d="M837,-706.72C837,-703.87 791.51,-701.56 735.5,-701.56 679.49,-701.56 634,-703.87 634,-706.72"/>
<text text-anchor="middle" x="735.5" y="-692" font-family="Helvetica,sans-Serif" font-size="10.00" fill="#ece1d7">ToastResolver::put(new_rows)</text>
<text text-anchor="middle" x="735.5" y="-681" font-family="Helvetica,sans-Serif" font-size="10.00" fill="#ece1d7">before publishing marker</text>
<text text-anchor="middle" x="735.5" y="-670" font-family="Helvetica,sans-Serif" font-size="10.00" fill="#ece1d7">barrier cursors interleave wipes / O−B</text>
</g>
<!-- dispatch&#45;&gt;store -->
<g id="edge15" class="edge">
<title>dispatch&#45;&gt;store</title>
<path fill="none" stroke="#bf8c5f" stroke-dasharray="5,2" d="M790.08,-774.87C779.97,-769.46 770.47,-762.92 762.5,-755 753.42,-745.98 747.34,-733.58 743.29,-721.7"/>
<polygon fill="#bf8c5f" stroke="#bf8c5f" points="746.58,-720.49 740.34,-711.92 739.87,-722.5 746.58,-720.49"/>
<text text-anchor="middle" x="809.5" y="-742.8" font-family="Helvetica,sans-Serif" font-size="9.00" fill="#ece1d7">births + tombstones</text>
</g>
<!-- dispatch&#45;&gt;cursor -->
<g id="edge16" class="edge">
<title>dispatch&#45;&gt;cursor</title>
<path fill="none" stroke="#b380b0" stroke-dasharray="1,5" d="M879.16,-774.74C874.68,-744.75 865.38,-693.56 849.5,-652 824.14,-585.64 780,-514.66 754.73,-476.56"/>
<polygon fill="#b380b0" stroke="#b380b0" points="757.51,-474.41 749.04,-468.05 751.69,-478.31 757.51,-474.41"/>
<text text-anchor="middle" x="866.5" y="-624.8" font-family="Helvetica,sans-Serif" font-size="9.00" fill="#ece1d7">drain_lsn ↑</text>
<text text-anchor="middle" x="866.5" y="-614.8" font-family="Helvetica,sans-Serif" font-size="9.00" fill="#ece1d7">(pre&#45;ack)</text>
</g>
<!-- observer -->
<g id="node13" class="node">
<title>observer</title>
<path fill="#5d4628" stroke="#6e6963" d="M1107,-592C1107,-592 926,-592 926,-592 920,-592 914,-586 914,-580 914,-580 914,-530 914,-530 914,-524 920,-518 926,-518 926,-518 1107,-518 1107,-518 1113,-518 1119,-524 1119,-530 1119,-530 1119,-580 1119,-580 1119,-586 1113,-592 1107,-592"/>
<text text-anchor="middle" x="1016.5" y="-580" font-family="Helvetica,sans-Serif" font-size="10.00" fill="#ece1d7">consumer</text>
<text text-anchor="middle" x="1016.5" y="-569" font-family="Helvetica,sans-Serif" font-size="10.00" fill="#ece1d7">pipeline (&#45;&#45;ch&#45;config): ReorderSink seq</text>
<text text-anchor="middle" x="1016.5" y="-558" font-family="Helvetica,sans-Serif" font-size="10.00" fill="#ece1d7">→ decode ×M → batcher → inserter ×N</text>
<text text-anchor="middle" x="1016.5" y="-547" font-family="Helvetica,sans-Serif" font-size="10.00" fill="#ece1d7">→ ack collector watermark</text>
<text text-anchor="middle" x="1016.5" y="-536" font-family="Helvetica,sans-Serif" font-size="10.00" fill="#ece1d7">serial (metrics&#45;only): TupleObserver</text>
<text text-anchor="middle" x="1016.5" y="-525" font-family="Helvetica,sans-Serif" font-size="10.00" fill="#ece1d7">on_tuple / on_xact_end</text>
</g>
<!-- detoast&#45;&gt;observer -->
<g id="edge14" class="edge">
<title>detoast&#45;&gt;observer</title>
<path fill="none" stroke="#bf8c5f" stroke-width="2" d="M1015.74,-651.88C1015.86,-636.98 1016,-618.76 1016.13,-602.22"/>
<polygon fill="#bf8c5f" stroke="#bf8c5f" stroke-width="2" points="1019.63,-602.21 1016.21,-592.18 1012.63,-602.15 1019.63,-602.21"/>
<text text-anchor="middle" x="1052.5" y="-624.8" font-family="Helvetica,sans-Serif" font-size="9.00" fill="#ece1d7">decoded row /</text>
<text text-anchor="middle" x="1052.5" y="-614.8" font-family="Helvetica,sans-Serif" font-size="9.00" fill="#ece1d7">on_tuple stream</text>
</g>
<!-- observer&#45;&gt;cursor -->
<g id="edge17" class="edge">
<title>observer&#45;&gt;cursor</title>
<path fill="none" stroke="#b380b0" stroke-dasharray="1,5" d="M957.12,-517.99C937.66,-507.25 915.61,-496.18 894.5,-488 877.41,-481.38 858.86,-475.59 840.66,-470.63"/>
<polygon fill="#b380b0" stroke="#b380b0" points="841.45,-467.22 830.89,-468.04 839.65,-473.99 841.45,-467.22"/>
<text text-anchor="middle" x="955.5" y="-490.8" font-family="Helvetica,sans-Serif" font-size="9.00" fill="#ece1d7">emitter_ack_lsn ↑</text>
</g>
<!-- legend -->
<g id="node16" class="node">
<title>legend</title>
<path fill="#6e6963" stroke="transparent" d="M940.5,-386C940.5,-386 530.5,-386 530.5,-386 524.5,-386 518.5,-380 518.5,-374 518.5,-374 518.5,-12 518.5,-12 518.5,-6 524.5,0 530.5,0 530.5,0 940.5,0 940.5,0 946.5,0 952.5,-6 952.5,-12 952.5,-12 952.5,-374 952.5,-374 952.5,-380 946.5,-386 940.5,-386"/>
<polygon fill="#34302c" stroke="transparent" points="526.5,-361 526.5,-382 944.5,-382 944.5,-361 526.5,-361"/>
<polygon fill="none" stroke="#6e6963" points="526.5,-361 526.5,-382 944.5,-382 944.5,-361 526.5,-361"/>
<text text-anchor="start" x="692" y="-370" font-family="Helvetica,sans-Serif" font-weight="bold" font-size="10.00" fill="#ece1d7">node fill — role</text>
<polygon fill="#3d3d54" stroke="transparent" points="526.5,-340 526.5,-361 628.5,-361 628.5,-340 526.5,-340"/>
<polygon fill="none" stroke="#6e6963" points="526.5,-340 526.5,-361 628.5,-361 628.5,-340 526.5,-340"/>
<polygon fill="none" stroke="#6e6963" points="628.5,-340 628.5,-361 944.5,-361 944.5,-340 628.5,-340"/>
<text text-anchor="start" x="708.5" y="-348" font-family="Helvetica,sans-Serif" font-size="10.00" fill="#ece1d7">source PG / XLOG_XACT records</text>
<polygon fill="#4d3a28" stroke="transparent" points="526.5,-319 526.5,-340 628.5,-340 628.5,-319 526.5,-319"/>
<polygon fill="none" stroke="#6e6963" points="526.5,-319 526.5,-340 628.5,-340 628.5,-319 526.5,-319"/>
<polygon fill="none" stroke="#6e6963" points="628.5,-319 628.5,-340 944.5,-340 944.5,-319 628.5,-319"/>
<text text-anchor="start" x="702" y="-327" font-family="Helvetica,sans-Serif" font-size="10.00" fill="#ece1d7">eviction policy (sync, after absorb)</text>
<polygon fill="#4d4128" stroke="transparent" points="526.5,-298 526.5,-319 628.5,-319 628.5,-298 526.5,-298"/>
<polygon fill="none" stroke="#6e6963" points="526.5,-298 526.5,-319 628.5,-319 628.5,-298 526.5,-298"/>
<polygon fill="none" stroke="#6e6963" points="628.5,-298 628.5,-319 944.5,-319 944.5,-298 628.5,-298"/>
<text text-anchor="start" x="720" y="-306" font-family="Helvetica,sans-Serif" font-size="10.00" fill="#ece1d7">XactBuffer / decoder / drain</text>
<polygon fill="#4d4d28" stroke="transparent" points="526.5,-277 526.5,-298 628.5,-298 628.5,-277 526.5,-277"/>
<polygon fill="none" stroke="#6e6963" points="526.5,-277 526.5,-298 628.5,-298 628.5,-277 526.5,-277"/>
<polygon fill="none" stroke="#6e6963" points="628.5,-277 628.5,-298 944.5,-298 944.5,-277 628.5,-277"/>
<text text-anchor="start" x="703.5" y="-285" font-family="Helvetica,sans-Serif" font-size="10.00" fill="#ece1d7">ShadowCatalog schema_event_tx</text>
<polygon fill="#5d4628" stroke="transparent" points="526.5,-256 526.5,-277 628.5,-277 628.5,-256 526.5,-256"/>
<polygon fill="none" stroke="#6e6963" points="526.5,-256 526.5,-277 628.5,-277 628.5,-256 526.5,-256"/>
<polygon fill="none" stroke="#6e6963" points="628.5,-256 628.5,-277 944.5,-277 944.5,-256 628.5,-256"/>
<text text-anchor="start" x="670.5" y="-264" font-family="Helvetica,sans-Serif" font-size="10.00" fill="#ece1d7">downstream consumer (pipeline tail / observer)</text>
<polygon fill="#4d3850" stroke="transparent" points="526.5,-235 526.5,-256 628.5,-256 628.5,-235 526.5,-235"/>
<polygon fill="none" stroke="#6e6963" points="526.5,-235 526.5,-256 628.5,-256 628.5,-235 526.5,-235"/>
<polygon fill="none" stroke="#6e6963" points="628.5,-235 628.5,-256 944.5,-256 944.5,-235 628.5,-235"/>
<text text-anchor="start" x="714" y="-243" font-family="Helvetica,sans-Serif" font-size="10.00" fill="#ece1d7">on&#45;disk artifact (spill / cursor)</text>
<polygon fill="#34302c" stroke="transparent" points="526.5,-214 526.5,-235 944.5,-235 944.5,-214 526.5,-214"/>
<polygon fill="none" stroke="#6e6963" points="526.5,-214 526.5,-235 944.5,-235 944.5,-214 526.5,-214"/>
<text text-anchor="start" x="701.5" y="-223" font-family="Helvetica,sans-Serif" font-weight="bold" font-size="10.00" fill="#ece1d7">edge colour</text>
<polygon fill="none" stroke="#6e6963" points="526.5,-193 526.5,-214 628.5,-214 628.5,-193 526.5,-193"/>
<text text-anchor="start" x="571" y="-202" font-family="Helvetica,sans-Serif" font-weight="bold" font-size="10.00" fill="#c1a78e">━━</text>
<polygon fill="none" stroke="#6e6963" points="628.5,-193 628.5,-214 944.5,-214 944.5,-193 628.5,-193"/>
<text text-anchor="start" x="717.5" y="-201" font-family="Helvetica,sans-Serif" font-size="10.00" fill="#ece1d7">buffer&#45;internal control / data</text>
<polygon fill="none" stroke="#6e6963" points="526.5,-172 526.5,-193 628.5,-193 628.5,-172 526.5,-172"/>
<text text-anchor="start" x="571" y="-181" font-family="Helvetica,sans-Serif" font-weight="bold" font-size="10.00" fill="#cba85e">┄┄</text>
<polygon fill="none" stroke="#6e6963" points="628.5,-172 628.5,-193 944.5,-193 944.5,-172 628.5,-172"/>
<text text-anchor="start" x="716" y="-180" font-family="Helvetica,sans-Serif" font-size="10.00" fill="#ece1d7">schema event (lsn&#45;stamped)</text>
<polygon fill="none" stroke="#6e6963" points="526.5,-151 526.5,-172 628.5,-172 628.5,-151 526.5,-151"/>
<text text-anchor="start" x="571" y="-160" font-family="Helvetica,sans-Serif" font-weight="bold" font-size="10.00" fill="#bf8c5f">━━</text>
<polygon fill="none" stroke="#6e6963" points="628.5,-151 628.5,-172 944.5,-172 944.5,-151 628.5,-151"/>
<text text-anchor="start" x="699" y="-159" font-family="Helvetica,sans-Serif" font-size="10.00" fill="#ece1d7">CH Native rows + DDL via observer</text>
<polygon fill="none" stroke="#6e6963" points="526.5,-130 526.5,-151 628.5,-151 628.5,-130 526.5,-130"/>
<text text-anchor="start" x="571" y="-139" font-family="Helvetica,sans-Serif" font-weight="bold" font-size="10.00" fill="#6e6963">┄┄</text>
<polygon fill="none" stroke="#6e6963" points="628.5,-130 628.5,-151 944.5,-151 944.5,-130 628.5,-130"/>
<text text-anchor="start" x="708" y="-138" font-family="Helvetica,sans-Serif" font-size="10.00" fill="#ece1d7">spill file IO (write / read / unlink)</text>
<polygon fill="none" stroke="#6e6963" points="526.5,-109 526.5,-130 628.5,-130 628.5,-109 526.5,-109"/>
<text text-anchor="start" x="571.5" y="-118" font-family="Helvetica,sans-Serif" font-weight="bold" font-size="10.00" fill="#b380b0">···</text>
<polygon fill="none" stroke="#6e6963" points="628.5,-109 628.5,-130 944.5,-130 944.5,-109 628.5,-109"/>
<text text-anchor="start" x="675.5" y="-117" font-family="Helvetica,sans-Serif" font-size="10.00" fill="#ece1d7">cursor durability (drain_lsn / emitter_ack_lsn)</text>
<polygon fill="#34302c" stroke="transparent" points="526.5,-88 526.5,-109 944.5,-109 944.5,-88 526.5,-88"/>
<polygon fill="none" stroke="#6e6963" points="526.5,-88 526.5,-109 944.5,-109 944.5,-88 526.5,-88"/>
<text text-anchor="start" x="648.5" y="-97" font-family="Helvetica,sans-Serif" font-weight="bold" font-size="10.00" fill="#ece1d7">k&#45;way merge — ordering rules</text>
<polygon fill="none" stroke="#6e6963" points="526.5,-67 526.5,-88 944.5,-88 944.5,-67 526.5,-67"/>
<text text-anchor="start" x="657.5" y="-75" font-family="Helvetica,sans-Serif" font-size="10.00" fill="#ece1d7">heads sorted ASC by source_lsn</text>
<polygon fill="none" stroke="#6e6963" points="526.5,-46 526.5,-67 944.5,-67 944.5,-46 526.5,-46"/>
<text text-anchor="start" x="595.5" y="-54" font-family="Helvetica,sans-Serif" font-size="10.00" fill="#ece1d7">tie: catalog event BEFORE tuple (PG writes pg_class first)</text>
<polygon fill="none" stroke="#6e6963" points="526.5,-25 526.5,-46 944.5,-46 944.5,-25 526.5,-25"/>
<text text-anchor="start" x="531.5" y="-33" font-family="Helvetica,sans-Serif" font-size="10.00" fill="#ece1d7">heaps detoast post&#45;merge; chunk maps resolve rows; ToastRows persist separately</text>
<polygon fill="none" stroke="#6e6963" points="526.5,-4 526.5,-25 944.5,-25 944.5,-4 526.5,-4"/>
<text text-anchor="start" x="560" y="-12" font-family="Helvetica,sans-Serif" font-size="10.00" fill="#ece1d7">drain_lsn advances BEFORE on_xact_end ack — cursor surfaces the gap</text>
</g>
<!-- cursor&#45;&gt;legend -->
</g>
</svg>
